<?xml version="1.0" encoding="UTF-8"?>
<svg id="Layer_1" data-name="Layer 1" xmlns="http://www.w3.org/2000/svg" version="1.1" viewBox="0 0 595.28 413.49">
  <defs>
    <style>
      .cls-1 {
        fill: #000;
        stroke-width: 0px;
      }
    </style>
  </defs>
  <path class="cls-1" d="M200.77,72.25c-.02,1.43-.83,1.49-1.41,1.69-1.75.59-3.52,1.12-5.29,1.65-9.83,2.94-19.63,5.97-29.49,8.77-6.63,1.88-13.36,3.4-20.03,5.13-12.47,3.24-24.75,7.08-36.74,11.81-1.48.58-2.76,1.25-2.81,3.13-.02.91-.74,1.17-1.54,1.4-2.83.82-5.62,1.74-8.44,2.58-7.8,2.32-15.05,5.82-22.04,9.96-6.75,4-13.41,8.12-19.91,12.52-6.47,4.38-12.25,9.52-17.59,15.19-.59.62-.68,1.19-.47,1.97-2.26.72-3.45,2.62-4.81,4.32-3.11,3.88-6.03,7.89-8.39,12.29-3.36,6.29-4.93,12.96-5.05,20.1-.17,10,1.94,19.53,5.32,28.84,4.12,11.34,10.07,21.7,17.32,31.29,7.05,9.33,15.19,17.62,24.43,24.85,8.4,6.57,17.34,12.26,26.68,17.35,12.9,7.04,26.31,12.89,40.12,17.89,10.46,3.78,21.11,6.9,31.94,9.34,8.19,1.85,16.47,3.34,24.74,4.85,5.95,1.09,11.93,2.03,17.92,2.89,4.74.68,9.52,1.13,14.28,1.7,5.26.62,10.51,1.34,15.78,1.86,5.03.5,10.07.83,15.12,1.18,5.29.37,10.6.63,15.89,1.03,9.78.76,19.58.51,29.37.39,6.65-.08,13.3-.56,19.95-.89,3.62-.18,7.24-.35,10.86-.65,4.61-.38,9.21-.88,13.82-1.33,2.18-.21,4.36-.4,6.54-.61,5.61-.54,11.23-1.06,16.84-1.64,6.19-.64,12.39-1.3,18.57-2.02,6.43-.75,12.86-1.57,19.28-2.4,6.67-.86,13.36-1.63,20.01-2.68,7.64-1.21,15.27-2.53,22.85-4.11,3.67-.77,7.22-2.2,10.79-3.41,10.41-3.52,20.82-7.04,31.2-10.64,2.62-.91,5.18-2.01,7.69-3.18,7.89-3.65,15.66-7.53,22.97-12.24,2.74-1.77,5.6-3.32,8.29-5.17,2.71-1.87,5.49-3.63,8.18-5.51,2.7-1.88,5.37-3.8,7.97-5.81,9.56-7.37,18.04-15.81,24.81-25.82,7.4-10.93,12.49-22.87,14.92-35.91.75-3.99,1.34-8.01,1.27-12.03-.21-12.66-3.73-24.28-11.87-34.19-3.7-4.51-7.97-8.5-12.59-12.1-10.61-8.27-21.97-15.36-34.14-21.12-2.59-1.22-5.23-2.33-7.84-3.51-.98-.44-1.94-.95-2.93-1.43.16-.49.27-.79.38-1.12-.08-.11-.15-.27-.27-.33-17.15-7.94-34.75-14.66-53.24-18.74-9.52-2.1-19.1-3.93-28.69-5.65-7.61-1.37-15.27-2.46-22.92-3.57-8.81-1.27-17.25-3.72-25.25-7.66-.58-.29-1.1-.68-1.71-1.06.3-.32.45-.61.65-.66,2.93-.75,5.82-1.65,8.88-1.79,2.78-.13,5.55-.34,8.32-.47,4.16-.2,8.23.6,12.3,1.23,5.57.86,11.12,1.83,16.66,2.84,5.13.94,10.26,1.87,15.34,3.02,7.7,1.75,15.41,3.5,23.03,5.59,14.18,3.89,27.79,9.26,40.78,16.17,2.98,1.58,5.93,3.21,8.9,4.8.59.32,1.19.64,1.82.86,7.05,2.41,13.67,5.77,20.17,9.32,8.07,4.41,15.78,9.41,23.12,14.98,6.55,4.97,12.69,10.37,17.62,16.99,5.31,7.13,8.96,15.04,10.73,23.78,1.09,5.39,1.75,10.84,1.41,16.33-.39,6.22-1.45,12.35-3.11,18.37-3.43,12.5-8.97,23.98-16.75,34.33-5.23,6.97-11.25,13.21-17.93,18.86-8.67,7.34-18.21,13.37-27.96,19.09-5.16,3.03-10.48,5.78-15.75,8.63-1.11.6-2.31,1.02-3.44,1.6-2.78,1.42-5.61,2.75-8.28,4.34-4.51,2.68-9.26,4.85-14.14,6.71-7.46,2.85-14.96,5.57-22.48,8.27-2.36.85-4.81,1.4-7.03,2.7-1.04.62-2.39.78-3.62,1.01-7.19,1.34-14.38,2.71-21.6,3.94-4.15.71-8.33,1.16-12.5,1.73-4.5.62-8.99,1.28-13.5,1.84-3.76.46-7.54.77-11.3,1.18-4.01.44-8.02.92-12.03,1.36-1.92.21-3.85.39-5.78.56-6.12.56-12.24,1.11-18.37,1.66-5.7.51-11.4,1.07-17.11,1.52-7.05.56-14.11,1.06-21.17,1.52-3.95.26-7.92.44-11.88.53-8.1.17-16.2.44-24.3.32-7.58-.11-15.17-.56-22.74-1.03-5.71-.35-11.41-.9-17.11-1.49-5.27-.54-10.52-1.24-15.79-1.86-4.59-.55-9.2-1.01-13.78-1.67-6.16-.88-12.3-1.82-18.43-2.88-7.7-1.33-15.42-2.61-23.05-4.26-7.47-1.62-14.87-3.57-22.25-5.58-8.04-2.2-15.91-4.94-23.67-7.98-11.54-4.52-22.83-9.6-33.71-15.56-6.59-3.61-13.02-7.46-19.21-11.72-6.82-4.7-13.24-9.88-19.24-15.6-8.98-8.56-16.59-18.19-22.9-28.84-5.61-9.45-9.95-19.45-12.59-30.16-1.85-7.49-2.81-15.07-2.27-22.77.71-10.12,3.89-19.44,9.77-27.74,1.35-1.9,3.18-3.45,4.8-5.16.64-.67,1.32-1.3,1.93-2,2.92-3.38,5.77-6.82,8.75-10.15,6.39-7.15,13.76-13.19,21.68-18.54,8.17-5.53,16.38-11,24.71-16.28,9.56-6.05,19.69-11.05,30.14-15.4,13.47-5.6,27.28-10.16,41.46-13.58,4.99-1.2,10.07-1.9,15.18-2.47,5.88-.66,11.75-1.15,17.66-.82,3.43.19,6.84.64,10.3.98Z"/>
  <path class="cls-1" d="M187.24,152.87c0,2.75,0,5.28,0,7.8,0,3.8,0,7.6.05,11.41.05,4.31-1.41,7.92-4.86,10.62-.27.21-.56.38-1.24.84,2.35.73,4.19,1.31,6.01,1.88-.09.38-.08.63-.17.68-2.17,1.16-4.52,1.85-6.93,2.18-1.9.26-3.68-.34-5.23-1.48-2.63-1.94-2.58-5.66.12-7.51.69-.47,1.47-.84,2.25-1.15,2.72-1.1,4.04-3.22,4.33-6.01.26-2.51.39-5.04.55-7.56.2-3.2.37-6.4.55-9.59.02-.42,0-.83,0-1.37-2.78-.59-5.24-1.81-7.65-3.96,0,1.68.07,3.01-.01,4.34-.33,5.71-1.61,11.14-4.69,16.06-2.31,3.68-5.43,6.41-9.42,8.13-.45.19-.9.39-1.44.62.62,4.76.58,9.48.36,14.18-.11,2.25-.52,4.53-1.17,6.69-.73,2.44-2.1,4.59-4.21,6.31,3.68-.33,7.31-.76,10.86.91-2.17.4-4.33.97-6.53,1.16-3.94.35-7.9.47-11.86.68-1.23.07-2.26-.27-3.24-1.12-2.17-1.9-.95-5.4,1.14-6.05.72-.22,1.45-.45,2.19-.54,3.54-.39,5.69-2.37,6.51-5.77.49-2.04.89-4.12,1.12-6.2.29-2.68.37-5.38.53-8.07.02-.41-.06-.83-.08-1.17-.21-.17-.33-.36-.46-.37-5.38-.26-9.03-3.35-12.07-7.39-2.85-3.78-4.37-8.07-5.17-12.73-.91-5.36-1-10.74-.78-16.13.09-2.18.51-4.34.78-6.51.17-1.43.23-2.7-.88-3.98-1.52-1.77-.97-3.73.68-5.85-2.03.56-3.62,1-5.21,1.45-4.98,1.43-10.03,2.17-15.22,1.8-2.23-.16-4.29-.81-6.16-2.04-3.04-2.01-4.11-5.07-3.08-8.58.73-2.49,2.15-4.59,3.8-6.49,4.67-5.33,10.13-9.65,16.8-12.26,2.91-1.14,5.89-2,9.04-2.17,1.42-.08,2.84-.36,4.27-.35,1.08,0,2.16.29,3.22.54.38.09.95.41,1,.69.22,1.32,1.28,1.39,2.22,1.74,2.36.88,4.81,1.6,6.71,3.4.36.35.8.63,1.11,1.02,2.2,2.75,2.8,5.23.42,8.75-2.13,3.16-5.17,5.28-8.33,7.26-1.47.92-2.98,1.75-4.45,2.74,4.54-.74,9.09-.49,13.62-.32,1.99.07,3.98.54,5.95.95.87.18.85.31.9,1.92-.8.04-1.65.25-2.41.09-4.34-.89-8.69-.61-13.03-.07-2.07.26-4.14.7-6.16,1.23-1.47.38-1.63.65-2.69,2.06.08,1.03.96,1.32,1.67,1.71,2.53,1.42,5.29,2.15,8.11,2.68,3.59.68,7.22.62,10.84.53,2.18-.05,4.36-.32,6.54-.48.33-.02.65,0,1.01.15-1.99,1.24-4.34,1.21-6.5,1.77-2.18.57-4.45.9-6.7,1.06-2.35.16-4.75.18-7.08-.08-2.22-.24-4.4-.92-6.83-1.45-.22,6.68-.03,13.2,1.32,19.82.5-.1.97-.16,1.41-.29,2.79-.84,5.66-.77,8.52-.78,2.2,0,4.39.03,6.59.07,3.46.06,6.68-.71,9.55-2.73.18-.13.45-.13.81-.23.26,1.79-.82,2.94-1.8,4-1.04,1.12-2.46,1.89-4,1.97-2.1.11-4.26.23-6.31-.14-4.09-.74-8.19-.97-12.32-.85-.74.02-1.55-.12-2.08.78.92,4.48,2.75,8.6,5.92,12,3.25,3.49,6.13,4.71,11.3,2.2,2.03-.99,3.58-2.5,4.91-4.28,2.06-2.77,3.02-6.02,3.96-9.25,1.08-3.71,1.99-7.47,2.96-11.21.42-1.65.36-3.21-.22-4.9-1.34-3.91-2.06-7.97-2.19-12.13-.05-1.51-.38-3.03-.3-4.53.27-5.2.36-10.44,1.99-15.47.13-.4.34-.8.36-1.2.12-2.81,1.74-4.88,3.46-6.86,1.12-1.28,2.47-2.29,4.25-2.54,2.16-.3,4.31-.81,6.47-.9,3.46-.14,6.93-.06,10.39.03.79.02,1.65.3,2.35.69.68.37.6,1.34-.1,1.65-.75.33-1.59.57-2.41.64-2.85.24-5.73.25-8.56.62-2.65.35-5.29.93-7.87,1.66-1.5.42-2.99,1.13-4.03,2.65.34.39.59.89.99,1.07,1.06.49,2.17.89,3.3,1.23,4.91,1.47,9.97,1.66,15.03,1.33,2.43-.16,4.76-.97,6.96-2.32.52-1.59,0-3.3.35-5.27.42.55.73.86.92,1.23,3.49,6.7,4.76,13.89,3.96,21.31-.8,7.43-3.71,14.13-8.53,19.94-2.84,3.43-6.13,6.25-10.6,7.82ZM185.33,144.91c2.1.39,2.25.36,3.72-.84.39-.32.76-.67,1.13-1.02,5.65-5.42,8.51-12.17,9.62-20.02-2.42,1.07-4.78,1.42-7.22,1.47-4.11.08-8.02-.86-11.81-2.31-2.01-.77-3.92-1.78-6.54-.79,1.31-2.23,3.04-2.07,4.68-1.92,1.08.1,2.13.43,3.19.69,3.81.96,7.7,1.03,11.55.62,2.31-.24,4.53-1.13,6.79-2.22.25-2.93.49-5.82.77-9.11-.8.67-1.33,1.05-1.8,1.5-1.5,1.42-3.26,2.37-5.23,2.97-5.28,1.61-10.57,1.9-15.9.26-1.56-.48-3.09-1.06-4.7-1.62-.58,8.24-.11,16.27,2.07,24.15.65,2.35,1.5,4.66,2.98,6.66,1.22,1.65,2.58,3.12,4.87,3.21.63-.58,1.24-1.15,1.81-1.68ZM143.01,99.72c-.52.08-1.34.23-2.17.32-4.22.42-8.24,1.53-12.06,3.4-5.48,2.68-10,6.56-13.95,11.12-1.48,1.71-2.82,3.57-3.41,5.84-.43,1.66.02,3.09,1.48,3.91.93.53,2.01,1.02,3.05,1.07,2.52.14,5.11.33,7.58-.07,7.02-1.14,13.73-3.31,19.9-6.94,2.84-1.67,5.59-3.49,7.7-6.07,1.64-2,1.62-3.46-.1-5.4-1.23-1.38-2.66-2.57-4.04-3.81-1.17-1.05-2.39-2.03-3.98-3.38Z"/>
  <path class="cls-1" d="M490.88,122.14c.38-3.78-2.04-5.72-4.78-7.38-3.26-1.97-6.82-3.28-10.42-4.5-4.24-1.43-8.59-2.5-13.03-2.83-3.68-.27-7.41-.03-11.1.16-3.46.18-6.85.89-10.07,2.18-1.7.68-3.38,1.54-4.89,2.59-2.29,1.59-2.82,3.72-2.09,6.45.99,3.69,3.36,6.43,6.18,8.74,5.92,4.85,12.74,7.75,20.27,9.14,4.01.74,8.02,1.07,12.07.86,2.77-.14,5.56-.38,8.16-1.43,1.62-.66,3.24-1.45,4.67-2.45,2.75-1.91,3.66-4.68,3.16-7.96-.13-.87-.42-1.82.4-2.6,4.17,5.49,5.34,10.72-.49,16.42,1.1.11,2.17.22,3.57.37,1.59-2.38,3.46-4.87,5-7.56,1.53-2.66,2.72-5.52,4.18-8.54.57,1.09.28,1.85.09,2.64-1.1,4.65-3.27,8.81-5.73,12.85-.52.86-1.04,1.73-1.53,2.55.24.64.44,1.18.64,1.71.18.05.38.17.48.11,3.64-1.98,7.64-2.62,11.67-2.89,4.98-.34,9.92.31,14.78,1.35,2.61.56,5.16.11,7.74-.14,3.1-.3,6.2-.53,9.3-.77.67-.05,1.39-.07,1.8.9-.43.16-.84.41-1.28.47-4.23.63-8.47,1.23-12.71,1.85-4.07.6-8.14,1.24-12.21,1.83-3.33.48-6.65,1.02-9.99,1.33-2.51.23-5.07.24-7.59.12-.9-.04-1.77-.78-2.82-1.28-1.39,1.14-1.95,3.73-4.78,3.87.08-.63.14-1.15.22-1.88-1.19.7-2.22,1.55-3.7,1.69-.11-1.47,1.05-2.38,1.11-3.76-1.05.66-2.04,1.28-3.03,1.9-.07-.1-.14-.2-.21-.29,1.23-1.16,2.45-2.33,3.8-3.61-1.58.17-2.65,1.41-4.35,1.28.39-1.87,1.85-2.92,3.14-4.57-12.72,4.5-24.87,3.23-36.88-.91-.59.95-.29,1.76.13,2.49.75,1.31,1.58,2.58,2.39,3.85,1.34,2.09.69,4.32-1.52,5.21-1.63.65-2.88.14-3.3-1.6-.44-1.85-2-3.41-1.47-5.49.44-1.78.93-3.55,1.44-5.49-5.23-2.5-10.1-5.57-13.99-10.01-1.1,1.36-2.09,2.59-3.18,3.93,1.3,6.71-.02,13.42-1.33,20.1-.56,2.88-1.41,5.72-2.35,8.5-1.48,4.39-4.26,7.82-8.23,10.25-2.66.52-3.36,2.31-3.74,4.83-1.08,7.17-4.25,13.6-7.67,19.9-.64,1.18-1.2,2.41-1.68,3.66-.74,1.92-.35,2.98,1.49,3.95.96.51,1.99,1.04,3.04,1.18,3.11.42,6.22.54,9.15-1,.7-.37,1.35-1.06,2.31-.75-3.1,6.52-12.02,8.92-17.87,5.1-2.83-1.85-4.61-5.62-3.15-9,.89-2.08,1.91-4.12,3.06-6.06,2.89-4.86,5.66-9.76,7.22-15.24.45-1.59.84-3.21,1.26-4.82-1.62-.47-3.12-.76-4.49-1.33-4.92-2.05-8.01-5.81-9.47-10.86-.75-2.58-1.23-5.25-1.19-7.97.03-1.94,0-3.89-.02-5.83-.06-4.5.8-8.87,1.72-13.24.41-1.95.78-3.92,1.19-6.01.87-.02,1.7.11,2.05,1.5.12.49,1.18.89,1.87,1.05,1.8.41,3.62.82,5.46.95,5.15.37,10.28.16,15.26-1.42.23-.07.43-.25.71-.42v-3.97c-8.1-1.31-16.28-.61-24.38.37-.57-1.38.4-1.6,1.02-1.79,1.61-.47,3.24-.91,4.9-1.12,4.25-.55,8.49-1.2,12.81-1.17,3.46.02,6.87.19,10.09,1.32-.42-2.13-1.02-4.22-1.2-6.34-.37-4.36,1.69-7.62,5.1-10.13,3.33-2.46,7.19-3.65,11.16-4.5,5.06-1.08,10.2-1.41,15.34-1.03,6.43.48,12.58,2.17,18.5,4.69,3.42,1.45,6.73,3.1,9.72,5.36,1.57,1.19,2.86,2.61,3.89,4.28.89,1.45.98,3.05.65,4.65-.12.59-.64,1.09-.98,1.63-.16-.05-.33-.1-.49-.15ZM423.53,144.6c-3.59,1.04-6.66.63-9.71-.09-2.04-.48-4.04-1.17-6.09-1.55-2.37-.44-4.8-.75-7.03.46-.47,4.53.62,12.23,1.96,15.82.81,2.17,1.84,4.18,3.7,5.62,3.85,2.97,7.83,2.86,11.17-.87.72-.8,1.28-1.78,1.78-2.74,1.66-3.16,2.38-6.63,3.09-10.09.41-2.03.71-4.08,1.13-6.55ZM423.93,135.71c-7.89,1.79-15.56,3.08-22.66-1.98-.73,2.23-.86,5.76-.4,7.48,2.09-.32,4.14-.82,6.21-.88,1.56-.04,3.13.57,4.71.74,2.42.26,4.86.49,7.29.55,1.68.04,3.32-.38,4.85-1.32v-4.59ZM504.38,144.82c2.87-.25,5.73-.51,9.06-.8-3.39-.77-6.22.25-9.06.8ZM425.59,126.69c.9.58,1.48,1.73,3.02,1.73-.65-1.62-1.75-1.83-3.02-1.73Z"/>
  <path class="cls-1" d="M81.94,371.84c-.61-.77-1.01-1.15-1.25-1.61-.9-1.72-1.68-3.5-2.61-5.19-1.66-3-3.87-5.53-6.85-7.29-2.81-1.65-5.7-1.74-8.67-.37-5.82,2.69-9.65,7.24-12.16,12.99-1.29,2.95-2.1,6.05-2.07,9.31.06,6.29,3.33,9.09,7.84,10.42,4.85,1.43,9.8,1.36,14.79.74,3.36-.42,6.6-1.2,9.77-2.38,7.95-2.95,12.56-8.79,14.65-16.81,1-3.84,1.57-7.77,1.6-11.74.04-4.81.11-9.64-.14-14.44-.23-4.45-.82-8.87-1.33-13.3-.5-4.34-.96-8.7-1.66-13.01-.77-4.72-1.76-9.41-2.75-14.1-.24-1.13-.87-2.17-1.34-3.25-.39-.89-.27-1.72.38-2.27.68-.59,1.4-.39,2.11-.05,1.13.55,1.8,1.56,2.23,2.65,1.05,2.66,2.16,5.31,2.93,8.05,2.34,8.34,3.95,16.85,5.23,25.42,1,6.66,1.7,13.34,2.12,20.07.27,4.24.17,8.43-.26,12.61-.9,8.88-3.8,16.91-10.58,23.13-4.26,3.91-9.37,6.26-14.85,7.82-5.71,1.61-11.55,2.37-17.49,2.02-4.66-.27-9.18-1.18-13.32-3.48-6.35-3.53-9.62-9.06-10.12-16.19-.65-9.11,2.49-17.03,8.01-24.14,2.89-3.73,6.33-6.82,10.63-8.77,5.57-2.53,11.16-2.57,16.38.96,3.9,2.64,6.43,6.37,7.75,10.91.9,3.09,1.21,6.27,1.35,9.47.02.45-.14.91-.3,1.83Z"/>
  <path class="cls-1" d="M33.04,311.51c-1.29-.61-1.53-1.74-2.05-2.66-1.21-2.16-2.61-4.12-4.79-5.43-2.5-1.51-4.04-1.23-5.86,1.12-1.96,2.53-2.99,5.41-3.54,8.53-.69,3.96-.54,7.84.46,11.75,2.88,11.36,14.33,14.15,22.33,10.66,3.46-1.51,6.12-3.92,8.03-7.08,2.5-4.14,4.04-8.64,4.77-13.47,1.32-8.82-1.15-16.66-5.77-24-2.74-4.35-5.7-8.56-8.39-12.94-4.06-6.62-6.17-13.8-5.68-21.64.11-1.71.46-3.34,1.36-4.8.26-.42.8-.66,1.51-1.22.05,1.01.2,1.59.08,2.13-.82,3.84.05,7.52.97,11.19,1.34,5.35,4.21,9.88,7.65,14.09,3.15,3.85,6.42,7.61,9.48,11.53,4.11,5.28,6.74,11.28,7.76,17.89,1.54,9.96-.43,19.31-5.63,27.88-4.09,6.74-10.17,11.03-17.96,12.4-13.49,2.38-26.8-4.21-30.91-19.2-2.44-8.87-1.86-17.71,2.46-26.05,1.83-3.53,4.38-6.41,8.28-7.77,4.27-1.49,8.65-.22,11.64,3.24,2.29,2.65,3.34,5.8,3.81,9.19.15,1.08.33,2.16.39,3.25.02.43-.24.88-.39,1.4Z"/>
  <path class="cls-1" d="M486.18,311.14c-.62.13-1.1.22-1.84.38-.08-.79-.33-1.52-.19-2.16.16-.69.57-1.43,1.09-1.89,1.03-.92,2.77-.65,3.86.53,1.55,1.68,2.16,3.77,2.31,6.01.36,5.36-.45,10.59-1.76,15.75-1.51,5.95-3.15,11.87-4.59,17.83-1.25,5.16-2.05,10.39-1.83,15.75.32,8.09,4.76,13,11.18,15.22,5.16,1.78,10.36,2.1,15.63.52,4.8-1.44,8.3-4.45,10.55-8.85,2.46-4.81,3.23-9.86,1.74-15.16-.92-3.27-3.02-5.47-6.24-6.41-3.63-1.07-7.32-1.86-11.17-1.22-1.91.32-3.84.44-5.77.6-.81.07-1.64.01-2.85.01.48-.68.63-1.13.92-1.28,3.55-1.75,7.01-3.75,10.71-5.09,4.58-1.65,9.37-1.9,14.15-.41,6.44,2.02,10.23,6.49,11.38,12.95,2.1,11.8-1.38,21.84-10.38,29.82-3.14,2.79-6.93,4.48-11,5.43-10.23,2.37-19.78.81-28.3-5.47-5.34-3.94-8.2-9.43-9.18-16-1.19-7.91.6-15.42,2.86-22.85,1.82-5.96,4.07-11.78,5.95-17.72,1.11-3.52,2.02-7.12,2.73-10.73.35-1.77.06-3.67.06-5.57Z"/>
  <path class="cls-1" d="M554.43,312.8c.56-.63.77-1.01,1.09-1.2,3.17-1.91,6.25-4,9.76-5.27,2.93-1.06,5.96-1.34,8.96-.64,4.43,1.04,7.42,3.85,8.91,8.17,1.54,4.44,1.43,8.97.48,13.48-1.07,5.06-3.37,9.54-7.03,13.21-3.65,3.66-8.07,6.17-13.07,7.35-7.03,1.66-13.94,1.19-20.31-2.57-6.66-3.93-10.88-9.68-12.34-17.36-.95-5-.45-9.87.93-14.73,2.02-7.16,5.64-13.5,9.71-19.63,1.68-2.53,3.43-5.01,5.02-7.59,1.99-3.23,3.85-6.53,4.22-10.45.05-.49.52-1.26.89-1.32.57-.09,1.45.14,1.77.56.48.62.73,1.51.83,2.31.26,2.29-.23,4.52-.84,6.72-1.02,3.68-2.72,7.07-4.44,10.45-2.52,4.96-4.98,9.94-6.68,15.26-1.32,4.13-1.98,8.33-1.79,12.69.42,9.42,7.91,15.34,16.07,15.07,7.74-.25,13.73-4.82,15.6-11.45.74-2.61,1.09-5.23.42-7.97-.64-2.61-2.19-4.09-4.67-4.75-2.99-.8-6.02-.65-9.04-.28-1.34.16-2.65.37-4.45-.05Z"/>
  <path class="cls-1" d="M226.7,304.66c-8.21-.06-16.33-.86-24.31-2.77-6.25-1.5-12.27-3.65-17.56-7.45-2.28-1.63-4.33-3.47-6.01-5.74-4.54-6.13-4.42-14.29-.76-20.5,2.97-5.05,7.12-8.97,11.89-12.26,8.45-5.83,17.83-9.39,27.86-11.36,4.31-.85,8.66-1.47,13.03-1.33,5.9.19,11.68,1.31,17.3,3.2,3.85,1.3,7.56,2.85,10.91,5.19,2.87,2.01,5.37,4.34,7.18,7.37.39.65.86,1.3,1.03,2.02.66,2.78,2.18,5.08,3.87,7.28,3.26,4.25,4.41,9.08,3.79,14.3-.57,4.81-2.85,8.75-6.69,11.77-4.6,3.62-9.94,5.62-15.52,7.06-5.47,1.4-11,2.39-16.66,2.63-3.11.13-6.22.39-9.33.6ZM266.98,268.11c-.24-3.83-1.82-7.07-4.51-9.81-2.33-2.38-5.04-4.27-8.07-5.57-7.1-3.05-14.55-4.75-22.28-4.95-4.98-.13-9.89.72-14.72,1.94-10,2.52-19.31,6.48-27.26,13.23-3.19,2.71-5.92,5.8-7.53,9.71-1.81,4.38-1.47,8.55,1.56,12.37,2.7,3.41,6.33,5.52,10.24,7.19,7.61,3.24,15.66,4.57,23.83,5.02,9.61.52,19.21.16,28.68-1.92,4.37-.96,8.68-2.13,12.63-4.26,3.45-1.85,6.63-4.07,8.46-7.72,2.35-4.69,2.05-9.44.23-14.18-.17-.44-.82-.69-1.26-1.04Z"/>
  <path class="cls-1" d="M372.28,81.31c-.13.09-.34.16-.37.28-.9,3.55-3.36,5.51-6.68,6.61-.47.16-.94.32-1.38.47-.21,7.24-8.87,9.6-13.64,6.4-.49-.33-.99-.65-1.59-1.04-.47.29-.95.6-1.44.88-3.49,2-6.86,1.41-9.52-1.67-.74-.85-1.42-1.55-2.61-2.04-2.25-.93-3.11-3.2-3.33-5.57-.19-2.11-.12-4.21.87-6.12-.53-1.2-1.03-2.34-1.56-3.56-2.26-.42-3.75-1.96-5.02-3.82-2.16-3.17-3.61-6.64-4.47-10.37-.17-.73-.41-1.43-.64-2.21-1.25.27-1.99.77-2.5,1.94-1.26,2.85-3.42,4.78-6.53,5.44-.78.16-1.69.18-2.45-.06-2.52-.8-3.1-2.95-1.26-4.85.92-.95,2.09-1.68,3.22-2.39.85-.53,1.81-.87,2.93-1.4-3.37-.47-6.52-.76-9.77-.42-3.01.32-6.07.22-9.11.23-.56,0-1.16-.22-1.67-.49-1.23-.64-1.63-2.16-.71-3.19.65-.73,1.52-1.43,2.43-1.71,1.83-.57,3.74-1.04,5.65-1.2,6.13-.52,12.08.29,17.71,2.95.27.13.61.08,1.08.13-.7-1.35-1.28-2.52-1.92-3.67-.24-.43-.57-.87-.97-1.14-3.79-2.5-7.6-4.98-11.41-7.44-.32-.21-.71-.29-1.43-.57.89,2.86,2.7,4.54,4.58,6.17,1.92,1.66,4.17,2.72,6.39,4.02-.66-.16-1.34-.28-1.99-.49-4.35-1.39-7.6-4.23-10.09-7.96-.58-.87-1.28-1.89-.28-2.99.77-.84,1.57-.88,3.24-.09,2.77,1.32,5.07,3.3,7.39,5.27,1.08.92,2.15,1.84,3.52,2.58-.97-2.55-1.93-5.11-2.93-7.66-.83-2.11-1.7-4.21-2.54-6.31-.19-.47-.46-.95-.47-1.43,0-.45.16-1.02.46-1.33.46-.48,1.11-.39,1.6.06.62.57,1.23,1.17,1.76,1.82,2.63,3.23,4.66,6.81,6.06,10.73.25.7.51,1.4.98,2.71.36-4.84,1.84-8.66,4.26-12.11l-.07.07h2.05c1.11.96,1.17,2.17.79,3.44-.63,2.17-1.31,4.32-2.01,6.59.84.27,1.48-.45,2.2-.73,2.19-.86,4.33-1.9,6.77-1.78.42.02.86,0,1.26.09,1.55.38,2.48,2.24,1.59,3.55-.68,1.01-1.66,1.89-2.68,2.58-2.28,1.55-4.96,1.98-7.61,2.47-1.95.36-3.91.71-6.3,1.15.65.45.95.64,1.22.86.64.51,1.34.99,1.9,1.57,2.11,2.18,4.15,4.42,6.26,6.59.93.96,2.08,1.62,3.78,2.13-1.21-3.43-3.01-5.89-5.68-7.74-.14-.8-.67-1.15-1.55-1.55.06.61.1.93.13,1.25q-1.04-1.2-.74-2.79c.86.44,1.76.73,2.45,1.28,2.49,2.03,4.82,4.24,6.58,6.97.45.69.74,1.52.95,2.32.43,1.6-.65,3.09-2.3,3.15-.73.02-1.48-.21-2.2-.39-.53-.13-1.03-.38-1.92-.72.84,2.23,1.55,4.08,2.33,6.15,2.94-2.31,6.15-3.93,9.86-4.65-.88.66-1.75,1.35-2.66,1.98-1.88,1.3-3.71,2.64-4.96,4.62-.54.86-1.13,1.7-.75,2.98.7-.41,1.36-.82,2.04-1.19,1.45-.79,2.99-1.07,4.62-.68,2.45.59,3.26,3.19,1.62,5.13-1.1,1.3-2.53,1.99-4.2,2-1.41,0-2.82-.23-4.52-.38-1.05,1.33-1.37,3.13-1.06,4.94.29,1.74.56,3.65,2.67,4.77.12-.88.15-1.53.31-2.15.2-.78.71-1.38,1.54-1.49.94-.12,1.3.61,1.61,1.33.1.23.26.51.21.71-.51,1.93.93,2.48,2.19,3.11,1.71.85,3.52,1,5.58.72-.67-1.99-1.53-3.88-.32-5.83.76-1.23,2.12-2.05,4.78-2.65-.6.82-1.06,1.43-1.5,2.05-.7.99-.69,2.03-.18,3.11,1.54,3.25,6.23,4.16,8.85,1.7,1.14-1.07,1.23-1.59.51-3.08-.9-1.85-.25-2.92,1.86-2.81,1.99.11,3.84-.09,5.6-1.11,1.39-.81,2.27-1.94,2.87-3.4.51-1.23.34-2.34-.43-3.33-.79-1.01-1.83-.99-2.9-.41-.03.01-.12-.1-.28-.22.15-1.11.97-1.46,1.92-1.34,1.59.21,2.93.95,3.41,2.6.3,1.04.39,2.14.57,3.21l.07-.08ZM320.78,53.95c.88-1.35.95-1.37.61-2.33-.78-2.2-1.56-4.4-2.5-6.54-.72-1.65-1.68-3.19-2.78-5.25.13,2.68,2.9,10.82,4.66,14.12ZM316.29,61.27c-2.35.47-4.53,1.27-6.54,3.17,3.22.53,5.17-.74,6.54-3.17ZM322.64,58.8c.71,2.7,2.12,4.99,3.83,7.12-.85-2.61-2.14-4.98-3.83-7.12ZM336.57,78.2c1.9.04,3.35.44,4.35-1.21-1.63-.53-2.86-.15-4.35,1.21ZM323.54,43.53c1.7-2.42,2.35-4.09,2.28-5.6-.99,1.68-1.94,3.31-2.28,5.6Z"/>
  <path class="cls-1" d="M570.78,173.77c-.25-.74-.46-1.19-.55-1.66-.93-4.83-3.97-8.03-8.01-10.5-5.1-3.12-10.73-4.81-16.48-6.11-6.22-1.4-12.57-1.55-18.87-1.01-6.39.55-12.6,2.15-18.51,4.68-6.01,2.58-11.62,5.81-16.04,10.76-1.23,1.37-2.39,2.87-3.28,4.47-3.19,5.72-1.66,10.46,2.82,14.46,2.46,2.2,5.35,3.79,8.42,5.04,5.65,2.31,11.53,3.67,17.61,4.08,3.95.26,7.91.48,11.86.46,8.35-.04,16.35-1.88,23.97-5.28,2.15-.96,4.23-2.07,6.31-3.18.66-.35,1.22-.88,1.82-1.35,1.99-1.54,2.96-3.4,1.81-5.91-.05-.1.07-.28.13-.46,1.22-.17,1.48.92,1.99,1.6,1.11,1.51,1.39,3.13.76,5-.89,2.66-2.55,4.72-4.61,6.52-4.38,3.8-9.69,5.67-15.17,7.15-8.41,2.26-17,2.5-25.6,1.93-6.71-.45-13.35-1.57-19.72-3.9-5.19-1.89-10.02-4.36-14.04-8.28-6.72-6.55-6.85-15.28-1.61-22.45,3.45-4.72,7.97-8.19,12.98-11.08,6.63-3.84,13.75-6.22,21.29-7.56,5.11-.91,10.23-1.19,15.36-.81,8.37.64,16.43,2.64,23.92,6.56,4.09,2.14,7.59,5.05,10.17,8.92,1.52,2.29,2.15,4.85,1.27,7.9Z"/>
  <path class="cls-1" d="M221.82,119.13c-.36,6.89-2.68,12.87-7.94,17.92,4.6,1.19,8.94,2.32,13.78,3.58-.77.35-1.08.55-1.42.63-5.07,1.28-10.15,1.34-15.22,0-.8-.21-1.6-.54-2.32-.96-2.06-1.22-2.27-3.46-.48-5.04.63-.56,1.33-1.04,2.03-1.51,3.44-2.33,5.46-5.69,6.76-9.51.53-1.58.78-3.25,1.16-4.88-.32-.21-.51-.39-.73-.46-3.74-1.22-6.3-3.79-8.18-7.14-1.89-3.36-2.71-7.05-3.3-10.8-.95-6.04-.67-12.12-.47-18.19.03-.92.31-1.82.41-2.74.11-1.09.07-2.08-.52-3.15-1.33-2.4-.56-5.05,1.61-6.73,2.2-1.71,4.79-2.47,7.45-2.94,4.25-.76,8.56-.7,12.86-.5.91.04,1.83.26,2.73.47,1.06.26,1.57.97,1.3,1.79-.28.87-.95.97-1.8.89-5.17-.47-10.25.29-15.25,1.48-1.43.34-2.74,1.22-4.06,1.92-.32.17-.46.66-.69,1.01.66,1.46,1.89,2.02,3.16,2.46,2.86,1.01,5.79,1.67,8.8,2.16,3.14.52,6.2.39,9.29-.11.82-.13,1.61-.39,2.41-.59.62-2.57-1.15-4.81-.72-7.46,2.13,1.65,2.28,4.47,4.17,6.07.91-.47,1.75-.91,2.59-1.35l.3.39c-.78.84-1.56,1.68-2.46,2.66,2.85,7.58,2.65,15.21-.49,22.76-3.06,7.38-6.99,14.06-14.76,17.87ZM233.01,88.37c-5.44,1.04-10.41.52-15.36.48-1.35-.01-2.71-.02-4.04.12-.99.11-1.97.38-2.91.73-.85.31-1.34.98-1.2,1.98.19,1.33.31,2.67.53,3.99.64,3.81,1.29,7.62,2.99,11.15,1.22,2.55,2.76,4.79,5.5,5.9q1.48-1.55,3.55-1.08c6.49-6.25,9.32-14.24,10.94-23.28ZM209.13,88.21c1.7-.67,3.13-1.44,4.66-1.8,5.12-1.19,10.31-1.44,15.53-.63,1.28.2,2.59.3,3.94.45.14-1.7.27-3.26.42-5.12-8.42,3.32-16.5,3.28-24.56-.64v7.73Z"/>
  <path class="cls-1" d="M299.46,143.13c1.76-2.39,3.58-3.91,5.68-5.16,2.28-1.36,4.76-2.1,7.32-2.67,5.21-1.16,10.36-1.13,15.4.82,2.46.95,4.69,2.33,6.63,4.1,2.89,2.64,3.04,4.51.87,7.54.51,2.55.93,5.02,1.5,7.45.53,2.29.15,4.57-.21,6.76-.97,5.97-2.23,11.91-4.45,17.57-1.02,2.6-2.33,5.03-4.19,7.17-2.48,2.86-5.73,4.35-9.41,5.4,0,1.07.04,2.15,0,3.22-.21,5.14-.33,10.29-.71,15.42-.25,3.43-.79,6.85-1.39,10.24-.77,4.33-2.7,7.97-7.08,10.18,5.12,2.13,10.35,2.19,16.04,2.48-.95.93-1.59,1.17-2.33,1.3-2.4.42-4.78.91-7.18,1.32-3.42.57-6.72.06-9.84-1.4-.82-.38-1.61-.97-2.21-1.64-1.56-1.75-1.09-4.2.97-5.33.51-.28,1.08-.47,1.64-.63,3.26-.92,5.08-3.24,5.84-6.36.69-2.85,1.2-5.76,1.57-8.67.78-6.09,1.41-12.2,2.12-18.3.05-.41.2-.81.38-1.48-1.19,0-2.27.04-3.34,0-5.52-.24-9.69-2.65-12.07-7.74-1.83-3.91-2.77-8.07-3.35-12.36-1.04-7.64-.85-15.31-.92-22.98,0-.84-.02-1.71-.27-2.5-.59-1.84.27-3.19,1.4-4.54-.07.82-.15,1.64-.21,2.46-.06.94.32,1.66,1.19,2.04,1.46.64,2.89,1.5,4.42,1.79,4.83.92,9.69.91,14.59.35,3.19-.37,6.32-.92,9.41-1.73,2.65-.69,3.71-1.24,5.38-2.76-.13-.99-.96-1.52-1.67-2.03-4.7-3.39-9.83-4.98-15.69-3.9-3.72.69-7.44,1.38-11.02,2.62-1.47.51-2.89,1.17-4.8,1.96ZM298.75,157.62c0,.81-.1,1.66.02,2.47.68,4.57,1.22,9.17,2.2,13.67.77,3.53,2.1,6.92,4.05,10.03,1.09,1.73,2.58,2.9,4.49,3.49,5.63,1.75,13.3.4,17.06-6.38,1.61-2.9,2.63-6.01,3.54-9.17,1.42-4.94,2.27-9.99,2.98-15.07.36-2.56.66-5.12,1-7.78-.33.04-.58,0-.77.1-1.99.94-4.04,1.66-6.24,1.95-2.58.33-5.15.74-7.74,1.04-7.47.88-14.71.25-21.76-3.57,1.14,2.47-.02,5.12,1.31,7.33.82-.18,1.53-.22,2.12-.5,2.29-1.06,4.59-.72,6.89-.14,1.14.29,2.27.62,3.39.96,3.97,1.18,7.99,1.94,12.16,1.93,2.37,0,4.48-.59,6.48-1.78.36-.21.73-.42,1.33-.75-1.18,3.91-3.27,5.5-6.86,5.6-5.31.14-10.37-1.07-15.24-3.05-3.42-1.39-6.8-1.65-10.43-.39Z"/>
  <path class="cls-1" d="M447.22,250.15c4.85,1.74,9.57,3.37,13.13,7.11,2.17,2.28,3.68,4.89,3.95,7.99.15,1.71-.17,3.53-.61,5.21-1.47,5.58-4.85,9.96-9.18,13.62-5.73,4.84-12.53,7.5-19.73,9.22-5.25,1.25-10.57,1.99-15.98,2.12-4.38.1-8.76.44-13.14.36-8.17-.16-16.28-1.03-24.24-2.99-7.93-1.95-15.34-5.08-21.96-9.91-3.16-2.3-5.92-5.02-7.9-8.43-3.16-5.44-3.15-10.89.19-16.25,3.02-4.85,7.41-8.21,12.18-11.17,7.4-4.58,15.55-7.16,23.97-8.97,3.61-.78,7.24-1.49,10.95-1.6,2.94-.09,5.88-.37,8.82-.38,2.01,0,4.02.26,6.02.51,1.57.19,2.13.67,3.29,2.56-2.51-1.88-5.03-1.68-7.53-1.69-14.13-.05-27.52,3.02-40.04,9.62-5.33,2.81-10.16,6.33-13.72,11.32-1.69,2.37-2.98,4.96-2.66,7.98.16,1.48.52,3,1.11,4.36,1.52,3.51,4.28,6.06,7.32,8.21,6.54,4.64,13.88,7.55,21.69,9.26,5.52,1.21,11.08,2.04,16.74,2.14,3.45.06,6.91.44,10.35.28,8.06-.37,16.15-.75,23.99-2.94,5.8-1.61,11.39-3.7,16.09-7.62,3.62-3.02,6.5-6.55,7.72-11.27.76-2.97.34-5.69-1.21-8.24-1.59-2.61-3.61-4.87-5.99-6.8-1.11-.9-2.21-1.83-3.27-2.78-.2-.18-.24-.56-.35-.84Z"/>
  <path class="cls-1" d="M378.82,146.64c.86,3.49,1.14,7,1.09,10.55-.09,6.41-2.66,11.37-8.35,14.55-.21.12-.38.32-.67.58,1.87,2.22,4.39,2.98,7.06,3.35,1.08.15,2.2.04,3.28.16.4.04.76.41,1.48.82-4.42,1.88-8.43,3.42-12.89,1.57-2.12-.88-3.73-2.31-4.62-4.43-.95-2.26-.15-4.34,2.01-5.54.59-.33,1.2-.61,1.83-.86,4.38-1.73,6.66-5.12,7.1-9.62.31-3.17.05-6.41,0-9.61,0-.39-.28-.77-.43-1.14-1.22-.18-2.4-.26-3.52-.54-3.48-.88-5.87-3.22-7.7-6.16-2.4-3.86-3.62-8.14-3.93-12.65-.22-3.11-.3-6.22-.43-9.33-.02-.42-.07-.87.04-1.26.6-2.16.21-4.05-1.09-5.93-.94-1.37-.78-3.08-.15-4.63.86-2.1,2.3-3.69,4.37-4.68,3-1.43,6.13-2.27,9.48-2.33,4.47-.08,8.95-.12,13.29,1.15,1.76.52,3.52,1.22,5.1,2.14,2.06,1.2,2.32,3,.96,5.36.64-.09,1.13-.17,1.89-.28-.21.53-.29.92-.49,1.22-.62.92-.57,1.93-.4,2.93,1.11,6.53.66,12.93-1.6,19.15-1.6,4.41-3.9,8.44-7.42,11.61-1.54,1.39-3.36,2.47-5.27,3.85ZM363.61,122.7c-.18,3.4.78,6.61,1.76,9.81.74,2.44,1.99,4.63,3.63,6.58,2.67,3.17,6.68,3.52,9.8.78,1-.88,1.89-1.92,2.69-2.99,2.34-3.12,3.89-6.67,5.44-10.22.42-.96.75-1.96,1.27-3.33-1.1.56-1.75.9-2.41,1.23-1.71.87-3.55,1.06-5.4.76-1.56-.26-3.1-.68-4.63-1.11-2.41-.67-4.8-1.47-7.22-2.1-1.64-.43-3.31-.52-4.92.58ZM364.23,108.85c.79,1.02,1.89,1.53,3.08,2.01,3.62,1.46,7.39,1.45,11.19,1.38,3.91-.07,7.69-.76,11.27-2.35.56-.25,1.1-.53,1.85-.9-1.34-.59-2.61.14-3.7-.76.8-.56,1.49-1.04,2.55-1.78-1.34-.52-2.23-.96-3.17-1.21-4.45-1.19-9-1.3-13.54-.93-2.4.19-4.85.62-7.02,1.87-1.07.62-2.29,1.13-2.53,2.67ZM363.15,115.37c0,2.14-.15,4.03.25,6.03,1.89-.66,3.64-1.27,5.53-.82,2.12.51,4.25.96,6.34,1.57,2.71.79,5.46.98,8.25.8,3.4-.22,5.45-1.87,6.4-5.08.36-1.21.69-2.42.98-3.65.1-.43.02-.9.02-1.69-.69.53-1.09.82-1.47,1.13-3.98,3.21-8.68,4.55-13.64,4.51-4.26-.04-8.54-.63-12.64-2.79Z"/>
  <path class="cls-1" d="M298.16,100.22c0,.45.03.59,0,.61-2.3,1.43-4.78,2.52-7.46,2.8-4.98.53-7.4-3.78-6.46-7.91.61-2.69,1.97-4.99,3.86-7.12-1.29-1.84-1.85-3.91-1.58-6.2-3.19.71-4.78-.18-5.82-3.09-.73-2.06-.89-5.2-.33-8.3,1.58,3.13.95,6.92,3.85,9.22,1.08-.58,1.58-1.35,1.07-2.49-.73-1.6-1.49-3.19-2.3-4.75-.53-1.02-1.18-1.99-1.93-3.25-.64-.38-1.12.09-1.38.95-.59,2.01-1.1,4.05-1.73,6.05-.71,2.24-1.49,4.46-2.34,6.66-.33.85-.85,1.65-1.4,2.38-.57.77-1.46.8-2.31.55-.86-.25-1.12-.99-1.1-1.8.06-1.85.15-3.7.27-5.55.05-.82.2-1.63.38-3.07-1.66,1.67-2.88,2.91-4.13,4.12-.66.64-1.34,1.3-2.1,1.82-1.01.69-1.98.69-2.57.13-.72-.68-.61-1.58-.38-2.37.21-.71.63-1.38,1.04-2,1.5-2.24,3.03-4.46,4.55-6.69.18-.27.32-.57.66-1.17-.73.17-1.17.24-1.58.38-3.74,1.27-7.46,2.59-11.21,3.82-1.11.36-2.29.52-3.44.72-.49.08-1.02.09-1.52.03-1.45-.17-2.92-.48-3.49-2.04-.55-1.53.53-2.55,1.52-3.45,2.09-1.89,4.6-3.09,7.21-4.08,3.87-1.46,7.89-2.2,12.25-2.6-.49-.6-.85-1.11-1.27-1.55-3.26-3.42-6.53-6.83-9.79-10.25-.47-.49-.95-.97-1.33-1.52-.41-.6-.46-1.29.05-1.87.54-.62,1.23-.58,1.82-.13,1.48,1.11,2.95,2.24,4.36,3.44,2.63,2.23,5.22,4.52,8.11,7.03-.06-.75-.04-1.17-.13-1.58-.38-1.72-.93-3.42-1.14-5.15-.14-1.13.05-2.36.39-3.46.47-1.53,2.08-1.84,3.17-.63.6.66,1.03,1.54,1.32,2.4.93,2.72,1.38,5.53,1.55,8.4.06,1.08.09,2.17.51,3.35.17-.3.39-.58.5-.9,1.67-5.19,4.29-9.87,7.77-14.05.74-.89,1.66-1.72,2.65-2.31,2.26-1.33,3.9-.36,3.78,2.23-.06,1.23-.39,2.5-.87,3.64-2.03,4.81-4.92,9.02-9.12,12.23-.58.44-1.14.89-1.72,1.34.11.16.21.32.32.48.81-.15,1.61-.4,2.42-.43,3.4-.16,6.71.29,9.86,1.61.68.29,1.34.73,1.87,1.25,1.24,1.21.98,2.81-.59,3.49-.83.36-1.79.59-2.69.59-1.84,0-3.69-.21-5.53-.32-.48-.03-.96,0-1.76,0,1.94,2.86,4.19,5.2,4.92,8.42,3.83-3.32,6.91-3.35,8.23-.17-.14.07-.31.22-.42.19-2.42-.77-3.48-.48-4.55,1.23-1.28,2.05-1.2,4.57.2,6.12.28.31.65.54.96.81,1.6,1.39,1.79,2.4.71,4.17-.39.64-.91,1.21-1.41,1.78-1.13,1.3-1.98,2.74-2.28,4.44-.41,2.29.58,3.63,2.89,3.76,1.58.08,3.18-.16,4.77-.26.4-.02.8-.05,1.31-.08ZM277.99,64.06c-.17.7-.35,1.4-.52,2.1-.47.05-.95.11-1.49.17-.07,1.11-.13,2.08-.23,3.68-.48-1.44-.77-2.32-1.08-3.26-.99.73-1.9.31-2.81-.1-.93-2.11-2.48-2.87-4.81-2.64-5.45.54-10.49,2.22-15.09,5.16-1.01.64-2.1,1.4-2.43,2.88.49.08.89.18,1.29.21,2.32.17,4.52-.46,6.65-1.22,3.56-1.27,7.07-2.66,10.58-4.08,1.29-.52,2.54-.68,3.87-.36,1.01,2.29-.53,3.95-1.73,6.1.64-.23.91-.38,1.19-.42,2.12-.27,2.97.44,3.08,2.58.04.75,0,1.5,0,2.86,1.52-3.11,2.77-5.66,4-8.18-1.77-1.36-1.77-1.31-1.03-3.45,2.49-.16,4.96-.09,7.43.41,1.28.26,2.68.37,4.48-.1-3.21-.91-5.98-1.46-8.85-1.23-1.06.08-1.96-.08-2.55-1.06-.06-.95.13-1.8.74-2.59.77-.99,1.46-2.05,2.14-3.1,2.04-3.17,4.09-6.34,6.05-9.55.4-.65.99-1.39.59-2.46-.31.21-.6.34-.79.55-1.11,1.26-2.26,2.48-3.27,3.82-2.43,3.24-4.23,6.83-5.62,10.62-.34.92-.83,1.86.23,2.66ZM274.04,66.24q-.01-1.37-1.37-1.31c.49.47.87.83,1.37,1.31Z"/>
  <path class="cls-1" d="M63.45,212.85c.17,1.3-.77,1.79-1.35,2.45-2.18,2.48-4.2,5.06-5.53,8.12-.75,1.71-1.18,3.47-1.28,5.37-.17,3.11,1.23,5.37,3.56,7.15,2.65,2.03,5.73,3.2,8.91,4.06,6.01,1.64,12.12,2.83,18.31,3.47,4.78.49,9.41-.5,13.85-2.19,7.68-2.94,14.85-6.86,21.18-12.15,2.18-1.82,4.2-3.96,5.82-6.28,2.86-4.09,2.49-7.86-1.12-11.62-2.96-3.08-6.74-4.77-10.68-6.04-4.82-1.56-9.79-2.47-14.89-2.22-1.22.06-2.43.2-3.77.32.43-1.35,1.54-1.51,2.57-1.73,2.57-.54,5.13-.49,7.76-.21,3.28.34,6.51.85,9.65,1.76,4.4,1.27,8.56,3.1,11.96,6.29,4.81,4.5,5.33,10.55,2.09,16.11-2.37,4.08-5.71,7.3-9.31,10.24-5.12,4.17-10.68,7.64-16.65,10.48-3.67,1.75-7.46,3.16-11.45,3.82-3.22.53-6.47.66-9.8.34-5.46-.53-10.83-1.46-16.14-2.71-4.62-1.09-9.05-2.65-12.87-5.6-3.04-2.35-5.25-5.2-5.78-9.15-.4-2.97.38-5.67,1.69-8.26,1.57-3.08,4.08-5.37,6.68-7.53,1.87-1.56,3.94-2.87,5.94-4.28.11-.08.31,0,.65,0Z"/>
  <path class="cls-1" d="M323.08,114.33c-1.41.2-2.82.54-4.23.55-2.92.04-4.27-2.1-2.98-4.76.58-1.19,1.36-2.37,2.33-3.27,2.21-2.07,4.57-3.99,6.92-5.9,2.08-1.7,4.23-3.33,6.36-4.98.23-.18.56-.23,1.16-.45-.37,1.72-1.07,2.9-2.12,3.86-1.31,1.2-2.69,2.3-4,3.5-2,1.82-3.97,3.65-5.92,5.52-.91.87-1.57,1.91-1.95,3.28,1.27.07,2.3-.33,3.23-.85,2.35-1.31,4.73-2.59,6.97-4.08,1.65-1.1,1.97-3.05,2.35-4.87.11-.54.15-1.1.3-2.24,1.75,2.99,2.12,5.56,1.21,8.31,1.69,3.31,1.44,5.26-1.36,7.82-2.05,1.87-4.31,3.51-6.49,5.23-.8.62-1.68,1.13-2.49,1.73-5.76,4.25-12.29,5.9-19.31,5.2-7.26-.73-13.91-3.34-19.63-7.96-3.99-3.22-6-7.67-6.95-12.58-1.03-5.31-.4-10.56.99-15.73.26-.97.63-1.93,1.12-2.8.44-.77,1.02-1.6,2.37-1.15-1.27,3.69-1.07,7.47-.92,11.22.16,3.82,1.12,7.47,3,10.85,1.77,3.19,4.53,5.19,7.77,6.58,4.68,2.01,9.5,3.35,14.69,3.18,2.39-.08,4.67-.52,6.94-1.22,2.25-.69,4.54-1.26,6.75-2.03,1.36-.47,2.98-.54,3.84-2q1.27.47,2.44-1.25c-1.01.56-1.7.94-2.39,1.32Z"/>
  <path class="cls-1" d="M86.33,159.45c3.74-.16,5.44,2.34,4.27,5.47-.82,2.22-2.47,3.79-4.29,5.21-3.16,2.45-6.74,4.11-10.44,5.58-4.4,1.75-8.94,3.01-13.59,3.77-6.52,1.07-13.06,1.3-19.57-.25-3.33-.8-6.42-2.15-9.03-4.34-6.91-5.78-7.53-14.51-1.74-21.26,3.9-4.55,9.09-6.88,14.72-8.34,8.24-2.15,16.66-2.5,25.1-1.96,4.45.29,8.85,1.25,12.75,3.62,1.57.95,3,2.16,4.42,3.34.83.7,1.42,1.62,1.21,3.21-.45-.48-.7-.71-.92-.98-1.42-1.74-3.27-2.92-5.29-3.81-3.09-1.37-6.32-2.3-9.72-2.48-2.77-.15-5.56-.49-8.32-.35-6.64.32-13.26,1.02-19.64,3.04-4.22,1.34-8.15,3.25-11.14,6.68-2.87,3.29-3.96,7-2.56,11.25.71,2.15,2.08,3.86,3.89,5.17,2.85,2.07,6.05,3.29,9.56,3.66,1.92.2,3.85.47,5.78.47,10.78,0,20.77-2.97,30.1-8.25,1.67-.95,3.17-2.21,4.73-3.36.4-.3.75-.69,1.06-1.08.95-1.18.93-1.94-.13-3.09-.34-.37-.82-.6-1.23-.9Z"/>
  <path class="cls-1" d="M432.98,266.69c-.44-.67-.86-1.09-1.01-1.59-1.17-3.84-4.16-5.63-7.67-6.65-2.08-.6-4.29-.93-6.46-1.04-5.48-.26-10.96-.04-16.39.85-2.98.49-5.97.96-8.91,1.65-1.62.38-3.17,1.11-4.68,1.83-.81.39-1.56,1.02-2.19,1.67-1.17,1.21-1.21,2.88.03,4.05,1.03.97,2.23,1.81,3.49,2.45,3.36,1.71,7.05,2.25,10.74,2.51,3.11.22,6.25.17,9.37.05,1.92-.07,3.82-.52,5.73-.76.56-.07,1.14-.01,2.33-.01-.83.46-1.12.68-1.45.8-4.49,1.67-9.04,3.2-13.81,3.8-4.95.62-9.91.83-14.74-.96-2.35-.87-4.32-2.22-6.05-4.01-3.52-3.64-3.57-9.06.92-12.92,2.96-2.54,6.57-3.77,10.28-4.61,8.21-1.87,16.57-1.98,24.92-1.49,4.3.25,8.48,1.31,12.09,3.95,3.32,2.43,4.69,5.63,4.04,9.68-.02.14-.19.26-.56.75Z"/>
  <path class="cls-1" d="M172.86,238.32c.24-.62.4-1.3.76-1.83.29-.42.84-.92,1.29-.94.8-.04,1.09.68,1.1,1.42.02,1.83,0,3.66,0,5.63.21-.22.52-.42.67-.71.59-1.12,1.12-2.26,1.69-3.4.38-.76.75-1.66,1.83-1.34,1.04.31.93,1.28.92,2.12-.05,2.65-.95,5.11-1.86,7.55-1.55,4.15-3.9,7.84-6.82,11.15-.89,1.02-1.41,2.06-1.37,3.4.19,6.71-1.45,13.17-2.82,19.66-.61,2.87-1.52,5.67-2.35,8.49-.28.97-.69,1.89-1.71,2.39-1.03.5-1.87.47-2.43-.49-.48-.84-.85-1.87-.85-2.83-.01-2.35.14-4.71.36-7.05.3-3.17.63-6.35,1.11-9.5.38-2.48.97-4.93,1.53-7.38.15-.64.41-1.29.77-1.84.36-.55.93-.7,1.57-.1-1.58,6.07-1.78,12.34-1.96,18.63.86-5.4,1.69-10.8,2.6-16.18.51-2.99,1.23-5.94,3.11-8.44.35-.46.78-.87,1.27-1.42.18.51.31.87.5,1.41,1.15-2.27,2.24-4.42,3.43-6.75-1.27.1-1.87-.31-1.73-1.51.23-1.83.41-3.67.57-5.51.05-.57-.05-1.15-.43-1.8-.87,2.6-1.74,5.2-2.6,7.8-.16.48-.28.97-.44,1.44-.32.93-.98,1.06-2.07.65-.05-.94-.11-1.99-.16-2.93-.58.74-1.13,1.59-1.84,2.26-.19.18-.88-.15-1.34-.25q-1.05,3.84.51,5.39c-1.56.71-2.43.4-2.67-1.2-.21-1.41-.27-2.9-.04-4.29.53-3.14,1.21-6.25,1.97-9.34.36-1.46.99-2.86,1.59-4.25.22-.51.7-.91,1.12-1.44.57.53,1.06.99,1.51,1.41.49-.81.9-1.65,1.47-2.36.58-.72,1.45-.58,1.82.27.22.5.27,1.12.26,1.68-.01.74-.16,1.48-.25,2.21.13.04.26.08.39.11Z"/>
  <path class="cls-1" d="M552.28,173.61c-.75-.4-1.2-.57-1.57-.85-3.68-2.81-7.83-4.66-12.35-5.44-2.46-.42-5.07-.45-7.56-.16-4.97.57-9.73,2.07-14,4.74-1.41.88-2.7,2.04-3.79,3.29-1.27,1.44-1,2.71.53,3.9,2.19,1.7,4.81,2.44,7.43,3.04,3.95.91,7.98,1.37,12.04,1.06,3.44-.26,6.84-.85,10.11-2.04,2.03-.74,3.78-1.96,5.03-3.7.75-1.05,1.13-2.36,1.77-3.78,1.5,3.45.52,6.24-1.62,8.69-2.71,3.09-6.25,4.82-10.27,5.48-7.55,1.25-14.95.49-22.13-2.09-1.8-.65-3.54-1.63-5.09-2.75-2.49-1.81-3.87-4.33-3.04-7.48.51-1.97,1.77-3.59,3.39-4.93,3.8-3.13,8.22-4.94,12.94-6.02,2.53-.58,5.14-.91,7.73-1.03,6.51-.3,12.22,2,17.34,5.87,1.3.99,2.6,2.09,3.14,4.2Z"/>
  <path class="cls-1" d="M296.57,68.74c-.83-1.15-1.62-2.14-2.29-3.2-.9-1.41-.85-1.46.83-2.9.39.22.83.45,1.25.71.36.22.7.46.96.63.81-.93,1.51-1.89,2.36-2.66,1.09-.98,2.32-.94,3.46-.09,1.05.79,1.56,2.3.63,3.33-1.36,1.5-.21,3.25-1.21,5.02,1.9-.58,3.42-1.21,5-1.48,1.81-.31,3.68-.5,5.5-.38,2.73.19,4.08,1.87,4.58,5.33,1.94.8,3.85,1.82,4.82,4,.94,2.14.75,4.26.1,6.41,1.18,1.02,2.31,2.02,3.46,2.99,3.1,2.61,2.77,7.57.28,10.24-1.52,1.63-3.2,3.02-5.21,3.95-2.98,1.38-6,2.67-9,4.01-3.61,1.61-8.48.06-10.26-3.1-.53-.95-1.21-1.82-1.89-2.84-1.91.34-3.81.15-5.35-1.2-.59-.52-1.05-1.31-1.31-2.06-.13-.37.32-.95.66-1.85,1.67,2.57,4.06,3.16,6.32,4,.35.13.73.35.95.64,1.79,2.31,4.68,3.49,7.28,2.53,3.86-1.43,7.66-3.04,11.42-4.74,1.44-.65,2.7-1.67,3.55-3.13.64-1.12.58-2.1-.24-3.01-.62-.68-1.35-1.27-2.06-1.86-.46-.37-.99-.64-1.47-.98-1.71-1.22-2.04-2.33-1.33-4.36.08-.24.2-.47.27-.71.96-3.01.08-4.48-2.15-5.37-1.65-.65-2.27-1.74-2.11-3.54.22-2.43-.45-3.19-2.95-3.31-1.49-.07-3.01.2-4.49.45-2.45.41-4.62,1.54-6.66,2.89-.69.46-1.29,1.11-1.79,1.77-1.31,1.73-1.07,2.39,1.05,3.21-.08.03-.15.1-.23.1-2.54.06-3.12-.86-2.17-3.23.7-1.73,2.03-2.86,3.47-3.88-1.58-1.41-3.14-.11-4.99.21.41-1.08.66-1.75.96-2.54Z"/>
  <path class="cls-1" d="M260.53,60.93c-.52.48-.72.8-.99.89-3.33,1.15-6.63,2.38-10.02,3.36-3.52,1.01-7,.83-10.24-1.15-1.28-.78-2.59-1.07-4.09-.51-1.17.44-2.44.64-3.67.9-1.32.28-2.3-.09-2.87-1.01-.59-.96-.49-1.83.52-2.98.71-.81,1.55-1.49,2.62-2.5-2.38.3-4.45.55-6.52.82-3.67.48-7.35,1.02-11.07.77-1.32-.09-2.67-.4-3.92-.85-2.09-.74-3.55-3.14-1-5.34.76-.65,1.59-1.3,2.49-1.69,2.72-1.15,5.54-2.01,8.5-2.25,2.76-.23,5.54-.52,8.31-.47,8.65.16,16.54,2.73,23.49,7.97.4.3.76.67,1.17.97.39.28.82.49,1.63.97-.81.23-1.29.55-1.59.43-.85-.35-1.65-.84-2.42-1.35-4.57-3.03-9.63-4.88-14.96-5.77-3.79-.63-7.64-.97-11.56-.36-2.83.44-5.66.77-8.38,1.69-1.31.45-2.55,1.11-4.38,1.92,1.15.3,1.67.54,2.21.56,1.6.05,3.22.14,4.81-.03,3.34-.35,6.66-.86,10-1.28,2.59-.32,5.18-.65,7.77-.89,1.45-.13,2.33.39,2.62,1.46.28,1.05-.02,1.98-.89,2.68-.52.42-1.05.83-1.86,1.47,2.68.39,4.71,1.56,6.8,2.69,1.77.96,3.83,1.18,5.89.82,3.69-.64,7.4-1.23,11.57-1.93Z"/>
  <path class="cls-1" d="M460.83,195.62c-.11,1.92-1.78,2.63-2.81,4.03.44,3.61.97,7.34,1.31,11.08.19,2.09.12,4.22.06,6.33-.02.72-.38,1.42-.7,2.54-1.35-2.06-1.72-3.96-1.74-5.93-.03-3.97,0-7.94,0-11.91,0-.66,0-1.32,0-1.97h-6.43c.42,2.75,1.04,5.67,1.27,8.61.22,2.89.05,5.81.05,9.04-1.03-1.66-1.39-3.24-1.5-4.89-.19-2.94-.32-5.89-.53-8.83-.1-1.34-.29-2.67-.55-3.98-.09-.43-.43-.96-.81-1.17-2.45-1.36-2.99-3.68-3.15-6.18-.08-1.18-.05-2.37-.1-3.55-.14-3.26.88-6.09,2.85-8.18-.12-2.37-.22-4.47-.34-6.55-.15-2.69-.36-5.38-.44-8.07-.07-2.36-.01-4.73.02-7.1.01-.8-.25-1.7.77-2.22.17-.09.17-.79.03-1.11-.28-.67-.54-1.35.07-1.86.62-.53,1.36-1.12,2.12-1.23,1.94-.28,3.54.93,4.13,2.92.21.72.39,1.47.42,2.21.21,4.55.3,9.1.57,13.64.18,3.01.68,6.01.88,9.02.13,1.9-.04,3.82-.07,5.87.27-.15.78-.26,1-.58.93-1.35,1.13-2.78.15-4.24-.17-.26-.29-.55-.48-.92.38-.07.65-.21.85-.14,1.3.48,3.42,3.08,3.7,4.42.62,3.01.78,6-.31,9.39-.28-.81-.57-1.28-.59-1.77-.09-1.86-.07-3.72-.13-5.57-.02-.63-.12-1.26-.18-1.94-.31.11-.56.14-.58.22-.52,2.47-2.24,3.64-4.55,4.14-1.15.25-2.3.49-3.47.63-2.06.24-3.86-.24-5.04-2.18-.11.09-.28.16-.28.24-.01.93,0,1.86,0,2.79,0,1.33-.07,2.66.04,3.97.04.53.39,1.12.77,1.51,1.91,1.96,4.33,2.53,6.95,2.13,2.16-.33,4.27-.93,6.02-2.38.17-.14.42-.17.73-.29ZM455.37,186.26c-.38-1.43-.79-2.63-1-3.86-1-5.81-1.57-11.66-1.55-17.58.01-2.77-.23-5.55-.45-8.32-.12-1.45-1.02-1.98-2.46-1.69-.84.17-1.13.77-.79,1.69.1.27.36.75.35.75-1.42.73-.63,1.99-.59,2.94.07,1.5.51,2.97.72,4.47.42,2.91,1.12,5.83,1.1,8.74-.02,4.54.97,8.87,1.78,13.5,1.07-.24,2-.44,2.88-.64ZM449.18,186.18v-4.67c-.63,1.52-1.19,3.03,0,4.67Z"/>
  <path class="cls-1" d="M271.09,179.42q.73,3.87,2.11,4.8c.03-.74.06-1.38.09-2.02.18-3.87.41-7.74.51-11.61.05-1.76-.11-3.53-.25-5.29-.18-2.26-.41-4.52-.65-6.77-.37-3.59-.55-7.22-1.19-10.77-.77-4.26-1.04-8.51-.93-12.81.01-.51,0-1.02.08-1.52.18-1.23.82-2.21,1.8-2.95,1.88-1.42,4.03-.82,4.92,1.37.16.38.28.8.31,1.21.22,3.19.38,6.38.61,9.57.27,3.77.6,7.55.86,11.32.1,1.51.08,3.04.08,4.56.01,5.06-.02,10.12.58,15.16.13,1.08.35,2.15.55,3.39,2.09.46,2.67,1.97,2.46,3.96-.21,2.01-.73,3.96-2.82,4.68-1.72.59-3.59,1-5.4.99-2.97,0-4.89-1.79-4.53-4.77.11-.87-.23-1.91.81-2.51ZM278.55,183.44c-.07-.98-.04-1.92-.23-2.82-1.05-5.12-1.46-10.31-1.81-15.5-.37-5.63.02-11.28-.48-16.93-.45-5.03-.39-10.1-.57-15.15-.01-.31-.17-.62-.24-.86-.9-.32-1.52.02-1.77.7-.31.85-.48,1.77-.55,2.68-.4,5.25.95,10.38,1.12,15.59.13,3.86.67,7.7.8,11.56.16,4.89.02,9.79.14,14.69.05,2.24.39,4.48.6,6.63,1.16.5,1.97.07,2.99-.59Z"/>
  <path class="cls-1" d="M335.49,266.52c1.04,2.73,2.19,5.43,3.09,8.21.91,2.79,1.6,5.65,2.32,8.5.7,2.76,1.22,5.57,1.98,8.31.76,2.76.58,5.74,2.02,8.84.83-1.59.56-2.83.39-3.99-.75-5.07-2.24-9.96-3.56-14.9-1.02-3.8-1.94-7.63-2.93-11.44-.53-2.03-1.15-4.03-1.7-6.05-.15-.55-.23-1.13-.36-1.83,1.39.26,1.36,1.71,2.44,2.25,2.65-3.4,2.65-7.4,2.61-11.46-2.12.46-2.36.91-3.36-2.29-.25.64-.46,1.07-.58,1.53-.13.49-.08,1.03-.26,1.48-.27.68-.44,1.52-1.4,1.6-.81.07-1.2-.42-1.48-1.11-.12-.29-.35-.63-.62-.75-1.36-.61-1.58-1.88-1.26-2.97.69-2.34.22-4.69.37-7.02.06-.9.07-1.8.12-2.94.66.23,1.24.27,1.32.49.29.77.49,1.59.59,2.41.27,2.33.46,4.67.99,7.02.19-2.71.38-5.42.59-8.13.07-.92.12-1.85.29-2.75.11-.58.41-1.16,1.19-1.02.69.12.94.62,1.02,1.27.15,1.25.32,2.5.49,3.75.2,1.48.41,2.97.92,4.44.05-.82.13-1.64.15-2.46.04-1.27.04-2.53.07-3.8.03-1.5.42-2.26,1.17-2.13,1.05.19,1.14,1.11,1.23,1.95.62,5.46.62,10.94.54,16.42-.04,2.54-1.22,4.5-3.11,6.09-.44.37-.95.66-1.49,1.03,2.24,4.95,2.74,10.26,4.05,15.36.83,3.24,1.62,6.5,2.28,9.78.6,2.97.95,5.98.76,9.03-.03.48-.23.94-.38,1.55-.81-.17-1.51-.32-2.33-.5-.16-.29-.44-.63-.56-1.02-.57-1.93-1.08-3.87-1.64-5.8-1.68-5.71-3.31-11.44-5.09-17.13-.83-2.67-1.11-5.42-1.52-8.15-.08-.53.07-1.1.11-1.66.18-.01.36-.02.54-.03Z"/>
  <path class="cls-1" d="M82.8,194.38c-.05.41-.1.82-.15,1.23-2.71.89-4.98,2.52-7.32,3.98-4.22,2.63-8.33,5.43-12.59,7.98-2.15,1.29-4.48,2.33-6.83,3.22-1.13.43-2.48.38-3.73.36-.96-.01-1.75-.56-2.18-1.49-.38-.83-.4-1.63.25-2.36.55-.62,1.18-.87,2.03-.53,1.72.69,3.36.04,4.87-.62,3.3-1.46,6.52-3.11,9.7-4.86-1.75-.24-3.04.96-4.56,1.39-1.58.45-3.09,1.15-4.86,1.42.29-.31.51-.72.87-.9,4.27-2.18,8.6-4.23,12.82-6.5,3.78-2.04,7.29-4.49,10.48-7.45,2.19-2.03,5.06-2.94,7.95-3.63.77-.19,1.42-.05,1.7.63.32.78-.27,1.24-.93,1.53-.23.1-.47.16-1,.34,2.01.49,3.76-1,5.76.23-1.92,1.17-3.67,2.24-5.79,3.53,2.22-.37,4.07-.67,5.93-.98-2.37,1.62-4.95,2.5-7.78,3.2,1.22,1.02,2.52.78,3.79.63,2.65-.31,5.3-.62,7.99-.74-2.65,1.9-5.56,3.08-8.75,3.43-2.64.29-5.01-.38-6.89-2.39-.22-.24-.53-.4-.8-.6-.37-.52-.69-1.09-1.14-1.53-.15-.15-.7-.08-.95.07-1.65,1.03-3.26,2.11-4.89,3.17,1.27.01,2.33-.43,3.42-.77,1.19-.38,2.41-.67,3.62-1Z"/>
  <path class="cls-1" d="M505.17,226.38c2.37.34,4.52-.18,6.65-.88,1.86-.62,3.56-1.49,5.08-2.75,4.08-3.39,8.95-4.74,14.08-5.5,4.76-.71,9.54-.93,14.33-1.1,2.5-.09,5.04-.47,7.47-1.06,1.91-.46,3.88-1.17,4.83-3.4.97.07,1.94.15,2.9.22,0,.14,0,.28,0,.41-.5.1-1.12.04-1.47.32-.52.41-.67,1.01-.45,1.8.28,1-.55,1.52-1.41,1.74-1.38.36-2.77.76-4.18.93-2.42.29-4.86.5-7.29.58-2.87.1-5.75,0-8.62.05-4.8.09-9.51.85-14.16,2.01-.64.16-1.23.52-1.99.85.07,1.69-1.03,2.45-2.34,3.39-2.81,2.02-5.81,3.4-9.17,3.99-1.81.31-3.68.43-5.51.4-2.03-.03-2.3-.85-1.04-2.88-.61-.47-1.23-.95-1.96-1.52.52-.75.96-1.4,1.41-2.05-1.12-.19-2.19-.37-3.26-.55-.69-.11-1.51-.3-1.49-1.08.02-.63.54-1.24,1.01-2.22-.29-1.84-.12-2.1,1.86-2.94,3.29-1.39,6.76-2.03,10.27-2.36,3.2-.3,6.35.45,9.44,1.23,1.09.28,2.05,1.06,3.01,1.83-7.69-3.02-15.14-2.14-23,.98,1.21.57,2,.43,2.75.31,1.58-.23,3.13-.7,4.71-.77,1.74-.08,3.49.18,5.11.28.53,1.11.95,1.98,1.42,2.95-.47.84-1.32,1.01-2.25,1.21-2.04.43-4.05,1.01-6.05,1.69,2.9.83,5.61-1.02,8.56-.6.44,1.06.05,1.63-.94,1.88-1.47.37-2.96.62-4.4,1.07-1.34.41-2.62,1-3.92,1.51ZM502.16,219.4c0,.08,0,.15,0,.23h5.11c0-.08,0-.15,0-.23h-5.11Z"/>
  <path class="cls-1" d="M239.8,160.9c-1.48.61-2.95,1.23-4.86,2.02,2.74,1.52,5.03,1.18,7.42.39.49-1.33-.45-3.04.98-4.2,1.25.96,1.07,2.39,1.16,3.87,3.45-.6,6.72-1.16,10.13-1.75-1.04-.83-2-1.6-2.96-2.38.06-.12.12-.25.18-.37.83.28,1.67.56,2.5.86,2.1.76,3.26,2.25,3.29,4.5.05,3.8.46,7.66-.04,11.39-.83,6.22-4.54,11-11.88,11.11-2.6.04-5.21.18-7.8-.47-2.96-.74-4.68-2.7-4.6-5.75.02-.84.04-1.69,0-2.53-.18-4.04-.28-8.08-.61-12.11-.11-1.43.17-2.3,1.34-3.18,1.73-1.3,3.66-1.44,5.75-1.39ZM233.63,164.77c.19,1.26.29,1.98.42,2.7.25,1.4.58,2.78.78,4.18.37,2.65.66,5.32.99,7.97.26,2.13.88,2.75,2.89,3.17,2.67.56,5.31.48,8,0,3.27-.58,5.53-2.28,6.75-5.36.52-1.33.98-2.68,1.57-3.98.5-1.1.65-2.22.69-3.42.04-1.67.27-3.33.4-5,.02-.32-.05-.64-.07-.96-1.29.35-2.46.78-3.67.98-3.31.53-6.61,1.09-9.94,1.41-2.84.27-5.74.41-8.79-1.7Z"/>
  <path class="cls-1" d="M106.37,217.27c-.55-.13-.93-.11-1.16-.29-3.64-2.89-7.89-3.29-12.24-2.7-4.36.6-8.51,1.99-12.18,4.52-1.03.71-1.99,1.58-2.77,2.55-1.23,1.54-.87,3.11,1.02,3.83,1.62.62,3.4.97,5.13,1.1,3.13.24,6.2-.37,9.21-1.19,2.18-.6,4.28-1.44,6.42-2.18.36-.12.72-.24,1.62-.54-.6.74-.8,1.08-1.08,1.33-4.58,3.92-9.77,6.68-15.84,7.07-3.55.23-6.99-.64-9.73-3.34-2.46-2.43-1.93-6.09-.5-8.1,1.3-1.83,3.02-3.18,4.91-4.26,4.98-2.85,10.38-4.36,16.12-4.34,3.62.01,6.92,1.23,9.79,3.51.88.7,1.61,1.45,1.27,3.04Z"/>
  <path class="cls-1" d="M284.81,282.54c-.06-.24-.19-.44-.13-.55,1.92-3.79,2.97-7.86,3.64-12,.5-3.06.74-6.2-.19-9.27-.1-.32-.23-.63-.39-.92-.07-.14-.24-.22-.47-.42-1.28,1.59-1.45,3.54-1.64,5.38-.49,4.77-.79,9.55-1.15,14.33-.34,4.53-.67,9.06-1.02,13.59-.17,2.18-.35,4.36-.53,6.53-.02.25.09.57-.03.74-.21.32-.55.75-.84.76-.31,0-.76-.37-.9-.7-.19-.44-.21-.99-.2-1.49.13-5.73.28-11.46.42-17.19.04-1.43,0-2.87.09-4.3.33-5.03.61-10.08,1.1-15.09.15-1.55.73-3.13,1.45-4.52,1.31-2.55,4.04-2.89,6.11-.92,1.33,1.27,2.06,2.91,2.42,4.64.54,2.57.53,5.22-.04,7.75-1.17,5.18-3.53,9.79-7.27,13.63-.04.04-.16,0-.43,0Z"/>
  <path class="cls-1" d="M277.14,226.7c-1.14-.66-1.27-1.57-1.18-2.53.17-1.79-.21-3.5-.57-5.24-.22-1.06-.4-2.16-.4-3.24,0-4.05-.4-8.06-.94-12.06-.11-.83-.02-1.68-.02-2.59-.54-.35-1.11-.58-1.47-.99-.48-.54-1.08-1.21-1.12-1.86-.15-2.17-.26-4.36.13-6.6-.93-.7-2.06-1.43-3.04-2.32-2.54-2.31-3.04-6.24-1.38-9.27.73-1.34,1.95-1.78,3.25-2.15.22-.06.54.25.92.44-3.86,1.78-4.19,6.54-1.25,9.27,3,2.78,10.33,2.23,13.04-.62,1.64-1.73,2.19-3.92,1.19-6.18-.27-.61-.51-1.23-.74-1.86-.04-.12.07-.3.11-.45,1.8.54,2.68,1.64,2.86,3.5.21,2.14-.53,3.95-1.88,5.58-2.49,3-5.75,4.24-9.54,4.34-.83.02-1.66,0-2.71,0,.36,1.85.65,3.54,1.05,5.21.18.74.57,1.37,1.52,1.45,1.08.09,2.15.46,3.23.45,2.01-.02,2.62-.71,2.74-2.76.05-.93.03-1.86.14-2.78.07-.54.33-1.06.56-1.71,2.15,1.21,1.22,3.08,1.38,4.62.19,1.78-.07,3.42-2.19,4.17.15,1.47.36,2.79.41,4.11.15,4.21,1.31,8.3,1.56,12.47.17,2.82-.28,5.67-.46,8.59-.85.43-1.5.2-1.76-.68-.18-.63-.12-1.34-.12-2.01,0-2.45.32-4.94-.03-7.33-.72-4.94-.4-9.9-.47-14.98-1.72-.24-3.27-.39-4.84.51.46,2.43,1.03,4.86,1.37,7.32.4,2.91.62,5.84.89,8.76.17,1.84.33,3.68.44,5.52.08,1.32.44,2.71-.67,3.92Z"/>
  <path class="cls-1" d="M103.64,263.47c-.77-.63-1.22-1-1.7-1.39-.25.07-.49.12-.71.21-2.09.88-4.17,1.78-6.27,2.64-.89.36-1.71.69-2.81.62-1.01-.06-2.11.88-3.14,1.44-.42.23-.75.61-1.14.94-.78-.53-.73-1.09-.18-1.48,1.02-.73,2.08-1.44,3.2-2.01,5.62-2.86,11.28-5.66,16.9-8.52,6.3-3.2,12.58-6.45,18.87-9.68.67-.35,1.33-.76,2.04-1,1.49-.49,2.69.44,2.71,2.02.05,3.38-1.6,5.82-4.82,7.19-4.95,2.11-9.86,4.32-14.84,6.33-2.63,1.06-5.38,1.8-8.1,2.68ZM127.44,248.95c-8.19,3.81-16.04,7.46-23.97,11.15.32.7.55,1.2.82,1.79.76-.5,1.4-.9,2.01-1.33,3.02-2.15,6.27-3.91,9.68-5.37,3.16-1.35,6.35-2.64,9.54-3.93.88-.36,1.73-.68,1.93-2.31Z"/>
  <path class="cls-1" d="M274.67,222.93c-1.62.62-3.15,1.08-4.55,1.8-.77.4-1.47,1.14-1.93,1.89-.92,1.49-.61,2.92.67,4.07.31.28.66.54,1.03.72,4.64,2.29,9.5,2.73,14.49,1.52,2.04-.49,3.63-1.71,4.58-3.67,1.22-2.53.77-4.5-1.52-6.18-.73-.53-1.51-.98-2.47-1.59.49-.3.76-.62,1.02-.61,2.1.07,4.2.18,6.07,1.36,1.39.88,2.05,2.1,2.22,3.74.48,4.57-3.61,9.22-7.18,10.62-3.02,1.19-6.11,1.09-9.22.96-3.51-.14-6.81-1.1-9.78-2.99-.91-.58-1.78-1.3-2.45-2.14-1.78-2.22-1.79-4.7-.17-7.01,1.69-2.4,4.2-3.26,6.96-3.54.85-.08,1.64.27,2.23,1.02Z"/>
  <path class="cls-1" d="M348.96,40.74c-.65-.01-1.21-.12-.99-1,.4-1.54.82-3.08,1.21-4.62.1-.38.1-.79.16-1.32-1.51-.21-2.88-.39-4.2-.57-.4,2.51-.7,4.91-1.18,7.27-1,4.87-2.82,9.47-4.75,14.02-.46,1.09-.78,2.14-.1,3.39-1.3-.2-1.4-1.04-1.2-1.87.29-1.22.76-2.39,1.12-3.6,1.01-3.37,2-6.74,2.99-10.11.96-3.28,1.04-6.64.78-10.01-.15-2.05-1.1-3.89-2.18-5.59-1.74-2.75-4.05-4.95-6.9-6.54-.51-.29-1.13-.51-1.47-.94-.31-.39-.5-1.08-.39-1.55.08-.34.71-.61,1.15-.77.29-.11.68-.06,1,.04,2.97.91,5.98,1.71,8.87,2.81,3.82,1.45,5.1,4.62,4.37,8.61-.09.47-.19.95-.31,1.58.88.08,1.63.08,2.35.21,2.3.43,3.5,2.22,2.73,4.43-.54,1.56-1.49,2.98-2.25,4.47-.3.57-.59,1.15-.89,1.72l.07-.07ZM343.72,27.7c1.6-2.24-.1-5.01-3.55-5.49,1.18,1.82,2.39,3.69,3.55,5.49Z"/>
  <path class="cls-1" d="M467.08,234.27c.2,2.15.33,3.97.56,5.77.24,1.91.62,3.8.87,5.71.69,5.32,1.41,10.64,2,15.98.47,4.34.76,8.7,1.14,13.05.06.67.16,1.33.28,1.99.31,1.68-.06,3.23-.75,5.08-.27-.5-.45-.69-.47-.88-.21-2.77-.31-5.54-.62-8.3-.35-3.16-.88-6.31-1.31-9.46-.42-3.07-.79-6.15-1.21-9.23-.42-2.99-.92-5.97-1.31-8.96-.48-3.66-.91-7.33-1.3-11-.1-.9-.27-1.95.79-2.46,1.07-.51,2.06-.01,2.76.71.67.69,1.3,1.59,1.56,2.51.63,2.25,1.09,4.56,1.5,6.87.71,4.04,1.46,8.09,1.94,12.16.27,2.31.76,4.66.17,7-.3,1.22-.46,2.5-1.81,3.39-.52-1.27-.8-2.51-.68-3.81.36-3.8-.36-7.5-.97-11.22-.6-3.64-1.05-7.3-1.69-10.93-.22-1.26-.16-2.67-1.45-3.98Z"/>
  <path class="cls-1" d="M52.62,186.99c-2.4.49-4.61.96-6.83,1.38-.28.05-.61-.15-1.08-.27.55-.96,1.45-.99,2.18-1.21,4.17-1.29,8.34-2.54,12.52-3.79,5.23-1.55,10.45-3.11,15.7-4.61,1.69-.48,3.42-.84,5.15-1.17.74-.14,1.51-.08,2.27-.1.95-.03,1.63.43,2.04,1.24.41.82-.08,1.55-.56,2.07-2.4,2.6-5.14,4.61-8.88,4.73-.84.03-1.69.09-2.53.04-4.69-.31-9.21.63-13.7,1.78-1.06.27-2.14.46-3.18.78-1.33.42-2.48.41-3.1-.88ZM80.28,179.77c-2.06.39-3.7.65-5.31,1.01-1.53.34-3.03.79-4.55,1.19,3.44.36,6.91.91,9.86-2.19Z"/>
  <path class="cls-1" d="M308.64,89.48c1.43-2.31-1.26-2.8-1.56-4.35-1.2.14-2.27.24-3.34.4-2.22.33-2.82-.12-3.04-2.34-.02-.16-.06-.32-.1-.56-1.66-.86-3.12.77-4.95.51.98-1.79,2.48-2.83,4.14-3.51,1.72-.71,3.42-.51,4.93.84.42.38,1.22.37,1.86.46,1.16.17,2.35.19,3.48.46,1.73.41,2.36,1.69,1.92,3.41-.13.53-.18,1.12-.09,1.66.4,2.59-.53,4.66-2.48,6.26-2.48,2.03-5.23,3.01-8.42,1.71-2.55-1.05-4.53-4.1-4.24-6.58.2-1.76.9-2.31,2.99-2.22-1.55.66-1.81,1.76-1.35,3.32.91-.94,1.91-1.28,2.97-.54.44-.59.71-1.17,1.17-1.5.43-.31,1.13-.59,1.58-.46,1.38.4,3.06.39,3.63,2.21.1.33.57.54.9.84ZM306.08,90.01c-.26.48-.48.93-.75,1.35-.22.35-.49.66-.86,1.14,2.28-.57,3.99-1.79,3.54-2.49h-1.94ZM303.21,92.95c.23-.12.33-.14.37-.2.02-.04-.02-.16-.07-.2-.32-.29-.65-.56-.98-.85-.1.11-.2.22-.3.34.34.32.68.63.97.91Z"/>
  <path class="cls-1" d="M470.77,120.58c.54-.84.57-1.59-.34-2.18-.35-.23-.71-.47-1.1-.61-3.62-1.36-7.31-1.85-11.11-.81-.32.09-.63.25-.93.39-2.43,1.12-2.71,3.17-.6,4.88,2.14,1.75,4.69,2.6,7.35,3.15,1.07.22,2.15.43,3.23.48,2.63.13,4.81-.66,6.01-3.25.1-.21.31-.37.72-.83.32,2.48-.31,4.32-1.87,5.81-1.05,1-2.38,1.67-3.82,1.82-5.97.64-11.18-.98-15.26-5.54-1.8-2.02-2.15-4.62-.93-6.52,1.29-2.04,3.28-3.22,5.61-3.5,3.62-.44,7.23-.27,10.68,1.12,1.5.61,2.91,1.39,3.85,2.76.93,1.36.3,2.51-1.5,2.82Z"/>
  <path class="cls-1" d="M345.86,73.77c1.07-1.01,2.14-2.02,3.01-2.84,1.47.05.62,1.55,1.76,1.78.69.14,1.25.88,2.12,1.54.58-.39,1.38-.93,2.14-1.44,1.28.05.93,1.25,1.36,1.83,1.56.64,2.26-.59,3.31-1.45-1.96-.86-3.19-3.26-5.85-2.26.22.35.44.71.72,1.14-.26.19-.53.53-.79.53-.53,0-1.28-.04-1.53-.37-.43-.56.19-1.04.6-1.47,2.76-2.86,8.11-2.41,10.27,1.12.88,1.45.92,3.02.3,4.61-1.45,3.69-4.82,5.9-8.84,5.81-1.18-.03-2.36.02-3.54.07-4.48.18-5.97-3.55-5.39-6.72.12-.65.28-1.3.42-1.95l-.06.06ZM355.26,76.32c-1.04.22-1.76.37-2.48.52-.4.09-.83.11-1.18.29-1.8.94-2.06.87-2.68-.8-.17-.47-.34-.94-.5-1.42-.28-.83.38-.83.87-.98-.09-.21-.2-.62-.26-.61-.36.04-.9.08-1.04.31-.85,1.47-.85,3.07-.33,4.62.4,1.19,1.29,1.58,2.59,1.37.41-.07.88-.3,1.21-.18,1.17.44,1.86-.18,2.52-.99,1.49,1.74,2.6.26,4.23-.52-1.51-.1-2.6-.31-2.93-1.61Z"/>
  <path class="cls-1" d="M267.72,37.91c-1.57-2.5-1.74-5.16-1.09-7.92.87-3.72,3.13-6.67,5.24-9.7.48-.69.97-1.36,1.7-2.37-.8.17-1.3.16-1.67.37-6.39,3.49-10.12,8.68-10.21,16.16-.04,3.86.6,7.53,2.95,10.73.39.53.87.99,1.36,1.54-1.26.5-1.97-.34-2.62-1.18-1.7-2.17-2.71-4.72-3.02-7.38-.48-4.1-.53-8.21,1.3-12.14,2.24-4.82,5.89-8.12,10.55-10.43.66-.33,1.43-.54,2.17-.61,1.42-.14,2.34.72,2.12,2.11-.17,1.04-.6,2.11-1.16,3.02-1.15,1.86-2.46,3.62-3.7,5.42-.57.83-1.19,1.64-1.71,2.5-1.49,2.5-2.54,5.13-2.21,8.13.06.58,0,1.17,0,1.75Z"/>
  <path class="cls-1" d="M360.4,52.86c1.46-1.14,2.66-1.34,3.94-1.41,4.37-.24,8.51.74,12.51,2.33,1.94.77,3.78,1.8,5.63,2.79.58.31,1.1.8,1.53,1.31,1.46,1.73.81,3.68-1.41,4.19-1.91.44-3.82.23-5.7-.23-.24-.06-.47-.11-.86-.19.18.71.41,1.32.47,1.94.09.89-.24,1.62-1.08,2.07-.78.41-1.48.23-2.1-.28-.39-.31-.76-.69-1.01-1.11-1.99-3.35-3.95-6.72-5.79-10.19,1.44.63,2.26,1.96,3.58,2.94,1.24-.93,2.42-.4,3.69.2,1.58.76,3.24,1.4,4.91,1.94.92.3,1.94.31,3.51.53-.69-.78-.92-1.17-1.25-1.4-5.19-3.56-10.88-5.55-17.24-5.38-.64.02-1.27.35-1.92.41-.33.03-.69-.21-1.4-.45Z"/>
  <path class="cls-1" d="M75.71,130.52c2.69-.15,4.84-1.17,7.19.34-1.7.57-3.08,1.03-4.46,1.49,1.38.31,2.76.61,4.63,1.03-.71.34-1.01.59-1.31.6-.91.06-1.83.02-3.2.02,2.57,1.72,5.29,1.28,7.76,2.31-5.41,2.74-10.74.54-11.84-3.59-3.31,1.72-6.89,2.48-10.49,3.13-1.9.34-3.82.52-5.74.76-1.25.16-2.5.33-3.75.44-.73.06-1.55.24-1.94-.76.66-.94,1.75-.92,2.69-1.14,3.67-.88,7.35-1.67,11.03-2.53,3.58-.84,6.73-2.61,9.76-4.61,2.27-1.5,4.56-2.02,7.4-.6-.54.25-.84.45-1.17.53-1.62.41-3.27.73-4.87,1.2-.46.13-.8.65-1.66,1.39Z"/>
  <path class="cls-1" d="M348.89,40.82c.8-.45,1.59-.9,2.54-1.43,1.47.16,2.17,1.12,2.11,2.89,1.84-.2,3.19.34,3.86,2.12.19.5.81.83,1.22,1.25,1.39,1.47,1.51,3.11-.02,4.39-1.72,1.45-3.63,2.72-5.57,3.86-1.58.92-3.32,1.61-5.04,2.26-.76.29-1.64.36-2.46.32-1.57-.07-2.57-1.18-2.7-2.75-.11-1.39.3-2.66.86-3.89,1.17-2.61,2.53-5.11,4.28-7.39.4-.52.67-1.14,1.01-1.71,0,0-.07.07-.07.07ZM355.66,48.25q-2.91-2.74-3.54-4.71,1.31-1.73-.39-2.82c-2.74,2.57-4.15,5.97-5.61,9.33-.44,1.01-1.07,2.11-.46,3.51,3.93-.6,6.82-2.98,10-5.31Z"/>
  <path class="cls-1" d="M242.27,158.67c-.64.76-1.27,1.21-2.38.85-1.13-.37-1.69-1.15-1.93-2.14-.27-1.15-.26-2.36.42-3.43.86-1.35,1.73-2.69,2.62-4.02.64-.94.97-1.84.62-3.06-.45-1.58.06-3.19.58-4.7.46-1.35,1.37-1.78,2.8-1.57,1.15.17,1.95.91,2.01,2.23.06,1.42.1,2.91-.27,4.25-.45,1.59-.05,2.79.84,4,.75,1.02,1.56,2.01,2.17,3.1,1.4,2.52.79,4.4-1.97,6.19-.36-1.45-.07-3.05-1.25-4.23-1.01-1.01-1.87-2.17-2.88-3.36-1.43.76-2.19,2.12-3.02,3.32-.79,1.14-.22,1.89,1.65,2.56Z"/>
  <path class="cls-1" d="M65.04,151.02c-.88.42-1.61.77-2.33,1.11-.05-.08-.11-.16-.16-.24.43-.39.87-.78,1.5-1.35-2.77-.65-5.03.28-7.27,1.11-1.66.62-3.22,1.48-4.39,2.88-1.38,1.66-1.37,2.74.34,4.05.97.75,2.17,1.33,3.35,1.65,3.97,1.07,7.99,1,11.97-.04,3.44-.9,4.31-2.22,3.94-5.76,1.96,1.63,2.3,4.16.75,6.13-.96,1.22-2.18,2.06-3.71,2.48-5.29,1.45-10.49,1.15-15.56-.84-1.73-.68-3.3-1.73-4.06-3.59-.74-1.79-.59-3.5.76-4.9.98-1.02,2.08-2.01,3.3-2.69,2.67-1.49,5.57-2.37,8.68-2.17,1.26.08,2.53.27,2.89,2.17Z"/>
  <path class="cls-1" d="M446.43,214.19c-2.16.94-2.58,2.83-3.02,4.69-.62,2.59.22,4.22,2.76,5.13,1.17.42,2.43.68,3.67.77,3.63.26,7.22-.13,10.75-.97,1.64-.39,3.21-.96,4.48-2.17,1.98-1.88,2.05-4.99.26-7.02-.89-1.01-2.09-.9-3.28-1.17,1.96-1.55,3.3-1.45,5.13,0,2.78,2.21,2.85,8.07-.81,10.62-.82.57-1.72,1.09-2.66,1.43-5.57,2.02-11.29,2.56-17.09,1.33-2.5-.53-4.56-1.89-5.21-4.57-.75-3.07.52-5.61,2.54-7.79.51-.55,1.32-1.05,2.47-.27Z"/>
  <path class="cls-1" d="M335.36,99.65c1.5,5.12,5.46,7.03,10.06,8.02,1.63.35,3.33.38,5,.47.44.02.89-.26,1.63-.49-2-1.23-3.86-1.89-5.77-2.48-2.08-.64-4.2-1.21-6.21-2.02-2.72-1.1-3.24-2.4-2.39-5.71.27.55.45.85.57,1.17.41,1.12,1.31,1.41,2.38,1.51,2.77.28,5.47.95,8.02,2.04,1.69.72,3.28,1.68,4.89,2.57.43.24.81.61,1.13.99.76.88,1.16,1.92.75,3.04-.42,1.17-1.44,1.49-2.64,1.56-5.16.3-10.05-.4-14.37-3.54-1.85-1.34-3.01-3.12-3.9-5.15-.42-.97-.19-1.57.84-1.97Z"/>
  <path class="cls-1" d="M256.25,83.96c.53,4.17-.04,8.12-1.61,11.88-.41.98-1.08,1.91-1.81,2.69-.7.75-1.67,1.09-2.75.6-1.12-.51-1.22-1.54-1.26-2.53-.03-.81.14-1.62.23-2.55-1.47,0-2.72.04-3.96,0-2.95-.1-4.2-1.91-3.31-4.76,1.01-3.26,3.26-5.46,6.18-7,2.47-1.31,5.12-2.07,7.98-1.93,1.13.06,2.14.29,3.46,1.41-3.83-.76-6.95.04-9.84,1.65-3.02,1.68-5.32,3.96-5.58,8.05,1.32-.07,2.38-.11,3.44-.2.41-.03.81-.21,1.23-.26,2.32-.25,2.81.06,3.83,2.58,1.31-3.34,2.55-6.49,3.79-9.63Z"/>
  <path class="cls-1" d="M345.92,73.71c-.31-.35-.88-.69-.9-1.06-.38-5.72,1.3-10.65,5.92-14.27,1.97-1.55,5.12-1.31,7.03.35.63.55,1.17,1.21,1.74,1.81,4.38-3.48,7.87-1.03,8.74,3.12.42,2,.66,4.03-.43,5.9-.36.61-.98,1.16-1.61,1.49-.87.46-1.74-.09-1.77-1.09-.05-1.35.08-2.7.06-4.05-.02-1.17.05-2.38-.97-3.27-1.18-.22-1.57.81-2.22,1.4-1.56,1.45-2.55,1.26-3.47-.64-.4-.83-.76-1.71-1.32-2.42-1.37-1.73-3.25-2.06-5.16-.93-.71.42-1.41.97-1.92,1.61-2.82,3.53-4.39,7.48-3.78,12.1l.06-.06Z"/>
  <path class="cls-1" d="M326.15,34.66h-2.19c-1.6-2.31,1.42-3.16,1.4-5.2-.63.5-1.1.88-1.56,1.24-.6-.14-1.29-.34-1.99-.45-.5-.08-1.01-.06-1.52-.07-.96-.02-1.59-.48-1.91-1.37-.26-.72.06-1.93.77-2.48.52-.41,1.12-.7,1.62-1-.03-.45-.05-.83-.09-1.32.53.04.87.03,1.19.1,2.09.51,2.12.53,2.69-1.45.23-.81.69-1.39,1.46-1.59.88-.23,1.41.4,1.84,1.06.37.56.69,1.15.97,1.63,1.46-.24,2.83-.48,4.61-.77-.88,1.53-2.21,1.58-3.24,2.45.96.72,1.91,1.37,2.79,2.11.34.29.71.79.68,1.17-.03.39-.46.92-.84,1.07-.5.2-1.12.13-1.69.09-.91-.06-1.81-.19-2.81-.3-.78,1.79-1.51,3.47-2.24,5.15l.07-.07Z"/>
  <path class="cls-1" d="M281.53,31.14c.14-.17.3-.36.44-.54.98-1.24,1.78-1.4,2.89-.43.62.55,1.18,1.21,1.63,1.9.91,1.41,1.68,2.9,2.58,4.31,1.05,1.65.9,3.82-1.54,4.65-3.72,1.27-7.4,1.28-10.94-.66-.51-.28-.98-.65-1.4-1.05-1.27-1.22-2.09-2.66-1.56-4.49.62-2.15,2.14-3.38,4.32-3.67,1.15-.15,2.34-.03,3.57-.03ZM286.78,38.38c-.76-1.06-1.63-1.91-2.03-2.95-.43-1.13-2.09-1.02-2.09-2.39-1.6-1.23-5.16-.83-6.45.73-.86,1.03-1.01,2.16-.15,3.2.56.68,1.34,1.33,2.15,1.64,2.74,1.04,5.52,1.04,8.56-.22Z"/>
  <path class="cls-1" d="M161.45,116.1c-.75-2.82-1.52-5.58-1-8.45.13-.7.19-1.24-.1-1.9-1.7-3.95-2.44-8.18-3.48-12.32-.32-1.27-.25-2.54,1.35-3.37,1.41,4.98,2.81,9.88,4.23,14.89,1.33-.35,2.49-.03,3.36.95,1.5,1.7,2.3,3.68,2.1,6.48-.73-.87-1.21-1.44-1.68-2.01-.52.26-1.05.52-1.59.78.06,1.06.12,2.28.18,3.51-.16.05-.33.1-.49.15-.55-1.14-1.1-2.28-1.68-3.48-1.21,1.47-.56,3.26-1.2,4.78Z"/>
  <path class="cls-1" d="M104.59,133.75c-.73-.74-1.49-1.22-1.85-1.91-1.49-2.91-3.18-5.76-3.87-9.02-.17-.82-.44-1.67-.35-2.48.18-1.78-.36-3.29-1.21-4.79-.91-1.6-1.49-3.32-1.83-5.48.55.29.87.37,1.05.57,4.95,5.66,7.42,12.52,9.42,19.6.37,1.31-.2,2.27-1.35,3.5Z"/>
  <path class="cls-1" d="M312.55,106.96c.16,2.28-1.31,4.02-3.61,4.27-.99.11-2.04.1-3.02-.08-4.03-.72-8.04-1.54-12.06-2.29-.65-.12-1.34-.11-2.01-.1-1.89.03-1.89.05-2.7,2.17-.49-.34-1.15-.55-1.32-.97-.18-.45-.07-1.25.24-1.6.59-.65,1.35-1.34,2.16-1.56,1.35-.37,2.81-.57,4.21-.51,2.17.1,4.32.52,6.48.72,2.67.25,5.35.5,8.03.57,1.13.03,2.27-.38,3.59-.63Z"/>
  <path class="cls-1" d="M265.87,90.44c1.45,1.47,2.94,2.82,4.25,4.33,1.17,1.35,1.04,2.96.32,4.5-1.4,2.99-4.83,4.83-8.08,4.4-1.96-.26-3.89-2.53-3.55-4.52.62-3.66,2.68-6.43,5.85-8.35.34-.2.78-.23,1.21-.35ZM265.36,91.51c-.93,1-1.59,1.56-2.05,2.24-1.03,1.52-2.09,3.06-2.11,5.01-.02,1.86,1.25,2.81,2.99,2.16,1.68-.63,3.15-1.55,3.56-3.62-1.76-1.3-1.82-3.4-2.39-5.78Z"/>
  <path class="cls-1" d="M295.65,26.58c.59.2,1,.49,1.35.43,2.04-.34,2.66.91,3.01,2.54.27,1.23.45,2.5.89,3.67,1.24,3.32-2.29,7.71-5.81,8.48-1.58.35-3.19-.88-3.41-2.61-.12-.99-.17-2.07.08-3.02.6-2.27,1.31-4.52,2.14-6.71.37-.98,1.13-1.82,1.74-2.78ZM293.74,39.1c1.76.56,2.53-.58,3.34-1.49.8-.9,1.36-1.96.98-3.23-.53-1.76-1.1-3.51-1.69-5.26-.05-.16-.34-.25-.68-.48-1.36,3.41-2.52,6.69-1.95,10.47Z"/>
  <path class="cls-1" d="M332.14,251.26c-.74-.08-1.27-.13-1.99-.21.45,3.55.78,7.05,1.37,10.51.46,2.66.61,2.64,2.6,3.98-1.36.75-2.55.49-3.27-.7-.73-1.19-1.27-2.55-1.64-3.9-.46-1.69-.75-3.44-.94-5.19-.45-4.09-.81-8.19-1.19-12.29-.05-.5-.13-1.06.04-1.51.19-.49.58-1.14,1-1.25.43-.11,1.12.23,1.5.58.33.3.44.88.55,1.36.65,2.77,1.26,5.54,1.96,8.62Z"/>
  <path class="cls-1" d="M274.33,128.44s-.22.13-.33.07c-1-.5-2.89-2.77-3.21-3.79-.15-.48-.27-.97-.48-1.43-.56-1.21-.59-2.41-.12-3.65,1.02-2.68,1.71-5.42,1.58-8.33-.03-.73.24-1.32,1.11-1.42.85.46,1.02,1.25,1.02,2.12,0,1.43.06,2.86-.05,4.28-.11,1.49.16,2.81,1.1,4.01.46.59.79,1.28,1.13,1.95.58,1.15.44,2.25-.21,3.34-.54.89-1,1.83-1.54,2.84Z"/>
  <path class="cls-1" d="M418.87,120.34c-1.49-.76-1.65-1.67-1.37-2.62,1.13-3.85,3.02-7.29,5.82-10.2.69-.72,1.46-1.14,2.42-.53,1.68-1.99,2.53-4.52,4.63-6.83,0,.92.15,1.42-.02,1.75-1.14,2.25-2.27,4.51-3.55,6.67-1.97,3.33-4.03,6.6-6.12,9.86-.47.73-1.21,1.3-1.79,1.9Z"/>
  <g>
    <path class="cls-1" d="M371.83,200.05c-.98-2.1-.16-3.74.48-5.44.65,1.72.18,3.53.51,5.39,1.94.18,3.72.22,5.54-1.25-1.1-.44-2.01-.8-2.95-1.18,2.63-1.5,3.76-1.23,5.64.12,1.97,1.42,3.46,3.01,3.97,5.5.41,1.96,1.2,3.84,1.76,5.77.59,2.03.85,4.1.77,6.23-.03.77.28,1.55.48,2.56-3.71,4.08-8.76,5.01-14.27,4.43-1.91-.2-3.81-.57-5.71-.89-2.48-.42-4.53-1.82-6.51-3.2-1.44-1-1.78-2.84-1.93-4.51-.31-3.57.38-7.03,1.58-10.37.29-.81.97-1.6,1.68-2.11,1.08-.77,2.29-1.42,3.54-1.87.7-.25,1.88-.98,2.16.64.99.05,1.97.1,3.25.16ZM382.89,201.45c-2.11,2.23-4.46,2.79-7.11,2.7-1.7-.06-3.35-.22-4.97-.78-1.68-.58-3.4-1-5.19-.9-.99.05-2.06.01-2.94.38-1.04.43-.59,1.66-.76,2.52-.64,3.26-.66,6.52.54,9.69.68,1.81.66,1.82,2.76,1.47.12-.02.26.09.38.14-.07.37-.15.75-.24,1.22,1.62.51,3.15.91,4.76.83,2.77-.14,5.54-.34,8.32-.48,3.07-.16,5.54-2.59,5.41-5.72-.16-3.6-.61-7.18-.96-11.08Z"/>
    <path class="cls-1" d="M371.63,187.14c-1.27,1.77-2.53,3.24-3.46,4.91-.95,1.71-.48,2.72,1.28,3.79-.49.71-1.11.72-1.73.25-.91-.69-1.48-1.6-1.6-2.76-.17-1.64.1-3.2.98-4.61.63-1,1.3-1.97,1.97-2.94.82-1.19,1.61-2.37,1.61-3.9,0-.85.38-1.49,1.29-1.6.84-.1,1.66.75,1.73,1.81.03.5.02,1.04-.16,1.49-.53,1.36-.03,2.49.73,3.54.64.89,1.38,1.7,2.05,2.56,1.75,2.24,1.59,4.04-.53,6.13-.07-.1-.23-.25-.21-.29,1.27-2.02.67-3.65-.95-5.16-.97-.91-1.83-1.95-3.01-3.22Z"/>
  </g>
  <path class="cls-1" d="M372.21,81.38c.15-.05.36-.06.45-.17,1.74-2.18,3.11-4.58,3.8-7.29.39-1.52-.17-2.79-1.37-3.77-1.18-.96-2.53-1.25-4.01-.87-.14.84-.52,1.08-1.07.31-.48-.68.12-1.17.59-1.42.72-.38,1.53-.7,2.34-.8,4.58-.59,8.23,4.19,6.55,8.53-1.26,3.26-3.67,5.27-7.06,6.49-.07-.46-.11-.77-.16-1.08,0,0-.07.08-.07.08Z"/>
  <path class="cls-1" d="M556.04,209.84c-3.48,2.76-24.07,6.28-31.79,5.66.66-.33,1.02-.61,1.43-.7,5.14-1.16,10.3-2.15,15.55-2.72,4.96-.53,9.87-1.48,14.81-2.24Z"/>
  <path class="cls-1" d="M314.4,79.75c-1.1-.52-2.25-.95-3.28-1.59-1.43-.89-2.76-1.19-4.13.05-.18.17-.42.28-.65.39-.94.44-1.86.32-2.3-.28-.5-.66-.41-2.27.34-2.76,1.1-.73,2.28-1.44,3.52-1.83,2.04-.64,3.84,0,5.03,1.8.77,1.16,1.32,2.46,1.97,3.69-.17.18-.34.36-.5.54Z"/>
  <path class="cls-1" d="M161.51,162.14c-2.25,1.68-4.42,2.34-6.81,2.3-1.37-.03-2.73-.15-4.3-.25-.35-.36-.23-.95.28-1.33.52-.39,1.18-.79,1.78-.8,2.88-.05,5.76.04,9.05.08Z"/>
  <g>
    <path class="cls-1" d="M216.08,194.44c.55.46,1.12.83,1.56,1.31,1.56,1.73,1.26,3.59-.54,5.12-2.75,2.35-6,3.37-9.48,3.61-1.27.09-2.08.55-2.72,1.48-1.8,2.59-3.01,5.45-3.48,8.57-.23,1.56-.36,3.17-.27,4.74.3,4.84,3.14,8.21,6.7,11.12.37.3.74.61,1.46,1.2-1.99,0-3.21-.84-4.46-1.5-3.47-1.85-5.74-4.7-6.39-8.6-.43-2.59-.03-5.2.67-7.74.96-3.47,2.53-6.59,5.11-9.14.22-.22.37-.5.65-.88-1.24.14-2.3.36-3.36.36-2.03,0-2.97-1.04-2.68-3.04.13-.89.5-1.78.92-2.59.42-.82,1.02-1.54,1.63-2.43-.88-1.02-1.42-2.28-.9-3.63.46-1.17,1.14-2.25,2.41-2.81,2.64-1.16,5.16.21,6.64,3.58,2.08,1.25,3.88.86,5.42-.88,1.16-1.31.89-2.58-.77-3.1-1.43-.45-2.93-.67-4.7-1.05.55-.32.89-.67,1.27-.71,1.17-.12,2.36-.13,3.54-.18,2.4-.1,4.13,2.1,3.04,5.02-.28.76-.82,1.42-1.27,2.16ZM205.98,194.52c1.17-.54,2.02-.92,3.19-1.46-1.07-.79-1.81-1.52-2.69-1.92-1.95-.91-3.19-.05-3.55,2.41.26.11.55.22.83.36,1.3.63,1.65,1.62.95,2.81-.25.43-.65.77-.97,1.16-.73.89-1.47,1.77-1.83,3.05,1.42.35,2.34-.39,3.33-.98,1.47-.87,2.03-.61,2.73,1.14.06.15.18.27.32.48,3.3.26,5.85-1.36,8.27-3.35-1.19-2.02-1.49-2.17-4.11-2.14-2.33,2.89-4.39,3.4-6.42,1.48.29-.72.6-1.47.89-2.2-.29-.25-.53-.46-.94-.82ZM207.93,196.82c.88-.16,1.47-.4,1.89-1.2-1.05-.26-1.54.15-1.89,1.2Z"/>
    <path class="cls-1" d="M230.72,188.19c1,.06,1.85.02,2.66.17.72.14,1.49.35,2.07.77,1.06.76,1.27,1.69.35,2.55-1.12,1.06-.98,2.22-.91,3.48.13,2.48-.51,4.68-2.36,6.42-1.55,1.47-3.11,1.39-4.63-.1-.52-.51-1.15-.92-1.8-1.26-1.03-.54-2.11-.98-3.28-1.51-.26.63-.52,1.41-.89,2.14-.13.25-.57.55-.78.5-.35-.09-.86-.43-.89-.71-.07-.82-.04-1.68.12-2.49.34-1.72.77-3.42,1.24-5.43-.53-.43-1.15-.88-1.7-1.4-.48-.46-.97-.96-1.31-1.53-1.08-1.79-.6-3.6,1.32-4.39,2.32-.95,4.72-1.74,7.12-2.48.78-.24,1.69-.21,2.51-.09,1.66.25,2.55,1.8,2.02,3.38-.21.62-.52,1.21-.85,1.97ZM228.63,190.91c-1.11,4.22-1.25,3.36-3.76,4.38,1.25,2.1,1.88,2.4,3.88,1.49,1.4-.64,2.05.31,2.88,1.01.73-.94.76-2.02.62-3.12-.08-.65-.45-1.31-.37-1.93.08-.65.53-1.25.95-2.16-1.6.13-2.9.23-4.2.34ZM221.86,190.68c1.21.24,2.16.44,3.22.65,1.44-1.85,2.94-3.7,4.09-5.9-1.65-.39-3.13-.03-4,.85-1.17,1.17-2.44,1.61-4.19,1.62.33,1.05.6,1.9.88,2.78ZM225.22,192.93c.13.13.26.27.39.4.32-.43.63-.85.95-1.28-.12-.09-.24-.18-.36-.27-.33.38-.65.76-.98,1.15Z"/>
    <path class="cls-1" d="M210.55,175.12c-.1.64-.33,1.21-1.13.93-.71-.25-1.41-.58-2.04-.97-.83-.51-1.17-1.5-.89-2.42.27-.88.89-1.43,1.81-1.54,1.66-.21,3.2.06,4.42,1.43.62-.38,1.17-.74,1.74-1.08.36-.21.73-.42,1.11-.58,2.35-.97,3.43-.28,3.82,2.59.61.23,1.31.47,1.98.76,2.08.89,3.39,2.68,3.24,4.39-.17,1.95-1.62,3.61-3.87,4.09-.84.18-1.29.64-1.84,1.16-.78.73-1.58,1.52-2.51,2.01-1.91.99-3.11.44-3.93-1.59-.16-.39-.31-.78-.53-1.35-1.07.32-2.14.71-3.24.93-1.06.22-2.16.43-3.22.36-1.99-.13-2.82-2.05-1.65-3.68.97-1.34,2.36-2.14,3.85-2.75,1-.41,2.08-.69,3.03-1.2.69-.37,1.22-1.01,1.63-1.89-.61.15-1.23.3-1.84.45.27-.63.54-1.27.82-1.92q-1.3-.1-2.41.38c.2.9.6,1.53,1.66,1.47ZM215.35,177.66c-.1,2.03-.18,3.71-.28,5.8.78-.69,1.26-1.04,1.63-1.47,1.05-1.22,2-2.51,3.92-2.31.3.03.87-.58.96-.97.09-.39-.19-.95-.47-1.31-.24-.31-.68-.49-1.06-.64-1.82-.72-3.43-.39-4.7.9ZM211.89,179.84c-.27-1.54-.33-1.65-1.3-1.4-1.95.51-3.76,1.29-4.99,3.08,2.01.27,3.66-.18,6.29-1.68Z"/>
    <path class="cls-1" d="M226.1,202.66c2.83,3.66,5.51,7.45,6.06,12.21.41,3.63-.81,6.98-2.79,10.03-2.58,3.97-6.41,6.1-10.84,7.31-2.03.56-4-.08-5.96-.52-.38-.09-.7-.45-1.42-.93,1-.4,1.49-.75,1.99-.76,3.58-.05,6.91-1.33,10.32-2.16.5-.12,1-.61,1.3-1.06,2.09-3.12,3.38-6.59,4-10.27.57-3.37-.46-6.49-1.87-9.52-.5-1.06-.9-2.17-1.3-3.28-.09-.26-.01-.59-.01-.88.17-.06.35-.12.52-.17Z"/>
    <path class="cls-1" d="M220.96,208.76c.73-.36,1.04.14,1.37.66,1.16,1.85,1.04,3.93.75,5.9-.3,2.02-1.05,3.96-1.87,5.92-.69-.98-.44-1.98-.33-3.01.36-3.14.62-6.3.07-9.46Z"/>
    <path class="cls-1" d="M215.99,219.72c-1.03-4-.97-7.45,0-10.95,1.37.29,1.59,1.11,1.64,2.1.15,2.88-.1,5.69-1.65,8.85Z"/>
    <path class="cls-1" d="M211.69,208.24c-.38,4.48-.65,8.93.8,13.41-1.07-.69-2.28-2.77-2.38-4.62-.15-3.01-.66-6.13,1.58-8.79Z"/>
  </g>
  <path class="cls-1" d="M309.87,95.75c6.53-4.63,4.78-4.67,5.24-8.11,1.62.62,2.25,1.92,1.69,3.65-.73,2.28-2.35,3.64-4.63,4.21-.69.17-1.42.16-2.31.25Z"/>
  <path class="cls-1" d="M274.04,230.93c6.1.05,8.04.61,12.43-2.62-.16.59-.15,1-.35,1.27-1.59,2.18-3.98,2.72-6.43,2.74-1.77.01-3.54-.48-5.65-1.39Z"/>
  <path class="cls-1" d="M455.27,220.91c-2.16,1.86-4.54,2.13-6.66.83-1.77-1.08-2.38-2.28-1.92-4.19.95,1.6,2.07,2.83,3.8,3.06,1.55.2,3.12.21,4.77.3Z"/>
  <path class="cls-1" d="M270.78,37.93c-.44-.15-.82-.29-1.2-.42q1.03-.77,2.7-.56c0,.62.24,1.4-.04,1.87-1.08,1.85-2.21,3.7-4.31,4.82.95-1.89,1.89-3.78,2.86-5.71Z"/>
  <path class="cls-1" d="M330.18,85.16c-.17-.49-.34-.99-.52-1.48.08-.03.16-.06.24-.09.23.48.46.96.68,1.44-.14.04-.27.09-.41.13Z"/>
  <path class="cls-1" d="M126.29,121.03c-.6-.1-1.55-.14-2.4-.43-2.92-1-3.39-3.65-2.12-5.92.64-1.15,1.58-2.22,2.62-3.02,3.27-2.55,6.89-4.5,10.9-5.65.64-.18,1.31-.31,1.97-.32,1.79-.04,2.09.39,1.94,2.25-.04.54.08,1.15.32,1.63.57,1.15.6,2.3.04,3.4-.6,1.19-1.13,2.53-2.06,3.41-3.03,2.85-6.66,4.48-11.21,4.66ZM124.56,116.9c.56.13,1.12.41,1.64.35,4.15-.56,7.63-2.47,10.46-5.49,1.26-1.34,1.09-2.13-.16-3.93-6.38,2.49-10.73,5.75-11.94,9.07Z"/>
  <path class="cls-1" d="M248.58,273.14c-.03,2-.74,3.55-1.83,4.97-3.07,3.97-7.25,6.04-12.12,6.5-4.87.46-9.77.27-14.56-.96-2.54-.65-4.89-1.67-6.88-3.52-2.36-2.2-2.06-6.36-.33-8.28,2.26-2.51,4.97-4.28,8.11-5.42,5.44-1.99,11.07-2.89,16.85-2.46,2.51.18,4.98.65,7.18,2.1,1.48.98,2.41,2.19,2.03,3.98-.38,1.76-1.75,2.43-3.84,2.77.54-.62.81-.91,1.06-1.22,1.19-1.45,1-2.34-.72-3.03-.7-.28-1.45-.5-2.19-.55-7.03-.54-13.78.52-20.08,3.76-1.32.68-2.52,1.67-3.63,2.69-.82.75-.7,1.52.24,2.09.85.52,1.79.98,2.76,1.19,4.02.89,8.07,1.64,12.23,1.01,1.08-.16,2.19-.11,3.29-.13,2.83-.06,5.53-.7,7.97-2.1,1.51-.86,2.81-2.09,4.49-3.37Z"/>
  <path class="cls-1" d="M304.98,171.49c.99-1.4,2.15-2.16,3.85-1.66.56.16,1.18.18,1.71.39,4.1,1.65,8.33,2.57,13.33,2.44-1.85,1.14-3.39,1.26-4.89,1.42-2.32.24-4.49-.47-6.62-1.29-.47-.18-.92-.43-1.38-.63-1.91-.87-3.83-1.72-6.01-.66Z"/>
</svg>