<?xml version="1.0" encoding="UTF-8"?>
<svg id="Layer_1" data-name="Layer 1" xmlns="http://www.w3.org/2000/svg" version="1.1" viewBox="0 0 943.73 714.21">
  <defs>
    <style>
      .cls-1 {
        fill: #000;
        stroke-width: 0px;
      }
    </style>
  </defs>
  <path class="cls-1" d="M934.82,333.27c-11.1-12.02-24.48-22.65-32.88-36.33-22.69-36.96-43.55-75.05-64.52-113.04-7.99-14.47-16.19-29.3-20.91-44.98-7.56-25.14-25.67-41.3-44.7-56.03-15.35-11.88-33.72-19.87-53.99-26.43,8.2,12.49,15.95,25.3,24.72,37.36,9.28,12.76,19.69,24.69,29.34,37.2,20.73,26.89,41.5,53.75,61.86,80.93,18.07,24.12,27.28,52.36,27.6,81.67.37,33.59-11.49,64.02-41.74,82.93-22.7,14.19-46.46,26.72-70.01,39.53-77.63,42.21-154.89,85.13-233.28,125.9-36.97,19.23-76.04,34.47-114.46,50.83-9.24,3.94-19.81,4.64-29.48,7.73-8.15,2.6-16.04,6.18-23.75,9.93-15.56,7.56-30.92,15.52-46.37,23.31-2.82,1.42-5.94,2.41-8.43,4.25-24.62,18.28-51.47,32.23-81.2,43.95,3.27.95,6.49,2.26,9.83,2.78,14.72,2.3,29.45,4.5,44.22,6.43,3.54.46,7.89.92,10.76-.64,15.15-8.25,30.14-16.83,44.8-25.91,17.4-10.79,33.9-23.13,51.72-33.14,24.74-13.9,50.34-26.27,75.6-39.24,4.21-2.17,8.35-5.03,12.86-5.99,50.67-10.83,89.36-45.07,133.66-68.28,52.41-27.46,104.18-56.14,156.69-83.41,38.58-20.04,75.97-41.83,112.45-65.51,18.87-12.25,40.39-20.39,62.15-28.63-4.97,15.58-14.21,27.68-26.94,36.22-32.07,21.53-63.68,44.05-97.37,62.76-55.16,30.63-111.97,58.29-167.81,87.72-38.37,20.23-76.8,40.2-117.92,54.41-2.21.76-4.38,1.81-6.34,3.07-47.2,30.49-98.87,52.39-148.81,77.64-13.34,6.74-26.07,14.7-39.09,22.07-4.12,2.33-8.49,4.3-12.39,6.95-38.01,25.88-76.11,18.01-114.12.22-3.1-1.45-5.18-5.14-7.61-7.9-2.36-2.68-4.05-6.29-6.91-8.16-52.81-34.69-86.47-84.34-111.41-141.09-18.69-42.52-37.96-84.79-57.19-127.07-10.22-22.47-6.14-43.21,13.01-59.72,5.93-5.11,12.57-9.82,19.62-13.13,42.05-19.73,84.05-39.64,126.67-58.1,15.35-6.65,29.03-15.14,42.91-24.18,25.09-16.35,51.13-31.31,77.33-45.86,54.48-30.26,108.26-61.72,165-87.92,35-16.16,68.09-36.4,102.3-54.3,18.82-9.85,38.19-18.65,57.3-27.94,5.61-2.72,12.13-4.42,16.63-8.4,17.52-15.55,37.77-15.51,57.91-9.32,20.22,6.22,40.22,13.95,59.11,23.42,15.42,7.73,29.59,18.44,37.66,34.9.69,1.42,1.39,2.93,2.45,4.06,28.24,30.02,46.4,66.87,68.1,101.26,21.89,34.68,42.34,70.3,62.64,105.95,7.59,13.33,13.57,27.71,12.73,45.31ZM188.27,561.62c1.59-1.57,3.18-3.14,4.77-4.72,23.74-13.54,47.54-26.97,71.1-40.82,2.18-1.28,2.78-5.27,6.05-12-11.83,6.56-19.38,10.76-26.94,14.94-6.89,3.81-13.55,8.14-20.77,11.16-3.77,1.58-11.25,2.58-12.35.85-4.37-6.87,2.69-9.03,7.1-11.79,8.68-5.42,17.43-10.73,26.23-15.96,2.7-1.61,6.22-2.23,8.33-4.34,2.94-2.94,4.91-6.84,7.3-10.34-4.17-.22-9.2-2.07-12.37-.4-17.35,9.12-34.25,19.11-52.2,29.31,7.9,10.18,8.54,21.59-.02,33.13-1.19,1.61-.63,4.53-.87,6.84-1.58,1.59-3.16,3.17-4.73,4.76-.94,1-1.87,2.01-2.81,3.01.73-1.22,1.47-2.43,2.2-3.65ZM250.38,471.54c.98.73,1.96,1.45,2.94,2.18-1.09-.62-2.17-1.24-3.26-1.87-1.84-1.34-3.67-2.71-5.58-3.93-.12-.08-.98.98-1.49,1.51,2.46.7,4.93,1.4,7.39,2.1ZM316.5,599.73c5.75-.44,11.49-.87,20.44-1.55-10.95-9.69-16.12-6.8-20.05,1.93-1.28.46-2.56.91-3.85,1.37.69.57,1.38,1.15,2.08,1.72.46-1.16.92-2.31,1.38-3.47ZM140.68,552.08c15.04,3.22,24.48-5.01,34.93-16.41-19.41-6.51-26.84,5.31-34.38,16.92-.66.3-1.4.5-1.94.95-.3.24-.28.89-.4,1.35.6-.94,1.19-1.87,1.79-2.81ZM41.04,366.89c20.99-2.96,39.48-10.46,52.03-28.72,3.42.84,7.77,3.43,10.11,2.2,8.4-4.43,16.12-10.14,24.1-15.37,12.5-4.3,24.71-10.02,37.56-12.52,14.69-2.86,21.17-10.16,20.46-26.34-16.48,9.16-32.22,17.55-47.53,26.64-4.46,2.65-7.72,7.32-11.54,11.07-12.7,1.04-23.11,7.06-32.65,15-15.68,7.07-31.43,13.96-46.94,21.39-2.3,1.1-3.4,4.72-5.05,7.17-.67.22-1.42.32-1.99.7-.35.23-.44.88-.64,1.34.69-.86,1.39-1.72,2.08-2.58ZM226.28,594.91c3.87-.08,8.41,1.14,11.51-.45,19.41-9.96,38.51-20.55,60.43-32.4-6.06-1.52-10.12-4.01-12.51-2.9-17.61,8.18-34.81,17.21-52.31,25.64-4.8,2.31-7.75,4.99-6.59,10.63-.71.21-1.49.3-2.11.66-.4.23-.57.86-.84,1.3.81-.83,1.62-1.66,2.42-2.49ZM103.24,415.02c-18.97.43-36.33,12.92-59.02,4.33,8.11,18.24,14.6,32.84,21.1,47.44,7.56,17.14,15.03,34.32,22.71,51.41,6.37,14.19,12.98,28.28,19.48,42.41,3.82-18,18.25-25.84,28.43-36.82.71-.3,1.46-.54,2.11-.93.39-.24.62-.72.93-1.1-.81.87-1.62,1.74-2.43,2.61-6.99-.55-14.25-.09-20.92-1.85-15.26-4.03-19.74-16.8-12.1-30.73,3.05-5.55,10.14-9.56,8.48-18.93-17.55,6.65-32.86,3.41-47.33-5.51-3.08-20.9,7.21-33.56,25.39-41.49,5.4-2.35,12.42-3.14,12.64-11.36.72-.19,1.51-.25,2.12-.62.37-.22.47-.92.69-1.4-.76.84-1.52,1.69-2.29,2.53ZM178.87,504.81c6.83-2.14,14.9-4.4,14.4-12.94-.55-9.32,4.76-12.27,11.29-15.68,13.65-7.11,27.12-14.58,41.28-22.23-2.84-5.48-4.95-9.57-6.87-13.27-20,8.71-39.31,17.11-58.43,25.44q5,18.42-1.35,39.04c-5.91-.42-10.43,1.22-12.44,11.51,5.54-5.43,8.82-8.65,12.11-11.87ZM174.49,571.76c-18.36,3.07-35.69,13.44-60.05,3.84,23.89,30.78,44.75,55.97,71.78,74.93,2.31-8.09,3.49-15.84,6.76-22.59,2.83-5.85,12.82-4.84,12.27.3-1.07,10,3.56,10.34,10.3,8.84,6.11-1.36,12.3-3.11,17.86-5.88,3.04-1.51,6.78-5.56,6.68-8.33-.11-2.89-3.92-6.78-7.04-8.23-11.67-5.42-23.91-7.63-36.73-3.84-6.76,2-13.58,4.09-20.53,5.04-10.05,1.37-18.79-2.88-21.68-10.32-2.97-7.65,1.36-13.36,6.27-18.72,4.64-5.08,9.08-10.35,13.6-15.54,1.21-.4,2.42-.81,3.62-1.21-.53-.53-1.06-1.06-1.59-1.59-.51,1.1-1.01,2.21-1.52,3.31ZM834.34,292.19c1.4-26.64-9.27-49.37-24.12-70.19-14.65-20.54-30.25-40.44-46.04-60.12-22.7-28.28-47.82-54.6-66.71-85.94-5.61-9.31-14.34-16.73-21.56-25.09-5.1-5.9-11.68-7.27-19.14-7.42-14.27-.28-25.78,6.26-37.02,13.81-49.09,32.99-97.85,66.47-150.94,93.03-21.15,10.58-42.17,21.57-62.44,33.72-52.8,31.67-107.21,60.08-163.99,83.92-6.5,2.73-12.82,6.17-18.69,10.08-16.8,11.19-23.29,26.95-16.61,46.86,7.23,21.55,14.77,43.48,25.91,63.12,22.6,39.85,41.98,80.9,57.32,124.05,3.89,10.95,9.67,21.87,16.96,30.87,30.03,37.05,54.1,40.88,88.55,26.5,26.87-11.22,53.87-22.42,79.78-35.64,91.3-46.58,181.62-94.99,270.02-146.94,17.65-10.37,35.96-19.62,53.78-29.71,25.19-14.25,35.91-36.49,34.95-64.92ZM146.2,455.85c14.34,5.03,24.46-1.19,34.91-6.73,14.49-7.68,29.15-15.06,43.88-22.26,6.72-3.29,3.71-7,1.54-11.33-2.3-4.58-5.1-4.83-9.43-2.86-12.13,5.53-24.02,13.6-36.73,15.34-17.9,2.44-28.6,10.28-34.16,27.84ZM318.65,583.08c-6.03-2.34-10.93-6.16-13.63-4.97-16.34,7.19-32.17,15.52-47.56,23.16,5.07,9.13,9.5,17.11,13.85,24.95,10.33-5.67,20.04-10.95,29.68-16.34,1.99-1.11,7.4-1.86,2.06-5.24-6.39-4.04-4.11-7.67-.1-10.97,4.15-3.42,8.92-6.08,15.7-10.59ZM137.02,407.64c16.87,12.37,16.83,12.27,25.2,8.71,16.32-6.93,32.69-13.74,50.77-21.33-2.1-5.07-4.6-11.12-6.75-16.34-23.51,9.84-45.78,19.15-69.22,28.95ZM200.12,366.17c-3.62-8.74-6.16-14.9-8.82-21.33-16.05,7.58-30.38,16.53-46,21.07-13.79,4.01-19.08,10.69-17.64,24.07.14,1.35,1.09,2.61,1.7,3.99,20.64-12.85,40.7-27.03,70.77-27.79ZM217.93,558.65c15.9,11.72,15.79,11.53,30.95,2.85,10.53-6.02,21.41-11.41,32.39-17.22-1.72-3.69-3.34-7.14-5.21-11.14-19.15,8.4-37.49,16.45-58.13,25.51ZM92.35,359.82c14.76,5.62,25.83,2.2,36.56-3.29,15.4-7.88,30.61-15.86,48.21-18.32,10.33-1.44,10.22-2.46,4.39-18.01-25.08,21.94-57.48,27.23-89.16,39.62ZM122.65,505.22c10.72-3.61,18.93-6.16,26.97-9.18,3.65-1.37,7.13-3.4,10.39-5.58,4.82-3.22,4.44-8.16-.57-11.01-17.98-10.21-33.12-.85-36.79,25.76ZM87.42,454.38c12.4-3.71,20.25-4.89,26.84-8.41,4.96-2.65,8.32-8.31,12.4-12.63-4.44-3.81-8.79-7.73-13.39-11.34-.86-.67-2.7-.1-1.32-.1-7.75,10.27-14.56,19.28-24.53,32.48ZM175.01,596.26c14.28-4.13,25.06-6.83,31.53-17.86-17.17-7.63-24.59,1.9-31.53,17.86ZM33.22,386.47c-1.83,1.24-2.86,1.95-3.9,2.66,1.39,1.68,2.77,3.36,4.16,5.04.77-.83,2.3-1.83,2.15-2.44-.43-1.79-1.52-3.43-2.42-5.25ZM114.41,405.58c.09,1.5.15,2.43.21,3.35.59-.42,1.18-.85,1.76-1.27-.5-.52-.99-1.04-1.97-2.07Z"/>
  <path class="cls-1" d="M614.4,161.05c-20.21,21.66-20.34,37.3-.88,68.22,17.83-9.44,17.68-9.39,12.48-25.16-3.27-9.94-8.35-19.55-4.55-31.76,2.84,5.89,5.68,11.78,8.53,17.67,3.06,6.31,6.13,12.61,10.18,20.95,12.62-8.97,21.94-18.41,25.72-32.66,13.86,9.52,15.3,18.71,4.45,30.06-5.93,6.2-13,11.31-20.02,17.31,13.15,19.13,29.81,31.58,50.37,38.7,14.59,5.05,29.41,5.86,43.34-2.13,10.26-5.89,12.11-13.22,6.76-23.96-5.5-11.05-13.77-19.3-25.74-23.02-8.52-2.65-15.35.41-17.73,7.2-2.73,7.79.24,17.1,7.19,20.58,2.69,1.35,6.21.95,9.24,1.76,1.92.52,3.64,1.79,6.08,3.05-16.65,7.81-23.73,7.72-32.01.08-9.34-8.61-12.43-20.78-8.19-32.26,5.45-14.75,13.11-19.37,28.33-20.32,24.7-1.55,50.03,27.68,53.68,49.2,2.86,16.9-17.19,35.34-38.52,37.44-32.65,3.22-58.06-10.36-79.32-33.75-4.18-4.6-8.1-9.43-12.58-14.68-3.44,1.68-6.3,2.8-8.89,4.38-13.31,8.12-14.78,10.07-10.66,24.64,6.49,22.98,9.89,46.23,8.36,70.01-.7,10.91-1.96,22.04-4.93,32.51-5.9,20.79-29.18,30.77-49.29,22.58-21.04-8.57-40.46-30.12-36.05-55.01,1.88-10.58,11.43-20.59,21.68-22.26,11.26-1.83,17.87,1.55,22.86,12.12.9,1.91,1.57,5.63.64,6.37-1.86,1.47-5.21,2.51-7.38,1.85-6.1-1.83-12.96-5.29-17.26,1.09-4.78,7.11-2.71,15.1,2.38,21.98.47.63,1,1.22,1.54,1.8,7.66,8.18,16,16.81,27.94,15.11,13.61-1.94,15.8-15.05,17.22-25.48,3.96-29.12,1.78-57.95-8.47-86.27q-20.59,15.66-10.97,34.18c-16.18-5.36-21.01-13.09-13.94-26.26,5.11-9.52,13.11-17.49,20.07-26.48-3.19-9.22-5.91-19.1-9.98-28.39-7.23-16.5-1.61-30.85,6.38-44.86,5.07-8.89,12.51-11.02,21.96-6.15Z"/>
  <path class="cls-1" d="M469.9,390.63c-10.55,13.95-20.54,17.62-32.04,15.96-26.58-3.83-36.81-29.37-21.05-51.71,14.64-20.75,39.92-26.74,65.51-15.65,22.73,9.85,32.58,38.41,27.32,59.66-10.44,42.19-35.98,59.45-78.72,67.69-15.14,2.92-30.96,2.46-46.79,1.38-29.93-2.04-51.76-17.45-65.22-41.47-21.96-39.18-25.69-81.18-3.53-122.11,11.94-22.05,29.21-38.58,55.81-43.67,17.35-3.32,31.37,1.79,43.37,12.58,9.84,8.86,13.73,20.11,8.33,34.22-4.38,11.47-10.12,20.38-23.25,24.37,3.22-7.57,6.81-15,9.57-22.73,5.18-14.54-.96-25.26-15.98-27.52-14.6-2.2-27.18.58-39.35,11.03-40,34.37-32.4,101.88-6.84,131.69,19.04,22.21,44.65,25.38,71.33,22.73,12.37-1.23,24.7-5.1,36.5-9.31,19.34-6.9,30.75-22.1,36.09-41.17,3.77-13.47,1.92-27.39-9.6-36.92-11.21-9.27-25.15-8.83-38.41-5.31-8.58,2.28-17.45,17.2-16.17,24.31,1.63,8.97,14.47,17.48,25.89,16.52,4.43-.37,8.73-2.25,17.24-4.58Z"/>
  <path class="cls-1" d="M497.81,259.46c-5.67-9.26-10.48-17.13-15.93-26.04,10.76,4.23,10.83,4.18,20.28,16.46,3.03,3.94,5.41,6.26,11.52,4.68,9.69-2.49,19.92-2.64,34.14,3.15-9.71,3.24-15.7,4.97-21.48,7.23-11.31,4.41-13.19,8.16-8.79,19.58,3.11,8.04,7.82,15.47,10.77,23.56,1.07,2.94-.87,6.99-1.44,10.53-3.39-.92-8.41-.72-9.9-2.92-12.36-18.26-28.38-23.45-48.89-15.54-2.15.83-4.85,1.55-6.93.98-3.44-.93-7.23-2.35-9.54-4.81-.91-.96.95-6.43,2.97-7.92,10.73-7.91,21.89-15.22,32.94-22.69,2.58-1.74,5.32-3.25,10.28-6.26ZM506.29,281.49c-1.64-1.25-3.08-2.91-4.88-3.53-1-.34-2.59,1.06-3.92,1.67,1.92,1.91,3.84,3.82,5.76,5.72.82-1.04,1.64-2.09,3.04-3.87Z"/>
</svg>