<?xml version="1.0" encoding="UTF-8"?>
<svg id="Layer_1" data-name="Layer 1" xmlns="http://www.w3.org/2000/svg" version="1.1" viewBox="0 0 943.73 714.21">
  <defs>
    <style>
      .cls-1 {
        fill: #000;
        stroke-width: 0px;
      }
    </style>
  </defs>
  <path class="cls-1" d="M922.08,287.95c-20.3-35.65-40.75-71.26-62.64-105.94-21.7-34.39-39.86-71.24-68.1-101.26-1.06-1.13-1.76-2.64-2.45-4.06-8.07-16.46-22.24-27.17-37.66-34.9-18.89-9.47-38.89-17.2-59.11-23.42-20.14-6.19-40.39-6.22-57.91,9.32-4.49,3.99-11.02,5.68-16.63,8.4-19.11,9.29-38.48,18.09-57.3,27.94-34.21,17.91-67.31,38.15-102.3,54.3-56.74,26.2-110.53,57.66-165,87.92-26.2,14.55-52.24,29.52-77.33,45.87-13.88,9.04-27.56,17.53-42.91,24.18-42.61,18.46-84.61,38.36-126.66,58.09-7.06,3.32-13.7,8.03-19.63,13.14-19.15,16.5-23.23,37.25-13.01,59.72,19.22,42.28,38.5,84.55,57.18,127.07,24.94,56.75,58.6,106.4,111.41,141.09,2.86,1.87,4.55,5.48,6.91,8.16,2.43,2.76,4.52,6.45,7.61,7.9,38,17.8,76.11,25.67,114.12-.22,3.9-2.65,8.27-4.61,12.39-6.95,13.02-7.37,25.75-15.33,39.09-22.07,49.93-25.25,101.6-47.15,148.8-77.64,1.96-1.26,4.14-2.31,6.34-3.07,41.13-14.2,79.55-34.18,117.92-54.41,55.84-29.43,112.65-57.09,167.82-87.72,33.69-18.71,65.3-41.23,97.37-62.76,12.73-8.54,21.97-20.65,26.94-36.22-21.76,8.23-43.28,16.38-62.15,28.63-36.48,23.67-73.87,45.47-112.45,65.51-52.5,27.27-104.27,55.96-156.68,83.41-44.31,23.21-83,57.44-133.67,68.28-4.5.96-8.64,3.83-12.85,5.99-25.26,12.98-50.86,25.35-75.6,39.25-17.82,10.01-34.31,22.35-51.72,33.13-14.66,9.09-29.65,17.67-44.8,25.92-2.87,1.56-7.21,1.1-10.76.64-14.77-1.93-29.5-4.13-44.22-6.43-3.34-.52-6.55-1.83-9.83-2.77,29.74-11.72,56.59-25.67,81.21-43.95,2.49-1.85,5.62-2.84,8.43-4.26,15.45-7.78,30.81-15.75,46.37-23.31,7.72-3.74,15.61-7.32,23.76-9.93,9.67-3.09,20.24-3.79,29.48-7.72,38.42-16.36,77.49-31.61,114.46-50.83,78.38-40.77,155.65-83.69,233.28-125.9,23.54-12.8,47.3-25.34,70-39.53,30.26-18.91,42.12-49.34,41.75-82.93-.33-29.31-9.53-57.55-27.6-81.67-20.36-27.17-41.13-54.04-61.87-80.92-9.64-12.51-20.05-24.44-29.33-37.2-8.78-12.07-16.52-24.88-24.72-37.37,20.28,6.56,38.64,14.55,53.99,26.43,19.03,14.73,37.14,30.9,44.7,56.04,4.71,15.68,12.92,30.51,20.9,44.98,20.97,37.99,41.83,76.08,64.52,113.04,8.4,13.68,21.77,24.3,32.88,36.32.84-17.6-5.14-31.98-12.74-45.31ZM200.12,366.16c-30.07.77-50.13,14.94-70.77,27.8-.61-1.38-1.55-2.64-1.7-3.99-1.44-13.38,3.86-20.06,17.65-24.07,15.61-4.54,29.94-13.49,45.99-21.07,2.67,6.44,5.21,12.59,8.83,21.33ZM210.13,531.03c1.1,1.73,8.57.73,12.35-.85,7.21-3.02,13.88-7.35,20.77-11.16,7.56-4.18,15.11-8.38,26.94-14.94-3.28,6.72-3.87,10.71-6.05,12-23.35,13.73-46.95,27.04-70.47,40.46-.01.32-.03.64-.06.95-1.57,1.59-3.15,3.17-4.73,4.76-.94,1-1.87,2.01-2.81,3.01.73-1.21,1.47-2.43,2.2-3.64,1.59-1.58,3.18-3.15,4.77-4.72.21-.12.42-.24.63-.36.07-2.11-.22-4.49.82-5.89,8.56-11.54,7.92-22.96.02-33.13,17.95-10.2,34.85-20.19,52.2-29.31,3.18-1.67,8.2.18,12.38.4-2.39,3.5-4.36,7.4-7.3,10.34-2.12,2.11-5.64,2.73-8.34,4.34-8.79,5.23-17.54,10.53-26.22,15.95-4.41,2.76-11.47,4.92-7.1,11.79ZM226.81,595.43c-.46.14-.94.22-1.4.36-.52.53-1.04,1.07-1.56,1.6.28-.45.45-1.07.85-1.3.22-.13.46-.22.71-.3.29-.3.58-.59.87-.89h.43c-.87-5.27,2.04-7.85,6.69-10.1,17.49-8.43,34.7-17.46,52.31-25.64,2.38-1.11,6.44,1.38,12.51,2.9-21.92,11.85-41.02,22.44-60.43,32.4-2.99,1.53-7.31.46-11.08.44.03.17.06.35.1.53ZM248.88,561.5c-15.17,8.67-15.06,8.87-30.95-2.85,20.64-9.06,38.98-17.11,58.13-25.51,1.87,4,3.48,7.45,5.21,11.14-10.98,5.81-21.87,11.2-32.39,17.22ZM206.53,578.4c-6.47,11.03-17.24,13.73-31.53,17.86,6.94-15.96,14.36-25.49,31.53-17.86ZM250.06,471.85c-.3-.22-.61-.44-.91-.66-2.05-.59-4.11-1.18-6.16-1.76.51-.53,1.37-1.59,1.49-1.51,1.6,1.02,3.14,2.15,4.67,3.27.41.12.82.23,1.23.35.98.72,1.96,1.45,2.94,2.18-1.09-.63-2.17-1.25-3.26-1.87ZM204.56,476.19c-6.54,3.4-11.84,6.36-11.29,15.68.49,8.34-7.19,10.69-13.92,12.79-.05.17-.11.34-.16.51-.22-.02-.44-.03-.66-.04-3.17,3.12-6.42,6.3-11.78,11.55,1.93-9.9,6.19-11.79,11.78-11.55.11-.11.22-.21.33-.32.16-.05.32-.1.49-.15,6.19-20.1,6.15-20.25,1.19-38.53,19.12-8.32,38.43-16.73,58.43-25.44,1.91,3.7,4.03,7.79,6.87,13.27-14.16,7.65-27.63,15.12-41.28,22.23ZM113.27,422c4.6,3.61,8.95,7.53,13.39,11.34-4.08,4.32-7.44,9.98-12.4,12.63-6.6,3.52-14.44,4.7-26.84,8.41,9.97-13.2,16.77-22.21,24.53-32.48-1.38,0,.46-.58,1.32.1ZM114.41,405.58c.98,1.03,1.48,1.55,1.97,2.07-.59.42-1.17.85-1.76,1.27-.06-.92-.12-1.84-.21-3.34ZM159.44,479.46c5.01,2.84,5.38,7.78.57,11-3.26,2.18-6.74,4.21-10.39,5.58-8.04,3.02-16.25,5.57-26.97,9.18,3.67-26.62,18.81-35.98,36.79-25.76ZM140.04,553.09c.21-.34.42-.67.64-1.01.26.06.52.11.77.16,7.46-11.5,14.95-23.01,34.15-16.57-10.26,11.19-19.55,19.35-34.15,16.57-.08.12-.15.23-.23.35-.38.18-.79.32-1.18.5-.39.6-.77,1.2-1.15,1.79.12-.46.09-1.1.39-1.35.23-.18.49-.32.76-.44ZM224.98,426.86c-14.73,7.2-29.38,14.58-43.87,22.26-10.46,5.54-20.57,11.76-34.91,6.73,5.56-17.56,16.26-25.4,34.16-27.84,12.71-1.74,24.6-9.81,36.73-15.34,4.33-1.97,7.13-1.72,9.43,2.86,2.18,4.32,5.18,8.04-1.54,11.33ZM162.21,416.35c-8.37,3.55-8.32,3.66-25.19-8.72,23.44-9.8,45.7-19.11,69.21-28.95,2.16,5.21,4.66,11.26,6.76,16.34-18.09,7.59-34.46,14.39-50.78,21.33ZM177.12,338.2c-17.6,2.46-32.81,10.45-48.21,18.33-10.73,5.49-21.8,8.9-36.56,3.29,31.68-12.4,64.08-17.69,89.16-39.63,5.83,15.55,5.94,16.57-4.39,18.01ZM33.48,394.16c-1.39-1.68-2.77-3.36-4.16-5.03,1.04-.71,2.07-1.42,3.9-2.66.89,1.83,1.99,3.46,2.41,5.25.15.61-1.38,1.62-2.15,2.44ZM41.58,367.42c-.41.14-.85.23-1.27.37-.45.56-.9,1.11-1.36,1.68.21-.47.29-1.11.64-1.35.22-.14.47-.25.72-.33.24-.3.48-.61.72-.91.33-.05.66-.09.98-.15,1.43-2.39,2.53-5.48,4.62-6.48,15.03-7.19,30.28-13.89,45.48-20.73.32-.44.64-.89.95-1.35.33.08.67.18,1.01.28,9.39-7.74,19.66-13.57,32.15-14.59,3.81-3.75,7.07-8.42,11.53-11.07,15.32-9.1,31.05-17.48,47.53-26.65.71,16.18-5.77,23.48-20.46,26.34-12.85,2.51-25.06,8.22-37.56,12.52-7.98,5.23-15.7,10.94-24.1,15.37-2.11,1.11-5.86-.9-9.09-1.92-.17.13-.33.27-.5.41-.49.22-.97.44-1.46.66-12.33,17.01-30.04,24.25-50.1,27.21-.13.24-.28.47-.43.69ZM88.03,518.2c-7.49-16.65-14.78-33.4-22.14-50.12-.4-.23-.8-.47-1.2-.72-.14-.92-.25-1.82-.32-2.71-6.18-13.89-12.44-27.95-20.15-45.3,22.47,8.51,39.71-3.66,58.47-4.31.02-.17.03-.35.03-.53.4-.11.83-.17,1.23-.27.52-.58,1.05-1.16,1.58-1.75-.22.48-.32,1.18-.69,1.4-.27.16-.57.27-.89.35-.24.26-.48.52-.71.78-.18,0-.37,0-.55.02-.5,7.73-7.33,8.52-12.61,10.83-17.39,7.58-27.56,19.48-25.71,38.78.32.71.63,1.43.95,2.14.19.43.38.86.57,1.29,14.12,8.37,29.06,11.26,46.13,4.79,1.65,9.37-5.44,13.37-8.49,18.93-7.64,13.92-3.16,26.7,12.1,30.73,6.33,1.67,13.18,1.33,19.83,1.77.16-.17.32-.34.48-.51.63-.27,1.31-.49,1.92-.83.38-.4.75-.8,1.12-1.2-.31.37-.54.86-.93,1.1-.06.04-.12.07-.19.1-.43.47-.87.94-1.31,1.41-.36-.03-.72-.05-1.09-.07-10.15,10.72-24.19,18.59-27.95,36.31-6.5-14.13-13.11-28.21-19.48-42.41ZM233.4,631.19c-5.56,2.76-11.75,4.52-17.86,5.88-6.74,1.5-11.37,1.16-10.3-8.84.55-5.13-9.44-6.15-12.27-.29-3.27,6.75-4.45,14.5-6.76,22.59-27.03-18.97-47.89-44.15-71.78-74.93,23.88,9.41,41-.37,58.94-3.66.2-.23.4-.46.6-.69.29-.1.59-.2.88-.29.38-.84.77-1.67,1.15-2.52l1.59,1.59c-.91.31-1.82.61-2.74.93-.13.26-.25.53-.37.79-.37.06-.74.13-1.11.19-4.32,4.96-8.57,9.99-13,14.85-4.91,5.36-9.24,11.07-6.27,18.72,2.89,7.43,11.63,11.68,21.68,10.32,6.94-.95,13.77-3.05,20.53-5.04,12.82-3.79,25.05-1.58,36.73,3.83,3.12,1.45,6.93,5.34,7.04,8.24.1,2.77-3.65,6.82-6.68,8.33ZM300.98,609.88c-9.64,5.39-19.34,10.67-29.67,16.34-4.35-7.83-8.79-15.82-13.86-24.95,15.38-7.64,31.22-15.97,47.56-23.16,2.7-1.19,7.6,2.63,13.63,4.97-6.78,4.51-11.54,7.18-15.7,10.59-4.01,3.3-6.29,6.93.1,10.97,5.34,3.38-.07,4.13-2.06,5.24ZM317.09,599.69c-.07.14-.14.28-.2.42-.21.08-.42.15-.63.22-.38.96-.76,1.92-1.14,2.87-.69-.57-1.38-1.15-2.07-1.72,1.07-.38,2.14-.76,3.21-1.15l.24-.6c.2-.01.39-.03.59-.04,3.9-8.4,9.08-11.03,19.85-1.51-8.64.66-14.3,1.09-19.85,1.51ZM764.16,161.87c15.8,19.69,31.4,39.58,46.05,60.12,14.85,20.83,25.53,43.56,24.12,70.19.96,28.44-9.76,50.68-34.95,64.93-17.82,10.08-36.13,19.33-53.78,29.7-88.4,51.95-178.72,100.37-270.02,146.94-25.91,13.22-52.9,24.42-79.78,35.64-34.45,14.39-58.52,10.55-88.55-26.49-7.29-9-13.07-19.92-16.96-30.87-15.33-43.15-34.71-84.19-57.32-124.05-11.14-19.64-18.68-41.57-25.91-63.12-6.68-19.91-.19-35.67,16.62-46.86,5.87-3.91,12.18-7.35,18.68-10.08,56.79-23.85,111.19-52.25,164-83.92,20.26-12.16,41.29-23.15,62.44-33.73,53.08-26.55,101.85-60.03,150.94-93.03,11.24-7.55,22.74-14.09,37.01-13.81,7.47.15,14.05,1.52,19.15,7.42,7.22,8.35,15.94,15.78,21.56,25.09,18.89,31.33,44,57.65,66.7,85.93Z"/>
  <path class="cls-1" d="M392.76,341.66c3.8,2.96,8.62,3.53,14.48.4,5.42-2.89,9.4-6.6,9.46-11.66.06-5.06-.74-9.99-1.54-14.87-1.28-7.81-2.87-15.53-4.35-23.37,16.05-3.46,25.65,6.14,39.78,3.28,4.81,5.19,9.53,10.44,14.47,15.54,1.51,1.56,3.48,2.8,5.44,3.96,15.03,8.95,32.5,3.31,40.84-13.7,2.98-6.09,4.57-12.7,5.33-18.93,1.49-12.26,1.94-24.42,2.78-36.06,4.92,4.83,9.17,10.65,15.25,14.57,7.87,5.07,20.62.4,25.12-8.94,2.37-4.91,2.51-10.28,3.49-15.43.57-3.02.8-6.02,1.15-8.76,9.31,4.13,17.57,7.78,24.97,11.06,1.66-22.15,3.26-43.52,4.86-64.97-12.4.79-17.75,8.54-23.43,15.81-7.3-4.85-6.3-15.77-18.22-19.57.33,9.01.58,15.91.83,22.71-21.99,4.97-24.48,7.69-24.64,26.39-2.44-2.7-4.31-5.36-6.83-7.45-6.23-5.16-13.56-9.25-24.09-5.12-9.29,3.65-11.64,11.81-12.72,18.37-2.34,14.33-2.82,28.54-4.17,42.82-.21,2.26-1.05,4.58-2.36,10.1-4.08-6.34-6.51-9.87-8.69-13.54-3.59-6.06-6.41-12.62-10.68-18.23-5.36-7.04-12.47-8.51-19.54-5.44-7.55,3.28-10.72,8.77-9.85,18.37.63,6.95,2,13.73,3.61,24.34-9.48-8.84-15.98-15.43-23.16-21.42-5.79-4.82-15.47-5.52-21.49-1.9-7.56,4.55-9.44,10.85-9.43,17.42,0,2.25.12,4.49.46,6.65.9,5.71,1.95,11.38,3.01,17.43-11.97-5.56-15.14-19.39-32.07-18.6-3.73,7.9.84,12.05,3.98,15.96,9.5,11.83,19.92,23.04,30.03,34.46,2.53,2.86,4.86,5.92,7.92,8.31Z"/>
  <path class="cls-1" d="M681.49,262.18c-10.09.28-13.26,7.4-16.79,14.04-6.78-4.84-7.69-15.11-18.11-19.13,1.7,8.5,3.01,15.03,4.29,21.45-17.32,3.87-18.94,6.35-16.11,23.98-2.43-2.64-4.4-5.22-6.8-7.28-5.95-5.1-12.64-9.23-20.65-5.72-7.08,3.09-7.72,10.7-7.56,16.86.34,13.43,2.2,26.81,3.35,40.23.18,2.12-.14,4.28-.35,9.44-4.37-6.13-6.92-9.54-9.3-13.09-3.91-5.85-7.27-12.14-11.67-17.59-5.53-6.84-11.62-8.49-16.96-5.85-2.44,1.2-4.16,2.82-5.14,4.99-1.32,2.89-1.34,6.77-.06,11.97,1.63,6.59,3.82,13.03,6.83,23.1-9.21-8.69-15.6-15.15-22.47-21.07-2.74-2.35-6.09-3.79-9.32-4.26-3.3-.48-6.46.06-8.68,1.68-3.51,2.56-5.01,5.88-5.35,9.56-2.81,3.28-2.57,8.38-1.05,17.87-2.43-2.64-4.4-5.22-6.8-7.29-5.95-5.09-12.64-9.22-20.65-5.71-7.08,3.09-7.72,10.7-7.56,16.85.34,13.43,2.2,26.82,3.35,40.24.18,2.12-.14,4.28-.35,9.44-4.37-6.13-6.92-9.55-9.3-13.09-3.92-5.85-7.27-12.14-11.68-17.59-5.52-6.84-11.61-8.49-16.95-5.86-5.7,2.82-7.44,7.88-5.2,16.97,1.62,6.58,3.82,13.02,6.83,23.09-9.21-8.68-15.6-15.14-22.47-21.06-5.53-4.76-13.62-5.78-18-2.58-5.5,4.01-6.05,9.89-5,16.08.36,2.12.81,4.23,1.43,6.29,1.65,5.42,3.42,10.8,5.24,16.55-10.74-5.69-15.53-18.85-29.35-18.73-1.81,7.31,2.61,11.4,5.81,15.2,9.7,11.51,20.05,22.47,30.18,33.61,2.54,2.79,4.95,5.77,7.84,8.13,3.6,2.94,7.66,3.65,11.99.92,4-2.53,6.69-5.88,5.94-10.65s-2.2-9.46-3.63-14.09c-2.29-7.42-4.83-14.76-7.28-22.2,12.66-2.67,22.08,6.74,33.27,4.57,4.79,5.07,9.51,10.2,14.38,15.19,1.49,1.52,3.31,2.76,5.11,3.94,13.79,9,27.29,4.32,31.45-11.41,1.49-5.63,1.76-11.81,1.39-17.66-.72-11.51-2.27-22.96-3.42-33.91,4.82,4.74,9.24,10.38,14.87,14.3.88.61,1.79,1.1,2.73,1.45.18.2.36.39.54.59,2.54,2.78,4.95,5.76,7.84,8.13,3.6,2.93,7.66,3.64,11.99.91,4-2.53,6.69-5.87,5.94-10.65-.75-4.77-2.2-9.46-3.63-14.09-1.65-5.35-3.44-10.66-5.22-16.01-.69-2.06-1.38-4.12-2.06-6.19,8.27-1.74,15.15,1.67,22.05,3.64,3.67,1.04,7.34,1.68,11.22.93,4.79,5.07,9.51,10.2,14.38,15.19,1.49,1.52,3.31,2.76,5.11,3.94,13.8,9,27.29,4.33,31.45-11.41,1.49-5.63,1.76-11.81,1.39-17.66-.72-11.51-2.27-22.96-3.42-33.91,4.82,4.74,9.24,10.39,14.87,14.31,7.28,5.07,17.04,1.14,19.27-7.5,1.17-4.55.44-9.61.42-14.43,0-2.83-.29-5.65-.44-8.22,8.32,4.23,15.7,7.99,22.32,11.36-2.15-20.83-4.22-40.93-6.29-61.1Z"/>
</svg>