<?xml version="1.0" encoding="UTF-8"?>
<svg id="Layer_1" data-name="Layer 1" xmlns="http://www.w3.org/2000/svg" version="1.1" viewBox="0 0 428.62 714.21">
  <defs>
    <style>
      .cls-1 {
        fill: #000;
        stroke-width: 0px;
      }
    </style>
  </defs>
  <path class="cls-1" d="M174.29,616.7c-.62,9-4.47,16.66-9.82,23.71-3.95,5.21-8.14,10.27-11.73,15.73-5.25,8-8.01,16.86-7.16,26.57.53,6.1,2.52,7.4,8.65,5.61,3.28-.96,6.58-1.96,9.71-3.31,9.33-4.04,18.64-3.62,28.29-1.01,13.43,3.63,26.93,4.04,40.44-.4,11.98-3.94,24.06-5.93,36.44-.87,7.1,2.91,14.62,3.03,21.94.43,7.31-2.6,14.8-4.91,21.72-8.34,8.73-4.33,11.46-12.04,8.42-21.23-.87-2.63-2.16-5.19-3.67-7.51-5.25-8.1-10.92-15.93-15.94-24.17-2.77-4.55-5.85-6.28-11.34-5.87-12.44.94-28.59-6.98-33.97-24.16-.55-1.77-1.3-3.62-1.26-5.41.24-10.89-.06-21.7-1.08-32.59-.71-7.6.64-15.57,2.16-23.15,3.07-15.36,3.84-30.84,4.16-46.42.16-7.76,1.16-15.5,1.76-23.25.2-2.55.65-4.91,4.15-6.46,2.1,8.52,3.31,16.86,3.25,24.92,9.43-5.5,18.55-11.23,28.08-16.17,3.7-1.92,8.28-2.47,12.54-2.92,6.79-.71,11.76,2.44,15.8,7.98,9.72,13.34,11.84,27.23,3.71,41.95-4.2,7.59-4.35,16.12-6.47,24.19-1.02,3.87-1.86,7.78-3.13,13.15-3.25-5.03-4.08-9.33-4.29-13.71-.38-8.1-.15-16.04,2.53-23.98,3.94-11.66.53-22.7-4.72-33.26-1.25-2.52-3.53-3.53-6.23-3.18-2.45.32-5,.63-7.24,1.57-6.88,2.89-13.65,6.04-20.41,9.19-2.18,1.02-4.36,1.91-4.11,5.33.07.93-3.24,2.1-6.21,3.88-.06,6.96.25,15-.28,22.99-1,14.88-2.51,29.73-3.77,44.59-.13,1.54-.42,3.26.08,4.62,4.64,12.53,8.56,25.43,16.12,36.62,1.57,2.32,4.7,3.77,7.38,5.07.86.42,2.59-.94,4.84-1.86,12.2,10.82,24.75,22.31,34.95,35.83,13.9,18.43,5.35,36.64-10.53,44.84-13.12,6.78-26.87,11.8-42.03,10.37-4.92-.46-9.88-1.36-14.6-2.8-5.02-1.54-9.75-1.57-14.63.15-2.34.83-4.87,1.21-7.12,2.21-10.78,4.81-22.06,6.62-33.73,5.32-6.45-.72-13.01-1.53-19.15-3.46-6.02-1.89-11.51-1.66-17.23.38-3.81,1.35-7.62,2.77-11.54,3.76-15.02,3.78-25.43-4.2-25.51-19.59-.08-15.08,6.11-27.73,15.68-38.97,6.26-7.35,12.45-14.75,18.84-21.99,1.96-2.22,3.59-5.37,7.47-4.7l-.24-.2Z"/>
  <path class="cls-1" d="M93.46,209.25c.74-3.33,1.2-5.93,1.89-8.47,5.48-20.07,11.57-40,16.32-60.24,2.82-12.03,3.81-24.53,5.18-36.86,1.03-9.24,1.35-18.56,2.14-29.98-2.33,3.68-3.58,5.6-4.79,7.56-4.1,6.61-7.99,13.35-12.36,19.78-1.88,2.77-4.58,5.07-7.18,7.26-4.32,3.64-9.37,5.51-14.67,2.65-4.84-2.62-6.6-7.43-6.06-12.76.78-7.71,1.27-15.54,3.12-23.02,2.53-10.24,6.21-20.2,9.39-30.28.9-2.87,1.77-5.75,3.01-9.78-3.09.8-5.13,1.08-6.98,1.83-21.22,8.6-36.48,23.53-46.07,44.19-10.65,22.91-13.33,46.88-10.25,71.95,1.89,15.33,6.68,29.62,11.77,43.95.89,2.51,1.77,5.03,3.01,8.56-1.85-.85-2.92-.98-3.25-1.54-10.81-18.24-20.81-36.88-25.22-57.89-8.04-38.32.35-72.47,27.38-101.1,12.13-12.85,27.17-21.78,44.66-25.89,2.69-.63,5.56-.88,8.31-.71,7.63.46,11.99,4.94,11.81,12.76-.1,4.59-1.02,9.28-2.33,13.7-3.96,13.41-8.3,26.7-12.46,40.05-.16.52.1,1.18.33,3.32,2.65-4.24,4.89-7.36,6.64-10.74,3.16-6.07,5.87-12.38,9.07-18.43,2.02-3.82,4.13-7.77,7.02-10.91,5.02-5.46,11.49-4.83,15.91,1.22,4.2,5.75,5.55,12.62,5.34,19.48-.32,10.87-1.03,21.77-2.35,32.56-1.39,11.39-3.06,22.82-5.7,33.96-5.46,23.04-13.23,45.36-23.26,66.84-1.44,3.09-2.4,7.43-9.35,6.98Z"/>
  <path class="cls-1" d="M343.87,84.95c-.8-4.83-1.5-9.67-2.41-14.47-2.63-13.95-1.6-27.91.03-41.84.5-4.29,1.19-8.68,2.67-12.7,3.26-8.9,10.23-11.34,17.47-5.35,6.64,5.49,12.64,12,17.97,18.81,16.13,20.61,27.78,43.45,32.73,69.42,2.28,12,2.94,24.09,2.69,36.25-.25,12.41-.81,24.81-1.24,37.74-3.86-1.05-2.85-3.57-3-5.38-2.26-26.96-5-53.81-14.44-79.47-8.14-22.12-19.07-42.58-34.64-60.42-1.43-1.63-2.5-3.57-4.68-6.73-1.42,4.45-2.62,6.64-2.75,8.88-.77,13.66-2.29,27.36,1.59,40.86,1.54,5.37,2.77,10.84,3.99,16.29.47,2.11.74,4.3.76,6.46.05,5.92-1.51,11.34-7.16,14.18-5.98,3.01-11.45,1.07-16.42-2.94-3.61-2.92-7.36-5.67-10.19-9.92.4,2.35.5,4.79,1.24,7.03,2.82,8.56,5.6,17.15,8.85,25.56,3.18,8.22,3.67,16.28.52,24.57-2.75,7.23-2.82,14.8-.94,22.08,2.8,10.8,6.45,21.37,9.69,32.05.25.83.1,1.79.15,2.89-4.25,2.14-7.35.75-9.31-3.05-4.42-8.54-8.86-17.1-12.83-25.85-4.95-10.91-4.92-22.39-2.31-33.85.95-4.19.45-7.91-1.07-11.81-2.83-7.24-5.51-14.55-8.04-21.89-3.26-9.47-5.18-19.2-4.9-29.29.25-9.04.21-18.1.78-27.12.36-5.74,3.18-8.82,7.34-9.5,5.66-.93,8.81,1.04,11.43,7.14,3.07,7.15,5.98,14.37,9.27,21.41,1.68,3.6,4.04,6.88,6.09,10.3.36-.11.72-.22,1.08-.32Z"/>
  <path class="cls-1" d="M300.62,39.4c-13.63,1.27-19.49,9.42-24.68,17.96-7.35,12.09-10.98,25.7-14.34,39.27-4.63,18.74-9.39,37.28-18.39,54.66-3.89,7.52-4.71,16.64-6.75,25.09-1.6,6.63-2.78,13.36-4.4,19.98-.64,2.6-1.98,5.03-3.32,8.33,7.17-.43,9.93,4.54,12.58,9.51,5.76,10.8,8.88,22.47,11.75,34.33,3.6,14.89,4.4,30.09,6.33,45.17.26,2.04,0,4.14-.74,6.38-7.57-12.58-15.29-24.89-17.74-39.67-2.13-12.83-4.47-25.64-7.16-38.36-.88-4.18-3.2-8.05-4.77-12.1-1.3-3.34-3.85-4.62-7.16-4.78-11.02,13.44-11.27,13.4-13.95,30.86-1.82,11.83-7,21.79-14.72,30.64-.72.82-1.81,1.32-3.55,2.54,1.82-17.7,6.58-33.72,10.11-49.96,1.85-8.52,6.96-15.2,13.85-20.48,1.29-10.55-1.48-20.59-2.21-30.76-.63-8.83-3.73-16.82-7.27-24.84-4.8-10.87-6.75-22.59-8.51-34.3-2.12-14.13-3.78-28.43-8.98-41.84-2.33-6-5.66-11.78-9.48-16.97-2.26-3.07-6.12-5.31-9.7-6.94-2.62-1.19-6.04-1.37-8.96-.95-3.25.46-3.56,3.89-4.4,6.55-.16.5-.87.82-1.92,1.75-.95-1.41-2.64-2.78-2.57-4.06.15-2.65.54-5.78,2.06-7.77,4.15-5.41,9.94-7.05,16.65-5.43,12.77,3.08,21.06,11.65,27.3,22.52,6.75,11.75,9.92,24.85,13.11,37.83,5.8,23.55,9.6,47.49,12.63,71.55.5,3.95,3.45,8.37-1.56,11.63.43,6.49.52,13.04,1.47,19.46.35,2.35,3.1,3.64,6.29,2.86-.17-1.8-.4-3.55-.5-5.32-.86-15.37.88-30.22,6.48-44.81,8.12-21.18,15.09-42.8,22.96-64.09,3.44-9.31,7.45-18.48,12.01-27.3,4.02-7.77,9.47-14.68,17.37-19.13,5.01-2.82,7.47-2.85,14.77,1.02Z"/>
  <path class="cls-1" d="M174.53,616.9c-2.38-3.18-1.31-6.26-.22-9.66,2.47-7.67,4.79-15.41,6.55-23.26.86-3.83.85-8.04.3-11.95-1.23-8.72-1.27-17.32.25-26.01,1.09-6.27,2.92-12.52-3.18-18.11-2.23-2.04-2.14-6.94-2.52-10.6-.88-8.51-3.53-16.38-7.59-23.84-9.82-18.06-10.66-37.3-8.01-57.17,1.44-10.77,1.93-21.66,3.04-32.48.6-5.86,1.45-11.71,2.48-17.5.23-1.3,1.7-2.38,3.26-4.45,2.5,5.2,3.54,9.78,3.67,14.66.51,19.91.79,39.83,1.76,59.72.37,7.68,1.99,15.37,3.74,22.9,1.4,6.03,3.94,11.79,5.84,17.7.95,2.95,2.46,6.06,2.25,8.99-.84,11.33,3.99,21.22,7.19,31.54,2.75,8.85,5.45,17.71,8.25,26.8,13.47,1.79,26.52-2.41,39.95-1.56-5.92,8.54-23.84,14.76-40,12.2-.79,2.9-1.61,5.87-2.41,8.83-2.97,11.11-8.74,20.61-16.98,28.52-2.12,2.03-5.22,3.05-7.86,4.54l.24.2Z"/>
  <path class="cls-1" d="M267.79,304.71c10.14,9.37,15.53,20.81,18.46,33.39,8.6,36.91,3.78,71.59-18.5,104.31-1-2.23-1.9-3.66-2.31-5.22-2.58-9.84-2.99-19.79.5-29.42,5.58-15.44,7.6-31.36,7.86-47.65.24-14.75-1.62-29.12-6.36-43.16-1.17-3.46-4.19-7.37.36-12.26Z"/>
  <path class="cls-1" d="M40.87,490.81c3.06-8.46,7.78-16.03,13.73-22.77,6.46-7.31,11.74-15.32,15.97-24.08,1.22-2.52,2.58-4.98,3.94-7.43,6.48-11.64,21.83-17.01,33.73-14.08,18.96,4.67,30.97,16.33,38.08,33.86.74,1.82.67,3.97,1.07,6.6-5.17-.84-6.69-4.58-8.86-7.33-5.52-6.98-12.22-12.41-20.29-16.11-2.26-1.03-4.61-2.14-7.02-2.5-10.27-1.53-18.22-1.59-24.67,11.43-3.04,6.13-6.16,12.23-9.64,18.11-3.54,5.99-8.47,10.75-14.55,14.25-6.7,3.87-13.38,7.76-20.06,11.64-.47-.54-.94-1.08-1.42-1.61Z"/>
  <path class="cls-1" d="M83.76,384.89c-14.55,10.41-28.38,20.32-42.24,30.21-.14.1-.54-.18-1.59-.57.43-1.24.7-2.59,1.32-3.76,6.1-11.59,11.9-23.47,21.14-32.9,4.93-5.03,10.74-9.52,16.87-12.95,7.11-3.98,13.88-1.21,16.47,6.51,1.91,5.7,5.31,8.74,10.63,10.69,6.42,2.36,12.79,4.94,18.99,7.82,4.78,2.22,9.38,4.9,13.83,7.73,2.04,1.29,3.77,3.27,5.2,5.26,1.4,1.95,3.11,4.44.8,6.72-2.21,2.18-4.63.92-6.69-.68-9.62-7.48-21.28-10.15-32.58-13.51-7.82-2.32-15.47-4.71-22.15-10.57Z"/>
  <path class="cls-1" d="M271.3,284.7c4.72-11.32,9.66-19.52,14.8-27.56,3.17-4.95,6.75-9.68,10.49-14.22,5.04-6.13,11.5-6.76,18.55-3.88,5.47,2.23,10.9,5.09,16.98,4.2,4.2-.61,8.39-1.95,12.34-3.57,3.29-1.35,5.14-4.19,5.63-7.99.78-6.02,1.93-11.98,3.14-19.28,5.72,5.95,8.46,11.98,10.12,18.52,2.98,11.72-.89,19.88-11.73,25.21-12.02,5.91-24.05,4.88-36.04-.09-1.43-.59-2.75-1.46-4.16-2.11-5.48-2.51-6.53-2.59-10.46,2.03-5.23,6.15-9.93,12.75-14.96,19.08-2.12,2.67-4.27,5.42-6.86,7.58-1.36,1.13-3.71,1.06-7.82,2.09Z"/>
  <path class="cls-1" d="M125.92,490.68c.79,4.19,1.25,8.47,2.43,12.54,3.17,10.9,4.8,21.72,2.23,33.11-1.63,7.23-1.89,14.76-2.83,22.15-.14,1.07-.63,2.09-1.55,4.99-.92-2.84-1.53-3.85-1.53-4.86-.02-17.05-3.76-33.18-10.57-48.84-3.05-7.01-4.94-14.7-2.45-22.67,2.76-8.82,11.33-13.77,20.39-11.64,9.06,2.14,15.3,8.14,20.66,15.16,4.7,6.16,8.98,12.65,13.64,19.26-1.45,2.97-3.52,4.53-6.58,2.58-2.84-1.81-5.43-4.09-7.94-6.36-5.29-4.8-10.38-9.84-15.72-14.58-2.36-2.09-5.17-3.53-10.18-.84Z"/>
  <path class="cls-1" d="M284.11,454.17c-2.78-8.68,1.74-12.5,5.92-15.97,11.31-9.4,24.91-13.65,38.99-16.94,10.93-2.55,20.95.49,30.91,3.95,9.27,3.22,14.28,10.14,16.65,19.71,2.43,9.81.38,19.16-1.29,28.62-.67,3.82-1.89,7.54-2.86,11.31-.64-.04-1.27-.07-1.91-.11-.6-4.42-1.44-8.82-1.76-13.25-.59-8.12-1.96-16-5.32-23.51-2.43-5.43-6.5-8.68-11.74-11.38-11.04-5.71-22.17-5.22-33.54-1.87-12.32,3.62-24.07,8.41-34.05,19.44Z"/>
  <path class="cls-1" d="M57.58,226.52c6.61,1.2,10.05,6.46,13.53,11.56,5.85,8.58,9.82,18.1,12.47,28.05,2.94,11.06,8.96,19.78,18.09,26.41,5.79,4.21,11.73,8.22,17.76,12.07,4.22,2.69,8.8,4.32,13.97,4.8,5.77.54,11.4,2.25,17.45,5.79-1.67.69-2.37,1.27-2.99,1.2-12.3-1.52-24.74-2.43-36.86-4.86-24.22-4.86-36.84-18.23-40.11-43.88-1.64-12.9-5.23-24.94-13.52-35.22-1.56-1.93-2.29-3.71.23-5.94Z"/>
  <path class="cls-1" d="M391.19,234.82c4.98,22.34-4.5,47.76-23.61,58.12-10.53,5.71-21.52,9.69-33.53,10.65-5.57.44-11.12,1.16-16.69,1.65-6.35.56-10.52,4.67-14.5,9.31-2.47-6.14-1.03-11.59,4.95-14.73,5.13-2.7,10.96-4.18,16.59-5.8,7.15-2.06,14.6-3.2,21.59-5.67,20.8-7.35,34.01-22.3,41.31-42.82,1.03-2.89,2.09-5.76,3.89-10.71Z"/>
  <path class="cls-1" d="M351.41,331.82c-9.54,3.38-16.65,9.58-24.15,15.04-9.05,6.58-17.81,13.56-26.67,20.41-2.3,1.78-4.89,2.28-6.46-.2-.88-1.4-.86-4.64.16-5.76,5.05-5.5,10.39-10.77,15.96-15.74,6.74-6.01,13.72-11.75,20.78-17.38,3.88-3.1,8.02-5.89,12.22-8.54,6.15-3.87,12.29-3.39,18.49.33,6.01,3.6,25.94,21.39,30.76,28.24-15.39-2.27-27.92-9.39-41.09-16.4Z"/>
  <path class="cls-1" d="M286.71,407.34c5.32-3.39,10.21-6.07,14.6-9.41,7.91-6.02,15.67-12.27,23.22-18.73,4.73-4.04,8.8-8.84,13.47-12.96,7.9-6.97,18.31-9.81,29.87-1.65,1.78,1.25,3.63,2.47,5.17,3.97,8.76,8.56,17.45,17.21,25.37,27.16-1.64-.42-3.48-.5-4.89-1.31-8.88-5.12-17.68-10.38-26.47-15.66-1.59-.96-2.87-2.47-4.49-3.33-9.35-4.95-11.33-5.17-18.53.66-7.01,5.67-13.75,11.69-20.82,17.29-7.83,6.19-16.19,11.56-25.65,15.02-3.28,1.2-6.42,2.47-10.84-1.03Z"/>
  <path class="cls-1" d="M178.16,283.06c-5.49.24-10.47-2.54-15.47-4.54-5.47-2.19-10.68-5.11-15.84-8-9.79-5.47-19.48-11.11-29.17-16.75-6.35-3.7-11.69-8.24-13.43-15.93-.88-3.91-.42-7.17,2.9-9.87,1.09.65,2.31.93,2.55,1.58,2.72,7.21,8.78,10.03,15.41,12.43,7.31,2.65,14.51,5.62,21.69,8.62,14.11,5.89,24.09,16.29,31.6,29.32.29.5.34,1.17.4,1.76.02.24-.22.51-.63,1.38Z"/>
  <path class="cls-1" d="M151.54,377.58c-5.05,2.68-7.54-.51-10.22-3.71-5.97-7.15-11.98-14.27-18.17-21.22-2.26-2.54-4.88-4.86-7.69-6.75-2.21-1.49-4.92-2.33-7.51-3.15-1.44-.45-3.24.12-4.62-.42-9.22-3.64-16.25,1.25-23.22,5.94-3.48,2.35-6.77,4.93-10.82,6.54,3.9-8.22,8.31-15.98,15.3-21.67,2.49-2.02,6.02-3.44,9.21-3.76,4.59-.46,9.33.11,13.96.64,9.24,1.08,15.69,6.57,21.48,13.49,8.59,10.27,16.8,20.72,22.3,34.07Z"/>
  <path class="cls-1" d="M188.19,274.59c-.03,3.04.52,6.22-.18,9.1-2.8,11.43-6.06,22.75-9.02,34.14-3.27,12.61-6.4,25.26-9.6,37.88-.46,1.79-.64,3.83-1.64,5.26-.92,1.31-2.81,2.72-4.23,2.67-1.45-.05-3.47-1.51-4.11-2.89-1.02-2.16-1.34-4.74-1.53-7.17-1.29-16.53,3.92-31.45,12.32-45.22,5.86-9.61,11.23-19.31,14.36-30.16.39-1.37,1.15-2.63,1.74-3.95.63.11,1.26.23,1.89.34Z"/>
  <path class="cls-1" d="M248.04,300.96c-7.59,9.05-17.19,14.95-29.13,15.93-7.92.65-15.36-2.11-21.59-7.12-2.05-1.65-3.72-4.33-4.46-6.85-.44-1.52.77-4.18,2.09-5.39,1.73-1.59,4.55-1.23,5.57,1.05,2.37,5.29,6.93,5.61,11.63,5.9,8.73.54,17.34.15,25.67-3.04,3.03-1.16,6.3-1.67,9.46-2.48.25.67.51,1.33.76,2Z"/>
  <path class="cls-1" d="M190.17,420.54c-.89-1.13-2.24-2.1-2.44-3.26-.67-4.01,1.42-7.19,3.94-10.04,4.24-4.79,9.7-7.58,15.72-9.51,14.15-4.55,28.06-3.06,41.87,1.46,2.89.95,5.7,2.12,8.51,4.36-1.85.16-3.72.52-5.56.43-12.11-.55-24.28-.79-36.15,1.77-6.56,1.41-12.94,4.15-19,7.12-2.67,1.31-4.32,4.7-6.9,7.67Z"/>
  <path class="cls-1" d="M192.22,501.09c-.28-2.62-1.03-4.42-.53-5.77,3.63-9.79,15.25-15.28,26.29-12.42,9.78,2.54,17.27,8.23,23.06,18.02-2.57-.42-4.23-.49-5.75-.99-1.76-.58-3.33-1.76-5.1-2.3-14.54-4.44-19.37-6.53-37.97,3.45Z"/>
  <path class="cls-1" d="M257.15,449.07c-4.88-.04-8.27-.36-11.6-.05-11.39,1.07-22.89,1.67-34.09,3.79-9.86,1.87-18.42,7.04-25.22,17.18-.29-3.07-1.03-4.84-.49-6.04,3.75-8.28,9.89-14.16,18.51-17.3,12.29-4.48,24.88-4.65,37.59-2.42,3.94.69,7.84,1.61,11.72,2.54.78.19,1.44.9,3.57,2.29Z"/>
  <path class="cls-1" d="M235.95,602.94c-.49,18.44,3.64,36.4,7.35,54.63-5.45-2.72-7.95-7.65-10.46-12.23-6.52-11.9-8.01-24.55-4.17-37.7.92-3.15,2.11-5.89,7.27-4.69Z"/>
  <path class="cls-1" d="M182.1,661.31c3-7.25,6-14.22,8.77-21.28,2.93-7.47,6.34-14.82,6.29-23.12-.02-2.98,1.14-5.43,4.41-6.63,3.66,2.25,4.14,6.24,3.77,9.68-1.77,16.35-9.4,29.89-20.97,41.34-.27.27-1.06.03-2.27.01Z"/>
  <path class="cls-1" d="M256.3,608.68c11.93,13.68,22.67,26,34.94,40.07-3.45-.7-4.79-.67-5.8-1.22-8.79-4.81-17.23-10.12-23.65-18.01-3.74-4.6-7.54-9.27-6.98-15.79.1-1.14.64-2.24,1.48-5.05Z"/>
  <path class="cls-1" d="M200.75,541.06c13.12-7.67,24.39-3.3,37.22.99-6.95,3.39-13.03,1.77-18.76,1.73-5.63-.04-11.68,1.87-18.47-2.72Z"/>
  <path class="cls-1" d="M236.08,242.43c.02,5.36-2.26,7.91-6.98,7.8-4.37-.1-6.73-2.61-6.77-7.15-.03-4.44,3.17-7.96,7.31-8.03,4.04-.08,6.42,2.66,6.44,7.39Z"/>
  <path class="cls-1" d="M213.38,249.89c-1.45-2.39-3.13-4.23-3.73-6.37-.93-3.3.68-6.04,3.63-7.67,2.65-1.46,4.96,0,6.4,1.99,1.95,2.68,2,5.92-.29,8.45-1.32,1.45-3.48,2.14-6.01,3.6Z"/>
</svg>