<?xml version="1.0" encoding="UTF-8"?>
<svg id="Layer_1" data-name="Layer 1" xmlns="http://www.w3.org/2000/svg" version="1.1" viewBox="0 0 677.87 492.17">
  <defs>
    <style>
      .cls-1 {
        fill: #000;
        stroke-width: 0px;
      }
    </style>
  </defs>
  <path class="cls-1" d="M426.57,238.59c2.31-2.17,4.57-4.38,6.93-6.49,18.49-16.54,36.92-33.15,52.89-52.23,10.65-12.73,19.35-26.62,23.37-42.9,4.07-16.46,3.58-33.11.47-49.68-.6-3.18-2.14-6.2-3.43-9.21-2.69-6.32-6.94-10.46-13.86-12.81-9.38-3.18-18.66-6.18-28.56-7.13-7.39-.71-14.54-.21-21.7,2.11-6.94,2.26-14.1,3.9-21.24,5.49-7.05,1.57-13.96,1.47-20.63-2.2-2-1.1-4.93-1.37-7.22-.93-13.13,2.5-25.71.53-37.85-4.48-7.7-3.18-15.11-7.04-22.7-10.49-10.88-4.96-22.1-6.86-33.95-3.99-7.58,1.84-14.26,5.14-19.33,11.14-2.67,3.17-5.96,4.72-9.96,4.49-4.02-.23-8.05-.62-12.02-1.32-9.72-1.72-19.13-1.3-28.14,3.16-3.63,1.8-7.17,3.42-9.1,7.52-1.5,3.18-4.72,4.61-8.26,4.36-3-.22-5.98-.82-8.94-1.41-7.92-1.57-15.76-4.08-23.75-4.68-21.37-1.61-40.96,4.51-59.16,15.52-2.95,1.78-4.78,4.2-6.01,7.47-3.76,10.01-6.48,20.26-6.91,30.94-.5,12.42,3.3,23.63,12.17,32.46,9.86,9.81,19.94,19.44,30.52,28.45,15.22,12.96,30.93,25.33,46.51,37.85,13.26,10.65,27.84,19.26,42.65,27.52,3.09,1.72,6.17,1.88,9.49,1.74,4.25-.18,7.29,1.4,8.19,6.99-7.67-4.36-13.79-.71-19.31,3.05-12.75,8.67-25.34,17.62-37.56,27.03-15.23,11.73-30.13,23.9-44.94,36.16-10.35,8.57-19.48,18.36-27.67,29.09-4.31,5.66-5.64,11.97-5.16,18.47.42,5.69,2.4,11.31,3.98,16.87,1.62,5.69,5.97,8.13,11.55,7.83,5.28-.28,10.53-1.18,15.76-2,3.24-.51,6.39-1.53,9.63-2.08,7.9-1.35,14.47.96,19.47,7.38,2.02,2.6,4.06,5.18,6.13,7.73,8.23,10.14,14.11,12.19,26.58,8.26,7.46-2.35,14.55-5.83,21.97-8.33,5.95-2.01,12.06-3.73,18.24-4.83,10.08-1.78,19,1.39,26.67,7.99,3.45,2.97,6.53,6.35,9.89,9.43,3.73,3.42,7.53,6.76,11.38,10.04,4.04,3.45,8.5,4.24,13.36,1.74,2.25-1.16,4.52-2.26,6.76-3.42,9.21-4.77,18.41-9.55,27.61-14.32,8.9-4.61,17.86-4.78,27.01-.64,5.05,2.29,10.31,4.12,15.32,6.48,3.92,1.85,7.43,1.31,10.71-1.04,4.52-3.24,8.94-6.63,13.28-10.11,8.83-7.07,18.38-12.65,29.86-13.85,4.45-.47,9.16-.96,13.43,0,10.39,2.34,19.65.66,27.72-6.14,3.21-2.71,5.8-6.21,8.43-9.53,1.35-1.7,2.17-3.82,3.57-6.37,1.67,5.42.74,9.53-1.76,13.56-7.4,11.97-19.02,19.56-36.95,16.18-10.44-1.97-19.57.92-28.11,6.12-5.58,3.4-10.49,7.89-15.68,11.93-1.4,1.09-2.73,2.26-4.05,3.44-8.44,7.45-17.53,9.33-27.89,3.88-4.21-2.22-8.92-3.48-13.31-5.38-5.31-2.29-10.44-1.69-15.35.88-8.06,4.22-16.02,8.64-24.02,12.99-4,2.17-7.94,4.45-11.97,6.55-7.85,4.08-15.68,3.8-23.04-.99-4.64-3.02-8.96-6.57-13.24-10.11-3.9-3.22-7.49-6.8-11.33-10.1-5.59-4.81-12.02-6.5-19.09-4.13-7.17,2.41-14.17,5.34-21.33,7.79-7.39,2.52-14.78,5.26-22.37,6.94-9.44,2.09-18.28-.46-25.29-7.09-4.74-4.48-9.05-9.61-12.6-15.07-3.33-5.11-7.31-6.09-12.86-5.43-6.76.8-13.61,1.33-20.4,1.2-11.95-.24-18.21-5.55-20.75-17.13-1.08-4.91-1.58-9.95-2.33-14.84-7.24,14.57-2.84,26.9,3.51,35.7,4.96,6.87,11.37,12.2,18.25,16.99,18.05,12.59,38.25,20.35,59.27,26.2,21.99,6.11,44.42,9.77,67.2,10.86,16.41.79,32.87,1.5,49.29,1.18,43.92-.87,86.32-9.7,126.85-26.73,15.83-6.65,31.4-14.02,46.65-21.92,7.31-3.79,13.89-9.2,20.26-14.52,10.36-8.67,12.75-25.68,7.57-37.63-5.95-13.71-14.77-25.32-24.75-36.12-18.02-19.49-40.13-33.08-64.56-42.9-13.1-5.27-26.56-9.63-39.88-14.35-.66-.23-1.47-.03-2.54-.03-.68,5.77-1.24,11.48-2.06,17.15-1.35,9.4-4.49,18.21-10.2,25.82-2.56,3.42-2.32,5.95-.39,9.53,7.55,14.02,14.73,28.24,22.03,42.4.65,1.27,1.11,2.64,1.16,4.22-6.88-6.36-11.13-14.58-16.27-22.11-5.26-7.71-10.22-15.62-15.57-23.85-18.32,12.56-37.39,14.71-57.23,3.75-4.9,12.26-7,24.67-12.5,35.77-.52-.14-1.05-.27-1.57-.41.83-7.12,1.54-14.27,2.53-21.37.73-5.25,1.37-10.59,2.95-15.61,1.1-3.51.14-5.66-1.86-8.2-6.84-8.7-10.03-18.6-9.27-29.71,1.02-14.99,8.37-26.25,20.63-34.44,2.2-1.47,5.11-2.45,7.75-2.58,3.48-.17,6.24-1.3,9.08-3.16,7.02-4.59,14.53-7.91,22.9-9.61,13.25-2.68,31.37,5.13,35.51,22.51,1.43,6,4.51,8.04,9.83,9.55,15.75,4.46,31.63,8.71,46.97,14.37,23.27,8.58,44.08,21.49,61.22,39.69,10.82,11.49,20.09,24.06,25.27,39.26,2.69,7.88,3.28,15.73,1.39,23.88-1.82,7.87-3.35,15.66-7.74,22.8-3.27,5.32-7.11,9.79-11.91,13.56-19.52,15.33-41.63,25.7-64.93,33.76-29.03,10.05-58.9,16.25-89.37,19.94-20.88,2.53-41.83,4.07-62.82,3.72-38.82-.65-77.21-4.78-114.14-17.77-17.52-6.16-34.36-13.72-48.05-26.71-4.17-3.96-7.6-8.73-11.13-13.32-1.83-2.39-2.94-5.32-4.7-7.78-11.32-15.9-10.86-32.52-3.14-49.57,5.6-12.36,13.34-23.36,23.14-32.63,9.91-9.37,20.16-18.49,31.02-26.72,20.35-15.43,41.22-30.18,61.95-45.11,3.61-2.6,7.56-4.74,12.14-7.58-2.12-1.08-3.39-1.76-4.68-2.37-16.24-7.77-31.73-16.75-45.96-27.87-17.74-13.86-35.84-27.29-53.35-41.44-8.23-6.65-15.95-14.09-23.03-21.96-11.12-12.35-14.9-27.23-12.7-43.71,1.38-10.32,4.09-20.23,7.95-29.9,3.71-9.29,9.67-16.64,18.18-21.7,6.94-4.12,14.08-8.01,21.45-11.3,9.92-4.42,20.13-8.21,30.24-12.19,9.07-3.57,18.53-4.58,28.24-4.69,10.34-.12,20.69-.81,30.99-1.7,8.93-.77,16.93-4.41,24.92-8.5,17.95-9.2,37.2-14.41,57.32-15.75,12.96-.86,24.98,2.57,35.9,9.86,7.77,5.19,15.67,10.23,24.93,12.53,10.48,2.61,21.11,2.37,31.69,1.28,8.03-.83,15.98-2.43,23.98-3.63,41.26-6.17,70.6,14.94,85.88,43.57,4.39,8.23,5.78,17.17,6.63,26.28,3.12,33.24-5.02,62.75-29.12,86.76-7.16,7.13-14.69,13.97-22.65,20.18-14.16,11.04-28.76,21.51-43.2,32.18-.91.67-2.06,1-3.1,1.49-.23-.31-.45-.63-.68-.94ZM366.91,272.98c0-1.15.02-2.92,0-4.68-.09-8.46-4.74-13.5-12.26-16.4-4.9-1.89-9.93-1.64-14.96-.88-10.57,1.58-20.38,5.52-30.28,9.38-5.29,2.06-8.32,5.26-9.94,10.32-.76,2.4-1.62,4.79-2.1,7.24-3.46,17.54,9.69,35.01,25.53,38.08,13.31,2.58,32.25-4.23,39.33-20.36,3.11-7.08,4.42-14.44,4.68-22.69ZM481.81,50.36c-10.34-6.76-21.07-10.42-32.7-9.72-12.58.75-25.11,2.46-37.63,4.02-22.08,2.75-42.83-.23-61.3-13.62-2.05-1.48-4.2-2.82-6.3-4.22-7.36-4.9-15.48-7.5-24.3-7.28-6.28.16-12.7.29-18.8,1.63-14.53,3.17-29.09,6.34-42.2,14.1-4.47,2.65-9.78,4.06-14.86,5.45-12.56,3.42-25.49,4.19-38.37,3.41-18.24-1.11-33.45,7.21-49.19,14.29,1.06.44,2.08.62,3.01.41,10.21-2.3,20.5-2.91,30.85-1.38,6.24.92,12.55,1.77,18.6,3.46,5.76,1.61,10,.15,14.6-3.36,10.64-8.13,22.56-11.62,36.26-9.81,7.13.94,14.58-.36,21.87-.84,1.1-.07,2.22-1.06,3.18-1.82,15.65-12.39,32.97-14.22,51.45-7.97,6.2,2.1,12.25,4.66,18.31,7.12,12.43,5.06,25.13,7.39,38.5,4.37,4.97-1.12,9.63-.1,13.36,3.52,2.83,2.75,6.2,3.45,9.78,2.87,6.96-1.12,14.06-1.96,20.75-4.03,6.9-2.14,13.77-3.33,20.87-2.87,7.77.5,15.51,1.44,24.23,2.28Z"/>
  <path class="cls-1" d="M453.64,259.07c3.06,2.72,6.36,2.79,9.63.91,3.7-2.11,7.56-4.13,10.75-6.89,4.76-4.13,9.16-8.71,13.41-13.37,12.45-13.64,27.68-18.06,45.86-15.89,41.29,4.93,82.14,2.31,122.34-8.85,3.64-1.01,7.31-3.07,12.44-1.37-1.81,1.41-2.8,2.47-4.01,3.09-9.67,4.92-19.23,10.11-29.13,14.54-24.09,10.79-49.33,14.24-75.47,10.46-10.73-1.55-21.48-3.2-32.07-5.5-13.42-2.91-24.89.11-35.1,9.18-5.47,4.85-11.21,9.44-17.11,13.76-4.97,3.64-10.62,5.87-17.02,5.07-3.06-.38-3.05-.43-4.53-5.13Z"/>
  <path class="cls-1" d="M15.28,270.13h10.36c-2.69,2.42-5.97,2.91-9.27,3.09-4.43.23-6.05-1.6-5.24-6,.31-1.69.89-3.54,1.92-4.87,12.41-16.06,27.93-27.13,48.78-28.5,5.41-.36,11.06.93,16.4,2.24,5.37,1.32,10.51,3.57,15.72,5.53,3.31,1.25,6.59,2.59,9.8,4.07,17.49,8.09,35.47,9.23,53.96,4.06,9.23-2.58,18.52-4.99,27.8-7.4,1.75-.45,3.6-.5,6.72-.91-1.46,1.75-1.8,2.48-2.36,2.77-13.45,6.97-26.71,14.35-40.45,20.71-15.87,7.35-31.89,6.5-47.49-1.54-6.29-3.24-12.78-6.12-18.92-9.62-18.91-10.78-36.8-8.31-54.13,3.64-4.78,3.3-9.3,6.88-13.61,12.72Z"/>
  <path class="cls-1" d="M406.88,81.46c.46,2.05.81,2.65.64,2.97-25.09,46.46-49.57,93.21-70.69,141.65-.27.61-1.1.97-2.48,2.13-.33-2.09-.91-3.62-.75-5.06,1.37-12.41,5.61-24,10.3-35.47,12.98-31.77,29.91-61.28,50.39-88.79,4.05-5.44,7.94-10.99,12.58-17.43Z"/>
  <path class="cls-1" d="M271.6,92.97c-1.55,3.05-2.33,4.58-3.48,6.86-2.44-5.26-2.48-10.09-.74-14.73,1.21-3.23,4.9-4.03,7.52-1.51,2.65,2.55,5.18,5.69,6.52,9.07,3.34,8.44,6.32,17.06,8.82,25.79,8.07,28.23,13.06,57.09,17.06,86.13.47,3.42.96,6.85,1.58,11.3-3.64-1.7-3.86-4.2-4.47-6.39-3.6-12.88-7.14-25.78-10.75-38.65-6.48-23.1-12.99-46.19-19.5-69.28-.68-2.41-1.42-4.81-2.55-8.58Z"/>
  <path class="cls-1" d="M243.74,197.2c-1.41-1.22-2.98-2.31-4.22-3.69-20.8-23.15-41.58-46.3-62.29-69.53-2.34-2.62-4.45-5.55-6.12-8.63-.66-1.21-.31-3.54.47-4.83,1.1-1.82,3.02-1.09,4.72-.24,7.39,3.72,12.97,9.6,18.51,15.5,13.91,14.82,25.32,31.54,36.39,48.5,4.68,7.17,9.25,14.4,13.88,21.6l-1.34,1.32Z"/>
  <path class="cls-1" d="M458.81,153.49c-.36,1.1-.36,1.74-.68,1.99-23.82,18.74-47.2,37.99-68.62,59.5-.07.07-.42-.16-.98-.38.32-5.68,3.27-10.34,6.5-14.73,10.94-14.85,24.24-27.16,40.42-36.13,6.18-3.42,12.64-6.33,19.03-9.35,1.2-.57,2.66-.57,4.32-.9Z"/>
  <path class="cls-1" d="M204.09,352.4c.59-1.25.95-2.67,1.79-3.72,13.44-16.73,26.84-33.51,40.51-50.05,3.68-4.46,8.13-8.3,12.41-12.22,1.64-1.51,3.69-2.71,5.75-3.59,2.01-.86,4.38-.5,4.98,1.87.34,1.34-.34,3.51-1.35,4.54-7.4,7.57-15.09,14.87-22.52,22.41-12.78,12.96-25.43,26.03-38.15,39.04-.81.83-1.75,1.53-2.64,2.29l-.79-.57Z"/>
  <path class="cls-1" d="M465.41,349.3c-24.17-12.42-54.27-37.25-58.68-47.9,5.06,1.3,47.1,35.29,58.68,47.9Z"/>
</svg>