<?xml version="1.0" encoding="UTF-8"?>
<svg id="Layer_1" data-name="Layer 1" xmlns="http://www.w3.org/2000/svg" version="1.1" viewBox="0 0 467.67 492.17">
  <defs>
    <style>
      .cls-1 {
        fill: #000;
        stroke-width: 0px;
      }
    </style>
  </defs>
  <path class="cls-1" d="M206.43,239.98c.94-1.28,1.76-2.62,2.79-3.76,7.98-8.88,15.98-17.75,24.03-26.57,1.82-2,3.76-3.92,5.81-5.69,2.99-2.57,6.49-4.03,10.49-3.56,6.6.77,12.92-.36,19.27-2.03,9-2.38,17.91-1.63,26.65,1.49,4.59,1.64,9.15,3.34,13.78,4.86,9.01,2.97,18.1,3.14,27.21.49,7.28-2.12,14.52-4.41,21.85-6.37,14.02-3.75,28.2-4.82,42.26-.52,21.44,6.56,37.54,19.82,47.73,39.85,2.18,4.28,3.26,9.15,4.62,13.82.94,3.24.52,6.64-1.09,9.49-1.45,2.57-1.03,4.57-.03,7.07,9.55,23.79,9.77,47.86,1.91,72.13-1.46,4.51-3.79,8.52-6.72,12.28-2.09,2.68-3.71,5.75-5.41,8.72-6.37,11.12-12.49,22.4-19.11,33.38-3.92,6.51-8.92,12.29-14.83,17.19-5.43,4.5-11.53,7.56-18.67,7.82-8.23.3-14.97,3.54-20.66,9.39-6.18,6.35-12.48,12.59-18.73,18.88-6.64,6.69-13.61,12.98-21.44,18.27-12.79,8.64-26.66,11.65-41.82,8.21-3.35-.76-6.76-1.23-10.09-2.05-13.21-3.24-26.17-2.43-38.95,2.08-7.15,2.52-14.25,5.23-21.47,7.54-3.93,1.25-8.04,2.14-12.13,2.66-8.84,1.13-16.74-1.78-24.16-6.35-2.61-1.61-5.26-3.17-7.96-4.62-4.17-2.24-8.61-2.58-13.16-1.44-5.43,1.36-10.8,2.95-16.26,4.15-8.81,1.94-16.01-.88-21.59-7.91-.67-.85-1.4-1.68-1.93-2.62-9.27-16.66-17.6-33.74-18.81-53.16-.46-7.35.21-14.82.93-22.18,1.15-11.71,3.31-23.27,6.41-34.64,2.64-9.69,6.72-18.7,12.25-27.07.48-.73.91-1.49,1.66-2.71-2.06,0-3.64,0-5.23,0-12.89-.06-25.49-2.23-37.88-5.57-6.83-1.84-12.31-5.93-16.69-11.52-1.2-1.53-2.57-3.14-4.23-4.08-16.3-9.36-27.45-23.33-35.63-39.86-7.85-15.87-12.25-32.75-14.39-50.32-1.32-10.84-1.43-21.69-.7-32.51.95-13.97,5.1-27.22,9.93-40.32,7.67-20.79,19.39-39.12,33.14-56.29.38-.48.85-.89,2-.85-.33.73-.59,1.49-.99,2.17-2.78,4.86-5.54,9.74-8.41,14.55-8.9,14.96-13.86,31.29-17.14,48.26-3.96,20.5-5.8,41.15-4.39,61.99.42,6.27,1.68,12.53,3.07,18.67,4.39,19.41,11.52,37.72,23.52,53.76,4.42,5.91,9.48,11.41,14.77,16.56,6.3,6.14,13.95,10.23,22.61,12.26,7.47,1.75,14.93,3.57,23.31,5.58-1.11-2.34-1.73-3.78-2.45-5.16-4.92-9.46-9.96-18.86-14.76-28.38-5.12-10.14-12.57-17.54-23.45-21.32-2.71-.94-5.4-2.15-7.85-3.65-5.4-3.32-7.58-8.28-5.97-14.4,1.46-5.58,3.67-10.95,5.31-16.49.96-3.26,1.64-6.64,2.09-10.02.49-3.62-1.25-6.29-4.44-7.98-1.76-.93-3.58-1.74-5.35-2.65-7.31-3.76-9.51-7.84-7.31-17.02.8-3.32,2.26-6.48,3.35-9.73,1.04-3.08,2.11-6.15,2.97-9.28,1.69-6.17,1.36-12.17-2.08-17.76-.28-.46-.55-.94-.82-1.41-5.26-8.94-5.99-15.65,2.28-25.82,3.64-4.48,7.98-8.38,11.95-12.59,4.21-4.48,8.51-8.89,12.48-13.58,3.15-3.72,2.93-4.22-.48-7.59-6.22-6.14-7.39-11.42-3-18.95,3.62-6.21,7.79-12.21,12.43-17.69,9.49-11.2,19.85-21.55,33.79-29.43-5.31.34-8.85,2.26-12.28,4.36-9.77,5.99-18.25,13.61-26.63,21.35-7.49,6.92-14.17,14.46-18.97,23.54-.41.77-1.01,1.45-1.66,2.35-2.47-1.16-3.38-2.85-2.35-5.22,1.43-3.3,2.86-6.64,4.65-9.76,6.72-11.78,15.91-21.48,26.14-30.22,3.71-3.17,7.63-6.1,11.61-8.92,4.76-3.37,10.05-5.66,15.73-7.09,5.78-1.45,11.46-3.3,17.26-4.66,9.45-2.22,19.04-1.02,28.78-.55-.82.46-1.58,1.07-2.46,1.36-9.41,3.17-19.09,5.7-28.17,9.63-6.53,2.83-12.72,6.93-18.24,11.47-12.08,9.92-22.21,21.75-30.8,34.83-1.58,2.4-2.95,5.01-3.97,7.69-1.67,4.38-.76,6.97,2.94,9.96.56.45,1.12.93,1.74,1.3,5.29,3.13,6.34,8.84,3.25,14.17-2.43,4.19-5.53,8.04-8.68,11.74-3.98,4.68-8.33,9.05-12.49,13.58-1.59,1.73-3.07,3.56-4.63,5.32-3.96,4.48-4.56,9.19-1.33,14.39,5.89,9.46,5.91,19.48,2.45,29.73-1.33,3.94-2.79,7.83-4.16,11.75-.53,1.53-.88,3.13-1.46,4.64-.97,2.52-.02,4.2,2.16,5.39,2.07,1.12,4.22,2.09,6.24,3.29,7.06,4.17,10.41,10.84,8.71,18.81-1.35,6.33-3.54,12.47-5.35,18.7-.65,2.25-1.35,4.49-1.89,6.77-.57,2.46.49,4.26,2.69,5.32,2.6,1.26,5.22,2.51,7.9,3.58,12.59,5.02,20.68,14.17,25.04,26.87,3.63,10.59,7.44,21.12,10.96,31.75,1.07,3.22,2.74,4.87,6.21,4.61,3.19-.23,6.4-.39,9.59-.39,3.21,0,6.33.02,9.38-1.38,1.24-.57,2.84-.46,4.28-.43,6.22.13,7.18,1.47,5.62,7.5-1.33,5.11-3.93,9.64-6.1,14.4-3.61,7.91-9.37,14.7-11.77,23.2-2.41,8.52-5.07,16.97-7.24,25.54-1.9,7.52-3.42,15.15-4.86,22.78-2.83,14.95-1.48,29.52,4.66,43.52,1.16,2.64,2.57,5.18,4.07,7.64,4.81,7.84,10.46,10.19,19.27,7.97,4.73-1.19,9.38-2.65,14.08-3.94,6.74-1.85,13.24-1.27,19.42,2.11,3.49,1.91,6.96,3.83,10.42,5.78,6.83,3.85,14.16,4.57,21.51,2.43,8.31-2.42,16.48-5.38,24.61-8.37,8.55-3.13,17.3-5.52,26.4-5.47,6.27.03,12.56,1.18,18.81,2.04,6.25.85,12.45,2.23,18.72,2.89,8.57.89,16.63-1.29,23.75-5.99,5.86-3.87,11.59-8.08,16.76-12.82,7.6-6.96,14.59-14.58,21.96-21.79,3.22-3.16,6.63-6.15,10.16-8.96,4.65-3.7,10.06-5.75,16.02-5.88,8.47-.18,15.34-3.63,21.09-9.65,8.32-8.72,14.48-18.93,20.25-29.4,2.79-5.06,5.27-10.3,8.16-15.31,2.42-4.2,5.12-8.27,7.91-12.24,3.3-4.71,4.8-10.07,6.01-15.54,3.91-17.66,3.54-35.17-2.34-52.39-1.16-3.4-2.81-6.65-4.37-9.9-2.09-4.36-2.08-5.57,1.41-8.98,1.52-1.49,1.87-3.12,1.54-4.9-.49-2.65-1.06-5.34-2.03-7.84-8.24-21.16-32.78-42.08-62.28-41-8.52.31-16.8,2.26-24.96,4.76-7.07,2.17-14.19,4.22-21.38,5.98-9.02,2.2-17.97,1.26-26.74-1.54-4.98-1.59-9.92-3.34-14.82-5.16-7.18-2.66-14.44-3.06-21.83-1.16-6.68,1.71-13.38,3.12-20.35,2.08-2.75-.41-4.92.87-6.79,2.72-10.09,9.99-22.11,17.48-33.43,25.88-.85.63-1.82,1.11-2.76,1.62-.08.05-.29-.14-.75-.38Z"/>
  <path class="cls-1" d="M296.14,278.8c0,2.27-.05,4.04,0,5.81,1.03,33.47-22.15,70.08-64.16,77.4-10.05,1.75-20.17,1.07-29.9-2.78-16.65-6.58-24.36-22.63-23.44-34.54.4-5.22.54-10.46,1.16-15.65.36-3.01,1.03-6.09,2.21-8.87,8.12-19.08,19.27-36.03,35.73-49.02,9.89-7.81,20.94-12.47,33.82-12.94,18.16-.66,36.25,10.71,42.32,31.56.55,1.88,1.07,3.78,1.61,5.68,3.11,0,5.99.21,8.83-.04,14.4-1.26,28.79-2.61,43.18-3.98,7.74-.74,15.48-1.44,23.19-2.39,5.37-.66,10.7-1.69,16.04-2.58,1.25-.21,2.47-.62,3.72-.74,3.77-.36,4.99,1.34,3.56,4.85-.07.17-.17.32-.24.49-.78,1.77-.92,1.52-3.91,2.68-14.65,5.68-30.02,6.16-45.39,6.12-13.56-.03-27.12-.7-40.67-1.06-2.34-.06-4.67,0-7.65,0ZM204.31,283.68c1.57.53,2.4.86,3.25,1.09,1.04.29,2.13.42,3.16.75,8.57,2.78,12.76,10.64,9.85,18.78-1.77,4.96-5.16,8.66-9.78,11.17-8.19,4.45-15.01,3.13-21.18-4.01-.15-.17-.51-.17-.8-.26-1.92,5.01-1.11,10.05-.18,15.01,1.87,10.02,7.55,17.08,17.15,20.64,5.47,2.03,11.25,2.75,17.07,2.11,16.9-1.88,31.18-9.06,42-22.23,11.54-14.05,16.82-30.22,13.68-48.44-2.23-12.94-11.75-23.96-28.36-22.33-4.78.47-9.65,1.64-14.1,3.42-12.53,5.01-22.14,14.01-31.75,24.31ZM201.35,310.07c1.33-.69,3.93-1.59,5.98-3.21,5.71-4.5,5.41-11.1-.51-15.37-1.3-.94-2.81-1.6-4.21-2.4-1.54-.88-2.72-.43-3.72.92-2.24,3.01-4.84,5.72-6.14,9.42-1.69,4.82,2.16,10.63,8.61,10.63Z"/>
  <path class="cls-1" d="M211.18,103.38c3.23.94,5.83,1.65,8.4,2.44,12.72,3.86,19.37,12.39,20.25,25.72,1.07,16.31-3.31,30.77-14.6,42.8-2.33,2.48-5.02,4.73-7.86,6.61-6.87,4.54-13.92,8.8-21.75,13.71.85-2.27,1.18-4.04,2.09-5.43,3.46-5.27,6.99-10.52,10.74-15.58,3.01-4.06,6.53-7.74,9.57-11.78,6.34-8.42,9.03-18.02,8.33-28.49-.16-2.47-.96-4.94-1.72-7.33-1.15-3.61-4.04-5.45-7.44-6.52-2.75-.86-5.6-1.41-8.35-2.28-2.05-.65-4.13-1.39-5.99-2.45-3.71-2.12-5.68-5.38-5.86-9.75-.15-3.71.7-7.18,2.18-10.52,3.07-6.93,6.29-13.81,9.28-20.78,1.28-2.97,2.1-6.14,3.22-9.18.95-2.59.59-4.94-.86-7.23-2.76-4.36-2.51-8.9-.69-13.5,1-2.52,2.14-4.98,3.07-7.52,4.58-12.45-2.32-24.49-15.5-26.83-10.92-1.94-21.07.83-30.79,5.65-.79.39-1.56.85-2.37,1.19-.22.09-.58-.14-1.07-.27.36-2.58,2.7-3.25,4.41-4.22,6.32-3.6,13.14-5.85,20.31-7.18,6.19-1.14,12.17-.83,18.1,1.35,13.55,4.98,20.56,18.33,17.42,30.47-.72,2.79-1.17,5.65-1.97,8.41-.75,2.57-.83,4.76.89,7.13,3.16,4.36,3.82,9.46,2.38,14.51-1.78,6.23-4.01,12.34-6.33,18.4-1.87,4.88-4.19,9.6-6.25,14.41-.48,1.13-.71,2.36-1.21,4.06Z"/>
  <path class="cls-1" d="M163.84,285.44c.57-1.86,2.21-2.66,3.49-3.77,6.82-5.93,13.64-11.86,20.38-17.87,1.61-1.44,3.01-3.12,4.42-4.77,1.89-2.21,2.69-4.64,1.42-7.51-2.61-5.87-1-11.34,1.86-16.56,2.69-4.92,5.66-9.67,8.43-14.55,3.31-5.82,6.22-11.83,7.85-18.38.22-.87.56-1.73.67-2.61.57-4.46-1.01-6.36-5.49-6.65-.71-.05-1.43,0-3.35,0,2.02-.56,2.89-.87,3.78-1.05,4.49-.91,7.96,1.44,8.26,6.04.2,3.02.21,6.26-.65,9.1-2.09,6.89-4.63,13.65-7.22,20.37-1.36,3.54-3.2,6.88-4.8,10.33-1.82,3.92-2.32,7.68-.1,11.84,2.52,4.73,1.68,9.58-1.71,13.69-1.93,2.34-4.25,4.45-6.67,6.3-8.97,6.85-19.31,11.29-29.27,16.41-.22.11-.64-.16-1.3-.35Z"/>
  <path class="cls-1" d="M293.43,318.94c1.36.3,2.73.54,4.08.9,14.28,3.81,28.49,7.89,42.84,11.39,12.67,3.09,25.58,4.88,38.68,4.05,4.28-.27,8.52-1.32,12.77-2.04.89-.15,1.76-.52,2.64-.51.79.01,2.16.28,2.25.67.2.9.11,2.25-.46,2.85-.96,1.01-2.32,1.7-3.62,2.3-8.62,3.96-17.69,4.57-27.03,3.79-20.63-1.71-39.66-8.95-58.63-16.49-4.64-1.84-9.25-3.76-13.87-5.65.12-.42.24-.84.36-1.26Z"/>
  <path class="cls-1" d="M144.14,299.16c-1.95-.39-2.97-.43-3.85-.78-8.2-3.32-14.11-9.36-18.94-16.48-6.31-9.3-9.37-19.79-11.1-30.83-2.57-16.44.44-32.35,3.89-48.25,1.01-4.66,2.2-9.28,4.16-13.75-.61,4.72-1.04,9.47-1.86,14.16-2.12,12.13-3.61,24.31-2.75,36.63,1.17,16.72,5.3,32.51,16.43,45.59,3.94,4.62,8.69,8.55,14.03,13.72Z"/>
  <path class="cls-1" d="M312.55,424.73c-.6-.15-1.26-.18-1.8-.45-10.43-5.31-21.06-10.28-31.22-16.06-10.96-6.24-19.98-14.77-26.72-25.62-1.8-2.89-4.02-5.47-4.31-9.03-.09-1.07-.21-2.2.04-3.22.33-1.34,1.45-1.59,2.5-.8.68.51,1.23,1.32,1.6,2.11,6.29,13.4,16.94,22.82,28.73,31.07,9.01,6.31,18.34,12.18,27.51,18.26,1.4.93,2.73,1.98,4.1,2.97-.14.26-.28.52-.42.77Z"/>
  <path class="cls-1" d="M287.99,358.99c1.97.6,3.95,1.13,5.89,1.8,12.58,4.33,25.09,8.88,37.75,12.96,7.01,2.26,14.19,4.1,21.43,5.46,5.63,1.06,11.45,1.11,17.19,1.57,1.28.1,2.9,0,2.85,1.64-.03,1.01-1.07,2.65-1.92,2.84-3.46.79-7.05,1.65-10.55,1.54-6.87-.23-13.47-2.14-20-4.27-14.58-4.75-28.35-11.41-42.34-17.57-3.58-1.58-7.12-3.28-10.67-4.92.12-.35.25-.69.37-1.04Z"/>
  <path class="cls-1" d="M184.68,84.62c-7.79,4.77-12.88,12.01-17.72,19.28-9.59,14.41-18.76,29.09-28.09,43.66-2.22,3.46-4.4,6.95-7.28,10.2.11-.67.06-1.43.36-2,6.67-12.57,13.21-25.22,20.13-37.65,5.63-10.12,12.6-19.35,20.66-27.69,2.23-2.31,4.92-4.19,7.55-6.07,1.43-1.02,1.57-.82,4.39.26Z"/>
  <path class="cls-1" d="M241.5,442.41c-12.17-4.77-24.3-9.7-33.53-19.63-7.28-7.84-11.35-17.03-12.83-27.46-.58-4.1-.8-8.25-1.08-12.38-.07-1.04.18-2.14.49-3.15.12-.38.82-.78,1.26-.79.42,0,1.11.41,1.22.78.51,1.72.9,3.48,1.27,5.24,1.25,5.99,2.04,12.12,3.81,17.95,3.65,12.03,11.38,21.19,21.68,28.17,5.79,3.92,11.8,7.53,17.71,11.28Z"/>
  <path class="cls-1" d="M178.04,456.1c-9.98-10.59-19.24-21.82-22.24-36.7-.85-4.22-1.57-8.5-1.93-12.78-.5-5.92-.6-11.88-.87-17.82-.03-.72-.24-1.49-.03-2.13.19-.57.85-.98,1.3-1.46.47.49.99.93,1.37,1.48.18.26.13.7.16,1.05.37,5.03.87,10.06,1.09,15.1.67,15.87,5.06,30.48,14.44,43.45,2.32,3.21,4.48,6.54,6.72,9.81Z"/>
  <path class="cls-1" d="M145.17,270.75c-4.48-4.16-5.92-9.59-6.39-15.37-.85-10.38.26-20.66,3.6-30.45,4.53-13.26,9.85-26.25,14.83-39.36.37.1.73.19,1.1.29-.29,1.2-.49,2.42-.87,3.59-3.87,11.62-7.93,23.18-11.6,34.87-2.87,9.12-4.81,18.48-5.13,28.09-.22,6.5.75,12.75,4.47,18.34Z"/>
  <path class="cls-1" d="M134.46,89.49c6.72-14.4,13.53-28.73,24.33-40.58,5.75-6.31,12.07-12.01,20.53-14.54,3.06-.92,6.23-1.49,9.54-1.51-1.09.46-2.15,1.06-3.29,1.37-11.49,3.18-19.9,10.63-27.38,19.47-7.39,8.73-13.24,18.48-19.07,28.26-1.51,2.53-3.1,5.02-4.66,7.53Z"/>
  <path class="cls-1" d="M256.22,310.87c.43-2.01.81-4.03,1.31-6.02,1.58-6.29,3.05-12.61,2.58-19.15-.37-5.06-1.17-10.05-6.03-13.37.47-1.98,1.85-2.62,3.55-1.79,1.4.68,2.75,1.75,3.74,2.96,2.98,3.61,4.31,7.94,4.13,12.56-.34,9.18-4.2,17.19-9.28,24.81Z"/>
  <path class="cls-1" d="M250.46,285.39c1.82,2.27,2.23,4.8,1.75,7.5-1.11,6.21-3.31,12.05-6.7,17.62.08-.86.05-1.74.25-2.57,1.72-7.13,4.32-14.11,3.74-21.64-.02-.2.44-.44.95-.91Z"/>
</svg>