<?xml version="1.0" encoding="UTF-8"?>
<svg id="Layer_1" data-name="Layer 1" xmlns="http://www.w3.org/2000/svg" version="1.1" viewBox="0 0 467.67 492.17">
  <defs>
    <style>
      .cls-1 {
        fill: #000;
        stroke-width: 0px;
      }
    </style>
  </defs>
  <path class="cls-1" d="M154.27,148.93c-13.58-5.69-22.35,2.76-30.55,10.56-28.85,27.41-46.65,61.2-54.5,100.02-2.82,13.97-4.2,28.32-5.15,42.57-1.12,16.9,1.8,33.49,6.27,49.82,2.05,7.5,4.45,15.03,5.29,22.7.94,8.58.74,17.37.16,26-.34,5.05.7,8.12,5.29,10.59,4.06,2.19,7.67,5.3,11.22,8.31,7.21,6.12,9.89,14.14,8.91,23.41-.32,3.08-1.17,6.11-1.64,9.18-.52,3.38-1.26,6.78-1.26,10.17,0,6.78,3.05,9.66,9.37,7.53,6.05-2.04,11.89-5.32,17.14-9.02,14.36-10.14,23.37-24.74,31.45-39.93,7.45-13.99,14.33-28.3,22.24-42.02,13.43-23.27,33.58-36.15,60.82-37.1,4.36-.15,8.71-.42,13.07-.4,1.31,0,2.62.82,5.57,1.81-3.19,1.8-4.86,3.05-6.73,3.76-21.92,8.34-37.41,24.17-50.02,43.2-8.93,13.47-17.18,27.4-26.18,40.81-11.71,17.44-25.12,33.44-44.1,43.4-6.21,3.26-13.21,5.65-20.13,6.77-7.33,1.19-14.3-1.02-17.96-8.66-.85-1.77-1.45-3.27-4.02-2.59-.52.14-2.08-1.87-2.42-3.09-1.41-5.1-2.66-10.24-3.74-15.42-1.56-7.47-5.56-12.96-12.21-16.77-3.49-2-6.71-4.52-9.88-7.01-8.38-6.57-12.07-15.49-9.67-25.63,3.51-14.81,1.41-28.98-1.96-43.36-13.42-57.24-2.2-110.64,26.59-160.77,10.56-18.4,24.52-34.45,41.27-47.75,6.35-5.04,13.19-9.4,21.38-10.98,6.64-1.28,12.42-.15,16.35,5.96.31.48.35,1.17.42,1.77.03.28-.17.59-.67,2.16Z"/>
  <path class="cls-1" d="M384.47,79.77c1.19,1.42,2.6,2.74.75,4.72-9.07,9.66-19.72,16.78-33.37,15.93-8.88-.55-17.83-2.73-26.37-5.4-13.05-4.07-25.72-9.36-38.68-13.77-3.6-1.23-7.19-4.59-11.39-2-5.35,3.29-4.5-3.79-8.23-4.58-18.78-3.98-37.14-5.5-54.27,5.18-10.83,6.75-20.97,14.38-27.86,25.65-6.16,10.07-8.27,20.66-6.16,32.19.81,4.46,2.16,8.89,1.74,15.35-1.92-2.23-2.93-3.08-3.52-4.15-1.82-3.25-3.42-6.63-5.22-9.9-11.72-21.25-7.82-41.21,6.59-59.09,17.75-22,41.6-30.9,69.61-27.89,8.58.92,16.99,3.36,25.45,5.1,2.97-4.74,5.6-9.66,8.91-14.06,9.61-12.76,22.67-15.63,37.5-11.88,5.09,1.29,9.91,3.66,14.85,5.52,1.71.64,3.43,1.26,5.7,2.09,2.71-5.43,5.04-10.78,7.96-15.79,6.46-11.06,16.37-16.96,29.1-17.33,7.88-.23,14.84,1.99,17.3,10.99.46,1.7,1.66,3.37,2.91,4.67,6.57,6.82,7.32,15.18,5.19,23.54-1.74,6.84-4.72,13.49-8.02,19.77-2.86,5.46-6.93,10.29-10.46,15.39-2.67-2.19-1.97-4.83-1.25-7.65,1.78-6.93,3.35-13.91,5.01-20.87,2.48-10.4,4.49-20.76-1.58-30.75-.58-.95-.42-2.35-.59-3.43-12.15-2.19-21.49,2.5-26.9,13.63-2.17,4.46-3.65,9.26-5.69,13.79-3.37,7.45-8.71,10.21-16.55,8.19-4.79-1.24-9.39-3.26-14.07-4.93-16.31-5.84-28.05-1.13-36.26,14.62,7.86,3.73,15.66,7.57,23.59,11.14,10.48,4.72,20.96,9.49,31.63,13.76,15.72,6.3,29.77,2.2,42.66-7.75Z"/>
  <path class="cls-1" d="M345.41,300.03c16.61-19.43,25.03-40.16,27.35-63.35,1.08-10.82,1.34-21.72,2.16-32.57.71-9.36,2.18-18.62,7.38-26.69,1.38-2.14,3.89-3.93,6.27-4.95,2.5-1.07,5.18,1.96,3.86,4.38-6.59,12.09-4.25,24.83-2.86,37.42,2.8,25.34,2.34,50.27-7.05,74.45-14.96,38.53-43.14,61.18-83.12,70.15-17.72,3.97-35.68,5.09-53.69,6.07-.62.03-1.34.24-1.85,0-1.03-.48-2.44-1.04-2.76-1.9-.25-.67.68-2.26,1.5-2.75,2.12-1.27,4.48-2.13,6.72-3.19,18.25-8.66,36.61-17.09,54.7-26.05,16.31-8.08,30.35-19.31,41.37-31.02Z"/>
  <path class="cls-1" d="M212.84,173.43c13.24-11.52,28.45-18.39,46.43-16.31,9.48,1.1,18.84,3.87,28.04,6.61,10.16,3.03,20.2,6.16,30.93,6.36,18.41.34,34.84-5.76,49.91-15.7,7.23-4.77,10.6-12.92,14.73-20.14,6.33-11.05,12.27-22.37,14.2-35.25.4-2.66,1.41-4.96,4.53-4.94,3,.02,4.26,2.21,4.81,4.83,1.45,6.92.67,13.78-2.08,20.13-3.07,7.1-6.49,14.14-10.56,20.71-15.06,24.26-37.08,38.82-64.81,44.74-18.83,4.02-37.1.42-55.13-5.08-5.35-1.63-10.68-3.34-16.06-4.86-11.62-3.29-23.33-3.16-35.09-.75-2.98.61-6,1.09-9,1.63-.28-.66-.57-1.31-.85-1.97Z"/>
  <path class="cls-1" d="M89.61,364c-15.52-44.02-13.89-86.66,11.31-126.95,11.83-18.92,27.1-34.81,46.91-45.63,5.65-3.09,12.02-4.93,18.17-7,3.42-1.15,6.7-.5,9.3,3.63-1.42.76-2.55,1.57-3.81,2.01-11.39,3.95-20.92,10.79-29.53,19.02-38.7,37.03-54.24,82.89-51.56,135.65.32,6.39.78,12.76,1.18,19.15-.66.04-1.31.08-1.97.11Z"/>
</svg>