<?xml version="1.0" encoding="UTF-8"?>
<svg id="Layer_1" data-name="Layer 1" xmlns="http://www.w3.org/2000/svg" version="1.1" viewBox="0 0 337.29 492.17">
  <defs>
    <style>
      .cls-1 {
        fill: #000;
        stroke-width: 0px;
      }
    </style>
  </defs>
  <path class="cls-1" d="M271.83,305.52c16.53,4.99,24.26,14.01,24.99,30.35.31,6.88,1.7,12.92,6.44,17.7,3.99,4.03,3.73,9.49,5.84,14.13,4.33,9.5,8.35,19.15,12.04,28.92,8.19,21.69,6.74,42.81-4.13,63.37-8.86,16.76-24.81,24.56-44.03,22.89-20.02-1.75-35.68-11.16-48.46-26.46-8.56-10.25-17.38-20.47-27.28-29.37-15.87-14.27-35.8-21.14-55.81-27.5-13.99-4.44-28.07-8.67-41.86-13.69-32.09-11.67-55.67-33.53-72.57-62.77-9.66-16.71-12.65-35.15-9.8-53.98,2.88-18.99,6.9-37.86,11.51-56.51,3.8-15.39,10.85-29.42,23.4-39.91,1.63-1.36,3.68-2.22,6.75-2.23-.68,1.11-1.25,2.32-2.06,3.32-7.96,9.77-13.68,20.76-16.67,32.93-5.69,23.17-9.1,46.72-9.52,70.61-.23,13.06,3.57,25.17,10.6,36.14,16.28,25.39,38.54,43.28,67.41,52.41,15.24,4.82,30.84,8.51,45.99,13.59,12.96,4.34,25.86,9.18,38.14,15.14,19.19,9.32,33.65,24.51,46.84,40.95,3.27,4.07,6.7,8.03,10.34,11.77,7.19,7.36,16.08,10.7,26.35,11.24,10.14.54,16.89-3.66,20.82-12.87,4.4-10.31,6.92-21.1,7.51-32.24.88-16.69-1.11-33.23-3.61-49.68-.36-2.38-1.69-5.02-3.39-6.71-4.31-4.29-7.14-9.29-8.76-15.05-2.07-7.33-5.41-13.89-10.35-19.78-2.48-2.95-4.33-6.54-5.94-10.07-.83-1.83-.51-4.18-.73-6.6Z"/>
  <path class="cls-1" d="M68.53,152.57c-20.58-1.36-26.59-7.54-26.5-24.81.01-2.29-.06-4.6.24-6.85,1.61-12.03,3.86-23.87,10.71-34.27.89-1.36,1.51-2.9,2.35-4.29,3.56-5.86,2.63-11.12-1.85-16.1-6.45-7.18-11.16-15.28-12.64-24.99-1.57-10.34.41-20.13,4.79-29.49,2.08-4.45,5.27-7.46,10.7-6.88.96.1,2.03.19,2.92-.1,14.24-4.75,26.17.62,37.66,8.35,6.77,4.56,13.63,8.99,20.6,13.24,8.66,5.27,17.72,6.25,27.1,1.81,1.47-.7,3.02-1.24,4.53-1.85,9.06-3.68,17.09-2.17,24.57,4.2,19.95,16.98,27.52,38.23,22.68,63.94-.83,4.38-1.79,8.74-4.2,13.37-.84-2.49-1.89-4.94-2.48-7.49-1.53-6.66-2.78-13.37-4.27-20.04-3.1-13.96-11.56-24.62-21.29-34.54-3.23-3.29-6.42-3.72-10.52-1.61-19.06,9.82-35.97,4.7-51.74-7.78-6.66-5.27-13.23-10.65-20.02-15.75-6.57-4.95-14.02-6.89-22.19-5.24-3.39.69-5.6,2.33-6.48,6.22-2.64,11.62-1.27,22.78,6.96,31.21,13.11,13.43,13.97,26.98,4.33,42.4-7.8,12.47-7.32,26.9-8.07,40.82-.18,3.33,2.75,7.04,4.82,10.2,1.31,1.99,3.68,3.29,7.27,6.33Z"/>
  <path class="cls-1" d="M251.12,346.21c.43-5.89.66-10.93,1.2-15.94,2.68-25.04,7.85-49.51,16.01-73.38,3.9-11.4,7.22-23.02,10.31-34.67,3.9-14.7,4.44-29.73,1.65-44.64-4.22-22.54-17.59-38.96-36.41-51.16-8.47-5.49-17.5-10.12-26.19-15.29-3.05-1.81-6.02-3.84-8.65-6.2-.75-.68-.51-2.98-.03-4.28.21-.56,2.37-.96,3.33-.6,19.88,7.48,39.66,15.23,56.22,29.07,16.98,14.19,26.75,32.48,30.73,54.17,4.46,24.3-.08,47.39-8.89,69.9-4.4,11.24-9.63,22.15-14.08,33.36-6.37,16.06-12.29,32.29-18.57,48.38-1.45,3.71-1.57,8.3-6.63,11.28Z"/>
  <path class="cls-1" d="M180.26,97.87c2.69,9.43.51,18.28-4.11,26.7-4.49,8.17-11.38,14.13-18.6,19.85-11.99,9.51-24.51,18.53-35.44,29.17-18.74,18.24-31.42,40.7-40.52,65.11-7.96,21.35-8.46,42.65,1.67,63.62,1.26,2.62,2.2,5.39,3.25,8.11.09.23-.16.59-.52,1.81-1.32-.75-2.8-1.14-3.55-2.1-4.02-5.13-8.14-10.22-11.71-15.66-10.73-16.39-12.82-34.56-10.18-53.52,3.21-23.03,14.25-42.39,28.44-60.28,14.22-17.92,31.72-31.79,51.72-42.67,4.58-2.49,9.11-5.09,13.64-7.69,11-6.33,18.13-15.63,21.5-27.88.48-1.75,1.54-3.34,2.32-5.01.7.15,1.39.3,2.09.45Z"/>
  <path class="cls-1" d="M83.56,125.65c.55-16.7,5.54-31.61,18.37-43.31,1.93-1.76,3.97-3.43,6.15-4.86,5.61-3.69,9.92-8.36,12.5-14.66.47-1.14,2.37-1.7,3.6-2.53.76,1.28,1.96,2.49,2.19,3.86.85,5,.1,9.9-3,13.99-3.14,4.14-6.37,8.34-10.21,11.81-10.29,9.32-18.84,19.88-25.04,32.32-.69,1.39-1.7,2.62-2.56,3.92-.67-.18-1.34-.35-2-.53Z"/>
</svg>