<?xml version="1.0" encoding="UTF-8"?>
<svg id="Layer_1" data-name="Layer 1" xmlns="http://www.w3.org/2000/svg" version="1.1" viewBox="0 0 535.89 425.49">
  <defs>
    <style>
      .cls-1 {
        fill: #000;
        stroke-width: 0px;
      }
    </style>
  </defs>
  <path class="cls-1" d="M380.11,337.55c-8.09-2.92-11.82,2.18-15.72,8.61-6.55,10.81-13.61,21.36-21.09,31.54-15.37,20.91-36.88,30.8-62.25,32.87-29.02,2.36-57.14-.92-83.09-15.22-4.91-2.71-8.36-2.27-12.56,1.32-16.52,14.13-35.22,16.15-54.79,7.8-12.46-5.31-25.44-8.06-38.53-10.77-10.73-2.22-20.88-5.83-29.63-12.72-13.52-10.64-18.72-24.56-15.45-41.3,1.45-7.41,3.94-14.65,6.48-21.78,2.07-5.8,1.58-10.57-3.23-14.66-1.38-1.17-2.51-2.62-3.88-3.79-21.67-18.46-29.94-42.66-30.64-70.32-.52-20.36,2.27-40.4,4.98-60.47.63-4.64,1.01-9.34,1.09-14.02.1-6.29-1.62-11.69-6.18-16.71-5.16-5.67-7.92-12.74-3.25-20.5.55-.91,1.29-2.23,1.01-3.02-2.9-8.02,3-11.99,7.57-16.36,30.62-29.27,64.75-53.31,104.22-69.26,23.73-9.59,48.43-14.2,74.08-14.3,47.71-.2,93.34,9.52,137.11,28.21,21.17,9.04,39.15,23.09,57.38,36.84,20.5,15.46,41.43,30.35,62.39,45.19,13.01,9.21,26.27,18.06,36.92,30.11,14.01,15.87,21.52,34.21,20.14,55.6-.83,12.79-4.7,24.89-10.54,36.23-20.58,39.94-51.99,68.08-93.6,84.81-5.67,2.28-11.72,3.7-17.7,5.06-3.49.79-7.19.68-11.2,1.01ZM187.88,28.91c-7.97,1.11-22.1,2.17-35.81,5.15-33.73,7.34-63.39,23.77-92.13,42.36-14.81,9.58-24.73,22.85-33.63,37.36-1.13,1.84-1.99,3.85-2.95,5.8-2.16,4.42-1.72,8.14,2.23,11.6,8.25,7.23,12.02,17.02,13.91,27.42,1.41,7.78,2.27,15.76,2.42,23.67.31,16.64-.24,33.3.01,49.94.27,18.19,6.43,33.92,20.52,46.11,3.82,3.31,7.39,6.96,10.75,10.74,7.7,8.68,10.62,18.76,7.82,30.18-1.03,4.2-2.65,8.25-3.81,12.42-1.16,4.16-2.31,8.35-3.08,12.6-1.51,8.3,2.11,14.24,9.56,17.49,5.26,2.29,10.83,4.26,16.45,5.29,13.91,2.55,27.65,5.49,40.52,11.62,1.61.77,3.42,1.13,5.13,1.69,7.52,2.45,14.29.76,20.39-3.92,3.45-2.64,6.68-5.55,10.04-8.31,8.57-7.02,17.97-7.92,27.17-2.06,16.93,10.78,35.38,16.15,55.22,17.49,28.83,1.94,54-4.28,70.19-30.99,6.37-10.51,12.96-20.9,19.4-31.38,7.4-12.03,12.24-14.12,25.99-11.03,6.87,1.54,13.81,1.62,20.3-1.05,9.66-3.98,19.51-7.82,28.51-13.05,26.65-15.49,47.15-37.08,60.13-65.18,11.61-25.13,7.89-46.1-11.91-65.29-8.78-8.5-18.99-15.56-28.78-22.98-19.02-14.42-38.88-27.81-57.14-43.13-29.19-24.49-60.57-44.31-97.54-54.92-30.73-8.83-61.81-14.86-99.89-15.65Z"/>
  <path class="cls-1" d="M372.18,271.73c-3.81-3.17-4.73-7.81-6.51-11.87-12.13-27.62-27.07-53.63-46.84-76.44-27.03-31.18-59.13-56.2-95.78-75.27-3.5-1.82-7.34-3-10.85-4.81-1.06-.55-2.37-2.5-2.09-3.32.49-1.46,1.93-3.31,3.28-3.62,1.95-.44,4.3.02,6.27.7,4.77,1.64,9.57,3.35,14.11,5.53,27.83,13.41,53.77,29.85,76.63,50.65,32.58,29.64,52.39,66.72,61.41,109.69.51,2.42.97,4.85,1.38,7.29.04.25-.38.59-1.01,1.47Z"/>
  <path class="cls-1" d="M219.5,307.36c-4.24-14.81-8.35-29.66-12.76-44.43-4.55-15.23-9.01-30.49-14.17-45.51-7.86-22.89-19.73-43.39-37.82-59.92-2.19-2-3.93-4.51-5.23-7.57,7.78.23,13.67,3.97,19.12,8.55,14.43,12.12,24.89,27.11,31.67,44.65,10.21,26.41,16.8,53.7,19.59,81.89.74,7.45,1.55,14.9,2.33,22.35-.91,0-1.82-.01-2.74-.02Z"/>
  <path class="cls-1" d="M138.44,312.44c-1.07-6.84-2.46-12.73-2.84-18.69-1.66-25.67-7.54-50.64-12.24-75.8-.2-1.05-.93-2.09-.82-3.07.1-.94.87-2.45,1.53-2.55,1.21-.19,3.16.04,3.73.85,2.71,3.81,5.54,7.66,7.45,11.88,5.45,12,7.88,24.98,8.13,37.9.3,15.46-1.49,30.97-2.5,46.45-.05.79-1.18,1.5-2.45,3.02Z"/>
</svg>