<?xml version="1.0" encoding="UTF-8"?>
<svg id="Layer_1" data-name="Layer 1" xmlns="http://www.w3.org/2000/svg" version="1.1" viewBox="0 0 444.56 425.49">
  <defs>
    <style>
      .cls-1 {
        fill: #000;
        stroke-width: 0px;
      }
    </style>
  </defs>
  <path class="cls-1" d="M186.1,54.75c-6.97-.88-13.34-1.83-19.75-2.46-4.99-.49-9.35,1.15-12.07,4.5-3.6,4.44-7.13,9.04-9.64,13.93-5.43,10.58-7.7,21.9-9.83,33.18-3.74,19.78-4.29,39.72-3.57,59.69.65,17.95,3.49,35.71,7.39,53.36,2.23,10.12,4.65,20.21,6.88,30.34.33,1.49.05,3.07.05,6.08-1.9-2.16-3.23-3.14-3.74-4.35-10.07-23.63-21.96-46.83-26.11-71.9-5.03-30.43-5.28-60.75,4.03-90.74,3.04-9.79,7.34-19.23,14.02-27.81,13.68-17.59,30.03-19.72,49.66-6.5.99.67,2.04,1.29,3.46,2.18,3.24-4.59,6.18-8.83,9.21-13.02,4.89-6.77,10.37-13.16,17.37-18.6,15.71-12.21,34.44-14.57,54.66-10.86,12.76,2.34,20.56,9.6,24.9,19.51,4.42,10.08,5.75,20.6,4.53,31.14-1.98,17.16-4.25,34.32-7.41,51.35-4.44,23.92-12.27,47.22-21.18,70.26-7.65,19.78-15.34,39.56-23.03,59.33-.82,2.11-1.79,4.17-4,6.34-.24-1.29-.93-2.65-.65-3.85,3.85-16.67,8.17-33.27,11.7-49.98,3.86-18.29,7.27-36.64,10.43-55.02,3.43-19.96,6.62-39.95,9.34-59.97,1.39-10.22,1.97-20.55,1.99-30.84,0-4.8-1.78-9.7-3.52-14.36-1.65-4.41-5.99-6.65-11.57-7.44-16.89-2.42-29.75,2.65-39.43,14-11.52,13.5-20.94,27.88-25.17,44.12-4.62,17.71-9.09,35.48-12.52,53.37-3.72,19.4-2.07,38.87,1.54,58.26,1.44,7.73,2.03,15.57,2.97,23.37,1.17,9.76,2.29,19.52,3.37,28.77-3.32-1.87-3.59-1.8-5-5.53-2.33-6.19-4.48-12.44-6.31-18.74-3.04-10.44-5.63-20.98-8.66-31.42-5.49-18.89-7.49-37.91-5.38-57.34,2.18-20.13,5.74-40.03,11.86-59.57,2.3-7.34,5.82-14.42,9.22-22.7Z"/>
  <path class="cls-1" d="M291.25,335.05c3.42,1.05,4.86,1.7,6.38,1.89,1.43.18,3.28.3,4.37-.29,23.45-12.61,47.63-24.38,69.37-39.01,10.08-6.78,19.65-14.18,28.66-21.94,8.12-6.99,14.23-15.25,17.16-24.84,3.76-12.31.94-23.06-10.92-31.73-1.16-.84-2.06-1.92-3.41-3.22,5.07-1.67,8.54.29,11.79,2.12,11.45,6.45,16.7,15.87,17.09,26.93.51,14.53-6.21,27.1-17.44,38.08-7.93,7.75-17.22,14.3-27.25,20.17-17.39,10.18-36.3,18.04-55.73,25.12-8.93,3.25-17.82,6.56-27.37,10.08,1.15,1.12,1.85,1.99,2.76,2.65,9.99,7.28,12.67,14.93,8.15,25.32-4.91,11.26-13.72,20.3-24.93,27.76-13.85,9.22-30.18,14.04-47.17,17.61-14.29,3-28.86,4.74-43.55,4.84-26.74.19-51.93-4.45-73.3-18.67-5.05-3.36-9.75-7.19-14.03-11.22-12.59-11.89-16.11-25.59-10.84-40.75,3.51-10.09,7.24-20.13,11.13-30.91-4.38-2.2-9.39-4.76-14.44-7.25-14.99-7.4-29.1-15.68-41.5-25.94-23.93-19.79-36.97-43.95-42.78-71.07-2.66-12.46-3.04-25,.17-37.4,1.29-4.96,3.71-9.83,6.51-14.37,1.48-2.4,4.71-4.18,7.49-5.85.94-.56,3.44-.37,4.31.29.85.65,1.11,2.51.65,3.54-3.04,6.84-4.26,13.91-3.83,21.11.99,16.72,6.11,32.62,13.75,48.12,13.8,28.01,34.11,52.42,59.06,74.39,3.35,2.95,6.6,5.96,9.98,8.89,4.34,3.76,6.97,3.91,12.25,1.12.93-.49,2.34-.36,3.53-.52-.04,1.03.37,2.29-.19,3.07-6.17,8.56-10.37,17.75-12.88,27.43-1.58,6.09-3.04,12.2-1.6,18.6,1.33,5.95,4.22,11.09,9.05,15.52,14.59,13.39,32.87,21.15,54.45,23.51,30.48,3.33,59.55-1.25,87.48-11.29,11.52-4.14,20.37-11.01,27.29-19.63,7.03-8.75,8.38-17.76,2.36-27.27-.68-1.08-.95-2.33-2.01-5.02Z"/>
  <path class="cls-1" d="M246.87,286.7c1.05-1.64,1.99-3.35,3.18-4.92,10.49-13.89,21.37-27.58,31.47-41.66,24.34-33.91,43.3-69.77,56.17-107.75,4.19-12.35,7.31-24.89,5.8-37.79-.54-4.59-1.94-9.32-4.19-13.54-5.09-9.52-14.43-13.14-27.08-11.54-1.55.2-3.77-.36-4.82-1.25-.7-.59-.29-2.59.37-3.64,2.33-3.74,6.57-5.16,11.37-5.62,13.23-1.26,24.04,2.51,32.55,10.83,9.39,9.19,12.63,20.2,13.19,31.83.79,16.32-3.51,32.05-8.93,47.59-12.53,35.89-34.9,67.49-63.15,96.36-13.65,13.95-28.22,27.3-42.4,40.91-.49.47-1.27.72-1.91,1.07-.54-.29-1.08-.59-1.61-.88Z"/>
  <path class="cls-1" d="M375.98,124.59c2.94-2.5,5.64-2.13,8.3-1.58,6.34,1.31,11.26,4.29,15,8.69,4.3,5.05,6.95,10.7,8.17,16.69,7.43,36.34-2.3,68.91-32.2,96.81-17.56,16.39-37.9,30.26-59.79,42.5-18.89,10.57-38.26,20.55-57.43,30.77-2.01,1.07-4.16,1.96-8.01,3.76,1.4-2.36,1.69-3.58,2.59-4.23,4.69-3.41,9.5-6.7,14.33-9.98,25.61-17.41,50.67-35.32,73.85-54.94,16.19-13.71,30.95-28.28,40.97-45.76,9.45-16.48,13.89-33.88,13.67-52.01-.07-5.52-1.54-11.09-3-16.53-1.06-3.96-3.58-7.56-7.85-9.91-1.14-.63-2.9-.57-4.39-.64-.63-.03-1.33,2.5-1.95-.16-.28-1.19-1.43-2.25-2.27-3.48Z"/>
  <path class="cls-1" d="M124.85,287.89c-1.85-1.25-2.82-1.66-3.37-2.31-20.56-24.55-40.74-49.29-55.26-76.79-7.94-15.04-14.45-30.45-17.69-46.69-3.54-17.72-3.11-35.25,4.07-52.4,6.86-16.38,20.23-27.91,39.27-35,3.68-1.37,7.7-2.2,11.66-2.93,2.85-.52,5.97-.72,8.13,2.43-15,2.37-25.11,10.29-33.83,19.51-9.15,9.68-12.88,21.04-13.6,33.19-1.21,20.45,3.82,40.11,11.1,59.46,11.45,30.45,26.89,59.59,43.62,88.28,1.65,2.83,3.37,5.62,4.85,8.51.58,1.13.57,2.46,1.04,4.73Z"/>
  <path class="cls-1" d="M170.73,381.25c1.58-.53,3.11-1.34,4.75-1.54,19.02-2.4,38.08-4.59,57.07-7.12,6.67-.89,13.23-2.42,19.73-3.96,3.08-.73,6.08-1.96,8.81-3.36,5.16-2.66,6.92-6.63,5.8-11.58-.25-1.11.29-2.34.46-3.51,1.69.4,4.01.35,4.96,1.27,3.48,3.37,5.01,7.35,3.69,11.85-1.54,5.29-5.27,9.19-10.83,12.06-9.67,4.99-20.49,6.94-31.56,8.22-14.06,1.63-28.12,1.5-42.23.29-6.68-.57-13.43-.57-20.15-.83-.17-.6-.33-1.2-.5-1.79Z"/>
</svg>