<?xml version="1.0" encoding="UTF-8"?>
<svg id="Layer_1" data-name="Layer 1" xmlns="http://www.w3.org/2000/svg" version="1.1" viewBox="0 0 540.59 425.49">
  <defs>
    <style>
      .cls-1 {
        fill: #000;
        stroke-width: 0px;
      }
    </style>
  </defs>
  <path class="cls-1" d="M511.86,240.01c-8.53,15.39-21.54,18.16-35.93,18.63-14.43.48-26.35,6.02-36.09,17.47-7.94,9.32-17.39,17.49-26.86,25.34-14.5,12.03-31.79,13.38-49.17,9.11-11.11-2.73-20.63-.58-29.76,4.75-9.8,5.72-18.95,12.57-28.71,18.37-8.46,5.02-17.14,9.81-26.16,13.69-12.52,5.4-23.24,1.41-31.81-8.61-3.19-3.73-5.99-7.87-8.49-12.11-5.02-8.5-12.33-10.98-21.5-8.66-7.18,1.81-14.17,4.5-21.41,5.86-8.18,1.54-16.57,2.96-24.84,2.79-17.49-.36-28.28-10.54-30.87-27.96-.72-4.83-.82-9.75-1.34-16.28-5.51-.15-10.73-.4-15.96-.43-13.33-.07-26.68.32-40-.15-10.6-.38-20.22-4.62-28.81-10.63-12.53-8.76-15.11-18.83-8.75-37.18.91,3.52,1.67,4.98,1.6,6.4-.68,14.28,7.8,21.77,19.79,26.23,17.75,6.6,36.09,3.75,54.28,2.59,1.95-.12,3.85-.93,5.8-1.21,18.13-2.55,26.93,2.67,28.64,20.6,1.86,19.59,10.37,22.15,28.59,19.04,9.03-1.54,17.7-5.22,26.68-7.98-7.67-32.8,7.31-54.75,31.51-71.48,23.88-16.51,49.89-16.81,73.86-1.16,22.37,14.61,35.16,35.59,28.79,63.87,8.91,1.28,17.83,1.58,26.13,4,11.01,3.22,20.85,1.16,29.68-4.74,14.33-9.57,28.23-19.83,41.88-30.36,8.38-6.47,17.25-11.35,27.58-13.67,12.54-2.81,24.61-6.84,36.82-14.85-5.2-8.47-12.01-14.32-19.96-19.11-15.11-9.1-32.06-12.65-49.03-15.8-19.85-3.68-39.8-6.85-59.77-9.77-15.11-2.21-30.3-3.97-45.51-5.38-12.49-1.16-24.07-4.21-34.84-12.33,4.63-5.83,10.65-6.15,16.21-5.79,18.19,1.19,36.53,1.83,54.46,4.78,27.68,4.55,55.14,10.49,82.56,16.5,15.42,3.38,30.56,8.02,43.92,17.03,10.82,7.3,20.11,16.03,26.05,27.82,8.08,16.04,6.17,33.8-6.45,46.64-6.43,6.54-14.33,12.44-22.67,16.17-23.91,10.7-44.83,25.33-61.86,45-24.72,28.56-54.79,45.51-92.8,49.91-20.45,2.37-40.43,8.93-60.58,13.77-18.24,4.38-36.29,4.12-53.95-2.35-14.25-5.22-27.79-4.08-41.75,1.48-10.96,4.36-22.39,7.86-33.91,10.4-15.89,3.51-26.47-1.06-32.68-15.87-8.75-20.86-24.37-34.19-42.88-45.48-20.39-12.44-39.05-26.96-52.62-47.1-6.72-9.98-11.67-20.73-12.9-32.75-2.56-24.84,6.91-41.34,33.08-55.32-2.78,4.2-3.98,6.3-5.46,8.18-4.56,5.77-10.06,10.98-13.69,17.28-7.54,13.09-5.42,26.57.39,39.84,7.6,17.37,20.87,29.92,35.48,41.06,9,6.87,18.78,12.8,28.54,18.59,18.63,11.06,34.63,24.29,43.86,44.74,4.5,9.97,8.1,11.21,19.22,8.23,9.98-2.67,19.81-6.14,29.4-10.03,16.33-6.62,32.68-7.55,49.07-1.06,17.86,7.07,35.75,5.6,53.87,1.5,24.54-5.55,49.01-11.56,73.74-16.08,19.83-3.62,36-12.92,50.23-26.59,11.04-10.62,22.08-21.25,33.44-31.51,12.96-11.71,28-20.08,44.12-26.79,7.22-3.01,14.38-6.85,20.5-11.67,8.51-6.71,12.96-15.79,10.02-29.46ZM323.76,279.44c.23-15.03-13.93-32.38-28.86-38.09-37.11-14.2-71.23,20.88-74.66,45.79-1.05,7.64.75,10.72,9.03,11.77,10.83,1.36,17.9,7.5,23.69,15.88,2.23,3.24,3.92,6.86,6.24,10.02,5.08,6.9,8.69,8.4,16.38,4.62,9.68-4.76,18.53-11.17,28.15-16.07,14.87-7.58,16.39-22.19,20.03-33.92Z"/>
  <path class="cls-1" d="M358.39,106.64c.87,5.18,1.53,10.4,2.7,15.51.66,2.85,2.45,5.42,3.26,8.25,4.12,14.34-2.37,24.49-17.28,26.55-12.95,1.79-25.54-.93-38-4.15-14.58-3.77-27.67-10.41-38.98-20.48-2.15-1.92-4.65-3.45-7.19-5.31-7.16,4.71-9.3,11.43-10.83,18.86-3.69,18.03-8.87,21.17-26.67,18.26-17.88-2.93-34.31-9.45-49-19.8-8.91-6.28-16.81-6.88-25.8-.69-15.9,10.95-31.94,10.82-48.61.84-11.1-6.65-13.87-5.64-23.06,3.72-4.5,4.58-8.66,9.52-13.38,13.85-8.75,8.05-19.87,11.5-31.18,12.28-9.09.63-14.96,3.82-18.45,11.91-.79,1.83-1.35,3.75-2.27,6.34-6.74-8.01-2.95-12.47-.74-16.18,10.31-17.39,20.04-35.29,31.99-51.51,23.06-31.3,51.2-57.52,84.7-77.67,34.53-20.77,71.12-30.57,111.86-24.26,35.38,5.47,70.79,2.96,106.11-3.25,18.38-3.23,37.26-3.84,55.96-5.05,19.41-1.26,37.03,4.88,53.35,14.93,32.87,20.26,55.13,48.96,67.3,85.53.77,2.32,1.3,4.8,1.45,7.24.51,8.25-3.22,12.2-11.45,11.28-4.82-.54-9.55-2.29-14.22-3.81-17.89-5.82-27.48-6.69-45.68-4.11-1.86,5.6-2.35,11.83-5.62,15.76-4.42,5.31-11.83,4.21-18.2,3.19-22.05-3.52-41.47-12.5-57.38-28.5-3.76-3.78-7.7-7.4-11.55-11.09-1.04.52-2.09,1.04-3.13,1.55ZM32.53,163.15c5.21-3.43,10.98-6.25,15.49-10.44,5.76-5.35,10.42-11.87,15.67-17.77,14.07-15.81,27.94-19.12,46.01-8.44,11.8,6.97,21.88,7.24,32.7-.47,1.2-.85,2.65-1.33,3.92-2.09,12.37-7.46,24.11-6.29,36.18,1.38,9.12,5.8,18.84,10.8,28.72,15.19,6,2.66,12.81,3.49,18.33,4.9,4.82-10.15,7.81-19.23,13-26.79,10.73-15.61,23.04-16.68,37.18-4.1,10.48,9.32,21.57,17.68,35.6,20.27,10.17,1.88,20.39,6.97,32.19,2.18-1.95-5.27-4.07-9.72-5.23-14.41-2.45-9.87-2.6-19.65,3.88-28.33,7.05-9.44,16.56-10.64,25.51-2.96,4.11,3.52,7.69,7.67,11.37,11.67,13.86,15.09,30.54,24.72,52.92,26.89-2.37-16.12,9.91-17.28,20.7-18.77,7.69-1.06,15.79-.52,23.54.56,9.47,1.32,18.76,3.94,28.71,6.13-10.03-26.23-22.3-43.95-41.15-60.13-18.95-16.26-40.18-27.55-65.76-26.28-18.69.92-37.39,3.21-55.87,6.2-34.88,5.63-69.7,6.76-104.75,2.08-36.34-4.85-70.69.57-102.84,19.28-41.36,24.06-74.65,56.51-101.95,95.43-1.85,2.63-2.57,6.05-3.82,9.1-.47.07-1,.02-1.38.24-.23.13-.23.67-.33,1.03.49-.5.98-1.01,1.47-1.52Z"/>
  <path class="cls-1" d="M47.91,214.77c20.54.9,32.98-11.29,44.32-25.57,21.15-26.64,49.9-31,81.3-27.18.17.02.25.79.66,2.25-9.23,2.56-18.39,5.56-27.76,7.59-18.02,3.91-32.78,13.06-45.49,26.14-5.49,5.65-11.26,11.14-17.48,15.95-8.42,6.52-18.02,10.43-28.97,8.27-2.44-.48-4.56-2.62-6.83-3.99.09-1.15.17-2.31.26-3.46Z"/>
  <path class="cls-1" d="M187.26,188.2c6.86,5.11,4.44,10.35,1.54,14.98-7.13,11.36-17.54,18.55-30.51,21.72-8.59,2.1-17.3,3.82-26.02,5.27-14.72,2.45-28.7,6.81-43.33,16.16,1.2-4.2,1.24-7,2.61-8.75,12.41-15.89,29.76-21.81,49.02-23.71,5.86-.58,11.82-.85,17.53-2.15,15.72-3.59,21.64-8.46,29.17-23.52Z"/>
</svg>