<?xml version="1.0" encoding="UTF-8"?>
<svg id="Layer_1" data-name="Layer 1" xmlns="http://www.w3.org/2000/svg" version="1.1" viewBox="0 0 595.28 386.91">
  <defs>
    <style>
      .cls-1 {
        fill: #000;
        stroke-width: 0px;
      }
    </style>
  </defs>
  <path class="cls-1" d="M507.03,116.22c-4.61,7.71-10.4,14.45-17.26,20.3-18.03,15.36-38.96,25.52-61.09,33.25-19.85,6.93-40.31,11.81-61,15.47-11.08,1.96-22.35,2.85-33.51,4.42-22.47,3.17-45.13,3.32-67.7,3.06-37.71-.44-74.94-4.98-110.75-17.67-19.8-7.02-38.36-16.33-53.13-31.78-10.38-10.86-17.09-23.46-17.11-38.95-.01-9,2.39-17.33,6.76-25.13,7.3-13.04,17.91-22.82,30.47-30.62,16.75-10.41,34.97-17.43,53.99-22.17,13.8-3.44,27.83-6.07,41.84-8.59,7.63-1.37,15.45-1.63,23.15-2.62,19.48-2.52,39.08-2.55,58.66-3.18,16.06-.51,32.06.34,48.09,1.42,17.51,1.17,34.87,3.33,52.07,6.57,26.4,4.98,52.15,12.21,76.04,24.92,17.29,9.19,32.39,20.97,43.46,37.42,4.62,6.86,7.31,14.29,6.39,22.66-.41,3.72-1.03,7.52-4.16,10.17-.49.41-1.5.71-1.99.47-.5-.24-.88-1.19-.91-1.85-.04-.69.26-1.49.63-2.1,3.38-5.47,1.43-10.67-.91-15.75-4.82-10.47-12.3-18.81-21.05-26.16-19.65-16.5-42.92-25.51-67.18-32.33-21.23-5.97-43.02-9.1-64.87-11.74-7.2-.87-14.51-.79-21.76-1.3-26.39-1.86-52.74-.3-79.08.96-16.02.76-31.88,3.03-47.74,5.51-17.84,2.8-35.38,6.67-52.45,12.49-17.16,5.86-33.54,13.36-47.35,25.5-8.47,7.44-14.88,16.11-17.44,27.44-1.87,8.25-.68,15.94,2.81,23.38,4.95,10.55,13.14,18.25,22.51,24.81,17.13,12.01,36.63,18.36,56.62,23.5,17.73,4.56,35.86,6.83,54.02,8.75,7.47.79,15.01.87,22.53,1.13,8.27.29,16.56.84,24.81.51,15.55-.61,31.15-1.13,46.6-2.85,32.62-3.63,64.7-10.05,95.94-20.46,18.07-6.03,35.99-12.3,52.9-21.16,8.92-4.67,17.33-10.09,24.64-17.1.68-.65,1.59-1.08,2.39-1.61.38.34.75.67,1.13,1.01Z"/>
  <path class="cls-1" d="M34.76,318.1c4.09,8.69,9.11,11.88,20.34,15.32,11.85,3.63,25.92.11,37.32-3.61,8.79-2.87,17.58-5.75,26.49-8.19,5.26-1.44,10.68-1.93,16.26-1.63,6.46.35,11.6,3.08,16.17,7.07,3.59,3.13,7.12,6.49,9.94,10.29,9.48,12.81,22.57,18.45,37.87,20.47,15.57,2.06,31.1.55,46.65.04,2.21-.07,4.39-.96,6.61-1.23.85-.1,1.78.49,3.89,1.15-7.95,4.17-15.28,6.69-22.73,8.94-9.39,2.84-18.91,4.65-28.79,4.78-21.55.29-38.9-8.11-52.54-24.58-2.24-2.71-4.59-5.34-6.72-8.12-5.42-7.07-12.81-8.68-20.89-6.84-10.71,2.43-21.34,5.32-31.89,8.4-10.02,2.92-20.22,3.84-30.52,3.25-16.91-.98-36.2-18.71-40.14-34.96-3.38-13.92-5.58-24.54-1.4-38.83,3.98-13.62,11.34-25.69,18.85-37.54,16.37-25.82,28.22-53.6,37.06-82.76.73-2.39,1.62-4.74,2.59-7.05.83-1.96,2.2-3.67,4.58-2.92,2.57.82,3.14,3.06,2.72,5.51-.38,2.21-.84,4.42-1.4,6.6-7.88,30.47-18.74,59.69-35.18,86.75-7.42,12.21-14.1,24.95-18.37,38.69-4.36,14.01-3.65,22.69,1.12,35.83.69,1.91,1.39,3.62,2.11,5.16Z"/>
  <path class="cls-1" d="M528.85,340.94c3.52-1.46,5.71-2.41,7.92-3.29,5.85-2.33,12.05-4.52,16.12-9.36,10.1-11.99,17.51-25.35,14.7-41.82-1.21-7.1-3.67-14.01-5.92-20.89-8.34-25.42-16.8-50.79-25.27-76.16-6.24-18.7-9.38-37.89-9.12-57.6.05-3.47.75-6.94,1.34-10.38.13-.78,1.06-2.02,1.58-1.99.78.04,2.03.87,2.19,1.58.9,3.9,1.9,7.83,2.19,11.79,1.74,24.03,9.06,46.5,18.23,68.56,10.37,24.97,18.59,50.71,26.78,76.46,4.95,15.57,2.14,30.16-5.73,44.14-7.43,13.2-18.63,19.86-33.71,20.13-2.76.05-5.53.09-8.29.07-.46,0-.91-.36-3-1.24Z"/>
  <path class="cls-1" d="M259.14,359.6c1.32-.04,2.52-.36,3.53-.06,14.35,4.39,29.08,7.06,43.8,9.69,22.33,3.99,43.33.94,62.46-12.09,4.95-3.37,10.2-6.41,15.59-9.03,13.58-6.6,27.63-5.64,41.72-1.82,9.64,2.62,19.16,5.77,28.9,7.96,13.93,3.14,27.82,3.3,41.06-3.26,1.55-.77,2.96-1.88,4.56-2.49.99-.37,2.23-.08,3.35-.08-.37,1.08-.46,2.39-1.15,3.2-5.78,6.78-13.39,10.28-22.01,11.81-13.58,2.42-26.82.38-39.99-2.98-7.01-1.79-14.08-3.36-21.18-4.75-13.62-2.67-26.32-.78-37.82,7.64-9.93,7.28-20.53,13.44-32.3,17.38-13.98,4.68-28.13,4.53-42.18.81-16.77-4.44-32.26-12.12-47.59-20.07-.32-.16-.36-.85-.75-1.86Z"/>
  <path class="cls-1" d="M335.78,318.41c-9.89-15.34-18.66-29.71-22.15-46.74-3.68-17.95-2.23-35.81.18-53.69.11-.79,1.04-2.04,1.64-2.07,1.09-.05,2.81.33,3.22,1.1,1.16,2.16,2.21,4.54,2.53,6.94.46,3.46.37,7.01.3,10.52-.12,5.99-.49,11.99-.62,17.98-.43,19.35,4.4,37.56,12.12,55.13,1.1,2.5,2.05,5.06,3,7.62.15.41-.05.95-.21,3.21Z"/>
  <path class="cls-1" d="M472.92,292.43c-1.3-.68-2.06-.84-2.45-1.31-10.53-12.69-21.52-25.04-27.81-40.69-4.74-11.77-7.23-23.87-6.73-36.55.18-4.54,1.14-8.96,3.97-12.65.58-.75,2.17-1.07,3.23-.96.56.06,1.31,1.43,1.4,2.27.3,2.74.35,5.51.47,8.26,1.01,23.4,7.07,45.24,19.5,65.27,3.08,4.96,6.42,9.93,8.41,16.36Z"/>
  <path class="cls-1" d="M181.65,301.64c.53-4.39.89-8.8,1.62-13.16,2.78-16.7,5.86-33.35,8.44-50.07,1.29-8.37,1.84-16.87,2.57-25.32.21-2.48.67-4.63,3.51-4.9,2.33-.22,3.88,1.31,4.27,3.44.66,3.65,1.61,7.43,1.27,11.04-1.42,15.42-4.21,30.6-8.88,45.4-3.38,10.69-6.73,21.38-10.15,32.06-.21.64-.87,1.14-1.32,1.7-.44-.06-.88-.13-1.33-.19Z"/>
  <path class="cls-1" d="M62.92,290.16c4.59-8.5,9.07-17.07,13.79-25.5,7.25-12.94,12.88-26.6,18.27-40.38,1.16-2.97,3-5.72,4.82-8.37.53-.77,2.08-.83,3.16-1.22.29.92.93,1.9.8,2.75-.59,3.69-1.24,7.4-2.18,11.01-4.03,15.51-11.78,29.21-21.06,42.08-4.4,6.1-9.16,11.93-13.8,17.86-.73.93-1.67,1.68-2.51,2.51-.43-.25-.86-.5-1.28-.75Z"/>
  <path class="cls-1" d="M543.53,277.25c-8.63-10.92-15.57-22.05-18.67-35.2-2.31-9.8-.84-19.4,2.12-28.83.24-.76,1.77-1.87,2.12-1.68.91.47,2.07,1.54,2.12,2.42,1.14,20.64,6.01,40.42,13.24,59.7.25.66.11,1.48.08,2.23,0,.21-.28.4-1.01,1.36Z"/>
</svg>