<?xml version="1.0" encoding="UTF-8"?>
<svg id="Layer_1" data-name="Layer 1" xmlns="http://www.w3.org/2000/svg" version="1.1" viewBox="0 0 540.59 350.82">
  <defs>
    <style>
      .cls-1 {
        fill: #000;
        stroke-width: 0px;
      }
    </style>
  </defs>
  <path class="cls-1" d="M130.23,32.76c1.8-2.47,2.43-4.35,3.56-4.72,4.56-1.5,9.58-4.22,13.87-3.44,17.51,3.19,33.55-1.21,50.07-6.21,25.65-7.75,51.94-9.83,78.41-3.47,12.41,2.98,23.94,8.05,34.75,14.73,12.4,7.66,25.8,11.59,40.37,12.66,11.74.86,23.49,2.58,35.05,4.87,14.47,2.87,28.24,8.12,40.77,16.02,30.61,19.31,57.35,43.03,79.75,71.52,9.5,12.08,15.79,25.63,17.99,40.92,2.44,16.98-2.24,31.45-15.49,42.76-1.24,1.06-2.53,2.07-3.88,2.97-27.01,18.02-44.38,43.9-58.68,72.22-4.59,9.08-9.05,18.15-18.08,23.72,1.28,1.71,2.18,2.91,3.09,4.13-1.02.65-1.65,1.4-2.3,1.42-15.65.4-30.38,5.32-45.4,8.92-14.62,3.51-29.27,6.98-44.07,9.6-18.98,3.36-37.52.05-54.92-7.56-22.06-9.64-44.36-18.31-67.85-23.75-3.56-.82-7.02-2.11-10.46-3.35-20.41-7.39-32.77-21.65-33.64-43.52-.94-23.56-12.88-36.85-34.93-42.26-20.16-4.95-40.36-9.69-60.54-14.54-15.08-3.62-29.92-7.97-43.35-16.01-18.6-11.13-29.03-26.97-28.04-49.3.74-16.6,8.04-29.94,21.33-39.4,8.57-6.1,18.16-10.83,27.51-15.75,12.61-6.64,25.54-12.68,38.12-19.35,6.91-3.67,12.36-9.07,16.77-15.73,2.87-4.34,6.74-8.1,10.59-11.67,1.15-1.07,4.42-1.47,5.5-.62,1.61,1.26,3.19,4.05,2.91,5.91-.6,3.95-2.43,7.7-3.7,11.56-3.07,9.26-6.25,18.49-9.12,27.81-5.14,16.72,1.58,29.58,14.18,39.81,5.63,4.57,12.34,7.84,18.68,11.49,12.71,7.3,25.8,13.99,38.2,21.79,13.19,8.3,24.42,19.01,33.88,31.49,5.91,7.8,11.83,15.59,17.97,23.21,8.56,10.61,14.66,22.49,19.02,35.34,1.57,4.62,3.21,9.24,5.12,13.73,3.93,9.21,10.98,14.27,21.04,13.67,10.14-.6,20.26-1.78,30.32-3.18,25.05-3.49,47.78,1.26,67.4,18,2.78,2.37,5.7,4.69,8.88,6.46,10.08,5.63,20.45,5.98,30.04-.67,5.26-3.65,10.06-8.35,14.03-13.39,5.8-7.34,10.85-15.29,15.89-23.18,11.34-17.74,25.06-33.2,42.71-44.85,17.4-11.49,23.34-22.94,14.42-49.98-3.2-9.71-9.97-18.74-16.74-26.69-19.16-22.49-41.73-41.12-67.01-56.58-19.71-12.06-41.21-17.89-63.89-18.13-23.36-.25-45.16-4.6-65.51-16.45-16.33-9.51-34.39-11.92-53.11-11.21-26.47,1-52.97,1.59-79.45,2.27-3.23.08-6.51-.09-9.71-.54-7.03-.97-14.03-2.19-22.34-3.52ZM94.77,78.93c-19.92,9.14-39.38,19.11-57.29,31.85-.99.7-1.83,1.62-2.72,2.46-18.97,18.1-17.31,45.15,4.22,59.95,6.61,4.54,14.19,8.34,21.88,10.54,19.54,5.58,39.49,9.72,59.09,15.11,13.29,3.66,26.71,7.46,39.27,13.02,17.36,7.68,27.09,22.03,28.36,41.13,2.16,32.45,13.47,35.84,36.28,43.2,1.16.37,2.41.43,3.59.72,19.43,4.75,38.3,11.16,56.26,19.97,16.16,7.93,33.15,11.46,50.95,9.7,17.41-1.72,34.73-4.3,52.06-6.74,6.53-.92,12.97-2.49,19.46-3.76-12.63-1.83-23.04-7.05-32.22-14.98-13.07-11.29-28.33-15.95-45.31-14.55-11.34.93-22.63,2.64-33.87,4.41-26.57,4.18-42.8-4.69-51.18-26.76-7.87-20.72-21.55-37.1-35.36-53.81-15.09-18.26-32.92-32.64-53.83-43.44-7.97-4.11-16.31-7.63-23.82-12.45-8.16-5.24-16.6-10.73-23.07-17.8-12.7-13.87-18.91-30.28-13.6-49.54.73-2.66.48-5.6.69-8.41.36-.06.78-.03,1.05-.22.17-.11.11-.56.15-.85-.35.41-.69.83-1.04,1.24Z"/>
  <path class="cls-1" d="M159.58,54.75c6.19-.7,12.43-2.28,18.55-1.92,12.97.75,25.88,2.55,38.82,3.84,16.54,1.65,31.97,7.09,45.64,16.12,19.54,12.92,39.89,17.27,62.73,11.28,19.85-5.21,39.51-3.02,58.92,3.3,11.6,3.78,23.42,6.91,35.16,10.23,20.87,5.9,33.33,21.23,42.98,39.2,4.47,8.33,3.15,17.51-.41,26.07-1.85,4.44-2.37,7.97.89,12.32,5.24,7.02,4.19,14.91-.52,21.71-4.37,6.32-9.74,11.97-14.9,17.7-2.75,3.06-5.73,5.65-4.9,10.48,1.56,9.1-3.8,13.79-11.56,16.01-8.15,2.33-16.5,3.8-22.75,10.41-1.2,1.27-3.81,1.18-5.74,1.81-6.52,2.12-13.15,3.97-19.51,6.49-8.98,3.56-18.01,4.03-25.61-1.93-7.98-6.26-15.68-4.62-24.2-2.55-21.77,5.28-37.64-.13-53.22-18.6,6.63,1.61,11.83,2.68,16.92,4.16,7.63,2.21,15.18,2.54,22.87.26,3.89-1.15,8.01-1.54,11.9-2.72,11.9-3.61,23.17-3.93,33.51,4.51,4.21,3.44,9.06,2.45,13.92.68,5.67-2.07,11.54-3.61,17.33-5.36.39-.12.99.01,1.18-.22,6.98-8.88,18.47-6.95,28.1-11.35-2.04-9.79,3.52-16.11,10.06-22.02,3.02-2.73,5.89-5.65,8.63-8.66,7.18-7.92,7.25-8.02,2.4-17.68-2.37-4.72-2.62-9.32-.67-14.12,1.38-3.39,2.66-6.84,4.24-10.14,2.37-4.92,1.67-9.58-1-13.99-9.05-14.99-19.8-27.76-38.12-32.04-12.27-2.87-24.4-6.51-36.34-10.56-19.31-6.55-38.67-4.64-57.89-.66-15.22,3.16-29.08.21-42.53-6.5-4-1.99-7.93-4.23-11.61-6.75-21.14-14.52-45-20.27-70.13-22.17-9.73-.74-19.44-1.83-29.14-2.9-1.41-.16-2.74-1.09-4.1-1.67.03-.69.07-1.37.1-2.06Z"/>
  <path class="cls-1" d="M340.78,123.26c23.35-.43,38.78,15.4,38.09,38.96-.81,27.23-26.44,47.4-51.9,40.84-19.63-5.05-31.9-23.55-28.95-44.83,3.1-22.39,23.12-35.88,37.89-34.99,1.62.1,3.25.01,4.88.01ZM358.85,160.68c.27-13.19-10.52-22.81-25.92-23.09-12.15-.22-19.86,8.31-19.88,22.03-.02,13.23,10.11,24.3,22.26,24.34,12.57.04,23.28-10.55,23.54-23.28Z"/>
  <path class="cls-1" d="M408.16,155.52c0,.63-.12,1.08.02,1.42,7.54,18.11,5.54,23.3-8.47,37.32-9.58,9.58-20.98,13.33-33.32,16.12-15.26,3.45-30.52,6.88-46.17,10.41,1.64-6.06,7.28-7.9,12.32-9.57,10.77-3.58,21.6-7.61,32.74-9.29,14.67-2.21,22.9-12.79,32.59-21.64,3.93-3.59,4.26-8.4,2.08-13.51-6.22-14.5-6.12-14.54,5.29-25.88.56-.56.91-1.34,1.93-2.9-5.13-3.08-10.23-6.14-16.83-10.1,10.31-3.4,18.6-1.36,26.2,2.88,4.49,2.5,5.03,8,1.69,12.98-2.89,4.31-6.75,7.97-10.06,11.77Z"/>
  <path class="cls-1" d="M157.7,83.49c.15,3.11.44,4.74.26,6.31-1.62,14.39,5.59,23.17,18.1,28.51,8.24,3.52,16.57,6.82,24.84,10.26,29.13,12.11,43.54,26.14,58.24,58.17-3.19-2.85-4.7-3.71-5.52-5.01-15.26-24.21-37.98-38.64-63.81-49.16-7.15-2.91-14.22-6.14-21-9.83-8.63-4.69-14.2-11.89-16.32-21.76-1.39-6.44.23-11.59,5.21-17.49Z"/>
</svg>