<?xml version="1.0" encoding="UTF-8"?>
<svg id="Layer_1" data-name="Layer 1" xmlns="http://www.w3.org/2000/svg" version="1.1" viewBox="0 0 540.59 350.82">
  <defs>
    <style>
      .cls-1 {
        fill: #000;
        stroke-width: 0px;
      }
    </style>
  </defs>
  <path class="cls-1" d="M21.29,284.36c-2.05,1.85-3.79,3.42-5.81,5.24-.99-6.38,1.55-16.83,5.69-23.23,3.69-5.71,8.28-10.56,14.21-14.09,9.51-5.68,17.96-12.61,23.77-22.19,1.68-2.77,3.31-6.24,3.2-9.33-.71-21.11,5.98-40.36,13.93-59.39,9.58-22.92,21.15-44.64,38.03-63.12,14.5-15.87,31.6-28.57,49.52-40.28,23.11-15.11,48.6-24.22,75.27-30.6,18.02-4.31,35.93-9.03,53.89-13.57,20.22-5.11,39.59-3.07,57.92,7.06,13,7.18,26.08,14.26,38.75,21.99,11.29,6.89,16.99,17.59,18.08,30.74.14,1.68.27,3.36.47,5.03.78,6.45,1.2,7.02,7.37,8.39,5.48,1.22,10.99,2.33,16.53,3.29,26.68,4.6,48.01,18.24,65.09,38.81,7.15,8.61,14.32,17.23,18.14,28.12,4.56,13,2.92,22.27-7.76,30.81-5.42,4.33-6.1,8.46-4.19,14.52,1.67,5.32,2.8,10.91,3.33,16.47,1.12,11.85-4.26,20.84-15.58,25.01-7.03,2.59-14.51,4.35-21.94,5.38-19.19,2.65-38.49,4.42-57.68,7.02-22.09,3-41.87,11.88-60.26,24.36-17.95,12.19-37.71,19.91-59.61,20.78-14.58.58-29.2.24-43.79.5-8.98.16-17.97.35-26.91,1.14-9.69.85-18.5,4.35-26.07,10.69-16.68,13.99-36.19,18.97-57.39,16.6-30.25-3.4-59.76-10.32-88.12-21.57-10.66-4.23-19.61-10.87-25.47-21.09-.67-1.17-1.64-2.17-2.63-3.47ZM66.33,233.12c-6.89,15.43-13.92,25.68-28.74,35.23-3.73,2.4-7.08,5.41-10.6,8.15-5.5,4.28-3.38,6.11.08,9.31,6.74,6.24,14.92,9.88,23.8,11.95,20.5,4.77,40.99,9.61,61.56,14.09,9.31,2.03,18.74,3.75,28.2,4.73,16.48,1.71,31.66-1.69,44.95-12.45,11.19-9.05,24.27-13.85,38.73-14.56,5.89-.29,11.78-.51,17.67-.57,15.99-.16,32,.15,47.98-.42,19.57-.69,37.12-7.5,53.19-18.68,20.03-13.94,41.87-23.83,66.25-27.24,15.84-2.21,31.74-3.99,47.59-6.08,8.06-1.06,16.21-1.86,24.09-3.74,9.88-2.36,12.34-6.69,10.33-16.65-1.11-5.48-2.99-10.81-4.38-16.24-1.96-7.63-.9-14.47,5.44-19.89,1.7-1.45,3.19-3.16,4.74-4.78,4.02-4.19,4.64-6.85,2.11-12.09-1.33-2.75-3.12-5.36-5.11-7.68-5.48-6.38-10.92-12.85-16.85-18.8-11.31-11.33-24.54-19.56-40.43-22.85-6.87-1.42-13.83-2.35-20.7-3.78-5.48-1.14-11.04-2.23-16.25-4.2-7.55-2.85-12.26-8.68-14.2-16.55-.67-2.72-1.33-5.52-1.36-8.29-.12-10.15-5.34-16.77-13.97-21.27-10.94-5.7-21.89-11.38-32.74-17.25-11.94-6.46-24.46-7.66-37.55-4.69-3.01.68-6.04,1.29-9.04,2.01-19.09,4.62-38.17,9.25-57.25,13.91-12.55,3.07-25.02,6.52-36.61,12.32-9.51,4.76-19.01,9.7-27.94,15.45-17.01,10.94-33.3,22.89-46.61,38.4-22.5,26.21-41.96,60.31-50.52,93.89-1.45,5.71-2.49,11.58-4.82,16.99-.34.79-.68,1.56-1.02,2.32Z"/>
  <path class="cls-1" d="M397.42,138.55c14.3-1.55,27.76.64,40.55,6.07,3.82,1.62,7.47,3.89,10.8,6.39,16.26,12.23,14.9,34.2-3.02,43.65-7.85,4.14-16.31,7.56-24.89,9.76-17.37,4.45-34.9,8.51-52.57,11.53-27.09,4.63-52.41,14.1-76.81,26.27-10.39,5.18-21.08,9.01-32.48,10.97-7.39,1.28-14.78,2.58-23.88,4.17,1.51-2.08,1.89-3.09,2.61-3.53,10.97-6.73,21.83-13.66,33.02-20.02,26.94-15.32,55.14-27.31,86.11-31.87,18.03-2.66,36.07-5.36,53.98-8.76,9.02-1.71,17.77-4.89,26.56-7.67,2.33-.74,4.53-2.22,6.49-3.74,6.97-5.4,8.54-13.59,3.34-20.76-2.72-3.75-6.43-7.05-10.31-9.62-7.29-4.84-15.58-7.62-24.13-9.5-5.12-1.12-10.25-2.24-15.37-3.36Z"/>
  <path class="cls-1" d="M331.59,138.2c-1.63-3.5-3.08-6.61-4.53-9.72-.4.15-.8.3-1.2.45.57,2.99,1.47,5.97,1.63,8.98.33,6.39,1.19,12.95.19,19.18-2.2,13.75-13.19,21.5-26.83,19.14-15.25-2.64-26.2-11.21-31.2-26.09-3.68-10.94-1.37-21.41,6.25-29.87,9.96-11.06,22.76-16.17,37.77-14,12.49,1.81,21.81,12.16,22.05,23.89.06,3.06.25,6.31-4.14,8.03ZM322.31,123.57c-11.47-4.98-20.35-2.28-28.08,4-9.6,7.8-7.93,19.68,3.03,25.42,7.1,3.72,11.72,2.69,15.12-4.51,3.68-7.8,6.44-16.03,9.94-24.91Z"/>
  <path class="cls-1" d="M193.36,178.5c9.98-7.94,21.96-9.49,34.5-8.51,1.14.09,2.63,1.21,3.18,2.26,3.22,6.17,7.09,12.2,9.07,18.78,3.51,11.73-1.72,22.7-13.01,30.19-13.16,8.72-34.4,4.13-42.45-9.39-7.27-12.21-2.51-26.08,8.71-33.33ZM203.07,183.89c-2.24,3.11-4.81,6.08-6.67,9.44-1.72,3.11-1.39,6.5.92,9.46,3.65,4.69,13.83,6.66,18.4,2.85,6.92-5.77,11.3-13.16,10.65-22.62-.37-5.5-2.51-7.32-7.61-5.71-5.28,1.67-10.26,4.25-15.7,6.57Z"/>
  <path class="cls-1" d="M118.38,208.87c9.47-15.18,16.75-31.21,24.25-47.16,6.49-13.81,17.99-22.72,31.5-29.02,16-7.47,29.61-17.96,41.37-31.03,9.95-11.05,21.96-19.04,36.13-23.63,18.45-5.98,37.43-9.47,56.65-11.77,2.49-.3,5.05-.35,7.55-.19,5.86.38,6.35.8,10.24,7.24-3.41-5.02-8.49-5.27-13.53-4.53-22.75,3.35-45.24,7.92-66.45,17.16-10.41,4.54-19.16,11.62-26.31,20.42-12.09,14.87-27.32,25.64-44.17,34.25-11.88,6.07-21.08,14.58-26.96,26.67-6.03,12.38-13.19,24.07-22.57,34.24-2.4,2.6-5.12,4.9-7.7,7.34Z"/>
  <path class="cls-1" d="M92.29,284.99c5.32,1.62,10.64,3.26,15.96,4.86,15.63,4.7,31.14,4.17,46.03-2.42,10.96-4.85,21.47-10.71,32.11-16.26,8.8-4.59,17.96-8.03,27.99-7.82,3.17.07,6.35,1.61,9.41,2.78.57.22.86,1.91.76,2.87-.05.47-1.27.85-1.98,1.22-.23.12-.56.1-.83.08-14.33-1.24-25.93,5.2-37.29,12.82-6.72,4.51-13.75,8.69-21.04,12.19-18.53,8.9-37.3,9.18-55.89-.01-5.44-2.69-10.65-5.83-15.97-8.77.25-.51.5-1.02.74-1.53Z"/>
</svg>