<?xml version="1.0" encoding="UTF-8"?>
<svg id="Layer_1" data-name="Layer 1" xmlns="http://www.w3.org/2000/svg" version="1.1" viewBox="0 0 372.25 350.82">
  <defs>
    <style>
      .cls-1 {
        fill: #000;
        stroke-width: 0px;
      }
    </style>
  </defs>
  <path class="cls-1" d="M91.92,295.56c-1.5,4.72-3.1,9.27-4.37,13.9-1.29,4.67-3.9,9.22-1.29,15.77,19.22,6.47,40.37,5.5,63.07,10.32-2.52-4.52-3.19-6.98-4.78-8.39-20.4-18.05-42.39-33.84-66.6-46.46-13.44-7-27.12-13.62-40.16-21.32-9.36-5.52-18.52-11.78-24.56-21.34-1.88-2.97-3.71-5.99-5.27-9.14-4.18-8.43-4.51-16.32,4.65-22.78-8.01-10.31-11.22-21.81-10.61-34.54.29-6.13,1.28-11.91,4.72-17.04,3.31-4.93,4.32-9.57,2.48-15.8-3.44-11.62-.82-17.33,10.25-22.15,10.54-4.59,14.75-11.96,14.96-23.02.24-12.46,5.87-22.26,16.58-28.96,2.99-1.87,5.81-4.01,8.84-5.8,7.47-4.4,13.3-9.79,16.41-18.47,3.1-8.65,8.68-11.48,17.67-8.99,8.15,2.26,13.64-.07,18.53-6.14,6.92-8.58,15.42-10.96,26.37-8.42,13.26,3.08,26.46,2.91,38.77-4.93,8.71-5.55,18.28-9.3,29.02-6.81,3.4.79,6.84,1.81,9.95,3.35,8.1,4,16.54,6.31,25.54,5.13,10.29-1.35,18.47,2.49,26.17,8.81,8.44,6.92,17.16,13.51,25.96,19.97,6.85,5.04,11.68,11.45,13.2,19.74,1.97,10.74,7.46,18.66,16.41,24.79,7.22,4.94,11.62,12.1,13.64,20.74,2.2,9.42,5.97,18.05,13.32,24.76,1.28,1.17,2.57,2.64,3.12,4.23,4.35,12.6,9.12,25.11,12.53,37.98,1.87,7.05-1.56,13.94-5.93,19.69-5.76,7.58-11.79,14.95-17.93,22.23-10.01,11.86-19.94,23.8-30.37,35.29-16.2,17.84-34.81,32.95-54.56,46.71-15.62,10.89-31.19,21.84-46.75,32.81-1.99,1.4-3.88,2.99-5.62,4.69-15.72,15.22-34.82,16.86-52.73,4.5-.86-.59-1.75-1.15-2.06-1.36-14.02,2.43-27.41,5.28-40.95,6.88-6.85.81-14.15.24-20.93-1.23-18-3.89-20.77-14.13-18.48-27.66,1.31-7.74,5.44-14.47,10.65-20.38,2.53-2.87,5.52-4.32,11.15-1.17ZM19.13,221.46c1.57,2.62,3.11,5.74,5.14,8.49,6.83,9.25,15.97,15.87,25.72,21.65,9.71,5.76,19.62,11.16,29.34,16.9,28.53,16.83,53.75,37.54,73.67,64.22,4,5.35,9.11,7.44,15.4,7.68,21.11.78,37.45-7.95,49.76-24.84,11.25-15.44,22.93-30.64,38.63-41.82,20.14-14.36,39.88-29.11,57.83-46.2,9.2-8.76,19.28-16.6,28.32-25.51,8.98-8.86,13.72-19.88,10.86-32.69-1.76-7.85-4.66-15.49-7.52-23.04-1.22-3.22-3.16-6.5-5.64-8.83-6.97-6.54-11.18-14.61-13.51-23.57-2-7.7-6.3-13.57-12.71-17.58-11.33-7.08-17.13-17.44-19.54-30.09-1.06-5.54-3.96-9.64-8.39-12.97-9.01-6.78-18.07-13.51-26.8-20.63-5.83-4.75-11.96-7.16-19.5-5.72-7.83,1.5-15.37-.08-22.66-2.88-20.46-7.86-16.45-8.27-35.48,1.47-13.93,7.13-28.26,8.94-42.83,3.52-8.94-3.32-15.69-2.42-21.1,5.59-.19.29-.49.51-.73.77-5.68,6.16-12.3,9.05-20.85,6.71-2.94-.8-6.19-.5-9.34-.7-1.34,2.38-2.65,4.09-3.33,6.02-2.74,7.82-8.35,12.87-15.37,16.73-4.32,2.38-8.49,5.04-12.84,7.38-9.06,4.87-12.96,12.87-13,22.65-.06,14.33-6.52,23.97-19.43,29.93-6.71,3.1-8.18,5.66-5.69,12.58,2.98,8.27.8,14.99-2.96,22.14-2.06,3.92-3.4,8.47-4,12.87-1.64,12.01,2.34,22.11,11.22,30.5,3.21,3.03,5.54,6.98,9.06,11.53-4.39,2.9-7.7,5.09-11.73,7.74Z"/>
  <path class="cls-1" d="M231.5,333.07c4.1-3.72,8.89-2.63,13.32-3.33,8.28-1.31,16.68-2.4,24.7-4.73,7.93-2.31,9.11-5,8.27-13.48-.43-4.35-1.41-8.64-2.41-14.57,9.16,4.67,14.75,10.09,17,18.24,1.97,7.12-1.15,14.5-8.05,17.71-5.32,2.47-11.2,4.36-17,5.03-10.88,1.26-21.75-.3-32.45-2.49-1.2-.24-2.18-1.5-3.38-2.37Z"/>
  <path class="cls-1" d="M214.62,287.73c6.63-12.71,13.14-25.49,19.9-38.12,11.84-22.1,25.36-43.16,41.56-62.3,8.4-9.93,17.75-19.12,27.24-28.03,3.72-3.49,8.96-5.38,13.58-7.86,1.21-.65,2.81-1.29,4.04-1.03,2.59.57,5.85,1.05,7.38,2.82,2.03,2.37.32,4.96-1.99,7.2-5.81,5.62-11.19,11.68-16.92,17.39-18.28,18.19-34.41,38.24-50.43,58.37-13.37,16.8-26.4,33.87-39.65,50.78-.77.98-2.07,1.56-3.12,2.32-.53-.52-1.05-1.03-1.58-1.55Z"/>
  <path class="cls-1" d="M114.61,55.39c26.38,54.34,39.33,111.87,50.41,169.85,4.01,20.99,7.81,42.13,10.55,63.36-.78.16-1.57.33-2.35.49-2.49-9.28-5.14-18.51-7.43-27.84-11.76-47.81-25.51-95.05-39.7-142.18-5.47-18.16-9.88-36.63-14.67-54.99-.52-1.99-.63-4.21-.3-6.22.14-.84,1.92-1.42,3.48-2.47Z"/>
  <path class="cls-1" d="M159.01,292.35c-3.05-2.25-5.07-3.33-6.58-4.91-20.98-21.91-41.82-43.96-62.84-65.83-11.25-11.7-22.7-23.22-34.28-34.61-2.98-2.93-6.68-5.17-10.19-7.51-2.6-1.73-4.21-3.88-3.35-6.99,1.03-3.75,3.51-6.34,7.64-5.91,3.09.32,6.49.79,9.04,2.35,5.67,3.48,11.31,7.24,16.22,11.69,16.8,15.23,30.85,32.95,44.31,51.08,12.18,16.41,23.74,33.27,35.57,49.94,1.94,2.73,4.38,5.26,4.47,10.7Z"/>
  <path class="cls-1" d="M250.78,55.77c-.52,2.96-.74,6.02-1.6,8.88-5.09,16.84-11.05,33.46-15.36,50.49-9.15,36.12-17.47,72.46-26.12,108.7-1.83,7.65-3.66,15.3-5.48,22.96-3.41-5.38-2.7-10.86-2.23-16.17.9-10.14,2.69-20.21,3.45-30.36,3.01-40.32,12.54-79.18,26.31-117.04,2.74-7.54,7.13-14.54,11.27-21.48,1.68-2.83,4.73-4.84,7.15-7.23.88.41,1.75.83,2.63,1.24Z"/>
  <path class="cls-1" d="M181.68,261.1c-1.03-6.82-2.38-13.6-3.04-20.45-1.79-18.54-3.7-37.08-4.77-55.67-1.09-18.98-2.34-38.05-1.5-57,1.04-23.47,1.85-47.12,8.03-70.07.82-3.04,1.67-6.11,2.96-8.97.6-1.33,2.28-2.17,4.94-4.54,0,5.66.17,9.42-.04,13.15-.4,7.37-1.11,14.73-1.5,22.11-1.32,25.32-3.04,50.63-3.7,75.97-.66,25.39-.71,50.83-.01,76.22.27,9.76,1.71,19.46-1.37,29.25Z"/>
  <path class="cls-1" d="M154.29,257.08c-5.24-9.45-10.59-18.83-15.7-28.35-19.83-36.93-41.35-72.84-64.27-107.93-2.88-4.41-5.26-9.15-7.65-13.86-.7-1.39-.64-3.17-1.4-7.41,6.68,5.91,12,9.73,16.23,14.5,21.17,23.92,37.69,50.89,50.42,80.11,8.4,19.3,15.9,39,23.76,58.53.46,1.14.51,2.44.75,3.67-.71.24-1.43.49-2.14.73Z"/>
  <path class="cls-1" d="M296.44,101.1c-.2,1.75.19,3.89-.68,5.19-28.35,42.24-51.28,87.39-72.02,133.72-3.82,8.52-8.02,16.87-12.67,25.06-.88-4.84,1.48-8.81,2.96-12.99,10.78-30.5,21.85-60.91,36.55-89.8,7.99-15.69,16.49-31.15,27.49-45.03,4.99-6.3,10.72-11.8,18.38-16.16Z"/>
</svg>