<?xml version="1.0" encoding="UTF-8"?>
<svg id="Layer_1" data-name="Layer 1" xmlns="http://www.w3.org/2000/svg" version="1.1" viewBox="0 0 372.25 308.78">
  <defs>
    <style>
      .cls-1 {
        fill: #000;
        stroke-width: 0px;
      }
    </style>
  </defs>
  <path class="cls-1" d="M279.16,77.66c8,0,15.91-.63,23.68.12,20.85,2.02,38.15,10.84,48.84,29.47,7.31,12.73,10.63,26.7,8.94,41.61-1.62,14.26.12,28.22,4.05,41.97,1.29,4.52,2.25,9.13,3.36,13.7,4.11,16.78-.74,31.13-12.39,43.27-15.56,16.21-34.94,23.89-57.24,25.1-16.81.91-32.53-2.19-46.87-11.24-2.52-1.59-4.8-3.55-7.73-5.73,3.89-3.16,6.69-1.82,9.66-.95,10.28,3.01,20.7,5.31,31.53,4.38,19.35-1.66,36.72-7.85,50.84-21.84,8.94-8.86,11.59-18.9,7.59-30.99-4.34-13.11-8.69-26.31-8.56-40.37.06-6.56.74-13.11.74-19.67,0-5.63.32-11.49-1.03-16.86-3.9-15.54-12.75-25.9-36.43-28.69-7.36-.86-15,.57-22.51,1-3.1.18-6.2.48-10.13.78-3.78,14.65-13.11,25.99-23.34,36.7-.67.71-2.14.66-3.77,1.11,2.96-9.89,5.92-19,8.39-28.24,2.99-11.18,5.35-22.52,8.43-33.67,1.22-4.43.37-8.12-1.93-11.62-10.98-16.75-25.7-28.33-45.71-32.26-20.48-4.03-41.19-5.14-61.96-3.82-17.48,1.11-33.12,7.48-45.98,19.45-9.08,8.45-18.57,15.87-30.37,20.2-11.45,4.21-17.8,13.58-22.47,24.17-2.4,5.44-4.1,11.2-6.22,16.77-.72,1.89-1.78,3.65-2.94,5.97-1.01-1.38-1.95-2.08-2-2.83-.81-12.25-1.2-24.47,2.12-36.51,3.7-13.42,12.27-22.61,24.85-27.82,7.44-3.08,13.77-7.37,19.47-12.93,18.7-18.22,41.52-26.71,67.28-27.57,24.27-.8,48.42.73,71.89,7.47,23.24,6.68,40.15,21.71,51.96,42.43,2.86,5.02,3.77,11.16,5.95,17.95Z"/>
  <path class="cls-1" d="M100.5,230.48c-24.62-2.62-29.96-23.03-26.98-36.79,1.42-6.54,4.21-12.53,8.47-17.7,4.71-5.71,6.2-11.62,4.59-19.2-2.15-10.07-5.11-20.05-4.69-30.64.38-9.43,3.86-17.11,10.65-23.32,17.71-16.19,49.99-17.94,66.47-8.55,7.17,4.09,8.92,5.3,16.98,15.55,18.6-1.92,33.38,7.33,47.29,18.66,9.31,7.58,14.55,17.14,14.12,29.43-.82,23.55-.96,47.19-5.85,70.35-5.62,26.64-22.4,42.87-48.53,49.61-6.67,1.72-13.52.87-19.45-1.94,4.99-1.09,9.48-1.77,13.79-3.07,24.11-7.27,37.81-23.24,41.23-48.44,2.77-20.43,1.19-40.85,1.22-61.28.01-9.72-4.03-17.7-12.37-23-5.56-3.53-11.23-6.96-17.14-9.83-4.5-2.18-9.09-2.83-14.34-.33-7.45,3.55-13.1.74-14.14-6.7-1.49-10.72-8.91-14.95-17.87-16.65-10.99-2.09-21.93-.99-32.09,4.55-10.91,5.95-14.22,12.77-11.84,24.84,1.22,6.15,1.95,12.42,3.5,18.48,3.11,12.11-.66,22.43-8.03,31.61-5.21,6.49-7.37,13.63-7.6,21.76-.21,7.47,2.06,13.55,8.19,18.05,1.2.88,2.11,2.15,4.4,4.55Z"/>
  <path class="cls-1" d="M23.28,120.83c7.31,2.87,9.52,7.09,9.62,11.85.12,5.88-.38,11.91-1.65,17.65-1.06,4.83-3.54,9.36-5.5,13.98-2.46,5.78-5.55,11.35-7.45,17.31-6.45,20.22-1.54,28.47,11.25,40.39,5.73,5.34,12.18,9.97,18.61,14.48,9.31,6.54,13.65,15.31,13.29,26.57-.07,2.2.03,4.41-.01,6.62-.22,10.72,5.02,14.54,13.89,15.69,6.45.84,13.23.4,19.72-.53,10.85-1.56,21.54-4.2,32.38-5.92,4.75-.75,9.85-1.59,15.28,1.69-12.76,8.67-24.26,17.85-39.09,21.07-11.44,2.48-23.02,3.64-34.48,1.01-16.2-3.72-25.61-14.46-25.08-30.64.05-1.57-.23-3.2.06-4.72,1.8-9.33-2.8-15.38-9.72-20.8-6.67-5.23-12.98-10.97-19.07-16.88C.84,215.61-1.82,196.88,6.66,178.57c3.82-8.25,8.83-15.95,13.16-23.97,1.78-3.3,3.49-6.7,4.74-10.23,1.71-4.81,2.19-9.73.28-14.75-.81-2.14-.85-4.58-1.56-8.8Z"/>
  <path class="cls-1" d="M170.33,177.32c-.88.8-1.76,1.6-3.23,2.94-1.3-1.74-2.44-3.43-3.75-4.97-3.23-3.8-6.11-8.07-9.93-11.15-5.6-4.52-11.3-3.95-15.83,1.62-6.05,7.44-10,16.06-9.77,25.91.18,7.73,4.81,12.63,11.43,15.86,12.59-1.92,12.67-12.97,15.61-21.99,9.24,9.17,7.88,20.33-2.7,25.66-5.56,2.8-11.09,4.05-16.99.47-2.91-1.76-6.41-2.52-9.49-4.04-6.76-3.33-10.5-9.16-11.36-16.36-1.82-15.24,3.7-27.85,15.56-37.38,8.12-6.53,16.99-7.36,26.13-1.52,2.89,1.84,6.02,3.49,9.25,4.6,14.71,5.09,22.02,16.43,24.78,30.7,5.35,27.67-12.09,50.75-40.33,55.26-11.82,1.89-22.45-.05-32.19-6.63-2.14-1.44-3.92-4.14-4.68-6.63-.46-1.49.88-4.33,2.3-5.4,2.02-1.53,3.75-.51,4.93,2.19.75,1.72,2.87,3.25,4.73,4,18.06,7.27,45.87-2.35,48.98-28.18.73-6.04-1.02-12.39-1.8-18.58-.27-2.16-1.08-4.25-1.64-6.37Z"/>
  <path class="cls-1" d="M267.17,179.41c6.23-5.55,11.77-10.44,17.25-15.38,5.82-5.25,11.91-10.24,17.27-15.92,5.08-5.38,9.36-11.51,13.97-17.28,5.52,2.5,5.1,6.38,4.2,10.01-1.93,7.77-5.87,14.5-11.71,20.01-10.52,9.93-23.18,15.81-37.07,19.25-.78.19-1.73-.28-3.9-.69Z"/>
  <path class="cls-1" d="M178.12,97.8c-.27-2.27-1.2-4.71-.68-6.8,2.4-9.75.05-19.3-1.04-28.85-.36-3.2-2.73-6.18-4.19-9.25-1.84-3.89-.32-6.94,3.88-7.37,4.33-.44,7.85,1.03,10.61,4.61,4.95,6.4,6.29,13.77,4.8,21.29-1.87,9.46-5.66,18.33-11.08,26.37-.77,0-1.53,0-2.3,0Z"/>
  <path class="cls-1" d="M280.32,224.59c13.06-10.79,30.37-15.68,41.64-30.47,3.52,5.79,2.93,9.92-.18,13.9-5.13,6.58-11.42,11.63-19.6,13.81-6.83,1.82-13.77,3.27-20.66,4.89-.4-.71-.81-1.41-1.21-2.12Z"/>
  <path class="cls-1" d="M33.47,181.91c-5.41-5.06-5.77-8.1-1.83-12.99,6.19-7.68,14.54-11.65,24.06-13.16,3.3-.52,6.75-.08,11.58-.08-11.56,9.42-26.45,12.47-33.82,26.23Z"/>
  <path class="cls-1" d="M158.03,74.62c-5.1.19-7.84-2.13-8.07-6.82-.23-4.82,3.15-8.6,7.7-8.63,4.08-.02,7.71,3.56,7.74,7.66.04,4.66-2.75,7.61-7.37,7.79Z"/>
  <path class="cls-1" d="M117.28,81.8c-9.01-4.72-13.61-12.74-19.87-19.13,2.92-2.91,5.22-1.76,7.39-.49,5.82,3.4,10.09,10,12.48,19.62Z"/>
</svg>