<?xml version="1.0" encoding="UTF-8"?>
<svg id="Layer_1" data-name="Layer 1" xmlns="http://www.w3.org/2000/svg" version="1.1" viewBox="0 0 299.05 308.78">
  <defs>
    <style>
      .cls-1 {
        fill: #000;
        stroke-width: 0px;
      }
    </style>
  </defs>
  <path class="cls-1" d="M29.57,145.38c11.66,5.65,25.32,8.21,37.24,12.01,14.28,4.56,26.44,12.32,35.52,24.47,5.28,7.07,7.36,14.8,6.41,23.81-1.64,15.47-7.77,29.37-13.79,43.35-2.94,6.83-5.36,13.79-6.65,21.13-.94,5.34-.45,10.6,1.21,15.68,2.08,6.38,5.84,7.53,10.97,3.3,2.6-2.14,4.81-4.77,7.15-7.23,4.24-4.45,8.4-8.98,12.67-13.39,2.22-2.3,4.82-4.06,8.02-4.41,2.42,1.49,1.13,3.06.18,4.35-2.88,3.92-5.93,7.73-8.87,11.61-3.71,4.89-7.39,9.81-11.09,14.72-.51.68-.97,1.4-1.56,2-9.97,10.14-21.61,7.67-27.47-2.99-4.69-8.53-5.39-17.74-3.99-27.15,1.42-9.5,5.09-18.31,8.87-27.06,4.29-9.91,8.27-19.9,10.37-30.58,1.77-8.96.15-16.63-6.44-23.34-6.51-6.64-14.03-11.46-22.53-15.09-5.63-2.4-10.9-5.61-16.46-8.19-4.77-2.21-9.7-4.06-14.58-6-7.51-3-14.62-6.74-21.15-11.52-5.42-3.96-9.63-8.75-11.45-15.51-3.32-12.32,3.06-21.8,15.84-22.64,14.45-.95,28.75-.09,42.78,4.01,9.92,2.9,19.98,5.33,29.96,8.01.56.15,1.02.68,2.29,1.55-1.73.21-2.78.5-3.81.44-12.67-.71-25.34-1.52-38.01-2.22-10.15-.56-20.3-1.2-30.46-1.43-10.8-.24-10.04,4.57-9.35,11.49.14,1.42.65,3.03,1.53,4.11,4.56,5.61,10.32,9.61,16.66,12.68Z"/>
  <path class="cls-1" d="M237.39,196.95c-9.33-11.49-17.69-22.06-19.54-36.12-.88-6.69.68-13.05,3.4-19.15,3.85-8.62,9.38-16.11,15.76-22.96,9.27-9.96,19.57-18.8,30.26-27.18,5.73-4.49,10.9-9.45,14-16.2,1.26-2.74,2.64-5.72.75-8.43-1.93-2.77-5.39-2.68-8.21-1.95-6.73,1.75-13.45,3.7-19.96,6.13-9.7,3.61-19.17,7.85-28.86,11.51-5.9,2.23-11.98,3.99-18.05,5.73-1.97.57-4.16.4-6.45-.19,1.4-.54,2.81-1.04,4.19-1.62,8.56-3.6,17.17-7.08,25.64-10.87,10.42-4.67,20.67-9.71,31.1-14.36,3.45-1.54,7.21-2.4,10.86-3.45,1.41-.41,2.9-.62,4.37-.69,11.58-.53,18.29,7.6,15.67,18.84-1.52,6.52-4.52,12.32-8.57,17.57-2.45,3.18-5.22,6.12-7.98,9.05-8.72,9.27-17.67,18.32-26.2,27.76-6.28,6.96-11.39,14.78-13.92,23.99-2.88,10.5-1.9,20.95.39,31.42.7,3.17,2.67,6.23,1.32,11.18Z"/>
  <path class="cls-1" d="M134.72,258.31c-.25-1.18-.64-1.87-.44-2.27,5.18-10.41,9.83-21.07,17.69-29.96,7.05-7.97,15.62-13.02,26.06-14.36,6.77-.87,12.99,1.43,17.96,6.3,4.85,4.74,9.65,9.55,14.25,14.53,6.98,7.56,15.13,13.48,24.19,18.31,6.16,3.28,12.07,7.03,18.24,10.28,2.57,1.36,5.46,2.38,8.33,2.87,6.65,1.12,10.67-2.26,9.22-9.29-1.37-6.61-4.72-12.17-8.25-17.68-3.41-5.34-7.06-10.53-10.46-15.88-2.31-3.64-2.36-4.45-1.82-8.73,7.85,11.34,17.32,20.73,23.66,32.44,2.22,4.09,4.06,8.37,4.18,13.18.19,8.15-4.65,13.71-12.84,14.43-4.89.43-9.71.25-14.28-2.01-13.85-6.82-28.09-13-40.41-22.46-6.53-5.02-12.4-10.9-18.5-16.48-6.93-6.33-10.91-6.91-19.48-2.67-11.55,5.72-21.14,13.97-30.17,23-2.15,2.15-4.06,4.66-7.13,6.44Z"/>
  <path class="cls-1" d="M187.16,97.32c-5,1.34-9.03-.45-12.94-1.48-9.48-2.48-16.79-8.23-20.98-17.14-3.51-7.45-6.4-15.2-9.27-22.93-2.43-6.54-4.34-13.27-6.65-19.86-2.19-6.24-5.02-12.18-10.19-16.6-1.88-1.61-4.06-2.85-6.74-4.69-1.31,2.35-2.73,4.01-3.18,5.91-1.12,4.71-2.21,9.49-2.57,14.3-.95,12.73.98,25.36,1.89,38.03.21,2.95.48,5.95.21,8.88-.62,6.73-1.21,13.49-2.45,20.12-1.35,7.26-5.96,17.02-13.2,19.71.45-1.24.56-2.15,1.05-2.77,4.29-5.49,6.39-11.77,7.46-18.6,2.06-13.15.91-26.15-1.2-39.15-1.81-11.14-2.15-22.36-1.38-33.6.35-5.07,1.6-10.04,4.07-14.57,2.93-5.37,8.27-7.42,13.95-5.29,5.12,1.92,9,5.5,12.32,9.74,3.94,5.04,6.74,10.69,9.22,16.58,6.09,14.44,12.41,28.77,21.18,41.89,4.05,6.07,8.93,11.29,14.12,16.3,1.65,1.59,3.26,3.22,5.29,5.22Z"/>
  <path class="cls-1" d="M123.93,159.17c-5.34.03-9.21-2.91-11-7.88-1.24-3.45-.5-6.34,1.96-8.7,2.44-2.34,5.2-3.56,8.52-1.12.74.54,2.29.05,3.46-.09,6.01-.74,10.12,4.25,8.23,10.04-1.53,4.69-5.89,7.71-11.17,7.74ZM123.4,147.33c.32-.13.63-.25.95-.38-.13-.13-.26-.36-.4-.36-.33-.02-.66.07-.99.12.14.21.29.41.44.62Z"/>
  <path class="cls-1" d="M209.25,110.19c1.18-1.12,2.27-2.43,3.62-3.4,2.65-1.89,5.89-1.84,8.31-.12,2.28,1.62,3.39,4.97,2.62,7.96-1.66,6.5-10.3,11.1-16.67,8.85-.98-.35-1.99-.76-2.82-1.36-2.99-2.16-4.24-5.89-3.14-8.96.95-2.63,3.33-3.52,8.08-2.97ZM211.48,112.24v.51h1.83v-.51h-1.83Z"/>
  <path class="cls-1" d="M207.25,191.98c.71-.21,1.48-.63,2.24-.61,3.48.06,6.22,2.32,6.77,5.43.53,3.01-1.27,6.52-4.36,7.66-3.8,1.4-7.53.91-10.75-1.66-3.21-2.56-4.71-5.96-3.93-10.07.75-3.98,5.56-5.97,8.89-3.67.65.45.71,1.74,1.13,2.91Z"/>
  <path class="cls-1" d="M228.74,212.29c-.14,2.49-.1,3.83-.31,5.14-.79,5.13,1.08,7.4,6.06,7.67,1.79.1,3.9.41,5.2,1.45,1.05.85,1.81,3.14,1.44,4.44-.7,2.48-2.71,4.15-5.49,4.62-7.52,1.26-14.5-5.12-14.11-13.22.2-4.07,1.6-7.68,7.2-10.1Z"/>
  <path class="cls-1" d="M190.26,123.09c4.04-.09,7.75,3.69,8.02,8.17.22,3.68-3.62,8.24-7.13,8.47-3.91.25-7.73-3.47-7.75-7.55-.03-4.98,3.01-9,6.86-9.09Z"/>
  <path class="cls-1" d="M146.8,108.72c3.87-.76,5.87,1.39,6.96,4.31.89,2.37-.16,4.68-2.04,6.26-2.46,2.08-5.48,2.34-8.38,1.22-5.36-2.07-7.15-10.21-3.11-14.35,1.04-1.07,2.91-1.89,4.37-1.86,2.48.06,1.13,2.71,2.2,4.41Z"/>
  <path class="cls-1" d="M115.49,239.82c-.75,2.9-1.45,5.59-2.2,8.5,2.05.76,3.7,1.12,5.07,1.94,3.69,2.19,4.66,5.92,2.58,9.13-1.57,2.42-4.74,3.54-7.13,2.23-4.41-2.43-5.51-6.68-5.5-11.27.01-5.73,1.96-8.54,7.17-10.53ZM115.1,254.27l.24-.44-.39-.04.16.48Z"/>
  <path class="cls-1" d="M184.32,165.9c.13,1.94.25,3.57.38,5.52.97.06,1.75.07,2.53.16,3.85.46,5.2,1.81,5.04,4.99-.15,2.89-2.28,5.06-5.27,5.36-2.74.28-5.08-.69-6.82-2.72-2.56-2.99-2.91-6.63-1.84-10.21.7-2.33,2.44-3.98,5.99-3.11Z"/>
  <path class="cls-1" d="M152.9,159.57c6.95,1.53,9.46,3.62,9.5,7.72.03,2.93-2.06,5.67-5.02,6.59-2.93.91-6.26-.61-7.96-3.64-1.8-3.21-.82-6.39,3.48-10.67ZM153.75,163.25c-.34.3-.68.6-1.02.9.57.74,1.14,1.48,1.72,2.22.26-.16.51-.32.77-.48-.49-.88-.97-1.76-1.46-2.65Z"/>
  <path class="cls-1" d="M134.15,76.08c2.25,1.34,3.92,2.43,5.67,3.35,3.05,1.61,4.5,4.22,3.81,7.11-.62,2.61-3.22,4.78-5.88,4.91-2.54.13-5.9-2.23-6.49-5.07-.78-3.75-.86-7.52,2.89-10.3Z"/>
  <path class="cls-1" d="M166.06,140.79c-4.47,2.13-4.35,2.77.12,6.37q4.35-2.08,3.35-6.64c2.18-1.07,4.22-.86,5.49,1.26,1.26,2.11,1.09,4.49-.11,6.64-1.55,2.76-6.44,4.51-9.39,3.5-3.69-1.27-6.51-5.19-6.23-8.64.21-2.52,1.45-3.1,6.77-2.49Z"/>
  <path class="cls-1" d="M141.48,199.99c-5.2.09-9.16-4.47-7.76-9.09.27-.88,1.85-2.23,1.9-2.19,2.49,1.97,4.89-.49,7.3-.08,3.27.56,5.24,3.15,4.85,6.36-.37,3.08-2.7,4.93-6.29,4.99Z"/>
  <path class="cls-1" d="M130.22,213.82c4.64-.04,7.12,2.07,7.11,6.04-.01,3.19-2.72,5.59-6.32,5.59-4.03,0-6.38-2.2-6.52-6.11-.14-4.03,1.36-5.48,5.73-5.52Z"/>
  <path class="cls-1" d="M233.77,92.08c2.11.86,3.7,1.83,5.41,2.11,1.74.29,3.22-.64,3.98-2.77-1.06-.85-2.13-1.7-3.23-2.58.33-.42.52-.9.76-.93,5.32-.69,6.86-.09,7.84,2.98.87,2.72-1.22,6.23-4.63,8.03-3.29,1.74-6.46,1.78-9.49-.47-2.08-1.54-2.19-3.22-.63-6.37Z"/>
  <path class="cls-1" d="M55.98,131.77c.97,2.3,1.57,4.27,2.6,5.98,1.03,1.73,2.07,3.43,4.7,3.59,3.15.2,4.24,1.52,3.96,3.47-.34,2.42-3.05,4.31-5.6,3.84-.6-.11-1.21-.34-1.76-.63-4.47-2.38-7.56-9.77-6.05-14.71.17-.56,1.17-.87,2.14-1.54Z"/>
  <path class="cls-1" d="M124.94,47.92c2.62,1.05,2.4,5.22,6.13,4.03,1.72-.55,3.2.9,3.66,2.76.58,2.34-.37,4.18-2.28,5.48-1.75,1.19-3.59,1.09-5.34-.1-3.3-2.25-4.22-6.89-2.17-12.17Z"/>
  <path class="cls-1" d="M91.49,143.8c-.23-1.96.49-3.74,2.52-3.43,1.35.21,3.08,1.7,3.52,3,.44,1.29-.05,3.42-.94,4.54-1.56,1.97-5.48,1.23-7.87-1.09-2.74-2.66-2.98-4.88-.72-7.55.2-.24.77-.16,1.53-.29-.3,2.01-.79,4.25,2.12,4.66.26.2.52.4.77.6-.31-.15-.62-.29-.93-.44Z"/>
  <path class="cls-1" d="M269.57,82.87c-2.5-2.47-4.68-4.63-6.88-6.81q2.35-2.07,6.46-3.05c5.06,4.8,5.1,5.09.42,9.85Z"/>
</svg>