<?xml version="1.0" encoding="UTF-8"?>
<svg id="Layer_1" data-name="Layer 1" xmlns="http://www.w3.org/2000/svg" version="1.1" viewBox="0 0 230.19 308.78">
  <defs>
    <style>
      .cls-1 {
        fill: #000;
        stroke-width: 0px;
      }
    </style>
  </defs>
  <path class="cls-1" d="M207.99,44.68c1.76,7.95.09,13.77-1.38,19.59-1.75,6.95-3.71,13.85-5.26,20.84-1.73,7.82.55,14.73,5.56,20.85,2.02,2.48,4.02,4.98,5.9,7.57,4.88,6.72,7.35,14.18,6.2,22.54-.94,6.86-1.81,13.76-3.24,20.53-1.82,8.61-1,16.86,1.5,25.21,1.82,6.09,3.18,12.37,4.14,18.65,1.68,10.97-.7,21.58-6.6,30.65-16.46,25.32-37.4,45.73-66.46,56.3-12.46,4.53-25.34,5.72-38.55,4.63-4.17-.34-8.51-.04-12.62.76-20.4,3.98-37.18-3.23-47.54-21.07-3.2-5.51-5.75-11.4-8.51-17.16-.51-1.06-.59-2.33.23-4.09,1.41,1.36,2.82,2.72,4.23,4.07,4.98,4.79,9.6,10.04,15.02,14.28,10.5,8.22,22.36,10.4,35.42,6.83,4.53-1.24,9.52-1.73,14.19-1.32,23.74,2.1,44.07-5.9,61.96-20.73,7.36-6.1,14.09-13.02,20.78-19.87,12.17-12.46,16.46-27.3,11.33-44.08-4.56-14.9-3.79-29.31,1.25-43.88,1.54-4.46,2.19-9.41,2.27-14.15.06-3.58-1.11-7.29-2.32-10.74-.86-2.46-2.45-4.76-4.11-6.82-9.55-11.87-9.62-24.84-4.69-38.44,3.53-9.73,7.1-19.44,11.31-30.95Z"/>
  <path class="cls-1" d="M39.13,243.47c-9.96-10.34-19.4-21.07-26.48-33.74-10.26-18.37-7.32-41.64,6.61-55.51,4.51-4.48,6.93-10.1,8.28-16.13,1.53-6.84,4.9-12.46,10.6-16.36,7.25-4.97,12.32-11.69,16.79-19.02,11.53-18.91,27.9-32.72,46.43-44.26,8.03-5.01,16.77-8.29,26.13-9.38,10.94-1.28,19.52-6.41,26.87-14.31,5.08-5.46,10.17-10.96,15.77-15.85,8.39-7.32,18.06-12.35,29.48-12.83,3.12-.13,6.47.15,9.4,1.17,5.45,1.9,6.9,5.89,4.77,11.41-.53,1.38-1.26,2.69-2.56,5.44-1.14-3.79-1.85-6.18-2.68-8.94-5.47-1.26-10.42.6-15.23,2.75-7.96,3.57-14.13,9.42-19.66,16.02-4.28,5.1-8.42,10.34-12.98,15.18-7.09,7.51-15.52,13.13-25.77,15.23-24.44,5.02-41.56,20.65-56.86,38.89-3.4,4.06-6.12,8.72-9,13.2-4.82,7.51-10.66,14.02-18.34,18.64-4.55,2.73-7.55,6.44-9.51,11.37-2.48,6.24-6.05,11.84-11.46,16.1-10.58,8.32-13.11,19.62-11.44,32.23,1.79,13.52,8.13,25.24,15.16,36.63,2.33,3.78,4.7,7.53,7.05,11.29-.46.26-.92.53-1.38.79Z"/>
  <path class="cls-1" d="M72.72,260.84c-4.07-2.41-8.35-4.52-12.15-7.29-8.41-6.11-12.79-14.44-10.89-24.89,1.22-6.74-.38-11.89-5.11-16.6-2.43-2.42-4.47-5.3-6.34-8.2-5.9-9.08-6.7-19.02-3.74-29.15,1.79-6.11,6.01-10.53,12.14-12.96,3.7-1.46,7.45-2.94,10.86-4.95,5.74-3.37,8.9-8.52,7.98-15.33-1.31-9.7,2.99-16.41,10.64-21.56,1.99-1.34,4.2-2.38,6.03-3.89,4.48-3.71,9.3-7.17,13.07-11.53,6.66-7.69,13.46-15.08,22.12-20.59,6.29-4,12.86-6.26,20.42-4.42,8.35,2.03,15.74-.5,22.63-5.15,6.28-4.23,11.38-9.58,15.34-16.03,1.11-1.81,2.12-3.71,3.41-5.39,3.39-4.41,7.13-5.5,11.04-3.43,3.76,1.99,5.91,7.42,4.16,11.81-2.33,5.84-5.7,11.12-10.72,17.1.68-9.02,7.76-15.69,3.74-24.06-4.21.57-5.33,3.89-7.04,6.38-5.36,7.81-11.86,14.34-20.21,18.91-6.27,3.43-13,5.28-19.98,3.29-5.56-1.58-9.95.37-14.27,3.05-6.83,4.25-12.87,9.46-17.68,15.98-1.58,2.14-3.25,4.23-4.69,6.46-4.7,7.27-10.5,13.43-17.97,17.86-6.44,3.82-9.87,8.97-9.88,16.84,0,12.78-7.45,20.54-18.8,25.11-.25.1-.51.17-.76.26-4.99,1.85-10.55,3.19-12.31,9.09-2.12,7.14-1.86,14.32,2.09,20.86,2.19,3.63,4.87,7,7.61,10.25,4.19,4.98,6.15,10.37,4.85,16.97-2.46,12.42,1.51,22.52,11.59,30.23,1.43,1.1,2.63,2.49,3.94,3.75-.37.4-.74.8-1.11,1.2Z"/>
  <path class="cls-1" d="M97.04,238.84c-15.09-.99-31.05-16.35-23.38-42.17,1.33-4.49,3.87-8.75,6.46-12.71,3.79-5.79,9.34-9.43,16.25-10.57,6.81-1.13,13.19-.38,18.37,4.96.83.86,2.3,1.27,3.54,1.53,11.06,2.29,19.16,8.07,21.68,19.55,2.69,12.23-1.17,22.62-10.57,30.75-8.97,7.76-19.54,10.36-32.35,8.67ZM99.68,180.89c-3.78-.75-6,1.81-8.05,4.16-4.91,5.62-7.24,12.45-7.26,19.76-.04,15.09,10.3,22.7,24.98,18.79,1.03-.27,2.04-.6,3.03-.98,13.75-5.18,16.65-19.2,5.77-29.01-3.1-2.8-7-4.75-10.66-6.86-2.05-1.18-4.49-1.7-6.51-2.93-.82-.5-1-2.06-1.48-3.14.24-.06.49-.1.7-.2.11-.06.16-.25.23-.38-.26.27-.51.53-.77.8ZM108.63,179.87c-.79-.59-1.13-1.06-1.43-1.04-.88.06-1.76.31-2.63.49l4.07.55Z"/>
  <path class="cls-1" d="M92.23,265.96c14.98-3.46,28.2-6.26,41.27-9.67,4.81-1.26,9.43-3.62,13.79-6.1,5.06-2.87,7.55-7.51,6.22-13.47-2.61-11.62.31-21.85,6.46-31.84,8.25-13.43,10.56-28.08,7.37-43.71-1.91-9.35-3.45-18.83-1.52-28.49,2.4-12.01,7.92-22.47,15.37-32,.77-.99,2.36-1.34,4.01-2.22-3.64,8.15-7.11,15.5-10.2,22.99-3.75,9.09-4.49,18.52-2.29,28.14.95,4.15,1.83,8.31,2.71,12.47,3.12,14.74,2.18,29.07-4.39,42.83-1.37,2.88-2.41,5.95-4.02,8.68-3.44,5.82-4.03,11.85-2.87,18.43.73,4.12,1.13,8.56.38,12.62-1.38,7.5-6.14,12.75-13.04,16.14-9.56,4.7-19.89,5.76-30.24,6.38-7.93.48-15.92.14-23.88.07-1.22-.01-2.43-.57-5.13-1.26Z"/>
</svg>