<?xml version="1.0" encoding="UTF-8"?>
<svg id="Layer_1" data-name="Layer 1" xmlns="http://www.w3.org/2000/svg" version="1.1" viewBox="0 0 418.4 841.89">
  <defs>
    <style>
      .cls-1 {
        fill: #000;
        stroke-width: 0px;
      }
    </style>
  </defs>
  <path class="cls-1" d="M326.53,191.18c-1.08-.99-2.04-2.18-3.26-2.95-4.21-2.65-8.52-5.17-13.5-8.16,1.48-.38,2.24-.74,3-.75,6.91-.05,13.6,1.2,20,3.75,2.08.82,4.12,2.05,5.78,3.53,3.29,2.94,3.64,6.76.84,10.11-1.27,1.52-1.27,2.75-1.04,4.49,3.27,24.61-4.58,46.05-18.99,65.54-2.66,3.6-6.14,6.34-10.39,7.88-1.63.59-2.34,1.34-2.43,3.2-.64,12.75-2.7,25.31-4.98,37.85-.08.43-.05.87-.09,1.63,2.69.43,5.33.93,7.98,1.28,12.16,1.6,24.33,3.14,36.5,4.73,9.82,1.29,19.47,3.28,28.22,8.19,2.74,1.54,5.45,3.41,7.62,5.66,4.97,5.14,4.39,11.91-1.39,16.18-2.64,1.96-5.71,3.48-8.79,4.67-8.96,3.47-18.41,5.03-27.88,6.35-17.59,2.45-35.27,3.99-53.02,4.8-8.79.4-17.58.95-26.37,1.4-3.86.2-4.14.18-4.13,3.73.04,13.36.19,26.72.47,40.07.11,5.15.7,10.29,1.03,15.44.73,11.36,1.44,22.72,2.16,34.09,1.09,17.42,2.18,34.84,3.26,52.27.74,11.82,1.28,23.65,2.24,35.45,1.19,14.67,2.61,29.32,4.15,43.96,1.11,10.56,2.36,21.12,3.92,31.62,4.57,30.84,10.95,61.24,22.73,90.26,6.37,15.7,14.29,30.52,25.5,43.39,7.08,8.13,15.19,14.87,25.44,18.65,13,4.78,24.36,1.75,34.76-7.49-1.02-1.16-1.89-2.15-2.76-3.15-3.39-3.88-7.25-7.45-10.08-11.71-6.17-9.31-8.1-19.55-4.54-30.39,2.04-6.21,5.95-10.91,12.25-13.23,7.88-2.91,17.44-.05,22.96,6.78,4.72,5.84,6.57,12.74,6.36,19.99-.54,18.21-8.61,32.75-23.26,43.29-14.89,10.71-30.72,9.96-46.46,1.82-10.71-5.54-19.1-13.91-26.39-23.4-11.96-15.59-20.15-33.15-26.65-51.57-7.03-19.95-11.83-40.46-15.45-61.27-3.43-19.74-6.01-39.6-7.49-59.59-1.28-17.25-2.57-34.51-3.58-51.78-.84-14.55-1.3-29.12-1.88-43.68-.63-15.78-1.19-31.56-1.8-47.34-.5-12.89-1.29-25.78-1.45-38.68-.12-9.55.51-19.12.91-28.67.11-2.68.59-5.35.88-7.82-.62-.42-.87-.73-1.11-.73-8.2.03-16.4.08-24.6.15-.45,0-.9.1-1.35.16-3.15.48-3.28.64-3.25,3.64.03,2.88.12,5.77.03,8.65-.6,20.49-1.21,40.98-1.88,61.47-1.27,38.58-1.1,77.16-.69,115.74.22,20.66.63,41.31,1.1,61.97.52,22.62,1.31,45.24,1.78,67.87.39,19.13.59,38.27.68,57.41.05,11.7-.84,23.37-2.77,34.92-1.31,7.81-3.37,15.42-7.38,22.36-.46.79-.93,1.57-1.44,2.32-9.05,13.4-25.32,16.12-38.12,6.24-9.66-7.46-14.67-17.56-16.05-29.56-.72-6.26-.51-12.5,1.95-18.36,1.27-3.03,2.98-6,5.03-8.57,6.68-8.41,20.21-7.74,25.59,1.56.84,1.44,1.79,2.82,2.63,4.26.09.16-.15.52-.33,1.05-1.74-.28-2.57-1.87-3.82-2.78-1.97-1.44-3.86-2.96-6.46-3.05-4.51-.16-7.49,2.18-9.38,6-2.54,5.15-3.42,10.71-3.09,16.38.48,8.13,3.19,15.41,9.11,21.26,2.3,2.27,4.89,4.1,8.05,4.96,4.41,1.2,8.43.49,11.91-2.59,2.9-2.57,4.84-5.79,6.35-9.33,3.15-7.34,4.44-15.1,5.43-22.95,1.96-15.56,1.96-31.21,1.93-46.85-.04-20.81-.17-41.63-.37-62.44-.26-26.58-.82-53.16-.9-79.74-.09-27.34.07-54.68.46-82.02.23-15.94,1.03-31.87,1.72-47.79.48-11.07,1.14-22.12,1.86-33.18.82-12.56,1.77-25.11,2.72-37.66.27-3.59.69-7.17,1.1-11.27h-46.4c-.09,1.29-.24,2.76-.28,4.23-.39,13.81-.68,27.63-1.15,41.44-.53,15.63-1.18,31.25-1.85,46.87-.48,11.22-.97,22.44-1.64,33.65-.74,12.42-1.69,24.82-2.52,37.23-.39,5.9-.62,11.82-1.06,17.71-.43,5.74-1.05,11.47-1.58,17.21-.37,4.08-.66,8.16-1.08,12.23-1.14,11.15-2.3,22.3-3.52,33.44-.92,8.43-1.86,16.86-2.98,25.26-1.14,8.56-2.36,17.11-3.81,25.61-2.24,13.13-4.5,26.27-7.11,39.33-4.91,24.54-10.4,48.95-19.11,72.49-4.28,11.57-9.48,22.7-16.69,32.78-5.52,7.72-11.99,14.49-20.1,19.59-5.22,3.28-10.84,5.52-16.98,6.13-8.61.87-16.17-1.89-22.81-7.28-7.88-6.39-12.97-14.8-16.76-24.04-7.41-18.05-9.37-36.69-5.13-55.77,2.76-12.43,8.39-23.41,18.27-31.83,5.42-4.62,11.54-7.75,18.72-8.67,14.07-1.81,23.1,6.63,25.83,17.72,2.6,10.58,1.22,20.9-3.88,30.46-2.84,5.33-6.57,10.19-9.96,15.22-1.44,2.14-3.03,4.18-4.6,6.22-.39.51-.98.87-2.13.86.4-1.03.74-2.09,1.22-3.08,2.68-5.44,5.61-10.77,8.04-16.32,3.66-8.38,5.12-17.16,3.01-26.21-.61-2.62-1.61-5.26-2.97-7.57-2.76-4.67-7.21-6.35-12.47-5.65-7.51.99-13.17,5.2-17.81,10.9-5.5,6.75-8.73,14.61-10.21,23.09-2.91,16.73-.95,32.97,5.98,48.52,2.86,6.43,6.5,12.36,11.96,16.99,6.71,5.7,14.18,6.48,22.14,3.21,7.18-2.95,12.88-7.95,17.91-13.74,8.07-9.28,13.65-20.04,18.29-31.32,7.58-18.44,12.81-37.62,17.17-57.01,3.96-17.58,7.51-35.25,10.79-52.97,2.34-12.64,3.97-25.42,5.82-38.15,1.52-10.49,2.99-20.99,4.29-31.5.86-6.91,1.36-13.87,2.07-20.8.81-7.84,1.74-15.66,2.51-23.5.47-4.83.7-9.68,1.1-14.51.48-5.74,1.06-11.47,1.56-17.21.39-4.38.78-8.76,1.07-13.15.7-10.75,1.28-21.5,2-32.25.8-11.95,1.75-23.9,2.56-35.85.43-6.36.65-12.73,1.06-19.09.51-7.87,1.13-15.73,1.67-23.6.39-5.75.72-11.51,1.1-17.26.23-3.45.5-6.9.77-10.68-1.53-.15-2.85-.32-4.17-.41-16.05-1.04-32.14-1.7-48.15-3.18-17.68-1.63-35.25-4.23-52.44-8.88-6.6-1.78-13.14-3.79-19.06-7.3-2.57-1.52-5.09-3.39-7.08-5.59-3.67-4.05-3.7-8.68-.03-12.72,1.99-2.19,4.58-4,7.19-5.44,6.84-3.78,14.39-5.57,21.94-7.3,2.92-.67,5.86-1.28,9.06-1.97-.42-1.49-.67-2.64-1.08-3.73-3.91-10.4-6.34-21.19-7.96-32.14-1.2-8.09-2.32-16.24-2.63-24.4-.97-25.24,4.05-49.2,16.52-71.38,4.17-7.43,8.7-14.54,14.66-20.77,2.82-2.94,4.96-6.49,9.46-8.11-3.33-9.26-7.03-17.99-14.81-24.18-5.88-4.68-12.86-5.9-20.2-5.32-1.92.15-3.81.67-5.88,1.06.33,1.45.68,2.61.85,3.79.82,5.84-1.93,10.45-7.55,12.29-1.73.57-2.22,1.47-2.57,3.15-.48,2.28-.54,4.19.32,6.54,2.57,7-.13,16.25-6.73,20.58-5.49,3.6-11.98,2.6-16.84-2.61-.93-1-1.46-2-3.32-1.52-4.63,1.19-7.94-1.16-10.37-4.85-2.47-3.74-3.77-7.95-4.05-12.42-.48-7.66-.21-15.18,3.9-22.07.64-1.06.62-2.63.6-3.95-.13-9.66,4.78-15.99,13.17-20,3.05-1.46,3.04-1.38,2.83-4.42-.25-3.67.52-6.98,3.86-9.13,3.64-2.34,7.31-1.8,10.73.38,5.12,3.27,7.66,8.3,7.85,14.17.13,4.17-.77,8.37-1.27,13.15,2.4,1.66,5.17,2.98,9.19,1.22,5.79-2.54,12.1-2.84,18.35-1.8,8.39,1.39,14.82,5.95,19.75,12.75,1.24,1.71,2.34,3.53,3.92,5.94,0-1.83.07-3.03-.01-4.21-.55-8.32-1.12-16.64-1.68-24.95-.04-.6-.01-1.22,0-1.82.13-6.05,1.12-7.12,7.29-7.57-2.21-7.02-4.87-13.67-9.55-19.28-.47.09-.78.1-1.05.2-3.77,1.41-4.81,4.09-4.78,8.08.04,5.66-2.29,10.69-6.73,14.39-5.91,4.93-12.44,2.68-14.17-4.76-.23-1.01-.29-2.06-.37-2.62-2.23-1.09-4.3-1.71-5.87-2.96-2.34-1.85-2.58-4.74-2.37-7.51.12-1.59.09-2.92-.94-4.25-1.82-2.35-1.89-5.23-1.22-7.86,1.09-4.25,2.79-8.32,5.56-11.84.83-1.06,1.7-2.16,2.19-3.39,1.53-3.8,4.08-6.25,8.16-7.18,1.26-.29,2.51-1.06,3.54-1.89,8.2-6.67,19.18-4.86,24.48,1.99.17.23.47.35,1.07.79.13-1.1.04-2.11.39-2.95.98-2.35,1.61-5.21,3.36-6.8,2.8-2.54,3.15-5.1,3.01-8.65-.24-5.99,1.8-11.33,7.23-14.83,1.25-.81,2.26-2.01,3.32-3.09,4.68-4.72,12.37-4.8,17.19-1.42,6.73,4.71,13.91,16.29,10.41,27.67-.89,2.91-1.9,5.77-5.31,6.88-.81.27-1.44,1.39-1.95,2.25-1.46,2.48-2.63,5.14-4.26,7.5-1.07,1.55-1.29,2.83-.72,4.61,3.57,11.11,4.78,22.54,3.99,34.16-.29,4.23-.94,8.43-1.39,12.65-.16,1.48-.23,2.98.15,4.57.56-1.63,1.13-3.25,1.69-4.88,2.67-7.75,5.41-15.47,9.49-22.63.76-1.34.76-2.29-.27-3.63-1.35-1.75-2.15-3.91-3.29-5.84-.68-1.15-1.47-2.26-2.35-3.25-3.42-3.86-4.85-8.31-4.29-13.43.66-6.09,4.14-10.01,9.64-12.12,1.93-.74,3.45-1.59,4.7-3.27,1.71-2.27,4.28-3.49,6.99-3.96,5.67-.99,11.23-.57,16.29,2.51,1.28.78,2.52,1.75,3.47,2.89,2.33,2.78,4.59,5.64,6.69,8.59,4.8,6.74,7.18,14.1,4.55,22.3-.79,2.47-2.44,4.67-3.9,7.38,14.1-5.05,23.89.7,31.17,12.76,5.06-4.21,10.74-5.28,16.82-4.78,4.08.34,7.7,1.62,10.12,5.25.49.74,1.16,1.45,1.91,1.91,6.21,3.79,6.98,12.01,5.23,17.45-1,3.11-2.5,5.89-5.06,7.96-1.52,1.23-2.19,2.66-2.55,4.58-.97,5.21-3.29,9.77-7.54,13.14-4.89,3.88-10.6,3.25-14.41-1.69-2.59-3.35-3.88-7.23-3.49-11.5.16-1.8-.22-3.16-1.42-4.55-3.36-3.87-4.29-8.44-2.5-13.19,1.31-3.48.46-6.18-1.73-8.77-1.96-2.31-3.76-4.81-5.99-6.83-4.52-4.09-9.71-5.26-15.6-2.94-4.74,1.87-8.92,4.56-12.72,7.86-10.71,9.3-18.87,20.63-25.07,33.26-2.1,4.29-4.95,8.2-6.55,12.73-.45,1.28-1.13,2.49-1.64,3.76-1.01,2.5-.82,3.72.76,4.2,1.98.59,2.04-1.33,2.7-2.35,3.54-5.48,6.77-11.18,10.62-16.42,4-5.45,9.01-9.87,15.98-11.22-.27-2.82-.79-5.48-.72-8.13.18-6.58,5.74-10.71,12.11-9.26,1.02.23,2.09.29,3.13.4.3.03.61-.05.91-.04,2.73.07,13,4.38,14.62,6.55,1.32,1.77,2.44,3.86,3.05,5.97,1.52,5.35.74,10.55-2.02,15.38-2.71,4.75-6.99,6.64-12.3,5.3-1.7-.43-2.73-.26-3.95,1.08-1.18,1.3-2.7,2.52-4.31,3.16-3.27,1.3-6.23-.56-6.58-4.03-.19-1.93.12-3.92.29-5.88.07-.74.73-1.59.51-2.15-.46-1.19-1.14-2.47-2.12-3.2-.46-.34-1.83.43-2.73.82-.39.16-.68.6-.96.95-6.59,8.14-13.44,16.09-18.65,25.25-1.62,2.85-1.59,2.86,1.01,4.66.37.26.74.54,1.14.75,12.84,6.79,18.82,18.43,22.42,31.74,2.03,7.52,3.03,15.21,2.75,22.98-.37,10.16-.99,20.31-1.65,30.45-.6,9.09-1.38,18.16-2.12,27.24-.9,11.03-1.84,22.06-2.79,33.38.82.1,1.83.31,2.84.34,11.69.31,23.38.58,35.07.91,2.42.07,4.84.42,7.26.51,2.61.09,2.88-.17,3.12-2.73.36-3.93.71-7.85.97-11.79.43-6.36.76-12.72,1.18-19.08.12-1.8.42-3.6.67-5.66-8.65-2.2-10.17-9.3-10.87-16.54-.94-9.83-.45-19.68.67-29.51,1.19-10.39,2.03-20.82,3.06-31.22.55-5.58,1.19-11.15,1.8-16.72.03-.3,0-.69.18-.87.37-.4.82-.82,1.31-.96.22-.06.94.57.91.8-.77,5.14,3.12,5.32,6.3,5.49,4.66.24,9.35-.1,14.02-.3.89-.04.89-.25,1.77-2.26-1.47.15-2.92.55-4.27.35-1.29-.19-2.45-1.16-3.74-1.55-4.64-1.39-9.31-2.68-13.97-4-1.09-.31-2.2-.59-3.98-1.06,2.36-2.5,4.4-4.15,6.94-5.15,3.49-1.37,7.14-1.54,10.77-.92,5.49.94,8.28,4.33,8.6,10.01,3.04-3.21,4.01-2.98,6.68.08,3.51,4.02,3.51,8.95,3.79,13.62,1.15,18.99-1.01,37.58-7.9,55.46-2.47,6.4-5.27,12.67-9.9,17.82-2.09,2.32-4.65,4.35-7.34,5.93-1.79,1.05-2.18,2.14-2.17,3.95.07,9.11.06,18.23.07,27.35,0,3.03,0,6.06,0,9.48,17.38,1.48,34.68,2.95,52.16,4.44.2-.9.54-1.76.56-2.62.33-12.3,1.77-24.49,3.66-36.63.19-1.25.18-2.36-1.17-3.12-5.17-2.9-6.8-7.99-7.72-13.3-1.38-7.97-1.42-16-.34-24.04,1.09-8.11,1.77-16.27,3.03-24.35,1.19-7.61,2.9-15.14,4.44-22.98-.94-.19-1.91-.38-2.96-.59.21-.42.35-.85.61-1.17,1.22-1.51,2.87-2.44,4.77-2.2,5.07.62,10.12,1.49,15.19,2.17,1.52.2,1.43,1.92,2.43,2.37,2.39,1.05,4.93,1.5,7.56.94-.71.45-1.41.91-2.12,1.36q2.6.35,4.77-.79c-1.15-.19-1.97-.33-2.79-.47ZM134.3,123.75c-1.86,1.43-.95,3.62-1.4,5.43-1.73,6.95-1.97,14.03-.96,21.33.35-2.75.79-5.28.98-7.84.49-6.33.86-12.67,1.28-19,1.27-1.49.81-3.13.1-4.76v4.84ZM302.86,232.21l-.1-.11c-1.42.96-3.44,1.63-4.1,2.97-.73,1.47-.24,3.56-.25,5.38-.01,1.52-.14,3.05.03,4.55.61,5.1.89,10.3,2.11,15.26,1.58,6.39,4.06,6.94,8.5,2.11,7.02-7.63,10.68-17.06,13.7-26.97-2.2,1.79-4.45,1.52-6.83,1.03-1.27-.26-2.67-.07-3.99.07-3.36.35-5.91,2.11-7.76,5.3-.68-2.29-.24-3.86,1.08-5.08,3.76-3.48,7.68-6.37,13.36-4.73,3.27.94,5.75-.72,6.64-3.98.64-2.34,1.29-4.68,1.79-7.05,1.28-6.08,2.52-12.17,3.68-18.27.48-2.53.17-2.83-2.44-3.12-.75-.08-1.53-.02-2.27-.15-5.81-1-11.27-2.93-14.98-7.77-2.18-2.84-4.86-2.95-8.02-3.08-1.36,11.83-3.09,23.28-3.71,34.86,4.41-.99,8.37-2.08,12.39-2.72,2.03-.32,4.2.05,6.28.34.75.1,1.4.89,2.09,1.37-.59.8-1.01,1.9-1.79,2.33-2.7,1.48-5.67,1.98-8.76,2.07-2.87.08-5.74.42-8.57.86-1.76.27-2.73,1.93-2.36,3.74.39,1.94,1.86.95,2.94.93.45,0,.9-.1,1.36-.16ZM154.83,173.33c-1.72-.2-2.87.26-3.45,1.74-.38.99-.7,2.01-1,3.02-3.93,13.09-6.92,26.39-8.94,39.92-1.92,12.92-3.19,25.89-3.44,38.95-.24,12.44-.08,24.88,1.63,37.25.23,1.64.22,3.34.13,5-.04.63-.63,1.24-.97,1.85-.74-.42-1.87-.67-2.13-1.28-.69-1.66-1.16-3.44-1.46-5.22-2.05-12.14-3.03-24.36-2.96-36.69.06-10.94-.04-21.88,1.21-32.75,1.24-10.84,2.87-21.63,4.17-32.47.63-5.26.92-10.57,1.26-15.86.04-.56-.61-1.16-.95-1.74-.57.41-1.53.72-1.67,1.25-1.37,5.26-3.21,10.49-3.75,15.84-.84,8.29-.73,16.67-1.12,25.01-.24,5.15-.59,10.3-1.05,15.44-.8,8.75-1.7,17.5-2.61,26.24-.57,5.55-1.23,11.08-1.85,16.62-.57-1.03-.73-2.05-.69-3.06.24-7.58.53-15.16.79-22.74.37-10.92.73-21.85,1.11-32.77.11-3.18.38-6.37.42-9.55.07-5.46.02-10.93.02-16.39-.9,3.21-1.48,6.46-1.99,9.72-1.09,7.03-2.23,14.05-3.17,21.1-.82,6.16-1.27,12.36-2.07,18.51-1.04,7.95-2.2,15.9-3.47,23.82-1.12,7.02-2.43,14-3.74,20.99-.4,2.13-.52,2.1-1.88,3.34.97-8.35,2.09-17.03,2.94-25.73.84-8.6,1.51-17.22,2.03-25.84.6-9.84,1.09-19.69,1.34-29.55.12-4.69-.3-9.41-.71-14.1-.51-5.89-1.25-11.75-1.88-17.63-.14-1.34-.72-2.2-2.12-2.58-2.59-.71-5.14-1.57-7.79-2.39-.4.52-.82.97-1.11,1.48-.81,1.46-1.65,2.91-2.35,4.42-5.3,11.47-9.38,23.4-11.95,35.74-2.01,9.64-3.12,19.46-4.68,29.2-1.54,9.6-2.81,19.23-2.46,28.99.14,3.79.58,7.56.81,11.35.74,12.39,3.56,24.28,8.35,35.72,1.34,3.2,3.45,5.62,6.29,7.58,6.08,4.21,12.92,5.9,20.15,6.31,8.85.49,17.58-.51,26.24-2.25,8.19-1.64,16.23-3.76,23.92-7.14,6.09-2.68,9.12-7.52,9.79-13.71,1.18-10.86,1.9-21.77,2.79-32.66.77-9.53,1.67-19.05,2.22-28.6.59-10.15,1.14-20.32,1.15-30.48.01-7.45-1.65-14.69-4.48-21.71-3.25-8.07-8.17-15.16-12.56-22.56-.56-.95-1.52-1.66-2.42-2.61-.46.83-.8,1.34-1.04,1.89-6.23,14.37-9.29,29.49-10.16,45.04-.44,7.88-.38,15.8-.13,23.69.23,7.11.88,14.22,1.6,21.3.62,6.13,1.59,12.23,2.4,18.34-.93-1.27-1.68-2.69-2-4.2-1.62-7.69-3.37-15.37-4.6-23.12-1.02-6.42-1.65-12.94-1.93-19.44-.34-7.72-.44-15.48-.04-23.2.38-7.24,1.32-14.48,2.46-21.65.79-5.02,2.32-9.92,3.55-14.98ZM243.78,329.26c2.18,0,4.13-.03,6.08,0,1.96.04,3.95-.03,5.88.24,3.03.42,4.81,2.11,5.03,4.4.22,2.4-1.51,4.39-4.7,5.23-1.31.35-2.68.5-4.02.75-1.49.27-3.06.35-4.46.86-6.19,2.25-12.68,2.75-19.14,3.48-1.65.19-3.34.25-5,.14-3.34-.21-5.65-2.17-6.19-5.05-.52-2.79.95-5.74,3.96-6.94,2.22-.89,4.65-1.29,7.03-1.71,2.39-.42,4.83-.51,7.23-.89.61-.1,1.58-.7,1.64-1.15.41-3.46.65-6.94.9-10.42.09-1.35-.76-1.87-1.99-1.94-.61-.04-1.21-.07-1.82-.08-13.97-.14-27.95-.24-41.92-.44-2.26-.03-3.52.6-4.39,2.88-2.14,5.61-6.1,9.84-11.49,12.41-4.5,2.15-9.12,4.2-13.9,5.56-16.15,4.6-32.54,7.38-49.43,5.06-9.64-1.32-18.14-4.85-24.54-12.51-1.53-1.84-2.72-4.72-4.62-5.3-2.17-.66-4.96.72-7.48,1.21-.3.06-.61.06-.9.13-6.93,1.67-13.87,3.34-20.31,6.53-1.89.94-3.76,2.02-5.41,3.33-3.02,2.41-3.06,4.63.03,7.06,2,1.58,4.26,3.01,6.63,3.9,5.38,2.03,10.83,3.97,16.38,5.43,12.49,3.28,25.23,5.29,38.07,6.56,12.98,1.28,25.97,2.53,38.98,3.44,9.53.67,19.1.83,28.66,1.11,12.29.37,24.58.96,36.87.86,18.49-.14,37.02.72,55.47-1.59,5.86-.73,11.81-.7,17.72-1,19.25-1,38.46-2.58,57.47-5.8,7.29-1.23,14.46-3.32,21.6-5.29,2.28-.63,4.45-1.95,6.43-3.29,1.93-1.31,2.08-2.53.27-4.07-2.98-2.54-6.09-5.07-9.51-6.92-7.22-3.92-14.92-6.81-22.98-8.41-8.9-1.77-17.88-3.18-26.86-4.56-4.75-.73-9.56-1.08-14.58-1.63-.64,2.99-1.23,5.76-1.81,8.49,1.78,1.82,4.63,1.89,6.47,5.46-7.72-2.85-14.48-2.31-21.92-.34,3.78,2.98,7.56,3.72,11.25,4.1,3.24.33,6.84,1.95,9.81-1.13.33-.34,1.17-.26,1.77-.23,4.4.16,8.8.23,13.18.58,2.81.22,4.29,1.75,4.67,4.15.39,2.46-.91,4.78-3.46,5.75-1.4.53-2.93.9-4.42,1.01-9.46.71-18.85.15-27.89-2.86-3.1-1.04-6.02-2.85-8.75-4.73-2.2-1.51-3.43-3.93-2.86-6.77.61-3.05,2.88-4.6,5.68-5.26,3.39-.8,6.81-1.51,10.34-.58,1.21.32,2.54.16,3.99.22-.1-3.04.57-5.59-.35-8.02-8.71-2.01-47.81-4.35-52.38-3.05v11.61ZM239.14,185.95c-.43,8.47-.64,16.51-1.28,24.5-1,12.39-1.81,24.79-1.36,37.22.13,3.45.85,6.91,1.51,10.32.46,2.35.81,5.37,3.34,6.05,2.91.79,4.43-2.04,5.95-4.07,4.34-5.79,6.77-12.49,8.99-19.27.34-1.05.5-2.16.66-2.86-1.97.29-3.76.94-5.44.72-2.52-.34-4.03.69-5.36,2.54-1.06,1.48-2.16,2.93-3.27,4.37-.95,1.22-2.12,2.65-3.74,1.84-1.63-.81-1.79-2.64-1.37-4.37.1-.42.43-.78.65-1.18.77.4,1.25,2.18,2.34.52,1.49-2.28,2.99-4.56,4.28-6.95.31-.58.1-2.02-.36-2.33-3.6-2.41-2.7-6.11-2.9-9.48-.08-1.36.69-2.43,2.05-2.6,1.41-.17,2.38.82,2.47,2.12.18,2.74,1.96,5.55-.3,8.29-.27.32.29,1.95.82,2.2,1.36.64,5.6-1.43,6.61-2.8,1.61-2.18,3.43-4.21,4.94-6.44.98-1.45,2.08-3.11,2.27-4.77,1.13-9.97.86-19.96-.27-29.92-.02-.21-.42-.38-.76-.68-6.99,1.51-13.65-.18-20.49-2.97ZM130.33,128.56c1.13-9.7,2.1-18.27,3.13-26.84.38-3.15.88-6.29,1.38-9.43.24-1.48.98-2.57,2.66-2.57,1.55,0,2.67.76,3.03,2.25.46,1.91.94,3.85,1.04,5.79.68,14.16-.99,28.16-3.17,42.11-.56,3.59-1.24,7.16-1.77,10.76-.06.38.47.84.73,1.26.46-.28,1.1-.47,1.34-.88.36-.64.5-1.43.64-2.17.6-3.12,1.26-6.24,1.72-9.38,1.66-11.23,3.74-22.43,4.74-33.73.95-10.72.27-21.53-.91-32.26-.25-2.26-.54-4.51-.93-6.75-.17-1.01-.45-1.93-1.8-2.3-1.97-.54-3.84-1.45-5.46-2.08-2.55,1.74-4.98,3.89-7.79,5.18-3.31,1.52-6.39-.38-6.46-3.94-.06-2.67-.79-4.19-3.32-5.02-.93-.31-1.66-1.22-2.67-2.01,0,1.91-.36,3.63.07,5.13,1.48,5.18-.16,9.55-3.03,13.7-.93,1.35-1.92,2.65-2.86,3.95,1.65,1.91,3.21,3.56,4.6,5.36,5.38,6.97,8.63,14.97,10.75,23.41,1.62,6.45,2.78,13.01,4.34,20.44ZM387.05,771.46c2.77-3.75,5.22-6.66,7.2-9.85,4.78-7.68,7.14-16.02,6.14-25.15-.46-4.18-1.81-7.99-4.83-11.04-5.19-5.25-13.1-4.76-17.43,1.19-1.32,1.81-2.47,3.91-3.06,6.05-2.26,8.17-1.99,16.31,2.16,23.83,2.69,4.88,6.11,9.36,9.82,14.95ZM54.56,137.25c-.72,4.88-2.58,8.37-5.66,11.23-1.71,1.59-3.66,2.33-5.83,1.45-2.16-.87-2.59-3.13-2.43-5.01.37-4.25,1.18-8.56,4.55-11.56,1.37-1.22,1.84-2.43,1.57-3.93-.5-2.69.49-4.69,2.24-6.59,2.42-2.63,3.83-5.83,4.6-9.28.84-3.75.19-7.27-2.21-10.32-.55-.71-1.56-1.05-2.4-1.59-.3.63-.56.91-.53,1.16.09.74.2,1.51.44,2.21,2.37,6.69,1.93,7.45-5.23,8.99-6.76,1.45-10.71,5.45-11.54,11.88.63.26,1.31.53,1.99.8,2.2.9,3.97,2.33,4.83,4.57,1.04,2.71,1.04,5.42-1.08,7.66-1.98,2.08-4.4,2.56-7.08,1.35-.65-.29-1.32-.55-1.97-.81-3.58,8.3-2.08,19.59,3.07,23.17.31-.52.64-1.01.9-1.54,1.45-2.89,2.65-3.85,4.59-3.52,2.33.4,3.06,2.2,3.65,4.17.52,1.72.89,3.58,1.81,5.08,1.8,2.95,5.07,3.33,7.88,1.3,2.6-1.88,5.43-8.77,3.32-11.93-1.63-2.43-1.4-4.72.4-7.12,2.31-3.08.85-6.77,1.15-10.18.03-.35-.45-.74-1.02-1.64ZM144.84,55.06c2.16-3.1,3.25-6.38,4.14-9.75.46-1.76,1-3.44,2.95-4.3,2.64-1.17,3.07-1.96,2.79-4.62-.57-5.53-3.05-10.15-7.26-13.68-1.29-1.08-3.19-1.7-4.9-1.95-1.99-.3-2.5.46-2.64,2.64-.3,4.73-1.38,5.72-6.11,5.72-.91,0-1.82.25-2.73.39,2.9,1.87,4.91,3.93,5.4,7.39.9-.53,1.52-.96,2.18-1.29,4.64-2.33,8.11-.31,8.45,4.81.24,3.69-.99,6.94-3.08,9.75-1.45,1.96-1.06,3.21.81,4.9ZM172.27,111.01c3.09-3.53,6.21-7.44,9.7-10.99,3.38-3.44,7.13-6.52,10.91-9.92-8.57,1.93-11.28,1.39-17.32-3.4-2.35,3.32-5.19,5.58-9.72,3.3-1.58,3.97-3,7.56-4.43,11.16,1.01-.24,1.41-.78,1.75-1.34,1.16-1.93,2.58-3.51,5.11-2.87,2.41.61,3.29,2.53,3.46,4.81.23,3.14.37,6.29.54,9.26ZM189.2,59.81c.11-.24.21-.48.32-.72-.67-.28-1.32-.71-2.02-.82-2.81-.42-4.89-1.81-5.59-4.6-.6-2.41-2.35-1.97-3.93-1.95-1.79.03-3.91-.12-4.33,2.3-.6,3.45-2.79,4.41-5.89,4.17-2.6-.2-4.86.38-6.19,2.84-1.44,2.65-1,5.26.46,7.77.73,1.24,1.67,1.96,3.28,1.98,2.51.03,5.01.37,7.66.59,1.77-4.05,3.32-8.43,8.04-10.3.13-.05.28-.2.3-.32.44-3.2,2.74-1.98,4.49-1.81,1.15.11,2.26.57,3.39.87ZM199.55,133.97c.48-7.19,2.45-10.13,6.67-9.95,3.84.16,5.62,3.23,5.85,10.13,2.84-3,3.74-7.64,1.97-10.71-.35-.61-1.02-1.35-1.63-1.44-2.75-.41-5.35-.99-7.27-3.27-.22-.26-.85-.21-1.29-.26-2.05-.23-4.1-.45-6.34-.69-3.53,4.41-2.67,12.18,2.04,16.18ZM128.37,60.31c.28.19.56.38.83.58,1.78-2.39,4.24-4.55,5.15-7.23.93-2.75.35-6.01.42-8.82-1.46.24-2.78.56-4.12.66-3.8.28-3.81.24-5.89,3.32-.32-2.18-.58-3.99-.9-6.16-2.7,2.13-3.68,4.81-4.11,7.65-.5,3.29.89,4.62,4.31,4.54,3.11-.08,4.1.73,4.44,3.73.07.56-.09,1.15-.14,1.73ZM151.17,150.51c.41-.93.8-1.88,1.24-2.8,3.8-7.76,7.3-15.7,11.54-23.22,3.22-5.71,2.09-11.44,1.9-17.28-6.67,13.87-11.57,28.28-14.69,43.3ZM256.95,109.5c-2.3,1.6-4.87,2.28-7.54.92-3.03-1.54-1.8-4.76-2.46-7.27-1.58.23-2.94.33-4.26.65-2.85.7-3.03,1.18-2.95,4.38.04,1.48-.38,2.96-.53,3.98,6.95.02,12.69,2.45,17.26,7.65,3.16-4.44,3.26-6.24.47-10.31ZM95.56,85.54c-1.06.68-1.6.94-2.05,1.32-2.02,1.69-4.24,3.03-6.92,2.96-2.47-.06-4.03-1.65-5.35-3.68-.91-1.4-2.54-.82-3.67-.22-.51.27-.74,1.58-.64,2.37.28,2.34,1.47,3.25,3.97,3.34,4.67.16,4.95.38,5.98,4.89.07.29,0,.65.15.89.69,1.09,1.34,2.91,2.2,3.03.97.13,2.46-1.05,3.18-2.05,2.63-3.65,3.96-7.73,3.14-12.84ZM98.36,66.37c3.56,1.28,4.31,4.7,4.31,8.77,1.87-1.92,3.48-3.87,4.82-5.99,1.11-1.76,1.33-3.5-.51-5.28-.97-.94-1.48-2.62-1.65-4.03-.33-2.81-.66-3.52-3.14-3.43-1.4.05-2.78.62-3.83.88v9.09ZM239.81,128.33c.24,3.27.58,6.08.62,8.9.04,2.88,2.46,4.91,4.97,3.51,1.73-.97,3.24-2.73,4.26-4.48,1.21-2.07,2.86-4.29,1.78-6.8-2.11,0-3.93.13-5.71-.04-1.78-.17-3.54-.64-5.91-1.09ZM87.23,73.11c.18,2.44.3,4.12.43,5.79-.69-1.23-.28-2.81-2.53-3.32-.32,1.9-.94,3.8-.85,5.67.06,1.13.98,2.63,1.95,3.17.62.35,2.62-.47,3.01-1.25,1.8-3.66,4.48-6.8,6.12-10.53.07-.15-.23-.47-.61-1.17-2.43.53-5.01,1.1-7.51,1.65ZM195.8,70.12c-4.11,5.44-6.79,12.72-15.79,12.11,1.23,1.05,2.43,2.04,3.76,2.26,1.58.26,3.43.22,4.85-.41.97-.43,1.51-2.03,2.04-3.2.68-1.48,1.69-2.39,3.27-2.86.78-.23,1.79-.76,2.05-1.42.85-2.09,1.63-4.3-.19-6.49ZM48.13,133.82c-3.6,1.79-5,6.59-3.56,12.24,3.02-2.41,4.52-7.58,3.56-12.24ZM61.06,140.83c2.21-2.04,2.19-4.43,1.8-6.83-.32-2-1.35-2.54-3.17-1.79-1.21.5-2.32,1.22-3.18,1.68,1.54,2.34,2.99,4.56,4.56,6.94ZM117.4,130.82c-.71,8.69.33,20.37,2.14,23.65.35-8.21-1.6-15.86-2.14-23.65ZM186.59,68.8c-3.55-1.62-5.28-1.66-6.21-.42-.92,1.24-.21,3.55,2.08,6.08,1.33-1.82,2.6-3.57,4.13-5.66ZM78.43,69.9c-3.61,4.34-4.98,7.33-4.42,10.41,2.48-3.87,4.54-7.78,9.42-7.91-1.63-.82-3.19-1.6-5-2.5ZM172.11,80.16c-2.36,1.61-3.31,3.84-4.18,6.1-.14.35-.03.95.2,1.24.21.27.95.51,1.11.37,1.34-1.19,2.79-2.33,3.81-3.77.84-1.19.39-2.6-.94-3.94ZM141.88,39.55c-.66.49-1.44.78-1.66,1.31-.76,1.78-1.4,3.62-1.9,5.49-.14.51.36,1.19.56,1.79.6-.33,1.46-.51,1.75-1.02,1.27-2.22,2.34-4.54,1.25-7.57ZM133.99,168.09c2.59-2.52,2.4-5.86,2.88-8.98.03-.18-.61-.47-1.4-1.05-1.16,3.43-2.21,6.53-1.49,10.03ZM240.95,118.09c.99,4.18,1.91,4.73,6.63,3.92-2.2-1.62-3.57-3.6-6.63-3.92ZM81.91,75.05c-2.54,2.14-3.88,4.26-4.2,6.9-.05.44.74,1.15,1.29,1.42.26.12,1.19-.45,1.29-.85.58-2.26,1.01-4.57,1.61-7.47ZM154.26,165.33c.23.24.45.48.68.72,1.05-.49,2.87.1,2.81-1.91-.01-.37-1.15-1.1-1.25-1.02-.82.65-1.51,1.45-2.24,2.21ZM138.82,167.92l1.1.13c1-1.72.86-3.55.01-5.46-.37,1.77-.74,3.55-1.11,5.32ZM200.32,135.92c-.29.35-.55.53-.63.78-.21.63-.36,1.29-.46,1.95-.01.06.43.2.66.3.22-.76.45-1.51.65-2.27.03-.12-.07-.27-.21-.76ZM197.45,139.7c-.08.13-.25.27-.23.38.11.72.26,1.44.39,2.16.28-.08.82-.17.81-.22-.05-.65-.14-1.31-.32-1.93-.05-.18-.43-.26-.65-.39ZM54.78,131.63c-.07-.21-.15-.41-.22-.62-.62.19-1.25.38-1.86.62-.02,0,.15.49.23.76.62-.25,1.23-.5,1.85-.75ZM132.82,178.08c.21-.7.42-1.1.44-1.52.02-.41-.15-.83-.31-1.66-.21.8-.4,1.19-.41,1.59-.01.43.14.85.28,1.59ZM166.83,81.9c-1.09-.57-1.46-.92-1.72-.86-.27.07-.62.55-.6.82.02.24.49.61.78.62.37.02.75-.27,1.53-.59Z"/>
  <path class="cls-1" d="M302.86,232.21c1.19-.64,2.39-1.27,3.58-1.91.1.25.19.49.29.74-1.32.35-2.64.71-3.97,1.06l.1.11Z"/>
</svg>