<?xml version="1.0" encoding="UTF-8"?>
<svg id="Layer_1" data-name="Layer 1" xmlns="http://www.w3.org/2000/svg" version="1.1" viewBox="0 0 671.19 754.8">
  <defs>
    <style>
      .cls-1 {
        fill: #000;
        stroke-width: 0px;
      }
    </style>
  </defs>
  <path class="cls-1" d="M435.27,85.64c8.98-6.51,15.9-11.79,23.08-16.67,8.57-5.83,17.34-11.42,27.84-13.2,8.08-1.37,13.13,2.76,12.3,10.72-.46,4.41-1.99,8.87-3.86,12.93-4.3,9.38-9.15,18.51-13.64,27.81-.84,1.74-1,3.81-1.82,7.13,10.19-6.78,18.97-12.92,28.06-18.55,4.53-2.81,9.56-4.87,14.53-6.89,2.22-.9,4.83-1.25,7.25-1.19,10.7.28,15.12,6.91,10.67,16.6-3.1,6.74-7.23,13-10.8,19.53-2.92,5.35-5.68,10.78-9.9,18.83,10.03-4.96,17.08-8.87,24.47-12,7.61-3.22,15.39-6.33,23.39-8.28,6.35-1.55,13.63-2.12,18.26,4.18,4.49,6.11,4.97,12.97,1.34,19.93-4.4,8.42-8.74,16.89-13,25.38-1.05,2.09-1.71,4.38-2.88,7.43,14.1-6.92,26.93-13.57,40.07-19.55,9.46-4.31,19.47-7.85,30.05-5.31,5.06,1.21,10.16,3.63,14.36,6.7,6.23,4.54,7.97,13.07,4.09,19.9-3.44,6.05-7.42,12.08-12.34,16.93-13.33,13.14-28.12,24.51-43.92,34.67-26.89,17.29-53.46,35.06-80.15,52.66-14.71,9.7-25.55,23.64-38.55,35.17-14.54,12.9-21.8,28.49-23.68,47.5-1.42,14.33-7.68,26.97-16.39,38.36-1.18,1.54-2.88,2.67-5.38,4.93-.7-2.51-1.57-3.95-1.38-5.22,2.22-14.87,2.04-29.54-1.19-44.38-3.41-15.65,2.9-29.38,11.51-41.87,10.16-14.75,22.5-27.61,36.42-38.97,24.66-20.12,52.12-35.42,81.3-47.78,28.21-11.95,53.42-28.42,75.45-49.72,3.55-3.43,8.42-6.94,5.29-12.51-2.77-4.92-8.62-4.46-13.55-4.34-2.82.07-5.78.98-8.4,2.15-12.08,5.41-24.08,10.99-36.07,16.62-4.87,2.29-9.39,5.56-14.46,7.1-10.43,3.18-16.99-2.8-15.97-13.63.85-9.04,6.06-16.18,10.01-23.87,2.27-4.41,5.01-8.59,7.15-13.06.8-1.67,1.24-5.11.49-5.59-1.83-1.15-4.72-1.88-6.71-1.25-5.52,1.73-10.91,3.99-16.14,6.49-7.1,3.4-13.97,7.28-20.99,10.84-3.33,1.69-6.65,3.67-10.21,4.55-10.65,2.63-17.99-5.24-14.93-15.84,2.89-10.02,7.52-19.22,13.5-27.79,2.49-3.57,5.97-6.77,6.34-13.31-6.46,3.75-11.89,6.51-16.89,9.9-6.19,4.19-12,8.94-18.03,13.35-2.68,1.96-5.38,3.96-8.32,5.47-6.2,3.19-12.94,2.84-16.28-.71-4.28-4.54-4.06-9.87-1.73-15.1,4.7-10.55,9.61-21,14.57-31.43,1.74-3.67,3.86-7.17,6.89-12.73-3.91,1.15-6.2,1.3-7.87,2.4-9.34,6.18-18.49,12.63-27.78,18.88-4.12,2.77-8.15,5.88-12.67,7.78-9.07,3.83-16.02-.99-15.54-10.72.29-5.77,1.16-11.65,2.76-17.2,3.55-12.29,7.78-24.38,11.63-36.58,1.1-3.48,2.71-7.1-1.21-11.31-3.69,1.91-7.79,3.61-11.46,6-24.27,15.81-42,36.98-53.89,63.55-13.41,30-18.77,61.43-20.99,93.94-1.27,18.55-5.51,36.9-8.47,55.33-.39,2.45-1.43,4.8-1.71,7.25-2.44,21.18-10.63,40.74-17.35,60.67-4.47,13.24-10.23,26.05-15.48,39.02-.39.95-1.3,1.69-3.49,4.43.03-4.67-.55-7.41.16-9.78,5.55-18.56,12.36-36.8,16.83-55.6,6.51-27.38,13.47-54.82,13.4-83.32,0-2.48.38-4.97.71-7.44,2.99-22.25,4.85-44.72,9.26-66.69,9.4-46.79,31.06-86.26,72.45-112.79,6.37-4.08,12.98-7.36,20.64-7.95,7.63-.59,12.27,2.06,13.44,9.46.94,5.98,1.03,12.53-.41,18.36-2.87,11.6-7.16,22.84-10.66,34.28-1.28,4.17-1.98,8.52-3.43,14.96Z"/>
  <path class="cls-1" d="M335.02,478.57c-1.5-2.26-2.47-3.21-2.29-3.53,10.31-18.48,21.1-36.73,39.32-48.67,5.42-3.55,11.84-6.18,18.17-7.62,14.57-3.33,24.2,2.04,30.98,15.96.54,1.11,1.12,2.21,1.23,2.42,14.73-9.56,28.47-19.45,43.16-27.6,7.35-4.08,16.35-5.63,24.81-7.16,18.86-3.41,34.7,7.12,37.88,26.37,4.42-2.86,8.29-5.79,12.53-8.01,9.88-5.19,19.57-11.08,30.01-14.77,13.6-4.8,25.9-2.68,37.82,7.68,17.34,15.08,17.45,27.19,3.12,44.59-15.8,19.19-31.69,38.31-47.47,57.51-20.37,24.78-36.82,51.99-51.41,80.56-15.66,30.66-32.74,60.68-57.31,85.41-23.09,23.24-49.93,41.14-80.44,53.19-17.98,7.1-37.02,8.51-56.12,8.5-11.33,0-22.26-2.99-32.48-7.57-13.17-5.9-25.93-12.72-38.82-19.22-24.46-12.33-49.8-19.51-77.68-15.91-13.88,1.79-28,2.03-42.02,2.27-11.04.2-21.66-3.22-30.35-9.66-10.92-8.09-20.82-17.6-30.83-26.86-2.12-1.96-2.81-5.47-3.42-8.81,9.24,9.55,20.08,16.67,30.61,24.25,12.39,8.91,25.99,12.19,40.99,10.81,16.85-1.55,33.74-2.73,50.56-4.5,10.18-1.07,19.69.49,29.07,4.43,18.2,7.64,36.45,15.19,54.85,22.34,9.98,3.88,20.14,7.53,30.51,10.08,12.21,3,24.75,1.12,37.06-.28,21.81-2.49,41.5-10.79,60.09-22.32,35.4-21.95,63.08-51.04,82.77-87.74,8.03-14.96,15.98-29.96,24.06-44.89,10.28-18.99,20.92-37.85,35.73-53.73,13.29-14.25,27.53-27.6,41.28-41.42,7.9-7.93,15.73-15.93,23.43-24.06,2.26-2.38,4.01-5.26,5.89-7.99,4.98-7.24,3.89-15.27-1.62-20.44-6.49-6.11-13.79-12.88-24.89-9.44-9.99,3.1-19.81,6.42-28.17,12.74-9.59,7.26-18.77,15.05-28.03,22.73-3.51,2.91-6.64,6.3-10.15,9.22-3.34,2.78-7.61,2.55-10.2-.17-1.81-1.9-2.18-5.9-1.92-8.86.23-2.73,2.3-5.25,3.28-7.97,1.11-3.09,2.32-6.24,2.73-9.46.71-5.55-2.11-10.17-7.61-11.04-5.18-.82-10.83-.97-15.9.21-15.23,3.55-28.66,11.34-40.28,21.47-10.89,9.5-20.53,20.44-30.7,30.76-1.74,1.76-3.15,3.93-5.1,5.38-3.43,2.55-7.29,1.65-10.61-.21-3.19-1.79-4.41-5.16-3.38-8.64,1.51-5.13,3.6-10.1,5.36-15.16.94-2.71,2.22-5.42,2.5-8.22.75-7.58-4.17-12.55-11.32-10.39-7.04,2.13-14.3,5.05-20.13,9.42-12.92,9.7-25.02,20.5-37.39,30.92-.83.7-1.16,1.99-1.79,3.11Z"/>
  <path class="cls-1" d="M212.16,238.81c1.65-1.15,3.25-2.38,4.95-3.44,10.42-6.49,18.69-5.01,25.59,5.1,6.06,8.87,7.94,19.01,7.33,29.61-.69,11.94-1.54,23.87-2.37,36.53,4.18-3.5,7.64-6.88,11.56-9.59,10.52-7.27,18.84-4.52,23.36,7.53.86,2.31,1.35,4.78,1.77,7.22,4.54,26.24,2.8,51.97-6.46,77.05-.35.96-1.2,1.74-3.37,4.78.02-11.58.25-20.75,0-29.9-.25-9.07-.75-18.16-1.56-27.2-.84-9.37-2.18-18.69-3.56-30.25-6.96,7.63-12.16,13.49-17.56,19.17-2.85,2.99-5.75,6.08-9.14,8.37-6.16,4.16-12.56,1.38-13.79-6.12-.72-4.41-.52-9.1.02-13.57,1.69-14.03,3.95-28,5.51-42.04.54-4.85.13-9.95-.74-14.78-.7-3.88-1.25-9.47-5.92-9.81-2.63-.19-6.44,3.49-8.25,6.36-4.84,7.66-9.06,15.73-13.19,23.81-1.86,3.64-2.78,7.75-4.35,11.56-2,4.87-5.41,6.56-9.72,5.09-4.18-1.43-6.03-5.09-4.43-10.14,7.19-22.6,11.99-45.7,14.43-69.25.8-7.76.76-15.73-.02-23.49-.47-4.78-2.41-9.72-4.84-13.93-3.5-6.06-10.4-5.65-14.01.36-.82,1.37-1.23,3.08-1.49,4.69-4.72,29.94-17.66,56.57-32.7,82.44-13.71,23.59-27.14,47.39-36.19,73.24-4.63,13.22-9.48,26.71-11.38,40.46-2.82,20.49-2.07,41.21,2.9,61.63,5.39,22.13,15.14,42.06,28.7,60.23,11.19,14.99,22.47,29.91,33.58,44.97,4.29,5.82,6.72,12.21,5.85,19.78-.88,7.7-4.01,13.3-11.28,15.86-7.46-15.04-15.06-29.54-25.63-42.61-16.45-20.34-31.96-41.54-41.41-66.29-7.29-19.08-10.78-38.9-11.5-59.41-1.04-29.76,7.4-57.13,18.83-83.97,9.6-22.54,22.12-43.45,35.06-64.18,10.93-17.51,22.41-34.79,29.48-54.4,2.79-7.75,5.11-15.66,7.61-23.51.88-2.75,1.26-5.74,2.59-8.24,2.15-4.06,1.34-10.98,8.29-10.89,7.79.11,16.34-.36,20.49,8.48,2.27,4.83,4.45,9.9,5.44,15.1,1.84,9.75,2.88,19.65,1.22,29.61-.95,5.7-1.67,11.43-2.49,17.14.94.28,1.87.56,2.81.84Z"/>
  <path class="cls-1" d="M168.01,589.86c-8.37,6.14-17.04,9.45-27.41,10.2-17.21,1.25-34.32,4.32-51.39,7.17-11.43,1.91-20.38,8.52-28.09,16.96-2.99,3.28-6.27,6.29-9.83,9.84-3.19-13.45-1.67-18.76,6.54-25.7,10.45-8.84,22.94-13.04,36.04-15.71,11.76-2.39,23.63-2.84,35.68-2.73,12.75.11,25.61,4.43,38.45-.03Z"/>
  <path class="cls-1" d="M48.63,638.93c-4.89,5.34-9.77,10.68-15.99,17.46,8.38.71,15.28,1.29,22.18,1.88.14.66.27,1.33.41,1.99-1.9,1.06-3.69,2.69-5.72,3.09-8.88,1.74-17.8,3.39-26.78,4.5-3.14.39-6.64-.39-9.68-1.47-3.45-1.23-3.84-5.47-1.2-8.15.29-.29.57-.62.92-.83,11.24-6.91,22.48-13.81,33.72-20.71.71.75,1.42,1.49,2.14,2.24Z"/>
  <path class="cls-1" d="M104.01,624.71c1.77,9.83-1.2,14.45-7.61,17.26-5.71,2.5-11.12,2.49-15.76-2.19-.67-.67-.78-2.15-.68-3.21.05-.53,1.34-1.5,1.77-1.36,9.29,3.07,15.18-2.67,22.28-10.5Z"/>
</svg>