<?xml version="1.0" encoding="UTF-8"?>
<svg id="Layer_1" data-name="Layer 1" xmlns="http://www.w3.org/2000/svg" version="1.1" viewBox="0 0 1111.58 714.21">
  <defs>
    <style>
      .cls-1 {
        fill: #000;
        stroke-width: 0px;
      }
    </style>
  </defs>
  <path class="cls-1" d="M586.21,172.05c-7.74,2.5-15.82,4.26-23.14,7.66-16.66,7.74-33.24,15.77-49.33,24.62-20.29,11.16-41.54,15.44-64.28,11.36-6.59-1.18-12.99-3.59-19.34-5.82-3.16-1.11-6.25-2.76-8.97-4.72-4.93-3.53-12.29-2.42-15.66-9.08-4.47-8.82-4.88-18.72-2.22-26.98,10.51-32.56,17.58-66.36,34.2-96.84,9.93-18.21,24.96-32.04,38.73-46.85,7.97-8.57,19.37-13.05,31.34-13.54,46.2-1.87,90.34,5.59,131.21,28.73,16.72,9.47,29.02,22.18,36.12,40.08,4.1,10.33,8.69,20.45,13.18,30.62,1.79,4.05,3.81,6.25,8.38,2.16,9.83-8.78,22.43-7.56,33.27-4.86,20.1,5,35.76,17.14,42.51,37.76,1.71,5.22,3.42,4.35,6.95,2.83,20-8.57,40.03-17.06,60.08-25.49,25.99-10.92,52.83-20.08,81.06-20.27,30.04-.19,58.74,6.91,80.61,30,14.24,15.03,28.58,30.06,41.72,46.04,8.53,10.37,14.85,22.53,22.41,33.71,5.41,8,10.61,16.28,17.02,23.42,12.83,14.29,17.59,30.72,15.84,49.49-.85,9.13-4.52,16.48-11.73,22.42-26.56,21.89-55.14,22.85-85.3,8.76-3.5-1.64-6.75-3.91-10.35-5.26-13.74-5.13-23.12-15.08-32.05-26.32-30.45-38.32-67.63-67.67-115.02-82.36-23.6-7.31-47.72-6.58-71.85-2.85-1.37.21-2.64,1.07-3.96,1.63.87,1.12,1.51,2.67,2.65,3.29,6.71,3.63,13.61,6.91,20.32,10.54,21.42,11.57,45.67,14.78,68.02,23.04,27.63,10.21,51.06,27.91,60.34,58.31,2.51,8.23,2.76,17.13,4.56,25.62.97,4.59,2.48,9.24,4.69,13.36,8.13,15.17,18.84,28.33,33.75,37.23,22.71,13.56,33.01,34.41,36.84,59.52,2.7,17.66,5.81,35.27,8.4,52.95,2.31,15.69.06,31.19-6.19,45.48-20.95,47.87-33.13,98.74-51.42,147.49-3.53,9.41-8.54,18.35-13.67,27.03-3.45,5.83-6.94,5.72-11.3.45-5.17-6.25-10.37-12.56-14.65-19.41-1.5-2.4-1.06-6.67-.23-9.74,2.4-8.84,4.89-17.73,8.35-26.18,11.91-29.02,24.03-57.95,36.53-86.72,5.43-12.5,10.95-24.73,9.55-38.88-.33-3.28.7-6.7,1.07-10.06.48-4.31,1.72-8.71,1.24-12.91-2.19-19.14-6.02-38.02-6.47-57.46-.15-6.26-5.74-13.37-10.63-18.33-10.14-10.3-21.45-19.46-32.35-29-2.82-2.46-5.91-4.61-8.88-6.9-1.84,3.34-3.76,6.65-5.5,10.04-16.33,31.83-38.42,59.16-64.36,83.65-26.41,24.95-52.62,50.11-78.47,75.64-23.58,23.28-49.98,42.96-77.32,61.33-21.13,14.2-56.7,9.57-75.59-8.67-7.65-7.38-13.93-16.17-21.54-23.59-25.28-24.67-50.68-49.21-76.44-73.37-9.94-9.32-14.98-21.21-20.34-33.09-1.66-3.68-1.86-8.74-7.56-2.88-1.94,2-6.49,3.06-9.25,2.31-5.2-1.41-6.2,1.57-6.58,4.92-4.51,39.41-22.2,73.74-41.11,107.63-3.52,6.31-6.63,12.88-9.44,19.53-5.89,13.96-13.58,26.77-23.44,38.24-10.56,12.3-23.84,16.79-40.1,15.49-31.54-2.51-60.29-12.59-87.45-28.47-29.73-17.38-61.43-30.46-93.5-43-29.67-11.6-58.51-25.49-87.2-39.42-20.29-9.85-37.03-24.85-51.21-42.3-24.09-29.64-31.14-63.82-24.59-100.94,6.27-35.52,20.39-67.43,45.29-94.09,19.46-20.83,44.32-31.04,71.78-34.51,32.75-4.14,63.29,3.21,90.84,21.89,7.17,4.86,7.08,4.68,10.94-2.56,12.25-23.01,28.78-42.4,49.69-58,3.1-2.31,6.43-4.31,9.59-6.55,5.38-3.82,5.13-4.07.19-7.55-26.8-18.93-57-19.5-87.67-15.71-12.85,1.59-25.51,5.27-38.02,8.83-10.17,2.9-17.47,9.31-21.71,19.67-3.46,8.42-8.51,16.25-13.39,24.01-2.27,3.61-5.4,7-8.89,9.41-3.39,2.34-7.78,4.65-11.65,4.51-4.94-.17-3.83-5.56-4.8-9.18-.7-2.59-3.08-4.78-4.9-6.99-4.61-5.62-9.42-11.07-13.98-16.73-5.96-7.4-5.21-9.89,3-14.16,5.53-2.87,10.78-6.29,16.03-9.66,17.5-11.23,34.58-23.17,52.48-33.7,30.47-17.93,63.02-19.37,96.71-10.57,25.92,6.77,50.05,17.77,73.54,30.23,10,5.31,19.19,8.91,31.44,6.8,14.79-2.55,29.89.67,43.32,8.51,6.68,3.9,13.89,7.34,19.58,12.42,21.39,19.09,45.63,18.06,70.88,11.23,9.42-2.55,17.32-7.86,25.48-13.28,18.23-12.12,34.16-25.93,47.11-43.89,6.51-9.03,17.14-15.1,25.9-22.51,1.98-.97,3.95-1.94,5.93-2.91,1.07-.56,2.14-1.12,3.21-1.68-.96.68-1.93,1.36-2.89,2.03-2,.94-4.01,1.88-6.01,2.82ZM1022.3,169.22c.1-.1.19-.19.29-.29.92,1.94,1.85,3.88,2.77,5.82,4.98,21.87,17.25,38.88,34.9,52.29,1.02.94,2.04,1.88,3.07,2.82,1.87,2.95,3.74,5.89,5.61,8.84,1,.97,1.99,1.94,2.99,2.91,1.37,3.5,2.55,7.09,4.15,10.48,9.94,21.1,7.12,38.42-9.02,55.04-2.32,2.39-4.55,4.87-6.82,7.3-.34.65-.68,1.31-1.03,1.96.23-.75.45-1.51.68-2.26,12.01-1,19.18-9.73,27.14-17.12.98-.9,1.46-2.46,1.91-3.8,6.52-19.44,0-38.78-17.25-51.37-1.02-.94-2.04-1.88-3.06-2.82-1.87-2.95-3.74-5.89-5.62-8.84-1-.97-2-1.94-3-2.9-.16-1.41.11-3.07-.55-4.18-7.47-12.77-14.74-25.67-22.83-38.03-2.7-4.12-7.6-6.8-11.49-10.14-.95-1.9-1.9-3.81-2.85-5.71ZM743.08,186.26c7.37-2.04,14.75-4.05,22.11-6.14.88-.25,1.65-.87,2.46-1.32-.88-.34-1.74-.76-2.64-1-9.75-2.57-14.8-.51-21.6,8.8-1.01.99-2.01,1.99-3.02,2.98-4.68,4.1-9.33,8.22-14.06,12.25-.61.52-1.63.56-2.46.82-.26-.88-.97-1.93-.72-2.62,1.48-4.06,2.99-8.12,4.84-12.02,5.93-12.53,15.56-21.98,25.79-31.01,8.79-7.75,8.94-11.49,1.61-20.61-6.52-8.13-14.76-13.73-24.68-17.12-18.06-6.18-29.24-.67-33.6,17.67-4.34,18.27-9.39,36.46-9.47,55.51-.02,4.97-1.92,7.91-6.92,3.47-2.83-2.52-4.07-1.52-4.12,1.71-.15,9.79,3.37,18.53,11.27,23.92,8.19,5.59,17.85,4.61,26.1-.53,12.13-7.56,20.58-18.55,26.05-31.78,1.01-1,2.03-2,3.04-2.99ZM673.43,180.72c-13.42,10.6-18.88,25.61-14.01,40.78,1.04,3.25,4.24,6.41,7.26,8.33,18.44,11.74,38.92,13.84,60.02,11.09,3.79-.49,9-3.09,10.44-6.17,3.83-8.19,6-17.16,8.73-25.86.25-.81-.29-1.86-.46-2.8-.91.52-2.11.83-2.69,1.6-6.37,8.53-12.46,17.19-21.87,22.94-17.33,10.58-44.9,9.45-51.77-20.82-1.01-4.47-.44-9.49.27-14.12.79-5.13,2.57-10.11,3.92-15.15.5-.61.99-1.22,1.49-1.82-.44.67-.87,1.34-1.31,2.01ZM617.93,44.19c-.1-.39-.13-.81-.32-1.15-.11-.2-.46-.28-.7-.42.45.42.9.84,1.35,1.25,3.54,3.91,6.49,8.74,10.75,11.57,12.72,8.47,19.67,20.9,26.12,34.1,5.07,10.37,11.17,20.25,16.88,30.3,2.15,3.78,4.43,7.49,6.73,11.18,1.64,2.64,3.4,5.2,5.11,7.8,1.25-3.11,2.95-6.12,3.61-9.35.44-2.16-.04-4.91-1.06-6.91-7.91-15.48-16.01-30.86-24.14-46.22-9.5-17.94-25.73-26.69-44.32-32.16ZM656,183.64c-23.09,1.38-42.17,12.74-60.99,24.65-.95.6-1.19,2.32-1.77,3.52,1.41.26,2.82.61,4.24.76,10.08,1.01,20.22,1.62,30.23,3.09,5.67.83,12.08,5.61,16.5,4.01,6.78-2.44,1.05-10.95,3.47-16.41,2.88-6.52,5.45-13.19,8.15-19.79.46-.08.98-.06,1.34-.28.21-.13.16-.67.23-1.02-.46.49-.92.99-1.39,1.48ZM440.64,198.18c-.98-.8-1.87-2.04-2.97-2.28-1.02-.23-2.28.6-3.44.97.84.33,1.66.84,2.53.96,1.34.18,2.71.1,4.07.13.91.93,1.66,2.4,2.75,2.72,23.04,6.7,44.91,3.68,65.58-8.34,27.69-16.11,57.33-27.83,87.31-38.79,6.34-2.32,12.73-4.66,19.28-6.21,17.05-4.04,33.43-5.6,45.86,11.13,3.61,4.86,9.56,8,14.59,11.74.55.41,2.93-.34,3.02-.83,1.07-5.69,2.6-11.45,2.42-17.14-.09-2.63-3.75-5.08-5.62-7.74-8.59-12.23-18.77-23.7-25.3-36.96-9.79-19.88-22.39-36.77-38.95-51.45-20.32-18.01-41.78-30.89-70.46-26.69-21.84,3.2-40.61,11.41-55.61,28.07-14.79,16.42-21.46,36.56-26.87,57.16-4.36,16.59-11.03,31.9-20.5,46.11-2.95,4.43-5.85,8.91-8.37,13.59-1.86,3.44-1.27,7.02,2.86,8.21,10.09,2.91,19.81,6.37,31.01,4.89,15.78-2.08,29.55-8.57,43.42-15.4,16.48-8.12,32.83-16.51,49.55-24.09,15.8-7.17,31.86-13.84,48.08-20,24.28-9.22,45.42-3.43,63.36,14.93.81.83.93,2.33,1.37,3.52-1.3.07-2.83.62-3.87.13-4.76-2.24-10.04-4.01-13.93-7.35-10.75-9.23-22.92-9.78-35.5-6.47-9.76,2.57-19.53,5.73-28.62,10.04-26.19,12.41-52.43,24.8-77.89,38.61-21.81,11.83-44.02,19.7-69.14,16.84ZM353.69,651.47c11.21,1.02,19.65-3.55,26.49-12.15,8.49-10.67,16.23-21.64,19.67-35.14.95-3.72,2.64-7.26,4.11-10.83,16.41-39.7,32.85-79.39,49.21-119.11.66-1.6,1.25-3.78.71-5.24-4.82-12.92-.65-25.79-.32-38.7.63-25.11.66-50.24.64-75.37,0-9.13-2.33-18.51-.89-27.33,1.36-8.35-1.28-13.93-5.97-19.73-5.78-7.16-11.96-14.34-12.68-23.98-.72-9.61-5.88-16.65-12.94-21.77-11.31-8.2-22.92-16.39-35.47-22.33-8.39-3.98-18.81-6.28-28.01-5.54-45.65,3.68-83.88,21.63-109.73,61.26-4.23,6.48-8.4,13.01-12.86,19.32-4.59,6.48-9.02,7.53-16.01,4.08-2.16-1.06-4.07-2.6-6.13-3.87-27.36-16.81-56.95-23.43-88.61-17.7-28,5.06-52.09,17.62-69.66,40.86-17.26,22.82-27.98,48.6-32.67,76.62-5.78,34.55.34,66.76,24.61,93.25,10.03,10.94,21.51,21.21,34.04,29.08,32.02,20.12,67.21,33.88,102.36,47.61,21.13,8.26,42.03,17.18,62.64,26.66,13.59,6.25,26.44,14.11,39.7,21.09,21.24,11.18,44.02,16.92,67.78,18.98ZM493.74,419.07c-.23,0-.45.02-.68.03,0,7.75.66,15.57-.15,23.23-1.38,13.07-.07,24.81,10.57,34.11,2.45,2.14,4.14,5.4,5.55,8.44,4.64,9.99,12.12,17.35,20.83,23.73,3.51,2.57,6.99,5.23,10.12,8.23,26.21,25.09,52.5,50.1,78.42,75.49,16.76,16.42,39.88,18.54,58.98,4.63,29.36-21.39,57.86-43.56,83.18-70.01,22.39-23.4,47.48-44.19,71.18-66.35,25.34-23.69,46.39-50.6,60.98-82.32,9.65-20.99,15.41-42.66,13.26-66.03-1-10.84-3.49-21.24-10.58-29.58-20.01-23.52-44.54-37.99-76.53-38.03-28.66-.03-56.95,2.94-84.82,9.15-25.33,5.64-49.06,2.15-71.45-10.28-22.63-12.56-46.64-18.25-72.42-16.84-10.63.58-21.63-.51-31.82,1.88-37.01,8.68-60.77,34.02-78.7,65.86-.93,1.65-.85,5.25.31,6.5,9.49,10.21,8.71,23.56,9.77,35.6,2.42,27.43,2.8,55.03,4,82.56ZM953.24,135.74c-22.54.48-44.26,4.46-65.76,10.44-36.21,10.06-71.66,22.99-108.97,28.9-1.39.22-2.71.82-4.07,1.24,1.27.37,2.57,1.13,3.82,1.05,5.28-.34,10.58-.65,15.8-1.46,24.14-3.77,47.98-4.55,71.26,4.86,6.23,2.52,12.87,4.02,19.34,5.93,18.79,5.53,36.57,13.53,50.45,27.44,14.65,14.67,28.32,30.41,41.52,46.42,12.32,14.94,23.77,30.45,39.99,41.72,14.86,10.33,20.19,10.93,34.41-.04,4.89-3.77,9.11-8.64,12.85-13.61,4.58-6.08,5.48-12.99,3.28-20.62-3.31-11.52-9.33-21.46-17.79-29.48-19.8-18.78-32.72-41.56-42.09-66.87-3.16-8.54-8.06-16.46-12.51-24.47-2.41-4.33-5.91-7.24-11.46-7.72-10.05-.87-20.05-2.45-30.07-3.73ZM997.82,497.11c-4.64-27.7-8.84-54.88-13.91-81.89-1.91-10.14-7.59-18.93-15.81-25.48-16.67-13.27-33.98-25.87-43.5-45.91-.33-.7-1.58-.97-2.4-1.44-.33.78-.79,1.52-.97,2.33-1.59,7.06-1.93,14.7-4.98,21.05-4.39,9.17-.25,14.84,6.13,19.24,14.19,9.77,24.27,23.55,36.31,35.39,11.77,11.58,13.82,25.97,13.62,41.37-.07,5.69.44,11.42,1,17.09.71,7.17,2.54,14.32,2.45,21.46-.12,9.11-2.73,18.25-2.37,27.31.63,15.71-4.98,29.23-11.66,42.78-15.63,31.67-27.09,65.01-39.27,98.08-3.52,9.56-1.44,16.23,3.98,23.57,3.13,4.23,5.32,3.59,7.19-.36,2.67-5.65,5.1-11.45,7.13-17.36,4.06-11.86,7.66-23.88,11.67-35.75,12.48-36.98,22.6-74.75,37.92-110.81,4.05-9.54,5.06-20.38,7.48-30.67ZM211,186.23c-16.85-1.45-32.85,2.61-47.28,10.77-19.71,11.15-39.07,23.05-57.75,35.84-17.67,12.09-17.2,12.78-2.25,28.02.68.69,1.43,1.31,2.06,2.04,3.05,3.51,5.95,4.76,8.78-.26,4.02-7.14,8.99-13.89,11.99-21.43,6.11-15.32,17.46-24.12,32.72-28.14,27.21-7.17,54.76-12.04,82.92-6.35,10.8,2.18,21.31,5.81,32,8.58,6.16,1.6,11.47,3.73,15.75,9.2,4.68,5.99,11.28,8.59,19.2,4.71,3.85-1.89,8.24-2.65,12.3-4.15,1.53-.56,2.83-1.75,4.24-2.65-1.24-.72-2.42-1.57-3.72-2.13-19.03-8.19-37.76-17.24-57.22-24.24-17.17-6.17-34.98-11.04-53.74-9.83ZM966.71,130.94c.48.03.97.13,1.45.07,1.89-.22,3.78-.48,5.67-.73-1.44-1.16-2.7-2.69-4.33-3.42-19.18-8.54-38.78-13.15-60.26-10.89-24.35,2.56-46.92,10.44-69.44,19-22.06,8.38-44.13,16.74-66.06,25.46-4.14,1.65-7.6,4.99-11.37,7.56,4.21-.16,8.63.43,12.61-.62,28.38-7.46,56.66-15.33,85.01-22.93,34.95-9.36,70.09-17.43,106.73-13.5ZM839.27,184.61c-4,.52-5.34.7-6.69.87,1.32,1.08,2.49,2.69,4,3.15,9.63,2.98,19.76,4.73,28.95,8.69,42.53,18.35,78.1,45.67,105.63,83.28,4.45,6.08,10.84,10.81,16.63,15.82,1.61,1.39,4.29,1.55,6.49,2.27-1.09-1.74-1.99-3.62-3.29-5.19-6.46-7.81-13-15.55-19.54-23.3-11.2-13.27-22.23-26.69-33.68-39.74-9.34-10.64-20.19-20.13-33.4-24.99-22.08-8.12-44.82-14.47-65.09-20.87ZM418.77,164.72c1.09-1.31,1.76-2,2.29-2.77,9.79-14.37,19.19-28.89,23.39-46.17,2.15-8.87,4.81-17.65,7.88-26.25,8.66-24.23,22.09-44.95,44.64-58.68,3.26-1.99,6.45-4.09,9.67-6.14-4.08.65-8.55.46-12.14,2.15-4.68,2.22-9,5.55-12.83,9.1-4.58,4.25-8.2,9.53-12.73,13.84-15.38,14.67-25.45,32.66-32.49,52.38-6.15,17.21-11.53,34.7-17.18,52.09-.73,2.26-1.19,4.64-1.48,7-.12.97.55,2.03.98,3.45ZM647.06,168.85c3.47.93,3.99,1.26,4.4,1.15,2.12-.58,4.21-1.27,6.31-1.92-2.07-1.53-4.18-4.42-6.21-4.37-9.53.22-19.57-.44-28.47,2.31-25.8,7.97-47.74,22.68-66.13,42.53-.98,1.06-1.96,2.13-2.83,3.29-1.58,2.12-1.15,3.6,1.64,3.62,8.79.07,16.72-.68,23.43-8.34,13.55-15.45,30.44-26.67,49.84-33.65,6.66-2.4,13.76-3.55,18.02-4.62ZM786.7,232.84v-.41c2.89,0,5.78.09,8.65-.04,1.25-.06,2.49-.58,3.73-.9-1.07-.91-2.02-2.38-3.23-2.65-10.42-2.26-20.46-5.17-28.25-13.12-3.33-3.4-6.95-6.53-10.43-9.78-.84,4.78-1.46,9.62-2.6,14.33-.78,3.24-2.02,6.43-3.53,9.41-2.08,4.1-1.79,6.11,3.47,6.06,7.88-.07,8.23-.33,6.09-7.58-.27-.92-.74-1.82-.81-2.76-.3-3.65-.47-7.32-.7-10.97,2.44,2.75,4.94,5.45,7.3,8.27.92,1.09,1.97,2.36,2.22,3.68,1.2,6.41,5.68,6.88,10.89,6.48,2.39-.19,4.8-.03,7.21-.03ZM468.04,279.57c7.07,1.5,13.8-2.34,17.39-11.72.49-1.28.87-2.61,1.3-3.92-1.31-.21-2.7-.82-3.91-.56-12.59,2.7-25.02,6.28-38.16,2.7-3.4-.93-1.76,1.95-1.18,3.51,3.93,10.66,13.3,9.1,24.56,9.98ZM478.84,326.76c-1.1-4.37-1.5-9.89-3.87-14.38-2.69-5.1-3.56-2.12-3.4,1.6.03.64-1.06,1.88-1.71,1.93-9.85.83-9.42,7.99-8.88,14.78.83,10.47,2.06,20.91,3.25,31.34.11.97,1.12,1.84,1.71,2.75.32-.89.84-1.75.93-2.66,1.13-11.45,2.1-22.91,3.41-34.34.16-1.38,2.08-2.57,3.19-3.84.69,1.16,1.54,2.26,2.03,3.5.68,1.73,1.1,3.57,1.63,5.36.47-1.69.95-3.38,1.7-6.05ZM464.84,449.42c-1.52,9.05-.2,13.96,4.6,17.36,1.68,1.19,3.97,2.38,5.82,2.17,1.13-.13,2.5-2.83,2.8-4.54.4-2.26.14-4.74-.33-7.02-2.71-13.01-5.56-25.98-8.38-38.97-.2-.92-.51-1.81-.77-2.72-.46.97-1.23,1.91-1.32,2.91-.96,11.41-1.81,22.83-2.42,30.81ZM478.72,392.43s-.05,0-.07,0c0,15-.04,30,.05,45,.01,1.86.75,3.71,1.15,5.57.53-1.68,1.53-3.37,1.52-5.05-.17-30.48-.45-60.96-.77-91.44-.01-1.1-.71-2.19-1.08-3.28-.27,1.4-.76,2.79-.77,4.19-.06,15-.04,30-.04,45ZM458.09,290.79c.83-.06-.48.04-1.79.13.32,1.24.56,2.5.98,3.7.31.88.9,1.65,1.31,2.5,1.92,3.99,4.66,5.95,8.78,2.98,1.97-1.42,3.54-3.41,5.29-5.14-2.73-1.18-5.41-2.48-8.2-3.48-1.3-.46-2.8-.34-6.38-.69ZM512.07,21.86c.12.23.19.59.36.65.38.12.81.09,1.22.12-.12-.34-.18-.9-.39-.96-.35-.1-.79.11-1.19.19Z"/>
  <path class="cls-1" d="M438.4,375.36c-.93,41.41-5.78,71.95-13.56,101.82-7.04,27.01-15.8,53.64-25.1,79.98-7.46,21.13-20.51,39.44-34.06,57.11-11.04,14.39-27,16.4-43.39,13.55-22.92-3.99-44.73-11.63-65.51-22.41-12.4-6.43-25.39-11.78-38.3-17.16-28.16-11.73-55.35-25.3-80.87-42.07-15.77-10.36-31.11-21.4-47.16-31.28-33.76-20.78-42.02-52.21-38.22-88.89,1.04-10.05,2.38-20.12,4.41-30.01,3.27-15.94,10.27-30.11,21.98-41.72,2.39-2.37,4.74-4.84,6.74-7.54,13.75-18.58,32.19-25.58,55.12-25.78,19.32-.17,36.94,4,54.53,11.21,11.5,4.71,23.7,7.82,35.79,10.86,2.26.57,6.3-1.91,8.07-4.14,6.92-8.69,13.89-17.46,19.7-26.9,19.43-31.55,47.84-46.41,84.39-47.75,19.4-.71,37.36,2.62,53.96,13.2,9.7,6.18,17.4,13.77,22.12,24.27,12,26.72,20.61,54.21,19.38,73.65ZM425.79,395.13c.11-29.83-6.01-53.11-16.33-76.08-9.73-21.66-26.93-32.86-47.98-34.93-34.36-3.38-65.27,5.87-85.95,36.87-4.55,6.82-9.81,13.2-15.02,19.55-16.1,19.58-31.76,22.94-54.96,12.59-7.02-3.13-14.48-5.38-21.86-7.63-35.5-10.84-44.26-10.1-77.92,5.06-15.84,7.13-27.53,18.51-33.06,34.74-8.83,25.91-11.88,52.54-5.62,79.7,3.19,13.83,10.37,24.88,22.02,32.94,10.73,7.43,21.66,14.58,32.36,22.04,32.22,22.47,66.62,40.91,102.79,56.18,12.43,5.25,24.88,10.57,36.83,16.8,19.38,10.11,39.34,17.94,60.95,22.18,17.32,3.39,30.14-.95,39.89-15.73,12.8-19.38,25.81-38.57,32.65-61.13,6.15-20.28,13.46-40.26,18.51-60.8,7.01-28.56,11.49-57.65,12.71-82.36Z"/>
  <path class="cls-1" d="M886.32,330.25c.79,10.77-2.9,22.71-7.93,34.37-10.88,25.23-27.87,46.43-45.05,67.4-29.25,35.69-62.87,67.17-96.79,98.3-11.77,10.81-23.42,21.81-35.88,31.78-7.86,6.28-16.91,11.22-25.82,16.01-12.13,6.52-25.6,5.91-38.36,3.51-6.54-1.23-13.09-6.27-18.11-11.17-35.67-34.8-62.49-76.23-87.74-118.78-11.3-19.04-15.81-40.37-20.17-61.7-2.61-12.77-5.25-25.55-7.18-38.43-7-46.67,11.68-88.62,58.88-107.61,11.18-4.5,23.03-3.8,34.28-.92,20.13,5.14,39.34,12.86,56.94,24.22,12.44,8.03,25.3,13.55,40.89,9.58,7.86-2,16.41-1.12,24.45-2.6,8.46-1.56,16.86-3.92,24.98-6.77,9.67-3.4,19.32-5.63,29.68-5.7,20.4-.14,40.57,1.68,60.39,6.31,6.98,1.63,13.91,4.3,20.29,7.6,21.13,10.94,32.71,28.06,32.23,54.61ZM581.01,252.62c-2.47.36-8.61.09-13.8,2.19-39.54,15.99-57.39,49.64-52.16,91.63,1.6,12.88,4.74,25.59,7.44,38.32,5.23,24.63,11.54,48.8,26.02,70.1,23.37,34.38,46.27,68.93,75.24,99.25,13.95,14.6,29.26,16.71,45.58,8.74,10.31-5.03,20.07-11.76,28.91-19.12,15.61-13,30.47-26.9,45.38-40.71,35.55-32.94,69.53-67.37,98.43-106.44,13.27-17.94,25.69-36.5,29.92-58.97,1.12-5.96,1.09-12.49,0-18.46-3.22-17.47-14.89-27.62-31.11-33.1-21.4-7.24-43.65-7.45-65.85-7.15-7.12.1-15.03.66-21.17,3.78-14.22,7.23-29.35,9.18-44.68,10.95-6.73.78-13.58.74-20.21,1.98-16.07,3.02-28.31-2.82-38.21-15.12-2.7-3.35-5.23-7.58-8.84-9.34-18.25-8.86-36.79-17.16-60.9-18.52Z"/>
</svg>