<?xml version="1.0" encoding="UTF-8"?>
<svg id="Layer_1" data-name="Layer 1" xmlns="http://www.w3.org/2000/svg" version="1.1" viewBox="0 0 333.42 557.64">
  <defs>
    <style>
      .cls-1 {
        fill: #000;
        stroke-width: 0px;
      }
    </style>
  </defs>
  <path class="cls-1" d="M163.45,259.54c.68,4.61.8,9.39,2.18,13.79,1.85,5.94-.83,11.27-1.13,16.89-.03.6-.92,1.16-1.7,2.07-.6-1.09-1.19-1.88-1.5-2.77-4.97-14.17-10.52-28.18-14.69-42.59-4.94-17.05-2.54-33.35,8.58-48.11-1.61-1.51-3.41-2.99-4.97-4.69-5.99-6.53-5.3-15.35,2.05-20.17,2.67-1.75,3.37-3.14,2.99-6.18-1.18-9.51-2.55-19.06-2.8-28.62-.44-16.67-.18-33.36-.04-50.04.03-3.86.59-7.75,1.21-11.58.98-6.07,4.17-10.79,10.03-12.89,3.19-1.14,2.81-3.24,2.9-5.56.09-2.45-.27-4.11-3.02-5.48-8.42-4.19-10.39-8.66-8.12-17.65,1.13-4.49,2.54-9.01,4.6-13.13,3.34-6.67,7.32-13.02,11.34-20.04,1.85,5.34,1.72,5.29-.03,9.81-2.98,7.73-5.79,15.51-8.64,23.29-1.06,2.88-.72,5.69,1.04,8.19,1.7,2.41,4.94,2.7,6.16.08,1.33-2.88,5.69-2.59,5.74-6.18.06-4.67.02-9.35-.15-14.02-.09-2.32-.72-4.61-.85-6.93-.16-2.82-.04-5.66-.04-9.93,1.59,2.13,2.43,3.01,2.99,4.05,3.86,7.17,6.45,14.71,6.3,22.99-.13,7.02-1.66,13.45-7.74,17.87-2.09,1.51-2.9,3.45-3,5.99-.12,2.85.36,4.64,3.45,6.02,6.9,3.08,11.29,8.22,10.48,16.46-2.04,20.76-1.17,41.61-1.85,62.41-.25,7.52-.97,15.03-1.57,22.54-.11,1.42-.68,2.81-2.23,4.22-.23-2.08-.38-4.18-.72-6.25-.33-2.04-1.14-4.04-1.25-6.09-.64-11.68-1.9-23.39-1.47-35.04.43-11.6,2.63-23.13,3.97-34.7.3-2.58.13-5.21.36-7.8.44-4.76-2.42-7.28-6.21-8.87-3.93-1.65-8.41-1.18-10.7,2.14-2.03,2.94-3.34,7.42-2.81,10.89,1.84,11.96,1.05,23.9,1.03,35.86-.04,18.73,0,37.46,0,57,3.19.03,6.22,0,9.25.13,2.05.09,4.12.33,6.13.74.57.12,1.29,1.05,1.35,1.67.06.58-.52,1.44-1.07,1.82-3.49,2.37-7.46,1.97-11.35,1.66-2.41-.19-4.74-2.38-7.28-.08-.26.24-2.06-.56-2.47-1.27-.75-1.29-1-2.87-1.6-4.79-2.74,2.86-4.79,5.54-3.24,9.57,1.48,3.87,4.59,5.58,8.41,6.01,9.04,1.02,17.62-.76,25.63-4.95,4.54-2.38,4.59-3.33,1.64-8.17-.22-.36-.03-.97-.03-1.47,5.57-.78,9.24.59,10.37,3.89,1.16,3.38-.36,7.74-3.91,10.25-2.32,1.64-4.93,2.88-7.87,4.56,1.09,1.2,2.21,2.42,3.3,3.65,3.57,4.04,5.62,8.72,5.61,14.16-.02,7.79.73,15.62-1.48,23.28-.34,1.19-.16,2.54-.24,4.43,4.16-1.71,5.33-5.12,6.2-8.32,2.31-8.49,4.12-17.12,6.36-25.63,1.68-6.37,4.26-12.3,10.38-16.4-6.35-6.29-5.41-13.23-1.46-20.33-1.47-1.07-3.06-2.01-4.38-3.23-6.84-6.35-5.55-14.74,3.03-18.71.93-.43,1.84-.29,1.81-1.55-.06-2.86-.05-5.74-.29-8.59-.36-4.39-1-8.75-1.34-13.14-.61-7.76-.8-15.57-1.69-23.3-.92-7.97,1.31-13.84,9.52-16.6-2.67-3.2-5.54-5.73-7.24-8.89-3.17-5.92-1.85-12.11.48-18.04.95-2.41,2.25-4.68,3.48-6.97,2.79-5.18,5.63-10.32,8.55-15.64,1.79,2.05,3.03,4.07,1.84,6.87-1.62,3.81-3.05,7.7-4.77,11.46-2.05,4.51-4.34,8.97-3.76,14.1.27,2.38,1.15,4.7,2.18,8.7,2.22-5.98,3.8-10.25,5.83-15.73,2.59,5.97-1.71,10.59.33,15.44,3.84-.63,5.53-3.34,5.63-6.84.11-3.86-.42-7.73-.71-11.6-.09-1.21-.35-2.41-.76-5.13,5.89,5.36,7.91,11.09,8.62,17.05.67,5.56-2.77,9.72-7.42,13.62,3.79,5.22,3.67,11.43,3.43,17.63-.62,15.82-1.29,31.64-1.94,47.58-2.93-1.11-2.24-3.46-2.54-5.42-2.23-14.75-1.68-29.59-1.41-44.41,0-.78.17-1.62-.04-2.34-.71-2.4,1.59-6.44-2.87-6.81-4.51-.38-9.51,3.58-9.79,7.18-.16,2.07.03,4.17.19,6.25.8,10.34,1.88,20.67,2.36,31.03.21,4.6-.77,9.25-1.22,14.04,4.96,1.01,9.55,1.95,15.94,3.26-5.8,3.64-10.12,5.31-15.11,5.66-4.54.32-4.31-3.67-6.26-6.67-.5,1.71-.88,2.81-1.12,3.94-.8,3.76-.17,5.39,2.76,7.06,3.35,1.91,7.03,2.11,10.6,1.18,2.72-.71,5.34-2.01,7.8-3.4,4.14-2.35,4.08-2.47,3.25-7.8,7.1,1.99,8.8,5.85,5,11.54-.71,1.07-1.98,1.8-2.57,2.91-.5.93-.91,2.53-.45,3.23,4.9,7.42.88,12.99-4.24,18.42.38-2.49.88-4.98,1.11-7.48.16-1.76.29-3.64-.13-5.33-1.14-4.67-1.74-4.9-6.95-3.95-1.02.19-2.07.22-3.11.35-4.56.58-5.74,1.7-6.38,6.02-1.11,7.52.69,10.28,8.31,10.84,7.01.51,12.52,3.36,16.69,8.77,6.23,8.09,3.34,20.16-8.93,23.82-2.18.65-2.54.32-6.17-3.57,3.02-1.54,6.16-2.85,8.96-4.66,3.52-2.28,3.91-5.12,1.73-8.72-3-4.97-7.91-6.98-13.2-6.92-5,.06-8.87,3.13-10.34,8.13-1.39,4.7-2.3,9.55-3.36,14.34-1.51,6.83-2.64,13.75-7.1,19.56-3.12,4.06-6.48,7.32-12,7.64-1.3.07-3.3,1.07-3.66,2.11-1.51,4.37-2.53,8.91-3.73,13.38-.23.07-.49.1-.68.23-.12.08-.14.32-.21.49l.69-.92c2.84-2.98,5.41-6.28,8.56-8.87,8.04-6.6,15.69-5.26,20.8.28,1.39,1.5,2.42,3.38,3.39,5.21,1.58,2.98,3.01,6.05,4.45,9.11,5.51,11.69,15.69,16.45,27.64,17.24,6.64.44,15.35-3.12,16.75-13.11.6-4.3.9-8.76.5-13.07-.8-8.86.77-16.94,5.64-24.47,3.26-5.04,7.79-8.24,13.73-10.65-4.2-4.05-10.04-6.22-11.11-13.02-1.04-6.61,1.4-11.57,5.31-16.67-1.98-1.38-3.95-2.55-5.68-4-3.77-3.17-5.2-8.58-3.53-12.67,1.39-3.41,7.48-6.95,11.57-6.65.42.03.93.53,1.15.95.19.36.21,1.12-.02,1.33-1.34,1.21-2.88,2.21-4.16,3.48-3.42,3.4-3.17,6.51,1.22,8.65,6.67,3.26,13.87,4.51,21.17,2.62,3.68-.95,7.49-2.29,10.6-4.41,4.56-3.11,4.24-4.32-.96-8.7-1.08,1.45-2.1,2.92-3.24,4.29-.36.43-1.21.96-1.54.8-3.9-1.81-6.9,1.63-10.47,1.71-1.78.04-3.53.89-5.31.95-3.13.09-4.37-1.05-4.54-4.03-.53-9.32-1.39-18.66-1.33-27.98.07-11.78-1.43-23.27-4.08-34.69-.47-2.01-.75-4.06-1.03-6.1-.74-5.3.74-9.75,5.04-13.14,1.22-.96,2.36-2.06,3.43-3.2,1.35-1.43,1.02-2.84-.44-3.96-.82-.62-1.92-.89-2.69-1.55-3.35-2.86-5.4-6.7-5.06-10.93.53-6.67,3.4-12.58,8.37-18.82-.05,8.34-5.47,15.62,1.23,23.21,1.51-3.65,2.78-6.72,4.05-9.79h1.14c.46,2.83.92,5.64,1.41,8.67,4.05-.47,4.68-3.29,3.85-6.14-.93-3.18-2.75-6.1-4.21-9.12-2.02-4.18-4.65-8.18-5.95-12.58-1.45-4.89-1.72-10.13,2.29-15.57.64,2.39,1.47,4.02,1.45,5.63-.12,6.91,2.79,12.53,6.9,17.76,1.76,2.25,3.66,4.47,4.95,6.99,4.23,8.24,4.35,15.85-5.31,20.89,9.36,2.39,9.22,9.48,9.07,16.69-.48,22.12-.88,44.24-1.28,66.35-.02,1,.2,2,.32,3.18,4.14-3.21,8.45-3.11,12.43.06,3.22,2.57,4.28,6.63,1.44,10.41-2.87,3.82-6.88,6.78-10.55,10.27,4.93,9.6,3.52,19.03-4.68,27.69-.44.46-1.47.37-2.22.53.95-3.99,2.32-7.94,2.73-11.98.35-3.49-.12-7.13-.71-10.62-.54-3.2-2.55-4.65-6.14-4.32-3.56.33-7.2-.22-10.81-.22-1.15,0-2.68.19-3.38.92-4.15,4.37-4.33,9.92-3.28,15.28.97,4.96,4.86,7.94,9.61,9.1,3.95.96,8.11,1.13,12.17,1.64,2.52,2.19,5.21,4.22,7.52,6.61,7.15,7.39,8,17.96,2.31,26.4-3.54,5.25-9.7,7.09-16.04,4.14,2.27-.77,4.16-1.08,5.68-2,6.58-3.94,8.82-11.36,5.68-18.15-3.33-7.2-11.39-10.8-18.88-8.44-8.57,2.71-14.28,10.06-14.48,19.2-.14,6.24.3,12.5.24,18.74-.16,16.34-11.12,27.05-27.52,27.48-19.28.52-32.69-8.39-41.4-25.11-1.44-2.76-2.4-5.76-3.78-8.54-1.82-3.67-3.77-4.48-7.44-2.54-5.28,2.78-10.54,5.68-15.41,9.1-3.53,2.48-4.6,6.69-4.85,10.92-.14,2.47-.03,4.95-.03,9.07-5.13-6.87-7.45-12.72-5.58-19.49,1.65-5.98,3.59-11.89,5.7-17.72,4.08-11.24,7.92-22.52,8.01-34.67.02-2.86.03-5.75-.31-8.58-.88-7.34-6.15-11.12-13.57-10.12-2.57.35-5.19.46-7.78.44-4.06-.02-6.94,1.67-8.76,5.31-5.4,10.81-7.86,22.13-3.98,33.82,2.33,7.02,6.08,13.56,9.2,20.31l-.21-.21-.02.04ZM307.58,174.67c-3.96-10.41-3.13-20.57-2.84-30.7.43-14.57.82-29.14,1.12-43.72.02-1.08-.88-3.1-1.34-3.1-1.34.01-3.27.45-3.89,1.41-1.18,1.84-2.25,2.08-4.31,1.87-1.12-.11-2.79,1.36-3.58,2.54-1.92,2.86-2.47,5.9-1.79,9.58,1.64,8.89,3.46,17.9,3.59,26.89.14,9.53-1.69,19.09-2.44,28.65-.21,2.68-1.06,5.58.35,7.94,5.07-.46,9.68-.87,15.13-1.37h0Z"/>
  <path class="cls-1" d="M33.43,225.81c-13.51-7.43-15.32-15.71-9.42-29.09-4.05-3.3-7.86-7.2-6.97-12.84.63-4.01,2.81-7.78,8.83-8.71-.75,1.78-1.11,2.81-1.6,3.78-3.01,5.96-1.63,9.81,4.79,12.04,6.96,2.41,14.15,2.61,21.31.89,2.74-.66,5.54-1.37,8.06-2.57,5.03-2.4,5.33-4.15,2.18-8.73-.48-.69-.52-1.69-.76-2.54.92-.08,1.87-.34,2.76-.22,3.28.44,6.18,1.79,6.98,5.26.84,3.66.61,7.32-2.7,9.98-1.6,1.29-3.26,2.52-5.3,4.1,2.05,5.28,5.65,10.89,2.69,16.73-2.64,5.21-6.47,9.81-10.15,15.24,5.13,4.46,10.36,9.63,12.65,16.73,2.22,6.89,3.97,13.93,5.91,20.91.69,2.5,1.32,5.01,1.98,7.52,3.17,12.19,22.85,16.9,31.7,5.38,4.96-6.45,9.13-13.23,11.86-20.92,2.05-5.76,5.12-10.81,10.88-13.67,5-2.49,10.77-1.47,14.08,2.66.49.61.5,1.79.36,2.65-.05.29-1.26.58-1.92.54-10.05-.62-12.44.92-15.83,10.72-3.15,9.13-7.09,17.83-12.86,25.66-10.14,13.76-29.79,16.02-42.58,4.55-6.51-5.84-8.75-13.91-10.18-22.25-.96-5.62-1.75-11.3-3.19-16.8-1.97-7.53-6-13.8-13.05-17.69-9.26-5.11-17.9-.82-19.47,9.64-1.34,8.91,1.55,13.58,10.21,16.62,1.66.58,3.26,1.33,5.67,2.32-7.26,3.97-13.29,1.7-18.82-1.63-4.83-2.9-7-7.96-6.18-13.44,1.45-9.69,5.58-17.78,15.67-21.3.72-.25,1.32-.81,2.42-1.49v-.03ZM50.78,226.73c1.92-3.39,3.99-6.64,5.67-10.08,2.59-5.29,1.64-10.52-1.08-15.47-.48-.87-1.93-1.71-2.91-1.69-4.9.1-9.79.55-14.69.77-4.58.21-6.54,1.82-7.17,6.31-1.11,7.86,1.45,13.3,10.13,17.03,3.03,1.3,6.33,1.99,10.07,3.13h-.02Z"/>
  <path class="cls-1" d="M144.1,236.67c-12.32,1.27-19.86-4.36-21.13-14.78-.41-3.35-.11-6.77-.36-10.15-.17-2.3-.43-4.66-1.14-6.83-1.66-5.07-6.05-6.26-10.34-3.06-3.41,2.54-4.33,6.39-5.15,10.17-.2.92.89,2.3,1.68,3.21.73.84,1.86,1.33,3.66,2.55-4.36,1.66-7.4,1.95-10.24-.69-2.76-2.57-3.67-5.39-2.08-9.09,1.72-4.01,2.98-8.21,4.42-12.26-2.21-3.25-5.42-6.5-6.76-10.4-1.07-3.13.12-7.05.36-11.53-1.23-.87-3.38-2.21-5.34-3.79-7.09-5.71-4.63-14.16,1.76-16.22,5.49-1.76,6.38-4.99,5.82-9.88-1.01-8.75-1.74-17.53-2.72-26.29-.84-7.59-.42-15.01,2.18-22.25,1.01-2.82,2.76-4.79,5.39-6.35,4.01-2.38,3.83-3.89-.29-6.27-8.13-4.69-9.86-10.67-5.39-18.83.74-1.36,1.7-2.61,2.62-3.87.46-.62,1.04-1.17,1.61-1.7,5.62-5.14,8.65-10.96,3.43-20.26,3.28,1.67,5.13,2.06,5.99,3.19,1.34,1.77,2.53,3.96,2.87,6.12.79,5-1.98,8.96-4.71,12.81-1.66,2.33-3.51,4.53-5.02,6.95-1.48,2.38-1.81,4.87,1.03,7.26.39-.59.89-1.04,1.02-1.58.54-2.2,1.38-3.74,3.13-.93,1.37,2.2,3,2.03,4.55.84,2.21-1.7,4.14-3.77,6.35-5.83.93,4.86-.43,9.15-3.85,12.41-.93.88-2.13,1.47-3.15,2.27-3.57,2.81-3.4,3.87.88,6.09,5.56,2.89,6.8,8.44,7.42,13.74.56,4.83-.36,9.82-.57,14.75-.13,3.1-.4,6.22-.17,9.3.65,8.52,1.67,17.01,2.26,25.53.24,3.43.1,6.65,3.21,9.15,2.56,2.05,2.45,5.16,1.28,7.89-.8,1.87-.81,3.22.09,5.06,2.94,5.97,1.75,11.55-2.15,16.74-.62.82-.97,1.83-1.7,3.24,6.48,4.98,7.81,12.16,7.66,19.9-.05,2.34-.12,4.7.03,7.03.37,5.69,2.1,10.69,7.48,13.69,1.06.59,1.98,1.43,4.09,2.97v-.02ZM117.91,155.9c-.52-4.45-1.26-8.49-1.4-12.55-.23-6.5-.26-13.02,0-19.51.3-7.23.95-14.46,1.6-21.67.27-3.02-.46-5.63-2.11-8.09-1.87-2.77-4.64-2.1-7.07-1.5-2.12.53-4.89,1.08-4.83,4.19.09,5.1-2.1,10-.34,15.35,1.43,4.34,1.69,9.16,1.89,13.79.43,9.99.85,20.01-.94,29.99h13.2ZM122.05,190.42c2.03-7.56,2.31-10.37.5-13.97-.55-1.1-2.24-2.32-3.38-2.3-3.59.07-7.18.59-10.73,1.19-1.09.18-2.45.92-3,1.83-2.64,4.31-1.1,11.06,3.09,13.92.74.5,1.89.67,2.81.58,3.56-.33,7.1-.81,10.71-1.25ZM97.74,155.69c-1.26,2.8-2.94,4.82-2.85,6.76.14,3.03,3.4,3.83,5.76,4.48,3.45.94,7.14,1.67,10.67,1.48,3.27-.18,6.49-1.62,9.68-2.64,1.82-.58,2.3-2.14,1.57-3.74-.63-1.39-1.51-2.62-3.6-1.61-1.6.77-3.51.85-5.23,1.39-6.25,1.95-11.05-.25-16-6.12h0Z"/>
  <path class="cls-1" d="M51.76,179.81c-3.84-14.86-6.81-28.87-4.55-43.85,1.43-9.44.65-19.24.65-28.87,0-3.32-3.53-5.19-6.67-3.78-.58.26-1.05,1.07-1.27,1.73-.24.71-.18,1.54-.15,2.32.35,10.39.47,20.72-1,31.12-1.01,7.16-.34,14.56-.38,21.86-.03,6.5,0,13.01,0,19.75,4.47,2.02,10.14.56,14.07,5.68-4.61.65-8.59,1.51-12.6,1.71-4.68.23-4.56-.07-6.47-4.79-1.02-2.53-1.35-5.49-4.38-7.01-1.59-.8-1.5-2.24.07-3.74.89-.85,1.37-2.85,1.08-4.12-2.59-11.42-.77-22.73.41-34.09.75-7.21,1.22-14.45,1.77-21.68.1-1.29-.11-2.61,0-3.91.5-5.72,1.69-10.99,8.15-11.64v-11.55s-.23-.46-.63-.65c-10-4.8-12.71-10.38-9.08-20.64,1.53-4.32,4.38-8.18,6.71-12.21,2.93-5.05,7.73-9.55,4.59-16.33-.13-.27.35-1.11.71-1.25.61-.23,1.78-.39,1.97-.09,1.1,1.67,2.48,3.39,2.82,5.27.78,4.28-.92,8.13-3.01,11.81-2.18,3.84-4.31,7.71-6.33,11.63-2.15,4.17-2.14,8.56-.41,12.8.62,1.53,2.23,2.65,3.38,3.96,1.22-1.13,2.45-2.25,4.2-3.87.45,1.14.63,2.34,1.32,3.06.5.52,2.11.81,2.48.45,1.9-1.87,3.43-4.04,1.73-6.85-1.47-2.42-3.11-4.75-4.56-7.19-.46-.77-.56-1.76-.82-2.65,1.16-.26,2.45-.98,3.47-.7,6.87,1.91,12.36,12.45,4.24,19.23-4.7,3.92-5.92,7.66-5.64,12.96.06,1.26-.43,2.55-.74,4.15,5.65,2.49,7.02,7.45,7.17,13.31.25,9.61,1.26,19.22,1.14,28.82-.15,12.46-1.06,24.9-1.73,37.35-.03.61-.81,1.19-1.75,2.47l.04.02Z"/>
  <path class="cls-1" d="M192.1,508.35c6.65-1.78,13-2.15,19.16.39,16.09,6.62,17.16,24.61,7.29,33.65-6.85,6.27-14.92,9.44-23.55,11.26-14.63,3.09-29.44,3.04-44.08,0-7.87-1.64-15.31-4.52-21.9-9.59-7.58-5.83-11.1-13.23-9.09-22.42,1.98-9.07,8.4-14.73,17.05-17.69,2.66-.91,5.54-1.24,8.36-1.55.75-.08,1.62.89,2.44,1.38-.6.96-.98,2.26-1.84,2.79-1.51.93-3.42,1.21-4.98,2.08-2.03,1.13-4.04,2.4-5.8,3.91-10.83,9.29-9.75,18.93,2.56,26.09,7.14,4.16,15.02,6.05,22.91,6.85,13.48,1.36,27,.81,39.87-4.32,3.1-1.24,6.23-2.72,8.89-4.7,4.45-3.32,6.69-7.62,3.13-14.28-2.85-5.33-7.4-8.55-12.83-10.75-2.53-1.03-5.06-2.07-7.59-3.1h0Z"/>
  <path class="cls-1" d="M190.47,275.95c7.36-1.45,12.83-.5,18,2.23,8.08,4.27,10.14,12.09,4.94,19.59-1.74,2.51-4.04,4.94-6.63,6.52-13.85,8.41-28.51,13.1-45.15,10.7-7.35-1.06-14.19-2.73-20.61-6.39-6.86-3.92-9.84-9.73-8.86-17.57.85-6.78,7.07-14.13,13.71-15.45,2.35-.47,5.06.29,7.48.95.96.26,2.11,1.74,2.18,2.72.04.69-1.56,2.01-2.54,2.13-3.58.45-6.5,1.97-8.64,4.76-3.31,4.29-5.1,10.26,2.76,13.99,11.82,5.6,24.04,6.24,36.37,2.6,5.4-1.59,10.42-4.49,15.57-6.89,1.15-.54,2.23-1.36,3.16-2.24,3.74-3.54,3.84-6.49-.11-9.73-3.14-2.57-6.72-4.62-11.62-7.92h0Z"/>
  <path class="cls-1" d="M179.4,525.05c-1.56-7.57-3.67-15.07-4.54-22.71-.92-8.08,1.45-15.98,3.67-23.71,3.22-11.21,6.83-22.31,10.13-33.5,5.08-17.23,4.07-34.35-1.21-51.36-2.16-6.94-2.11-6.96-.79-12.52,1.69,2.09,3.3,3.66,4.42,5.53,4.59,7.65,6.97,16.03,8.69,24.79,3.38,17.24-.27,33.61-5.56,49.7-4.71,14.31-8.56,28.81-11.37,43.58-.87,4.56-.46,9.35-.72,14.03-.11,1.97-.45,3.92-.68,5.89l-2.02.3-.02-.02Z"/>
  <path class="cls-1" d="M165.2,522.46c-1.48-2.97-2.46-4.4-2.93-5.98-5.38-18.14-10.74-36.28-15.97-54.46-2.94-10.21-2.31-20.76-1.25-31.05,1.17-11.3,3.77-22.46,6.07-33.61,1.16-5.61,3.56-10.85,7.18-15.39.56-.7,1.67-.96,2.52-1.42.38,1.09,1.23,2.27,1.06,3.27-.51,3.05-1.49,6.03-2.14,9.06-3.6,16.79-6.04,33.71-5.82,50.94.08,6.55.88,12.92,3.17,19.12,1.44,3.88,2.29,7.98,3.57,11.92,3.39,10.49,4.42,21.31,4.53,32.25.05,4.51,0,9.03,0,15.36h0Z"/>
  <path class="cls-1" d="M188.61,319.06c7.98,7.36,10.14,14.12,7,21.48-3.3,7.73-9.54,11.36-17.8,11.68-5.74.22-11.41,0-16.83-2.32-8.68-3.73-12.32-10.56-10.63-19.99.37-2.04.42-4.13.68-6.18.16-1.28.13-2.71.72-3.77.71-1.3,1.99-2.29,3.02-3.42,1.22,1.19,3.27,2.23,3.51,3.59.63,3.54.5,7.23.61,10.86.18,5.96,2.05,8.41,7.7,9.95,1.25.34,2.5.72,3.77.9,10.55,1.5,15.19-2.33,16.48-11.48.33-2.31.12-4.69.37-7.01.13-1.18.73-2.3,1.4-4.27v-.02Z"/>
  <path class="cls-1" d="M161.7,352.84c-.19.71-.24,1.5-.59,2.12-3.52,6.16-2.68,8.64,3.54,11.25,4.79,2.01,9.72,1.65,14.61,1.09,3.07-.35,5.07-2.58,5.78-5.62.46-1.99.56-4.07.83-6.15,7.23,2.13,9.79,8.48,6.01,14.22-2.61,3.98-6.56,6.05-10.99,6.78-8.17,1.36-16.06.32-23.32-4.06-4.97-3-7.13-7.33-6.69-13.08.49-6.4,3.64-8.38,10.81-6.56h.01Z"/>
  <path class="cls-1" d="M170.83,388.68c-5.7,27.25-6.44,53.29-6.39,79.61-.69-2.14-1.5-4.25-2.03-6.43-.67-2.75-1.28-5.54-1.62-8.34-.31-2.57-.31-5.19-.32-7.78-.04-7.02-.31-14.06.06-21.05.51-9.54,1.93-18.99,4.6-28.22.8-2.78,1.88-5.25,5.7-7.78h0Z"/>
  <path class="cls-1" d="M201.58,522.91c-5.55,9.7-14.18,12.92-23.01,14.88-7.5,1.66-15.35,2.81-23.08.34-6.81-2.17-13.27-4.79-16.01-12.22-.43-1.16-.67-2.56-.42-3.73.16-.79,1.25-1.53,2.09-1.97.24-.12,1.44.82,1.57,1.41,1.92,8.92,9.22,10.79,16.42,11.68,9.87,1.21,19.74-.09,29.09-3.61,4.28-1.61,8.21-4.13,13.36-6.77h-.01Z"/>
  <path class="cls-1" d="M177.9,392.29c3.26,9.6,3.32,18.39,2.56,27.03-1.37,15.68-3.53,31.28-5.41,46.91-.04.32-.8.55-2.01,1.33.5-3.56,1.16-6.51,1.29-9.47.73-16.07,1.36-32.15,1.96-48.23.15-4.16-.02-8.33.16-12.49.06-1.38.76-2.73,1.46-5.07h-.01Z"/>
  <path class="cls-1" d="M163.66,259.75c-.65-5.38-.84-10.87-2.04-16.12-2.26-9.83-.79-19.69-.98-29.53-.02-1.2.51-2.62,1.25-3.58.66-.85,1.95-1.53,3.01-1.61.52-.04,1.64,1.46,1.65,2.28.04,3.37-.31,6.74-.4,10.12-.14,4.9-.31,9.81-.24,14.71.09,7.01.36,14.03.62,21.04.08,2.32-1.5,2.35-3.08,2.49l.21.21h0Z"/>
  <path class="cls-1" d="M169.18,262.32c.25-4.19.32-8.4.79-12.57.66-5.9,1.77-11.76,2.41-17.66.5-4.64.62-9.33.85-14,.06-1.29-.47-2.78,0-3.85.53-1.2,1.77-2.37,2.98-2.84.49-.19,2.35,1.41,2.48,2.35.4,2.8.56,5.72.25,8.53-1.26,11.57-3.18,23.03-6.29,34.26-.58,2.09-1.61,4.04-2.43,6.06-.35-.1-.7-.19-1.05-.29h0Z"/>
</svg>