<?xml version="1.0" encoding="UTF-8"?>
<svg id="Layer_1" data-name="Layer 1" xmlns="http://www.w3.org/2000/svg" version="1.1" viewBox="0 0 434.55 530.58">
  <defs>
    <style>
      .cls-1 {
        fill: #000;
        stroke-width: 0px;
      }
    </style>
  </defs>
  <path class="cls-1" d="M250.15,139.09c.65-.65,1.28-1.32,1.94-1.96,1.28-1.24,2.43-2.69,3.88-3.66,5.83-3.9,12.64-.51,13.24,6.49.26,3.11-.34,6.04-1.88,8.73-.87,1.52-1.91,2.93-3.52,4.09.3-.93.53-1.9.93-2.8,1.15-2.59,1.48-5.31,1.13-8.07-.17-1.33-.61-2.7-1.25-3.87-1.63-2.96-4.19-3.7-6.86-1.69-1.94,1.46-3.59,3.4-5.02,5.38-1.19,1.64-1.88,3.65-2.77,5.51-1.3,2.74-1.74,4.84,1.17,7.46,4.92,4.43,3.97,12.24-1.27,16.29-.33.25-.65.54-1.03.68-4.02,1.47-3.93,4.53-3.39,8.03,1.41,9.23,2.67,18.49,3.94,27.74,2.72,19.76,5.89,39.42,12.31,58.41,1.98,5.86,4.54,11.43,7.5,17.02-.66-.54-1.39-1.01-1.96-1.62-5.09-5.39-8.48-11.83-11.22-18.63-3.36-8.34-5.44-17.04-6.63-25.91-1.57-11.71-2.92-23.45-4.23-35.2-.98-8.72-1.75-17.46-2.61-26.19-3.04.84-3.17.85-3.03,3.19.37,6.03.79,12.07,1.33,18.09.49,5.47.97,10.95,1.82,16.38,1.36,8.68,3.01,17.32,4.54,25.98,2.64,14.89,5.17,29.8,8,44.65,1.36,7.13,3.31,14.15,4.99,21.22.18.76.4,1.5.37,2.34-2.81-3.79-4.56-8.08-6.25-12.39-3.78-9.66-5.84-19.75-7.41-29.96-2.11-13.72-4.3-27.42-6.41-41.14-2.08-13.49-2.93-27.06-2.8-40.7,0-1.51-.02-3.03-.1-4.54-.05-1.03-.7-1.41-1.68-1.27-2.47.35-3.29,1.21-3.2,3.75.49,12.79,1.03,25.57,1.54,38.35.07,1.79.12,3.58.17,5.37.43,17.62,1.49,35.19,4.1,52.63,1.56,10.46,3.26,20.9,5.06,31.32.5,2.91,1.56,5.73,2.16,8.67-2.24-2.33-3.4-5.25-4.55-8.13-3.89-9.76-6.42-19.9-7.53-30.33-1.13-10.66-2.23-21.36-2.52-32.06-.57-21.05-.57-42.12-.81-63.17-.02-1.47,0-2.94,0-4.47-7.57,1.08-6.5-.55-6.44,6.63.1,11.28.48,22.57.42,33.85-.07,13.49-.51,26.97-.75,40.46-.24,13.9-.61,27.8-.57,41.7.02,6.29.9,12.58,1.36,18.88.04.52-.06,1.05-.68,1.7-.48-1.92-1.02-3.82-1.44-5.75-3.14-14.33-3.83-28.87-3.41-43.47.31-10.86.94-21.71,1.43-32.57.04-.83.08-1.65.1-2.48.36-15.69.7-31.37,1.08-47.06.07-2.88.34-5.76.47-8.65.1-2.17-.24-2.46-2.7-2.58-2.53-.12-2.85.04-2.82,2.25.06,5.09.28,10.18.38,15.27.13,7.16.43,14.32.26,21.47-.3,13.2-.86,26.4-1.35,39.6-.24,6.46-.55,12.92-.85,19.38-.35,7.56-.71,15.11-1.08,22.67-.31,6.46-.64,12.91-.97,19.37-.03.52-.16,1.04-.78,1.66-.15-.54-.38-1.07-.44-1.62-1.28-13.86-1.59-27.75-1.05-41.65.31-7.96.99-15.91,1.5-23.87.32-5.08.74-10.15.9-15.24.41-14.03.69-28.07,1.06-42.1.13-4.81.44-9.61.55-14.42.02-.99-.14-2.43-.77-2.87-.89-.62-2.3-.51-3.49-.7-.07,1.04-.24,2.08-.2,3.11.05,1.37.33,2.73.37,4.1.35,10.88.17,21.75-.88,32.58-1.1,11.34-2.6,22.64-3.8,33.97-1.36,12.84-3.38,25.57-5.95,38.21-1.72,8.48-3.99,16.83-7.43,24.81-1.28,2.98-2.74,5.87-5.01,8.27,5.63-16.42,7.73-33.57,10.82-50.49,2-10.92,3.47-21.94,4.98-32.95,1.45-10.61,3.06-21.22,3.84-31.88.71-9.57,1.88-19.21.4-28.83-.14-.89-.38-1.92-.94-2.55-.67-.74-1.74-1.12-2.64-1.66-.29.96-.79,1.9-.84,2.88-.59,9.74-.76,19.53-1.75,29.23-1.2,11.87-3.08,23.67-4.65,35.5-1.63,12.24-3.81,24.39-6.71,36.39-3.47,14.36-8.54,28.08-16.4,40.74.16-.6.23-1.25.5-1.8,6.51-13.44,10.61-27.67,13.42-42.26,2.77-14.41,5.29-28.87,7.59-43.35,1.68-10.56,2.98-21.19,4.14-31.83.86-7.92,1.22-15.88,1.77-23.83.14-2.05.07-2.05-2.53-2.99-.09.97-.2,1.87-.26,2.78-.48,6.58-.89,13.16-1.44,19.73-.48,5.74-.89,11.51-1.75,17.2-1.52,10.03-3.18,20.04-5.14,29.99-2.04,10.37-4.62,20.62-8.16,30.61-2.34,6.62-5.71,12.69-9.76,18.83-.16-.67-.41-1.07-.3-1.32,4.33-9.87,6.58-20.33,8.89-30.79,2.31-10.44,4.92-20.82,7.06-31.3,1.9-9.26,3.44-18.6,4.96-27.94,1.45-8.93,2.65-17.9,4.01-26.85.18-1.16-.11-1.85-1.21-2.22-.39-.13-.76-.33-1.13-.51-9.94-4.94-9.31-15.21-4.01-21.51,2.8-3.32,2.85-3.41.95-7.1-1.34-2.61-3-4.92-5.7-6.33-3.96-2.07-7.5-1.39-10.24,2.15-2.47,3.18-4.23,6.74-5.45,10.58-.54,1.68-1.18,3.33-1.78,5-.33-.15-.74-.29-.73-.34.98-4.67,1.89-9.36,3.07-13.98.4-1.55,1.43-2.96,2.31-4.35,3.03-4.75,8.3-5.1,12.39-3.38,4.63,1.94,7.3,5.65,9.06,10.18.58,1.49,1.41,2.88,2,4.37.22.54.12,1.22.09,1.83-.14,3.68-.35,7.36-.4,11.04,0,.71.6,1.43,1.33,3.04.26-1.77.46-2.61.49-3.45.29-8.72-.36-17.31-3.44-25.59-2.16-5.82-5.56-10.74-10.38-14.64-6.68-5.4-15.61-5.95-23.27-2.1-2.9,1.46-5.03,3.62-6.28,6.93-.15-.69-.62-1.51-.4-2.03.64-1.49,1.39-2.99,2.41-4.23,2.08-2.51,4.96-3.99,8.01-4.89,8.81-2.6,16.97-1.19,23.87,5.02,3.23,2.91,5.87,6.46,8.97,9.94.22-.7.34-1.6.77-2.31.91-1.52,1.78-3.14,3.02-4.36,2.92-2.88,6.84-2.5,9.26.83.87,1.2,1.4,2.67,2.05,4.03.34.7.59,1.44,1.01,2.46,1.29-1.71,2.21-3.24,3.42-4.47,3.73-3.8,7.83-2.8,9.34,2.34.69,2.35.9,4.83,1.38,7.51,1.71-3.15,3.15-6.16,4.93-8.95,1.31-2.07,2.89-4.05,4.65-5.75,2.78-2.68,6.1-1.66,6.56,2.19.42,3.51.25,7.15-.12,10.69-.36,3.52-1.3,6.98-1.66,10.63.43-.94.85-1.88,1.29-2.82,3.67-8,8.48-15.13,15.8-20.27,4.01-2.81,8.36-4.93,13.4-4.6,1.84.12,3.79.73,5.41,1.62,1.9,1.05,1.92,2.09.95,4.82-2.32-3.04-4.77-3.83-8.82-2.67-3.5,1.01-6.54,2.9-9.21,5.33-4.41,4.01-8.21,8.47-10.17,14.23-.27.57-.54,1.14-.81,1.71-.27.55-.55,1.11-.82,1.66-.11.36-.21.72-.32,1.07.07-.39.14-.78.21-1.17.27-.55.55-1.11.82-1.66.27-.57.55-1.13.82-1.7h0ZM246.95,146.67c-.86,1.34-1.62,2.72-.83,4.49.24-1.53.48-3.06.73-4.59.22-.26.44-.52.66-.78-.12-.08-.23-.16-.35-.23-.07.37-.14.74-.21,1.11h0ZM198.16,169.69c.32.1.64.21.96.31-.35-.07-.7-.14-1.05-.21-.87-1.01-1.8-1.97-2.6-3.03-2.3-3.04-4.18-6.16-1.88-10.09.87-1.48.42-2.8-.68-4.06-5.64,7.91-3.46,14.79,5.25,17.08ZM240.36,147.51c-.41,1.11-.92,2.2-1.21,3.35-.3,1.18-.4,2.42-.56,3.63-.14,1.08-.22,2.16-.33,3.24h-.89c-.39-1.96-.96-3.9-1.15-5.88-.54-5.69.83-11.18,1.97-16.69.84-4.01,1.82-8.02,1.08-12.45-2.18,1.14-3.44,2.94-4.69,4.68-4.19,5.79-6.53,12.33-7.6,19.35-.24,1.59-.55,3.1-1.6,5.02-.36-1.02-.63-1.48-.67-1.96-.35-4.79-.62-9.59-1-14.37-.21-2.6-.43-5.22-.97-7.76-.56-2.62-2.18-3.09-4.09-1.28-2.9,2.73-4.6,6.1-4.82,10.14-.27,5.07-.56,10.14-.84,15.21-.08,1.46-.13,2.94-1.98,3.69-1.49-4.93-1.17-9.7-1-14.51.14-3.96-.2-7.94-.58-11.9-.14-1.45-.79-2.94-1.52-4.23-1.56-2.78-4.29-3.21-6.49-.89-2.65,2.81-4.26,6.06-2.67,10.1,2.11,5.37,2.27,10.97,2.05,16.65-.16,4.15-1.01,8.15-2.18,12.1-.71,2.41-.06,3.05,2.57,2.79.3-.03.66.36.95.6.78.66,1.44,1.7,2.32,1.95,2.49.72,5.06,1.29,7.63,1.61,3.77.46,7.61.39,11.37.57,5.1.25,9.79-.54,14.47-2.15,2.58-.89,2.55-1.23,2.2-3.98-.37-2.85-.68-5.72-.67-8.59.02-2.72.49-5.45.77-8.17.26-.62.52-1.24.78-1.86-.16-.05-.32-.1-.48-.14-.06.7-.13,1.39-.19,2.09l.02.03h0ZM245.23,171.54c1.2-1.08,2.48-2.09,3.58-3.25,2.7-2.85,3.21-6.28,2.16-9.92-.42-1.44-.99-3.07-2.88-3.48-.47,1.43-1.3,2.8-2.51,4.09-.09-2.11-.17-3.86-.25-5.61-1.78,3.85-2.86,7.7-2.46,11.85,2.64-.4,3.16-2.61,4.17-4.42,2.44,3.54,2.16,4.68-1.81,10.73h0ZM224.08,175.88c2.05.74,4.04.7,6.94-.34-3.05-.99-4.99-.3-6.94.34ZM237.02,173.72c-1.54.37-3.08.74-4.62,1.11,1.81.71,3.53,1.08,4.62-1.11ZM239.41,173.06c.09.36.18.72.28,1.08,1.15-.08,2.3-.16,3.16-2.24-1.48.5-2.46.84-3.44,1.17h0ZM221.52,175.3c-.03.1-.06.21-.09.31.14.02.27.03.41.05-.02-.11-.02-.24-.08-.33-.03-.04-.16-.03-.24-.04h0Z"/>
  <path class="cls-1" d="M189.12,368.93c-.81,2.39-1.62,4.79-2.43,7.18-1.91,5.58-3.73,11.19-5.79,16.71-.66,1.76-1.79,3.44-3.03,4.87-2.45,2.84-5.38,3.21-8.44,1.06-1.42-1-2.64-2.41-3.69-3.82-3.66-4.95-5.67-10.67-7.19-16.55-1.83-7.06-2.82-14.27-3.51-21.54-1.16-12.2-1.68-24.42-1.51-36.67.04-2.52-.04-2.63-2.86-2.44-5.84.39-11.15-.98-15.98-4.33-2.78-1.93-4.97-4.37-6.45-7.38-.77-1.57-2.07-3.64-1.58-4.86.52-1.28,1.54-2.72,2.46-4,1.16-1.61,3.02-1.76,4.86-1.61,2.88.23,5.77.38,8.62.79,4.53.65,9.02.54,13.56.01,3.2-.37,6.17-1.02,8.75-3.32.98,1.1-.38,3.85,2.47,3.27.29-.06,1.22,1.2,1.23,1.85,0,1.46-.07,3.06-.66,4.35-2.87,6.22-6.39,11.93-13.17,14.44.97,8.95,1.92,17.76,2.89,26.57.25,2.24.37,2.45,2.5,2.15,9.95-1.39,17.2,3.17,23.33,10.35.52.61,1.08,1.17,1.76,1.9.22-.65.36-1.01.47-1.39,1.51-5.16,1.53-5.18-2.41-8.6-4.88-4.23-10.43-7.09-16.87-8.09-1.22-.19-2.43-.46-3.65-.65-1.09-.17-2.56-.18-2.28-1.65.15-.77,1.37-1.58,2.28-1.93,3.28-1.25,6.55-.18,9.73.53,5.39,1.19,9.39,4.41,12.14,9.18.82,1.41,1.58,2.85,2.67,4.83.65-1.68,1.11-2.89,1.57-4.1,1.53-3.97,3.04-7.95,4.62-11.91.35-.89.86-1.73,1.39-2.53,3.08-4.61,7.92-4.57,10.4.37,1.46,2.89,2.33,6.16,2.97,9.36.7,3.48.85,7.08,1.2,10.63.03.31-.29.65-.67,1.44-2.95-6.65-4.37-13.55-8.56-19.68-.86,1.28-1.57,1.99-1.86,2.85-2.29,6.76-4.51,13.54-6.71,20.33-.2.63-.07,1.37-.09,2.05-.24.55-.48,1.09-.72,1.64.16.06.33.11.49.17.04-.63.09-1.26.13-1.9.74-1.44,1.43-2.91,2.23-4.31,2.72-4.77,6.85-4.95,9.43-.17,1.47,2.73,2.2,5.88,3.16,8.87.36,1.12.41,2.33.03,3.71-.79-1.65-1.47-3.35-2.39-4.93-1.23-2.13-2.56-4.22-4.01-6.21-.69-.94-1.77-.87-2.3.28-.74,1.62-1.54,3.27-1.88,4.99-1.48,7.53-2.71,15.11-4.2,22.64-1.25,6.32-2.48,12.66-4.22,18.85-.87,3.1-2.53,6.12-4.41,8.78-3.1,4.39-8.04,5.7-13.23,4.11-4.21-1.29-7.57-3.83-10.47-7.07-5.3-5.95-7.79-13.24-9.66-20.75-2.16-8.67-3.8-17.45-4.43-26.4-.25-3.51-.71-7-1.1-10.74-2.89.87-5.08,2.34-6.66,4.4-3.67,4.8-7.35,9.62-10.6,14.71-3.62,5.68-6.75,11.68-10.13,17.51-11.46,19.75-29.29,27.04-51.21,25.45-9.1-.66-16.8-4.91-22.52-12.32-6.35-8.23-10.09-17.65-12.47-27.63-2.95-12.39-4.12-24.97-3.27-37.7.16-2.46.48-4.96,1.17-7.3.51-1.73.12-2.48-1.38-3.21-5.18-2.52-9.26-6.43-12.99-10.69-1.43-1.64-2.71-3.53-3.57-5.51-.61-1.41-.64-3.2-.5-4.78.09-1.06.89-2.09,2.29-.9.29.25.93.37,1.27.22,3.92-1.68,7.98-1.73,12.14-1.25,4.38.51,8.76.36,13.01-.15.19-.5.41-.79.35-.98-3.29-9.37-3.32-19.22-3.95-28.92-.39-5.99.55-12.07.93-18.11.34-5.49.71-10.98,1.09-16.46.14-2.06.36-4.11.48-6.16.04-.65.11-1.6-.25-1.89-.5-.4-1.76-.65-2.05-.35-1.61,1.68-2.23-1.12-3.44-.65-1.28.5-1.99,1.53-1.95,2.89.05,1.65.35,3.29.41,4.93.41,11.71-.23,23.38-1.2,35.04-.47,5.62-.67,11.26-1.09,16.89-.19,2.6-.53,5.19-.95,7.76-.12.71-.8,1.92-1.18,1.9-1.29-.07-1.11-1.31-1.16-2.24-.31-6.04-.78-12.09-.86-18.13-.13-9.5-.09-19,.05-28.5.09-5.77.45-11.55.77-17.32.19-3.49,1.79-6.21,5.32-7,2.86-.64,3.7-2.34,3.84-4.9.05-.88.37-1.75.66-3,1.63,1.9,1.81,3.75,1.78,5.62-.02,1.48.23,2.67,1.74,3.39,2.83,1.35,3.49,3.66,2.75,6.56-.2.79-.24,1.63-.28,2.46-.51,10.3-1.13,20.6-1.44,30.91-.12,3.97.11,8.02.81,11.92,1.23,6.94,2.13,13.83,1.37,20.89-.35,3.31.06,3.52,3.4,2.94,2.03-.35,4.05-.8,6.09-1.07,2.81-.37,4.29.7,5.36,3.32,2.42,5.91.57,10.93-3.6,15.05-4.83,4.78-10.8,7.5-17.72,7.81-.55.03-1.1.04-1.65,0-1.44-.12-1.94.55-1.9,1.95.13,4.54-.06,9.11.34,13.62,1,11.26,2.92,22.37,6.4,33.15,2.25,6.97,5.29,13.58,9.67,19.52,5.05,6.84,11.83,10.42,20.3,11.07,8.27.63,16.15-.84,23.81-3.88,8.12-3.22,14.21-8.83,18.85-16.07,3.27-5.1,6.29-10.35,9.5-15.49,1.82-2.92,3.67-5.83,5.73-8.58,4.21-5.64,9.35-10.12,16.37-11.87,1.7-.42,2.01-1.12,1.94-2.85-.25-7.01-.31-14.03-.28-21.05,0-1.71.64-3.42,1.67-5.15.17.7.45,1.39.48,2.09.35,7.28.49,14.58,1.02,21.84,1.11,15.24,2.85,30.41,7.55,45.03,1.38,4.28,3.38,8.41,5.53,12.37,1.85,3.41,4.75,6.07,8.19,7.98,5.1,2.83,9.42,1.79,12.22-3.31,1.57-2.86,2.81-6.02,3.52-9.2,1.87-8.43,3.38-16.94,4.99-25.42.18-.93.06-1.92.08-2.88.25-.87.5-1.73.75-2.6-.22-.03-.45-.06-.67-.09v2.79h0ZM172.9,393.51c1.93-1.44,2.83-3.51,3.49-5.54,2.57-7.97,4.93-16,7.4-24,.43-1.4-.02-2.41-1.12-3.23-4.08-3.04-8.08-6.19-12.27-9.07-2.63-1.81-5.66-2.77-8.95-2.72-2.92.04-3.21.22-2.76,2.99.79,4.89,1.53,9.79,2.58,14.62,1.47,6.72,3.17,13.4,6.31,19.58,1.37,2.69,2.76,5.38,5.33,7.37h-.01ZM51.59,306.07c-1.8,0-3.43.05-5.05,0-6.17-.22-12.34-.42-18.51-.75-3.83-.21-7.65-.73-11.48-.89-1.09-.05-2.21.67-3.31,1.04.48.93.74,2.11,1.47,2.76,3.57,3.21,7.12,6.47,10.95,9.35,4.33,3.26,9.19,3.34,14.07,1.17,1.88-.84,3.68-1.86,5.45-2.9,3.63-2.15,5.58-5.44,6.41-9.76v-.02h0ZM128.83,301.01c3.6,6.4,8.51,10.71,15.89,11.95,5.47.92,10-.44,13.73-4.56,2.61-2.88,4.2-6.3,5.6-9.94-2.59,1.84-5.2,3.51-8.44,3.47-3.01-.05-6.03-.12-9.02-.48-3.94-.48-7.83-1.31-11.75-1.89-2.01-.29-4.13-.78-6.01,1.45ZM190.21,362.61c-.07.54-.12.94-.14,1.33,0,.03.26.06.4.1.03-.27.11-.54.09-.8,0-.17-.17-.33-.34-.63h0Z"/>
  <path class="cls-1" d="M284.88,212.74c.66-1.69,2.35-2.58,5.06-2.68.28-1.68.52-3.39.87-5.08.06-.31.63-.8.83-.75.45.13.9.48,1.19.87.23.3.32.78.3,1.17-.16,3.02.23,5.28,4.26,5.02,1.57-.1,2.34,1.73,2.42,3.38.1,2.2.21,4.4.19,6.6-.08,9.5-.16,19-.32,28.5-.16,9.1.36,18.15,1.42,27.19.33,2.83-.03,5.75-.17,8.63-.1,2.19-.35,4.37-.57,7.09,1.84-.29,3.4-.43,4.92-.79,1.58-.38,3.11-.98,4.76-1.51,1.14,2.38.17,4.27-1.51,5.5-1.72,1.26-3.78,2.33-5.84,2.79-5.97,1.33-12.06,1.08-18.08.38-3.93-.46-7.79-1.45-11.82-2.23-1.26,1.19-1.01,2.69-.33,4.34,1.16,2.8,3.11,4.97,5.68,6.35,5.92,3.2,12.19,4.9,19.02,3.67,8.7-1.56,14.81-7.43,16.67-16.14.08-.38.2-.76.33-1.24,1.96.03,2.65,1.27,2.93,2.84.45,2.55-.18,4.92-1.47,7.12-3.63,6.17-9.02,9.91-15.98,11.36-2,.42-4.08.51-6.13.7-2.07.19-2.37.49-1.88,2.58,2.18,9.3,2.88,18.75,2.4,28.26-.57,11.22-2.94,22.03-8.52,31.93-2.54,4.51-5.93,8.27-10.4,10.97-7.59,4.58-14.1,2.83-18.34-4.94-3.15-5.76-4.52-12.07-5.76-18.43-.87-4.45-1.6-8.94-2.59-13.36-1-4.45-2.57-8.73-5.13-12.54-3.68-5.5-6.66-5.73-11.12-.93-2.66,2.87-4.56,6.24-5.8,9.91-1.13,3.37-1.88,6.87-2.83,10.3-.31,1.1-.73,2.17-1.76,3.16-.14-.61-.41-1.22-.39-1.81.26-7.07,1.27-14,4.98-20.18,1.47-2.44,3.3-4.78,5.38-6.72,4.22-3.95,8.95-3.77,13.25.18,3.1,2.84,5.21,6.36,6.86,10.2,2.52,5.86,3.61,12.1,5.05,18.26,1.16,4.94,2.57,9.84,4.06,14.69.56,1.81,1.49,3.57,2.56,5.15,2.07,3.05,3.87,3.61,7,1.79,2.33-1.36,4.53-3.15,6.38-5.12,3.94-4.2,6.23-9.4,7.84-14.84,2.5-8.43,4.59-16.96,5.18-25.77.37-5.62.55-11.25.78-16.88.04-1.09-.06-2.2-.2-3.29-.23-1.88-.89-3.01-3.18-3.44-4.47-.83-8.69-2.55-12.31-5.48-2.54-2.06-4.26-4.6-5.18-7.75-.49-1.67-.69-3.22.24-4.77.14-.24.33-.46.4-.72,1.05-3.5,1.04-3.45,4.61-2.89,2.44.38,4.91.61,7.36.9,1.54.18,1.94-.65,1.74-1.99-.35-2.31-.81-4.6-1.04-6.92-.39-3.96-.9-7.94-.87-11.91.05-7.29.5-14.57.7-21.86.1-3.44.05-6.88,0-10.32-.12-6.88-.36-13.75-.39-20.63,0-2.04.41-4.11.85-6.11.15-.68.98-1.21,1.5-1.8.23,3.15.45,6.29.68,9.44.38,5.2.5,10.44,1.18,15.6,1.85,14.12,1.34,28.21,0,42.33-.39,4.09-.25,8.24-.37,12.36-.04,1.37.56,2.06,1.97,1.93,2.19-.2,4.38-.37,6.56-.6,2.45-.26,2.61-.42,2.31-2.75-.65-5.17-1.46-10.32-1.99-15.5-.57-5.6-1.24-11.22-1.23-16.83,0-8.23.56-16.47.9-24.7.03-.82.26-1.63.32-2.45.37-4.93.72-9.85,1.08-14.78.1-1.37-.3-2.19-1.82-2.71-1.44-.5-3.02.88-3.25.58-.89-1.18-1.83-2.05-3.3-2.11-1.04-.04-2.09.16-3.13.26l.03-.03h0Z"/>
  <path class="cls-1" d="M124.56,420.89c3.66,2.96,5.54,7.13,7.17,11.32,3.92,10.08,4.64,20.58,3.07,31.2-.62,4.18-1.6,8.33-2.8,12.39-.65,2.19-1.88,4.29-3.21,6.17-3.44,4.82-8.68,5.39-13.19,1.56-3.11-2.64-5.28-6.03-6.55-9.84-1.26-3.76-2.43-7.62-2.98-11.53-1.67-11.8-.47-23.29,4.83-34.12,1.57-3.2,3.29-6.4,7-8.06-3.24-4.7-3.03-9.34-.14-13.88.62-.97.45-1.6.06-2.57-1.53-3.9-.69-7.56,1.64-10.88.66-.94,1.75-1.57,2.65-2.34.24.15.48.31.72.46-.37,1.01-.74,2.02-1.12,3.09.11.1.29.37.46.37,4.51-.1,6.87,3.09,5.14,7.14-.58,1.35-1.58,2.52-2.5,3.96.3.32.66.69,1.02,1.07,3.41,3.65,3.73,6.96,1.08,11.17-.73,1.15-1.49,2.28-2.23,3.42-.68-.03-1.37-.01-2.05-.11-2.69-.39-4.48.76-5.61,3.15-1.05,2.23-2.24,4.41-3.15,6.7-3.85,9.71-4.09,19.79-2.85,30,.14-.92.22-1.85.22-2.78-.05-5.92.38-11.81,1.86-17.56,1.13-4.37,2.42-8.71,3.8-13.01.41-1.28.79-2.96,2.99-3.09-.8,3.35-1.63,6.48-2.28,9.65-1.88,9.15-3.62,18.36-2.04,27.73.54,3.2,1.73,6.32,2.89,9.37.53,1.4,1.71,1.35,2.43,0,.77-1.44,1.48-2.97,1.89-4.55,2.61-9.98,2.44-20.11,1.37-30.27-.31-2.97-.78-5.93-1.28-9.67.64,1.03.91,1.33,1.04,1.68,3.76,10.45,5.8,21.18,4.82,32.31-.39,4.38-1.48,8.65-3.63,12.57-1.03,1.88-2.38,3.48-4.59,3.8-1.22.17-2.51-.21-4.15-.39.8.98,1.27,1.67,1.85,2.24,2.99,2.93,5.12,2.83,7.22-.81,1.42-2.46,2.46-5.21,3.25-7.95,2.23-7.76,2.06-15.75,1.93-23.72-.1-5.8-.8-11.52-2.64-17.03-.95-2.85-2.25-5.58-3.39-8.36h-.02,0ZM125.25,412.64c-.13-2.44-1.07-4.5-3-6.04-1.09-.87-1.98-.63-2.6.68-1.16,2.44-1.33,5.07-.72,7.62.24,1,1.3,2.15,2.27,2.56,1.32.56,2.3-.61,2.89-1.73.51-.95.78-2.03,1.17-3.1h0ZM119.78,399.38c.71,1.05,1.03,2.05,1.69,2.37.88.44,2.24-1.37,2.13-2.81-.08-1-.6-2.08-1.68-1.76-.78.23-1.32,1.31-2.14,2.2Z"/>
  <path class="cls-1" d="M227.83,96.98c2.59,2.25,4.82,4.1,6.94,6.05,2.04,1.88,3.85,3.99,4.4,6.82.16.83-.11,1.75-.23,3.26-.95-.85-1.48-1.22-1.87-1.69-3.15-3.81-6.25-7.66-9.41-11.47-2.01-2.43-3.06-2.59-5.37-.66-3.06,2.56-6.08,5.17-9.02,7.86-2.7,2.47-5.46,4.92-7.81,8.17,1.64,0,2.84.04,4.04-.01,1.23-.05,2.78.23,3.59-.4.74-.58.61-2.21.99-3.34,1.05-3.17,3.24-5.39,6.15-6.9.37-.19,1.2-.13,1.41.14.23.29.18,1.09-.07,1.43-1.02,1.45-2.13,2.85-3.28,4.2-1.14,1.34-2.36,2.6-3.85,4.23,2.92.89,5.25.06,7.6-.09,2.44-.16,4.89-.21,7.64-.32-2.32-4.27-4.45-8.17-6.57-12.08l.6-.55c.51.26,1.14.4,1.5.8,2.76,3.02,6.01,5.79,6.19,10.35.06,1.68,1.25,1.51,2.35,1.52,4.82.05,9.64.01,14.45.16,4.13.13,8.12,1.05,12.29,2.7-7.62-.11-14.88-.34-22.14-.29-7.29.05-14.57.47-21.86.58-7.28.11-14.56.63-22.46.27,2.28-1.5,4.28-1.43,6.25-1.66.8-.09,1.9-.63,2.22-1.28,2.19-4.43,5.81-7.63,9.15-11.09,1.72-1.78,3.29-3.69,5.02-5.65-4.61-2.52-8.63-6.43-7.37-12.39.85-4,3.37-7.89,8.72-8.62-.26-.76-.39-1.36-.66-1.9-1.35-2.72-1.01-5.37.41-7.89.57-1.01,1.02-1.73.31-2.95-1.85-3.18-2.45-6.4.3-9.53.31-.35.23-1.28.03-1.83-.87-2.39-.59-4.59.93-6.64-.28-.38-.44-.79-.75-1.02-3.3-2.4-3.98-4.84-2.27-8.42.41-.86.88-1.68,1.31-2.53.55-1.1,1.25-1.8-.29-3.16-2.82-2.48-2.02-5.09,2.2-8.21-2.19-.34-4.24-.72-4.71-3.07-.47-2.41-.08-4.66,1.63-6.55.98-1.09,2.09-1.82,3.63-1.21,1.32.52,2.81,2.56,2.74,3.81-.03.54-.26,1.07-.38,1.6-.49,2.06-1.16,3.89.66,5.99,1.71,1.98.85,5.62-1.08,7.55-.56.56-1.31.95-2.11,1.51,4.12,2.8,3.14,6.41,1.77,10.34.58.35,1.24.75,1.89,1.14,3.95,2.43,2.89,9.21-.98,10.5-1.12.37-2.49.42-2.8,1.96.26.14.51.4.67.35,2.07-.67,3.81-.29,5.1,1.54,1.36,1.94,1.98,4.16.6,6.17-1.21,1.77-.49,2.82.16,4.47.8,2.05.64,4.47.95,7.21,3.84,1.43,7.45,3.86,7.49,9.34.04,5.06-2.64,8.48-6.88,11.36l-.06.02h0ZM217.58,78.95c-4.32,1.9-5.44,3.33-5.46,6.68-.03,4.16,3.21,7.86,7.44,8.51,3.83.59,8.76-2.33,9.84-5.88.23-.77.29-1.62.3-2.43.03-1.82-.95-3.01-2.43-3.99-1.62-1.08-2.12.48-3.05,1.08-2.48,1.59-4.81.94-6.06-1.74-.28-.6-.35-1.29-.59-2.21v-.02h0ZM223.45,62.67c.03-1.94-1.22-3.99-2.72-4.37-.45-.11-1.53.45-1.52.65.1,1.75.42,3.51,2,4.61.36.25,1.06.3,1.45.12.4-.19.62-.78.79-1.01h0ZM223.6,49.6c-.82-.97-1.32-2.11-1.89-2.14-1.38-.07-1.73,1.35-1.7,2.35.02.75.85,1.49,1.33,2.23.67-.71,1.33-1.43,2.27-2.43h-.01ZM223.26,72.45c-.6-.82-1.22-1.75-1.95-2.58-.14-.16-.9-.06-1.09.16-1.03,1.17-.24,2.34.32,3.34.32.57,1.18.84,1.79,1.25.25-.59.5-1.17.93-2.17ZM219.37,36.1c-1.78,1.95-1.84,3.74-1.05,6.11,1.74-1.95,1.43-3.8,1.05-6.11ZM219.19,29.1c1.51-1.06,1.47-2.24.84-3.85-.81,1.19-1.09,2.47-.84,3.85ZM218.47,15.68c-.28.29-.43.38-.45.49-.12.63-.23,1.27-.29,1.91,0,.06.44.15.68.22.1-.66.21-1.32.3-1.98,0-.12-.09-.25-.23-.64h-.01ZM222.44,79.94c-.45-.1-.82-.24-1.2-.24-.17,0-.33.28-.5.44.36.11.71.29,1.08.31.17.01.36-.28.62-.51Z"/>
  <path class="cls-1" d="M299.06,329.03c.22,1.31.55,2.62.65,3.94,1.42,18.33-2.28,35.8-9.09,52.69-4.2,10.42-12.05,16.47-23.09,18.37-5.85,1.01-10.55-1.01-14.12-5.67-3.76-4.91-5.55-10.7-7.26-16.52-.34-1.17-.64-2.36-.95-3.49-.42-.02-.72-.13-.89-.03-6.29,3.8-13.16,5.2-20.44,5.6-6.61.36-13.17.58-19.76-.18-1.75-.2-3.56-.11-5.2-1.87.87-.3,1.53-.72,2.21-.74,7.41-.26,14.84-.26,22.23-.74,6.15-.4,12.33-1.04,18.22-3.12,3.13-1.1,3.2-1.15,2.73-4.43-.73-5.17-1.45-10.35-2.45-15.47-.5-2.53-1.34-5.08-2.52-7.37-1.69-3.29-4.46-3.54-6.97-.78-1.18,1.3-2.26,2.86-2.82,4.5-1.33,3.87-2.33,7.86-3.46,11.8-.25.89-.5,1.78-1,2.63-1.17-4.02-.74-8.01.5-11.83,1-3.1,2.26-6.25,4.08-8.92,3.62-5.31,9.59-5.07,13.24.26,3.04,4.44,3.93,9.62,4.84,14.77,1.32,7.44,2.4,14.94,5.04,22.07,1.1,2.95,2.34,5.89,3.89,8.63,2.81,4.99,6.25,6.53,11.74,5.26,7.46-1.72,13.35-5.6,16.81-12.73,3.32-6.85,5.5-14.07,7.02-21.47,2.06-10.06,3.83-20.17,5.67-30.27.29-1.61.31-3.28.46-4.92h.69v.03h0Z"/>
  <path class="cls-1" d="M215.48,451.86c-.19,3.62.87,6.3,3.46,8.29,2.19,1.69,4.66,1.83,6.86.13,2.39-1.85,4.68-3.89,4.86-7.29.02-.35.34-.68.53-1.03,3.08,1.62,3.89,2.93,3.11,5.72-1.31,4.64-4.5,7.56-9.11,8.61-4.44,1.01-8.21-.64-10.87-4.26-2.17-2.95-3.47-6.31-2.41-10.07.44-1.55.07-2.55-1.05-3.64-3.3-3.19-5.24-6.98-4.89-11.75.04-.61-.6-1.52-1.18-1.89-4-2.51-5.96-6.35-7.22-10.68-.65-2.24-1.15-4.53-1.87-6.75-1.07-3.29-2.46-6.42-5.31-8.66-.43-.34-.54-1.07-.8-1.62.71-.29,1.51-.94,2.12-.8,1.01.23,2,.85,2.82,1.53,2.96,2.44,4.63,5.75,5.97,9.25.73,1.92,1.34,3.9,2.01,5.85,1.8,5.26,5.75,7.95,11,8.75,8.59,1.31,16.35-.68,23.17-6.23,2.23-1.82,3.75-3.96,4.41-6.75.85-3.6,1.64-7.22,2.65-10.77.75-2.62,2.29-4.74,5.14-5.41.72-.17,1.78-.13,2.25.29.35.31.1,1.44-.08,2.15-1.04,4.11-2.53,8.15-3.15,12.32-1.07,7.21-4.65,12.45-10.84,16.12-7.51,4.45-15.45,6.31-24.11,4.43-.9-.19-1.84-.19-3.26-.33,1.61,4.79,4.41,7.8,8.74,8.94s8.15-.16,11.03-3.77c1.03-1.29,2.19-2.48,3.12-3.84.73-1.06,1.57-1.5,2.78-1.2,1.42.35,2.08,1.53,2.05,2.77-.03,1.32-.4,2.74-.99,3.93-3.04,6.16-10.43,9.66-17.3,8.34-1.08-.21-2.16-.41-3.64-.69h0Z"/>
  <path class="cls-1" d="M409.84,320.58c.09,1.45.36,2.91.24,4.34-.21,2.6-.72,5.17-.96,7.77-.15,1.64-.16,3.31-.02,4.95,1.08,12.36-.56,24.44-4.54,36.09-3.34,9.79-9.48,17.99-16.96,25.05-2.24,2.11-5.16,3.76-8.06,4.86-12,4.58-24.14,5.11-36.15.01-8.39-3.56-14.92-9.23-18.9-17.59-1.3-2.73-2.76-5.39-3.95-8.17-3.2-7.44-7.77-13.89-13.61-19.48-1.29-1.24-2.48-2.58-3.62-3.96-.47-.57-.68-1.36-.59-2.47.71.49,1.44.95,2.12,1.47,7.91,6.14,14.75,13.18,19.14,22.36,1.3,2.72,2.9,5.31,4.4,7.94,5.87,10.35,15.04,15.66,26.56,17.41,6.96,1.06,13.72-.08,20.34-2.07,4.97-1.49,9.24-4.24,12.47-8.4,2.53-3.26,5.1-6.49,7.55-9.81,4.85-6.58,7.04-14.22,8.55-22.09,1.47-7.72,2.12-15.5,1.67-23.38-.31-5.28.69-10.31,3.36-14.91.33.03.65.06.98.09h-.02Z"/>
  <path class="cls-1" d="M317.08,419.2c1.13-1.71,2.27-3.42,3.51-5.3,3.24,2.97,5.81,6.82,8.07,10.82,6.58,11.67,8.72,23.96,4.18,36.87-.94,2.67-2.43,5.29-4.21,7.49-3.8,4.7-9.27,4.48-12.9-.33-1.06-1.41-2.08-3.02-2.53-4.69-1.09-4.1-2.29-8.26-2.62-12.46-.89-11.6.5-23.05,3.39-34.3.44-1.7,1.31-3.29,2.06-4.89.13-.27.86-.57,1-.46.36.29.79.81.76,1.21-.13,2.04-.4,4.07-.62,6.1-.24.58-.48,1.16-.72,1.74l.62.16v-1.99.03h0ZM315.04,447.97c-.55,6.4.63,12.44,4.05,17.9,1.68,2.67,3.7,2.9,5.67.5,1.62-1.97,2.93-4.34,3.81-6.73,2.72-7.36,2.06-14.87.39-22.38-.51,1.71-.69,3.47-1.04,5.18-1.05,5.08-2.11,10.16-3.31,15.21-.43,1.79-1.51,3.48-3.54,3.54-2.25.07-3.24-1.75-3.93-3.63-.33-.9-.63-1.82-.82-2.75-.46-2.27-.86-4.55-1.28-6.83h0ZM320.75,418.55c-2.16,11.84-3.11,23.4,0,35.62,4.03-11.2,4.02-30.71,0-35.62ZM314.35,442.3h-.25c.04.88.09,1.74.13,2.61.04,0,.08-.01.13-.02v-2.59h-.01ZM315.25,432.18c-.03-.26-.07-.53-.11-.8-.08.25-.18.5-.23.76-.03.12.03.27.06.4.09-.12.18-.23.28-.36h0ZM316.02,425.33c.01-.12.02-.23.03-.35-.1.04-.26.05-.28.12-.03.09.03.22.06.33.06-.03.13-.07.19-.1h0Z"/>
  <path class="cls-1" d="M279.04,435.73c2.68.74,3.69,3.14,5.08,5.13.77,1.11,1.31,2.39,2.2,3.5-.17-4.09-1.68-7.75-3.47-11.6.6.34,1.33.56,1.78,1.04,6.12,6.39,8.16,14.19,7.44,22.77-.31,3.67-1.02,7.38-2.93,10.65-.89,1.53-1.83,3.1-3.05,4.37-3.9,4.03-8.94,3.73-12.49-.66-2.49-3.08-3.69-6.75-4.32-10.58-1.47-8.88-.35-17.52,2.97-25.85.86-2.16,1.42-4.1-.22-6.09-.16-.2-.21-.51-.28-.77-.62-2.33.17-4.63.15-6.89-.02-1.95-2.16-3.84-2.37-5.86-.2-1.89.7-4,1.49-5.85.67-1.57,1.85-2.75,3.93-1.59.65.36,1.6.15,2.42.22,3.5.29,5.13,2.61,3.92,5.99-.64,1.78-1.79,3.38-2.87,5.36.92.12,1.78.18,2.61.37,3.28.74,5.19,4.03,4.23,7.27-.69,2.33-1.89,4.42-4.26,5.25-2.15.75-2.24,2.12-1.87,3.89-.51,2.92-1.26,5.82-1.47,8.76-.34,4.77-.72,9.6.86,14.25.32.95,1.25,1.69,1.9,2.53.66-.78,1.51-1.46,1.92-2.35.49-1.1.74-2.35.86-3.56.69-6.99-.3-13.65-4.17-19.69h.01ZM277.27,432.93c-.3-.17-.59-.33-.89-.5-.46.72-1.13,1.39-1.34,2.18-2.18,8.14-3.41,16.38-1.54,24.76.69,3.07,1.46,6.17,3.65,8.62,1.45,1.63,2.97,2.14,4.34,1.27,1.56-.99,2.91-2.26,3.34-4.54-5.31,2.47-8.22,1.44-9.8-3.75-.94-3.08-1.5-6.47-1.31-9.67.37-6.23,1.21-12.46,3.55-18.37h0ZM277.89,422.25c-2.79.03-3.02.18-3.04,1.93-.03,2.3,1.3,4.16,2.98,4.17,1.59,0,3.03-1.69,3.09-3.66.06-1.94-.6-2.47-3.02-2.45h-.01ZM274.66,410.11c-1.5-.08-2,.42-2.16,2.19-.21,2.3.7,4.59,1.38,4.14,1.14-.75,2.13-1.95,2.77-3.18,1-1.9.17-3.04-1.99-3.16h0ZM287.1,446.49l-.11-.31c-.05.07-.17.14-.15.2.03.15.12.29.18.44.03-.11.05-.21.08-.32h0Z"/>
  <path class="cls-1" d="M167.36,431.96c-2.73-3.33-3.09-6.92-.85-10.67.96-1.61,2.15-2.92,4.35-2.03.36.15.81.05,1.22.07,5.93.3,8.8,5.65,5.7,10.72-.64,1.04-1.58,1.89-2.84,3.37.52.3,1.29.5,1.69,1,2.11,2.64,2.24,5.16.41,7.97-.59.91-1.45,1.65-2.17,2.47-.87.99-1.07,1.71.36,2.55,7.25,4.24,11.86,14.71,10.3,23.1-.8,4.27-2.4,8.17-5.27,11.49-1.94,2.24-4.27,3.89-7.27,4.39-3.57.59-6.54-.46-8.69-3.42-2.07-2.86-3.08-6.15-3.35-9.62-.62-8.02.08-15.92,2.54-23.62.08-.26.07-.57.2-.8.88-1.53,2.27-2.96,2.54-4.58.24-1.44-.95-3.06-1.15-4.64-.37-3.04,0-3.97,2.27-7.74h.01ZM168.71,445.53c-.28-.06-.55-.12-.83-.19-.28.46-.67.88-.81,1.38-2.22,7.99-3.45,16.13-2.6,24.42.27,2.67,1.16,5.4,2.34,7.82,1.76,3.59,4.67,4.16,7.77,1.68,1.46-1.17,2.72-2.73,3.7-4.34,2.06-3.38,2.61-7.18,2.44-11.1-.23-5.41-1.45-10.52-4.51-15.09-.13.68-.03,1.31.16,1.9,1.35,4.14,1.51,8.43,1,12.65-.39,3.22-1.27,6.48-2.53,9.47-1.31,3.09-4.5,3.14-5.91.11-1.14-2.43-1.91-5.19-2.11-7.86-.47-6.46-.17-12.9,1.97-19.13.17-.5-.04-1.14-.08-1.72ZM172.03,471.96c3.15-8.71,3.14-20.95.11-25.36-2.88,4.53-3.07,19.24-.11,25.36h0ZM174.19,425.52c-.07-.34-.15-1.02-.37-1.66-.56-1.65-2.7-3.46-3.44-2.8-.9.81-1.4,2.19-1.77,3.42-.21.69.05,1.62.32,2.36.67,1.85,1.94,2.68,3.34,2.24,1.57-.49,1.91-1.77,1.92-3.56ZM168.97,438.18c.13.52.16,1.57.65,2.31.34.52,1.4,1,1.97.85,1.61-.42,2.89-3.83,1.87-5.13-.68-.87-1.92-1.29-2.92-1.92-.49.88-1,1.76-1.46,2.66-.11.23-.06.54-.12,1.23h.01Z"/>
  <path class="cls-1" d="M230.44,477.19c-1.01-2.05-2.02-4.09-3.03-6.14.17-.08.52-.34.59-.28,3.39,2.99,6.98,5.8,10.07,9.07,4.87,5.16,6.76,11.59,6.32,18.61-.38,6.11-1.97,11.92-5.46,17.06-.85,1.25-1.8,2.43-2.81,3.55-7.08,7.8-17.06,7.37-24.01.29-6.51-6.62-9.12-14.79-8.5-24.09.62-9.12,4.41-16.91,9.58-24.18.55-.78,1.13-1.61,1.89-2.16.59-.43,1.47-.45,2.22-.65.1.74.48,1.6.24,2.21-.64,1.66-1.54,3.22-2.35,4.81-2.23,4.43-4.04,9.02-4.96,13.92-1.37,7.31-.49,14.25,3.54,20.6,1.09,1.72,2.47,3.33,3.98,4.69,4.36,3.9,9.05,3.7,13.1-.52,2.62-2.72,4.3-6.02,5.38-9.63,3.04-10.18.33-19.11-5.92-27.27l.11.12h.02,0Z"/>
  <path class="cls-1" d="M391.86,424.06c1.49,2.4,2.24,4.93,1.03,7.78-.24.56,0,1.75.44,2.1,6.77,5.3,6.8,12.54,5.4,19.9-.7,3.71-2.31,7.32-3.98,10.75-1.42,2.91-3.78,5.28-7.42,5-3.47-.27-5.26-2.92-6.37-5.8-3.44-8.98-3.74-17.97.72-26.74.7-1.37.88-2.33.06-3.74-1.7-2.93-1.66-6.08-.05-9.04.62-1.14.57-1.85-.05-2.96-3.02-5.4-1.93-10.62,1.09-15.6,1.26-2.08,2.01-2.14,4.48-1.73,4.49.76,7.69,3.09,8.89,7.52,1.25,4.62.19,8.72-3.65,11.86-.2.17-.34.41-.58.7h-.01ZM386.13,405.31c-2.07,2.79-2.62,5.76-2.67,8.74-.02,1.55.62,3.24,1.39,4.63,1.07,1.93,3.38,2.14,4.83.47.84-.97,1.68-2.38,1.66-3.57-.1-4.11-1.82-7.53-5.21-10.27ZM388.09,454.89c3.59-6.91,4.12-13.24,3.18-20.08-1.96.54-3.63,1-5.51,1.52,1.21,5.91-.22,11.93,2.33,18.55h0ZM382.8,445.7c-.08.02-.17.05-.25.07,0,2.05-.18,4.12.04,6.15.41,3.82.98,7.64,2.98,11.03,1.4,2.37,2.75,2.55,4.45.47,2.48-3.05,3.55-6.66,4.02-11.1-1.19,2-1.89,3.6-2.96,4.9-2.09,2.55-4.65,2.2-6.25-.72-.39-.71-.69-1.51-.82-2.31-.45-2.82-.81-5.66-1.2-8.48h-.01ZM386.92,424.99c-2.29-.05-2.77.37-2.87,2.47-.12,2.58.68,4.14,2.21,4.29,1.73.17,3.24-1.63,3.33-3.98.07-1.84-.79-2.74-2.67-2.78h0ZM394.5,451.19c.05-.48.11-.83.1-1.19,0-.07-.22-.15-.34-.22-.04.24-.14.48-.11.71.02.2.18.38.35.69h0Z"/>
  <path class="cls-1" d="M381.2,293.8c4.39-3.15,9.14.09,13.83-.26-.82-9.66-1.62-19.18-2.42-28.71-.02-.27-.05-.55-.07-.82-.6-10.57-1.11-21.15-1.82-31.71-.35-5.14,1.02-9.24,5.82-11.72,1.12-.58,1.56-1.43,1.53-2.66-.04-1.78-.01-3.56.7-5.47.36,1.3.78,2.6,1.07,3.91.3,1.34.85,2.02,2.41,2.24,4.73.65,5.88,1.62,6.69,6.38.78,4.59,1.39,9.27,1.45,13.91.19,16.11.13,32.22.12,48.32,0,1.58.41,3.35-1.23,4.69-2.08-1.54-2.58-3.8-2.79-6.12-.16-1.78-.07-3.58-.07-5.37-.02-16.38,0-32.77-.07-49.15-.01-2.18-.5-4.36-.78-6.53-.18-1.41-1.07-2.18-2.36-2.56-1.46-.44-2.47.13-2.66,1.63-.18,1.34-.18,2.71-.28,4.31-2.21-.48-1.61-2.46-2.39-3.51-2.77,1.34-3.74,3.06-3.6,6.36.17,4.26.29,8.52.5,12.78.48,9.88,1.09,19.76,1.47,29.64.22,5.64.1,11.29.16,16.93.04,3.7.16,3.84,3.95,4.02,5.27.25,10.42-.44,15.45-2.06,2.22-.72,4.45-1.43,6.7-2.07.45-.13,1.36-.06,1.42.11.18.57.3,1.38.01,1.84-1.34,2.2-3.34,3.61-5.8,4.37-5.86,1.81-11.85,2.57-17.92,1.71-4.61-.65-9.15-1.77-13.73-2.63-1.71-.32-3.45-.51-5.17-.76-.04-.35-.08-.69-.12-1.04h0Z"/>
  <path class="cls-1" d="M335.04,235.02c-1.64-9.83-1.49-19.73-1.35-29.63.02-1.91.31-3.82.51-5.73.58-5.52.44-10.98-1.1-16.35-.54-1.89-1.16-3.7-3.13-4.59-1.2-.53-1.43-1.49-1.38-2.7.08-1.78.09-3.57-.05-5.35-.05-.75-.55-1.47-.85-2.2-.86,2.48-1.24,4.78-1.39,7.09-.1,1.5-.42,2.6-1.94,3.26-2.72,1.19-3.71,3.67-3.86,6.36-.38,6.86-.62,13.73-.78,20.6-.09,4.12.09,8.25.11,12.38.02,1.58-.4,2.96-.32,4.57.09,1.99.13,3.99.16,5.98.05,3.89.02,7.79.12,11.68.03,1.4.13,2.87,2.37,3.81v-8.34c0-2.88-.31-5.76-.13-8.63.09-1.45.36-2.8.71-4.2.33-1.31.26-2.56.32-3.92.28-6.6.41-13.21.69-19.82.21-4.95.51-9.89.88-14.82.13-1.72,1.46-2.92,2.92-2.92s2.17,1.13,2.48,2.36c.9,3.62,1.51,7.28,1.05,11.02-.57,4.63-1.24,9.24-1.81,13.87-1.18,9.48-.91,18.95.49,28.37.44,2.93,1.42,5.78,3.29,8.38,1.48-2.84,2.5-7.6,2.01-10.52h-.02Z"/>
  <path class="cls-1" d="M148.49,206.5c.29,3.12.61,6.24.84,9.37.08,1.11.35,1.81,1.64,1.82,3.37.04,4.89,2.05,5.34,5.15.14.95.45,1.89.45,2.84-.04,7.84-.12,15.68-.23,23.51-.02,1.78-.25,3.56-.31,5.35-.35,11.54-.67,23.08-1,34.62-.05,1.65-.12,3.28-1.69,4.62-1.75-1.18-2.49-2.91-2.47-4.87.11-8.79.3-17.59.48-26.38.03-1.24.18-2.47.25-3.7.51-8.92,1.07-17.83,1.46-26.75.12-2.72-.23-5.47-.41-8.21-.03-.53-.23-1.47-.43-1.5-1.71-.19-3.45-.35-5.16-.23-1.46.1-2.63.87-2.67,2.59-.03,1.51-.05,3.03,0,4.54.19,5.22.4,10.43.61,15.65.21,5.22.56,10.43.62,15.65.03,2.87-.24,5.77-.69,8.61-1.27,7.86-2.76,15.68-2.52,23.7,0,.45-.23.9-.6,2.2-1.85-5.33-1.82-9.88-1.3-14.49.65-5.86,1.61-11.72,1.75-17.6.14-5.75-.67-11.51-.9-17.28-.29-7.28-.4-14.57-.62-21.85-.08-2.65.8-4.64,3.53-5.27,1.64-.38,1.83-1.4,1.71-2.74-.28-3.2.58-6.19,1.28-9.22.34-.04.68-.08,1.02-.12h.02Z"/>
  <path class="cls-1" d="M35.25,415.53c-3.38-3.62-3.62-8.08-3.14-12.67.11-1.07.44-2.16.9-3.14.91-1.96,1.5-2.06,3.88-1.11-.8,1.3-1.63,2.66-2.46,4.02.17.2.33.41.5.61.82-.23,1.67-.39,2.46-.7,2.01-.79,3.52.03,4.72,1.51,3.13,3.84,1.63,10.61-2.94,13.11,1.89,2.09,3.4,4.38,2.44,7.33-.6,1.84.65,2.84,1.47,4.01,3.68,5.24,6.46,10.89,7.58,17.22,1.1,6.18.87,12.36-1.4,18.27-.77,2.01-1.95,3.99-3.38,5.59-2.93,3.27-6.63,3.46-9.83.46-1.77-1.66-3.39-3.69-4.46-5.86-4.52-9.16-5.87-18.84-3.6-28.85.5-2.2,2.29-4.12,2.73-6.31.43-2.17-.31-4.55-.15-6.81.2-2.7,1.65-4.51,4.67-6.67h0ZM40.96,427.36c-2.2,1.6-3.87,3.57-6.73,3.15-.56-.08-1.49.7-1.85,1.32-.53.93-.85,2.04-1.01,3.11-1.46,9.34-.15,18.29,4.21,26.7.81,1.56,1.95,2.99,3.17,4.27,1.39,1.45,2.73,1.43,3.76-.21,1.15-1.82,2.2-3.86,2.65-5.94,1.93-9.04,1.18-17.97-1.7-26.72-.63-1.91-1.62-3.71-2.5-5.66v-.02ZM38.83,422.53c-.16-.91-.05-1.76-.43-2.2-.65-.76-1.51-1.55-2.43-1.82-1.29-.38-1.97.66-2.26,1.82-.29,1.19-.84,2.47-.63,3.58.23,1.21.95,2.87,1.91,3.29,1.45.63,2.36-.93,2.97-2.17.41-.84.63-1.78.87-2.5h0ZM38.37,412.51c.79-2.22.68-4.23-.06-6.13-.19-.49-1.29-.86-1.96-.85-.37,0-1.04.93-1.03,1.43.06,2.24.84,4.18,3.04,5.55h0Z"/>
  <path class="cls-1" d="M130.56,347.31c-.8,1.02-1.07,1.44-1.41,1.79-5.08,5.14-8.89,11.15-12.24,17.53-2.81,5.35-5.57,10.85-9.26,15.57-8.71,11.17-19.9,18.59-34.49,19.41-6.09.34-12.06-.9-17.51-3.84-3.49-1.89-6.07-4.8-7.81-8.31-2.33-4.68-4.52-9.43-6.57-14.23-2.3-5.39-2.82-11.21-3.21-16.94-.39-5.75-.06-11.56,0-17.34,0-.74.34-1.47,1.25-2.16.03,1.55.07,3.11.1,4.66.13,7.57.64,15.13,2.52,22.48.92,3.56,2.28,7.05,3.79,10.41,1.52,3.38,3.47,6.57,5.24,9.83,2.55,4.7,6.26,7.8,11.52,9.3,11.65,3.32,21.95.58,31.53-6.29,8.02-5.76,13.8-13.31,18.23-22.05,1.92-3.8,4.06-7.51,6.42-11.05,2.7-4.06,6.46-6.91,11.9-8.75v-.02h0Z"/>
  <path class="cls-1" d="M104.25,249.71c-.4-.73-.88-1.24-.95-1.81-.38-3.13-.8-6.27-.94-9.41-.29-6.32-.58-12.65-.58-18.97,0-7.84.3-15.67.47-23.51.02-1.1-.03-2.2,0-3.3.08-4.69,1.31-8.67,6.17-10.63.55-.22,1.06-1.21,1.12-1.89.23-2.6.23-5.22.4-7.83.07-1.02.34-2.04.64-3.78,1.86,4.2,1.66,7.86,1.67,11.48,0,1.7.44,2.79,2.1,3.54,6.63,3.02,5.74,5.49,5.12,10.21-1.6,12.02-2.09,24.09-2.06,36.19,0,3.98.39,7.97.54,11.95.1,2.63-.47,5.13-1.86,7.78-1.89-1.81-2.19-3.91-2.26-6.03-.12-3.99-.16-7.98-.14-11.97.04-6.33-.07-12.68.31-18.99.4-6.71,1.21-13.4,2.02-20.07.47-3.86-.3-4.83-4.53-4.78-.27,0-.54.02-.8-.04-2.81-.69-3.01-.74-3.56,1.59-.43,1.83-.35,3.79-.4,5.69-.21,7.83-.36,15.66-.59,23.48-.05,1.78-.39,3.55-.46,5.33-.32,8.24-.59,16.48-.9,24.73,0,.24-.22.48-.5,1.05h-.03Z"/>
  <path class="cls-1" d="M397.57,323.75c1.47,2.02,1.3,3.77.92,5.55-.76,3.54-.66,7.07,0,10.63.3,1.59.21,3.28.15,4.92-.11,2.87-.54,5.74-.46,8.59.1,3.75-.32,7.32-1.54,10.92-1.77,5.2-3.31,10.44-5.92,15.33-2.79,5.22-6.81,9.31-11.35,12.92-6.12,4.87-13.42,5.17-20.78,4.89-1.91-.07-3.81-.5-5.7-.87-6.82-1.33-12.07-5.14-16.23-10.55-1.5-1.95-2.91-4.01-4.11-6.16-6.46-11.61-14.73-21.85-23.75-31.52-.53-.56-1.02-1.16-1.3-2.04,2.25.64,4.17,1.82,5.72,3.48,7.32,7.83,14.47,15.81,20.52,24.71,2.47,3.63,5.06,7.19,7.86,10.56,3.39,4.08,7.91,6.26,13.18,6.95,3.82.5,7.59.69,11.48.35,6.54-.57,11.69-3.67,16.49-7.73,4.28-3.63,7.44-8.11,9.55-13.26,1.51-3.68,2.81-7.46,3.89-11.28.51-1.8.32-3.81.43-5.72.19-3.56.37-7.11.53-10.67.04-.96.12-1.95-.06-2.88-.91-4.65-1.07-9.26.18-13.88.25-.91.19-1.91.31-3.23h0Z"/>
  <path class="cls-1" d="M94.68,250.76c4.94.34,9.91.42,14.81,1.08,4.87.66,9.65.3,14.37-.59,2.63-.5,5.57,0,7.94-1.88.26-.21,1.6.37,1.94.91,1.19,1.9,1.66,3.98,1.24,6.29-1.56,8.61-10.42,17-19.29,18.11-12.95,1.62-23.53-6.17-26.48-19.43-.09-.4-.11-.82-.14-1.23-.19-2.91.18-3.3,3.15-3.34h2.48v.07h-.02ZM92.42,253.65c4.28,12.72,13.25,16.14,20,15.77,8.08-.44,15.22-6.65,17.02-14.69-12.42,3.71-24.48,0-37.01-1.08h-.01Z"/>
  <path class="cls-1" d="M346.83,247.35c4.79-.03,6.51,2.25,5.01,6.7-.26.77-.61,1.55-1.08,2.21-5.07,7.16-11.87,11.88-20.5,13.42-8.62,1.53-15.19-2.47-20.53-8.86-2.69-3.21-4.35-6.98-5.4-11.02-.57-2.22-.49-2.49,1.91-3.11,1.83-.47,3.78-.87,5.65-.78,3.97.19,7.92.84,11.89,1.07,4.25.25,8.52.47,12.76.25,3.84-.2,7.49-1.44,11.09-3.65-.23,1.28-.47,2.55-.7,3.83-2.82,2.44-5.74,4.74-9.68,4.87-2.47.08-4.97.17-7.41-.17-5.97-.82-11.9-1.93-17.86-2.83-1.53-.23-3.14-.75-4.89.25,2.74,6.26,6.64,11.21,12.74,14.17,2.77,1.34,5.67,1.9,8.78,1.18,7.19-1.66,12.74-5.64,16.79-11.71,1.13-1.7,2.02-3.63,1.46-5.83h-.03Z"/>
  <path class="cls-1" d="M425.57,292.31c3.16,3,3.11,6.43,1.62,9.89-2.32,5.37-6.21,9.45-11.48,11.97-10.16,4.86-20.13,5.13-29.55-1.98-3.9-2.94-6.29-6.87-7.49-11.53-.3-1.17-.29-2.46-.16-3.67.06-.52.8-.96,1.23-1.43.35.36.8.67,1.01,1.1.55,1.11,1,2.26,1.47,3.4,3.6,8.77,12.65,13.96,23.84,11.4,6.77-1.55,12.04-5.22,15.26-11.56,1.23-2.43,2.65-4.77,4.24-7.59h0Z"/>
  <path class="cls-1" d="M230.33,477.07c1.5,3.95,3.58,7.73,3.88,12.06.4,5.84-.6,11.27-5.06,15.5-4.74,4.49-11.25,3.29-13.96-2.62-.78-1.71-1.27-3.66-1.43-5.54-.64-7.52.77-14.77,3.26-21.84.05-.13.06-.29.14-.38.59-.66,1.2-1.3,1.8-1.95.25.83.77,1.68.69,2.48-.31,3.28-.94,6.53-1.2,9.81-.27,3.42-.36,6.86-.3,10.28.02,1.33.53,2.71,1.06,3.96,1.66,3.85,4.76,4.22,7.16.74,1.06-1.54,1.77-3.43,2.22-5.26,1.32-5.27,1.36-10.6.17-15.93-.14-.63-.21-1.27-.35-2.1.82.37,1.42.65,2.01.92l-.11-.12h.02Z"/>
  <path class="cls-1" d="M334.94,270.79c.37,4.12.68,7.24.94,10.37.39,4.79,1.03,9.59,1.05,14.39.03,9.2-2.54,17.93-6.11,26.29-2.31,5.41-6.51,9.52-11.12,13.09-3.38,2.61-7.23,3.9-12.32,3.09,8.06-2.37,12.6-8.15,17.01-13.95,1.55-2.03,2.65-4.51,3.51-6.94,3.59-10.18,5.95-20.56,5.02-31.49-.24-2.87-.03-5.78,0-8.67.02-1.9.28-3.74,2.02-6.19h0Z"/>
  <path class="cls-1" d="M302.54,330.39c4.37-1.37,7.15-4.39,9.73-7.65,1.02-1.29,2.08-2.56,3.19-3.78,5.47-5.99,8.23-13.05,9.19-21.1.76-6.44.82-12.86.88-19.3,0-.96-.09-1.94.07-2.88.1-.57.58-1.07.89-1.61.42.48,1.13.9,1.23,1.43,1.37,7.29,2.3,14.63,1.48,22.07-.12,1.09-.37,2.18-.37,3.27,0,6.44-2.39,12.07-6.05,17.17-2.16,3-4.6,5.81-7.08,8.56-3.14,3.47-7.33,4.64-11.85,4.85-.24.01-.5-.17-.74-.3-.1-.06-.16-.2-.56-.75v.02h-.01Z"/>
  <path class="cls-1" d="M116.2,275.71c.32,2.99.78,5.13.74,7.27-.13,7.2.78,14.21,2.62,21.19,2.28,8.63,6.87,15.13,15.17,18.89,2.7,1.22,5.13,3.02,7.8,4.63-1.97,1.67-3.88,1.61-5.97,1.02-10.39-2.97-17.17-9.61-19.99-20.01-2.8-10.33-3.59-20.82-1.66-31.43.04-.22.32-.4,1.28-1.55h.01Z"/>
  <path class="cls-1" d="M139.69,332.72c-9.01,5.31-13.57,2.57-18.02-2.13-7.53-7.95-11.88-17.41-12.85-28.33-.58-6.56-1.02-13.13-1.42-19.7-.09-1.43-.42-3.04,1.11-4.51.39.61.92,1.07.98,1.59.66,5.17,1.11,10.37,1.88,15.52.7,4.74,1.56,9.46,2.63,14.13,1.65,7.16,5.83,12.96,10.47,18.47,3.03,3.59,6.75,5.53,11.58,4.98.94-.11,1.91-.02,3.63-.02h0Z"/>
  <path class="cls-1" d="M177.51,184.89c-.5,4.91-1.15,9.24-3.16,13.22-1.14,2.26-2.57,4.6-5.43,4.32-2.95-.29-3.78-2.99-4.23-5.44-.52-2.82-1.01-5.73-.86-8.56.33-6.14.54-12.32,2.15-18.32.18-.66.3-1.36.64-1.94.38-.65.91-1.59,1.48-1.67,1.1-.15.97.94,1.12,1.74.11.58.45,1.39.9,1.58,3.73,1.56,5.06,4.88,6.07,8.33.69,2.34.95,4.81,1.31,6.74h.01ZM168.67,197.6c.38.11.75.22,1.13.33.58-1.17,1.33-2.28,1.71-3.51,1.33-4.21,2.01-8.56,1.64-12.96-.21-2.57-.87-5.12-1.57-7.61-.38-1.34-.96-2.83-2.92-3.17-1.16,9.11-2.18,18.02,0,26.92h0Z"/>
  <path class="cls-1" d="M114.94,176.32c.9-1.49,1.51-2.41,2.03-3.37,1.65-3.04,1.4-6.07-.12-9.07-1.68-3.3-3.37-6.6-5.2-10.18-.48.71-1.04,1.36-1.41,2.1-2.13,4.35-3.74,8.84-3.78,13.77-.01,1.53.04,3,1.45,4.09.34.26.53,1.37.32,1.55-.44.39-1.44.77-1.77.54-.95-.68-1.99-1.53-2.43-2.56-1.37-3.13-1.28-6.5-.41-9.7.93-3.42,2.19-6.78,3.59-10.04,1.42-3.3,3.02-6.48,2.58-10.23-.08-.65-.05-1.55.33-1.97.56-.62,1.48-1.2,2.26-1.22.49,0,1.28.97,1.44,1.63.25,1.04.22,2.2.08,3.28-.47,3.71.53,7.08,2.19,10.31,1.44,2.81,3.04,5.55,4.33,8.43,2.35,5.24.48,9.78-5.47,12.66v-.02h-.01Z"/>
  <path class="cls-1" d="M329.85,173.19c4.59-8.95,2.3-17.12-2.3-25.54-1.54,3.73-3.06,7.04-4.25,10.47-.71,2.04-1.01,4.25-1.26,6.41-.33,2.85,0,5.53,3.59,6.69-3,1.16-4.77.52-5.7-2.08-.84-2.32-1.47-4.77-.76-7.26.93-3.29,1.73-6.65,3.06-9.77,2.11-4.98,3.96-9.93,3.19-15.48-.11-.8-.17-1.74.15-2.44.35-.79,1.06-1.82,1.78-1.96,1.26-.25,1.87.89,2.11,2.03.14.67.16,1.36.16,2.05,0,1.1.05,2.21-.12,3.29-.44,2.98.34,5.67,1.56,8.36,1.41,3.12,2.91,6.26,3.78,9.54,1.63,6.16.21,11.62-4.98,15.7h0Z"/>
  <path class="cls-1" d="M40.1,218.84c0-.45-.13-.89.02-1.17,2.04-3.71,1.15-7.1-.92-10.48-1.78-2.92-3.38-5.96-5.18-9.14-2.49,3.77-4.27,7.67-4.45,12.19-.08,2.03.18,3.91,2.29,4.84.77.34,1.26.76.65,1.44-.37.42-1.21.78-1.73.67-1.84-.4-3.37-1.52-3.91-3.32-.58-1.93-1.06-4.01-.97-5.99.16-3.59,1.29-7.01,3.05-10.17,1.35-2.41,2.67-4.76,2.58-7.7-.02-.69.87-1.77,1.58-2.03,1.22-.45,2.04.47,2.39,1.64.47,1.57.67,3.26,1.36,4.72,1.57,3.34,3.35,6.59,5.08,9.86.58,1.09,1.34,2.08,1.92,3.17,2.71,5.03,1.64,8.36-3.78,11.47,0,0,.02,0,.02,0Z"/>
  <path class="cls-1" d="M397.03,215.55c-4.4-.16-6.68-2.91-6.16-6.65.28-2.01.99-3.99,1.73-5.9.94-2.43,2.09-4.78,3.17-7.16,1.44-3.18,2.24-6.39,1.57-9.96-.37-1.99-.2-4.12.06-6.15.09-.69,1.15-1.7,1.83-1.75s1.94.82,2.07,1.46c.47,2.26,1.06,4.69.68,6.89-.51,2.95.37,5.35,1.38,7.91,1.55,3.95,3.12,7.92,4.27,11.99.9,3.18-.35,5.53-2.99,6.91-.31.16-.76.06-1.48.1,2.7-6.56-.37-11.99-3.05-18.18-2.1,4.41-4.11,8.26-5.78,12.26-1.21,2.89-.58,5.64,2.69,8.22h0Z"/>
  <path class="cls-1" d="M288.59,202.26c-2.37.14-2.99-1.33-3.52-2.7-1.65-4.33-1.21-8.63.56-12.81,1.06-2.52,2.24-5.01,3.56-7.41,1.63-2.96,2.63-5.98,2.37-9.42-.09-1.18.13-2.48.58-3.58.24-.58,1.31-1.21,1.92-1.13.59.07,1.4.96,1.52,1.6.25,1.32.33,2.77.07,4.08-.93,4.74.71,8.87,2.63,13.03,1.14,2.47,2.36,5.04,2.76,7.68.68,4.41-.52,8.37-5.27,11.67,1.69-4.36,2.23-8.16,1.39-11.78-.85-3.69-2.59-7.17-3.98-10.87-5.87,5.52-7.68,14.06-4.59,21.64h0Z"/>
  <path class="cls-1" d="M321.5,397.45c.81.54,1.56.92,2.17,1.45,1.88,1.64,3,3.6,2.23,6.2-.79,2.65-3.47,4.82-6.04,4.95-2.25.11-4.88-1.53-5.89-3.87-.95-2.2-1.47-4.5-.16-6.75.75-1.28.84-2.32.11-3.76-1.78-3.46-1.01-6.97.5-10.32.65-1.44,1.53-2.8,3.3-1.05.07.07.27.04.4.03,3-.23,5.12,1.12,6.08,3.86.97,2.74.61,5.44-1.38,7.74-.42.49-.86.97-1.34,1.52h.02ZM316.46,385.78c0,2.87-.16,5.13.06,7.37.13,1.29,1.62,1.7,2.44.73.65-.77,1.33-1.88,1.27-2.79-.14-2.03-.93-3.89-3.77-5.3h0ZM317.01,401.89c.03,2.18,1.19,3.82,2.58,3.8,1.15-.02,2.33-1.45,2.41-2.92.09-1.64-1.01-2.43-3.44-2.58-1.41-.09-1.53.81-1.54,1.7h0Z"/>
  <path class="cls-1" d="M156.51,127.41c-.72.9-1.43,1.77-2.3,2.85,3.89-.25,5.34.38,6.06,2.45.75,2.12-.37,4.54-2.91,6.2-.57.37-1.28.55-1.8.97-1.23,1.01-1.23,2.19-.12,3.48.89,1.03,1.94,1.98,2.63,3.13,3.86,6.47,1.49,12.6-1.86,17.24-.99,1.37-2.54,2.24-4.34,1.67-1.59-.5-2.13-1.86-2.52-3.44-.92-3.74-.14-7.38.52-10.98.59-3.2,1.78-6.3,2.73-9.43.36-1.19.64-2.08-.64-3.16-2.8-2.37-1.97-7.68-.03-10.24,1.26-1.66,2.21-1.8,4.57-.73h0ZM154,143.81c-2,5.91-2.72,11.53-2.14,17.3.06.55.6,1.17,1.09,1.51.18.12.96-.37,1.29-.74,4.28-4.75,4.34-12.59-.24-18.07h0ZM156.67,134.48c-.58-.4-.99-.84-1.15-.77-.44.22-.83.61-1.1,1.03-.07.11.5.82.55.8.52-.25,1-.6,1.69-1.06h0Z"/>
  <path class="cls-1" d="M152.34,210.88c.67-1.57,1.02-2.45,1.41-3.3.96-2.11,1.1-4.4.22-6.42-1.57-3.6-3.55-7.02-5.5-10.8-1.72,3-3.24,5.57-4.68,8.18-2.08,3.77-2.57,7.49.47,11.09.3.36.12,1.12.17,1.7-.63-.06-1.44.11-1.85-.23-2.88-2.36-4.11-5.52-3.48-9.13.37-2.12,1.33-4.16,2.22-6.15.96-2.12,2.17-4.12,3.24-6.2,1.14-2.23,1.92-4.55,1.61-7.12-.06-.54-.19-1.21.06-1.62.45-.74,1.05-1.71,1.77-1.9,1.26-.34,2.18.62,2.17,1.85-.03,6.26,3.3,11.2,6.25,16.29.48.83.93,1.69,1.29,2.57,1.98,4.9.37,8.62-5.37,11.18h0Z"/>
  <path class="cls-1" d="M275.12,151.12c.6-4.08,1.07-8.16,1.85-12.18.32-1.65.71-3.12-.04-4.77-.37-.83-.36-1.89-.32-2.83.08-1.58-.23-3.38,1.97-4,1.92-.54,3.75-.94,5.39.62,1.41,1.35,1.72,3.17.84,5.27-.21.5-.45,1.03-.81,1.41-1.08,1.11-.71,2.12-.1,3.33,1.1,2.19,2.26,4.4,2.92,6.74,1.32,4.74-.3,8.99-3.29,12.58-2.55,3.07-6.48,2.07-7.61-1.74-.42-1.43-.55-2.95-.81-4.44h0ZM278.8,147.84c.09,0,.17.02.26.03,0,1.64-.1,3.29.05,4.92.06.68.64,1.32.98,1.98.5-.41,1.19-.72,1.47-1.25,2.77-5.21,2.03-10.58.57-15.95-.09-.33-.91-.72-1.29-.64-.36.08-.8.72-.86,1.16-.44,3.24-.79,6.5-1.17,9.75h-.01ZM282.96,131.16c-1.16-.85-1.89-1.75-2.77-1.95-1.18-.26-1.6.8-1.57,1.86.05,1.53,1.17,3.14,1.84,2.71.84-.55,1.44-1.47,2.5-2.62h0Z"/>
  <path class="cls-1" d="M269.75,183.54c-.44,2.41-.82,4.84-1.35,7.23-.21.91-.69,1.8-1.21,2.59-2.48,3.69-6.05,3.47-7.87-.58-1.48-3.31-1.92-6.92-1.48-10.47.59-4.74,1.55-9.43,2.41-14.13.17-.93.49-1.9,1-2.68.4-.6,1.17-1.17,1.86-1.3.38-.07,1.13.7,1.38,1.24,2.62,5.75,5.16,11.53,5.27,18.1h0ZM262.95,192.17c2.65-2.94,2.95-6.2,2.72-9.42-.29-4.21-.98-8.39-1.55-12.57-.08-.58-.5-1.12-.77-1.68-1.42,7.83-3.64,15.53-.4,23.68h0Z"/>
  <path class="cls-1" d="M249.91,395.21c-1.6,1.13-3.13,2.39-4.82,3.36-4.75,2.72-10,3.78-15.38,4.09-8.63.49-17.28.89-25.92.05-2.43-.24-4.83-.9-7.21-1.47-.77-.18-1.53-.61-2.17-1.09-.36-.27-.47-.87-.7-1.32.46-.16.95-.5,1.38-.44,2.03.3,4.03.97,6.06,1.05,13.06.55,26.08.17,38.93-2.52,3.18-.66,6.29-1.6,9.44-2.41l.38.7h.01Z"/>
  <path class="cls-1" d="M285.1,335.83c-11.79-4.41-21.76-2.05-31.15,4.64-1.01-2.17.14-3.66,1.22-4.94,4.3-5.13,14.46-9.71,23.26-5.9,2.67,1.16,4.94,2.79,6.67,6.2h0Z"/>
  <path class="cls-1" d="M198.75,393.74c2.24-1.66,4.28-1.55,6.3-1.63,6.04-.24,12.08-.52,18.12-.77,6.59-.26,13.02-1.35,19.56-3.4-.82.76-1.56,1.63-2.48,2.26-4.17,2.86-8.93,4.5-13.85,4.9-8.63.7-17.31.83-25.9-.73-.39-.07-.76-.27-1.75-.63Z"/>
  <path class="cls-1" d="M256.54,348.17c3.36-10.78,19.78-13.28,30.05-4.41-.96-.04-1.61.06-2.18-.12-4.53-1.48-9.18-1.45-13.87-1.38-4.05.06-7.48,1.51-10.6,3.97-.99.78-1.74,2.13-3.41,1.94h.01Z"/>
  <path class="cls-1" d="M390.51,303.15c1.33-.09,2.66-.25,3.98-.25,5.52,0,10.92-.84,16.27-2.19,1.31-.33,2.7-.49,4.05-.47.93.01,1.58.81.99,1.72-.65,1-1.46,2-2.43,2.66-2.46,1.68-5.33,2.18-8.23,2.19-5.1.02-10-1.13-14.79-2.73.05-.31.11-.62.16-.93h0Z"/>
  <path class="cls-1" d="M281.78,304.57c2.26-.3,4.52-.66,6.79-.88,4.36-.43,8.71-.81,12.78-2.68.46-.21,1.46-.08,1.68.25.28.42.27,1.38-.03,1.79-2.17,2.91-5.12,4.45-8.77,4.62-4.29.2-8.33-.96-12.37-2.12-.02-.33-.05-.66-.07-.99h-.01Z"/>
  <path class="cls-1" d="M219.4,429.55c-.43-2.33-1.06-4.65-1.26-7-.38-4.5-.55-9.03-.73-13.55-.02-.39.51-1.05.88-1.12.35-.07,1.1.37,1.21.72.62,2.1,1.33,4.21,1.58,6.37.27,2.3.22,4.67.05,6.99-.19,2.52-.69,5.02-1.05,7.52-.23.02-.46.04-.69.06h0Z"/>
  <path class="cls-1" d="M213.4,427.67c-4.9-4.85-6.84-10.86-6.09-17.72.07-.62.8-1.17,1.22-1.76.36.54.94,1.03,1.04,1.61.53,3.09.79,6.23,1.43,9.29.61,2.9,1.58,5.72,2.4,8.58h0Z"/>
  <path class="cls-1" d="M237.82,374.55c-6.24-1.35-9.25-7.44-6.41-11.83.33-.51,1.22-1.22,1.49-1.09.61.29,1.14.99,1.43,1.64.26.59.18,1.34.2,2.02.1,3.21,1.05,6.15,3.29,9.26h0Z"/>
  <path class="cls-1" d="M211.82,362.12c1.59,7.28-2.2,12.55-5.19,18.6-.69-4.13,2.43-15.21,5.19-18.6Z"/>
  <path class="cls-1" d="M167.07,156.95c1.62,1.51,3.43,2.73,4.55,4.42.85,1.28-.41,2.97-2.01,3.41-1.72.47-3.42-.11-4.35-1.48-1.1-1.63-1.18-3.59-.06-4.98.39-.48,1.03-.76,1.87-1.36h0Z"/>
  <path class="cls-1" d="M228.12,406.08c2.11.49,2.94,1.63,3.12,3.22.56,4.94-.14,9.71-2.48,14.27-.21-5.73-.42-11.47-.64-17.5h0Z"/>
  <path class="cls-1" d="M196.87,379.14c.91-3.96,1.78-7.94,2.79-11.88.16-.61.96-1.05,1.47-1.57.42.64,1.13,1.24,1.21,1.92.14,1.2.14,2.53-.24,3.66-.99,2.97-2.38,5.77-4.41,8.18-.28-.1-.55-.2-.83-.31h.01Z"/>
  <path class="cls-1" d="M220.7,358.61c-3.34,1.91-6.26,2.23-9.24,2.17-1.07-.02-2.36-.06-2.46-1.52-.1-1.35.96-1.96,2.11-1.97,3.04-.01,6.17-.61,9.58,1.31h.01Z"/>
  <path class="cls-1" d="M264.68,155.82c1.33.06,2.69,1.46,2.63,2.69-.09,1.71-1.9,3.2-3.75,3.1-1.83-.11-2.87-1.45-2.66-3.41.14-1.33,1.96-2.47,3.78-2.38Z"/>
  <path class="cls-1" d="M228.82,378.17c-2.67-1.2-4.65-2.73-4.16-5.79.07-.47.61-1.28.79-1.24.56.11,1.35.45,1.51.9.72,2.01,1.25,4.08,1.86,6.14h0Z"/>
  <path class="cls-1" d="M217.84,363.2c.43,4.46-.93,8.59,1.19,12.89-2.57-2.18-2.87-2.67-2.77-6.01.06-2.21-.22-4.57,1.58-6.88Z"/>
  <path class="cls-1" d="M231.11,160.46c1.02-.39,1.6-.62,2.38-.92-.1,2.77-2.34,4.32-3.96,4.69-5.17,1.16-10.51,1.88-15.78.12-.91-.3-1.9-.47-2.7-.95-.74-.44-1.9-1.38-1.79-1.82.35-1.38,1.47-.47,2.35-.38,3.67.4,7.34.72,11.01,1.06.41.04.82,0,1.23-.04,4.96-.34,4.89-.39,5.07-5.2.23-6.46,1-12.84,3.89-18.77.3-.61.59-1.22.95-1.79.11-.18.57-.34.7-.26.3.2.72.58.69.83-.25,1.75-.59,3.49-.94,5.23-.96,4.83-1.97,9.65-2.9,14.49-.2,1.05-.13,2.16-.21,3.7h0Z"/>
  <path class="cls-1" d="M218.94,160.83c-2.42-7.83-4.14-15.69-.91-23.81.15-.37.24-.82.51-1.08.24-.23.69-.33,1.05-.33.2,0,.53.29.58.5.13.66.24,1.35.21,2.02-.12,3.82-.34,7.64-.42,11.46-.07,3.68-.02,7.35-.02,11.03-.34.07-.67.14-1.01.21h0Z"/>
  <path class="cls-1" d="M203.23,164.86c-.37-10.6-.39-21.19,1.24-32.19,1.41.84,1.73,1.8,1.77,2.88.08,2.19.31,4.4.12,6.57-.67,7.59-1.5,15.17-2.26,22.76h-.87v-.02Z"/>
  <path class="cls-1" d="M44.31,310.46c-2.92,4.4-8.99,5.13-19.96,2.3,3.75-1.29,7.12-.59,10.33-1.12,3.14-.52,6.21-1.94,9.63-1.18Z"/>
  <path class="cls-1" d="M139.68,308.94c3.49-2.18,6.6-2.56,9.55-3.37,1.84-.5,3.73-.82,5.62-1.07.57-.08,1.2.35,1.8.55-.31.66-.46,1.7-.96,1.92-2.23.99-4.5,2.04-6.86,2.5-2.74.53-5.57.2-9.16-.53h.01Z"/>
  <path class="cls-1" d="M39.91,453.28c2.92-7.45.66-14.55-1.83-21.67,5.33,6.02,7.79,12.81,5.67,20.84-.59,2.23-1.62,4.39-4.17,4.5-2.61.12-3.72-2.06-4.39-4.23-1.9-6.16-1.98-12.41-.61-18.69.06-.27.06-.65.23-.77.4-.28.9-.44,1.35-.64.17.44.55.93.47,1.33-1,5.08-.54,10.11.47,15.1.31,1.56,1.12,3.01,1.71,4.51.37-.09.74-.19,1.11-.28h-.01Z"/>
  <path class="cls-1" d="M106.07,262.09c2.35-.49,4.7-.93,7.03-1.48,2.11-.5,4.2-1.06,6.27-1.71.89-.28,1.86-1.11,2.48.09.66,1.29-.42,1.98-1.42,2.49-3.35,1.72-6.92,2.49-10.68,2.15-1.21-.11-2.39-.47-3.58-.72-.03-.28-.07-.55-.1-.83h0Z"/>
  <path class="cls-1" d="M336.65,254.84c-3.78,4.38-11.52,4.97-19,1.68,6.62-.59,12.38-1.1,19-1.68Z"/>
</svg>