<?xml version="1.0" encoding="UTF-8"?>
<svg id="Layer_1" data-name="Layer 1" xmlns="http://www.w3.org/2000/svg" version="1.1" viewBox="0 0 243.37 317.71">
  <defs>
    <style>
      .cls-1 {
        fill: #000;
        stroke-width: 0px;
      }
    </style>
  </defs>
  <path class="cls-1" d="M53.56,201.32c6.11,4.79,11.52,11.34,18.43,14.08,35.77,14.2,71.48,12.04,105.74-4.81,31.68-15.59,35.5-37.15,12.99-64.23-2.84-3.42-5.03-7.39-7.52-11.11,5.25,1.05,11.2.85,15.62,3.36,15.69,8.9,21.5,23.26,20.61,40.94-.56,11.27-7.18,23.45,4.29,33.21,6.07,34.11-7.28,55.16-39.07,69.52-10.92,4.93-22.59,8.55-34.25,11.38-35.37,8.6-68.9,2.32-101.09-13.74-17.47-8.72-22.95-24.55-24.55-41.99-1.55-16.93-1.99-34.02-1.82-51.02.28-27.27,22.07-51.64,49.72-53.59,11.82-.84,14-4.45,15.48-15.28,1.35-9.9,6.23-20.57,12.69-28.26,12.88-15.34,18.53-31.73,15.95-51.47-.61-4.66-.15-10,1.66-14.24,1.32-3.1,5.52-6.55,8.71-6.84,3.08-.28,8.82,2.75,9.39,5.24,2.11,9.21,5.78,19.9,3.02,28.04-6.89,20.28-.28,36.47,10.08,52.63,3.06,4.77,6.43,9.36,9.43,14.16,6.83,10.93,10.11,23.04,3.26,34.45-5.94,9.9-1.05,9.85,6.37,11.16,4.58.81,9.53,3.1,12.92,6.23,4.5,4.16,11.82,12.5,10.65,14.31-4.98,7.66-11.09.3-16.69-1.7-3.79-1.35-7.3-3.52-11.09-4.87-6.77-2.42-13.65-4.49-20.49-6.71,2.46-6.03,6.93-12.06,6.91-18.08-.04-9.32-1.97-19.08-5.29-27.81-3.11-8.17-9.36-15.09-13.7-22.86-8.63-15.44-8.2-15.31-19.5-.44-12.05,15.85-14.09,32.34-4.58,49.87,1.33,2.46,4.44,4.2,7.11,5.46.51.24,3.25-3.14,4.2-5.21,1.34-2.92,1.29-6.7,3.16-9.07,1.08-1.38,6.69-1.53,6.99-.84,6.58,15.31,9.76,30.99,1.75,46.82-2.36,4.67-6.37,5.11-9.24.65-2.13-3.31-2.89-7.51-4.26-11.32-3.64-10.1-8.1-13-17.32-8.55-7.89,3.81-14.75,9.8-21.99,14.93-8.44,5.98-16.79,12.07-25.18,18.11.73-23.05,19.13-30.29,35.63-38.18,6.9-3.3,9.02-5.4,5.08-11.99-3.38-5.67-3.21-15.43-14.03-12.26-18.07,5.29-31.59,16.08-38.6,33.87-5.31,13.47-2.55,19.14,12.43,28.08ZM53.22,231.17l-.99-1.38,1.44.92c3.29,1.55,6.57,3.09,9.86,4.64,3.16,1.69,6.32,3.38,9.48,5.06,25.66,14.21,53.24,15.49,81.63,12.76,5.75-.55,11.77,1.7,17.67,2.66-3.2,4.12-6.35,8.28-9.64,12.34-1.46,1.8-3.19,3.37-4.79,5.04,2.22.65,4.79,2.36,6.62,1.77,7.44-2.41,15.66-4.16,21.76-8.64,16.75-12.31,22.86-30.76,25.56-50.54.3-2.23-.32-4.59-.51-6.89-2.03,1.11-4.33,1.9-6.05,3.36-33.8,28.71-72.91,36.19-115.75,29.38-5.55-.88-11.31-.49-16.98-.68-3.17-1.68-6.33-3.36-9.5-5.04-3.27-1.58-6.54-3.17-9.81-4.75ZM43.3,240.98c-.5-.55-1-1.1-1.5-1.65.66.4,1.31.79,1.97,1.19,1.67,4.21,2.21,10.86,5.19,12.24,24.18,11.2,48.9,21.09,76.54,16.99,2.32-.34,4.56-1.22,6.83-1.84-2.35-1.06-4.67-2.96-7.04-3.04-27.08-.88-52.52-6.9-75.1-22.7-1.73-1.21-4.57-.83-6.89-1.19Z"/>
</svg>