<?xml version="1.0" encoding="UTF-8"?>
<svg id="Layer_1" data-name="Layer 1" xmlns="http://www.w3.org/2000/svg" version="1.1" viewBox="0 0 333.42 557.64">
  <defs>
    <style>
      .cls-1 {
        fill: #000;
        stroke-width: 0px;
      }
    </style>
  </defs>
  <path class="cls-1" d="M307.59,225.77c.24-2.42.28-4.47.69-6.46.96-4.66.89-9.27.18-13.96-.52-3.38-.71-6.83-.78-10.26-.15-7.22.21-14.46-.23-21.66-1.1-18.33-.52-36.67-.43-55,.04-8.1,1.31-16.18,1.66-24.28.33-7.55.23-15.12.19-22.68-.01-2.11-.56-2.4-2.83-2.46-1.36-.03-2.73,0-4.34,0,0,.52-.16,1.4.03,2.2,1.22,5.19,1.53,10.4.67,15.68-.22,1.35-.08,2.75-.2,4.12-.41,4.78-.89,9.56-1.26,14.34-.17,2.17-.35,4.36-.19,6.52,1.01,13.5.84,27.02.81,40.54-.01,8.48,0,16.97-.16,25.45-.09,4.76-.62,9.51-.71,14.28-.05,2.61.37,5.23.65,7.84.43,4.1.97,8.18,1.36,12.28.36,3.76-1.19,7.12-2.51,10.97-1.99-2.14-2.21-4.5-2.27-6.81-.1-3.66.09-7.34.02-11-.07-3.43-.31-6.85-.47-10.27-.02-.46-.09-.94.02-1.37,1.18-4.78.57-9.56-.03-14.34-.13-1.02-.09-2.06-.09-3.09-.08-11.24.26-22.49-.33-33.7-.73-13.87-.33-27.73-.26-41.59.04-9.37,1.02-18.74,1.53-28.11.06-1.12-.02-2.29-.26-3.38-.69-3.12.31-5.36,3.19-6.75.71-.34,1.41-.69,2.35-1.16,0-1.57-.1-3.17.05-4.75.05-.54.74-1.02,1.14-1.53.49.53,1.37,1.05,1.39,1.6.07,2.16-.11,4.33-.24,6.49-.05.75-.22,1.5-.34,2.29.52.15.83.3,1.16.33,3.67.4,4.76,1.41,4.99,5.14.31,5.02.71,10.06.62,15.09-.09,5.25-.7,10.49-1.09,15.73-.02.23-.05.46-.06.68-.24,5.6-.6,11.2-.68,16.81-.12,7.45-.11,14.91,0,22.36.15,9.39.12,18.8.79,28.16.67,9.29.25,18.56.43,27.83.03,1.37.02,2.78-.26,4.11-.74,3.46.37,6.81.46,10.21.04,1.58.38,3.15.54,4.73.25,2.49.46,4.99.69,7.48.03.34.09.68.11,1.02.26,4.22-.88,5.47-5.07,5.22-2.16-.13-4.32-.47-6.45-.88-.86-.16-1.76-.61-2.42-1.19-.4-.35-.63-1.3-.43-1.79.15-.39,1.05-.65,1.62-.67,1.13-.05,2.27.21,3.4.15,1.25-.06,2.48-.34,3.65-.51h0ZM304.59,65.21c-.53-.5-.85-1-1.08-.97-.37.06-.68.48-1.02.75.31.28.57.68.93.8.22.07.59-.27,1.17-.58h0Z"/>
  <path class="cls-1" d="M100.78,518.83c.82.13,1.14.09,1.24.21,3.62,4.88,8.87,7.48,14.16,9.98,8.25,3.89,17,5.95,26.03,6.93,5.33.58,10.64,1.52,15.98,1.85,8.57.52,17.16.66,25.71-.72,12.46-2.01,24.47-5.8,36.59-9.16,5.4-1.49,10.77-3.13,16.04-5.03,5.19-1.87,10.04-4.49,14.26-8.12,8.78-7.53,11.21-17.45,6.02-28.47-4.85-10.32-11.71-18.85-22.89-22.97-.3-.11-.56-.36-.77-1.01,1.14.16,2.37.11,3.42.52,12.57,4.92,21.79,13.34,26.45,26.19,2.71,7.47,2.6,15.03-.74,22.35-.75,1.64-1.75,3.26-2.99,4.55-5.78,6.01-12.57,10.63-20.2,14.01-2.82,1.25-5.59,2.6-8.41,3.87-7.53,3.38-15.3,5.94-23.5,7.21-13.03,2.02-26.14,3.16-39.3,2.71-7.29-.25-14.57-1.28-21.8-2.34-6.78-.99-13.51-2.36-20.01-4.65-6.51-2.3-12.64-5.36-18.27-9.37-2.44-1.74-4.63-3.75-6.13-6.4-.32-.56-.51-1.2-.91-2.15h.02Z"/>
  <path class="cls-1" d="M94.41,78.79c-.45.96-.72,1.57-1.06,2.31.65.2,1.28.38,1.9.57.12-.34.27-.55.25-.75-.12-1.82-.35-3.63-.38-5.44,0-.54.51-1.08.89-1.83,2.25,2.1,1.13,4.48,1.17,6.58,4.66,1.54,6.01,3.42,6.13,8.26.05,1.94.4,3.87.41,5.81.01,1.93-.28,3.87-.34,5.81-.25,8.24-.55,16.47-.67,24.71-.11,7.33-.07,14.67,0,22.01.09,8.71-.66,17.37-1.3,26.05-.42,5.59-.76,11.19-.82,16.79-.1,8.7-.12,17.4-1.29,26.05-.14,1.02-.05,2.06-.11,3.09-.2,3.39-.25,6.8-.7,10.16-.18,1.36-1.13,2.7-1.98,3.86-.6.82-.25,2.27-1.79,2.51-2.47.38-4.9,1.22-7.36,1.27-2.02.04-3.87-2.78-3.74-5.03,1.32-22.44.94-44.9,1.08-67.35.02-3.53.5-7.07.8-10.6.42-4.89.68-9.81,1.34-14.67,2.04-15.02,1.91-30.13,2.18-45.23.06-3.31.28-6.62.46-9.93.16-2.85,1.66-4.47,4.93-5.01h0ZM88.99,231.66c1.51-.15,2.66-.16,3.77-.4.73-.15,1.65-.43,2.06-.97,1.63-2.19,3.13-4.4,3.1-7.4-.17-18.32-.4-36.63,1.07-54.92.69-8.66.6-17.38.77-26.07.1-5.27-.07-10.54.05-15.81.17-7.43.2-14.89.87-22.28.47-5.16.45-10.28.4-15.42-.02-2.04-.46-3.84-2.38-4.91-1.04.38-1.98.88-2.98,1.04-1.05.18-2.15.04-3.34.04-.03.76-.09,1.44-.09,2.11-.17,18.79-.34,37.57-.49,56.36-.06,7.33-.47,14.62-1.43,21.9-.48,3.62-.8,7.29-.83,10.94-.11,13.75-.03,27.5-.1,41.25-.01,3.2-.34,6.39-.46,9.59-.06,1.58-.01,3.17-.01,4.97l.02-.02Z"/>
  <path class="cls-1" d="M33.83,70.98c0-1.2,0-2.29,0-3.38.02-.92-.12-1.9.17-2.72.22-.61,1.03-1.01,1.58-1.5.34.52.98,1.04.98,1.55,0,1.82-.22,3.64-.37,5.45-.06.76-.16,1.51-.3,2.72,1.28-.37,2.19-.63,3.01-.87-.09-1.19-.17-2.14-.27-3.48.76.38,1.25.47,1.49.76,2.47,2.98,3.96,6.35,3.95,10.29,0,12.73.05,25.45-.03,38.18-.05,7.79-.31,15.58-.51,23.37-.25,9.96-.59,19.92-.79,29.88-.29,14.66-.45,29.33-.74,43.99-.08,4-.48,7.99-.63,11.99-.06,1.56-1.1,2.47-1.97,3.48-2.65,3.06-6.53,3.2-9.44,2.3-1.46-.45-2.66-1.3-3.22-2.85-.56-1.54-.39-1.89,1.62-2.95.49,2.32,1.5,3.25,3.74,3.05,1.35-.12,2.72-.46,3.98-.96,2.79-1.1,3.05-1.9,2.57-4.84-.42-2.59-.79-5.22-.8-7.83-.04-12.38-.09-24.77.14-37.14.16-8.12.93-16.22,1.19-24.34.39-12.25.24-24.53.92-36.76.71-12.84.28-25.66.49-38.49.02-1.31-.18-2.63-.31-4.45-3.43,1.78-6.18,1.05-9.04-1.17-.09,1.49-.22,2.57-.2,3.65.12,7.8-.33,15.57-1.15,23.32-.07.68-.07,1.37-.07,2.06-.01,15.71.05,31.41-.07,47.12-.06,8.13-.49,16.25-.69,24.37-.1,4.24-.08,8.48-.07,12.73.01,8.02-.28,16.02-1.29,23.99-.46,3.63-.55,7.3-.82,10.95-.04.51-.13,1.01-.69,1.57-.16-.48-.46-.95-.47-1.43-.05-2.52-.09-5.05-.02-7.57.19-7.1.5-14.19.62-21.29.09-5.5-.13-11.01-.04-16.51.09-5.72.58-11.44.55-17.16-.05-10.08-.41-20.16-.52-30.24-.11-9.86-.15-19.72-.05-29.58.09-8.01.42-16.02.69-24.03.04-1.25.37-2.48.55-3.73.39-2.67.41-2.58,3.06-3.31,1.51-.41,2.29-.21,2.28,1.49,0,.06.39.12.99.29v.03Z"/>
  <path class="cls-1" d="M173.38,206c-1.33-3.11-1.94-5.73-1.96-8.4-.07-10.32-.07-20.63.05-30.95.08-7.1.41-14.19.62-21.29.24-7.78.48-15.57.72-23.35.25-8.24.34-16.49.78-24.72.32-5.93,1-11.84,1.71-17.74,1.03-8.63,2.14-17.24,1.33-26.23-3.71,2.04-6.91.53-10.21-1.29-.88,1.2-1.17,2.48-1.17,3.83.04,9.4-.3,18.82.28,28.19.5,8.06-.12,16-.77,23.97-.3,3.65-.61,7.3-.75,10.96-.33,8.7-.56,17.4-.83,26.1-.26,8.25-.08,16.53-.88,24.73-1,10.28-1.28,20.56-1.41,30.86-.03,2.25-.4,4.5-.99,6.74-.22-2.26-.62-4.52-.62-6.78,0-7.1.16-14.2.26-21.29,0-.23.05-.46.06-.69.13-10.19,1.11-20.33.4-30.56-.58-8.44-.5-16.97-.12-25.44.52-11.55,1.39-23.08,1.23-34.66-.12-8.83-.16-17.65-.1-26.48.02-2.62.42-5.24.75-7.84.11-.89.48-1.77.88-2.58.84-1.71,1.92-3.11,4.14-3.04.76.02,1.53-.3,2.23-.45.37-1.94.65-3.74,1.08-5.5.11-.45.71-.79,1.09-1.17.33.52.89,1.01.96,1.56.15,1.23.05,2.5.05,3.95.76-.12,1.36-.28,1.97-.31,2.31-.12,3.19.28,3.88,2.52.76,2.49,1.34,5.08,1.59,7.66.28,2.96.23,5.96.09,8.93-.17,3.77-.53,7.53-.89,11.28-.33,3.41-.8,6.81-1.14,10.22-1.43,14.4-.22,28.86-.77,43.28-.28,7.43-.76,14.86-1.15,22.28-.02.34-.05.69-.06,1.03-.33,11.56-.62,23.13-.99,34.69-.17,5.27-.47,10.53-.74,15.79-.03.52-.26,1.03-.58,2.21l-.02-.02ZM171.19,50.84c1.71.28,3.08.69,4.3-.91-.49-.45-.95-.94-1.47-1.34-.5-.39-1.05-.69-1.85-1.2-.35,1.24-.61,2.18-.97,3.46h0ZM169.04,49.2l-.11.15.17.03-.06-.18Z"/>
  <path class="cls-1" d="M249.77,93.88c-1.27.5-2.22.86-3.16,1.23-2.15.85-4.21.72-6.3-.3-2.99-1.45-3.68-.97-3.66,2.49.05,10.2.17,20.4.17,30.61,0,20.75.07,41.5-.1,62.24-.06,7.2-.86,14.4-1.07,21.6-.09,3.18.24,6.41.72,9.57.64,4.16.18,8.21-.64,12.26-.06.28-.41.49-.91,1.04-.08-3.42-.27-6.49-.2-9.54.11-4.25-.14-8.4-1.23-12.58-.71-2.71-.71-5.66-.65-8.49.14-6.64.57-13.26.75-19.9.12-4.47,0-8.94.03-13.41.13-13.64.23-27.27.47-40.91.17-9.5.51-19,.84-28.5.08-2.4.36-4.8.72-7.17.13-.84.63-1.77,1.25-2.34,1.32-1.21,2.83-2.22,4.66-3.6,0-.46-.03-1.47,0-2.49.04-.91.05-1.85.27-2.72.26-1.03.79-1.98,2.11-1.82,1.23.16,1.37,1.2,1.28,2.09-.3,3.15-.73,6.28-1.13,9.61,1.12.71,2.07-.38,3.11-.95,3.24-1.79,4.92-1.18,5.76,2.38.36,1.52.25,3.17.2,4.76-.06,1.94-.37,3.87-.4,5.81-.06,4.24.07,8.48-.02,12.72-.17,7.9-.55,15.79-.66,23.68-.13,9.74.07,19.49-.15,29.23-.19,8.46-.78,16.91-1.17,25.36-.32,6.97-.57,13.95-.93,20.92-.12,2.27-.47,4.54-.69,6.81-.22,2.25-.32,4.52-.62,6.75-.17,1.23-.53,2.47-1.05,3.59-.21.45-1.25.96-1.61.79-.6-.28-1.19-1.03-1.34-1.68-.13-.57.3-1.3.59-1.92,1.43-3.07,1.73-6.13,1.29-9.59-.61-4.74-.5-9.59-.38-14.39.13-5.03.82-10.04.96-15.06.39-13.51.48-27.03.98-40.53.25-6.85,1.11-13.67,1.69-20.51.1-1.14.16-2.29.16-3.43.02-9.17.02-18.34.03-27.51v-6.22l.03.02ZM242.65,93.54c-.36-1.48-.64-2.62-1.08-4.4-.84,1.48-1.34,2.36-1.97,3.47,1.17.36,1.98.6,3.05.93Z"/>
  <path class="cls-1" d="M170.82,340.9c-1.91-8.86-.61-16.8,6.7-22.88-1.66-4.3-.5-8.13,2.03-11.58,4.68-6.39,10.94-9.89,18.99-9.99,3.62-.05,6.43,1.52,8.59,4.26,1.49,1.88,2.67,4,4.13,5.91,1.46,1.89,2.9,3.87,4.7,5.41,2.69,2.3,5.36,2.32,8.14.14,1.68-1.32,3.27-2.95,4.4-4.75,1.82-2.89,3.28-6.02,4.8-9.09,1.93-3.9,3.65-7.9,5.67-11.74,2.16-4.09,5.3-7.46,8.66-10.6.29-.27.69-.4,1.41-.28-.23.44-.41.92-.71,1.32-3.13,4.17-5.27,8.82-6.79,13.78-1.81,5.91-3.62,11.86-6.97,17.13-1.58,2.49-3.37,4.96-5.48,7-5.48,5.31-12.34,5.08-17.6-.48-1.64-1.73-2.93-3.8-4.28-5.78-.84-1.22-1.5-2.57-2.25-3.86-2.2-3.78-5.38-5.52-9.78-4.71-6.36,1.17-11.66,4.04-15.07,9.74-.75,1.26-1.26,2.69-1.68,4.11-.2.67.08,1.48.16,2.55,1.02-.41,1.74-.66,2.43-.97,1.66-.77,3.24-1.74,4.96-2.33,4.06-1.4,8.16-1.49,11.92.82,3.71,2.27,7.29,4.75,10.86,7.23,2.94,2.05,5.94,3.87,9.62,4.19,4.92.43,8.91-1.58,12.5-4.68,6.04-5.22,9.47-11.97,11.27-19.62,1.42-6.03,3.05-11.95,6.26-17.33,1.78-2.97,3.72-5.78,6.63-7.78,1.56-1.07,3.25-1.8,5.15-1.44.82.16,1.77.63,2.29,1.26,2.14,2.63,1.04,7.31-2.46,9.6.36-.93.67-1.49.79-2.1.3-1.54.75-3.1.71-4.64-.05-1.91-1.27-2.48-3.13-1.67-2.26,1-4,2.64-5.34,4.71-2.62,4.06-4.75,8.35-5.97,13.05-1.15,4.42-2.07,8.91-3.47,13.24-2.2,6.81-6.2,12.47-11.85,16.91-7.54,5.93-16.37,5.89-24.2.55-2.56-1.74-5.03-3.61-7.59-5.33-1.42-.96-2.93-1.79-4.45-2.6-2.34-1.24-4.83-1.4-7.32-.55-4.87,1.66-9.03,4.4-12.39,8.32-2.86,3.34-4.21,7.27-4.5,11.62-.09,1.32-.34,2.63-.52,3.94h.03Z"/>
  <path class="cls-1" d="M163.75,326.97c-1.05-.79-2.14-1.54-3.15-2.38-4.2-3.46-8.69-4.22-13.74-1.87-4.25,1.98-8.6,3.76-12.96,5.48-4.38,1.73-8.91,2.95-13.68,2.98-9.22.06-16.02-4.02-20.47-12.04-2.89-5.21-3.78-10.99-4.74-16.75-.9-5.41-1.77-10.83-2.75-16.22-.29-1.56-.82-3.1-1.46-4.56-1.95-4.43-4.53-5.73-9.32-4.7.43-1.47,1.35-2.09,2.67-2.26,3.02-.38,5.55.76,7.2,3.13,1.55,2.22,2.98,4.69,3.7,7.27,1.64,5.82,2.76,11.79,4.19,17.67.86,3.55,1.64,7.16,2.92,10.57,2.38,6.36,6.67,10.89,13.56,12.44,3.44.78,6.87.32,10.18-.57,2.97-.8,5.88-1.89,8.74-3.03,4.14-1.65,8.21-3.46,12.37-5.23-1.27-1.11-2.8-.97-4.3-.68-3.26.63-6.51,1.26-9.74,2.02-4.93,1.15-9.88,1.73-14.97,1.28-6.09-.54-10.74-4.14-11.87-10.12-.85-4.48-1.07-9.08-1.47-13.64-.33-3.78-.86-7.51-2.43-10.99-1.73-3.84-4.05-7.17-8.45-8.59,2.11-1.06,2.59-1.08,4.37.04,2.78,1.75,4.84,4.2,6.38,7.07,2.25,4.21,3.07,8.82,3.64,13.5.4,3.29.78,6.59,1.38,9.85,1.06,5.7,4.14,8.23,9.93,8.51,4.41.22,8.63-.84,12.88-1.77,3.01-.66,6.03-1.29,9.08-1.7,3.42-.46,6.3.91,8.67,3.3,1.15,1.16,2.33,1.95,4.02,2.38,3.61.92,5.94,3.75,8.23,6.48.69.83,1.23,1.78,1.84,2.68-.15.15-.29.3-.44.46h0Z"/>
  <path class="cls-1" d="M221.03,461.9c6.32-.83,13.59,3.87,15.42,9.5.93,2.85.46,5.66-.7,8.36-2.28,5.31-6.05,9.41-10.58,12.86-5.74,4.37-12.36,6.92-19.16,9.02-13.5,4.18-27.34,5.6-41.4,4.73-10.62-.66-20.83-2.98-30.04-8.64-1.66-1.02-3.32-2.07-4.81-3.3-5.26-4.37-8.15-9.84-7.28-16.87.62-5.01,2.52-9.48,5.99-13.2,1.43-1.54,3.14-2.71,5.37-2.68.51,0,1.02.25,2.24.58-1.2.54-1.79.74-2.31,1.05-.88.53-1.9.97-2.53,1.73-4.45,5.29-6.44,11.27-4.61,18.15,1.03,3.86,3.77,6.5,6.88,8.74,5.94,4.27,12.63,6.83,19.76,8.3,9.52,1.95,19.16,1.94,28.76,1.23,10.77-.79,21.25-3.25,31.23-7.48,6.2-2.63,11.77-6.18,15.72-11.82.91-1.3,1.75-2.71,2.36-4.17,1.23-2.93,1.02-5.77-.81-8.48-1.58-2.34-3.68-4.06-6.03-5.53-1.14-.71-2.31-1.38-3.47-2.06v-.02Z"/>
  <path class="cls-1" d="M226.47,234.06c-.84.51-1.7,1.01-2.53,1.54-.66.42-1.23.42-1.7-.26.1,0,.21,0,.3-.03.06-.02.1-.1.14-.16-.12.09-.25.18-.37.26-.78.65-1.68,1.2-2.32,1.97-1.6,1.89-2.21,4.14-.97,6.36,1.04,1.86,2.3,3.74,3.9,5.11,4.48,3.82,9.99,5.4,15.67,6.44,6.28,1.15,12.28,0,18.14-2.22,2.72-1.03,5.06-2.64,6.93-4.9,2.49-3.01,2.79-6.04.88-9.52-.64-1.17-1.34-2.3-2.18-3.75,8.61,4.43,8.94,12.68,3.84,17.83-1.19,1.2-2.6,2.29-4.1,3.07-13.22,6.9-26.22,5.93-38.89-1.47-3.31-1.93-5.9-4.66-7.39-8.33-1.82-4.49-1.02-8.3,2.64-11.41,2.52-2.14,5.49-3.25,8.78-3.4,1.69-.08,2.38,1.17,1.58,2.71-.15.3-.47.51-.65.8-1.71,2.76-1.57,4.98.52,7.53,2.48,3.02,5.65,5,9.42,5.93,3.71.92,7.47.98,11.2.07,3.26-.79,5.8-2.62,7.62-5.55.25,2.22.1,2.67-1.06,4.18-1.94,2.51-4.66,3.78-7.65,4.16-6.84.86-13.25-.27-18.62-4.99-1.1-.97-2.11-2.11-2.92-3.34-1.46-2.19-2.16-4.54-.72-7.09.27-.47.3-1.08.44-1.62l.68-.71c.28-.14.55-.27.83-.41-.25.16-.5.32-.75.49-.23.23-.47.46-.7.69v.02Z"/>
  <path class="cls-1" d="M204.46,458.41c5,1.03,7.19,4.42,6.04,8.62-.76,2.78-2.58,4.8-4.8,6.52-3.4,2.65-7.23,4.46-11.39,5.42-10.61,2.44-21.32,4.27-32.26,4.06-5.08-.1-10.02-1.14-14.53-3.59-1.59-.86-3.17-1.92-4.42-3.21-2.9-3-4.16-6.58-2.68-10.7,1.55-4.3,4.24-7.83,7.75-10.71.65-.53,1.51-.81,2.75-.82-.38.73-.7,1.5-1.14,2.2-1.58,2.52-3.4,4.9-4.74,7.53-2.32,4.55-1.23,8.1,3.1,10.88,4.08,2.62,8.73,3.3,13.44,3.56,6.22.35,12.33-.71,18.44-1.63,4.4-.66,8.79-1.52,13.12-2.54,3.7-.88,7.1-2.49,10.06-4.99,2.51-2.12,3.2-4.6,2.11-7.66-.29-.82-.48-1.68-.84-2.94h-.01Z"/>
  <path class="cls-1" d="M153.49,342.87c.46-2.77,1.2-3.57,2.79-3.08,1.37.42,2.88,1.1,3.79,2.14,2.31,2.65,4.32,5.56,6.11,7.92-.04-4.24-3.37-12.03-6.85-15.38-4.55-4.38-10.43-5.34-16.75-6.24,3.17-1.01,7.06-.76,10.79.44,6.57,2.11,11.14,6.35,13.13,12.95,1.61,5.33,2.71,10.82,3.96,15.93,1.05-7.24,3.16-14.58,6.56-21.52.65-1.33,1.36-2.65,2.2-3.88.5-.73,1.22-1.37,1.97-1.84.33-.21.98.1,1.48.17-.07.4,0,.98-.23,1.19-2.26,1.99-3.1,4.77-4.12,7.41-2.57,6.62-4.09,13.5-5.03,20.55-.83,6.22-.49,12.3.89,18.37.32,1.41.87,2.77,1.01,4.24-4.33-5.31-5.1-11.82-6.19-19.01-.39,4.69-.55,8.67-1.09,12.59-.55,4.04-1.47,8.03-2.29,12.34-1.36-.78-1-1.78-1.01-2.56-.07-7.33.04-14.67-.18-21.99-.17-5.76-1.33-11.36-4.21-16.46-.73-1.29-1.57-2.54-2.52-3.67-.99-1.18-2.19-2.16-4.24-.61h.03Z"/>
  <path class="cls-1" d="M94.23,301.67c-4.6,3.49-8.81,7-13.34,10.03-5.07,3.4-10.55,5.73-16.93,5.86-7.73.16-16.33-4.91-19.14-13.96-.98-3.15-1.48-6.45-2.14-9.7-1.4-6.92-4.77-12.57-10.66-16.58-1.61-1.1-3.32-1.98-5.37-2.04-3.87-.11-6.12,1.69-6.89,5.6-.06.3-.21.58-.39,1.04-1.52-1.51-1-3.04-.4-4.45,1.4-3.28,5.6-5.53,9.08-4.64,2.18.56,4.4,1.38,6.28,2.59,6.68,4.28,10.68,10.51,12.52,18.18.51,2.11.94,4.24,1.53,6.33.82,2.89,2.07,5.56,4.24,7.74,4.35,4.36,9.49,5.67,15.42,4.21,3.61-.89,6.82-2.6,9.93-4.57,3.58-2.27,7.21-4.42,11.38-5.48,1.55-.4,3.04-.56,4.87-.16h.01Z"/>
  <path class="cls-1" d="M190.38,377.88c3.34-.94,6.39-.37,9.26.7,6.82,2.53,8.66,9.37,3.92,14.88-1.68,1.96-3.84,3.62-6.05,4.99-6.11,3.8-12.96,5.66-19.98,6.85-6.21,1.06-12.49,1.47-18.79.77-6.14-.69-11.92-2.34-16.61-6.58-3.46-3.12-5.39-6.94-5.37-11.78.02-5.72,5.41-11.38,9.8-12.98.32-.12.7-.27.99-.19.39.11.9.37,1.04.69.12.29-.06.92-.32,1.13-.71.57-1.57.94-2.3,1.48-8.5,6.22-7.09,15.53.88,20.59,3.97,2.52,8.45,3.65,13,3.94,11.71.74,23.05-1.07,33.63-6.35,2.22-1.11,4.36-2.6,6.12-4.33,3.81-3.74,3.32-7.82-1.16-10.48-1.46-.86-3.1-1.42-4.67-2.07-1.12-.46-2.27-.85-3.4-1.27h.01Z"/>
  <path class="cls-1" d="M181.26,525.38c1.96-.34,3.92-.74,5.89-.99,9.4-1.23,18.8-2.45,28-4.85,10.81-2.82,20.28-8.29,29.12-14.94,4.94-3.72,6.71-9.95,4.61-15.63-.15-.42-.29-.84-.61-1.75.91.34,1.67.38,1.92.76.62.94,1.25,1.98,1.45,3.06,1.03,5.62.74,11.08-3.6,15.37-2.92,2.89-6.04,5.62-9.37,8.02-7,5.06-14.54,9.14-23.1,10.92-2.68.55-5.43.99-8.15,1.03-8.02.11-16.04.01-24.05-.04-.7,0-1.41-.23-2.11-.36v-.59h0Z"/>
  <path class="cls-1" d="M181.36,371.15c-2.25-2.25-1.95-4.56-1.55-6.57,2.56-12.99,8.97-23.64,19.76-31.48,2.74-1.99,5.81-3.09,9.32-2.92,4.52.21,8.3,2.86,9.93,7.19,1.49,3.96.4,8.81-2.69,11.7-2.51,2.35-5.53,3.65-8.95,3.93-3.47.29-6.16-1.09-8.6-4.4,1.06.17,1.55.2,2,.34,4.8,1.52,11.17-1.23,13.35-5.77,1.74-3.61-.93-8.24-5.02-8.72-2.77-.32-5.19.66-7.47,2.07-3.75,2.32-6.85,5.37-9.55,8.82-4.71,6.02-8.33,12.59-9.81,20.18-.32,1.66-.44,3.36-.73,5.62h.01Z"/>
  <path class="cls-1" d="M324.82,264.39c-3.22-1.65-5.15-1.23-6.99,1.23-2.11,2.83-3.03,6.11-3.34,9.59-.43,4.9-.64,9.83-1.33,14.69-1.65,11.8-8.62,19.12-19.84,22.53-8.82,2.69-17.24,1.33-25.09-3.22-4.27-2.48-8.25-2.05-12.35.05-3.02,1.55-5.39,3.85-7.44,6.51-1,1.31-1.98,2.63-3.16,3.79,2.13-5,4.93-9.46,9.84-12.22,4.39-2.48,9.01-2.8,13.47-.57,2.62,1.31,5.23,2.23,8.09,2.56,6.21.72,12.33.58,18.29-1.62,8.89-3.3,13.91-9.73,15.33-18.99.62-4.07.94-8.18,1.43-12.26.49-4.01,1.38-7.94,4.02-11.12,1.12-1.35,2.69-2.47,4.27-3.28,1.95-1,2.84-.48,4.79,2.32h.01Z"/>
  <path class="cls-1" d="M47.24,228.37c4.15-.18,7.52,1.4,9.89,4.67,1.41,1.95,1.04,4.35-.8,6.31-1.08,1.14-2.44,2.09-3.82,2.85-3.74,2.06-7.86,3.1-12.02,3.93-6.71,1.33-13.4,1.5-20.05-.39-4.36-1.24-8.34-3.2-11.67-6.3-2.4-2.24-4.26-4.82-3.97-8.37.06-.68.13-1.39.38-2.01,1.74-4.28,8.96-7.68,13.57-6.42.15.04.22.35.38.61-.28.14-.56.41-.83.4-3.91-.22-6.31,2.25-8.72,4.76-1.38,1.44-1.63,3.06-.61,4.7.84,1.33,1.81,2.67,3,3.68,3.78,3.19,8.3,4.79,13.13,5.46,7.64,1.06,15.06-.05,22.23-2.76,1.79-.68,3.52-1.67,5.1-2.77,1.61-1.12,1.77-2.51.78-4.2-.95-1.61-2.11-2.98-4.08-3.42-.65-.14-1.25-.47-1.88-.72h0Z"/>
  <path class="cls-1" d="M102.43,229.02c6.53-.42,10.95,2.45,13.02,8.31.81,2.3.33,4.5-1.08,6.51-3.27,4.66-7.56,7.99-13.07,9.45-7.19,1.91-14.44,2.09-21.69.11-3.85-1.05-7.14-3.04-10.06-5.68-3.1-2.79-4.5-6.36-4.08-10.47.63-6.15,3.91-8.89,9.52-10.06.58-.12,1.24.2,2.58.46-1.13.76-1.66,1.25-2.3,1.53-7.35,3.25-8.39,11.46-2.13,16.48,5.41,4.34,11.74,5.44,18.38,5.27,2.72-.07,5.46-.57,8.13-1.13,4.31-.91,7.73-3.39,10.5-6.72,2.63-3.17,2.55-4.82.16-8.29-1.95-2.84-4.49-4.8-7.89-5.78h.01Z"/>
  <path class="cls-1" d="M188.36,207.89c4.4,2.77,5.02,8.98,1.71,12.48-1.95,2.05-4.11,4.1-6.56,5.44-11.44,6.27-23.41,7.39-35.68,2.66-2.31-.89-4.56-2.22-6.46-3.8-4.37-3.65-5.6-9.16-1.95-14.4,1.92-2.75,4.35-5.01,7.68-6.05.65-.2,1.33-.48,1.98-.45.72.03,1.98.25,2.05.59.28,1.32-.94,1.24-1.8,1.4-3.7.67-6.02,3.14-7.79,6.17-2.09,3.59-1.32,7.57,2.01,10.09,1.62,1.23,3.47,2.29,5.38,2.96,11.05,3.9,21.79,2.93,32.16-2.44,1.01-.52,1.91-1.26,2.85-1.9,3.64-2.5,5.25-5.92,4.67-10.33-.09-.66-.14-1.33-.24-2.41h-.01Z"/>
  <path class="cls-1" d="M32.49,269.93c.94-1.76,2.29-1.52,3.47-1.29,7.96,1.55,14.11,5.64,18.09,12.85,2.39,4.34,3.9,9,5.25,13.73.63,2.2,1.32,4.37,2.08,6.53.34.96.8,1.91,1.36,2.75,1.12,1.68,1.84,1.97,3.76,1.23,1.8-.69,3.56-1.56,5.24-2.52,3.57-2.05,7.01-4.34,10.63-6.29,2.39-1.29,4.86-2.62,7.76-2.36.4.04.79.15,1.77.35-6.62,4.56-12.75,8.88-19,13.02-2.28,1.51-4.8,2.59-7.68,2.66-2.56.07-4.57-.86-5.74-3.02-1.19-2.19-2.17-4.54-2.91-6.91-.88-2.83-1.27-5.81-2.14-8.64-.97-3.16-2.02-6.32-3.43-9.3-3.45-7.29-9.35-11.31-17.33-12.36-.32-.04-.62-.22-1.17-.43h-.01Z"/>
  <path class="cls-1" d="M250.08,298.45c6.3-2.42,12.77-3.94,19.6-2.88,4.74.74,9.44,1.7,14.14,2.66,2.53.52,4.98.33,7.47-.2,4.04-.85,6.97-3.1,8.1-7.04,1.16-4.04,1.94-8.2,2.67-12.35.98-5.61,2.76-10.83,6.47-15.25,1.15-1.37,2.32-2.75,4.69-3.25-.26.97-.29,1.98-.59,2.07-2.34.71-3.3,2.71-4.2,4.57-1.18,2.44-2.23,5.03-2.78,7.67-.75,3.56-.85,7.26-1.47,10.85-.5,2.91-1.03,5.87-2.08,8.61-2.2,5.72-6.85,8.36-12.73,8.97-4.01.42-8,.02-11.91-.99-1.77-.46-3.54-.92-5.3-1.41-6.81-1.91-13.69-2.53-20.69-1.26-.42.08-.87-.06-1.31-.1-.03-.23-.06-.45-.08-.68h0Z"/>
  <path class="cls-1" d="M189.7,408.93c.86,0,1.36-.15,1.69.02,3.21,1.6,6.13,3.61,8.25,6.56,1.7,2.36,2.71,4.97,2.89,7.94.38,6.29-1.13,11.96-4.83,17.12-2.13,2.97-4.08,6.08-5.85,9.27-1.67,3.02-2.65,6.33-2.54,9.85.1,3.05,1.6,3.96,4.47,2.72.98-.43,1.88-.74,2.93-.16,1.51.85,2.04,2.4.94,3.72-.69.82-1.74,1.57-2.76,1.84-5.61,1.53-10.97-3.19-10.33-8.98.65-5.92,2.72-11.3,6.22-16.12,1.41-1.95,2.84-3.88,4.31-5.78,2.92-3.77,4.14-8.18,4.29-12.8s-2.05-8.36-5.58-11.29c-.97-.8-2.01-1.51-2.97-2.33-.38-.32-.6-.83-1.14-1.6v.02Z"/>
  <path class="cls-1" d="M152.73,250.7c-2.8-1.82-2.97-2.68-1.4-4.2,2.18-2.12,7.12-2.38,9.89-.16,1.74,1.4,3.32,3.2,4.45,5.12,2.47,4.21,3.14,8.99,3.78,13.78.98,7.32.4,14.63-.09,21.92-.57,8.42-1.97,16.72-4.33,24.83-.24.81-.7,1.55-1.33,2.91-.73-2.38-.48-4.15-.36-5.91.11-1.71.26-3.42.4-5.12.63-7.39,1.41-14.77,1.84-22.18.47-8.1.91-16.24-1.1-24.24-.79-3.14-1.89-6.16-4.43-8.35-1.8-1.55-3.79-2.47-6.3-1.54-1.35.5-1.69,1.29-1.02,3.15h0Z"/>
  <path class="cls-1" d="M155.61,378.54c0-2.34.05-4.14,0-5.92-.27-8.55-2.91-16.4-7.54-23.51-2.89-4.44-7.04-7.11-12.59-7.1-1.94,0-3.55.72-4.96,2-3.05,2.79-4.32,6.94-3.14,10.18.65,1.8,1.82,3.14,3.4,4.18,1.39.91,2.74,1.87,4.58,3.13-6.49-.62-11.07-3.99-12.19-8.5-1.93-7.7,5.37-16.75,14.67-14.92,5.15,1.02,9.45,3.68,12.28,8.11,5.5,8.6,8.29,18,7.52,28.31-.1,1.4-.5,2.62-2.02,4.04h0Z"/>
  <path class="cls-1" d="M152.47,463.51c1.37-.16,2.24-.27,3.1-.35,2.5-.25,3.42-1.33,3.13-3.83-.5-4.3-2.06-8.19-4.59-11.69-1.2-1.67-2.45-3.31-3.64-5-4.01-5.7-4.95-11.95-3.17-18.62,1.13-4.24,2.95-8.19,5.85-11.53,1.52-1.76,3.27-3.25,5.83-3.15,1.24.05,1.41.19,2.48,2.04-3.02-1-4.87.57-6.37,2.67-3.78,5.31-5.67,11.19-5.01,17.75.32,3.17,1.79,5.89,3.62,8.41,1.48,2.04,3.1,3.97,4.61,5.99,2.37,3.17,3.86,6.76,4.6,10.62.3,1.55.38,3.21.2,4.78-.41,3.49-2.85,5.09-6.33,4.42-1.49-.28-2.86-.74-4.3-2.51h-.01Z"/>
  <path class="cls-1" d="M175.99,311.22c-2.3-3.82-3.4-7.55-3.81-11.36-.54-5.11-.95-10.28-.73-15.4.44-10.16,1.88-20.23,4.83-29.99.68-2.25,1.84-4.46,3.24-6.35,1.5-2.01,3.9-1.79,5.19.16.31.46.19,1.21.27,1.92-3.05-.7-3.57-.61-4.32,2.14-1.17,4.28-2.31,8.62-2.87,13.01-1.56,12.37-2.58,24.79-2.24,37.28.06,2.27.41,4.54.59,6.81.03.41-.08.83-.18,1.78h.03Z"/>
  <path class="cls-1" d="M291.24,220.92c-1.38.88-2.46,1.49-3.46,2.22-3.09,2.25-4.91,5.74-1.86,10.12,3.31,4.76,7.94,7.66,13.69,8.2,5.23.5,10.52.53,15.73-.61,2.59-.57,5.04-1.51,7.16-3.13,4.49-3.42,4.86-7.88,1.1-12.11-1.28-1.43-2.43-2.98-3.6-4.42,3.36,1.35,6.87,2.91,8.74,6.54,1.84,3.57.82,6.94-1.66,9.85-2.27,2.66-5.17,4.44-8.54,5.48-5.92,1.82-11.97,1.6-18.04,1.36-3.27-.13-6.29-1.07-9.13-2.65-3.26-1.82-5.97-4.26-7.89-7.47-3.56-5.92-.12-12.99,6.74-13.93.18-.02.38.2,1.02.56h0Z"/>
  <path class="cls-1" d="M176.13,44.73c2.61-7.25-1.46-13.16-3.47-19.67-2.04,2.94-4.03,5.64-5.84,8.46-2.34,3.65-2.1,5.91.74,9.23-.39,1.26-1.2,1.59-2.37,1.03-1.89-.91-3.04-2.5-3.41-4.48-.49-2.63-.4-5.27,1.1-7.65.85-1.36,1.7-2.72,2.68-3.99,2.18-2.85,3.9-5.96,4.91-9.38.6-2.05.79-4.24,1.02-6.39.24-2.21.99-3.5,2.17-3.34,1.07.14,1.87,1.42,1.93,3.27.03,1.03.12,2.12-.17,3.08-1.58,5.41-.17,10.43,1.94,15.32,1.2,2.79,1.98,5.6,1.66,8.65-.23,2.27-1.03,4.27-2.89,5.87h0Z"/>
  <path class="cls-1" d="M124.97,463.14c-2.71,1.11-5.4,2.27-8.12,3.33-9.41,3.66-17.01,9.75-23.47,17.36-3.82,4.5-5.91,9.79-6.39,15.61-.18,2.2.3,4.57.97,6.71,1.08,3.44,2.56,6.76,3.89,10.19-1.55-.9-2.39-2.42-2.99-4.06-1.33-3.65-2.79-7.26-3.82-11-.93-3.37-.25-6.78.72-10.12,1.86-6.39,5.84-11.34,10.62-15.71,7.17-6.57,15.75-10.44,25.1-12.77.55-.14,1.13-.19,1.69-.21.56-.02,1.12.05,1.68.08.04.2.08.4.12.6h0Z"/>
  <path class="cls-1" d="M305.31,40.88c-1.24,2.09-2.5,4.09-3.63,6.15-2.29,4.18-2.91,8.35.46,12.4-1.41,1.06-2.3.27-3.02-.61-1.84-2.22-2.69-4.87-2.16-7.65.44-2.31,1.38-4.56,2.32-6.74,1.08-2.51,2.47-4.89,3.61-7.38,1.25-2.72,2-5.56,2.01-8.6,0-2.43.71-3.49,1.92-3.5,1.46-.02,2.41,1.72,2.11,4.04-.16,1.24-.36,2.5-.74,3.69-1.25,3.81-.19,7.22,1.77,10.44.83,1.36,1.95,2.53,2.88,3.84,2.11,2.95,3.02,6.13,1.63,9.67-.73,1.87-1.96,3.29-4.47,4.32.47-1,.68-1.51.94-2,2.06-3.93,1.79-7.63-.92-11.2-1.63-2.15-3.06-4.46-4.69-6.87h-.02Z"/>
  <path class="cls-1" d="M57.52,241.29c.78,2.05.04,3.8-1.02,5.37-2.62,3.91-5.41,7.69-9.69,9.99-1.07.58-1.73,1.31-2.09,2.53-.76,2.57-2.76,3.88-5.26,4.37-3.7.72-7.41,1.35-11.14,1.92-3.25.49-6.6-1.62-7.45-4.75-.38-1.4-.38-2.89-.61-4.8-5.02-2.26-9.66-5.7-12.53-11.05-.61-1.13-1.66-2.21-1.08-4.27.85,1.09,1.54,1.78,2,2.61,2.01,3.59,4.95,6.25,8.3,8.52,1.14.77,2.39,1.42,3.35,2.37.81.79,2.91,1.3,1.3,3.17.48,2.78,3.58,5.38,6.4,4.98,3.72-.53,7.4-1.39,11.08-2.15,1.19-.25,2.01-.93,2.36-2.2.63-2.28,2.42-3.36,4.41-4.46,4.87-2.7,9.02-6.2,10.99-11.7.06-.17.35-.25.66-.46h.02Z"/>
  <path class="cls-1" d="M248.35,86.65c.3-1,.39-1.53.61-2.01,1.47-3.14,1.14-6.19-.25-9.27-1.69-3.73-3.28-7.5-4.84-11.09-1.8,3.23-3.76,6.86-5.84,10.43-1.86,3.19-.95,6.2.51,9.12.34.68,1.34,1.03,2.04,1.53-1.23,1.59-1.71,1.81-2.74.79-2.67-2.63-4.03-5.9-3.38-9.61.35-1.97,1.32-3.9,2.34-5.66,2.25-3.87,4.46-7.75,5.63-12.1.55-2.07.73-4.24,1.04-6.37.1-.67-.02-1.39.15-2.04.1-.37.58-.91.87-.9.48.02,1.09.31,1.39.69.33.41.48,1.04.51,1.59.07,1.14.12,2.3-.03,3.43-.8,6.24.5,11.99,3.85,17.31,1.42,2.24,2.57,4.53,2.54,7.34-.04,3.05-1.44,5.05-4.4,6.82h0Z"/>
  <path class="cls-1" d="M68.31,248.44c.86.85,1.84,1.61,2.57,2.56,2.41,3.19,5.54,5.42,9.1,7.13,1.13.55,2.25,1.13,3.36,1.72,1.89,1,3.32,2.18,3.51,4.64.16,2.02,1.29,2.54,3.43,2.23,2.37-.35,4.75-.67,7.11-1.12,2.87-.55,5.42-1.72,7.36-4.4-.65-.23-1.13-.4-1.64-.58.05-.18.03-.44.15-.54,1.7-1.34,3.49-2.58,5.13-3.99,2.99-2.56,5.39-5.59,6.89-9.28.16-.39.55-.68,1.08-1.3,1.33,2.51,0,4.42-.91,6.16-1.04,2.01-2.33,3.98-3.91,5.57-1.48,1.49-3.5,2.44-5.44,3.74-.26,4.44-1.93,6.52-6.62,7.34-3.03.53-6.13.8-9.2.92-3.75.15-4.67-.76-5.05-4.44-.05-.45,0-.9,0-1.43-8.14-2.03-14.01-6.74-17.56-14.23.21-.24.42-.47.64-.71h0Z"/>
  <path class="cls-1" d="M178.42,379.08c2.84.05,5.22,1.07,7.19,2.82,3.67,3.27,3.24,8.03-.93,10.69-3.27,2.08-6.97,2.91-10.76,3.02-6.27.18-12.28-1.18-17.77-4.27-1.64-.92-3.05-2.36-4.35-3.77-1.45-1.57-1.34-3.62-.88-5.54.2-.81.94-1.53,1.55-2.17.2-.21.81-.11,1.19,0,.13.04.2.6.12.87-1.2,4.06-.78,5.54,2.85,7.46,6.78,3.6,13.99,4.93,21.53,2.99,1.81-.47,3.58-1.51,5.09-2.65,1.54-1.16,1.59-2.59.49-4.25-.62-.94-1.45-1.75-2.27-2.53-.97-.94-2.03-1.8-3.05-2.69v.02Z"/>
  <path class="cls-1" d="M282.65,237.78c2.66,4.38,6.12,7.4,11.28,8.13.78.11,1.55.35,2.32.57,3.29.94,6.21,2.43,7.71,5.73.62,1.36,1.53,1.87,2.97,1.72,2.5-.26,5.02-.34,7.5-.74.92-.15,1.81-.86,2.59-1.49,1.24-1,2.27-2.28,3.56-3.2,5.5-3.92,5.53-3.89,7.58-9.47,1.54,2.98,1.17,6.01-1.17,8.19-1.08,1.01-2.39,1.76-3.54,2.7-1.33,1.08-2.79,2.07-3.84,3.38-1.71,2.15-3.93,3.06-6.51,3.33-2.27.24-4.55.43-6.84.5-1.95.06-3.7-.59-4.43-2.56-1.39-3.74-4.25-5.42-7.93-6.28-3.74-.87-7.16-2.44-9.5-5.68-1.04-1.43-2.28-2.84-1.75-4.86v.03Z"/>
  <path class="cls-1" d="M217.5,254.38c.87,1.32,1.65,2.7,2.62,3.95,2.92,3.76,7.02,5.31,11.57,5.95,3.3.46,6.46,1.27,9.38,3,1.54.91,2.11,1.91,1.15,3.54,2.07.81,3.83.13,5.52-.45,2.42-.84,4.79-1.64,6.55-3.9,1.2-1.55,3.29-2.41,5-3.55,1.23-.82,2.54-1.55,3.75-2.4,3.26-2.3,5.88-5.08,6.5-9.26.06-.37.4-.7.82-1.39.48,4.05-.59,7.16-3.04,9.83-2.1,2.29-4.39,4.29-7.19,5.74-2.31,1.2-4.7,2.42-6.12,4.82-.22.36-.62.77-1,.85-3.74.85-7.27,2.93-11.61,2.01-.43-4.09-3.76-5.08-7.1-6.01-2.74-.76-5.59-1.21-8.26-2.17-4.17-1.5-7.15-4.41-8.76-8.6-.23-.59-.22-1.27-.32-1.91.19-.02.38-.03.57-.05h-.03Z"/>
  <path class="cls-1" d="M154.78,204.94c-.48,1.95-1,3.9-1.44,5.86-.69,3.1.18,4.75,3.11,5.83,2.63.97,5.38,1.09,8.11.66,6.05-.94,11.21-3.73,15.75-7.77,1.43-1.27,2.43-2.69,2.14-4.77,1.65.21,2.07,1.15,2.14,2.39.11,1.95-.72,3.54-1.91,4.99-2.16,2.63-5.02,4.29-8.02,5.73-4.99,2.39-10.26,3.06-15.7,2.44-1.23-.14-2.47-.5-3.61-.99-4.19-1.79-5.47-4.76-4.06-9.15.66-2.03,1.38-4.02,2.82-5.6.22.13.45.26.67.39h0Z"/>
  <path class="cls-1" d="M178.22,468.71c-1.74-2.47-2.28-5.26-2.64-8.06-.83-6.48-.88-12.95-.21-19.5.76-7.42,2.2-14.65,4.37-21.75.66-2.17,1.67-4.24,2.66-6.29.44-.92,1.18-1.79,2.45-.67-2.57,4.18-3.4,8.89-4.43,13.51-2.75,12.35-3.15,24.91-2.79,37.5.05,1.76.4,3.51.61,5.26h-.02Z"/>
  <path class="cls-1" d="M39.19,63.58c.28-.78.43-1.33.66-1.84,1.02-2.2,1.07-4.43.19-6.67-1.2-3.06-2.45-6.1-3.78-9.42-1.39,2.85-2.64,5.41-3.9,7.97-1.75,3.55-2.35,7.12-.31,11.06-.59-.34-1.36-.54-1.73-1.03-1.98-2.62-1.72-5.6-.98-8.54.36-1.42,1.1-2.75,1.7-4.11.92-2.09,1.85-4.18,2.8-6.26,1.02-2.22,1.49-4.53,1.43-6.99-.02-1,.24-2.04.57-2.99.15-.43.89-1.02,1.18-.94.56.16,1.3.7,1.41,1.19.2.98.24,2.1-.05,3.04-1.01,3.2-.27,6.08,1.2,8.92,1.15,2.23,2.39,4.44,3.29,6.78,1.58,4.06.67,7.04-2.71,9.71-.17.13-.49.06-.96.1v.02Z"/>
  <path class="cls-1" d="M100.35,76.61c.26-8.62-.56-10.15-4.2-15.18-.89,1.81-1.74,3.48-2.54,5.17-1.29,2.71-1.93,5.39.93,7.8-1.66,1.2-2.77.61-3.65-.58-1.29-1.74-1.77-3.75-1.19-5.85.45-1.64,1.09-3.25,1.79-4.81,1.66-3.65,3.32-7.29,3.52-11.39.05-1.15.57-2.09,1.85-2.01,1.29.07,1.62,1.08,1.61,2.22,0,.46.05.95-.1,1.36-1.3,3.54.19,6.5,1.95,9.37,1.6,2.6,2.58,5.34,2.29,8.45-.18,1.96-.83,3.68-2.26,5.45Z"/>
  <path class="cls-1" d="M163.47,243.19c1.09-.04,2.18-.04,3.26-.14,2.38-.21,4.78-.37,7.14-.75,2.56-.4,2.95-.76,3-3.28.06-3.04,1.59-4.89,4.16-6.13,2.88-1.39,5.77-2.77,8.65-4.16,2.61-1.26,4.59-2.99,4.72-6.17,0-.15.31-.28.48-.42,1.58,3.76,1.03,6.23-2.31,8.31-2.61,1.62-5.41,2.98-8.23,4.21-2.69,1.17-4.76,2.52-4.82,5.88-.03,1.67-1.15,3.03-2.94,3.39-4.36.87-8.73,1.79-13.08.05,0-.26-.02-.53-.04-.79h.01Z"/>
  <path class="cls-1" d="M293.09,221.26c1.79,7.32,5.54,11.08,12.28,12.05,6.71.96,10.73-1.12,13.89-7.17,1.53,3.58.75,6.45-2.46,8.38-3.13,1.88-6.59,2.63-10.22,2.24-4.08-.44-7.77-2.01-10.81-4.78-2.71-2.46-3.9-5.6-3.31-9.29.08-.5.41-.95.62-1.43h0Z"/>
  <path class="cls-1" d="M44.01,229.29c.52,3.69-.65,6.23-3.27,8.12-4.29,3.09-13.03,3.33-17.5-.3-2.67-2.16-4.08-4.85-3.89-8.33.08-1.43.58-2.6,2.25-3.73-.11,1.02-.17,1.6-.24,2.17-.51,4.2,1.84,7.73,5.95,8.76,5.76,1.45,10.55-.46,14.66-4.47.62-.61,1.18-1.28,2.04-2.22h0Z"/>
  <path class="cls-1" d="M102.01,233.33c.75,2.44.05,5.08-2.31,6.59-1.59,1.02-3.48,1.77-5.33,2.13-6.31,1.21-12.74-2.64-14.68-8.57-.62-1.89-.62-1.91.39-4.39,1.17,2.09,2.04,4.15,3.36,5.88,1.49,1.96,3.68,3.02,6.21,3.22,2.31.18,4.66.23,6.71-.9,1.95-1.08,3.68-2.56,5.65-3.96h0Z"/>
  <path class="cls-1" d="M252.53,234.57c1.83,2.83,1.54,4.97-1.06,6.49-1.85,1.08-3.9,2.01-5.98,2.44-4.34.89-8.65.41-12.79-1.25-1.44-.58-2.4-2.72-1.99-4.23.37-1.35,1.34-1.79,3.74-1.54-.39.83-.74,1.58-1.21,2.59.87.33,1.65.79,2.47.9,6.32.83,12.4.77,16.81-5.39h0Z"/>
  <path class="cls-1" d="M169.65,416.44c.33.92.83,1.82.96,2.77.57,4.07,1.38,8.14,1.45,12.23.11,6.86-.31,13.74-.46,20.6-.03,1.48.15,2.97.19,4.45.03,1.35,0,2.7,0,4.79-1.24-2.72-1.56-4.95-1.67-7.14-.24-4.68-.32-9.37-.27-14.06.08-6.88,0-13.73-1.07-20.55-.15-.97-.02-1.99-.02-2.99.29-.04.59-.07.88-.11h.01Z"/>
  <path class="cls-1" d="M162.09,242.8c-1.85-4.03-5.35-5.4-9.28-6.2-2.56-.52-5.1-1.21-7.62-1.92-2.6-.74-4.81-2.02-6.13-4.56-.52-1-1.38-1.81-1.98-2.78-.35-.56-.66-1.26-.67-1.89,0-.45.46-1.02.88-1.3.27-.18,1.01-.1,1.22.14.74.84,1.68,1.72,1.94,2.73,1.3,5.16,5.3,6.33,9.76,6.95,1.58.22,3.22.29,4.71.81,2.24.78,4.49,1.67,6.49,2.91,1.93,1.2,1.98,2.71.68,5.11h0Z"/>
  <path class="cls-1" d="M158.61,207.09c-.98,2.07-.98,2.65.58,2.95,2.19.42,4.59.76,6.7.27,2.6-.61,5.13-1.89,7.44-3.29,1.35-.82,2.21-2.43,3.39-3.8,1.36,1.03,1.15,2.53.56,3.85-.5,1.11-1.28,2.25-2.25,2.95-4.71,3.41-9.95,4.35-15.56,2.75-.94-.27-2.02-.8-2.57-1.54-.53-.72-.65-1.89-.59-2.84.06-1.02.88-1.5,2.29-1.29h.01Z"/>
  <path class="cls-1" d="M76.55,237.01c.55.27.89.34,1.09.54,4.22,4.36,9.65,6.01,15.43,6.7,3.79.45,7.33-.14,9.55-4.17.95,1.61.29,2.71-.42,3.66-1.22,1.63-2.92,2.57-4.98,2.68-6.77.37-12.93-1.3-18.25-5.61-1.13-.91-2.15-1.96-2.41-3.8h0Z"/>
  <path class="cls-1" d="M97.48,270.52c.47-.29.97-.71,1.55-.93,2.3-.89,4.5,0,6.68.57.8.21,1.32,1.07.8,1.91-.2.32-1.01.51-1.46.4-2.49-.58-4.95-1.26-7.56-1.95h-.01Z"/>
</svg>