<?xml version="1.0" encoding="UTF-8"?>
<svg id="Layer_1" data-name="Layer 1" xmlns="http://www.w3.org/2000/svg" version="1.1" viewBox="0 0 291.87 557.64">
  <defs>
    <style>
      .cls-1 {
        fill: #000;
        stroke-width: 0px;
      }
    </style>
  </defs>
  <path class="cls-1" d="M33.36,332.83c1.55.93,1.37,2.49,1.51,3.98.27,2.84.36,5.75,1.05,8.5,2.7,10.74,9.93,14.91,20.99,13.37,5.99-.84,11.78-2.53,17.19-5.23,6.84-3.43,13.55-7.13,20.32-10.69,2.54-1.34,5.04-2.77,7.67-3.9,5.6-2.4,10.91-2.22,15.57,2.25.28.27.68.41,1.21.73,1.35-1.27,1.1-3.02,1.31-4.53.69-4.86,1.22-9.74,1.81-14.62.14-1.19.59-2.35-.97-3.15-5.73-2.91-7.65-8.37-8.74-14.09-.68-3.59-.53-7.33-.85-11-.09-1.03-.37-2.11-.85-3.02-2.58-4.93-1.86-8.95,2.78-12.08,2.42-1.63,5.31-2.57,7.81-3.73.29-4.32.62-8.78.86-13.25.09-1.77.11-3.57-.11-5.32-1.31-10.24-.76-20.47-.15-30.71.31-5.32.6-10.64,1.05-15.95.65-7.62,1.43-15.22,2.16-22.83.09-.95.23-1.9.25-2.86.31-12.85.54-25.71.91-38.56.24-8.2.51-16.4,1.06-24.58.62-9.26,1.4-18.52,2.43-27.74.8-7.17,2.07-14.29,3.21-21.43.15-.95.69-1.84,1.18-3.08,1.85,1.77,1.17,3.49,1.06,5-.73,10.48-1.6,20.96-2.33,31.44-1.7,24.19-.49,48.41-.74,72.61-.08,8.32-.97,16.63-1.41,24.95-.49,9.28-.91,18.57-1.3,27.85-.22,5.19-.1,10.41-.53,15.58-.28,3.37-.96,6.78-2.02,9.99-1.38,4.18-1.6,8.28-.54,12.49.86,3.44,1.71,6.89,2.71,10.3.71,2.41.99,2.64,3.53,2.36,4.87-.54,9.71-1.28,14.88-1.98-.03.72.12,1.53-.14,2.18-1.5,3.82-4.36,6.25-8.19,7.48-3,.96-6.1,1.38-9.29.85-4.5-.75-6.19-2.25-7.14-6.63-.34-1.58-.56-3.19-.87-5-2.76.6-4.45,2.36-5.94,4.28-1.67,2.14-1.51,3.93.49,5.79,3.21,2.99,7.26,4.27,11.42,5.25,7.15,1.69,13.87.03,20.21-3.17,2.11-1.07,3.94-2.93,5.5-4.76,1.62-1.9,1.32-3.21-.5-5.01-1.13-1.12-2.38-2.13-4.22-3.75,4.2-.05,7.45.22,9.98,2.8.7.72,1.29,1.92,1.27,2.89-.04,1.73-.06,3.83-1,5.1-2.98,4-3.23,8.65-3.73,13.21-.65,6-2.89,11.07-7.42,15.06-1.38,1.21-1.66,2.24-1.26,4.19.61,3.04.39,6.25.41,9.39.03,4.09,2.84,7.4,6.79,7.64.62.04,1.36-.66,1.93-1.15,5.22-4.56,11.1-7.54,18.21-7.01,2.54.19,5.16.75,7.52,1.7,4.61,1.86,8.63,4.72,11.77,8.66,2.69,3.37,5.97,5.93,9.81,7.92,4.86,2.5,9.59,5.24,14.33,7.96,5.64,3.24,9.22,3.11,14.29-.99,5.6-4.53,9.19-10.46,11.16-17.32,1.54-5.36,2.75-10.81,4.18-16.52-1.3-.11-2.34-.26-3.37-.27-4.8-.08-7.95-2.5-9.74-6.84-1.48-3.6-2.13-7.36-1.87-11.23.12-1.84-.19-3.43-1.13-5.06-1.89-3.28-1.68-6.95-.83-10.39,1.07-4.34,4.56-6.23,9.08-7,.12-1.26.32-2.58.37-3.9.26-6.97.11-13.91-.46-20.88-.46-5.67.27-11.45.65-17.16.33-4.9,1.02-9.78,1.34-14.68.43-6.54.6-13.1.96-19.65.42-7.64.94-15.27,1.41-22.91.04-.68.1-1.36.12-2.05.32-15.17.59-30.35.95-45.52.23-9.57.32-19.15.96-28.69.48-7.07,1.71-14.09,2.67-21.12.65-4.73,1.35-9.45,2.17-14.15.33-1.87,1-3.68,1.63-5.48.89-2.53,2.26-4.71,4.91-5.71,1.2-.45,1.63-1.21,1.75-2.45.13-1.35.33-2.77.88-3.98.39-.85,1.33-1.84,2.18-2.01,1.28-.25,1.78.95,1.94,2.13.24,1.76.48,3.52.75,5.51.54.09,1.17.19,1.81.29,2.33.38,3.63,1.57,4.05,3.85.25,1.33.51,2.69.54,4.04.32,14.35,1.49,28.76.67,43.05-1.25,21.87-1.12,43.73-1.35,65.6-.07,6.68-.91,13.35-1.39,20.02-.6,8.31-1.26,16.62-1.78,24.93-.54,8.73-1.08,17.47-1.38,26.21-.32,9.55-.74,19.12.91,28.62.84,4.83.01,9.54-1.52,14.13-.72,2.16-2.12,3.93-4.34,4.63-4.83,1.54-9.73,2.78-14.88,1.57-3.92-.92-5.54-2.67-6.17-6.62-.22-1.4-.69-2.77-1.09-4.31-4.83,3.31-4.94,9.82-.52,12.83,3.36,2.29,7.25,3.16,11.23,3.52,4.42.41,8.78-.13,12.85-1.94,3.61-1.61,7.15-3.41,10.56-5.42,1.32-.78,2.51-2.18,3.18-3.58,1.85-3.87.91-6.41-2.75-8.48-.57-.33-1.13-.68-2.05-1.23,2.74-2.04,5.31-1.4,7.8-.54,2.76.95,4.09,3.21,4.35,5.95.37,3.95-.38,7.86-3.23,10.67-2.4,2.38-2.77,5.1-3.16,8.1-.55,4.32-.87,8.76-2.11,12.89-1.97,6.52-8.41,9.14-15.42,6.6.77-.7,1.34-1.44,2.09-1.87,2.88-1.65,4.74-4.13,5.83-7.16,1.34-3.71,2.51-7.49,3.99-11.93-5.56,2.25-10.38,4.77-15.91,4.87-5.36.1-10.67,0-16.37-2.59,1.54,4.09,3.26,7.16,6.71,8.91,2.43,1.24,4.95,2.31,7.43,3.46,1.07.49,2.13,1,3.51,1.64-2.25,2.54-5.56,1.02-7.81,3.09.06.98-.03,2.22.23,3.37,2.75,12.32-1.05,22.94-8.53,32.53-4.18,5.35-9.59,8.83-16.49,9.72,5.23.15,10.04-1.07,14.25-4.2,8.94-6.64,15.24-15.23,18.67-25.83.66-2.04.74-4.28.94-6.44.14-1.47.03-2.97.03-5.37.83,1.34,1.31,1.88,1.55,2.52,1.72,4.71,2.11,9.46,1.09,14.47-1.99,9.74-6.54,17.98-13.96,24.48-9.1,7.96-19.57,9.7-31.03,6.05-6.76-2.15-12.6-5.93-18.13-10.22-5.4-4.2-10.63-8.6-16.03-12.79-3.71-2.88-7.81-4.99-12.59-5.57-5.26-.65-10.42,2.38-12.25,7.51,2.43.32,4.83.6,7.23.95.8.12,1.62.29,2.37.59,5.19,2.03,6.02,6.9,1.79,10.59-1.11.97-2.36,1.78-3.62,2.73,2.35,1.82,2.03,4.03,1.35,6.34-2.54,8.65-5.08,17.3-7.57,25.96-3.13,10.9-5.56,21.95-7.07,33.19-.21,1.57-.03,3.2-.03,5.21-2.36-.51-3.24-2.18-3.76-3.89-.54-1.81-.96-3.76-.92-5.63.08-3.67.32-7.37.83-11.01.89-6.34,1.97-12.65,3.09-18.96,1.29-7.28,3.09-14.44,6.08-21.22,1.31-2.98,3.14-5.72,4.78-8.64-.63.17-1.46.32-2.25.6-10.83,3.84-21.98,5.52-33.46,4.72-1.2-.08-2.39-.44-3.57-.69-1.18-.26-2.35-.55-3.52-.83-.04-.11-.07-.21-.11-.32.06.08.13.15.19.23,1.68,2.8,3.35,5.61,5.03,8.41,1,1.67,1.55,3.38,1.42,5.43-.12,1.87.12,3.83.57,5.67,2.37,9.82,2.61,19.72,1.46,29.72-.5,4.34-.74,8.7-1.12,13.05-.03.39-.2.78-.46,1.7-.49-1.06-.89-1.68-1.08-2.35-1.96-7.25-3.29-14.63-4.02-22.1-.19-1.9-.31-3.82-.32-5.73-.03-7.01-.9-13.88-3.03-20.59-.62-1.95-1.25-3.93-1.56-5.94-.6-3.87-2.06-7.36-4.27-10.54-3.37-4.84-3.79-9.57.43-14.2-1.96-1.35-3.91-1.45-5.92-.77-2.96,1.01-6.05,1.79-8.83,3.18-5.49,2.75-10.81,5.86-16.2,8.81-7.8,4.26-15.57,8.56-24.28,10.77-5.08,1.29-10.15,1.9-15.39.71-5.34-1.21-9.5-4.08-12.68-8.41-4.22-5.75-6.43-12.34-7.45-19.31-.53-3.63-.63-7.34-.82-11.01-.07-1.36,0-3.05,1.77-3.19,1.86-.14,1.9,1.66,2.16,2.93.92,4.54,1.41,9.2,2.74,13.61,1.17,3.88,2.87,7.72,5.03,11.15,4.02,6.37,9.96,8.99,17.58,7.61,6.52-1.18,12.62-3.36,18.26-6.84.1-.05.21-.1.29-.16.05-.04.07-.11.1-.17-.1.14-.2.28-.3.42-3.1.4-6.22.74-9.31,1.22-4,.63-7.94.18-11.74-.91-6.19-1.77-10.27-5.94-12.64-11.9-2.04-5.11-2.17-10.39-1.59-15.72.12-1.11,1.04-2.12,1.59-3.18l-.11.07h-.03ZM195.19,352.43c.08.08.16.16.24.24-.11-.05-.22-.1-.32-.16l.09-.09h0ZM191.89,349.99c.1.06.2.12.3.19-.13-.03-.26-.06-.38-.09-.26-.28-.53-.56-.79-.84-1.3-2.04-2.39-4.27-3.96-6.08-2.22-2.56-4.61-5.05-7.28-7.12-3.21-2.49-7.13-3.83-11.16-3.05-3.43.66-6.72,2.15-10.01,3.43-.8.31-1.85,1.17-1.96,1.89-.32,2.18-1.67,1.76-3.01,1.54-2.22-.38-4.42-.82-6.76-1.26.57,3.12.62,3.14,4.42,2.02-.28,2.31-.56,4.57-.82,6.82-.21,1.78,1.14,4.1,2.82,4.86,2.32-11.58,12.65-14.49,20.22-12.47,4.31,1.15,8.13,3.12,11.79,5.55,1.93,1.28,3.87,2.53,5.8,3.79.26.28.53.56.79.84v-.02ZM197.63,354.18c-.06-.1-.1-.2-.17-.29-.04-.05-.13-.05-.2-.07.15.09.31.18.46.27l.78.86c.55.26,1.1.53,1.65.79,4.34,4.48,9.56,7.44,15.57,9.02.36.11.72.21,1.08.32-.39-.07-.78-.15-1.17-.22-3.49-2.25-6.94-4.56-10.49-6.71-1.58-.96-3.36-1.57-5.05-2.34-.56-.26-1.13-.51-1.69-.77-.26-.28-.51-.57-.77-.85h0ZM150.86,296.7c-1.15.4-2.3.77-3.43,1.22-5.41,2.13-10.98,3.41-16.81,2.89-2.96-.27-5.87-1-9.25-1.61,0,1.46-.09,2.83.02,4.18.19,2.3.39,4.62.84,6.88.22,1.11.79,2.33,1.59,3.1,2.33,2.24,5.26,3.33,8.43,3.85,1.69.28,3.37.64,5.06.96.02.26.04.52.05.77-2.48.64-4.97,1.29-7.53,1.95,1.69,1.71,2.09,3.18,1.11,5.53-1.86,4.48-3.05,9.23-4.68,14.37,4.35-.19,8.5-.36,12.34-.53-.07-5-.36-9.6-.14-14.19.16-3.38.65-6.88,4.23-8.78.44-.23.75-.78,1.04-1.24,3.79-5.95,5.98-12.49,7.04-19.43.09-.07.17-.15.26-.22-.06.1-.12.2-.18.3h.01ZM257.96,60.72c-1.88.58-2.26,2.39-2.55,3.87-.79,4.14-1.38,8.34-1.81,12.53-.5,4.89-.75,9.8-1.12,14.71-.45,6.12-.99,12.24-1.33,18.37-.19,3.41-.1,6.84-.04,10.26.36,20.38-.41,40.75-1.07,61.11-.18,5.6-.51,11.2-.85,16.79-.39,6.41-.87,12.81-1.33,19.21-.63,8.72-1.22,17.44-1.94,26.15-.36,4.35-.9,8.69-1.45,13.02-.4,3.11-1.46,6.22-1.33,9.3.26,6.12.55,12.28,2.32,18.24.74,2.48,1.37,3.15,4.06,3.13,2.03-.02,4.06-.59,6.1-.62,2.55-.03,3.72-1.38,4.16-3.65.9-4.55,1.91-9.08,2.57-13.67.22-1.51-.19-3.32-.88-4.72-2.37-4.8-3.12-9.87-2.98-15.13.16-6.01.37-12.02.62-18.03.31-7.51.65-15.02,1.04-22.53.19-3.68.55-7.36.82-11.03.49-6.53,1.15-13.06,1.42-19.6.27-6.42.23-12.86.18-19.28-.09-13.68.27-27.35,1.64-40.95,1.03-10.21,1.62-20.42,1.74-30.68,0-.82.08-1.64.1-2.46.2-7.11.44-14.21.58-21.32.05-2.45-.06-2.45-2.95-3.03-1.1,10.09-2,13.76-4.25,16.09-.52-5.6-1-10.83-1.49-16.09h.02ZM143.26,366.25c-2.07-2.73-1.17-5.72-1.69-8.46-.62-3.26,2.9-5.06,2.56-8.38-3.32.72-6.32,1.57-9.37,2-6.37.9-12.46,1.06-16.82-5.24-2.25-3.25-7.71-3.53-11.54-1.3,5.13,1.74,5.1,1.77,9.98,6.6.58.57,1.64,1.01,2.44.95,3.43-.24,3.9-.08,5.08,2.89,1.21,3.04.99,6.12.24,9.23-.23.97-.31,1.98-.49,3.18,6.86.65,13.16.12,19.6-1.48h0ZM150.42,364.73c4.64-1.62,9.07-2.66,12.81-5.99-3.94-2.02-7.71-2.15-11.81-2.52-.32,2.75-.63,5.36-1,8.51h0ZM122.08,367.74c-.46-2.17-.54-3.42-1.04-4.46-.24-.52-1.25-.87-1.94-.91-.56-.03-1.52.41-1.63.83-.18.66-.04,1.76.41,2.14.99.84,2.27,1.34,4.2,2.41h0ZM117.68,358.36c-.02.31-.04.63-.07.94.82.05,1.63.11,2.45.16-.03-.37-.03-1.07-.1-1.08-.75-.07-1.52-.03-2.28-.03h0ZM220.39,366.16c-.56-.15-.76-.25-.96-.25s-.37.1-.56.16c.38.02.77.05,1.52.09Z"/>
  <path class="cls-1" d="M33.47,332.75c-5.2-.4-10.27-1.4-15.21-3.12-5.72-1.99-8.51-6.04-8.86-12.01-.28-4.88.51-9.53,2.5-13.99.45-1.01.67-1.85.16-3.05-2.8-6.59-.14-11.91,6.88-14.13.12-.04.19-.19.49-.48-.26-1.43-.66-3.01-.81-4.61-.36-4.08-.8-8.16-.87-12.25-.39-19.83-.36-39.67-1.08-59.48-.58-16.16,0-32.29.69-48.39.61-14.2,1.13-28.4,1.4-42.61.11-5.72.9-11.43,1.24-17.16.21-3.55.25-7.11.19-10.66-.11-6.09,1.13-11.95,2.87-17.73.51-1.69,1.23-3.35,2.09-4.89,1.69-3.03,1.76-3,1.26-6.86-5.13.6-8.76-2.31-9.39-7.71-.47-4.01-.1-7.94,1.94-11.54,1.62-2.85,3.34-5.65,5.02-8.47,3.04-5.08,5.83-10.22,5.49-16.46-.07-1.32.37-2.71.75-4.01.39-1.3,1.42-2.06,2.78-2.01,1.39.05,2.32,1,2.59,2.26.25,1.18.38,2.5.12,3.66-1.3,5.94,1.08,10.66,4.63,15.09,1.79,2.24,3.56,4.5,5.15,6.88,4.69,7.07.27,16-4.82,19-.44.26-.98.36-2.3.84,1.28-2.2,2.14-3.78,3.11-5.29,1.85-2.88,2.25-5.85.48-8.87-1.37-2.35-2.79-4.69-4.41-6.86-1.95-2.61-4.15-5.05-6.5-7.88-.74,1.9-1.83,3.77-2.16,5.77-.4,2.43-1.57,4.31-2.94,6.19-2.01,2.78-4.02,5.65-4.39,9.14-.2,1.96.08,4.08.63,5.98.28.97,1.55,1.81,2.56,2.35.85.45,1.9.21,2.26-1.01.19-.66.34-1.33.59-1.96.77-1.98,1.98-2.89,3.59-2.75,1.7.15,2.95,1.49,3.1,3.74.13,2.04.27,4.16-.12,6.13-.48,2.38.75,3.57,2.36,4.69,2.02,1.4,4.4,2.55,5.09,5.12.77,2.88,1.55,5.84,1.66,8.79.28,7.52.16,15.05.26,22.57.22,17.64.44,35.29.7,52.93.16,10.8.69,21.6.56,32.39-.18,15.04-.88,30.07-1.23,45.1-.26,10.94-.34,21.89-.44,32.83-.06,6-.03,12.01.03,18.01.02,1.72.29,3.44.46,5.33-1.43.6-2.64.56-3.02-1.31-.52-2.54-1.1-5.08-1.32-7.65-.43-4.9-.75-9.81-.88-14.73-.34-12.17-.77-24.34-.76-36.5,0-11.76.52-23.51.8-35.27.22-9.29.59-18.58.61-27.88.09-27.64.11-55.27-.04-82.91-.02-3.91-.92-7.84-1.76-11.69-.35-1.59-.87-3.51-3.22-4.28-1.97,4.15-1.11,9.11-3.68,13.37-2.07-2.17-1.55-4.94-2.48-8.16-.53,1.52-.84,2.18-.99,2.88-1.06,4.96-1.53,9.96-1.59,15.04-.2,17.22-.5,34.45-.86,51.67-.23,10.66-.8,21.31-.95,31.97-.3,22.84-.58,45.68-.54,68.51.02,9.69.95,19.38,1.29,29.07.19,5.46.1,10.94-.05,16.4-.08,3.06.41,4.12,3.38,4.11,2.28,0,4.59-.57,6.82-1.12,1.7-.42,3.31-1.23,4.97-1.87.35,2.76-.8,5.38-3.19,6.12-3.85,1.19-7.66,2.78-11.9.78-1.49-.7-2.59-1.34-3.02-2.82-.6-2.07-1.03-4.18-1.6-6.57-2.83,1.1-3.54,3.62-4.04,6.04-.46,2.23,1.24,3.47,2.97,4.44,5.29,2.95,11.05,3.46,16.7,1.97,4.16-1.1,8.02-3.38,12-5.14.25-.11.46-.29.68-.45,4.21-3.11,4.12-4.82-.35-7.3-.91-.51-1.79-1.08-2.86-1.73,3.88-1.75,8.18-1.25,9.95,1.25,2.62,3.7.88,7-1.51,10.28,1.81,1.71,1.64,3.77,1.27,6.02-.31,1.84-.11,3.77-.06,5.65.06,2.23-1.54,3.87-1.98,5.94-.21,1.01-1.02,1.89-1.55,2.82-3.4-1.41-4.5-3.86-4.4-7.41.06-2.22-.95-4.46-1.56-7.03-1.08.3-1.85.41-2.52.73-5.2,2.47-10.67,3.23-16.38,2.81-4.14-.3-7,2.61-6.61,6.73.29,3.16,1.35,5.86,4.85,6.81.92.25,1.81.63,2.68,1.03,6.28,2.9,12.22,2.1,17.95-1.51.75-.47,1.58-.84,2.66-1.41-1.84,6.02-7.45,11.34-14.19,13.78l.11-.07.02.04ZM18.88,306.14l.27.17.02-.29-.3.12h0Z"/>
  <path class="cls-1" d="M144.83,277.64c-2.76-6.4-4.72-13.07-4.74-20.07-.04-9.56.03-19.16.77-28.68,1.17-15.14,2.07-30.28,1.81-45.47-.24-13.71,1.34-27.24,3.64-40.74,1.31-7.65,1.94-15.42,2.78-23.15.74-6.78,1.57-13.57,1.94-20.38.43-8.05.53-16.12.49-24.19,0-2.1-.94-4.24-1.7-6.26-.52-1.4-1.53-2.57-3.55-2.67-.41,3.98-.85,7.88-1.19,11.78-.26,2.95-.2,2.96-3.48,4.03-2.62-6.48-3.14-13.19-2.15-20.05.16-1.08.46-2.15.81-3.18.47-1.38,1.32-2.46,2.95-2.38,1.48.08,2.09,1.26,2.39,2.47.33,1.32.39,2.7.59,4.25,1.73.68,3.59,1.4,5.67,2.21,2.78-3.85,3.19-7.95,1.2-12.24-.92-1.98-2.12-3.82-3.24-5.7-2.37-3.98-4.77-7.95-7.28-12.12-1.23.97-1.92,2.63-2.62,4.15-1.77,3.83-3.43,7.72-4.96,11.65-.48,1.23-.45,2.68-.54,4.03-.12,1.74.16,3.29,2.21,3.86.91.25,1.52.97.84,1.8-.41.49-1.41.82-2.07.72-1.73-.27-2.94-1.43-3.65-3-.96-2.14-1.48-4.35-1.11-6.76.73-4.77,2.17-9.31,4.25-13.64,1.18-2.47,2.4-4.92,3.69-7.33,1.44-2.69,2.54-5.42,2.38-8.57-.05-1.03.27-2.19.76-3.11.66-1.25,1.76-2.15,3.36-1.73,1.45.38,2.43,1.28,2.55,2.84.08,1.09.23,2.24-.03,3.27-1.02,4.14.27,7.9,2.07,11.43,1.79,3.52,4.13,6.75,6.1,10.19,1.28,2.23,2.66,4.5,3.41,6.93,1.52,4.93,0,9.14-3.92,12.47-.82.7-1.72,1.32-2.74,2.11,3.4,5.3,4,11.24,4.24,17.27.15,3.69.48,7.36.63,11.05.38,9.59-.44,19.12-1.28,28.66-.38,4.35-.54,8.73-1,13.07-.61,5.83-1.48,11.64-2.1,17.47-.5,4.75-1.02,9.52-1.14,14.29-.19,7.38-.14,14.78-.02,22.16.24,14.66-.8,29.23-2.29,43.8-.44,4.34-.11,8.76-.42,13.12-.48,6.67-1.15,13.32-1.85,19.96-.37,3.49-.97,6.95-1.47,10.42-.33,0-.65-.01-.98-.02v-.02Z"/>
  <path class="cls-1" d="M49.46,507.44c-.91,7.56,2.55,12.92,7.32,17.6,5.78,5.67,13.02,8.94,20.49,11.7,9.23,3.41,18.71,5.82,28.42,7.46,27.49,4.64,54.71,3.49,81.72-3.27,14.51-3.63,27.74-10.01,39.72-18.94,2.18-1.62,4.13-3.58,6.09-5.47,2.08-2,3.86-4.23,4.3-8.3.64,1.44,1.1,1.96,1.04,2.41-.3,2.13-.44,4.36-1.19,6.34-1.56,4.15-4.31,7.57-7.45,10.68-5.63,5.55-12.21,9.63-19.39,12.84-13.86,6.19-28.48,9.44-43.47,11.3-16.64,2.06-33.29,2-49.91-.07-16.46-2.06-32.45-6.02-47.51-13.21-6.61-3.15-12.63-7.11-17.25-12.91-3.04-3.82-5.03-8.11-5.56-13.02-.23-2.18.34-3.89,2.62-5.13h.01Z"/>
  <path class="cls-1" d="M121.13,432.07c-1.2,1.76-2.48,3.48-3.57,5.3-1.22,2.04-.09,5.42,2.21,6.06,3.59,1.01,6.87,3.08,11.05,2.15,2.53-.56,5.4.66,8.1.58,5.03-.13,10.08-.37,15.05-1.07,2.63-.37,5.25-1.52,7.62-2.79,3.71-1.99,3.75-4.2.35-6.81-1.07-.82-2.41-1.28-3.5-2.08-.59-.43-1.39-1.42-1.23-1.84.29-.76,1.11-1.62,1.88-1.86,3.48-1.09,9.31,1.5,11.81,5.07,2.55,3.65,2.39,8.16-.26,11.82-3.21,4.43-7.81,6.79-12.77,8.44-12.17,4.05-24.35,4.25-36.46-.41-6.65-2.56-8.7-6.92-9.28-13.57-.21-2.38.95-4.26,2.71-5.69,1.78-1.44,3.72-2.67,5.59-4,.23.23.47.46.7.68v.02Z"/>
  <path class="cls-1" d="M101.16,461.81c-2.86,2.13-5.18,3.43-6.96,5.25-5.01,5.11-5.15,11.72-.71,17.42,2.68,3.45,6.27,5.64,10.13,7.48,4.99,2.37,10.32,3.72,15.73,4.42,18.96,2.46,37.63,1.13,55.84-5,6.51-2.2,12.66-5.2,18.17-9.35,2.06-1.55,3.99-3.35,5.67-5.3,2.64-3.05,2.34-5.38-1.15-7.32-2.59-1.43-5.52-2.23-8.31-3.28-.85-.32-1.74-.54-3.06-.94,5.25-1.04,11.94.2,15.45,2.66,3.4,2.38,4.46,5.65,2.36,9.25-1.49,2.54-3.46,4.96-5.7,6.87-8.48,7.25-18.5,11.53-29.2,14.34-10.89,2.86-21.98,3.96-33.24,4.05-10.22.07-20.17-1.14-29.86-4.35-5.11-1.7-9.8-4.21-13.72-7.96-4.37-4.19-6.66-9.18-6-15.44.55-5.23,4.83-10.99,11.48-13.19.72-.24,1.65.19,3.11.39h-.03Z"/>
  <path class="cls-1" d="M71.28,511.65c1.17.81,2.4,1.55,3.51,2.45,8.5,6.88,18.06,11.66,28.61,14.55,12.34,3.37,24.92,4.6,37.68,4.67,12.48.07,24.79-1.26,36.96-3.88,11.38-2.45,22.54-5.65,32.54-11.87,2.88-1.79,5.44-4.08,8.13-6.17.82-.64,1.59-1.34,2.97-1.63-.27.78-.37,1.69-.84,2.33-2.35,3.25-5.36,5.8-8.67,8.03-10.26,6.89-21.77,10.72-33.63,13.55-16.15,3.85-32.5,5.57-49.13,4.48-14.23-.94-27.72-4.27-40.29-11.13-4.79-2.61-13.84-9.83-17.83-15.36v-.02Z"/>
  <path class="cls-1" d="M261.43,17.56c1.88.89,3.33,1.58,5.02,2.38.09,1.63.37,3.4.23,5.14-.26,3.16.89,5.81,2.26,8.54,1.33,2.65,2.48,5.47,3.13,8.35,1.09,4.87-1.05,8.67-6.4,11.67,2.6-7.5,2.55-14.49-1.48-21.6-3.74,4.85-7.43,9.51-10.94,14.31-.76,1.03-1.04,2.54-1.17,3.87-.25,2.38.94,3.65,4.14,4.33-.94.92-1.53,1.92-2.38,2.22-1.44.51-2.97.28-4.24-.78-2.8-2.33-3.63-5.53-3.17-8.86.35-2.5,1.34-5.01,2.54-7.25,1.41-2.63,3.27-5.03,5.08-7.43,3.31-4.4,5.78-9.2,7.39-14.88h-.01Z"/>
  <path class="cls-1" d="M235.07,500.27c-.29-1.96-.53-3.93-.88-5.88-1.57-8.65-6.13-15.4-13.31-20.31-6.34-4.33-13.26-7.45-20.88-8.84-.49-.09-.95-.38-2.19-.89,1.33-.61,2.09-1.3,2.77-1.22,2.96.35,5.97.68,8.83,1.47,6.62,1.81,12.74,4.7,18.2,8.98,7.8,6.11,11.61,15.46,7.47,26.7h0Z"/>
  <path class="cls-1" d="M47.99,496.97c.7-6.43,2.83-12.22,7.06-17.04,6.57-7.49,14.83-12.35,24.34-15.09,1.54-.44,3.22-.54,4.83-.49.63.02,1.24.88,1.85,1.36-.51.53-.92,1.36-1.53,1.53-6.51,1.86-12.25,5.25-17.92,8.8-7.32,4.58-13.24,10.45-16.97,18.36-.43.91-1.1,1.71-1.66,2.57h0Z"/>
  <path class="cls-1" d="M168.42,474.61c-2.53-1.17-5.27-2.05-7.55-3.59-3.4-2.3-4.86-5.79-4.38-9.94.11-.91.36-1.99.95-2.62.67-.71,1.81-1.43,2.7-1.37,1.27.08,2.07,1.21,2.11,2.61,0,.41-.02.82-.04,1.22-.22,3.97,1.47,7.1,4.24,9.79.93.91,1.8,1.88,2.7,2.82-.24.36-.49.72-.73,1.07h0Z"/>
  <path class="cls-1" d="M93.09,510.76c-6.87-.53-13.24-2.46-17.7-8.33-2.31-3.04-3.44-6.47-3.74-10.2-.06-.77.14-1.64.5-2.32.26-.49.98-.74,1.49-1.1.24.54.74,1.11.68,1.6-.47,3.79,1.23,6.89,3.17,9.84,2.3,3.5,5.55,5.97,9.34,7.72,2.07.96,4.17,1.86,6.26,2.79Z"/>
  <path class="cls-1" d="M116.48,476.85c.75-2.43,1.56-4.83,2.22-7.28.71-2.62,1.2-5.3,1.95-7.9.23-.79.98-1.43,1.48-2.13.65.61,1.43,1.13,1.89,1.86.32.51.37,1.34.25,1.97-.96,5.33-3.36,9.93-6.92,13.92-.29-.14-.58-.28-.88-.42v-.02Z"/>
  <path class="cls-1" d="M136.57,70.08c.37.13.6.2.82.28-.17.26-.31.56-.54.75-.08.07-.38-.11-.58-.18.1-.28.2-.57.3-.85h0Z"/>
</svg>