<?xml version="1.0" encoding="UTF-8"?>
<svg id="Layer_1" data-name="Layer 1" xmlns="http://www.w3.org/2000/svg" version="1.1" viewBox="0 0 362.42 557.64">
  <defs>
    <style>
      .cls-1 {
        fill: #000;
        stroke-width: 0px;
      }
    </style>
  </defs>
  <path class="cls-1" d="M270.52,476.56c-1.56-5.53-4.7-8.49-8.5-11.06-13.15-8.9-27.55-15.2-42.39-20.59-4.79-1.74-9.61-3.4-16.34-5.77,3.28-1.08,4.96-2.23,6.42-2.01,13.48,2.07,27.14,3.54,40.31,6.89,9.79,2.49,18.93,7.5,28.61,11.49,3.75-17.79,14.16-32.81,28.17-45.49,7.63-6.91,16.28-11.15,27.09-8.58,13.67,3.25,21.94,17.08,18.34,30.81-1.61,6.12-4.26,11.72-9.06,15.84-10.15,8.7-20.57,17.08-30.8,25.68-3.93,3.31-7.98,6.56-11.41,10.36-7.96,8.81-7.25,17.07,1.77,24.93,2.02,1.76,4.26,3.28,6.77,5.19-16.2,1.85-24.62-4.34-29.32-21.75-3.15,3.97-5.8,7.63-8.78,11-6.14,6.93-12.25,13.92-18.77,20.48-7.27,7.31-16.35,11.08-26.66,11.85-19.12,1.43-38.23,3.24-57.37,4.23-19.86,1.03-39.77,1.16-59.65,1.91-11.98.45-23.94,1.58-35.93,1.92-16.47.47-29.98-5.56-40.01-19.04-4.3-5.78-8.82-11.46-13.84-16.6-9.3-9.53-12.9-21.71-15.84-33.96-1.41-5.85,2.03-11.63,7.42-14.71,6.8-3.89,13.91-7.41,21.23-10.18,15.38-5.81,31.41-9.47,47.6-12.13,6.31-1.04,12.89-1.26,19.13.3.83,3.99-1.4,4.52-3.99,4.91-25.28,3.82-48.95,12.48-71.58,24.15-1.51.78-2.9,1.82-4.26,2.85-.49.37-.71,1.08-1.18,1.85,2.1,5.19,7.01,7.28,11.6,9.33,13.18,5.88,27.09,9.34,41.3,11.7,20.69,3.43,41.6,3.75,62.48,4.96,19.97,1.16,39.77-.43,59.57-1.34,20.11-.92,40.18-3.87,59.62-9.75,6.56-1.99,12.95-4.37,18.24-9.65v-.02ZM14.9,490.65c1.06,1.94,1.52,3.59,2.59,4.63,10.82,10.49,21.52,21.14,32.76,31.17,4.02,3.58,9.45,5.45,15.23,5.33,4.46-.1,8.93.34,13.38.09,32.53-1.81,65.14,1.37,97.66-1.97,14.28-1.47,28.7-1.71,43.05-2.44,18.17-.93,30.75-10.57,41.25-26.02-32.81,9.03-65,11.96-97.54,12.01-24,.03-48.02.51-71.89-2.52-16.58-2.11-33.26-4.01-49.12-9.76-8.87-3.22-17.62-6.75-27.37-10.51h0ZM289.41,473.48c9.14-6.55,17.24-12.22,25.2-18.1,6.59-4.87,13.34-9.62,19.35-15.15,3.11-2.86,5.18-7.09,7-11.04,2.58-5.58.77-10.77-3.29-14.98-4.14-4.29-9.35-5.49-15.07-3.61-6.63,2.17-12.38,5.7-16.68,11.32-11.42,14.93-15.64,32.16-16.51,51.56Z"/>
  <path class="cls-1" d="M138.53,116.68c.07-9.42.14-18.17,4.84-26.32,1.02,1.35,1.63,2.15,2.96,3.9,2.05-5.09,4.24-9.53,5.65-14.21,2.63-8.74-.43-15.42-11.02-24.94-3.6,7.87-7.46,15.45-10.56,23.33-3.64,9.28-2.48,12.53,5.25,19.22-8.28-.57-14.08-7.43-12.32-15.69,1.34-6.29,3.68-12.41,6.08-18.41,3.6-8.99,6.38-17.63,3.76-27.79-1.45-5.62.46-12.14,1.06-18.23.29-2.93,1.64-5.66,5.11-5.12,2.72.42,3.48,3,3.5,5.6.04,4.47.54,8.99.03,13.39-1.07,9.22,1.44,16.68,8.34,23.12,3.14,2.94,5.3,7.14,7.28,11.08,4.14,8.26,2.92,17-3.43,22.73-9.08,8.19-8.85,17.64-7.77,28.03.22,2.08-.67,4.27-1.13,6.84-5.28-1.01-9.79-1.87-14.78-2.82,3.04,9.21,7.96,12.39,15.79,10.68,2.66-.58,5.23-1.58,7.78-2.55,2.21-.84,4.34-1.9,6.45-2.84,6.89,3.59,9.27,9.23,10.35,16.63,3.43,23.62,2.69,47.38,1.19,70.92-1.04,16.32-3.59,32.55-3.09,49.01.73,24.35,1.25,48.71,2.06,73.06.24,7.17,1.58,14.32,1.67,21.49.08,6.47-.85,12.95-1.33,19.43-.08,1.02-.34,2.06-.24,3.07,1.29,13.53,2.62,27.06,4.11,42.3,3.45-2.66,6.01-4.19,8.01-6.27,3.2-3.33,3.07-6.6-.09-9.95-1.94-2.06-4.12-3.89-7.54-7.08,6.79-.07,10.56,2.19,13.83,5.05,4.07,3.56,4.88,8.32,1.77,12.92-2.84,4.2-6.61,7.77-10.1,11.77,3.13,13.04,1.1,16.46-13.69,22.19-3.84,12.5,3.86,22.15,9.09,33.55-2.44-.43-4.5-.21-5.76-1.11-6.78-4.83-11.1-11.08-10.5-19.92.2-3,.03-6.02.03-9.68-9.84,1.79-18.76,3.42-28.48,5.19.67,14.64-3.65,27.55-18.53,37.18,1.79-8.43,7.99-12.71,9.84-18.97,1.91-6.46,2.8-13.23,4.17-20.06-3.87-1.31-7.49-2.3-10.91-3.75-7.86-3.33-12.93-9.06-13.36-17.85-.25-5.1-2.14-9.19-5.28-13.03-3.5-4.29-4.26-9.36-2.85-14.59.94-3.48,3.35-6.23,6.95-6.92,1.95-.37,4.17.7,7.74,1.42-3.68,2.93-5.97,4.75-8.51,6.77,1.25,8.81,7.26,12.72,15.29,16.13.1-2.14.33-3.64.2-5.11-.36-4.06-1.25-8.11-1.26-12.16-.09-27.15.27-54.31-.09-81.46-.16-12.3-1.6-24.59-2.49-36.88-.71-9.89-1.85-19.77-2.1-29.68-.32-12.71.26-25.43.11-38.15-.18-16.16,1.98-32.1,3.68-48.11.82-7.76.27-15.78-.63-23.58-.94-8.08-.04-15.67,2.87-23.14,1.61-4.12,4.12-6.84,9.01-7.19,3.69-.26,7.32-1.46,12-2.46v.02ZM128.52,135.82c.73,6.84,1.85,12.88,1.93,18.92.21,15.07.45,30.09-1.55,45.19-1.93,14.56-1.75,29.41-2.5,44.13-.19,3.77.03,7.62-.67,11.3-2.65,14-1.27,28.03-.77,42.05.23,6.49.99,12.99.8,19.46-.25,8.54-1.17,17.06-1.84,25.59-.13,1.7-.41,3.39-.64,5.09-1.82,13.65-1.71,27.23.25,40.92,1.77,12.3,5.16,24.64.93,37.59,17.03,1,32.96.79,47.46-4.09-1.53-8.08-3.08-15.71-4.39-23.37-.98-5.72-1.24-11.58-2.52-17.21-4.28-18.8-5.7-37.86-5.45-57.06.14-10.95,1.16-21.89,1.37-32.85.43-21.57.32-43.14,4.47-64.47,1.3-6.67,2.15-13.54,2.23-20.32.26-20.95.03-41.91.06-62.86,0-4.53-.32-8.88-3.9-12.96-5.17,2.7-10.24,6.11-15.81,8.04-6.33,2.19-12.79.69-19.46-3.1h0ZM175.66,430.1c-7.92,1.57-15.08,3.57-22.37,4.28-7.8.75-15.74.71-23.57.21-7.23-.46-14.4-1.98-21.88-3.08.88,5.64,3.74,9.87,8.43,12.33,7.04,3.69,15.04,5.81,22.68,4.53,10.32-1.72,20.33-5.35,30.4-8.41,3.77-1.15,6.72-3.46,6.31-9.85h0Z"/>
  <path class="cls-1" d="M95.06,457.14c-15.64,5.12-30.69,10.09-45.78,14.98-2.73.88-5.58,1.41-8.6,1.35,13.12-10.84,27.62-18.53,44.23-21.85,3.53-.71,6.85.14,9.43,2.67.75.73.62,2.35.73,2.86h-.01Z"/>
</svg>