<?xml version="1.0" encoding="UTF-8"?>
<svg id="Layer_1" data-name="Layer 1" xmlns="http://www.w3.org/2000/svg" version="1.1" viewBox="0 0 129.5 557.64">
  <defs>
    <style>
      .cls-1 {
        fill: #000;
        stroke-width: 0px;
      }
    </style>
  </defs>
  <path class="cls-1" d="M48.06,125.28c.33,6,.75,11.8.97,17.61.82,22.56,1.84,45.12,2.27,67.69.28,14.68-.15,29.38-.58,44.06-.68,23.01-1.64,46.01-2.47,69.01-.42,11.61-1.16,23.24.98,34.78,1.21,6.53,3.14,12.73,9.04,18.05,4.73-12.86,6.93-26.42,17.34-36.32,5.62,16.38,3.1,32.08-3.57,48.13,7.89-1.41,14.83.38,21.72,2.61,4.49,1.45,5.18,2.79,3.32,7.14-1.54,3.6-4.33,5.95-7.62,7.89-5.47,3.24-11.56,4.04-17.69,4.41-11.86.72-23.65-.33-35.36-2.19-1.29-.2-2.56-.6-3.79-1.06-4.86-1.8-7.22-4.89-6.61-8.56.6-3.59,3.32-5.71,8.18-6.3,1.3-.16,2.63-.1,3.94-.27,2.14-.28,4.27-.67,6.45-1.01-3.05-4.3-6.29-8.11-8.68-12.39-4.47-8.01-5.85-16.93-6.26-25.97-.58-12.96.59-25.84,1.88-38.72,1.09-10.9,1.93-21.82,3.02-32.72.94-9.37,2.07-18.72,3.13-28.08.67-5.87,1.61-11.72,1.99-17.61,1.17-18.14,2.17-36.3,3.15-54.45.92-16.85,1.72-33.7,2.6-50.54.11-2.06-.23-4.43,2.66-5.19h0Z"/>
  <path class="cls-1" d="M69.28,109.37c6.34,6.59,7.61,16.09,3.07,25.19-1.17,2.35-1.42,4.23-1.22,6.7,1.21,15.29,1.95,30.62,3.31,45.89,2.23,24.98,1.3,49.99.89,74.99-.23,14.24-1.49,28.45-2.22,42.68-.25,4.82-.29,9.65-.47,14.48-.06,1.71-.28,3.41-1.37,5.27-.27-1.05-.73-2.09-.78-3.15-1.05-22.78-2.27-45.55-3.02-68.34-.69-20.82-1.01-41.66-1.23-62.5-.18-17.55.16-35.11-.04-52.67-.07-6.29-1.05-12.57-1.66-19.36-4.51-.56-8.03.3-10.14,5.38-1.98-3.48-.88-5.66,1.22-7.89.71-.75,1.19-2.36.88-3.27-.5-1.46-1.71-2.35-3.66-1.56-4.41,1.78-7.68-.4-10.34-3.62-9.27-11.21-13.28-23.71-8.07-37.91,2.33-6.35,5.35-12.49,8.45-18.52,3.43-6.68,6.27-13.49,7.61-20.91.96-5.32,3.24-9.98,7.42-13.59,2.86-2.47,4.95-5.43,6.44-8.98,1.92-4.56,4.97-6.09,8.7-5.09,3.55.95,5.56,4.12,5.2,8.81-.39,5.02-1.19,10-1.58,15.02-1.11,14.23.89,27.98,6.41,41.21,1.43,3.42,2.5,7.02,3.4,10.62,2.54,10.21-.52,18.6-8.74,25.08-2.7,2.13-5.6,4.03-8.46,6.07v-.03ZM62.42,45.09c-4.9,8.62-9.2,15.95-13.25,23.43-1.75,3.24-3.29,6.68-4.37,10.19-2.35,7.67-.42,17.29,4.54,23.26-1.16-11.44,3.28-21.32,6.56-31.4,1.39-4.27,3.98-8.15,6-12.23.6-1.21,2.98,1.32,2.68-1.15-.43-3.61-1.26-7.17-2.16-12.1Z"/>
  <path class="cls-1" d="M33.3,531.65c1.86.1,3.35.32,4.82.24,15.61-.87,31.11.3,46.6,2.12,3.69.43,7.44.5,11.16.55,3.24.05,5.37-1.55,6.13-4.82,2.68-11.51,1.14-22.07-6.67-31.4-3.36-4.02-6.71-8.14-9.38-12.62-6.39-10.73-6.35-21.93-1.04-34.33.88,2,1.54,3.21,1.95,4.49,2.83,8.74,5.65,17.48,8.39,26.25,1.5,4.79,4.25,8.3,8.52,11.18,9.61,6.48,16.06,15.44,18.61,26.91,1.9,8.55.43,16.58-4.25,23.96-5.07,7.98-12.92,11.04-21.87,11.17-6.33.09-12.71-.51-18.99-1.32-17.46-2.25-34.91-3.23-52.44-.93-2.38.31-4.83.37-7.22.17-10.01-.87-13.99-9.72-8.15-18.07,2.51-3.59,5.36-6.96,7.79-10.6,8.65-12.95,13.86-27.36,17.02-42.47,1.94-9.29,5.12-18.1,8.57-26.86.48-1.21,1.09-2.43,1.92-3.42,1.9-2.27,4.58-1.65,5.48,1.23.52,1.66.61,3.46,1.23,5.07.88,2.32-2.02,1.46-2.25,3.05-.68,4.76-1.8,9.45-2.47,14.2-1.22,8.67-1.98,17.41-3.41,26.05-1.5,9.12-4.6,17.8-8.48,26.19-.54,1.17-.94,2.39-1.57,4.01h0Z"/>
  <path class="cls-1" d="M80.67,439.45c-11.73-1.42-23.47-2.7-35.17-4.33-4.51-.63-8.94-1.92-13.34-3.18-3.32-.95-6.27-2.89-6.11-6.77.17-4.06,3.18-6.29,6.83-6.98,5.14-.97,10.38-1.66,15.6-1.95,6.56-.37,13.16-.1,19.74-.32,5.02-.17,10.03-.89,15.06-.96,4.11-.05,8.4-.12,12.31.94,6.05,1.64,9.65,7.67,8.73,13.04-.97,5.65-5.83,9.5-12.36,9.67-3.73.1-7.46.02-11.18.02-.03.28-.06.56-.1.84v-.02Z"/>
</svg>