<?xml version="1.0" encoding="UTF-8"?>
<svg id="Layer_1" data-name="Layer 1" xmlns="http://www.w3.org/2000/svg" version="1.1" viewBox="0 0 106.31 557.64">
  <defs>
    <style>
      .cls-1 {
        fill: #000;
        stroke-width: 0px;
      }
    </style>
  </defs>
  <path class="cls-1" d="M63.44,265.95c.71,4.93,1.47,9.85,2.13,14.79,2.98,22.37,6.03,44.73,8.84,67.12,1.39,11.04.49,22.09-1.06,33.06-.22,1.53-1.27,3.02-2.21,4.34-1.23,1.72-2.73,3.24-4.54,5.35,6.61,2.57,13.09,4.32,18.71,9.27-1.7,1.04-2.93,2.16-4.36,2.6-14.83,4.49-29.96,6.83-45.49,6.17-.72-.03-1.44-.11-2.16-.14-3.35-.15-6.42-1.14-7.39-4.63-.99-3.56,2.13-5.01,4.47-6.6,1.57-1.07,3.35-1.84,5.59-3.05-1.33-1.38-2.41-2.52-3.52-3.64-8.33-8.42-10.67-19.09-11.33-30.36-.99-16.89,1.37-33.62,2.42-50.42.63-10.08,1.5-20.15,2.15-30.23,1.03-16.09,1.44-32.23,3.09-48.25,1.54-15.03,4.28-29.94,6.62-44.88,2.04-13.03,4.28-26.02,6.41-39.03.62-3.79,1-7.63,1.83-11.37.25-1.11,1.66-1.97,2.53-2.94.97.93,2.62,1.74,2.81,2.81.68,4.01,1.35,8.13,1.2,12.17-.54,14.18-1.63,28.34-2.15,42.52-.71,19.47-1.62,38.95-1.48,58.42.23,30.57.33,61.1-2.23,91.61-.64,7.63-.3,15.42.43,23.05.93,9.77,5.74,14.83,14.89,17.16,5.96,1.52,8.45.11,8.6-5.91.16-6.46-.27-12.98-.91-19.42-1.5-15.06-3.85-30.05-4.79-45.13-.9-14.61-.47-29.3-.62-43.95.51-.16,1.02-.32,1.53-.48h-.01Z"/>
  <path class="cls-1" d="M55.55,116.98c1-1.52,1.9-3.13,3.01-4.56,8.5-10.89,10.86-22.58,5.88-35.85-2.74-7.3-4.27-15.05-6.57-23.43-4.76,7.03-8.02,14.16-11.78,21.01-7.42,13.52-5.13,26.91.07,40.32,1.67,4.31,4.55,6.91,9.62,6.71,12.55-.5,15.52,7.28,15.29,16.86-.61,25.48-.73,50.98-1.19,76.47-.2,11.06-.74,22.11-2.45,33.26-.4-2.15-1.05-4.29-1.16-6.45-.38-7.43-.49-14.88-.85-22.32-.67-13.68-1.49-27.35-2.17-41.02-.57-11.52-1.04-23.04-1.54-34.56-.09-2.16-.16-4.32-.25-6.48-.11-2.79-1.07-4.99-3.52-6.69-2.14-1.49-3.9-3.54-5.87-5.38-1.46.62-3.1,1.87-4.7,1.83-1.46-.04-3.29-1.14-4.25-2.34-11.07-13.69-17.49-28.66-12.51-46.7,3.31-11.96,9.59-22.51,15.55-33.22,1.05-1.89,2.11-3.79,3.3-5.59,4.57-6.91,6.32-14.37,5.14-22.65-.43-3,.02-6.19.43-9.24.44-3.22,2.57-5.13,5.83-5.44,3.21-.31,5.73,1.14,7.09,3.97,2.46,5.11,3.63,10.75,2.36,16.17-4.35,18.56-.56,36.25,5.02,53.78,3.33,10.48,3.07,20.38-3.49,29.56-3.99,5.59-9.44,9.52-16.31,11.99h.02Z"/>
  <path class="cls-1" d="M50.39,435.49c.02,3.3.16,6.61.06,9.91-.64,21.1-5.72,41.25-13.06,60.92-2.51,6.73-5.38,13.44-6.9,20.41-2.16,9.94-3.01,13.47,9.74,13.02,11.73-.41,23.51-1.33,35.11-3.06,10.92-1.62,12.07-4.61,7.08-14.57-2.69-5.36-5.75-10.55-8.8-15.72-6.98-11.81-11.11-24.43-11.4-38.23-.05-2.43-.26-4.85.95-7.53.6,1.18,1.37,2.3,1.79,3.55,3.48,10.41,9.63,19.27,15.89,28.12,4.98,7.06,9.6,14.39,14.04,21.81,1.95,3.26,3.43,6.92,4.46,10.59,3.04,10.89-.88,19.69-11.35,24.12-5.45,2.31-11.44,3.77-17.33,4.52-12.83,1.63-25.74,3.45-38.71,1.22-2.34-.4-4.72-1-6.89-1.95-6.83-2.98-10.38-8.26-10.46-15.79-.07-7.12,2.05-13.72,4.78-20.16,4.59-10.82,9.32-21.58,13.92-32.4,5.64-13.28,9.44-27.12,12.58-41.17.42-1.86.95-3.71,1.55-5.52.27-.82.85-1.55,1.28-2.31.56.07,1.12.14,1.69.22h-.02Z"/>
  <path class="cls-1" d="M82.83,423.86c-5.82.59-10.96,1.44-16.11,1.57-10.79.27-21.58.16-32.38.22-1.68,0-3.36.07-5.04.07s-4.29,1.71-4.84-1.07c-.28-1.41,1.13-3.55,2.36-4.8,5.14-5.24,11.95-7.17,18.88-7.9,12.25-1.3,23.89.94,34.35,7.87.59.39,1.17.84,1.64,1.36.3.33.38.86,1.13,2.66v.02Z"/>
</svg>