<?xml version="1.0" encoding="UTF-8"?>
<svg id="Layer_1" data-name="Layer 1" xmlns="http://www.w3.org/2000/svg" version="1.1" viewBox="0 0 106.31 622.91">
  <defs>
    <style>
      .cls-1 {
        fill: #000;
        stroke-width: 0px;
      }
    </style>
  </defs>
  <path class="cls-1" d="M48.55,513.9c-1.45,16.39-2.28,32.18-4.41,47.79-1.91,13.96-5.1,27.76-15.52,38.51-1.63,1.68-2.57,4.01-4.18,6.61-2.55,4.12,29.49,4.93,30.48,4.91,4.18-.11,8.35-.81,12.5-1.36,1.95-.26,3.91-.64,5.78-1.22,4.29-1.32,6.42-4.14,6.71-8.63.57-8.68-2.26-16.47-5.8-24.23-7.8-17.14-11.7-35.12-10.5-54.03.13-1.99-.79-4.69,2.77-5.63,2.13,1.63,2.75,4.07,3.24,6.78,1.2,6.54,2.52,13.07,4.06,19.53,2.54,10.66,6.98,20.52,12.47,30.01,5.58,9.64,8.43,20.05,5.82,31.25-.71,3.05-2,6.06-3.57,8.77-1.78,3.08-5.38,2.72-8.35,3.77-12.15,4.3-24.35,2.78-36.63,1.56-1.41-.14-2.89.34-4.33.54-5.41.74-10.79,1.29-16.09-.84-6.74-2.7-9.84-8.61-7.52-15.43,1.02-2.98,2.24-6.33,4.42-8.4,8.18-7.77,11.16-17.95,13.82-28.24,1.84-7.13,2.81-14.48,4.16-21.73.98-5.32,1.82-10.67,2.94-15.96,1.07-5.04,2.43-10.01,3.81-15.62-9.63-5.18-15.1-13.26-16.97-24.34-1.83-10.83-.69-20.59,6.62-29.75-6.72-5.79-10.27-12.88-9.5-22.03.73-8.76,3.02-16.51,10.78-21.63-.64-3.66-1.23-7.03-1.92-11.01-2.63-.54-5.56-.89-8.32-1.76-4.21-1.33-8.59-2.53-12.39-4.68-6.73-3.82-8.12-11.38-3.71-17.89,5.02-7.41,11.84-11.89,21.06-11.67,1.85.04,4.45.63,5.37,1.92,3.75,5.27,9.26,5.05,14.57,5.24,3.95.14,7.81-.85,11.55-2.94,1.12-5.88.11-11.79-.03-17.68-.08-3.44-.94-6.89-.8-10.32.47-11.72-2.14-23.09-3.49-34.61-.94-8.07-1.97-16.14-2.73-24.23-.58-6.15-1.03-12.33-1.1-18.5-.06-5.17.72-10.35.79-15.53.21-17.11.09-34.23.43-51.35.28-14.35.53-28.73,1.67-43.03,1.45-18.26,2.84-36.5,2.54-54.83-.1-6.17-1.05-12.2-3.48-18.57-3.23.48-6.05.91-8.58,1.28-2.93,4.82-2.68,9.47-2.22,14.18.79,8.11,1.97,16.21,2.19,24.33.48,18.1.42,36.21.69,54.32.06,4.44.92,8.89.71,13.31-.59,12.09-1.56,24.15-2.36,36.23-1.14,17.26-3.6,34.41-3.62,51.78-.03,21.55-.74,43.11-1.33,64.66-.17,6.17-.9,12.33-1.52,18.48-.08.82-.98,1.57-1.77,2.75-.88-1.05-1.89-1.68-1.99-2.44-.76-5.62-1.47-11.25-1.93-16.89-.52-6.41-1.13-12.84-1.06-19.25.27-24.28.45-48.57,1.39-72.83.47-12.05,2.53-24.03,3.8-36.05.26-2.46.28-4.95.28-7.43-.03-31.5,0-63.01-.18-94.51-.04-6.66-.86-13.32-1.26-19.98-.1-1.73-.07-3.48.07-5.21.82-10.14,9.89-15.9,19.59-12.84,3.87,1.22,5.76,3.93,6.72,7.26,1.08,3.76,1.92,7.75,1.95,11.64.13,16.62.17,33.24-.28,49.85-.22,8.11-1.59,16.19-2.42,24.29-.13,1.23-.15,2.48-.18,3.71-.59,24.77-1.14,49.54-1.79,74.31-.18,6.67-1.1,13.34-.96,19.99.38,17.28,1.92,34.43,5.05,51.5,2.77,15.1,3.43,30.46.78,45.76-.16.93-.02,1.9-.02,3.29,2.02-.95,3.51-2.12,5.08-2.26,1.82-.16,4.27-.01,5.46,1.08,2.67,2.43,5.73,3.63,8.95,4.98,7.54,3.15,11.07,9.66,12.62,17.24.99,4.87-2.14,9.44-7.05,10.63-3.34.8-6.81,1.12-10.24,1.45-3.2.31-6.43.32-9.64.53-.44.03-.86.44-1.23.64.62,2.96,2.16,6.1,1.59,8.79-.52,2.44-3.33,4.39-5.1,6.51,16.89,7.87,22.18,21.05,11.12,34.5,1.81,1.86,3.77,3.67,5.51,5.68,8.96,10.36,11.58,22.15,7.41,35.23-1.62,5.08-4.84,9.22-9.33,12.19-7.59,5.02-15.82,8.08-25.09,7.77-1.95-.07-3.91,0-6.85,0l.02.03ZM73.79,455.17c-11.36,5.83-22.63,8.63-34.49,5.05-7.87,10.88-6.89,28.86,1.82,38.08,4.16,4.41,9.48,6.66,15.33,5.97,4.56-.54,9.1-2.23,13.38-4.05,10.11-4.29,12.95-11.81,11.22-22.39-.87-5.33-2.62-10.53-4.19-15.72-.69-2.29-1.93-4.41-3.07-6.94ZM59.27,419.89c-8.43,1.08-15.72.6-21.88-1.43-4.99,7.52-6.45,15.68-3.82,24.39,1.39,4.61,5.02,7.53,9.72,8.16,8.27,1.11,16.26.2,23.43-4.76,2.75-1.9,5.06-3.92,5.59-8.4-4.07-5.61-8.53-11.77-13.03-17.96h0ZM31.13,373.6c-5.97.23-9.4,3.85-12.68,7.56-3.67,4.14-3.07,7.27,2.33,8.69,6.14,1.61,12.56,2.86,18.87,2.91,10.35.08,20.71-.82,31.05-1.52,4.58-.31,9.13-1.14,13.77-1.74-1.24-3.67-4.43-6.32-9.56-7.95-17.11,8.46-35.1,5.34-43.78-7.94h0ZM53.43,411.15c-2.29-2.78-4.13-5.02-6.01-7.3-1.97,0-3.93-.04-5.9.03-.42.02-.83.44-1.24.68,1.41,8.49,3.18,9.45,13.15,6.59Z"/>
  <path class="cls-1" d="M53.79,30.52c-3.35,7.7-7.43,14.98-8.34,23.6-.48,4.57-.11,8.73,1.63,12.9.91,2.17,2.68,4.28,1.2,6.9-5.59-1.04-9.14-5.05-9.88-11.67-.87-7.72-.1-15.29,3.13-22.48,1.92-4.28,3.83-8.57,5.87-12.8,2.38-4.94,4.06-10.04,4.36-15.55.05-.98.06-2.03.43-2.91.79-1.88,2.05-3.93,4.26-3.24,1.19.37,2.4,2.45,2.6,3.89.73,5.37,1.35,10.79,1.42,16.2.08,5.54.87,10.82,3.34,15.79,4.43,8.91,2.14,16.68-3.96,23.82-.24.28-.88.21-1.52.34.39-3.38.32-6.86,1.3-10.01,1.14-3.65.19-6.83-.85-10.1-1.55-4.85-3.27-9.65-4.99-14.68Z"/>
</svg>