<?xml version="1.0" encoding="UTF-8"?>
<svg id="Layer_1" data-name="Layer 1" xmlns="http://www.w3.org/2000/svg" version="1.1" viewBox="0 0 106.31 530.58">
  <defs>
    <style>
      .cls-1 {
        fill: #000;
        stroke-width: 0px;
      }
    </style>
  </defs>
  <path class="cls-1" d="M41.9,354.98c-2.37-5.76-4.52-10.77-6.48-15.84-2.12-5.47-5.12-10.15-10.28-13.29-4.91-2.99-7.06-7.62-6.9-13.25.12-4.23,2.1-6.1,6.35-7.23,4.1-1.08,8.11-2.48,12.53-3.86.03-2.09-.02-4.19.09-6.28.43-8.76.95-17.52,1.36-26.29.29-6.17.56-12.34.67-18.52.28-15.22-.02-30.47.85-45.65.61-10.6,2.57-21.14,4.31-31.65,2.88-17.35,4.83-34.66,4.37-52.37-.36-13.93-1.27-28.04,1.72-41.91.2-.93.16-1.93.49-2.79.87-2.24,1.79-4.46,4.83-4.5,2.78-.04,4.77,1.46,5.63,3.68,1.61,4.18,3.38,8.51,3.79,12.9,1.18,12.79,1.74,25.6.97,38.52-.71,12.09-.05,24.27.26,36.4.27,10.73,1.15,21.45,1.3,32.19.2,13.8-.08,27.6-.11,41.4,0,3.1.28,6.2.25,9.3-.13,14.03-.35,28.06-.49,42.09-.03,2.86.1,5.73.24,8.59.33,6.68,0,13.29-1.73,19.79-.28,1.05-.06,2.23-.08,3.96,5.24-1.52,10.33-1.78,13.46-6.72-2.23-3.94-5.7-7.45-5.08-13.56,3.89,1.91,7.39,3.18,10.38,5.2,5.3,3.6,6.7,8.72,3.37,14.27-2.53,4.21-6.25,7.73-9.53,11.47-4.82,5.49-9.8,10.85-13.38,17.84,6.85,4,11.39,9.36,12.9,16.68,1.45,7.09,1.21,14.2-1.41,21.09-3.67,9.64-14.61,17.16-25.24,17.07-.29,1.25-.81,2.57-.86,3.9-.23,6.41-.33,12.82-.49,19.23-.33,13.63-3.29,26.79-7.52,39.66-2,6.1-4.33,12.12-6.99,17.96-2.7,5.94-5.63,7.39-12.1,6.83,14.24-28.01,21.84-57.65,22.93-89.69-7.23-4.71-14.13-10.96-14.38-21.34-.23-9.68,3.44-18.08,9.99-25.27h0ZM59.68,320.63c-.99-4.91-2.63-9.46-2.71-14.05-.26-13.77.09-27.56.2-41.34.12-15.93.18-31.85.39-47.78.17-13.31.95-26.62.67-39.91-.34-15.94-.06-31.85.79-47.75.32-5.91,1.2-11.79,1.38-17.7.3-9.47.69-18.98-1.17-28.35-.44-2.24-.81-4.89-3.74-7-.56,5.25-1.43,9.67-1.42,14.08.02,13.09-.09,26.21.75,39.26.96,14.83-1.19,29.32-3.01,43.9-1.26,10.1-2.76,20.21-3.15,30.36-.61,16.14-.27,32.32-.57,48.48-.1,5.67-.86,11.32-1.41,16.98-.97,10.12-3.31,20.15-1.84,30.44.82,5.72-.13,11.36-1.22,16.97-.25,1.26-.33,2.55-.54,4.28l16.59-.86h0ZM53.17,352.32c-.39.74-.5,1.29-.83,1.51-6.77,4.5-10.09,11.19-11.79,18.81-1.83,8.21,1.19,15.06,8.34,19.47,4.81,2.96,7.32,2.95,11.69-.25,7.44-5.45,11-12.8,10.71-22.04-.23-7.22-3.08-12.77-9.65-16.23-2-1.05-3.78-2.53-6.65-4.49,3.41-.62,5.57-1.01,7.03-1.27.86-5.5,1.62-10.32,2.46-15.69-3.95.2-8.18.63-12.41.58-4.16-.04-8.32-.57-13.36-.94,2.02,3.88,3.75,6.71,4.99,9.73,1.24,3.03,2,6.27,2.98,9.46,2.17-.45,4.54-1.74,6.49,1.35ZM25.34,312.37c2.74,6.24,8.32,8.88,14.22,7.08-.71-4.38-1.41-8.7-2.11-13.01-4.15,2.03-7.93,3.88-12.11,5.93h0Z"/>
  <path class="cls-1" d="M25.73,480.51c-1.61,6.29-6.04,9.64-8.52,14.16-.91,1.66-2.18,3.16-2.92,4.88-1.43,3.32-.88,6.39,2.18,8.15,3.22,1.85,6.87,3.46,10.5,3.97,5.36.75,10.94,1.06,16.3.45,10.34-1.18,20.92-1.39,30.74-5.53,4.15-1.75,8.33-3.47,12.33-5.53,2.07-1.06,4-2.62,5.61-4.33,4.19-4.44,4.02-6.46-.41-10.59-2.09-1.95-4.17-3.91-6.25-5.88-.16-.15-.22-.42-.32-.63,5.92-.43,13.97,3.91,16.17,8.8.37.83.69,1.9.49,2.73-1.48,6.07-3.5,11.78-8.83,15.83-8.49,6.46-18.03,10.52-28.28,12.99-10.24,2.47-20.75,3-31.22,3.05-8.23.04-16.06-2.01-22.56-7.43-7.17-5.97-8.1-14.22-2.38-21.51,2.79-3.56,5.94-6.84,9.11-10.07,1.95-1.98,4.23-3.66,8.27-3.53v.02Z"/>
  <path class="cls-1" d="M63.6,404.34c.27.44.69.81.73,1.23,1.56,14.66,4.13,29.22,4.09,44.04-.02,5.7-.29,11.73,2.44,16.82,3.99,7.43,6.97,15.65,14.34,20.88,2.01,1.43,4.33,2.89,5.43,5.78-2.87,2.13-5.72,2.18-7.89.03-5.67-5.61-11.33-11.29-16.38-17.44-3.18-3.87-4.45-8.96-4.59-14.03-.18-6.4.18-12.82.09-19.22-.08-5.96-.43-11.91-.66-17.87-.22-5.48-.49-10.96-.65-16.44-.06-2.03.42-3.84,3.06-3.79h-.01Z"/>
  <path class="cls-1" d="M61.72,67.36c.12-.77.08-1.49.35-2.06,2.99-6.28,3.49-12.53,1.15-19.28-1.93-5.56-2.88-11.45-4.48-18.05-4.61,7.66-7.42,15.37-7.79,23.57-.15,3.41,2.34,6.94,3.74,10.69-1.57,1.41-3.17.43-4.42-1.09-3.91-4.73-5.01-10.27-3.6-16.09,1.17-4.82,2.82-9.55,4.56-14.2,2.24-6,4.78-11.89,7.21-17.83.35-.86.56-2.01,1.22-2.46.87-.59,2.17-.91,3.19-.75.57.09,1.24,1.38,1.33,2.18.12,1.13-.38,2.32-.39,3.49-.04,3.31-.49,6.72.16,9.9,1.82,8.8,4.13,17.5,6.24,26.24,1.68,6.94-1.32,12.62-8.47,15.74Z"/>
</svg>