<?xml version="1.0" encoding="UTF-8"?>
<svg id="Layer_1" data-name="Layer 1" xmlns="http://www.w3.org/2000/svg" version="1.1" viewBox="0 0 384.51 530.58">
  <defs>
    <style>
      .cls-1 {
        fill: #000;
        stroke-width: 0px;
      }
    </style>
  </defs>
  <path class="cls-1" d="M84.02,202.02c2.05.05,2.23,1.42,2.23,3.02.02,5.97.1,11.94.13,17.92.02,4.09.51,8.22-.85,12.22-.22.64.13,1.18.93,1.2.12,0,.26.05.36,0,3.35-1.24,6.72.08,10.09-.05,2.59-.1,3.38,1.03,2.79,3.67-.26,1.17-.52,2.38-.99,3.47-.69,1.61-1.86,2.17-3.54,1.69-.6-.17-1.22-.76-1.5-1.33-.13-.25.45-1.17.89-1.34,1.75-.68,2.1-2.1,2.23-3.89-3.24.05-6.4-.39-9.69-.2-6.68.4-13.4.12-20.1.15-1.56,0-3.2-.18-4.58,1.04,1.08,2.41,3.26,3.17,5.57,3.3,2.41.13,4.89.06,7.26-.34,4.82-.81,9.41.21,14.01,1.3.81.19.69,1,.07,1.34-1.04.57-2.16,1.34-3.27,1.36-5.95.13-11.89.06-18.02.06.08-.18-.09.03-.11.25-.09,1.17-.61,2.69-.08,3.41.54.72,2.14.71,3.29.92,4.45.82,8.9.87,13.37.03,1.54-.29,3.16-.15,4.73-.32,2.13-.23,4.14-.68,4.34-3.43.02-.25.39-.47.6-.7.27.34.73.64.79,1.02.35,2.13-.8,3.6-2.57,4.35-1.17.49-1.84.89-1.76,2.24.1,1.65-1.16,2.27-2.41,2.84-3.62,1.63-7.4,2.22-11.37,1.83-1.37-.13-1.83.37-1.62,1.65.07.43.64,1.1,1.01,1.11,3.12.12,6.24.12,9.36.13,1.39,0,1.88-.75,1.72-2.07,0-.05.92-.38,1.04-.24.48.53.86,1.17,1.19,1.82.47.91.27,1.7-.71,2.1-1.23.5-2.49,1.19-3.76,1.25-1.84.09-2.34,1.17-2.37,2.57-.09,3.53-.19,7.08.03,10.6.21,3.37.88,6.72,1.23,10.08.85,8.25,2.63,16.24,6.31,23.74.4.81.75,1.34,1.79,1.47,1.93.25,3.81.19,5.73.01,1.9-.17,3.83-.04,5.96-.04-.23-1.58-.53-3.33-.72-5.09-.18-1.69-.18-3.4-.36-5.09-.34-3.23-.87-6.41-.59-9.72.49-5.81.63-11.65.84-17.48.04-1.15.24-2.01,1.12-2.9,2.15-2.2,1.55-4.93-1.21-6.38-3.71-1.94-4.91-4.69-3.93-8.73.84-3.49,2.65-6.52,4.49-9.5,2.21-3.57,3.86-7.26,4.13-11.5.02-.33.5-.64.76-.96.21.39.58.77.61,1.17.33,3.83-.43,7.5-1.94,11-.91,2.12-1.95,4.18-3.01,6.23-.87,1.69-1.12,3.48-.94,5.31.08.78.5,1.59.95,2.27.5.76,1.03.85,1.52-.18.5-1.05,1.26-1.14,1.74.04.34.83.9,1.35,1.61.84.61-.44,1.22-1.32,1.25-2.03.03-.9-.52-1.83-.83-2.75-.55-1.67-1.11-3.35-1.77-5.36,5.3,2.85,7.2,7.5,4.84,11.48-.7,1.18-1.99,2.06-3.12,2.94-1.48,1.17-1.66,4.53.04,5.18,3.23,1.24,3.83,3.91,4.05,6.7.4,5.3.63,10.62.75,15.93.1,4.02.56,7.97,1.21,11.94.32,1.97.06,4.05.06,5.81,3.49,0,7.22-.04,10.96.02,1.98.03,2.74.95,2.35,2.74-.11.51-.66.93-1.01,1.4-.35-.29-.68-.63-1.06-.87-.56-.37-1.16-.96-1.74-.95-3.02.05-6.05.42-9.07.36-4.7-.09-9.3,1.6-14.1.4-2.03-.51-4.34,0-6.52.19-1.8.16-3.57.57-5.37.76-.35.04-1.07-.41-1.07-.63,0-2.49-1.78-4.18-2.75-6.2-2.19-4.54-3.29-9.36-4.01-14.28-1.09-7.45-1.99-14.93-1.52-22.49.13-2.05.45-4.09.65-6.14.09-.88.11-1.75-1.17-1.78-1.1-.02-1.79.17-1.87,1.56-.35,5.81-1.3,11.62-1.13,17.41.26,9.07,1.16,18.13,3.58,26.94,1.62,5.92,5.05,10.43,10.42,13.43.63.35,1.3.97,1.84.03.44-.76,1.34-1.51.37-2.58-1.05-1.16-1.99-2.44-3.17-3.91,1.62-.22,2.58.65,3.4,1.49,2.46,2.54,5.51,2.76,8.73,2.39.84-.1,1.67-.31,2.51-.39,5.55-.51,11.12-.9,16.65-1.56,1.34-.16,2.62-1.1,3.85-1.8.59-.33,1.01-1.22,1.73-.29.63.81.47,1.65-.31,2.24-.67.51-1.44.88-2.19,1.29-.64.35-1.29.65-1.94.98.59.81,1.25,1.49,1.62,2.3.22.47.18,1.57-.06,1.67-2.59,1.12-1.31,4.21-3.05,5.8-.82.75-.21,1.46.82,1.81,3.31,1.13,6.58,2.53,10.1,2.7,2.5.12,4.56,1.14,6.96,2.1-1.85,1.7-3.86,1.08-5.68.82-4.74-.66-9.11-2.36-13.01-5.2-.35-.26-1.13-.25-1.55-.04-1.19.59-2.3,1.34-3.5,2.07.15.26.35.54.48.84.7,1.62,1.58,2.42,3.66,2.66,4.05.46,8.01,1.73,12.02,2.58,2.61.56,4.45,2.13,5.72,3.96,2.04-4.7,3.92-9.56,6.26-14.19,1.6-3.16,3.93-6.11,7.79-6.55,4.09-.47,8.19-.34,11.53,2.78,3.66,3.42,6.16,7.46,7.2,12.38.7,3.31,1.41,6.61,2.16,9.91.21.93.57,1.83.95,3.02,1.96-2.79,3.76-5.42,8.07-5.16-.98.73-1.5,1.13-2.04,1.51-1.88,1.31-3.09,3.04-3.57,5.3-.51,2.39.71,4.53,3.09,4.75,2.27.21,4.61.27,6.86-.02,3.42-.43,4.72-3.02,3.24-6.08-.96-2-2.51-3.48-5.05-4.32,3.28-1.28,5.25.06,7.11,2.36,1.87-7.06,4.45-13.54,7.68-19.77,1.53-2.95,3.39-5.65,5.94-7.79,1.2-1,2.52-1.99,3.96-2.52,5.48-2.02,8.6-.64,10.91,3.87,1.92,3.73,2.52,7.83,3.2,11.87.86,5.13,1.52,10.29,2.12,15.46.63,5.42,1,10.86,1.63,16.28.57,4.93,1.36,9.85,3.49,14.4.77,1.64,1.65,3.28,2.77,4.69,2.98,3.71,8.11,3.03,10.04-1.26.14-.3-.08-.84-.28-1.19-.17-.29-.54-.49-.85-.68-4.74-2.76-7.63-7.04-9.66-11.97-1.47-3.58-2.87-7.19-4.24-10.81-.33-.86-.42-1.81-.25-2.84,1.79,3.48,3.57,6.96,5.37,10.43.89,1.72,1.77,3.46,2.73,5.15,2.01,3.5,5.44,5.48,8.56,7.78.17.13.62.2.65.14.45-.82.91-1.65,1.2-2.53.07-.21-.48-.68-.82-.95-.28-.22-.63-.38-.98-.48-5.05-1.43-7.87-5.01-9.48-9.76-2.43-7.2-3.66-14.57-3.1-22.19.03-.36-.03-.77.12-1.08.13-.26.5-.39.76-.58.12.18.34.36.36.56.28,2.28.59,4.56.79,6.85.48,5.38,2.39,10.37,4.38,15.3.62,1.54,1.74,2.92,2.8,4.24,1.36,1.71,2.88,3.29,4.35,4.92,1.06,1.17,1.85,1.12,2.37-.41,1.35-4.01,2.67-8.03,3.71-12.13.99-3.9.76-7.96.86-11.96.08-3.02.45-6.04.76-9.06.07-.71.52-1.42-.39-1.88-1.4-.7-1.46-2.04-1.04-3.15.56-1.46-.38-1.93-1.01-2.91-1.96-3.04-5.87-4.52-6.68-8.42-3.34-2.02-1.87-4.13-.12-6.26.5-.6.26-1.04-.36-1.45-1.41-.93-2.74-2.01-4.18-2.89-2.48-1.52-2.86-3.9-2.3-6.32.25-1.05.27-1.81-.16-2.67-2.63-5.25-3.89-10.95-4.97-16.63-1.34-7-2.19-14.1-3.1-21.17-.64-5.04-1.04-10.12-1.52-15.18-.47-4.94-1.1-9.88-1.33-14.84-.41-8.75-.47-17.51-.86-26.26-.17-3.74-.81-7.46-1.22-11.18-.29-2.65-.6-5.3-.84-7.95-.54-5.91-1.4-11.77-2.96-17.5-1.07-3.94-2.94-7.44-6.01-10.22-.54-.49-1.15-.9-1.7-1.38-.52-.45-2.03.03-1.42-1.36.09-.2,1.55.02,2.27.32,4.22,1.76,6.5,5.35,8.33,9.25,2.08,4.43,2.81,9.24,3.67,14,.81,4.52,1.46,9.07,2.05,13.63.42,3.25.77,6.51.88,9.78.34,9.49.45,18.98.85,28.47.2,4.72.84,9.41,1.26,14.12.28,3.14.46,6.29.77,9.43.74,7.47,1.28,14.98,2.37,22.4,1.08,7.39,2.27,14.8,4.64,21.95.44,1.32.88,2.03,2.44,1.9,3.62-.31,7.26-.45,10.89-.64,1.6-.08,1.9-.32,1.64-2-1.5-9.94-.28-19.93-.62-29.89-.03-.94.41-1.88.54-2.83.41-2.94,1.63-5.08,5.2-5.03-1.62-3.6.41-5.89,2.51-8.68.6,2.47,1.2,4.37.55,6.61-.56,1.93.15,2.54,2.19,2.8,2.37.3,2.39.3,2.83,2.3.7,3.11.75,6.18.2,9.37-.48,2.73-.35,5.58-.35,8.38,0,4.75-.01,9.51.2,14.26.07,1.64-1.35,3.71.17,4.76,1,.69,2.96-.03,4.49-.06,1.58-.02,3.3-.34,4.72.15,1.76.62,2.42.06,2.95-1.41,1.1-3.08,2.15-6.17,2.27-9.49.14-3.64.51-7.27.5-10.9,0-3.39-.57-6.79-.53-10.18.05-3.5.53-7,.86-10.5.02-.23.41-.43.63-.65.18.27.49.52.53.81.75,5.03,1.93,9.99,1.76,15.15-.09,2.89.45,5.8.53,8.71.18,6.95-1.3,13.48-5.08,19.42-.33.52-.48,1.37-.3,1.95.49,1.56-.19,2.61-1.28,3.48-.85.68-1.83,1.19-2.75,1.77-1.32.82-2.61,1.69-3.98,2.43-.68.36-1.5.47-2.25.69.07-.78.13-1.56.2-2.34.02-.24.05-.48.1-1.07-2.01-.25-4.02-.73-6.04-.71-3.76.03-7.51.39-11.27.54-1.58.06-3.16-.03-4.74-.1-.13,0-.35-.33-.35-.51s.19-.48.35-.52c1.3-.29,2.6-.69,3.91-.77,6.3-.36,12.58-1.37,18.92-.88.95.07,1.87.45,2.82.57.83.1,1.77.27,2.5-.01.7-.28,1.19-1.1,1.77-1.69-.56-.45-1.05-1.06-1.69-1.3-.88-.33-1.87-.49-2.82-.51-5.6-.07-11.21-.14-16.81-.07-1.67.02-3.33.59-5.01.78-2.89.33-5.8.54-8.69.83-.82.08-1.62.3-2.99.56.9.96,1.56,1.58,2.11,2.28.6.76,1.07,1.63,1.68,2.38,1.43,1.77,3.33,2.5,5.51,1.89,4.01-1.12,7.94-.56,11.87.27.54.11,1.01.51,2.21,1.14-4.01.35-7.25.56-10.46.95-2.15.26-4.28.71-6.38,1.21-.43.1-.71.83-1.07,1.27.44.14.87.39,1.31.39,4.51.03,9.02.03,13.53.03,2.68,0,5.36,0,8.04-.03.61,0,1.24.01,1.81-.16.42-.12.75-.53,1.12-.81-.24-.23-.49-.44-.71-.69-.32-.36-.69-.7-.88-1.12-.07-.15.38-.76.48-.73,1.26.35,2.73.5,3.67,1.28.63.53.48,1.97.68,3.01l.09-.1-.83.83.07-.09c-.67.27-1.32.6-2.01.8-1.25.37-1.69.88-1.31,2.37.44,1.72-.46,3.3-1.82,4.47-.92.79-1.93,1.48-2.88,2.23-.52.41-.59.74-.19,1.46,1.23,2.23.86,3.5-1.52,3.94-1.82.34-2.08,1.16-2.15,2.67-.07,1.69-.58,3.36-.55,5.04.07,5.37-.99,10.61-1.65,15.9-.55,4.43-1.46,8.82-2.01,13.26-.71,5.67-2.73,10.82-6.03,15.4-1.31,1.83-3.25,3.25-5.04,4.68-1.66,1.33-3.69,1.84-5.82,1.66-2.41-.2-4.85-.33-7.21-.82-2.32-.48-4.16-1.98-5.61-3.85-4.61-5.97-7.58-12.72-9.02-20.08-.96-4.87-1.57-9.8-1.61-14.81-.03-4.23-.53-8.46-.84-13.01-.64.61-1.26,1.07-1.71,1.66-4.16,5.45-6.39,11.58-6.95,18.44-.34,4.2-1.28,8.36-1.91,12.54-.16,1.08-.23,2.18-.22,3.27,0,1.31.14,2.62.22,3.94,1.28-.11,2.55-.23,3.83-.31.71-.04,1.42,0,2.43,0-.88,1.72-1.97,2.65-3.65,2.86-3.6.46-7.19,1.08-10.8,1.35-3.52.26-7.06.15-10.6.24-4.86.13-9.71.36-14.57.43-6.18.09-12.35-.03-18.44-1.3-1.84-.38-3.24.46-5.04,1.97,2.05.39,3.54.76,5.06.95,7.15.9,14.33.63,21.51.65,6.81.03,13.59-.44,20.36-1.24,2.29-.27,4.63-.07,6.94-.21,2.54-.16,5.08-.39,7.6-.73,1.16-.16,2.45-.4,2.63-2.03.02-.23.78-.64.97-.54,1.66.86,2.02,2.93.71,4.19-.6.57-1.33,1.11-2.1,1.36-1.84.58-3.72,1.17-5.63,1.4-3.62.42-7.27.53-10.89.88-3.26.31-6.5.76-9.75,1.12-1.09.12-2.18.24-3.27.25-6.7.03-13.41.23-20.1-.03-4.21-.17-8.4-1.04-12.6-1.61-.35-.05-.68-.37-1.02-.36-.44.02-.87.23-1.31.36.24.49.36,1.29.73,1.43,1.68.64,3.4,1.38,5.16,1.59,12.24,1.45,24.54.59,36.82.66,4.82.03,9.77-.37,14.43-1.52,2.89-.71,5.9-1.07,8.74-2.04.3-.1.64-.11.96-.16.15,1.84,2.34,1.96,2.9,3.45.49,1.29.24,2.47-.83,3.28-.95.73-2.02,1.37-3.14,1.8-1.58.61-2.29,1.73-2.36,3.3-.42,9.22-4.75,16.71-10.69,23.34-3.83,4.27-8.5,7.3-14.67,6.86-1.09-.08-2.2-.06-3.29.03-1.17.09-2.7-.1-3.39.56-1.08,1.03-1.79,2.59-2.26,4.06-.51,1.59-.51,3.34-.85,5-.72,3.47-2.38,4.47-6,3.8-.35-.07-.77.18-1.15.28.1.33.11.74.31.99,1.59,1.98,3.84,2.49,6.49.94,1.39-.81,1.95-1.13,3.19.26,1.52,1.71,3.41,1.53,5.12-.01.81-.73,1.46-1.64,2.23-2.42,1.29-1.31,1.53-1.35,3.02-.16,2.26,1.82,4.65,2.54,7.4,1.2.22-.11.53-.17.62-.35.25-.49.4-1.02.6-1.54-.51-.19-1.02-.51-1.54-.54-.72-.03-1.44.15-2.16.25-1.74.24-3.08-.42-4.13-1.78-2.14-2.78-3.14-5.71-1.11-9.32.86,2.02,1.64,3.79,2.37,5.57.78,1.89,2,3,4.2,2.63.47-.08.98-.05,1.46.02,1.72.25,2.98,1.42,3.2,3.01.22,1.6-.37,2.83-1.78,3.68-2.81,1.7-5.71,1.73-8.74.68-.61-.21-1.49-.5-1.9-.23-.78.5-1.36,1.36-1.93,2.14-.11.15.16.65.35.93.48.7,1.54,1.45,1.44,2.01-.57,3.3,1.97,5.56,2.61,8.44.73,3.32,1.11,6.48-1.23,9.34-.58.71-.49,1.32.22,1.86,6.71,5.06,7.93,12.7,9.65,20.18,1.05,4.56.48,8.96-.89,13.25-1.71,5.34-4.81,9.52-10.66,10.96-7.03,1.73-12.13-.12-15.18-6.49-2.3-4.8-3.83-9.79-3.19-15.12.66-5.59,2.66-10.81,5.74-15.55,1.25-1.92,2.72-3.71,4.14-5.52.51-.65.63-.91-.04-1.7-3.81-4.44-3.08-8.06-.51-13.09.68-1.33,1.5-2.4.86-4.01-.25-.62-.27-1.6.06-2.15,1.15-1.9-.08-2.75-1.25-3.9-1.05-1.03-1.62-1.65-3.27-.61-2.63,1.66-5.91.47-7.53-2.2-1.28-2.12,0-4.51,2.48-4.61,2.84-.11,2.86-.11,3.64-2.76.51-1.73.86-3.52,1.5-5.21.44-1.17,1.25-2.19,1.89-3.28-1.2-.17-2.41-.27-3.59-.52-1.77-.37-3.52-.86-5.29-1.24-4.06-.89-7-3.26-9-6.84-2.13-3.82-4.31-7.62-6.27-11.53-1.25-2.49-2.35-5.12-1.97-8.02.19-1.49-.43-2.23-1.73-2.65-.23-.07-.46-.17-.66-.3-2.31-1.45-2.57-2.87-.92-5.05.28-.38.6-.73.75-.92-.88-.99-1.88-1.77-2.41-2.79-.65-1.26.89-2.25.94-3.26.04-.99-1.45-1.97-.94-3.29.25-.65.71-1.4,1.28-1.7,1.98-1.01,3.86-2.48,6.4-1.34,1.2.54,1.74,0,1.67-1.42-.16-3.27-.57-6.53-.56-9.79.02-3.88.6-7.76.51-11.64-.08-3.63-.77-7.24-3.01-10.3-1.6-2.18-3.49-4.04-5.98-5.3-1.65,7.75-3.21,15.4-4.92,23.01-1.61,7.14-3.98,13.97-8.65,19.8-2.87,3.58-6.53,6.16-11,6.42-4.27.24-8.81-.14-11.41-4.72-.89-1.57-1.04-1.4-2.75-.49-5.45,2.91-11.25,4.57-17.46,4-3.88-.35-7.56-1.65-10.9-3.72-.25-.16-.35-.57-.52-.87.31-.09.69-.33.92-.23,7.4,3.09,15.03,2.05,22.61,1.1,1.86-.23,3.64-1.26,5.41-2.05.39-.17.84-.92.77-1.31-.99-5.32-2.07-10.63-3.12-15.94-5.63,8.47-13.1,14.22-23.36,15.82-3.23.5-6.47,1.22-9.7,1.22s-6.28-.57-9.31-1.33c-7.3-1.82-14.4-4.06-20.69-8.54-5.56-3.96-9.49-8.83-11.58-15.38-1.78-5.58-2.97-11.2-3.36-17.04-.25-3.74-.9-7.44-1.3-11.17-.09-.9-.52-1.29-1.28-1.5-2.22-.6-4.19-1.39-4.07-4.29.02-.41-.67-1.02-1.16-1.24-2.17-.98-2.56-2.77-2.32-4.85.06-.54.34-1.5.57-1.51,1.17-.07.7.96.81,1.57.35,1.8.57,3.67,2.86,4.13.77.15.29.61.28,1.04-.03,1.96.8,3.04,2.61,3.19,1.57.13,3.18.12,4.74-.07,2.26-.27,4.5-.73,6.74-1.16.92-.18,1.51.27,1.62,1,.07.44-.46,1-.79,1.46-.11.15-.44.17-.67.22-.81.15-2.04.02-2.35.49-.46.71-.43,1.86-.32,2.78.43,3.48.77,6.99,1.52,10.4.97,4.36,2.28,8.65,3.5,12.95,2.11,7.49,7.19,12.22,14.22,15.05,5.06,2.03,10.28,3.69,15.7,4.2,2.97.28,6.13.03,9.02-.71,5.89-1.51,11.57-3.69,16.38-7.61,1.31-1.07,2.59-2.21,3.76-3.43,1.85-1.93,3.54-4.01,5.41-5.93,1.44-1.48,2.16-3.07,2.12-5.2-.11-4.99-.05-9.99,0-14.99.01-1.4-.02-2.38-1.72-3.06-2.08-.84-2.73-2.47-1.81-4.9.72-1.91,0-2.58-1.28-3.53-1.15-.85-2.14-1.93-3.14-2.96-.36-.36-3.24-3.67-3.65-3.91-.72-.44-1.42-.93-2.18-1.28-7.24-3.35-10.95-9.36-12.51-16.87-.93-4.49-1.44-9.07-2.3-13.57-1.14-5.93-.67-11.89-.61-17.84.04-3.62.62-7.23,1.02-10.84.07-.6.45-1.27-.41-1.45-1.09-.22-2.46-.28-2.67-1.5-.24-1.37-.32-3.03.25-4.23.57-1.19.61-1.69-.29-2.66-1.61-1.74-2.69-3.9-5.29-4.68-1.53-.46-1.48-2.02-.7-3.37.82-1.41.42-2.28-.94-3.2-1.69-1.15-3.29-2.52-4.66-4.04-1.8-2-1.16-3.89,1.42-4.68.79-.25,1.67-.27,2.52-.28,2.68-.05,5.36-.11,8.04-.04,1.32.03,1.6-.46,1.58-1.72-.07-4.63.04-9.26-.03-13.89-.03-1.69-.57-3.37-.53-5.05.1-3.88.39-7.75.67-11.63.12-1.55.93-2.73,2.4-3.38.67-.29,1.44-.46,1.98-.9.38-.31.67-1,.63-1.5-.03-.47-.45-1.1-.87-1.3-1.18-.59-2.58-.8-3.67-1.51-2.88-1.86-3.96-5.51-3.21-9.41.77-4.04,2.59-7.57,5-10.8,2.66-3.57,4.37-7.57,5.46-11.81.47-1.83.15-3.86.24-5.79.01-.24.33-.51.58-.65.08-.05.5.21.54.38.2.94.42,1.89.46,2.85.15,4.44-.82,8.67-2.72,12.67-1.15,2.41-2.43,4.77-3.58,7.18-1.22,2.54-2.05,5.22-1.78,8.07.1,1.02.53,2.11,1.14,2.93.43.59,1.39.78,2.12,1.15.31-.64.76-1.25.9-1.93.33-1.53.46-3.1.77-4.64.07-.35.49-.63.75-.94.25.39.69.76.73,1.17.16,1.81.22,3.63.32,5.77,3.95-2.99,2.8-6.67,2-10.28,3.91.99,5.66,3.66,4.84,7.3-.75,3.34-2.2,6.17-5.61,7.54-.44.18-.89.43-1.24.75-1.17,1.06-1.1,2.5.11,3.66.43.41.78.89,1.17,1.34-3.15.17-2.41,3.06-3.24,4.84-1.43-.65-.96-1.89-1.17-2.9-.08-.4-.42-.74-.64-1.11-.46.32-1.04.55-1.35.98-.25.35-.22.92-.25,1.4-.24,3.87-.48,7.73-.69,11.6-.22,4.11-.39,8.22-.64,12.33-.14,2.29-.39,4.57-.59,6.86,2.38.16,4.76.33,7.14.46.33.02.68-.17,1.25-.33-2.87-8.21-2-16.47-.71-24.76.48-3.09.6-6.24.88-9.37l-.03-.02ZM151.21,409.18c1.09,2.84,2.15,5.36,3.78,7.66,2.31,3.26,4.49,6.63,6.72,9.95,1.91,2.84,4.4,4.95,7.85,5.45,5.38.78,10.73,1.8,16.24,1.61,3.29-.11,6.19-.99,8.88-2.78,8.32-5.55,13.16-13.35,15.04-23.09.15-.78-.16-1.2-.91-1.13-1.8.18-3.59.54-5.4.65-4.6.28-9.21.49-13.81.68-7.04.3-14.07.63-21.11.82-4.86.13-9.73.03-14.6.05-.82,0-1.64.08-2.68.13h0ZM193,387.4c-1.96-4.17-1.53-8.57-1.21-12.89.31-4.08,1.3-8.11,1.89-12.17,1.26-8.58,4.06-16.69,7.57-24.55.97-2.17,2.43-4.33,4.2-5.88,3.16-2.77,5.51-2.2,7.61.24,1.08,1.25,2.14,2.75,2.53,4.31,1.16,4.56,2.45,9.16,2.81,13.82.57,7.38,1.26,14.73,2.44,22.03,1.32,8.15,4.19,15.68,9.47,22.17,3.82,4.69,10.75,5.28,15.25,1.23,5.2-4.68,7.85-10.67,8.89-17.47.71-4.66,1.42-9.31,2.1-13.97.31-2.15.62-4.31.82-6.48.43-4.71.8-9.42,1.14-14.14.03-.36-.25-1.01-.51-1.09-2.09-.63-3.54.41-3.64,2.57-.25,5.22-.47,10.44-.71,15.65-.04.85-.06,1.7-.18,2.54-.92,6.13-2.67,12.06-5.02,17.77-1.29,3.13-2.91,6.15-4.68,9.03-2.48,4.03-5.4,4.12-9.13,3.18-3.44-.87-5.45-3.55-6.99-6.52-3.01-5.81-3.96-12.16-4.61-18.57-.38-3.74-.45-7.52-.91-11.25-.84-6.84-1.77-13.68-2.87-20.49-.52-3.21-1.14-6.45-2.8-9.35-1.83-3.2-3.89-3.87-7.31-2.35-2.18.97-4.02,2.42-5.16,4.47-2.06,3.71-4.1,7.45-5.81,11.33-4.52,10.22-5.64,21.25-7.34,32.12-.69,4.42-1.05,8.9-1.57,13.35,0,.12,0,.29-.06.35-.24.21-.49.43-.78.55-.08.03-.37-.26-.45-.45-.18-.44-.28-.9-.65-2.18-.13,1.91-.27,2.99-.25,4.06.02,1.37.36,1.55,1.86,1.39,3.97-.43,7.94-.93,11.93-1.2,2.19-.15,2.92-.31,2.28-2.89-.78-3.2-1.15-6.37-.71-9.66.37-2.76.43-5.57.91-8.31.52-2.97,1.14-5.95,2.12-8.8,1.6-4.68,4.36-8.67,8.3-11.75.53-.42,1.58-.54,1.72-1,.22-.73-.08-1.64-.23-2.46-.11-.58-.34-1.15-.6-1.98-1.18.86-2.26,1.6-3.29,2.41-3.98,3.13-6.28,7.46-7.91,12.06-2.39,6.74-4.15,13.65-4.68,20.84-.2,2.76-.74,5.51-1.28,8.23-.16.8.37,2.31-1.07,2.21-.44-.03-.86-1.57-1.14-2.47-.17-.56-.11-1.21-.07-1.82.2-2.66.62-5.31.61-7.97-.02-4.8,1.06-9.39,2.35-13.93,1.66-5.85,3.66-11.57,7.72-16.33,1.72-2.02,3.68-3.42,6.28-4.03,2.63-.62,2.75-.82,1.98-3.35-.35-1.15-.86-2.29-1.52-3.29-1.71-2.61-4.31-2.7-6.3-.23-.76.94-1.47,1.97-1.94,3.07-1.67,3.9-3.51,7.75-4.75,11.79-1.7,5.53-3.02,11.19-4.28,16.85-.76,3.41-1.25,6.91-1.62,10.39-.4,3.73-.51,7.48-.74,11.22v.04ZM171.11,388.9v-1.78c.02-5.6-.06-11.21.08-16.81.2-8.05-.52-15.99-2.36-23.82-.88-3.76-1.49-7.63-3.56-11-1.98-3.24-4.02-6.63-8.13-7.31-6.32-1.04-8.39-.76-11.56,4.23-2.82,4.45-4.7,9.32-5.93,14.39-1.45,5.98-2.5,12.05-3.83,18.06-.83,3.76-1.68,7.53-2.83,11.21-1,3.22-2.46,6.3-3.66,9.46-.81,2.12-2.23,3.76-3.93,5.16-2.78,2.29-8.41,2.61-10.44-2.22-.66-1.56-1.2-3.16-1.77-4.76-1.11-3.12-1.36-6.37-1.56-9.66-.3-4.96-1.08-9.89-1.26-14.85-.18-4.82-1.13-9.66-.01-14.49.08-.35.05-.73.03-1.09-.03-.75-.4-1.09-1.17-.92-.71.16-1.41.36-2.13.44-.95.11-1.19.68-1.17,1.49.05,2.31-.02,4.64.18,6.94.62,7.12,1.31,14.24,2.04,21.35.48,4.7.96,9.41,1.66,14.08.47,3.14,1.61,6.05,3.9,8.46,1.51,1.59,3.22,2.44,5.37,2.66,4.38.46,7.44-1.88,10.06-4.86,3.67-4.17,6-9.17,7.45-14.45,2.42-8.85,4.6-17.77,6.02-26.85.75-4.8,2.19-9.42,4.59-13.7,1.04-1.85,2.39-3.34,4.23-4.41,4.39-2.57,10.71-1.53,12.44,4.18.84,2.78,1.97,5.44,2.22,8.4.25,2.88.94,5.72,1.33,8.6.13.94.54,1.46,1.29,2.01,2.07,1.54,2.47,3.23.78,4.78-1.42,1.29-1.42,2.63-1.41,4.23.04,6.21.03,12.43.02,18.64,0,.85,0,1.72-.14,2.55-.49,2.79-.51,2.78,2.08,2.8.73,0,1.47-.07,2.19,0,1.43.12,1.92-.49,1.89-1.9-.09-4.14-.19-8.29-.05-12.43.07-2.03.63-4.04,1.08-6.04.06-.28.74-.49,1.17-.58.11-.02.5.52.5.8-.05,3.04-.05,6.08-.28,9.1-.25,3.25-.76,6.48-1.06,9.73-.03.38.53,1.01.95,1.19.53.21,1.2.04,1.81.08,1.29.1,1.69-.54,1.67-1.75-.06-3.17-.08-6.34-.04-9.5.03-2.68-.13-5.4.33-8.01.26-1.47.02-1.98-1.23-2.33-.47-.13-.97-.21-1.38-.44-1.29-.73-2.43-1.65-2.77-3.19-.1-.44.09-.93.14-1.4.38.16.93.22,1.12.51,1.19,1.83,3.07,2.52,5.01,2.46,1.9-.06,3.81-.66,5.66-1.2,1.79-.52,1.76-.62,1.68-3.17-5.08,1.41-10.12,2.24-15.26-1.21,0,4.95.62,9.79-.17,14.39-.79,4.58.47,9.36-1.83,13.73l-.05.02ZM133,368.64c-2.21,4-4.12,7.58-6.14,11.09-1.53,2.67-3.63,4.87-6.19,6.59-.35.24-.87.22-1.31.32.1-.41.07-.96.32-1.21,2.93-2.84,4.93-6.32,6.62-9.95,2.65-5.7,4.98-11.56,7.77-17.19,1.48-2.98,2.39-6,2.74-9.26.08-.72.18-1.08-.51-1.75-2.44-2.37-5.37-3.25-8.59-3.32-3.71-.08-7.26-.55-10.22-3.06-.69-.59-1.21-.57-1.81.15-.29.35-.79.54-1.21.77-2.12,1.18-2.06,1.16-1.69,3.25.44,2.5,1.03,5,1.1,7.52.22,7.89.79,15.75,1.45,23.61.28,3.43.92,6.7,2.14,9.89,1.2,3.12,2.3,3.8,5.5,3.23,1.79-.32,3.15-1.28,3.91-2.94,1.46-3.19,2.95-6.37,4.25-9.63.97-2.43,1.85-4.93,1.86-8.11h0ZM171.7,504.75c-.18,4.53,1.49,9.38,4.43,13.86,1.22,1.86,3.04,2.83,5.15,3,5.74.46,10.32-2.16,12.41-7.52,1.6-4.11,2.25-8.27,1.6-12.76-1.04-7.25-3.75-13.75-7.82-19.76-.47-.69-.97-.92-1.84-.54-1.09.48-2.29,1.11-3.4,1.05-2.02-.11-3.31.82-4.18,2.34-3.44,6.04-6.34,12.28-6.35,20.33h0ZM103.49,365.01c-.88,1.23-1.64,2.16-2.25,3.18-3.99,6.74-9.8,11.38-16.92,14.38-6.18,2.61-12.48,4.35-19.4,3.21-7.01-1.16-13.62-3.27-19.77-6.78-4.5-2.57-7.72-6.36-9.38-11.23-3.09-9.07-5.46-18.31-5.15-28.03.07-2.28-.39-2.64-2.43-2.18-1.89.43-2.32,1.06-1.88,3.15.85,4.14,1.74,8.26,2.67,12.38.77,3.41,1.53,6.83,2.43,10.21,2.75,10.27,9.61,16.98,19.05,21.13,4.06,1.78,8.44,2.88,12.72,4.11,3.26.94,6.63,1.65,10.03,1.3,4.81-.49,9.64-1.13,14.13-3.04,2.43-1.03,4.94-2.22,6.93-3.91,3.25-2.74,6.12-5.92,9.1-8.96.48-.49.99-1.25.96-1.86-.14-2.25-.51-4.49-.83-7.08v.02ZM262.39,309.46c-1.35-2.65-1.52-5.26-1.29-7.93.24-2.77.37-5.55.61-8.32.18-2.16.46-4.31.67-6.47.31-3.12.76-6.24.88-9.37.19-5.33.1-5.33-5.04-5.8-2.16-.19-2.82.2-3.48,2.29-.22.68-.3,1.42-.33,2.13-.22,5.08-.44,10.16-.59,15.24-.09,3.13-.08,6.23.38,9.39.41,2.83-.38,5.83-.64,8.83h8.85-.02ZM162.3,371.55h.03c0,3.29-.08,6.58.03,9.86.08,2.54.39,5.07.63,7.6.12,1.26,1.1,1.08,1.93.99,1.09-.12.52-.81.38-1.31-1.49-5.46-.8-11.1-1.37-16.65-.5-4.82-.02-9.73-.18-14.6-.14-4.24-.38-8.49-.92-12.69-.29-2.24-1.11-4.47-2.01-6.56-1.15-2.66-3.16-3.6-5.94-2.96-2.32.53-4.17,1.75-5.38,3.96-1.07,1.96-1.17,1.87.85,2.65.67.26,1.3.65,1.89,1.06,6.17,4.29,9.6,10.18,10.01,17.69.2,3.64.03,7.3.03,10.95h.02ZM156.52,379.97h-.21c0,2.8.03,5.6-.02,8.4-.02,1.27.54,1.76,1.75,1.69.48-.03.97.02,1.46,0,2.26-.04,2.37-.15,1.62-2.25-1.28-3.58-1.8-7.24-1.81-11.05,0-6.06.27-12.13-.68-18.18-.89-5.62-3.32-10.4-7.43-14.22-3.06-2.85-3.34-2.67-4.67,1.19-.24.69-.46,1.38-.67,2.07-.51,1.71-.47,1.95,1.22,2.08,1.47.12,2.53.75,3.45,1.76,2.86,3.13,4.72,6.8,5.06,11.03.46,5.81.63,11.63.93,17.45v.03ZM109.54,274.15c-1.43,2.92-1.46,2.93-2.87,1.04-.07-.1-.08-.27-.16-.32-.45-.24-.91-.45-1.36-.67-.15.42-.47.88-.41,1.27.89,6.01,1.1,12.06,1.13,18.12.01,2.07-.11,4.17.2,6.2.68,4.56.96,9.09-.05,13.7,2.18-.15,4.18-.28,6.1-.41-.79-5.39-1.78-10.6-1.71-15.94.07-5.6.06-11.2-.05-16.79-.04-1.89-.48-3.78-.81-6.2h0ZM213.97,401.43c-1.68-1-3.24-1.14-4.87-.2-.5.29-1.14.38-1.73.5-4.88.98-9.81,1.42-14.79,1.43-9.49.03-18.97.16-28.46.12-4.11-.02-8.23-.42-12.34-.52-.9-.02-1.84.41-2.69.79-.32.15-.52.75-.58,1.17-.02.17.45.56.74.61,1.78.3,3.58.78,5.36.75,10.08-.15,20.15-.51,30.23-.62,7.53-.08,15.02-.52,22.46-1.61,2.31-.34,4.82-.47,6.67-2.42h0ZM268.19,327.87c-8.17.38-15.98-.24-24.31-1.5,1.93,1.96,3.37,3.42,4.82,4.88,3.03,3.04,7,3.15,10.8,2.91,1.9-.12,3.72-1.62,5.58-2.49,1.5-.71,2.52-1.85,3.12-3.79h0ZM120.44,327.04c-2.77.27-5.15.64-7.55.71-4.12.11-8.25,0-12.38.05-1.25.01-2.55-.27-3.8.32,4.08,7.35,20.69,7.65,23.72-1.08h.01ZM187.81,472.66c-.26-1.23-.49-2.66-.88-4.05-.49-1.77-.74-1.8-2.81-1.35-.92.2-1.99.42-2.83.14-1.07-.35-1.53-.08-1.84.84-.35,1.02-.8,2.03-.97,3.09-.36,2.19-.19,4.34,1.19,6.23.96,1.31,2.12,1.84,3.37,1.5,2.52-.69,4.74-3.59,4.77-6.4h0ZM186.07,368.34c-.45.15-.79.31-1.15.36-2.97.43-2.9.43-2.91,3.41-.02,4.72.19,9.41-.61,14.14-.71,4.2-.46,3.72,3.43,3.69.46,0,.92-.17,1.15-.21-.35-7.15-.64-14.14.09-21.39h0ZM107.76,325.82c0-.09.02-.17.02-.26,4.23-.18,8.47-.35,12.7-.58.49-.03.96-.44,1.44-.67-.4-.55-.73-1.21-1.25-1.61-.31-.24-.94-.11-1.42-.08-5.32.31-10.64.62-15.96.95-.24.01-.47.14-.71.14-1.42,0-2.85-.02-4.27-.05-.95-.02-1.94-.2-2.84,0-.37.08-.55.98-.82,1.51.41.13.84.38,1.24.36,2.16-.11,4.33-.44,6.49-.41,1.8.03,3.59.44,5.38.69h0ZM72.29,253.22c1.43,2.33,3.02,3.39,5.04,3.65,3.46.44,6.76-.34,9.94-1.62.63-.25,1.11-.9,1.61-1.42.13-.14.19-.55.09-.66-.21-.22-.57-.48-.82-.43-3.33.61-6.65,1.35-10.07,1.12-1.79-.12-3.56-.39-5.78-.64h-.01ZM107.11,338.92c1.53-.21,3.46-.42,5.37-.77.48-.09.89-.6,1.33-.92-.49-.18-1.06-.62-1.44-.5-2.17.71-4.28.58-6.44-.03-.55-.15-1.24-.13-1.77.07-.37.14-.76.68-.8,1.08-.03.28.48.82.82.89.82.16,1.69.12,2.94.18h-.01ZM180.53,461.79c.06.48,0,1.02.2,1.43.4.84.73,1.91,2,1.69,1.23-.22,1.87-1.14,2.04-2.27.08-.52-.31-1.14-.58-1.67-.45-.9-1.01-1.74-2.21-1.41-1.09.3-1.52,1.12-1.44,2.23h0ZM263.72,338.01c-.59-.2-1.01-.49-1.21-.38-.31.17-.57.59-.65.95-.04.19.33.48.52.73.28-.27.56-.54,1.34-1.3h0ZM253.69,338.25c-.11-.23-.21-.42-.3-.62-.28.17-.73.29-.8.52-.16.52-.14,1.1-.19,1.65.17-.01.43.04.48-.05.3-.49.55-1.02.81-1.51h0ZM256.06,338.63c.1-.05.19-.1.29-.14-.19-.07-.38-.16-.58-.2-.08-.01-.19.09-.28.14.19.07.38.13.57.2Z"/>
  <path class="cls-1" d="M306.38,323.42c.65.45,1.29,1.24,1.96,1.28,3.98.22,7.89,1.17,11.96.62,4.67-.62,9.4-.74,14.02-1.75.3-.07.76.06.99.27.93.85,1.34,4.31.37,5.01-1.34.97-1.48,2.4-2.1,3.67-.58,1.19-1.17,2.46-2.08,3.38-.94.95-.64,1.56-.16,2.5,1.57,3.05.47,5.04-3.01,5.49-2.52.32-5.05.52-7.57.79-.6.06-1.24.07-1.76.33-.35.17-.51.73-.76,1.11.38.2.84.65,1.12.56,2.62-.92,5.66-.02,8.07-1.92.28-.22,1.31.03,1.59.38.4.5.68,1.36.53,1.94-.16.63-.91,1.08-1.32,1.67-.25.36-.61.94-.48,1.23,1.25,2.81.33,5.61-.36,8.22-1.21,4.55-2.74,9.06-4.59,13.39-3.17,7.41-8.75,12.76-15.57,16.89-6.8,4.12-14.01,7.36-21.88,8.58-3.79.59-7.76.19-11.64-.02-2.28-.13-4.53-.74-6.78-1.19-3.87-.78-7.23-2.76-10.62-4.64-.28-.16-.27-.84-.39-1.28.3-.03.67-.2.88-.08,4.32,2.46,9.11,3.24,13.93,3.72,9.08.91,17.94.07,26.41-3.68,3.68-1.63,7.19-3.51,10.6-5.63,5.58-3.47,9.47-8.4,12.12-14.24,1.79-3.96,3.09-8.16,4.34-12.34.65-2.18.76-4.53,1.02-6.81.04-.33-.4-1-.66-1.03-.96-.09-1.97-.09-2.89.14-.34.09-.63.93-.68,1.45-.92,8.73-3.95,16.72-8.58,24.09-4.09,6.5-10.32,10.21-17.54,12.25-4.9,1.38-9.94,1.99-15.02,2.54-4.84.52-9.44.09-14.01-1.12-2.52-.67-4.98-1.73-7.27-4.41,2.55.93,4.4,1.71,6.32,2.29,4.04,1.23,8.21.96,12.31.62,5.31-.44,10.52-1.62,15.67-2.98,10.17-2.68,17.43-8.7,21.64-18.44,1.79-4.14,3.11-8.39,4.16-12.74.43-1.78.58-3.61-1.83-4.41-.56-.18-1.38-1.23-1.25-1.57.82-2.21-.52-3.45-1.7-4.95-.49-.62-.35-1.91-.18-2.84.36-2.02-.46-3.54-1.72-4.94-2-2.22-4.01-4.43-6.29-6.93,9.31.74,18.36,1.27,27.37.27l.05-.91c-.74-.13-1.5-.43-2.22-.36-4.96.46-9.9,1.29-14.89.88-2.87-.24-5.72-.82-8.55-1.39-1.43-.29-2.61-1-3.45-2.41-.58-.96-1.78-1.54-2.71-2.29-1.52-1.22-1.86-2.68-.9-4.12.17-.25.6-.46.89-.44.19.01.44.45.52.74.68,2.43.68,2.42,2.65,2.67,6.29.8,12.6,1.15,18.92.75,3.25-.2,6.47-.84,9.71-1.26,1.28-.17,2.12-.67,2.78-1.95.9-1.74,2.62-1.66,3.1.19.36,1.39,1.16,1.75,2.11,2.13,3.06,1.23,6.17,1.97,9.55,1.71,3.03-.23,6.1.12,9.13-.1,1.88-.14,3.74-.85,5.57-1.4.34-.1.53-.68.79-1.04-.42-.16-.83-.45-1.25-.45-4.51-.03-9.02-.03-13.53.01-2.34.02-4.56-.3-6.63-1.53-.69-.41-1.61-.41-2.41-.65-.71-.22-1.89.41-1.94-.91,0-.15,1.44-.53,2.2-.5,3.36.13,6.79-.64,10.09.67.64.25,1.45.13,2.18.06,3.38-.32,6.75.74,10.13.05.23-.05.52-.06.72.04.93.47,2.17.76,2.67,1.53.8,1.23.14,3.41-1.12,4.24-1.19.78-2.9,1.01-3.73,2.01-.73.88-.51,2.53-.85,3.8-.15.55-.57,1.11-1.03,1.48-1.46,1.17-2.31,2.23-.7,4.06.75.85-.13,1.86-1.09,2.3-1.09.5-2.74.53-3.26,1.33-.51.79.34,2.33.16,3.48-.67,4.42-1.36,8.84-2.32,13.2-2.02,9.13-6.1,17.4-11.42,24.99-4.74,6.76-10.85,12.07-18.68,15.18-4,1.59-8.07,1.47-12.19.83-1.43-.22-2.86-.46-4.26-.83-.5-.13-.9-.65-1.34-1,.49-.2.97-.57,1.46-.58,2.56-.08,5.12-.16,7.68-.06,3.26.13,6.27-.73,9.15-2.06,8.6-3.97,15.7-9.58,20.27-18.14,2.46-4.61,5.09-9.11,6.26-14.26,1.47-6.49,2.65-13.04,2.83-19.72,0-.22-.3-.63-.48-.65-1.43-.11-2.53.7-2.77,2.1-.49,2.74-.9,5.49-1.35,8.24-1.47,9.04-4.88,17.28-10.53,24.48-2.39,3.05-5.13,5.85-7.89,8.58-4.47,4.43-10.11,6.53-16.21,7.5-.51.08-1.1-.27-1.67-.87,1.16-.26,2.32-.49,3.48-.77,7.4-1.8,12.58-6.8,17.08-12.45,6.46-8.11,10.55-17.39,12.11-27.72.22-1.44.32-2.93.81-4.27.86-2.36.78-4.12-1.77-5.4-1.31-.65-1.41-2.15-1.33-3.56.14-2.51,0-2.46-.97-4.5-.77-1.62-1.25-3.39-1.79-5.11-.06-.19.3-.57.55-.75.12-.09.54.02.64.16.54.79,1.15,1.58,1.5,2.45,1.06,2.6,3.15,3.55,5.74,3.74,1.21.09,2.44.03,3.65.1,3.84.22,6.58-1.32,8.21-5.2-3.83-.27-7.55-.74-11.27-.73-3.49,0-6.73-.76-9.84-2.19-1.04-.48-1.79-.77-2.91.11-.97.77-2.4,1.09-3.68,1.3-3.22.54-6.45,1.11-9.7,1.3-3.64.21-7.31.08-10.96-.02-2.17-.06-4.33-.33-6.49-.5-.17-.11-.33-.21-.5-.32.18.09.37.18.55.27v-.03ZM356.11,332.99c-3.15.04-6.27-.08-9.32-1.01-.41-.13-.88-.07-1.32-.09.05.45.07.9.16,1.34.32,1.4,1.21,2.09,2.64,1.87,2.67-.41,5.36-.83,7.77-2.18.12,0,.25.05.36.02.33-.09.66-.2.99-.3-.08-.08-.2-.24-.23-.22-.36.18-.7.38-1.05.58h0ZM332.38,331.04c-7.13-.3-14.27-.6-21.58-.91.28.48.38.71.53.89,3.01,3.78,6.77,5.18,11.72,5.05,3.99-.1,7.1-.67,9.02-4.39.11-.21.2-.43.3-.64h.01ZM319.14,342.45c3-.45,6.34-.92,9.67-1.48.35-.06.79-.52.92-.89.46-1.32-.18-2.21-1.54-1.96-3.48.64-6.97.76-10.47.47-1.88-.16-2.14,0-1.95,1.65.21,1.79.74,2.17,3.38,2.22h-.01Z"/>
  <path class="cls-1" d="M179.78,55.79c.08-.36.03-.83.25-1.05,1.26-1.27,1.38-2.18-.27-3.39-1.13-.83-.91-2.83.02-3.96.19-.23.66-.4.93-.33.2.05.48.64.39.82-.42.84-.68,1.75.27,2.21,1.17.56,2.47.93,3.75,1.09.33.04,1.03-1,1.14-1.62.1-.57-.19-1.43-.61-1.83-.49-.46-1.31-.57-2-.8-2.88-.97-4.84-3.07-5.8-6.24-.18-.58-.26-1.19-.51-1.73-.97-2.13-.52-4.13.82-5.81.97-1.22,1.34-2.24,1.04-3.84-.23-1.21.85-2.75.46-3.82s-2.05-1.61-2.86-2.61c-1.51-1.88-1.25-4.3.49-5.85.82-.73,2.05-1.23.65-2.55-.28-.26-.2-.92-.24-1.39-.02-.23,0-.62.13-.69,1.77-.92,1.35-3.18,2.63-4.33,1.34-1.2,2.98-.87,4.48-.3,2.06.78,2.85,2.44,2.37,4.65-.48,2.24-.45,2.59.44,5.66.07.23.17.49.12.71-.35,1.6-1.4,3.45-.92,4.72.57,1.52,1.28,2.94.89,4.47-.42,1.63-.43,2.98.74,4.27.31.34.62.91.56,1.32-.2,1.25-1.13,2.7-.75,3.66.49,1.24,1.39,2.38.91,3.71-.48,1.31-1.85,2.46-1.9,3.72-.04,1.06,1.49,2.09,1.89,3.28.58,1.75-1.15,3.25-1.13,4.8.02,1.51,1.48,2.96,1.8,4.54.17.87-.5,2.17-1.19,2.9-1.06,1.12-1.01,2-.24,3.19,1.27,1.98,1.16,4-.49,5.67-1.08,1.09-.84,1.73.15,2.65,1.82,1.69,2.31,2.97.63,5.07-1.06,1.33-1.24,1.72-.13,3.02,1.4,1.65,2.46,3.67,1.67,6-.37,1.08.4,1.54.85,2.21,1.42,2.13,2.7,4.24,2.71,7.01,0,3.29-.63,6.24-3.13,8.84,4.22,2.94,5.77,7.07,6.03,11.94.14,2.51,1.09,4.98,1.24,7.49.29,4.78-.73,9.42-2.59,13.81-1.32,3.11-2.99,6.08-4.5,9.11-.32.64-.63,1.28-1.13,2.3h5.29c2.92,0,5.87-.14,8.61,1.1,1.42.64,2.78,1.48,4.06,2.38,3.82,2.68,2.02,7.29-.57,8.87-1.9,1.16-3.99,1.71-6.24,1.69-6.21-.04-12.43-.12-18.65-.03-4.49.06-8.98.52-13.47.51-2.13,0-4.36-.41-6.37-1.14-2.58-.94-3.4-2.74-3.16-5.49.23-2.67,2.08-5.07,4.41-5.62,1.06-.25,2.14-.39,3.21-.59,1.02-.19,2.03-.41,3.18-.19-1.76.69-3.49,1.53-5.3,2.01-1.5.4-2.24,1.43-2.85,2.59-1.15,2.16-.42,4.04,1.8,5.08,2.22,1.04,4.54.59,6.83.44,1.57-.11,3.13-.46,4.69-.48,8.16-.07,16.33-.02,24.49-.11,1.67-.02,3.38-.32,5-.77,1.19-.33,2.06-1.28,2.16-2.67.09-1.32-.78-1.9-1.8-2.46-2.05-1.11-4.15-2.09-6.53-2.02-4.37.13-8.73.43-13.1.54-3.77.1-7.55.04-11.33.02-.25,0-.5-.35-.75-.54.23-.21.44-.58.7-.62,2.27-.34,4.54-.62,7.38-.98-3.58-2.57-5.72-5.66-7.05-9.28-3-8.17-3.81-16.5-1.65-25.01.15-.59.29-1.17.44-1.76.92-3.61,2.44-6.89,5.59-9.08,1.04-.73.9-1.14.16-1.94-3.44-3.74-3.84-8.21-1.93-12.55,1.13-2.56,2.09-4.92,2.24-7.76.1-1.87,1.14-3.73,3.24-4.45-.62-1.34-2.47-1.96-1.88-3.62.97.6,1.92,1.19,2.87,1.78.85.53,1.64.25,2.39-.19,1.25-.72,1.26-1.58.16-2.57-1.71-1.54-3.47-2.19-5.52-.59-.24.19-.67.14-1,.2-.04-.44-.28-1.01-.09-1.3.73-1.11.44-2.25.46-3.44.03-1.75-.71-3.65.7-5.28.2-.23-.15-1.01-.34-1.49-.57-1.46-1.29-2.87-1.76-4.36-.32-1,.22-1.63,1.34-1.61.32,1.14.45,2.38.99,3.4.97,1.85,1.67,1.97,3.51,1.05.43-.22.84-.48,1.26-.73.87-.52,1.72-1.14,1.4-2.28-.31-1.11-1.11-1.96-2.32-2.01-1.66-.07-3.41-.51-4.92.67l-.04-.02ZM185.16,105.54c-4.44-.8-7.06,1.85-8.74,5.47-1.86,4.01-2.25,8.48-2.13,12.79.17,6.18,1.86,12.16,4.08,17.95.93,2.42,2.18,4.59,4.1,6.35,2.41,2.21,5.56,1.75,6.71-1.22,2.75-7.08,5.55-14.13,6.16-21.87.44-5.62-.52-10.81-3.29-15.66-1.46-2.56-3.5-4.36-6.89-3.81h0ZM184.64,101.83c3.6.04,5.72-1.82,6.07-5.15.22-2.14-.42-4.04-1.57-5.84-.67-1.04-1.15-1.5-2.6-.93-1.26.5-2.99.5-4.28.04-1.78-.63-2.48.23-3.13,1.43-1.29,2.39-.57,4.72.43,6.98,1.02,2.31,2.63,3.77,5.09,3.45v.02ZM180.89,17.58v.06c-.24-.02-.48-.06-.72-.07-1.21-.08-2.16.31-2.47,1.58-.29,1.19.19,2.1,1.19,2.78,1.39.93,4.2.82,5.29-.44.48-.55.72-1.55.62-2.28-.08-.53-.83-1.15-1.42-1.36-.76-.28-1.66-.19-2.49-.26h0ZM181.33,85.23c1.61-.32,3.07-.66,4.56-.88.62-.09,1.28.05,1.92.08-.16-.69-.21-1.43-.5-2.06-.29-.64-.73-1.28-1.25-1.75-2.15-1.93-4.18-1.32-4.69,1.44-.19,1.05-.03,2.16-.03,3.17h0ZM178.83,36.12c.29.7.5,1.22.72,1.75.44-.29.86-.63,1.34-.86.82-.4,1.66-.79,2.53-1.07.67-.21,1.45-.12,2.09-.39.92-.38,1.21-1.28.72-2.08-.29-.48-1.18-1.01-1.63-.89-.97.27-1.77.37-2.77.02-.47-.17-1.44.21-1.74.64-.59.85-.87,1.92-1.26,2.87h0ZM183.86,68.85c.35-.17,1.43-.47,2.2-1.14.68-.59,1.33-1.59.52-2.57-.58-.71-1.37-1.78-2.03-1.76-.87.03-2.25.13-2.55,1.58-.12.58-.49,1.1-.65,1.67-.43,1.6.12,2.27,2.5,2.22h0ZM182.08,43.22c2.44.22,3.55-.63,4.29-1.97.25-.44.41-1.23.18-1.57-.27-.41-1.07-.79-1.52-.69-1.62.37-3.22.88-4.76,1.5-.25.1-.43,1.31-.22,1.48.79.65,1.76,1.09,2.03,1.24h0ZM182.94,10.12c-.88.2-1.61.15-1.99.49-.47.42-.64,1.18-.97,1.76-.21.36-.77.84-.69,1,.27.48.71,1.07,1.19,1.2,1.3.34,2.6.31,3.64-.81.71-.77,1.16-1.72.63-2.59-.35-.57-1.3-.78-1.81-1.05ZM183.32,25.01c-1.45.06-2.79,1.61-2.71,3.28.04.87.43,1.7,1.51,1.66,1.75-.07,3.54-1.67,3.42-2.97-.09-.99-1.24-2-2.23-1.96h.01Z"/>
  <path class="cls-1" d="M349.54,307.15c-.26-2.39-.5-4.78-.78-7.16-.66-5.53-1.49-11.04-1.95-16.59-.33-4-.32-8.04-.18-12.05.08-2.35,1.63-4.01,3.75-5,1.13-.53,2.08-1.1,2.58-2.35.69-1.71,1.28-1.67,1.68.2.07.31.66.62,1.05.71.58.12,1.22-.01,1.82.06,1.87.22,2.92,1.15,2.9,3.07-.03,4-.29,8-.46,12-.05,1.09-.14,2.18-.19,3.28-.22,5.1-.53,10.19-.59,15.29-.04,3.27.3,6.53.46,9.8.05.99.71,1.15,1.49,1.15,2.68,0,5.36-.07,8.04,0,1.32.03,2.64.26,3.94.51.92.18,1.97.3,2.06,1.64.09,1.39.08,2.71-1.3,3.53-.42.25-.85.6-1.3.64-.78.07-2.03.23-2.3-.17-.67-1,.47-1.34,1.17-1.78.49-.3.93-.67,1.45-1.06-1.75-1.36-3.57-1.25-5.38-.92-3.98.72-7.95.74-11.93,0-.6-.11-1.21-.18-1.81-.18-4.51-.04-9.03.1-13.52-.16-2.14-.12-3.22,1.05-3.37,2.53-.23,2.19-1.44,2.08-2.92,2.06-7.19-.08-14.38-.07-21.56-.25-2.15-.06-4.46.8-6.47-.69,2.12-.19,4.23-.39,6.35-.55,3.51-.27,7.01-.51,10.52-.78,1.23-.09,1.45-.9.91-1.76-1.45-2.32-1.25-4.89-1.36-7.43-.16-3.76-.48-7.51-.47-11.27.02-4,.47-8,.51-12,.02-2.41-.45-4.81-.62-7.23-.09-1.27-.42-2.05-1.92-2-1.93.06-2.72.4-3.04,1.9-.2.94-.18,1.93-.18,2.9-.03,8.41.02,16.81-.08,25.22-.04,3.5-.38,7-1.16,10.63-.28-.52-.57-1.03-.84-1.56-.05-.1-.02-.24-.02-.36-.27-6.19-.51-12.38-.82-18.57-.14-2.66-.7-5.32-.59-7.96.16-3.97.72-7.92,1.14-11.88.12-1.14.78-1.89,1.76-2.59,2.15-1.51,1.91-3.91-.35-4.99-3.74-1.79-5.62-5.82-4.6-10.02.69-2.87,1.99-5.46,3.84-7.78,2.6-3.27,4.64-6.81,4.83-11.48,1.81,1.88,1.43,3.88.89,5.59-.88,2.75-2.06,5.43-3.39,7.99-1.31,2.54-2.35,5.06-2.06,7.98.21,2.05,1.07,3.15,2.68,3.37,2.2.29,3.82-.46,4.25-2.49.34-1.6.05-3.34-.04-5.01-.04-.8-.27-1.58-.48-2.75,2.92,1.09,4.81,2.7,5.23,5.42.47,3.07-.48,5.77-3.02,7.75-.58.45-1.21.82-1.82,1.22-.56.37-1.42.64-1.61,1.15-.27.75-.15,1.69,0,2.51.06.32.62.77.97.79,2.3.1,3.15,1.5,3.44,3.53.41,2.87,1.15,5.72,1.23,8.6.17,6.21.09,12.43-.04,18.64-.08,3.76-.49,7.51-.65,11.26-.08,1.96.02,1.99,2.05,1.98,2.31,0,4.63-.03,6.94-.1.42-.01,1.15-.22,1.2-.45.77-3.63,3.93-3.52,6.36-3.47,2.79.06,5.53.05,8.32-.2,2.01-.19,4.08.32,6.13.49,1.88.16,2.32-.27,1.78-1.97-1.23-3.87-1.5-7.84-1.38-11.86.07-2.44.04-4.87.09-7.31.09-4.49-.28-8.99.62-13.46.33-1.64.12-3.4.11-5.11,0-.82.18-1.84-1.12-1.86-1.15-.02-2.25.18-2.48,1.57-.14.84-.07,1.71-.19,2.55-.04.25-.38.46-.59.69-.2-.25-.46-.48-.59-.76-.39-.8.37-2.1-.93-2.46-.78-.22-1.71,1.18-1.92,2.75-.06.48-.04.97,0,1.46.84,10.18,1.48,20.36,1.19,30.58-.03.91-.25,1.82-.39,2.73-.32.04-.63.08-.95.11h-.02Z"/>
  <path class="cls-1" d="M281.45,253.99c-2.5-1.63-5.1-3.13-7.45-4.95-.96-.74-1.38-2.17-2.03-3.29-.41-.7-.67-1.55-1.23-2.09-1.06-1.03-1.28-2.09-.42-3.22.95-1.25.17-1.94-.46-3.01-1.09-1.88-1.98-3.82-3.79-5.19-.66-.5-.28-1.24.67-1.48.56-.14,1.28.73,1.66-.55.81-2.67,3.16-3.28,5.51-3.22,3.38.1,6.74.58,10.11.9,2.14.2,4.29.41,6.49.62-.28-4.08-.45-7.79.19-11.49.23-1.31.23-2.66.23-3.99.03-6.08.03-12.16.02-18.24,0-2.04.36-4.27-2.9-4.19-.49,0-1.01-1.16-1.51-1.79l.1.1c.14-1.29-.1-2.2-1.39-3.02-3.73-2.35-4.27-3.83-3.12-8.24.76-2.92,1.82-5.76,2.78-8.63.38-1.15.85-2.27,1.3-3.4,1.3-3.27,1.63-6.56.28-9.92-.13-.33.04-.79.07-1.19.44.16,1.07.18,1.27.49.65,1,1.56,2.08,1.6,3.17.1,2.52.01,5.1-.48,7.56-.5,2.47-1.64,4.81-2.4,7.23-.65,2.07-1.24,4.17-1.68,6.29-.16.75,0,1.7.35,2.39.27.53,1.06.79,1.62,1.17.18-.54.38-1.08.54-1.63.28-1,.53-2.01,1-3.79.65,2.06,1.05,3.31,1.55,4.88.69-1.54,1.24-2.86,1.87-4.15.18-.36.58-.61.88-.91.32.35.81.64.94,1.04.72,2.27.23,4.32-1.36,6.09-.73.81-1.61,1.49-2.28,2.35-.71.92-.39,1.87.82,2.03,1.98.26,2.71,1.61,3.03,3.17,1.1,5.29.87,10.66.6,16-.25,4.96-.85,9.9-1.32,14.84-.14,1.44-.39,2.87-.56,4.31-.16,1.38.58,2.19,1.9,1.72,3.09-1.1,6,.38,9,.45,1.24.03,2.61.78,2.9,2.37.26,1.43-.07,2.66-1.36,3.51-.31.2-.73.35-.88.63-1.76,3.42-5.14,3.21-8.18,3.5-2.9.27-5.84.06-8.77.16-2.18.08-4.35.42-6.52.47-1.56.04-3.13-.2-4.69-.3-.85-.06-1.77-.32-2.51-.08-.53.18-.93,1.01-1.17,1.64-.08.19.49.86.87.97,3.01.88,6.05,1.78,9.24,1.19,5.65-1.04,11.34-1.18,17.05-1.01.3,0,.6.26.9.4-.15.31-.22.79-.46.9-1.72.76-2.53,1.8-2.43,3.9.11,2.22-1.58,3.75-3.36,4.9-1.11.72-2.36,1.24-3.27,1.71.6,1.78,1.28,3.43,1.69,5.15.29,1.21-.49,2.47-1.62,2.43-2.87-.1-5.43,1.87-8.35,1.11-.46-.12-.98-.05-1.45-.14-2.61-.51-4.06-1.97-3.99-3.97.09-2.61,1.68-4.31,4.45-4.76-.04.48-.22,1.01-.08,1.44.32,1.03-1.43,2.12-.06,2.92.89.52,2.09.58,3.17.69.96.1,1.95-.07,2.92-.02,1.28.06,1.64-.75,1.11-1.57-.55-.86.21-2.44-1.4-2.66-1.91-.26-3.82-.48-5.74-.72v.02ZM269.15,231.62c.69.86,1.55,1.62,2.02,2.57.91,1.81,2.34,2.26,4.2,2.21,2.8-.07,5.6-.11,8.39,0,4.12.15,8.22.49,12.34.61,1.42.04,2.88-.3,4.29-.59,1.35-.28,1.5-1.41,1.55-2.55.07-1.31-.84-1.57-1.84-1.8-2.57-.61-5.1-1.14-7.82-.97-2.99.19-6.03-.21-9.04-.45-3.38-.27-6.74-.67-10.12-.95-1.67-.14-3.12.34-3.97,1.93h0ZM273.87,245.12c2.84,2.89,5.57,4.55,8.8,5.43,5.37,1.46,10.98.21,13.22-5.16-1.6-.59-3.15-.63-4.91-.46-5.48.54-10.96,1.93-17.11.18h0Z"/>
  <path class="cls-1" d="M236.46,334.95c-3.36.7-6.56,1.37-9.74,2.05-.59.13-1.16.39-1.76.44-.5.04-1.03-.13-1.54-.21.28-.48.43-1.13.85-1.42,2.32-1.61,4.87-2.81,7.74-2.86,3.93-.06,4.12-.15,2.1-3.74-2.69-4.8-4.23-10.05-5.84-15.25-2.22-7.17-3.96-14.47-5.14-21.88-.71-4.42-1.08-8.89-1.66-13.32-.49-3.72-1.07-7.42-1.62-11.13-.39-2.63-.9-5.24-1.15-7.88-.38-3.98-.54-7.99-.89-11.97s-.82-7.94-1.24-11.91c-.05-.48-.11-.97-.12-1.45-.22-9-.5-17.99-.61-26.99-.04-3.39.45-6.79.41-10.18-.05-4.61-.24-9.23-.62-13.82-.31-3.7-2.15-6.89-4.08-9.99-.51-.82-1.1-1.61-1.52-2.48-.18-.37-.04-.89-.05-1.34.37.18.87.27,1.07.57,1.23,1.79,2.37,3.65,3.58,5.46,2.01,3,2.82,6.36,3.26,9.89,1.37,10.92.33,21.88.79,32.81.29,6.91.85,13.8,1.32,20.7.25,3.75.41,7.52.87,11.24.85,6.96,1.46,13.94,2.48,20.89,1.24,8.49,3.81,16.74,4.26,25.4.26,5.04,1.71,10,3.52,14.79,1.8,4.75,3.26,9.62,5.02,14.39,1.47,3.99,3.37,7.78,6.2,11.03.16.18.34.38.41.6,1.34,4.51,4.49,7.96,6.91,11.83.15.23.02.64.02.96-.41-.12-.98-.1-1.2-.37-2.23-2.72-4.39-5.49-6.58-8.25-.38-.48-.72-.98-1.11-1.44-.77-.91-2.02-1.01-2.6-.32-1.68,2.01-4.13,1.89-6.25,2.42-1.88.47-3.75.88-5.52,1.69-.34.15-.79.05-1.2.07.09-.46.03-1.14.31-1.33,1.59-1.07,3.19-2.18,4.92-2.98,1.97-.92,4.09-1.49,6.11-2.31.58-.24,1.04-.79,1.55-1.21-.55-.4-1.1-.79-1.63-1.18l-.03-.02Z"/>
  <path class="cls-1" d="M194.24,196.89c.11,4.77,1.96,8.48,3.45,12.3,2.37,6.09,4.98,12.11,6.96,18.33,1.83,5.76,2.95,11.74,3.08,17.85.03,1.57.41,3.13.48,4.7.28,7.06-.09,14.08-2.05,20.91-.73,2.54-1.92,4.96-3.01,7.39-.79,1.77-1.76,3.46-2.62,5.14,1.45.55,2.82,1,4.13,1.6.31.14.47.76.54,1.19.02.12-.54.47-.83.47-1.82.03-3.7.25-5.47-.09-5.4-1.04-10.82-1.52-16.3-1.27-6.17.28-12.32.83-18.4,1.94-.31.06-.65-.14-.98-.21.17-.28.27-.65.51-.83,1.11-.81,3.33-.25,3.49-1.83.11-1-1.33-2.18-2.1-3.26-2.82-3.95-3.99-8.53-4.97-13.16-1.13-5.4-1.2-10.91-.72-16.35.76-8.57,2.34-17.01,5.62-25.03,3.17-7.73,6.47-15.4,9.69-23.1.56-1.34,1.08-2.7,1.46-4.09.57-2.06,1.47-4.18-.59-6.05-.18-.17.05-.9.23-1.31.05-.12.71-.13.93.03,2.66,1.89,5.69,1.83,8.72,1.64,2.06-.13,4.1-.4,6.16-.53,1.22-.08,2.34-.07,3.37-1.02.84-.78,1.57-.29,1.65.81.08,1.11-.32,1.99-1.34,2.34-1.13.38-2.33.74-3.51.76-4.14.08-8.28.03-12.43-.03-.97,0-1.74.11-1.81,1.24-.28,5.07-2.54,9.54-4.36,14.13-3.47,8.77-6.91,17.56-8.98,26.79-.9,4-1.34,8.1-1.97,12.15-.24,1.55-.62,3.11-.66,4.67-.21,8.84,1.45,17.35,4.91,25.49.28.66.71,1.27,1.09,1.89,1.51,2.44,1.5,2.35,4.31,1.86,2.74-.48,5.51-.77,8.27-1.12,1.92-.24,3.86-.72,5.77-.63,3.87.18,7.72.62,11.57,1.05,1.81.2,2.14.2,2.59-1.58,1.53-6.09,3.21-12.15,4.35-18.32.59-3.19.13-6.56.2-9.85.33-14.42-3.04-28.11-7.97-41.52-1.37-3.73-2.39-7.6-3.46-11.43-.34-1.23-.59-2.62.98-4.04l.02-.02Z"/>
  <path class="cls-1" d="M142.35,194.17c.62,1.11,1.24,2.23,2,3.58,2.05-6.79,4.41-13.12,7.71-19.06,2.48-4.47,5.1-8.85,9-12.28.81-.71,1.72-1.33,2.65-1.88,1.13-.67,2.28-.74,3.63.59-4.86,0-7.04,3.57-9.18,6.63-6.05,8.63-9.79,18.31-11.99,28.6-1.19,5.57-2.03,11.18-2.26,16.89-.14,3.39-.53,6.77-.68,10.16-.3,6.8-.44,13.61-.78,20.41-.4,8-.88,16-1.42,23.99-.4,5.93-.88,11.85-1.47,17.76-.62,6.27-1.31,12.53-2.16,18.77-.62,4.57-2.04,8.98-3.87,13.2-1.49,3.43-3.28,6.74-4.96,10.09-.21.42-.54.8-.88,1.13-.13.13-.47.14-.66.06-.11-.05-.21-.41-.14-.56.28-.67.62-1.32.93-1.97,2.95-6.05,4.46-12.49,5.17-19.16.67-6.26,1.4-12.51,2.07-18.77.29-2.65.52-5.31.74-7.96.3-3.75.51-7.5.85-11.25.38-4.22.87-8.43,1.31-12.64.03-.24.04-.49.06-.73.26-5.09.47-10.19.79-15.28.42-6.53.88-13.07,1.44-19.59.38-4.46.97-8.9,1.45-13.35.09-.81.02-1.13-1.14-1.04-2.02.16-3.4-1.1-3.92-3.09-.31-1.16-.66-2.37-.64-3.55.06-3.66.8-7.2,2.48-10.49.11-.22.55-.26.84-.39.07.23.24.47.2.68-.36,1.89-.73,3.78-1.13,5.67-.51,2.44-.27,4.83.57,7.16.15.42.68,1.09.86,1.04.51-.15,1.13-.51,1.34-.96,1.12-2.47,1.6-5.05,1.15-7.78-.25-1.48-.35-2.99-.53-4.48.19-.04.39-.08.58-.13v-.02Z"/>
  <path class="cls-1" d="M8.72,313.24c-.04-2.18,1.78-2.44,3.21-2.83,1.74-.47,3.57-.66,5.37-.8,1.18-.09,1.7-.4,1.74-1.7.15-4.98.24-9.96.69-14.92.47-5.17,1.33-10.3,1.99-15.45.15-1.2.23-2.43.22-3.64-.03-2.26.65-4.15,2.89-4.99,1.6-.6,1.45-1.75,1.28-2.95-.05-.34-.5-.87-.81-.9-2.77-.3-4.34-2.27-5.45-4.38-1.2-2.27-1.5-4.95-.52-7.43,1.56-3.94,3.23-7.86,5.06-11.68,1.36-2.84,3.14-5.49,2.66-8.88-.07-.51.27-1.18.62-1.62.24-.3.88-.52,1.26-.43.36.08.85.6.87.95.11,1.94.16,3.9.1,5.84-.13,4.89,1.46,9.27,3.8,13.45.65,1.17,1.48,2.27,1.92,3.51.56,1.56,1.27,3.16.4,4.93-.65,1.32-.35,3.09-1.96,3.93-.15-1.41-.42-2.82-.42-4.23,0-1.87-.41-3.55-1.23-5.25-1.21-2.5-2.18-5.12-3.26-7.68-.13-.3-.3-.7-.55-.8-.18-.07-.67.22-.78.47-1.83,4.06-4.52,7.81-4.77,12.46-.13,2.43-.02,4.82,2.79,6.06.47-1.5.89-2.84,1.31-4.18.15.02.31.04.46.06.11,1.9.12,3.82.37,5.7.31,2.3.52,2.41,2.96,2.67,2.62.29,3.39.97,3.4,3.7,0,6.81.25,13.6-.54,20.42-.55,4.8-1.08,9.58-1.96,14.93-.56-.99-.92-1.45-1.1-1.97-1.79-5.2-1.15-10.44-.52-15.77.69-5.78.79-11.62,1.16-17.44.09-1.36-.72-1.75-1.82-1.56-.41.07-1.04.71-1.03,1.07.03.95.4,1.88.53,2.83.04.29-.25.63-.4.95-.32-.25-.8-.44-.92-.76-.32-.91-.42-1.89-.75-2.8-.23-.64-.55-1.4-1.06-1.73-.55-.36-2.28.92-2.47,1.73-.11.47-.07.97-.1,1.45-.28,5.82-.67,11.64-.8,17.46-.13,5.72-.77,11.37-1.79,16.98-.25,1.4.27,1.46,1.25,1.41,4.12-.21,8.24-.43,12.36-.68,1.33-.08,2.65-.27,3.97-.44,1.7-.22,3.35-.38,4.98.5.82.44,1.83.5,2.74.78.8.25,1.67.43,2.36.88,1.08.7,1.26,1.98.57,3.18-1.21,2.11-3.24,3.04-6.04,4.2,1.75-2.29,3.05-3.98,4.61-6.03-2.14-.32-3.9-.8-5.68-.81-6.33-.06-12.67-.04-19,.08-3.67.07-7.35.3-11,.67-1.11.11-2.14.93-3.21,1.42l.06.06h-.02Z"/>
  <path class="cls-1" d="M167.22,169.6c-2.22,4.41-4.53,8.77-6.63,13.24-3.42,7.25-5.87,14.82-7.12,22.76-.9,5.73-1.97,11.43-2.75,17.17-.49,3.6-.55,7.25-.83,10.88-1.32,16.89-.47,33.81-.83,50.72-.22,10.5-2.34,20.66-6.47,30.36-.9,2.11-1.62,4.29-2.34,6.47-1.41,4.3-3.7,8.14-6.03,11.97-.12.19-.58.17-.88.24-.04-.23-.19-.51-.11-.67,2.2-3.95,2.46-8.53,4.11-12.68,1.6-4.04,2.66-8.29,3.87-12.47,1.75-6.05,3.05-12.15,3.65-18.48.66-6.94.33-13.85.46-20.77.13-7.06-.07-14.13.16-21.19.17-5.07.82-10.13,1.28-15.2.24-2.65.39-5.32.82-7.94,1.05-6.43,2.21-12.85,3.36-19.26,1.91-10.64,6.52-20.24,11.66-29.61,1.15-2.1,2.71-3.97,4.08-5.94.18.13.35.27.53.4h0Z"/>
  <path class="cls-1" d="M49.48,350.61c-.28,7.16,2.24,13.53,5.06,19.85,1.04,2.32,1.89,4.72,2.78,7.1.2.53.24,1.12-.16,1.97-1.15-1.59-2.32-3.16-3.43-4.78-3.99-5.83-6.82-12.04-6.29-19.34.07-.97-.03-1.95.05-2.92.11-1.53-.04-2.83-1.53-3.78-1.37-.87-1.64-2.37-1.45-3.89.17-1.36-.34-2.16-1.47-2.97-1.89-1.35-4.5-5.84-5.18-7.65-.31-.82-.17-1.37.21-1.93.18-.27.94-.53,1.02-.43,1.68,1.91,3.74.6,5.28.22,5.15-1.27,10.31-1.39,15.53-1.25.59.02,1.19.08,1.79.56-3.31.28-6.63.48-9.93.85-3.6.4-7.18.93-10.76,1.45-.9.13-1.28,1.24-.67,1.91.39.42.94.92,1.46.96,3.71.33,7.36,1.47,11.18.35,2.18-.63,4.53-.66,6.81-.93,1.38-.16,2.38-.74,2.27-2.27-.08-1.12.83-1.31,1.36-1.9.43-.47.78-1.29.69-1.88-.14-.92-.96-1.31-1.94-1.26-5.94.3-11.9-.62-17.85.43-1.46.26-3.08-.41-5.27-.75,2.73-1.54,5.16-1.87,7.58-1.93,4.26-.12,8.56-.37,12.78.07,4.4.45,6.21-2.54,8.4-5.2.42-.51.18-1.2-.61-1.37-3.21-.69-6.43-1.19-9.73-.45-1.89.42-3.8.81-5.72.99-2.54.23-5.11.3-7.76-1.05,2.07-1.45,4.51-1.14,6.67-1.73,1.39-.38,2.86-.42,4.28-.7,3.97-.78,7.94-.86,11.9-.04.71.15,1.41.38,2.07.66,2.13.89,2.72,2.87,1.24,4.66-1.08,1.3-2.35,2.48-3.68,3.54-.86.68-1.29,1.16-.82,2.34.7,1.81.57,3.57-1.28,4.79-.29.19-.69.46-.73.75-.65,4.04-3.78,4.19-6.86,4.43-4.7.37-9.4.71-14.3,1.08,2.32,2.39,5.36,2.83,8.37,3.26,1.2.17,2.43.02,3.65.07,2.43.08,4.63-.25,5.74-2.85.09-.2.67-.43.8-.34.27.19.58.64.53.9-.17.78-.48,1.54-.79,2.28-.27.64-.96,1.3-.87,1.85.36,2.25-.7,3.59-2.62,4.2-1.89.6-2.03,1.87-1.8,3.41.54,3.59,1.02,7.19,1.71,10.75,1.07,5.59,3.91,10.41,6.93,15.12.77,1.19,1.56,2.37,2.14,3.73-3.39-1.5-5.98-3.88-7.98-6.91-2.83-4.27-3.89-9.09-4.29-14.1-.18-2.3-.33-4.59-.55-6.89-.11-1.18.04-2.9-.63-3.36-.72-.5-2.26.19-3.37.34l.04-.02ZM57.9,344.93c-3.74-.38-6.95-.71-10.17-1.03-.53-.05-1.08-.04-1.61-.06.08.69,0,1.46.28,2.07.48,1.05,1.4,1.57,2.6,1.67,3.1.26,5.95-.29,8.9-2.65h0Z"/>
  <path class="cls-1" d="M142.65,180.4c3.31-4.74,3.14-9.98,2.74-15.21-.29-3.74-.76-7.47-1.21-11.19-.43-3.56.45-7,.9-10.47.26-1.99-.03-2.66-1.94-2.93-1.23-.17-2.39-.04-3.43.83-2.63,2.21-4.49,4.9-4.44,8.39.05,3.87.36,7.75.8,11.6.48,4.19,1.24,8.36,1.84,12.54.03.23-.31.51-.48.77-.21-.24-.54-.44-.63-.72-.75-2.29-1.54-4.58-2.17-6.91-1.18-4.32-2.59-8.61-2.83-13.1-.27-5.17,1.05-9.9,5.23-13.38,2.26-1.88,4.82-2.22,7.4-.64,1,.61,1.37.57,1.75-.63,1.22-3.82,3.7-6.44,7.58-7.75,2.52-.85,5.06-.83,7.53-.2,5.76,1.46,9.86,5.04,12.55,10.3.72,1.41,1.11,2.86.6,4.46-2.67-6.56-7.03-10.98-14.13-12.4-4.65-.93-9.25,1.31-10.86,5.76-.81,2.26-1.43,4.67-1.6,7.05-.25,3.64-.19,7.31.02,10.96.16,2.76.96,5.49,1.15,8.25.41,5.9-1.43,10.97-6.37,14.63h0Z"/>
  <path class="cls-1" d="M56.48,315.76c-2.35-4.74-2.82-9.57-2.03-14.62.61-3.94.75-7.96.97-11.96.06-1.17-.25-2.4-.56-3.55-.53-2-.6-1.99-2.92-1.43-.22.05-.45.14-.67.16-1.99.13-3,1.05-3.03,2.78,0,1.1.03,2.19,0,3.29-.24,5.93-.5,11.86-.77,18.02-1.29-1.83-1.31-1.83-1.34-3.46-.07-3.9-.08-7.8-.2-11.7-.06-1.93-.3-3.86-.51-5.79-.34-3.07.67-4.86,3.59-5.76,1.03-.31,1.43-.76,1.4-1.74-.02-.81.29-1.78-.94-2.03-.12-.02-.23-.08-.34-.13-4.18-2.07-5.24-4.24-3.3-9.57.75-2.05,1.72-4.02,2.67-5.98,1.18-2.42,2.12-4.86,1.99-7.65-.04-.92.3-1.91.69-2.77.19-.42.93-.88,1.35-.82.47.07,1.06.62,1.25,1.1.19.5.05,1.18-.1,1.74-.88,3.24-.1,6.19,1.31,9.13,1.03,2.16,1.82,4.46,2.53,6.75.68,2.19-.17,4.33-.79,6.4-.18.61-.2,1.82-1.46,1.69.07-.68.14-1.35.2-2.03.29-3.45-.3-6.77-1.57-9.96-.58-1.46-1.42-2.81-2.15-4.24-3.02,4.51-3.82,6.98-3.56,11.29.05.82.25,1.67.57,2.43.93,2.29,1.13,2.28,2.94-.08.29.89.76,1.69.76,2.49,0,1.96.41,3.3,2.56,4.1,2.21.83,2.48,3.33,2.58,5.29.19,3.62-.13,7.27-.27,10.91-.06,1.58-.25,3.15-.28,4.73-.07,3.41-.04,6.82-.11,10.24-.02.91-.26,1.82-.4,2.73h-.05Z"/>
  <path class="cls-1" d="M190.01,299.36c2.12.97,2.64,2.01,1.42,3.34-.87.94-2.03,1.96-3.22,2.2-2.8.57-5.65,1.61-8.57.37-.41-.18-.94-.07-1.47-.1,1,1.97.96,2.13,2.14,2.42,1.13.28,2.42.48,3.52.22,1.63-.39,3.15-1.23,4.74-1.82.28-.1.78,0,.99.21.14.13-.05.62-.14.94-.07.23-.16.54-.34.63-2.61,1.33-1.41,3-.48,4.7,3.45,6.34,4.17,13.16,2.8,20.09-.5,2.51-2.27,4.77-3.51,7.12-.13.24-.6.29-.92.43-.08-.41-.3-.85-.22-1.23,1.17-5.46,1.99-10.95,2.01-16.57,0-3.71-.86-7.19-2.06-10.64-.37-1.07-.89-1.6-2.11-1.47-1.08.12-2.19.06-3.28-.01-.91-.06-2.08-.67-2.65-.3-.66.43-.76,1.68-1.16,2.55-1.37,2.97-2.31,6.04-2.97,9.29-.74,3.64,0,6.98.82,10.37.69,2.8,1.56,5.55,2.54,8.98-3.61-2.36-5.23-5.31-6.1-8.65-2-7.65-.17-14.75,4.1-21.1,2.04-3.02,1.29-5.5.12-8.24-.54-1.27-.6-1.25.31-3.73.38.81.61,1.37.89,1.89.63,1.16,1.55,1.82,2.94,1.78,1.46-.05,2.92-.05,4.38-.04,2.7.02,4.68-1.03,5.57-3.71l-.1.09h0Z"/>
  <path class="cls-1" d="M176.87,185.95c-.74-1.62-2-3.11-1.14-5.12.12-.29-.12-1.03-.38-1.15-3.87-1.72-4.77-5.36-5.5-8.91-.43-2.08-.08-4.32.24-6.55.3,1.12.63,2.23.9,3.35.17.7.22,1.44.42,2.13,1.88,6.6,4.64,8.78,11.47,8.89,3.39.05,6.82.42,10.13-.76,2-.72,2.05-.77,2.16-3.09.04-.97-.08-2.03.26-2.89.82-2.03.58-3.98-.18-6.07,3.61,2.48,2.92,4.4.58,10.78,2.11-1.96,3.32-3.85,3.95-5.95.61-2.01.7-4.17,1.09-6.75,1.87,2.91,1.54,5.43.62,7.86-1.94,5.15-5.46,8.28-11.12,9.23-4.3.72-8.44.49-12.63-.34-.24-.05-.83.4-.81.57.23,2.14,1.39,3.29,3.53,3.32,3.9.06,7.8-.05,11.7.02,1.68.03,2.86-.34,3.12-2.22.03-.21.46-.38.71-.56.19.27.56.54.55.81-.03,1.87.06,3.77-.28,5.58-.33,1.73-1.92,2.44-3.5,2.84-2.11.54-4.23,1.1-6.38,1.37-4.02.5-8.21-.36-10.58-5.26-.56-1.15.49-1.07,1.16-1.2.24.25.48.5.73.76.07.22.09.49.22.66,1.39,1.7,3.18,2.44,5.4,2.44,3.28,0,6.46-.54,9.56-1.56.33-.11.52-.66.77-1-.31-.12-.64-.39-.93-.35-5.04.84-10.07.65-15.1-.12-.25-.25-.49-.5-.74-.75h0Z"/>
  <path class="cls-1" d="M273.39,325.69c1.24-1.27,2.67-2.41,3.67-3.84,3.38-4.83,5.55-10.2,6.57-16,.84-4.75,1.59-9.52,2.28-14.3,1.03-7.09,1.46-14.22,1.52-21.38.02-1.79.53-3.57.85-5.35.03-.16.34-.35.53-.37.17-.02.51.16.53.29.11.59.17,1.2.17,1.8.01,8.52.18,17.03-.03,25.55-.17,7.27-1.12,14.47-3.58,21.38-1.48,4.17-3.46,8.06-7.1,10.8-1.35,1.01-2.85,1.83-4.32,2.66-.73.41-1.4.27-1.77-.6l-.07.09.83-.83-.09.1h0Z"/>
  <path class="cls-1" d="M124.91,190.64c.9-.62,1.67-1.12,2.42-1.65,2.75-1.97,4.07-4.62,4.23-8.04.26-5.49-1.17-10.55-3.29-15.51-1.47-3.45-2.87-6.89-3.65-10.62-2.25-10.73,4.57-18.98,13.96-21.3,1.19-.29,2.6.18,3.87.45.48.1.88.61,1.32.93-.51.13-1.13.5-1.51.33-1.11-.49-2.05-.27-3.15.05-8.37,2.41-14.45,10.2-10.83,20.77,1.33,3.89,3.21,7.59,4.66,11.44,1.5,3.98,2.52,8.08,2.37,12.42-.22,6.1-3.48,10.01-9.46,11.07-.2.04-.44-.14-.94-.32v-.02Z"/>
  <path class="cls-1" d="M184.06,199.19c.28.71.78,1.41.82,2.13.26,4.86.08,9.71-.96,14.47-1.75,8.01-3.71,15.97-5.31,24.01-.87,4.37-1.24,8.85-1.72,13.29-.32,2.89-.69,5.81-.58,8.69.16,3.97.78,7.93,1.15,11.9.1,1.07.02,2.16-.34,3.37-.37-1.02-.76-2.03-1.1-3.06-1.94-5.79-3.13-11.74-2.67-17.83.5-6.62,1.49-13.19,3.08-19.65,1.7-6.91,3.41-13.81,4.94-20.76.7-3.17.99-6.43,1.43-9.66.31-2.26.55-4.53.82-6.79.15-.04.29-.07.44-.11h0Z"/>
  <path class="cls-1" d="M189.34,200.87c.39,10.54,2.57,20.36,6.22,29.95,1.8,4.74,2.66,9.75,3.41,14.79.93,6.31.83,12.62.57,18.91-.25,6.2-2.35,11.94-6.15,17.05.29-.95.58-1.9.86-2.85,1.41-4.76,2.51-9.57,2.41-14.59-.06-3.41,0-6.81,0-10.22.02-8.18-1.54-16.11-3.94-23.89-1.75-5.66-3.42-11.32-3.44-17.33,0-1.31-.58-2.63-.55-3.93.07-2.63.38-5.26.6-7.88h0Z"/>
  <path class="cls-1" d="M258.39,245.87c-2.94,5.34-4.48,10.41-2.68,16.05.12.37-.07,1.17-.31,1.26-.5.19-1.27.25-1.67-.03-1.34-.93-2.15-2.18-2.3-3.93-.33-3.97.28-7.74,2.04-11.31.64-1.31,1.23-2.65,1.93-3.92,1.25-2.26,2.21-4.56,2.04-7.25-.08-1.32.08-2.78,1.65-3.23.98-.28,2.04,1.37,1.81,3.44-.31,2.8-.47,5.5.8,8.13.95,1.96,1.86,3.95,2.67,5.97.81,2.01,1.65,4.04,2.17,6.14.84,3.39-.32,5.2-4.16,6.72.93-6.44-1.99-11.91-3.99-18.04h0Z"/>
  <path class="cls-1" d="M244.91,180.28c-2.29-3.47-3.36-7.11-3.65-10.94-.41-5.35.39-10.62,1.13-15.92,1.22-8.69-1.47-16.13-8.33-21.69-3.07-2.49-6.73-3.91-10.8-1.9-.21.1-.44.18-.67.22-.07,0-.18-.15-.39-.35.7-1.64,2.23-2.03,3.75-2.22,2.45-.3,4.78.15,7.06,1.22,6.43,3.03,9.85,8.44,11.83,14.92,1.33,4.36.9,8.82.44,13.33-.77,7.44-1.96,14.93-.08,22.4.04.17-.11.38-.28.93h-.01Z"/>
  <path class="cls-1" d="M180.73,199.65c-.64,3.9-.99,7.88-2,11.69-1.54,5.82-3.46,11.55-5.36,17.27-2.1,6.32-3.92,12.68-4.55,19.34-.21,2.17-.56,4.33-.63,6.5-.24,7.66.36,15.25,2.32,22.69.07.27.05.55-.15.9-1.89-2.83-3.06-5.96-3.64-9.23-1.32-7.46-1.21-14.94-.17-22.45.95-6.87,2.84-13.48,5.48-19.84,3.16-7.61,5.67-15.38,7.19-23.48.22-1.18.61-2.32.92-3.48.19.04.39.07.58.11v-.02Z"/>
  <path class="cls-1" d="M197.51,137.83c-.1-2.97,1.53-4.29,2.94-5.77,4.26-4.48,14.27-5.37,18.88-1.77,2.06,1.61,3.63,3.47,4.52,5.96,1.46,4.1,1.58,8.23.97,12.52-.65,4.55-1.49,9.12-1.06,13.74.17,1.78.76,3.52,1.13,5.28.12.55.17,1.11.37,2.45-3.96-4.67-5.67-9.14-4.81-14.55.73-4.53,1.42-9.09,1.68-13.66.54-9.48-7.55-13.98-14.78-11.83-4.82,1.43-7.15,2.82-9.85,7.63h0Z"/>
  <path class="cls-1" d="M190.11,299.27c-1.4.33-2.85.54-4.2,1.02-5.07,1.8-9.82-1.66-12.09-4.64-.39-.51-.45-1.35-.49-2.05-.13-2.28-1.95-4.11-4.35-3.91-1.33.11-2.68.05-4.02-.04-.35-.02-.68-.4-1.01-.62.38-.2.75-.54,1.16-.59,1.09-.13,2.19-.09,3.28-.2,2.61-.26,4.78.35,6.34,2.66,1.27,1.89,3.18,2.55,5.39,2.42,3.39-.2,6.79-.35,10.18-.68,1.6-.15,3.02-.92,3.99-2.3.97-1.38,2.34-2.13,3.94-2.4.64-.11,1.37.19,2.01.42.11.04.15.87-.02,1-.36.27-.88.37-1.35.46-2.35.42-3.94,2.36-4.16,4.11-.31,2.48-1.85,3.22-3.41,4.3-.46.32-.86.73-1.29,1.1l.1-.09v.03ZM175.41,294.97c-.04-.11-.07-.23-.14-.32-.04-.06-.15-.06-.23-.09.15.11.3.21.45.32,4.27,4.64,9.39,4.43,15.16.09-5.23.84-10.25,1.07-15.24,0Z"/>
  <path class="cls-1" d="M286.55,188.8c.25,1.66-1.99,2.43-1.43,4.29.41,1.37.48,2.85.63,4.3.08.72.07,1.46,0,2.19-.46,5.79-.85,11.59-1.44,17.37-.26,2.51-.89,4.99-1.48,7.45-.14.6-.79,1.09-1.2,1.63-.32-.56-.9-1.11-.9-1.67,0-3.77.06-7.54.2-11.3.07-1.93.33-3.85.51-5.78.21-2.29.48-4.57.59-6.87.08-1.57-.04-3.15-.14-4.72-.06-.96-.34-1.91-.35-2.87-.05-3.89,1.29-4.9,5.1-3.92l-.1-.1h.01Z"/>
  <path class="cls-1" d="M231.81,180.92c3.01,1.39,4.87,3.66,5.52,6.25.94,3.76.93,7.74-1.18,11.32-.42.72-1.01,1.39-1.65,1.92-1.92,1.6-4.66,1.31-6.09-.75-.74-1.08-1.47-2.36-1.63-3.62-.64-5.01-.27-9.93,2.05-14.54.13-.25.52-.37.78-.55.12.39.41.81.35,1.17-.66,3.94-1.21,7.88-.38,11.86.29,1.41.41,3,2.03,3.57.98.35,2.08-1.38,2.3-3.64.28-2.93.18-5.81-1.03-8.59-.56-1.29-1.14-2.62-1.08-4.41h0Z"/>
  <path class="cls-1" d="M171.51,148.35c-1.86-2.15-3.46-3.76-4.78-5.57-2.28-3.13-5.35-4.41-9.09-4.43-2.71,0-3.57.55-4,3.14-.41,2.5-.66,5.04-.82,7.57-.44,7.26-.8,14.53-1.2,22.01-.32-.41-.82-.75-.88-1.16-1.09-7.35-1.18-14.76-.82-22.16.12-2.51.58-5.05,1.25-7.48,1.1-4,3.21-5.11,7.33-4.24,6.37,1.34,10.55,5.17,13.01,12.32h0Z"/>
  <path class="cls-1" d="M293.54,382.06c-1.69-.53-3.4-.97-5.05-1.59-9.82-3.71-17.95-9.63-23.73-18.5-1.19-1.82-2.11-3.82-3.12-5.75-.27-.53-.51-1.13-.52-1.71,0-.41.29-.98.63-1.2.3-.19,1-.16,1.26.08.7.62,1.43,1.32,1.84,2.14,3.71,7.5,9.44,13.26,16.01,18.17,3.48,2.6,7.45,4.53,11.2,6.76.57.34,1.14.69,1.7,1.03-.07.19-.15.38-.22.57h0Z"/>
  <path class="cls-1" d="M356.82,259.79c1.31-4.17.91-8.05-1.19-11.64-.53-.91-1.08-1.82-1.62-2.73-.58.97-1.17,1.95-1.74,2.93-.73,1.25-1.38,2.57-2.2,3.76-1.91,2.74-1.13,5.23.61,7.62.25.34.97.51.38.95-.33.25-1.29.25-1.5,0-1.98-2.48-3.1-5.21-1.79-8.4.74-1.79,1.56-3.55,2.4-5.29,1.55-3.21,2.51-6.53,2.29-10.15-.07-1.09-.05-2.2.14-3.27.09-.49.66-1.15,1.11-1.24.42-.09,1.27.37,1.42.77.41,1.1,1.02,2.46.7,3.44-1.27,3.87.09,7.14,1.82,10.4.4.75.86,1.46,1.31,2.19,2.72,4.38,2.28,7.02-2.14,10.68v-.02Z"/>
  <path class="cls-1" d="M187.66,276.84c.25-5.19.64-10.38.71-15.57.07-5.09-.19-10.18-.32-15.28-.04-1.82-.16-3.65-.13-5.47.05-4.86-.53-9.64-1.32-14.43-.37-2.23-.06-4.57.28-6.87,1.04,5.89,2.35,11.76,3.03,17.69.65,5.65.78,11.37.91,17.07.21,9.7,0,12.09-3.16,22.85h0Z"/>
  <path class="cls-1" d="M127.35,204.01c3.7,1.45,4.83,4.33,5.43,7.24.94,4.56-.45,8.69-3.68,12.03-2.47,2.55-5.25,1.93-6.52-1.45-.63-1.67-1.16-3.56-1.02-5.3.33-3.95.56-7.99,2.44-11.62.44-.84,1.08-1.59,1.7-2.31.14-.16.68-.14.9,0,.15.11.16.6.07.85-.54,1.45-1.22,2.84-1.7,4.31-1.05,3.18-.76,6.48-.69,9.75.04,1.58.21,3.63,1.85,3.99,1.66.36,1.97-1.76,2.66-2.97,1.84-3.23,1.26-6.56.29-9.87-.4-1.39-1-2.72-1.72-4.67v.02Z"/>
  <path class="cls-1" d="M8.66,313.18c1.67,1.57,3.25,3.24,5.05,4.64.65.51,1.84.54,2.76.46,5.29-.41,10.57-.93,15.86-1.39,1.21-.1,2.43-.11,3.64-.16.59-.02,1.27-1.03,1.73.18-.63.2-1.25.5-1.89.57-4.68.5-9.36.98-14.05,1.4-1.45.13-2.92.03-4.37.11-.7.04-1.57.05-2.05.45-.6.5-.89,1.39-1.31,2.11.61.33,1.2.86,1.84.95,1.19.15,2.43.11,3.64.03,2.29-.14,4.58-.39,6.87-.55,3.86-.27,7.72-.51,11.58-.76.16.11.32.21.49.32-.18-.09-.35-.18-.53-.27.23-.65.46-1.3.72-2.04.34.23.61.31.62.43.15,1.16.26,2.33.39,3.5-1.14.09-2.28.18-3.42.28-3,.26-6.01.53-9.01.77-2.41.2-4.81.51-7.22.51-2.03,0-4.09-.22-6.07-.63-1.86-.39-2.43-1.71-1.49-3.5.73-1.4.5-2.04-.83-2.8-1.46-.83-2.73-2-4.11-2.97-.78-.54-1.39-1.21-.64-2.02.21-.23,1.22.27,1.87.44l-.06-.06h-.01Z"/>
  <path class="cls-1" d="M246.48,193.63c6.33,5.01,6.6,12.52,3.39,17.54-.55.87-1.54,1.52-2.44,2.09-1.42.89-2.75.52-3.97-.59-1.35-1.22-1.97-2.83-2.13-4.5-.46-4.75.2-9.41,1.69-13.94.18-.56.61-1.03.94-1.53.04-.06.26-.08.35-.03.18.1.48.28.46.39-.28,1.78-.75,3.53-.89,5.32-.22,2.77-.25,5.56-.32,8.34,0,.35.11.73.27,1.05.55,1.12.41,3.02,2.19,2.92,1.55-.09,1.99-1.8,2.28-2.99.68-2.85.62-5.77-.17-8.63-.45-1.61-.95-3.2-1.62-5.43h-.03Z"/>
  <path class="cls-1" d="M218.43,149.23c0,2.19.02,4.37-.03,6.56,0,.24-.4.47-.61.7-.18-.25-.5-.49-.53-.76-.31-3.01-.47-6.03-.9-9.02-.32-2.25-.79-4.52-1.53-6.67-.92-2.68-3.15-3.66-6.03-3.4-4.93.44-8.27,3.09-10.63,7.24-.12.21-.11.51-.27.67-.29.29-.66.49-.99.74-.03-.46-.22-1-.06-1.38,1.6-3.84,4.09-6.93,8.06-8.42,1.88-.71,3.98-1.3,5.94-1.21,3.29.15,5.51,2.21,6.77,5.26,1,2.42,1.04,4.96,1.03,7.51v2.19h-.24.02Z"/>
  <path class="cls-1" d="M239.06,153.79c-.1,4.5.3,8.94,1.35,13.33.07.29-.36.71-.55,1.06-.22-.24-.53-.45-.63-.74-2.07-5.88-2.68-12-3.02-18.17-.1-1.8-.07-3.69-.61-5.38-1.56-4.93-4.2-8.78-10.17-8.59-.24,0-.5-.33-.75-.51.23-.23.44-.61.7-.65,2.47-.37,4.74-.11,6.91,1.44,4.66,3.33,6.37,8.05,6.77,13.46.12,1.57.02,3.16.02,4.75h-.02Z"/>
  <path class="cls-1" d="M185.34,447.45c-.6,1.41-.98,2.98-1.85,4.19-1.35,1.88-3.75,1.67-4.76-.38-.67-1.36-1.38-2.85-.64-4.53.48-1.09.6-2.37,1.15-3.42.8-1.52,2.29-1.76,3.7-.79,1.69,1.15,2.28,2.78,2.4,4.92h0ZM181.89,444.51c-.33,1.46-2.23,2.97,0,4.78v-4.78Z"/>
  <path class="cls-1" d="M260.3,362.53c1.55,1.94,2.86,3.2,3.73,4.72,3.26,5.66,8.19,9.5,13.56,12.9,2.42,1.53,4.59,3.58,7.71,3.65.12,0,.35.31.32.4-.07.2-.27.48-.43.49-.6.04-1.24.11-1.79-.07-1.26-.4-2.59-.77-3.7-1.46-3.7-2.3-7.52-4.48-10.92-7.18-3.74-2.97-6.29-7.02-8.29-11.36-.18-.39-.09-.91-.19-2.1h0Z"/>
  <path class="cls-1" d="M188.05,344.08c-.09.87-.07,1.13-.15,1.34-.17.42-.4.81-.61,1.21-.33-.26-.74-.46-.98-.79-.63-.85-1.02-1.72-2.28-2.13-1.67-.53-3.09-.24-4.6.24-1.52.49-2.49,1.42-2.65,3.09-.02.2-.53.51-.79.49-.3-.03-.76-.34-.81-.59-.14-.66-.27-1.41-.1-2.05,1.04-3.91,8.44-6.27,11.98-3.12.69.61.82,1.86,1,2.31h-.01Z"/>
  <path class="cls-1" d="M104.11,389.88c-2.48,2.67-5.22,3.15-7.86,3.61-3.26.57-6.47.07-9.46-1.44-.19-.1-.22-.58-.23-.88,0-.06.43-.25.61-.19,4.35,1.43,8.57-.22,12.84-.57,1.16-.09,2.32-.29,4.11-.52h0Z"/>
  <path class="cls-1" d="M245.56,182.47c2.37,1.01,3.42,2.38,3.07,4.66-.33,2.1-1.9,3.49-3.67,3.12-1.59-.33-2.95-2.49-2.61-4.21.12-.59.29-1.19.57-1.71.11-.21.57-.25.86-.37.08.21.22.42.21.63-.03.69-.28,1.41-.13,2.05.17.77.48,1.87,1.61,1.44.47-.18.95-1.1.92-1.66-.06-1.16-.46-2.3-.83-3.95h0Z"/>
  <path class="cls-1" d="M176.69,164.19c.26.34.7.68.65.88-1.27,4.24,1.29,7.08,3.57,10.04.18.23.12.64.18.96-.32,0-.75.14-.96,0-2.5-1.83-4.38-4.07-5.15-7.2-.39-1.6.11-2.84.81-4.11.14-.25.55-.35.9-.56h0Z"/>
  <path class="cls-1" d="M125,197.14c.08-.91.02-1.31.17-1.62.12-.26.47-.42.76-.57.04-.02.36.3.38.49.09.72-.01,1.49.22,2.16.16.46.74.77,1.13,1.15.32-.49.92-.99.89-1.45-.05-.77-.51-1.51-.77-2.27-.09-.28-.16-.59-.12-.87,0-.07.44-.18.65-.13,1.65.35,2.62,1.55,2.48,3.04-.14,1.53-1.98,3.55-3.25,3.41-.53-.06-1.23-.41-1.49-.84-.54-.9-.84-1.95-1.05-2.48v-.02Z"/>
  <path class="cls-1" d="M138.9,185.84c.04-.18.08-.55.23-.86.08-.16.37-.31.56-.31s.51.15.56.3c.19.55.24,1.15.43,1.7.06.17.52.38.56.33.22-.21.47-.49.49-.77.03-.33-.08-.72-.25-1.02-.33-.55-.63-1.13.15-1.43.37-.14.98,0,1.35.23,1.03.65,1.39,2.33.85,3.54-.38.87-2.11,1.96-2.91,1.84-1.14-.18-2.07-1.74-2.03-3.58v.03Z"/>
  <path class="cls-1" d="M228.05,172.07c-.02-1.08.6-1.65,1.58-1.4.73.19,1.8.7,1.93,1.25.26,1.11.19,2.4-.14,3.5-.37,1.25-1.93,1.96-2.89,1.57-1.21-.5-1.9-1.4-1.84-2.8.05-1.05.32-1.89,1.45-2.2-.04.59-.21,1.21-.09,1.77.13.59.53,1.13.82,1.69.41-.65,1.13-1.3,1.15-1.97.03-1.09-.79-1.64-1.96-1.41h0Z"/>
  <path class="cls-1" d="M189.5,168.88c-.15-.85-.39-1.89-.5-2.94-.03-.25.3-.7.55-.77.23-.07.74.18.83.41.62,1.54,1.44,3.04.83,4.82-.31.9-.33,1.9-.65,2.79-.3.83-.84,1.57-1.28,2.35-1.09-.86-.44-1.87-.27-2.86.2-1.18.31-2.37.48-3.8h0Z"/>
  <path class="cls-1" d="M183.95,165.95c.54.5.76.61.84.79.09.21.07.47.09.71.23,2.62.47,5.25.66,7.87.02.28-.25.6-.45.85-.03.04-.52-.12-.57-.27-.9-2.95-2.22-5.85-.96-9.03.13-.32.26-.64.38-.93h.01Z"/>
  <path class="cls-1" d="M30.3,332.28c-.42.18-.85.52-1.27.5-2.1-.07-4.2-.23-6.29-.35,1.75-1.78,3.94-.52,5.91-.85.56-.09,1.17.07,1.76.11-.04.2-.07.39-.11.59h0Z"/>
  <path class="cls-1" d="M36.71,325.94c-.49,2.65-.64,5.54-4.12,6.15,1.41-2.1,2.77-4.12,4.12-6.15Z"/>
  <path class="cls-1" d="M133.53,348.11c-2.58,8.96-5.04,17.4-9.31,25.16-1.43,2.6-3.09,5.07-5.96,7.3.21-1.02.16-1.56.41-1.87,3.83-4.84,5.86-10.53,7.79-16.28,1.58-4.7,3.17-9.4,5.97-13.57.12-.17.36-.25,1.11-.75h-.01Z"/>
  <path class="cls-1" d="M116.11,362.26c3.55-5.52,7.1-11.05,10.81-16.81-.41,4.77-5.26,12.71-10.81,16.81Z"/>
  <path class="cls-1" d="M121.99,345.42c-.57,1.12-1.09,2.35-1.79,3.47-.7,1.13-1.53,2.19-2.39,3.2-.24.28-.82.26-1.24.38-.08-.45-.39-1.05-.21-1.32,1.08-1.61,2.27-3.14,3.44-4.69.43-.57.92-1.1,1.4-1.64.06-.07.29-.09.34-.04.15.15.26.34.45.63h0Z"/>
  <path class="cls-1" d="M182.11,484.2c-2.34,4.09-3.61,7.96-4.15,12.01-.69,5.2-.58,10.41.62,15.56.08.35.28.67.43,1,1.6,3.4,4.63,3.98,7.32,1.37,2.04-1.97,2.52-4.67,2.98-7.27,1.47-8.2-.63-15.56-6.08-22.84,1.4.6,2.19.77,2.76,1.22,1.89,1.47,2.82,3.65,3.7,5.77,2.97,7.19,3.43,14.56.97,21.99-.86,2.59-2.36,4.72-5.11,5.83-3.73,1.5-7.33.39-9.47-3.02-1.34-2.15-1.77-4.59-1.95-6.94-.58-7.36.46-14.5,3.99-21.13.78-1.46,1.62-2.87,3.97-3.55h.02Z"/>
  <path class="cls-1" d="M187.85,143.19c.09-1.27.02-2.59.3-3.82,1.23-5.48,1.45-11.03,1.06-16.59-.2-2.86-1.07-5.67-1.63-8.5-.16-.82-.36-1.65-.38-2.48,0-.36.4-.73.62-1.09.37.26.9.45,1.07.81.48.97.8,2.01,1.2,3.01,3.06,7.76,2.92,15.55.23,23.36-.62,1.8-1.24,3.6-1.86,5.4-.2-.04-.4-.07-.61-.11h0Z"/>
  <path class="cls-1" d="M183.15,109.72c-4.64,9.97-2.41,19.45-.12,29.11-.35-.49-.76-.95-1.05-1.47-3.2-5.83-4.16-12.13-3.54-18.66.19-2.02.88-4.02,1.55-5.95.44-1.24,1.33-2.29,3.16-3.03h0Z"/>
</svg>