<?xml version="1.0" encoding="UTF-8"?>
<svg id="Layer_1" data-name="Layer 1" xmlns="http://www.w3.org/2000/svg" version="1.1" viewBox="0 0 84.48 150.76">
  <defs>
    <style>
      .cls-1 {
        fill: #000;
        stroke-width: 0px;
      }
    </style>
  </defs>
  <path class="cls-1" d="M69.3,145.53c-.33.79-.56,1.35-.8,1.92-.4-.36-.97-.64-1.19-1.09-2.48-5.14-5.13-10.21-7.29-15.48-7.45-18.19-14.68-36.46-22.1-54.67-3.32-8.14-7.55-14.9-17.45-17.03-6.74-1.44-11.32-6.84-12.9-13.98-1.91-8.65-3.71-17.32-5.53-25.99-.13-.61-.23-1.33-.02-1.88.39-1.03,1.02-1.96,1.54-2.94.63.65,1.57,1.19,1.84,1.96,2.34,6.89,5.06,13.7,6.7,20.77,1.97,8.52,5.78,14.33,15.03,16.12,7.41,1.43,12.34,7.05,14.96,13.61,9.87,24.67,21.92,48.61,26.42,75.17.21,1.24.56,2.46.79,3.5Z"/>
  <path class="cls-1" d="M31.01,6.13c.52.92.82,1.46,1.14,2,7.19,12.04,13.48,24.32,14.67,38.75.37,4.51,2.22,9.43,4.84,13.14,8.62,12.16,13.83,25.61,17.34,39.92,3.32,13.53,6.91,27,10.33,40.51.28,1.12.2,2.34.29,3.51-1.03-.92-2.58-1.65-3.01-2.8-3.53-9.49-7.09-18.98-10.15-28.62-2.1-6.63-3.48-13.49-5.09-20.27-2.32-9.72-6.67-18.48-12.43-26.58-4.12-5.8-6.86-11.95-7.22-19.28-.54-10.89-3.57-21.18-9-30.74-1.23-2.16-1.86-4.68-2.55-7.1-.17-.6.47-1.43.83-2.42Z"/>
  <path class="cls-1" d="M21.17,6.59c.59.85,1.53,1.76,1.96,2.87,4.61,12.12,9.14,24.27,13.66,36.43.18.48.02,1.09.01,1.64-.76-.26-1.9-.3-2.21-.82-2.28-3.79-4.88-7.49-6.46-11.57-3.32-8.54-6.1-17.28-8.99-25.98-.22-.65.48-1.64.83-2.43.06-.13.55-.07,1.21-.13Z"/>
  <path class="cls-1" d="M25.58,46.9c-.21.38-.48.86-.75,1.34-.47-.36-1.19-.62-1.37-1.09-4.23-10.86-8.43-21.73-12.53-32.64-.42-1.11-.27-2.47-.18-3.71.04-.53.59-1.03.91-1.54.5.36,1.27.62,1.46,1.1,3.97,10.25,7.93,20.51,11.73,30.83.63,1.72.5,3.73.74,5.7Z"/>
</svg>