<?xml version="1.0" encoding="UTF-8"?>
<svg id="Layer_1" data-name="Layer 1" xmlns="http://www.w3.org/2000/svg" version="1.1" viewBox="0 0 84.48 150.76">
  <defs>
    <style>
      .cls-1 {
        fill: #000;
        stroke-width: 0px;
      }
    </style>
  </defs>
  <path class="cls-1" d="M37.55,59.8c-3.61-11.03-7.13-22.1-10.87-33.09-1.11-3.27-3-6.28-4.16-9.54-.54-1.51-.2-3.34-.26-5.03,1.27,1.26,3.05,2.29,3.73,3.82,4.75,10.66,10.17,21.13,13.67,32.21,6.03,19.13,14.26,37.12,24.72,54.12,6.93,11.27,9.79,23.82,13.02,36.36.96,3.72-.62,6.16-2.56,8.54-1.54,1.87-3.87,2.32-5.75.24-1.53-1.69-1.37-3.48.77-4.67,3.72-2.07,4.25-4.96,2.9-8.82-6.51-18.5-15.67-35.61-26.8-51.71-.42-1.36-.85-2.71-1.27-4.07-.07-.28-.11-.57-.23-.83-.07-.14-.28-.22-.43-.32.3.32.6.64.9.96.42,1.37.84,2.74,1.26,4.11,4.54,14.43,9.07,28.86,13.64,43.28.48,1.5,1.31,2.91,1.65,4.43.24,1.05-.08,2.24-.15,3.36-.68-.61-1.48-1.13-2.01-1.85-6.21-8.45-11.35-17.44-14.7-27.46-3.51-10.49-7.28-20.88-11.05-31.28-2.41-6.65-5.81-12.74-11.91-16.71-11.17-7.26-15.68-17.21-14.75-30.62.42-6.08.86-11.9,3.22-17.47.72-1.7,1.75-3.45,3.09-4.66.93-.84,2.66-.79,4.03-1.13-.05,1.15.18,2.41-.2,3.45-3.19,8.82-3.47,17.88-2.5,27.09.52,4.96,2.57,9.09,6.28,12.37,5.61,4.97,11.28,9.86,16.93,14.78.42,1.34.85,2.69,1.27,4.03.1.21.21.43.31.64,0,0,0,0,.01,0-.18-.15-.36-.31-.54-.46-.42-1.36-.84-2.71-1.26-4.07Z"/>
</svg>