<?xml version="1.0" encoding="UTF-8"?>
<svg id="Layer_1" data-name="Layer 1" xmlns="http://www.w3.org/2000/svg" version="1.1" viewBox="0 0 124.75 150.76">
  <defs>
    <style>
      .cls-1 {
        fill: #000;
        stroke-width: 0px;
      }
    </style>
  </defs>
  <path class="cls-1" d="M39.11,108.76c9.65-11.19,14.89-24.12,20.55-36.84,4.45-10,8.97-19.99,13.99-29.72,7.04-13.66,17.72-24.09,30.47-32.48,4.33-2.84,9.26-3.99,14.29-4.64,1.01-.13,2.15.69,4.09,1.37-2.15,1.06-3.41,1.7-4.68,2.31-16.18,7.73-28.38,19.62-36.91,35.33-6.45,11.89-10.65,24.74-15.78,37.2-3.13,7.59-6.68,15-10.15,22.44-2.09,4.49-5.17,8.29-9.25,11.09-1.57,1.08-2.12,2.27-2.49,4.04-1.01,4.72-2.21,9.41-3.59,14.04-1.36,4.55-3.9,8.43-7.74,11.33-2.84,2.14-5.25,2.17-7.47.22-2.07-1.82-2.46-4.6-.2-7.4,3.21-3.96,6.36-7.88,8.1-12.74.33-.94.5-1.93.89-3.49-3.48,2.32-6.45,4.16-9.24,6.24-1.31.98-2.43,2.32-3.33,3.7-1.84,2.84-2.02,2.98-4.4,1.05-.64-.52-1.12-1.22-1.47-1.61,1.59-6.86,4.98-12.33,10.87-16.76-6.35,1.77-12.81,7.59-16.78,14.98-3.48-3.17-2.99-6.84-1.68-10.4,4.42-12.02,18.52-17.04,29.65-10.68.72.41,1.42.87,2.28,1.4Z"/>
</svg>