<?xml version="1.0" encoding="UTF-8"?>
<svg id="Layer_1" data-name="Layer 1" xmlns="http://www.w3.org/2000/svg" version="1.1" viewBox="0 0 112.51 150.76">
  <defs>
    <style>
      .cls-1 {
        fill: #000;
        stroke-width: 0px;
      }
    </style>
  </defs>
  <path class="cls-1" d="M36.28,99.44c-1.7,1.82-3.33,3.71-5.11,5.45-4.47,4.4-8.24,9.34-10.36,15.22-1.09,3.04-1.6,6.53-1.38,9.75.27,4,4.16,5.61,7.26,3.07,2.53-2.07,4.77-4.72,6.48-7.52,4.09-6.72,5.38-14.36,6.02-22.06.17-1.98-.03-4.22-.83-6-3.88-8.6-1.77-16.78,2.03-24.5,2.58-5.24,6.07-10.17,9.85-14.65,7.7-9.12,17.53-15.92,26.81-23.29,6.65-5.29,13.25-10.64,19.87-15.98,4.82-3.89,6.96-9.43,9.21-14.93.32-.77,1.42-1.85,1.97-1.75.81.14,1.95,1.16,2.05,1.92.24,1.72.2,3.59-.2,5.28-1.34,5.6-3.71,10.72-8.13,14.61-11.02,9.7-21.98,19.48-33.18,28.97-9.58,8.12-17.34,17.57-22.86,28.86-2.19,4.48-3.43,8.75-.6,13.69,2.47,4.33,2.31,9.47,1.96,14.37-.73,10.13-3.42,19.64-9.19,28.19-4.31,6.39-12.78,11.08-22.25,6.69-8.11-3.76-11.97-12.97-9.63-22.13,2.28-8.93,8.38-14.65,15.93-18.98,4.13-2.37,8.72-3.95,13.11-5.88.39.53.78,1.06,1.17,1.59Z"/>
</svg>