<?xml version="1.0" encoding="UTF-8"?>
<svg id="Layer_1" data-name="Layer 1" xmlns="http://www.w3.org/2000/svg" version="1.1" viewBox="0 0 112.51 125.32">
  <defs>
    <style>
      .cls-1 {
        fill: #000;
        stroke-width: 0px;
      }
    </style>
  </defs>
  <path class="cls-1" d="M105.05,3.19c.89-.48,2.01-.92,2.81-.32.38.29.59.75.68,1.22.3,1.51-.44,3.07-1.5,4.19s-2.43,1.88-3.73,2.71c-7.69,4.93-13.46,12.02-19.18,19.03-4.13,5.07-6.79,10.98-8.7,17.28-1.46,4.82-3.25,9.56-5.13,14.25-3.81,9.48-10.31,16.94-18.01,23.47-10.53,8.93-21.11,17.81-31.53,26.87-2.57,2.23-4.73,4.98-6.9,7.64-2.5,3.06-4.96,3.89-7.87,2.34-3.21-1.71-4.35-4.48-3.33-8.12,1.51-5.4,4.37-10.12,8.21-14.05,11.62-11.92,22.6-24.51,36.28-34.3,3.76-2.7,6.53-6.77,10.26-9.52,5.49-4.04,8.41-9.3,10.3-15.71,1.36-4.6,3.8-8.93,6.16-13.17,7.08-12.73,19.08-17.11,31.09-23.74.03-.02.06-.03.09-.05ZM50.9,71.26c-.4.41-.81.82-1.21,1.22-.4.41-.81.82-1.21,1.23-.4.41-.81.82-1.21,1.23-.4.41-.8.82-1.2,1.23-.57.07-1.36-.07-1.69.25-4.22,4.1-9.23,7.5-11.88,13.04-.42.39-.84.78-1.26,1.18-9.42,7.48-17.86,18.06-19.63,25.2,1.09-1.04,1.67-1.49,2.12-2.05,4.93-6.17,9.86-12.34,14.73-18.55,1.09-1.39,1.98-2.94,2.96-4.42.39-.42.78-.84,1.17-1.27,4.45-4.5,8.89-9.01,13.34-13.51.4-.41.8-.83,1.19-1.24l1.2-1.24,1.21-1.23c.41-.41.81-.82,1.22-1.22l1.25-1.25c3.84-.2,5.73-2.37,6.09-6.07.18-.05.38-.06.53-.15.1-.06.12-.25.17-.38l-.55.69c-2.03,2.02-4.05,4.04-6.08,6.06-.42.42-.84.83-1.26,1.25Z"/>
</svg>