<?xml version="1.0" encoding="UTF-8"?>
<svg id="Layer_1" data-name="Layer 1" xmlns="http://www.w3.org/2000/svg" version="1.1" viewBox="0 0 213.1 656.23">
  <defs>
    <style>
      .cls-1 {
        fill: #000;
        stroke-width: 0px;
      }
    </style>
  </defs>
  <path class="cls-1" d="M109.66,145.92c10.18-14.35,15.23-30.1,15.09-47.91-.1-13.42,1.98-26.84,2.37-40.28.23-7.88-.94-15.81-1.53-23.71-.23-3.04-1.49-6.35-.67-9.06,1.48-4.93,3.84-13.29,6.4-13.51,7.36-.62,6.66,7.54,7.22,12.28,3,25.46,6,50.96,7.54,76.53.88,14.62-1.17,29.56-10.28,41.93-4.96,6.73-13.88,11.47-16.51,18.73-2.39,6.59,1.63,15.37,2.27,23.23,1.06,12.95-5.9,20.99-17.5,24.72-8.12,2.61-10.47,7.5-9.19,15.19,1.3,7.8,2.05,15.74,3.98,23.38,8.39,33.24,14.4,66.79,15.44,101.17.33,10.98,1.59,21.97,2.97,32.88,5.2,40.95.18,81.9-.32,122.82-.25,20.66,1.84,40.09,11.43,58.57,5.9,11.39,11.01,23.18,16.65,34.71,1.87,3.83,4.04,7.58,6.5,11.06,4.19,5.95,8.14,13.38,17.21,10.7,9.64-2.84,6.74-11.59,7.47-18.58,4.28-40.7-7.6-77.49-27.92-111.89-13.47-22.81-18.35-47.58-20.48-73.41-2.06-24.96-4.14-49.95-7.23-74.8-3.99-32.06-9.32-63.95-13.32-96-.95-7.6.98-15.6,1.96-23.37.12-.92,2.51-1.94,3.96-2.15.76-.11,2.36,1.32,2.55,2.27,1.6,7.75,3.46,15.5,4.29,23.36,3.38,31.71,12.16,62.22,19.62,93.06,3.57,14.77,5.06,30.06,7.12,45.16,2.73,19.97,4.6,40.07,7.85,59.94,1.36,8.3,5.1,16.27,8.16,24.23,10.95,28.47,23.53,56.41,32.55,85.47,5.14,16.57,5.76,34.88,6.26,52.47.5,17.78-11.33,31.77-28.07,36.56-11.53,3.29-22.64,1.16-30.25-7.97-7.32-8.78-13.99-18.68-18.47-29.15-18.75-43.78-28.07-89.54-26.12-137.37.37-9.17.43-18.39-.1-27.55-.94-16.44-2.23-32.87-3.71-49.27-3.52-38.96-7.41-77.9-10.81-116.87-1.8-20.63-2.88-41.33-4.29-61.99-.04-.61.11-1.46-.22-1.79-16.54-16.43-11.65-46.54-37.24-57.69-4.51-1.96-8.2-9.4-9.32-14.91-4.35-21.52-8.56-43.19-10.72-65.01-1.18-11.91,1.42-24.3,3.28-36.32.52-3.34,4.5-6.15,6.9-9.2,1.25,3.08,2.72,6.1,3.66,9.28.5,1.69.21,3.66.07,5.48-2.23,29.9,5.71,58.09,14.07,86.28,2.03,6.85,4.37,12.64,11.96,14.56,1.28,1.23,2.55,2.45,3.83,3.68.1.51.12,1.06.34,1.5.14.27.6.37.92.55-.56-.54-1.12-1.08-1.68-1.61-1.26-1.25-2.52-2.51-3.78-3.76-5.95-30.03-9.85-60.26-7.58-90.93.58-7.82,2.26-15.67,4.54-23.17.8-2.63,4.92-4.25,7.52-6.33,1.11,2.56,2.97,5.05,3.21,7.68,1.43,15.75,1.56,31.67,3.89,47.27,2.96,19.86,7.51,39.5,11.67,59.16.41,1.93,2.9,3.42,4.43,5.12.59-1.61,1.29-3.19,1.76-4.83,5.15-18,4.38-36.57,2.11-54.56-2.35-18.62.95-36.51,2.2-54.69.12-1.68,2.49-3.2,3.81-4.8.82,1.49,2.15,2.91,2.38,4.48,1.48,10.25,2.58,20.56,4.09,30.81,2.12,14.45,4.36,28.89,6.79,43.3,2.58,15.33.21,30.33-2.55,45.34-.7.72-1.41,1.43-2.11,2.15.56-.87,1.13-1.74,1.69-2.61ZM106.18,174.32c-1.43-1.52-2.5-3.59-3.49-3.55-7.26.26-14.53.72-21.71,1.71-1.11.15-3,3.86-2.49,5.03,1.91,4.36,4.03,8.96,7.27,12.31,4.85,5.02,12.32,4.12,15.58-1.71,2.31-4.12,3.23-9.03,4.84-13.8ZM90.16,151.43c-.41-.35-.88-1.06-1.2-1-.99.19-1.93.67-2.89,1.03.43.31.91.94,1.28.88.96-.14,1.88-.59,2.81-.92Z"/>
</svg>