<?xml version="1.0" encoding="UTF-8"?>
<svg id="Layer_1" data-name="Layer 1" xmlns="http://www.w3.org/2000/svg" version="1.1" viewBox="0 0 158.01 656.23">
  <defs>
    <style>
      .cls-1 {
        fill: #000;
        stroke-width: 0px;
      }
    </style>
  </defs>
  <path class="cls-1" d="M145.29,597.5c0,7.23.74,14.57-.23,21.67-.8,5.88-2.73,12-5.71,17.11-6.16,10.58-15.18,13.37-25.48,6.85-16.1-10.19-31.33-22.23-36.7-41.6-5.17-18.64-9.46-37.66-12.26-56.78-2.65-18.08-2.88-36.51-4.14-54.78-1.46-21.08-3-42.15-4.24-63.24-.39-6.58.15-13.22.17-19.83.04-10,.35-20.01-.12-29.98-.44-9.42-1.99-18.79-2.59-28.21-.42-6.67.11-12.03-8.72-15.31-10.54-3.91-13.12-14.55-11.5-25.32,1.39-9.23-.26-16.18-6.97-23.89-6.19-7.11-9.87-17.57-11.62-27.11-3.42-18.54-6.13-37.43-6.61-56.24-1.15-45.08-1.12-90.21-.92-135.31.06-12.69,2.02-25.43,3.79-38.05.88-6.23,4.06-11.73,11.1-13.13,6.28-1.25,10.82,2.22,14.32,6.75,7.79,10.07,10.27,22.14,11.09,34.39,1.63,24.41,1.83,48.93,4.01,73.28,3.38,37.6,8.43,75.06,11.7,112.67,1.09,12.58,6.89,24.92,2.74,37.96-.45,1.42.89,4.48,2.26,5.26,13.51,7.67,15.24,22.08,19.47,34.66,9.2,27.4,13.3,56.01,19.16,84.24,7.1,34.19,17.92,67.59,25.58,101.68,6.81,30.31,12.64,60.94,12.41,92.26ZM132.21,600.9c-3.09-39.28-9.44-75.83-18.63-111.95-8.6-33.83-18.57-67.32-22.9-102.19-2.11-16.97-7.14-33.58-10.91-50.35-1.45-6.45-4.29-7.19-10.22-3.75-5.91,3.43-8.06,4.91-5.71,13.33,4.43,15.82,7.43,32.83,6.59,49.11-.87,16.72-.59,33.08.5,49.73,2.69,41.02,3.98,82.09,10.55,122.82,4.09,25.4,14.21,46.55,35.69,61.48,6.42,4.47,10.57,3.7,12.32-3.89,1.98-8.54,2.03-17.53,2.72-24.35ZM26.34,162.94c0,.08,0,.16,0,.23,1.03,30.5,5.49,60.74,8.66,91.07.93,8.94,3.45,17.5,10.51,23.84,1.12,1.01,2.71,1.5,4.08,2.23.09-1.55.44-3.13.24-4.65-2.88-21.98-7.16-43.88-8.48-65.95-2.29-38.29-2.58-76.7-4.07-115.04-.58-14.99-1.82-29.97-3.39-44.88-.57-5.41-2.86-10.66-4.66-15.89-.5-1.45-2.04-2.54-3.1-3.79-.39,1.46-1.09,2.92-1.12,4.38-.28,13.36-.99,26.73-.52,40.07,1.04,29.55.85,58.94,1.84,88.38ZM64.73,307.34c-.2-3.11-.03-4.83-.49-6.35-.57-1.9-1.67-5.16-2.54-5.16-2.47,0-6.51.73-7.13,2.29-1.71,4.3-2.57,9.17-2.54,13.81.01,1.89,3.51,5.53,4.84,5.28,2.7-.5,5.48-2.74,7.3-5,1.12-1.39.5-4.17.56-4.86Z"/>
</svg>