<?xml version="1.0" encoding="UTF-8"?>
<svg id="Layer_1" data-name="Layer 1" xmlns="http://www.w3.org/2000/svg" version="1.1" viewBox="0 0 350 841.89">
  <defs>
    <style>
      .cls-1 {
        fill: #000;
        stroke-width: 0px;
      }
    </style>
  </defs>
  <path class="cls-1" d="M112.14,81.72c-7.68,4.96-15.14,10.31-23.1,14.78-7.7,4.32-13.52,10.3-18.66,17.26-5.64,7.63-11.13,15.45-17.49,22.44-3.25,3.57-7.95,6.65-12.56,7.96-10.56,3-19.21-1.49-22.55-12.04-2.93-9.27-4.21-19.06-6.1-28.65-.11-.55.9-1.31,1.38-1.97.47.35,1.2.6,1.38,1.06,2.07,5.3,4,10.66,6.11,15.94,1.41,3.52,2.81,7.08,4.63,10.39,4.78,8.71,12.64,10.52,20.58,4.52,3.51-2.65,6.43-6.1,9.52-9.29,1.76-1.82,3.58-3.68,4.9-5.81,8.94-14.49,21.52-24.78,36.72-32.01,7.71-3.67,13.4-9.19,17.71-16.56,2.69-4.61,6.45-8.59,9.51-13,1.37-1.98,2.36-4.28,3.25-6.54,2.78-7.04,5.4-14.15,8.18-21.19.57-1.46,1.44-2.83,2.37-4.11,1.94-2.68,4.32-4.8,7.95-4.1,4.22.81,3.85,4.41,4.25,7.48l.26-.19c-5.89-3.06-6.21-3.17-7.95,1.91-2.46,7.16-4.72,14.43-6.43,21.8-1.16,5.03.24,6.66,5.07,8.63,4.68,1.91,9.57,3.43,13.96,5.85,4.18,2.3,7.6,2.68,11-.96,5.6-5.99,11.73-11.58,16.69-18.06,4.77-6.23.38-18.11-7.17-20.41-6.03-1.84-12.32-2.82-18.48-4.28-.73-.17-1.32-.97-1.97-1.48.65-.62,1.21-1.64,1.95-1.79,4.34-.87,8.7-1.85,13.1-2.18,6.27-.47,12.34.96,16.11,6.31,2.3,3.27,5.2,3.74,8.45,4.54,11.02,2.71,22.12,5.19,32.94,8.56,4.37,1.36,8.83,4.08,11.97,7.39,10.46,11.01,23.52,14.24,37.94,14.46,4.11.06,8.31.11,12.3.97,9.84,2.12,18.74,6.53,24.95,14.6,7.33,9.52,14.09,19.51,20.71,29.55,2.04,3.09,3.1,6.92,4.12,10.55,2.91,10.32-.31,18.9-8.63,25.26-4.5,3.44-9.61,6.15-14.69,8.72-6.57,3.33-12.74,7.07-17.74,12.57-5.12,5.64-11.31,7.14-18.93,6.05-13.98-2-26.95-6.84-39.76-12.38-8.45-3.65-15.14-9.23-19.29-17.54-3.68-7.37-7.74-14.6-10.72-22.25-4.82-12.41-8.97-25.06-16.96-35.97-.55-.75-.06-2.26-.05-3.42.79.44,1.69.77,2.37,1.35,10.48,9,19.16,19.23,24.27,32.38,2.86,7.35,6.85,14.27,10.47,21.31,3.31,6.45,8.24,11.17,15.27,13.48,9.9,3.24,19.78,6.56,29.71,9.72,1.08.34,2.43-.14,3.65-.24-.67-1.05-1.2-2.24-2.05-3.14-10.66-11.31-21.34-22.6-32.06-33.86-3.5-3.68-7.11-7.24-10.61-10.91-.34-.35-.29-1.07-.42-1.62.57-.13,1.23-.5,1.7-.33.88.31,1.7.86,2.46,1.42,14.86,10.84,29.96,21.38,42.54,34.99,3.16,3.43,6.23,6.94,9.34,10.41,3.48-2.69,6.78-5.67,10.5-7.99,5.91-3.69,12.13-6.86,18.16-10.37,9.26-5.39,11.07-10,6.34-19.58-6.06-12.27-13.85-23.49-23.52-33.27-6.81-6.89-15.9-7.19-24.66-8.32-3.45-.44-6.98-.32-10.42-.82-12.37-1.81-22.93-7.1-31.08-16.77-3.97-4.71-8.86-8.12-14.49-10.51-8.14-3.46-16.23-7.05-24.49-10.23-2.42-.93-5.08-.84-4,3.56,2.11,8.61-1.58,15.38-7.45,21.38-3.09,3.16-7.74,6.38-8.24,10.04-.49,3.59,3.37,7.78,5.33,11.7,8.38,16.71,17,33.37,20.77,51.87,1.64,8.03,3.03,16.28,3.04,24.43,0,17.74-.32,35.53-1.63,53.21-3.48,47.31,8.03,90.43,34.41,129.77,8.83,13.17,17.47,26.48,25.58,40.1,15.99,26.84,28.02,55.38,33.98,86.15,2.4,12.4,3.61,25.05,5.06,37.62,3.21,27.67,3.55,55.67,9.52,83.01,1.89,8.64,4.56,17.12,6.36,25.78,1.47,7.09,2.24,14.34,3.19,21.54.61,4.67.82,9.39,1.52,14.04.42,2.81-.04,5.08-2.37,6.7-2.54,1.77-4.93.68-6.93-1.01-1.68-1.42-3.12-3.17-4.48-4.92-6.62-8.5-13.3-16.96-19.66-25.65-1.79-2.44-2.74-2.09-3.75.09-2.26,4.87-4.23,9.88-6.51,14.74-.93,1.98-2.16,3.89-3.59,5.55-1.62,1.88-3.67,1.63-4.34-.75-1.27-4.55-2.28-9.2-2.99-13.87-3.93-25.64-8.08-51.25-11.43-76.97-1.59-12.24-1.95-24.67-2.22-37.03-.57-25.93-6.11-50.8-14.59-75.17-5.5-15.83-14.9-29.29-24.89-42.46-17.49-23.05-33.38-47.09-43.86-74.27-6.3-16.35-10.25-33.22-10.56-50.88-.34-18.75,1.27-37.3,3.49-55.91,3.33-28.02,6.07-56.23,4.25-84.46-1.27-19.76-6.33-38.74-18.78-54.93-.77-1-1.44-2.11-2.31-3.02-2.08-2.16-4.12-1.78-4.87,1-2.04,7.63-4.46,15.2-5.81,22.95-2.97,17.1-5.46,34.29-7.98,51.48-2.43,16.58-4.72,33.18-6.91,49.78-.95,7.22-1.87,14.47-2.17,21.74-.87,20.59-1.65,41.19-2.03,61.8-.34,19.04.31,38.11-.25,57.14-.6,20.27-2.13,40.52-3.23,60.77-1.26,23.17-1.03,46.24,4.09,69.06,6.75,30.11,10.27,60.54,9.13,91.48-.57,15.54-.81,31.12-.31,46.65.41,12.63,2.19,25.22,3.3,37.83.78,8.84,1.67,17.68,2.12,26.54.89,17.43,1.39,34.87,2.31,52.29.35,6.63,1.35,13.22,2.11,19.83,2.01,17.61,4.35,35.19,5.96,52.84,1.05,11.46-1.99,22.62-4.59,33.7-.29,1.22-2.07,2.98-3.09,2.93-1.57-.07-3.86-1.1-4.48-2.39-2.32-4.84-3.67-10.16-6.17-14.88-2.66-5.03-2.76-6.63-9.17-1.88-3.05,2.26-5.78,4.96-8.77,7.31-.61.48-1.74.32-2.63.45-.02-.81-.38-1.84,0-2.39,2.98-4.44,5.55-9.35,9.31-13.05,5.69-5.59,10.5-4.71,15,1.67.55.77.88,1.69,1.39,2.49.67,1.06,1.42,2.07,2.14,3.1.7-1.39,1.94-2.75,2.01-4.17.24-5.05.66-10.19-.01-15.17-3.28-24.46-7.22-48.84-10.24-73.33-1.51-12.25-1.28-24.7-2.33-37.02-1.58-18.61-3.99-37.16-5.29-55.79-.99-14.2-1.02-28.47-1.07-42.72-.08-22.53,1.27-45.13-.06-67.57-1.09-18.24-4.95-36.34-8.09-54.42-3.73-21.44-3.65-42.89-1.69-64.44,1.03-11.36,2.15-22.74,2.49-34.14.9-30.77,1.63-61.54,2-92.32.28-23.18,2.09-46.18,5.58-69.08,4.09-26.86,7.51-53.85,12.26-80.59,2.75-15.5,7.28-30.71,11.62-45.88,1.15-4.03.62-5.66-3.06-6.87-1.48-.48-2.91-1.26-4.2-2.14-1.78-1.21-3.41-2.64-5.1-3.98-1.31,2.05-2.97,3.95-3.88,6.16-10.58,25.74-20.43,51.72-24.45,79.47-3.04,20.96-5.91,41.94-8.83,62.91-.22,1.57-.3,3.16-.33,4.75-.71,38.07-1.83,76.14-1.88,114.21-.02,16.11,2.56,32.2,3.4,48.33,1.08,20.89,1.29,41.83,2.44,62.72.94,17.06,2.65,34.08,4.14,51.11.94,10.72,2.26,21.4,3.13,32.13.69,8.53,1.46,17.1,1.3,25.64-.26,13.62-.93,27.25-2.04,40.82-1.34,16.4-3.42,32.73-4.97,49.11-2.71,28.6,1.36,56.93,3.4,85.36,1.34,18.64,2.15,37.35,2.27,56.04.08,13.59-1.33,27.2-2.18,40.79-.06.89-1.04,1.71-1.59,2.57-.53-.73-1.34-1.4-1.54-2.21-3.68-14.75-6.42-29.47-6.43-44.91-.02-22.48-2.04-44.95-2.87-67.44-.93-25.03-2.36-50.08.76-75.09,2.66-21.35,5.05-42.74,7.49-64.12.32-2.83.3-5.7.34-8.56.34-27.02-2.59-53.72-6.75-80.39-2.29-14.67-3.47-29.61-3.85-44.46-.63-24.42-2.43-48.75-3.68-73.12-1.37-26.86.26-53.89.63-80.84.07-5.39.34-10.78.53-16.18.68-19.97.73-39.99,2.25-59.9,1.18-15.41,4.29-30.66,6.39-46.01,3.58-26.16,10.97-51.22,21.2-75.51.58-1.38.41-3.08.6-4.63.28-.38.57-.76.85-1.14-.21.45-.43.9-.64,1.35ZM196.82,165.64c-.3-.03-.61-.05-.91-.08,0-1.59-.09-3.18.01-4.76,2.16-31.29-9.84-58.88-22.54-86.29-.98-2.12-1.83-3.95-4.74-3.63-4.05.45-8.13.56-12.19.95-1.14.11-2.23.7-3.34,1.06.65,1.05,1.14,2.25,1.96,3.13,5.69,6.11,9.99,13.08,12.97,20.86,5.48,14.28,8.62,28.92,9.18,44.35,1.33,36.91-4.03,73.36-6.86,109.97-.92,11.87.26,23.49,1.83,35.01,2.37,17.37,8.96,33.52,16.98,49.12,11.38,22.12,26.29,41.83,41.22,61.53,7.49,9.89,14.22,20.24,18.76,31.84,10.21,26.11,17.02,52.93,17.61,81.18.26,12.67,1.26,25.33,2.07,37.98,1.06,16.43,2.35,32.85,3.41,49.28.68,10.44,1.1,20.89,1.7,31.33.05.79.56,1.56.85,2.33.41-.82.91-1.61,1.2-2.47,2.38-6.86,4.83-13.7,7.03-20.62.7-2.21,1.13-4.83,3.89-4.39,1.84.3,3.92,1.84,5.04,3.43,2.91,4.13,5.11,8.76,8.03,12.89,3.47,4.91,7.36,9.52,11.16,14.2.46.57,1.45.71,2.2,1.05.13-.91.51-1.88.32-2.72-.27-1.2-.9-2.34-1.46-3.46-8.7-17.53-13.03-36.41-15.38-55.55-3.32-27.01-5.16-54.21-7.91-81.3-1.86-18.29-5.36-36.22-11.59-53.66-9.99-27.96-24.15-53.65-40.59-78.23-15.19-22.71-28.83-46.2-36.32-72.8-6.5-23.08-9.61-46.5-7.94-70.44,1.19-17.05,2.88-34.07,4.34-51.1Z"/>
  <path class="cls-1" d="M96.49,10.62c15.48-1.33,24.69,8.44,32.79,19.98.45.64.37,1.65.54,2.49-.83-.1-1.84.08-2.45-.34-3.14-2.14-6.17-4.45-9.25-6.67-13.83-10-28.57-10.53-42.76-1.94-13.21,7.99-27.43,12.86-41.92,17.42-3.3,1.04-6.74,1.92-9.74,3.55-1.73.94-3.95,3.44-3.72,4.89.26,1.62,2.91,3.03,4.74,4.18.99.62,2.44.68,3.68.66,3.8-.06,7.76.35,11.37-.57,10.4-2.63,20.66-5.8,30.96-8.81,4.59-1.35,1.25-1.55-.28-2.24-.24-.11-.12-2.15.22-2.28,10.89-4.1,21.31-9.9,33.51-9.44,4.56.17,8.95.81,12.02,4.53.78.94.48,2.77.68,4.19-1.14-.01-2.44.33-3.4-.09-11.51-5-22.39.33-33.49,1.9.13,6.76-6.22,7.14-10.02,9.5-11.72,7.25-24.33,12.12-38.54,11.45-4.56-.21-8.88-.71-12.2-4.23-2.92-3.1-4.33-1.26-4.98,1.68-1.27,5.83-2.28,11.72-3.42,17.59-.17.88-.46,1.73-.7,2.59-.78-.88-2.07-1.67-2.24-2.66-.38-2.16-.56-4.48-.17-6.62,1.14-6.21,2.27-12.45,4.02-18.51,2.44-8.47,7.95-14.18,16.6-16.79,5.75-1.73,11.53-3.5,17-5.94,8.36-3.72,16.65-7.67,24.61-12.16,8.21-4.64,16.72-7.47,26.54-7.3Z"/>
  <path class="cls-1" d="M201.1,49.89c1.68.94,3.17,1.54,4.39,2.49,8.26,6.37,16.69,12.54,24.61,19.31,8.66,7.39,16.85,15.32,25.2,23.08.57.53.67,1.55.98,2.34-.77-.17-1.7-.13-2.29-.55-8.95-6.49-18.07-12.77-26.71-19.66-8.65-6.9-16.83-14.39-25.17-21.68-.91-.79-1.71-1.85-2.15-2.95-.2-.49.63-1.39,1.13-2.37Z"/>
  <path class="cls-1" d="M150.1,28.27c.9,1.39,2.8,3.02,2.54,4.14-1.36,5.77-3.26,11.42-5.05,17.09-.13.42-.9.92-1.33.89-.45-.04-1.24-.69-1.22-1.05.19-4.01.02-8.14.94-12,.78-3.25,2.87-6.19,4.38-9.26,0,0-.26.19-.26.19Z"/>
</svg>