<?xml version="1.0" encoding="UTF-8"?>
<svg id="Layer_1" data-name="Layer 1" xmlns="http://www.w3.org/2000/svg" version="1.1" viewBox="0 0 595.28 466.23">
  <defs>
    <style>
      .cls-1 {
        fill: #000;
        stroke-width: 0px;
      }
    </style>
  </defs>
  <path class="cls-1" d="M317.68,133.66c.77,12.83-4.44,22.16-12.95,30.14-7.58,7.1-16.83,11.4-25.88,16.08-14.88,7.7-29.78,15.35-44.58,23.2-6.85,3.63-12.83,8.51-18.39,13.93-8.83,8.62-10.27,18.74-6.43,30.04,2.19,6.42,4.96,12.73,6.37,19.32,1.55,7.26,2.81,14.83,2.46,22.18-.7,14.69-9.21,24.95-21.85,31.43-8.83,4.52-18.2,8.05-27.5,11.57-10.36,3.93-20.73,8.03-31.42,10.82-12.86,3.36-24.43,9.37-35.88,15.62-13.39,7.3-24.4,17.41-31.64,31.04-2.1,3.95-3.49,8.34-4.73,12.66-1.93,6.71.82,12.1,5.95,16.19,2.8,2.23,6.01,4.28,9.38,5.42,8.35,2.81,16.83,5.28,25.38,7.39,2.41.6,5.23-.59,7.88-.78,1.21-.09,2.8-.16,3.61.5,1.47,1.21.95,2.92-.25,4.2-1.54,1.63-3.22,3.14-5.17,5.02,6.64,3.75,13.81,6.87,11.48,16.32-.42-.08-.99,0-1.22-.25-4.62-4.97-9.51-4.1-15.34-1.83-7.55,2.94-15.44,4.74-23.88,4.14-9.38-.67-17-4.73-23.85-10.46-5.92-4.96-11.01-10.79-14.51-17.83-.5-1.01-1.17-1.95-1.87-2.84-11.73-14.83-12.5-31.01-5.75-48,5.04-12.69,14.33-21.91,25.21-29.65,12.32-8.75,26.14-14.46,40.43-19.01,14.87-4.74,29.87-9.05,44.76-13.71,10.68-3.34,20.73-7.98,29.04-15.74,7.52-7.02,10.95-16.04,11.97-25.98.52-5.11-1.32-9.9-4.38-14.02-4.06-5.46-8.38-10.72-12.5-16.14-2.33-3.07-4.74-6.12-6.66-9.45-5.66-9.8-6.21-16.11,2.68-26.53,2.05-2.41,4.5-4.47,6.75-6.72,10.41-10.36,22.53-18.28,35.7-24.55,13.89-6.61,28.14-12.46,41.95-19.22,17.68-8.65,35.59-17.01,51.07-29.51.68-.55,1.3-1.19,2.38-2.2-2.2-1-3.65-.26-5.18.48-13.86,6.71-27.53,13.84-41.65,19.96-15.35,6.65-30.85,13.17-46.75,18.25-14.66,4.68-29.65,3.35-43.72-3.54-7.59-3.72-13.14-9.69-16.89-17.21-4.04-8.11-8.07-16.27-8.68-25.57-.04-.68-.07-1.44-.4-1.99-5.03-8.44-3.88-18.02-4.64-27.13-.89-10.66,1.89-20.84,8-29.66,9.71-14.02,23.6-19.27,40.23-17.38,9.43,1.07,18.79,2.76,28.17,4.25,5.59.89,11.15,1.98,16.73,2.95,6.14,1.07,12.03,3.09,16.78,7.03,8.93,7.4,19.59,11.35,29.94,15.9,7.6,3.35,14.27,7.77,19.95,13.87,4.94,5.3,10.26,10.24,15.83,15.75.86-.38,2.26-1.57,3.56-1.47,7.46.56,11.33-5.07,15.8-9.22,12.15-11.25,23.87-22.95,35.94-34.29,3.96-3.72,8.28-7.11,12.74-10.21,17.9-12.46,36.77-23.31,56.33-32.93,9.29-4.57,19.08-6.62,29.62-5.83,11.26.84,19.62,9,22.64,18.74,1.8,5.81,2.67,11.77,2.94,18.01.43,9.64,2.46,19.21,3.79,28.81.72,5.17-.65,9.94-3.25,14.31-4.41,7.4-9.01,14.68-13.52,22.02-4.76,7.75-11.75,12.34-20.42,14.75-6.81,1.89-13.63,3.15-20.77,2.97-3.09-.08-6.2,1.47-9.33,1.61-9.72.43-19.45.68-29.18.71-5.65.01-11.31-.38-16.94-.86-13.85-1.18-27.3-4.22-40.27-9.28-1.47-.57-2.97-1.05-4.73-1.67-1.03,1.17-2.01,2.28-3.25,3.68,1.01.41,1.55.79,2.11.83,14.92,1.04,28.27,5.93,39.47,16.07,7.88,7.13,11.04,15.92,8.48,26.34-1.24,5.05-2.75,10.1-4.76,14.88-3.44,8.16-.04,15.46,7.35,19.39,6.53,3.47,13.43,5.46,20.52,6.95,11.74,2.47,23.59,4.45,35.34,6.88,11.14,2.31,21.96,5.65,31.92,11.33,5.82,3.31,10.77,7.46,13.89,13.59,3.75,7.37,2.33,14.77-.39,21.77-5.15,13.23-12.72,25.15-22.61,35.34-9.96,10.25-20.49,19.94-30.69,29.96-11.38,11.18-21.67,23.27-29.73,37.08-2.03,3.47-3.49,7.42-4.45,11.34-2.04,8.33,1.34,14.43,9.39,17.99,6.76,2.99,13.97,4.17,21.23,4.05,23.5-.4,44.58-7.57,62.18-23.59,3.68-3.35,6.91-7.18,10.42-10.73.88-.89,2.01-1.54,2.99-2.27,3.11,3.5,3.14,1.52-1.16,19.53,4.42,1.3,9.04,2.17,13.2,4.04,4.18,1.88,7.44,5.16,8.49,10-.33.17-.8.57-.97.47-6.3-3.73-8-3.47-14.65,1.12-8.76,6.04-17.45,12.24-26.61,17.63-12.33,7.26-25.55,12.61-39.67,15.4-5.77,1.14-11.53,2.42-17.36,3.16-7.67.98-15.34.35-22.92-1.24-6.32-1.33-12.1-3.84-17.03-8.05-3.97-3.39-7.88-6.85-11.71-10.4-14.73-13.65-17.83-30.25-12.68-49.12,5.44-19.97,16.79-36.02,32.2-49.42,9.93-8.64,20.12-16.99,29.95-25.74,6.45-5.74,12.17-12.14,16.32-19.91,6.17-11.56,3.27-24.42-9.77-31.04-4.81-2.44-9.99-4.52-15.25-5.6-11.07-2.28-22.31-3.69-33.44-5.63-8.69-1.52-17.33-3.3-25.99-4.99-.88-.17-1.76-.46-2.6-.79-14.14-5.46-19.71-13.11-16.71-29.66.68-3.77,2.12-7.39,3.1-11.11.92-3.49,1.83-6.99,2.5-10.53,2.15-11.27-2.68-19.98-10.83-26.98-3.56-3.05-8-5.12-12.19-7.35-.92-.49-2.47.21-4.15.41ZM273.97,116.72c-7.18-2.01-13.67-3.97-20.23-5.64-12.36-3.16-24.11-7.9-35.19-14.09-8.64-4.83-17.95-7.39-27.37-9.78-5.74-1.46-11.23-.44-16.43,2.22-8.06,4.12-12.75,11.33-16.97,18.9-2.13,3.82-2.97,8.03-2.97,12.39,0,1.06-.07,2.36.47,3.15,3.08,4.53,6.6,8.96,11.7,11.08,14.26,5.91,28.82,9.09,43.95,2.81,5.4-2.24,10.82-4.52,16.4-6.24,6.02-1.85,12.36-2.68,18.34-4.62,9.34-3.03,18.51-6.63,28.3-10.19ZM361.74,108.65c4.22,1.64,4.68,1.92,8.41,1.19,5.77-1.14,11.53-2.42,17.2-4,11.03-3.08,22.37-4.38,33.66-4.34,17.73.06,32.81-5.91,45.93-17.36,4.86-4.24,8.2-9.56,9.4-16.15.77-4.22,2.22-8.31,3.31-12.47.51-1.97,1.08-3.95,1.3-5.96.51-4.81-1.61-7.44-6.15-9.01-4.41-1.52-8.2,0-11.6,2.19-6.67,4.28-13.33,8.67-19.48,13.65-12.87,10.41-25.42,21.22-38.09,31.89-6.83,5.75-14.35,10.28-22.82,13.19-7.02,2.41-14.05,4.79-21.06,7.17ZM513.65,388.8l.19-.36h-.4s.21.36.21.36Z"/>
</svg>