<?xml version="1.0" encoding="UTF-8"?>
<svg id="Layer_1" data-name="Layer 1" xmlns="http://www.w3.org/2000/svg" version="1.1" viewBox="0 0 595.28 424.51">
  <defs>
    <style>
      .cls-1 {
        fill: #000;
        stroke-width: 0px;
      }
    </style>
  </defs>
  <path class="cls-1" d="M501.94,63.55c2.5,83.13-101.76,56.17-152.93,42.64-10.02-3.38-20.71-10.49-30.69-11.42-2.57,15.75,19.57,20.18,29.6,28.53,22.64,9.65,28.23,32.47,35.09,53.45,1.82,8.51,13.15,7.47,20.11,9.76,7.09.64,14.66,7.29,21.06,1.15,22.68-20.23,51.28-34.05,77.43-48.2,22.37-14.64,90.66,28.89,68.36,54.26-19.86,23.38-57.58,97.87-93.28,81.56-9.3-14.1-22.27,7.48-23.08,17.29,6.78,19.24,30.45,36.61,47.6,18.41,7.16-10.74,16.57-16.89,28.86-19.27,6.34-.4,5.71.28,9.81,4.2,8.04,2.7,16.3,5.76,24.06,9.69,31.01,18.43,25.33,34.79,5.88,59.76-5.61,14.43-12.49,28.45-16.12,43.49-5.08,8.67-11.73.85-6.15-6.55,6.87-17.96,14.87-37,17.4-55.68-9.54-11.82-26.77-32.56-43.02-23.72-19.54-.55-43.37,18.3-58.66,5.28-20.76-24.85-63.34-73.63-8.88-85.65,31.53,14.65,25.37-5.12,53.91-18.36,14.91-10.51,59.24-16.03,33.15-37.47-11.12-8.65-5.78-32.28-16.77-18.39-12.19,14.11-31.92,15.07-42.41,30.6-16.59,11.59-40.16,5.86-59.85,7.75-43.03,4.42-42.26,1.97-75.07-27.07-19.73-14.21-28.92-37.85-39.49-57.65-11.76,6.98-27.6-2.69-37.69.55-16.71,25.06-37.78,48.55-58.53,69.66-31.64,11.21-66.02,14.68-99.04,9.56-19.08-2.36-26.22-25.15-41.35-34.68-19.42-18.39-19.9,14.01-16.69,27.21,5.37,18.92,16.7,36.1,24.12,54.49,26.58-9.62,32.13-2.36,57.09,16.07,28.32,21.92-29.62,63.55-49.97,68.35-21.56,5.06-43.71,1.62-62.32,15.93-2.15,15.15,2.81,31.29-.63,46.74-20.57,28.03-2.74-14.33-5.97-23.34-6.06-26.13-14.91-49.92,15.56-64.48,49.51-30.04,44.55,4.66,89.03-9.81,5.93-2.65,8.52-14.19,9.91-20.05-6.25-5.05-19.18-18.16-21.08-3.01,2.56,19.43-35.38-1.89-45.36-3.48-20.66-5.07-28.67-25.31-34.84-43.6-10.76-18.83-11.66-39.98,5.84-55.21,23.7-34.69,50.61-38.46,84.48-14.69,10.14,11.82,15.79,27.72,32.55,32.02,12.78,6.88,15.33-8.05,24.13-13.71,15.25-5.96,16.06-26.57,29.5-35.58,9.11-7.58,18.44-15.16,28.35-21.63,8.13-7.1,29.74-7.27,24.56-20.62-16.95-.68-31.69,17.24-48.37,21.66-24.58.84-49.77.08-73.24-7.09-25.34-6.08-42.53-29.97-54.67-51.66-5.03-30.22,42.88-44.83,65.15-52.33,44.7,5.42,82.56,33.31,120.27,56.4,3.59,5.35,9.93,5.31,14.86,8.69,4.79.98,9.45-4.83,15.26-3.02,5.57,2.18,11.04-2.65,17.35-1.73,1.32-3.39,1.48-7.77,3.75-11.03,15.06-20.64,39-33.23,59.49-48,15.6-9.25,35.95-2.16,52.22.92,27.92,5.16,71.95,16.8,70.38,52.14ZM355.78,69.92c23.52-2.29,40.19,19.98,62.47,21.71,15.44,3.61,99.47-8.79,51.79-26.66-22.46.79-24.18-31.74-43.12-31.61-7.33,3.61-95.91,37.15-71.13,36.57ZM232.86,86.51c21.34,2.31-16.84-12.44-19.29-25.45-9.23-16.48-36.9-1.82-42.6-19.44-17.78-1.09-36.19,14.01-51.34,23.39-23.17,15-1.08,28.85,15.45,36.3,7.13-1.51,13.07-8.31,20.55-9.78,6.12-.66,13.26,2.11,18.05-2.53,18.65-10.62,39.57-5.96,59.18-2.5Z"/>
</svg>