<?xml version="1.0" encoding="UTF-8"?>
<svg id="Layer_1" data-name="Layer 1" xmlns="http://www.w3.org/2000/svg" version="1.1" viewBox="0 0 548.96 596.44">
  <defs>
    <style>
      .cls-1 {
        fill: #000;
        stroke-width: 0px;
      }
    </style>
  </defs>
  <path class="cls-1" d="M223.35,161.54c-3,1.11-6.15,1.93-8.98,3.38-34.99,17.95-68.88,15.69-101.21-6.24-9.78-6.63-18.86-14.5-27.35-22.75-15.23-14.79-17.88-44.83-6.07-62.84,4.94-7.54,9.49-15.03,12.67-23.68,4.89-13.28,15.36-22.36,28.12-27.95,4.5-1.97,10.86-2.32,15.49-.76,7.64,2.57,15.44,6.22,21.59,11.32,10.71,8.89,20.19,19.25,30.21,28.97,15.28,14.82,28.19,32.33,47.29,42.84,6.77,3.72,14.17,6.27,21.15,9.64,5.1,2.46,9.36,2.83,14.75-.37,3.38-2.01,9.26-2.17,13.02-.67,6.39,2.54,11.36.98,15.98-2.66,9.32-7.33,18.28-15.11,27.42-22.67,21.81-18.06,43.24-36.58,65.59-53.94,11.57-8.98,24.02-17.27,38.77-20.76,11.35-2.69,21.88-2.45,30.54,7.08,2.1,2.31,5.77,3.1,8.27,5.13,5.66,4.61,11.73,8.97,16.39,14.48,14.21,16.79,8.8,34.83,1.23,52.1-3.6,8.22-8.08,15.93-9.96,24.89-1.48,7.04-5.56,12.98-11.23,17.25-9.49,7.15-19.22,14.02-29.21,20.45-8.99,5.78-19.39,6.88-29.72,5.91-23.65-2.23-47.53-3.65-69.14-15.37-3.19-1.73-6.93-2.56-10.51-3.4-2.18-.51-4.55-.25-6.83-.33,1.48,1.9,2.59,4.39,4.5,5.59,10.77,6.73,21.48,13.62,32.68,19.58,26.65,14.19,51.37,30.62,71.15,53.97,12.66,14.96,19.17,32.42,22.95,51.03,4.5,22.09,9.1,44.3,8.24,67.03-.69,18.4-1.85,36.81-3.6,55.14-1.37,14.27-.9,27.81,7.5,40.14,6.23,9.15,11.8,18.78,18.38,27.65,11.46,15.46,27.67,24.23,45.68,29.64,3.73,1.12,4.95,1.2,5.16,5.79.37,8.44,2.5,16.81,4.17,25.16.47,2.35,2.17,4.43,2.88,6.76,1.16,3.81-.62,6.3-4.82,6.22-12.12-.22-23.52-3.41-33.87-9.72-26.73-16.3-43.17-39.83-48.47-70.76-3.8-22.17-6.73-44.5-10.72-66.63-5.23-29.01-10.94-57.93-16.88-86.8-1.31-6.35-4.01-12.52-6.82-18.42-17.63-36.95-41.9-68.51-75.51-92.48-16.41-11.7-32.74-23.56-44.57-40.33-1.6-2.26-3.11-3.8-5.88-1.55-6.45,5.24-14.16,4.59-21.18,2.8-6.48-1.65-9.53.56-13.24,5.32-17.31,22.17-26.41,46.88-25.62,75.22.74,26.65-9.39,49.55-25.34,70.31-17.24,22.43-40.43,36.96-65.05,49.72-21.12,10.94-42.43,21.37-62.06,35.14-18.57,13.03-29.5,29.36-33.48,51.92-4.59,26-7.66,51.89-5.62,78.23,1.2,15.5,6.82,29.4,15.91,42.01,4.34,6.03,3.96,6.88-3.51,8.33-11.08,2.15-17.3,10.25-23.43,18.51-.93,1.26-.94,3.8-1.99,4.21-1.28.51-4.28-.17-4.65-1.09-1.77-4.39-2.36-9.29-4.33-13.57-12.3-26.63-14.37-54.46-9.81-82.97,1.74-10.9,4.28-21.71,7.14-32.38,5.06-18.85,13.77-35.87,26.34-50.98,5.47-6.57,10.64-13.59,14.71-21.08,11.62-21.35,26.92-39.01,47.27-52.58,20.87-13.92,40.65-29.29,57.88-47.75,13.74-14.72,22.98-31.69,28.44-51.08,3.99-14.17,8.68-28.23,14.27-41.83,4.64-11.29,11.05-21.85,16.68-32.73.31-.17.66-.3.92-.54.14-.12.12-.42.17-.65-.27.47-.55.95-.82,1.42ZM118.99,154.04c-.15-.35-.25-.76-.48-1.04-.14-.16-.52-.12-.79-.17.5.31,1.01.63,1.51.94.12.39.13.99.39,1.15,29.95,17.56,60.49,17.98,91.6,3.22,11.84-5.62,23.74-11.11,35.67-16.54,3.34-1.52,6.97-2.41,10.29-3.97,1.25-.59,1.99-2.26,2.97-3.44-1.3-.59-2.62-1.71-3.91-1.68-19.47.49-38.39,3.93-55.9,12.67-21.66,10.81-44.32,13.84-68.06,10.63-4.43-.6-8.86-1.17-13.29-1.76ZM531.97,527.15c.58.33,1.17.66,1.75.98-.64-.27-1.27-.54-1.91-.8-1.19-3.42-2.85-6.76-3.46-10.28-.95-5.52-1.88-11.2-1.56-16.74.38-6.55,1.03-6.97-5.96-8.11-20.25-3.31-35.28-14.37-47.02-30.6-2.63-3.64-5.11-7.4-7.72-11.05-1.9-2.65-3.9-5.21-5.86-7.81.41,3,.73,6.02,1.25,9,.56,3.2,1.08,6.45,2.03,9.55,10.36,33.65,34.49,53.58,66.06,66.02.68.27,1.6-.09,2.41-.16ZM51.67,557.16c.31.19.61.37.92.56-.36-.12-.73-.24-1.09-.36-1.2-2.9-2.02-6.05-3.68-8.64-5.16-8.04-8.58-16.89-9.63-26.16-2.39-21.09-2.52-42.28.27-63.41,1.43-10.83,2.89-21.66,4.34-32.49.29-.15.6-.26.86-.46.15-.12.2-.36.29-.55-.29.42-.58.84-.87,1.26-1.16,1.07-2.69,1.93-3.43,3.23-14.21,25.01-21.69,52.14-22.55,80.66-.62,20.42.78,40.98,8.09,60.52.51,1.36,1.69,2.46,2.57,3.69.9-.69,2.14-1.19,2.64-2.1,4.69-8.54,13.12-11.96,21.29-15.75ZM374.55,131.87c0-.08,0-.16-.01-.24,12.72-.6,25.46-1.01,38.16-1.85,13.62-.9,26.99-3.16,38.2-11.78,5.52-4.25,10.55-9.14,15.9-13.61,4.14-3.46,5.62-7.67,5.13-13.05-.78-8.59-1.73-17.25-1.46-25.84.34-10.69-4.21-19.96-7.05-29.74-.89-3.09-3.13-4.29-6.6-4.12-6.17.3-10.85,3.34-15.36,7.04-17.16,14.05-34.53,27.86-51.46,42.19-16.06,13.59-33.16,25.55-51.79,35.3-6.9,3.61-13.92,6.97-20.87,10.49-1.06.54-2.01,1.29-3,1.94,1.01.36,2.08.6,3.02,1.08,8.79,4.51,18.27,3.77,27.63,3.54,9.86-.24,19.71-.88,29.56-1.34ZM158.27,150.52c9.97-2.13,20.33-3.18,29.81-6.64,13.81-5.05,26.96-11.92,42.03-12.75.79-.04,1.56-.46,2.33-.7-.86-.7-1.61-1.66-2.59-2.05-1.89-.75-3.87-1.36-5.87-1.7-17.68-3.01-31.94-12.1-44.3-24.67-6.31-6.42-12.61-12.87-19.16-19.05-5.94-5.6-12.71-10.4-18.24-16.37-9.16-9.89-19.92-11.89-32.41-8.83-9.39,2.3-15.22,7.46-15.38,17.74-.06,3.68-.53,7.34-.7,11.02-.78,17.16,5.88,32.88,9.56,49.18.94,4.17,3.89,6.16,7.64,7.1,15.45,3.85,30.75,8.88,47.27,7.74ZM76.58,376.89c.66-.39,1.37-.72,1.98-1.18,18.71-14.23,40.2-23.69,60.45-35.28,14.19-8.12,28.69-16.26,41.26-26.57,26.55-21.79,44.98-48.89,45.75-84.8.64-29.6,11.15-55.03,30.43-77.13,1.35-1.55,2.88-2.98,3.97-4.69.56-.88.84-2.97.38-3.28-1.18-.83-2.9-1.45-4.29-1.27-1.52.19-2.94,1.33-4.36,2.13-9.42,5.3-17.28,12.05-23.32,21.3-13.95,21.33-21.09,45.2-26.51,69.61-5.11,22.99-14.7,43.15-31.17,60.28-12.88,13.41-26.88,25.27-42.21,35.66-8.49,5.75-17.48,10.84-25.49,17.18-8.95,7.09-17.06,15.25-25.48,22.99-.88.81-1.6,1.91-2.06,3.01-.21.5.41,1.33.67,2.03ZM454,333.8c-.88-21.92-6.43-42.97-10.91-64.2-3.73-17.66-11.67-33.03-23.95-46.38-19.2-20.88-42.66-35.76-67.26-49.16-15.97-8.7-31.26-18.2-41.13-34.25-.83-1.36-1.92-3.07-3.25-3.48-1.71-.54-3.99-.38-5.59.38-.77.37-1.24,3.32-.61,4.27,2.48,3.72,5.22,7.34,8.3,10.57,12.07,12.63,27.31,20.94,41.8,30.24,40.97,26.32,69.01,62.72,83.33,109.15,4.56,14.77,6.38,30.39,9.29,45.66,2.3,12.06,4.33,24.17,6.54,36.25.21,1.15.87,2.22,1.33,3.32.29-1.01.81-2.01.84-3.03.46-13.11.85-26.22,1.25-39.33ZM253.37,125.24c2.45-.12,4.91-.13,7.34-.42.62-.07,1.7-1.31,1.61-1.48-.51-.94-1.21-1.9-2.08-2.49-.6-.4-1.59-.26-2.41-.28-20.75-.48-36.24-12.08-50.42-25.18-12.31-11.38-23.18-24.32-34.84-36.42-6.26-6.5-12.21-13.55-19.41-18.84-23.22-17.03-28.66-16.66-48.55,4.37-1.15,1.22-1.28,3.41-1.88,5.15,1.52-.09,3.1.06,4.55-.3,16.95-4.21,31.64-1.02,43.25,12.82,1.83,2.19,4.04,4.08,6.17,6,11.25,10.14,22.8,19.95,33.73,30.41,17.68,16.94,39.17,24.41,62.95,26.65ZM443.12,20.05c-.03-.17-.06-.34-.09-.51-4,.77-8.18,1.04-11.97,2.41-12.77,4.61-25.13,10.23-35.78,18.81-23.97,19.32-47.83,38.76-71.58,58.34-7.87,6.48-14.55,14.57-25.33,16.67-1.16.23-3.05,2.56-2.8,3.23,1.09,2.9,2.39,6.08,4.59,8.06.99.89,4.62-.27,6.48-1.42,3.77-2.34,7.09-5.4,10.71-8,18.34-13.18,36.85-26.12,55.04-39.49,21.5-15.81,42.71-32.03,64.13-47.95,2.92-2.17,6.32-3.76,9.61-5.37,2.41-1.18,5.02-1.94,7.55-2.89-3.11-.65-6.22-1.3-9.34-1.92-.39-.08-.82.03-1.23.04ZM419.86,149.56c17.71-2.46,31.93-10.4,42.42-24.78.45-.62.53-1.5.78-2.26-.97-.11-2.1-.59-2.89-.27-9.82,3.97-19.35,8.88-29.44,11.93-18.7,5.64-37.93,5.88-57.24,3.18-2.81-.39-5.74-.02-8.6.19-.89.07-1.73.79-2.59,1.21.71.35,1.4.79,2.15,1.03,18.07,5.79,36.8,7.68,55.41,9.77ZM291.04,129.96c-.08-1.73-.3-3.76-.25-5.78.1-4.18-2.44-4.98-5.94-6.04-4.78-1.45-8.79-1.45-12.32,2.17-2.82,2.89-5.73,16.92-4.2,19.67.37.67,1.04,1.23,1.67,1.71,3.52,2.69,15.15,3.09,18.73.51,4.36-3.15,4.46-7.38,2.31-12.24ZM84.76,95.31c.58-.14,1.15-.28,1.73-.41-.15-3.27-.2-6.56-.51-9.81-.13-1.38-.81-2.71-1.24-4.06-.72.96-1.71,1.82-2.11,2.89-5.93,15.85-1.02,30.42,5.43,44.78.32.71.98,1.38,1.65,1.79,1.34.8,2.8,1.4,4.21,2.08-.1-1.44.03-2.93-.33-4.3-2.89-11-5.87-21.97-8.83-32.95ZM479.39,78.89c-.34.02-.67.04-1.01.06.04.82-.04,1.66.14,2.45.36,1.57.87,3.1,1.31,4.65,1.02-1.22,2.33-2.29,3.02-3.67,4.62-9.17,5.68-18.6,1.42-28.22-1.82-4.11-3.71-8.22-5.97-12.09-1.19-2.04-3.24-3.59-4.9-5.35.52,2.48.92,5,1.59,7.44.85,3.13,2.48,6.16,2.78,9.32.82,8.44,1.11,16.94,1.61,25.41Z"/>
</svg>