<?xml version="1.0" encoding="UTF-8"?>
<svg id="Layer_1" data-name="Layer 1" xmlns="http://www.w3.org/2000/svg" version="1.1" viewBox="0 0 548.96 532.9">
  <defs>
    <style>
      .cls-1 {
        fill: #000;
        stroke-width: 0px;
      }
    </style>
  </defs>
  <path class="cls-1" d="M339.47,169.44c2.18,7.21,4.56,14.37,6.49,21.65,3.98,15.05,1.15,29.5-4.78,43.45-3.51,8.26-8.05,16.09-11.4,24.4-4.51,11.18-9.52,22.38-12.14,34.06-3.89,17.31.58,32.92,14.77,44.75,6.48,5.4,14.17,6.39,22.38,6.44,9.27.06,18.71.14,27.77,1.84,26.11,4.88,39.86,35.73,30.64,56.09-2.68,5.91-5.34,11.88-8.65,17.43-13.94,23.37-8.89,53.05,12.67,69.65,4.45,3.42,10.29,5.96,15.8,6.79,4.53.68,4.18,3.11,4.03,5.47-.39,6.13-1.39,12.22-2.04,18.34-.65,6.16-2.85,7.9-8.98,6.28-12.76-3.36-22.15-11.58-28.43-22.66-6.69-11.81-10.36-24.78-9.45-38.67.09-1.36.23-2.79-.05-4.1-2.59-12.19.2-24.03,2.1-35.96,3.1-19.52,2.03-38.5-7.27-56.5-5.57-10.78-13.15-16.63-26.26-16-22,1.05-38.83-11.34-44.72-32.57-3.39-12.24-6.44-24.92-6.93-37.5-.44-11.16,2.24-22.59,4.65-33.66,3.81-17.52,8.55-34.76,9.11-52.92.56-17.89-6.89-32.03-18.17-44.82-2.28-2.58-5.13-4.64-7.54-7.12-1.41-1.45-2.46-3.25-3.67-4.9,2.21.73,4.77.97,6.57,2.27,23.6,17.09,34.5,39.95,30.18,69.13-1.71,11.56-4.65,22.94-6.96,34.42-.18.92.23,1.96.37,2.94.38-.57.83-1.1,1.13-1.7,6.58-13.27,13.91-26.18,14.51-41.66.49-12.5-2.02-24.08-8.46-34.69-7.18-11.83-14.67-23.49-25.26-32.69-3.12-2.71-6.52-5.12-9.9-7.51-1.54-1.09-3.55-1.49-3.69,1.2-.65,11.75-9.05,16.28-18.31,20.07-1.59.65-3.24,1.58-4.89,1.63-12.4.36-18.38,9-24.06,18.2-12.73,20.62-24.72,41.65-31.83,64.95-5.12,16.75-3.56,32.62,8.95,46.29,12.32,13.45,18.9,40.42,5.14,59.52-1.49,2.07-3.84,3.53-5.85,5.19-.77.64-1.89.92-2.57,1.63-12.06,12.53-27.48,19.49-43.07,26.2-15.11,6.49-26.15,17.47-35.57,30.79-5.92,8.38-7.72,17.31-5.46,26.51,3.71,15.08.33,28.65-6.11,41.97-4.06,8.39-8.27,16.71-12.54,24.99-6.29,12.19-17.22,18.52-29.59,22.73-5.34,1.82-15.79-2.33-18.15-7.01-.84-1.67-.8-4.04-.46-5.97.35-1.98,1.55-3.81,2.38-5.71,2.98-6.85,2.98-7,10.17-6.63,16.92.87,29.28-6.6,37.8-20.76,3.19-5.31,5.74-11.02,8.33-16.67,2.8-6.11,3.06-12.08,1.05-18.92-5.68-19.42-1.25-37.65,9.36-54.39,11.12-17.54,26.16-31.33,43.75-42.07,9.22-5.63,16.48-12.72,21.17-22.14,3.51-7.05,6.3-14.58,8.41-22.17,1.7-6.11.77-12.3-3.84-17.47-3.22-3.61-6.01-7.6-9.12-11.31-6.57-7.85-11.02-16.89-12.92-26.77-1.07-5.54-.56-11.76.77-17.3,2.6-10.82,7.58-20.79,14.46-29.6,11.89-15.21,23.99-30.26,36.01-45.38.28-.46.56-.91.85-1.37-.21.53-.41,1.05-.62,1.58-2.56.83-5.29,1.35-7.66,2.55-23.97,12.09-42.98,29.93-58.97,51.22-8.3,11.05-16.45,22.23-24.85,33.21-7.2,9.41-15.37,17.78-26.38,22.87-2.5,1.15-4.99,2.5-7.14,4.19-12.38,9.78-26.43,15.83-41.49,20.33-13.14,3.92-25.82,3.65-38.57-.59-6.13-2.04-10.55-6.09-13.53-12.05-5.51-11.02-7.66-22.21-2.74-33.91,6.28-14.94,12.64-29.85,19.32-44.61,4.18-9.24,6.49-18.03,5.13-28.79-2.37-18.8-2.1-37.93-2.89-56.92-.34-8.21,1.8-15.7,6.55-22.46,1.38-1.97,2.95-3.97,3.7-6.2,3.85-11.39,12.56-17.95,22.72-22.9,6.18-3.01,12.68-5.4,19.1-7.91,21.04-8.24,40.21-2.39,57.98,8.96,12.78,8.17,24.4,18.12,36.89,26.77,11.9,8.25,24.04,16.21,36.47,23.62,11.16,6.66,23.02,6.57,34.71.82,8.89-4.37,17.25-5.14,25.88,1.25,6.58,4.87,14.35,2.39,20.49-.77,16.86-8.68,32.74-18.55,46.2-32.73,12.27-12.93,26.94-23.78,41.44-34.32,15.89-11.55,32.27-22.53,50.88-29.7,16.32-6.29,33.01-6.84,49.97-4.57,12.75,1.71,20.98,11.32,30.52,18.52,2.18,1.65,3.73,4.11,5.84,5.88,19.55,16.43,23.72,36.95,16.59,60.7-3.02,10.05-7.38,19.45-13.9,27.58-7.55,9.42-15.73,18.33-23.72,27.4-5.94,6.74-11.97,13.39-18,20.05-8.89,9.83-12.42,22.12-15.86,34.45-1.33,4.75-.7,9.23.6,14.04,11,40.61-21.74,64.69-50.65,62.88-1.04-.06-2.13.03-3.1-.26-12.28-3.71-23.27-10.15-33.53-17.52-3.5-2.51-5.49-7.91-6.91-12.38-3.23-10.17-5.58-20.62-8.49-30.91-4.44-15.71-10.92-30.55-19.96-44.19-1.26-1.9-3.22-3.34-4.86-4.99-.74-.67-1.47-1.34-2.21-2.01-.65-1.38-1.3-2.77-1.95-4.15-.73-.72-1.45-1.45-2.18-2.17.07-.07.15-.15.22-.22.73.72,1.46,1.45,2.19,2.17.65,1.37,1.31,2.74,1.96,4.11.72.7,1.44,1.39,2.16,2.09ZM156.6,368.82c.75-.61,1.49-1.22,2.24-1.83,6.63-2.8,13.5-5.16,19.84-8.49,9.13-4.8,18.18-9.89,26.73-15.65,8.11-5.47,13.3-12.98,11.4-23.66-.9-5.08-1.38-10.23-2.12-15.33-.18-1.25-.66-2.45-1.01-3.67-.39,1.31-.91,2.6-1.16,3.93-3.93,20.74-14.7,35.89-34.51,44.65-8.17,3.61-14.5,10.29-19.46,17.93-.58.79-1.15,1.57-1.73,2.36-.28.04-.59.04-.85.14-.16.07-.25.3-.37.47.33-.28.67-.56,1-.84ZM123.29,248.29c.71-.67,1.42-1.34,2.13-2,3.48-1.71,5.97-4.16,6.19-8.3,1.97-1.77,4.3-3.27,5.83-5.36,5.3-7.23,10.17-14.78,15.48-22.01,15.36-20.93,31.1-41.49,53.81-55.31,7.99-4.86,16.03-9.43,25.46-10.88,1.68-.26,3.3-.99,4.93-1.54,3.15-1.05,2.89-3.86,2.39-6.03-.83-3.59-3.49-.99-4.89-.57-30.11,9.15-55.89,24.99-75.77,49.74-1.29,1.61-2.44,3.37-3.39,5.2-4.75,9.17-9.43,18.37-14.09,27.59-3.25,6.42-6.42,12.87-9.63,19.3-2.04,2.79-4.09,5.59-6.13,8.38-.7.68-1.4,1.35-2.1,2.03-.31.11-.65.16-.91.34-.15.1-.16.4-.23.61.3-.39.6-.79.9-1.18ZM187.73,103.15c-1.44-.66-2.87-1.32-4.31-1.99-.84-3.09-2.86-4.54-6.06-4.31-.7-1.1-1.16-2.54-2.15-3.26-13.68-9.97-27.14-20.28-41.27-29.57-9.29-6.11-19.89-9.68-31.37-9.12-16.39.79-31.23,6.66-43.79,16.67-13.13,10.47-18.19,25.51-18.37,42.14-.01.95.44,1.91.68,2.87.82-.58,1.9-.99,2.41-1.77,4.69-7.21,8.78-14.86,14.01-21.65,12.97-16.86,43.63-26.55,63.97-20.24,17.49,5.43,34.57,11.95,50.3,21.58,1.7,1.04,3.72,1.55,5.6,2.31,2.08,1.37,4.16,2.73,6.24,4.1,1.44.66,2.88,1.32,4.32,1.98,1.39.67,2.78,1.34,4.16,2.01.66.75,1.33,1.49,1.99,2.24,1.4.68,2.79,1.35,4.19,2.03,1.39.69,2.78,1.37,4.17,2.06,1.4.68,2.79,1.37,4.19,2.05.95.44,1.89.87,2.84,1.31-1.02-.35-2.04-.7-3.06-1.05-1.39-.69-2.79-1.37-4.18-2.06-1.39-.68-2.79-1.37-4.18-2.05-1.4-.68-2.81-1.36-4.21-2.04-.67-.75-1.33-1.5-2-2.25-1.37-.67-2.75-1.33-4.12-2ZM102.62,499.78c-2.91.92-5.86,1.73-8.72,2.78-5.05,1.85-9.92,1.76-15.01-.14-7.01-2.62-8.66-1.1-7.38,6.21.87,5,6.23,7.85,12.21,5.07,6.44-2.99,12.22-7.4,18.18-11.35.55-.36.36-1.83.51-2.79.32,0,.66.09.94-.01.18-.07.26-.4.38-.62-.37.28-.75.57-1.12.86ZM382.88,356.53c-.45-.27-.9-.54-1.35-.81.51.22,1.01.43,1.52.65,2.64,4.76,5.66,9.35,7.85,14.3,5.58,12.67,9.05,25.87,8.73,39.87-.02.99.41,1.98.64,2.98.48-.79,1.14-1.53,1.42-2.38,2.8-8.54,4.64-17.21,3.95-26.3-1.06-13.84-9.96-24.99-22.75-28.29ZM202.3,265.02c.16.29.28.62.5.85.11.11.41.03.62.04-.44-.22-.88-.44-1.31-.67.02-1.01.44-2.25,0-3-6.7-11.6-4.72-22.96-.13-34.77,8.83-22.74,21.25-43.26,36.53-62.16,2.17-2.68,4.5-5.27,6.31-8.19.65-1.05.51-3.28-.21-4.34-1.25-1.83-3.39-2.55-5.26-.56-2.83,3.01-5.93,5.88-8.19,9.29-9.32,14.09-18.43,28.31-27.51,42.56-7.72,12.13-11.02,25.85-14.14,39.66-1.29,5.69.23,10.22,4.19,14.05,2.69,2.59,5.72,4.83,8.6,7.22ZM505.58,26.05c.2.23.4.47.6.7l-.83-.48c-6.76-6.18-15.33-7.3-23.85-8.34-17.34-2.11-33.42,2.12-49.04,9.46-21.39,10.05-40.76,23.24-58.77,38.29-18.03,15.07-35.95,30.11-57.13,40.7-2.15,1.07-4.16,2.46-6.12,3.86-1,.71-1.73,1.79-2.59,2.7,1.32.22,2.86,1,3.91.57,8.26-3.36,16.83-6.24,24.54-10.61,15.29-8.68,30.32-17.86,45.03-27.5,21.11-13.84,43.02-25.95,66.37-35.67,18.64-7.75,37.49-13.73,57.87-13.69ZM522.06,63.82c0-4.49.56-9.07-.11-13.45-1.62-10.57-5.58-14.12-15.97-16.05-8.36-1.55-16.49-.4-24.53,1.7-22.55,5.9-43.19,16.42-63.51,27.38-22.79,12.3-45.2,25.33-67.51,38.49-13.21,7.79-27.3,13.2-41.89,17.51-3.11.92-5.99,2.56-9.91,1.37-2.85-.86-6.56,1.16-9.89,1.89,3.1,1.42,6.16,2.92,9.31,4.2.85.34,1.99-.14,2.96,0,7.64,1.13,14.94,3.5,20.35,9.12,16.29,16.96,32.15,34.2,42.04,56.11,7.01,15.53,11.22,31.82,15.62,48.12,1.25,4.64,2.95,9.17,4.62,13.68.31.85,1.46,1.39,2.22,2.08.13-.93.5-1.9.35-2.78-1.05-6.11-2.33-12.17-3.29-18.29-1.56-9.87-1.89-20.06-4.59-29.59-6.49-22.96-16.84-43.81-37.02-58.27-4.2-3.01-8.08-6.49-12.07-9.79-.51-.42-.79-1.12-1.18-1.69.88-.17,1.91-.72,2.62-.45,16.99,6.43,30.82,17.04,40.82,32.19,12.22,18.51,19,38.89,20.29,61.18.52,8.92,1.97,17.85,3.82,26.61,1.73,8.19,5.91,10.11,13.65,7.33,1.93-.69,3.86-1.65,5.48-2.9,12.21-9.44,23-20.11,25.89-36.06,1.53-8.44,1.8-17.11,2.63-25.68,1.19-12.35,1.63-25.02,8.12-36,6.9-11.69,16.54-21.15,27.06-29.72,7.75-6.31,15.61-12.54,22.89-19.37,14.03-13.16,21.42-29.41,20.71-48.88ZM44.22,231.11c.12,0,.24.02.37.02,0,3.8-.52,7.7.14,11.38.77,4.3,1.61,9.12,4.08,12.49,6.58,8.96,15.33,14.72,27.1,14.71,10.5,0,19.56-3.35,27.25-10.55,12.71-11.9,23.74-25.03,31.06-41.02,2.15-4.7,4.69-9.22,7.13-13.78,15.19-28.45,36.02-51.26,65.33-65.73,9.68-4.78,19.43-8.77,30.52-8.49,2.1.05,4.94-.83,6.2-2.33,2.27-2.69,3.59-6.18,5.31-9.33-3.65.64-8.23.11-10.78,2.14-6.65,5.28-13.86,3.66-20.78,2.79-10.29-1.3-19.85-5.13-29.07-10.16-14.81-8.07-29.65-16.31-45.19-22.75-20.92-8.68-41.72-6.55-61.33,5.13-3.26,1.94-6.47,3.97-9.77,5.85-11.24,6.37-19.01,16.03-24.36,27.42-2.57,5.47-4.58,11.91-4.4,17.83.57,18.19,2.82,36.33,3.41,54.52.32,9.93-1.4,19.92-2.2,29.88ZM417.17,269.23c6.42.05,13.76-2.05,20.72-5.82,17.02-9.23,25.08-26.55,22.45-45.88-1.01-7.42-1.02-15.35.45-22.65,2.77-13.73,9.26-25.94,19.03-36.23,10.93-11.52,22.02-22.91,32.62-34.73,11.7-13.04,20.04-27.67,22.89-45.55,1.43-8.94-.26-16.29-4.15-23.76-.45-.86-1.31-1.5-1.99-2.24-.29.87-.8,1.74-.84,2.62-.12,3.11-.03,6.23-.1,9.34-.43,17.05-5.44,32.28-16.05,46.01-9.92,12.83-22.5,22.31-35.21,31.9-6.27,4.74-12.57,9.84-17.51,15.87-9.64,11.77-8.65,26.61-9.1,40.6-.39,12.17-1.47,24.07-5.3,35.63-2.22,6.71-6.18,12.35-11.78,16.73-6.53,5.1-13.13,10.1-19.68,15.17-.79.61-1.46,1.36-2.18,2.05.87.32,1.72.78,2.61.93,1.01.16,2.07.04,3.11.04ZM49.41,281.55c.09.36.18.73.27,1.09,5.25-1.35,10.52-2.66,15.74-4.11.92-.26,1.66-1.16,2.49-1.77-1.06-.52-2.1-1.11-3.19-1.56-13.19-5.44-22.22-14.86-27.02-28.27-3.26-9.11-2.24-18.58-.7-27.65,1.04-6.09-.38-11.61-.68-17.38-.03-.64-.47-1.26-.72-1.88-.51.7-1.22,1.33-1.5,2.12-5.21,14.25-11.77,28.19-15.2,42.86-5.38,22.99,3.62,34.22,25.35,36.54,1.71.18,3.46.02,5.18.02ZM254.12,147.05c7.4-.4,14.26-2.72,20.18-7.02,2.24-1.63,3.59-4.76,4.84-7.45,3.67-7.88-3.13-12.5-6.38-17.91-2.85-4.74-7.29-4.83-11.34-.8-6.64,6.61-12.06,14.18-14.66,23.35-1.97,6.96.36,9.89,7.36,9.83ZM428.42,506.63c-1.16-.83-2.47-2.18-4.07-2.87-6.36-2.72-12.8-5.13-17.26-10.95-2.51-3.27-5.58-6.1-8.4-9.13,1.09,4.15,1.87,8.42,3.35,12.42,2.59,7.03,7.89,12.11,13.5,16.76,8.22,6.81,10.68,5.88,12.42-4.3.06-.34.16-.67.47-1.94Z"/>
</svg>