<?xml version="1.0" encoding="UTF-8"?>
<svg id="Layer_1" data-name="Layer 1" xmlns="http://www.w3.org/2000/svg" version="1.1" viewBox="0 0 548.96 328.73">
  <defs>
    <style>
      .cls-1 {
        fill: #000;
        stroke-width: 0px;
      }
    </style>
  </defs>
  <path class="cls-1" d="M278.42,109.09c.64-1.01,1.24-2.07,1.94-3.04,3.31-4.55,4.99-9.51,5.15-15.45.28-10.04.71-20.19,4.65-29.45,7.54-17.67,18.99-31.43,38.03-37.67,15.94-5.22,32.22-9.25,48.95-11.72,3.11-.46,6.38-.36,9.58-.15,7.64.5,13.89,3.64,18.09,10.6,2.6,4.32,5.16,8.69,8.12,12.76,8.33,11.45,9.46,23.72,5.92,36.19-2.97,10.46-7.93,20.07-13.3,29.41-6.58,11.43-17.13,18.41-28.3,24.69-14.16,7.97-29.58,11.62-46.27,11.33-5.15-.09-10.26.76-15.87,1.23,4.25,4.82,10.08,6.4,15.06,9.29,6.73,3.91,13.84,7.12,20.6,11,10.73,6.16,14.33,15.94,14.11,27.31-.1,5.15-.4,10.31-.93,15.41-1.68,16.11,1.19,31.58,9.62,46.04,6.02,10.32,14.73,17.79,26.85,18.69,6.28.47,12.8-.58,18.84-2.13,10.92-2.8,20.18-9.01,29.64-14.7,16.95-10.2,35.19-17.79,54.1-24,1.38-.45,2.84-.7,4.28-.98,8.27-1.61,16.47-2.43,24.27,4.44-6.56,8.13-15.82,13.29-23.88,20.58,2.36,2.01,5.11,1.97,7.56,2.78,5.69,1.88,11.53,3.38,17.03,5.78,7.14,3.12,11.58,8.72,12.99,17-4.7-.42-9.06-.67-13.4-1.22-11.46-1.44-22.67-.79-33.8,1.33-12.49,2.37-24.95,4.83-36.75,9.33-9.25,3.53-18.25,7.64-27.44,11.33-9.43,3.79-19,7.09-29.4,8.15-17.74,1.81-33.34-3.65-46.92-15.81-7.12-6.38-11.75-14.57-14.67-23.5-1.71-5.24-2.99-10.61-4.13-15.97-3.03-14.17-5.54-28.42-8.95-42.52-1.69-6.97-4.45-13.85-7.64-20.37-1.54-3.14-5.09-5.46-7.9-7.96-3.96-3.53-8.15-6.81-12.12-10.32-5.97-5.27-8.79-12.24-10.97-19.5-1.37-4.53-2.7-9.07-4.17-14.04-6.21,2.63-12.01,5.26-17.96,7.55-3.34,1.29-6.86,2.24-10.4,2.96-10.28,2.1-20.68,3.76-30.89,6.06-11.7,2.64-20.96,9.42-29.28,17.47-3.42,3.31-6.63,6.83-9.79,10.4-2.78,3.15-3.88,7.09-4.27,11.34-1.35,14.62-2.77,29.24-4.17,43.85-.12,1.22-.08,2.52-.49,3.62-3.52,9.66-3.52,20.07-4.82,30.19-.8,6.2-3.08,11.89-6.79,16.53-3.99,4.99-8.92,9.25-13.72,13.52-10.33,9.18-23.22,13.32-36.7,16.04-5.98,1.2-12.11,1.85-18.21,2.56-5.66.66-11.3.05-16.93-1.55-5.29-1.5-10.64-2.76-15.98-4.07-10.73-2.65-21.29-1.79-31.57.5-8.43,1.88-16.58,4.73-25,7.19,2.12-11.47,8.57-19.97,20.4-25.65-5.79-1.53-10.3-2.77-14.83-3.89-2.91-.72-5.87-1.18-8.78-1.91-3.34-.84-3.93-2.37-2.24-5.3,1.99-3.46,5.06-5.68,8.65-7.25,4.96-2.17,10.27-2.73,15.81-2.43,12.96.7,25.48,4.51,38.09,7.56,12.16,2.94,24.28,6.2,36.74,5.76,4.18-.15,8.39-.37,12.47-1.1,10.08-1.79,15.43-8.26,15.99-18.52.47-8.57-2.36-16.67-4.66-24.86-.68-2.41-1.38-4.81-1.95-7.24-3.09-13.23,1.09-23.44,11.16-31.45,6.33-5.04,12.93-9.91,17.14-17.09,1.82-3.09,3.3-6.39,5.15-9.46,5.13-8.54,12.63-14.84,20.17-21.11,9.13-7.6,19.71-12.61,30.9-16.65,8.63-3.12,17.25-6.28,25.83-9.51.81-.3,1.35-1.21,2.02-1.84.38-.07.75-.14,1.13-.2-.36.15-.72.29-1.09.44-15-5.08-29.74-3.97-44.44-.91-14.84,3.09-29.81,2.08-44.72-2.13-20.67-5.84-34.4-24.31-36.14-39.73-3.03-26.81,8.62-48.99,33.81-57.07,22.89-7.35,46.16-5.98,69.55,3.27,12.25,4.85,20.39,13.68,26.45,24.69,3.99,7.26,7.18,14.96,10.44,22.57,3.86,9,8.04,17.8,13.59,26,1.7,2.51,3.14,4.4,6.51,3.78,2.26-.42,4.34.53,5.5,2.9-1.15,1.23-4.76-.56-4.1,2.36.87,3.82-3.18.77-3.3,2.77-.03.47-.35.9-.39,1.37-.38,4.81-1.5,9.61.42,15,2.35-.38,4.86-.12,6.51-1.15,9.15-5.69,13.55-9.9,2.42-18.99-.59-.48-1.22-.91-1.84-1.36ZM262.53,108.98c-7.55-2.46-12.82-7.19-17.02-13.55-4.58-6.94-9.5-13.68-14.46-20.38-1.62-2.19-3.52-4.5-5.8-5.86-6.26-3.73-12.8-6.94-19.18-10.45-.81-.45-1.36-1.42-3.16-3.36,7.71,1.83,13.83,2.97,19.77,4.78,7.95,2.42,14.4,7.14,18.52,14.68,3.38,6.18,6.66,12.42,10.07,18.59,2.32,4.19,4.28,8.76,9.44,10.79-2.67-6.35-5.13-12.38-7.73-18.35-3.71-8.52-7.23-17.13-11.35-25.46-7.71-15.59-19.85-25.87-36.83-30.03-15.49-3.8-30.88-4.86-46.31-2.2-12.95,2.23-23.72,8-32.17,17.68-7.32,8.38-8.8,19.12-9.55,29.87-1.12,16.25,10.33,32.77,24.45,39.5,16.5,7.86,33.56,8.8,50.78,5.47,6.93-1.34,13.97-2.49,21.05-2.97,8.06-.55,16.15-.32,24.06,3.36,3.05,1.42,6.78,1.77,10.15,1.77,5.13-.01,10.2-.76,15.56-1.22.72-2.65,1.5-5.66,2.35-8.65,1.06-3.78,1.08-3.78-3.28-6.63.19.8.35,1.5.62,2.66ZM394.33,33.6c7.41,3.79,11.31,9.89,12.36,17.25,2.42,17.04-2.83,31.71-13.94,43.51-13.18,14-29.96,22.97-48.58,28.41-5.23,1.53-11.18,1.87-16.75,1.32-10.08-.99-20.11-3.1-30.18-4.61-1.72-.26-3.97-2-5.19.47-.93,1.88.52,3.93,3.8,5.59,1.34.68,2.79,1.12,4.19,1.65,3.03,1.14,6.39,1.76,9.04,3.51,4.8,3.17,9.93,3.61,15.01,3.34,24.12-1.3,45.84-8.78,64.97-22.61,4.08-2.95,8.09-6.05,10.59-10.54,3.38-6.04,6.37-12.32,9.83-18.3,3.27-5.65,5.62-11.65,6.9-18.1,1.56-7.86,1.17-15.64-3.45-22.98-3.36-5.33-7-10.51-10.05-16-4.23-7.62-10.83-10.14-18.65-10.22-2.94-.03-5.96.32-8.74,1.08-12.42,3.38-24.9,6.63-37.09,10.62-6.61,2.17-12.77,5.58-18.99,8.7-5.33,2.68-8.01,8.13-12.06,12.16-5.54,5.52-8.89,12.39-11.99,19.39-4.05,9.13-4.81,19.22-6.17,29.12-.51,3.68-1.39,7.28-1.98,10.33,2.16,2.06,4.27,4.06,6.57,6.26,1.95-1.52,3.95-3.13,6.02-4.66,10.84-7.98,20.92-16.71,28.25-28.22,2.07-3.24,4.28-6.4,6.64-9.43,8.81-11.33,15.76-24.16,26.61-33.86,7.2-6.44,15.12-11.58,24.82-13.94,4.76-1.16,8.62-.15,13.07,4.49-9.43-3.52-15.96.3-22.36,4.09-8.01,4.74-17.5,16.51-22.82,25.14-8.43,13.68-16.35,27.76-26.7,40.12-1.06,1.27-2.34,2.38-3.62,3.45-6.77,5.63-13.76,10.94-22.22,14.45,4.62,1.21,9.37,1.31,13.67,2.85,9.9,3.54,19.08,2.12,28.09-1.18,14.92-5.48,27.7-14.07,39.11-24.95,10.86-10.35,16.76-23.02,18.87-37.93.65-4.56-.13-8.8-2.7-12.84-1.45-2.28-2.81-4.61-4.21-6.92ZM290.37,127.9c.44,1.68,1.12,3.36,1.27,5.05.36,4.17.67,8.26,2.21,12.34,3.92,10.35,9.34,19.26,19.67,24.84,5.3,2.86,10.42,6.57,13.15,12.29,3.91,8.2,7.4,16.5,9.08,25.45,2.79,14.95,5.94,29.86,9.26,44.74,1.19,5.33,2.94,10.64,5.1,15.71,3.41,8.01,8.94,14.85,15.96,19.86,8.3,5.92,17.61,9.69,27.86,10.16,12.66.58,24.32-2.33,35.54-7.19,16.81-7.29,33.37-15.22,51.62-19.08,6.68-1.41,13.36-2.89,20.14-3.86,6.53-.94,13.17-1.8,19.8-1.7,6.53.09,13.11,1.43,19.64,2.22-1.74-1.31-3.41-2.99-5.39-3.98-7.45-3.72-15.1-6.85-23.24-8.44-3.17-.62-6.36-1.35-9.41-2.47-3.19-1.17-3.8-4.01-1.62-6.52.76-.88,1.84-1.48,2.8-2.18,6.74-4.91,13.5-9.77,20.19-14.74.97-.72,1.58-1.91,3.01-3.69-3.55.13-6.08-.14-8.39.38-5.22,1.17-10.4,2.56-15.49,4.15-20.21,6.34-39.04,15.36-56.93,26.3-11.71,7.16-23.87,13.53-38.34,14.44-13.54.85-24.65-4.24-33.93-14.6-8.48-9.46-12.26-20.75-14.95-32.51-2.27-9.9-1.49-19.67-.16-29.4.89-6.56,1.36-13.13-.05-19.85-1.02-4.87-3.44-8.71-7.39-11.91-5.77-4.68-12.24-8.06-18.75-11.39-8.53-4.36-17.12-8.56-23.56-16.2-1.34-1.58-3.7-2.47-5.72-3.31-4.14-1.72-8.37-3.18-13-4.91ZM261.01,124.32c-4.78.91-9.68,1.39-14.26,2.8-17.38,5.34-34.3,11.86-50.29,20.17-12.6,6.55-23.29,15.8-31.66,27.36-2.22,3.07-3.73,6.67-5.59,10.02-5.22,9.4-13.13,16.4-21.22,23.08-5.98,4.94-8.13,11.15-7.15,18.66.71,5.39,2.34,10.71,3.47,16.07,1.33,6.34,3.09,12.68,3.73,19.06,1.46,14.51-6.23,25.32-20.18,28.21-10.87,2.25-21.94,2.35-33.05.22-9.53-1.83-18.99-4.24-28.48-6.4-11.22-2.55-22.47-4.59-33.89-5.26-4.59-.27-8.85.27-12.87,2.08-1.08.49-1.85,1.59-2.71,2.37,8.24,1.68,16.06,3.21,23.85,4.88,3.16.68,6.29,1.58,9.39,2.56.79.25,1.97,1.16,1.98,1.73.02,1.07-.46,2.32-1.16,3.09-.56.61-1.82.54-2.69.93-3.29,1.48-6.86,2.6-9.74,4.65-4.83,3.43-9.97,6.72-13.2,12.6.87-.19,1.17-.17,1.34-.3,15.28-12.38,32.89-15.11,52.49-9.65,5.05,1.41,10.06,3.12,15.17,4.16,4.6.94,9.35,1.6,13.97,1.57,4.89-.03,9.74-.91,14.57-1.61,17.57-2.54,32.91-8.83,45.36-21.69,6.51-6.72,10.83-13.88,11.78-23.15.91-8.97,1.05-18.07,4.32-26.52.33-.86.13-1.95.22-2.93,1.29-13.88,2.85-27.73,3.78-41.66.56-8.45,3.17-15.67,8.84-21.61,1.8-1.89,3.86-3.53,5.75-5.33,10.2-9.67,21.6-17.39,36.04-19.8,7.48-1.25,15.06-2.11,22.64-2.81,5.28-.49,9.9-2.16,13.54-4.89-1.31-4.03-2.51-7.75-4.1-12.63Z"/>
  <path class="cls-1" d="M258.12,112.65c-7.31.61-12.48-2.03-17.2-5.08-9.18-5.92-17.47-13.01-24.91-21.11-8.22-8.94-16.24-18.11-25.01-26.47-9.91-9.45-21.86-14.62-35.39-14.32-5.38.12-10.7,1-16.04,1.58-2.38.26-4.75.65-7.92,1.09,10.47-9.82,26.24-13.01,39.64-9.22,14.74,4.16,25.53,13.65,35.11,25.17,7.76,9.33,15.27,18.92,23.78,27.54,7.22,7.32,14.79,14.69,24.75,18.46.76.29,1.37,1,3.19,2.36Z"/>
  <path class="cls-1" d="M239.67,112.08c-2.91-.48-5.86-.81-8.74-1.48-13.92-3.24-27.41-2.02-41.02.41-14.54,2.6-29.16,2.6-43.48-4.74-10.53-5.39-16.28-13.12-16.47-24.82-.11-6.88-.77-13.71,1.61-20.31,1.11-3.07,2.5-5.63,5.63-8.49-.34,2.22-.31,3.58-.76,4.75-3.87,9.99-2.15,20.31.45,30.49,1.24,4.87,4.69,8.38,9.46,11.21,11.99,7.12,24.43,8.36,37.39,7.09,9.51-.93,19.02-2.04,28.6-2.36,9.7-.33,18.82,3.19,27.33,8.26Z"/>
  <path class="cls-1" d="M343.27,48.59c-1.3,1.27-2.57,2.57-3.9,3.81-6.26,5.83-13.21,11.09-18.62,17.63-4.96,6-8.18,13.45-12.36,20.15-3.04,4.87-6.22,9.67-9.67,14.25-1.14,1.5-3.32,2.19-5.8,3.72-.02-1.82-.3-2.69,0-3.02,6.49-7.03,9.18-16.2,12.97-24.74,7.29-16.42,19.52-27.23,37.37-31.8Z"/>
  <path class="cls-1" d="M376.25,277.6c4.52,2.27,8.02,4.15,11.61,5.79,8.38,3.84,16.53,1.48,24.7.37,10.51-1.43,20.14-5.02,29.37-9.91,9.5-5.03,19.39-9.39,29.79-13.02-1.17.88-2.29,1.84-3.53,2.62-10.24,6.54-20.35,13.28-30.79,19.51-12.15,7.24-26.05,9.04-40.23,8.02-5.59-.41-11.23-3.79-16.68-6.22-2.54-1.13-3.92-3.61-4.24-7.17Z"/>
  <path class="cls-1" d="M306.67,146.25c5.45,8.1,12.45,10.96,19.27,13.86,3.86,1.63,5.65,4,5.8,7.87.22,5.5,2.8,9.41,7.98,11.76,3.96,1.8,6.13,5.38,7.35,9.11,2.26,6.9,4.25,13.95,3.83,21.19-.43,7.56.92,14.74,5.02,21.48.59.98.87,2.13.85,3.36-6.86-6.92-11.77-14.36-11.52-24.53.15-6.05-1.54-12.28-2.6-18.4-.68-3.91-3.31-6.54-6.46-8.97-2.54-1.96-4.81-4.41-6.8-6.95-1-1.28-1.77-3.37-1.52-4.84,1.02-6.2-3.59-8.16-7.7-10.65-3.43-2.08-6.88-4.14-10.22-6.36-2.16-1.44-3.03-3.58-3.29-7.92Z"/>
  <path class="cls-1" d="M170.83,194.9c-1.58,1.64-3.06,3.39-4.76,4.89-5.43,4.76-9.23,10.25-8.7,18.17.38,5.66.12,11.34.63,16.99.39,4.31.31,8.29-1.84,12.05-2.43,4.25-3.38,8.96-2.8,14.05.49,4.35-.61,8.2-3.07,11.71-1.91,2.73-3.29,5.85-5.15,8.62-.68,1.02-2.06,1.54-4.23,3.07,1.13-3.63,1.86-5.86,2.5-8.11,1.53-5.36,2.79-10.72,2.09-16.57-.66-5.5.23-10.6,3.63-15.22,1.7-2.3,2.15-5.8,2.44-8.87.47-5.11.44-10.29.46-15.46.06-13.05,7.24-20.82,18.82-25.31Z"/>
</svg>