<?xml version="1.0" encoding="UTF-8"?>
<svg id="Layer_1" data-name="Layer 1" xmlns="http://www.w3.org/2000/svg" version="1.1" viewBox="0 0 595.28 378.73">
  <defs>
    <style>
      .cls-1 {
        fill: #000;
        stroke-width: 0px;
      }
    </style>
  </defs>
  <path class="cls-1" d="M465.37,35c3.59.02,7.18.19,10.76.03,8.58-.38,16.69,1.54,24.15,5.53,11.09,5.93,21.75,12.69,30.79,21.52,9.33,9.11,13.28,20.03,10.6,33.35-2.02,10.04-4.46,19.73-10.49,28.17-10.48,14.68-25.38,21.54-42.79,22.75-14.63,1.02-29.25-.45-43.74-2.91-17.6-2.99-35.2-5.99-52.83-8.84-5.89-.95-11.85-1.43-17.77-2.19-8.82-1.12-15.27-4.88-21.97-12.89,4.45,1.3,8.55,2.5,12.66,3.7,4.93,3.2,10.69,2.64,16.12,3.44,15.59,2.29,31.2,4.46,46.82,6.48,12.98,1.68,25.98,3.31,39.02,4.51,6.84.63,13.76.26,20.65.39,17.78.34,30.83-8.08,40.26-22.45,3.76-5.72,5.11-12.53,6.75-19.24,3.51-14.33-1.05-25.22-12.43-33.68-4.54-3.37-9.72-5.89-14.21-9.32-6.39-4.9-13.31-4.36-20.46-2.97-1.75.34-3.53.74-5.17,1.41-16.52,6.74-33.72,12.2-46.98,25.09-1.91,1.85-4.24,3.36-6.59,4.63-8.02,4.37-14.51,10.53-20.44,17.3-8.26,9.42-18.45,16.06-29.83,20.88-4.3,1.82-9.08,2.5-13.64,3.69,3.58-2.04,7.08-4.26,10.77-6.08,11.98-5.9,22.39-13.46,30.42-24.48,3.79-5.2,9.25-9.3,14.35-13.41,6.98-5.62,14.19-10.99,21.59-16.06,4.63-3.17,9.66-5.84,14.74-8.27,4.56-2.18,9.38-3.84,14.17-5.52,5.03-1.76,10.16-3.25,15.22-4.85-7.7-1.18-15.44-1.17-23.3.84-15.56,3.99-31.26,7.46-46.8,11.52-3.03.79-6.01,2.87-8.33,5.07-7.68,7.28-16.64,12.66-25.53,18.2-3.05,1.9-6.28,3.58-9.04,5.84-5.9,4.82-12.94,7.98-16.95,15.49-2.74,5.12-7.68,9.74-15.44,12.86,1.75-2.81,2.54-4.2,3.45-5.52.51-.73,1.3-1.27,1.78-2.02,9.36-14.79,23.96-23.85,37.32-34.28,6.12-4.78,12.22-9.66,17.79-15.06,5.36-5.2,11.38-8.7,18.65-9.84,9.26-1.46,17.8-4.74,26.12-8.97,8.77-4.46,17.5-8.94,26.17-13.61,12.5-6.74,25.82-9.89,40.56-6.97,7.97,1.58,15.83,2.85,22.86,6.9,3.28,1.89,6.34,4.52,8.81,7.4,3.49,4.06,6.24,8.74,9.49,13.02,7.54,9.94,9.76,21.56,10.94,33.55,1.16,11.85-1.27,23.02-5.4,34.12-5.35,14.38-13.11,27.43-20.77,40.58-4.52,7.75-11.19,13.22-18.93,17.43-13.89,7.54-28.77,11.27-44.58,11.6-6.39.13-12.39-1.26-18.43-3.03-15.75-4.62-31.86-7.47-48.11-9.77-4.6-.65-9.21-2.46-13.38-4.6-8.23-4.22-16.02-9.33-24.27-13.52-5.54-2.82-11.54-4.72-17.35-6.98-3.79-1.48-7.62-2.86-10.78-4.05-5.4,4.81-10.72,9.55-16.12,14.37,1.18,9.54,8.9,14.16,16.95,18.26,14.19,7.23,27.06,16.49,39.89,25.77,11.98,8.66,20.26,20.17,24.02,35.57,2.06-9.93-1.85-17.67-6.06-25.1-5.11-9.02-12.63-15.9-21.39-21.4-5.06-3.18-10.32-6.05-15.22-9.45-7.75-5.37-13.66-12.53-18.4-20.62-3.07-5.23-2.96-5.56-1.43-11.79.72.63,1.58,1.02,1.82,1.65,3.67,9.67,10.91,16.36,18.95,22.21,4.81,3.5,10.01,6.52,15.23,9.41,11.53,6.38,20.79,15.1,27.74,26.24,3.38,5.42,5.26,11.23,5.04,17.81-.41,11.75-2.58,23.03-7.23,33.87-2.69,6.29-5.04,12.72-7.46,19.13-.73,1.93-1.43,3.93-1.67,5.96-.84,7.1,1.32,10.72,8.15,12.88,4.51,1.42,9.07,1.69,14.05,1.23,18.9-1.74,33.84-11.39,47.6-23.07,15.35-13.03,31.05-25.32,49.82-33.11,2.2-.91,4.29-2.09,6.43-3.15,19.02-9.43,29.72-25.1,34.26-45.47.43-1.91,1.69-3.63,3.39-7.13,1.36,4.1,2.76,6.62,2.99,9.25,1.26,14.27,10.83,20.43,23.02,24.18.57.17,1.21.09,1.77.28,4.19,1.41,5.77,3.84,4.76,7.21-.97,3.24-3.81,4.3-8.13,3.04-11.2-3.27-18.81-9.58-26.82-22.37-2.98,5.11-5.52,10.42-8.91,15.1-5.85,8.09-13.44,14.38-22.3,19.06-4.75,2.51-9.51,5.02-14.39,7.27-13.19,6.07-24.42,14.88-35.32,24.32-7.67,6.64-15.81,12.76-23.91,18.89-11.58,8.77-25.12,12.53-39.28,13.29-7.35.4-14.97-1.04-20.57-7.06-4.33-4.66-6.78-9.8-4.55-16.29,1.84-5.34,3.61-10.7,5.43-16.04,3.4-9.97,5.64-20.08,3.65-31.63-3.64,9.08-6.91,17.4-10.32,25.67-2.61,6.34-5.13,12.74-8.2,18.85-2.4,4.78-3.22,9.72-2.58,14.78,1.76,13.92,6.94,25.84,20.09,32.99,8.5,4.62,17.32,7.21,27.02,8.53,23.62,3.2,44.06-4.05,63.55-16.31,17.35-10.92,32.45-24.55,47.17-38.63,14.74-14.09,29.77-27.79,46.72-39.22,2.35-1.59,4.82-3.01,7.32-4.56,1.44,3.57-.83,5.14-2.45,6.67-6.52,6.16-13.21,12.15-19.82,18.22-14.33,13.15-28.6,26.38-43.01,39.46-15.11,13.72-31.15,26.21-49.65,35.12-16.52,7.95-33.75,10.8-52.19,8.48-11.58-1.45-21.88-5.11-31.89-10.77-11.69-6.61-16.78-17.31-19.93-29.52-1.46-5.65-.31-11.18.25-16.79,1.25-12.58,8-22.83,13.6-33.6,3.43-6.61,6.37-13.48,9.89-20.04,2-3.73,1.23-6.71-.78-10.03-3.95-6.54-9.13-11.94-15.26-16.29-11.94-8.48-24.13-16.61-36.22-24.88-1.98-1.35-3.96-2.69-5.96-4-7.61-4.99-13.22-11.18-12.15-21.14-15.51,2.09-23.58-3.67-24.13-19.76-2.67.76-6.34,0-6.2,4.69.01.45-1.94,1.11-3.06,1.41-10.72,2.92-20.66,7.7-30.26,13.12-10.15,5.73-17.32,14.68-23.83,24.05-7.72,11.11-12.9,23.5-16.86,36.38-3.78,12.29-1.92,24.87-1.89,39.34,4.69-12.88,8.14-24.08,12.81-34.75,9.74-22.28,23.38-41.85,43.73-55.78,6.3-4.32,13.76-7.03,20.87-10.05,2.46-1.05,5.48-.8,9.81-1.34-2.01,1.88-2.55,2.79-3.29,3.02-21.11,6.53-35.7,21.1-47.98,38.61-11.99,17.1-18.86,36.46-25.1,56.11-4.05,12.76-8.7,25.3-11.21,38.55-1.22,6.43-4.65,12.22-9.42,17.08-11.39,11.63-24.4,21.17-38.06,29.88-2.5,1.59-5.28,2.86-8.09,3.8-17.22,5.78-34.55,11.21-52.51,14.32-.88.15-1.79.19-2.69.24-13.15.67-26.3,1.43-39.45,1.96-13.49.55-26.69,2.39-39.42,7.17-4.43,1.66-9.07,2.77-13.68,4.15-2.62-4.16-2.9-8.21-3.21-12.35-.55-7.44-.89-14.95-2.27-22.26-.97-5.13-1.55-10.72-5.69-14.84-.56-.56-.41-2.19-.07-3.15.18-.53,1.69-1.18,2.14-.94,6.68,3.6,13.29.09,19.92-.05,5.35-.12,10.72-.51,16.04-.12,15.75,1.15,31.35,4.04,47.32,1.38,9.68-1.61,19.66-2.01,29.5-2.01,12.8,0,24.91-2.59,36.51-7.66,12.59-5.5,25.25-10.93,36.2-19.49,1.41-1.1,2.94-2.08,4.27-3.27,17.37-15.67,16.06-17.6,15.61-34.78-.05-1.8.06-3.61-.12-5.4-2.3-23.26,5.99-43.46,18.54-62.2,5.08-7.59,11.32-14.41,17.65-22.36-4.72,2.01-8.63,4-12.76,5.37-29.35,9.78-57.46,7.22-84.49-8.21-10.61-6.06-19.52-13.74-26.38-23.72-2.17-3.16-4.6-5.06-8.24-6.27-4.6-1.53-8.59-4.39-10.4-9.25-5.09-13.66-11.26-27.06-14.72-41.12-2.37-9.63-2.63-20.54-.73-30.27,2.37-12.17,10.49-22.05,19.96-30.2,7.8-6.7,17.34-8.33,27.37-9.57,19.06-2.36,37.5,1.79,55.96,4.48,18.34,2.67,34.17,12.44,48.61,23.72,10.83,8.46,20.72,18.13,31.03,27.27,5.15,4.57,10.12,9.37,15.48,13.67,9.71,7.79,16.69,17.9,24.18,27.6.53.07,1.16.37,1.56.18,2.38-1.11,4.8-3.3,7.38-1.15,1.96,1.64,3.39,3.96,4.83,6.12.33.5-.02,1.82-.51,2.35-.28.3-1.66.02-2.21-.42-2.58-2.06-4.41-.23-4.79,1.66-1.81,9.04-3.5,18.14-4.58,27.29-.6,5.05,1.72,6.28,6.69,4.39,9.62-3.66,15.31-13.5,15.03-20.49-.13-3.23.12-6.47.23-10.94,8.32,6.08,9.61,13.6,9.58,22.19,3.63.82,7.36,1.68,11.1,2.5,13.35,2.93,25,9.89,36.38,16.82,9,5.49,18.47,7.68,28.45,9.58,13.42,2.55,26.79,5.54,40,9.02,6.81,1.79,13.55,2.42,20.4,1.85,13.82-1.15,27.22-4.16,38.71-12.39,4.55-3.26,9.13-7.15,12.15-11.76,9.16-13.98,17.66-28.4,23.31-44.29,3.55-9.97,4.27-19.85,3.6-30.62-1.02-16.52-9.97-28.42-18.63-40.85-4.01-5.76-10.65-7.67-16.97-9.17-19.87-4.71-38.43-.38-56.03,9.23-.42.23-.57.95-.85,1.44-.29,0-.59-.08-.86,0-.8.21-1.59.48-2.38.73.22.17.54.54.65.48.83-.42,1.62-.92,2.42-1.4ZM204.64,280.02c-2.49,2.54-4.84,5.22-7.48,7.58-12.13,10.84-26.12,18.55-41.02,24.98-13.06,5.63-26.41,8.63-40.65,8.97-10.98.26-21.91,2.22-32.9,2.77-8.01.41-16.11.17-24.11-.52-12.74-1.09-25.42-2.86-38.14-4.19-3.12-.33-6.3-.05-9.73-.05,3.87,10.48,5.37,20.4,4.94,30.66-.15,3.56.1,7.14.16,10.71-.28.35-.56.7-.84,1.06.23-.41.45-.81.68-1.22,2.19-.81,4.36-1.72,6.59-2.41,7.08-2.2,14.06-5.28,21.32-6.26,11.21-1.51,22.62-1.76,33.95-2.21,20.89-.83,41.48-2.96,61.72-8.87,18.97-5.54,36.04-13.43,50.09-27.93,9.27-9.57,13.63-20.61,15.2-33.31.24-.1.52-.16.72-.32.13-.1.16-.33.24-.5-.24.35-.48.7-.72,1.05ZM278.92,113.26c-6.85-8.12-13.82-14.39-22.43-18.85-6.09-3.15-11.9-6.86-17.99-10.03-8.71-4.54-17.37-9.25-26.4-13.09-14.88-6.32-29.54-12.68-41.48-24.19-5.67-5.47-13.33-7.56-21.26-8.43-11.85-1.31-20.89,4.49-28.97,11.74-8.72,7.82-14.26,17.34-13.43,29.92.45,6.77-.96,13.64-1.16,20.48-.08,2.89.29,6.01,1.32,8.68,4.69,12.08,15.04,17.99,26.1,22.85,2.65,1.16,5.76,1.62,8.68,1.77,16.48.81,32.9.11,48.92-4.13,28.54-7.55,57.8-11.15,88.08-16.71ZM127.27,135.41c3.1,2.63,5.97,5.61,9.34,7.84,14.07,9.31,29.36,15.35,46.16,18.02,20.84,3.32,40.27-.49,58.96-9.62,3.76-1.83,7.5-3.7,11.26-5.53,14.05-6.85,28.49-12.38,44.48-11.74,3.28.13,4.25-1.79,4.98-4.04,2.19-6.77,4.33-13.57,6.13-20.45.35-1.33-.42-3.59-1.47-4.56-8.37-7.68-16.89-15.19-25.44-22.67-4.5-3.94-9.16-7.7-13.7-11.6-12.26-10.52-24.13-21.54-36.84-31.48-11.57-9.05-24.55-16.09-39.01-19.47-7.51-1.76-15.42-1.77-22.97-3.41-12.99-2.83-25.87-3.9-39.07-1.51-5.72,1.04-11,2.57-15.62,6.12-8.77,6.75-14.39,15.79-18.59,25.83-.45,1.09-.9,2.27-.93,3.43-.42,14.08-1.37,28.25,7.07,42.09-.3-4.63.01-8.31-.86-11.68-1.83-7.09-.5-13.52,2.39-19.98,3.88-8.68,9.62-15.93,17.1-21.58,5.93-4.48,12.17-9.02,19.87-9.77,14.57-1.41,27.97,1.9,39.11,11.83,8.82,7.86,18.91,13.24,29.65,18.01,11.95,5.32,23.57,11.53,34.87,18.15,14.42,8.45,28.65,17.25,38.62,31.41,3.1,4.41,8.82,5.51,13.83,7.18,2.11.71,4.21,1.45,6.32,2.18-3.45,1.46-6.7,1.7-9.9,1.41-6.32-.56-12.38.04-18.57,1.69-8.32,2.22-16.85,3.71-25.34,5.21-13.18,2.33-26.45,4.16-39.59,6.63-17.88,3.37-35.63,7.25-54.05,6.21-9.29-.53-18.31-1.75-28.2-4.16Z"/>
</svg>