<?xml version="1.0" encoding="UTF-8"?>
<svg id="Layer_1" data-name="Layer 1" xmlns="http://www.w3.org/2000/svg" version="1.1" viewBox="0 0 595.28 213.1">
  <defs>
    <style>
      .cls-1 {
        fill: #000;
        stroke-width: 0px;
      }
    </style>
  </defs>
  <path class="cls-1" d="M593.65,173.95c-7.9,11.56-17.19,21.06-29.1,27.17-7.56,3.88-15.49,4.98-23.49,1.73-6.12-2.49-11.2-6.49-14.85-12.66-4.43-7.49-6.61-15.81-8.61-24.25-.47-1.98-.87-3.98-1.46-5.91-2.6-8.56-6.41-11.66-14.72-11.5-3.77.07-7.54.74-11.28,1.33-6.09.97-12.13,2.37-18.24,3.1-6.93.82-13.71-.71-20.45-2.43-14.4-3.67-26.96-11.36-38.41-21.14-9.37-8-18.28-16.61-27.44-24.88-14.35-12.96-29.61-24.17-48.01-29.43-11.6-3.31-23.24-5.6-35.24-2.89-1.84.42-3.61,1.28-5.45,1.65-.94.19-1.98-.28-2.98-.45.27-1.17.26-2.59.9-3.45.68-.92,1.92-1.58,3.02-1.86,5.3-1.35,10.58-3.02,15.96-3.63,5.45-.62,11.01-.24,16.51-.12,12.97.28,25.31,3.35,37.23,9.03,16.58,7.89,30.86,19.17,44.08,32.42,6.61,6.63,13.73,12.84,21.3,18.12,8.43,5.89,18.04,8.93,28.27,8.91,7.67-.01,15.33.11,23-.06,3.31-.07,6.61-.8,9.92-1.1,11.97-1.07,23.12,1.66,33.03,9.12,5.73,4.31,8.6,10.91,10.66,17.86,2.09,7.04,3.7,14.25,5.86,21.26.95,3.1,2.39,6.18,4.2,8.79,3.71,5.34,9.95,6.68,15.25,3.27,3.66-2.35,7.17-5.09,10.38-8.11,4.32-4.07,5.77-9.28,3.84-15.38-.25-.8-.23-2.35.17-2.61.67-.42,1.91-.39,2.63.02,4.33,2.46,8.57,5.09,13.53,8.07Z"/>
  <path class="cls-1" d="M273.2,61.22c-.59,1.45-1.13,2.55-3.08,2.33-8.57-.98-17.08-.89-25.69.55-7.74,1.3-15.67,1.16-23.49,1.96-6.6.68-13.17,1.79-19.75,2.71-.47.07-.95.19-1.42.21-12.4.56-24.83,1.9-37.19,1.41-9.35-.37-18.75-2.21-26.89-8.54-8.93-6.95-10.14-17.86-3.09-26.6,3.72-4.61,8.17-8.86,12.98-12.07,11.79-7.87,24.53-12.94,38.45-15.19,9.35-1.51,18.66-1.7,27.85-.9,10.86.95,21.31,4.65,31.26,9.77,10.73,5.53,21.11,11.69,30.47,19.62,2.49,2.11,4.06,5.49,6.16,8.43.22-.14,1.03-.37,1.31-.91,3.06-5.95,7.97-2.83,12.11-2.67,1.01.04,2.61,2.48,2.79,3.98,1.08,8.8-.34,16.82-6.84,23.14-3.13,3.04-6.56,2.72-10.03,1.56-1.78-.6-3.09-2.02-3.47-4.48-.23-1.5-1.71-2.77-2.62-4.14.96-3.17,1.92-6.35,2.89-9.52.18-.11.38-.2.55-.33.1-.08.16-.23.24-.36-.2.29-.4.58-.6.88-2.25-1.7-4.44-3.51-6.75-5.1-20.37-14.01-43.12-19.5-66.77-21.29-5.62-.43-11.36.76-17.02,1.43-10.03,1.19-19.44,4.52-27.65,10.94-2.59,2.03-4.77,5.04-6.39,8.07-1.73,3.22-.32,7.41,2.89,8.24,3.58.92,7.13,2.96,11.12,1.54,1.99-.71,4.22-.67,6.34-.91,5.42-.61,10.85-1.1,16.26-1.8,6.81-.88,13.59-2.46,20.42-2.76,17.15-.77,34.29-.21,51.22,3.13,5.06,1,10.7,1.56,13.44,7.66ZM281.67,67.62c-.34-.25-.68-.5-1.02-.76.4.18.81.36,1.21.54.3.22.59.45.89.67-.36-.15-.72-.3-1.08-.46Z"/>
  <path class="cls-1" d="M2,183.38c4.06-3.45,8.18-6.88,12.21-10.43,1.54-1.35,3-1.52,4.56-.31,1.11.86,2.11,1.9,3.18,2.82,6.62,5.73,13.72,8.52,22.44,6.09,4.31-1.2,8.76-1.68,13.07-3.31,11.7-4.44,18.25-13.12,20-26.32.77-5.8,1.98-11.53,2.66-17.35.9-7.71,5.56-12.23,10.98-16.29,7.41-5.55,15.88-6.05,24.46-6.17,11.08-.15,21.48,3.58,31.8,7.14,10.85,3.74,21.83,5.16,33.01,4.09,7.2-.69,13.8-3.77,18.51-10.18,4.74-6.46,9.2-13.16,14.03-19.53,5.47-7.2,11.24-14.13,18.5-19.36,7.73-5.58,16.27-8.39,25.55-8.45,3.35-.02,6.71.03,10.06.17,1.4.06,2.86.27,4.17.8.75.3,1.82,1.53,1.7,2.06-.25,1.09-1.05,2.23-1.93,2.88-.69.52-1.86.62-2.75.46-10.79-1.91-18.27,4.83-25.19,11.95-5.86,6.03-10.86,13.05-16.21,19.66-6.6,8.15-12.63,16.93-21.52,22.52-7.95,5-16.43,7.68-25.66,8.24-12.78.78-25.08-1.82-37.29-5.28-9.45-2.68-18.92-4.62-28.8-4.24-10.7.41-22.51,7.63-25.86,22.34-1.52,6.69-2.71,13.46-4.27,20.14-4.28,18.39-15.29,28.53-32.34,32.65-8.75,2.11-16.7.27-24.4-2.59-7.26-2.7-14.61-5.99-20.49-11.91-1.13-1.13-2.84-1.58-4.18-2.29Z"/>
  <path class="cls-1" d="M297.85,48.81c1.19-8.05,5.5-13.16,10.82-17.03,20.52-14.95,42.89-25.04,67.32-29.95,10.23-2.06,20.49-2.34,30.58-1.05,11.78,1.5,22.25,6.99,30.19,17.19,6.1,7.83,6.57,20.5,1.59,29.73-6.6,12.22-16.96,19.08-29.27,22.97-11.04,3.49-21.55.17-32.18-2.48-13.84-3.45-27.66-7.1-41.65-9.69-10.76-1.99-21.77-2.96-32.28,2.23-.87.43-2.6.22-3.17-.45-.59-.7-.59-2.44-.26-3.51.79-2.55,2.45-4.13,4.94-5.12,7.35-2.92,14.83-3.52,22.5-2.38,9.4,1.39,18.86,2.44,28.17,4.31,9.74,1.96,19.66.43,29.25,2,12.14,2,21.85-2.55,30.99-9.89,2.77-2.23,5.11-5.4,6.94-8.61,2.72-4.79,2.26-6.68-1.31-10.98-4.67-5.62-11.03-7.72-17.41-9.89-8.79-2.99-17.61-1.26-26.16.45-23.21,4.62-45.09,13.76-66.25,24.93-3.62,1.91-7.02,4.31-10.56,6.4-.71.42-1.59.49-2.81.84ZM302.97,42.43c-.11-.21-.21-.42-.32-.63-.17.41-.39.82-.48,1.25-.03.15.23.38.35.58.15-.4.3-.8.44-1.2ZM305.6,54.03l-.26.33.42.08-.15-.41Z"/>
</svg>