<?xml version="1.0" encoding="UTF-8"?>
<svg id="Layer_1" data-name="Layer 1" xmlns="http://www.w3.org/2000/svg" version="1.1" viewBox="0 0 489.99 344.05">
  <defs>
    <style>
      .cls-1 {
        fill: #000;
        stroke-width: 0px;
      }
    </style>
  </defs>
  <path class="cls-1" d="M103.32,21.63c-5.87,2.34-11.93,4.3-17.5,7.2-2.42,1.26-4.28,4.22-5.61,6.81-1.76,3.43-.34,4.97,3.7,6.13,3.38.98,6.72,4.02,9.79,3.66,3.23-.37,6.05-3.8,9.17-5.69,3.29-2,5.95-.41,7.83,2.22,5.71,7.98,11.19,16.15,10.63,26.6-.23,4.33.39,7.22,4.98,9.58,13.69,7.04,19.02,20.39,23.16,34.05,2.32,7.66,3.25,15.74,4.93,23.61.17.79,1.23,1.4,1.87,2.09.5-.67,1.36-1.29,1.46-2.02,2.12-15.95,4.11-31.92,6.22-47.87.44-3.32,1.03-6.66,2.02-9.85.42-1.35,2.34-3.42,3.12-3.24,1.68.39,3.52,1.76,4.45,3.25,1.01,1.63,1.2,3.83,1.49,5.82,3,20.34,5.76,40.79.91,61.11-2.16,9.03-6.09,17.68-9.66,26.31-2.86,6.92-1.61,9.83,6.04,10.65,12.95,1.38,25.94,2.43,38.91,3.67,3.93.37,4.6-1.25,3.36-4.68-.91-2.51-1.3-5.21-2.06-7.79-.95-3.21-4.46-4.85-7.82-3.61-.54.2-1.09,1.31-1.04,1.96.1,1.32.78,2.59.91,3.91.25,2.53.27,5.08.39,7.62-3.92,0-4.57-3.4-6-5.91-.48-.84-.76-1.95-.69-2.91.24-3.35-1.13-4.3-4.51-4.99-6.05-1.22-6.9-4.32-3.44-9.24.19-.27.35-.63.62-.79,9.69-5.65,9.33-14.89,9.34-24.42,0-5.6,1.66-11.23,2.93-16.77.67-2.92-1.22-3.55-3.03-4.18-.39-.13-1.68,1.37-2.04,2.31-6.87,17.84-13.67,35.71-20.48,53.57-.48,1.25-1.17,2.45-1.48,3.74-.5,2.08.52,5.17-3.1,4.87-.3-.03-.93-4.36-.29-6.33,4.88-14.99,10.34-29.81,14.99-44.87,2.44-7.92,5.35-15.81,4.5-24.57-.4-4.1,1.49-8.42,2.38-12.63.48-2.31,1.03-4.61,1.55-6.92,1.22,2.29,2.58,4.51,3.64,6.87,1.03,2.29,1.76,4.72,2.61,7.09,3.7-2.59-.65-5.07-.12-7.75.71-3.58.74-7.3,1.1-10.95.68-6.92,8.67-9.83,14.41-3.67,2.39,2.57,3.92,5.94,5.83,8.94,2.49-2.17,4.95-4.38,7.49-6.49.47-.39,1.27-.58,1.91-.56,5.38.21,9.9-.55,11.14-7.13.83-4.37,3.97-7.64,3.14-13.17-.99-6.59-.17-13.65-.57-20.54-.18-3.07,1.33-6.62,3.04-9.34,3.41-5.39,7.32-10.49,11.34-15.45,3.65-4.51,7.27-4.95,10.93-.74,2.26,2.6,4.17,3.81,7.56,3.56,3.39-.25,6.26,1.81,6.85,4.9,1.47,7.73,4.57,15.2,1.19,23.55-4.69,11.55-12.5,16.48-25.09,14.08-2.79-.53-3.87-.09-5.9,2.88-10.78,15.71-13.7,33.92-18.06,51.71-.32,1.3-.04,2.79-.57,3.97-.48,1.07-1.66,1.82-2.53,2.72-.8-1.01-1.65-1.98-2.37-3.04-.36-.54-.48-1.25-.71-1.88.26-.09.56-.12.76-.28.13-.1.1-.39.14-.6-.25.34-.5.69-.75,1.03-4.66,3.99-4.79,4.18-1.15,6.6,20,13.28,27.47,33.09,29.35,55.86.14,1.68.09,3.37.25,5.04.26,2.74,2.33,3.23,4.37,2.74,1.33-.32,3.45-1.71,3.43-2.57-.19-7.54,1.31-14.95-3.24-22.39-8.31-13.61-11.76-29.24-14.66-44.75-1.65-8.84-1.7-18-2.15-27.04-.2-4.03.15-8.99,4.76-10.03,5.29-1.2,5.97,4.15,7.64,7.67.42.87,1.15,1.6,1.74,2.39,2.92,15.37,6.51,30.65,6.2,46.45-.02.97.39,1.94.6,2.91.36-.9.79-1.78,1.06-2.71,2.61-8.92,5.31-17.83,7.67-26.82.42-1.61-.01-4.18-1.09-5.32-4.68-4.97-9.75-9.57-14.67-14.31.01-3.34-.53-6.82.21-9.99.62-2.68,2.46-5.26,4.32-7.38.73-.83,3.01-.28,4.59-.36-.37,1.08-.63,2.2-1.12,3.22-3.37,7.03-1.96,15.44,3.69,21.15.61.61,1.7.74,2.57,1.09.39-1.07,1.38-2.38,1.07-3.17-2.53-6.33-3.52-12.86-3.15-19.63.5-9.21,7.31-14.51,16.27-12.65,6.22,1.29,9.25,5.56,7.6,11.75-1.45,5.42-3.66,10.64-5.53,15.94-3.66-4.44-1.35-9.7-1.97-14.56-.28-2.25.37-4.89-3.02-5.4-3.22-.49-5.15.97-6.09,3.9-2.15,6.76-.84,13.31,1.58,19.68.83,2.2,2.79,2.97,4.78,1.23,1.7-1.49,3.11-3.3,4.65-4.97,1.06.64,3.66-.87,2.93,2.32-.94,4.1.84,6.1,4.31,5.17,11.41-3.06,17.66-13.66,15.15-25.68-.97-4.62-3.88-5.32-10.2-2.6-.9.39-2.04.23-3.06.33.26-1.48-.02-3.67.85-4.32,6.51-4.9,16.69-1.41,18.38,6.38.84,3.87,1.05,7.97.95,11.95-.23,9.67-4.98,15.76-14.8,17.42-4.18.71-7.03,2.78-9.17,6.75-2.08,3.85-5.69,7.04-10.56,6.72-4.12-.27-5.5,2.25-6.24,5.18-2.14,8.44-4.56,16.88-5.72,25.48-1.61,11.97-2.19,24.08-3.19,36.14-.31,3.8.99,4.83,5.21,4.91,11.67.22,19.78-3.27,23.34-15.52,1.54-5.3,5.01-10.49,8.84-14.56,6.66-7.06,10.3-15.41,13.82-24.17,3.13-7.77,7.34-15.12,11.36-22.5,8.6-15.8,21.42-26.57,38.73-31.81,4.49-1.36,8.95-2.87,13.52-3.88,1.3-.29,3.64.55,4.24,1.59.63,1.1.15,3.3-.59,4.6-.97,1.71-2.69,2.98-4.04,4.49-9.63,10.81-19.27,21.61-28.85,32.46-1.77,2.01-3.36,4.2-4.88,6.42-.43.62-.29,1.63-.42,2.46.98.1,2.07.52,2.92.24,1.49-.5,3.23-1.1,4.18-2.24,7.84-9.34,18.11-12.58,29.78-11.51,5.31.48,8.18-1.4,11.66-5.36,7.16-8.13,14.07-16.25,18.79-26.09.56-1.16,2.42-1.7,3.68-2.53.62,1.64,2.03,3.44,1.74,4.89-2.57,12.81-5.01,25.7-10.94,37.52-1.62,3.24-1.49,6.05-.16,9.49,4.04,10.42,2.76,14.72-5.43,22.17-1.19,1.08-2.49,2.25-3.16,3.66-4.2,8.78-11.37,11.88-20.65,11.24-1.67-.12-3.59-.57-4.95.07-1.12.52-1.58,2.44-2.33,3.75-.72.43-1.44.86-2.16,1.29.68-.48,1.35-.96,2.03-1.45,7.62-.67,15.24-1.76,22.87-1.84,4.6-.05,9.32,1.12,13.79,2.41,2.03.58,4,2.51,5.24,4.34.71,1.05.42,3.47-.36,4.64-.69,1.03-2.87,1.91-4.09,1.62-12.51-2.99-23.7-.16-34.55,6.36-6.29,3.79-13.32,6.35-19.97,9.55-1.37.66-3.59,1.69-1.44,3.48,8.59,7.16,12.56,17.31,17.74,26.7.65,1.17,1.38,2.31,2.19,3.38,1.89,2.51,3.15,2.4,5.25-.33,10.04-13.06,24.29-17.12,39.94-17.85.34-.02.68.03,1.01,0,5.5-.56,7.88,3.33,11.42,6.56,2.31,2.11,8.18-1.38,11.93,2.15,4.7,4.43,2.55,15.51-3.72,18.11-.5.21-2.07-.63-2.1-1.06-.18-2.67.22-5.4-.13-8.03-.24-1.77-1.2-4.73-2.16-4.87-2.36-.33-5.47-.08-7.26,1.28-3.84,2.91-3.28,5.51.97,8.18,7.36,4.61,9.25,8.64,6.63,16.71-1.41,4.35-3.65,8.61-6.31,12.34-2.63,3.69-7.02,5.71-11.54,5-10.11-1.57-19.8-4.47-25.95-13.64-1.76-2.63-3.18-4.82-7.03-4.32-4.01.52-6.43-2.47-7.14-5.84-.93-4.43-3.88-6.73-7.07-9.21-5.99-4.65-9.7-11.04-13.27-17.57-2.09-3.81-4.38-7.56-7.04-10.98-3.43-4.41-7.8-6.96-13.85-6.86-8.56.15-16.58-2.73-23.83-7.01-4.1-2.42-7.37-2.98-12.14-1.68-8.37,2.27-17.08,3.76-25.74,4.36-16.09,1.12-32.25,1.95-48.37,1.79-12.36-.12-24.69-2.07-37.06-2.93-6.7-.46-13.51.2-20.15-.62-6.58-.82-13.06-2.66-19.44-4.54-1.38-.41-2.15-2.87-3.2-4.39,1.54-.41,3.06-.99,4.62-1.18,1.65-.2,3.35-.04,5.03-.04.75.47,1.49.94,2.24,1.41.14-.34.27-.68.41-1.01-.94-.07-1.87-.14-2.81-.2-3.73-4.36-7.38-4.39-12.88-2.02-12,5.17-18.03,16.06-26.25,24.84-4.59,4.89-8.48,10.44-12.85,15.55-5.04,5.9-10.35,11.56-17.7,14.67-4.58,1.94-6.77,5.43-6.58,10.21.74,18.76-11.49,27.64-26.33,34.13-9.94,4.35-16.82,1.46-21.82-7.95-.91-1.71-1.53-3.88-2.95-4.96-4.85-3.66-6.38-8.37-5.68-14.17.47-3.88-.89-6.9-3.6-9.95-5.02-5.64-4.06-10.47,2.25-15.2,12.31-9.25,32.43-10.44,43.03-.22.67.65,1.7.93,2.57,1.39l2.17,2.04c-.02.63-.31,1.51,0,1.85.72.79,1.71,1.34,2.64,1.93.07.04.69-.52.65-.6-.48-.95-.93-1.97-1.64-2.73-.33-.35-1.22-.18-1.85-.25-.72-.69-1.43-1.37-2.15-2.06,5.62-5.18,6.53-5.72,11.68-1.54,3.26,2.65,5.1,2.08,7.5-.34,5.21-5.26,10.54-10.42,15.59-15.82,8.51-9.1,16.85-18.35,25.24-27.56.66-.72,1.15-1.6,1.72-2.41-1.18-.32-2.36-.89-3.55-.93-7.75-.24-13.44,4.32-17.82,9.62-2.16,2.61-1.4,7.63-2,11.56-.1.65-.42,1.26-.64,1.89-.84-.43-2.09-.65-2.45-1.34-1.09-2.06-1.96-4.25-2.69-6.47-1.68-5.07-1.73-5.26-6.39-2.33-5.69,3.58-11.19,7.47-16.73,11.27-1.38.95-2.52,2.67-3.99,2.98-2.4.5-5.38.9-7.32-.15-1.19-.64-1.65-4.25-1.13-6.17,2.39-8.88,6.69-16.83,12.89-23.69,7.39-8.16,16.29-14,26.78-17.38,1.92-.62,3.84-1.22,5.73-1.92,1.92-.72,1.52-1.84.23-2.79-12.87-9.51-27.01-14.98-43.28-13.01-3.98.48-7.07,1.74-8.31,6.89-2.71,11.21-12,16.44-21.67,20.92-.85.4-1.5,1.23-2.25,1.86.81.56,1.71,1.7,2.42,1.59,3.21-.48,7.23-.32,9.36-2.2,4.7-4.15,8.53-9.32,12.52-14.23,1.45-1.79,2.29-4.06,3.6-5.99.16-.24,1.98.07,2.19.52,5.77,12.45-2.01,33.73-14.38,39.56-9.38,4.42-16.84.5-17.99-9.91-.61-5.58-5.99-7.53-7.82-12.01-1,.59-2.48.94-2.92,1.81-2.34,4.63.74,7.49,3.62,10.47.77.8.91,2.2,1.34,3.32-1.22-.06-2.58.2-3.64-.25-8.87-3.7-10.16-9.12-4.54-17.29,1.2-1.74,1.87-4.08,2.09-6.22,1.62-15.91,12.56-24.42,28.39-22.05,1.87.28,4.12.29,5.77-.49,23.79-11.21,43.18-1.92,60.59,13.7,5.06,4.54,10.73,6.52,16.52,8.91.38.16,2.16-1.55,2.03-1.93-.69-1.87-1.59-3.76-2.81-5.34-7.59-9.84-15.27-19.61-22.94-29.38-3.31-4.22-6.84-8.28-9.94-12.65-1.65-2.32-2.05-5.71.44-7.3,1.89-1.2,5.12-1.13,7.47-.53,2.12.54,4.07,2.36,5.72,3.99,14.32,14.19,24.55,31.1,32.43,49.5.52,1.22.24,3-.16,4.38-2.66,9.15,1.34,14.52,10.5,13.7.93-.08,2.25-1.43,2.52-2.42,2.62-9.7,6.43-19.33,7.23-29.2,1.19-14.72.24-29.62.16-44.44,0-.99-.35-1.97-.53-2.96-.37.86-.91,1.69-1.09,2.59-2.13,10.85-4.31,21.68-6.25,32.56-2.18,12.19-5.3,24.29-4.17,36.88.08.84-.67,1.75-1.03,2.63-.79-.89-2.18-1.71-2.29-2.67-1.99-18.06-5.35-35.85-10.82-53.18-3.28-10.38-8.46-19.74-15.94-27.79-3.17-3.41-6.42-5.08-11.45-4.78-6.97.42-14.2.27-21.02-1.14-12.48-2.57-21.71-14.23-22.32-26.66-.05-.99-.12-2.2.38-2.94,1.32-1.98,4.21-3.81,4.13-5.6-.1-2.34-2.89-4.43-3.74-6.9-1.75-5.04,1.58-12.82,6.85-16.78,6.66-5.01,14.26-5.57,22.12-4.21.43.07.45,2.56.66,3.92l.27-.25-.04.04ZM252.93,52.24c-.08-.08-.16-.15-.24-.23l.84-1.29c-.2.5-.41,1.01-.61,1.51h.01ZM289.3,100.78l-.63.36.38-.61c.54-.21,1.07-.42,1.61-.62-.24-.24-.49-.49-.73-.73-.21.53-.42,1.07-.63,1.6h0ZM113.25,112.89c-.19-.21-.39-.41-.58-.62l.79.41c.67.67,1.34,1.33,2.01,2,.67.68,1.33,1.37,2,2.05.68.67,1.36,1.34,2.03,2l.63.73c-.29-.16-.58-.32-.87-.48-.68-.67-1.35-1.34-2.03-2.02-.66-.68-1.33-1.36-2-2.05-.66-.67-1.33-1.35-1.99-2.02h.01ZM313.57,157.43c-6.82,4.84-9.55,12.5-13.28,19.45-.29.53.34,1.55.54,2.35.84-.43,2.11-.64,2.45-1.32,3.45-6.85,6.74-13.78,10.08-20.68l.54-.74c-.11.31-.22.63-.33.94h0ZM62.8,173.52c-6.13,2.21-11.12,7.46-18.31,6.92-.49-.04-1.49.64-1.46.82.19.88.5,2.29,1.03,2.43,2.46.61,5.3,1.75,7.46,1.05,5.46-1.78,10.17-4.91,11.1-11.38.29-.46.58-.93.87-1.39-.23.52-.47,1.04-.7,1.56h.01ZM264.99,44.07c-1.88,2.08-5.24,4.25-3.06,7.1,1.05,1.37,5.11,1.18,7.52.58,4.29-1.08,7.98-3.51,9.56-8.05.64-1.84.95-3.78,1.42-5.68-1.34,1.06-2.64,2.17-4.02,3.19-2.68,1.98-5.24,4.21-8.16,5.77-3.08,1.65-2.9-1.34-3.43-3.08.7-.65,1.41-1.3,2.11-1.94,6.91-4.69,9.26-12.55,13.24-19.26.33-.55-.09-2.18-.61-2.45-.68-.35-2.34-.18-2.65.34-3.73,6.15-7.34,12.37-10.8,18.67-.32.58.56,1.82.88,2.75-.66.69-1.33,1.38-1.99,2.07h-.01ZM202.13,106.88c-.2-.24-.39-.48-.59-.72l.81.51c2.63,1.91,5.22,3.87,7.89,5.72,2.07,1.43,3.88,2.19,4.92-1.33.99-3.38,6.69-4.33,5.26-9.01-1.96-6.39-4.25-12.69-6.56-18.97-.26-.71-1.55-1.05-2.36-1.56-.26.9-.87,1.86-.73,2.69.7,3.93,1.35,7.9,2.51,11.71,1.02,3.36,4.71,6.25,1.99,10.18-2.95,4.26-6.69,1-10.11.69-.99-.09-2.01.05-3.01.09h-.02ZM58.76,147.26c-3.8,1.95-7.6,3.9-11.4,5.86-2.33,1.2-4.65,2.42-6.97,3.63,1.48-2.27,2.86-4.61,4.45-6.8,1.53-2.11,3.65-3.88,4.74-6.16.49-1.02-5.92-.21-8.86,2.79-2.52,2.58-4.59,5.74-6.25,8.96-2.11,4.08-.35,6.29,4.32,5.79,1.62-.17,3.53-.46,4.72-1.42,5.13-4.14,10.05-8.55,15.04-12.87.32-.08.67-.11.95-.27.15-.09.17-.41.25-.63-.33.37-.66.74-.99,1.1v.02ZM402.33,118.97c-.88-.34-1.75-.68-2.63-1.02.95.26,1.89.53,2.84.79,7.7,2.54,8.51,2.28,10.13-3.25.47-1.6,1.04-3.23,1.15-4.87.36-5.21,4.35-9.97,1.95-15.51-3.74,3.3-7.54,6.54-11.22,9.91-2.98,2.73-4.9,5.35-.47,8.88,2.79,2.22.75,4.02-1.76,5.07h.01ZM363.99,141.12c-.45-.24-.9-.47-1.34-.71.51.17,1.02.34,1.53.51.14.96-.08,2.41.47,2.8,5.96,4.26,11.74,8.92,18.17,12.34,5.92,3.15,12.91-.02,16-6.24.45-.92.38-2.77-.24-3.37-.7-.68-2.67-1.01-3.44-.51-7.57,4.96-14.81,1.94-22.03-.72-3.12-1.15-6.08-2.72-9.11-4.09h-.01ZM376.2,175.58c-2.63.26-5.29.38-7.89.8-5.55.91-11.05,2.3-16.63,2.92-8.27.93-16.6,1.33-24.9,2.04-.89.08-1.73.66-2.59,1.01.54.79.97,2.13,1.65,2.28,8.13,1.73,16.36,4.56,24.62,1.48,8.65-3.22,17.03-7.16,25.53-10.78,9.52-.88,19.25,1.53,28.61-1.81.77-.27,1.44-.81,2.16-1.23-.61-.23-1.22-.63-1.84-.65-9.8-.38-19.72-1.55-28.72,3.93h0ZM267.08,151.04c-.07.95-.32,1.93-.15,2.83.13.69.78,1.29,1.19,1.93.19-.85.7-1.79.49-2.52-.23-.79-1.13-1.39-1.73-2.08.05-2.34.5-4.75.09-7.01-2.4-13.48-4.95-26.94-7.54-40.39-.76-3.94-1.8-7.82-2.75-11.72-.15-.61-.55-1.17-.83-1.75-.43.68-1.19,1.34-1.24,2.05-.19,2.33-.14,4.69-.15,7.03-.05,14.6,4.29,28.36,8.24,42.17.94,3.3,2.89,6.31,4.37,9.45h.01ZM84.89,189.52c3.28-1.5,6.63-2.86,9.83-4.52,10.09-5.21,19.66-11.76,31.64-11.98,2.73-.05,2.36-1.64,1.51-3.27-1.4-2.68-2.88-6.03-6.47-5.3-15.65,3.19-29.02,9.91-36.36,25.21-.26.44-.51.87-.77,1.31.21-.49.41-.97.62-1.46h0ZM333.66,157.18c12.19-4.35,23.44-9.49,24.6-24.91.44-5.83.82-5.84-4.95-4.09-2.54.77-5.01,1.75-7.51,2.64-3.58,1.27-5.1,2.78-4.69,7.54.36,4.11-2.99,8.55-4.72,12.83-.84,2.07-1.71,4.13-2.57,6.2-1.93-.3-4.41-.22-3.14-3.36,2.11-5.23,4.38-10.41,6.53-15.62.23-.56.17-1.24.24-1.86-.82-.02-1.77-.32-2.43,0-6.75,3.23-10.64,8.53-12.26,15.92-.9,4.08-2.98,7.89-4.52,11.82,4.42-1.74,8.86-3.43,13.25-5.25.83-.35,1.45-1.21,2.17-1.84v-.02ZM309.36,177.41c6.03.11,12.07.22,18.1.31,3.04.05,5.56-.41,8.11-2.87,3.82-3.68,8.61-6.33,12.86-9.58,3.98-3.05,8.04-6.06,11.63-9.54,4.59-4.44,4.25-4.83.2-9.87-1.64-2.05-2.84-1.63-3.73,0-5.01,9.21-13.85,13.27-22.76,17.24-5.19,2.32-10.67,4.09-15.6,6.85-3.28,1.84-5.82,5-8.69,7.56-.5.11-1,.22-1.49.33.22.3.44.61.66.91.24-.46.47-.91.71-1.37v.03ZM32.4,248.3c-.16-.22-.3-.47-.49-.65-.1-.1-.31-.08-.48-.11.39.18.78.36,1.17.53-.14.99-.52,2.02-.38,2.97,1.58,10.24,10.7,14.3,19.03,8.31,5.17-3.72,10.11-7.78,14.97-11.91,1.1-.94,2.37-3.63,1.98-4.05-1.58-1.71-3.65-2.52-.07-4.52,5.39-3,5.34-4.22.66-7.95-9.8-7.81-27.65-6.9-38.3,2.6-1.83,1.64-.82,2.94.5,4.12,2.98,2.66,6.58,4.85,8.87,8.01,2.04,2.82,3.41,2.2,5.73,1.03,2.93-1.48,6.04-2.6,9.07-3.87-2.35,2.9-4.64,5.85-7.1,8.65-.86.98-2.14,1.61-3.28,2.33-5.95,3.78-7.26,3.33-10.16-3.31-.36-.83-1.15-1.47-1.74-2.2l.02.02ZM218.49,153.72c-7.83,1.06-13.65,2.48-18.25,6.9-.44.43-.58,1.17-.85,1.77.57.23,1.12.58,1.71.66,3.97.55,7.99.82,11.92,1.58,12.48,2.43,22.78,9.46,33.28,16.05,1.91,1.2,4,2.45,6.15,2.82,4.15.72,5.27-.48,4.74-4.75-2.15-17.12-8.55-32.36-20.45-45.05-1.33-1.41-3.06-2.45-4.61-3.65-.13,1.82-.31,3.65-.38,5.47-.13,3.32.39,6.8-.44,9.92-.95,3.57.09,5.32,2.78,7.57,5.65,4.72,10.83,10.02,16.14,15.15.59.57.72,1.6,1.07,2.42-.91-.05-2.04.22-2.7-.21-4.77-3.15-9.21-6.86-14.2-9.58-5.51-3.01-11.49-5.15-15.89-7.08h-.02ZM329.55,133.31c6.62-4.43,14.27-7.5,18.91-13.08,9.58-11.51,17.56-24.34,26.15-36.67.43-.61.33-1.6.48-2.41-.93.07-1.94-.08-2.77.24-9.82,3.78-19.14,8.7-25.27,17.42-6.71,9.53-12.38,19.79-18.48,29.75-.34.55-.73,1.29-.61,1.84.18.8.79,1.51,1.59,2.9h0ZM111.22,76.03c6.23.03,8.16-2.57,5.54-8.34-3.19-7-6.76-13.82-10.16-20.73-1.75-3.56-4.23-2.63-6.56-.89-2.72,2.03-3.7,4.67-1.83,7.89,1.68,2.89,3.38,5.77,4.93,8.73.39.74.24,1.76.34,2.65-.85-.25-1.93-.25-2.51-.79-3.67-3.44-7.08-7.17-10.89-10.42-1.19-1.02-3.99-1.72-4.97-1.03-1.23.86-2.15,3.48-1.82,5.04,1.54,7.32,5.5,13.07,12.99,15.22,4.79,1.37,9.84,1.8,14.96,2.68h-.02ZM434.93,240.02c-.5-.69-1.66-2.93-3.4-4.56-2.5-2.33-4.05.29-5.82,1.66-5.85,4.51-12.12,2.13-18.22.82-6.77-1.45-6.89-1.42-9.35,4.26-1.05,2.42-.63,3.66,1.77,4.53,7.49,2.71,14.89,5.75,22.5,8.06,2.09.63,5.34-.17,7.16-1.52,3.59-2.65,5.42-6.66,5.36-13.24h0ZM388.79,122.04c-6.6,1.66-13.07,3.08-19.4,4.97-4,1.2-4.66,3.66-1.78,6.41,5.53,5.28,12.18,8.52,19.95,7.51,2.66-.35,5.6-2.3,7.44-4.38,2.67-3.02,4.88-7.38,2.65-11.01-1.27-2.08-5.57-2.3-8.87-3.49h0ZM49.66,275.62c2.46-.53,4.96-.59,6.98-1.6,10.08-5.08,18.49-11.87,22.66-22.92,1.33-3.54,3.39-8.12.18-10.16-4.28-2.73-5.96,2.56-7.92,5.37-7,10.01-15.71,18.03-26.54,23.73-.73.39-1.87,1.34-1.76,1.74.24.85,1.03,1.78,1.84,2.19,1.46.75,3.1,1.15,4.56,1.66h0ZM216.68,133.14c-.15.02-.29.05-.44.07,0,1.34.12,2.7-.05,4.02-.09.75-.65,1.45-.99,2.17-.46-.46-1.03-.85-1.36-1.4-.52-.85-.81-1.83-1.31-2.69-1.55-2.68-3.15-5.33-4.74-8-1.01,3.09-2.06,6.17-3.01,9.28-.29.95-.34,1.98-.45,2.97-.83,7.83-.48,8.12,7.75,7.49,3.64-.28,8.4,1,10.64-.85,2.05-1.7,1.28-6.69,1.97-10.19.45-2.28,1.39-4.47,1.94-6.73,1.07-4.39-5.81-11.23-10.2-9.99-.77.22-1.66,2.04-1.55,3.02.39,3.63,1.17,7.22,1.81,10.83h0ZM409.31,232.76c3.46-.91,7.98-.77,10.13-2.96,3.08-3.15,4.44-7.99,6.53-12.11-4.27-3.12-8.84-1.43-13.24-.6-4.54.86-9.03,2.1-13.45,3.46-.76.24-1.71,2.14-1.47,2.94,1.86,6.12,5.39,8.69,11.51,9.27h-.01ZM375.98,159.87c-2.51-1.8-4.81-3.75-7.42-5.1-.67-.35-2.65.9-3.44,1.89-4.68,5.81-10.38,10.29-16.88,13.88-3.18,1.75-6.15,3.89-9.22,5.85,3.44-.26,6.88-.51,10.31-.77.33-.02.67-.04,1-.06,10.03-.41,17.49-5.59,23.82-12.86.62-.72,1.05-1.61,1.83-2.84h0ZM256.85,46.08c.8-.48,1.51-.69,1.89-1.17,6.31-7.99,6.04-17.97,8.05-27.25,0-.02-1.81-.7-1.99-.47-4.44,5.86-9.06,11.63-13.03,17.81-2.36,3.67-.28,7.11,2.65,9.8.68.63,1.68.9,2.42,1.27h0ZM237.43,86.62c-.86-2.6-1.08-5.17-1.91-5.39-1.66-.43-3.67.36-5.5.8-.59.14-1.1.74-1.58,1.2-3.9,3.77-5.94,16.76-3.11,21.62.37.63,3.59.64,3.84.14,3.01-6.22,5.72-12.6,8.25-18.37h.01ZM411.42,134.9c-.56-3.73-.51-5.86-1.26-7.66-.53-1.27-2.13-2.1-3.25-3.13-.69,1.05-1.73,2.01-2.01,3.16-.63,2.58-.63,5.32-1.37,7.86-.64,2.22-2.54,4.2-2.74,6.39-.15,1.56,1.59,3.3,2.49,4.96,1.29-.74,3.12-1.17,3.75-2.29,1.91-3.39,3.35-7.04,4.38-9.3h.01ZM386.93,114.59c-7.29-.66-14.01,1.06-20.2,4.87-.78.48-1.21,1.51-1.8,2.29,1.14.35,2.53,1.31,3.39.96,7.89-3.16,16.13-4.25,24.53-4.63.75-.03,1.45-1.1,2.17-1.68-.69-.47-1.33-1.23-2.07-1.34-1.99-.3-4.01-.32-6.02-.45v-.02ZM226.36,183.22c-.27-2.76-.37-4.44-.62-6.1-.57-3.8-4.1-5.19-6.63-4.88-3.73.45-.32,3.69-.8,5.67-.38,1.57-.04,3.35.11,5.02.24,2.67,2.19,3.41,4.29,2.8,1.5-.43,2.73-1.85,3.65-2.51h0ZM132.74,165.19c-.26,1.33-.82,2.43-.59,3.34.76,3.07,2.62,5.38,5.92,5.8,1.73.22,3.54-.22,5.31-.36-.83-1.97-1.14-4.59-2.6-5.73-1.95-1.53-4.8-1.9-8.03-3.04h0ZM239.65,185.32c.49-.11,2.84-.63,5.2-1.16-1.98-1.2-3.93-2.46-5.95-3.6-1.46-.82-2.99-1.52-4.5-2.23-1.68-.79-3.46-1.06-3.84,1.26-.35,2.13-1.27,4.95,2.12,5.67,1.61.34,3.34.06,6.97.06h0ZM392.65,232.14c-.51-2.21-.8-3.47-1.09-4.74-.79.96-2.06,1.83-2.27,2.9-.43,2.17-.28,4.44-.33,6.68,0,.05.61.23.64.16,1.13-1.81,2.23-3.64,3.05-5.01h0ZM220.31,113.84c1.49.9,2.87,1.85,2.95,1.76.97-1.2,1.75-2.55,2.57-3.86-.56-.24-1.31-.84-1.63-.66-1.23.68-2.32,1.62-3.89,2.77h0Z"/>
  <path class="cls-1" d="M204.93,325.51c-14.26-.39-28.16-2-41.57-7.2-21.14-8.19-33.92-23.64-39.24-45.26-2.8-11.38-4.55-23.02-6.64-34.58-.41-2.29-.25-4.69-.22-7.04,0-.6.53-1.19.82-1.78.82.43,2.08.67,2.37,1.34,1.07,2.45,1.92,5.01,2.67,7.58,2.81,9.67,5.56,19.35,8.32,29.03,7.24,25.4,25.93,40.97,52.19,43.31,26.71,2.37,52.99.12,78.54-8.29,6.03-1.99,11.7-5.07,17.59-7.51,15.63-6.47,22.78-19.1,25.38-34.97,2.06-12.58,3.52-25.28,6.04-37.77,1.17-5.8,4.08-11.29,6.54-16.77.87-1.94,3.17-1.89,3.55.33,1.02,5.9,2.5,11.99,1.98,17.84-1.2,13.36-3.31,26.66-5.36,39.93-3.32,21.45-14.03,37.03-34.56,46.13-17.78,7.88-35.82,13.22-55.33,13.65-7.7.17-15.38,1.33-23.07,2.04h0Z"/>
  <path class="cls-1" d="M276.35,170.17c.95-4.57,1.55-9.25,2.91-13.69,6.17-20.17,17.43-36.89,34.16-49.88,4.24-3.29,8.06-7.12,12.3-10.42,1.07-.83,3-.57,4.53-.81.13,1.8.95,3.93.27,5.34-6.88,14.16-14.13,28.15-21.03,42.3-5.5,11.28-12.4,21.52-21.14,30.51-.46.47-1.57.31-2.38.44.03-.62-.14-1.34.12-1.85,1.66-3.3,3.5-6.5,5.11-9.82,7.02-14.49,14-29.01,20.95-43.54.38-.79.3-1.8.43-2.71-.78.33-1.73.48-2.32,1.02-14.78,13.52-24.45,30.11-29.33,49.5-.73,2.91-1.09,5.92-1.72,8.87-.19.9-.74,1.72-1.12,2.58-.36-.89-.94-1.76-1.04-2.67-.17-1.66-.05-3.36-.05-5.04-.22-.04-.44-.08-.66-.11v-.02Z"/>
  <path class="cls-1" d="M240.63,266.02c-7.29-1.48-15.07-.47-21.36-5.33-2.78-2.15-5.39-1.7-8.46-.48-7.1,2.82-14.44,3.46-21.63.39-6.86-2.93-13.09-1.27-19.26,1.91-5.14,2.65-10.4,4.64-16.39,4.08-6.25-.58-10.62-3.85-13.72-9.03-.32-.54.25-1.79.72-2.52.19-.31,1.48-.4,1.76-.11,9.1,9.38,18.19,5.69,27.35.12,6.12-3.72,12.95-4.48,19.51-2.42,7.54,2.35,14.62,1.99,21.6-1.06,3.84-1.68,7.21-1.35,10.51.82,11.96,7.9,24.21,6.3,36.59,1.24.93-.38,1.7-1.18,2.64-1.46.81-.24,1.77-.03,2.66,0-.04.9.25,2-.16,2.66-2.96,4.71-6.9,8.31-12.47,9.58-3.27.75-6.64,1.1-9.88,1.61h-.01Z"/>
  <path class="cls-1" d="M252.61,232.03c-5.74-1.5-13.22-3.25-20.57-5.45-3.51-1.05-6.8-2.88-10.13-4.48-4.48-2.16-8.76-2.31-13.58-.52-6.9,2.56-14.02,4.65-21.2,6.26-8.56,1.91-17.24,2.63-25.99.46-2.15-.53-4.62.31-6.95.36-.72.02-1.45-.5-2.17-.77.49-.8.86-2.18,1.48-2.3,2.93-.54,6.01-1.36,8.87-.95,13.39,1.94,26.02-.74,38.38-5.58,1.88-.73,3.78-1.4,5.65-2.13,6.61-2.58,12.94-2.17,19.48.77,5.76,2.59,11.81,4.77,17.94,6.26,10.77,2.63,21.28.21,31.65-2.85.84-.25,1.83.02,2.75.05-.35,1.11-.37,2.57-1.1,3.28-6.32,6.1-14.69,5.93-24.5,7.59h0Z"/>
  <path class="cls-1" d="M253.25,286.72c-2.59-.25-4.71-.1-6.57-.71-4.35-1.42-8.39-1.12-12.74.35-6.41,2.17-12.93,2.66-19.77.79-4.37-1.19-9.22-.55-13.83-1-1.1-.11-2.09-1.3-3.14-1.99.99-1.08,1.92-3,2.97-3.07,3.65-.24,7.45-.35,10.98.43,7.46,1.65,14.53,1.28,21.68-1.55,3.01-1.19,6.58-1.94,9.75-1.58,11.09,1.26,21.25-1.49,31.2-5.88,1.38-.61,3.03-.58,4.55-.85-.71,1.66-1.04,3.67-2.2,4.92-6.31,6.78-14.67,8.96-22.9,10.14h.02Z"/>
  <path class="cls-1" d="M103.05,21.88c1.57-.55,3.35-.79,4.67-1.7,5.71-3.96,9.56-2.93,13.8,2.93,10.29,14.22,12.92,29.96,7.93,46.87-.27.92-.82,1.76-1.24,2.64-.32-.88-.78-1.73-.92-2.63-1.49-9.6-2.83-19.22-4.43-28.8-.38-2.28-1.5-4.45-2.43-6.61-4.84-11.3-10.71-12.41-19.21-3.62-.63.65-1.38,1.8-1.21,2.51.72,2.95.26,5.15-3.2,3.99-2.87-.96-4.12-3.6-2.23-6.51,1.25-1.92,2.98-3.55,4.57-5.24,1.34-1.42,2.78-2.73,4.18-4.08l-.27.25h0Z"/>
</svg>