<?xml version="1.0" encoding="UTF-8"?>
<svg id="Layer_1" data-name="Layer 1" xmlns="http://www.w3.org/2000/svg" version="1.1" viewBox="0 0 489.99 706.71">
  <defs>
    <style>
      .cls-1 {
        fill: #000;
        stroke-width: 0px;
      }
    </style>
  </defs>
  <path class="cls-1" d="M248.79,144.55c2.86-4.11,5.72-8.23,8.63-12.4-3.88-3.87-2.18-8.45-2.28-12.72-.03-1.42.76-2.84.85-4.29,1.21-18.55,2.72-37.12,1.42-55.7-.61-8.72-2.34-17.36-3.73-26.01-.76-4.71-.73-5.24,3.03-8.76,2.96.23,5,1.94,6.25,4.43,3.74,7.42,7.6,14.78,10.92,22.38,4.98,11.39,4.84,23.06,1.63,35.03-2.59,9.69-6.85,18.47-12.01,27.08,5.11-19.28,10.09-38.43,1.49-58.09-.03,6.15.12,12.32-.12,18.46-.24,6.09-.74,12.18-1.35,18.24-.64,6.29-1.45,12.56-2.38,18.82-.9,5.98-2.05,11.91-3.39,19.58,12.18-16.42,24.98-30.13,42.28-39.78-2.07-.7-3.74-1.27-5.41-1.83-5-1.66-6.37-5.51-2.84-9.26,2.3-2.45,5.27-4.33,8.13-6.16,3.28-2.1,6.77-3.88,11.33-6.45-3.11-.82-5.22-1.5-7.38-1.91-5.78-1.11-11.48-2.53-16.39-5.88-1.9-1.3-3.91-3.21-4.64-5.28-1.72-4.91,1.33-8.72,7.2-9.45,8.29-1.03,16.01.75,23.12,5.2,1.56.97,3.22,1.78,5.1,2.8,1.53-6.57,2.69-12.49,4.35-18.26.86-2.99,2.55-5.76,3.97-8.58,1.44-2.86,3.88-4.68,7.03-4.13,3.15.55,5.01,2.87,5.16,6.28.02.45.34.89.7,1.77,1.72-.51,3.58-.84,5.24-1.6,6.7-3.07,13.74-3.33,20.85-2.55,2.33.26,4.81,1.11,6.77,2.38,4.55,2.95,5.66,8.24,2.72,12.81-1.7,2.65-4.04,4.88-6.41,7.67,2.01,1.09,4.06,2.13,6.04,3.28,6.58,3.81,7.12,9.54.85,13.81-3.57,2.43-7.82,3.89-11.87,5.55-2.23.91-4.66,1.33-7.8,2.18,3.19,3,6.01,5.62,8.79,8.3,2.12,2.04,4.23,4.08,6.23,6.23,4.23,4.54,5.43,9.7,2.85,15.51-.78,1.77-1.58,3.53-1.98,4.42,3.18,4.05,5.99,7.64,9.28,11.82,1.06-2.61,2.08-4.97,3-7.38,1.48-3.86,2.79-7.79,4.38-11.61.64-1.54,1.61-3.07,2.81-4.2,2.35-2.22,6.07-1.61,7.33,1.37,1.02,2.41,1.47,5.15,1.71,7.79.28,3.12.07,6.28.07,10.88,4.4-2.85,7.53-5,10.79-6.93,2.07-1.22,4.25-2.54,6.54-2.98,1.24-.24,3.25.97,4.09,2.12.59.81.27,3.08-.5,3.93-2.29,2.51-4.82,4.9-7.59,6.86-4.17,2.95-8.62,5.49-13.32,8.43,3.96.77,7.52,1.29,10.97,2.21,2.56.68,5.08,1.71,7.43,2.92,2.94,1.52,5.28,3.79,4.97,7.45-.33,3.9-3.1,5.89-6.46,7.17-5.19,1.97-10.48,2.11-15.8.61-2.51-.71-4.99-1.53-9.17-2.83,5.8,6.73,10.86,12.12,9.55,19.79,2.5,1.81,4.73,3.43,7.31,5.3.99-1.82,2.16-3.92,3.29-6.04,3.4-6.32,7.81-11.83,13.13-16.62,5.14-4.62,7.03-4.5,11.71.22,4.69-1.3,9.07-2.74,13.55-3.67,2.01-.42,4.35-.22,6.34.37,5.43,1.62,7.5,5.71,4.86,10.69-1.76,3.33-4.69,6.14-7.44,8.83-1.89,1.85-4.37,3.1-6.59,4.63,3.99,3.18,8.09,6.18,11.87,9.54,6.44,5.72,10.04,13.2,11.82,21.47.53,2.45.15,5.38-.71,7.77-1.29,3.6-4.63,4.24-7.68,1.85-1.71-1.34-3.19-2.96-5.07-4.73-2.68,1.33-5.26,2.6-8.38,4.15,1.01,1.4,1.94,2.42,2.55,3.6,2.06,3.95,1.2,7.5-2.41,10.21-1.56,1.17-3.22,2.21-4.93,3.37,2.29,2.06,4.64,4.04,6.84,6.16,3.6,3.47,4.88,7.76,4.36,12.7-.66,6.38-6.31,9.73-12.08,6.94-2.39-1.16-4.58-2.71-7.08-4.22-4.35,2.81-8.79,5.71-14.72,1.17-1.74,2.09-3.29,4.34-5.22,6.2-3.38,3.27-7.28,5.68-12.09,6.41-4.84.74-8.77-2.09-9.22-6.85-.4-4.27.77-8.23,2.57-12.02,2.31-4.85,4.75-9.64,7.13-14.46,1.03-2.09,2.06-4.18,3.25-6.6-26.95,5.59-58.15,20.88-76.81,36.87,3.12-.88,4.91-1.27,6.61-1.89,10-3.66,20.33-5.45,30.92-4.38,5.51.56,10.93,2.19,16.33,3.58,1.3.33,2.63,1.42,3.46,2.54,1.88,2.54.37,6.09-2.79,6.86-1.17.28-2.43.27-3.65.29-21.07.34-39.59,7.48-55.76,20.9-.83.69-1.7,1.33-3.22,2.51,3.63-9.2,13.15-18.51,27.45-27.4-13.31-.9-44.46,15.93-53.82,29.22,8.08,3.9,16.13,7.78,24.11,11.63-.43,2.79-2.3,2.59-3.91,2.41-15.49-1.75-30.97-3.6-46.47-5.32-5.82-.65-11.67-1.01-17.51-1.53-22.71-2.06-45.48-2.31-68.21-1.36-19.25.8-38.44,2.79-57.49,5.85-1.44.23-2.84.7-4.26,1.05l.21.21c-2.22-5.09-2.22-5.97,2.46-7.74,7.04-2.67,14.27-4.92,21.52-6.98,5.1-1.45,10.37-2.3,15.54-3.41-4.25-19.89-22.48-27.23-38.02-23.8-11.2,2.47-20.79,8.26-29.85,15.02-11.41,8.51-21.59,18.36-30.86,29.13-1.21,1.41-2.23,3.29-2.56,5.1-1.69,9.26-6.82,16.01-14.58,20.97-4.99,3.19-10.34,5.44-16.26,6.2-5.82.75-9.2-3.23-6.57-8.4,2.19-4.31,5.33-8.15,8.06-12.19,1.46-2.17,2.95-4.32,4.98-7.29-3.69-.92-6.46-1.57-9.2-2.31-2.35-.63-4.77-1.14-6.96-2.12-2.04-.91-3.63-2.51-3.6-5.09.03-2.6,1.41-4.01,3.85-4.62.91-.23,1.77-.67,2.6-.99-1.43-11.83,8.01-15.93,18-12.42,1.22-3.61,3-6.84,7.72-5.68,1.15.28,2.44.63,3.32,1.36,5.23,4.36,9.53,9.48,11.67,16.49-4.6-3.38-9.2-6.77-13.9-10.22-1.79,2.18.08,3.75.32,5.47.29,2.1,1.26,4.58-1.26,5.92-2.29,1.21-4.17.05-5.79-1.76-1.29-1.46-2.61-3.01-4.23-4.03-1.36-.86-3.16-1.34-4.77-1.36-1.26-.02-2.54.93-3.73,1.41.18,3.69,2.57,4.92,5.08,5.94,3.27,1.33,6.52,2.61,5.97,7.12-.03.23.03.53.17.7,4.89,5.99,1.55,10.88-2.08,15.73-2.71,3.61-5.46,7.18-8.92,11.74,8.42-1.71,14.6-4.77,19.58-10.04,4.9-5.18,6.19-12,8.01-18.82,1.44,0,2.99.44,3.99-.11,1.18-.65,1.98-2.11,2.8-3.31,7.05-10.35,15.22-19.72,24.29-28.35,5.69-5.42,11.77-10.27,18.77-13.94,12.29-6.44,24.88-8.14,38.01-2.73.89.37,1.86.54,2.79.81,1.87.95,3.75,1.9,5.62,2.85.56.77.99,1.67,1.69,2.28,6.25,5.52,10.18,12.37,12.18,20.45.58,2.33,1.43,5.06,5.64,2.78,0-2.7.18-5.82-.04-8.91-.5-7.05-.74-14.17-1.92-21.12-2.13-12.6-9.61-21.46-20.48-27.97-15.06-9.01-31.14-11.06-47.97-7.41-11.39,2.47-22.61,5.72-34.2,8.7-5.07-6.54-10.26-13.55-15.83-20.23-1.62-1.94-4.2-3.37-6.61-4.3-2.61-1.01-4.79.72-5.26,3.53-.42,2.54-.09,4.98,1.97,6.73,2.03,1.73,4.16,3.4,6.44,4.78,7.17,4.35,7.94,6.77,4.22,14.24-.43.86-1.26,1.87-1.1,2.63,1.19,5.33-2.58,8.01-5.63,11.14-3.02,3.11-5.82,6.38-7.57,11.31,3.88-.58,6.3-2.66,9.03-3.97,2.63-1.26,5.32-2.39,7.89-3.76,2.86-1.53,5.17-.65,7.51,1.51,5.58-4.39,10.88-3.48,15.93,1.6,3.08-6.75-1.96-12.34-1.86-19.22,5.19,5.6,8.96,10.82,8.6,18.02-.34,6.58-4.78,9.03-10.54,5.75-1.65-.94-3.2-2.07-5.35-3.47-1.97,2.48-3.84,4.67-5.51,7.01-1.06,1.49-2.13,2.64-4.15,2.38-2.23-.29-2.53-1.92-2.75-3.71-.08-.64-.43-1.25-.86-2.45-2.95,1.68-5.64,3.29-8.4,4.75-2.8,1.48-5.53,3.32-8.53,4.12-6.7,1.79-11.32-2.98-9.15-9.56,1.28-3.88,3.59-7.43,5.55-11.06,1-1.84,2.52-3.06,1.66-5.87-.52-1.68,1.34-4.48,2.77-6.26,1.65-2.06,4-3.55,6.78-5.91-2.83-1.78-4.64-2.82-6.34-4.01-5.53-3.87-8.99-8.69-8.49-15.97.36-5.27,2.73-9.05,7.22-11.01,4.38-1.91,8.59-.34,12.19,2.77,6.05,5.21,10.02,11.95,13.94,18.73,1.32,2.29,2.61,4.61,3.82,6.76,8.66-3.88,16.85-7.62,25.09-11.23,6.82-2.99,14.23-4.08,21.43-3.96,8.72.15,17.35,2.1,25.41,5.99,8,3.87,15.27,8.67,22.15,16.42-.4-2.62-.33-3.99-.82-5.12-7.2-16.76-17.13-31.72-28.97-45.61-13.26-15.55-29.13-28.26-44.03-42.04-6.92-6.4-8.72-6.24-16.74-1.67-8.44,4.8-13.53,12.5-18.42,20.47-3.19,5.2-6.3,10.49-9.96,15.35-5.29,7.03-12.82,7.13-18.56.4-2.03-2.38-3.62-5.24-4.93-8.09-3.13-6.79-.83-12.65,6.24-15.27,5-1.86,10.28-3,15.44-4.43,3.51-.97,7.13-1.66,10.53-2.92,2.68-1,5.47-2.27,7.57-4.14,5.87-5.21,12.84-7.86,20.23-9.76.68-.17,1.64-.54,2.05-.24,4.52,3.33,10.39,3.74,14.94,6.93,5.19,3.65,10.74,6.93,15.37,11.19,17.73,16.29,33.52,34.22,45.5,55.3,5.33,9.39,9.13,19.37,13.13,29.5-.47-4.63-.84-9.28-1.45-13.89-.73-5.55-1.8-11.05-2.48-16.6-.77-6.29-1.31-12.62-1.88-18.93-.13-1.45-.15-2.96.06-4.4.53-3.66,2.98-4.97,6.32-3.3,1.26.63,2.26,1.79,3.77,3.03,1.45-3.2,2.94-6.44,4.38-9.7,1.45-3.28,2.84-6.59,4.54-10.57-3.46,0-6.36.16-9.24-.04-3.39-.24-6.77-.71-10.13-1.26-2.91-.47-4.9-2.19-5.43-5.18-.51-2.84.95-5.31,4.54-6.66,2.92-1.1,6.1-1.47,9.71-2.29-1.46-1.25-2.81-2.43-4.2-3.57-6.27-5.17-12.2-10.57-14.67-18.76-2.66-8.8.71-14.1,9.88-15.28.46-.06.91-.27,2.07-.62-.41-1.69-.79-3.44-1.25-5.17-3.23-12.08-10.21-22.07-17.88-31.62-1.17-1.46-2.98-2.42-4.5-3.6l.19.18c.73-1.81,2.19-2.09,3.5-1.04,9.67,7.78,17.88,16.7,21.18,29.09.87,3.27.95,6.74,1.73,10.03.35,1.5,1.18,3.54,2.37,4.11,11.8,5.6,19.04,15.78,26.47,25.8.43.58.81,1.19,1.5,2.21,2.75-14.27,10.9-25.1,19.82-35.43,2.04-2.37,4.73-4.27,7.36-6.01,2.38-1.58,5.16-1.67,7.54.18,2.38,1.84,3.23,4.44,1.88,7.19-3.09,6.34-6.3,12.63-9.65,18.84-1.62,2.99-3.66,5.75-6.1,9.52,2.55-.62,4.25-.99,5.93-1.44,2.82-.76,5.59-1.8,8.45-2.33,8.81-1.62,14.34,4.03,12.39,12.71-.68,3.03-1.97,5.92-2.98,8.88-3.76,3.01-7.29,6.41-11.35,8.94-4.14,2.57-8.81,4.29-13.44,6.47,2.41,1.65,4.42,3.01,7.9,5.38-5.23-.56-8.8-.95-12.94-1.4,7.62,14,6.99,28.59,7.27,42.89.15,7.73-1.26,15.53-2.43,23.23-1.81,12.01-3.82,24-6.17,35.92-.72,3.64-1.22,7.79-4.77,10.36-2.03-2.99-2.01-2.99-1.69-5.07,1.8-11.75,2.75-23.57.8-35.35-.99-5.93-1.64-12.16-5.59-18.22-2.66,7.38.04,13.91-.34,20.39-.38,6.59,0,13.23.02,19.84.02,6.56,0,13.11,0,19.67-1.38-4.68-2.16-9.37-2.69-14.09-.73-6.54-.8-13.18-1.98-19.63-1.65-9.02-1.11-18.03-1.11-27.07,0-1.43.17-2.99.75-4.26,1.83-3.95,5.73-4.32,7.84-.53,1.87,3.37,3.05,7.15,4.42,10.79.78,2.08,1.3,4.25,1.94,6.38,1.54-15.08,2.46-29.97,2.66-44.86.1-7.19,1.32-14.64-2.08-21.83-5.15-.62-8.1-3.49-8.47-9.03-.12-1.84-1.16-3.61-1.64-5.02-2.64.96-5.09,1.85-7.13,2.58,0,10.88-8,19.16-9.82,29.46.92.33,1.63.85,2.25.76,8.35-1.13,16.69-2.34,25.69-3.63-3.09,4.62-7.95,5.74-12.03,7.8-4.26,2.16-8.88,3.63-12.94,5.24.89,9.61,1.75,18.57,2.52,27.53.25,2.93.07,5.9.44,8.8,1.59,12.67,1.54,25.31.02,37.99-.63,5.27-.6,10.59-.35,16.44,12.07-.69,23.43-1.34,35.14-2.02-.93-5.87-2.31-11.31-2.56-16.81-.72-16.38-1.16-32.81,1.39-49.07,2.68-17.09,6.81-33.87,13.07-50.07,2.45-6.33,4.86-12.68,7.29-19.01l.07-.04ZM366.36,113.78c-.82.42-1.64.93-2.52,1.3-5.46,2.32-7.97,1.82-11.38-2.85-1.41-1.92-2.18-4.32-3.17-6.53-.76-1.7-1.41-3.45-2.5-6.14-4.01,4.23-7.22,7.86-10.71,11.2-1.89,1.81-4.07,3.54-6.43,4.59-3.68,1.62-6.96-.45-7.21-4.42-.15-2.38.25-4.86.75-7.21.6-2.81,1.58-5.53,2.13-7.4-3.08-3.76-5.61-6.83-8.4-10.23-3.17,1.78-6.91,3.53-10.29,5.82-18.41,12.46-32.23,29.11-43.06,48.3-10,17.72-17.64,36.47-22.76,56.17-3.68,14.15-6.52,28.48-6.83,43.19-.04,1.95-.05,3.94-.39,5.85-2.06,11.46.67,22.72.76,34.65h17.32c-.47-1.12-.67-2.93-1.46-3.23-4.77-1.85-5.3-6.44-6.32-10.23-3.25-12.05-4.42-24.2-2.87-36.85,1.79-14.59,4.68-28.82,9.52-42.62,5.93-16.89,13.36-33.1,24.88-47.04,2.45-2.96,5.47-5.59,8.64-7.78,3.18-2.2,7.14-2.68,10.17.13,2.55,2.37,3.67,5.75,2.32,9.39-1.94,5.24-3.4,10.73-5.96,15.65-9.01,17.34-18.4,34.48-27.66,51.69-.96,1.78-1.97,3.53-2.96,5.29.28-4.25,1.28-8.21,2.79-11.96,6.83-16.95,13.81-33.84,20.72-50.76,1.43-3.5,3.69-6.78,3.4-11.44-5.85,4.45-9.83,9.7-13.26,15.31-17.52,28.63-28.26,59.32-27.89,93.31.02,2.2,0,4.41.13,6.61.1,1.95.23,3.91.56,5.82.37,2.15.94,4.27,1.48,6.38.48,1.86,1.03,3.69,1.55,5.54.82-1.58.79-3.02.82-4.45.12-4.65-.32-9.41.51-13.93,1.92-10.52,4.38-20.94,8.5-30.88,12.28-29.69,29.65-55.59,56.12-74.53,13.99-10.01,29.18-16.83,47.02-15.29,2.14.18,4.31.03,6.43.03-.85-7.04-1.62-13.43-2.47-20.42l-.02-.03ZM364.84,136.05c-4.93.7-9.07.96-13.03,1.92-10.83,2.65-20.39,8.02-29.34,14.5-10.95,7.93-20.56,17.25-29.3,27.59-15.48,18.33-27.38,38.52-34.28,61.61-3.25,10.87-4.96,21.84-4.38,33.16.28,5.51.24,5.58,5.54,6.69,5.92,1.25,11.87,2.39,17.9,3.59,4.48-6.35,8.83-12.52,13.19-18.7,4.36-6.19,9.65-11.72,13-18.74-4.63,2.86-8.71,6.22-12.72,9.65-.44.38-.61,1.16-.76,1.79-.77,3.25-2.94,4.26-6.5,3.01.96-2.27,1.9-4.49,2.84-6.71-7.1,6.61-11.38,14.98-16.21,23.48-1.73-2.78-1.08-4.74-.36-6.85,1.84-5.37,4.06-10.38,2.33-16.69-1.21-4.4.48-9.63,1.06-14.46,2.36-19.83,9.52-37.76,21.58-53.7,5.79-7.66,12.47-14.4,20.7-19.5,4.45-2.76,9.07-4.69,14.48-4.35,7.42.46,11.54,6.29,8.83,13.25-1.13,2.9-2.93,5.68-4.94,8.08-4.08,4.88-8.35,9.61-12.82,14.13-11.02,11.14-21.84,22.45-31.66,34.68-3.02,3.76-6.28,7.34-10.12,11.8-.27,1.76-.71,4.68-1.16,7.6,15.08-20.9,32.76-38.65,55.07-51.28,22.4-12.68,46.95-16.32,72.86-15.29-3.11-6.04-5.95-11.56-8.87-17.24-4.37.84-7.74-2.71-11.64-4.98-1.9,4.51-3.98,8.05-9.3,7.19-5.59-.9-5.42-5.88-6.7-9.81-3.63,2.53-6.96,4.99-10.45,7.22-1.82,1.17-3.93,1.89-5.87,2.88-2.8,1.43-5.38.83-7.37-1.28-2-2.11-2.46-4.69-.77-7.4,1.29-2.06,2.21-4.38,3.64-6.33,4.93-6.68,10.01-13.24,15.56-20.53l-.03.02ZM291.3,289.07c7.35-14.98,18.35-25.8,29.72-36.19,11.21-10.24,23.4-19.25,37.4-25.47,14.13-6.28,29.1-9.27,44.62-10.35.97-8.95,4.48-15.97,10.83-21.22-2.36-4.08-2.54-3.64-5.64-4.89-5.01-2.02-9.6-.19-14.33.65-16.37,2.9-32.22,7.45-47.37,14.45-22.41,10.35-40.76,25.82-56.8,44.28-.56.64-.84,1.52-1.25,2.28,1.54-.05,2.36-.71,3.17-1.4,7.02-6.06,13.96-12.22,21.09-18.15,2.41-2.01,5.18-3.71,8.02-5.05,4.04-1.91,8.19,1.36,7.27,5.73-.44,2.07-1.49,4.2-2.82,5.87-4.24,5.35-8.5,10.74-13.19,15.69-8.25,8.7-16.84,17.07-25.26,25.61-1.49,1.51-2.85,3.13-4.78,5.27,3.45,1.08,6.11,1.91,9.32,2.91v-.02ZM331.28,103.66c.42.43.84.86,1.26,1.3,2.79-3.08,5.36-6.41,8.42-9.19,4.96-4.5,10.16-3.41,13.1,2.49.86,1.73,1.24,3.69,1.97,5.49.78,1.94,1.72,3.81,2.57,5.69,10.27-4.43,12.25-12.56,5.15-19.63-3.98-3.96-8.41-7.46-12.57-11.23-2.35-2.13-4.7-4.32-4.92-7.79,1.12-2.46,2.84-3.89,5.57-4.23,2.41-.3,4.81-.81,7.16-1.44,4.66-1.24,9.52-2.13,13.36-6.57-3.03-1.25-5.67-2.25-8.24-3.4-5.86-2.62-6.55-5.79-2.36-10.7.95-1.11,2.13-2.03,3.12-3.11,1.6-1.75,3.12-3.57,4.44-5.09-1.12-3.33-3.38-3.35-5.59-3.55-8.61-.77-16.37,1.4-23.55,6.25-6.48,4.37-8.3,3.38-8.91-4.25-.04-.48-.42-.94-1.04-2.25-1.28,4.11-2.29,7.33-3.27,10.56-1.93,6.3.25,13.85-5.72,18.96-.2.17-.05.96.14,1.36,1.72,3.68-.71,5.43-3.31,6.96-3.78,2.23-7.69,4.26-11.48,6.47-3.53,2.06-6.99,4.25-11.11,6.76,7.01,3.42,13.1,2.76,19.23.45,2.66-1,4.21-2.52,4.89-5.66,1.29-6,4.06-11.53,8.2-16.13,4.29-4.78,11.22-3.82,13.67,2.13,1.24,3.01,1.24,6.62,1.34,9.97.08,2.65-1.62,4.58-4.1,5.53-2.2.84-5.65-.27-7.19-2.5-1.15-1.67-1.81-3.67-2.96-6.09-2.46,5.33-4.34,10.12-2.69,15.46.89.19,1.35.33,1.82.38,6.32.61,7.68,2.27,6.3,8.35-.64,2.81-1.78,5.51-2.7,8.26h0ZM447.59,215.94c-1.54-1.77-2.73-4.46-4.37-4.77-4.89-.94-7.88-4.22-11.16-8.24-2.26,5.54-4.18,10.27-6.13,14.98-.99,2.4-2.58,4.61-5.35,4.08-3.02-.58-2.95-3.35-2.82-5.93.31-6.06.37-12.1-2.39-18.58-4.37,5.93-8.76,11.22-7.68,18.99,3.22.34,5.79.6,9.03.94-1.48,1.75-2.83,2.79-3.43,4.16-3.78,8.71-7.46,17.46-11.01,26.26-.9,2.22-1.33,4.68,1,7.51,2.45-1.35,5.27-2.33,7.32-4.16,2.88-2.58,5.25-5.75,7.71-8.76,1.68-2.06,2.89-4.61,6.62-4.82,1.34,1.55,2.89,3.33,4.72,5.43,7.03-6.24,12.83-1.56,19.15,3.26.36-2.03,1.12-3.52.72-4.55-2.61-6.66-7.77-10.47-14.65-11.81-2.46-.48-4.79-.52-5.03-4.14,6.38-1.83,13.03-3.02,17.73-9.83l.02-.02ZM420.04,177.67c4.64.71,8.16-.1,10.55-2.43-4.39-2.78-7.01-3.54-12.65-3.68-2.53,4.06-5.05,8.11-8.21,13.17,7.61,3.62,11.87,9.92,13.48,19.23,1.71-3.1,2.63-5.05,3.8-6.85,3.55-5.46,7.96-5.42,11.41.05,1.27,2.01,2.42,4.08,3.83,6.47,3.2-1.32,5.98-2.21,8.5-3.58,3.94-2.14,7.88-3.48,13.04-1.16-4.41-13.83-13.48-21.11-26.07-24.84-2.37,6.96-7.74,10.95-12.86,9.84-3.69-.8-4.96-2.43-4.82-6.22ZM167.15,111.02c-1.52,3.42-.46,5.99,1.3,8.51,8.71,12.47,21.16,18.74,36.72,22.57-2.35-3.13-3.78-5.3-5.47-7.23-6.74-7.7-12.72-16.12-21.78-21.54-3.31-1.98-6.47-3.36-10.77-2.3h0ZM178.81,205.58c-.13,8.01-1.01,16.01.46,24.04.46,2.5.66,6-.7,7.68-2.31,2.84-1.64,5.33-1.22,8.18.36,2.4.81,4.82.84,7.24.13,8.08.07,16.17.13,24.25.02,1.87.24,3.75.39,5.87,4.51-.19,8.65.71,12.03-1.24-.19-5.8-.46-11.09-.52-16.39-.11-10.04-.11-20.09-.16-30.13,0-.98,0-1.96-.1-2.94-.09-.94-.31-1.86-.47-2.79-1.03,15.96-3.95,31.48-7.68,46.9-1.34-23.58,1.06-47.23-3-70.64v-.03ZM323.13,177.51c-22.74,14.26-35.58,35.15-41.15,60.91,12.36-21.22,25.24-42.1,41.15-60.91ZM417.6,139.07c-5.13-1.4-8.54-2.85-12.05-3.18-8.42-.79-16.89-.96-25.15-3.07-.84-.22-1.84.17-2.67.26-.74,3.35.22,5.09,2.88,5.22v-3.98c2.39,1.73,3.97,3.75,4.72,6.04.72,2.2,3.41,4.62,5.27,3.9,5.25-2.05,10.61-.5,15.88-1.05,3.43-.36,6.54-1.29,11.12-4.14h0ZM55.74,147.31c-8.04,3.33-14.66,5.96-21.17,8.83-3.7,1.64-4.26,3.31-2.84,6.82.45,1.12,1.05,2.19,1.73,3.19,3.13,4.64,6.6,5.03,9.79.56,4.17-5.83,7.8-12.05,12.5-19.41h0ZM351.3,163.53c.4.42.81.84,1.21,1.27,7.63-3.05,12.78-9.13,18.01-15.13,1.81-2.07,3.71-4.07,5.15-5.65-1.52-3.05-3-6.04-4.59-9.22-6.66,9.67-13.22,19.21-19.79,28.74h.01ZM243.24,132.25c-9.8,3.65-18.07,6.73-26.32,9.8,1.09,3.2,1.95,5.7,2.77,8.11,11.69-1.65,18.04-6.25,23.55-17.91h0ZM455.1,152.78c-8.71-1.36-22.11,5.62-29.4,14.76,3.13.93,6.32,1.88,8.79,2.62,3.29-2.84,6.24-5.56,9.38-8.04,2.28-1.8,4.91-3.17,7.2-4.97,1.44-1.13,2.53-2.71,4.03-4.38h0ZM373.17,132.06c2.97-4.27,7.63-1.04,11.03-4.08,2.95-2.65,6.95-4.13,10.41-6.09-.78-4.39-1.45-8.19-2.28-12.91-.54,1.64-.77,2.47-1.08,3.25-1.26,3.15-2.3,6.41-3.87,9.4-3.03,5.82-6.97,6.46-11.53,2.08-1.08-1.03-1.95-2.29-3.45-4.09-.12,4.45-.66,8.01.77,12.43h0ZM289.37,52.35c6.73,5.1,16.69,8.11,26.24,7.93-10.47-9.1-19.1-11.71-26.24-7.93ZM393.91,159.84c-1.66-6.34-6.7-10.18-11.19-14.39-.84-.79-2.52-.69-3.39-.9-.36,5.52-.68,10.55-1.06,16.41,5.91-8.15,7.16-8.15,15.65-1.12h0ZM189.55,210.64c.79-6.89.64-13.33.39-19.96h-4.22c1.29,6.73,2.51,13.09,3.82,19.96h0ZM213.26,151.86v-10.64c-1.62,4-2.83,7.04,0,10.64ZM208.62,140.05c.47-.18.94-.37,1.41-.55-.88-1.7-1.77-3.41-2.65-5.11l-1.17.57c.8,1.7,1.61,3.39,2.41,5.09h0Z"/>
  <path class="cls-1" d="M123.77,303.3c2.52,4.39,5.7,8.53,7.4,13.22,3.08,8.47,2.09,17.44.85,26.13-3.41,23.87-10.33,46.97-15.96,70.35-4.11,17.07-5,34.15-2.79,51.58,1.77,13.93,4.78,27.42,10.84,40.08,8.1,16.91,19.18,30.93,36.55,39.66,6.52,3.28,12.64,4.84,19.8,4.91,20.8.19,41.59.86,62.38,1.48,12.93.39,25.84,1.03,38.69,1.55-3.03,2.22-7.12,3.3-13.57,4.01-27.52,3.04-55.16,3.1-82.79,3.38-6.33.06-12.64.73-19.02,1.12-3.32,5.54-5.94,11.43-12.6,15.12,0-2.55-.14-4.38.04-6.17.22-2.17.9-4.3,1.04-6.47.57-8.62.98-9.4,8.67-13.95-5.3-1.09-10.29-2.06-15.26-3.16-13.65-3.01-23.86-10.92-31.11-22.64-9.81-15.86-15.03-33.29-16.76-51.77-.73-7.77-1.15-15.59-1.37-23.39-.35-12.55,2.06-24.73,5.6-36.7,5.72-19.34,11.69-38.61,17.14-58.03,2.22-7.93,3.75-16.12,4.88-24.29,1.23-8.92-1.16-17.05-8.02-23.3-2.07-1.88-4.74-3.09-7.15-4.62,1.44-2.57,3.39-2.56,5.64-1.42,2.36,1.2,4.75,2.36,7.12,3.54l-.21-.21h-.03Z"/>
  <path class="cls-1" d="M336.88,371.05c-.78-.82-2.16-1.6-2.21-2.47-.18-2.62-.4-5.45.41-7.87,1.95-5.83,5.12-11.09,9.57-15.44,8.3-8.11,18.1-12.88,29.78-14.17,17.33-1.92,31.74,3.3,42.99,16.64,6.8,8.06,10.58,17.38,11.08,28.06.54,11.52-1.97,22.2-6.94,32.57-6.17,12.88-14.4,24.35-22.88,35.73-7.58,10.18-15.18,20.38-22.08,31.02-6.15,9.48-10.62,19.78-10.31,31.56.2,7.53,1.01,8.76,8.36,10.45,1.65.38,3.34.62,5.03.79,1.66.18,3.35.2,6.22.35-4.83,3.68-9.38,5.06-13.99,5.7-13.56,1.86-22.73-6.53-22.98-20.87-.13-7.44,1.97-14.48,4.73-21.29,4.43-10.94,10.69-20.83,17.96-30.1,8.9-11.34,18.03-22.5,26.66-34.04,6.74-9.01,12.44-18.65,15.74-29.6,3.62-12.03,2.16-23.22-5.03-33.41-7.18-10.19-17.07-15.65-29.76-16.03s-23.42,3.74-32.38,12.72c-5.32,5.32-9.66,11.03-8.37,19.41-.53.1-1.07.19-1.6.29h0Z"/>
  <path class="cls-1" d="M281.16,549.18c2.54-3.79,5-7.65,7.65-11.36,6.68-9.35,13.47-18.62,20.19-27.95,7.38-10.26,12.26-21.65,14.67-34.04,2.51-12.91,5.49-25.79,6.9-38.83,1.49-13.75-1.5-27.18-6.44-40.14-3.38-8.88-6.93-17.75-9.55-26.87-3.97-13.86-4.47-27.92.4-41.78,3.04-8.65,7.53-16.44,14.51-22.57,1.36-1.2,2.85-2.99,5.52-.68-.67,1.07-1.29,2.21-2.05,3.25-9.16,12.49-13.8,26.3-12.04,41.91,1.16,10.32,5.14,19.79,9.28,29.17,1.28,2.91,2.74,5.74,4.22,8.55,9.38,17.79,13.26,36.8,11.29,56.7-1.76,17.71-4.71,35.3-11.06,52.07-5.75,15.17-14.37,28.34-27.95,37.71-8,5.52-16.17,10.78-24.26,16.16-.43-.44-.85-.88-1.28-1.32v.02Z"/>
  <path class="cls-1" d="M46.34,514.23c2.16-.17,4.35-.21,6.48-.54,12.64-1.96,22.45-10.75,22.54-24.61.06-9.17-2.59-17.44-7.63-24.81-5.51-8.06-11.64-15.7-17.56-23.48-7.75-10.18-14.61-20.84-17.53-33.51-3.21-13.92-2.15-27.63,2.59-41.07,3.88-11.02,9.82-20.71,18.48-28.68,16.51-15.18,38.28-11.91,52.6,3.98,7.09,7.87,7.76,18.35,2.14,28.73-.18-2.82-.61-4.63-.34-6.33,1.28-7.96-1.4-14.62-7.36-19.51-8.18-6.71-17.39-11.23-28.34-7.22-3.35,1.23-6.67,3.2-9.3,5.6-14.9,13.65-20.68,31.22-19.68,50.85.67,13.01,6.69,24.36,14.8,34.5,5.95,7.45,12.02,14.8,17.88,22.32,6.54,8.39,11.59,17.67,13.34,28.22,1.6,9.66,2.27,19.49-3.25,28.46-5.01,8.13-12.3,12.6-21.84,12.47-5.31-.07-10.61-1.15-15.89-1.98-.95-.15-1.75-1.28-2.63-1.97.17-.48.34-.96.51-1.45v.03Z"/>
  <path class="cls-1" d="M198.83,606.7c1.92-.61,3.66-1.81,4.8-1.39,2.19.81,4.63,2.13,5.89,3.98,1.89,2.76,2.84,6.07,2.06,9.72-1.57,7.32-4.84,13.84-9.29,19.71-3.39,4.46-7.38,8.46-11,12.76-6.94,8.26-13.24,16.91-16.33,27.46-1.98,6.77-1.5,7.85,4.33,11.24,8.24,4.78,17.39,6.55,26.6,6.99,19.81.94,38.83-2.68,56.67-11.76,3.38-1.72,4.68-4.12,5.63-7.77,1.99-7.65-.79-13.3-5.78-18.49-3.39-3.53-7.05-6.83-10.2-10.56-3.62-4.28-7.31-8.63-10.08-13.46-4.76-8.29-5.82-17.12-.67-25.77,2.58-4.34,6.09-7.83,11.72-7.34,1.11.1,2.6,1.31,3.04,2.37.58,1.4-.39,2.39-1.98,3.22-5.8,3.06-8.39,9.77-6.06,16.06,1.26,3.4,2.91,6.86,5.2,9.61,4.04,4.86,8.74,9.17,13.08,13.79,3.51,3.74,7,7.51,10.28,11.44,1.22,1.46,2.2,3.32,2.68,5.16,1.17,4.46,2.14,9,2.9,13.55,1.68,9.96-3.35,18.54-13.21,21.63-6.24,1.95-12.72,3.62-19.21,4.22-10.93,1.01-21.95,1.51-32.93,1.4-10.21-.11-20.47-1.21-30.05-5.19-4.92-2.05-9.53-4.87-14.19-7.5-.95-.54-1.64-1.72-2.17-2.75-4.94-9.54-5.34-19.21-.06-28.7,2-3.59,4.41-7.08,7.2-10.08,5.34-5.73,11.24-10.92,16.6-16.63,2.98-3.17,5.69-6.73,7.9-10.48,4.59-7.78,3.94-10.65-3.36-16.43h0Z"/>
  <path class="cls-1" d="M82.81,107.93c-3.76-.07-3.7-3.26-4.46-5.64-1.68-5.29-3.2-10.62-5.18-17.27-1.55,8.57.85,15.4,1.3,22.36.12,1.82.24,3.97-.58,5.46-1.72,3.14-5.74,3.31-7.94.5-1.18-1.51-1.93-3.36-3.2-5.66-2.47,3.42-5.92,3.5-9.49,3.15-1.52-2.85-3.92-4.07-7.13-3.73,2.23,1.55,4.02,4,7.25,3.59,1.52,1.02,2.96,2.2,4.58,3.03,5,2.58,6.51,4.4,5.4,7.38-1.51,4.09-5.2,3.13-8.18,2.91-6.54-.5-13.07-1.28-19.57-2.19-4.84-.68-4.81-.85-9.75.47,5.58,9.29,15.91,14.4,25.57,12.44-1.57,3.75-4.67,4.21-7.78,3.79-9.32-1.25-17.21-5.4-23.03-12.85-3.18-4.07-1.39-9.22,3.62-10.33,4.58-1.02,9.35-1.15,14.24-1.69-1.65-1.94-3.61-3.8-5.03-6.02-1.71-2.68-3.11-5.63-1.12-8.9,1.98-3.25,4.79-4.76,8.61-4.27,1.92.25,3.85.47,6.13.75.6-3.66-.18-8.56,4.41-10.5,4.42-1.87,7.95.84,11.43,3.92.84-3.86,1.38-7.37,2.39-10.75,1.03-3.47,3.21-6.01,7.44-6.41,5.3,2.14,6.44,7.17,7.59,12.62,3.39-5.73,7.13-10.31,13.52-12.16,5.42-1.57,10.16-.91,14.25,2.95,4.16,3.93,5.01,8.77,3.26,14.11-.89,2.72-1.92,5.39-2.91,8.13.73.4,1.35.78,2,1.09,6.59,3.24,7.97,7.49,3.9,13.34-1.79,2.57-4.07,4.97-6.58,6.83-4.69,3.48-9.7,6.54-14.63,9.69-.49.32-1.36.04-2.96.04,4.14-5.22,7.91-9.96,11.68-14.71l-.7-.77c-2.19.86-4.38,1.71-6.56,2.57-8,3.15-11.14,1.19-11.99-7.45,7.87-6.83,15.91-13.53,18.9-24.06-4.06-4.09-4.41-4.2-8.12-2.48-4.21,1.96-6.76,5.45-8.68,9.51-2.62,5.51-2.37,11.34-1.92,17.19l.02.02Z"/>
  <path class="cls-1" d="M181.44,598.93c29.33-6.79,58.71-8.62,88.72-7.03,3.6-5.48,7.17-10.92,11.13-16.94h-116.14c1.33-3.01,3.4-3.59,5.85-3.77,5.6-.41,11.18-1.07,16.78-1.37,12.69-.69,25.4-1.13,38.1-1.84,16.83-.94,33.65-2,50.48-3.09,3.89-.25,7.75-1.03,11.63-1.18,1.85-.07,3.95.39,5.57,1.27,5.63,3.07,6.62,7.82,2.38,12.64-2.72,3.09-6.02,5.72-9.29,8.27-3.83,3-7.85,5.76-11.89,8.49-1.16.79-2.62,1.28-4.01,1.57-10.74,2.25-21.51,4.22-32.52,4.68-10.25.43-20.5.97-30.75,1.49-7.31.37-14.63.75-21.94,1.17-3.01.17-5.48-.36-7.99-2.55-6.25-5.44-12.94-10.38-19.43-15.54-1.17-.93-2.44-2.15-1.11-3.6.58-.63,2.19-.8,3.16-.53,7.63,2.1,13.28,7.02,18.01,13.14,1.17,1.51,2.18,3.15,3.26,4.72h0Z"/>
  <path class="cls-1" d="M147.3,62.15c-.4,4.92-4.23,5.82-7.84,5.76-6.55-.1-13.14-.6-19.63-1.54-6.95-1.01-13.8-2.73-20.7-4.1-3.16-.63-6.45-1.2-7.33-4.96-.58-2.5,2.05-5.2,6.81-6.59,6.07-1.78,12.27-3.12,18.4-4.68,1.14-.29,2.23-.74,3.89-1.3-.87-1.8-1.74-3.2-2.24-4.72-1.59-4.83.7-8.3,5.72-8.68,1.7-.13,3.45-.07,5.12.22,1.64.28,3.22.96,5.26,1.6,1.51-4.51.64-8.76.26-12.99-.35-3.88-.62-7.77-.89-11.66-.22-3.13,1.39-5.03,4.4-6.28,4.01,1.4,6.19,4.69,7.15,8.52,1.65,6.58,2.78,13.29,4.09,19.76,3.38-5.22,3.59-12.98,10.45-16.5,2.79.67,4.14,2.46,4.71,5.07.36,1.65.82,3.3,1.39,4.89.89,2.49,2.69,3.22,5.25,2.62,2.35-.55,4.76-1.25,7.14-1.23,2.94.02,4.27,2.36,2.83,5.07-1.7,3.21-3.81,6.22-5.95,9.17-5.05,6.94-11.92,12.05-18.16,17.92.68-4.97,4.28-8.07,6.94-11.75,2.83-3.91,5.58-7.88,8.95-12.66-6.83.27-11.39-1.81-13.59-8.29-2.76,3-3.12,6.19-4.14,9.02-1.4,3.89-2.54,7.87-3.87,11.78-.55,1.61-1.01,3.39-2.06,4.64-.79.94-2.56,1.75-3.68,1.54s-2.61-1.64-2.85-2.77c-.55-2.6-.44-5.33-.62-8.53-1.67,5.9-5.42,8.78-10.73,9.96-6.89,1.53-13.77,3.08-20.64,4.69-1.4.33-2.73.96-5.76,2.04,11.26,2.39,20.9,4.78,30.67,6.34,3.66.58,7.62-.75,11.44-1.2l-.19-.18ZM131.47,41.78c.2-.43.41-.85.61-1.28l-4.48-1.46c-.12.4-.24.79-.36,1.19,1.41.52,2.82,1.03,4.23,1.55Z"/>
  <path class="cls-1" d="M163.1,522.21c-6.67-11.83-12.6-24.04-15.54-37.39-3.12-14.16-2.5-28.42-.65-42.81,2.9-22.56,9.09-44.34,14.25-66.37,2.51-10.71,4.37-21.46,4.07-32.54-.16-5.99-1.38-11.56-4.04-16.91-1.14-2.29-3.06-4.57-1.51-7.51,2.52-.68,3.55,1.37,4.63,2.74,5.48,6.96,7.59,15.12,8.12,23.82.88,14.31-2.43,28.09-5.03,41.99-3.27,17.46-6.77,34.89-9.37,52.46-2.04,13.78-2.41,27.79-1.56,41.71.79,12.9,3.66,25.48,7.52,37.82.26.84.44,1.7.65,2.55-.51.15-1.03.3-1.54.44h0Z"/>
  <path class="cls-1" d="M294.21,324.64c0,1.44.24,2.92-.04,4.3-3.46,17.06-2.26,33.77,2.68,50.45,2.83,9.55,4.83,19.37,6.84,29.15,2.67,12.99,3.12,26.01,1.5,39.29-1.73,14.11-4.11,27.93-8.78,41.39-4.86,14.03-12.49,26.43-21.26,38.24-.24.33-.82.4-1.92.9.42-3.67,2.36-6.36,3.54-9.24,6.05-14.73,9.74-30.13,12.99-45.64,2.15-10.24,4.66-20.5,5.61-30.88,1-10.9,1.43-21.97-.58-32.91-2.51-13.64-5.42-27.24-7.17-40.98-1.73-13.62-.88-27.29,3.46-40.51.43-1.32,1.29-2.5,1.94-3.74.39.06.79.12,1.18.18h.01Z"/>
  <path class="cls-1" d="M253.61,322.27c-.56,4.59-1.01,7.94-1.37,11.29-.23,2.18-.62,4.4-.44,6.56.77,9.21,1.44,18.45,2.69,27.6,1.8,13.25,3.98,26.45,6.15,39.65,1.54,9.36,3.17,18.71,5.07,28.01,3.46,16.86,2.42,33.41-2.6,49.82-3.86,12.63-9.48,24.51-14.99,36.45-.14.3-.81.36-1.62.69,0-1.27-.28-2.47.04-3.47,5.39-16.72,8.42-33.98,10.66-51.31,1.27-9.87,1.09-19.95-.54-29.95-1.92-11.77-3.45-23.6-4.96-35.43-1.48-11.58-3.22-23.16-3.93-34.8-.85-13.86-1.37-27.83,2.77-41.41.21-.68.45-1.38.83-1.99.24-.38.74-.6,2.23-1.72h0Z"/>
  <path class="cls-1" d="M194.68,320.44c4.45,5.68,5.24,12.14,5.48,18.65.47,12.95-.37,25.8-2.51,38.62-2.29,13.67-4.2,27.41-5.89,41.17-1.01,8.22-1.41,16.52-1.87,24.8-.55,9.99-1.01,19.98-1.26,29.98-.3,11.98,1.16,23.79,3.94,35.45.2.84-.13,1.81-1.15,2.96-.44-.94-.93-1.85-1.32-2.81-3.83-9.49-7.13-19.24-8.36-29.35-1.61-13.28-2.48-26.55-1.14-40.11,1.75-17.74,5.24-35.13,8.11-52.65,1.69-10.31,4.05-20.52,5.33-30.88.9-7.25.52-14.66.64-21.99.07-4.61,0-9.22,0-13.84h-.01Z"/>
  <path class="cls-1" d="M210.1,522.1c1.71-13.19,3.28-26.4,5.18-39.56,1.98-13.75,3.2-27.56,4.54-41.38,1.68-17.37,1.08-34.7.92-52.05-.07-7.26-1.5-14.52-2.34-21.77-.48-4.11-1.33-8.19-1.46-12.31-.36-11.22-2.73-22.35-1.51-33.64.05-.46.35-.89.73-1.82,2.23,1.5,2.88,3.56,3.05,5.94,1.28,17.99,4.93,35.65,7.27,53.49,2.38,18.23,2.88,36.65,1.38,54.92-1.8,21.8-5.49,43.4-10.96,64.65-2.03,7.88-3.67,15.86-5.49,23.8-.43-.09-.87-.18-1.3-.27h0Z"/>
  <path class="cls-1" d="M151.05,215.58c-1.93-3.51-3.48-6.19-4.9-8.93-3.78-7.26-8.86-13.54-15.05-18.78-10.87-9.2-23.32-12.45-37.81-8.8,4.36,3.06,9.2,2.62,13.6,3.69,2.83.69,5.76.93,8.59,1.62,1.35.33,3.37,1,3.69,1.98,1.52,4.7,6.11,5.19,9.38,7.45,2.33,1.61,4.79,3.04,6.77,5.65-1.95-.28-4.07-.15-5.81-.9-7.41-3.18-14.75-1.93-22.14-.1-2.13.53-4.24,1.12-6.39,1.53-1.67.32-3.38.5-5.08.58-2.17.1-3.88-.64-4.26-3.06-.35-2.23,1.31-3.12,2.93-3.61,3.48-1.06,7.04-1.85,11.09-2.88-5.34-1.33-10.3-2.35-15.11-3.83-5.47-1.68-8.05-4.36-7.69-7.61.49-4.44,4.07-5.95,7.61-6.91,15.17-4.15,29.01-1.18,41.29,8.54,7.59,6.01,13.19,13.74,17.54,22.33,1.71,3.37,3.24,6.97,1.76,12.03h-.01Z"/>
  <path class="cls-1" d="M149.31,151.69c1.11-.8,1.91-1.25,2.56-1.87,1.46-1.38,2.89-2.81,5.12-1.81,2.52,1.13,2.38,3.43,2.34,5.66-.03,1.71-.05,3.43-.11,5.14-.11,3.18.38,5.67,4.26,6.51,3.68.8,4.81,3.77,4.51,7.35-.33,3.83-1.19,7.41-5.03,11.31-.49-4.32-.82-7.33-1.21-10.8-5.38-1.96-9.35-5.58-9.87-12.06-1.97-.46-3.74-.87-6.46-1.51,2.7,6.43,5.08,12.12,7.47,17.81-.24.2-.48.4-.73.61-.74-.64-1.69-1.14-2.2-1.92-10.13-15.5-17.27-32.13-18.84-50.8-.18-2.18-.37-4.59.36-6.54.69-1.84,2.34-3.92,4.07-4.57,1.26-.47,3.68.81,4.98,1.99,3.89,3.52,4.27,8.67,5.22,13.39,1.44,7.15,2.35,14.4,3.57,22.1h0ZM140.29,140.8c-.7-4.95-1.41-9.91-2.29-16.08-2.21,6.43.22,11.18,2.29,16.08Z"/>
  <path class="cls-1" d="M155.94,257.72c-1.87-.95-3.75-1.9-5.62-2.85-1.41-2.32-2.85-4.44-6.12-4.38-1.02.02-2.44-.78-3.03-1.65-4.98-7.27-12.67-10.42-20.32-13.65-1.12-.47-2.58-.58-3.33-1.38-1.07-1.13-2.29-2.78-2.21-4.14.08-1.35,1.45-3.46,2.65-3.79,11.65-3.2,24.12-1.69,29.51,11.34,1.12,2.7,2.51,5.28,3.71,7.96,2.2,4.94,5.76,8.29,10.94,10.04,1.95.66,3.71,1.84,5.26,3.56-3.81-.35-7.62-.7-11.43-1.05h-.01ZM137.39,237.2l.75-.99c-1.47-1.13-2.94-2.27-4.4-3.4-.25.33-.51.67-.76,1,1.47,1.13,2.94,2.26,4.41,3.39h0Z"/>
  <path class="cls-1" d="M262.37,674.89c-17.05,20.32-64.75,20.73-80.82,1.17.41-2.64,2.09-2.3,3.67-1.3,5.44,3.45,11.51,5.19,17.69,6.57,12.87,2.88,25.73,2.17,38.47-.74,6.82-1.56,13.51-3.65,20.98-5.7h.01Z"/>
</svg>