<?xml version="1.0" encoding="UTF-8"?>
<svg id="Layer_1" data-name="Layer 1" xmlns="http://www.w3.org/2000/svg" version="1.1" viewBox="0 0 489.99 706.71">
  <defs>
    <style>
      .cls-1 {
        fill: #000;
        stroke-width: 0px;
      }
    </style>
  </defs>
  <path class="cls-1" d="M184.92,236.53c3.7,8.23,7.31,16.5,11.18,24.64.72,1.51,2.31,2.91,3.84,3.67,15.05,7.48,24.82,19.9,32.34,34.38,7.42,14.28,11.75,29.65,15.52,45.2.87,3.59,1.71,7.19,2.46,10.81.4,1.92.79,3.83,3.25,3.73,2.12-.08,2.16-1.91,2.66-3.48,1.38-4.34,1.03-8.52.08-12.95-2.99-13.98-5.62-28.04-8.29-42.09-.35-1.86-.67-3.4-2.34-4.68-.97-.75-1.35-2.36-1.81-3.65-1.01-2.82-2.14-5.63-2.8-8.53-2.23-9.87-7.96-17.56-14.8-24.66-4.67-4.84-9.25-9.78-13.6-14.9-4.32-5.09-6.41-11.13-6.84-17.85-.46-7.12-1.35-14.22-4.38-20.81-.77-1.67-1.72-3.3-2.86-4.74-11.25-14.16-22.57-28.27-33.86-42.4-1.59-1.99-3.25-3.95-4.68-6.05-2.88-4.24-1.43-7.78,3.55-9.54,5.73-2.03,10.52.28,15,3.25,7.31,4.85,12.14,11.99,16.76,19.25,12.01,18.85,20.58,39.35,28.48,60.13,5,13.16,9.47,26.51,14.25,39.76.92,2.54,2.17,4.97,3.8,8.64.18-2.24.46-3.18.29-4.02-2.78-13.78-5.38-27.61-8.48-41.32-3.86-17.08-7.65-34.19-12.35-51.05-5.5-19.74-11.77-39.28-18.1-58.78-1.7-5.23-4.83-9.99-7.32-14.95-1.31-2.61-3.91-2.87-6.34-3.69-3.9-1.32-7.63-3.14-11.45-4.71-2.27-.93-3.15-2.57-2.79-4.94.37-2.43,2.33-2.57,4.16-2.92.25,1.68,1.33,2.41,2.87,1.96,1.54-.45,2.97-1.26,4.45-1.92,10.98-4.88,21.96-9.75,32.93-14.66,1.42-.64,2.76-1.48,2.81-1.51,1.85-4.92,2.93-8.66,4.64-12.09,1.33-2.66,3.46-4.91,5.18-7.38,1.53-2.2,2.97-4.46,4.97-7.48-5.4.45-9.71,1.22-13.99,1.05-4.63-.19-8.02-3.23-10.36-6.26-3.08,2.69-5.97,5.33-8.98,7.82-6.51,5.38-13.01,3.48-15.62-4.54-.35-1.09-.51-2.25-.63-3.4-.46-4.36-.85-8.73-1.32-13.1-.03-.25-.5-.45-.86-.76-.45,1.12-.88,2.16-1.3,3.19-1.28-.13-2.5-.26-3.69-.38-1.05,3.22-1.73,6.16-2.95,8.86-3.26,7.21-9.73,8.43-15.78,3.26-1.64-1.4-2.54-3.94-5.2-4.02-5.61,12.44-9.97,14.07-26.71,10.01.83,4.17,2.06,7.49,6.46,9.65,5.02,2.46,5.02,7.06.75,10.65-1.23,1.03-2.74,1.7-4.1,2.58-1.14.74-2.25,1.55-3.91,2.71,28.05,2.19,45.63,7.19,52.99,15.02-.98.29-1.84.54-2.7.79-1.48-.93-2.84-2.23-4.44-2.72-10.18-3.14-20.56-5.24-31.23-5.79-4.39-.23-8.79-1.2-13.14-.97-9,.47-17.96,1.56-26.95,2.31-3,.25-6.03.27-9.04.33-2.27.05-3.29-1.5-3.85-3.38-.67-2.23.82-3.78,2.42-4.5,2.28-1.03,4.86-1.42,7.33-2.01,8.8-2.1,17.33-4.96,25.35-8.77-2.66-1.89-5.22-3.71-7.89-5.61,1.14-2.74,2-4.83,2.79-6.74-.98-3.04-2.32-5.82-2.72-8.74-.75-5.55,2.59-8.21,8.02-6.66,2.22.63,4.29,1.74,6.5,2.42,2.64.82,5.31,1.56,8.03,2.05,3.23.58,5.36-1.17,6.54-4.01.71-1.7,1.1-3.53,1.5-5.34.25-1.13.03-2.38.4-3.45.76-2.15,1.35-4.61,4.05-5.24,2.78-.65,5,.45,6.71,2.62,1,1.28,1.84,2.69,2.87,3.94,1.89,2.31,3.85,4.56,6.11,7.22,1.42-1.92,2.48-3.36,3.53-4.8.41-.56.86-1.11,1.2-1.71,1.97-3.57,5.55-5.45,8.3-8.17,2.49-2.46,2.86-6.86,6.88-8.61,3.88.06,5.39,2.74,5.92,6.2.28,1.83.1,3.72.25,5.57.44,5.5.94,10.99,1.48,17.12,3.6-1.6,4.91-4.33,6.63-6.59,2.25-2.95,4.18-6.14,6.48-9.04,1.9-2.4,4.21-4.63,7.69-3.58,3.02.91,4.04,3.53,4.71,6.37.51,2.19,1.26,4.32,2.1,7.12,4.62-1.05,8.82-2.08,13.05-2.94,2.7-.55,5.46-1.22,8.18-1.17,5.5.11,8.91,4.63,7.32,9.96-1.18,3.96-3,7.77-4.94,11.43-1.84,3.47-4.2,6.67-6.6,10.41,1.26.58,2.43,1.09,3.58,1.64,5.33,2.56,5.93,7.83,1.3,11.62-4.45,3.65-9.95,4.97-15.28,6.4-6.7,1.79-13.55,2.97-20.33,4.45-2.02.44-4.02,1.01-5.93,1.49-.06,10.02,2.9,19.75.67,29.66-.36,1.6.44,3.61,1.1,5.27,7.48,18.88,14.14,38.03,19.61,57.59,1.48,5.31,3.03,10.61,4.86,16.99,7.13-11.23,16.86-18.29,27.86-23.77-22.18-7.21-36.18-22.2-43.16-43.89-1.16-3.62-1.07-7.82-.76-11.69.39-4.86,4.01-7.78,8.88-8.23,3.86-.35,7.44.58,10.58,2.69,2.88,1.93,5.59,4.15,8.19,6.44,3.14,2.76,6.09,5.73,9.13,8.6.15.14.42.15,1.15.4-.13-2.02-.31-3.88-.35-5.74-.17-7.84,2.84-10.83,10.8-10.76.69,0,1.37-.07,2.44-.13,1.92-2.94,4.01-5.97,5.92-9.12,2.5-4.11,6.22-5.64,10.69-4.69,4.05.86,6.06,3.91,6.65,7.97.52,3.59,1.2,7.15,1.82,10.78,3.14-2.47,6.13-5.03,9.36-7.26,1.45-1,3.33-1.69,5.09-1.91,7.34-.92,10.19,1.87,10.2,9.36,0,4.58-1.7,8.61-3.54,12.61-1.51,3.29-3.24,6.48-5.58,11.13,2.44-1.39,3.55-2,4.63-2.65,4.38-2.65,8.89-5,14.02-5.82,6.51-1.04,12.92,1.83,11.08,10.38-.71,3.28-2.5,6.48-4.43,9.29-2.61,3.8-5.83,7.18-9.01,11.01,7.1,3.72,11.83,9.44,14.06,17.12.51,1.77.85,3.6,1.13,5.42,1.18,7.74-1.56,11.81-9.02,13.74-5.68,1.47-11.08-.11-16.37-1.67-8.38-2.46-15.56-7.13-21.79-13.24-1-.98-2-1.95-2.99-2.92-1.54-1.5-3.47-1.79-5.07-.62-1.14.83-1.74,2.44-2.47,3.77-.2.36-.03.91-.04,1.38-.38,17.4-.54,34.82-1.21,52.21-.51,13.18-1.56,26.35-2.59,39.5-.83,10.61-1.68,21.23-3.1,31.77-1.67,12.36-3.98,24.63-5.97,36.95-.4,2.46-.62,4.94-.93,7.42.44.07.88.15,1.33.22,2.35-10.79,4.8-21.55,7.03-32.36,1.67-8.14,3.17-16.33,4.54-24.53,1.44-8.65,2.63-17.34,3.92-26.02.1-.69.03-1.4.14-2.08.32-2.07,1.38-3.52,3.63-3.44s3.26,1.63,3.4,3.69c.14,2.08.07,4.18.08,6.27,0,2.52,0,5.04.26,7.56,3.61-20.48,6.66-41.02,12.06-61.1.84-3.12,1.98-6.16,3.18-9.16.81-2.03,2.18-3.77,4.76-2.97,2.35.73,3.13,2.87,2.94,4.96-.35,3.9-.94,7.81-1.8,11.63-4.42,19.57-9.07,39.08-13.4,58.67-2.54,11.49-4.61,23.08-6.89,34.62-.4,2-.84,4-.34,6.34,2.01-5.3,3.95-10.64,6.06-15.91,10.59-26.43,21.21-52.85,31.85-79.25,2.6-6.44,5.03-12.96,8.08-19.19,5.08-10.38,10.17-20.79,16.08-30.7,3.97-6.66,9.37-12.47,14.08-18.6-.25-.04-.91-.17-1.58-.24-5.67-.6-6.32-1.3-4.93-6.94.69-2.8.24-5.06-1.5-7.13-2.69-3.18-5.48-6.28-8.24-9.4-1.69-1.91-3.63-3.63-5.05-5.72-2.03-2.99-1.88-5.61-.11-7.71,2.1-2.5,4.87-2.73,7.62-1.72,2.36.88,4.56,2.27,6.73,3.59,1.16.71,2.12,1.74,3.94,3.28,0-2.83.06-4.84,0-6.84-.48-14.88.45-29.65,4.18-44.1.96-3.74,2.48-7.55,4.66-10.7,3.13-4.53,9.06-4.39,12.44-.02,1.67,2.16,3.05,4.69,3.93,7.27,2.02,5.9,3.68,11.92,5.44,17.91.77,2.62,1.41,5.28,2.99,8.36,5.04-4.02,9.52-7.6,14.01-11.17,1.09-.87,2.1-1.92,3.33-2.5,4.95-2.34,8.76-.02,9.03,5.41.07,1.38.01,2.76.01,4.13,3.12,1.29,6.2,2.28,9.01,3.78,6.78,3.59,9.02,9.07,6.22,16.25-1.4,3.59-3.74,6.87-5.95,10.08-1.41,2.06-3.37,3.74-5.73,6.28,2.12.4,3.53.71,4.96.94,2.5.39,5.03.67,7.52,1.12,3.5.63,6,2.3,6.39,6.23.38,3.76-1.19,6.32-4.59,7.72-4.69,1.93-9.44,3.72-14.41,5.67,2.78,1.44,5.75,2.93,8.67,4.52,3.45,1.88,7.07,3.56,10.24,5.85,5.67,4.1,5.57,10.51-.29,14.35-6.65,4.35-14.14,5.77-21.99,4.59-7.88-1.19-15.71-2.68-23.48-4.03,1.01,3.62,2.5,7.52,3.08,11.56.48,3.33.06,6.84-.35,10.22-.23,1.9-1.6,3.33-3.76,3.56-2.37.26-4.04-.69-5.03-2.86-.58-1.26-1.19-2.51-1.86-3.89-1.38.84-2.61,1.92-4.04,2.37-3.12.99-5.62-.08-6.53-3.32-1.67-5.99-2.71-12.15-4.24-18.18-1.07-4.23-2.21-8.48-3.88-12.49-1.18-2.85-3.34-3.02-5.38-.59-2.97,3.55-5.66,7.34-8.39,11.09-13.03,17.95-22.65,37.63-29.64,58.63-.2.6-.03,1.33-.03,3.07,1.3-1.56,2.14-2.37,2.76-3.33,6.73-10.36,14.33-20,23.5-28.31,2.4-2.17,5.06-4.06,7.71-5.93,1.11-.78,2.45-1.39,3.77-1.71,4.97-1.21,8.01,1.67,6.49,6.52-.8,2.55-2.41,5.12-4.34,6.97-6.18,5.96-12.47,11.83-19.09,17.29-6.96,5.73-14.52,10.72-21.45,16.49-2.33,1.94-4.01,5.09-5.1,8.02-4.11,11.05-7.87,22.23-11.74,33.38-6,17.28-11.99,34.56-17.96,51.85-.42,1.21-.59,2.51-.38,3.88,3.46-6.76,6.81-13.57,10.39-20.26,15.37-28.7,35.17-54,58.89-76.26,10.25-9.62,21.66-17.54,34.71-22.78,5.94-2.38,12.3-3.68,19.04-5.64-.45-2.4-1.13-5.45-1.56-8.53-.38-2.75-.65-5.53-.68-8.3-.09-7.47,4.3-10.06,10.74-6.17,2.53,1.53,4.71,3.73,6.76,5.91,1.88,2,3.36,4.39,5.33,7.03,3.15-3.01,6.05-6.24,9.42-8.88,3.99-3.13,8.13-6.24,12.65-8.44,4.49-2.19,8.32.8,8.32,5.89,0,1.83-.42,3.67-.76,5.49-.21,1.11-.64,2.17-.98,3.28,2.78,3.12,7.37,4.38,7.42,9.59.05,5.05-3.97,7.04-6.76,10.54,2.61,2.04,4.61,4.81,3.52,8.08-.83,2.47-2.73,4.72-4.57,6.68-1.71,1.82-3.97,3.13-5.99,4.67,1.18,1.6,2.25,3.06,3.27,4.45-1.93,5.48-2.73,6.12-7.64,6.41-4.49.26-8.81-.23-12.68-2.8-1.21.51-2.24,1-3.3,1.39-4.93,1.82-9.25.61-12.01-3.84-2.71-4.37-4.47-9.16-4.4-14.44.05-3.25.15-6.51.05-9.76-.1-3.34-.86-3.75-4.35-3.43-11.62,1.07-21.77,6.01-31.48,12.02-13.58,8.4-24.72,19.64-35.2,31.47-13.41,15.13-25.18,31.52-35.36,49.03-.41.71-.64,1.53-.3,2.73.61-.55,1.29-1.05,1.83-1.67,18.6-21.22,41.41-37,65.7-50.87,1.61-.92,3.3-1.7,4.99-2.47,1.67-.76,3.51-.59,4.26,1.03.59,1.29.73,3.36.07,4.5-.87,1.49-2.68,2.45-4.16,3.54-11.38,8.4-22.99,16.51-34.13,25.22-16.91,13.2-31.71,28.61-45.48,45.02-.73.87-1.18,1.98-1.77,2.99,1.54.69,3.11,1.09,4.31,1.99,3.15,2.33,3.97,5.71,2.2,9.16-.94,1.83-2.52,3.34-3.48,5.16-.53,1.02-.37,2.39-.55,3.79-1.67.48-2.5-3.1-5.1-1.39-2.49,1.63-3.2,3.73-3.38,6.38-.45,6.78,2.7,12.13,6.93,16.9,6.7,7.57,15.12,12.96,23.66,18.16,11.3,6.87,22.78,13.44,33.92,20.56,10.82,6.92,20.42,15.26,27.68,26.1,5.86,8.75,8.58,18.54,9.41,28.75,1.68,20.68-1.01,40.9-10.07,59.67-5.02,10.39-11.33,20.27-17.95,29.75-13.7,19.61-26.52,39.77-38.47,60.47-5.82,10.07-9.66,21.02-12.82,32.21-.48,1.71-.53,1.7-3.38,2.45-.68-3.84-1.47-7.65-2.01-11.5-3.18-22.92,1.17-44.37,13.66-63.82,8.27-12.87,17.35-25.23,26.18-37.73,9-12.73,17.45-25.7,21.42-41.06,2.8-10.84,4.5-21.8,3.94-33-.37-7.53-2.6-14.52-6.6-20.98-5.85-9.47-13.93-16.76-22.77-23.24-11.04-8.08-22.39-15.75-33.4-23.87-7.28-5.37-14.39-11.04-19.47-18.75-2.82-4.29-5.36-8.75-5.83-13.97-.28-3.12-.05-6.29-.05-9.85-2.16.51-3.03,2.1-3.43,3.77-3.4,14.16-6.45,28.41-10.11,42.5-2.7,10.38.15,20.14,2.1,30.08,3.07,15.62,6.15,31.24,9.03,46.9,3.26,17.67,6.34,35.37,9.39,53.07.38,2.21.05,4.54-.64,6.93-7.77-34.08-15.54-68.16-23.64-103.7-.74,3.53-1.41,5.7-1.62,7.92-1.88,19.45-1.82,38.97-1.39,58.47.25,11.56,1.44,23.1,2.46,34.63.81,9.22,1.61,18.47,3.14,27.58,2.18,12.96,4.09,26.05,9.81,38.13.24.51.19,1.16.36,2.38-.96-.45-1.57-.54-1.85-.9-8.84-11.15-13.4-24.26-16.84-37.79-3.6-14.17-5.57-28.59-5.8-43.25-.23-14.91-3.35-29.36-7.29-43.67-.92-3.32-1.85-6.64-3.11-11.17-3.39,34.22-15.21,64.68-28.3,94.79,4.12-16.69,8.47-33.33,12.29-50.08,3.79-16.61,6.91-33.37,6.01-50.71-5.67,17.83-11.59,35.58-16.94,53.5-3.9,13.05-7.41,26.23-10.42,39.51-2.69,11.91-4.43,24.03-6.65,36.05-.44,2.4-1.2,4.75-3.01,7.15-.29-.93-.87-1.88-.82-2.79.48-8.08.45-16.25,1.74-24.21,6.1-37.5,16.76-73.85,28.56-109.89,2.52-7.7,4.51-15.59,7.44-23.13,2.55-6.54.14-12.07-1.94-18.01-12.98,36.16-27.67,71.44-43.78,106.73-1.16-2.45-.19-4.16.44-6.01,6.87-20.11,13.79-40.21,20.47-60.38,5.68-17.14,11.01-34.39,16.62-51.55,1.47-4.48,2.26-8.76.84-13.48-4.34-14.4-8.4-28.87-12.97-44.69-4.79,12.22-14.31,17.78-23.95,23.25-10.73,6.09-22.18,10.54-33.57,15.16-11.89,4.82-22.96,11.13-32.87,19.33-12.29,10.18-19.03,23.8-23.14,38.84-3.44,12.58-5.46,25.45-4.46,38.52.54,7.12,1.64,14.29,3.41,21.21,2.39,9.37,7.56,17.37,14.23,24.4,7.19,7.58,14.66,14.94,21.34,22.96,13.86,16.62,23.67,35.47,28.57,56.62,3.36,14.51,1.87,30.64-.22,45.25-.51,3.53.46,7.38,1.27,10.97.55,2.48,2.72,3.65,5.33,3.63,3.72-.03,7.49.27,11.14-.21,11-1.46,21.9-3.71,32.93-4.75,9.16-.87,18.33-2.84,27.68-1,5.2,1.02,10.61.91,15.82,1.87,4.73.87,9.02,3.05,12.88,6.66-.84.63-1.31,1.28-1.83,1.33-8.08.66-16.17,1.2-24.25,1.87-4.15.35-8.27.99-12.41,1.37-14.52,1.32-29.04,2.74-43.58,3.8-6.92.5-14,1.31-20.72-1.12-2.94-1.06-5.72-2.87-8.2-4.82-1.45-1.13-1.64-3.88-4.57-3.08-.16.04-1.37-2.6-1.57-4.07-.92-6.87-1.5-13.79-2.49-20.65-1.57-10.83-5.31-21.08-9.09-31.27-3.3-8.9-6.91-17.69-10.75-26.37-5.12-11.58-12.73-21.52-21.2-30.86-5.15-5.67-10.1-11.51-15.09-17.33-9.51-11.08-14.52-24.22-16.65-38.41-4.03-26.91.86-52.6,11.85-77.22,7.33-16.42,19.52-28.53,34.68-37.97,12.73-7.92,26.75-12.65,40.67-17.8,10.2-3.77,20.17-8.17,30.12-12.57,5.43-2.4,9.5-6.52,12.43-11.8-1.05-2.41-2.26-4.64-2.99-7.02-.93-3.03,2.7-3.3,3.72-5.3-1.3-3.96-2.84-7.85-3.83-11.87-2.01-8.2-7.26-13.84-13.91-18.43-3.59-2.48-7.33-4.74-11.72-7.56-.62,6.22-6.29,9.55-6.14,16.24,4.89-2.88,9.19-5.42,14.14-8.34-.1,1.24.12,2.19-.26,2.62-2.31,2.61-4.63,5.23-7.19,7.59-1.5,1.39-3.31,2.69-5.21,3.35-4.38,1.51-7.55-.64-7.4-5.32.11-3.6,1.23-7.17,1.93-10.85-4.08-2.6-9.32-3.33-14.42-4.57-4.76-1.16-9.5-2.62-10.93-8.61,2.17-4.71,6.31-5.83,10.94-5.04,13.22,2.25,25.22,7.51,36.02,15.47,2.2,1.62,4.35,3.3,7.35,5.58-.71-2.42-1.04-3.94-1.59-5.36-5.05-12.95-10.24-25.84-15.14-38.84-1.22-3.24-3.28-4.66-6.41-5.59-16.02-4.76-30.23-1.55-42.6,9.55-3.96,3.55-7.5,7.56-10.93,11.05.36,2.34,1.16,4.19.81,5.79-1.09,4.96,1.21,8,5.18,10.13,3.47,1.86,7.23,3.19,10.63,5.15,12.93,7.47,19.37,18.86,19.6,33.71.07,4.42-2.16,7.14-6.03,8.29-3.6,1.07-6.24-1.06-8.87-2.91-.9-.63-1.66-1.69-2.09-2.72-1.78-4.19-5.12-6.31-9.24-7.8-4.16-1.51-7.93-3.73-11.08-7.02-4.39-4.58-6.31-10.09-6.82-16.23-.03-.33.52-.71,1.22-1.62,1.26,1.18,2.56,2.33,3.78,3.55,4.99,4.97,10.68,8.85,17.15,11.7,3.98,1.75,7.75,3.97,11.74,6.04-1.98-9.33-6.78-16.75-15.6-21.36-1.44-.75-2.75-1.73-4.19-2.47-6.09-3.12-9.72-7.76-9.06-14.89-13.67-1.98-27.18-.21-40.61-1.12-2.01-.14-3.99-.74-6.89-1.31,4,6.52,9.4,9.31,15.73,9.7,5.26.32,10.59-.51,15.88-.86,1.62-.11,3.23-.38,4.84-.42,2.04-.05,3.66.74,4.15,2.91.53,2.36-.31,4.32-2.54,5.1-3.04,1.05-6.23,1.67-9.43,2.49,1.55,1.07,3.14,2.17,6.12,4.23-2.89,0-4.13.2-5.29-.03-9.52-1.91-19.04-3.82-28.82-3.45-24.15.9-39.75,16.9-44.96,37.68-.61,2.43-.47,5.1-.33,7.64.22,3.94,2.07,5.57,5.96,4.59,3.55-.89,7.09-2.28,10.26-4.1,6.02-3.46,11.76-7.41,17.66-11.08,1.74-1.08,3.57-2.33,5.51-2.73,5.62-1.14,8.61,1.44,8.09,7.12-.27,2.93-1.47,5.77-2.39,9.19,1.77-.36,3.18-1.41,4.75-2.03,7.84-3.11,14.09-.37,17.22,7.64,1.59,4.07,2.87,8.27,4.54,13.14,2.22-1.72,4.02-3.02,5.72-4.46,1.6-1.35,2.97-2.98,4.63-4.23,4.47-3.37,9.28-5.33,15-2.56,1.39-2.43.61-4.62.05-6.8-2.3-8.94-4.63-17.87-6.89-26.82-.38-1.51-.47-3.1.1-4.97.71.99,1.58,1.91,2.1,2.99,4.13,8.55,8.37,17.05,12.21,25.74,1.76,3.99,2.71,8.35,3.98,12.55.2.66.21,1.38.23,2.08.16,6.19-4.24,9.56-10.09,7.51-2.38-.83-4.56-2.27-7.41-3.73-1.97,1.62-4.11,3.28-6.14,5.06-2.62,2.29-4.93,5.03-7.79,6.93-5.78,3.83-12.05,2.15-15.34-3.92-1.42-2.63-2.34-5.54-3.45-8.33-.91-2.29-1.77-4.61-2.99-7.81-3.67,2.74-6.54,4.98-9.5,7.09-3.02,2.15-6,4.34-10.12,3.86-4.03-.47-6.47-2.5-6.53-6.65-.05-3.16.6-6.33.96-9.65-5.21,2.48-10.35,4.88-15.45,7.37-4.6,2.25-9.49,2.17-14.34,1.67-5.4-.55-9.75-6.12-10.33-12.34-1.1-11.79,3.49-21.85,9.74-31.24,7.09-10.64,17-17.67,29.47-20.73,4.44-1.09,9.05-1.47,14.19-2.27-.9-1.28-1.68-2.28-2.35-3.35-2.33-3.72-4.74-7.4-6.86-11.23-.74-1.34-1.05-3.1-1.01-4.66.06-2.67,2.58-4.28,4.94-2.98,10.09,5.57,21.12,6.18,32.25,6.69,5.51.25,10.99,1.06,16.3,1.6,14.07-23.73,32.63-37.9,62.27-32.49-2.45-5.78-4.54-11.01-6.87-16.13-6.74-14.77-13.35-29.64-22.58-43.07-4.05-5.89-8.53-11.67-13.72-16.55-6.73-6.33-14.25-9.47-24.59-7.16-10.88,2.43-22.17.28-31.84-6.5-.95-.66-1.82-1.43-3.49-2.74.58,3.32,1.99,5.28,3.7,7.03,2.27,2.33,4.64,4.56,6.96,6.84,5.09,5.01,4.51,8.05-2.14,11.48-.29.15-.5.43-1.21,1.06,2.94-.23,5.36-.42,8.09-.64-.35,1.06-.37,2.01-.78,2.22-3.46,1.85-6.87,3.89-10.54,5.18-1.74.61-4.17.09-6.01-.63-4.12-1.62-5.4-4.79-3.8-9,.8-2.11,2.14-4.01,3.34-6.18-4.14-5.83-7.61-12.23-15.39-14.2-20.13-5.09-38.24,5.84-44.87,23.43-.57,1.5-.87,3.1-1.25,4.47.97,2.84,3.23,2.56,5.29,2.63,8.62.3,17.07-1.14,25.56-2.38,3.42-.5,6.95-.76,10.39-.53,5.5.36,7.84,5.5,4.69,10.09-1.3,1.9-3.04,3.51-4.68,5.15-5.76,5.73-11.56,11.42-18.46,18.23,2.7-.46,3.89-.6,5.06-.87,6.52-1.54,8.9.12,9.76,6.81.09.67.28,1.32.43,1.98,8.75-1.54,11.75.98,11.99,10.02.08,3,.01,6,.01,9.18,6.45-2.72,8.3-1.75,9.8,4.71.68,2.92,1.35,5.85,2.14,8.75.23.85.86,1.6,1.27,2.33,5-.89,7.63-3.15,18.71-16-.49-2.8-1.12-5.72-1.47-8.68-.25-2.13.02-4.25,2.27-5.4,2.1-1.07,5.08-.53,7,1.41.97.97,1.71,2.17,3.52,4.53-4.24-17.52-10.4-32.88-15.52-50.01,5.57,3.81,6.8,9.35,11.28,12.54-2.75-7.32-5.49-14.64-8.52-22.7,1.67.08,2.77.14,4.05.2,2.59-5.62,5.84-10.81,14.09-10.34-1.94,4.09-4.71,7.29-4.41,11.77.22,3.43.78,6.39,3.53,8.68,2.32,1.93,4.59,3.92,6.79,5.98,5.07,4.77,10.2,9.5,15.06,14.48,1.55,1.59,2.47,3.85,3.45,5.92,1.8,3.78,1.04,7.42-1.73,10.31-3.02,3.14-7.15,3.82-10.92,2.02-3.25-1.54-6.02-4.15-8.86-6.47-1.22-1-2.07-2.46-3.81-3.44.3,1.08.54,2.19.91,3.24,1.7,4.8,3.71,9.5,5.05,14.39.78,2.83.88,5.99.6,8.94-.43,4.58-3.56,8.11-7.47,7.64-5.67-.68-9.1,2.57-12.7,5.71-2.62,2.29-4.82,5.05-7.4,7.39-2.05,1.85-4.23,3.69-6.64,4.99-6.68,3.6-12.17,1.55-15.24-5.47-.73-1.67-1.24-3.43-2.02-5.64-1.44.42-2.68,1.07-3.92,1.08-3.55.03-5.61-2.14-5.97-6.23-.46-5.3-.77-10.61-1.2-16.77-1.61.68-2.7,1.21-3.85,1.61-5.45,1.91-8.46.03-9.07-5.68-.12-1.14-.02-2.3-.02-4.1-2.19.96-3.98,1.72-5.74,2.53-1.9.87-3.73,1.89-5.66,2.68-4.64,1.92-7.48,1.62-9.49-1.08-2.3-3.08-1.45-6.26.38-9.09,1.88-2.91,3.99-5.73,6.34-8.27,4.57-4.95,9.39-9.67,14.09-14.51,1.1-1.13,2.12-2.33,3.94-4.34-4.64.46-8.17.85-11.71,1.14-5.53.45-11.06,1.13-16.6,1.19-11.07.12-15.71-6.79-12.43-17.15,5.12-16.18,16.58-26.31,33.28-30.41,7.5-1.84,14.66-1.08,21.83,1.27.59.19,1.31.03,2.62.03-2.92-6.85-2.8-13.73-2.63-20.63.09-3.68,1.52-6.86,3.7-9.56,1.19-1.48,3.27-2.67,5.14-3.08,3.93-.86,6.23.98,6.65,5.02.26,2.53.24,5.13,0,7.66-1.28,13.73,7.6,22.44,18.19,26.5,4.56,1.75,9.23,2.97,14.18,2.84,3.01-.08,6.05.2,9.04-.06,10.06-.87,17.93,3.62,25.03,9.99,9.45,8.49,16.24,19.04,22.58,29.87,3.86,6.6,7.25,13.47,10.9,20.2.52.96,1.32,1.78,1.99,2.66l-.17-.15v.03ZM286.92,302.24c-.21.09-.59.15-.62.28-1.68,9.24-3.43,18.48-4.94,27.75-.39,2.42-.57,5.02.59,7.4,1.41-5.68,2.59-11.3,3.28-16.99.74-6.16,1.03-12.38,1.52-18.58,1.15-2.13,1.21-4.58.17-7.33v7.47h0ZM381.42,152.29c12.01-1.36,31.18,5.26,36.71,12.79-5.79-.88-11.12-1.7-16.78-2.57,5.61,10.96,26.03,18.09,40.46,11.61,1.03-.46,1.93-1.21,3.54-2.24-3.43-2.78-5.84-4.91-8.44-6.78-3.38-2.43-7.04-4.49-10.32-7.03-2.8-2.16-5.66-2.89-9.08-2.19-1.06.22-2.24-.11-4.53-.28,4.58-3.47,8.1-6.13,12.28-9.3-4.73-.69-8.42-1.06-12.03-1.8-5.16-1.06-7.28-6.32-4.43-10.73.62-.95,1.5-1.78,2.39-2.51,3.23-2.65,6.54-5.2,9.76-7.85,3.63-2.99,6.38-6.62,8.05-11.17-2.57-2.65-5.92-3-8.78-4.37-3.03-1.46-5.7-3.66-8.69-5.65-1.91,1.47-3.65,3-5.57,4.27-9.71,6.44-16.44,3.25-18.84-6.73-1.35-5.62-2.56-11.28-4.2-16.81-1.08-3.65-2.81-7.11-4.58-11.46-3.8,4.77-5.33,9.39-6.29,14.09-1.39,6.77-2.53,13.62-3.37,20.48-1.23,10.1-2.74,20.17.98,30.25,2.53,6.86,4.98,13.91,3.35,22.09,4.15-3.39,4.25-3.36,5.53-7.45,1.95-6.25,4.73-12.08,8.62-17.33,3.54-4.77,7.73-8.78,13.36-11.09-6.42,9.78-14.38,18.48-19.1,29.74v.02ZM268.32,289.03c.22-2.98.34-5.98.68-8.95,1.24-11.01,2.84-22,3.77-33.04.91-10.85,1.17-21.75,1.73-32.63.06-1.16.17-2.31.24-3.47.55-9.08,1.1-18.16,1.7-28.06-1.95.93-2.98,1.35-3.95,1.9-8.66,4.95-17.27,9.96-25.96,14.84-2.21,1.25-4.55,2.5-6.99,3.05-2.26.52-4.73.11-7.05.11,9.46,42.74,18.91,85.46,28.57,129.12,1.22-6.13,2.72-11.28,3.15-16.52.51-6.22.55-12.56-.02-18.77-.93-10.1-2.63-20.13-3.81-30.21-.78-6.66-1.32-13.36-1.74-20.06-.43-6.92-.75-13.86-.8-20.8-.02-2.73.57-5.56,1.43-8.16.41-1.25,1.97-2.65,3.25-2.95,1.73-.41,2.91,1.07,3.32,2.85.47,2.02.98,4.03,1.37,6.06,1.76,9.18,1.44,18.47,1.28,27.74-.09,5.3-.8,10.59-1.05,15.89-.35,7.34-.72,14.7.88,22.03v.03ZM223.8,120.13c.55,4.23.59,7,1.31,9.59,4.07,14.69,12.94,26.04,25.28,34.63,5.98,4.16,12.7,6.59,20.6,4.8-1.95-4.07-3.88-7.97-5.67-11.92-1.08-2.38-1.98-4.85,1.7-6.91,2.98,4.48,5.95,8.93,9.35,14.04,1.64-8.54,4.09-15.52,10.3-20.97-.48,5.14-.97,10.29-1.55,16.5,4.81-3.38,9.22-4.76,14.81-5.36-2.99,4.99-8.09,6.61-11.07,10.75,4.13,0,7.84.28,11.48-.1,2.19-.23,5.14-.87,6.23-2.4,3.2-4.51,7.96-6.99,11.87-10.53,4.29-3.88,8.28-7.99,10.34-14.44-12.29-.92-20.42,7.02-29.56,12.05-.48-.54-1.06-.91-1.01-1.19,1.21-7.68,2.48-15.34,3.86-23.7-3.23,2.52-5.76,4.8-8.58,6.64-6.27,4.09-12.22,2.29-15.46-4.52-.74-1.56-1.27-3.22-1.93-4.92-3.06,1.97-5.73,3.69-8.7,5.62,0,2.3.1,4.85-.03,7.38-.1,1.83-.24,3.73-.84,5.44-2.4,6.82-8.3,8.89-14.34,4.99-2.31-1.49-4.42-3.37-6.4-5.29-4.82-4.69-9.45-9.6-14.3-14.26-1.93-1.85-4.25-3.3-7.67-5.9l-.02-.02ZM464.9,218.22c-5.22-2.99-8.48-6.38-8.03-12.99-4.07,3.99-7.4,7.17-10.63,10.45-2.44,2.48-4.6,5.25-7.13,7.61-3.46,3.22-6.99,2.29-8.57-2.17-.69-1.95-.91-4.06-1.48-6.06-1.09-3.8-3.06-6.94-6.81-9.28-2.27,4.68-1.44,9-1.37,13.63,4.11.3,5.28,2.54,5.71,6.38.68,6.06,2.99,11.79,5.93,17.37,4.64-5.25,7.3-5.24,11.09-.22,1.52,2.02,2.85,4.24,5.09,4.57,2.51-2.62,4.63-5,6.93-7.19,2.14-2.03,6.05-2.14,6.97-6.27-1.56-.17-2.69-.26-3.81-.43-1.13-.17-2.32-.26-3.36-.68-3.7-1.47-4.38-4.94-1.46-7.62,1-.92,2.33-1.48,3.5-2.23,2.26-1.47,4.52-2.95,7.44-4.87h0ZM203.47,277.78c4.07,9.79,8.32,19.51,12.16,29.39,5.69,14.63,11.07,29.39,16.64,44.08,1.62,4.29,2.95,4.93,8.3,4.46.07-.45.25-.92.17-1.34-.43-2.26-.88-4.52-1.39-6.77-3.83-16.95-8.7-33.55-17.11-48.87-4.57-8.34-10.12-15.98-18.78-20.94h0ZM266.51,483.53c.73-9.52,1.22-18.29,2.12-27,1.07-10.31,2.38-20.59,3.8-30.85.71-5.14-.45-9.7-2.8-14.69-3.17,8.7-5.98,16.76-9.05,24.72-2.16,5.62-2.28,11.38-1.31,17.1,1.62,9.53,3.69,18.99,5.63,28.47.12.59.74,1.07,1.6,2.26h0ZM285.46,174.29c12.48,7.41,25.27,11.77,39.49,10.62-.74-11.28-9.58-13.34-17.45-16.46-4.63,2.93-11.98,4.88-22.05,5.84h.01ZM203.76,193.19c-5.13-13.41-12.01-25.4-20.97-36.09-2.86-3.42-6.24-6.28-10.47-7.84-1.48-.54-3.23-.35-5.44-.54,12.72,15.34,24.8,29.91,36.88,44.47h0ZM264.03,382.6c-6.26,2.19-7.2,7.33-7.84,12.61-.11.91-.04,1.86.03,2.79.49,5.98,1,11.96,1.5,17.95,2.63-4.95,4.27-10.13,6.29-15.16,2.46-6.12,2.68-12.13.01-18.18h0ZM137.65,231.95c-5.85-9.63-14.86-15.15-23.43-21.28,1.87,5.25,4.66,9.92,8.03,14.22,1.99,2.53,4.01,5.15,6.48,7.15,2.28,1.85,5.17,3.22,8.92-.09ZM367.74,205.89c-1.3.31-1.82.29-2.17.54-12.74,8.85-23.07,19.97-31.24,33.12-.06.1.45.56.7.84,14.04-12.41,30.05-29.15,32.71-34.5h0ZM226.35,245.96c-.04-5.03-8.49-26.84-12.76-33.18-.11,12.45,2.24,24.4,12.76,33.18h0ZM248.58,187.78c10.08-3.83,19.01-7.23,27.85-10.59-3.35-3.97-5.98-4.88-10.27-2.53-6.03,3.3-12.11,6.65-17.58,13.13h0ZM401.12,171.18c-3.32-11.49-3.73-13.07-17.74-12.3,4.66,6.39,7.74,8.57,17.74,12.3ZM380.62,169.43c-.33.26-.67.53-1,.79,2.12,7.09,4.24,14.18,6.36,21.26l.97-.17c.87-3.79,1.74-7.58,2.73-11.84-2.95-3.27-6-6.66-9.06-10.04ZM333.98,308.81c-9.58,7.59-18.63,15.86-25.1,26.47-.73,1.2-.86,2.77-1.73,5.73,9.69-11.63,18.26-21.91,26.82-32.2h.01ZM245.52,393.64c1.04-8.41-.53-16.18-2.26-23.94-1.84-.5-3.27-.9-5.44-1.49,2.71,8.95,5.21,17.19,7.7,25.44h0ZM276.48,402.18c2.15-8.43,4.27-16.77,6.4-25.1-3.01,5.43-4.99,11.15-7.23,16.77-1.2,3-.89,5.63.84,8.33h0ZM269.69,352.89c.54.17,1.08.34,1.63.51,1.31-3.73,7.34-6.34,1.79-12.12-1.21,4.1-2.31,7.85-3.42,11.6h0ZM263.49,244.42h.66v-15.51h-.66v15.51ZM264.85,259.44c.91-4.18.96-8.21,0-12.2v12.2ZM243.41,277.84c-1.99,3.24.03,5.69,1.76,8.23-.59-2.74-1.17-5.48-1.76-8.23ZM272.76,373.7c-.61-.08-1.22-.16-1.82-.24-1.39,1.46-.88,3.07.72,4.86.37-1.54.73-3.08,1.1-4.62ZM302.19,347.28c2.22-.89,3.85-2.21,2.54-4.84-.85,1.61-1.69,3.23-2.54,4.84ZM289.27,286.32l-.55.02v5.23h.55v-5.25Z"/>
  <path class="cls-1" d="M339.06,386.15c-1.18,0-2.82.49-3.45-.1-1.67-1.57-2.52-3.49-1.97-6.18,2.04-9.94,8.21-17.05,15.74-23.05,18.68-14.9,39.94-24.32,63.55-27.79,10.31-1.52,20.79-1.16,30.74,3.23,10.26,4.52,17.36,12.19,22.66,21.77,6.41,11.57,9.13,24.2,10.1,37.24,1.23,16.4-1.8,32.29-6.28,47.97-5.87,20.56-14.53,40.02-23.43,59.39-5.81,12.63-11.29,25.38-15.31,38.73-1.62,5.38-2.73,10.79-2.37,16.42.27,4.18,1.75,5.99,5.85,6.38,5.74.54,11.72,1.6,16.36-4.17,3.69,3.65,3.43,7.59,1.99,11.6-5.04,14.04-22.86,20.18-36.33,10.42-7.38-5.34-11.16-12.87-11.73-21.96-.49-7.94.49-15.68,2.72-23.36,3.81-13.18,9.25-25.69,14.94-38.12,7.24-15.8,14.68-31.51,21.48-47.5,6.08-14.3,10.68-29.16,12.29-44.69,1.52-14.73.07-29.14-6.4-42.79-5.79-12.21-15.6-17.74-28.75-18.37-16.85-.81-32.57,3.61-47.79,10.24-9.8,4.28-19.39,9.12-27.18,16.61-3.45,3.31-6.17,7.45-8.86,11.46-1.37,2.04-1.27,4.41,1.43,6.61h0Z"/>
  <path class="cls-1" d="M410.89,498.12c-1.09-4.6-2.24-7.83-2.57-11.15-1.1-11.05.61-21.59,5.47-31.75,6.39-13.36,12.28-26.96,18.32-40.49,5.65-12.66,5.99-26.05,5.21-39.56-.1-1.82-.83-3.59-1.17-5.4-2.7-14.29-14.77-17.49-25.11-15.37-10.2,2.09-19.13,7.02-27.56,12.74-12.09,8.2-23.67,17.14-33.84,27.71-2.88,3-5.45,6.29-8.21,9.41-1.14,1.29-2.4,2.47-3.84,3.94-1.21-2.8-.28-4.61.99-6.32,2.61-3.53,4.98-7.3,7.93-10.53,13.17-14.48,27.8-27.2,44.8-37.14,7.54-4.41,15.54-7.23,24.04-8.43,7.71-1.09,21.17,2.67,26.41,13.2,2.95,5.92,4.79,12.15,5.3,18.56,1,12.51.76,25.08-3.71,37.06-4.13,11.05-8.51,22-13.06,32.89-3.93,9.4-8.54,18.52-12.28,27.98-2.7,6.82-4.46,14.02-7.13,22.64h.01Z"/>
  <path class="cls-1" d="M185.08,236.67c-1.09-6.31-1.81-12.72-3.36-18.92-2.5-10.03-5.52-19.94-8.39-29.87-.77-2.65-1.9-5.23-.16-8.08,3.13.09,4.51,2.43,5.7,4.53,5.05,8.88,8.7,18.21,10.48,28.4,1.62,9.21.77,18.3.45,27.5-3.24-5.08-1.51-11.06-3.16-16.47-1.59-5.21-2.13-10.73-3.59-16.04-1.55,4.11.66,7.83,1.04,11.73.47,4.77,1.43,9.5,1.98,14.27.1.88-.76,1.87-1.17,2.81l.17.15h.01Z"/>
</svg>