<?xml version="1.0" encoding="UTF-8"?>
<svg id="Layer_1" data-name="Layer 1" xmlns="http://www.w3.org/2000/svg" version="1.1" viewBox="0 0 489.99 557.64">
  <defs>
    <style>
      .cls-1 {
        fill: #000;
        stroke-width: 0px;
      }
    </style>
  </defs>
  <path class="cls-1" d="M282.78,241.48c4.67-.04,9.35-.31,14-.03,3.62.22,6.96,1.58,8.73,5.15.24.49-.04,1.24-.08,1.88-.54-.06-1.18.04-1.62-.21-9.13-5.08-21.71-3.75-30.48,3.3-4.59,3.69-7.98,8.3-10.54,13.6-5.05,10.47-8.01,21.58-10.39,32.89-.84,4,.25,8.03-1.17,12.16-1.41,4.09-1.24,8.75-1.55,13.18-.3,4.22-.43,8.45-.43,12.68,0,2.88.15,5.79.57,8.64.36,2.48,2.09,4.02,4.66,3.83,2.86-.21,5.84-.38,8.51-1.31,21.9-7.64,40.79-19.63,54.66-38.66,6.11-8.38,9.85-17.83,12.64-27.73,1.71-6.07-1.97-10.16-5.11-14.43-.76-1.04-2.11-1.62-3.05-2.55-.55-.55-.82-1.38-1.22-2.09.83-.24,1.65-.66,2.5-.7,3-.14,5.77.7,7.99,2.74,1.78,1.64,2.59.75,3.28-.94.33-.82.53-1.7.93-2.49,5.66-11.1,12.81-12.47,22.56-10.47,6.54,1.34,12.71,3.91,18.26,7.79.39.28,1.09.12,1.64.17-.1-.41-.14-.85-.31-1.23-3.52-7.95-10.06-11.52-18.31-12.45-7.23-.81-14.12.78-20.88,3.21-.5.18-1.19-.17-1.79-.27.33-.51.55-1.21,1.01-1.49,8.69-5.18,18.02-7.43,28.08-5.59,10.45,1.91,18.51,13.13,17.14,23.72-.13.97-.89,1.86-1.35,2.78-.88-.46-1.98-.71-2.6-1.4-7.81-8.64-17.96-10.83-28.97-10.52-3.71.1-6.04,2.53-7.81,5.53-3.27,5.55-4.58,11.76-4.04,17.95,1.17,13.54,4.21,26.73,9.49,39.33,5.67,13.52,15.01,24.07,26.49,32.88,13.06,10.02,26.18,19.98,39.27,29.95.71.54,1.45,1.04,2.21,1.49,2.59,1.53,3.46,1.38,4.34-1.62,1.75-5.95,2.98-12.05,4.74-17.99,4.39-14.89,9.03-29.7,13.42-44.59,2.51-8.5,4.71-17.06,4.92-26.04.61-26.37-20.47-43.01-39.71-43.6-.89-.03-1.82,0-2.64-.29-.48-.16-.78-.85-1.17-1.31.34-.24.65-.6,1.02-.69,17-4.15,33.07,2.98,42.69,18.81,7.21,11.86,8.42,24.81,5.92,37.99-2.02,10.63-5.31,21.03-8.12,31.51-4.07,15.2-8.19,30.39-12.33,45.58-.58,2.14-1.2,4.31-2.16,6.29-2.61,5.42-7.24,7.14-12.75,4.76-1.82-.79-3.57-1.86-5.14-3.08-13.53-10.51-26.98-21.13-40.52-31.63-18.49-14.32-28.72-33.51-33.29-56.08-.22-1.09-.32-2.21-.66-3.26-.27-.82-.82-1.54-1.25-2.3-.36.76-.73,1.51-1.09,2.27-7.37,15.9-18.08,29.02-32.55,38.97-11.76,8.09-23.91,15.43-37.97,18.92-1.08.27-2.14.68-3.23.8-9.27,1.05-14.63-3.01-15.28-12.37-.4-5.73.23-11.54.49-17.31.16-3.55.61-7.09.71-10.64.08-2.78-.56-3.17-3.18-1.89-9.27,4.52-17.78,10.09-24.39,18.21-.62.77-1.52,1.31-2.28,1.96-.24-1.23-1-2.69-.6-3.65.85-2,2.2-3.83,3.57-5.55,1.22-1.53,1.66-2.24.08-4.3-3.47-4.54-6.81-9.45-8.9-14.72-2.85-7.21-8.31-9.26-15.02-9.98-15.51-1.67-29.01,2.89-40.52,13.32-17.94,16.25-30.22,36.08-36.39,59.47-3.06,11.61-2.06,23.35.67,34.98.58,2.46,1.13,2.5,2.58.76,5.69-6.82,13.08-10.76,21.75-11.83,5.47-.68,11.09-.59,16.62-.32,4.18.21,8.31,1.43,12.49,1.88,10.32,1.12,20.64.39,30.11-3.82,10.64-4.74,17.75-12.77,22.25-24.12,3.56-8.96,4.04-17.36,2.59-26.38-.14-.87-.36-1.88-.06-2.64.51-1.31,1.39-2.48,2.11-3.71.94.83,2.43,1.49,2.73,2.51,3.58,11.93,5.33,23.84-.95,35.54-1.89,3.52-3.23,7.36-5.4,10.68-8.07,12.36-19.91,18.47-34.28,20.66-8.74,1.33-17.22.48-25.84-.75-5.91-.85-11.98-.88-17.97-.85-8.79.04-15.82,3.93-21.27,10.75-.97,1.22-1.78,2.57-2.79,3.75-3.79,4.42-8.01,3.84-10.11-1.72-1.4-3.7-2.05-7.7-2.8-11.61-3.11-16.32-1.9-32.28,4.26-47.77,8.02-20.18,19.7-37.83,36.31-51.99,2.7-2.3,5.71-4.23,8.56-6.35.48-.36.88-.83,1.32-1.25-.62,0-1.27-.1-1.87.03-3.24.69-6.44,1.71-9.72,2.12-8.58,1.06-16.86-.47-24.76-3.84-10.83-4.63-21.59-9.41-32.37-14.18-7.09-3.14-12.82-7.92-17.14-14.4-1.98-2.96-4.03-5.88-6.2-8.69-8.13-10.56-18.83-17.46-31.32-21.78-2.1-.73-4.17-1.53-6.3-2.15-2.09-.61-3.78-1.54-3.64-4.03.14-2.49,1.83-3.14,4.07-3.47,10.44-1.52,19.29-6.56,27.39-12.99,5.93-4.7,11.59-9.73,17.37-14.62,7.88-6.67,16.45-12.06,26.47-15.03,14.57-4.32,28.64-2.09,42.28,3.39,6.97,2.8,13.57,6.59,20.15,10.28,12.93,7.27,19.35,19.16,22.76,33.05.26,1.07.39,2.18.53,3.28.47,3.71,2.32,5.84,5.83,7.73,4.18,2.25,7.71,5.88,11.11,9.33,2.47,2.51,4.25,5.69,6.38,8.54.32.42.86.68,1.29,1.01.1-.43.26-.85.29-1.29.06-.89.04-1.78.07-2.67.08-1.92.75-4,2.76-3.85,1.36.1,3.28,1.68,3.77,3.03,2.05,5.62,3.66,11.4,5.44,17.11.13.42.33.82.49,1.23.34-.41.8-.77,1.01-1.24.55-1.21.9-2.52,1.5-3.7,1.51-2.97,2.91-6.02,4.72-8.81,2.35-3.62,4.89-4.76,7.01-3.7,2.52,1.27,2.96,3.7,1.48,8.23-.14.42-.23.86-.37,1.28-.94,2.81-1.9,5.62-2.84,8.43,2.51-1.33,4.92-2.9,7.56-3.89,1.47-.55,3.57-.69,4.91-.04,2.12,1.03,2.02,3.53,1.2,5.33-1.08,2.39-2.53,4.73-4.28,6.67-3.42,3.8-7.19,7.28-10.77,10.95-.94.96-1,1.93.58,2.43,1.47.46,3.07.72,4.37,1.49,4.28,2.54,4.6,6.56.84,9.83-.99.86-2.42,1.23-3.35,2.13-.57.56-.58,1.71-.83,2.6.87.21,1.79.71,2.61.57,3.28-.53,5.29-1.76,5.81-5.84,1.52-11.89,4.55-23.48,9.25-34.56,3.77-8.89,8.22-17.4,16.79-22.67,3.53-2.18,7.49-3.67,11.25-5.48l-.18.15.04.04ZM237.49,280.28c-.43.45-.85.91-1.28,1.36-.22,0-.49-.1-.66-.01-3.08,1.56-6.37.8-9.59,1.04-4.84.36-4.74-3.84-6.57-6.29-.13-.17-.37-.44-.49-.41-.48.14-1.35.42-1.33.57.51,4.7.42,9.62,1.9,14.01,1.45,4.31,4.49,8.09,6.84,12.1,1.07,1.83,2.26,1.93,3.57.32.28-.34.53-.79.9-.94,1.56-.64,3.17-1.18,4.75-1.76-1.91-.74-3.81-1.5-5.72-2.23-.62-.24-1.31-.33-1.89-.64-2.53-1.38-3.3-3.73-1.71-6.12,1.09-1.63,2.65-2.96,4.06-4.35,1.89-1.85,3.84-3.63,5.77-5.43.44-.44.88-.89,1.32-1.33.13-.07.26-.14.39-.2-.09.11-.18.22-.27.32h.01ZM221.31,308.35c-.16-.66-.32-1.33-.48-1.99-.1.15-.31.36-.27.43.27.49.59.96.9,1.43.53,2.79,1.03,5.58,1.61,8.36.1.47.75,1.26.82,1.23.98-.47,1.98-.98,2.8-1.67.27-.22.29-1.2.04-1.51-1.75-2.14-3.6-4.19-5.42-6.27h0ZM115.8,185.18c-8.64-.42-17.92,2.43-26.22,7.99-5.7,3.82-11.05,8.22-16.27,12.69-8.95,7.68-17.8,15.45-28.63,20.5-.6.28-1.14.67-1.71,1.01.54.37,1.04.8,1.62,1.1,4.89,2.62,9.96,4.93,14.64,7.88,8.64,5.45,14.73,13.46,20.35,21.79,3.7,5.47,8.27,9.87,14.29,12.66,10.07,4.67,20.04,9.59,30.28,13.87,5.25,2.19,10.92,4.19,16.53,4.59,20.84,1.5,36.45-8.32,44.93-27.4.63-1.42,1.2-2.86,1.87-4.26.67-1.4,1.38-2.78,2.16-4.12.18-.31.9-.68,1.03-.58.46.35.87.85,1.11,1.38.17.37.13.9.02,1.31-3.37,12.34-7.25,24.39-19.05,31.67-.19.12-.41.21-.54.38-.33.43-.61.89-.92,1.33.43.06.88.24,1.28.16.87-.17,1.7-.53,2.56-.71,3.33-.69,7.83.98,8.76-4.57.09-.55,1.86-1.02,2.9-1.18,3.29-.5,6.6-.79,9.89-1.25,1.96-.28,3.92-.62,5.83-1.12,1.49-.38,1.54-1.35.47-2.34-1.96-1.8-4.07-3.46-5.87-5.4-.61-.66-1.01-2.39-.6-2.94.67-.89,2.15-1.74,3.19-1.64,1.43.14,3.06.9,4.08,1.91,2.48,2.49,4.64,5.31,6.97,7.95.99,1.13,2.11,2.15,3.16,3.21.02-1.38.11-2.76.04-4.14-.06-1.1-.56-2.21-.46-3.28.51-5.54-1.97-9.93-5.25-13.98-2.94-3.62-5.92-7.22-9.09-10.64-3.18-3.45-6.79-6.33-11.39-7.87-5.22-1.74-10.48-1.55-15.8-.93-.79.09-1.6,0-2.4,0,.62-.81,1.11-2.13,1.89-2.33,3.19-.82,6.44-1.6,9.71-1.84,5.34-.38,5.25-.16,3.34-5.46-4.92-13.7-13.42-24.35-26.08-31.75-12.78-7.47-25.88-13.76-42.63-13.68v.02ZM211.33,296.82c.15-.72.38-1.18.3-1.59-.53-3.03-.35-5.72,3.01-7.08,1.66-.67,1.06-1.6.19-2.4-3.13-2.85-6.35-3.09-9.62.28-2.29,2.36,1.64,3.22,2.42,4.94.71,1.57,1.89,2.92,2.85,4.37.24.36.43.76.85,1.48h0Z"/>
  <path class="cls-1" d="M393.8,139.89c-.54.32-1.3.51-1.58.99-2.89,4.94-5.81,9.87-8.49,14.92-2.75,5.18-5.62,10.36-7.73,15.81-2.07,5.34-3.49,10.97-4.71,16.59-.46,2.11-1.75,4.63.16,6.92.08.1-1.11,1.63-1.93,1.99-.42.19-1.79-.6-1.93-1.15-.31-1.25-.3-2.65-.12-3.96,1.35-9.9,3.21-19.68,7.31-28.9.78-1.76,1.35-3.19-1.74-3.36-3.06-.17-6.05-1.41-9.12-1.72-4.4-.44-8.85-.72-13.26-.58-3.34.11-3.97,1.02-3.12,4.27.71,2.73.69,5.2-.26,7.81-2.01,5.51-6.37,7.48-11.58,5.08-.8-.37-1.59-.81-2.31-1.33-1.42-1.03-3.52-3.32-4.04-3-1.77,1.1-3.28,2.94-4.35,4.81-2.51,4.36-4.78,8.87-6.93,13.42-.33.7.24,2.21.87,2.92,3.98,4.47,8.06,8.84,12.21,13.15.3.31,1.87.07,2.04-.28.63-1.4.83-2.98,1.39-4.43,1.41-3.66,2.31-7.53,7.31-8.48,1.89-.36,3.36-2.75,5.09-4.14,2.95-2.36,5.79-4.9,8.99-6.85,1.24-.75,3.8-.71,4.9.11,1,.75,1.39,3.15,1.12,4.65-1.34,7.41-5.43,13.53-9.8,19.46-.79,1.07-1.8,1.97-2.67,2.99-.28.33-.42.77-.63,1.16.62.17,1.35.63,1.85.45,1.45-.51,2.77-1.35,4.2-1.94,3.27-1.37,6.49-2.92,9.88-3.91,2.05-.6,4.37-.49,6.54-.29.75.07,1.38,1.37,2.06,2.11-.68.46-1.31,1.13-2.06,1.33-5.12,1.4-10.26,2.77-15.42,4.02-2.06.5-1.98,1.29-.67,2.53,2.1,1.99,4.29,3.89,6.27,6,1.36,1.44,2.66,3.05,3.5,4.82.46.96.2,2.57-.34,3.55-.25.45-2,.28-2.99.05-.82-.19-1.51-.91-2.28-1.36-4.66-2.69-5.5-2.51-8.41,2.15-1.88,3.01-3.4,6.27-5.44,9.17-2.81,4-6.54,3.65-8.85-.6-.21-.39-.35-.82-.49-1.23-.65-1.87-1.29-3.74-1.94-5.62-1.46,1.86-3.02,3.65-4.36,5.59-2.15,3.11-4.05,6.38-6.25,9.44-1.02,1.42-2.3,3.01-3.82,3.61-1.67.66-3.99.83-5.59.17-2-.83-2.42-3.23-1.62-5.23,1.47-3.7,3.21-7.29,4.89-10.9.65-1.4,1.44-2.74,2.17-4.1-1.71-.12-3.43-.4-5.13-.32-2.44.11-4.86.76-7.28.69-3.75-.09-7.54-.36-11.21-1.07-1.04-.2-2.46-2.23-2.38-3.32.08-1.09,1.7-2.74,2.85-2.94,2.59-.45,5.31-.13,7.98-.16,1.5-.02,1.95-.68,1.07-2.01-.24-.37-.49-.76-.64-1.17-2.36-6.6-.31-10.25,6.48-11.55,3.64-.7,3.6-.67,2.04-3.7-1.01-1.96-1.91-3.99-2.8-6.02-.99-2.26-.57-4.21,1.08-6.13.89-1.04,1.9-2.66,1.71-3.84-1.15-7.31-3.44-14.24-8.16-20.13-1.98-2.47-2.54-2.35-4.52.03-13.23,15.89-30.62,21.31-50.58,19.57-5.58-.49-10.46-3.61-15-6.9-2.52-1.83-4.97-3.77-7.3-5.83-8.28-7.32-17.42-13.02-28.36-15.5-2.36-.53-4.72-1.4-6.82-2.59-4.13-2.33-4.93-6.45-1.88-10.13,1.82-2.19,4.05-4.19,6.43-5.75,5.76-3.77,11.68-7.33,17.62-10.8,9.36-5.48,19.57-8.35,30.32-9.28,2.08-.18,2.71-.63,1.75-2.75-.85-1.9-2.5-4.16.17-5.93,2.41-1.59,4.58,0,5.89,1.6,4.9,5.93,11.51,6.7,18.5,7.21,3.47.26,6.88,1.6,10.27,2.62,1.56.47,2.84.59,2.39-1.45-1.79-8.22-3.71-16.42-5.71-24.59-.23-.93-1.25-1.67-1.91-2.49-.82.7-1.72,1.31-2.42,2.11-.73.83-1.16,1.92-1.89,2.74-1.62,1.83-3.2,3.74-5.06,5.3-3.29,2.78-7.62,3.31-9.78,1.47-1.94-1.65-2.01-5.46-.19-9.34,1.45-3.08,2.87-6.17,4.3-9.26-3.27.29-6.55.55-9.82.89-2.2.23-4.39.71-6.59.86-2.2.16-4.55.5-6.6-.09-1.38-.4-2.69-2.11-3.29-3.55-.2-.48,1.74-2.47,2.96-2.8,2.75-.74,5.66-1.08,8.52-1.2,2.36-.1,4.29-.17,5.06-3.01.93-3.47,3.82-3.97,6.9-3.88,2.07.06,2.93-.47,1.67-2.66-1.44-2.5-2.9-5.04-3.85-7.75-.76-2.18-1.91-5.1.8-6.64,2.69-1.54,4.57.77,6.12,2.65s2.89,3.95,4.28,5.95c2.77,3.98,6.41,3.88,8.16-.73,1.11-2.93,2.85-4.92,5.06-6.77.51-.43,1.04-.98,1.64-1.12,1.41-.33,3.26-1.05,4.21-.46.91.56,1.62,2.88,1.18,3.91-.96,2.27-.73,3.3,1.77,3.38,3.72.11,7.45.04,11.17.22,1.43.07,3.27.13,4.15.98,1.52,1.48.65,3.3-.7,4.7-7.03,7.36-12.26,16.46-21.2,22.01-.64.4-1.23,1.86-1,2.54,3.05,9.15,3.49,18.7,4.57,28.16.14,1.2.91,2.4,1.59,3.46.47.72,1.5,1.08,1.93,1.81,4.76,8.06,13.11,6.81,20.52,8,2.01.32,2.9-.66,2.76-2.62-.19-2.66-.42-5.32-.61-7.97-.24-3.32-.65-6.66-.56-9.97.04-1.25,1.01-3.12,2.04-3.55,1.59-.67,2.79.67,3.34,2.38.96,2.95,1.92,5.91,3.06,8.8,1.02,2.56,2.01,2.66,3.53.45,1.38-2.02,2.57-4.16,3.94-6.19,1.36-2.03,2.69-4.11,4.29-5.94,1.77-2.02,3.94-4.06,6.87-2.95,3.26,1.23,2.47,4.3,2.35,6.94-.05,1.1-.05,2.21-.07,3.32-.18.03-.37.02-.52.11-.09.05-.09.24-.13.37.18-.2.37-.39.55-.59,2.22-.01,4.46-.22,6.66,0,4.06.41,6.21,3.5,4.17,6.97-2.07,3.53-5.26,6.44-8.12,9.47-1.22,1.3-2.32,1.53.48,2.42,5.8,1.85,6.39,5.07,2.64,10.74-.4.6-.64,1.32-.95,1.98.63-.04,1.29,0,1.9-.14,7.83-1.76,15.42-1.28,22.7,2.36,1.19.59,2.48.97,3.66,1.58,2.59,1.33,3.98.35,5.21-2.09,6.34-12.56,14.58-23.89,23.23-34.92,3.41-4.35,4.79-5.25,6.66-3.7,2.91,2.41.72,4.91-.21,7.22-4.08,10.08-8.28,20.11-12.44,30.15-.76,1.83-.37,2.43,1.62,1.71,9.01-3.25,18.01-.54,27.03.06,8.17.54,16.35,1.15,24.52,1.1,7.09-.05,9.34,1.56,9,8.83-.46,9.81-4.45,18.45-9.48,26.68-5.65,9.25-13.51,16.49-21.49,23.61-3.32,2.96-6.92,5.59-10.32,8.45-.92.77-1.6,1.83-2.39,2.76,1.21.51,2.38,1.22,3.64,1.51,3.67.84,7.43,1.34,11.07,2.29,11.15,2.91,22.25,5.99,33.38,8.97,3,.8,6.02,1.52,9.04,2.2,9.77,2.2,12.81,6.68,10.26,16.34-2.44,9.25-7.29,17.14-14.93,23.13-.18.14-.35.28-.54.4-2.58,1.64-5.17,3.28-7.75,4.91-.24-3.61,3.27-4.8,4.78-7.31,3.19-5.33,7.1-10.24,10.08-15.67,1.76-3.21,2.79-7.03,3.29-10.69.58-4.23-2.96-7.25-6.67-5.38-7.49,3.77-14.35,1.25-21.24-1.01-6.74-2.21-13.24-5.15-19.92-7.55-5.84-2.1-11.74-4.04-17.7-5.76-3.64-1.05-7.34-.91-11.18-.02-3.6.83-7.74,1.51-11.14.54-8.95-2.57-16.57.58-24.3,4.08-1.62.73-3.17,1.61-4.79,2.33-.3.14-1.05-.04-1.15-.26-.22-.52-.45-1.45-.19-1.69,1.95-1.77,3.83-3.76,6.09-5.04,8.68-4.93,18.27-6.92,28.1-7.2,4.77-.14,8.48-1.42,12.06-4.47,9.64-8.22,19.77-15.87,29.16-24.36,8.03-7.26,13.56-16.4,16.36-27.01.17-.64.54-1.24.63-1.89.56-4.34.61-5.06-4.18-5.04-12.04.04-23.75-2.72-35.56-4.6-3.25-.52-6.64-.76-9.92-.47-5.18.45-8.65,2.86-10.7,8.3-4.3,11.41-9.1,22.6-11.58,34.61-.1.47-.67.85-1.02,1.27-.21-.57-.63-1.15-.6-1.71.65-15.05,5.43-29.1,10.44-43.1,1.71-4.77,3.17-9.62,4.75-14.43.42-.9.84-1.8,1.26-2.7.16-.08.33-.14.48-.25.08-.06.12-.19.17-.28l-.5.68c-.45.87-.9,1.73-1.35,2.6v-.03ZM321.65,237.45c-.42.89-.84,1.79-1.25,2.68-.17.07-.37.13-.52.23-.09.06-.11.21-.17.32.18-.24.35-.47.53-.7.42-.89.85-1.78,1.27-2.68.48-.42.96-.84,1.44-1.25.41-.91.83-1.82,1.24-2.73.48-.43.95-.87,1.43-1.3.42-.89.83-1.77,1.25-2.66.14-.1.29-.19.42-.29.07-.06.12-.15.19-.23-.16.22-.31.44-.47.66-.41.89-.83,1.79-1.24,2.68-.48.43-.96.85-1.44,1.28-.42.91-.84,1.81-1.26,2.72-.48.42-.96.84-1.43,1.26h.01ZM335.03,117.21c-.9,1.32-1.8,2.64-2.7,3.97-1.71,2.23-3.38,4.51-5.16,6.69-2.42,2.97-3.78,3.31-7.49,1.97-.58-.21-1.07-.66-1.6-1-.11,1.95-.32,3.9-.21,5.84.01.25,1.69.59,2.6.58,4.22-.04,8.43-5,12.72,0,.17.2,1.3-.15,1.76-.52,3.62-2.9,7.21-5.84,10.76-8.83.38-.32.41-1.06.6-1.61-.64-.09-1.36-.42-1.9-.23-2.49.89-4.95,1.87-7.38,2.91-1.75.74-3.44,2.64-5.38.82-1.95-1.83-.28-3.63.54-5.38.17-.36.07-.86.09-1.29,1.92-.67,2.81-2,2.63-4.03.18-.31.36-.62.54-.93-.14.35-.28.7-.42,1.05h0ZM258.8,126.57c-.09-.19-.14-.39-.27-.55-.07-.08-.24-.08-.37-.12.26.17.52.34.78.51.63,1.63.98,3.44,1.93,4.85,4.62,6.8,9.4,13.5,14.13,20.23,1.02,1.45,2.1,2.87,3.07,4.35.15.23.03.88-.2,1.08-.28.24-.95.41-1.18.24-1.96-1.44-4.26-2.65-5.71-4.51-5.44-7.01-10.76-14.14-15.81-21.43-3.91-5.64-2.47-6.85-10.28-4.94-2.15.52-4.41.54-6.59.96-15.27,2.97-27.7,11.68-40.34,19.97-.37.24-.7.56-1.01.87-1.28,1.31-.91,2.52.56,3.16,1.82.8,3.78,1.29,5.69,1.85,8.87,2.61,16.88,6.79,23.88,12.87,2.52,2.19,5.07,4.35,7.65,6.46,5.74,4.7,11.82,8.85,19.5,9.36,3.48.23,7.06.02,10.51-.54,12.33-2.01,23.18-7.5,33.07-14.92,3.71-2.78,3.44-4.57-.61-6.9-1.53-.88-3.24-1.45-4.84-2.22-.33-.16-.81-.79-.76-.84.39-.49.86-1.24,1.34-1.27,4.22-.27,7.77,1.51,10.97,4.01,5.23,4.08,8.79,9.38,10.97,15.62.51,1.47.97,2.95,1.48,4.42.14.4.4.77.6,1.15.14-.41.36-.82.42-1.25.72-5.28,3.71-9.42,6.71-13.59.73-1.01,1.63-2.6,1.33-3.55-1.9-5.9-4.12-11.7-6.26-17.51-.14-.39-.56-.68-.84-1.02-.15.56-.48,1.14-.42,1.68.08.87.6,1.72.59,2.58,0,.73-.49,1.46-.76,2.2-.45-.4-1.05-.71-1.32-1.2-.71-1.31-1.45-2.59-2.76-.7-1.98,2.86-4.25,5.45-7.97,5.24-3.28-.18-6.56-.95-9.77-1.75-.86-.22-2.22-1.83-2.04-2.29,1.47-3.7-.96-5.33-3.2-7.37-.68-.62-.8-2.64-.32-3.58,1.09-2.13.08-3.32-1.21-4.65-5.43-5.61-12.41-7.5-19.86-8.2-.85-.08-1.73.21-2.59.33.4.71.72,1.49,1.22,2.12,5.66,7.14,11.38,14.23,16.96,21.42.64.82.51,2.24.74,3.39-1.21-.12-2.77.18-3.57-.46-2.24-1.79-4.28-3.87-6.19-6.02-5.74-6.46-11.38-13.01-17.07-19.53h.02ZM335.57,218.75c.51.05,1.03.27,1.38.11.95-.44,1.83-1.03,2.74-1.56-.78-.45-1.55-.91-2.33-1.36-.49-.28-.98-.56-1.48-.84.44-.47.8-1.11,1.34-1.36,1-.46,2.2-1.14,3.14-.92,1.59.37,3.5,1.01,4.38,2.2.59.79.05,3.11-.76,4.08-1.23,1.46-3.19,2.27-4.74,3.48-.58.45-1.35,1.36-1.23,1.87.73,3.01,1.64,5.97,2.65,8.9.1.28,1.69.49,1.92.2.94-1.22,1.52-2.71,2.43-3.95,2.09-2.83,4.17-5.69,6.53-8.29,1.01-1.11,2.7-1.59,4.08-2.36-1.33-1.15-2.56-2.45-4.02-3.41-1.84-1.21-3.81-2.26-5.82-3.17-4.85-2.18-4.96-2.64-1.13-5.83,6.16-5.13,9.86-11.91,12.73-19.21.28-.7-.09-1.66-.16-2.5-.74.38-1.56.65-2.21,1.14-10.11,7.79-18.44,17.05-23.92,28.72-1.76,3.74-2.78,4.48-5.84,2.47-3.88-2.56-8.71-1.02-12.43-3.75-.72-.53-3.38-.21-2.54,1.56,1.2,2.53,3.16,4.9,5.33,6.67.97.79,3.28.1,4.95-.14,5.09-.71,5.75-.46,7.97,3.32.2.33.86.79.87.77,1.34-1.41,3.84-2.99,3.7-4.27-.31-2.67-.69-3.98,2.49-2.57h-.02ZM284.79,68.44c-2.62.55-4.98.89-7.25,1.57-2.09.62-5.19,1.13-5.79,2.56-.64,1.52,1.24,4.03,1.8,6.16.66,2.51,1.26,3.29,3.72,1.22,1.66-1.4,3.28.13,4.02,2.02.49,1.26.9,2.55,1.35,3.83,1.17-1,2.38-1.96,3.51-3,.98-.9,1.93-1.85,2.78-2.87,2.39-2.88,4.72-5.8,7.08-8.71-3.75-.93-7.49-1.86-11.22-2.78h0ZM343.77,143.19c-.52-.25-1.01-.61-1.54-.71-2.17-.41-4.75-.12-6.44-1.23-3.78-2.48-6,1-8.9,1.69-.36.09-.86,1.14-.73,1.56,1.34,4.18,2.77,8.34,4.28,12.46.14.38,1.21.83,1.51.65,1.13-.65,2.12-1.54,3.16-2.34-.73-.24-1.66-.28-2.16-.77-1-.99-2.56-2.33-2.42-3.32.16-1.16,1.74-2.34,2.97-3.05.85-.49,2.27.07,3.22-.34,2.17-.94,4.22-2.15,6.28-3.32.32-.18.44-.73.76-1.29h.01ZM262.8,79.86v-.09c-.67-.04-1.36-.2-2-.08-.99.17-2.78.53-2.78.81,0,1.94,1.51.83,2.4.89,6.19.37,9.92,3.6,5.49,10.73-1.29,2.08-2.61,4.14-3.74,6.31-.31.6.05,1.54.1,2.32.6-.2,1.43-.23,1.76-.64,2.71-3.49,5.38-7.01,7.94-10.62,2.46-3.46-.14-6.33-1.41-9.25-1.34-3.1-3.4.11-5.11-.34-.83-.22-1.77-.04-2.66-.04h0ZM330.11,210.81c.08-.45.23-.77.15-.86-3.23-3.63-6.47-7.26-9.76-10.84-.18-.19-.88-.16-1.13.03-.28.23-.54.83-.43,1.14,1.81,5.03,5.93,8.11,9.83,11.33.15.12.97-.57,1.33-.79h.01ZM342.83,165.43c-.69-1.86-.86-3.41-1.72-4.16-.44-.38-2.16.62-3.24,1.13-.77.37-1.71.83-2.07,1.51-.43.82-.76,2.15-.38,2.85.98,1.81,2.79,3.27,4.81,2.29,1.26-.62,1.88-2.56,2.6-3.63h0ZM310.77,140.87c-.43-.24-1.01-.84-1.62-.88-1.96-.12-3.93-.04-5.89,0-.65,0-1.29.17-1.94.26.52.32,1.02.68,1.56.97,1.14.62,2.35,1.14,3.45,1.82,1.89,1.16,4,.42,4.44-2.17Z"/>
  <path class="cls-1" d="M69.16,166.54c-.97,2.42-1.5,5.16-3.01,7.18-2.91,3.9-5.41,3.82-8.76.38-.62-.64-1.04-1.48-1.7-2.05-1.14-.97-2.35-2.44-3.63-2.55-2.43-.2-1.39,2.2-1.8,3.5-.72,2.26-1.98,3.18-4.51,2.58-1.32-.31-2.9.17-4.27.58-.53.16-1.1,1.11-1.15,1.74-.43,5.04-1.69,6.69-6.37,7.27-2.41.3-4.89.12-7.33.08-7.18-.13-10.35,3.54-9.26,10.78.3,1.97.62,3.93.86,5.91.05.37-.24.78-.37,1.18-.28-.33-.64-.61-.84-.98-2.02-3.81-3.25-7.83-2.46-12.17,1.15-6.34,6.76-9.83,13.38-8.7,1.64.28,3.45.11,5.1-.25,1.84-.41,2.43-1.63,1.35-3.46-.55-.94-1.1-2.06-1.1-3.11,0-1.22.21-3.08.99-3.54,1.52-.89,3.84-.55,5.19-1.56,1.45-1.09,1.76-3.68,4.42-3.25.22.04.51.18.65.1,6.49-4.26,11.64-2.3,16.06,3.37.3.38,1.4.69,1.62.48.58-.54,1.36-1.5,1.21-2.08-.42-1.7-1.36-3.26-1.9-4.94-.69-2.17-1.07-4.44.95-6.16,2.17-1.86,4.19-.52,6.09.63,1.13.68,2.14,1.55,3.2,2.33.11.11.22.23.32.34-.15-.07-.31-.14-.46-.21.09-1.77-.02-3.59.33-5.32.83-4.11,3.98-5.4,7.45-2.95,1.58,1.12,2.74,2.85,4.03,4.35,1,1.17,1.74,2.62,2.89,3.57.85.7,1.99,1.44,2.79-.79,1.08-3.03,3-3.94,5.45-2.73,2.1,1.03,4.03,2.71,5.56,4.51,1.25,1.47,1.67,3.61,2.71,5.29.49.79,1.59,1.21,2.41,1.8.06-.94.36-1.93.14-2.79-.78-3-2.14-5.91-2.47-8.95-.18-1.67.8-4.04,2.07-5.15,1.65-1.44,3.91-.52,5.34,1.1,2.35,2.66,4.56,5.45,6.73,8.26,1.52,1.97,2.74,2.78,5.81,2.51,3.55-.31,7.57-.62,11.4,1.59,2.78,1.6,6.77,1.34,10.23,1.42,1.78.04,3.6-6.68,2.2-8.06-.58-.58-1.85-.56-2.82-.63-4.62-.34-9.3-.3-13.87-.99-9.04-1.37-15.73-6.54-19.23-14.8-7.12-16.82-10.14-34.21-7.53-52.66,4.12-29.05,17.51-53.27,36.81-74.69,1.33-1.48,2.81-2.87,4.39-4.07,4.98-3.74,9.93-3.53,14.35.95,2.15,2.18,4.14,4.77,5.34,7.55,2.11,4.86,3.86,9.92,5.22,15.04,2.1,7.89,5.61,14.88,11.04,21.02,7.21,8.17,14.66,16.25,18.75,26.57,3.1,7.83,6.41,15.68,8.4,23.82,2.75,11.27.7,21.64-8.95,29.49-3.79,3.08-8.15,4.37-12.8,5.11-.36.06-1.12-.31-1.11-.43.04-.55.13-1.37.5-1.59,5.3-3.2,8.84-8.02,12.28-12.98,3.8-5.47,4.73-11.4,3.24-17.77-4.02-17.11-10.51-32.93-22.89-45.95-7.33-7.71-12.24-16.84-14.23-27.45-.53-2.82-1.39-5.63-2.54-8.26-1.33-3.03-2.83-6.07-4.81-8.69-3.13-4.14-5.64-4.26-9.32-.53-8.95,9.07-16.58,19.2-22.76,30.34-7.93,14.28-12.88,29.46-15.26,45.76-2.41,16.5,1.22,31.77,6.59,46.92,3.4,9.58,11.55,13.18,20.82,14.23,5.35.61,10.82,1.37,15.88-2.65,2-1.59,5.92-.89,8.97-.98,1.02-.03,2.04.85,3.1,1.08,3.28.69,3.95-.02,3.82-3.51-.1-2.66-.07-5.33.04-8,.02-.47.72-1.23,1.16-1.27.45-.04,1.26.55,1.4,1.02.55,1.9,1.05,3.84,1.31,5.8.42,3.2,1.05,6.07,4.67,7.27,2.68.89,3.29,3.02,1.94,5.33-1.51,2.58-.42,3.01,1.88,2.89.44-.02.9-.03,1.33.07,3.51.81,4.28,2.98,2.06,5.73-1.19,1.47-3.65,3.37-3.32,4.29.75,2.13,2.71,3.95,4.44,5.61,3.68,3.53,8.56,4.5,13.29,5.69.85.22,1.81.04,2.65.28,1.68.5,3.3,1.16,4.95,1.75-1.66.15-3.34.52-4.99.43-8.4-.46-16.25-2.38-22.35-8.76-.98-1.03-2.07-1.94-2.57.44-.13.63-.34,1.57-.79,1.77-4.19,1.9-6.33,5.31-7.9,9.48-.68,1.8-3.41,1.41-4.22-.45-.34-.79-.18-1.8-.54-2.58-.83-1.79-1.51-3.89-2.92-5.06-.57-.48-2.86,1.16-4.39,1.78-3.62,1.47-5.84.45-6.21-3.17-.2-1.97.47-4.15-1.86-5.21-2.38-1.09-4.9-2.9-7.27-2.77-4.93.27-9.75-.14-14.61-.54-.56-.05-1.16.2-1.71.41-4.29,1.69-4.57,1.74-7.11-1.48-2.34-2.96-4.41-6.14-6.66-9.17-.27-.36-.96-.4-1.46-.59-.07.42-.29.9-.17,1.26.55,1.69,1.28,3.31,1.8,5.01,1.4,4.55.57,6.5-3.26,7.99-3.48,1.35-5.79.16-7.8-3.95-1.06-2.17-2.13-4.34-3.32-6.44-.28-.48-1.09-.66-1.66-.98-.23.55-.64,1.09-.65,1.64-.05,2.44.21,4.91-.03,7.33-.23,2.34-2.65,3.16-4.49,1.64-.66-.55-1.15-1.33-1.66-2.06-2.74-3.94-5.46-7.9-8.21-11.83-.24-.34-.68-.53-1.03-.79-.26.49-.78,1.01-.73,1.46.21,1.75.64,3.47.94,5.21.26,1.53.65,3.07.63,4.6-.04,2.92-1.98,4.08-4.43,2.6-1.85-1.12-3.47-2.62-5.2-3.96-.44-.89-.88-1.77-1.31-2.66-.08-.19-.13-.41-.25-.57-.06-.09-.24-.09-.37-.14.26.18.52.37.77.55.42.91.85,1.81,1.27,2.72v.05ZM162.65,165.26c1.85-1.78,1.51-5.72,5.54-5.44.67.05,1.43-1.15,2.14-1.77-.86-.79-1.67-2.16-2.59-2.25-2.57-.24-5.18.05-7.78.14-1.12-1.29-1.99-3.17-4.24-1.87-.56.32-1.07.71-1.61,1.06.45.2.9.55,1.36.58,1.54.09,3.09.06,4.63.08.89,3.22,1.78,6.45,2.67,9.67-.34-.28-.64-.66-1.03-.82-1.05-.42-2.13-.75-3.2-1.11l-1.11,4.27c.99-.43,1.99-.83,2.96-1.29.78-.37,1.51-.83,2.27-1.25h-.01ZM173.13,168.28s-.27-1.23-.54-2.48c-1,.71-1.97,1.48-3.01,2.13-1.11.69-2.4,1.13-3.42,1.93-3.65,2.84-4.12,6-1.55,9.69.24.34.67.54,1.01.8.31-.41.8-.78.9-1.24.19-.85.13-1.76.21-2.64.24-2.82,1.17-4.3,4.22-2.43.36.22,1.86-.57,2.08-1.17.36-.97.1-2.17.1-4.59h0ZM152.03,168.46c1.16-1.21,2.25-1.84,2.35-2.6.09-.74-.82-1.62-1.3-2.43-.7.73-1.62,1.37-2.01,2.24-.22.49.43,1.37.95,2.79h0ZM178.19,165.01c.33-.12.66-.24,1-.36-.14-.13-.29-.37-.41-.35-.33.04-.65.19-.97.3.13.14.25.27.38.41Z"/>
  <path class="cls-1" d="M282.96,241.33c-.44.02-.88.06-1.32.07-3.74.11-7.9-.76-11.11.61-2.9,1.23-4.49,5.24-7.16,7.41-3.38,2.75-7.07,5.27-10.98,7.16-3.87,1.87-6.38-.42-5.77-4.75.15-1.06.88-2.05.99-3.11.05-.46-.72-1.35-1.23-1.46-.81-.16-1.75.4-2.58.26-3.87-.64-5.5-3.44-4.22-7.23.49-1.45,1.22-2.82,1.84-4.23.16-.1.33-.18.46-.31.07-.06.05-.21.08-.32l-.39.76c-7.53,1.66-15.02,3.62-22.62,4.86-3.92.64-8.01,1.73-11.94-1.76-1.97-1.75-5.88-1.35-8.93-1.85-2.63-.44-5.53-.53-6.21-3.87-.43-2.09,1.25-3.2,5.83-4.14.43-.09.9-.03,1.33-.12,3.09-.63,3.46-1.37,1.82-3.8-.99-1.47-2.1-2.87-3.17-4.29-.67-.88-1.44-1.7-2.07-2.61-1.51-2.2-3.44-4.51-1.77-7.27,1.79-2.97,4.55-1.78,7.17-1.08,1.64.43,3.41.36,5.12.52-.52-1.62-.99-3.27-1.58-4.86-1.24-3.32-2.66-6.59-3.79-9.94-.71-2.09-1.37-4.3-1.4-6.46,0-1.31.94-3.27,2-3.76.99-.45,3.16.24,3.99,1.17,1.92,2.12,3.31,4.7,4.98,7.04.29.41.89.6,1.34.89.07-.44.19-.87.2-1.31.08-3.34.04-6.68.22-10.01.11-1.97.49-3.95.89-5.89.32-1.58,1.06-3.37,2.95-2.79,1.18.37,2.45,1.83,2.85,3.07.75,2.29,1.06,4.76,1.25,7.18.55,7.08.92,14.18,1.43,21.26.23,3.22.64,3.37,3.56,1.48,1.86-1.21,3.61-2.61,5.54-3.7,1.32-.75,2.84-1.48,4.29-1.54,1.09-.04,2.52.77,3.22,1.66.43.55.1,2.29-.5,2.92-2.29,2.4-4.83,4.57-7.27,6.83-.47.44-.89.94-1.33,1.42.54.2,1.08.57,1.62.57,5.74,0,11.49-.8,17.16,1,1.12.35,2.6-.36,3.89-.67,1.44-.34,1.71-1.14.77-2.32-3.03-3.83-6.09-7.65-9.07-11.53-.93-1.22-1.86-2.53-2.36-3.96-.64-1.8,1.33-3.71,3.09-2.94,1.57.69,3.07,1.79,4.29,3.02,3.13,3.15,6.06,6.5,9.14,9.72.55.57,1.41.86,2.12,1.27.16-.64.38-1.27.48-1.91.47-3.06.84-6.14,1.39-9.19.39-2.18.83-4.38,1.58-6.45.76-2.1,1.89-4.39,4.65-3.92,2.71.46,3.13,2.8,3.14,5.16,0,.89,0,1.78-.01,2.67-.01,1.62.23,2.66,2.14,1.32,2-1.4,4.04-2.77,6.17-3.94,2.16-1.19,4.58-2.39,6.7-.07,1.93,2.11,1.37,4.58.12,6.82-1.84,3.3-3.83,6.5-5.74,9.76-.3.52-.46,1.13-.69,1.7.62.09,1.28.36,1.84.22,2.15-.52,4.29-1.12,6.4-1.8,2.68-.86,5.29-.26,6.39,2.06.81,1.71.3,4.22-.12,6.27-.24,1.18-1.33,2.34-2.31,3.2-2.55,2.26-4.13,4-.36,6.96,2.14,1.68,1.31,5.32-1.27,7.67-2.23,2.03-4.89,3.58-7.36,5.34l.18-.15h.02ZM209.4,202.73l-.3-.35.42.24c.84,2.73,1.84,5.43,2.46,8.21.74,3.32-.69,5.14-4.06,5.32-1.76.1-3.53-.24-5.3-.32-.77-.03-1.54.08-2.31.12.26.59.44,1.23.8,1.75,1.54,2.18,3.32,4.2,4.66,6.49,2.4,4.09,1.25,7.19-3.09,9.05-.93.4-1.9.7-2.85,1.04,1.08.21,2.15.48,3.24.62,1.1.14,2.22.27,3.32.19,1.98-.15,3.94-.46,5.91-.7-.24-1.8-.45-3.6-.72-5.4-.06-.43-.38-.82-.43-1.25-.24-2.02,1.53-3.45,2.59-2.13,2.73,3.41,6.9.05,9.71,2.51.23.2,1.54-.58,2.17-1.11,1.46-1.25,2.81-2.63,4.2-3.95-1.76-.12-3.52-.22-5.27-.36-4.89-.39-5.53-1.17-5.88-6.51-.08-1.25-.74-2.46-1.05-3.7-.54-2.14-1.55-4.33-1.42-6.44.24-3.95-1.24-3.39-3.81-2.2-.68.31-1.96-.7-2.97-1.11h-.02ZM277.43,235.97c1.09-.39,3.58-1.2,5.99-2.2.7-.29,1.18-1.14,1.76-1.73-.67-.41-1.31-.88-2.01-1.24-4.23-2.19-4.71-4.17-1.64-7.54,1.78-1.95,3.77-3.71,5.64-5.59.24-.24.26-.69.39-1.04-.41-.09-.9-.38-1.22-.25-3.06,1.24-6.02,2.73-9.14,3.81-5.32,1.85-6.69,5.86-6.44,10.89.22,4.33.96,5.01,6.66,4.89h.01ZM246.28,241.4c.87-.25,1.56-.32,2.11-.64,2.11-1.22,4.18-2.49,6.24-3.78,1.69-1.05,3.46-2.56,5.35-.75,2.34,2.24.13,3.99-1.07,5.73-1.38,2-2.88,3.93-4.29,5.91-.18.26-.13.68-.19,1.02.39,0,.91.13,1.16-.06,4.27-3.28,8.05-6.99,9.67-12.32.31-1.01.77-2.82-1.73-2.31-2.25.46-3.75-.7-4.64-2.81-.25-.6-1.21-1.54-1.41-1.44-4.62,2.29-8.72,5.26-11.5,9.72-.22.35.17,1.07.3,1.73h0ZM254.22,219.41c-6.59-.07-10.7,4.55-15.62,7.31-.08.05.32,1.64.77,1.83,4.05,1.63,7.7.61,11.27-1.68,1.97-1.26,4.22-2.11,6.42-2.94.8-.3,1.84.03,2.77.07-.55-.92-.9-2.1-1.69-2.69-1.14-.86-2.6-1.29-3.93-1.91h0ZM263.22,216.92c.09,1.88.12,2.65.16,3.43.73-.3,1.74-.38,2.14-.92,4.08-5.48,8.07-11.04,12.05-16.6.16-.23-.03-.72-.06-1.08-.39.14-.85.2-1.17.43-2.32,1.71-4.37,4.08-6.96,5.05-5.37,2.01-5,6.59-6.16,9.69h0ZM264.67,229.01c-1.39-.93-1.93-1.28-2.46-1.64-.16.4-.53.85-.44,1.17.14.49.56,1.21.94,1.26.51.07,1.09-.41,1.96-.79ZM217.94,232.43c-.13.39-.29.72-.33,1.08-.02.15.22.33.34.49.21-.29.54-.56.58-.87.03-.2-.37-.45-.59-.7h0ZM266.56,223.31c-.14-.35-.27-.69-.41-1.04-.14.14-.41.3-.4.41.06.35.22.68.35,1.01.15-.13.3-.25.45-.38h0ZM224.82,232.37l-.22.39.35.04-.13-.43Z"/>
  <path class="cls-1" d="M277.65,472.75c1.07-35.57,6.97-69.02,20.02-101.02,1.17-2.86,2.69-5.6,4.27-8.26.47-.79,1.72-1.13,2.61-1.67.01.97.27,2.02-.02,2.9-.83,2.52-1.97,4.94-2.83,7.46-1.7,4.99-3.28,9.7-.92,15.31,1.74,4.13,1.51,9.12,1.96,13.75.64,6.63,1.07,13.28,1.64,19.91,1.22,14.37,2.48,28.74,3.7,43.11.54,6.41.91,12.85,1.53,19.25,1.65,16.99,3.39,33.97,5.09,50.96.07.66.15,1.33.12,2-.08,1.97-.2,3.93-.31,5.9-.75-1.78-1.67-3.5-2.22-5.34-4.08-13.62-6.58-27.54-8.36-41.63-2.34-18.53-3.43-37.12-4-55.78-.47-15.53-1.72-31.04-2.65-46.56-.04-.67-.41-1.33-.62-1.99-.49.72-1.22,1.39-1.42,2.18-1.05,4.07-1.95,8.18-2.92,12.27-4.24,17.93-7.15,36.11-9.07,54.41-1.16,11.04-1.26,22.18-1.83,33.28-.08,1.55-.08,3.12-.21,4.67-.03.33-.43.83-.73.89-.29.05-.77-.29-.98-.59-.23-.34-.33-.82-.36-1.25-.54-8.43-1.05-16.85-1.5-24.13v-.03Z"/>
  <path class="cls-1" d="M221.49,547.7c-4.24-.25-7.63-.12-10.88-.72-5.04-.93-7-3.16-6.77-8.25.43-9.53,1.12-19.06,2.05-28.55.87-8.82,2.16-17.6,3.3-26.4,1.17-9.02,2.41-18.02,3.55-27.04,1.11-8.8,2.14-17.61,3.21-26.41.99-8.15,1.95-16.3,3.01-24.44.2-1.53.62-3.09,1.3-4.46.41-.82,1.52-1.3,2.31-1.93.46.9,1.35,1.82,1.3,2.69-.33,6.21-.78,12.41-1.34,18.6-.74,8.17-1.53,16.34-2.43,24.5-1.1,9.92-2.4,19.81-3.51,29.73-1.07,9.48-2.03,18.97-3.01,28.46-.82,7.95-1.63,15.89-2.34,23.85-.24,2.65-.08,5.34-.22,8-.16,3.01,1.43,3.91,4.12,3.74,7.76-.49,15.59-.41,23.25-1.55,13.47-2,26.96-2.74,40.55-2.4,6.68.17,13.36.13,20.03.22.63,0,1.26.33,1.9.5-.58.59-1.07,1.53-1.76,1.7-4.51,1.12-9.02,2.47-13.61,3.03-17.41,2.12-34.86,3.97-52.3,5.91-4.19.47-8.39.87-11.71,1.21h0Z"/>
  <path class="cls-1" d="M187.97,329.55c1.76-.87,3.44-2.02,5.3-2.53,2.49-.68,5.12-.92,7.7-1.19.4-.04.95.71,1.29,1.2.09.12-.33.85-.63.94-5.26,1.62-8.03,6.17-11.32,9.96-7.27,8.37-14.16,17.08-21.35,25.53-3.16,3.71-6.54,7.26-10.07,10.61-1.72,1.64-3.99,2.73-6.08,3.94-1.99,1.15-4.22.76-5.45-.84-1.06-1.39-1.89-3.74-1.47-5.32.77-2.94,2.14-5.89,3.91-8.36,10.93-15.19,23.41-28.98,37.82-40.97,1.73-1.44,3.48-2.88,5.95-2.21.56.15,1.24.67,1.43,1.18.14.38-.32,1.12-.69,1.53-2.04,2.25-4.14,4.45-6.22,6.66-.44.46-.88.92-1.32,1.38-.44.45-.89.9-1.33,1.35-.45.44-.9.89-1.34,1.33-.45.44-.9.88-1.35,1.32-.46.43-.91.87-1.37,1.3-.45.44-.9.88-1.34,1.32-.72.47-1.6.81-2.14,1.44-6.59,7.76-13.17,15.53-19.63,23.4-1.05,1.28-1.48,3.06-2.19,4.6-.47.44-.94.89-1.42,1.33l-.33.19.17-.34c.48-.44.96-.88,1.44-1.32,9.19-8.59,16.39-18.85,23.99-28.77.1-.14,0-.43,0-.65.45-.44.89-.89,1.34-1.33.45-.44.9-.88,1.35-1.31.45-.44.89-.89,1.34-1.33.45-.44.9-.89,1.35-1.33.45-.45.89-.9,1.34-1.34l1.35-1.36h-.03Z"/>
  <path class="cls-1" d="M320.67,69.1c.88.15,2.84.59,4.81.82,4.35.5,5.76-.53,6.92-4.86,1.13-4.19,2.18-5.32,6.29-5.56,3.32-.19,6.69-.09,9.99.31,1.31.16,3.35,1.31,3.54,2.3.57,3.06,2.29,1.68,3.78,1.44,5.01-.82,10-2.12,15.03-2.29,2.88-.1,5.88,1.51,8.71,2.64.79.32,1.17,1.68,1.73,2.57-.96.06-1.99.39-2.88.15-10.25-2.72-19.79-.42-29.01,4.06-1.59.77-3.02,1.97-4.67,2.53-1.04.35-2.83.31-3.42-.34-.66-.72-.45-2.34-.38-3.55.04-.59.72-1.12.96-1.73.47-1.24,1.5-3.36,1.13-3.65-1.82-1.45-6.26-.12-6.57,1.94-.42,2.78-1.02,5.35-3.68,6.7-3.04,1.54-6.29,2.15-9.7,1.15-.84-.25-1.75-.34-2.63-.39-.38-.02-.79.24-1.18.38.24.37.47.75.73,1.11.13.17.3.33.48.45,1.55.97,3.24,2,2.24,4.16-1.03,2.24-2.92,1.4-4.61.84-2.57-.85-2.77.02-2.5,2.49.13,1.18-1.71,2.72-2.88,3.87-1.98,1.95-2.03,2.32.46,3.74,1.54.88,3.14,1.64,4.72,2.44,1.65.84,3.21,1.83,2.6,4.03-.53,1.91-3.35,3.2-5.53,2.61-.84-.23-1.61-.73-2.4-1.14-1.32-.69-2.67-2.03-3.93-1.94-1.36.09-2.63,1.49-3.93,2.33-1.43.92-1.2,1.77-.39,3.22,1.86,3.31,1.75,3.82-1.52,4.42-2.19.4-2.97,1.43-3.64,3.17-1.99,5.16-4.01,10.3-6.1,15.42-.18.43-.95.62-1.45.92-.21-.38-.66-.8-.59-1.12.59-3,.62-6.35,2.08-8.88,1.59-2.76,1.42-4.59,0-7.21-2.15-3.96-1.61-4.91,3.1-6.35,1.5-.46,2.31-.93,2.49-2.51.1-.85.26-2.05.84-2.45,3.59-2.49,4.88-5.08,1.1-8.52-.2-.18.58-2.08,1.26-2.41.88-.42,2.14-.16,3.22-.02,3.05.4,4.68-1.71,5.55-3.86,1.25-3.1,1.77-6.5,2.56-9.79.69-2.85,1.94-3.61,7.24-3.62l.03-.02Z"/>
  <path class="cls-1" d="M89.1,341.57c5.58-3.13,6.16-4.47,4.28-9.74-.52-1.46-1.23-2.9-1.48-4.4-.76-4.74,2.8-7.79,7.29-6.04,2.41.94,4.56,2.63,6.72,4.14,3.36,2.36,4.37,2.24,6.84-1.27,1.57-2.23,4.24-4.22,1.1-7.34-.54-.54-.14-2.6.46-3.57.78-1.27,2.05-2.4,3.36-3.15,7.23-4.12,15.12-6.2,23.33-7.14.67-.08,1.42.5,2.14.77-.67.48-1.27,1.16-2.01,1.41-5.44,1.84-10.93,3.54-16.36,5.42-1.66.58-3.24,1.47-4.74,2.4-2.47,1.55-2.42,1.76.17,3.52,2.92,2,3.13,3.04.45,5.68-1.96,1.94-3.52,3.44-2.19,6.67.78,1.89-1.29,3.09-3.26,3.22-2.85.17-5.64-.11-7.45,3.14-.48.87-3.47,1.14-4.83.56-2.57-1.08-2.63.11-3.45,1.99-1.03,2.37-2.84,4.45-4.54,6.46-1.41,1.68-3.33,2.87-3.2,5.54.04.78-1.03,2.1-1.84,2.34-1.62.49-1.84,1.07-1.76,2.76.19,4.09-.3,4.93-3.89,5.49-2.47.39-3.97,1.34-5.27,3.35-.67,1.03-1.97,2.08-3.14,2.29-3.85.7-3.18,2.56-2.25,5.4.98,3.01-.02,6.14-2.08,8.63-.58.7-1.86.8-2.82,1.18-.33-1-1.18-2.19-.9-2.95,1.51-4.02.83-7.56-1.03-11.36-1.39-2.85.39-4.65,4.03-4.96,4.9-.41,4.81-.4,4.21-5.25-.14-1.14.17-2.73.92-3.5,1.43-1.48,2.81-.35,3.94.86.46.48.87,1.03,1.39,1.43.31.24.79.28,1.19.41.07-.52.38-1.18.16-1.53-2.51-4.13-1.47-8.15.41-12.06.62-1.29,1.73-3.11,2.76-3.21,1.06-.11,2.3,1.59,3.45,2.5-.11.14-.23.28-.34.41.08-.17.16-.35.24-.52v.02ZM98.08,325.77c-.37.91-.86,1.54-.7,1.87.33.7.99,1.25,1.52,1.86.47-.43.95-.85,1.42-1.28-.65-.71-1.29-1.41-2.24-2.45h0Z"/>
  <path class="cls-1" d="M100.36,302.78c-.44.52-1.27,1.17-1.6,2.02-.3.77.03,1.77-.09,2.64-.48,3.43-2.44,4.73-4.77,2.57-2.06-1.91-3.29-1.49-5.08-.33-.56.36-1.21.85-1.8.83-1.25-.05-2.86-.01-3.62-.74-.73-.71-.95-2.41-.72-3.54.3-1.47,1.45-2.76,1.88-4.23.18-.64-.54-1.54-.85-2.32-.65.37-1.7.59-1.89,1.13-.82,2.27-1.49,4.61-2.01,6.97-1.2,5.41-2.32,6.33-7.69,5.02-2.14-.52-2.5,0-3.04,1.94-1.28,4.58-1.66,5-5.84,3.5-2.81-1.01-4.5,1.57-6.94.93s-3.86.58-5.43,2.58c-2,2.53-3.79,1.72-5.8-2.05-1.75-3.29-1.81-3.3-4.54-.92-.67.59-1.22,1.33-1.94,1.83-.97.66-2.05,1.15-3.09,1.71.25-1.02.38-2.1.77-3.06.5-1.22,1.12-2.43,1.87-3.52,2.66-3.89,4.94-4.73,8.88-2.15,3.21,2.11,6.4-1.21,9.3.81.2-.58.67-1.23.54-1.73-.44-1.71-1.25-3.34-1.6-5.06-.34-1.69-.64-3.53-.32-5.18.37-1.92,1.23-4.11,3.71-4.09,2.41.02,3.23,2,3.73,4.03.47,1.94.9,3.89,1.36,5.83.15.64.37,1.26.55,1.9.3-.75.58-1.51.91-2.24,1.05-2.34,2.73-2.65,4.89-1.53,1.17.6,2.38,1.1,3.58,1.65.68-1.58,1.59-3.1,1.99-4.75,1.05-4.35,3.16-7.57,7.39-9.62,4.81-2.34,5.59-2.57,8.91,1.59,1.68,2.1,2.6,2.97,5.81,1.75,7.96-3.04,13.83-.84,17.85,5.6.59.95.48,2.33.69,3.51-.93-.41-1.91-.73-2.76-1.25-.75-.46-1.35-1.15-2.04-1.72-1.3-1.09-2.39-1.67-3.87.07-2.18,2.57-4.48.04-7.29-.37h.01Z"/>
  <path class="cls-1" d="M131.08,75.74c.29-2.58.36-4.83.83-6.99.88-4.07,4.61-5.31,7.37-2.21,2.17,2.44,4.06,5.36,5.27,8.4,3.6,9.04,7.13,18.14,10.03,27.42,1.97,6.3,2.67,12.99,4.29,19.42.59,2.33-.03,5.19,2.7,6.99.65.43-.28,2.98-.09,4.51.15,1.17.92,2.26,1.41,3.38-1.2-.79-2.52-1.44-3.57-2.4-3.45-3.14-6.86-6.32-10.16-9.61-10.92-10.84-15.7-24.41-17.31-39.35-.36-3.31-.53-6.63-.77-9.57h0ZM150.68,119.73c.29.47.58.95.87,1.42-.33-.44-.66-.88-.99-1.32-.02-.66.12-1.39-.09-1.98-4.27-11.93-7.36-24.16-9.49-36.65-.47-2.77-2.02-5.37-3.13-8.02-.14-.34-.68-.51-1.03-.76-.27.45-.76.89-.77,1.35-.42,15.2,2.24,29.65,10.89,42.51.92,1.37,2.48,2.31,3.75,3.44h0Z"/>
  <path class="cls-1" d="M371.07,88.51c-.33,8.96,0,7.03,7.66,5.89,1.52-.23,1.3-1.03,1.03-2.33-.86-4.19-.74-4.22,3.62-4.47.44-.03.98.2,1.32.02,5.02-2.72,9.85-1.5,14.95.07,3.54,1.09,7.47.89,11.19,1.46,1.95.3,3.95.78,5.74,1.58,2.61,1.17,3.34,3.28,2.5,6.1-.12.4-.5,1.03-.74,1.02-.56-.03-1.51-.27-1.59-.6-.91-3.74-4.17-3.58-6.85-4.01-5.86-.95-11.83-.86-17.59-2.92-1.48-.53-5.01,1.41-5.91,3.11-2.21,4.19-5.63,5.16-9.73,5.78-2.29.35-5.63-.23-5.59,3.87,0,.07-2.97.6-3.21.17-.89-1.62-1.34-3.52-1.74-5.37-.26-1.2-.12-2.49-.17-3.74-.88.71-1.73,1.47-2.65,2.13-1.04.75-2.55,2.26-3.15,1.98-4.14-1.96-3.89,1.54-4.93,3.57-1.17,2.3-3.07,2.58-4.69.7-.71-.83-1.3-1.82-1.71-2.84-.73-1.83-1.48-2.38-3.21-.85-1.88,1.67-3.9,1.31-6.15.22-1.79-.87-3.95-1.03-5.98-1.29-.35-.04-1.18.99-1.2,1.55-.13,3.88-2.32,5.04-5.87,5.79-2.92.62-5.53,2.67-8.31,4.02-.42.2-1.03,0-1.55-.02.11-.42.13-.89.34-1.25,2.35-4.04,5.82-6.74,10.33-7.79,2.15-.5,2.48-1.28,1.76-3.16-.39-1.01-.73-2.23-.52-3.23.29-1.4.87-2.95,1.86-3.89.39-.37,2.45.44,3.28,1.21,1.28,1.2,2.25,1.78,3.94.74.52-.32,1.74.09,2.44.5,3.59,2.13,3.52,2.13,5.2-.75.63-1.08,1.45-2.65,2.38-2.81,2.13-.37,1.99,1.75,2.51,3.15.28.75,1.06,1.31,1.62,1.95.18-.61.4-1.21.55-1.83.2-.86.11-1.87.54-2.58.65-1.07,1.66-2.72,2.48-2.7,1.24.04,2.48,1.25,3.65,2.07.3.21.26.85.48,1.22,1.2,1.95,1.81,1.13,2.49-.45,1.13-2.64,2.4-5.23,3.66-7.82.77-1.57,2.15-2.59,3.74-1.67.9.53,1.51,2.04,1.7,3.2.28,1.73.07,3.54.07,5.32v-.02Z"/>
  <path class="cls-1" d="M349.6,397.64c-2.04.5-3.56.03-4.47-1.93-2.43-5.24-5.26-10.37-2.49-16.45,1.17-2.57-.08-3.87-2.74-4.74-2.8-.92-5.1-2.77-5.18-6.23-.07-2.83,1.29-4.63,3.93-3.71,3.75,1.3,4.08-1.41,5.19-3.31.77-1.32,0-2.18-1.41-1.97-2.18.33-4.32,1.14-6.5,1.26-1.09.06-2.82-.7-3.22-1.56-.41-.89.19-2.52.82-3.54.9-1.46,2.22-2.65,3.37-3.95-1.67.24-3.33.46-4.99.74-5.37.9-7.62-1.65-5.95-6.89.47-1.47,1.47-2.77,1.89-4.25.27-.94.35-2.48-.2-3.01-2.08-2.01-1.82-4.17-1.54-6.74.18-1.72-.47-4.14-1.67-5.24-1.56-1.43-3.16.36-4.5,1.58-.52.47-1.33.62-2.01.92.07-.84-.1-1.81.27-2.49,1.37-2.49,3.51-4.24,6.44-3.89,2.57.31,4.31,2.07,5.13,4.66.97,3.03.93,6.47,3.99,8.69.6.44.31,2.53-.03,3.73-.54,1.9-1.53,3.67-2.19,5.55-.17.48.14,1.16.34,1.7.03.07.84-.01,1.16-.23,1.59-1.07,3.15-3.4,5.14-1.64,1.9,1.67,3.66,3.99,4.37,6.35.49,1.64.35,2.33,2.37,2.78,4.62,1.03,5.84,3.51,4.29,7.75-.6,1.65-1.51,3.22-2.44,4.73-1.85,3-1.88,2.96.58,6.29,1.68,2.27.97,4.56.09,6.95-1.24,3.38-2.01,6.79.21,10.18.88,1.35,1.35,2.62,3.4,1.43,2.84-1.65,5.13-1.37,5.78,2.5.09.56.63,1.15,1.12,1.53,3.61,2.81,2.64,6.08,1.25,9.59-1.16,2.93-4.45,5.16-3.1,8.96-.69.24-1.61.88-2.05.64-2.59-1.4-3.33-3.4-2.3-6.09.55-1.44,1.62-2.7,2.08-4.16.48-1.54,1.19-3.6.56-4.76-.79-1.46-2.44-3.46-4.78-1.74h0Z"/>
  <path class="cls-1" d="M404.7,309.42c.15,8.5-1.56,15.82-4.18,22.92-1.06,2.88-2.24,6.33-6.11,6.01-3.75-.31-4.68-3.81-5.43-6.81-1.07-4.29-2.02-8.65-2.52-13.04-1.29-11.22-2.34-22.48-3.41-33.72-.15-1.53-.15-3.17.25-4.63.24-.85,1.42-1.43,2.17-2.14.55.83,1.46,1.6,1.6,2.5,1.87,12.26,3.57,24.55,5.45,36.81.45,2.97,1.39,5.86,2.1,8.79,2.68-2.51,2.33-6.1,2.77-9.17,1.22-8.46.28-16.78-3.13-24.78-1.73-4.06-2.93-8.35-4.24-12.58-.22-.71.26-1.64.41-2.47.62.59,1.37,1.09,1.85,1.79,1.88,2.75,3.51,5.67,5.53,8.31,5.23,6.85,7.49,14.51,6.9,22.21h-.01Z"/>
  <path class="cls-1" d="M323.61,369.64c-.68,2.47-1,4.45-1.77,6.23-.97,2.25-2.25,4.17-.49,6.78,1.05,1.57-.38,2.53-1.97,3.39-2.37,1.3-2.28,2.38-.06,3.51,2.15,1.09,4.44,1.91,6.59,3.01,4.99,2.55,8.45,6.39,9.5,12.06.2,1.07.42,2.2.29,3.26-.31,2.55-2.18,4.11-3.95,3.33-2.01-.89-3.46-2.7-1.98-4.62,1.61-2.09.32-3.28-.53-4.7-.61-1.02-1.57-1.66-2.54-.22-.12.18-.28.35-.42.52-1.54,1.89-3.24,4.56-5.86,3.29-3.36-1.63-1.09-4.55-.44-6.96.6-2.23-.09-3.56-2.27-4.77-5.83-3.24-5.68-3.87-3.58-10.49,1.06-3.35,1.95-6.59,4.14-9.47.82-1.08.77-2.95.81-4.47.09-3.47-.29-3.62-3.27-2.08-1.15.59-2.44.99-3.71,1.23-.52.1-1.71-.57-1.68-.69.79-3.47-4.23-6.23-1.51-9.67,2.68-3.39.17-6.18-.41-9.19-.06-.33-1.59-.84-1.93-.59-2.72,2.05-5.57.43-8.32.37-1.35-.03-3-.56-3.89-1.47-.43-.45.28-2.51,1-3.45,1.08-1.42,2.62-2.48,4.61-1.33.38.22.74.59,1.15.66.98.18,2.19.63,2.92.24,1.45-.78.09-1.73-.17-2.68-.3-1.1-.49-2.72.09-3.46,1.27-1.6,2.77-.55,4,.51,3.24,2.78,3.93,6.82,5.18,10.58.76,2.29.02,5.82,4.28,5.47.09,0,.77,2.22.39,2.56-1.43,1.32-3.2,2.28-4.79,3.44-.28.21-.5,1.06-.42,1.1.51.32,1.15.76,1.65.66.58-.12,1.1-.7,1.58-1.15,2.06-1.95,3.86-1.12,4.83.93,1.3,2.74,2.06,5.73,2.96,8.32h0Z"/>
  <path class="cls-1" d="M260.45,399.75c0,10.01-.28,20.02.07,30.02.44,12.42,1.45,24.81,2.11,37.22.15,2.86-.09,5.73-.16,8.6-1.01-2.53-2.29-4.99-2.97-7.6-2.86-10.99-4.32-22.25-4.58-33.54-.41-18-.23-36.02,0-54.03.1-7.32.97-14.62,1.59-21.93.06-.68.9-1.29,1.38-1.94.56.62,1.48,1.19,1.6,1.89.38,2.18.61,4.4.62,6.61.06,11.56.03,23.13.03,34.69h.31Z"/>
  <path class="cls-1" d="M241.25,471.04v33.36c0,1.33-.06,2.67-.2,3.99-.04.35-.47.65-.73.98-.41-.39-1.04-.72-1.17-1.19-.22-.84-.13-1.76-.17-2.65-.57-15.1-.87-30.22-1.76-45.3-1.06-17.94-2.45-35.86-4.09-53.76-.66-7.25-2.4-14.39-3.59-21.6-.16-.95.07-1.97.13-2.96.9.76,2.19,1.35,2.63,2.32,1.37,3.02,2.95,6.09,3.48,9.31,1.74,10.47,3.59,20.97,4.39,31.54,1.16,15.27,1.43,30.61,2.09,45.93-.34,0-.67.01-1.01.02h0Z"/>
  <path class="cls-1" d="M268.1,446.31c1.2-33.05,5.11-62.17,15.88-90.04.94-2.44,2.41-4.7,3.83-6.92.27-.42,1.49-.24,2.27-.33.02.6.24,1.27.04,1.77-7.7,19.53-11.11,40.04-14.02,60.69-2.23,15.86-3.69,31.77-3.75,47.79-.01,3.76.59,7.51.81,11.27.03.47-.59.99-.9,1.48-.38-.45-1.03-.86-1.09-1.34-1.2-9.23-2.34-18.47-3.07-24.37Z"/>
  <path class="cls-1" d="M251.38,415.58c-.71,16.41-1.38,31.95-2.07,47.48-.05,1.09-.27,2.18-.54,3.23-.06.24-.67.37-1.05.48-.08.02-.33-.28-.36-.46-.17-1.31-.41-2.61-.44-3.93-.54-21.55-.85-43.11-1.64-64.65-.44-11.96-1.54-23.9-2.59-35.83-.27-3.04-1.49-6-2.14-9.02-.1-.46.4-1.34.84-1.54.47-.22,1.55-.07,1.77.29.92,1.48,1.99,3.02,2.35,4.68,1.45,6.7,3.27,13.39,3.83,20.18,1.09,13.27,1.43,26.6,2.04,39.08h0Z"/>
  <path class="cls-1" d="M302.87,269.46c-.12.64-.09,1.37-.4,1.9-5.69,9.76-11.36,19.54-17.15,29.24-2.5,4.19-5.04,8.38-7.96,12.27-1.78,2.37-4.19,5.62-7.56,3.83-3.44-1.83-1.81-5.42-.9-8.35,3.63-11.68,9.97-21.76,18.52-30.4,4.37-4.41,9.15-8.41,13.82-12.52.49-.43,1.43-.33,2.17-.47-.16.85-.33,1.69-.49,2.54-.04.22-.04.44-.06.66l.14-.12c0,.51,0,1.01-.01,1.52l-.1-.1h-.02ZM293.6,277.61c-.45.44-.9.88-1.35,1.32s-.89.88-1.34,1.32c-.12.14-.24.28-.35.41.07-.19.14-.37.21-.56.45-.44.9-.87,1.35-1.31.46-.43.91-.87,1.37-1.3l.38-.3-.26.42h0ZM288.3,284.28c-.46.42-.92.85-1.38,1.28-5.85,5.33-8.7,12.47-11.72,19.5-.13.31.15.8.23,1.21.31-.17.77-.26.91-.52,3.51-6.76,6.98-13.54,10.47-20.31.45-.43.9-.86,1.35-1.29l.48-.93c-.11.36-.23.71-.34,1.07h0Z"/>
  <path class="cls-1" d="M41.16,134.61c2.23,1.01,5.25,2.37,8.27,3.75,2.48,1.13,4.94,2.69,5.82-1.84.16-.84,2.22-2.11,3.03-1.87,2.82.81,4.36-.58,6.3-2.22,4.05-3.45,8.76-3.02,13.07-.66,2.95,1.61,5.38,2.2,8.55.61,2.63-1.31,5.27-.15,7.19,1.98,1.67,1.86,1.45,4.13.54,6.25-.3.7-1.22,1.14-1.86,1.71-.46-.61-1.12-1.16-1.35-1.85-1.35-3.93-1.72-4.39-5.4-2.51-2.77,1.41-4.92,1.25-7.42-.24-1.5-.89-3.19-1.64-4.89-1.95-1.41-.26-3.3-.3-4.36.45-3.03,2.1-6.12,4.34-8.47,7.12-2.43,2.88-4.84,3.52-8.11,2.13-3.25-1.39-6.51-2.76-9.76-4.16-1.36-.59-2.6-1.03-2.51,1.23.21,5.37-2.84,7.99-7.61,9.47-1.82.57-3.4,1.93-5.1,2.9-.62.35-1.28.63-1.93.94.02-.86-.29-1.95.12-2.53,1.39-1.96,2.71-4.29,4.67-5.45,3.32-1.96,4.39-4.4,4.4-8.13,0-4.1,2.19-5.69,6.81-5.11v-.02Z"/>
  <path class="cls-1" d="M302.85,268.16c.88.42,1.39.84.02,1.3l.1.1c0-.51,0-1.01.01-1.52l-.14.12h.01Z"/>
  <path class="cls-1" d="M104.66,216.82c2.92.94,5.96,1.62,8.74,2.87,11.92,5.38,23.81,10.81,34.51,18.5,2.31,1.66,4.97,2.86,7.53,4.14,4.36,2.16,8.79,4.19,13.16,6.34.53.26.84.94,1.26,1.43-.64.1-1.34.42-1.9.26-9.12-2.61-18.16-5.57-27.36-7.85-6.83-1.7-13.86-2.63-20.83-3.74-6.31-1.01-12.78-1.29-18.74-3.9-3.12-1.37-5.86-3.18-6.59-6.9-1.24-6.33,2.98-10.82,10.24-11.15h-.02ZM115.49,233.75c.03-.13.05-.26.08-.39,1.5.35,2.99.72,4.5,1.02.4.08.85-.07,1.28-.12-.31-.35-.55-.81-.93-1.04-5.28-3.17-10.56-6.33-15.87-9.44-1.73-1.01-3.65-2.02-5.38-.11-1.44,1.58-.57,4.56,1.88,6.16,1.44.94,3.11,1.67,4.78,2.07,3.18.78,6.44,1.25,9.66,1.86h0Z"/>
</svg>