<?xml version="1.0" encoding="UTF-8"?>
<svg id="Layer_1" data-name="Layer 1" xmlns="http://www.w3.org/2000/svg" version="1.1" viewBox="0 0 298.63 557.64">
  <defs>
    <style>
      .cls-1 {
        fill: #000;
        stroke-width: 0px;
      }
    </style>
  </defs>
  <path class="cls-1" d="M212.56,176.08l-19.68,20.34c-2.52,2.6-.86,4.11,1.47,5.42,3.82,2.15,7.76,4.11,11.4,6.53,2.28,1.51,4.5,3.44,6.02,5.68,1.19,1.76,1.27,4.27,1.85,6.45-1.91-.78-4.12-1.17-5.67-2.4-9.66-7.66-20.99-11.21-32.73-13.99-21.25-5.02-42.84-7.57-63.96-1.31-23.32,6.92-38.84,22.63-45.68,46.59-4.39,15.37.46,28.19,11.33,38.06,15.7,14.25,34.1,21.65,56.18,17.17,8.1-1.64,16.87-1.97,25.04-.8,17.26,2.47,31.42-4.15,44.36-13.77,11.11-8.25,18.87-19.42,22.17-33.26.55-2.3,1.57-4.51,2.62-6.64.14-.28,2.33-.12,2.51.29.77,1.8,1.45,3.73,1.61,5.67,1.76,21.89-6.36,38.97-25.02,50.85-2.64,1.68-5.15,3.56-7.72,5.35,2.83,2,5.52,4.26,8.53,5.92,4.88,2.69,10.09,4.79,14.97,7.48,25.98,14.34,30.21,46.41,13.18,69.38-5.66,7.64-12.73,14.32-19.65,20.92-6.43,6.13-6.72,5.82,1.64,10.25,1.06.56,2.09,1.18,3.16,1.72,32.02,16.25,33.37,46.22,21.9,70.23-5.63,11.78-14.2,21.32-24.48,29.15-25.36,19.32-54.13,29.36-85.98,28.18-27.07-1-49.4-12.18-64.28-35.84-12.91-20.52-14.8-50,3.69-70.28,6.02-6.6,14.41-11.11,22-16.15,4.38-2.91,4.54-2.66-.06-5.88-5.21-3.65-10.55-7.21-15.3-11.41-15.22-13.45-17.64-30.67-13.2-49.34,3.8-15.98,12.41-29.32,24.3-40.57,2.32-2.2,4.83-4.24,6.88-6.67.53-.63.07-3.08-.69-3.61-1.93-1.35-4.32-2.02-6.47-3.07-9.47-4.61-17.59-10.98-24.64-18.78-14.5-16.04-17.48-38.49-6.58-59.15,4.41-8.35,10.79-15.74,16.88-23.07,2.73-3.29,3.89-5.61,1.08-9.22-1.45-1.86-2.13-4.31-3.49-6.27-1.76-2.52-3.85-4.82-5.8-7.21-.91,2.76-1.82,5.51-2.73,8.27-.75,2.25-1.15,4.74-2.4,6.67-.94,1.45-3.13,3.19-4.51,3-1.96-.28-4.21-1.86-5.37-3.55-1.29-1.87-1.71-4.45-2.11-6.78-.49-2.88-1.48-3.19-3.57-1.28-3.53,3.24-6.93,6.64-10.72,9.54-2.59,1.98-6.19,3.38-8.61.22-1.73-2.26-3.14-5.78-2.72-8.43.67-4.23,2.62-8.39,4.7-12.22,1.99-3.66,1.59-5.06-2.37-7.06-7.12-3.59-7.41-4.54-3.66-11.97,1.47-2.92.43-3.91-.77-5.97-2.37-4.05-4.97-8.23-6.02-12.7-.56-2.41,1.15-6.75,3.19-7.97,2.07-1.24,6.59-.76,8.63.8,3.68,2.83,6.33,7.02,9.38,10.67,1.48,1.77,2.89,3.6,4.33,5.41.84-2.23,1.74-4.45,2.51-6.7,1.66-4.89,3.15-9.84,4.92-14.7,1.13-3.1,3.08-6.44,6.78-4.98,1.84.73,3.8,4.38,3.58,6.47-.64,5.92,2.17,6.54,6.91,6.41,4.35-.12,8.72.63,13.09.91,1.83.11,5.03.52,5.29-.13,1.09-2.74,2.28-6.09,1.6-8.74-.96-3.74-3.48-7.1-5.52-10.51-.36-.6-2.02-1.16-2.49-.84-8.99,5.97-12.97-.68-17.18-6.73-.91-1.31-1.66-2.73-2.48-4.1-2.02-3.41-4.1-3.06-6.41-.23-3.04,3.71-5.95,7.59-9.43,10.84-1.46,1.36-4.66,2.3-6.31,1.61-1.67-.7-3.45-3.71-3.33-5.59.44-6.71,1.33-13.44,2.72-20.01.78-3.68-.09-3.76-3.27-3.37-6.32.79-12.7,1.48-19.04,1.35-2.18-.05-5.8-2.43-6.07-4.16-.29-1.93,2.33-4.45,3.99-6.47.67-.82,2.1-1.08,3.23-1.44,4.16-1.32,8.33-2.58,12.5-3.87-1.84-3.8-3.89-7.51-5.44-11.42-.86-2.17-1.21-4.67-1.21-7.02,0-8.02,4.96-11.47,12.76-8.93,2.87.94,6.31,3.89,8.24,3.05,2.37-1.03,3.26-5.19,5.1-7.78,2.76-3.9,5.36-8.09,8.87-11.2,1.99-1.77,6.01-2.82,8.5-2.08,3.59,1.06,5.23,4.75,4.51,8.79-.27,1.55-1.13,3.01-1.4,4.56-.71,4.05.23,4.61,4.51,2.96,3.34-1.3,6.61-2.98,10.08-3.71,5.93-1.25,9.3,2.87,6.71,8.45-1.99,4.28-5.18,8-7.71,12.05-1.24,1.98-1.4,3.73,1.8,3.71.4,0,.8,0,1.2.02,3.92.21,8.61-.71,10.3,4.1,1.67,4.77-2.98,6.8-5.36,9.75-.23.28-.21.76-.3,1.15-1.61.82-3.22,1.64-4.84,2.46-2.38.02-4.76-.02-7.14.07-4.01.15-3.3,1.95-1.63,4.4,5.81,8.5,12.61,16.58,11.43,28.04-.18,1.76,1.42,3.66,2.06,5.54,1.39,4.15,3.95,5.75,8.24,4.15,6.56-2.45,12.03-.55,15.47,5.26,2.88,4.86,4.72,2.09,7.27.05,7.1-5.69,14.34-11.22,21.46-16.89,1.16-.92,2.56-2.08,2.92-3.39,1.69-6.1,3.08-12.29,4.48-18.47.15-.67-.41-1.49-.64-2.24-.57.42-1.27.74-1.67,1.28-2.62,3.51-4.83,7.4-7.85,10.52-4.31,4.45-8.33,4.26-12.42,0-1.19-1.24-1.87-2.97-2.79-4.47-1.49,2.29-3.44,4.41-4.29,6.91-.56,1.64,1.03,3.92.7,5.73-1.05,5.69-6.74,8.64-11.57,5.23-3.33-2.36-5.48-2.29-8.43-.44-1.68,1.06-3.35,2.32-5.21,2.85-1.24.35-3.01-.09-4.13-.82-.66-.43-.67-2.12-.63-3.24.03-.72.56-1.51,1.05-2.12,6.08-7.61,3.61-13.49-3.58-18.58-3.29-2.34-3.93-5.8-3.33-9.6,1.61-.82,3.23-1.64,4.84-2.46,2.78,0,5.57.14,8.35-.02,5.12-.28,10.62-1.79,12.14,5.79.19.95,2.57,1.48,3.96,2.16,9.07,4.44,8.83,4.39,10.4-4.9.7-4.15-.78-4.94-4.28-4.6-1.18.12-2.41.14-3.58-.05-8.04-1.26-10.63-7.29-5.5-13.72,2.7-3.38,6.4-5.97,9.7-8.86,2.97-2.6,1.83-3.4-1.37-4.31-4.17-1.19-8.53-2.45-12.15-4.73-6.9-4.32-6.32-11.48,1.24-14.54,3.94-1.59,8.57-2.19,12.84-2.03,5.56.21,7.05-2.02,6.5-7.03-.26-2.35-.23-4.85.27-7.14,1.06-4.8,5.47-5.99,9-2.55,1.12,1.09,1.97,2.5,2.83,3.83,2.15,3.33,4.54,3.51,7.17.54,3.77-4.24,7.68-4,9.7,1.73,1.7,4.82,2.51,3.75,4.63.73,2.29-3.27,4.35-6.79,7.11-9.6,1.42-1.44,4.48-2.58,6.2-2.02,1.68.54,3.65,3.43,3.65,5.29-.02,5.12-.97,10.24-1.64,15.35-.35,2.69-.1,4.78,3.33,4.87,3.1.08,6.84-.77,8.04,3.34,1.19,4.08-1.15,7.06-4.4,8.95-5.6,3.26-4.35,5.32.74,7.42,1.42.58,2.63,1.82,3.75,2.94,7.35,7.31,6.06,17.5-3.83,19.76-8.25,1.88-9.56,5.97-10.72,12.82-1.51,8.95-5.18,10.89-14.95,10.78-1.29-.01-3.44,1.59-3.73,2.79-.63,2.66-.33,5.55-.42,8.34-.66,2.49-1.69,4.97-1.75,7.48-.02.69,2.82,1.69,4.45,2.08.99.24,2.2-.42,3.3-.67-.76-1.19-1.47-2.41-2.29-3.57-1.31-1.87-2.69-3.7-4.05-5.54,3.08-1.49,5.54-4.43,9.77-2.7,7.05,2.89,10.42-1.32,14.15-6.83,5.75-8.5,12.1-16.81,19.43-23.93,4.6-4.47,11.46-6.63,17.3-9.83-1.9,2.69-3.55,5.62-5.75,8.03-4.38,4.79-9.08,9.29-13.64,13.9-.79.8-1.58,1.6-2.37,2.39-.21.22-.42.44-.63.66.13-.3.26-.6.39-.9l2.36-2.41c3.2-1.4,6.3-3.13,9.62-4.12,3.82-1.14,7.09-.59,7.83,4.45.22,1.51,1.57,2.86,2.4,4.28.61-1.73,1.81-3.49,1.73-5.19-.31-6.99,2.15-14.31-2.19-20.88-3.89-3.23-8.08-6.17-11.52-9.82-1.55-1.65-1.58-4.73-2.3-7.16,2.48-.53,5.6-2.26,7.32-1.35,4.41,2.33,8.18,5.87,12.25,8.86,1.21.89,2.59,1.54,3.89,2.3.56.3,1.12.61,1.68.91-.59-.28-1.17-.55-1.76-.83-2.23-4.1-4.57-8.15-6.67-12.32-1.95-3.88-4.25-7.73-5.31-11.86-1.07-4.16-1.59-9.14,3.5-11.53,4.77-2.24,8.48.25,11.48,3.87,1.77,2.15,3.37,4.45,4.92,6.77,2.01,2.98,3.87,6.06,5.85,9.06,1.02,1.55,1.99,3.99,3.3.05,1.47-4.4,2.47-9.21,8.86-9.4,1.26-.04,2.37-2.99,3.68-4.48,2.89-3.31,5.57-6.89,8.92-9.65,1.41-1.17,4.51-1.16,6.42-.5,1.01.35,1.77,3.4,1.49,5.03-.61,3.5-1.98,6.86-3.02,10.28-.8,2.62-1.57,5.25-2.36,7.87-.24.2-.47.39-.71.59.16-.28.31-.55.47-.83,4.8-1.84,9.66-3.54,14.38-5.56,3.41-1.46,6.3-1.11,8.51,1.83,2.38,3.17.74,6.08-1.26,8.7-1.2,1.57-2.62,3-4.06,4.37-3.52,3.35-3.42,6.54.3,9.57,5.08,4.14,5.52,9.56.96,14.43-1.62,1.73-3.59,3.18-5.59,4.47-2.16,1.39-2.58,2.29-.16,3.96,2.95,2.03,5.66,4.41,8.37,6.77,2.61,2.26,4.53,5.31,2,8.26-1.52,1.77-4.78,3.1-7.12,2.9-4.7-.39-9.35-1.8-13.93-3.09-3.23-.92-4.33-.01-4.2,3.28.12,3.1.74,6.64-.47,9.24-2.91,6.22,2.65,10.39,2.99,15.72.02.33,2.63.98,3.84.67,4.6-1.16,9.06-2.92,13.69-3.92,3.53-.76,8-.99,9.27,3.09.75,2.4-1.16,5.77-2.29,8.54-.56,1.39-1.99,2.46-3.1,3.61-2.85,2.95-7.55,5.18.98,7.71,6.25,1.85,7.09,7.1,2.81,12.45-4.2,5.26-9.25,9.91-14.28,14.42-3.9,3.5-5.57,6.63-1.13,10.83,1.13,1.07,1.88,2.57,2.63,3.97,1.81,3.37,2.91,7.21-.75,9.64-3.46,2.29-7.04.49-9.5-2.52-4.28-5.25-8.27-10.74-12.47-16.06-1.97-2.5-4.05-4.92-6.22-7.24-1.27-1.35-2.69-1.63-3.25.73-.84,3.47-1.69,6.94-2.4,10.44-2,9.85-7.39,15.47-14.33,14.86-7.26-.64-13.89-7.94-14.64-16.68-.4-4.75-.08-9.56-.08-14.34.3-.5.6-1,.91-1.5-.24.56-.48,1.12-.72,1.69v.04ZM128.26,137.37c.81-.81,1.61-1.62,2.42-2.43.23-.12.46-.25.69-.37l-.41.66c-.82.8-1.64,1.59-2.45,2.39-.83.8-1.65,1.59-2.47,2.39-4.91,4.89-10.18,9.49-14.59,14.79-2.91,3.49-4.65,7.98-6.78,12.09-.59,1.15-.68,2.55-1,3.84,1.69.33,4.32,1.52,4.91.86,5.42-5.99,9.64-3.19,13.98,1.28.46.48,1.93,0,2.93-.06-.38-4.76,3.59-6.68,6.05-9.64.41-.5-.31-2.84-1.04-3.19-1.35-.63-3.15-.2-4.67-.58-6.27-1.56-7.55-4.48-4.63-10.33,1.54-3.09,3.12-6.15,4.69-9.22.79-.83,1.58-1.65,2.37-2.48h0ZM106.86,110.91c.25.26.49.52.74.79-.33-.18-.65-.36-.98-.54.01-.77.35-1.81-.02-2.28-1.69-2.15,4.94-6.49-1.45-6.86-4.9-.28-3.21,4.12-3.28,6.96-.02.77.18,1.54.29,2.3l-3.74.99c.28.2.71.63.83.55.93-.55,1.79-1.2,2.68-1.82,1.65-.03,3.29-.06,4.94-.09h-.01ZM260.3,156.96c-.44-2.51-.66-5.1-1.48-7.48-.18-.52-2.55-.6-3.81-.35-1,.2-2.61,1.24-2.58,1.85.05,1.23.72,2.98,1.69,3.52,1.97,1.09,4.3,1.51,6.48,2.21,5.31,8.49,5.47,10.8-1.86,13.87-4.95,2.07-3.96,3.15-1.49,6.11,4.41,5.31,4.34,5.39,9.35.8,3.82-3.5,7.74-6.91,11.38-10.59,2.36-2.39,1.66-4.4-1.79-4.5-4.65-.14-8.71-1.04-10.96-5.66,3.22-3.46,6.5-6.85,9.62-10.39,2.17-2.47,4.1-5.14,6.14-7.72-3.38.77-6.8,1.4-10.14,2.34-3.77,1.06-6.26,3.18-5.73,7.67.33,2.75.27,5.55.38,8.33-1.73,0-3.47,0-5.2,0v-.02ZM166.94,29.6c-6.74,3.9-9.76,9.94-10.1,17.54-.14,3.22.16,6.94-5.09,5.23-.19,1.26-.98,2.94-.45,3.72,1.79,2.61,4.18,4.8,6.09,7.34,2.22,2.96,1.77,5.86-.63,8.68-3.09,3.65-3.7,8.21-2.02,12.34.9,2.21,1.38,4.62,2.5,6.69.87,1.6,2.44,2.81,3.7,4.2.35-1.49.83-2.96,1.04-4.47,1.23-8.63,5.98-14.02,14.27-16.18.95-.25,2.26-1.2,2.38-1.98.14-.92-.57-2.55-1.37-2.93-3.2-1.55-6.57-2.75-9.88-4.07-7.51-2.99-8.23-6.18-2.9-12.19,1.38-1.56,3.33-3.48,3.34-5.24.02-6.29-.69-12.58-1.12-18.87.19-.28.39-.56.58-.84-.12.36-.23.71-.35,1.07v-.04ZM265.42,96.49c.26.27.52.54.79.81-.35-.18-.7-.37-1.05-.55-.48-.62-.89-1.3-1.44-1.84-7.74-7.6-7.2-9.66,3.33-12.77,1.52-.45,3.19-.72,4.45-1.56,1.12-.75,1.78-2.2,2.65-3.34-.94-.58-1.82-1.44-2.85-1.68-1.54-.35-3.18-.18-4.77-.39-4.91-.63-7.75-3.88-8.51-9.76.34-.14.71-.23.99-.44.15-.11.14-.44.2-.67-.32.45-.63.9-.95,1.34-8.2-3.09-9.08-4.52-6.68-11.24,1.27-3.57,2.66-7.1,4-10.65.31-.51.61-1.02.92-1.53-.22.59-.44,1.19-.66,1.78-1.01.53-2.49.8-2.96,1.63-2.46,4.41-5.12,8.79-6.82,13.5-1.33,3.69-2.97,6.44-6.86,7.44-4.67,1.2-4.84-3.1-6.47-5.47-4.05-5.91-7.93-11.93-11.95-17.86-.63-.93-1.62-1.61-2.44-2.4-.02,1.48-.62,3.33.05,4.37,4.93,7.7,9.18,16.17,15.52,22.54,4.71,4.74,5.36,9.23,5.08,14.86-.1,1.99-.28,4-.08,5.97.08.78,1.08,1.47,1.66,2.2.77-.83,2.23-1.69,2.19-2.49-.15-3.52-.94-7.01-1.08-10.52-.13-3.27.91-4.58,5.05-4.16,8.69.89,10.69,3.67,7.18,12.23-4.1,9.98-3.86,10.38,6.73,10.67,1.59.04,3.19,0,4.78-.01h0ZM134.91,536.7c26.86-.41,50.98-8.89,72.11-25.4,5.28-4.13,9.74-9.44,14.05-14.65,12.1-14.65,11.95-46.56-4.03-60.76-2.39-2.12-4.89-4.23-6.83-6.74-3.43-4.44-6.56-5.11-12.06-2.53-25.36,11.88-51.98,14.77-79.51,9.42-10.41-2.02-19.66.54-27.99,7.17-27.7,22.05-25.93,61.65,3.48,81.82,12.4,8.5,25.98,11.88,40.78,11.65v.02ZM137.41,323.28c-5.6-.27-11.25-.15-16.77-.93-5.61-.79-9.99.8-14.44,4.1-12.31,9.13-20.67,21.06-25.64,35.35-8.82,25.38.18,44.18,25.28,53.4,1.12.41,2.3.64,3.44,1,23.76,7.58,47.25,5.89,70.57-2,14.37-4.86,26.2-13.17,36.05-24.82,12.06-14.27,13.07-28.74,3.9-45.36-5.2-9.43-13.82-15.27-21.87-21.84-5.9-4.81-12.06-5.98-19.02-3.65-13.51,4.52-27.48,4.77-41.5,4.74h0ZM149.13,141.65c1.1-.24.1-.02-.9.19.44.96.85,1.93,1.32,2.87.99,2,2.63,3.89,2.92,5.98,1.67,11.81,3.15,23.65,4.38,35.52.32,3.04.49,5.41,4.06,6.18,7,1.51,13.97,3.18,20.93,4.88,3.82.93,5.66-.92,7.57-4.03,3.95-6.43,8.16-12.75,12.79-18.7,3.5-4.49,8.91-7.47,7.01-14.9-.56-2.19,2.44-5.68,4.44-8.04,2.04-2.39,4.67-4.46,7.39-6.05,3.53-2.06,3.27-3.97.67-6.42-.58-.55-1.44-1.14-1.53-1.8-.3-2.13-1.18-5.05-.17-6.27,1.07-1.28,4.12-1.41,6.2-1.18,2.31.25,4.48,1.61,6.78,2.25,3.37.94,6.35.68,7.89-3.19.58-1.46,1.16-3.08,2.22-4.17,2.2-2.28,2.93-4.37,1.33-7.44-1.07-2.05-1.18-4.59-1.72-6.91-2.09,1.54-4.07,3.3-6.33,4.52-1.28.69-3.9,1.21-4.44.56-5.09-6.04-7.16-1.12-10.42,2.15-3.34,3.34-7.36,6.16-11.47,8.52-3.7,2.13-4.21,3.06-.9,6.53,5.4,5.64,3.98,9-3.43,10.18-2.74.43-5.52.59-8.28.87.96,2.58,2.08,5.12,2.82,7.76.54,1.9.92,3.95.78,5.9-.4,5.77-5.26,7.95-10.27,4.78-5.3-3.36-10.16-2.87-14.57,1.46-1.71,1.68-3.29,3.73-5.35,4.74-2.28,1.11-5.63,2.37-7.44,1.44-1.9-.96-3.5-4.45-3.48-6.82.03-4.71,1.31-9.41,1.99-14.13.52-3.61-.17-6.39-4.69-6.48-1.98-.04-3.96-.35-8.1-.75h0ZM132.98,85.16c.44,2.51.88,5.01,1.32,7.52,1.32-1.95,2.59-3.94,3.99-5.83,1.89-2.55,3.68-5.23,5.9-7.48,1.97-2,2.3-2.71.23-5.41-1.8-2.35-1.74-6.83-1.18-10.14.85-5.06,2.86-9.92,4.32-14.89.77-2.63,1.39-5.3,2.08-7.95-2.13.87-4.45,2.79-6.37,2.44-8.46-1.53-15.52,5.68-23.98,3.47-.88-.23-1.96.32-2.95.5,1.14.29,2.29.56,3.43.86,3.06.83,6.29,1.32,9.14,2.62,3.06,1.39,7.12,2.92,8.33,5.52,2.06,4.43-2.36,7.02-5.48,9.44-2.52,1.96-5.24,3.67-7.81,5.57-.63.46-1.04,1.21-1.55,1.82.95.25,1.89.55,2.85.74,5.54,1.09,8.12,4.82,7.73,11.19h0ZM221.83,186.68c.66,1.99,1.42,5.45,2.94,8.54,1.16,2.36,4.72,1.97,5.63-.52.8-2.2.8-4.69,1.46-6.96,1.75-6.04,2.19-12.39,6.68-17.64,4.65-5.41,3.87-8.79-1.52-14.28-5.26-5.36-6.07-5.39-13.15-.4-.33.23-.63.5-.97.71-3.62,2.12-5.34,4.46-2.05,8.49,3.21,3.92,4.23,8.37,2.08,13.42-.9,2.11-.65,4.7-1.11,8.65h0ZM67.73,82.26c2.39-.31,3.96-.52,5.53-.72-.22-.52-.29-1.26-.68-1.53-6.93-4.82-4.35-10.05-.79-15.39.38-.57.34-1.41.5-2.12-.99.07-2.05-.06-2.97.23-2.63.85-5.13,2.26-7.81,2.73-3.78.65-7.27.05-7.83-4.89-.13-1.18-.4-2.34-.6-3.51-1.11,1.06-2.5,1.94-3.3,3.19-4.57,7.21-10.17,8.21-16.78,3-.31-.25-.61-.6-.96-.69-1.04-.26-2.1-.41-3.15-.61-.08,1.07-.64,2.54-.15,3.15,3.7,4.55,7.64,8.91,11.46,13.38,2.24,2.62,3.97,2.57,6.81.23,6.9-5.69,9.27-5.25,16.53,1.17,1.32,1.17,3.14,1.78,4.2,2.36v.02ZM77.98,183.39c-3.36,7.03,2.81,12.17,4.74,18.32.15.49,2.47.8,3.48.41,1.83-.7,3.44-1.97,5.13-3.02,4.81-2.99,2.49-7.93,3.16-12.01.69-4.18-3-3.51-5.35-4.59-5.92-2.73-6.84-6.02-2.96-11.24,2.35-3.17,5.39-5.85,8.26-8.62,2.1-2.02,1.37-3.07-.9-4.08-2.18-.97-3.84-2.12-6.07.61-3.89,4.77-9.12,16.27-9.4,22.6-.02.4-.04.8-.08,1.62h-.01ZM195.76,136.37c.49-2.28,1.21-3.53.86-4.32-2.44-5.55,1.07-8.06,5.06-10.34,1.71-.98,3.72-1.55,5.25-2.75,3.22-2.53,6.21-5.36,9.3-8.06-3.7.72-7.4,1.47-11.11,2.15-3.96.72-8.22,1.96-8.62-4.45,0-.23-2.32-.86-2.89-.43-1.87,1.44-3.57,3.16-5.08,4.99-2.26,2.73-4.3,5.64-6.44,8.47,2.15,1.61,4.67,2.92,6.35,4.94,1.42,1.7,1.65,4.35,2.83,6.32.67,1.12,2.18,1.74,4.51,3.48h-.02ZM52.12,91.33c-5.58-.17-5.66-.22-7.69,3.56-1.1,2.05-2.21,4.2-2.71,6.43-.75,3.35-.98,6.82-1.43,10.24,2.08-2.2,4.11-4.46,6.26-6.59,6.89-6.8,11.77-6.54,17.64,1.03,1.93,2.49,3.51,5.24,5.38,7.78.4.54,1.8,1.09,1.99.9.72-.74,1.69-1.84,1.59-2.7-.96-8.35-7.55-13.55-11.58-20.19-2.87-4.73-6.44,1.12-9.45-.46ZM69.53,149.44c-3.4.62-5.74.96-8.05,1.47-9.43,2.07-11.94,5.12-11.36,14.09.05.85,1.36,2.18,2.19,2.26.86.09,2.36-.89,2.65-1.73.46-1.35.58-3.11.1-4.44-1.2-3.34.54-4.49,3.24-4.55,3-.07,6.02.31,9.01.7,3.04.39,6.04,1.33,9.06,1.38,1.1.02,2.87-1.71,3.14-2.92.23-1.04-.93-3.08-2-3.58-2.78-1.31-5.84-2.01-7.97-2.69h0ZM148.02,190.3c4.19.09,5.72-2.06,4.57-6.44-1.69-6.48-3.39-12.95-5.02-19.44-.46-1.83-.67-3.72-1-5.58-.78,1.78-1.38,3.68-2.38,5.32-2.46,4.04-5.53,7.55-.57,12.4,1.64,1.61,2.06,6.75.73,8.7-4.4,6.42.87,4.58,3.67,5.05h0ZM32.45,191.51c.41,1.3.63,2.02.86,2.74.91-.59,2.01-1.01,2.7-1.79,3.9-4.47,7.05-9.91,11.71-13.29,4.33-3.13,10.24-4.09,15.46-5.99,1.22-.45,2.46-.86,3.69-1.28-.83-1.32-1.4-3.01-2.58-3.8-.7-.48-2.86.04-3.5.82-3.39,4.17-7.7,4.8-12.74,4.69-2.43-.05-5.88,1.08-7.15,2.88-3.38,4.79-5.83,10.23-8.44,15.04v-.02ZM166.44,154.01c.41,2.41.73,4.34,1.06,6.26,1.53-1.05,3.15-1.98,4.58-3.16,4.21-3.47,8.37-7.01,12.49-10.59.5-.44,1.03-1.26.95-1.83-.07-.53-.9-1.32-1.44-1.36-3.44-.29-6.95-.84-10.32-.4-1.93.25-4.31,1.82-5.27,3.5-1.32,2.29-1.47,5.25-2.04,7.58h-.01ZM145.98,151.31c-1.09-3.69-1.89-6.25-2.6-8.84-.51-1.86-.9-3.75-1.34-5.62-1.27,1.41-2.67,2.72-3.8,4.23-5.84,7.86-5.83,7.94,3.54,11.04,1.05.35,2.47-.45,4.2-.81h0ZM102.89,139.43c-3.06.69-4.58,1.04-6.11,1.39.85,1.17,1.61,2.42,2.57,3.49,1.32,1.46,2.67,2.94,4.24,4.11,1.01.75,2.43.96,3.67,1.41.57-1.75,2.15-4.22,1.52-5.11-1.62-2.3-4.23-3.89-5.88-5.29h0ZM248.96,136.12c.11,1.5-.12,2.83.36,3.8,1.03,2.1,2.44,4.01,3.69,6,.74-2.4,1.7-4.77,2.13-7.23.16-.94-.7-2.28-1.46-3.09-.9-.95-2.21-1.53-3.34-2.27-.5,1.01-.99,2.01-1.37,2.78h-.01ZM116.57,190.41c2.32-.12,3.51-.08,4.66-.29.94-.17,1.82-.65,2.72-.99-.55-.52-1.07-1.07-1.66-1.54-.91-.74-1.78-1.78-2.83-2.04-1.57-.4-3.38-.58-4.9-.17-.67.18-1.54,2.65-1.19,3.01,1.05,1.11,2.65,1.71,3.2,2.02h0ZM252.25,166.92c1.33-.95,2.97-2.13,4.61-3.3-1.62-.81-3.16-1.95-4.87-2.34-1.44-.32-3.14.03-4.6.49-.75.24-1.48,1.28-1.72,2.1-.13.44.69,1.5,1.29,1.73,1.42.55,2.98.77,5.3,1.31h0ZM172.36,136.76c-1.09-1.51-1.86-3.55-2.73-3.6-2.69-.14-5.44.33-8.1.9-1,.21-1.8,1.34-2.7,2.04.92.46,1.8,1.15,2.77,1.34,2.63.51,5.3.93,7.98,1.12.7.05,1.47-.91,2.78-1.8h0ZM178.08,138.89c2.58-2.57,4.36-3.64,4.92-5.16.35-.95-1.16-2.57-1.84-3.9-1.2,1.14-2.73,2.1-3.47,3.48-.5.94.11,2.47.4,5.58h0ZM154.26,64.15c-1.85-.73-3.75-2.15-4.7-1.67-1.16.59-1.98,2.73-2.06,4.25-.05.89,1.64,1.86,2.55,2.8.86-1.1,1.73-2.21,4.21-5.37h0ZM252.3,81.53c-2.55-2.17-3.3-2.81-4.05-3.45-.76,1.09-1.79,2.09-2.14,3.3-.17.59,1.12,2.29,1.45,2.21,1.44-.34,2.77-1.14,4.75-2.06h0ZM224.61,107.29c1.27-.99,2.05-1.31,2.07-1.67.09-1.5-.04-3.01-.17-4.52,0-.03-1.42-.03-1.42.04-.2,1.78-.3,3.57-.48,6.15h0ZM36.69,173.38c-1.88-1.27-2.37-1.89-2.84-1.87-1.47.06-2.94.36-4.41.57.39.44.74,1.2,1.17,1.25,1.44.16,2.91.06,6.08.06h0ZM54.21,83.61c.71-.46,1.68-1.01,1.64-1.08-.42-.87-.87-1.79-1.56-2.41-.21-.19-1.21.51-1.84.8.57.87,1.14,1.74,1.76,2.69ZM96.73,96.76c-.23-.26-.46-.51-.69-.77-.25.57-.58,1.13-.71,1.73-.04.17.46.47.71.71.23-.55.46-1.11.69-1.67Z"/>
  <path class="cls-1" d="M173.99,187.72c.75-7.96,3.76-14.24,8.7-19.54.79-.85,2.76-.61,4.18-.87.14,1.38.83,3.04.31,4.09-2.79,5.61-5.83,11.1-8.93,16.55-.73,1.29-2.02,2.25-3.06,3.36-.46-1.37-.91-2.74-1.2-3.6h0Z"/>
</svg>