<?xml version="1.0" encoding="UTF-8"?>
<svg id="Layer_1" data-name="Layer 1" xmlns="http://www.w3.org/2000/svg" version="1.1" viewBox="0 0 367.25 557.64">
  <defs>
    <style>
      .cls-1 {
        fill: #000;
        stroke-width: 0px;
      }
    </style>
  </defs>
  <path class="cls-1" d="M301.47,94.28c10.15-3.51,13.21,2.73,16.28,9.19,2.18,4.59,4.69,9.06,7.05,13.58,3.2-3.91,6.26-7.92,9.63-11.72,7.79-8.79,15-12.19,20.08-9.06,7.67,4.73,6.19,12.2,4.18,18.28-2.43,7.36-6.78,14.38-11.35,20.97-3.47,5.01-11.07,8.7-12.14,13.76-.8,3.8,6.24,8.66,9.08,13.38,2.54,4.21,5.28,8.76,5.87,13.37,1.17,9.11-7.71,14.44-16.88,9.8-5.42-2.74-7.96-3.11-10.97,1.86-3.47,5.75-6.47,14.1-15.53,12.05-9.59-2.16-8.8-10.99-8.94-18.26-.04-1.82-.02-3.66-.26-5.46-.5-3.76-2.34-5.19-6.73-3.37-3.93,1.63-8.55,6.71-12.24,1.44-2.01-2.87-.41-7.91.16-11.91.23-1.64,2.14-3.06,3.06-4.68.49-.87.48-1.96.7-2.96-1.25-.21-2.83-.96-3.7-.55-18.18,8.61-35.83,17.9-49.08,32.33-.79.86.69,3.36,1.12,5.1,12.59-3.35,8.28,3.08,6.69,8.68-12.1,42.56-17.97,85.35-11.56,129.48,3.59,24.74,9.09,48.86,16.63,72.76,10.7,33.89,11.29,68.22,4.66,102.65-2.72,14.11-10.17,25.97-24.6,34.2-15.9,9.06-32.41,16.58-51.57,14.71-9.74-.95-21.45-3.43-28.06-9.08-21.42-18.32-35.3-40.34-28.17-68.3,7.36-28.88,14.94-57.72,23.05-86.44,7.5-26.58,12.15-53.39,11.47-80.84-.63-25.43,2.95-51.04-3.96-76.2-2.09-7.63-4.26-15.24-6.58-22.82-1.63-5.35,2.14-6.15,6.57-6.57,2.56,8.15,5.51,16.21,7.62,24.45,13.76,53.64,11.06,107.26-1.88,160.57-5.44,22.44-14.02,44.27-20.01,66.62-3.45,12.87-6.52,26.25-6.32,39.36.48,31.15,26.85,52.05,59.36,48.91,26.13-2.52,47.21-19.52,52.01-41.93,7.94-37.03,4.67-73.43-5.74-109.85-6.35-22.22-12.77-44.91-14.25-67.64-2.4-36.83-4.38-74.13,9.79-110.04.54-1.37-.46-3.21-.74-4.83-1.64.88-4.37,1.48-4.74,2.67-3.61,11.6-8.08,23.14-9.87,34.99-2.63,17.4-1.61,35.31-5.18,52.51-4.11,19.84.16,38.65,3.88,57.7,7.71,39.45,14.81,78.91,9.59,119.16-2.37,18.25-7.17,35.78-19.87,50.85-1.17,1.39-2.7,2.54-4.06,3.8.18-1.98-.28-4.24.65-5.89,10.28-18.22,15.55-37.74,15.32-57.83-.28-24.82-2.78-49.62-4.47-74.43-.09-1.3-1.53-2.54-2.34-3.8-1.14,1.43-3.01,2.74-3.3,4.29-1.46,7.75-1.8,15.71-3.8,23.33-9.47,35.96-20.33,71.69-19.85,109.08.02,1.36-1.04,2.73-1.6,4.1-.65-1.67-1.39-3.32-1.93-5.01-6.84-21.29-1.85-42.41,3.32-62.95,8.65-34.35,18.1-68.53,17.36-103.97-.35-16.93-4.42-33.84-4.27-50.74.24-27.26,2.53-54.51,4.1-81.75.24-4.18-.61-7.05-5.96-7.72-3.38-.42-6.66-1.46-10.03-1.97-10-1.51-11.3-.28-7.95,7.83,8.73,21.12,14.03,42.78,16.03,65.31,2.57,28.9-3.22,56.59-10.62,84.5-10.75,40.5-24.63,80.94-14.06,123.44.4,1.61.25,3.32.35,4.99-1.32-1.65-3.54-3.2-3.8-4.97-2.01-13.74-4.91-27.52-5.11-41.31-.41-28.7,7.05-56.59,15.89-83.92,15.52-48.03,14.6-95.43-2.17-142.96-3.87-10.96-9.48-19.92-21.87-24.53-1.77-3.4-3.96-7.77,3.29-6.64,5.89.92,11.25,4.27,17.07,5.89,2.2.61,5.05-.63,7.6-1.02-.47-1.64-.47-3.57-1.48-4.88-20.33-26.35-56.51-28.37-73.53-16.57-1.54,1.07-2.82,2.42-4.22,3.64,1.93.48,3.84,1.17,5.81,1.4,5.38.62,11.56-.23,15.98,1.89,4.88,2.34,11.12,7.23,11.27,11.18.14,3.73-6.6,10.66-10.76,10.94-12.08.81-10.66,4.89-7.51,12.52,4.51,10.93,3.51,10.72-8.34,18.06-4.58,2.84-7.44,7.99-10.73,12.3-3.44,4.5-6.04,10.2-13.76,8.87-6.39-1.1-8.18-5.82-8.59-10.99-.36-4.68-1.68-6.85-7.11-3.12-6.46,4.45-13.14,8.7-20.13,12.46-5.48,2.94-11.8,4-17.08-.38-4.71-3.9-3.69-8.88-1.24-13.49,3.48-6.54,7-13.09,11.06-19.35,2.65-4.09,6.29-7.68,9.48-11.49-4.25-2.67-9.02-4.88-12.63-8.1-6.16-5.49-12.17-11.25-17.15-17.58-4.35-5.54-3.13-11.63,2.13-16.67,5.19-4.98,11.66-6.38,18.68-3.85,6.31,2.28,12.29,5.28,18.49,7.8,1,.41,2.42,0,3.64-.05-.15-1.02,0-2.18-.5-3.04-2.47-4.3-6.37-8.31-7.34-12.84-.92-4.28,1.18-9.06,1.96-13.62,4.99,1.01,12,.54,14.59,3.32,7.26,7.77,13.48,16.54,18.55,25.6,2.67,4.77,4.08,5.52,8.24,2.16.51-.41.97-.86,1.48-1.26,28.23-21.5,60.72-17.87,81.97,9.12,2.7,3.43,5.52,6.78,8.28,10.16.38,1.65.75,3.29,1.13,4.94.65-.4,1.29-.81,1.94-1.21-1.19-1.11-2.37-2.22-3.56-3.33,4.71-26.83-11.94-44.82-32.18-61.37-3.84-3.14-3.89-.28-4.49,1.97-.62,2.35-.71,4.94-1.94,7-4.32,7.24-12.28,8.6-18.17,2.26-4.15-4.47-6.81-10.37-8.76-16.01-1.72-4.96-3.38-6.15-7.94-2.61-4.11,3.19-7.87,7.01-12.57,9.27-3.74,1.79-10.23,3.47-12.65,1.85-2.82-1.89-4-7.65-3.27-11.32,1.15-5.82,4.16-11.42,6.96-16.88,2.42-4.72,4.29-8.11-2.73-11.72-4.15-2.13-7.72-7.1-8.91-11.37-2-7.17-1.13-14.96,5.79-20.19,7.59-5.73,15.44-1.76,22.96,1.11.28.49.47,1.03.87,1.43.2.2.75.14,1.14.19-.8-.42-1.6-.83-2.4-1.25-.71-5.33-1.56-10.65-2.08-16-.53-5.41-1.64-10.97-.73-16.22.5-2.89,4.2-6.77,7.26-7.47,3.11-.72,8.46.99,10.59,3.28,3.79,4.07,5.76,9.45,8.76,14.15,1.55,2.42,3.65,3.57,5.12-.22.44-1.15.22-2.76,1.05-3.47,3.62-3.12,7.62-8.54,11.3-8.43,7.5.22,11.87,6.33,11.98,12.76.1,5.88-2.17,11.78-3.4,17.68-1.15,1.37-2.84,2.62-3.3,4.16-.42,1.4.5,3.11.83,4.68.6-1.32,1.45-2.59,1.73-3.96.34-1.7.21-3.48.29-5.23,3.25-.61,6.52-1.16,9.75-1.86,5.01-1.08,7.07-3.15,3.09-7.33-1.3-1.37-2.89-2.98-3.1-4.61-.28-2.13.67-4.4,1.08-6.6,3.02.5,6.96.11,8.88,1.67,3.96,3.23,6.74,7.56,10.2,11.3,1.67,1.82,3.76,3.34,5.66,4.99.47-2.16,1.29-4.32,1.34-6.49.26-9.66.08-19.32.54-28.97.17-3.53.69-7.58,2.78-10.37,2.77-3.68,6.77-8.13,11.1-9.03,6.3-1.32,9.54,4.09,10.3,9.05,1.29,8.46,4.83,6.79,9.77,2.39,5.31-4.73,11.68-7.06,18.27-2.84,6.55,4.19,5.48,10.51,3.43,16.56-.39,1.16-1.07,2.24-1.42,3.4-3.32,11.27.04,14.41,12.19,11.44,15.72-3.85,22.62-.4,25.43,13.49.8,3.95-.12,8.25-.79,12.33-1.04,6.34-1.57,10.1,8.77,7.55,9.18-2.27,9.63-.86,11.61,13.69-1.46,1.27-2.91,2.53-4.37,3.8-1.59,1.06-3.45,1.93-4.71,3.24-1.26,1.31-1.93,3.07-2.86,4.64.99.42,2.56,1.4,2.87,1.15,1.42-1.16,2.91-2.51,3.58-4.07.7-1.62.5-3.54.7-5.34,1.46-1.26,2.92-2.53,4.37-3.79v-.02ZM268.46,108.92c1.38-1.23,2.76-2.45,4.13-3.68,1.36-1.2,2.73-2.39,4.09-3.59,1.38-1.22,2.75-2.43,4.13-3.65,1.35-1.25,2.69-2.5,4.04-3.75.55-.16,1.16-.24,1.63-.5.27-.15.33-.61.48-.93-.55.61-1.1,1.23-1.65,1.84-1.39,1.22-2.77,2.43-4.16,3.65-1.38,1.21-2.76,2.43-4.14,3.64-1.33,1.22-2.67,2.45-4,3.67-1.38,1.23-2.76,2.46-4.13,3.69-1.05.26-2.1.53-3.16.79.43.49.87.99,1.3,1.48.48-.89.96-1.78,1.44-2.67h0ZM289.05,163.73c3.45-2.55,6.99-5.01,10.26-7.73.74-.62.5-2.17.7-3.29-1.7.18-4.39-.17-4.93.62-2.27,3.37-3.89,7.08-5.75,10.66-.65.8-1.29,1.6-1.94,2.41.55-.89,1.1-1.78,1.65-2.67h0ZM161.45,83.67c-.91-.47-1.82-.95-2.73-1.42,1,.39,2.01.77,3.01,1.16-.63,4.73.13,8.56,7.07,7.13,1.52-.32,2.65-2.16,3.96-3.3-3.12-1.27-6.21-2.58-9.36-3.78-.52-.2-1.29.13-1.95.21h0ZM239.88,58.1c-3.77,2.95-7.63,5.81-11.23,8.92-.6.52-.09,2.05-.09,3.11,1.64-.15,4.27.2,4.75-.54,2.41-3.75,4.26-7.79,6.31-11.73.61-.74,1.23-1.49,1.84-2.23-.53.83-1.05,1.65-1.58,2.47ZM190.54,79.57c-.14.12-.29.25-.43.37-6.81-3.61-13.52-7.39-20.52-10.68-1.18-.55-3.62,1-5.47,1.58.99,1.5,1.67,4.04,3.01,4.34,7.72,1.75,15.6,2.97,23.42,4.37v.02ZM75.3,178.24c.13.51.15,1.08.43,1.51.17.27.74.34,1.14.49-.64-.57-1.27-1.14-1.9-1.71-1.01-10.91-8.03-18.2-18.18-23.55-.09-.05-1.28.93-1.19,1.28,2.63,10.08,8.37,18.02,19.71,21.97h0ZM235.53,167.38c3.01-1,6.69-1.33,8.93-3.1,13.47-10.61,28.49-18.44,46.21-21.88,1.33-.26,3.75-.31,3.83-.74.74-3.77,1.06-7.6,1.51-11.41-2.79,0-6.26-.92-8.25.21-6.85,3.87-13.11,8.56-19.76,12.72-4.53,2.83-9.15,3.38-11.31-2.3-2.23-5.87-6.29-4.17-8.49-1.13-6.15,8.48-13.2,16.85-12.43,27.84-.5.88-.99,1.76-1.49,2.63.41-.95.83-1.9,1.24-2.85h.01ZM223.47,109.36c-7,1.78-12.09,4.86-12.78,12.16-1.14,12.03-2.82,24.02-4.25,36.04-1.51,12.62-2.91,25.25-4.61,37.85-.17,1.29-2.09,2.4-3.21,3.59-1.09-1.31-3.12-2.63-3.12-3.94.05-10.28.28-20.57.88-30.83.66-11.48,1.86-22.93,2.61-34.4.15-2.32.29-6.06-1.14-6.81-7.17-3.79-14.63-7.38-22.46-9.88-4.52-1.44-9.36-.47-10.22,5.66-.49,3.48-2.11,7.11-4.26,10.08-3.24,4.47-2.66,7.13,2.2,10.47,19.97,13.71,27.02,32.56,26.92,54.33-.05,9.64,6.54,13.49,15.29,8.31,5.77-3.42,10.52-9.5,13.33-15.31,6.97-14.38,12.72-29.23,18.53-44.02.87-2.23.35-6.93-1.07-7.51-13.29-5.42-13.74-15.48-13.04-26.14.41-.43.82-.86,1.23-1.29-.27.55-.55,1.09-.82,1.64h0ZM197.87,49.76c.49,0,.99.02,1.48.03,0,7.85-.67,15.77.38,23.51.35,2.54,5.05,6.24,7.97,6.4,2.75.15,8.43-3.89,8.24-5.7-1.03-9.73,6.78-15.13,11.42-22.27,4.32-6.65,6.65-14.37,9.33-21.77.68-1.88-.67-4.34-1.09-6.54-2.23.97-5.64,1.44-6.49,3.01-3.82,7.01-6.76,14.39-10.41,21.48-.61,1.17-3.13,1.86-4.89,2.13-.7.1-2.32-1.47-2.52-2.44-1.56-7.72-2.82-15.48-4.32-23.21-.33-1.7-1.27-3.3-1.94-4.94-1.78,1.68-4.86,3.23-5.11,5.08-1.12,8.36-1.45,16.81-2.06,25.23h.01ZM28.85,177.48c-7.28,1.14-10.3,3.44-8.43,8.97,2.99,8.86,17.68,20.31,27.42,19.01,7.47-1,14.37-5.39,21.53-8.27-4.82-2.92-9.54-5.97-14.49-8.71-4.61-2.56-9.33-5.03-14.24-7.1-4.2-1.77-8.74-2.91-11.8-3.89h0ZM69.86,217.38c-3.43-.77-6.25-2.29-8.42-1.76-14.45,3.56-21.92,13.9-28.34,24.71-2.01,3.39-1.7,7.86-2.46,11.83,4.08-1.11,9.01-1.31,12.06-3.53,6.82-4.98,13.17-10.63,18.8-16.67,3.35-3.6,4.97-8.47,8.37-14.58h-.01ZM157.31,106.52c-2.16-5.15-3.85-11.75-7.62-17.24-2.36-3.43-7.83-5.19-11.9-7.7-1.58,4.46-3.9,8.86-4.41,13.42-.26,2.31,2.63,4.98,4.3,7.38,3.09,4.42,6.32,8.76,9.54,13.11,1.41,1.9,2.95,3.72,4.44,5.57,1.32-2.05,2.98-3.99,3.86-6.18.9-2.22,1.04-4.68,1.79-8.36ZM255.43,74.51c1.51,6.39,2.83,12.27,4.36,18.11.28,1.07,1.4,1.96,2.13,2.94.81-.82,1.98-1.51,2.38-2.47,2.86-6.74,6.14-13.41,8.09-20.37,1.1-3.93.72-8.54-.5-12.48-.7-2.24-4.18-4.3-6.93-5.29-1.01-.36-4.5,2.33-5.19,4.14-1.93,5.06-3,10.39-4.35,15.42h.01ZM198.55,245.75h-.63c0,6.06-.21,12.13.11,18.18.12,2.27,1.45,4.48,2.22,6.72.89-2.04,2.15-4.01,2.61-6.12,3.21-14.74,6.28-29.5,9.32-44.27.44-2.12.49-4.31.72-6.47-2.55.49-6.09.24-7.45,1.64-2.9,2.98-6.01,6.65-6.6,10.34-1.05,6.53-.29,13.3-.29,19.96v.02ZM75.47,242.65c.8,2.1,1.59,4.17,2.38,6.25,1.86-1.53,4.11-2.81,5.49-4.62,5.11-6.67,1.24-18.61,15.11-20.15-.38-1.63-.28-3.53-1.22-4.85-4.71-6.63-11.64-6.54-14.84.74-3.15,7.15-4.63,14.87-6.93,22.63h.01ZM97.12,95.15c2.47-2.2,6.43-5.7,10.38-9.21-5.45-4.2-10.9-8.41-16.35-12.61-2.62,2.96-6.74,5.63-7.53,8.93-1.56,6.51,4.23,12.66,13.5,12.9h0ZM306.17,175.73c.68,2.16,1.71,5.45,2.74,8.74,2.7-2.81,5.9-5.36,7.95-8.51,1.61-2.47,2.18-5.64,2.52-8.56.52-4.38,2.16-9.65.1-12.98-2.01-3.26-9.93,3.03-12.03,11.15-.74,2.87-.77,5.89-1.29,10.16h.01ZM314.63,122.12c-1.34-3.86-3.87-11.18-6.47-18.48-.03-.07-1.19-.06-1.43.2-6.73,7.37-5.5,15.81-3.93,24.23.44,2.37,1.17,4.76,2.19,6.98.89,1.93,2.38,3.64,3.61,5.45,1.57-1.79,3.83-3.4,4.53-5.42.98-2.83.79-5.98,1.5-12.95h0ZM325.43,141.11c1.76-.44,2.49-.47,3.04-.77,12.29-6.8,19.24-16.87,22.27-29.17.34-1.36-1.22-3.09-1.9-4.65-1.22.49-2.98.67-3.57,1.5-6.86,9.65-13.6,19.36-20.18,29.16-.59.88.18,2.48.33,3.93h.01ZM91.61,131.96c6.12-6.21,11.66-11.35,16.45-16.99,1.58-1.86,1.2-5.04,1.71-7.61-3.79-.27-10.02-1.89-10.96-.57-4.53,6.38-7.74,13.51-11.06,20.51-.32.67,1.8,2.25,3.87,4.66h-.01ZM123.51,120.81c1.39,4.38,2.79,9.57,4.81,14.55.49,1.2,3.19,2.53,4.64,2.35,1.32-.16,3.46-2.41,3.32-3.54-1.06-8.28-2.54-16.51-4.1-24.73-.15-.8-1.75-1.98-2.59-1.93-1.15.08-2.91.99-3.2,1.86-1.14,3.38-1.79,6.89-2.89,11.43h0ZM288.18,119.02c-3.04-1.37-4.55-2.62-6.07-2.63-4.02-.02-8.57-.44-11.91,1.05-3.65,1.63-7.15,4.84-8.78,8.12-.85,1.7,2.38,7.17,3.89,7.21,3.48.09,7.46-1.57,10.46-3.49,4.2-2.69,7.68-6.26,12.43-10.26h-.02ZM251.77,101.49c-1.37-11.52-2.48-21.08-3.7-30.64-.15-1.15-.91-2.23-1.39-3.34-1.72.74-4.25,1.09-4.99,2.3-1.79,2.9-4.37,6.5-3.74,9.3,1.72,7.63,4.76,15.05,7.72,22.42.53,1.33,3.15,2.01,4.8,2.99.71-1.64,1.42-3.29,1.3-3.02h0ZM204.34,92.35c-.86-.59-1.91-1.83-2.57-1.69-9.62,2.09-19.23,4.24-28.71,6.77-1.25.33-2.88,3.59-2.35,4.28,1.26,1.62,4.39,3.91,5.59,3.46,9.13-3.41,17.99-7.41,26.89-11.28.51-.22.73-.97,1.14-1.55h.01ZM103.36,191.56c-4.78,1.4-7.82,2.29-10.86,3.19,1.92,2.88,3.44,7.85,5.83,8.2,5.49.81,11.41-.6,17.12-1.3.22-.03.64-2.8.06-3.16-4.09-2.57-8.42-4.85-12.15-6.92h0ZM247.01,128.1c1.99-6.22-2.7-13.81-8.85-15.15-1.8-.39-5.43,1.1-6.2,2.56-2.69,5.15,1.4,10.98,9.2,13.29,1.86.55,4.31-.49,5.85-.7ZM214.18,96.56c1.18,2.39,2.29,4.85,3.72,7.16.11.18,2.91-.37,3.57-1.16,1.78-2.11,4.25-4.52,4.28-6.84.05-3.47-1.7-6.96-2.76-10.43-.35-1.14-.92-2.23-1.39-3.35-1.2,1.33-2.82,2.5-3.5,4.01-1.5,3.28-2.52,6.73-3.91,10.61h-.01ZM120.56,59.99c-1.95-4.31-5.08-11.29-8.3-18.24-.13-.27-1.09-.25-1.66-.36,1.47,7.37,2.89,14.75,4.43,22.1.36,1.75.91,3.5,1.72,5.11.34.67,1.59.97,2.42,1.44.32-.52.85-1.02.92-1.57.2-1.77.22-3.56.47-8.49h0ZM115.46,98.91c-2.32-1.75-3.79-2.86-5.25-3.96-1.45,1.76-2.9,3.52-4.35,5.28,1.8.58,3.63,1.66,5.38,1.57,1.3-.06,2.51-1.65,4.22-2.89ZM145.16,49.9l-1.99-.19c-.67,1.45-1.97,2.94-1.86,4.34.15,1.94,1.36,3.81,2.12,5.72.58-1.06,1.53-2.09,1.66-3.2.26-2.2.08-4.44.08-6.67h0ZM122.53,92.08c-.44.37-1.3.79-1.24,1.09.17.98.68,1.91,1.06,2.85.42-.39,1.23-.82,1.18-1.15-.14-.96-.63-1.87-1-2.8h0ZM200.65,110.97c-.32-.43-.56-1.14-.96-1.23-.58-.12-1.28.22-1.93.36.41.57.7,1.27,1.27,1.63.22.14,1.06-.49,1.62-.77h0ZM337.81,170.73c-.37-.5-.75-1-1.12-1.49-.5,1.02-1.15,2.01-1.42,3.08-.1.39.71.96,1.11,1.44.48-1.01.96-2.02,1.43-3.03h0ZM233.57,90l.73-1.22-1.18-.1.45,1.32Z"/>
</svg>