<?xml version="1.0" encoding="UTF-8"?>
<svg id="Layer_1" data-name="Layer 1" xmlns="http://www.w3.org/2000/svg" version="1.1" viewBox="0 0 410.74 557.64">
  <defs>
    <style>
      .cls-1 {
        fill: #000;
        stroke-width: 0px;
      }
    </style>
  </defs>
  <path class="cls-1" d="M392.36,228.2c.28.04.64-.02.82.14,7.99,7.02,12.39,15.68,10.89,26.44-1.05,7.52-6.13,9.79-14.64,7.67-4.4,3.84-8.29,7.89-12.81,11.02-7.95,5.51-18.41,7.71-26.66-.71-.31-.32-.99-.27-1.89-.49-.9,3.39-1.63,6.87-2.76,10.21-2.4,7.06-7.13,8.4-11.84,3.73-.34-.34-.98-.38-1.7-.65-1.21.9-2.45,2.03-3.87,2.83-4.65,2.63-8.67,1.53-11.08-3.3-2.4-4.81-3.44-10.09-2.96-15.42,1.44-15.9,4.74-31.35,12.02-45.74,2.78-5.49,5.99-10.68,11.88-14.26-3.59-5.82-6.83-11.28-10.26-16.61-3.93-6.1-7.98-12.13-12.08-18.12-1.41-2.06-2.98-4.07-4.75-5.83-5.1-5.08-9.41-5.76-15.94-2.78-8.03,3.67-14.45,9.63-20.67,15.56-17.92,17.09-32.82,36.55-44.05,58.71-.24.47-.21,1.07-.44,2.35,1.39-.28,2.61-.3,3.61-.78,2.01-.96,3.79-2.45,5.85-3.24,4.92-1.9,7.78-.36,9.35,4.83.56,1.85,1.11,3.78,1.22,5.69.64,11.71,1.11,23.42,1.72,35.13,1.01,19.22,2.2,38.44,3.09,57.67.42,9.22.37,18.47.44,27.7.08,10.63-.29,21.28.16,31.9.66,15.88,1.84,31.73,2.85,47.59.61,9.54.74,19-3.13,28.03-4.71,10.95-9.14,13.06-22.15,9.73,1.11,1.93,1.75,3.25,2.57,4.43,7.01,10.07,14.12,20.07,21.06,30.19,2.95,4.3,3.01,8.97.38,13.45-2.26,3.84-4.79,7.54-7.26,11.25-5.22,7.84-12.59,10.99-21.74,9.05-7.79-1.65-15.43-1.49-23.25-.27-4.37.68-8.94.33-13.41.16-7.24-.27-14.47-.95-21.71-1.12-4.06-.09-7.66-1.14-11.14-3.1-4.8-2.7-7.28-6.76-7.57-12.21-.3-5.66.34-11.05,3.08-16.23,4.58-8.63,8.79-17.46,13.13-26.21.84-1.7,1.55-3.47,2.36-5.28-13.9-2.83-20.9-10.02-23.28-24.11-2.43-14.4-2.58-28.87-.76-43.39.48-3.86.35-7.82.18-11.73-.34-7.52-.9-15.04-1.38-22.55-.41-6.4-1.3-12.8-1.19-19.19.29-16.76.93-33.51,1.58-50.26.38-9.75.92-19.51,1.61-29.24.91-12.8,1.71-25.61,3.19-38.35,1.68-14.52,6.28-14.91,17.53-13.38-1.4-2.9-2.35-5.42-3.75-7.65-7.1-11.36-14.43-22.58-21.44-33.99-2.74-4.46-6.11-7.57-11.06-9.63-9.09-3.77-15.07-10.77-16.57-20.59-1.24-8.08-5.94-13.22-12.67-16.42-6.75-3.21-13.96-5.52-21.1-7.82-1.94-.62-4.61-.36-6.5.5-9.61,4.34-17.23,10.94-22.67,20.91,9.66,8.62,17.61,18.23,22.61,30.13h11.61c-1.2-3.32-3.87-4.88-5.79-6.99-4.69-5.16-9.87-9.95-13.98-15.53-2.9-3.94-4.45-8.89-6.41-13.48-.34-.79.3-2.01.78-4.65,2.34,3.53,3.86,5.86,5.42,8.17,5.74,8.49,14,14.34,21.71,20.78,3.21,2.68,6.24,5.58,9.28,8.46,3.25,3.08,3.68,7.03,2.03,10.81-1.46,3.34-4.88,4.48-8.43,4.45-4.09-.03-8.17-.33-12.78-.53,0,2.73.2,5.51-.04,8.25-.6,6.83-4.5,8.72-10.94,5.46-.5-.25-1-.48-1.36-.66-2.69,4.84-5.31,9.7-8.09,14.46-.83,1.43-1.99,2.7-3.17,3.89-7.56,7.62-15.23,5.78-18.25-4.34-.78-2.62-1.51-5.26-2.5-8.73-3.06.62-5.72.98-8.26,1.74-2.93.88-5.75,2.12-8.63,3.18-3.22,1.2-6.25.51-8.52-1.81-2.51-2.58-3.07-5.8-1.52-9.3,2.48-5.59,4.84-11.24,7.48-17.4-1.51-.59-3.06-.96-4.34-1.75-4.19-2.56-5.46-5.55-2.91-9.85,3.25-5.47,7.04-10.77,11.33-15.46,5.65-6.16,11.94-11.73,18.1-17.41,5.31-4.9,11.47-7.9,19.18-6.91,4.07-6.89,9.53-12.38,17.5-13.09,13.7-1.22,26.77.86,37.35,10.9,1.36,1.3,2.72,2.61,3.78,3.63,4.78-5.22,9.17-10.02,13.94-15.24-6.26-8.44-16.04-13.7-23.86-21.35-10.28,6.22-21.55,8.88-33.25,10.12-4.98.53-9.97,1.41-14.96,1.43-4.41.02-8.87-.72-13.24-1.49-5.51-.97-10.35-3.48-11.71-9.33-1.43-6.15,2.18-10.01,8.15-12.67-1.24-2.36-2.42-4.44-3.45-6.59-4.31-9.01-1.1-15.9,8.58-18.38,1.58-.4,3.22-.54,5.77-.95-1.8-2.89-3.25-5.18-4.65-7.5-1.57-2.6-1.75-5.37-.22-7.96,1.7-2.89,4.78-2.9,7.49-2.33,2.38.5,4.56,1.94,6.84,2.92,2.19.94,4.41,1.83,7.35,3.04,1.72-4.43,3.12-8.01,4.51-11.59.4-1.04.88-2.07,1.16-3.14,1.06-4.05,2.95-7.7,7.57-7.71,4.56,0,6.44,3.76,7.95,7.52,1.98,4.91,4,9.81,6.05,14.69.31.74.88,1.37,1.56,2.39,2.72-2.15,5.32-4.24,7.97-6.27,8.45-6.44,11.7-6.3,19.66.72.36.32.96.37,2,.74,4.47-8.94,11.98-14.86,21.69-19.41-3.58-2.11-6.66-3.87-9.69-5.72-5.9-3.61-9.23-8.8-9.37-15.8-.15-7.43,3.21-10.28,10.51-8.98,1.06.19,2.04.84,3.59,1.51,1.92-1.83,2.76-6.09,6.54-4.88,2.6.83,4.91,2.55,7.8,4.12,1.8-1.61,3.74-3.59,5.93-5.25,7.16-5.42,14.71-2.43,15.96,6.53,1,7.14-1.54,13.7-4.57,20.02-.45.94-1.4,2.04-2.32,2.28-1.51.4-3.38.61-4.71.02-.86-.38-1.57-2.41-1.4-3.57.51-3.56,1.53-7.05,2.24-10.59.42-2.07.64-4.18,1.19-7.93-5.04,5.61-9.45,8.82-15.74,7.55-.72-.15-1.83.15-2.32.65-4.16,4.26-7.93,2.72-11.75-.51-.82-.69-1.97-.99-3.42-1.69-.63,4.6,1.38,7.76,4.37,10.29,6.74,5.7,15,8.42,23.21,11.06,1.24.4,2.98-.79,4.75-1.31,1.3,2.06,2.8,3.8,3.59,5.82,2.02,5.17,6.12,7.13,11.13,7.39,5.55.29,11.13.07,17.23.07-2.45-5.21-4.71-10.02-7.33-15.59-1.82,1.69-3.13,2.98-4.52,4.18-5.14,4.45-8.22,4.17-12.6-1.21-.65-.79-.97-1.84-.76-3.64,2.06,1.38,4.12,2.75,6.29,4.2,7.14-3.84,8.17-10.29,7.79-17.21-.26-4.75-4.24-4.35-7.74-4.52,4.53-4.72,7.93-4.95,11.28-.67,2.28,2.91,3.7,6.25,2.64,10.14-.43,1.59-.82,3.18-1.34,5.19,8.74,2.87,15.15,8.46,19.89,15.99,1.01,1.6,1.98,3.42,2.26,5.25.65,4.15-1.63,7.34-5.77,7.68-3.57.3-7.23-.15-10.83-.5-6.57-.63-13.12-1.43-20.61-2.27,5.73,14.38,12.04,28,12.36,44.08,2.72-1.5,4.62-2.5,6.48-3.58,7.9-4.56,14.42-1.07,15.17,8.17.67,8.26-.94,16.1-4.49,23.57-2.13,4.49-4.2,9.01-6.44,13.81,6.63,1.05,12.55,2,19.33,3.08,5.57-6.28,8.19-15.16,11.19-23.78,3.01-8.65,5.42-17.5,8.27-26.21,1.33-4.06.61-7.39-1.69-11.03-5.84-9.22-10.66-18.96-12.16-29.99-.11-.82-.44-1.63-.5-2.45-.78-10.77,7.02-15.99,16.91-11.31,1.25.59,2.42,1.35,4.04,2.26,1.15-1.22,2.23-2.35,3.29-3.49,3.93-4.25,5.18-4.33,9.62-.59.63.53,1.2,1.14,1.99,1.88,3.31-2.61,6.4-5.49,9.9-7.69,3.74-2.35,7.7-4.56,11.87-5.95,6.12-2.04,11.5,2.72,9.96,8.91-1.19,4.79-3.46,9.35-5.6,13.84-1.41,2.96-3.44,5.62-5.28,8.55,8.7,1.69,14.32,4.84,16.87,9.44-1.19,2.8-2.47,5.84-3.6,8.51,1.33,2.55,3.52,4.99,3.69,7.57.18,2.8-.94,6.1-2.52,8.52-4.3,6.57-12.19,9.76-22.38,9.59-.11,1.85-.43,3.73-.3,5.59.34,4.85-1.99,8.41-6.09,10.04-4.21,1.67-8.81,1.59-12.57-1.88-.82-.76-1.68-1.51-2.35-2.39-1.18-1.54-1.95-3.55-3.42-4.69-1.95-1.51-4.41-2.36-7.33-3.84-1.68,6.2-3.59,12.23-4.91,18.38-1.88,8.81-5.17,17.02-9.22,25.01-1.24,2.44-2.53,5.12-2.73,7.77-.4,5.45-2.25,10.24-4.69,15.03-2.4,4.7-4.24,9.69-6.16,14.62-.48,1.22-.65,2.75-.4,4.03.9,4.62,2.04,9.2,3.25,14.49,1.66-1.87,2.99-3.2,4.12-4.68,17.84-23.26,35.7-46.51,53.47-69.82,10.66-13.99,21.29-28,31.71-42.17,4.43-6.03,3.03-11.63-3.33-16.3-3.72-2.73-3.69-6.18.21-8.33,1.66-.92,3.57-1.39,5.27-2.03,1.9-9.06-2.65-19.5,6.77-26.73,9.19,4.75,9.16,15.35,15.24,22.1,3.39-1.27,5.01-4.23,6.92-6.87,3.78-5.19,7.36-10.53,11.42-15.48,1.89-2.3,4.48-4.35,7.18-5.62,7.31-3.45,14.43.89,15.03,8.87.38,5.1-.11,10.04-2.87,14.56-1.3,2.14-2.35,4.43-3.91,7.39,3.38.72,6.54,1.23,9.6,2.09,2.93.82,5.83,1.83,8.61,3.06,7.35,3.23,6.85,11.45,1.73,15.81-2.94,2.5-6.46,4.38-9.87,6.25-4.64,2.54-9.44,4.8-14.67,7.43,3.63,2.26,6.94,4.14,10.04,6.3,4.9,3.42,7.23,8.3,5.96,11.94-1.31,3.75-6.1,6.69-11.79,6.16-4.05-.37-8.03-1.87-11.95-3.16-1.81-.59-3.39-1.88-5.16-2.89-1.27,2.06-2.25,4.09-3.62,5.81-5.71,7.22-15.01,7.3-20.85.18-3.28-4-5.17-8.66-5.05-13.87.14-6.09.61-12.18.98-18.91-1.31-.62-3.18-1.51-5.67-2.69-.35,15.75-9.72,26.45-18.26,37.37-21.51,27.5-43.35,54.74-65.03,82.1-1.73,2.19-3.28,4.52-4.96,6.75-3.92,5.23-7.13,10.38-4.89,17.62,1.1,3.54.19,7.7.19,12.5,6.25-11.2,11.64-21.63,17.73-31.62,10.83-17.78,24.54-33.19,40.2-46.88,5.09-4.44,10.64-8.08,17.05-10.41,9.92-3.6,18.44-.96,24.85,6.77,4.21,5.08,7.42,11.16,10.24,17.18,5.44,11.59,10.34,23.44,15.33,35.23.9,2.14,1.17,4.55.51,7.49-1.61-1.96-3.23-3.91-4.96-6.02-4.17,1.67-5.93,5.21-7.51,8.63-4.35,9.36-8.15,18.95-9.16,29.35-.67,6.92-1.12,13.85-1.51,20.79-.09,1.53.49,3.1.95,5.71,3.59-3.1,4.3-6.6,5.38-9.81.44-1.3.21-2.8.55-4.15,1.71-6.81,5.44-7.68,11.41-2.17,1.02-2.4,1.63-4.82,2.97-6.74,1.32-1.89,3.36-3.27,4.74-4.55,6.16,1.89,6.99,7.28,9.97,10.87,5.02-5.61,2.59-15.24,10.77-19.42,2.14.88,4.38,1.8,7.04,2.9,1.45-4.85-1.12-7.98-3.91-10.34-2.92-2.47-6.58-4.08-9.99-5.92-2.59-1.4-5.3-2.58-7.95-3.85,3.03-6.29,3.08-6.46,8-4.91,7.83,2.48,15.65,2.71,24.06,1.07-.84-4.04-3.74-5.33-6.42-6.49-7.4-3.22-14.87-6.29-22.39-9.25-4.3-1.69-8.73-3.04-14.13-4.9,2.92-2.48,5.49-1.79,7.73-1.78,9.25.03,18.39,1.16,26.95,4.78,4.31,1.82,8.55,4.2,12.23,7.08,6.5,5.1,6.91,9.36,2.58,16.5-4.32,1.4-8.64,2.8-12.94,4.18,1.37,2.87,3.03,5.52,3.92,8.41,2.32,7.55-2.6,13.08-10.52,12.14-.96-.11-1.92-.24-2.7-.33-2.18,6.08-4.15,11.58-6.6,18.39,3-1.35,5.03-1.73,6.3-2.92,3.63-3.42,7.57-6.77,10.25-10.89,3.3-5.07,6.89-8.54,13.48-7.26,1.57-7.89.23-14.91-1.43-21.91l.02.04ZM348.95,98.9c-.06,11.5,6.64,16.9,18.51,13.95-3.05-1.97-5.39-4-8.09-5.11-4.5-1.84-7.85-4.83-10.63-8.65,1.59-4.82,4.9-7.94,9.44-10.04,4.3-1.99,8.62-4.04,12.65-6.51,2.43-1.49,5.81-2.25,6.95-6.56-3.15-.76-5.97-1.64-8.87-2.1-4.4-.71-8.86-1.02-13.26-1.71-4.45-.7-6.3-3.75-4.59-7.84.84-2.01,2.28-3.84,3.72-5.51,3.56-4.13,5.68-8.96,6.81-14.19.25-1.16-.9-2.63-1.88-5.19-4.19,4.97-7.7,8.91-10.95,13.05-3.1,3.95-5.76,8.26-8.91,12.16-6.17,7.63-14.31,6.88-18.59-1.91-.85-1.76-1.73-3.51-2.6-5.26-.81-1.63-1.63-3.26-3.18-6.37v20.73c1.74,1.02,3.21,1.79,4.58,2.72,1.23.83,2.35,1.84,3.59,2.83-1.17,1.1-1.84,1.73-2.58,2.42,7.79,4.59,8.18,5.44,6.49,13.41-.63,3-1.59,5.99-1.74,9.01-.33,6.44.24,12.71,6.23,16.84,6.87-5,7.9-7.25,6.59-14.16-.26-1.36-1.36-2.81-1.07-3.97.56-2.28,1.26-5.13,2.92-6.37,2.09-1.56,4.81-.57,6.46,1.94.57.87,1.33,1.62,2.01,2.42v-.03ZM208.34,258.83c-.15,1.49-.38,2.56-.34,3.63.85,26.8-1.16,53.62,1.08,80.45,1.16,13.89.08,27.95.41,41.93.52,22.04,1.38,44.08,2.1,66.12,0,.28.02.56.07.84,1.84,11.43,2.16,22.65-5.42,33.22,4.65.22,8.53.41,12.07.58,5.67,5.31,7.57,11.77,8.23,18.92.82,8.86,2.01,17.69,3.14,26.52.33,2.57,1.01,5.09,1.57,7.85-1.24,0-1.57.1-1.79-.02-.72-.37-1.5-.71-2.08-1.25-6.13-5.59-10.56-12.36-12.68-20.34-2.33-8.81-4.07-17.78-6.15-27.02-1.8.15-3.63.31-4.9.42-2.7,9.16-4.68,17.89-7.87,26.15-3.25,8.42-7.69,16.39-12.03,25.43,9.13,0,17.21-.09,25.28.03,7.51.1,15.04-.81,22.5,1.36,1.77.51,4.69-.3,6.07-1.58,4.66-4.32,9.5-8.62,12.22-14.79-1.81-2.74-3.55-5.25-5.15-7.84-4.85-7.82-10.02-15.47-12.75-24.39-1.11-3.63-1.44-7.56-5.67-9.53-1.01-.47-1.12-2.92-1.59-4.48-3.53-11.67.26-23.26.49-34.89.13-6.67,1.56-13.45.73-19.97-2.29-18.03-3.32-36.09-3.16-54.24.11-12.31.12-24.61.12-36.92,0-2.79-.16-5.58-.43-8.36-.95-9.69-2-19.37-2.96-29.06-.28-2.77-.48-5.56-.53-8.35-.1-5.26-.29-10.54-.03-15.79.25-4.96,1.01-9.88-.04-14.62h-10.51ZM136.62,119.38c-.28.38-.62.65-.59.83.86,4.05,1.82,8.07,2.64,12.13,1.43,7.06-.17,10.86-6.58,14.58-3.26,1.89-6.08,4.05-7.38,7.64-4.27,11.74,3.68,26.9,16.78,25.05.83-.12,1.67-.09,2.51-.11,8.49-.22,8.67-.25,11.59,7.62,1.43,3.85,3.23,7.27,7.25,8.6,3.39,1.12,6.95,2.12,10.49,2.32,7.57.42,11.93-2.76,14.56-9.85.95-2.55,1.84-5.12,2.64-7.35.7-.33.93-.5,1.2-.55.82-.15,1.64-.28,2.47-.39,9.06-1.16,15.42-5.84,18.87-14.38,2.15-5.33,1.05-7.26-4.59-7.58-3.62-.2-7.29.18-10.88-.24-6.43-.75-9.76-5.79-8.03-12,.59-2.12,1.86-4.04,2.79-6.07,2.43-5.32,4.86-10.64,7.24-15.97,1.8-4.04,2.17-8.3,2.47-13.73-2.76,1.76-4.77,2.67-6.33,4.09-7.35,6.7-13.45,7.09-22.96-.74-2.05-1.69-3.95-3.57-6.34-5.76-.49,3.02-.81,5.22-1.2,7.4-.4,2.19-.72,4.4-1.35,6.53-2.24,7.57-7.27,9.41-13.87,5.09-2.09-1.37-3.91-3.19-6.05-4.45-2.26-1.34-4.3-3.69-7.33-2.69l-.02-.02ZM153.64,62.68c-8.49,6.12-16.46,12.86-28.1,9.83-1.69,10.18-6.74,18.01-14.41,24.32.18-2.52.93-4.8,1.59-7.1,1.23-4.25,2.69-8.46,3.55-12.79.84-4.22-.09-8.19-3.83-11.64-1.88,1.38-3.66,2.62-5.37,3.96-1.98,1.54-3.82,3.28-5.86,4.73-6.96,4.93-11.36,4.12-16.12-3-1.07-1.6-1.59-3.55-2.52-5.25-.69-1.27-1.64-2.4-3.07-4.45-2.17,9.19-6.86,14.52-15.65,15.55.56,10.72-7.88,12.09-15.09,14.46,2.61,4.06,5.06,7.47,7.07,11.12,2.15,3.91.42,7.66-2.13,11.37,14.69,1.09,28.1-1.7,41.53-3.9,3.54-.58,6.53-.38,9.59,1.37,6.48,3.72,13.03,7.31,19.98,11.19.15-1.49.31-2.79.41-4.09.74-9.11,5.96-12.95,14.65-10.46,2.63.75,5.09,2.2,7.54,3.5,2.08,1.1,4.03,2.44,6.16,3.74,1.38-4.74,2.22-9.17,3.96-13.22,2.87-6.68,8.36-8.08,14.24-3.82,2.69,1.95,4.88,4.59,7.38,6.82,1.76,1.56,3.25,3.73,6.27,3.71-3.35-6.59-6.59-12.71-9.59-18.96-2.96-6.16-3.35-13.37-7.24-19.28-4.77,6.29-6.49,14.5-14.58,18.36-6.94-8.91-.77-17.36-.38-26.09l.02.02ZM183.54,255.59c-1.54,10.96-3.11,21.35-4.42,31.77-.69,5.5-1.36,11.06-1.24,16.58.27,11.98.97,23.96,1.66,35.92.44,7.51,1.23,14.99,1.8,22.49.92,11.93,2.42,23.86,2.53,35.8.16,16.45-.87,32.9-1.16,49.36-.2,11.33,1.29,22.76-2.92,34.05,7.71.85,14.81,1.62,22.35,2.45-1.13-3.65-2.5-6.42-2.77-9.29-.83-8.6-1.19-17.23-1.8-25.85-.39-5.55-.89-11.08-1.34-16.63-.72-8.88-1.22-17.79-2.21-26.64-.84-7.52-.12-14.97.09-22.45.65-22.6,1.24-45.2,1.91-67.8.07-2.5.32-5.01.7-7.48,1.08-6.91,1.24-13.67-.11-20.69-1.51-7.88-1.65-16.02-2.32-24.05-.15-1.84-.02-3.7-.02-5.48-3.99-.76-7.23-1.38-10.74-2.05h.01ZM168.36,480.45c-3.9-14.76-5.17-32.92-3.89-44.18,1.29-11.34,2.63-22.74,2.8-34.13.41-27.13-.06-54.27.24-81.41.14-12.54,1.24-25.07,1.95-37.61.06-1.1.52-2.17.67-3.27,1.25-9.41.68-18.82.71-28.31-5.16-1.62-8.68-5.44-14.83-4.25-.62,3.62-1.8,7.36-1.78,11.1.03,5.82,1.28,11.63,1.33,17.46.23,30.21.24,60.43.34,90.64,0,3.64,0,7.28.17,10.91.52,11.71,1.52,23.41,1.55,35.12.03,10.59-.9,21.18-1.54,31.76-.58,9.55-.1,18.97,2.96,28.11,1.46,4.35,3.83,7.8,9.32,8.05h0ZM230.88,480.82c8.54-3.11,11.67-8.64,11.93-15.35.4-10.6,0-21.24-.19-31.86-.22-11.43-1.12-22.86-.79-34.27.57-19.78,2.18-39.54,2.72-59.32.29-10.56-.88-21.16-1.17-31.75-.27-9.78-.07-19.58-.41-29.36-.33-9.41-1.08-18.8-1.69-28.91-3.33,2.01-5.87,3.54-7.87,4.75.31,5.82.99,10.82.76,15.77-.73,15.58-1.98,31.14-2.63,46.73-.18,4.38,1.28,8.81,1.44,13.24.64,17.3,1.11,34.6,1.54,51.91.28,11.18-.59,22.49.79,33.52,1.7,13.53.52,26.61-1.69,39.86-1.31,7.89-1.76,15.92-2.72,25.06l-.02-.02ZM17.1,188.79c8.43,5.13,9,6.87,4.97,15.99-1.35,3.06-2.93,6.02-4.37,9.04-.87,1.83-1.66,3.7-2.83,6.32,4.36-1.45,7.46-2.72,10.68-3.51,9.11-2.24,13.65.6,15.99,9.62.71,2.76,1.55,5.49,2.74,9.65,3.12-3.74,5.63-6.01,7.21-8.8,3.01-5.32,5.66-10.86,8.14-16.45,1.73-3.9,4.26-6.01,9.23-4.95-2.04-5.23-2.22-10.36-6.21-13.93-3.56,3.35-6.73,6.5-10.09,9.43-3.28,2.86-7.42,2.98-11.1,1.62-3.74-1.39-5.17-5.2-4.81-8.97.52-5.49,1.35-11.02,2.71-16.36,1.47-5.81,3.69-11.43,5.75-17.65-7.92,5.15-17.63,15.26-28,28.94h0ZM284.71,75.27l-.51-1.1c-1.87.3-3.74.86-5.6.83-2.18-.03-4.49-.22-6.51-.97-5.23-1.93-6.85-5.67-4.35-10.56,1.76-3.45,4.17-6.58,6.44-9.75,1.72-2.4,3.46-4.74,4.56-9.36-3.57,2.65-5.78,4.22-7.91,5.89-3.08,2.41-6.01,5.01-9.16,7.32-3.81,2.8-7.22,3.95-12.05.62-4.35-2.99-10.12-3.91-15.72-5.9-1.17,3.36-.78,6.48-.18,9.8,1.93,10.65,7.32,19.77,12.42,29.01,1.27,2.3,2.55,4.66,6.12,4.92,2.05.15,3.93,2.45,5.93,3.8-1.23,3.61-2.2,6.48-3.18,9.38.34.79.64,1.56,1.01,2.3,1.38,2.74,3.66,4.35,6.69,4.04,3.54-.36,4.18-3.53,4.49-6.23.22-2.02.06-4.85-1.17-6.12-4.26-4.39-6.16-11.4-13.85-12.24-2.98-.32-4.38-3.23-4.4-6.36-.02-3.21.4-6.18,4.73-7.17.72.99,1.29,2.51,2.34,3,1.27.59,2.99.15,4.45.43,4.2.83,6.23,3.64,5.57,7.82-.24,1.5-.95,2.92-1.41,4.27,10.1,6.14,14.23,6.03,21.59-.86-2.3.21-3.93.23-5.5.54-1.35.26-2.61,1.06-3.97,1.26-2.82.41-5.78.63-7.22-2.62-1.18-2.67-.24-6.28,3.22-7.57,1.56-.58,3.08-1.37,4.46-2.29,2.94-1.96,5.78-4.08,8.67-6.13h0ZM181.43,541.97c-1.67-17.81,4.41-33.69,11.25-50.25h-18.59c-1.87,6.84-3.57,13.49-5.52,20.08-1.41,4.78-3.23,9.45-4.68,14.22-.72,2.36-1.3,4.84-1.43,7.3-.28,5.52,1.38,7.84,6.81,8.55,4.07.53,8.28.11,12.16.11h0ZM174.3,205.27c7.25,7.95,14.24,15.24,15.78,26.59.97-2.15,1.99-3.57,2.26-5.12,1.77-10.19,5.45-19.72,9.55-29.15,1.71-3.92,3.85-8.08,1.25-12.79h-10.45c-1.77,10.46-5.27,19.57-18.39,20.47h0ZM181.47,243.67c.67-.95.99-1.2.96-1.39-1.69-11.93-5.6-23.16-10.9-33.91-.67-1.37-2.12-2.79-3.52-3.28-4.83-1.7-9.79-3.01-14.6-4.43,8.73,12.51,17.33,25.35,20.01,41.81,2.76.41,5.6.84,8.05,1.21h0ZM51.28,167.66c-.68.18-1.36.37-2.04.55-2.56,9.06-5.92,18.01-3.84,27.84,7.07-.96,8.62-1.75,16.47-8.36-3.48-6.6-7.03-13.32-10.58-20.04h0ZM162.04,44.83c-1.75.78-3.12,1.94-4.47,1.91-12.66-.32-19.07,8.1-25.41,16.68.3.51.59,1.03.89,1.54,10.16-4.71,20.32-9.43,30.76-14.27-.58-1.91-1.21-4-1.76-5.86h0ZM200.59,246.53c1.42-5.09,2.02-10.18,4.22-14.46,3.44-6.69,3.35-12.99.29-20.06-3.4,11.52-9.96,21.64-11.07,34.17,2.69.14,4.52.24,6.56.35ZM164.62,54.88c-4.95,1-6.45,4.45-7.28,7.77-1.4,5.56-2.14,11.29-3,16.97-.11.74.7,1.62,1.46,3.23,3.69-4.98,6.82-9.12,9.87-13.33,1.89-2.61,2.51-5.43,1.13-8.56-.77-1.74-1.3-3.59-2.18-6.09h0ZM212.03,246.6c-.52-3.38-.96-6.26-1.46-9.55-3.13,2.39-4.39,5.19-4.45,9.13,1.97.14,3.78.27,5.92.42h0ZM141.89,190.18c2.46,1.95,4.2,3.32,5.95,4.69-.3-2.89-.27-6.03-5.95-4.69Z"/>
  <path class="cls-1" d="M166.65,152.07c4.27-.33,8.14-1.09,11.92-.8,4.37.34,6.6,5.63,3.57,8.69-4.9,4.95-10.49,9.31-17.86,9.83-6.17.44-9.66-3.71-7.76-9.52,1.27-3.89,3.43-7.55,5.63-11.03.55-.87,2.82-.64,4.3-.91.06,1.25.13,2.5.19,3.74h0Z"/>
  <path class="cls-1" d="M82.68,95.69c-2.5,4.96,1.06,8.75,1.67,13.39-5.54-.68-6.64-5.2-8.21-8.59-1.3-2.81-3.52-5.9-1.77-9.45,1.55-3.15,4.24-4.66,7.54-3.83,4.52,1.14,8.9,2.86,13.76,4.47-.03.01.71-.01.92-.36,1.64-2.74,3.4-5.57,7.15-3.86,2.89,1.33,1.89,4.35,1.76,6.72-.24,4.48-1.37,6.22-4.96,6.38-3.22.14-6.57-.41-9.69-1.26-2.83-.77-5.43-2.37-8.16-3.61h-.01Z"/>
</svg>