<?xml version="1.0" encoding="utf-8"?>
<!-- Generator: Adobe Illustrator 28.3.0, SVG Export Plug-In . SVG Version: 6.00 Build 0)  -->
<svg version="1.1" id="Layer_1" xmlns="http://www.w3.org/2000/svg" xmlns:xlink="http://www.w3.org/1999/xlink" x="0px" y="0px"
	 viewBox="0 0 595.28 841.89" style="enable-background:new 0 0 595.28 841.89;" xml:space="preserve">
<g>
	<path d="M44.59,735.65c-3-5.42-5.1-11.09-5.89-17.15c-1.18-9.04-1.65-18.15-0.75-27.22c0.78-7.82,1.95-15.62,3.24-23.37
		c1.46-8.73,2.25-17.49,2.32-26.34c0.14-18.76,0.54-37.51,0.62-56.27c0.04-8.16-0.85-16.34-0.58-24.49
		c0.33-10.14,1.4-20.27,2.18-30.39c0.41-5.4,1.05-10.78,1.26-16.18c0.3-7.63,0.47-15.27,0.36-22.89c-0.09-5.87-0.8-11.73-1.09-17.59
		c-0.61-12.1-0.83-24.24-1.76-36.31c-0.73-9.5-2.15-18.96-3.51-28.39c-1.21-8.39-3.17-26.52-4.07-34.93
		c-0.84-7.89-0.85-15.89-1-23.84c-0.13-6.95,0.09-13.92,0.09-20.87c0-11.04-0.17-22.09-0.05-33.13c0.11-10.43,0.48-20.86,0.8-31.28
		c0.35-11.44,0.87-22.87,1.13-34.31c0.25-10.81,0.03-21.63,0.48-32.43c0.29-6.99,1.59-13.93,2.05-20.92
		c0.41-6.11,0.47-12.27,0.32-18.39c-0.11-4.67-1.02-9.31-1.18-13.98c-0.22-6.07-0.1-12.16-0.04-18.23
		c0.08-7.68,0.54-15.37,0.28-23.03c-0.16-4.76-1.43-9.47-2.06-14.23c-0.16-1.18,0.24-2.43,0.44-4.13c1.5,1.06,2.26,1.52,1.43,2.9
		c-0.35,0.58-0.27,1.62-0.05,2.34c4.08,13.41,4.13,27.22,3.81,41.03c-0.19,8.22,0.79,16.3,1.93,24.39
		c1.53,10.87,1.58,21.66-0.05,32.59c-1.16,7.84-1.11,15.88-1.34,23.85c-0.2,6.96-0.02,13.93-0.06,20.9
		c-0.04,7.49-0.1,14.98-0.26,22.46c-0.12,5.62-0.5,11.24-0.63,16.86c-0.26,11.91-0.53,23.82-0.6,35.74
		c-0.03,5.96,0.53,11.91,0.54,17.87c0.02,6.62-0.33,13.24-0.43,19.87c-0.24,16.21,0.24,42.21,3.09,58.24
		c1.84,10.32,3.57,20.68,4.69,31.09c1,9.31,1.09,18.71,1.6,28.07c0.55,10.09,1.3,20.18,1.61,30.28c0.36,11.44,0.72,22.88-0.83,34.3
		c-1.11,8.22-2.04,16.5-2.34,24.78c-0.47,12.64-0.38,25.3-0.45,37.95c-0.07,13.34,0.19,26.68-0.15,40.01
		c-0.26,10.29-1.03,20.59-1.98,30.85c-0.54,5.91-1.75,11.76-2.88,17.6c-1.82,9.36-2.18,18.83-2.73,28.32
		c-0.51,8.79,0.03,17.38,2.27,25.87c0.12,0.45,0.16,0.92,0.22,1.39C44.61,735.12,44.59,735.39,44.59,735.65z"/>
	<path d="M551.08,735.6c0.47-2.38,0.85-4.78,1.43-7.12c1.49-5.98,1.71-12.03,1.27-18.15c-0.31-4.27-0.35-8.56-0.54-12.85
		c-0.36-8.04-1.7-15.94-3.27-23.8c-1.68-8.41-2.66-16.9-2.84-25.5c-0.11-5.35-0.74-10.68-0.91-16.03c-0.2-6.23-0.2-12.46-0.2-18.7
		c-0.01-10.32,0.07-20.64,0.08-30.97c0.01-7.97,0.26-15.95-0.11-23.9c-0.38-8.15-1.15-16.3-2.17-24.4
		c-1.51-12-2.07-24.01-1.56-36.08c0.43-10.1,0.93-20.19,1.47-30.28c0.62-11.77,0.97-23.57,2.08-35.29c0.81-8.56,2.79-17,3.97-25.53
		c1.23-8.94,2.67-27.74,3.05-36.74c0.56-13.29,0.22-26.61,0.32-39.92c0.08-10.31,0.36-20.61,0.35-30.92
		c-0.01-7.43-0.33-14.85-0.55-22.28c-0.35-11.84-0.86-23.68-1.06-35.52c-0.16-9.43-0.06-18.87,0.1-28.3
		c0.18-10.34-0.59-20.61-2.08-30.83c-1.08-7.42-0.89-14.84,0.22-22.22c1.91-12.68,2.59-25.4,2.34-38.23
		c-0.18-9.18,0.5-18.35,2.71-27.33c0.32-1.29,0.81-2.55,1.06-3.85c0.17-0.89,0.01-1.84,0.05-2.75c0.03-0.79,0.14-1.58,0.21-2.38
		c0.39,0,0.77,0,1.16-0.01c0.19,1.21,0.79,2.53,0.5,3.61c-3.06,11.56-2.53,23.34-2.14,35.1c0.16,4.74,0.82,9.47,0.71,14.2
		c-0.12,5.33-0.75,10.66-1.31,15.98c-0.86,8.14-1.09,16.27,0.23,24.38c1.37,8.46,2.15,16.96,2.02,25.56
		c-0.1,7,0.18,14.01,0.26,21.02c0.04,4.2-0.11,8.41,0.04,12.61c0.26,7.35,0.7,14.7,1.05,22.05c0.08,1.67,0.09,3.35,0.13,5.02
		c0.27,12.57,0.65,25.14,0.78,37.72c0.08,7.96-0.29,15.93-0.28,23.9c0.01,10.57,0.4,21.14,0.26,31.71
		c-0.13,10.5-1.28,20.91-3.25,31.25c-2.22,11.66-4.61,33.14-5.09,45.07c-0.53,13.38-1.3,26.75-1.96,40.12
		c-0.4,8.08-0.88,16.15-1.17,24.23c-0.33,9.25,0.51,18.44,1.51,27.62c0.72,6.65,1.3,13.31,1.68,19.99
		c0.42,7.28,0.79,14.58,0.73,21.86c-0.12,17.28-0.72,34.57-0.71,51.85c0.01,11.17,0.41,22.37,1.27,33.51
		c0.6,7.76,2.29,15.42,3.46,23.14c1.45,9.6,2.43,19.23,1.63,28.95c-0.45,5.45-0.68,10.97-1.74,16.3c-0.9,4.56-2.83,8.91-4.31,13.35
		C551.66,735.77,551.37,735.68,551.08,735.6z"/>
	<path d="M450.73,808.58c-0.53,0.31-1.04,0.84-1.59,0.9c-2.16,0.21-4.33,0.3-6.5,0.38c-4.33,0.17-8.68,0.6-13,0.39
		c-9.18-0.44-18.34-1.29-27.52-1.84c-2.81-0.17-5.64,0.08-8.46,0.15c-2.1,0.05-4.2,0.08-6.29,0.17c-8.16,0.32-16.31,0.79-24.48,0.96
		c-8.07,0.16-16.16,0.21-24.23-0.03c-6.32-0.18-12.63-0.85-18.93-1.35c-6.04-0.48-12.13-0.7-18.09-1.69
		c-3.35-0.56-6.36,0.13-9.54,0.48c-4.06,0.44-8.16,0.53-12.24,0.86c-6.37,0.52-12.72,1.34-19.1,1.62
		c-7.38,0.33-14.77,0.25-22.16,0.27c-3.26,0.01-6.52-0.19-9.78-0.32c-7.83-0.31-15.65-0.78-23.48-0.91
		c-5.49-0.09-10.98,0.24-16.47,0.48c-4.98,0.22-9.96,0.57-14.93,0.87c-2.04,0.12-4.07,0.37-6.11,0.33
		c-6.38-0.1-12.77-0.24-19.15-0.52c-1.17-0.05-2.85,0.32-3.49-1.65c2.67-0.17,5.2-0.4,7.74-0.48c5.67-0.19,11.35-0.07,17-0.51
		c6.67-0.52,13.3-1.5,19.95-2.27c0.72-0.08,1.45-0.07,2.18-0.09c7.64-0.16,15.28-0.37,22.93-0.47c9.12-0.12,18.24,0.12,27.35-0.29
		c8.1-0.36,16.18-1.28,24.25-2.15c6.61-0.72,13.16-2.04,19.78-2.54c6.36-0.48,12.8-0.58,19.17-0.25c6.89,0.36,13.75,1.38,20.62,2.19
		c6.81,0.81,13.59,1.99,20.43,2.53c6.44,0.51,12.93,0.53,19.4,0.55c8.19,0.02,16.39-0.39,24.58-0.2c6.43,0.15,12.86,0.89,19.28,1.42
		c4.52,0.37,9.03,0.96,13.56,1.21c7.03,0.39,14.08,0.57,21.11,0.88c1.97,0.09,3.93,0.32,5.9,0.49
		C450.5,808.3,450.62,808.44,450.73,808.58z"/>
	<path d="M473.57,34.13c-1.97,0.25-3.93,0.64-5.92,0.74c-5.69,0.28-11.39,0.59-17.09,0.6c-7.83,0.02-15.71,0.16-23.48-0.44
		c-9.97-0.77-19.74,0.84-29.62,0.73c-5.84-0.06-11.67-0.3-17.5-0.35c-7.18-0.06-14.35,0.04-21.53,0c-13.67-0.07-27.33-0.17-41-0.3
		c-1.66-0.01-3.36-0.07-4.96-0.37c-6.82-1.28-13.59-0.37-20.41,0.01c-6.99,0.39-14.02,0.57-21.03,0.6
		c-12.69,0.05-25.38-0.17-38.07-0.12c-8.02,0.03-16.04,0.56-24.05,0.49c-7.26-0.06-14.51-0.92-21.76-0.9
		c-7.49,0.02-14.98,0.82-22.48,0.99c-5.4,0.12-10.83-0.16-16.24-0.43c-4.8-0.24-9.58-0.69-14.36-1.07
		c-0.46-0.04-0.89-0.24-1.31-0.75c0.62-0.07,1.23-0.2,1.85-0.2c9.98-0.05,19.98,0.15,29.95-0.21c5.87-0.21,11.67-1.4,17.53-1.94
		c5.65-0.52,11.35-0.75,17.02-1.14c7.86-0.53,15.71-1.21,23.59-1.61c7.44-0.38,14.91-0.63,22.37-0.65
		c12.29-0.04,24.58,0.13,36.87,0.23c11.31,0.1,22.63,0.33,33.94,0.31c8.42-0.02,16.85-0.51,25.27-0.52
		c13.17-0.02,26.34-0.01,39.49,0.38c8.49,0.25,16.92,1.43,25.41,1.8c9.62,0.42,19.14,1.14,28.59,2.6c4.5,0.69,9.18,0.9,13.79,0.95
		c7.63,0.09,15.27-0.12,22.9-0.19c0.71-0.01,1.43,0.07,2.14,0.11C473.52,33.7,473.55,33.92,473.57,34.13z"/>
	<path d="M46.66,770.64c-0.55-0.81-1.43-1.74-1.8-2.85c-0.16-0.49,0.56-1.61,1.16-1.97c3.8-2.28,8.44-1.9,12.55,1.7
		c5.01,4.39,7.43,10.11,7.88,16.73c0.05,0.72,0.01,1.45,0.01,2.06c4.4,0.41,8.72,0.45,12.87,1.28c11.11,2.23,20.42,7.52,26.56,17.55
		c1.66,2.72,2.26,5.77,1.78,9.11c-0.54-1.51-1.17-3-1.59-4.55c-1.49-5.57-5.64-8.77-10.16-11.48c-8.87-5.33-18.56-6.73-28.71-5.7
		c-1.35,0.14-1.71,0.71-2.02,1.87c-1.91,7.14-4.95,13.7-10.3,18.89c-5.5,5.33-11.69,9.59-19.35,10.98
		c-3.93,0.71-8.02,0.56-10.87-2.69c-2.05-2.33-3.7-5.16-4.96-8.02c-1-2.26,0.19-4.65,1.53-6.59c3.7-5.37,8.62-9.28,14.33-12.34
		c7.9-4.23,16.3-6.48,25.11-7.48c0.54-0.06,1.33-0.47,1.48-0.9c1.49-4.3,0.7-13.29-4.73-16.31c-2.85-1.59-5.79-2.07-8.88-1.28
		C47.91,768.83,47.46,769.78,46.66,770.64z M60.12,793.67c-0.23-0.09-0.36-0.18-0.47-0.17c-9.43,1.45-18.26,4.61-26.2,9.98
		c-3.85,2.61-7.05,6.05-9.3,10.25c-1.16,2.17-0.78,3.35,1.6,3.84c2.39,0.5,5.03,0.95,7.36,0.44c8.12-1.78,14.61-6.54,20.22-12.55
		C56.48,802.09,58.6,798.05,60.12,793.67z"/>
	<path d="M488.19,814.16c-0.56-5.43,1.52-9.93,5.06-13.73c7.26-7.79,16.17-12.32,26.75-13.33c3.01-0.29,6.04-0.43,9.06-0.64
		c0.36-2.36,0.55-4.89,1.17-7.31c1.36-5.35,4.1-9.87,8.77-12.91c3.39-2.2,7-2.51,10.64-0.57c1.5,0.79,2.11,1.78,0.64,3.27
		c-0.51,0.51-0.79,1.27-1.27,2.07c-0.9-2.18-3.21-3.16-5.57-2.78c-8.59,1.36-10.74,7.69-10.35,15.07c0.18,3.54,0.45,3.63,4,4.11
		c7.05,0.96,13.87,2.67,20.32,5.76c6.59,3.15,12.52,7.13,16.82,13.28c2.5,3.58,3.21,7.75-0.23,11.04c-0.19,0.18-0.4,0.39-0.48,0.63
		c-2.27,6.45-9.53,7.44-14.71,5.83c-13.33-4.12-22.69-12.63-27.11-26.29c-0.16-0.51-0.48-0.99-0.52-1.5
		c-0.22-3.13-2.11-3.8-4.86-3.91c-9.55-0.4-18.66,1.14-26.91,6.22c-4.82,2.97-8.9,6.71-10.14,12.73
		C489.07,812.21,488.56,813.17,488.19,814.16z M535.96,793.45c-0.21,0.18-0.43,0.36-0.64,0.54c2.04,3.39,3.85,6.95,6.17,10.14
		c3.87,5.32,9.28,8.85,15.01,11.78c3.66,1.87,7.56,3.2,11.82,2.21c4.52-1.05,5.01-2.16,2.41-6.04c-3.25-4.84-7.55-8.42-12.64-11.23
		C551.11,797.02,543.7,794.76,535.96,793.45z"/>
	<path d="M48.55,73.04c3.09,0.79,6.02,0.31,8.88-1.28c5.43-3.03,6.22-12.01,4.73-16.31c-0.15-0.43-0.95-0.84-1.48-0.9
		c-8.81-1-17.21-3.25-25.11-7.48c-5.71-3.06-10.63-6.97-14.33-12.34c-1.33-1.94-2.52-4.33-1.53-6.59c1.26-2.86,2.91-5.69,4.96-8.02
		c2.86-3.25,6.94-3.4,10.87-2.69c7.66,1.39,13.85,5.64,19.35,10.98c5.35,5.19,8.38,11.75,10.3,18.89c0.31,1.16,0.68,1.73,2.02,1.87
		c10.15,1.03,19.84-0.37,28.71-5.7c4.52-2.71,8.67-5.91,10.16-11.48c0.41-1.55,1.05-3.03,1.59-4.55c0.49,3.33-0.12,6.39-1.78,9.11
		C99.76,46.59,90.45,51.87,79.34,54.1c-4.16,0.84-8.47,0.87-12.87,1.28c0,0.61,0.04,1.34-0.01,2.06
		c-0.45,6.63-2.87,12.34-7.88,16.73c-4.11,3.6-8.75,3.98-12.55,1.7c-0.6-0.36-1.32-1.48-1.16-1.97c0.37-1.11,1.25-2.04,1.8-2.85
		C47.46,71.92,47.91,72.87,48.55,73.04z M53.33,36.24c-5.61-6.01-12.11-10.77-20.22-12.55c-2.32-0.51-4.96-0.06-7.36,0.44
		c-2.38,0.5-2.76,1.68-1.6,3.84c2.24,4.19,5.44,7.64,9.3,10.25c7.94,5.37,16.77,8.53,26.2,9.98c0.11,0.02,0.24-0.08,0.47-0.17
		C58.6,43.65,56.48,39.61,53.33,36.24z"/>
	<path d="M489.28,30.51c1.24,6.01,5.32,9.76,10.14,12.73c8.25,5.08,17.36,6.62,26.91,6.22c2.75-0.11,4.64-0.78,4.86-3.91
		c0.04-0.51,0.36-1,0.52-1.5c4.42-13.65,13.78-22.16,27.11-26.29c5.18-1.6,12.44-0.62,14.71,5.83c0.08,0.24,0.29,0.45,0.48,0.63
		c3.44,3.28,2.73,7.46,0.23,11.04c-4.3,6.14-10.24,10.12-16.82,13.28c-6.45,3.09-13.27,4.81-20.32,5.76c-3.55,0.48-3.81,0.57-4,4.11
		c-0.39,7.38,1.77,13.7,10.35,15.07c2.36,0.37,4.66-0.61,5.57-2.78c0.48,0.8,0.75,1.56,1.27,2.07c1.47,1.48,0.86,2.47-0.64,3.27
		c-3.65,1.94-7.26,1.63-10.64-0.57c-4.68-3.04-7.41-7.56-8.77-12.91c-0.62-2.42-0.8-4.95-1.17-7.31c-3.03-0.21-6.05-0.35-9.06-0.64
		c-10.57-1.01-19.48-5.54-26.75-13.33c-3.54-3.8-5.62-8.3-5.06-13.73C488.56,28.53,489.07,29.49,489.28,30.51z M558.08,40.84
		c5.09-2.81,9.39-6.4,12.64-11.23c2.6-3.88,2.12-4.99-2.41-6.04c-4.25-0.98-8.16,0.34-11.82,2.21c-5.72,2.93-11.14,6.46-15.01,11.78
		c-2.32,3.19-4.13,6.75-6.17,10.14c0.21,0.18,0.43,0.36,0.64,0.54C543.7,46.95,551.11,44.68,558.08,40.84z"/>
</g>
</svg>
