<?xml version="1.0" encoding="utf-8"?>
<!-- Generator: Adobe Illustrator 28.3.0, SVG Export Plug-In . SVG Version: 6.00 Build 0)  -->
<svg version="1.1" id="Layer_1" xmlns="http://www.w3.org/2000/svg" xmlns:xlink="http://www.w3.org/1999/xlink" x="0px" y="0px"
	 viewBox="0 0 595.28 841.89" style="enable-background:new 0 0 595.28 841.89;" xml:space="preserve">
<path d="M548.97,56.54c-1.91-4.45-4.12-8.61-5.52-13.04c-2.81-8.86-0.7-16.83,5.6-23.55c5.44-5.8,11.95-9.72,20.07-10.41
	c4.07-0.35,7.78,0.66,11.06,3.08c3.91,2.89,5.02,6.8,3.71,11.39c-2.32,8.1-6.58,15.18-11.7,21.76c-4.29,5.51-9.33,10.17-15.91,12.86
	c-0.18,0.07-0.32,0.26-0.84,0.7c4.12,4.14,8.15,8.18,12.18,12.24c2.04,2.05,4.18,4.03,6.1,6.19c4.28,4.84,5.04,10.3,1.74,15.87
	c-2.84,4.79-6.06,9.38-9.33,13.9c-6.18,8.55-12.65,16.91-17.38,26.41c-2.69,5.41-4.68,11.05-4.88,17.18
	c-0.24,7.65,1.82,14.73,6.25,20.87c5.17,7.16,10.81,13.98,16.2,20.99c2.35,3.06,4.67,6.17,6.85,9.36
	c8.09,11.82,8.97,24.47,4.15,37.73c-3.97,10.95-9.89,20.91-15.56,31c-4.33,7.69-8.68,15.37-12.74,23.2
	c-2.22,4.29-3.49,8.98-3.79,13.88c-0.58,9.25,3.09,16.84,9.11,23.47c2.97,3.27,6.09,6.42,9.24,9.52c8.8,8.63,11.37,18.84,8.26,30.75
	c-2.69,10.28-7.48,19.67-11.72,29.31c-2.96,6.72-5.9,13.52-8.06,20.52c-3.14,10.22-1.33,20.24,2.87,29.89
	c1.68,3.86,3.23,7.78,5.08,11.55c6.19,12.63,6.61,25.48,1.71,38.57c-3.02,8.06-6.06,16.11-9.18,24.13
	c-3.54,9.09-3.47,17.88,1.57,26.47c1.6,2.72,2.8,5.69,4.13,8.57c3.91,8.47,4.16,17.11,0.71,25.75c-2.94,7.35-5.92,14.7-9.23,21.89
	c-4.82,10.49-5.45,21.24-2.93,32.38c3.57,15.75,5.39,33.52,13.78,47.6c2.51,4.2,3.81,8.63,6.2,12.79c2.54,4.43,4.56,9.23,5.97,14.13
	c2.62,9.11,1.35,17.66-3.78,25.58c-3.16,4.89-6.05,9.62-8.3,14.94c-2.13,5.05-3.25,8.59-5.06,14.31c-1.9,6.01-2.66,13.68-3.57,19.9
	c-0.3,2.04,0.27,3,2.27,3.74c4.22,1.58,8.35,3.45,12.45,5.35c5.18,2.4,7.64,6.77,8.19,12.29c0.23,2.33,0.37,4.75-0.01,7.04
	c-0.97,5.75-5.7,8.98-11.58,8.52c-11.05-0.87-15.92-8.3-16.79-17.17c-0.45-4.58-0.07-9.25,0.12-13.87c0.07-1.82-0.01-3.05-2.01-3.88
	c-4.74-1.96-9.27-4.46-14.07-6.27c-5.82-2.2-9.52-0.87-12.81,4.46c-2.56,4.16-4.68,8.59-7.01,12.9c-0.99,1.82-1.94,3.67-3.04,5.41
	c-3.31,5.21-7.71,8.75-14.06,8.76c-3.32,0.01-5.99,0.16-9.29-0.75c-3.61-1-7.11-2.43-10.38-4.26c-2.49-1.39-5.12-2.66-7.75-3.79
	c-7.98-3.44-15.83-7.28-24.01-10.19c-13.78-4.9-27.38-2.97-40.54,2.69c-6.63,2.85-13.02,6.27-19.61,9.2
	c-2.85,1.27-5.9,2.33-8.97,2.82c-5.28,0.84-9.53-1.95-13.55-4.95c-2.6-1.94-5.2-3.88-7.65-6c-7.81-6.75-16.78-7.97-26.28-5.15
	c-6.03,1.79-11.91,4.22-17.67,6.8c-7.38,3.3-15.03,5.18-23.06,5.79c-9.67,0.73-18.13-2.17-25.61-8.27c-2.73-2.22-5.6-4.28-8.21-6.62
	c-6.02-5.41-12.94-6.26-20.2-3.66c-5.6,2-10.98,4.65-16.35,7.25c-3.59,1.74-6.9,4.03-10.46,5.82c-5.65,2.85-11.15,1.98-15.8-2.29
	c-1.52-1.4-3.09-2.8-4.37-4.42c-3.53-4.47-24.35-5.72-29.66-6c-6.12-0.32-11.35,1.9-15.89,5.78c-4.56,3.91-8.8,8.19-13.41,12.03
	c-6.03,5.02-12.76,8.82-20.32,11.15c-6.11,1.89-11.29-0.53-15.54-4.84c-2.71-2.75-2.9-8.55-6.99-9.87
	c-3.18-1.02-6.45-1.92-9.74-2.39c-3.67-0.52-7.41-0.48-11.11-0.76c-1.42-0.11-2.12,0.41-2.81,1.73c-5.5,10.4-13.42,18.12-24.7,21.98
	c-3.84,1.31-7.42,0.76-10.81-1.45c-3.24-2.12-4.32-5.4-2.77-8.99c1.55-3.6,4.19-6.32,7.29-8.58c5.92-4.31,12.65-6.57,19.85-7.48
	c1.7-0.21,3.44-0.23,5.12-0.53c0.59-0.1,1.34-0.65,1.57-1.19c2.13-4.96,3.82-10.07,4.21-15.5c0.28-4-1.38-7.19-4.74-9.3
	c-4.68-2.94-9.57-5.55-14.15-8.63c-4.54-3.05-7.9-7.21-7.25-13.08c0.33-2.92,1.32-6.05,2.91-8.49c3.57-5.48,7.74-10.57,11.6-15.86
	c1.46-2,2.9-4.04,4.07-6.21c1.28-2.37,0.9-3.33-1.3-4.85c-5.14-3.55-10.47-6.84-15.35-10.71c-3.54-2.8-6.75-6.13-9.63-9.62
	c-5.79-7.02-3.72-14.8-1.13-22.65c0.72-2.19,1.45-4.37,2.17-6.56c2.81-8.49,7.7-16.44,11.71-24.41c3.6-7.13,7.18-14.28,9.22-22.06
	c2.51-9.55,2.76-18.99-1.81-28.09c-2.45-4.88-6.02-8.9-9.78-12.78c-1.73-1.78-3.44-3.59-5.02-5.51c-4.01-4.87-4.82-10.27-2.24-16.07
	c2.49-5.6,5.05-11.18,7.64-16.74c3.96-8.48,5.8-17.37,5.25-26.74c-0.35-5.87-2.38-11.31-4.15-16.83
	c-2.33-7.28-4.62-14.59-6.64-21.96c-2.27-8.31-1.21-16.5,2.11-24.32c2.87-6.77,6.18-13.35,9.17-20.07
	c3.47-7.79,5.92-15.9,6.48-24.46c0.57-8.75-2.1-16.78-5.88-24.49c-6.22-12.69,1.44-23.92-7.68-34.61c-2.42-2.83-4.82-5.69-7.18-8.58
	c-5.66-6.92-6.57-14.63-3.23-22.76c2.98-7.26,6.36-14.36,9.57-21.53c3.03-6.77,5.21-13.74,5.87-21.21c0.73-8.2-1.01-15.8-4.83-22.97
	c-2.14-4.02-4.41-7.96-6.61-11.95c-5.21-9.44-5.3-19.01-0.37-28.53c3.29-6.37,7.11-12.47,10.28-18.89
	c2.06-4.16,3.83-8.57,4.93-13.07c1.29-5.28-0.2-10.19-4.37-13.94c-1.89-1.7-3.99-3.18-5.99-4.76c-2.33-1.83-4.73-3.58-6.99-5.5
	c-5.91-5.04-7.22-11.51-4.3-18.37c2.23-5.22,5.18-10.27,8.56-14.83c7.69-10.34,11-22.16,12.75-34.63c0.8-5.72,3.1-18.46,0.38-19.76
	c-8.89-4.26-11.72-6.18-17.21-10.25c-3.81-2.82-7.69-7.5-9.91-11c-4.89-7.68-6.02-14.91-4.2-21.81c1.52-5.78,6.16-10.46,11.64-12.83
	S34.34,7.7,40.23,8.74c3.37,0.6,7.02,1.87,8.6,4.91c0.86,1.64,1.68,4.21,2.06,6.03c1.7,8.13-0.69,18.74-1.26,28.4
	c-0.21,3.58-4.11,17.59,1.9,16.55c5.39-0.93,9.63-4.03,13.49-7.61c6.27-5.83,12.31-11.92,18.57-17.76c3.33-3.1,6.73-6.18,10.44-8.79
	c14.31-10.09,30.84-9.8,44.5,1.2c6.97,5.61,13.16,12.19,19.88,18.14c4.27,3.78,8.6,7.62,13.38,10.68
	c8.07,5.15,16.47,3.27,22.07-4.57c3.69-5.16,6.91-10.65,10.57-15.84c3.51-4.99,7.68-9.3,13.93-10.74
	c5.27-1.21,10.52-0.56,15.34,1.52c7.47,3.22,14.66,7.07,22.03,10.54c3.89,1.84,7.83,3.64,11.87,5.1c6.92,2.51,13.72,1.68,20.07-1.89
	c3.77-2.12,7.3-4.68,10.92-7.07c2.82-1.86,5.52-3.92,8.42-5.62c6.05-3.54,10.66-3.1,16.09,1.41c3.71,3.08,7.19,6.47,11.03,9.39
	c8.29,6.32,17.53,6.93,26.9,3.14c6.54-2.65,12.72-6.19,19.09-9.27c5.44-2.63,10.85-5.35,16.42-7.71c8.92-3.78,17.06-1.78,24.46,4.05
	c5.41,4.27,10.72,8.66,16.11,12.97c7.29,5.82,15.76,8.36,24.89,8.19c7.06-0.14,14.12-1.06,21.17-1.7c8.15-0.73,16.32-2.42,24.47-1.1
	c5.63,0.91,11.17,2.68,16.6,4.52c7.84,2.66,15.66,3.31,23.67,1.1C548.37,56.77,548.81,56.59,548.97,56.54z M551.16,679.64
	c-4.42-11.14-7.49-22.81-9.13-34.68c-1.88-13.59-3.69-26.42,2.27-39.4c2.99-6.51,5.67-13.15,8.52-19.72
	c4.27-9.81,3.99-19.44-1-28.93c-1.06-2.02-1.95-4.13-3.08-6.1c-5.08-8.8-5.44-17.93-1.97-27.33c3.28-8.92,6.71-17.78,9.89-26.73
	c4.1-11.53,3.66-22.89-1.66-34.01c-1.93-4.04-3.6-8.21-5.42-12.3c-4.96-11.14-6.43-22.66-2.53-34.32
	c2.42-7.22,5.79-14.12,8.91-21.08c4.05-9.04,8.63-17.86,10.83-27.64c1.86-8.3,1.31-16.12-4.49-22.85c-2.25-2.61-4.73-5.03-7.08-7.56
	c-2.49-2.68-5.1-5.27-7.39-8.11c-5.48-6.78-8.51-14.48-7.97-23.36c0.33-5.38,1.8-10.52,4.27-15.23c4.32-8.23,8.91-16.32,13.48-24.41
	c5.29-9.36,10.7-18.65,14.35-28.82c4.31-11.98,4.05-23.59-3.19-34.48c-2.14-3.22-4.47-6.31-6.82-9.38
	c-5.71-7.45-11.67-14.72-17.18-22.32c-3.64-5.02-5.6-10.86-6.29-17.11c-1.05-9.6,1.72-18.32,6.67-26.2
	c5.6-8.92,11.98-17.36,17.95-26.05c2.73-3.97,5.5-7.93,7.86-12.13c2.34-4.16,1.69-8.28-1.57-11.84c-1.63-1.78-3.39-3.44-5.08-5.16
	c-3.64-3.68-7.34-7.32-10.88-11.09c-0.89-0.95-1.59-1.09-2.82-0.92c-4.06,0.57-8.15,1.21-12.24,1.28
	c-5.77,0.09-11.19-1.85-16.54-3.83c-6.51-2.41-13.18-3.9-20.15-3.25c-10.13,0.94-20.24,2.08-30.37,3.01
	c-11.66,1.07-22.82-0.73-32.63-7.44c-6.46-4.42-12.57-9.4-18.52-14.51c-5.8-4.98-11.97-6.45-19.08-3.67
	c-3.01,1.17-6.05,2.31-8.92,3.77c-6.99,3.57-13.84,7.4-20.83,10.97c-5.17,2.64-10.64,4.47-16.47,4.97
	c-7.87,0.67-14.99-1.71-21.28-6.19c-4.76-3.38-9.07-7.39-13.53-11.19c-1.66-1.41-3.48-1.78-5.35-0.91
	c-2.42,1.12-4.79,2.39-7.04,3.82c-5.74,3.67-11.23,7.76-17.14,11.13c-4.79,2.74-10.18,3.5-15.78,2.74
	c-6.92-0.95-13.08-3.84-19.22-6.93c-7.02-3.53-14.02-7.11-21.2-10.28c-4.24-1.87-8.85-2.46-13.49-1.14
	c-4.83,1.38-8.28,4.69-11.07,8.59c-3.85,5.38-7.23,11.1-11.03,16.52c-5.99,8.57-14.49,10.92-24.09,6.91
	c-6.4-2.67-11.64-7.04-16.66-11.67c-6.7-6.18-13.2-12.58-19.95-18.7c-4.95-4.49-10.72-7.41-17.52-7.86
	c-9.56-0.63-17.99,2.39-25.13,8.6c-6.66,5.8-12.88,12.1-19.42,18.04c-4.13,3.75-8.32,7.48-12.8,10.8
	c-4.09,3.03-8.83,4.47-14.03,3.31c-0.36-0.08-0.76,0-1.21,0c-0.31,2.96-0.53,5.8-0.92,8.6c-0.64,4.58-1.44,9.15-2.07,13.73
	c-1.29,9.44-3.07,18.75-8,27.06c-2.6,4.39-5.76,8.46-8.32,12.87c-1.89,3.25-3.58,6.72-4.7,10.3c-1.66,5.33-0.39,10.14,4.13,13.75
	c1.83,1.46,3.75,2.81,5.6,4.25c2.5,1.95,5.12,3.78,7.44,5.93c4.96,4.6,6.89,10.31,5.79,17.08c-0.87,5.36-3.28,10.08-5.79,14.75
	c-2.96,5.53-6.1,10.96-9.06,16.49c-5.27,9.84-4.92,19.56,0.77,29.15c2.04,3.44,3.96,6.96,5.87,10.48
	c5.39,9.99,6.41,20.53,4.06,31.56c-1.75,8.18-5.37,15.6-8.73,23.15c-2.09,4.71-4.23,9.41-6.04,14.23
	c-2.49,6.59-1.5,12.78,2.92,18.31c2.24,2.81,4.56,5.55,6.89,8.28c9.57,11.21,2.3,23.01,8.76,36.36c4.11,8.5,6.86,17.33,5.94,26.97
	c-0.62,6.5-2.03,12.84-4.59,18.82c-3.25,7.59-6.87,15.03-10.32,22.53c-3.86,8.39-5.58,17.06-2.92,26.16
	c2.12,7.27,4.05,14.64,6.71,21.72c5.72,15.2,5.27,29.98-1.76,44.59c-2.45,5.1-4.83,10.24-7.27,15.34
	c-2.8,5.85-1.97,11.06,2.48,15.79c3.36,3.57,6.78,7.1,9.83,10.93c6.53,8.18,9.28,17.55,8.2,28.08c-0.87,8.47-3.8,16.21-7.74,23.62
	c-3.2,6.02-7.13,11.96-9.78,18.24c-2.28,5.38-4,10.71-6.63,15.99c-3.47,6.97-5.26,17.21,0.02,23.71c1.65,2.03,3.32,4.17,5.38,5.71
	c6.05,4.51,12.26,8.8,18.48,13.08c5.16,3.55,6.02,6.59,2.65,11.8c-2.17,3.35-4.91,6.32-7.19,9.61c-3.17,4.58-6.57,9.08-9.07,14.03
	c-2.7,5.34-1.16,9.75,3.83,13.1c3.62,2.43,7.47,4.51,11.22,6.75c9.26,5.54,11.52,10.79,9.06,21.28c-0.6,2.57-1.42,5.09-2.14,7.64
	c3.16,0.3,6.18,0.47,9.17,0.88c5.04,0.69,10.03,1.68,14.47,4.4c2.35,1.44,3.82,2.79,5.2,5.15c1.59,2.72,3.79,5.22,6.69,6.46
	c3.71,1.59,7.83,0.03,11.3-1.53c4.35-1.96,8.38-4.69,12.07-7.7c5.08-4.14,9.75-8.77,14.75-13.01c9.62-8.18,38.79-7.36,47.64-1.33
	c3.2,2.17,5.72,5.35,8.54,8.09c1.72,1.67,3.7,2.45,6.01,1.59c2.31-0.85,4.64-1.72,6.79-2.9c7.42-4.06,14.62-8.52,22.78-11.08
	c9.24-2.9,17.74-2.04,25.47,4.09c2.86,2.27,5.76,4.5,8.55,6.88c6.02,5.13,12.81,7.87,20.81,7.35c7.67-0.5,15.08-1.92,22.19-5.01
	c6.11-2.65,12.27-5.27,18.62-7.23c9.46-2.92,18.82-2.31,27.33,3.25c4.43,2.9,8.6,6.22,12.73,9.55c3.86,3.12,7.96,3.82,12.52,2.09
	c1.54-0.59,3.04-1.27,4.55-1.94c8.29-3.68,16.49-7.59,24.9-10.98c7.76-3.13,16.01-4,24.33-3.42c8.15,0.57,15.81,3.14,23.21,6.55
	c6.46,2.98,12.94,5.92,19.42,8.84c1.65,0.74,3.38,1.17,5.06,1.75c3.27,1.13,6.3,3.61,9.78,3.99c2.29,0.25,4.63,0.64,6.96,0.34
	c4.56-0.58,7.79-3.66,10.2-7.39c1.56-2.43,2.82-5.05,4.24-7.57c2.51-4.44,4.79-9.03,7.65-13.24c2.53-3.72,6.46-5.14,10.91-4.11
	c2.92,0.67,5.81,1.59,8.57,2.75c4.26,1.79,8.4,3.89,12.7,5.91c0.17-0.59,0.34-1.03,0.42-1.49c1.17-6.31,1.95-12.72,3.66-18.91
	c1.48-5.34,2.97-10.7,5.02-15.86c2.11-5.32,5-9.99,7.97-14.86c3.47-5.7,5.29-11.83,4.53-18.57c-1.11-9.91-6.04-16.48-10.84-24.84
	c-1.9-3.3-2.72-7.3-4.29-10.83C552.68,683.35,551.9,681.5,551.16,679.64z M553.12,55.44c2.02-1.2,3.94-2.14,5.64-3.38
	c9.31-6.79,15.28-16.13,19.63-26.61c0.88-2.12,1.36-4.51,1.49-6.8c0.2-3.55-2.03-5.47-5.57-5.74c-9.37-0.72-22.42,8.49-25.67,18.36
	C545.77,40.01,548.53,47.65,553.12,55.44z M44.11,62.8c1.12-10.26,2.19-21.89,3.56-33.28c0.72-5.96-0.23-12.92-5.19-16.31
	c-2.94-2.01-6.74-2.34-10.28-1.91c-2.48,0.3-4.95,0.95-7.08,2.25c-4.73,2.91-8.43,5.82-10.38,11.02c-0.74,1.98-0.06,6.69,0.12,8.8
	c0.09,1.11,0.45,2.19,0.9,3.21c2.8,6.28,7.53,11.46,12.78,15.49C33.78,56.09,38.02,60,44.11,62.8z M551.54,795.41
	c-0.17,2.41-0.34,4.38-0.45,6.36c-0.33,5.98,0.21,11.77,2.67,17.4c2.51,5.74,12.23,4.83,14.62,0.68c1.9-3.29,1.92-6.71,1.51-10.22
	c-0.34-2.96-0.76-6.25-3.66-7.74C561.59,799.51,556.69,797.64,551.54,795.41z M51.36,803.53c-0.52-0.06-0.78-0.14-1.02-0.11
	c-7.43,0.93-14.29,3.35-20.04,8.31c-2.4,2.07-4.53,4.44-5.42,7.64c-0.84,3.05,0.11,4.02,3.18,3.29c5.58-1.33,10.11-4.52,14.33-8.23
	C45.9,811.33,48.87,807.77,51.36,803.53z"/>
</svg>
