<?xml version="1.0" encoding="utf-8"?>
<!-- Generator: Adobe Illustrator 28.3.0, SVG Export Plug-In . SVG Version: 6.00 Build 0)  -->
<svg version="1.1" id="Layer_1" xmlns="http://www.w3.org/2000/svg" xmlns:xlink="http://www.w3.org/1999/xlink" x="0px" y="0px"
	 viewBox="0 0 595.28 841.89" style="enable-background:new 0 0 595.28 841.89;" xml:space="preserve">
<g>
	<path d="M59.5,577.3c0.84,0.07,2.03,1.9,2.38,2.48c3.94,6.48,5.81,13.61,6.33,21.08c1.42,20.49-2.09,40.37-8.81,59.62
		c-5.05,14.46-11.14,28.57-16.91,42.77c-6.18,15.19-11.88,30.53-14.88,46.7c-2.08,11.21-3.18,22.46-0.61,33.73
		c0.68,2.97,1.78,5.89,3.07,8.66c4.09,8.77,11.56,12.84,20.93,13.49c15.15,1.05,27.85-5.02,39.45-13.97
		c1.14-0.88,0.62-1.67,0.3-2.57c-2.96-8.25-3.68-16.64-1.22-25.12c1.44-4.96,3.75-9.53,7.64-13.12c2.45-2.26,5.32-3.87,8.82-3.3
		c4.64,0.76,7.28,4.21,7.35,9.63c0.11,7.99-2.34,15.39-6.61,22.03c-2.78,4.33-6.37,8.17-9.74,12.12c-0.86,1.01-1.15,1.61-0.41,2.82
		c3.66,5.95,8.92,8.06,16,6.27c6.22-1.57,11.37-4.92,15.96-9.23c5.55-5.2,10.1-11.15,13.72-17.79c1.98-3.63,3.93-7.29,3.83-11.61
		c-0.02-0.68,0.2-1.38,0.41-2.05c0.37-1.17,0.52-2.62,2.38-2.3c1.71,0.3,2.95,1.76,2.76,3.42c-0.13,1.1-0.31,2.25-0.75,3.26
		c-1.39,3.16-0.99,6.28-0.08,9.43c2.98,10.25,8.58,18.23,19.45,21.47c6.13,1.83,12.47,1.86,18.75,1.18
		c20.65-2.23,38.56-11.11,55.33-22.63c10.18-7,20.26-14.14,30.44-21.14c2.14-1.47,4.46-2.71,6.79-3.9
		c5.41-2.75,10.87-2.57,16.37-0.13c5.19,2.3,9.48,5.85,13.7,9.49c9.45,8.15,18.92,15.01,29.76,21.33
		c13.03,7.6,32.36,17.39,60.81,25.77c50.01,14.74,104.17,8.07,119.91,0.33c9.69-4.76,15.05-12.23,15.05-12.23
		c3.41-5.53,5.43-11.78,6.75-18.11c-19.36-7.89-27.58-23.68-31.69-42.36c-1.57-7.12-1.73-14.3,0.82-21.31
		c2.72-7.47,7.69-9.08,14.4-4.64c4.72,3.13,7.89,7.58,10.36,12.53c4.25,8.53,6.6,17.66,8.44,26.92c1.66,8.36,3.08,16.76,2.37,25.57
		c5.29-0.79,9.32-3.3,12.52-7.13c5.33-6.37,7.45-14,8.52-21.99c1.97-14.73-1.83-28.56-6.97-42.15c-4.53-11.95-9.35-23.8-13.62-35.84
		c-2.62-7.37-4.69-14.97-4.42-22.93c0.09-2.56,0.32-5.12,0.49-7.79c1.59,0,2.45,0.52,2.37,1.94c-1.02,18.08,6.18,34.17,12.74,50.36
		c4.23,10.43,9.02,20.63,11.79,31.58c3.3,13.07,3.93,26.13-0.71,39.01c-1.19,3.31-2.94,6.52-4.98,9.4
		c-4.3,6.07-10.48,8.99-18.07,9.18c-0.67,2.52-1.23,5.03-1.99,7.47c0,0-3.54,10.07-11.4,18.52c-14.97,16.07-58.12,17.91-75.4,17.18
		c-30.54-1.28-46.63-5.56-61.85-10.87c-29.71-10.37-63.49-27.88-73.72-36.33c-6.52-5.39-12.98-10.86-19.49-16.26
		c-1.08-0.9-2.28-1.66-3.45-2.45c-5.7-3.84-11.64-4.3-17.56-0.73c-5.38,3.24-10.57,6.78-15.79,10.27
		c-11.61,7.77-22.95,15.97-34.85,23.28c-12.2,7.48-25.69,12-39.99,13.82c-8.16,1.04-16.3,0.8-24.1-2.08
		c-11.06-4.09-17.9-12.13-21.54-23.47c-0.92,1.56-1.67,2.85-2.44,4.14c-5.14,8.51-11.35,16.06-19.88,21.51
		c-3.98,2.54-8.33,4.26-13.08,4.59c-6.74,0.46-12.33-1.95-16.62-7.16c-0.53-0.65-1.05-1.31-1.72-2.16c-0.72,0.55-1.42,1.1-2.14,1.63
		c-8.64,6.27-18.09,10.88-28.78,12.21c-17.63,2.21-35.05-4.63-39.75-27.11c-2.29-10.95-1.36-21.84,0.63-32.72
		c3.58-19.61,10.99-37.97,18.89-56.17c6.92-15.95,13.81-31.9,18.11-48.8c3.27-12.88,5.3-25.92,5.27-39.21
		c-0.02-7.09-0.84-14.09-3.63-20.73c-0.82-1.94-1.7-3.37-2.92-5.1c-0.13-0.19-0.26-0.39-0.3-0.62c-0.06-0.38,0.19-0.77,0.55-0.89
		C59.36,577.3,59.43,577.3,59.5,577.3z M543.96,772.35c0.19-0.23,0.39-0.47,0.58-0.7c0.12-2.43,0.52-4.89,0.3-7.3
		c-0.52-5.7-1.09-11.41-2.07-17.04c-1.68-9.64-4.04-19.12-8.41-27.98c-1.97-3.99-4.38-7.7-8.09-10.35c-3.12-2.23-5.97-1.78-7.5,1.67
		c-1.48,3.33-2.77,6.96-3.05,10.55c-0.97,12.29,2.71,23.58,8.73,34.19c3.04,5.37,6.98,10.06,12.25,13.43
		C538.96,770.26,541.54,771.19,543.96,772.35z M93.97,788.38c0.45-0.25,0.66-0.31,0.8-0.45c7.35-7.16,12.42-15.59,14.26-25.67
		c0.53-2.89,0.49-5.99,0.12-8.91c-0.37-2.94-1.86-3.69-4.48-2.26c-2.29,1.25-4.6,2.92-6.12,4.97
		C91.25,765.89,90.72,776.79,93.97,788.38z"/>
	<path d="M51.87,476.23c4.02-7.12,8.44-13.43,14.12-18.79c4.7-4.44,9.79-8.33,16.24-9.99c4.39-1.13,8.82-1.31,13.2,0.08
		c20.51,6.51-0.87,36.51-9.33,44.08c-1.54,1.38-4.48,3.21-6.39,4.03c-2.34,1.01-4.94,1.21-7.48,1.17
		c-9.23-0.13-16.63-4.69-20.6-12.98c-0.46,1.72-0.54,2.01-0.76,2.85c-1.03,4.15-1.94,6.3-2.52,10.51
		c-1.8,13.13,0.3,25.77,5.86,37.81c3.5,7.58,8.76,13.47,17.1,16.14c0.61,0.19,1.13,0.65,1.69,0.99c-0.07,0.18-0.13,0.36-0.2,0.55
		c-0.68-0.14-1.39-0.22-2.05-0.42c-8.42-2.63-14.19-8.35-18-15.9c-7.54-14.93-10.02-30.61-6.15-47.02c0.62-2.64,1.66-5.21,2.7-7.73
		c0.55-1.34,0.65-2.44-0.03-3.75c-5.86-11.23-11.64-22.49-17.52-33.71c-3.38-6.47-6.59-12.98-7.81-20.25
		c-1.79-10.7,0.29-20.85,4.47-30.71c4.91-11.58,12.21-21.73,19.72-31.74c7.84-10.45,15.91-20.73,23.55-31.32
		c5.72-7.93,9.54-16.75,11.09-26.49c2-12.57-0.12-24.45-5.45-35.92c-5.35-11.52-12.81-21.72-20.45-31.79
		c-10.07-13.28-19.56-26.88-26.5-42.1c-10.52-23.1-14.82-47.33-13.53-72.49c0.93-18.08,4.54-35.68,12.39-52.19
		c4.94-10.39,11.7-19.32,22.28-24.82c6.09-3.16,12.37-4.34,18.97-1.38c0.44,0.2,1.4-0.05,1.74-0.42
		C82.03,31.76,95,27.47,108.87,25.22c13.53-2.2,27.11-1.49,40.69-0.12c20.57,2.06,40.36,6.9,59.17,15.46
		c0.59,0.27,1.56,0.23,2.13-0.08c10.87-5.77,22.63-8.24,34.77-9.48c10.81-1.11,21.67-1.95,32.47-0.67
		c12.08,1.43,15.6,2.58,23.67,4.81c9.22,2.55,19,6.88,28.23,9.4c8.59,2.35,17.19,4.69,25.83,6.77c8.71,2.1,17.43,4.31,26.23,5.68
		c11.58,1.81,23.22,3.36,34.86,4.1c21.23,1.35,42.06-1.22,61.92-9.95c5.59-2.46,10.92-5.64,15.97-9.32
		c2.56-1.86,5.05-3.86,7.47-5.95c2.49-2.15,4.65-4.79,6.93-7.24c0.28-0.3,0.65-0.62,1.01-0.48c0.37,0.15,0.49,0.72,0.36,1.14
		c-0.13,0.42-0.43,0.73-0.69,1.05c-10.29,12.39-23.84,20.93-38.08,25.9c-1.12,0.39-2.25,0.76-3.38,1.11
		c-12.58,3.89-25.39,5.76-38.48,6.06c-14.29,0.33-28.5-0.95-42.62-3.33c-11.46-1.93-22.83-4.77-34.19-7.49
		c-11.16-2.67-22.4-5.17-33.36-8.63c-9.32-2.94-16.68-5.79-25.1-8.26c-10.2-3-20.88-4.03-32.2-3.55
		c-11.42,0.48-22.79,1.32-33.81,4.45c-5.18,1.47-10.14,3.68-15.2,5.55c0.04,0.24,0.09,0.48,0.13,0.72c2.65,1.42,5.42,2.67,7.94,4.3
		c4.97,3.21,10.13,6.24,14.62,10.02c10.66,8.96,13.34,21.41,7.93,34.19c-5.7,13.47-20.32,22.45-35.09,21.56
		c-12.72-0.77-24.74-11.56-26.69-24.15c-2.43-15.7,3.6-28.35,14.98-38.86c3.03-2.8,6.53-5.11,9.93-7.73
		c-0.54-0.27-1.17-0.64-1.83-0.92c-14.29-6.1-29.13-10.21-44.56-12.37c-12.09-1.69-24.21-2.86-36.42-2.42
		c-13.21,0.48-26.06,2.69-37.82,9.11c-4.62,2.52-8.75,5.67-11.79,9.41c1.72,2.96,3.56,5.53,4.77,8.37c1.3,3.05,1.01,6.21-1.33,8.86
		c-2.11,2.39-5.54,3.14-8.34,1.94c-2.74-1.17-4.32-4.19-4.06-7.67c0.31-4.17,1.99-7.83,4.35-11.41c-2.87-1.68-5.86-1.79-8.86-1.19
		c-7.76,1.57-13.82,5.99-18.98,11.67c-8.34,9.18-12.95,20.27-16.3,31.94c-5.55,19.34-7.13,39.01-5.23,59.02
		c2.72,28.65,13.48,54.17,30.29,77.42c7.2,9.96,14.64,19.75,21.59,29.88c6.14,8.94,11.06,18.56,13.38,29.22
		c3.57,16.42,0.94,31.97-8.26,46.05c-5.9,9.03-12.7,17.49-19.17,26.15c-8.11,10.86-16.67,21.41-23.02,33.44
		c-5.07,9.6-8.59,19.61-8.31,30.64c0.18,6.84,1.91,13.28,5.03,19.32c4.86,9.39,9.96,18.65,14.9,28
		C48.86,469.68,50.24,472.82,51.87,476.23z M212.22,110.49c9.47-0.56,18.9-5.57,25.55-15.02c7.41-10.53,9.95-28.11-5.53-38.92
		c-6.39-4.46-13.34-8.13-20.09-12.06c-0.54-0.31-1.71-0.16-2.26,0.23c-3.45,2.44-7.1,4.7-10.15,7.58
		c-10.29,9.72-15.99,21.37-14.46,35.82C186.63,100.82,197.15,110.4,212.22,110.49z M99.99,455.81c-0.6-3.53-2.64-6.13-7.04-6.49
		c-6.52-0.53-12.27,1.36-17.55,5.03c-7.08,4.92-12.8,11.48-17.39,18.74c-1.98,3.13-4.64,5.65-2.91,9.54
		c1.46,3.29,5.75,7.19,8.81,8.78c3.53,1.84,7.63,2.86,11.53,2.05c4.64-0.96,8.38-4.32,11.69-7.71c2.62-2.69,5.97-8.39,8.01-11.54
		C97.8,470.07,101.16,462.65,99.99,455.81z M73.03,47.22C70.9,50.55,69.09,53.97,69,58c-0.04,1.62-0.34,3.91,1.67,4.22
		c1.44,0.23,3.14-1.01,4.69-1.68c0.33-0.14,0.53-0.62,0.76-0.97C78.44,56.04,77.06,50.33,73.03,47.22z"/>
	<path d="M529.12,354.48c-5.35-0.94-10.13-2.74-14.41-5.73c-9.31-6.51-14.07-15.8-16.57-26.45c-2.94-12.48-1.59-24.87,1.05-37.2
		c4.38-20.42,12.94-39.24,23.33-57.24c9.98-17.3,20.49-34.31,30.68-51.5c10.28-17.32,18.48-35.48,21.74-55.47
		c2.83-17.38,3.71-34.79-1.04-52.03c-2.11-7.65-5.36-14.73-11.56-20.09c-2.38-2.06-5.1-3.74-8.1-4.75c-1.52-0.51-3.1-0.85-4.7-1.02
		c-0.39-0.04-2.15,0.09-2.35-0.21c-0.54-0.82,1-1.26,1.49-1.26c1.08,0.01,2.23,0.47,3.27,0.73c9.53,2.39,15.76,8.72,20.2,16.97
		c4.35,8.08,6.41,16.88,7.21,25.89c2.09,23.66-1.01,46.64-10.08,68.72c-5.72,13.91-13.33,26.86-21.04,39.75
		c-10.25,17.14-20.75,34.15-29.5,52.12c-7.1,14.57-12.75,29.65-15.69,45.61c-2.39,12.93-3.04,25.83,1.49,38.5
		c2.5,6.99,6.18,13.17,12.55,17.47c3.66,2.47,7.75,3.68,12.12,3.95c0.58,0.04,1.51-0.82,1.81-1.47c3.56-7.67,7.68-14.97,13.75-21.04
		c4.67-4.66,10.04-8.23,16.58-9.72c1.61-0.37,3.43-0.41,5.04-0.06c4.36,0.94,6.41,4.6,5.15,8.99c-1.58,5.49-4.98,9.87-9.15,13.66
		c-6.88,6.26-14.65,10.97-24.04,12.64c-0.14,0.02-0.28,0.12-0.41,0.1c-3.8-0.57-4.75,1.86-5.74,4.81
		c-6.38,19.06-3.33,37.07,6.66,54.01c5.22,8.86,11.48,17.12,17.32,25.62c6.87,10.01,11.96,20.72,13.74,32.81
		c1.44,9.78,0.77,19.5-1.81,28.93c-4.31,15.72-9.16,31.3-13.92,46.9c-2.95,9.65-6.35,19.18-7.62,29.23c-0.4,3.15-0.06,6.4-0.06,9.69
		c-2.05,0.15-2.59-0.8-2.79-2.32c-0.69-5.36-0.24-10.68,1.19-15.82c3.65-13.15,7.68-26.2,11.37-39.35
		c3.06-10.91,6.21-21.82,8.71-32.86c4.66-20.64,0.37-39.63-11.86-56.96c-5.74-8.14-11.58-16.24-16.87-24.67
		c-7.66-12.19-11.71-25.51-11.28-40C525.13,367.58,526.78,361.09,529.12,354.48z M535.55,350.71c0.5,0,0.78,0.03,1.04-0.01
		c0.56-0.09,1.12-0.19,1.66-0.34c9.79-2.7,17.85-8.08,24.29-15.75c1.74-2.07,3-4.56,4.25-6.98c0.62-1.21,0.84-2.66,1-4.03
		c0.14-1.28-0.46-2.31-1.98-1.89c-2.5,0.68-5.12,1.23-7.41,2.37C547.04,329.72,540.87,339.75,535.55,350.71z"/>
</g>
</svg>
