<?xml version="1.0" encoding="utf-8"?>
<!-- Generator: Adobe Illustrator 28.3.0, SVG Export Plug-In . SVG Version: 6.00 Build 0)  -->
<svg version="1.1" id="Layer_1" xmlns="http://www.w3.org/2000/svg" xmlns:xlink="http://www.w3.org/1999/xlink" x="0px" y="0px"
	 viewBox="0 0 595.28 841.89" style="enable-background:new 0 0 595.28 841.89;" xml:space="preserve">
<g>
	<path d="M582.42,778.68c-5.07-3.66-10.55-5.08-16.89-1.82c-0.25-2.02-0.6-3.65-0.62-5.28c-0.31-21.95-0.88-43.89-0.78-65.84
		c0.22-45.76-0.79-91.53,1.53-137.26c0.42-8.19,0.87-16.37,1.31-24.56c0.63-11.71,1.57-23.42,1.81-35.14
		c0.22-10.4-0.52-20.81-0.5-31.21c0.05-22.95,0.28-45.9,0.48-68.85c0.11-12.48,0.14-24.96,0.52-37.42
		c0.33-10.66,1.42-21.3,1.62-31.96c0.7-36.68,1.13-73.37,1.73-110.06c0.16-9.47,0.46-18.94,0.87-28.4
		c0.78-17.55,0.33-35.08-0.99-52.58c-0.86-11.41-2.08-22.8-3.13-34.2c-0.86-9.34-1.8-18.68-2.55-28.04
		c-0.98-12.31-1.43-24.63,0.92-36.85c0.6-3.15,1.58-6.22,2.28-8.94c2.83-0.15,5.16-0.08,7.4-0.44c2.82-0.46,5.57-1.3,7.56-3.54
		c1.69-1.9,1.37-4.13-0.99-5.06c-6.79-2.68-11.94-2.89-17.06,3.03c-0.73,0.84-1.25,0.95-2.2,0.47c-2.77-1.4-5.58-2.72-8.36-4.07
		c-2.14-1.04-3.67-2.65-4.73-4.87c0.94-0.42,1.79-0.78,2.62-1.19c3.27-1.62,6.16-3.65,7.92-6.93c1.57-2.94,0.75-5.46-2.46-6.55
		c-1.68-0.57-3.56-0.76-5.36-0.77c-5.67-0.05-10.05,4.32-10.03,9.89c0.01,1.32,0.15,2.64,0.23,3.98c-0.85,0.27-1.61,0.54-2.38,0.76
		c-9.2,2.63-18.5,4.59-28.18,4.06c-9.75-0.53-19.5-0.99-29.24-1.5c-10.01-0.52-20.03-1.02-30.04-1.59
		c-8.72-0.49-17.44-1.13-26.16-1.59c-6.91-0.36-13.82-0.63-20.74-0.79c-9.71-0.22-19.42-0.43-29.13-0.4
		c-6.44,0.02-12.88,0.42-19.32,0.76c-6.35,0.34-12.7,0.84-19.05,1.23c-9.13,0.55-18.25,1.37-27.38,1.49
		c-12.97,0.17-25.94-0.15-38.92-0.31c-18.75-0.24-37.49-0.51-56.24-0.78c-18.74-0.27-37.48-0.51-56.22-0.85
		c-6.85-0.12-13.7-0.67-20.55-0.68c-17.11-0.01-34.25-0.24-51.34,0.44c-9.19,0.37-18.35,2.2-27.44,3.82
		c-5.94,1.06-11.68,0.94-17.47-0.45c-1.22-0.29-1.82-0.84-1.95-2.29c-0.42-4.83-2.77-8.84-6.1-12.32c-0.54-0.57-1.26-1.11-2-1.33
		c-3.59-1.07-6.09-0.32-6.67,3.17c-0.6,3.61-0.02,6.99,2.99,9.45c1.81,1.48,3.96,2.55,5.87,3.92c0.53,0.38,1.1,1.24,1.02,1.8
		c-0.87,6.09-4.31,10.66-9.16,14.31c-0.62,0.46-1.39,0.73-1.75,0.92c-2.41-2.56-4.4-5.14-6.85-7.18c-3.05-2.53-6.68-3.18-10.43-1.3
		c-2.09,1.05-2.48,2.53-1.18,4.21c2.96,3.84,6.8,6.38,11.76,6.68c2.41,0.15,3.5,1.12,4.27,3.22c0.08,0.38,0.17,0.75,0.25,1.13
		c2.35,12.23,1.9,24.55,0.92,36.85c-0.74,9.35-1.68,18.69-2.55,28.04c-1.05,11.4-2.27,22.79-3.13,34.2
		c-1.32,17.5-1.77,35.03-0.99,52.58c0.42,9.46,0.72,18.93,0.87,28.4c0.6,36.69,1.03,73.37,1.73,110.06
		c0.2,10.66,1.3,21.3,1.62,31.96c0.38,12.47,0.41,24.95,0.52,37.42c0.2,22.95,0.44,45.9,0.48,68.85c0.02,10.4-0.72,20.81-0.5,31.21
		c0.25,11.72,1.18,23.43,1.81,35.14c0.44,8.18,0.89,16.37,1.31,24.56c2.32,45.73,1.31,91.51,1.53,137.26
		c0.1,19.5,5.17,37.83,3.85,61.42c-0.14,2.21-0.29,4.42-0.51,6.61c-0.48,4.87-1.33,9.7-2.02,14.66c-1.75,0-3.24-0.1-4.72,0.02
		c-6.04,0.5-11.49,2.05-15.5,7.1c-4.64,5.84-4.04,12.31,1.97,16.76c5.15,3.82,14.58,4.33,18.18-3.53c1.24-2.71,2.42-5.47,3.35-8.3
		c0.9-2.75,1.43-5.61,2.18-8.64c9.29,1.65,18.05,3.91,25.06,10.65c-1.17,0.64-2.09,1.08-2.94,1.62c-4.06,2.6-7.29,5.76-7.76,10.86
		c-0.37,3.92,2.45,7.16,6.42,7.08c5.85-0.11,9.77-3.41,12.31-8.14c1.19-2.22,1.29-5.01,1.99-7.98c0.15-0.63,15.92-0.75,17.45-0.73
		c11.75,0.16,23.31,2.34,34.98,3.53c6.66,0.68,13.43,0.29,20.15,0.56c7.45,0.3,14.89,0.73,22.33,1.23
		c8.44,0.57,16.87,1.37,25.31,1.9c8.39,0.52,16.78,0.95,25.18,1.21c12.29,0.38,24.58,0.62,36.87,0.8c4.34,0.06,8.69-0.37,13.03-0.3
		c9.85,0.15,19.69,0.58,29.53,0.7c17.46,0.22,34.93,0.4,52.39,0.41c16.71,0,33.42-0.28,50.13-0.36c15.21-0.07,30.42,0.03,45.63-0.03
		c6.57-0.02,13.16-0.05,19.71-0.44c5.39-0.32,10.77-1.03,16.11-1.84c4-0.61,7.89-1.97,11.89-2.43c6.13-0.71,12.24-1.32,17.94-3.89
		c1.28-0.58,2.63-1.05,3.99-1.39c6.33-1.62,12.82-2.79,18.98-4.87c4.53-1.53,8.56-1.07,12.63,0.35c-0.18,3.5-0.49,6.88-0.5,10.25
		c-0.02,8.83,6.04,14.93,15.18,14.33c5.01-0.33,9.94-6.28,8.93-11.13c-0.63-3.04-2.55-5.27-4.87-7.18
		c-3.8-3.12-7.74-6.05-12.54-7.45c1.38-7.36,5.73-14.16,11.47-18c4.01,5.62,9.03,9.3,16.53,8.53c3.1-0.32,5.26-1.64,6.34-4.47
		C586.42,784.86,585.43,780.85,582.42,778.68z M575.94,32.77c0.95-0.46,2.56,0.42,3.87,0.69c-0.29,0.72-0.38,1.71-0.91,2.11
		c-2.02,1.52-4.42,1.76-6.89,1.49c-0.16-0.19-0.32-0.38-0.48-0.57C572.98,35.21,574.26,33.59,575.94,32.77z M12.6,39.85
		c-0.11-0.38,0.61-1.39,1.01-1.43c0.72-0.07,1.68,0.18,2.21,0.66c2.11,1.9,4.09,3.94,6.47,6.27C18.6,45.55,13.33,42.37,12.6,39.85z
		 M23.22,812.33c-2.21,3.45-3.99,3.77-7.15,1.09c-4.38-3.71-4.7-8.46-1.25-13.06c3.55-4.74,8.44-5.98,14.14-6.08
		C27.55,800.59,26.72,806.85,23.22,812.33z M553.15,13.77c0.81-0.5,2.32-0.74,3.06-0.33c1.24,0.68,0.88,2.01,0.21,3.16
		c-1.4,2.38-3.37,4.1-6.12,5.39C549.93,18.61,550.16,15.63,553.15,13.77z M33.47,15.33c1.99,3.07,4.02,5.62,4.67,9.13
		C34.6,22.6,33,19.57,33.47,15.33z M56.75,821.88c-1.84-2.17-1.16-4.5-0.2-6.67c1.28-2.9,3.17-5.26,6.96-5.19
		C64.4,815.12,61.96,819.4,56.75,821.88z M561.95,814.04c3.09,4.32,0.65,8.66-2.76,11.02c-0.62,0.43-1.86,0.39-2.66,0.12
		c-2.39-0.79-4.28-2.31-5.37-4.59c-2.34-4.93-2.02-10.03-0.88-15.54C554.8,807.67,559.06,809.99,561.95,814.04z M562.08,532.27
		c-0.58,10.64-1.36,21.27-2.09,31.9c-2.92,42.44-1.93,84.95-1.86,127.43c0.04,26.35,0.4,52.7,0.71,79.05
		c0.03,2.63,0.58,5.28,1.14,7.86c0.29,1.3-0.01,2-0.97,2.86c-2.37,2.1-4.6,4.34-6.89,6.53c-3.53,3.36-5.32,7.63-6.48,12.19
		c-3.19-0.37-6.13-0.88-9.08-0.98c-1.92-0.06-4.01,0.14-5.77,0.84c-7.48,2.96-15.41,3.93-23.2,5.53
		c-5.49,1.13-10.92,2.54-16.41,3.68c-2.1,0.44-4.29,0.6-6.45,0.68c-15.94,0.58-31.88,1.04-47.81,1.67
		c-9.9,0.39-19.78,1.16-29.67,1.47c-13.97,0.44-27.96,0.9-41.94,0.81c-20.98-0.13-41.96-0.87-62.94-1.05
		c-10.45-0.09-20.9,0.66-31.35,0.68c-17.87,0.03-35.74-0.08-53.6-0.41c-9.42-0.17-18.83-0.9-28.24-1.46
		c-6.15-0.36-12.3-0.76-18.43-1.32c-5.38-0.49-10.73-1.3-16.11-1.85c-6.39-0.65-12.78-1.32-19.19-1.69
		c-5.52-0.31-11.05-0.45-16.57-0.62c-5.6-0.17-10.94-1.1-16.45-2.04c-4.12-0.7-8.14-0.14-12.19-0.65
		c-7.88-0.99-15.79-1.28-23.7-0.07c-0.72,0.11-1.73-0.27-2.3-0.75c-7.41-6.3-16.34-8.92-25.77-10.32c-0.2-0.03-0.41-0.01-0.61-0.06
		c-0.59-0.14-1.17-0.29-1.53-0.39c0.61-5.65,1.33-11.25,1.92-16.85c3.05-24.31-3.8-54.11-3.76-80.33
		c0.07-42.48,1.05-84.99-1.86-127.43c-0.73-10.63-1.52-21.26-2.09-31.9c-0.66-12.11-1.37-24.22-1.6-36.34
		c-0.43-23.41-0.55-46.83-0.77-70.25c-0.18-18.54-0.22-37.09-0.54-55.63c-0.19-11.4-1.09-22.79-1.16-34.19
		c-0.22-37.56-0.19-75.12-0.28-112.68c-0.02-6.67-0.2-13.34-0.25-20.01c-0.07-10.2-0.36-20.42-0.06-30.61
		c0.31-10.52,1.18-21.02,1.88-31.52c0.26-3.98,0.7-7.96,1.08-11.93c0.43-4.44,0.93-8.87,1.33-13.3c0.42-4.57,0.74-9.16,1.14-13.73
		c0.43-4.91,0.99-9.8,1.31-14.71c0.29-4.52,0.19-9.07,0.5-13.59c0.22-3.21-0.05-6.34-0.09-9.54c-0.04-3.53-0.59-7.06-1.59-10.44
		c-0.68-2.28-1.57-4.49-2.66-6.6c-0.27-0.73-0.53-1.47-0.82-2.2c3.92-1.13,7.07-3.46,9.57-6.62c2.48-3.13,4.53-6.48,4.91-10.53
		c3.48,0.37,6.75,0.77,10.03,1.06c6.24,0.55,12.22-1.13,18.28-2.13c9.27-1.53,18.49-3.32,27.97-3.1c8.01,0.19,16.04-0.01,24.06,0.05
		c8.62,0.07,17.26-0.01,25.87,0.44c25.64,1.33,51.3,1.46,76.97,1.58c18.95,0.09,37.9,0.5,56.85,0.77
		c8.76,0.13,17.52,0.48,26.28,0.34c9.97-0.16,19.93-0.65,29.88-1.2c9.66-0.53,19.31-1.68,28.97-1.9c14.39-0.32,28.79-0.13,43.18,0
		c6.1,0.05,12.2,0.41,18.29,0.77c9.67,0.58,19.32,1.35,28.99,1.92c6.63,0.39,13.28,0.51,19.91,0.88c7.85,0.43,15.68,1.15,23.53,1.46
		c6.78,0.27,13.58,0.16,20.36,0.18c8.36,0.03,16.33-2.13,24.38-4.35c4.31,6.08,11.94,7.09,17.74,11.18
		c-0.79,3.11-1.84,6.4-2.46,9.77c-1.52,8.32-2.64,16.69-2.05,25.2c0.31,4.52,0.21,9.07,0.5,13.59c0.32,4.91,0.88,9.81,1.31,14.71
		c0.4,4.58,0.72,9.16,1.14,13.73c0.4,4.44,0.9,8.87,1.33,13.3c0.39,3.97,0.82,7.95,1.08,11.93c0.69,10.5,1.57,21.01,1.88,31.52
		c0.3,10.2,0.01,20.41-0.06,30.61c-0.05,6.67-0.24,13.34-0.25,20.01c-0.09,37.56-0.07,75.12-0.28,112.68
		c-0.07,11.4-0.96,22.79-1.16,34.19c-0.32,18.54-0.36,37.09-0.54,55.63c-0.23,23.42-0.34,46.83-0.77,70.25
		C563.46,508.05,562.74,520.17,562.08,532.27z M579,789.81c-1.88,1.06-3.68,0.36-5.28-0.72c-3.33-2.24-5.71-5.24-7.14-9.08
		c0.86-0.53,1.58-0.91,2.23-1.38c4.45-3.23,11.35,0.67,12.3,5.27C581.51,785.81,580.55,788.94,579,789.81z"/>
	<path d="M549.81,88.9c-0.07-8.6-0.09-17.2,0.16-25.79c0.13-4.57,0.89-9.11,1.36-13.67c-0.36-0.14-0.72-0.28-1.08-0.42
		c-0.41,0.75-1.04,1.47-1.18,2.26c-0.81,4.6-1.85,9.19-2.19,13.83c-1.1,15.14-0.96,30.28,1.87,45.26
		c2.18,11.56,4.24,23.13,4.16,34.9c-0.12,17.67-0.68,35.34-0.96,53.02c-0.45,27.88-0.74,55.77-1.25,83.65
		c-0.34,18.41-0.29,36.85-1.57,55.2c-2.27,32.44-3.3,64.89-3.49,97.39c-0.16,28.48,0.07,56.97-0.46,85.45
		c-0.42,22.95-1.3,45.89-0.52,68.84c0.66,19.54,1.52,39.07,0.58,58.61c-0.71,14.72-1.77,29.43-2.63,44.14
		c-0.74,12.58-1.96,25.14-1.46,37.78c0.49,12.51,0.74,25.03,1.09,37.53c1.67,0.37,2.39,0.01,2.33-1.36
		c-0.12-2.86-0.39-5.72-0.36-8.58c0.21-19.07-0.76-38.13,0.72-57.2c1.55-19.94,2.48-39.94,3.37-59.92
		c0.45-10.12,0.37-20.27,0.29-30.41c-0.18-21.21-0.84-42.42-0.7-63.63c0.15-22.34,1.21-44.68,1.47-67.03
		c0.25-21.81-0.26-43.63,0.04-65.44c0.25-18.67,1.04-37.34,1.84-56c0.79-18.53,2.33-37.03,2.74-55.56
		c0.7-31.88,0.68-63.77,1.13-95.66c0.27-18.81,1.06-37.61,1.24-56.42c0.1-10.6-0.61-21.18-2.74-31.64
		C551.66,108.4,549.89,98.74,549.81,88.9z"/>
	<path d="M520.49,788.77c-2.63,0.24-5.24,0.72-7.87,1.02c-12.19,1.38-24.4,2.69-36.58,4.12c-9.55,1.12-19.07,2.53-28.63,3.53
		c-10.31,1.08-20.64,2.11-30.99,2.69c-12.06,0.68-24.16,1.17-36.24,1.21c-28.13,0.09-56.25-0.11-84.38-0.26
		c-13.1-0.07-26.21-0.09-39.29-0.54c-6.47-0.22-12.93-1.28-19.37-2.12c-6.84-0.89-13.63-2.09-20.47-2.96
		c-8.53-1.08-17.08-2-25.63-2.9c-9.16-0.96-18.32-2.19-27.52-2.62c-12.27-0.57-24.57-0.39-36.85-0.69c-5.69-0.14-11.36-0.72-17.05-1
		c-9.21-0.45-18.43-0.83-27.64-1.19c-0.55-0.02-1.12,0.32-1.68,0.5c0.66,0.69,1.27,0.98,1.9,1.04c3.44,0.3,6.88,0.6,10.33,0.79
		c5.22,0.29,10.44,0.48,15.66,0.73c7.65,0.36,15.29,0.83,22.95,1.08c6.72,0.22,13.45,0.08,20.17,0.31
		c5.49,0.19,10.97,0.63,16.45,1.07c5.81,0.47,11.6,1.07,17.4,1.64c5.73,0.57,11.46,1.09,17.17,1.8c7.31,0.91,14.6,2,21.91,2.99
		c6.77,0.91,13.53,1.9,20.32,2.65c6.6,0.73,13.22,1.59,19.84,1.69c21.74,0.33,43.48,0.44,65.21,0.43
		c21.74-0.01,43.48-0.2,65.22-0.42c6.99-0.07,13.99-0.33,20.96-0.83c10.27-0.74,20.54-1.63,30.78-2.73
		c11.57-1.24,23.11-2.8,34.67-4.21c6.12-0.75,12.25-1.46,18.37-2.21c7.8-0.95,15.6-1.93,23.4-2.92c0.42-0.05,0.8-0.38,1.19-0.59
		c0.01-0.31,0.01-0.61,0.02-0.92C522.95,788.91,521.7,788.66,520.49,788.77z"/>
	<path d="M523,40.6c-7.73,0.3-15.44,1.03-23.17,1.25c-5.63,0.16-11.27-0.34-16.9-0.34c-13.05,0-26.1,0.45-39.14,0.12
		c-19.58-0.49-39.12-0.13-58.68,0.78c-13.91,0.64-27.83,1.2-41.75,1.46c-10.25,0.19-20.51-0.21-30.77-0.28
		c-9.44-0.06-18.89,0.09-28.33-0.07c-19.15-0.34-38.3-0.79-57.44-1.28c-5.56-0.14-11.12-0.75-16.68-0.77
		c-13.17-0.06-26.35-0.03-39.52,0.23c-11.27,0.22-22.53,1.17-33.8,1.16c-15.62-0.01-31.24-0.52-46.86-1.01
		c-6.97-0.22-13.91-0.94-20.87-1.41c-0.31-0.02-0.63,0.25-0.95,0.39c0.18,0.23,0.31,0.58,0.55,0.68c0.48,0.21,1.02,0.37,1.54,0.41
		c3.37,0.31,6.73,0.7,10.11,0.85c12.89,0.56,25.78,1.07,38.67,1.55c3.67,0.14,7.34,0.18,11.01,0.13
		c12.36-0.18,24.72-0.37,37.07-0.67c9.03-0.21,18.06-0.87,27.08-0.83c9.43,0.04,18.86,0.68,28.29,1.05
		c4.28,0.17,8.55,0.29,12.83,0.48c9.29,0.42,18.58,1.1,27.88,1.25c15.21,0.24,30.44-0.16,45.64,0.24
		c22.71,0.6,45.38,0.02,68.05-0.95c18.46-0.78,36.91-1.84,55.4-1.49c10.39,0.2,20.78,0.08,31.18,0.14
		c10.87,0.06,21.74,0.21,32.6,0.22c5.5,0.01,11-0.11,16.49-0.36c5.96-0.28,11.91-0.85,17.88-1.13c1.57-0.08,3.18,0.38,4.75,0.68
		c1.33,0.26,2.26-0.06,2.8-1.76c-0.69-0.22-1.23-0.53-1.79-0.54C531.8,40.66,527.39,40.43,523,40.6z"/>
	<path d="M47.38,650.43c-0.94-19.54-0.08-39.08,0.58-58.61c0.78-22.95-0.09-45.89-0.52-68.84c-0.53-28.48-0.29-56.97-0.46-85.45
		c-0.19-32.49-1.21-64.95-3.49-97.39c-1.29-18.35-1.23-36.79-1.57-55.2c-0.51-27.88-0.81-55.76-1.25-83.65
		c-0.28-17.67-0.84-35.34-0.96-53.02c-0.08-11.77,1.98-23.35,4.16-34.9c2.83-14.98,2.97-30.12,1.87-45.26
		c-0.34-4.64-1.37-9.23-2.19-13.83c-0.14-0.8-0.77-1.51-1.18-2.26c-0.36,0.14-0.72,0.28-1.08,0.42c0.47,4.56,1.23,9.1,1.36,13.67
		c0.25,8.59,0.23,17.19,0.16,25.79c-0.09,9.84-1.85,19.5-3.81,29.11c-2.13,10.46-2.84,21.04-2.74,31.64
		c0.18,18.81,0.98,37.61,1.24,56.42c0.45,31.89,0.43,63.78,1.13,95.66c0.4,18.53,1.95,37.03,2.74,55.56
		c0.79,18.66,1.58,37.33,1.84,56c0.3,21.81-0.22,43.63,0.04,65.44c0.26,22.35,1.32,44.68,1.47,67.03
		c0.14,21.21-0.52,42.42-0.7,63.63c-0.08,10.14-0.16,20.29,0.29,30.41c0.9,19.99,1.83,39.98,3.37,59.92
		c1.48,19.08,0.51,38.14,0.72,57.2c0.03,2.86-0.24,5.72-0.36,8.58c-0.06,1.37,0.66,1.73,2.33,1.36c0.35-12.5,0.6-25.02,1.09-37.53
		c0.5-12.64-0.72-25.19-1.46-37.78C49.15,679.85,48.09,665.15,47.38,650.43z"/>
</g>
</svg>
