<?xml version="1.0" encoding="utf-8"?>
<!-- Generator: Adobe Illustrator 28.3.0, SVG Export Plug-In . SVG Version: 6.00 Build 0)  -->
<svg version="1.1" id="Layer_1" xmlns="http://www.w3.org/2000/svg" xmlns:xlink="http://www.w3.org/1999/xlink" x="0px" y="0px"
	 viewBox="0 0 595.28 841.89" style="enable-background:new 0 0 595.28 841.89;" xml:space="preserve">
<g>
	<path d="M538.03,65.23c0.47-0.29,0.76-0.56,1.11-0.67c1.69-0.5,3.39-0.36,5,0.23c1.43,0.52,2.85,1.14,4.13,1.95
		c4.32,2.75,7.42,6.58,9.56,11.15c1.32,2.81,2.56,5.67,3.76,8.54c1.57,3.75,3.04,7.54,4.62,11.28c2.42,5.7,3.68,11.69,4.57,17.76
		c1.23,8.32,1.06,16.64-0.19,24.97c-0.79,5.28-1.96,10.48-3.22,15.66c-2.37,9.75-4.7,19.5-7.06,29.25
		c-1.07,4.41-2.12,8.83-3.26,13.22c-1.6,6.18-2.58,12.47-3.27,18.8c-0.23,2.14-0.43,4.28-0.63,6.41
		c-0.52,5.33-0.36,10.65,0.25,15.96c0.46,3.95,0.97,7.9,1.62,11.82c1.33,8.13,3.87,15.92,6.98,23.55c1.9,4.65,3.9,9.26,5.62,13.97
		c3.97,10.88,6.9,22.04,8.7,33.47c1.36,8.65,0.91,17.29-0.41,25.91c-1.76,11.48-5.28,22.43-9.97,33.07
		c-3.99,9.04-7.86,18.14-11.37,27.39c-2.97,7.85-5.27,15.88-6.73,24.13c-3.2,18-1.66,35.52,5.72,52.38
		c2.14,4.89,4.47,9.7,6.78,14.52c2.44,5.11,4.89,10.22,6.8,15.55c2.82,7.9,4.75,16.03,6.25,24.26c1.33,7.37,2.24,14.79,2.81,22.25
		c0.49,6.37,0.2,12.71-0.67,19.04c-0.98,7.12-2.76,14.05-4.78,20.93c-1.37,4.66-2.88,9.29-3.5,14.12c-0.6,4.58-1.13,9.16-1.54,13.76
		c-0.27,3.02,0.18,6.03,0.67,9.02c1.1,6.61,2.94,13.04,5.04,19.4c1.67,5.07,3.14,10.2,4.39,15.38c1.72,7.13,1.98,14.31,0.98,21.57
		c-0.88,6.35-2.37,12.5-5.36,18.25c-2.48,4.77-5.5,9.17-9.13,13.16c-2.19,2.42-4.78,4.25-7.92,5.31c-1.07,0.36-2.11,0.79-3.19,1.13
		c-0.43,0.13-0.9,0.42-1.49-0.06c0.12-0.3,0.2-0.68,0.41-0.98c0.92-1.33,2.09-2.44,3.49-3.25c2.56-1.49,4.5-3.58,6.23-5.91
		c6.42-8.66,10.45-18.25,11.59-28.96c0.14-1.34,0.36-2.68,0.49-4.03c0.48-5.11,0.09-10.18-1.1-15.17
		c-1.16-4.88-2.43-9.73-3.76-14.56c-1.89-6.83-3.73-13.67-4.89-20.67c-0.73-4.42-1.05-8.84-0.49-13.3c0.5-4.03,0.85-8.07,1.39-12.09
		c0.59-4.35,1.83-8.56,2.97-12.79c2.04-7.63,3.67-15.32,4.44-23.19c0.59-6.04,0.51-12.08-0.24-18.1
		c-1.09-8.77-2.53-17.47-4.61-26.08c-2.58-10.66-6.38-20.85-11.34-30.64c-2.88-5.7-5.6-11.47-7.95-17.4
		c-3.34-8.42-5.69-17.08-6.64-26.08c-0.78-7.39-0.56-14.78,0.28-22.15c0.75-6.58,2.18-13.03,3.78-19.44
		c1.82-7.27,4.38-14.31,7.11-21.3c3.04-7.8,6.15-15.57,9.16-23.38c4.41-11.47,6.87-23.36,7.74-35.58
		c0.43-5.98-0.03-11.94-1.14-17.82c-1-5.32-2.17-10.61-3.4-15.87c-1.55-6.6-3.81-12.99-6.42-19.25c-2.42-5.82-4.65-11.7-6.4-17.76
		c-2.41-8.29-3.7-16.78-4.79-25.31c-1.1-8.58-0.75-17.14,0.2-25.71c0.88-8.01,2.45-15.87,4.45-23.68
		c2.26-8.79,4.31-17.63,6.55-26.43c1.51-5.94,3.22-11.83,4.78-17.76c1.78-6.79,3.22-13.64,3.67-20.66
		c0.36-5.73,0.07-11.43-0.76-17.13c-0.82-5.63-2.47-11.01-4.43-16.33c-1.49-4.04-2.8-8.13-4.3-12.17c-0.77-2.09-1.7-4.13-2.68-6.13
		c-1.36-2.75-3.35-5.05-5.75-7c-2.3-1.87-4.88-3.08-7.91-3.22c-0.32-0.02-0.63-0.09-0.95-0.16
		C538.42,65.6,538.37,65.52,538.03,65.23z"/>
	<path d="M63.72,82.31c-0.41,0.28-0.58,0.47-0.78,0.53c-0.38,0.11-0.79,0.16-1.19,0.21c-5.45,0.64-9.91,3.23-13.76,6.93
		c-1.84,1.78-3.67,3.6-5.3,5.56c-7.97,9.65-13.3,20.64-16.61,32.6c-1.46,5.25-1.93,10.64-1.79,16.08c0.18,7.1,2.53,13.42,7.22,18.81
		c1.99,2.29,4.22,4.38,6.4,6.51c2.24,2.18,4.56,4.28,6.81,6.44c1.91,1.84,3.57,3.88,5.13,6.02c3.91,5.36,4.98,11.31,3.71,17.7
		c-0.42,2.1-1.04,4.18-1.83,6.17c-1.19,3.04-2.58,6-3.93,8.98c-1.85,4.07-3.67,8.15-4.75,12.5c-0.48,1.93-0.86,3.89-1.14,5.85
		c-0.55,3.88,0.3,7.44,2.76,10.57c1.39,1.76,2.8,3.5,4.19,5.25c2.4,3,4.69,6.07,6.54,9.45c4.32,7.9,5.39,16.21,3.61,24.98
		c-1.51,7.42-3.5,14.72-5.94,21.89c-1.69,4.98-3.48,9.92-5.26,14.87c-1.3,3.6-2.5,7.23-3.37,10.95c-0.95,4.05-1.37,8.15-1.34,12.31
		c0.03,3.46,0.73,6.8,1.81,10.06c0.9,2.72,1.94,5.4,2.93,8.09c0.69,1.87,1.43,3.72,2.12,5.59c2.34,6.34,2.48,12.76,0.72,19.24
		c-1.4,5.17-3.55,10.06-5.73,14.94c-1.7,3.78-3.34,7.59-4.94,11.41c-1.02,2.43-1.73,4.96-2.27,7.54c-0.7,3.35-0.63,6.66,0.62,9.86
		c1.07,2.75,2.16,5.49,3.41,8.16c3.96,8.48,6.08,17.42,7.2,26.64c0.8,6.56,1.15,13.15,1.12,19.77c-0.05,9.6-1.34,19.03-3.72,28.33
		c-1.91,7.48-3.91,14.94-5.77,22.43c-2.48,9.98-4.34,20.08-5.5,30.28c-1.46,12.82-2.32,25.67-1.86,38.59
		c0.05,1.4,0.15,2.82-0.15,4.36c-0.2-0.28-0.34-0.39-0.37-0.53c-0.16-0.78-0.35-1.56-0.42-2.35c-0.23-2.61-0.52-5.23-0.59-7.85
		c-0.28-10.83,0.27-21.63,1.3-32.41c0.82-8.57,2.32-17.02,3.76-25.49c1.72-10.13,4.26-20.08,6.68-30.06
		c2.6-10.75,3.62-21.66,3.17-32.68c-0.32-7.8-1.25-15.54-2.85-23.19c-0.98-4.69-2.53-9.21-4.49-13.59c-0.95-2.11-1.84-4.25-2.91-6.3
		c-3.36-6.46-3.52-13.11-1.44-19.95c1.21-3.97,2.77-7.8,4.46-11.59c1.92-4.29,3.82-8.6,5.64-12.93c1.11-2.65,1.9-5.4,2.34-8.25
		c0.62-4.01,0.37-7.95-0.95-11.78c-0.83-2.41-1.8-4.77-2.77-7.13c-1.55-3.76-3.19-7.48-4.36-11.38c-1.14-3.77-1.64-7.62-1.63-11.54
		c0.02-5.61,0.94-11.09,2.56-16.46c0.9-2.97,1.89-5.92,2.91-8.85c3.77-10.76,7.24-21.6,9.57-32.77c0.9-4.33,1.26-8.65,0.38-13.03
		c-0.83-4.13-2.58-7.87-4.9-11.35c-1.41-2.12-3.05-4.1-4.62-6.12c-1.28-1.64-2.65-3.21-3.9-4.87c-2.92-3.86-4.08-8.23-3.84-13.01
		c0.28-5.79,1.75-11.31,3.9-16.67c1.01-2.51,2.22-4.95,3.31-7.43c1-2.26,2-4.52,2.92-6.81c0.87-2.16,1.33-4.42,1.52-6.73
		c0.28-3.36-0.42-6.48-2.26-9.35c-1.43-2.23-3.05-4.31-4.95-6.16c-1.95-1.9-3.97-3.73-5.91-5.65c-2.22-2.2-4.48-4.37-6.55-6.7
		c-5.88-6.62-8.7-14.41-8.85-23.17c-0.13-7.99,1.43-15.67,4.43-23.06c2.58-6.37,5.67-12.49,9.31-18.33
		c3.62-5.8,7.95-11.02,13.26-15.41c1.48-1.22,3.04-2.38,4.65-3.42c3.12-2.01,6.57-3.01,10.33-2.82
		C61.82,81.64,62.72,81.59,63.72,82.31z"/>
	<path d="M80.79,798.43c4.86,0.8,9.15,1.87,13.43,2.97c5.24,1.35,10.56,2.31,15.92,2.98c4.56,0.57,9.18,0.7,13.78,0.48
		c5.08-0.24,10.15-0.5,15.2-1.18c4.65-0.63,9.19-1.72,13.75-2.76c6.05-1.38,12.11-2.75,18.16-4.12c4.66-1.06,9.41-1.5,14.16-1.73
		c6.29-0.31,12.58-0.16,18.86,0.55c11.81,1.33,23.44,3.57,35,6.23c11.08,2.55,22.17,5.08,33.45,6.72
		c5.75,0.83,11.51,1.57,17.27,2.38c6.39,0.9,12.77,1.89,19.17,2.75c8.5,1.14,17.04,1.55,25.61,1.35c5.73-0.13,11.46-0.38,17.19-0.52
		c8.06-0.21,15.85-1.79,23.51-4.18c10.42-3.24,20.4-7.54,30.19-12.27c2.9-1.4,5.78-2.83,8.69-4.21c4.55-2.15,9.29-3.76,14.35-4.03
		c3.54-0.19,7.11-0.18,10.65,0.05c5.96,0.4,11.91,0.92,17.84,1.62c6.17,0.74,12.3,1.76,18.44,2.65c8.22,1.19,16.44,2.47,24.68,3.53
		c5.69,0.73,11.43,0.95,17.16,0.84c4.36-0.08,8.71-0.37,13.06-0.56c1.69-0.07,3.39-0.2,5.23,0.56c-0.34,0.24-0.53,0.48-0.77,0.53
		c-2.7,0.5-5.38,1.12-8.1,1.41c-10.22,1.1-20.45,1.25-30.7,0.24c-10.2-1-20.37-2.27-30.5-3.8c-3.82-0.58-7.7-0.86-11.56-1.18
		c-4.66-0.39-9.33-0.77-14.01-0.99c-2.98-0.14-5.97-0.03-8.95,0.1c-3.51,0.16-6.85,1.08-10,2.61c-1.73,0.85-3.43,1.78-5.11,2.72
		c-5.56,3.08-11.09,6.22-16.66,9.28c-10.31,5.66-21.28,9.57-32.84,11.86c-4.04,0.8-8.13,1.34-12.25,1.51
		c-8.31,0.34-16.62,0.58-24.94,0.32c-10.1-0.3-20.12-1.46-30.09-3.08c-7.65-1.24-15.3-2.43-22.95-3.67
		c-7.65-1.25-15.22-2.86-22.77-4.57c-10.55-2.39-20.9-5.49-31.39-8.09c-6.57-1.63-13.14-3.28-19.85-4.34
		c-6.97-1.1-13.96-1.43-21-1.01c-8.01,0.48-15.82,2.1-23.63,3.8c-8.04,1.75-16.13,3.24-24.35,3.91c-7.09,0.58-14.2,0.9-21.28,0.04
		c-4.8-0.59-9.58-1.44-14.29-2.49c-4.56-1.01-9.04-2.39-13.54-3.65C83.07,799.71,82.01,799.54,80.79,798.43z"/>
	<path d="M94.89,46.42c-0.72-1.53-0.54-2.72,0.16-3.87c0.29-0.47,0.66-0.91,1.03-1.32c4.31-4.81,9.21-8.92,15.02-11.89
		c10.54-5.4,21.62-9.17,33.42-10.82c6.41-0.9,12.82-1.46,19.3-1.15c8.42,0.4,16.68,1.68,24.82,3.85c9.66,2.58,19.22,5.47,28.73,8.57
		c7.51,2.45,15.05,4.79,22.73,6.68c6.04,1.49,12.16,2.51,18.35,3.18c6.49,0.7,12.89,0.09,19.25-1.18
		c6.35-1.27,12.51-3.14,18.39-5.84c7.54-3.46,15.04-6.99,22.57-10.44c3.66-1.67,7.33-3.32,11.07-4.81c3.75-1.5,7.65-2.51,11.74-2.66
		c3.69-0.14,7.27,0.37,10.67,1.73c2.39,0.95,4.71,2.08,7,3.26c2.07,1.07,4.04,2.33,6.06,3.49c6.58,3.77,13.5,6.81,20.68,9.29
		c7.68,2.65,15.63,3.94,23.74,4.22c8.5,0.29,16.93-0.43,25.34-1.62c12.83-1.82,25.29-5.06,37.58-9.04c4.21-1.37,8.5-2.51,12.77-3.71
		c1.16-0.32,2.37-0.49,3.56-0.67c0.98-0.15,1.95-0.02,2.81,0.49c0.32,0.19,0.6,0.55,0.75,0.89c0.1,0.23-0.05,0.58-0.09,0.89
		c-2.39-0.72-2.59-0.8-5.22,0.02c-3.92,1.22-7.81,2.55-11.7,3.89c-8.31,2.86-16.62,5.67-25.21,7.61
		c-8.74,1.98-17.54,3.63-26.48,4.39c-7.98,0.68-15.96,0.73-23.93-0.3c-5.38-0.7-10.66-1.82-15.79-3.54
		c-8.04-2.69-15.83-5.94-23.14-10.27c-2.83-1.68-5.64-3.44-8.76-4.59c-1.81-0.67-3.66-1.25-5.54-1.66
		c-2.88-0.63-5.81-0.44-8.65,0.27c-2.5,0.62-4.98,1.38-7.37,2.32c-3.29,1.31-6.51,2.8-9.72,4.29c-7.74,3.6-15.43,7.3-23.19,10.84
		c-8.87,4.05-18.22,6.43-27.94,7.36c-5.09,0.49-10.15,0.09-15.22-0.52c-10.39-1.25-20.4-4.06-30.34-7.13
		c-4.62-1.43-9.22-2.92-13.81-4.43c-9.5-3.11-19.06-6.02-28.78-8.4c-8.68-2.13-17.5-2.88-26.42-2.42
		c-13.29,0.69-25.98,3.8-38.13,9.13c-5.26,2.31-10.26,5.02-14.73,8.63c-0.75,0.6-1.54,1.15-2.29,1.76
		C98.15,42.69,96.07,43.96,94.89,46.42z"/>
</g>
</svg>
