<?xml version="1.0" encoding="utf-8"?>
<!-- Generator: Adobe Illustrator 28.3.0, SVG Export Plug-In . SVG Version: 6.00 Build 0)  -->
<svg version="1.1" id="Layer_1" xmlns="http://www.w3.org/2000/svg" xmlns:xlink="http://www.w3.org/1999/xlink" x="0px" y="0px"
	 viewBox="0 0 595.28 841.89" style="enable-background:new 0 0 595.28 841.89;" xml:space="preserve">
<path d="M572.52,704.03c9.15-8.12,11.93-18.2,10.49-29.11c-1.41-10.72-5.61-20.51-15.57-28.01c0.22-0.47,0.45-0.93,0.67-1.4
	c2.86-6,3.95-12.23,2.78-18.64c-2.05-11.22-6.61-21.66-13.59-31.27c-0.47-0.64-0.98-1.27-1.49-1.92
	c6.38-4.91,10.06-11.09,12.66-17.81c4.89-12.67,8.58-25.53,6.08-39.04c-1.32-7.14-3.64-14.03-9.28-19.68
	c-0.83-0.83-1.67-1.63-2.07-2.01c1.36-3.37,3.06-6.29,3.66-9.38c1.46-7.44-0.08-14.74-2.92-21.78c-2.68-6.64-5.47-13.29-10.78-18.76
	c17.84-16.6,19.04-40.32,3.1-57.69c1.2-1.6,2.57-3.11,3.53-4.79c0.96-1.68,1.73-3.5,2.19-5.33c1.86-7.44,1.22-14.87-0.79-22.18
	c-1.21-4.4-3.08-8.67-4.71-13.15c5.27-2.74,8.81-7.07,10.35-12.6c1.41-5.05,1.45-10.15-0.27-15.13c-1.25-3.6-2.94-7.08-4.47-10.72
	c1.03-0.94,2.33-1.96,3.39-3.13c4.99-5.49,5.53-11.92,3.82-18.3c-1.84-6.83-4.55-13.49-7.2-20.13c-1.64-4.09-4.06-7.9-8.4-10.67
	c6.78-6.54,8.32-14.54,8.48-22.85c0.16-8.35-2.66-16.07-7.42-23.28c1.4-0.81,2.61-1.45,3.76-2.18c8.17-5.16,14.78-11.37,17.22-20.21
	c1.74-6.31,1.94-12.71,0.68-19.11c-2.37-12.03-6.49-23.45-15.34-32.79c9.92-15.42,12.5-31.12,4.43-47.28c2-3.07,4.44-5.95,5.86-9.17
	c2.48-5.63,1.84-11.49,0.09-17.21c-2.59-8.47-6.73-16.27-14.08-22.47c-1.34-1.13-2.05-2.25-2.25-3.83
	c-0.88-6.85-4.51-12.53-10.16-17.25c-3-2.51-6.7-3.62-10.86-3.69c-6.49-0.11-12.63,1.05-18.54,3.74
	c-4.25-5.59-10.89-7.71-17.86-9.44c-11.22-2.79-21.86-2.17-31.41,4.13c-2.91,1.92-5.31,4.44-7.65,6.43
	c-2.16-1.97-4.31-4.38-6.96-6.26c-9.49-6.76-20.8-9.19-32.73-9.5c-6.03-0.16-11.45,1.84-15.63,6.02
	c-6.78-4.38-14.51-5.36-22.51-5.33c-8.26,0.04-15.61,2.16-20.9,7.11c-0.29,0.27-6.37-4.27-7.19-4.64
	c-5.18-2.31-6.66-3.95-13.05-5.23c-2.04-0.41-7.68-1.29-12.12-1.29c-5.4,0-7.91,0.25-13.05,1.53c-5.69,1.42-8.73,2.78-12.22,4.91
	c-4.01,2.45-7.83,5.11-8.38,4.76c-3.2-2.03-6.37-4.63-10.09-6.28c-9.36-4.15-22.61-4.01-32.21-0.64c-5.45,1.91-10.6,4.49-15.8,6.72
	c-13.82-9.84-28.55-8.57-43.88-1.98c-5.63-4.19-10.07-5.96-16.12-5.7c-8.77,0.38-17.27,1.92-25.11,5.54
	c-5.61,2.59-10.54,5.91-13.85,10.94c-0.54-0.7-0.88-1.21-1.29-1.67c-6.44-7.36-15.19-11.42-25.59-11.1
	c-11.33,0.36-22.46,2.34-29.7,10.39c-4.88-1.07-9.36-2.37-13.96-2.98c-5.45-0.72-10.93-0.34-15.28,3.16
	c-5.32,4.27-9,9.4-10.25,15.73c-0.32,1.63-0.41,3.77-1.61,4.72c-6.19,4.93-10.02,11.1-13.03,17.72c-2.86,6.3-4.24,12.81-3.03,19.61
	c0.86,4.84,3.47,8.87,7.65,12.17c-5.49,7.54-5.88,15.77-4.98,24.17c0.89,8.36,2.94,16.4,8.82,22.86c-2.38,3.28-4.95,6.21-6.79,9.46
	c-5.39,9.5-8.93,19.52-9.38,30.19c-0.4,9.48,1.49,18.5,9.32,25.68c3.85,3.53,8.3,6.56,12.61,9.91c-8.9,15.15-10.5,30.6,1.12,45.98
	c-3.2,2.06-5.51,4.99-6.96,8.33c-2.66,6.16-5.4,12.32-7.42,18.65c-1.17,3.65-1.41,7.62-1.37,11.44c0.06,5.59,2.94,10.2,7.95,13.6
	c-1.36,2.81-2.85,5.39-3.87,8.1c-4.27,11.3-2.31,24.2,9.8,30.72c-3.53,5.26-5.33,11.05-6.2,17.03c-1.45,9.86-2.19,19.68,5.93,27.89
	c-7.71,8.73-12.28,18.22-10.87,29.38c1.35,10.65,4.11,20.79,13.74,28.26c-1.75,2.51-3.68,4.87-5.12,7.43
	c-4.49,8.02-8.05,16.31-8.78,25.33c-0.42,5.17,0,10.21,3.07,14.84c0.48,0.72,0.97,1.44,1.42,2.12c-0.97,0.94-1.89,1.72-2.67,2.59
	c-7.8,8.75-10.43,18.97-9.79,29.68c0.41,7,1.96,14.04,3.93,20.85c2.76,9.55,6.5,18.85,15.41,25.74c-0.16,0.27-0.26,0.52-0.43,0.73
	c-5.37,6.64-8.96,14.03-11.71,21.73c-2.19,6.12-4.1,12.37-2.99,18.86c0.71,4.15,2.04,8.23,3.09,12.35
	c-9.47,7.08-13.64,16.84-15.08,27.5c-1.48,10.97,1.29,21.11,10.46,29.24c-7.67,8.56-9.4,18.32-8.59,28.54
	c0.81,10.18,4.1,19.64,12.01,27.47c-0.13,0.21-0.19,0.34-0.28,0.43c-17.66,18.17-7.67,42.85,10.58,51.79
	c5.57,2.73,11.55,4.69,18.08,3.35c3.53-0.72,6.89-2.07,10.43-3.17c11.75,10.7,32.55,12.98,53.54,0.88
	c7,6.98,15.53,11.28,26.47,10.98c10.67-0.29,19.76-3.92,27.16-10.63c5.27,4.93,11.53,7.78,18.94,8.25
	c10.39,0.65,19.93-1.83,28.58-6.84c2.31-1.34,4.49-2.84,6.8-4.31c3.58,4.32,8.07,7.56,13.91,9.26c8.07,2.35,15.71,0.39,23.32-1.77
	c4.65-1.32,8.28-3.89,11.28-7.25c0.58,0.47,1.28,0.85,1.97,1.21c4.25,2.22,8.61,3.9,13.11,4.8c1.7,0.38,3.45,0.61,5.26,0.68
	c0.08,0,0.16,0.01,0.23,0.01c0.17,0.01,0.34,0.01,0.51,0.01c3.21,0.11,6.48-0.21,9.82-1.06c5.08-1.03,9.84-2.81,14.18-5.59
	c0.36,0.36,0.83,0.84,1.31,1.33c5.68,5.71,13.54,7.17,21.53,8.36c7.4,1.1,13.98-0.58,19.81-4.63c2.22-1.54,4.38-3.15,6.45-4.65
	c3.69,1.98,7.9,4.68,12.53,6.62c8.5,3.56,17.51,5.07,26.92,3.07c5.59-1.19,10.29-3.78,14.28-7.53c7.51,6.82,16.58,10.35,27.19,10.63
	c10.92,0.29,19.44-4.04,26.42-11c19.96,11.5,40.77,10.54,53.84-1.13c0.69,0.33,1.4,0.7,2.13,1c4.46,1.81,8.98,3.4,14.07,2.69
	c10.02-1.39,17.96-5.69,23.72-12.96c9.4-11.85,10.98-24.23,3.05-37.15c-1.26-2.05-2.93-3.9-4.41-5.84
	C583.22,746.82,586.01,717.9,572.52,704.03z M550.19,57.08c0.14,0.77,0.03,1.57,0.03,2.35c0.21,0.05,0.42,0.09,0.64,0.14
	c-0.94,3.26-1.79,6.54-2.88,9.76c-0.34,1.01-1.13,2.1-2.08,2.72c-1.03,0.67-2.77,1.44-3.68,1.1c-1.22-0.45-2.7-1.89-2.75-2.96
	c-0.27-5.66,2-10.63,6.63-14.64c0.69-0.6,2.2-0.69,3.29-0.6C549.73,54.98,550.05,56.32,550.19,57.08z M403.91,32.37
	c3.11,4.76,4.92,9.2,3.26,14.35c-2.53-0.01-3.77-1.24-4.29-3.09C401.84,39.96,402.59,36.39,403.91,32.37z M360.42,35.03
	c4.16,2.49,7.17,13.03,4.88,17.35c-2.89-0.75-3.76-2.8-4.37-4.91C359.75,43.38,359.51,39.23,360.42,35.03z M289.32,50.37
	c-1.02-4.97,0.35-9.51,3.24-13.79C292.63,41.38,292.35,46.12,289.32,50.37z M230.3,52.38c-2.31-4.11,0.15-13.21,4.57-17.37
	C237.37,41.03,234.91,50.57,230.3,52.38z M192.72,43.6c-0.49,1.82-1.73,2.96-4.26,3.22c-1.76-5.15,0.05-9.65,3.22-14.44
	C193,36.39,193.71,39.94,192.72,43.6z M45.39,57.25c0.16-0.82,0.52-2.28,0.84-2.29c1.16-0.03,2.64,0.13,3.47,0.75
	c2.93,2.2,4.44,5.23,5.53,8.37c0.58,1.67,0.89,3.43,1.07,5.18c0.2,1.89-0.91,3.38-2.91,4c-2.04,0.63-3.46-0.59-4.49-1.92
	c-2.8-3.6-3.59-7.68-3.53-11.93C45.36,58.68,45.25,57.95,45.39,57.25z M67.15,805.51c-0.29-3.02,0.39-5.61,2.81-7.9
	C71.43,799.97,70.21,803.27,67.15,805.51z M121.05,806.42c-1.73-3.61-0.87-6.71,2.18-7.8C124.62,801.08,123.73,804.26,121.05,806.42
	z M229.2,802.58c-1.59-4.74,0.05-8.42,4.05-8.86C234.2,797.53,231.42,799.84,229.2,802.58z M275.49,803.36
	c-0.73-2.69-1.18-5.03,0.82-7.21C277.6,797.97,277.35,800.55,275.49,803.36z M318.94,795.95c2,2.21,2.26,4.36,0.92,7.5
	C318.66,800.9,317.92,798.65,318.94,795.95z M366.53,802.81c-2.32-3.01-5.23-5.29-4.18-8.99
	C366.21,793.34,367.56,797.48,366.53,802.81z M474.67,806.35c-2.52-1.43-3.66-4.93-2.43-7.78
	C475.39,799.74,476.14,802.29,474.67,806.35z M528.45,805.61c-3.24-2.66-4.34-5.8-2.77-7.95
	C528.05,799.89,528.67,802.49,528.45,805.61z M567.47,756.99c-0.44,0.53-1.62,1.1-2.21,0.95c-5.7-1.45-10.51,0.51-15.13,2.94
	c-2.25,1.18-1.94,3.07,0.61,3.72c1.96,0.5,4.19,0.75,6.17,0.46c2.77-0.4,5.41-1.41,8.3-2.21c0.27,0.27,0.75,0.69,1.13,1.17
	c11.99,14.87,7.98,33.81-6.57,44.49c-9.44,6.93-17.17,6.66-26.43,0.93c0.04-3.26,0.72-6.28-0.03-9c-1.38-5.01-4.06-6.85-10.48-4.13
	c-2.59,1.1-3.7,2.95-2.54,5.19c1.3,2.51,3.05,4.95,5.15,7c1.44,1.41,1.33,2.21,0.13,3.42c-4.32,4.38-10,6.46-16.41,6.86
	c-10.94,0.68-20.43-2.9-29.29-8.09c-1.05-0.61-0.89-1.16-0.69-2.11c0.57-2.67,1.34-5.43,1.11-8.09c-0.29-3.42-4.06-5.22-8.24-4.5
	c-3.86,0.66-5.9,3.44-5.2,6.85c0.71,3.45,3.25,5.81,6.28,8.09c-3.65,5.82-9.18,9.65-16.5,10.52c-11.9,1.42-21.77-2.6-29.75-10.24
	c-0.54-0.52-0.64-1.6-0.53-2.37c0.24-1.61,0.89-3.17,1.13-4.78c0.35-2.39-0.74-4.28-2.53-4.8c-1.91-0.55-4.7,0.45-6.06,2.22
	c-2.05,2.67-1.36,5.33,0.46,7.73c1.11,1.47,0.78,2.45-0.32,3.63c-3.87,4.14-8.84,6.66-14.95,6.69c-12.7,0.07-23.26-4.57-32.3-12.05
	c-0.46-0.38-0.38-1.38-0.34-2.09c0.19-2.99,0.72-5.98,0.62-8.95c-0.09-2.74-2.19-4.47-5.3-5.18c-3.32-0.75-6.38-0.33-8.62,2.01
	c-2.09,2.18-1.41,4.63,0.23,6.76c1.8,2.33,3.85,4.52,5.94,6.66c0.81,0.82,1.08,1.44,0.45,2.39c-3.8,5.72-8.77,9.84-17.04,9.33
	c-2.16-0.13-4.32-0.44-6.45-0.8c-6.99-1.2-13.12-3.69-17.43-8.93c-0.78-0.94-0.87-1.59-0.39-2.77c1-2.42,1.9-4.98,2.04-7.52
	c0.17-3.14-2.59-5.37-5.59-5.22c-3.73,0.18-6.58,3.12-5.85,6.61c0.58,2.77,1.87,5.43,3,8.57c-0.7,0.65-1.45,1.27-2.22,1.86
	c-4.9,2.33-10.22,3.53-15.65,4.53c-0.43,0.08-0.88,0.14-1.32,0.19c-6.07-0.56-11.97-2.16-17.39-4.9c-0.7-0.58-1.32-1.2-1.84-1.85
	c1.08-3.03,2.37-5.69,2.93-8.46c0.71-3.48-2.18-6.39-5.93-6.55c-3.18-0.13-5.87,2.4-5.54,5.88c0.23,2.41,1.41,4.74,2.09,7.13
	c0.17,0.6,0.36,1.53,0,1.87c-2.3,2.14-4.41,4.7-7.25,6.06c-3.74,1.79-8.02,2.9-12.21,3.76c-10.05,2.05-16.29-0.73-21.59-8.32
	c-0.8-1.15-0.77-1.94,0.36-3.06c2.26-2.26,4.37-4.67,6.21-7.21c1.46-2.01,1.59-4.35-0.41-6.21c-2.38-2.2-5.46-2.57-8.73-1.75
	c-3,0.75-4.9,2.54-5,5.19c-0.11,2.91,0.19,5.86,0.67,8.75c0.22,1.28,0.04,2.02-1.05,2.86c-7.81,6.08-16.64,10.16-27.23,11.24
	c-7.56,0.77-13.76-1.09-18.84-5.97c-1.47-1.42-2.33-2.81-0.59-4.59c0.56-0.57,0.83-1.39,1.09-2.14c1.12-3.23-0.85-6.52-4.34-7.35
	c-2.59-0.62-4.77,0.36-4.92,2.66c-0.14,2.1,0.21,4.31,0.88,6.33c0.49,1.49,0.23,2.4-0.92,3.45c-6.39,5.82-14.06,9.26-23.34,9.92
	c-9.22,0.66-16.08-2.79-21.38-9.08c-0.94-1.12-1.02-1.92,0.4-2.92c2.39-1.67,4.06-3.82,4.69-6.53c0.91-3.94-1.32-6.75-5.85-7.24
	c-4.42-0.48-7.77,1.89-7.69,5.81c0.05,2.32,0.67,4.66,1.33,6.92c0.29,1.01,0.25,1.56-0.78,2.08c-2.28,1.15-4.44,2.47-6.78,3.52
	c-8.06,3.59-16.5,5.71-25.63,4.14c-5.34-0.92-10.09-2.93-13.54-6.83c-0.95-1.08-1-1.78,0.26-2.78c2.52-2,4.62-4.31,5.46-7.3
	c0.74-2.62-0.34-4.32-3.54-5.55c-3.76-1.44-6.34-1.08-8,1.19c-2.43,3.3-2.78,6.82-1.41,10.53c0.2,0.54,0.31,1.53,0,1.72
	c-4.36,2.55-9.01,4.72-14.44,4.1c-6.8-0.78-12.21-3.95-16.46-8.54c-7.47-8.05-10.68-17.2-8.76-27.5c1.03-5.51,3.75-10.41,7.61-14.71
	c2.13,0.72,3.97,1.46,5.9,1.98c2.93,0.79,5.92,1.04,8.82-0.13c2.11-0.85,2.46-2.38,0.62-3.47c-3.98-2.36-8.36-3.98-13.31-3.53
	c-3.81,0.34-3.81,0.49-5.78-2.37c-0.58-0.84-1.11-1.71-1.58-2.6c-5.78-10.97-7.01-22.39-4.06-34.13c1.02-4.07,2.63-8,5.77-11.27
	c1.35,0.64,2.48,1.29,3.71,1.74c4.17,1.55,8.41,1.95,12.66,0.2c2.32-0.96,3.93-2.43,4.03-4.81c0.1-2.44-0.99-4.58-3.49-5.52
	c-2.25-0.84-5.03-1.57-7.3-1.17c-3.78,0.67-7.35,2.29-11.22,3.58c-13.7-13.33-7.09-40.25,5.45-50.35c1.7,1.56,3.31,3.21,5.1,4.68
	c2.93,2.4,6.4,3.92,10.5,4c3.15,0.06,4.12-1.12,3.2-3.68c-2.28-6.31-7.69-9.77-15.3-9.93c-0.65-0.01-1.62-0.57-1.87-1.09
	c-2.43-5.15-2.88-10.56-2.12-16.02c1.1-7.84,4.02-15.25,7.75-22.4c1.81-3.48,4.06-6.79,6.15-10.23c4.77,1.86,9.28,2.64,14.03,2.35
	c3-0.18,5.8-0.83,8.09-2.59c2.25-1.74,3.22-3.98,2.54-6.55c-0.64-2.42-2.88-3.5-5.45-3.83c-2.2-0.28-4.5-0.36-6.7-0.16
	c-5.56,0.52-10.28,2.73-14.9,6.39c-2.32-3.43-4.86-6.53-6.62-9.93c-4.76-9.25-7.34-19.02-8.81-29.08
	c-1.4-9.63,0.28-18.77,4.67-27.55c1.31-2.62,3.41-4.93,5.2-7.47c0.94,0.65,1.34,0.95,1.77,1.21c4.46,2.77,9.3,4.2,14.83,3.23
	c5.04-0.89,6.91-4.63,3.96-8.22c-1.97-2.4-4.78-3.72-8.19-4.01c-4.33-0.37-8.24,0.85-12.03,2.63c-2.46-3.92-2.97-7.99-2.74-12.14
	c0.6-10.39,4.67-19.89,10.08-29.02c0.84-1.42,2.02-2.68,2.97-3.92c1.43,0.41,2.48,0.78,3.57,1c3.48,0.71,6.99,1.07,10.42-0.16
	c2.7-0.97,3.24-3.12,1.05-4.8c-1.31-1-2.97-1.83-4.64-2.27c-4.38-1.17-8.43-0.06-12.18,1.91c-13.84-9.93-14.86-40.47-1.75-52.71
	c0.61,0.31,1.24,0.64,1.87,0.97c3.29,1.74,6.84,2.33,10.62,1.77c2.41-0.36,2.9-1.33,1.6-3.13c-4.02-5.58-7.9-6.81-15.59-4.59
	c-1.04-2.45-2.54-4.84-3.07-7.39c-2.28-11-0.11-21.57,4.54-31.87c0.9-2,2.18-2.41,4.43-2.07c4.12,0.62,8.08-0.13,11.82-1.65
	c2.5-1.02,2.93-2.81,1.14-4.62c-2.49-2.52-5.73-3.55-9.5-3.1c-4.16,0.5-7.34,2.51-9.88,5.31c-10.52-6.66-9.49-24.18-2.47-33.52
	c0.73,0.25,1.49,0.51,2.25,0.75c4.21,1.32,8.46,1.57,12.41-0.44c1.39-0.71,2.82-2.17,3.16-3.5c0.86-3.32-1.9-7.89-5.12-9.38
	c-3.54-1.64-7.17-1.02-10.81,2.05c-1.81,1.53-3.38,3.28-5.1,4.96c-4.07-3.87-4.87-8.64-4.42-13.56c0.93-10.1,5-19.44,9.96-28.5
	c0.94-1.72,2.48-3.18,3.43-4.36c4.02,1.72,7.52,3.34,11.16,4.68c0.9,0.33,2.68,0.12,3.25-0.45c0.58-0.59,0.37-1.95,0.15-2.91
	c-0.17-0.71-0.8-1.42-1.41-1.97c-2.44-2.19-5.53-3.84-8.91-3.77c-3.37,0.07-4.7-1.35-5.83-3.53c-0.58-1.13-1.25-2.25-1.65-3.43
	c-4.11-12.18-2.8-23.89,4.01-35.14c0.63-1.03,1.34-0.88,2.38-0.79c3.58,0.28,7.17,0.64,10.74,0.59c2.51-0.04,4.99-0.87,6.05-3.15
	c1.07-2.32,0.37-4.5-1.4-6.42c-2.94-3.2-8.07-4.19-12.4-1.87c-3.13,1.68-5.8,4.02-8.8,6.16c-12.65-7.01-18.19-17.46-17.57-30.72
	c0.36-7.85,2.28-15.39,5.35-22.71c2.26-5.39,4.72-10.74,9.18-15.08c0.19,0,0.28-0.02,0.34,0c0.59,0.28,1.16,0.59,1.77,0.85
	c5.12,2.19,10.46,3.37,16.13,2.14c4.24-0.92,5.65-4.59,2.8-7.26c-3.67-3.45-8.44-4.86-13.68-4.19c-2.87,0.37-5.57,1.69-8.41,2.6
	c-7.85-9.51-9.51-33.65-2.65-41.84c0.64,0.28,1.29,0.59,1.96,0.86c4.68,1.92,9.55,2.75,14.7,1.88c4.3-0.73,7.92-4.08,8.12-7.47
	c0.16-2.74-2.55-5.52-7.02-6.51c-6.96-1.56-13.26-0.32-18.51,4.15c-0.63,0.54-1.21,1.12-1.82,1.68c-3.86-3.47-5.69-9.62-5.07-15.71
	c0.84-8.21,4.29-15.6,8.95-22.64c0.83-1.26,1.88-2.4,2.82-3.59c0.9,3.24,1.49,6.34,2.65,9.26c1.67,4.22,5.35,6.76,10.31,7.67
	c6.12,1.13,10.54-2.17,9.39-7.12c-0.73-3.16-1.95-6.32-3.6-9.2c-2.35-4.1-6.1-6.95-11.84-7.32c0.3-4.74,2.69-8.63,5.61-12.41
	c4.5-5.81,10.49-8.2,18.41-6.69c2.92,0.56,5.77,1.27,7.41,2.7c-0.69,3.82-1.45,7.12-1.81,10.46c-0.15,1.36,0.31,2.9,0.95,4.18
	c1.43,2.88,6.1,3.62,7.96,1.38c2.88-3.47,2.93-10.72,0.22-14.37c-0.36-0.48-0.4-1.5-0.05-1.97c1.87-2.61,4.38-4.76,7.68-5.88
	c3.89-1.32,7.89-2.46,11.93-3.41c9.14-2.13,17.34-0.52,23.94,5.51c3.88,3.55,6.25,7.75,5.26,12.99c-0.33,1.75-0.02,3.66,0.38,5.43
	c0.38,1.69,2.84,2.72,4.86,2.32c2.09-0.41,2.09-1.93,2.04-3.27c-0.05-1.49-0.13-3.09-0.75-4.45c-1.36-3.01-0.26-5.61,1.67-7.89
	c1.98-2.35,4.2-4.66,6.79-6.48c8.4-5.87,18.42-7.97,28.93-8.67c4.54-0.3,7.92,1.45,10.53,4.63c0.92,1.11,0.8,1.8-0.09,2.87
	c-3.57,4.27-5.37,9.04-4.83,14.38c0.24,2.37,1.23,4.32,4,5.22c4.84,1.57,10.08-0.98,10.95-5.41c0.3-1.53,0.62-3.18,0.3-4.67
	c-0.73-3.43-1.85-6.79-2.94-10.63c1.26-0.75,2.94-2.02,4.86-2.83c7.14-3.03,14.73-3.54,22.41-2.2c4.53,0.79,7.77,3.39,10.19,6.76
	c-0.57,0.62-1.02,1.06-1.42,1.53c-4.54,5.44-7.59,11.3-6.77,18.24c0.37,3.1,2.92,5.09,6.5,5.17c3.51,0.08,6.5-1.45,7.74-4.44
	c2.47-5.94,3.08-12.01,0.45-18.03c-0.66-1.51-0.27-2.18,1-3.05c6.39-4.37,13.61-7.19,21.51-8.59c9.85-1.74,22.65,1.08,27.78,8.34
	c0.79,1.11,0.83,1.83-0.1,2.92c-3.82,4.5-5.83,9.61-5.73,15.2c0.03,1.66,0.74,3.54,1.83,4.9c2.42,3.03,7.22,2.79,9.04-0.47
	c3.34-5.99,4.53-12.26,2.23-18.83c-0.22-0.63-0.05-1.7,0.44-2.15c5.73-5.22,8.69-7.19,16.22-9.4c3.54-1.04,9.71-2.05,13.42-2.01
	c3.29,0.03,7.23,0.37,10.46,1.05c8.24,1.73,12.86,5.4,19.31,10.42c-2.05,3.56-2.79,7.31-2.27,11.12c0.42,3.08,1.1,6.21,2.29,9.13
	c1.2,2.94,5.14,4.4,8.55,3.82c3.39-0.58,5.32-2.54,5.39-6.1c0.04-2.26-0.27-4.58-0.87-6.78c-1.24-4.52-3.88-8.47-7.41-12.01
	c2.92-3.67,6.44-6.27,11.59-6.96c5.9-0.8,11.68-0.38,17.37,1.08c3.49,0.9,6.58,2.44,9.02,4.84c-0.44,0.76-0.86,1.39-1.18,2.04
	c-2.09,4.18-2.95,8.51-1.89,13.03c0.92,3.92,4.49,5.49,8.97,5.34c3.8-0.13,5.74-2.38,5.99-6.19c0.34-5.21-1.54-9.81-5.03-13.94
	c-0.81-0.96-0.81-1.57-0.04-2.54c2.59-3.29,6.01-5.08,10.66-4.77c8.07,0.53,15.92,1.91,23.1,5.33c6.26,2.97,11.73,6.71,14.26,12.83
	c0.42,1.03,0.44,2.26,0.31,3.36c-0.24,2.01-0.95,3.99-1.03,6c-0.04,1.02,0.59,2.63,1.45,2.97c1.06,0.42,2.74-0.02,4-0.44
	c0.68-0.23,1.34-1.14,1.47-1.83c0.31-1.66,0.75-3.46,0.33-5.04c-0.83-3.12,0.13-5.87,1.6-8.53c3.33-6.03,9.06-9.7,16.49-10.64
	c8.9-1.13,17.27,1.12,25.01,4.9c2.08,1.02,3.63,2.89,5.39,4.39c1.07,0.91,0.9,1.69,0.12,2.87c-0.99,1.52-1.8,3.38-1.79,5.08
	c0.01,2.44,0.6,4.93,1.34,7.3c0.91,2.92,3.54,3.85,6.45,2.19c1.3-0.74,2.49-2.19,2.86-3.5c1.12-3.93,0.32-7.81-1.49-11.49
	c-0.49-1-0.31-1.47,0.69-2.05c3.8-2.21,8.1-2.58,12.46-2.66c2.88-0.06,5.5,0.74,7.71,2.35c4.42,3.22,7.55,7.28,9.52,11.96
	c0.68,1.61,0.87,3.37,1.19,4.67c-2.44,0.9-4.75,1.33-6.47,2.45c-6.26,4.1-8.96,9.87-9.07,16.54c-0.05,2.95,2.91,5.17,6.33,5.3
	c6.94,0.25,12.47-3.64,14.4-10.26c0.64-2.19,0.94-4.45,1.41-6.75c0.21,0.11,0.44,0.16,0.54,0.29c7.06,8.93,11.76,18.58,11.49,29.63
	c-0.1,4.38-1.42,8.54-5.04,12c-0.63-0.6-1.17-1.13-1.74-1.65c-5.31-4.91-14.76-6.41-21.18-3.35c-5.19,2.47-5.99,6.6-1.94,10.35
	c3,2.78,6.93,3.49,10.99,2.95c3.87-0.52,7.64-1.61,11.66-2.49c6.86,8.03,4.26,32.82-3.26,41.57c-0.07,0-0.16,0.03-0.22,0
	c-0.72-0.35-1.43-0.71-2.14-1.07c-5.72-2.88-11.37-2.43-16.85,0.45c-3.45,1.81-4.71,3.97-3.95,6.21c0.71,2.09,3.45,3.43,7.19,3.51
	c5.39,0.12,10.38-1.08,15.23-3.7c1.59,2.2,3.34,4.2,4.58,6.41c6.58,11.72,10.53,23.93,9.62,37.18
	c-0.78,11.31-7.38,19.31-17.81,25.51c-0.32-0.32-0.58-0.55-0.8-0.8c-2.26-2.59-4.89-4.8-8.38-6.12c-4.93-1.87-10.52-0.2-12.72,3.8
	c-1.94,3.52-0.49,7.03,3.88,7.61c4.06,0.54,8.33,0.14,12.48-0.13c1.45-0.1,2.12,0.05,2.79,1.16c4.56,7.67,6.69,15.79,5.96,24.41
	c-0.46,5.38-1.49,10.64-4.82,15.37c-0.93,1.32-1.93,1.78-3.75,1.84c-4.56,0.16-8.53,1.74-11.03,5.19c-0.67,0.92-0.64,2.59-0.13,3.61
	c0.25,0.49,2.4,0.35,3.67,0.29c0.78-0.04,1.57-0.43,2.29-0.77c2.68-1.26,5.32-2.57,8.28-4c1.18,1.53,2.69,3.04,3.63,4.78
	c1.79,3.3,3.38,6.7,4.83,10.12c2.43,5.77,4.59,11.62,5.01,17.81c0.34,5.07-0.27,9.95-3.6,13.14c-2.63-1.87-5.17-3.83-7.89-5.57
	c-3.16-2.02-6.56-2.06-9.48-0.39c-2.9,1.66-5.34,6.4-4.53,9.34c0.89,3.22,4.21,3.78,7.25,4.54c0.42,0.11,0.91,0.13,1.35,0.07
	c3.15-0.4,6.3-0.84,9.76-1.3c-0.19-0.18,0-0.06,0.1,0.1c3.86,6.5,5.6,13.38,4.49,20.67c-0.74,4.86-2.78,9.2-7.28,12.25
	c-0.9-0.71-1.72-1.38-2.55-2.03c-5.18-4.11-12.46-4.32-16.66-0.46c-2.31,2.11-1.92,4.1,1.17,5.24c3.64,1.34,7.46,2.09,11.43,1.45
	c2.14-0.34,3.39,0.02,4.3,1.93c4.66,9.82,6.49,19.97,5.03,30.51c-0.44,3.17-1.61,6.22-3.59,8.39c-2.75-0.24-5.07-0.81-7.26-0.56
	c-4.29,0.49-6.52,3.48-8.64,6.37c-0.81,1.11-0.09,1.97,1.21,2.21c1.46,0.26,3.06,0.58,4.45,0.3c3.09-0.61,6.08-1.58,9.31-2.45
	c12.68,12.31,11.62,42.83-2.22,52.31c-0.62-0.29-1.25-0.64-1.92-0.9c-4.9-1.94-9.77-2.27-14.22,0.78c-1,0.68-1.87,2.28-1.68,3.29
	c0.17,0.89,1.78,1.92,2.98,2.25c3.78,1.04,7.61,0.61,11.27-0.6c1.38-0.46,2.24-0.36,2.9,0.81c2.13,3.74,4.5,7.39,6.37,11.22
	c4.1,8.4,6.52,17.12,5.2,26.34c-0.3,2.12-1.31,4.16-2.05,6.4c-4.2-2.02-8.09-3.21-12.36-2.77c-4.25,0.44-7.5,2.19-9.19,5.77
	c-0.83,1.77-0.47,3.3,1.14,4.64c2.53,2.09,5.61,2.32,8.84,2.04c4.31-0.37,7.98-2.05,11.69-4.68c1.84,2.63,3.89,4.93,5.17,7.53
	c3.75,7.58,5.73,15.49,4.99,23.84c-1.01,11.52-3.94,22.62-9.36,33.16c-1.68,3.27-4.22,6.21-6.41,9.37
	c-1.73-1.14-2.86-2.02-4.13-2.71c-5.74-3.12-11.85-4.87-18.63-3.11c-3.91,1.01-5.36,3.73-4.05,7.09c1.25,3.22,5.31,5.36,10.24,5.62
	c4.83,0.25,9.42-0.5,13.95-2.26c0.15,0.22,0.27,0.39,0.39,0.55c7.9,11.18,13.29,23.11,14,36.36c0.24,4.41-0.76,8.71-2.87,12.74
	c-9.73-0.29-14.07,3.83-16.73,10.18c-0.93,2.22,0.13,3.39,2.87,3.41c4.38,0.02,8.01-1.61,11.1-4.17c1.72-1.43,3.27-3.02,4.9-4.53
	c13.26,11.13,18.64,37.89,5.18,50.58c-2.86-1.17-5.57-2.44-8.4-3.4c-3.23-1.09-6.53-0.91-9.59,0.54c-2.5,1.19-3.81,3.11-3.77,5.64
	c0.04,2.47,1.62,4.23,4.12,4.89c2.52,0.67,5.32,1.19,7.87,0.9c2.94-0.33,5.74-1.6,8.74-2.51c0.39,0.51,0.97,1.2,1.47,1.93
	c0.46,0.67,0.89,1.37,1.25,2.09c5.07,10.26,5.28,20.83,2.48,31.54C573.01,748.01,570.96,752.79,567.47,756.99z M562.46,760.95
	c-2.84,2.15-6.93,2.72-9.28,1.28C555.6,760.04,560,759.43,562.46,760.95z M33.07,760.96c2.47-1.53,5.81-1.14,9.35,1.08
	C40.56,763.72,36.13,763.21,33.07,760.96z M28.7,705.09c2.45-2.51,5.29-4.02,8.57-4.84c1.73-0.43,3.71-1.06,4.84,1.04
	c1.02,1.89,0.51,4.1-1.42,5.26c-2.44,1.46-5.15,1.81-7.89,0.75C31.4,706.74,30.16,705.88,28.7,705.09z M34.6,649.05
	c4.09-1.85,9.38,2.03,10.54,7.73C42.27,657.51,36.91,653.58,34.6,649.05z M46.1,594.32c4.37-4.18,9.5-6.42,15.74-6.65
	c1.48-0.06,2.14,0.63,2.19,1.94c0.11,2.91-2.21,5.43-5.78,6.16C54.13,596.61,50.2,596.13,46.1,594.32z M39.04,515.98
	c2.89-1.99,5.95-3.13,9.33-3.57c2.2-0.29,4.73,1.74,5.09,3.92c0.26,1.56-1.42,3.13-3.72,3.55
	C45.28,520.68,42.12,518.76,39.04,515.98z M48.53,466.2c2.36-2.22,4.75-2.83,7.22-2.84c0.9-0.01,1.81,1.03,2.71,1.58
	c-0.78,0.58-1.54,1.63-2.35,1.66C53.8,466.7,51.45,466.39,48.53,466.2z M45.44,408.55c3.23-2.76,5.05-2.26,8.02,2.27
	C50.04,411.66,47.7,410.29,45.44,408.55z M46.26,361.65c1.98-2.32,4.22-3.9,7.35-4.4c1.71-0.27,2.98,0.42,3.25,1.69
	c0.11,0.54-1.21,1.62-2.12,1.95C52.13,361.82,49.35,362.21,46.26,361.65z M39.73,324.38c2.78-3.61,5.09-6.99,9.49-8.76
	c1.87,1.78,2.78,3.83,2.84,6.09c0.07,2.51-4.01,4.7-7.69,4.1C42.87,325.57,41.46,324.93,39.73,324.38z M47.78,272.89
	c3.43-0.68,6.37,1.09,7.11,4.19C52.38,275.6,50.3,274.37,47.78,272.89z M47.33,224.33c2.37-1.85,4.6-3.86,7.15-5.5
	c2.57-1.65,3.73-1.37,4.94,0.53c1.46,2.29,0.91,4.52-1.55,5.49c-1.12,0.44-2.44,0.69-3.66,0.7c-2.14,0.01-4.27-0.24-6.41-0.38
	C47.64,224.89,47.49,224.61,47.33,224.33z M41.09,152c3.01-2.04,5.65-4.05,9.28-3.84c1.61,0.1,3.35,0.74,4.67,1.57
	c0.84,0.53,1.56,1.94,1.36,2.78c-0.2,0.86-1.44,1.96-2.46,2.2C49.3,155.81,45.15,154.63,41.09,152z M36.32,104.3
	c3.38-4.71,7.78-7.58,14.27-7.38c4.69,0.15,6.69,3.37,4.18,6.79c-1.64,2.23-3.94,3.47-7.08,3.56
	C43.58,107.38,39.83,106.58,36.32,104.3z M559.17,104.35c-4,2.63-8.57,3.58-13.35,2.58c-1.88-0.39-3.8-1.9-4.98-3.34
	c-2.64-3.21-0.55-6.46,4.02-6.67C550.82,96.66,555.92,99.28,559.17,104.35z M554.86,151.82c-4.47,2.75-8.56,4.02-13.15,2.9
	c-1.07-0.26-2.33-1.41-2.56-2.34c-0.21-0.81,0.65-2.11,1.48-2.77c2.02-1.6,4.56-2.1,7.12-1.14
	C550.03,149.35,552.16,150.54,554.86,151.82z M548.38,225.23c-3.67,0-6.7,0.15-9.7-0.06c-1.75-0.12-3.25-1.28-3.16-2.85
	c0.08-1.38,0.91-2.79,1.71-4.04c0.22-0.34,1.66-0.38,2.34-0.14C543.23,219.46,545.76,221.91,548.38,225.23z M547.34,273.18
	c-2.07,1.22-4.15,2.43-6.55,3.85C541.3,274.07,544.15,272.29,547.34,273.18z M555.5,324.05c-3.12,2.47-8.18,2.45-10.93-0.05
	c-1.95-1.77-1.1-5.65,1.79-8.25C549.69,316.95,552.51,319.51,555.5,324.05z M549.34,361.68c-3.67,0.52-6.9,0.03-9.93-1.34
	c-0.44-0.2-0.86-1.39-0.67-1.54c0.8-0.66,1.88-1.58,2.79-1.52C544.85,357.46,547.24,359.19,549.34,361.68z M550.27,408.47
	c-2.42,1.83-4.75,3.2-8.02,2.38C544.46,406.53,546.5,405.88,550.27,408.47z M546.6,465.12c-0.07,0.38-0.14,0.76-0.2,1.14
	c-2.28,0.15-4.57,0.42-6.85,0.39c-1.11-0.02-2.77-0.44-2.3-1.79c0.25-0.71,1.87-1.61,2.69-1.49
	C542.21,463.69,544.39,464.5,546.6,465.12z M556.53,515.97c-3.05,2.79-6.21,4.7-10.68,3.91c-2.31-0.41-3.99-1.97-3.74-3.53
	c0.35-2.18,2.87-4.22,5.07-3.95C550.57,512.83,553.62,513.99,556.53,515.97z M549.47,594.3c-4.16,1.91-8.25,2.34-12.49,1.4
	c-3.34-0.74-5.48-3.25-5.43-6.01c0.02-1.4,0.74-2.09,2.32-2.02C540.03,587.93,545.11,590.16,549.47,594.3z M560.96,648.98
	c-1.84,4.1-7.27,8.23-10.44,7.93C550.97,651.65,556.69,647.31,560.96,648.98z M566.69,704.87c-3.42,3-7,3.72-10.65,2.26
	c-1.79-0.72-2.85-1.88-3.05-3.58c-0.3-2.57,1.37-4.02,4.26-3.52C561.01,700.68,564.13,702.37,566.69,704.87z"/>
<path d="M509.29,646.97C509.29,647.03,509.29,647,509.29,646.97L509.29,646.97z"/>
</svg>
