<?xml version="1.0" encoding="utf-8"?>
<!-- Generator: Adobe Illustrator 28.3.0, SVG Export Plug-In . SVG Version: 6.00 Build 0)  -->
<svg version="1.1" id="Layer_1" xmlns="http://www.w3.org/2000/svg" xmlns:xlink="http://www.w3.org/1999/xlink" x="0px" y="0px"
	 viewBox="0 0 595.28 841.89" style="enable-background:new 0 0 595.28 841.89;" xml:space="preserve">
<path d="M38.26,531.87c-7.82-9.14-11.29-20.11-12.58-31.78c-1.69-15.27-1.45-30.56,0.07-45.87c1.32-13.28,5.51-25.85,8.4-38.74
	c1.91-8.51,4.05-16.98,5.51-25.57c1.61-9.5-0.03-18.92-2.16-28.19c-2.6-11.33-7.26-21.92-11.95-32.5c-1.69-3.8-3.19-7.8-3.97-11.87
	c-1.19-6.21,1.49-11.46,5.73-15.82c4.06-4.18,8.28-8.22,12.62-12.11c11.15-9.97,16.5-22.62,18.14-37.26
	c1.76-15.77-0.82-31.04-4.34-46.28c-2.46-10.68-5.07-21.33-7.06-32.09c-0.85-4.59-0.3-9.45-0.44-14.18
	c-0.02-0.63-0.19-1.57-0.61-1.83c-8.28-5.11-10.21-12.75-8.5-21.68c1.94-10.17,7.29-18.63,14.09-26.18
	c15.37-17.05,34.56-27.87,56.51-33.99c10.06-2.81,20.36-4.33,30.79-4.82c9.61-0.45,19.24-1.22,28.83-0.95
	c12.17,0.34,24.36,1.26,36.47,2.55c11.68,1.24,23.26,3.44,34.93,4.9c8.99,1.13,18.02,2.08,27.01-0.54
	c6.79-1.98,12.06-5.99,16.5-11.3c0.13-0.15,0.23-0.34,0.31-0.52c0.05-0.11,0.03-0.25,0.07-0.6c-1.69,0.05-3.36,0.11-5.03,0.14
	c-19.99,0.29-39.19-3.05-57.01-12.56c-4.29-2.29-8.05-5.27-10.81-9.34c-5.06-7.45-3.55-15.48,3.82-20.75
	c7.34-5.25,15.49-5.69,23.67-3.18c12.47,3.83,23.89,9.75,33.31,19.05c3.23,3.19,6.65,6.21,9.67,9.58c2.77,3.08,6.23,7.34,8.74,10.59
	c5.85-6.45,11.7-12.94,18.95-18.09c9.87-7.01,20.23-13.37,31.74-17.47c2.07-0.74,4.55-1.11,6.69-0.75
	c5.15,0.87,7.71,5.38,5.65,10.19c-1.33,3.1-3.29,6.07-5.52,8.62c-8.63,9.86-19.84,15.2-32.46,18.02
	c-6.59,1.47-13.13,3.21-19.85,4.86c1.38,2.75,3.6,4.94,6.22,6.71c4.75,3.21,10.15,4.71,15.74,5.55c17.78,2.68,35.04-0.35,52.15-4.91
	c12.73-3.39,25.41-7,38.19-10.2c11.97-2.99,24.2-4.06,36.49-2.95c23.57,2.13,45.23,9.41,63.55,25c6.07,5.17,10.74,11.43,13.8,18.84
	c3.01,7.27,3.64,14.54,0.13,21.48c4.13,2.53,8.55,4.57,12.19,7.56c13.12,10.81,23.2,23.85,27.52,40.65
	c1.91,7.46,1.83,15.11,0.39,22.6c-3.39,17.56-7.29,35.03-10.66,52.6c-2.2,11.48-4.15,23.03-5.64,34.62
	c-1.55,12.08-2.55,24.24-3.49,36.39c-0.29,3.8,0.11,7.73,0.71,11.52c0.48,3.04,1.6,6.01,4.48,7.87c1.39,0.9,2.23,0.8,3.27-0.66
	c2.39-3.34,5.18-6.35,9.48-7.17c1.31-0.25,2.73-0.36,4.02-0.1c2.4,0.48,4.2,1.85,4.79,4.41c0.46,2.04-0.58,4.27-2.76,5.66
	c-3.86,2.46-8.09,2.3-12.38,1.63c-0.26-0.04-0.52-0.08-0.89-0.14c-3.02,4.99-5.13,10.3-6.09,16.01
	c-2.02,12.09,0.21,23.78,4.13,35.13c3.9,11.3,8.36,22.4,12.49,33.62c5.95,16.15,10.54,32.67,12.9,49.74
	c1.65,11.92,2.06,23.9,0.63,35.88c-1.44,12-5.39,23.26-10.55,34.1c-9.48,19.94-22.21,41.21-28.24,62.59
	c-6.28,22.26-5.55,34.5,1.45,61.21c4.63,17.68,21.94,37.36,23.94,52.47c1,7.59,0.84,14.04-1.16,21.68
	c-0.69,2.65-1.87,5.21-3.08,7.69c-0.57,1.18-0.46,1.8,0.32,2.8c4.98,6.39,10.31,14.8,9.96,22.96c-0.68,15.79-7.6,23.01-21.54,28.88
	c-7.97,3.36-16.41,4.92-24.99,5.79c-12.97,1.32-40.97,1.8-53.97,0.87c-7.34-0.53-14.65-1.59-21.94-2.57
	c-20.7-2.8-39.89-10.71-59.41-17.56c-6.59-2.31-13.42-4.28-20.3-5.33c-8.45-1.29-16.91-0.55-24.54,4.12
	c-1.09,0.67-1.47,1.27-1.24,2.74c1.28,7.99-1.58,14.34-8.14,19.01c-0.87,0.62-1.9,1.03-2.91,1.41c-1.8,0.67-3.46,0.33-4.92-0.93
	c-1.51-1.3-1.48-2.92-1.02-4.66c1.22-4.54,3.59-8.47,6.49-12.09c1.39-1.74,2.9-3.42,4.52-4.95c0.94-0.89,0.99-1.57,0.44-2.63
	c-1.81-3.46-4.54-6.03-7.69-8.24c-7.42-5.21-15.77-7.85-24.69-9c-18.33-2.35-35.85,1.26-52.92,7.5
	c-14.67,5.36-29.15,11.23-43.77,16.72c-18.61,6.99-37.42,10.36-57.07,13.88c-10.73,1.92-21.48,3.59-32.4,3.72
	c-7.05,0.09-14.12,0.44-21.14-0.06c-17.61-1.25-37.01-2.49-50.92-9.48c-11.99-6.02-15.84-11.56-18.68-17.5
	c-3.51-7.37-5.42-15.89-5.2-24.21c0.08-3.09,0.49-6.17,1.04-9.22c1.43-7.93,7.99-26.2,11.82-33.09
	c25.77-46.39,9.37-71.2,0.16-104.94c-3.92-14.36-6.09-26.99-5.22-41.99c0.67-11.66,2.15-23.23,6.72-34.14
	C35.7,536.24,37.03,534.17,38.26,531.87z M32.17,574.69c0.27,14.44,3.58,28.66,8.14,43.6c7.28,23.88,16.17,43.01,11.59,68.39
	c-3.64,20.14-17.25,39.33-23.86,58.04c-4.92,13.95-3.83,30.17,3.91,42.9c4.99,8.21,13.17,12.14,21.72,15.62
	c9.8,3.99,22.23,5.26,32.71,6.47c9.25,1.06,18.51,0.92,27.81,0.58c12.62-0.47,25.02-2.41,37.35-4.98
	c18.66-3.88,36.6-7.1,54.33-13.95c16.27-6.29,32.33-13.12,49.05-18.24c17.56-5.37,35.31-7.49,53.42-3.34
	c10.42,2.39,19.75,6.97,27.25,14.81c0.96,1.01,1.8,2.14,2.68,3.2c8.86-5.12,18.46-5.76,26.48-4.19c8.24,1.61,16.44,3.83,24.35,6.65
	c18.55,6.61,36.92,13.79,56.64,16.25c8.45,1.06,16.93,2.39,25.41,2.58c10.61,0.24,36.26-0.39,46.87-0.95
	c8.96-0.47,17.69-2.32,26.04-5.69c7.27-2.93,16.24-10.16,18.85-17.83c2.58-7.57,1.59-12.52-0.16-18.68
	c-1.85-6.52-6.67-11.96-7.59-11.31c-1.72,1.2-2.41,1.84-3.97,2.75c-5.29,3.08-12.06,2.09-15.8-2.21
	c-4.12-4.74-2.42-10.29,3.69-11.82c4.28-1.07,8,0.48,11.45,2.84c1.22,0.83,2.32,1.83,3.79,3c0.94-2.46,2-4.65,2.62-6.96
	c1.89-7.07,1.41-14.34,0.46-21.4c-3.21-23.83-31.43-39.29-29.31-93.41c1.13-28.67,19.2-55.86,32.65-84.83
	c5.29-11.39,9.29-23.18,10.51-35.78c1.3-13.38,0.31-26.66-1.95-39.87c-3.21-18.81-9.08-36.83-16.12-54.51
	c-5.05-12.69-9.97-25.43-11.99-39.07c-1.71-11.53-0.54-22.54,5.26-32.84c0.25-0.44,0.4-0.94,0.57-1.35
	c-1.72-0.95-3.62-1.49-4.77-2.73c-2.65-2.87-4.44-6.4-4.83-10.32c-0.46-4.64-0.99-9.35-0.63-13.97c1.1-14.24,2.34-28.49,4.05-42.67
	c1.3-10.79,3.13-21.54,5.22-32.22c3.02-15.43,6.68-30.74,9.7-46.17c1.63-8.37,1.49-16.85-1.23-25.1
	c-4.09-12.41-11.68-22.51-20.89-31.51c-3.61-3.52-7.76-6.31-12.49-8.22c-1.47-0.6-2.34-0.39-3.42,0.89
	c-4.54,5.35-10.45,7.5-17.38,6.86c-2.7-0.25-5.26-2.19-5.48-4.15c-0.3-2.69,1.56-4.08,3.58-5.15c4.89-2.59,10.15-3.28,15.57-2.42
	c1.5,0.24,2.22-0.08,2.82-1.41c1.98-4.39,2.72-8.93,1.71-13.67c-1.99-9.28-6.74-17.04-13.92-23.06
	c-22.64-18.99-49.17-25.66-78.17-23.76c-10.07,0.66-19.86,3.14-29.61,5.73c-15.01,3.99-29.79,8.95-45.21,11.35
	c-12.65,1.96-25.33,2.63-37.96-0.06c-7.98-1.7-15.25-4.76-20.43-11.5c-1.8-2.34-5.53-2.21-7.22,0.29
	c-7,10.39-17.07,14.84-29.26,15.08c-8.97,0.18-17.8-1.31-26.64-2.61c-9.29-1.36-18.57-2.95-27.9-3.9c-9.7-0.99-19.45-1.54-29.2-1.92
	c-16-0.61-31.96,0.14-47.81,2.48c-21.32,3.14-40.64,11.12-57.71,24.33c-9.92,7.68-18.43,16.62-23.86,28.12
	c-2.63,5.57-4.51,11.38-3.69,17.67c0.58,4.48,2.41,8.24,6.52,10.58c0.2-0.22,0.34-0.3,0.37-0.41c0.11-0.39,0.13-0.81,0.28-1.18
	c1.61-4.08,2.82-8.37,4.95-12.16c2.89-5.15,7.15-9.06,13.23-10.29c3.66-0.74,7.05-0.11,9.66,2.81c2.51,2.8,2.39,6.07,1.25,9.37
	c-1.76,5.12-5.31,8.76-9.89,11.45c-5,2.94-10.38,4.43-16.25,3.7c-0.09,4.91-0.77,9.78-0.11,14.47c0.99,7.08,2.82,14.05,4.45,21.03
	c3.44,14.69,7.56,29.25,8.11,44.45c0.38,10.51-0.64,20.84-4.16,30.83c-3.25,9.22-9.28,16.43-16.41,22.89
	c-3.97,3.6-7.93,7.22-11.66,11.05c-5.29,5.42-6.94,11.82-4.2,19.07c0.93,2.46,2.08,4.85,3.06,7.29c3.68,9.15,7.89,18.14,10.86,27.51
	c4.3,13.58,5.85,27.57,2.44,41.68c-2.4,9.92-4.96,19.81-7.66,29.66c-2.94,10.73-5.78,21.48-6.25,32.66
	c-0.23,5.36-0.06,10.74-0.06,16.12c0.01,6.02-0.16,12.06,0.13,18.07c0.36,7.44,1.26,14.84,4.03,21.86
	c1.74,4.41,3.71,8.68,6.98,12.46c0.59-0.64,1.03-1.25,1.58-1.71c1.81-1.52,3.55-3.15,5.51-4.43c1.84-1.2,4.02-1.52,5.92-0.09
	c2.28,1.71,2.56,4.2,2.01,6.8c-0.5,2.34-1.44,4.45-4.05,5.1c-3.28,0.82-6.26-0.26-9.74-2.02c-1.59,3.71-3.42,7.14-4.54,10.78
	C33.18,555.09,31.99,564.94,32.17,574.69z M284.77,60.81c-0.76-1.21-1.48-2.07-2.19-2.97c-1.91-2.43-3.35-4.32-5.25-6.75
	c-1.86-2.37-4.79-5.59-7.04-7.5c-6.05-5.13-10.92-9.51-17.19-14.39c-6.49-5.04-13.9-7.44-22.07-7.74
	c-5.77-0.21-11.42,0.1-16.54,3.11c-2.55,1.5-4.13,3.47-4.86,5.63c-1.74,5.08,2.37,10.35,3.87,12.32c1.29,1.69,6.11,7.56,22.34,12.27
	c5.44,1.58,10.15,2.02,18.26,3.53C264.29,60.23,274.83,60.86,284.77,60.81z M292.64,59.9c0.63,0.07,0.9,0.14,1.15,0.11
	c8.26-0.99,16.36-2.68,24.26-5.32c11.8-3.94,21.08-11.28,28.54-21.06c1.72-2.26,2.98-4.82,2.84-7.84c-0.07-1.49-0.64-2.34-2.21-2
	c-1.52,0.32-3.07,0.62-4.49,1.21c-17.48,7.22-33.03,17.39-46.48,30.7C295.02,56.93,293.97,58.35,292.64,59.9z M50.29,157.05
	c0.61,0.06,0.94,0.11,1.27,0.12c8.5,0.25,18.47-6.38,21.26-14.36c0.58-1.66,0.68-3.59,0.55-5.36c-0.16-2.19-1.49-3.15-3.67-3.26
	c-3-0.15-5.54,1.05-7.86,2.77C55.14,141.92,52.05,148.98,50.29,157.05z M552.94,750.9c-1.75-1.38-3.19-2.74-4.83-3.77
	c-2.96-1.86-6.06-2.23-9.12-0.1c-2.17,1.51-2.87,3.18-2.22,5.36c0.72,2.42,2.57,3.94,4.99,4.06
	C546.35,756.67,549.7,754.33,552.94,750.9z M514.22,124.57c-5.33-0.08-10.14,0.4-14.33,3.44c-0.62,0.45-1.25,1.16-1.44,1.87
	c-0.12,0.44,0.51,1.51,0.94,1.6C503.88,132.42,511.54,128.92,514.22,124.57z M552.53,338.88c3.86,0.51,7.24,0.18,10.14-2.19
	c0.69-0.56,1.3-1.46,1.51-2.31c0.21-0.82,0.13-2-0.35-2.61c-0.35-0.44-1.6-0.43-2.37-0.25
	C557.43,332.47,555.09,335.55,552.53,338.88z M42.53,532.92c3.04,1.69,6.21,1.61,7.79-0.12c1.69-1.86,2.09-5.27,0.85-7.23
	C48.23,526.33,44.57,529.42,42.53,532.92z M326.76,810.79c5.58-2.31,10.46-10.66,9.08-15.33
	C331.83,799.92,328.44,804.65,326.76,810.79z"/>
</svg>
