<?xml version="1.0" encoding="utf-8"?>
<!-- Generator: Adobe Illustrator 28.3.0, SVG Export Plug-In . SVG Version: 6.00 Build 0)  -->
<svg version="1.1" id="Layer_1" xmlns="http://www.w3.org/2000/svg" xmlns:xlink="http://www.w3.org/1999/xlink" x="0px" y="0px"
	 viewBox="0 0 595.28 841.89" style="enable-background:new 0 0 595.28 841.89;" xml:space="preserve">
<g>
	<path d="M575.19,304.07c-9.33,25.93-16.35,52.53-23.54,79.08c-4.39,16.22-2.89,32.41,2.09,48.28c3.94,12.56,8.45,24.94,12.31,37.52
		c3.61,11.73,5.77,23.8,7.23,35.99c1.64,13.62,0.49,27.08-1.61,40.56c-1.33,8.56-2.18,17.19-3.19,25.8
		c-0.51,4.37-1.3,8.76-1.27,13.14c0.05,7.87,0.48,15.75,0.99,23.62c0.5,7.65,1.38,15.28,1.96,22.93c0.39,5.18,0.57,10.37,0.82,15.55
		c0.54,11.15-2.15,21.82-4.83,32.52c-1.47,5.9-2.83,11.88-3.62,17.9c-1.24,9.45,1.25,18.47,4.47,27.25
		c3.53,9.64,7.31,19.2,9.4,29.29c1.9,9.22,1.95,18.5,0.5,27.78c-0.68,4.33-1.39,8.68-2.47,12.93c-0.77,3.05-2.17,5.95-3.29,8.92
		c-0.31-0.03-0.62-0.05-0.93-0.08c0-0.62-0.2-1.33,0.03-1.85c4.49-10.45,5.89-21.48,5.51-32.67c-0.42-12.21-3.58-23.93-7.92-35.34
		c-2.74-7.21-5.42-14.44-7.97-21.72c-3.14-8.99-2.74-18.17-1.02-27.35c2.07-11.03,4.46-22.05,3.58-33.36
		c-0.48-6.22-1.41-12.41-2.17-18.6c-0.94-7.68-1.99-15.35-2.88-23.03c-0.84-7.26-1.96-14.53-2.17-21.82
		c-0.21-7.36,0.09-14.8,1.01-22.1c1.72-13.73,4.22-27.36,6.08-41.07c1.88-13.81,1.4-27.6-0.45-41.44
		c-2.12-15.78-7.65-30.59-12.11-45.72c-2.61-8.85-5.14-17.7-6.16-26.88c-1.32-11.84-0.51-23.57,2.66-35.07
		c5.31-19.23,9-38.81,12.75-58.38c1.95-10.17,3.81-20.37,5.36-30.61c1.4-9.25,1.21-18.59,0.01-27.87
		c-2.81-21.81-9.22-42.76-15.48-63.74c-3.42-11.46-5.26-23.18-6.73-35.02c-2.68-21.57,1.54-41.78,11.05-61.15
		c4.19-8.54,8.14-17.2,9.87-26.67c1.53-8.36,1.62-16.96,0.14-25.34c-1.32-7.46-3.35-15.29-8.61-20.99c-0.64-0.69-1.27-1.4-1.95-2.06
		c-1.74-1.69-2.34-2.1-3.84-3.06c-0.1-0.06-0.16-0.21-0.1-0.32c0.15-0.26,0.69-0.21,1.3-0.06c0.87,0.22,1.67,0.59,2.54,1.03
		c0.52,0.27,1.66,0.84,2.15,1.16c1.56,1.01,3.08,2.41,4.24,3.85c4.53,5.7,6.82,12.43,8.64,19.28c4.82,18.09,4.02,36.1-1.02,54.05
		c-2.18,7.78-4.38,15.6-5.84,23.53c-1.87,10.11-1.67,20.42-1,30.65c1.5,22.97,7.23,45.14,13.21,67.28
		c3.73,13.77,6.59,27.77,7.87,41.98C582.09,276.74,580.02,290.65,575.19,304.07z"/>
	<path d="M550.59,814.36c0.76,0.41,0.52,0.96-0.13,1.54c-1.07,0.94-3.7,1.93-5.06,2.15c-6.64,1.07-13.26,0.47-19.89-0.3
		c-11.76-1.38-22.61-5.8-33.65-9.69c-12.91-4.54-26.11-5.6-39.71-3.32c-11.59,1.94-22.45,6.04-33.43,9.86
		c-13.06,4.55-26.52,7.4-40.15,9.57c-12.35,1.96-24.79,2.55-37.26,2.65c-16.77,0.14-35.23-1.74-52.6-5.27
		c-15.36-3.12-30.63-6.86-45.97-10.14c-14.48-3.1-29.06-5.35-43.68-6.38c-14.86-1.05-29.17,0.55-42.85,4.67
		c-10.66,3.21-21.28,6.52-32.02,9.55c-14.44,4.08-29.46,4.6-44.98,1.51c-4.61-0.92-8.79-2.92-12.71-5.48
		c-0.51-0.34-0.92-0.82-1.38-1.24c0.09-0.16,0.18-0.32,0.26-0.49c0.92,0.21,1.93,0.25,2.74,0.66c5.84,2.94,11.97,3.87,18.23,3.91
		c4.71,0.03,9.45,0.22,14.12-0.03c10.72-0.56,20.48-3.73,30.06-7.3c10.27-3.84,20.35-8.1,30.86-11.42
		c10.98-3.47,22.72-4.29,34.8-3.61c25.54,1.44,50.64,6.68,75.67,13.01c16.37,4.14,32.91,7.27,49.53,9.03
		c17,1.81,34.48,1.85,50.69,0.74c20.13-1.38,39.47-6.07,58.25-13.42c10.65-4.17,21.88-6.29,33.29-6.67
		c10.98-0.37,20.57,3.32,30.84,7.12c14.96,5.54,26.73,11.83,42.9,11.31c7.62-0.25,9.03-0.66,11.49-1.72
		C549.49,814.89,549.99,814.04,550.59,814.36z"/>
	<path d="M512.08,14.17c-0.59,0.01-1.18,0.03-1.77,0.06c-1.18,0.05-2.35,0.11-3.53,0.2c-2.35,0.18-4.7,0.44-7.02,0.84
		c-1.14,0.19-2.28,0.42-3.41,0.68c-5.94,1.36-9.97,2.48-15.69,4.35c-14.74,4.82-29.5,13.03-43.21,17.98
		c-9.36,3.38-18.96,5.43-28.83,5.55c-12.5,0.16-24.8-2.25-37.09-5.49c-10.43-2.75-20.92-5.28-31.43-7.29
		c-13.01-2.48-26.05-2.2-39.04-0.97c-22.1,2.09-42.93,10.32-63.69,18.77c-9.33,3.8-18.8,6.68-28.64,7.81
		c-11.13,1.28-22.05-1.25-32.96-4.2c-16.14-4.36-31.62-11.68-47.16-18.74c-10.06-4.57-16.72-8.02-33.47-13.55
		c-8.38-2.76-20.15-3.37-28.64-2c-7.85,1.26-14.33,3.74-21.47,7.7c-8.15,4.52-15.92,11.5-20.57,19.66
		c-1.47,2.57-2.51,5.97-3.49,8.81c-1.09,3.15-1.91,6.39-2.47,9.68c-1.9,11.24-0.56,22.12,3.21,32.82
		c4.24,12.05,9.61,23.57,15.06,35.08c3.83,8.07,7.15,16.38,8.84,25.22c2.07,10.84,0.82,21.46-2.34,31.9
		c-2.8,9.24-6.04,18.37-8.47,27.71c-3.27,12.61-4.7,25.62-3.14,38.52c1.43,11.84,4.26,23.54,6.92,35.19
		c2.41,10.55,5,21.04,6.17,31.83c1.59,14.6-1.15,28.48-6.67,41.91c-3.67,8.92-7.62,17.73-10.92,26.79
		c-5.38,14.78-6.25,29.99-3.19,45.45c2.49,12.58,5.23,25.13,7.19,37.8c2.5,16.25,3.81,32.63,2.29,49.1
		c-1.52,16.52-5.42,32.55-9.95,48.45c-1.98,6.96-3.56,13.96-3.38,21.3c0.14,5.67,1.32,11.02,3.86,16.04
		c4.25,8.41,8.5,16.83,12.88,25.17c6.5,12.37,7.76,25.47,5.96,39.14c-2.49,18.89-7.77,37.14-12.02,55.63
		c-2.25,9.8-3.77,19.7-4.24,29.79c-0.51,11.03,2.66,20.78,8.99,29.6c5.13,7.15,10.92,13.56,19.19,17.2c1.2,0.53,2.11,1.72,3.16,2.61
		c-0.16,0.35-0.31,0.7-0.47,1.05c-0.96-0.2-1.96-0.28-2.87-0.62c-5.94-2.3-11.15-5.82-15.8-10.12
		c-9.15-8.46-16.34-18.41-21.22-29.94c-3.91-9.24-3.88-19.05-3.09-28.83c1.65-20.56,8.55-39.88,14.08-59.51
		c1.91-6.79,3.96-13.57,5.48-20.45c2.12-9.6,0.88-18.95-3.18-27.9c-3.15-6.94-6.13-13.98-9.58-20.77
		c-6.05-11.88-6.59-24.09-3.38-36.82c3.02-12.01,6-24.04,8.47-36.17c2.84-13.96,3.1-28.15,2.19-42.35
		c-0.73-11.47-2.06-22.86-4.56-34.1c-2.28-10.26-4.47-20.55-6.78-30.8c-3.85-17.07-2.06-33.76,3.29-50.18
		c2.97-9.1,6.46-18.04,9.33-27.17c3.99-12.68,4.44-25.63,2.67-38.81c-1.84-13.71-5.84-26.9-8.56-40.39
		c-1.85-9.18-3.75-18.44-4.45-27.75c-1.26-16.82,1.24-33.29,6.5-49.35c2.65-8.07,5.17-16.23,7.05-24.51
		c2.7-11.88,0.96-23.57-3.12-34.92c-3.65-10.16-7.66-20.18-11.07-30.42c-2.38-7.15-4.55-14.46-5.83-21.87
		C10.84,73,12.55,61.08,18.05,50.05c1.42-3.14,3-6.29,5.06-9.05c3.19-4.27,6.68-8.15,10.54-11.81c1.63-1.57,4-3.23,5.75-4.61
		c6.9-5.44,16.22-11.78,25.44-13.54c15.38-2.93,30.47,0.22,45.37,5.62c13.92,5.05,27.66,11.01,41.53,16.32
		c11.84,4.53,23.83,8.51,36.08,9.7c7.14,0.69,14.49,0.45,21.48-1.03c11.64-2.48,23.08-6.25,34.59-9.55
		c14.81-4.24,29.67-8,44.97-9.09c22.72-1.61,45.26,0.88,67.69,7.12c10.62,2.96,21.23,6.19,31.93,8.38
		c14.3,2.93,28.59,2.8,42.47-2.06c9.33-3.27,18.65-6.59,27.97-9.92c5.17-1.85,9.62-4.05,14.8-5.92c3.9-1.4,7.84-2.66,11.84-3.72
		c4.52-1.2,9.11-2.14,13.73-2.74c2.25-0.29,4.51-0.51,6.78-0.64c1.86-0.11,3.77-0.24,5.63-0.02c0.29,0.03,0.57,0.07,0.86,0.12
		c0.14,0.02,0.29,0.06,0.4,0.14C513.59,14.24,512.28,14.17,512.08,14.17z"/>
</g>
</svg>
