<?xml version="1.0" encoding="utf-8"?>
<!-- Generator: Adobe Illustrator 28.3.0, SVG Export Plug-In . SVG Version: 6.00 Build 0)  -->
<svg version="1.1" id="Layer_1" xmlns="http://www.w3.org/2000/svg" xmlns:xlink="http://www.w3.org/1999/xlink" x="0px" y="0px"
	 viewBox="0 0 595.28 841.89" style="enable-background:new 0 0 595.28 841.89;" xml:space="preserve">
<path d="M51.93,44.65c-4.4,4.36-5.1,9.52-4.09,14.95c1.36,7.34,3.18,14.58,4.57,21.91c1.31,6.93,2.29,13.94,1.1,21.03
	c-0.34,2.01-0.69,4.27-2.85,4.97c-2.22,0.72-4.1-0.7-5.27-2.37c-2.54-3.62-5.21-7.27-6.99-11.3c-7.09-15.99-9.53-32.74-6.31-50.18
	c0.41-2.25,1.36-4.44,2.34-6.51c1.29-2.71,2.67-3.54,5.94-4.05c-0.83-0.55-1.42-0.96-2.02-1.35c-4.78-3.14-9.6-6.23-14.33-9.46
	c-1.19-0.82-2.27-1.98-3.08-3.21c-1.29-1.96-0.65-3.36,1.64-3.66c2-0.26,4.05-0.37,6.07-0.28c17.84,0.79,34.96,4.77,50.84,13.43
	c4.09,2.23,7.84,5.36,11.25,8.63c5.07,4.87,7.07,10.04,8.6,19.27c2.54-2.16,4.96-4.42,7.58-6.4c8.16-6.19,17.39-10.17,26.73-13.93
	c11.75-4.73,23.65-8.93,36.16-10.94c15.82-2.54,44.74-3.57,60.62-1.37c8.39,1.16,16.59,3.74,24.87,5.71
	c13.24,3.15,26.42,6.56,39.71,9.44c17.09,3.7,33.66,1.31,49.51-6.11c9.04-4.23,17.85-9.02,26.83-13.4
	c7.13-3.48,14.5-6.17,22.56-5.83c7.52,0.32,14.67,2.57,21.89,4.54c16.6,4.52,32.49,11.21,48.67,17.05
	c13.86,5.01,28.08,8.13,42.86,7.59c4.04-0.15,8.08-0.48,12.29-0.73c0.26-1.87,0.48-3.57,0.74-5.27c1.53-10.13,6.8-17.29,15.96-21.02
	c9.8-4,19.96-6.04,30.55-5.27c8.13,0.6,14.57,5.29,16.58,12.15c1.71,5.84-0.24,10.94-5.33,13.93c-4.32,2.53-9.12,3.05-13.92,3.64
	c-11.24,1.37-22.47,2.79-33.7,4.18c-1.8,0.22-3.6,0.57-5.41,0.64c-1.58,0.07-2.14,0.61-2.14,2.35c0,12.15,2.49,23.79,6.49,35.12
	c4.69,13.29,11.45,25.51,18.12,37.78c5.03,9.23,9.96,18.52,14.84,27.85c9.15,17.52,10.56,35.86,4.3,54.6
	c-4.19,12.56-8.91,24.94-13.9,37.17c-2.54,6.23-2.93,12.25-1.59,18.7c2.23,10.75,4.25,21.61,3.09,32.65
	c-1.06,10.03-2.67,20.01-4.34,29.96c-1.97,11.81-4.51,23.53-6.35,35.36c-2.04,13.12,6.73,28.75,11.56,40.58
	c5.45,13.36,11.14,26.71,14.41,40.81c4.19,18.04,3.34,41.51,2.86,54.1c-0.89,23.27-6.82,45.47-12.97,67.63
	c-7.26,26.15-14.25,54.47-12.15,81.82c0.32,4.13,0.83,8.27,1.84,12.29c2.15,8.63,2.46,17.48,5.21,25.77
	c3.11,9.39,6.37,18.74,9.77,28.03c5.39,14.73,4.11,28.95-2.72,42.81c-1.53,3.11-3.13,6.18-4.68,9.25c0.11,0.17,0.16,0.34,0.26,0.4
	c9.94,5.25,11.1,17.27,7.15,27.46c-2.75,7.08-7.82,12.19-13.5,16.65c-3.39,2.66-6.99,5.09-10.7,7.25c-3.77,2.19-6.01,1.02-7.29-3.44
	c-2.5,1.83-4.87,3.75-7.4,5.38c-4.62,2.99-9.15,6.24-14.06,8.62c-19.32,9.38-34.21-4.27-38.58-18.32c-0.89-2.88-1.24-5.94-1.89-9.16
	c-2.41-0.24-5.07-0.3-7.64-0.81c-4.5-0.91-9.16-1.55-13.38-3.28c-7.71-3.16-15.08-2.21-22.07,1.41
	c-6.41,3.32-12.41,7.54-18.55,11.42c-7.82,4.94-15.43,10.27-23.45,14.82c-12.06,6.84-26.61,10.8-39.44,4.03
	c-7.17-3.79-12.2-10.38-20.33-12.55c-16.48-4.4-32.53-5.3-49.19-1.98c-24.47,4.87-48.51,11.53-72.43,18.74
	c-7,2.11-14.11,3.34-21.48,3.02c-11.5-0.5-20.4-5.86-27.23-15.24c-2.79-3.83-5.3-7.87-8.03-11.74
	c-4.68-6.64-11.03-10.25-18.87-11.21c-8.93-1.1-17.86-2.24-26.77-3.52c-2.53-0.37-4.97-1.38-7.48-1.95
	c-0.58-0.13-1.58,0.13-1.88,0.58c-2.74,4.13-5.37,8.33-8.09,12.61c0.52,0.64,1.12,1.33,1.67,2.07c3.09,4.07,2.7,6.46-1.42,9.33
	c-4.82,3.36-9.61,6.76-14.4,10.17c-2.25,1.6-4.48,3.24-6.69,4.89c-1.52,1.14-2.83,0.95-4.02-0.53c-1.11-1.39-0.82-2.57,0.26-3.86
	c6.11-7.3,12.18-14.64,18.26-21.97c0.36-0.44,0.67-0.92,1.16-1.6c-4.42-3.54-8.71-7.15-13.17-10.5
	c-7.32-5.48-14.76-10.77-22.13-16.18c-1.36-1-2.68-2.1-3.83-3.35c-0.48-0.52-0.46-1.55-0.67-2.34c0.71-0.17,1.44-0.54,2.13-0.46
	c2.21,0.26,4.41,0.7,6.62,1.04c0.89,0.14,1.79,0.19,2.81,0.12c-5.03-3.33-9.61-6.95-9.71-14.08c-3.64-0.22-7.25-0.34-10.83-0.69
	c-2.77-0.27-5.56-0.59-8.26-1.28c-8.44-2.16-12.21-8.64-10.51-17.57c1.62-8.53,5.21-16.27,8.93-23.93
	c5.87-12.08,12.2-23.91,17.9-36.07c6.7-14.28,10.68-29.35,10.37-45.43c-0.11-6.03-1.79-11.69-3.22-17.47
	c-2.81-11.29-5.21-22.7-7.65-34.08c-1.84-8.56-3.76-17.12-5.16-25.77c-1.28-7.87-1.98-15.86-2.83-23.8
	c-1.13-10.55-2.21-21.11-3.22-31.68c-0.82-8.62-1.61-17.24-2.2-25.88c-0.46-6.75-0.68-13.53-0.88-20.3
	c-0.4-13.54,2.78-26.43,6.98-39.05c5-15.04,9.76-30.02,14.47-45.08c7.43-23.79,14.48-44.52,11.17-69.21
	c-1.52-11.32-5.15-25.45-12.28-38.46c-5.61-10.24-10.05-21.24-11.37-33.02c-1.79-15.93-0.03-31.59,3.72-47.17
	c4.99-20.7,11.69-40.81,18.15-61.02c1.85-5.79,3.64-11.72,3.39-17.91c-0.19-4.7-1.02-9.38-1.59-14.06
	c-1.3-10.52-2.63-21.03-3.91-31.55C52.17,49.1,52.11,47.07,51.93,44.65z M95.23,782.5c0,0,0.51,0.21,1.04,0.36
	c9.54,2.76,19.4,3.3,29.17,4.29c10.19,1.04,18.31,5.76,24.39,14.28c2.42,3.39,4.67,6.9,7.03,10.34c5.32,7.75,12.32,12.34,21.63,13.2
	c7.39,0.68,14.5-0.49,21.5-2.6c24.06-7.23,48.23-13.96,72.86-18.77c19.25-3.76,36.78-1.28,55.67,3.28c4.66,1.12,9.42,2.3,13.39,4.97
	c3.51,2.36,6.27,5.81,10.05,7.7c12.59,6.29,30.98-4.28,41.16-11.38c4.24-2.96,8.47-5.92,12.83-8.67c6.32-4,12.54-8.24,19.17-11.58
	c7.44-3.75,15.22-4.43,23.31-1.05c4.59,1.92,9.67,2.65,14.6,3.52c2.61,0.46,5.36,0.08,7.85,0.08c0.68-3.07,1.07-6.05,2.01-8.84
	c4.23-12.46,11.94-22.31,21.84-30.31c6.1-4.93,12.99-7.95,20.95-7.53c6.71,0.35,12.16,4.94,13.31,11.71
	c0.45,2.66,0.07,5.47,0.07,8.3c0.86-0.41,1.8-0.87,2.74-1.3c6.34-2.9,12.83-4.91,19.89-4.03c0.51,0.06,1.34-0.62,1.64-1.17
	c1.8-3.37,3.54-6.78,5.22-10.22c6.44-13.21,7.48-26.73,2.28-40.7c-3.29-8.83-6.41-17.72-9.39-26.66
	c-2.75-8.24-4.13-16.29-6.33-24.72c-8.77-33.59,1.64-64.13,10.21-96.59c5.5-20.83,11.4-41.55,12.91-63.24
	c1.35-19.42,1-43.41-5.58-67.09c-4.55-16.38-12.79-30.35-19.32-44.61c-10.72-23.42-1.23-41.78,2.82-66.22
	c1.72-10.38,3.3-20.81,4.3-31.29c0.94-9.78-1.29-19.38-2.97-28.97c-0.9-5.15-1.94-10.33-0.04-15.5c0.95-2.58,2.01-5.12,2.96-7.7
	c4.49-12.22,9.29-24.32,13.32-36.7c3.5-10.77,4.21-21.96,1.53-33.14c-2.23-9.32-6.56-17.72-10.97-26.05
	c-7.28-13.75-14.86-27.33-21.8-41.26c-6.95-13.95-11.61-28.76-12.65-44.6c-0.14-2.07-0.27-4.14-0.41-6.27
	c-3.35,0.2-6.49,0.41-9.63,0.56c-15.8,0.76-30.95-2.64-45.69-8.13c-17.1-6.36-34.06-13.17-51.69-17.86
	c-6.7-1.79-13.38-3.51-20.4-3.02c-7.64,0.53-14.47,3.66-21.24,6.99c-9.09,4.47-18,9.38-27.23,13.51
	c-12.75,5.7-26.21,7.91-39.98,5.87c-9.42-1.4-18.74-3.64-28.02-5.9c-12.61-3.07-25.06-6.86-37.71-9.71
	c-17.74-3.99-48.59-2.6-66.35,0.19c-15.11,2.38-29.27,8.04-43.31,14.04c-7.58,3.24-14.81,7.14-21.3,12.48
	c-4.61,3.79-8.1,7.79-8.61,14.52c-0.49,6.45-2.96,12.57-6.67,17.93c-1.64,2.37-4.26,2.22-5.19-0.51c-0.64-1.87-0.74-4.19-0.33-6.14
	c1.52-7.24,4.9-13.58,9.33-19.34c0.54-0.7,1.18-1.62,1.18-2.44c0-6.61-1.25-12.86-5.41-18.15c-3.25-4.12-7.22-7.32-11.75-9.69
	c-15.9-8.32-32.85-12.26-50.57-12.83c-1.7-0.05-3.41,0.24-5.11,0.38c-0.1,0.23-0.2,0.46-0.3,0.7c0.46,0.31,0.91,0.64,1.38,0.93
	C34.06,25.8,43.34,31.45,52.66,37c0.52,0.31,1.55,0.02,2.21-0.3c3.59-1.77,7.04-3.91,10.74-5.36c2.55-1,5.42-1.39,8.18-1.52
	c2.6-0.12,4.71,1.31,5.75,3.96c1.01,2.57,0.27,4.86-1.4,6.86c-1.78,2.14-4.1,3.2-6.75,3.59c-5.01,0.75-9.67-0.71-14.31-2.36
	c-0.64-0.23-1.31-0.35-2.48-0.67c1.16,1.41,1.91,2.33,2.67,3.25c-0.16,0.14-0.32,0.28-0.48,0.42c-0.65-0.4-1.31-0.8-2.14-1.31
	c0,0.68-0.04,1.05,0.01,1.4c0.91,7.73,1.79,15.46,2.75,23.18c0.77,6.21,1.27,12.49,2.58,18.57c1.08,5.02,2.1,9.78,0.77,14.97
	c-1.53,5.95-2.08,12.19-3.79,18.07c-5.41,18.57-11.66,36.86-16.38,55.67c-4.2,16.75-6.23,33.56-4.23,50.79
	c1.18,10.18,8.39,20.26,12.67,29.39c4.51,9.63,8.73,18.87,11.15,29.31c4.61,19.94,2.29,40.91-3.86,60.46
	c-7.11,22.58-14.73,44.74-22.31,67.21c-4.87,14.41-7.46,29.23-6.49,44.59c0.29,4.58,0.44,9.17,0.8,13.74
	c0.68,8.7,1.39,17.41,2.22,26.1c1.01,10.49,2.1,20.98,3.25,31.45c0.85,7.72,1.6,15.48,2.88,23.13c1.4,8.42,3.3,16.76,5.09,25.11
	c2.33,10.89,4.55,21.82,7.24,32.62c1.42,5.69,3.35,11.22,3.63,17.16c0.5,10.52-1.21,20.72-3.99,30.79
	c-3.58,12.99-9.93,24.64-15.78,36.55c-5.02,10.23-10.05,20.47-14.59,30.93c-1.8,4.15-2.68,8.88-3.26,13.44
	c-0.57,4.48,1.13,6.34,5.29,7.5c0.6,0.17,1.21,0.37,1.83,0.42c5.84,0.5,11.69,0.92,17.52,1.5c1.74,0.17,2.84-0.09,3.54-2
	c0.5-1.39,1.46-2.66,2.41-3.81c8.68-10.55,19.55-15.66,32.91-13.52c9.51,1.52,17.34,6.13,21.38,15.8
	c2.69,6.43,2.75,13.27,1.12,19.92C99.46,770.23,97.2,776.27,95.23,782.5z M474.22,794.21c0.17,2.33,0.28,4.06,0.43,5.78
	c0.84,9.65,8.38,18.84,17.29,21.02c5.89,1.44,11.5,0.28,16.91-2.27c9.11-4.29,16.86-10.8,24.95-16.74c0.33-0.24,0.67-0.59,0.82-0.97
	c1.26-3.21,2.48-6.44,3.96-10.32C516.92,791.89,495.75,793.04,474.22,794.21z M474.8,790.46c0.37,0.05,0.65,0.14,0.91,0.12
	c8.92-0.6,17.84-1.19,26.76-1.84c0.46-0.03,1.07-0.4,1.32-0.81c4.14-6.7,9.54-12.22,15.55-17c3.9-3.1,5.53-7.17,6.36-11.83
	c1.07-5.96-0.98-10.1-5.67-11.17c-2.21-0.5-4.58-0.59-6.84-0.37c-5.94,0.6-11.07,3.38-15.81,7c-7.35,5.61-12.69,13.05-17.44,21.01
	C477.24,780.12,475.47,785.05,474.8,790.46z M523.39,41.45c0.62,0,0.97,0.04,1.31-0.01c13.37-1.59,26.75-3.16,40.12-4.81
	c4.02-0.5,8.03-1.23,11.55-3.54c3.04-1.99,4.92-4.77,4.76-8.64c-0.16-3.96-1.94-7.12-5.48-8.56c-2.81-1.14-5.86-2.01-8.85-2.22
	c-9.64-0.66-18.89,1.59-27.78,5.28C529.43,22.94,524.43,30.62,523.39,41.45z M46.74,747.8c1.37,0,2.2,0.01,3.03,0
	c10.26-0.13,20.53-0.31,30.79-0.34c2.07-0.01,4.16,0.4,6.19,0.84c2.18,0.47,3.93,1.78,4.39,4.16c0.45,2.34-1.35,3.54-2.9,4.62
	c-7.24,5.03-14.88,9.2-23.43,11.29c-0.43,0.1-0.84,0.28-1.26,0.43c-0.06,0.26-0.12,0.52-0.18,0.77c8.53,3.66,17.06,7.34,25.61,10.93
	c0.42,0.17,1.42-0.22,1.64-0.64c4.57-8.79,7.93-17.98,7.67-28.19c-0.24-9.23-4.35-15.19-12.72-18.19c-10.23-3.66-19.94-2.26-28.95,4
	C52.83,740.1,49.57,743.33,46.74,747.8z M50.58,40.18c-2.74-1.44-5.13-2.85-7.63-3.97c-2.08-0.93-4.08-0.14-5.04,1.85
	c-1.36,2.82-2.72,5.81-3.24,8.88c-2.22,13.16-0.8,26.08,3.12,38.73c1.87,6.04,4.16,11.9,8.1,16.85c0.62,0.78,1.91,1.87,2.41,1.65
	c0.83-0.37,1.71-1.64,1.81-2.62c0.37-3.67,1.02-7.46,0.51-11.03c-1.19-8.31-3.06-16.52-4.5-24.79c-0.76-4.35-1.55-8.74-1.69-13.14
	C44.29,47.75,46.77,43.86,50.58,40.18z M550.72,762.22c-9.32-0.76-22.24,5.46-27.55,12.75c-3.27,4.48-6.91,8.67-10.39,13
	c0.09,0.06,0.2,0.2,0.31,0.19c8.51-0.23,17.02-0.44,25.52-0.79c0.64-0.03,1.52-0.9,1.83-1.61c2.32-5.36,4.49-10.8,6.79-16.17
	C548.27,767.16,549.49,764.81,550.72,762.22z M536.35,808.48c0.58-0.24,0.97-0.34,1.31-0.54c6.78-4.03,13.01-8.81,18.2-14.92
	c4.83-5.69,7.28-12.32,6.89-20.01c-0.28-5.57-3.16-9.44-8.03-10.18c-3.55,7.89-7.14,15.89-10.85,24.14
	c1.07,0.07,1.55,0.11,2.03,0.14c2.73,0.15,4.73,1.39,5.3,3.48c0.62,2.28-1.15,3.37-2.36,4.71c-0.14,0.16-0.31,0.29-0.48,0.43
	c-3.04,2.44-6,5.02-9.16,7.27C537.3,804.36,536.74,806.15,536.35,808.48z M87.75,751.74c-4.87-1-35.89-0.9-42.42,0
	c-1.17,3.36-0.67,6.09,2.1,8.08c2.97,2.13,6.23,3.83,9.4,5.63c0.48,0.27,1.22,0.17,1.82,0.08c9.62-1.4,18.05-5.81,26.08-11.23
	C85.69,753.65,86.52,752.8,87.75,751.74z M46.46,768.91c11.09,8.51,22.65,17.38,34.45,26.43c2.45-3.69,5.01-7.54,7.52-11.32
	c-0.3-0.37-0.37-0.53-0.48-0.58c-9.58-4.5-19.16-8.99-28.75-13.45c-0.67-0.31-1.46-0.46-2.2-0.51
	C53.32,769.24,49.64,769.07,46.46,768.91z M58.08,39.25c3.97,1.31,7.5,2.24,11.26,1.55c2.72-0.5,5.11-1.6,6.56-4.16
	c0.49-0.86,0.53-2,0.77-3.02c-0.93-0.18-1.87-0.57-2.78-0.5C68.26,33.54,63.33,36.04,58.08,39.25z M82.77,800.87
	c-3.09,3.79-6.1,7.48-9.1,11.18c-0.07,0.08-0.05,0.24-0.13,0.61c3.2-2.21,6.28-4.26,9.28-6.45
	C85.41,804.32,85.38,803.32,82.77,800.87z M95.31,68.27c-3.32,3.95-6.82,12.95-6.33,16.34C92.27,79.43,94.12,73.99,95.31,68.27z
	 M541.02,796.46c1.96-1.76,3.92-3.53,5.87-5.29C541.74,790.88,542.98,790.08,541.02,796.46z"/>
</svg>
