<?xml version="1.0" encoding="UTF-8"?>
<svg id="Layer_1" data-name="Layer 1" xmlns="http://www.w3.org/2000/svg" version="1.1" viewBox="0 0 595.3 841.9">
  <defs>
    <style>
      .cls-1 {
        fill: #000;
        stroke-width: 0px;
      }
    </style>
  </defs>
  <path class="cls-1" d="M546.2,520.3c2.7-.5,7.1-7.5,8-8.7,3.2-4.7,6-9.6,8.8-14.5,1.3-2.3,2.4-4.8,3.3-7.3,1.9-5.7,1.7-11.3-.5-16.9-1.8-4.5-4.4-8.5-7.8-12-2-2.1-4.2-4-6.3-6.1-1.3-1.3-2.7-2.5-4-3.9-2.6-2.7-3.4-6-2.8-9.7.8-4.6,2.8-8.6,5.4-12.4,1.8-2.5,3.7-4.9,5.5-7.4,1.6-2.2,3.2-4.5,4.6-6.9,2.2-3.5,3.7-7.4,4.6-11.5,2-9.1,1.7-18-1.7-26.8-1.8-4.6-3.8-9.1-5.7-13.7-1.8-4.4-3.7-8.8-5.3-13.3-1.6-4.4-2.2-8.9-1.9-13.6.2-4.4,1.2-8.6,2.6-12.8,3.1-9.1,7.4-17.6,13-25.4.7-.9,1.4-1.8,2-2.8,2.5-3.8,4.7-7.8,6-12.2.9-2.9,1.3-5.9,1.1-8.9-.2-3.5-.9-6.9-2.1-10.2-1.9-5.1-4.2-10-7.2-14.6-4.4-6.7-9.3-13.1-14.7-19-2.6-2.9-5.3-5.7-7.8-8.7-2.8-3.2-5.5-6.6-8.2-9.9-1.4-1.9-2.6-3.9-3.7-6-2.1-4.1-2.9-8.4-2.4-12.9.4-3.4,1.1-6.7,2.5-9.9,1.6-3.7,3.7-7.2,6.1-10.5,2.9-3.8,6-7.4,9.3-10.9,2.1-2.1,4.1-4.4,6.1-6.6,2.3-2.5,4.4-5.2,6.2-8.1,2.2-3.4,3.7-7,4.5-10.9,1-4.9,1.4-9.8,1.2-14.7-.2-4.8-.8-9.5-1.6-14.2-.8-4.3-1.9-8.5-3.4-12.7-1.5-4.1-3.8-7.7-7-10.7-.9-.8-1.8-1.6-2.7-2.4-1.7-1.6-3.5-3.2-5.1-4.8-1.8-1.8-3.5-3.8-4.9-6-2-3.3-3.2-6.9-3.3-10.8,0-3.2.4-6.3,1.2-9.4.8-3.3,1.6-6.6,1.4-10.1,0-.3,0-.7.6-.7.4.6.9,1.2,1.4,1.9,1.8,2.4,3.5,4.8,5.7,6.9,2.1,2.1,4.5,3.7,7.3,4.6,4.1,1.4,8.1,1.2,12-.7,2.3-1.2,4.3-2.6,6.1-4.4,6.2-6.5,8.8-14.4,8.8-23.2,0-.2,0-.5,0-.7-.2-2.1-.9-4.1-2-6-1.8-3.1-4.5-4.8-8-5.2-1.9-.2-3.7,0-5.5.3-4.3.9-8.4,2.4-12.3,4.4-4.2,2.1-8.3,4.5-12.1,7.1-.6.4-1.2.8-1.8,1.1-.3-.3-.5-.4-.7-.6-1.7-2.2-4-3.5-6.5-4.5-2.4-1-5-1.6-7.5-1.9-7.6-.9-14.5.8-20.6,5.4-3.1,2.4-5.3,5.5-6.5,9.2-.7,2-1,4.1-.8,6.2.3,2.6,1.3,4.8,3.4,6.5,2.5,1.9,5.3,2.8,8.4,2.3,1.4-.2,2.9-.6,4.2-1.1,2.3-.8,4.5-1.7,6.7-2.8,2.6-1.2,5.2-2.7,7.8-4,.4-.2.8-.6,1.3-.2,0,.8-.6,1.5-1.1,2.1-4.9,7.1-11.1,12.8-19.1,16.4-7,3.2-14.1,4-21.6,2.2-5.2-1.2-10-3.3-14.7-5.6-4-2-7.6-4.6-10.8-7.7-1.1-1.1-2.2-2.2-3.2-3.3-6-6.4-12.3-12.5-18.7-18.4-2.3-2.1-4.8-4.2-7.3-6-4.7-3.3-9.7-5.8-15.4-7-4-.8-7.9-.4-11.6,1.5-1.8.9-3.4,2.2-4.9,3.6-2.3,2.2-4.3,4.6-5.9,7.4-1.2,2.2-2.4,4.4-3.5,6.6-.9,1.6-1.6,3.4-2.5,5-1.5,2.7-3.7,4.7-6.5,6-4,1.8-8.1,2.9-12.4,3.1-7.2.3-14-1.2-20.3-4.8-1.5-.8-3-1.7-4.4-2.7-2.8-1.9-5.4-3.8-8.2-5.7-2.3-1.6-4.6-3.3-7.1-4.6-5.7-3.2-11.8-4.3-18.3-3.1-4.6.9-9.1,2.3-13.4,4.3-2.4,1.1-4.8,2.4-7.1,3.7-2.8,1.5-5.7,2.8-8.7,3.7-5.1,1.6-10,1.5-14.9-.7-1.1-.5-2.2-1-3.3-1.5-3.9-2.1-7.7-4.1-11.5-6.3-5.6-3.2-11.3-6.2-17.4-8.5-7.8-2.9-15.9-4.6-24.1-5.7-6.5-.9-12.9-.8-19.4.4-8.2,1.5-15.1,5.3-20.4,11.7-2,2.4-3.8,5-5.7,7.6-1.2,1.6-2.3,3.3-3.4,5-3,4.2-6.8,7.4-11.3,9.8-5.2,2.8-10.7,5-16.5,6.5-5.8,1.5-11.7,2.5-17.8,1.7-3-.4-5.9-1-8.6-2.5-4.4-2.4-8.2-8.4-8.2-13.5,0-3.7,1.6-6.2,4.5-7.2,2.4-.9,4.3-.2,5.5,2.1.7,1.4,1.2,2.8,1.2,4.4.1,1.8-.3,3.8-.5,5.7.6.3,1.4.6,2,.2.4-.2.6-.7.8-1.1,1.4-4.1.7-8.6-2.1-12-1.4-1.7-3.3-2.4-5.4-2.2-4.2.3-7.7,3.3-8.7,7.3-.5,1.9-.4,3.9-.1,5.8,1.1,6.5,5.2,13.9,15.3,16.3,5.2,1.2,10.4,1.2,15.7.5,9.6-1.3,18.6-4.4,26.9-9.4,4-2.4,7.5-5.4,10.2-9.2,1.2-1.7,2.4-3.5,3.6-5.2,1.8-2.5,3.5-5,5.5-7.4,4.3-5.1,9.7-8.5,16.2-10.1,3.8-1,7.6-1.4,11.6-1.4,10,0,19.6,1.8,29.1,4.6,6.4,1.9,12.4,4.8,18.1,8.2,3.1,1.8,6.2,3.6,9.3,5.3,3,1.6,6,3.1,9.2,4.3,3.2,1.2,6.4,1.6,9.8,1.4,3.2-.2,6.2-1.1,9.2-2.2,2.7-1,5.3-2.4,7.9-3.8,5.2-2.9,10.6-5.2,16.5-6.4,2.6-.6,5.3-.8,8-.5,3.6.5,6.9,1.6,10,3.5,2.3,1.4,4.5,3,6.6,4.5,3.9,2.8,7.8,5.6,12,7.9,11.4,6.2,23.1,6.9,35.1,2.3,4.4-1.7,7.7-4.7,9.9-8.8.9-1.7,1.6-3.3,2.5-5,1-2,2-4,3.2-6,1.9-3.1,4.2-5.9,7.2-8.1,3-2.2,6.4-3.1,10.1-2.4,2.2.4,4.2,1.1,6.2,2,5.7,2.4,10.6,5.8,15,10.1,6.5,6.3,13.2,12.5,19.4,19.1.9,1,1.9,2,2.9,2.9,3.4,3.3,7.2,6.1,11.4,8.2,4,2,8.1,3.7,12.4,5,3.2,1,6.4,1.6,9.7,2,11.5,1.1,24-5,30.2-11.1,4.2-4.2,8-8.7,10.7-14,.2-.4.3-1,1-.8,0,1.2-.3,2.4-.7,3.5-.5,1.9-1.2,3.7-1.7,5.6-.9,3.1-1.5,6.3-1.5,9.6,0,6.9,2.2,12.9,6.5,18.1,1.9,2.3,4.1,4.4,6.3,6.4,1.8,1.7,3.8,3.3,5.7,5,2.4,2.1,4.2,4.7,5.3,7.7.6,1.5,1.1,3.1,1.6,4.6,1.5,5.1,2.5,10.2,3.1,15.5.5,4.4.7,8.7.3,13.1-.5,6.2-2.4,11.9-6.1,16.9-1.3,1.8-2.6,3.5-4,5.1-2.1,2.4-4.2,4.7-6.4,7-3,3.1-5.8,6.4-8.4,9.8-2.2,2.9-4.2,6-5.8,9.2-2.1,4-3.4,8.2-4,12.7-.9,6.4,0,12.4,3.2,18.1,1.2,2.2,2.5,4.3,4.1,6.3,2.5,3.2,5.1,6.3,7.8,9.3,3,3.4,6.1,6.7,9.1,10.1,5.1,5.7,9.8,11.7,13.9,18.1,3.3,5.1,5.8,10.7,7.2,16.7,1.4,5.8,1,11.4-1.7,16.8-1.3,2.7-2.8,5.3-4.7,7.6-4.9,6.1-9,12.6-12.2,19.8-2.2,4.9-4,9.9-5.3,15.1-1.9,8.1-1.7,16.1,1.1,23.9.9,2.5,1.8,5,2.8,7.5,2,4.9,4.2,9.7,6.2,14.5,1.3,3.1,2.5,6.2,3.2,9.4,2.2,11.1.7,21.6-5.9,31.1-.9,1.3-1.9,2.6-2.8,3.9-1.6,2.1-3.2,4.2-4.8,6.4-1.1,1.6-2.2,3.2-3.2,4.9-2,3.5-3.3,7.4-3.9,11.4-.7,5.3.8,10,4.5,13.8,1.4,1.5,3,2.9,4.6,4.3,2.1,1.9,4.2,3.8,6.2,5.8,3.1,3.1,6.9,7.5,8.4,11.6,1.4,3.9,1.3,8.1,0,12-.7,2-1.5,3.9-2.5,5.8-3.7,7.1-5.3,10-9.7,16.7-1.2,1.7-5.6,6.4-5.8,8-.2,1.4,1,1.9,1.8,1.7h0ZM545.2,28.9c3.2-4.8,10.2-6.9,15.4-8.7,2.4-.8,4.8-1.3,7.3-1.9.9-.2,1.9-.2,2.9-.1,2,.2,3.3,1.3,3.8,3.2.3,1.1.4,2.2.6,3.1-.2,1.3-.3,2.3-.5,3.3-.5,2.5-1.3,4.8-2.4,7.1-1.5,3.3-3.7,6-6.6,8.2-3.3,2.4-6.8,2.8-10.5,1-1.8-.9-3.5-2-5-3.4-3.2-3.1-8.2-7-5-11.9h0ZM533.6,31.3c-1,1.1-1.5,2.2-2.8,2.9-3.8,1.8-7.5,3.8-11.3,5.5-2.3,1.1-4.8,1.9-7.2,2.9-.8.3-1.7.6-2.6.7-1,.1-2.1.3-3.1.1-2.9-.3-4.6-2.5-4.4-5.4.1-1.1.4-2.2.8-3.3,1.1-2.7,2.9-4.9,5.3-6.5,4.7-3.2,10-4.6,15.7-4,2.8.3,5.6.8,8.2,1.9,1,.4,1.7.9,2.2,1.6.7,1,.6,2.3-.7,3.7h0Z"/>
  <path class="cls-1" d="M37.1,332.2c-.2-1-.2-1.4-.3-1.8-.3-2.4-3.2-3.7-5.2-3-1,.4-2.1.9-3,1.6-.9.7-1.7,1.5-2.4,2.4-3.6,4.6-5.9,9.8-6.6,15.7-.4,3.1.1,6.1,1,9.1,1.1,3.7,2.5,7.2,4.6,10.4,1.7,2.7,3.6,5.4,5.5,8,3.1,4.1,6.3,8.1,9,12.4,3.1,4.8,5.7,9.8,7.5,15.2,2.1,6.1,1.7,12.1-1,18-1.8,3.7-3.8,7.4-5.7,11-.8,1.4-1.6,2.8-2.4,4.2-5.7,9.7-8.4,20.3-9.4,31.4-.4,4.1.2,8.1,1,12.1,1,4.9,2.2,9.8,3.4,14.7,1.3,5.1,2.5,10.2,3.3,15.4,1.2,7.4.7,14.7-1.6,21.9-1.2,3.8-2.7,7.6-4.2,11.4-1.5,3.9-3.4,7.7-4.9,11.7-1.2,3.2-2.2,6.4-3.2,9.7-1.1,3.7-.9,7.4.2,11,1.2,4,2.7,8,4.4,11.8,2.7,6.2,5.5,12.5,7.8,18.8,2.6,7.3,4.5,14.7,5.6,22.3,1.5,9.8.6,19.4-2.7,28.7-1.6,4.4-3.4,8.8-5.2,13.1-2,4.8-4.2,9.5-6.4,14.2-1.6,3.5-2.8,7.1-3.9,10.7-1.4,4.8-.9,9.4,1.6,13.8,1.8,3.3,3.9,6.3,6.2,9.3,1.3,1.7,2.6,3.3,3.8,5,7.5,10.4,10.7,22,9.4,34.8-.5,4.9-1.8,9.7-3.6,14.3-1.1,2.9-2.3,5.7-3.5,8.5-1,2.5-2.2,5.1-3.2,7.6-1.6,4-2.3,8.2-2.8,12.5-.6,5.8,1.1,10.9,4.8,15.3,2.7,3.2,5.8,5.6,9.5,7.4,2.8,1.3,5.8,1.9,9,1.7,4.5-.3,8.8-1.3,13.1-2.4,6.4-1.7,12.8-3.6,19.2-5.2,8.5-2.2,8.5-2.1,16.3-6.1,1-.5,2-1.1,3-1.6,6.3-3.4,12.6-6.7,18.9-10,1.9-1,3.9-1.9,5.9-2.8.5-.2,1-.5,1.7-.9-.6-.3-1-.6-1.4-.8-1.2-.7-2.5-1.2-3.6-2-2.8-1.9-5.6-3.9-8.4-5.8-2.9-2-4.3-4.8-4.4-8.2,0-1.1,0-2.3.1-3.4.6-4.2,4.1-6.4,8.2-5.3,4.8,1.3,8.9,3.7,12.1,7.7,2.7,3.4,5,6.9,6.3,11.1,0,.2.2.4.3.7,0,0,.1,0,.4.2.2-.2.5-.4.8-.7,4.5-5.8,10.4-9.6,17-12.6,1.6-.7,3.4-1.2,5.1-1.5,4.8-.8,8.8,2.7,9.4,7,.1,1,.2,1.9.2,2.9-.1,3.2-.9,6.2-2.1,9.2-1.2,3-3.2,5.4-6.2,6.9-3.3,1.7-6.8,3.1-10.3,4.2-2,.6-4.1.7-6.2.4-2.1-.3-3.9-1.1-5.5-2.4-.5-.4-.9-.8-1.5-1.1-2.5,3.3-4.4,7.7-.3,10.7,1.6,1.2,3.5,1.7,5.4,2,2.4.4,4.6,0,6.9-.2,2.8-.1,5.4-.2,8.2-.7,4.2-.7,8.2-1.8,12.4-2.5s6.9-1,10.7,1.4c1.7,1.1,3.6,1.3,5.6,1.3,1.9,0,3.7-.7,5.1-2,1-.9,1.9-2,2.7-3.1,1.1-1.7,2.2-3.4,3.2-5.1,2.7-4.4,5.6-8.7,9-12.7,2.8-3.2,6-5.9,9.8-7.8,9.2-4.7,18.4-4.8,27.3.7,4.4,2.7,8.6,5.5,12.8,8.3,3,2,6,3.8,9.2,5.3,2.6,1.2,5.2,2.3,7.8,3.5,3.8,1.6,7.8,2.7,11.9,3.3,3.2.5,6.5.3,9.7,0,3.8-.5,7.5-1.5,11.1-2.5,5.5-1.5,11-2.7,16.6-3.3,5.6-.6,11.2-.6,16.7.5,5.2,1,10.5,2.2,15.7,3.2,3.5.7,7,1.4,10.5,1.9,6.8,1,13.3,0,19.4-2.9,3.3-1.5,6.4-3.5,9.5-5.3,2.6-1.5,5.1-3.2,7.6-4.7,5.1-3.1,10.7-5.1,16.6-5.8,1.8-.2,3.7-.3,5.6-.3,2.9,0,5.8.3,8.7.9,2.6.5,5,1.3,7.3,2.6,1.2.7,2.4,1.3,3.6,2,2.5,1.4,5.1,2.4,7.9,3,2.1.5,4.2.4,6.2-.5,1.5-.7,3.1-1.5,4.6-2.2,3.1-1.5,6.2-3.1,9.4-4.5,4.4-1.9,9.1-2.8,13.9-3.2,6-.5,11.4,1,16.3,4.5,1.2.9,2.5,1.8,3.8,2.7,4.3,3,8.8,5.4,13.7,7.3.7.3,1.4.5,2.1.6.1,0,.3,0,.6,0,0-.5,0-1.1,0-1.6-.5-2.5-.2-5,.4-7.5.7-2.8,1.8-5.4,3.3-7.8.9-1.4,2-2.8,3.1-4,2.2-2.2,4.8-2.9,7.8-2.3,1.4.3,2.8.8,4.1,1.5,2.1,1.1,3.2,3,3.1,5.4,0,2.7-.8,5.3-2,7.7-.9,1.8-2.1,3.4-3.6,4.9-2,2-4.2,3.8-6.6,5.3-1.5.9-1.8,1.1-1,2.5.8,1.3,2.1,1.9,3.4,2.6,1.1.6,2.2,1.2,3.3,1.5,2.1.6,4.4.5,6.5,0,2.2-.5,4.3-1.5,6.3-2.6.4.6.3,1.5,0,2.1s-1,1.1-1.6,1.5c-6.2,4.1-15,1.9-21-1.9-.9-.6-1.7-1.3-2.4-2s-1.2-1-2.1-1.1c-8.2-1.4-15.5-5.1-22.2-9.9-.7-.5-1.3-.9-2-1.4-4.4-3.2-9.2-4.1-14.5-3.4-5.5.8-10.7,2.4-15.6,5-1.8,1-3.6,1.9-5.4,2.8-1.1.6-2.3,1.2-3.5,1.7-3.1,1.4-6.4,1.7-9.7.9-2.8-.7-5.6-1.7-8.1-3.2-1-.6-2.1-1.2-3.1-1.8-2.8-1.7-5.8-2.8-9-3.4-9.6-1.8-18.5-.2-26.8,4.9-4.3,2.6-8.6,5.2-12.9,7.8-3.5,2-7.2,3.6-11.2,4.6-5.8,1.3-11.6,1.5-17.4.3-4.4-.9-8.7-2-13-3-4.8-1.1-9.6-2.2-14.6-2.6-7-.6-13.9,0-20.7,1.7-3.5.9-7,1.8-10.5,2.8-4,1.1-8,1.8-12.2,2.1-3.5.3-6.9-.3-10.4-1-1-.2-1.9-.4-2.8-.7-8.5-2.7-16.7-6-24.2-11.2-4.1-2.8-8.4-5.5-12.7-8.1-4.2-2.5-8.9-3.6-13.8-3-4.7.5-8.9,2.3-12.6,5.3-1.6,1.3-3.2,2.8-4.6,4.3-3.5,3.8-6.4,8.2-9.2,12.5-1.1,1.7-2.1,3.4-3.4,5.1-.9,1.2-1.9,2.4-3.1,3.4-4.6,3.9-9.7,5.5-14.6,2.5-5.2-3.1-10.4-1.6-15.8-.5-6.6,1.3-15.4,2.8-22.2,2.4-4.4-.3-9.3-4.1-10.6-8.4-1.1-3.7.8-7.5,0-11.1-.5.1-1,.2-1.4.3-3.1,1.4-6.3,2.7-9.3,4.1-4.7,2.2-9.3,4.6-13.9,6.9-1.2.6-2.4,1.3-3.6,2-3.6,2-7.3,3.9-10.9,5.8-1.3.7-2.7,1.2-4.1,1.5-7.8,1.8-15.6,3.9-23.2,6.2-4.1,1.2-8.3,2.1-12.5,2.8-6.9,1.1-13-.6-18.7-4.4-3.8-2.6-7-5.8-9.4-9.7-2.4-3.9-3.7-8.1-3.6-12.7.1-6.9,1.5-13.5,4.2-19.8,1.6-3.8,3.3-7.6,4.9-11.4,1.7-4,2.9-8.2,3.8-12.5,1.5-7.7.6-15.2-1.9-22.5-1.4-4.3-3.6-8.2-6.3-11.7-2.1-2.8-4.3-5.5-6.2-8.4-1.5-2.2-2.9-4.5-4.2-6.8-2.9-5.1-3.5-10.5-1.9-16.2,1.2-4.4,2.7-8.7,4.6-12.8,2.8-6.3,5.6-12.6,8.4-18.9,2.2-5,3.9-10.1,5-15.5,1.5-7.4,1.2-14.8-.1-22.2-1.6-8.8-4.5-17.2-8-25.5-1.8-4.3-3.8-8.6-5.6-12.9-1.3-3.2-2.4-6.4-3.5-9.6-1.5-4.6-1.7-9.2-.4-13.9,1-3.3,2-6.7,3.3-9.9,1.4-3.7,3.1-7.3,4.6-11,1.4-3.3,2.7-6.6,4-9.9,2.8-7.5,3.4-15.1,2-23-.9-5-2-10-3.3-14.9-1-3.9-2-7.9-2.9-11.8-2.2-9.2-1.8-18.3.3-27.4,2-8.7,5.4-16.8,9.9-24.4,2.1-3.6,4-7.4,5.9-11.1,1-2,1.7-4,2.1-6.2.5-2.4.4-4.8-.3-7.2-.6-2.4-1.5-4.8-2.6-7.1-2.3-4.8-5.1-9.4-8.4-13.6-2.1-2.8-4.4-5.6-6.5-8.5-3.9-5-7.2-10.4-9.3-16.4-.7-1.9-1.2-3.9-1.6-5.8-.9-4-.5-8,.6-12,1.3-4.5,3.4-8.6,6.2-12.3,1.2-1.6,2.6-3.1,4.3-4.2,1.8-1.2,3.7-1.9,5.9-1.8,2.2.1,4,1.1,5.3,2.9.9,1.3,1.2,2.8.6,4.4-.2.4-.5.7-1.2,1.5h0ZM142.9,794.3c.8,1.5,2.1,2.6,3.3,3.7,2.6,2.5,5.7,3.1,9.1,2.1,2.6-.8,5.2-1.8,7.6-3.1.8-.5,1.7-1,2.3-1.7,2.6-3.2,3.8-6.9,3.5-11-.2-2.8-2.3-4.2-5-3.5-1.6.4-3.3.9-4.8,1.7-2.8,1.4-5.5,3-8.2,4.6-2.5,1.6-4.8,3.5-6.8,5.8-.4.4-.7.9-1.1,1.4h0ZM138.2,790.9c0-.3,0-.6-.2-.9-1.7-4.2-4.1-7.9-7.4-11.1-2.4-2.3-5.3-3.4-8.4-4.2-.3,0-.6,0-.9,0-1.2,0-2,.6-2.4,1.8-.9,2.7,0,6.3,2.4,8,2.6,1.9,5.2,3.7,7.8,5.5,2.3,1.5,4.9,2.3,7.5,2.9.6-.7,1.1-1.2,1.6-1.8h0ZM533.4,798.7c.3,0,.5,0,.7-.2,3.4-2,6.5-4.6,8.9-7.8.6-.8,1-1.6,1.5-2.5.8-1.7,1.2-3.5,1.3-5.4,0-1-.2-1.9-1.1-2.5-2.4-1.7-5.9-1.4-7.7.9-3,3.8-4.7,8.1-4.9,12.9,0,.6,0,1.1.2,1.7.2,1,.3,2.1,1.2,2.9h0Z"/>
</svg>