<?xml version="1.0" encoding="UTF-8"?>
<svg id="Layer_1" data-name="Layer 1" xmlns="http://www.w3.org/2000/svg" version="1.1" viewBox="0 0 595.3 841.9">
  <defs>
    <style>
      .cls-1 {
        fill: #000;
        stroke-width: 0px;
      }
    </style>
  </defs>
  <path class="cls-1" d="M248.8,808.9c-1-.5-1.5-.6-2-.9-5-3.1-10.6-4.3-16.5-4.4-4,0-8.1,0-12.1.2-10.6.5-21,1.7-31.5,3-7.3.9-14.7,1.5-22,2.2-10.5.9-21.1,1.5-31.5,2.8-6.3.8-12.6,1.9-18.8,3.1-8.1,1.5-16.1,3-24.3,3.9-5.8.6-11.5.9-17.3.3-6.2-.6-12.3-1.8-18-4.1-13.3-5.5-23.2-14.4-29-27.3-2.2-5-3.2-10.3-3.8-15.6-.8-6.7-.6-13.4.2-20.1.8-6.5,2.2-13,3.8-19.3,2.8-11.4,5.4-22.8,8.1-34.2,1.9-8,3.7-16,5.5-23.9,1.1-4.8,2-9.6,3-14.4,1.8-8.1,3.7-16.3,5.5-24.4,1.5-6.8,2.7-13.9,2.2-20.9-.4-5.8-.5-11.4-1.8-17.4-.3-2-.6-3-.7-4.5,0-1-.1-2,0-2.7.2-.8,1-.7,1.1.1.4,1.6.6,3.3,1.1,4.9,1,3.4,1.6,6.9,2.2,10.4.6,3.8,1.4,7.6,2,11.4,1.2,7.8.9,15.5-.2,23.2-.3,2.5-.5,4.9-.9,7.4-.7,5.1-1.5,10.2-2.2,15.2-1.7,12.5-4.1,25-6,37.5-2.1,13.6-5.1,27.1-7.6,40.7-1.8,9.5-2.6,19.1-1.8,28.7.2,2.5.6,4.9,1,7.4,1.5,7.9,5.3,14.6,11.2,20.3,2.1,2,4.5,3.8,6.8,5.7,2.3,1.8,4.9,3,7.7,4,6.8,2.4,13.9,3.7,21.2,3.6,7.3,0,14.6-.7,21.8-1.8,6.2-.9,12.4-1.9,18.6-2.8,7.7-1.1,15.5-1.7,23.3-2.3,10-.7,20.1-1.3,30.1-2,6.7-.5,13.4-1.1,20.1-1.5,7.4-.5,14.7-.8,22.1-1,5.8-.2,11.6,0,17.3,1.3,2.2.5,4.4,1.1,6.4,2,2.4,1.1,4.3,2.8,5.5,5.1.1.3.2.6.5,1.4h0Z"/>
  <path class="cls-1" d="M259.2,30.1c-.7.6-1,.9-1.3,1.1-6.9,3.5-13.7,7.2-21.2,9.5-3.8,1.2-7.7,1.8-11.6,2.5-6.4,1.1-12.8,1.8-19.3,2-10,.4-20,.6-30.1.9-8.2.2-16.4-.4-24.6-1.2-7.8-.7-15.5-1.5-23.2-2.2-8.1-.8-16.1-1.7-24.2-2.6-8.4-1-16.8-1.4-25.3-1.3-5.2,0-10.2.7-15.2,2.2-12.3,3.6-20,11.6-23.6,23.5-.5,1.7-1,3.4-1.3,5.2-1.9,9.8-2.5,19.6,0,29.5,1.8,7.1,3.7,14.1,6,21.1,1.8,5.6,3.6,11.1,5.3,16.7,1.9,6.2,3.3,12.6,4.2,19,1.2,8.2.9,16.5-.1,24.8-1.1,8.9-2.7,17.6-4.8,26.3-2,8.4-4.9,16.5-8.9,24.2-1.1,2.1-2.3,4.1-3.8,5.9-1.5,1.8-3.2,3.3-5.1,4.5-.4.3-.9.5-1.3.6-.5.2-1-.3-.9-.8,0-.5.2-.9.4-1.4.8-1.9,1.5-3.8,2.3-5.6,4.1-9.1,6.8-18.6,8.5-28.4,1.2-7.2,2.3-14.4,2.9-21.7.8-10.3.4-20.6-2.3-30.7-1-3.9-2.1-7.9-3.2-11.7-2.1-6.9-4.2-13.8-6.3-20.7-1.9-6.1-3.4-12.2-4.7-18.4-1-4.9-1.6-9.8-1.5-14.7.2-9,1.4-17.8,4.2-26.3,2.9-8.9,8.1-16.3,15.6-22,4.9-3.8,10.5-6.1,16.6-7.4,7.6-1.6,15.3-1.8,23-1.3,8.9.6,17.8,1.9,26.6,3.3s17.7,2.5,26.6,3.7c5.6.8,11.2,1.5,16.7,2.2,6.2.8,12.4,1.3,18.6,1.3,9.9,0,19.7,0,29.6-.1,6.7,0,13.4-.5,20.1-1.3,9.1-1.1,17.9-3.2,26.4-6.7,2.7-1.1,5.4-1.9,8.2-2.9.5-.2,1.1-.2,2.2-.4h0Z"/>
  <path class="cls-1" d="M337.8,26.5c.1.1.3.2.4.3,1,2.5,2.9,4.3,5.1,6,5.1,3.8,10.9,6.4,17.3,7.5,4.2.7,8.4,1.3,12.6,1.8,9.6,1.2,19.2.9,28.8.2,7-.5,13.9-1.6,20.9-2.5,8-1,16-2,24-3,6-.7,12-1.4,18.1-2.1,9.3-1,18.6-1.6,28-1.9,10.3-.2,20.5.7,30.5,2.4,4,.7,7.9,1.7,11.8,3.1,4.2,1.6,8,3.8,11.5,6.6,7.2,5.8,12.7,12.7,16.5,20.8,4.7,10.1,7.7,20.6,8.8,31.6.6,5.8,0,11.5-1,17.2-.9,6.1-2.6,12.1-4.8,17.9-1.8,4.9-3.4,9.8-4.6,14.8-3,12.3-8,28.4-8,41,0,7.3.2,11.4,2.4,18.9,1.7,5.9,2.2,7.9,4.9,16,1,2.9,1.9,6.8-.3,6.7-.6,0-1.6-2.8-2-3.6-1-2.3-2-4.6-3-7-1.9-4.5-3.9-8.9-5.8-13.4-3.5-8.1-4.2-17.1-4.3-25.8-.2-9.9.3-19.9,1.6-29.7.9-6.9,2.5-13.7,4.8-20.4,1.7-5,3.6-10,4.6-15.2.7-3.8,1.4-7.6,2-11.4.6-4.2.5-8.5,0-12.7-1-9.4-3.4-18.5-7.2-27.3-2.3-5.5-5.9-10.3-10.5-14.5-3.8-3.5-8.3-5.8-13.3-7.4-5.2-1.7-10.7-2.9-16.2-3.7-7.1-1-14.3-1.8-21.5-1.7-6.9.2-13.7.3-20.5,1-18.4,1.8-36.7,4-54.9,6.4-8.8,1.2-17.7,2-26.7,2.1-4.8,0-9.5-.3-14.3-.8-5.1-.5-10.1-1.2-15.1-2.4-6.4-1.4-12-4.1-16.8-8.3-1.2-1-2.2-2.3-3.1-3.5-.7-.9-1.1-2-1.2-3.1,0-.4,0-.8.6-1h0Z"/>
  <path class="cls-1" d="M564.9,609.2c-1,2.4-1.9,4.2-2.6,6.1-1.8,4.9-2.4,10-2.5,15.2-.2,10.8-.3,21.6.5,32.4.3,4.9,1,9.7,1.6,14.6,1.1,8.4,2.3,16.8,3.5,25.3,1.5,10.9,3.6,21.7,5.7,32.5,1.4,7.2,2.3,14.4,1.8,21.7-.6,7.5-1.7,15-3.7,22.3-2.2,7.7-6.1,14.6-11.4,21-1.8,2.1-3.8,4-6.1,5.7-5.1,3.8-10.8,6.9-16.9,9.3-7.7,3.1-15.8,3.9-24.1,2.8-2.4-.3-4.9-.7-7.3-1.1-6.5-1.2-13-2-19.6-2.8-6.1-.8-12.1-2.1-18-3.7-4.3-1.2-8.6-2.3-12.9-3.5-8-2.2-16.1-3.4-24.4-4-15.3-1.1-30.6-1-46,0-6.6.4-13.1,1.4-19.6,2.5-4,.7-8,1.3-12,1.4-.5,0-1,0-1.6,0-.1,0-.3-.2-.4-.2-.2-.5.3-.7.6-.9,2.3-.9,4.6-2,7-2.8,7-2.3,14.2-3.7,21.5-4.8,8.5-1.3,17.1-1.9,25.8-2.3,10-.4,20.1-.5,30.1-.2,7.4.2,14.6,1.1,21.6,2.9,3.9,1,7.8,2,11.7,3,8,2.2,16.2,3.8,24.5,4.8,5.2.7,10.4,1.7,15.6,2.5,2.3.3,4.5.7,6.8.9,5.4.6,10.6,0,15.6-1.8,6.3-2.2,12.1-5.2,17.3-9.2,1.7-1.3,3.3-2.8,4.8-4.5,5-5.6,8.4-12,10.3-19,1.4-5.2,2.6-10.5,3.3-15.8.7-5.4.8-10.9,0-16.3-1-6.8-2.1-13.6-3-20.5-1.2-8.6-2.4-17.2-3.5-25.8-.9-6.8-1.5-13.5-2.3-20.3-1.1-9.7-1.5-19.5-1.3-29.3.2-6.4.4-12.8.9-19.2.4-5.1,1.8-10.1,4.4-14.8.7-1.3,1.5-2.6,2.7-3.5.3-.3.8-.4,1.7-.7h0Z"/>
  <path class="cls-1" d="M562.4,278.7c.7-.3,1.9.6,2.4,1,.7.8,1.1,1.7,1.5,2.7,1.4,4,1.7,7.1,2.1,11.5.3,3.3.8,9.5.7,13.7,0,9.4-.5,18.8-1.2,28.1-.8,10.5-2.9,20.8-6.7,30.7-2.5,6.6-5,13.3-7,20-2.6,8.5-4.6,17-6,25.8-2.4,14.7-1.4,29.2,3.3,43.4,2,5.8,4.2,11.5,6.7,17.1,3.1,7.1,5.9,14.3,7.6,21.9,1.3,6.2,2.4,12.4,3,18.7.8,8.3,1.2,16.6.7,25-.2,3.7-.8,7.3-2,10.8-.2.5-.2,1.1-1,1.3,0-.2-.3-.4-.3-.6-.2-1.3-.3-2.5-.4-3.8,0-1.4-.1-2.7,0-4.1.3-9.3-.6-18.6-2-27.8-1.2-7.9-3-15.7-5.8-23.3-1.7-4.8-3.8-9.4-6.1-14-3.5-6.9-6.6-14-9-21.4-2.6-8-4-16.2-4.3-24.6-.3-9,.8-17.7,2.8-26.5,2.7-11.4,6.7-22.3,11.1-33.1,1.5-3.7,3.1-7.3,4.5-11,3.4-8.9,5.5-18.1,6.3-27.6,0-1,.2-1.9.2-2.9.8-9.6,1.2-19.1.9-28.7-.1-4.8-.4-9.6-.9-14.4-.2-2-.5-3.9-1-5.8-.2-.8-.6-2,.2-2.4h0Z"/>
  <path class="cls-1" d="M44.5,563.6c-.6.2-1,.5-1.3.5-1.4.2-2.7-.2-3.8-1-1-.6-1.9-1.3-2.6-2.2-1.1-1.3-2.2-2.7-3-4.1-3.7-6.9-6.2-14.2-7.4-21.8-.6-3.7-.3-7.3.4-11,.7-3.6,1.7-7.2,2.9-10.7,4-11.1,8.9-21.8,15.6-31.6.9-1.3,1.7-2.6,2.5-3.9,4-5.8,7-12,9.5-18.5,1.1-2.9,2.2-5.9,3.2-8.8,2.2-6.1,2.7-12.4,1.8-18.7-1.9-13.3-5.6-26.2-11.5-38.4-3.2-6.7-6.4-13.4-9.7-20.1-6.2-12.5-10.4-25.5-13.3-38.9-2.3-10.9-3.4-21.9-3-32.9.2-5.6.6-11.2,1.4-16.8.4-2.4,1-4.7,1.9-7,.1-.4.3-.7.8-1,0,.3,0,.7,0,1-1,4.6-1.3,9.4-1.3,14.1,0,8,.2,16,1,24,.5,5.4,1.7,10.8,3,16.1,2.4,10.5,5.9,20.7,10.5,30.5.8,1.6,1.6,3.2,2.4,4.8,3.7,7.2,7.5,14.3,11.3,21.5,6.8,12.6,11,25.9,13.3,39.9.5,3.1.8,6.2.9,9.3,0,4.7-.6,9.3-2.1,13.7-1.7,5.1-3.6,10.2-5.8,15.1-2.2,4.8-4.8,9.5-7.9,13.9-1.4,2.1-2.8,4.2-4.3,6.2-6.5,9.6-11.6,19.8-15.6,30.6-1.1,3-2,6.1-2.6,9.3-.8,4.4-.7,8.8,0,13.2.7,4.8,2,9.4,3.9,13.9.6,1.3,1.2,2.6,1.9,3.9,1.2,2.1,2.8,3.8,5,4.9.5.2.9.6,1.6,1.1h0Z"/>
  <path class="cls-1" d="M302.6,817.1c-.2-1.3.5-2,1-2.7.9-1.2,1.9-2.2,2.9-3.3,4.8-5,7.8-10.8,9.4-17.3.3-1.2.4-2.5.4-3.8,0-1.8-.7-3.4-1.9-4.8-1.6-1.9-3.5-2.3-5.8-1.2-1.4.7-2.8,1.6-3.9,2.6-1.4,1.2-2.6,2.7-3.9,4.1-.8.9-1.4,2-2.1,3-.4.6-.9,1.2-1.4,1.7-1.5,1.6-3.5,1.6-5,0-.5-.5-1-1.1-1.4-1.7-1.2-1.5-2.3-3-3.5-4.4-1.3-1.6-2.8-3-4.6-4-.9-.5-1.8-.8-2.8-1.1-1-.3-1.7.1-1.8,1.1-.1,1-.2,2.1,0,3.1.3,2.5,1.1,4.8,2.1,7.2,1.9,4.4,4.7,8.3,8,11.9,1.8,1.9,3.6,3.8,5.4,5.7.4.5,1,.9,1.5,1.2,1,.5,1.3,1.4,1.7,2.3.3.7-.3,1.5-1.1,1.5s-1.2,0-1.7-.4c-.9-.5-1.7-1.1-2.4-1.8-2.4-2.2-4.8-4.4-7.1-6.8-4.4-4.6-7.9-9.8-9.9-15.8-.8-2.4-1.4-4.8-1.2-7.3,0-1.1.3-2.2.7-3.3.8-2.1,2.5-3.3,4.8-3.2,1.2,0,2.5.2,3.7.6,2.3.7,4.2,2,6,3.5,1.8,1.5,3.2,3.3,4.6,5.1.5.7,1.1,1.4,1.7,2.3.5-.5,1-.8,1.3-1.2,1.5-1.7,2.8-3.4,4.3-5,1.6-1.7,3.6-3.1,5.7-4.3,5.1-3,9.7-1.3,12.6,2,2.5,2.8,3.5,6.1,3.1,9.8-.3,2.6-1.2,5-2.2,7.4-2.5,5.6-5.9,10.6-10.9,14.5-1.4,1.1-3,2.1-4.7,2.7-.4.1-.8.1-1.3.2h0Z"/>
  <path class="cls-1" d="M295.2,26.6c.9-1,1.5-1.6,2.1-2.2,1.9-2.1,4-3.9,6.5-5.2,1.4-.7,2.8-1.3,4.4-1.4,3.3-.3,6,.8,7.9,3.4,1.9,2.5,2.5,5.4,2.2,8.5-.2,2.2-.8,4.3-1.8,6.3-3.6,7.3-8.3,13.8-14.2,19.5-1,1-2.2,1.8-3.5,2.6-.8.5-1.8.8-2.8,1-1.4.3-2-.3-2.5-1.7-.2-.5-.4-1-.7-1.4-.8-.9-1.6-1.7-2.4-2.5-4.8-4.7-8.2-10.3-11.1-16.2-1.1-2.1-1.8-4.4-2.2-6.8-.6-3.5,0-6.8,2-9.8.9-1.2,2-2.3,3.2-3.2,2.9-1.9,6.2-1.6,8.7.9,1.3,1.3,2.1,2.8,2.8,4.5.4,1.1.8,2.1,1.3,3.6h0ZM294.9,56.2c1.5-.6,2.6-1.8,3.7-3,5-5.7,9.1-11.9,12.1-18.7.8-1.9,1.4-3.8,1.7-5.8.2-1.5,0-3-.6-4.4-.8-1.8-2.2-2.5-4.2-2-1.5.3-2.9,1-4.2,1.9-2.8,2.1-5.1,4.5-6.7,7.6-.2.4-.4.8-.6,1.2-1,1.3-2.8,1.3-3.6,0-.4-.6-.5-1.3-.7-2-.5-2-1-3.9-1.6-5.9-.4-1.2-.9-2.3-1.6-3.3-1.3-1.9-2.9-2.1-4.7-.8-2.2,1.6-3.5,3.8-3.7,6.5-.1,1.4,0,2.8.3,4.2.6,3.2,2.1,6.1,3.6,9.1,2.9,5.4,6.8,10.2,10.4,15.2,0,.1.3.2.6.3h0Z"/>
</svg>