<?xml version="1.0" encoding="UTF-8"?>
<svg id="Layer_1" data-name="Layer 1" xmlns="http://www.w3.org/2000/svg" version="1.1" viewBox="0 0 595.28 841.89">
  <defs>
    <style>
      .cls-1 {
        fill: #000;
        stroke-width: 0px;
      }
    </style>
  </defs>
  <path class="cls-1" d="M26.39,733.23c.18-9.43.28-18.86.56-28.29.39-12.81.86-25.62,1.41-38.42.32-7.57.86-15.13,1.29-22.69.06-1.05.06-2.1.05-3.14-.04-7.34-.13-14.67-.79-21.99-.19-2.09-.17-4.19-.3-6.28-.39-6.19-.74-12.39-1.24-18.58-.49-5.95-1.41-11.84-2.58-17.7-.9-4.5-2.04-8.97-2.39-13.56-.25-3.29-.63-6.59-.62-9.89.02-9.59.1-19.19.38-28.77.16-5.55.73-11.1,1.13-16.64.85-11.98,1.72-23.96,2.54-35.94.17-2.49.12-5,.18-7.49.17-8.38.17-16.77.56-25.14.62-13.13.68-26.27.67-39.41,0-13.62-.18-27.25-.39-40.87-.06-4.19-.47-8.37-.71-12.55-.23-4.1-.46-8.21-.66-12.32-.25-5.24-.71-10.46-1.87-15.59-.52-2.28-1.08-4.55-1.77-6.78-1.56-5.01-1.88-10.08-1.39-15.29,1.04-10.92,2.86-21.73,4.28-32.6.93-7.19,1.71-14.41,2.54-21.61.08-.72.09-1.45.1-2.17.36-15.96.7-31.92,1.07-47.87.14-5.88.29-11.77.52-17.65.18-4.67.57-9.33.72-14,.09-2.97-.1-5.96-.17-8.94-.01-.48-.05-.97-.03-1.45.24-4.51.1-9.02.37-13.53.32-5.23.05-10.47-.52-15.69-.64-5.85-1.17-11.71-1.81-17.56-.7-6.41-1.54-12.8-2.2-19.22-.54-5.29-.95-10.59-1.34-15.9-.33-4.58-.7-9.17-.78-13.76-.12-6.28.04-12.57.04-18.86,0-4.72,2.46-7.87,6.35-10.08,1.25-.71,2.61-1.28,3.98-1.73,2.91-.95,5.84-1.83,8.78-2.66,3.13-.88,6.32-1.15,9.57-.84,3.22.31,6.38.87,9.51,1.69,4.15,1.08,8.38,1.66,12.67,1.66,8.54,0,17.09-.08,25.63-.06,5.41.02,10.79-.29,16.18-.61.8-.05,1.61-.09,2.41-.12,6.04-.25,12.08-.37,18.11-.77,8.2-.54,16.39-1.2,24.53-2.4,4.7-.69,9.43-1.21,14.15-1.75,5.12-.59,10.25-1.18,15.38-1.68,3.37-.33,6.75-.65,10.13-.67,3.13-.01,6.28.25,9.39.65,9.19,1.19,18.35,2.59,27.54,3.74,5.67.71,11.38,1.15,17.1,1.38,5.88.24,11.74.76,17.61,1.14,2.73.18,5.47.3,8.21.49,10.62.75,21.25,1.09,31.89,1.13,5.41.02,10.78-.59,16.15-1.15,7.69-.81,15.37-1.77,23.07-2.48,6.9-.64,13.82-1.08,20.75-1.19,2.65-.04,5.3-.41,7.96-.5,8.38-.29,16.75-.61,25.13-.77,9.83-.19,19.67-.2,29.5-.32,2.66-.03,5.32-.18,7.98-.25,5.64-.15,11.28-.24,16.92.15.32.02.64.03.97.03,7.25.14,14.5.31,21.75.41,2.25.03,4.52-.03,6.76-.22,2.7-.22,5.4-.39,8.1-.61,2.29-.19,4.37.2,6.66.29,1.43.05,2.56-.49,4.06-.41,2,.1,4.01.18,6.02.26,5.7.21,11.41.35,17.11.39,2.8.02,5.61.08,8.41,0,2.34-.06,4.21-.24,6.55.42,2.25.62,4.49,1.27,6.76,1.83,4.3,1.05,7.49,3.6,9.94,7.19.97,1.42,1.53,3.02,1.69,4.73.13,1.36.31,2.73.35,4.09.18,5.64.32,11.28.45,16.92.02.72.02,1.46-.08,2.17-.61,4.73-.67,9.48-.66,14.24.02,9.35-.02,18.7.05,28.05.06,8.31-.19,16.6-.81,24.89-.21,2.81-.45,5.62-.7,8.43-.3,3.31-.18,6.59.23,9.89.27,2.16.4,4.33.59,6.5.01.16.01.32.02.48.07,6.37.58,12.7,1.13,19.05.78,8.99,1.2,18.02.71,27.05-.17,3.22-.19,6.44.15,9.66,1.01,9.55.94,19.16,1.19,28.74.2,7.99-.24,15.95-.99,23.9-.34,3.53-.34,7.08-.55,10.62-.15,2.49-.28,5-.65,7.46-.54,3.59-.91,7.19-1.15,10.82-.29,4.42-.69,8.84-1,13.26-.21,2.97-.28,5.96-.54,8.93-.37,4.25-.9,8.5-1.28,12.75-.43,4.82-.72,9.63-.66,14.48.09,7.01,0,14.03-.11,21.04-.04,3,.19,5.97.55,8.92.45,3.69.71,7.38.89,11.08.12,2.49.37,4.99.73,7.45.97,6.54,2.1,13.05,3.02,19.59.48,3.43.84,6.89.95,10.34.29,8.62.42,17.25.6,25.87.12,5.88.09,11.77.36,17.65.25,5.47.59,10.94,1.36,16.38.74,5.27.94,10.6.99,15.92.16,15.15.22,30.31.3,45.47.02,4.61-.71,9.16-1.29,13.71-.25,2-.51,4-.7,6-.78,8.1-1.44,16.22-2.32,24.31-.64,5.85-1.54,11.66-2.35,17.49-.83,5.99-1.79,11.96-2.52,17.95-.64,5.28-1.04,10.59-1.54,15.88-.51,5.54-.78,11.11-1.57,16.61-1.17,8.19-1.09,16.4-.87,24.62.07,2.72.62,5.44,1.13,8.13.93,4.91,1.97,9.79,3.3,14.61,1.72,6.22,2.61,12.62,3.69,18.98.26,1.51.51,3.02.83,4.52,1.57,7.51,2.55,15.1,3.31,22.72.46,4.57.62,9.17,1.1,13.74,1.26,11.91.51,23.84.41,35.76-.03,3.5-.88,6.92-.82,10.38.07,3.88-.91,7.99-1.68,11.78-.31,1.53-.65,3.07-1.32,4.47-1.23,2.57-3.48,4.54-5.98,5.92-5.25,2.9-11.85,4.43-17.71,5.45-2.83.5-5.63.08-8.43-.24-4.72-.55-9.44-1.14-14.15-1.77-4.48-.6-8.92-1.39-13.27-2.64-5.68-1.63-11.49-2.49-17.34-3.17-3.68-.43-7.37-.84-11.06-1.15-1.92-.16-3.87-.22-5.79-.09-5.64.39-11.27.45-16.92.22-4.29-.18-8.54,0-12.72,1.06-1.56.4-3.11.85-4.65,1.3-5.02,1.48-10.11,1.81-15.31,1.33-3.53-.32-7.08-.54-10.62-.55-8.31-.02-16.58-.71-24.85-1.4-3.05-.26-6.11-.35-9.17-.54-4.91-.31-9.81-.65-14.71-.95-3.7-.22-7.4-.4-11.11-.59-5.31-.27-10.62-.56-15.94-.8-1.77-.08-3.55-.16-5.31-.03-4.91.34-9.83.37-14.74.11-6.86-.37-13.7-.24-20.51.71-3.71.52-7.4.41-11.1.2-6.63-.38-13.2-.03-19.76,1-2.22.35-4.49.47-6.74.54-3.14.1-6.29.09-9.43.07-4.76-.03-9.49.39-14.24.73-4.01.29-8.05.3-12.08.34-4.44.04-8.86.27-13.25.96-1.67.26-3.33.63-4.99.92-3.91.68-7.85.75-11.81.66-4.19-.1-8.4-.35-12.56-.06-6.69.46-13.37.42-20.05.11-5.17-.24-10.3.12-15.45.55-4.49.38-9.01.51-13.51.78-4.1.24-8.2.51-12.3.78-2.49.16-4.98.37-7.48.51-4.91.29-9.82.56-14.73.82-6.76.37-13.53.58-20.3.29-2.33-.1-4.65-.44-6.98-.57-4.02-.21-8.05-.36-12.08-.5-2.99-.11-5.92-.64-8.86-1.16-4.26-.74-7.93-2.66-11.18-5.4-1.79-1.5-3.47-3.13-5.17-4.73-.94-.89-1.74-1.9-2.24-3.12-.15-.36-.35-.79-.65-.98-1.23-.75-1.64-1.99-1.9-3.24-.33-1.57-.62-3.17-.7-4.77-.93-18.68-1.39-37.38-1.1-56.09.07-4.27.31-8.54.47-12.81-.01,0-.03,0-.04,0ZM32.4,712.89s.04,0,.07,0c0,1.77.02,3.55,0,5.32-.1,7.01.01,14.03-.43,21.03-.19,2.98-.29,5.96-.37,8.94-.2,7.74-.34,15.47-.54,23.21-.16,6.21-.33,12.41-.54,18.61-.13,3.87-.34,7.73-.48,11.6-.04,1.04-.07,2.11.1,3.13.52,3.08,1.55,5.92,4.11,7.97,1.51,1.21,2.91,2.56,4.46,3.71,2.2,1.63,4.36,3.36,7.01,4.22,3.61,1.17,7.3,2.02,11.11,2.16,3.7.13,7.41.19,11.11.37,2.17.11,4.33.4,6.5.58,7.17.6,14.33.34,21.49-.25,2.89-.24,5.77-.55,8.66-.83,5.05-.49,10.1-.99,15.16-1.45,3.45-.31,6.9-.69,10.36-.79,4.76-.13,9.5-.42,14.23-.92,5.14-.54,10.28-.83,15.45-.72,3.06.07,6.13.07,9.19.09,2.99.03,5.96-.19,8.91-.68,5.03-.84,10.07-1.21,15.17-1.02,4.84.19,9.66.13,14.47-.6,3.51-.53,7.06-.65,10.61-.43,2.25.14,4.5.4,6.75.47,4.02.12,8.06.31,12.08.16,5.48-.2,10.95-.3,16.43.02,4.27.25,8.54.28,12.79-.35,5.68-.85,11.39-1.04,17.12-.82,1.93.07,3.87.21,5.8.21,1.85,0,3.71-.04,5.54-.23,4.73-.48,9.44-1.11,14.21-1.17,2.74-.03,5.48-.06,8.22-.11,3.79-.07,7.57-.28,11.32-.87,6.63-1.03,13.31-1.31,20-1.27,3.38.02,6.77.07,10.15.2,2.98.11,5.95.35,8.93.52,3.54.21,7.08.52,10.62.6,4.04.09,8.04.4,12.06.81,4.97.51,9.94,1.02,14.92,1.35,7.08.47,14.14,1.02,21.16,2.14,3.03.48,6.09.77,9.14.12,1.65-.35,3.3-.75,4.93-1.21,5.16-1.45,10.42-2.12,15.77-1.94,3.96.14,7.89-.15,11.82-.52,5.06-.48,10.11-.87,15.2-.34,3.04.32,6.11.46,9.16.7,5.62.44,11.22,1.07,16.77,2.14,4.27.82,8.58,1.46,12.91,1.89,4.02.4,7.98,1.07,11.9,2.01,1.64.39,3.31.72,4.98.96,5.27.75,10.45.38,15.49-1.42,1.97-.7,3.91-1.51,5.91-2.13,2.09-.65,3.19-1.98,3.5-4.13.44-3.03.94-6.05,1.51-9.06.67-3.58,1.12-7.17,1.12-10.81,0-3.38-.01-6.77-.15-10.15-.28-7.09-.59-14.17-.99-21.26-.18-3.14-.64-6.25-.9-9.39-.54-6.34-1.05-12.69-1.53-19.04-.45-5.95-1.26-11.86-2.26-17.74-.3-1.75-.45-3.52-.68-5.27-.63-4.87-1.18-9.76-1.92-14.62-.82-5.33-1.82-10.64-2.74-15.96-.6-3.5-1.03-7.04-.97-10.58.1-6.45.39-12.89,1.13-19.3.4-3.44.92-6.87,1.3-10.31.25-2.24.32-4.5.52-6.75.5-5.7,1.04-11.39,1.55-17.09.16-1.85.22-3.7.39-5.55.44-4.73.95-9.46,1.36-14.2.67-7.71,1.03-15.44.73-23.19-.3-7.83.43-15.63.83-23.43.09-1.77.38-3.53.52-5.29.34-4.18.89-8.35.93-12.53.14-16.61.17-33.21.12-49.82-.02-7.01-.37-14.02-.56-21.03-.08-3.06-.22-6.12-.2-9.18.06-11.45.23-22.89.23-34.34,0-4.75-.17-9.51-.53-14.25-.31-4.01-.99-7.99-1.53-11.99-.98-7.27-1.88-14.55-2.15-21.89-.03-.72-.07-1.45-.18-2.17-.94-6.07-1.15-12.18-1.3-18.31-.14-5.72-.4-11.44-.93-17.14-.55-5.97-.63-11.91-.07-17.86.58-6.18.93-12.37,1.02-18.58.03-1.93.24-3.86.35-5.79.07-1.21.17-2.41.18-3.62.05-4.52.4-9.01.99-13.5.29-2.23.39-4.49.51-6.74.21-3.94.27-7.9.57-11.83.5-6.43,1.11-12.84,1.11-19.3,0-11.45.07-22.89.14-34.34.01-1.85.14-3.71.28-5.55.19-2.41.57-4.81.64-7.22.23-7.49.36-14.99.51-22.48.02-1.13-.07-2.25-.13-3.38-.1-2.17-.25-4.34-.31-6.51-.06-2.01.07-4.04-.06-6.04-.2-3.21-.47-6.43-.82-9.63-.43-4.01-.78-8.02-.47-12.06.15-1.92.13-3.86.06-5.79-.21-5.48-.68-10.95-.71-16.42-.08-13.7.01-27.41.08-41.11.01-2.25.09-4.53.41-6.75.47-3.37.51-6.74.53-10.13.02-2.82.1-5.64.11-8.46,0-2.26-.06-4.51-.09-6.77-.03-2.92-1.28-5.27-3.3-7.29-1.45-1.44-3.13-2.47-5.01-3.3-1.7-.75-3.37-1.48-5.22-1.82-1.87-.35-3.67-1.2-5.65-.68-.37.1-.8-.09-1.2-.08-.96.03-1.92.06-2.88.17-.88.1-1.74.37-2.62.43-2.73.19-5.47.38-8.2.44-6.37.15-12.74.17-19.08.81-2.4.24-4.78.73-7.19.93-3.77.3-7.56.41-11.34.66-4.68.32-9.35.03-14-.39-3.45-.32-6.89-.69-10.36-.81-3.22-.11-6.43-.47-9.64-.73-1.61-.13-3.21-.35-4.82-.38-9.75-.24-19.5-.52-29.25-.62-9.75-.1-19.51-.02-29.26.01-2.5,0-5,.07-7.49.25-5.14.37-10.29.76-15.41,1.29-4.08.43-8.16.97-12.21,1.67-8.33,1.45-16.63,3.11-25.02,4.24-8.72,1.18-17.46,1.89-26.27,1.55-9.34-.36-18.68-.84-28-1.56-8.76-.67-17.53-1.18-26.29-1.85-5.3-.4-10.62-.78-15.88-1.48-8.55-1.13-17.07-2.45-25.58-3.8-4.24-.67-8.46-1.04-12.75-.92-4.52.13-9,.59-13.5.99-7.55.66-15.09,1.32-22.59,2.37-2.55.36-5.1.75-7.67,1-11.07,1.07-22.16,1.81-33.28,2.16-.64.02-1.29.06-1.93.09-3.94.21-7.89.61-11.83.58-9.99-.06-19.99-.26-29.98-.5-5.09-.12-10.13-.67-15-2.29-3.07-1.02-6.21-1.63-9.43-2.03-3.35-.42-6.6-.08-9.81.73-2.81.71-5.58,1.58-8.35,2.42-.92.28-1.85.61-2.69,1.07-3.76,2.09-6.16,5.01-6.12,9.61.08,9.35.11,18.7,1.11,28.01.31,2.88.34,5.8.65,8.68.63,5.93,1.36,11.85,2.04,17.78.55,4.88,1.1,9.77,1.62,14.66.45,4.33.76,8.67,1.29,12.99.93,7.57,1.18,15.1-.39,22.62-.8,3.83-.68,7.71-.2,11.55.8,6.33,1.43,12.65,1.06,19.04-.09,1.61-.15,3.22-.14,4.83.09,12.25.18,24.51.31,36.76.05,4.84.25,9.67.34,14.51.1,5.56.31,11.13.18,16.68-.23,9.36-1.33,18.65-2.66,27.91-1.2,8.38-2.31,16.77-3.56,25.14-.76,5.1-.63,10.08.75,15.08,2.14,7.73,3.05,15.65,3.1,23.67.01,2.34.07,4.68.14,7.01.22,7.49.59,14.98.65,22.48.14,19.02.13,38.05.19,57.08,0,3.22.08,6.45.05,9.67-.13,12.01-.3,24.02-.45,36.03-.1,8.22-.39,16.44-.98,24.64-.66,9.33-1.35,18.65-2.02,27.98-.73,10.21-1.07,20.45-1.37,30.68-.22,7.44.26,14.82,1.57,22.15,1.15,6.43,2.22,12.87,2.83,19.37.26,2.73.38,5.47.57,8.2.52,7.48,1.05,14.95,1.57,22.43.85,12.32.75,24.66.27,36.98-.4,10.15-.61,20.3-.62,30.46,0,1.77-.05,3.55-.11,5.32-.2,5.72-.42,11.44-.64,17.16Z"/>
</svg>