<?xml version="1.0" encoding="UTF-8"?>
<svg id="Layer_1" data-name="Layer 1" xmlns="http://www.w3.org/2000/svg" version="1.1" viewBox="0 0 595.28 841.89">
  <defs>
    <style>
      .cls-1 {
        fill: #000;
        stroke-width: 0px;
      }
    </style>
  </defs>
  <path class="cls-1" d="M29.7,794.75c-.28-10.77,3.8-19.69,7.91-28.55,6.18-13.28,12.74-26.38,18.85-39.69,5.89-12.82,8.66-26.46,7.81-40.51-.86-14.31-4.83-27.91-13.45-39.64-3.14-4.26-7.04-8.04-10.98-11.62-8.61-7.82-16.91-15.79-21.24-26.97-4.42-11.41-7.46-23.14-6.38-35.42.72-8.28,2.04-16.58,3.93-24.68,4.67-20.04,9.88-39.96,14.73-59.96,2.26-9.32,3.54-18.8,4.13-28.39,1.17-19.07-1.31-37.85-4.39-56.58-2.61-15.84-5.54-31.63-7.7-47.53-1.47-10.83-2.33-21.79-2.63-32.72-.4-14.45,2.88-28.31,8.2-41.75,4.41-11.14,8.63-22.36,12.54-33.69,3.35-9.7,3.79-19.83,3.16-30.02-.71-11.53-3.46-22.6-8.58-32.91-7.49-15.08-11.68-31.13-14.99-47.51-2.24-11.08-4.38-22.18-4.23-33.51.08-6.19.65-12.47,1.89-18.52,1.48-7.17,3.74-14.21,6-21.19,2.03-6.27,5.98-11.32,11.27-15.29,6.52-4.9,13.12-9.7,20.71-12.85,10.61-4.41,21.56-5.55,32.95-3.84,9.11,1.37,17.58,4.75,26.25,7.5,11.56,3.67,23.39,5.63,35.5,5.44,13.07-.2,25.37-3.74,36.94-9.71,9.42-4.86,18.72-9.97,28.02-15.06,10.95-6,22.66-9.34,35.05-10.63,14.79-1.55,29.06.33,42.66,6.34,3.94,1.74,7.41,4.54,11.14,6.79,5.01,3.03,9.83,6.51,15.16,8.8,3.34,1.44,7.48,1.42,11.25,1.38,8.14-.08,16.31-.29,24.42-.99,8.76-.76,17.49-2.01,26.19-3.27,10.46-1.52,20.87-3.42,31.34-4.88,5.46-.76,11-1.12,16.52-1.3,7.34-.24,13.92,2.34,19.97,6.33,3.31,2.18,6.68,4.35,9.69,6.91,3.95,3.36,8.45,3.55,13.14,3.05,6.69-.71,12.76-3.39,18.75-6.24,9.28-4.42,18.82-8.23,29.07-9.44,17.2-2.03,31.61,2.99,41.59,17.91,6.2,9.26,11.16,19.11,13.83,30.01,2.07,8.45.87,16.75-1.27,24.95-2.51,9.62-5.61,19.09-7.91,28.75-3.48,14.59-6.27,29.37-5.61,44.46.31,6.99,1.8,13.94,2.94,20.88,2.93,17.84,8.13,35.09,13.6,52.29,3.4,10.72,4.11,21.84,3.63,33.09-.69,16.28-6.12,31.24-12.1,46.1-3.38,8.39-6.03,16.97-6.76,26.06-.45,5.59.12,11.09,1.72,16.45,4.37,14.68,7.67,29.6,10.45,44.65,1.29,6.98,2.96,13.9,4.14,20.9,1.34,7.98.57,16-.33,23.98-1.97,17.56-7.26,34.23-13.3,50.75-4.32,11.82-7.14,24.07-8.9,36.53-1.2,8.54-2.33,17.09-3.26,25.66-1.26,11.52,1.04,22.57,4.66,33.46,3.27,9.84,6.5,19.7,9.3,29.67,3.4,12.06,3,24.17-.38,36.25-3.16,11.33-2.55,22.67,1.07,33.77,3.37,10.32,7.32,20.44,10.7,30.76,3.49,10.66,5.29,21.65,4.96,32.91-.38,12.73-3.67,24.64-10.25,35.62-2.63,4.39-4.96,8.97-7.63,13.34-2.9,4.75-7.57,8.42-12.87,10.11-7.92,2.53-15.99,1.96-24.04.37-5.58-1.1-11.09-2.7-16.53-4.38-5.76-1.78-11.51-3.67-17.09-5.94-6.62-2.68-13.44-3.04-20.45-3.35-10.1-.45-19.53,2.55-29.06,4.85-6.43,1.55-12.8,3.3-19.35,4.41-7.79,1.32-15.5,3.17-23.25,4.73-8.07,1.62-16.17,1.43-24.31.36-7.37-.96-14.47-2.63-20.95-6.41-7.35-4.29-14.44-8.99-19.68-15.84-4.06-5.31-9.46-6.17-15.41-5.17-6.89,1.16-13.02,4.44-19.26,7.39-8.34,3.94-16.8,7.64-25.1,11.66-11.85,5.74-23.63,4.98-35.54.25-7.27-2.89-13.65-7.3-20.29-11.28-5.89-3.53-12.44-5.1-19.13-6.25-11.65-2.01-22.44,1.58-33.33,4.82-11.78,3.5-22.62,9.29-34.02,13.67-14,5.39-28.22,10.34-42.59,14.63-6.91,2.06-14.4,2.91-21.64,2.97-15.14.11-28.12-5.07-36.91-18.22-3.43-5.12-4.54-10.92-4.67-16.97-.03-1.3.05-2.61.06-3.27ZM39.62,631.21l-.19.15c.59.7,1.14,1.46,1.78,2.11,4.3,4.3,9.03,8.26,12.87,12.94,8.29,10.11,12.56,22.23,15.3,34.78,2.64,12.07,1.28,24.21-2.25,35.91-2.93,9.71-6.61,19.21-10.32,28.65-4.11,10.46-8.67,20.75-12.99,31.13-4.3,10.32-6.01,21.02-4.11,32.11,1.24,7.27,5.23,12.76,12.01,15.79,4.45,1.99,9.3,3.15,14.17,2.79,7.41-.55,15.02-.79,22.1-2.77,13.72-3.84,27.27-8.44,40.62-13.42,12.15-4.54,23.74-10.5,36.28-14.07,11.12-3.16,22.14-6.63,34-4.81,8.78,1.34,17.14,3.68,24.86,8.23,6.01,3.53,12.01,7.19,18.36,10.02,9.7,4.31,19.69,4.61,29.63.25,6.13-2.69,12.39-5.1,18.54-7.74,8.73-3.74,17.36-7.7,26.14-11.33,4.45-1.85,9.19-2.01,13.91-.86,5.39,1.32,9.95,4.17,13.78,8.09,4.77,4.88,9.86,9.34,16,12.34,7.24,3.54,15.19,4.22,23.07,5.03,8.98.92,17.68-1.17,26.45-2.52,10.66-1.65,21.31-3.32,31.97-4.94,2.5-.38,5.07-.36,7.53-.87,4.13-.86,8.18-2.13,12.31-2.99,10.68-2.23,21.15-1.59,31.36,2.52,5.59,2.25,11.25,4.36,16.97,6.23,5.22,1.71,10.5,3.39,15.88,4.42,6.16,1.17,13.51,1.08,19.72.21,6.87-.96,11.25-4.01,14.65-9.93,2.52-4.38,4.8-8.89,7.32-13.27,5.72-9.95,8.82-20.67,9.54-32.08.74-11.74-.88-23.25-4.51-34.39-3.07-9.41-6.62-18.66-9.95-27.98-4.3-12.04-5.47-24.35-3.24-36.98.77-4.37,1.49-8.77,1.89-13.19.9-9.79-1.17-19.24-4.11-28.45-2.95-9.23-6.43-18.29-9.77-27.39-4.31-11.74-6.32-23.76-4.83-36.27.58-4.83.84-9.7,1.64-14.49,1.8-10.78,3.39-21.62,5.93-32.23,2.19-9.11,5.64-17.92,8.42-26.89,4.13-13.27,7.21-26.76,8.38-40.66.63-7.47.93-14.91-.44-22.32-1.07-5.78-2.32-11.52-3.37-17.3-2.48-13.64-4.77-27.32-7.36-40.94-1.43-7.55-1.88-15.01-.52-22.62,1.49-8.34,4.48-16.13,7.84-23.83,5.5-12.59,10.51-25.3,11.84-39.18,1.24-12.9.6-25.66-3.34-37.98-5.46-17.05-10.93-34.08-14.52-51.63-1.63-7.95-3.4-15.92-4.25-23.98-.61-5.8-.16-11.79.46-17.63.87-8.22,1.92-16.46,3.64-24.53,2.26-10.59,5.35-20.99,7.9-31.52,1.76-7.27,3.01-14.61,1.3-22.13-2.51-11.04-7.76-20.77-13.78-30.23-5.82-9.16-14.46-11.19-24.22-10.02-8.31.99-16.13,3.96-23.79,7.33-5.81,2.56-11.54,5.39-17.55,7.37-9.04,2.97-18.25,3.04-26.84-1.58-4.79-2.58-9.38-5.66-13.64-9.04-4.6-3.66-9.75-4.71-15.2-4.06-11.25,1.35-22.46,3-33.65,4.75-10.78,1.69-21.43,4.27-32.42,4.5-11.5.25-23,.66-34.5.8-2.48.03-5.09-.43-7.43-1.28-8.78-3.18-16.55-8.21-24.01-13.74-2.41-1.78-4.76-3.81-7.45-5.01-11.84-5.27-24.27-6.48-37.08-5.01-11.49,1.32-22.3,4.63-32.41,10.23-7.66,4.24-15.29,8.56-22.97,12.76-13.2,7.22-27.01,12.48-42.27,13.13-9.22.4-18.41-.12-27.33-2.31-8.83-2.17-17.47-5.14-26.16-7.86-8.99-2.81-18.08-4.13-27.48-2.56-11.31,1.89-20.51,7.88-29.48,14.55-6.69,4.98-11.26,11.28-13.56,19.22-1.78,6.14-3.37,12.34-4.99,18.53-2.45,9.35-2.43,18.9-1.54,28.39.87,9.17,2.55,18.27,3.79,27.41,1.8,13.22,5.26,25.96,10.84,38.09,5.1,11.08,8.6,22.6,9.54,34.8.82,10.51.59,21.02-2.66,31.11-3.6,11.14-7.74,22.11-11.78,33.11-3.88,10.56-6.76,21.3-7.45,32.61-1.09,17.86,1.67,35.38,4.56,52.86,1.72,10.36,4.28,20.58,6.3,30.9,3.11,15.84,5.8,31.73,6.34,47.94.49,14.96-.8,29.72-4.61,44.17-5.87,22.26-12.17,44.41-18.19,66.64-3.41,12.57-5.35,25.22-2.7,38.3,2.59,12.8,6.85,24.63,16.74,33.74.81.75,1.82,1.28,2.74,1.92Z"/>
</svg>