<?xml version="1.0" encoding="UTF-8"?>
<svg id="Layer_1" data-name="Layer 1" xmlns="http://www.w3.org/2000/svg" version="1.1" viewBox="0 0 595.28 841.89">
  <defs>
    <style>
      .cls-1 {
        fill: #000;
        stroke-width: 0px;
      }
    </style>
  </defs>
  <path class="cls-1" d="M43.95,558.97c1.17-1.04,2.28-2.14,3.29-3.32-1.22.91-2.32,2.04-3.29,3.32Z"/>
  <path class="cls-1" d="M566.36,706.68c-5.29-4.73-11.75-7.43-18.09-10.4-4.61-2.16-9.14-4.62-13.34-7.49-3.8-2.59-4.94-6.64-3.49-11.11.8-2.46,1.61-5.01,2.96-7.17,3.59-5.73,8.53-11.37,13.13-16.96,5.92-7.19,12.23-14.1,17.84-21.5,2.5-3.3,4.25-7.41,5.37-11.31,1.94-6.76-.35-12.45-4.01-17.34-3.93-5.26-8.23-10.22-12.26-15.4-3.15-4.07-5.44-8.63-5.78-14.19-.48-7.79,1.61-15.36,5.18-22.73,3.88-8,7.97-15.92,11.87-23.91,2.76-4.6,4.96-9.49,6.16-14.94.05-.24.09-.48.14-.73.99-3.75,1.56-7.56,1.54-11.41-.02-4.08-1.17-8.07-3.13-11.67-2.05-5.19-5.32-10.01-9.84-14.47-3.57-3.52-7.48-6.73-10.88-10.41-2.6-2.82-4.74-6.09-6.87-9.3-2.08-3.14-2.04-6.59-1.11-10.19,2.35-9.07,8.17-16.64,11.41-25.35,3.69-9.93,2.14-18.69-1.87-28.28-3.34-8-6.72-16.06-11.58-23.24-15.34-22.62,1.05-41,16.61-58.17,3.38-3.74,6.21-7.95,7.34-13.02,1.22-5.45.1-10.68-1.87-15.75-3.04-7.81-7.97-14.51-12.73-21.3-6.68-9.52-13.59-18.9-18.73-29.39-2.89-5.9-5.25-11.93-4.73-18.72.31-4.04,2.01-7.17,5.57-9.14,2.79-1.54,5.68-2.91,8.51-4.39,5.36-2.82,10.16-6.33,13.72-11.34,6.51-9.16,6.37-18.86,1.75-28.57-6.63-13.9-20.87-20.36-21.85-37.41-.31-5.41,8.58-8.02,12.6-9.87,8.05-3.69,15.32-8.39,21.49-14.88,11.02-11.59,12.81-26.29,6.27-39.62-8.84-18.01-23.41-29.85-42.49-36.01-3.76-1.21-7.7-1.67-11.64-.66-1.16.3-2.47.65-3.32,1.41-1.31,1.17-2.73,1.15-4.18.98-13.12-1.57-28.96-.47-40.56,5.89-15.47,8.49-36,25.12-49.05,26.57-8.56.95-14.58.17-22.79-2.45-6.72-2.14-13.17-4.93-18.67-9.31s-10.75-8.18-16.98-10.73c-10-4.08-21.33-4.05-31.85-1.59s-20.35,7.2-29.84,12.36c-5.78,3.14-12.71,7.62-19.52,7.82-4.92.15-10.27-2.88-14.79-4.78-12.27-5.16-22.76-13.61-34.13-20.38-5.26-3.13-10.98-4.38-17.15-3.55-7.42,1-12.64,5.24-16.9,11.02-4.2,5.7-8.47,11.31-13.9,15.99-7.49,6.46-15.63,7.38-24.57,3.92-6.43-2.49-11.75-6.71-16.95-11.07-7.34-6.16-14.99-11.72-23.95-15.4-11.23-4.61-22.69-7.36-34.81-4.77-12.33,2.63-21.03,9.75-25.18,21.87-.76,2.21-.85,4.64-1.24,6.97-.24,1.42-.07,2.86-1.95,3.57-14.77,5.63-25.51,15.92-33.44,29.34-4.31,7.3-7.65,15.01-7.91,23.65-.33,10.86,3.54,19.96,11.95,26.97,5.45,4.54,12,7.02,18.44,9.76,4.68,2,9.3,4.3,13.59,7.02,3.89,2.46,5.17,6.46,3.87,10.98-.71,2.48-1.43,5.06-2.71,7.27-3.39,5.86-9.22,12.11-13.53,17.95-5.55,7.52-11.48,14.76-16.71,22.49-2.33,3.44-3.91,7.7-4.87,11.72-1.67,6.96.76,12.71,4.5,17.61,4.02,5.26,8.39,10.2,12.5,15.39,3.22,4.07,5.61,8.67,6.13,14.34.73,7.95-1.05,15.74-4.3,23.38-9.92,23.34-20.16,44.22-9.36,69.52,5.57,13.03,18.97,20.21,19.67,34.98.44,9.37-3.77,16.6-11.07,21.99-3.51,2.6-7.46,4.7-11.44,6.54-8.86,4.09-12.32,9.45-9.82,20.88,1.59,7.27,4.94,13.83,8.9,20.01,6.03,9.38,12.46,18.51,18.67,27.78,4.05,6.05,7.85,12.23,9.49,19.49,1.3,5.78.61,11.16-2.54,16.24-3.7,5.96-8.6,10.88-13.42,15.89-3.97,4.12-8.04,8.17-11.63,12.6-5.37,6.63-6.59,14.55-5.51,22.76,1.45,11.03,6.4,20.52,12.46,29.66,5.41,8.17,11.26,17.06,7.58,27.08-1.57,4.29-3.19,8.59-5.21,12.68-4.21,8.53-8.76,16.88-13.04,25.37-1.89,3.74-3.27,7.72-3.59,11.93-.46,6.2,1.97,11.39,6.85,14.99,4.3,3.17,9.17,5.57,13.72,8.41,2.56,1.6,5.09,3.26,7.42,5.16,1.43,1.17,1.96,3.04,1.3,4.88-.89,2.45-1.73,4.99-3.06,7.21-7.73,12.81-15.3,25.71-20.25,39.91-2.48,7.11-4.55,14.35-3.26,22.01,1.1,6.55,4.59,11.44,11.57,12.52,2.36.36,4.79.33,7.27.49.2.43.45.93.66,1.46,6.37,15.79,22.46,20.8,35.57,18.49,6.27-1.11,11.92-3.74,17.03-7.35,7.82-5.52,15.47-11.3,23.04-17.16,7.07-5.48,14.52-10.11,23.17-12.73,5.2-1.58,9.77-.97,13.99,2.41,3.41,2.72,6.92,5.32,10.19,8.19,5.1,4.48,10.91,7.12,17.29,9.1,4.96,1.54,10.51.95,15.48-.22,7.34-1.73,14.18-3.96,20.6-8.05,17.94-11.41,27.42,7.43,40.93,14.99,7.14,3.99,15.54,1.75,22.04-2.84,5.24-3.7,8.83-8.85,12.48-13.93,4.81-6.68,11.56-9.1,19.42-8.96,3.93.07,7.29,1.97,10.5,4.08,9.27,6.1,18.49,12.29,27.82,18.3,5.15,3.31,10.82,4.76,17.02,4.14,7.45-.74,12.81-4.79,17.27-10.42,4.4-5.55,8.85-11,14.45-15.5,7.71-6.19,15.88-6.83,24.69-3.06,6.34,2.71,11.51,7.12,16.55,11.65,7.12,6.41,14.57,12.24,23.4,16.23,11.06,5,22.42,8.14,34.62,5.98,12.41-2.2,21.35-9.01,25.92-20.98.83-2.18,1.01-4.61,1.48-6.92.29-1.41.17-2.85,2.08-3.5,14.96-5.11,26.05-15.02,34.45-28.16,4.57-7.15,8.17-14.73,8.73-23.36.71-10.84-2.84-20.08-11-27.37ZM518.26,25.36c.55.06,1.02.04,1.44.16,10.79,2.92,20.85,7.42,29.33,14.78,3.07,2.67,5.54,6.12,7.9,9.49,1.45,2.06.64,3.58-1.84,3.87-2.09.25-4.34.28-6.38-.22-11.6-2.82-20.41-9.8-27.53-19.09-1.96-2.56-3.09-5.55-2.92-8.99ZM50.98,788.62c-.43-13.78,9.59-27.84,22.47-31.45,2.05-.57,4.31-.72,6.44-.57,3.98.27,6.53,3.76,5.42,7.71-.82,2.93-1.99,5.9-3.66,8.42-7.29,11.02-17.45,18.65-29.89,24.36-.29-3.05-.7-5.75-.79-8.47ZM569.55,738.01c-2.67,11.04-8.97,19.99-16.38,28.3-5.71,6.4-12.62,11.08-20.63,14.49-.17-.87-.34-1.64-.48-2.42-1.06-6.24-2.99-12.21-7.22-16.99-8.94-10.08-26.53-13.53-39.53-8.04-8.53,3.6-11.57,10.77-7.99,19.33,2.98,7.14,8.6,11.73,15.52,14.68,8.54,3.65,17.5,3.68,26.5,2.19,3.51-.58,6.98-1.46,10.61-2.23-.37,5.11-1.63,9.66-5.1,13.39-3.74,4.02-8.29,6.81-13.46,8.51-9.21,3.02-18.49,2.63-27.69-.01-13.4-3.85-25.12-10.65-35.43-20.05-5.29-4.82-10.89-9.31-17.71-11.9-9.57-3.64-18.51-2.86-26.09,4.5-4.53,4.4-8.6,9.27-12.97,13.84-2.66,2.78-5.13,6.01-8.34,7.95-8.34,5.04-16.96,4.19-25.2-.58-6.38-3.69-12.52-7.79-18.89-11.49-6.37-3.69-12.29-8.09-20.12-9.03-7.62-.91-17.24,1.34-21.61,8.13-1.93,3-4.26,5.76-6.57,8.48-5.8,6.81-14.41,12.29-23.64,9.35-7.53-2.4-12.32-10-18.19-14.52-6.52-5.02-15.67-6.39-23.37-3.5-3.92,1.47-7.39,3.93-11.14,5.8-10.95,5.48-27.25,6.64-37.33-1.23-4.2-3.28-8.27-6.75-12.62-9.83-5.35-3.78-11.43-4.89-17.84-3.65-7.83,1.52-15.18,4.41-21.71,8.99-6.57,4.61-12.88,9.59-19.32,14.38-6.35,4.72-12.74,9.4-20.08,12.51-4.05,1.71-8.22,2.7-12.67,1.69-8.8-1.98-14.61-7.48-18.36-15.43-.45-.96-.81-1.97-1.24-3.01.4-.16.6-.25.8-.33,11.18-4.65,21-11.21,28.78-20.61,3.3-3.99,6.43-8.1,7.91-13.17,1.77-6.09-.63-10.51-6.76-12-7.87-1.92-15.34-.48-22.02,3.9-11.71,7.66-18.69,18.1-17.8,32.69.16,2.66.65,5.3.99,8.04-1.93.32-3.8.29-5.58-.78-4.33-2.62-5.77-6.82-6.1-11.49-.53-7.35,1.46-14.29,3.93-21.11,4.73-13.06,11.55-25.05,18.67-36.9,1.29-2.15,2.39-4.44,3.32-6.76,1.24-3.11.62-5.98-1.81-8.35-.69-.68-1.44-1.34-2.28-1.83-4.1-2.39-8.32-4.59-12.35-7.09-10.27-6.39-13.59-13.69-9-25.11,2.3-5.72,5.13-11.25,7.91-16.76,3.99-7.93,8.37-15.7,10.63-24.35,1.25-4.77,1.76-11.43-.03-16.14-.79-2.09-2.11-3.94-3.42-5.76-7.15-9.96-13.8-18.88-16.65-31.22-2.78-12.06-.81-22.92,8.19-32.04,5.89-5.96,11.71-11.99,17.34-18.2,3.38-3.74,6.21-7.95,7.34-13.02,1.22-5.45.1-10.68-1.87-15.75-3.04-7.81-7.97-14.51-12.73-21.3-6.68-9.52-13.59-18.9-18.73-29.39-2.89-5.9-5.25-11.93-4.73-18.72.31-4.04,2.01-7.17,5.57-9.14,2.79-1.54,5.68-2.91,8.51-4.39,5.36-2.82,10.16-6.33,13.72-11.34,6.51-9.16,6.37-18.86,1.75-28.57-7.46-15.63-20.76-24.99-21.24-43.73-.64-25.17,20.64-45.52,18.94-70.46-.42-6.17-2.63-11.33-6.14-15.76-4.11-5.18-8.49-10.11-12.59-15.31-3.76-4.77-6.2-10.25-4.8-17.26,1-5.01,3.31-9.59,6.42-13.69,5.31-7,10.82-13.85,16.29-20.72,5.52-6.94,12.65-14.26,15.42-22.15,2.46-7,1.3-11.56-4.63-15.91-3.5-2.56-7.5-4.49-11.43-6.39-4.2-2.03-8.71-3.44-12.86-5.56-13.66-6.98-19.64-19.62-16.57-34.56,2.29-11.13,8.27-20.29,15.38-28.85,5.48-6.6,12.22-11.51,20.11-15.2.2.87.4,1.63.56,2.4,1.28,6.2,3.41,12.1,7.81,16.72,9.28,9.77,26.99,12.6,39.79,6.66,8.4-3.9,11.19-11.17,7.31-19.59-3.23-7.03-9.01-11.42-16.02-14.13-8.67-3.35-17.62-3.06-26.56-1.26-3.49.7-6.93,1.7-10.53,2.6.19-5.12,1.29-9.71,4.63-13.56,3.6-4.15,8.05-7.1,13.15-8.97,9.1-3.34,18.39-3.27,27.68-.95,13.52,3.38,25.48,9.77,36.1,18.81,5.45,4.64,11.21,8.92,18.11,11.27,9.7,3.3,18.6,2.21,25.92-5.41,4.38-4.55,8.27-9.56,12.48-14.28,2.56-2.87,4.91-6.19,8.06-8.24,8.16-5.33,16.8-4.78,25.2-.3,6.5,3.47,12.78,7.35,19.28,10.82,15.45,8.25,25.81,18.34,43.01,11.25,17.05-7.03,36.67-23.17,54.93-20.64,9.8,1.36,21.14,9.35,29.4,14.44s14.02,8.26,23.63,10.41c10.53,2.35,22.26,3.76,31.46.24,7.54-2.88,16.09-8.93,22.9-13.05,7.83-4.72,13.28-8.75,21.32-13.16,8.59-4.71,17.86-7.09,27.73-6.66,2.28.1,4.55.48,6.92.74-.34,7.06,3.25,12.07,7.75,16.64,7.19,7.29,15.36,12.95,25.58,15.1,4.09.86,8.22,1.13,12.27-.22,4.12-1.36,5.13-3.92,2.99-7.72-3.09-5.48-7.76-9.44-12.85-12.93-9-6.18-18.92-10.25-29.94-12.72,1.67-1.5,3.31-1.77,5.09-1.58,8.37.9,15.36,5,22.12,9.61,8.21,5.6,14.99,12.59,20.19,21.09,10.23,16.71,7.35,34.32-7.55,47.02-5.12,4.37-10.95,7.46-16.92,10.43-4.48,2.22-10.81,3.61-13.34,8.39-2.04,3.84-.67,8.58,1.27,12.47,4.73,9.47,14.26,16.49,19.53,25.92,2.37,4.24,3.69,8.92,3.92,13.79.44,9.37-3.77,16.6-11.07,21.99-3.51,2.6-7.46,4.7-11.44,6.54-8.86,4.09-12.32,9.45-9.82,20.88,1.59,7.27,4.94,13.83,8.9,20.01,6.03,9.38,12.46,18.51,18.67,27.78,4.05,6.05,7.85,12.23,9.49,19.49,1.3,5.78.61,11.16-2.54,16.24-3.7,5.96-8.6,10.88-13.42,15.89-8.64,8.97-15.42,16.6-15.21,29.93.29,18.04,13.99,32.3,21,48.13,5.65,12.76-.03,19.54-4.72,31.58-3.56,9.12-7.79,16.57-4.55,26.72,1.36,4.28,3.77,7.99,7.02,11.06,1.39,1.31,2.78,2.62,4.17,3.93,8.33,7.85,18.81,15.58,19.26,28.3.27,7.76-2.08,15.26-5.56,22.51-4.5,9.37-9.47,18.57-14.13,27.88-3.84,7.66-6.55,15.49-6.24,23.74.22,6.04,2.31,11.15,5.75,15.58,4.03,5.18,8.34,10.13,12.35,15.33,3.68,4.77,6,10.19,4.32,17.01-1.2,4.86-3.71,9.28-7.03,13.2-5.67,6.69-11.53,13.22-17.35,19.78-5.88,6.62-11.98,13.26-15.02,21.05-2.7,6.91-1.7,11.51,4.07,16.06,3.41,2.68,7.34,4.75,11.2,6.79,4.13,2.18,8.59,3.74,12.66,6,13.41,7.45,18.94,20.3,15.36,35.12ZM528.78,782.35c-7.61,2.72-15.39,4.44-24.83,4.25-8.7.26-18.12-7.92-20.15-15.03-2.06-7.18.32-12.72,7.21-15.64,11.79-4.99,24.74-1.11,32.07,8.72,3.41,4.57,6.52,9.51,6.9,15.6.08,1.25-.1,1.71-1.2,2.11ZM62.76,56.38c7.51-2.98,15.23-4.97,24.66-5.12,8.68-.56,18.38,7.29,20.67,14.32,2.31,7.1.13,12.72-6.66,15.88-11.61,5.4-24.69,1.97-32.35-7.59-3.57-4.45-6.85-9.28-7.44-15.35-.12-1.24.04-1.72,1.12-2.15Z"/>
</svg>