<?xml version="1.0" encoding="UTF-8"?>
<svg id="Layer_1" data-name="Layer 1" xmlns="http://www.w3.org/2000/svg" version="1.1" viewBox="0 0 595.28 841.89">
  <defs>
    <style>
      .cls-1 {
        fill: #000;
        stroke-width: 0px;
      }
    </style>
  </defs>
  <path class="cls-1" d="M43.95,558.97c1.17-1.04,2.28-2.14,3.29-3.32-1.22.91-2.32,2.04-3.29,3.32Z"/>
  <g>
    <g>
      <path class="cls-1" d="M44.59,379.1c-1.55-1.64-2.1-.47-2.56.59-1.23,2.87-2.49,5.73-3.55,8.66-4.74,13.05-7.55,26.6-9.91,40.23-3.99,22.94-5.72,46.06-4.88,69.35,1.03,28.9,4.19,57.55,9.35,86.03,4.03,22.22,9.78,44,15.2,65.88,4,16.13,8.08,32.25,11.81,48.45,3.14,13.63,4.98,27.48,5.93,41.45.05.79-.08,1.6,1.15,1.69,1.33.09,1.78-.36,1.64-1.7-.51-4.69-.77-9.42-1.44-14.09-1.21-8.42-2.66-16.81-4-25.21-.04-.26-.03-.52.24-.84,1.06,5.02,2.32,10.01,3.12,15.07,1.3,8.13,2.29,16.32,3.43,24.48.38,2.72.03,2.27,2.58,2.38,15.2.7,30.07,3.46,44.74,7.33,22.08,5.83,43.29,14.11,64.18,23.23,16.58,7.23,33,14.82,49.67,21.82,25.89,10.86,52.64,19.01,80.3,23.99,16.48,2.97,33.09,4.43,49.84,3.84,21.17-.74,41.76-4.33,61.34-12.74,10-4.3,19.46-9.54,27.79-16.63,4.37-3.72,8.51-7.74,10.95-13.05,1.15-2.5,1.74-5.26,2.5-7.92.3-1.04.05-1.99-1.1-2.46-.12-.05-.25-.13-.33-.23-.68-.85-1.86-1.65-1.12-2.89.81-1.35,2.18-.91,3.18-.28,1.32.84,2.47,1.97,3.67,2.98.35.29.6.72.98.96,2.49,1.53,3.36,3.82,3.18,6.63-.36,5.67-2.77,10.51-6.19,14.87-4.69,5.96-10.47,10.76-16.66,15.07-15.79,10.99-33.42,17.48-52.21,20.89-21.7,3.94-43.52,4.13-65.36,1.06-36.63-5.17-71.64-15.95-105.53-30.6-20.31-8.78-40.6-17.61-61.08-25.97-17.89-7.3-36.25-13.25-55.2-17.25-12.19-2.57-24.5-4.14-36.95-4.45-2.52-.06-2.53-.05-2.51,2.41.08,9.06-.11,18.09-2.4,26.94-.47,1.8-1,3.58-1.64,5.33-4.19,11.5-12.81,17.4-24.56,19.15-1.84.27-3.98.12-5.68-.57-3.79-1.54-7.51-3.34-11.05-5.39-6.13-3.56-8.65-9.51-9.84-16.15-2.3-12.84,2.87-22.55,12.82-30.19,6.73-5.17,14.56-7.59,22.79-8.91,2.56-.41,5.15-.63,7.74-.75,1.4-.06,1.86-.49,1.72-1.88-.63-6.22-1.08-12.46-1.82-18.66-2.5-21.05-8.05-41.47-13.1-61.99-4.83-19.63-9.73-39.26-13.89-59.03-3.45-16.39-6.36-32.93-8.63-49.53-1.98-14.48-3.03-29.11-3.96-43.7-.65-10.34-.59-20.74-.53-31.12.08-12.45,1.57-24.81,3.32-37.13,2.02-14.16,4.98-28.14,9.15-41.83,1.66-5.45,3.89-10.73,5.97-16.04.6-1.53,1.55-2.93,2.47-4.31.69-1.04,1.64-1.83,3.03-1.25,1.34.56,2.04,1.92,1.87,3.99ZM60.77,750.2c-2.21.36-4.11.6-5.99.98-8.93,1.82-16.96,5.31-23.15,12.31-7.61,8.6-8.75,18.27-4.94,28.81.53,1.46,1.49,2.32,2.97,2.64.97.2,1.97.5,2.94.44,10.01-.58,17.97-4.81,22.63-13.88,4.96-9.67,5.48-20.26,5.55-31.31ZM25.36,792.1c.11-.26.17-.33.16-.38-.16-.57-.34-1.14-.51-1.72-2.89-10.29-1.3-19.59,6.03-27.66,4.72-5.2,10.42-8.89,17.15-10.82,3.69-1.06,7.49-1.73,11.26-2.5.96-.19,1.37-.53,1.34-1.54-.03-1.15-.75-1.05-1.5-.99-.99.08-1.99.18-2.98.27-6.69.58-13.17,2.08-19.01,5.46-12.6,7.29-18.03,17.96-15.56,31.58.54,2.98,1.58,5.8,3.61,8.3ZM37.37,801.43c-.05.1-.11.19-.16.29,2.09-.11,4.22.02,6.25-.39,4.48-.9,8.58-2.79,12.3-5.46,5.83-4.18,8.72-10.22,10.56-16.89,2.51-9.06,2.76-18.36,2.81-27.68,0-.95-.21-1.5-1.32-1.48-1.02.02-1.61.25-1.59,1.45.04,1.79-.06,3.59-.11,5.38-.28,9.57-1.6,18.92-5.66,27.74-3.09,6.71-7.9,11.62-14.77,14.35-2.7,1.07-5.53,1.8-8.3,2.69ZM470.02,771.64c-.22.06-.44.12-.66.17-.31,9.45-5.57,16.28-12.09,22.46.11.08.22.16.33.25.9-.78,1.8-1.55,2.7-2.33-3.5,4.81-8.13,8.39-12.66,12.09,1.03-.48,1.97-1.09,2.85-1.75,5.84-4.34,11.35-9.05,15.48-15.13,2.72-4.01,4.71-8.35,4.66-13.35,0-.81-.4-1.61-.62-2.42ZM120.23,754.79s-.28-.15-.53-.21c-14.5-3.93-29.15-6.99-44.19-7.86-1.26-.07-2.52-.26-3.77-.24-.34,0-.67.55-1,.84.32.31.6.75.99.91.4.16.92.01,1.38.06,8.32.74,16.69,1.2,24.96,2.33,7.48,1.02,14.86,2.77,22.16,4.18ZM453.64,797.73c-7.37,5.58-15.35,10.16-23.59,14.31,8.5-3.73,16.49-8.29,23.59-14.31ZM22.44,462.01c.11,0,.22.02.32.03.42-4.22.84-8.43,1.26-12.65-.12-.01-.24-.02-.36-.03-.4,4.22-.81,8.43-1.21,12.65ZM67.51,748.98c.74-.79,1.4-1.18,1.5-1.68.19-.98-.68-.92-1.34-.93-.67,0-1.5-.09-1.35.92.07.46.59.86,1.2,1.69Z"/>
      <path class="cls-1" d="M30.22,468.27c0,9.04-.3,18.1.07,27.13.47,11.42,1.29,22.84,2.32,34.22.95,10.52,2.08,21.04,3.65,31.49,1.91,12.68,4.38,25.27,6.6,37.9,3.1,17.63,8.16,34.81,12.3,52.19.63,2.64,1.24,5.28,1.86,7.91-.13.03-.25.06-.38.1-.62-2.44-1.24-4.88-1.86-7.32-3.5-13.78-7.39-27.48-10.43-41.36-5.69-26-10.23-52.2-12.62-78.75-1.57-17.44-2.67-34.89-2.32-52.41.08-3.77.34-7.54.51-11.31.1.06.19.13.29.19Z"/>
    </g>
    <g>
      <path class="cls-1" d="M538.37,739.07c-3.76.36-2.62-2.79-3.99-4.19-.04.3-.02.52-.11.69-.21.42-.46.82-.69,1.22-.43-.35-1.05-.6-1.27-1.05-1.5-3.1-2.72-6.34-4.39-9.34-6.07-10.94-12.36-21.75-17.15-33.34-3.54-8.56-6.8-17.23-8.38-26.38-2.56-14.76-1.63-29.43,1.93-43.95.3-1.22.53-2.47.76-3.71.06-.3-.02-.62-.25-.95-4.41,13.17-6.21,26.66-5.2,40.54-.17-1.6-.39-3.2-.49-4.8-.97-15.82,1.87-30.98,7.82-45.62,5.72-14.08,13-27.37,20.29-40.67,7.19-13.12,14.75-26.05,21.49-39.39,8.11-16.06,14.56-32.82,18.34-50.49,2.3-10.77,3.35-21.68,3.81-32.66.86-20.39-.31-40.7-2.3-60.98-1.37-14.03-2.62-28.09-4.6-42.04-1.98-13.94-4.7-27.78-7.25-41.64-6.3-34.21-17.06-67.18-27.89-100.13-5.7-17.36-11.29-34.77-15.12-52.67-3.26-15.22-5.77-30.57-5.97-46.2-.18-13.85,1.64-27.46,5.12-40.86.18-.69.33-1.38.54-2.26-4,.43-7.81.9-11.63,1.24-12.6,1.11-25.23,1.95-37.86,1.14-16.72-1.07-33.43-2.34-50.11-3.84-14.5-1.3-28.96-3.03-43.43-4.59-26.73-2.88-53.52-4.76-80.42-4.71-12.5.03-25.01-.29-37.51-.03-13.76.29-27.51,1.03-41.26,1.62-13.08.56-26.09,1.84-39.06,3.67-.65.09-1.3.09-2-.15,2.29-.48,4.58-.95,6.87-1.43-.01-.09-.03-.18-.04-.27-2.54.42-5.08.8-7.61,1.27-11.96,2.24-23.87,4.75-35.34,8.85-11.67,4.17-23.16,8.86-33.4,15.95-12.54,8.67-21.85,19.95-26.38,34.77-1.37,4.49-2.01,9.09-2.08,13.77-.05,2.76.38,5.43,1.82,7.87.2.34.31.73.42,1.11.03.09-.1.23-.21.47-1.85-.05-3.28-.83-3.73-2.72-.6-2.5-1.34-5.04-1.39-7.58-.14-7.42,1.69-14.48,4.5-21.32.79-1.93.93-4.15,1.89-5.97,6.43-12.22,15.7-21.63,27.87-28.27,16.54-9.01,34.01-15.42,52.46-19.04,11.21-2.19,22.46-4.26,33.77-5.82,9.34-1.29,18.78-2.02,28.2-2.54,17.07-.94,34.14-1.76,51.23-2.19,13.83-.35,27.68-.36,41.5.02,12.49.34,24.98,1.23,37.44,2.19,11.67.9,23.3,2.22,34.95,3.31,26.68,2.5,53.27,6.14,80.13,6.34,17.38.13,34.67-1.21,51.86-3.82,1.59-.24,2.5-.86,3.13-2.46,2.06-5.21,4.64-10.15,8.19-14.54,4.07-5.03,9.08-8.76,15.08-11.13,7.31-2.89,14.81-5.2,22.68-5.92,2.23-.2,4.52-.07,6.74.21,2.4.29,4.43,1.6,5.77,3.59,2.03,3.03,3.93,6.25,4.25,9.94.14,1.58-.48,3.45-1.31,4.85-2.01,3.36-5.04,5.81-8.29,7.95-8.87,5.83-18.58,9.8-28.83,12.4-6.05,1.53-12.19,2.73-18.32,3.96-1.26.25-1.98.68-2.41,1.93-3.23,9.53-5.44,19.27-6.48,29.3-.84,8.1-1.27,16.23-.57,24.31.84,9.79,2.06,19.57,3.68,29.25,3.62,21.69,10.81,42.42,17.48,63.29,6.91,21.62,14.08,43.18,20.24,65.02,4.24,15.06,7.18,30.5,10.27,45.85,2.33,11.58,4.14,23.28,5.87,34.97,1.25,8.41,2.08,16.89,2.95,25.35.96,9.39,1.84,18.79,2.59,28.21,1.32,16.46,1.72,32.94.78,49.45-.84,14.81-3.08,29.35-7.62,43.49-6.33,19.73-15.22,38.28-25.67,56.13-9.55,16.3-18.96,32.68-28.36,49.07-5.53,9.64-9.82,19.76-11.75,30.79-1.71,9.77-2.13,19.56-.6,29.39.06.39.13.79.21,1.18.08.39.19.76.48,1.12-.1-.95-.22-1.89-.29-2.84-1.09-13.93.34-27.58,5.65-40.55,6.02-14.7,13.25-28.85,21.43-42.48,5.65-9.41,11.39-18.76,17.1-28.14.15-.25.36-.45.81-.51-.36.68-.7,1.37-1.07,2.04-8.21,14.67-16.53,29.29-24.61,44.04-5.63,10.28-10.54,20.91-13.68,32.24-5.38,19.4-4.32,38.45,2.88,57.31,4.95,12.96,11.08,25.3,17.74,37.42,1.89,3.44,3.74,6.89,5.45,10.42.82,1.69,1.25,3.57,1.94,5.61ZM527.57,45.01c11.04-1.62,27.87-8.13,36.98-14.38,2.28-1.57,4.32-3.5,6.4-5.34.67-.59,1.12-1.42,1.97-2.54-1.36,0-2.27-.05-3.17,0-8.58.5-16.74,2.78-24.64,5.99-7.76,3.16-13.22,8.88-17.55,16.26ZM525.05,50.29c.04.14.09.29.13.43,3.07-.65,6.15-1.25,9.2-1.97,11.25-2.65,22.04-6.54,31.86-12.73,2.76-1.74,5.25-3.92,7.86-5.9-.09-.12-.19-.25-.28-.37-14.29,11.48-31.13,16.96-48.77,20.54ZM93.54,79.87c-12.83,11.28-21.78,24.62-22.61,42.28,1.57-17.27,10.31-30.72,22.61-42.28ZM528.19,35.81c.38-.41.78-.81,1.13-1.24,4.4-5.4,9.96-9.09,16.5-11.42,6.11-2.18,12.33-3.89,18.74-4.93-.87-.03-1.75-.1-2.58.11-5.22,1.28-10.46,2.48-15.61,3.97-4.23,1.22-8.18,3.16-11.62,5.99-2.59,2.14-4.9,4.55-6.57,7.53ZM384.16,49.98c0,.11.02.22.02.33,6.5.6,13,1.2,19.5,1.8,0-.09.02-.19.02-.28-6.51-.62-13.03-1.24-19.54-1.85Z"/>
      <path class="cls-1" d="M116.28,70.32c17.29-8.56,35.73-13.18,54.68-16.09-18.75,3.57-37.16,8.32-54.68,16.09Z"/>
    </g>
  </g>
</svg>