<?xml version="1.0" encoding="UTF-8"?>
<svg id="Layer_1" data-name="Layer 1" xmlns="http://www.w3.org/2000/svg" version="1.1" viewBox="0 0 595.28 841.89">
  <defs>
    <style>
      .cls-1 {
        fill: #000;
        stroke-width: 0px;
      }
    </style>
  </defs>
  <path class="cls-1" d="M301.34,67.02c7.64-6.28,15.35-13.09,23.55-19.24,15.04-11.29,32.09-18.01,50.36-21.61,10.89-2.15,21.9-2.99,32.95-2.1,13.84,1.11,26.51,5.52,37.04,15.11,6,5.47,9.49,12.14,8.51,20.66-.71,6.11-3.72,11.09-7.46,15.7-1.26,1.56-2.62,3.02-4,4.61,4.17,1.96,8.35,3.78,12.39,5.87,11.54,5.98,22.3,13.1,30.92,23.14,5.05,5.88,8.95,12.37,10.32,20.25,2.3,13.21-3.39,22.82-15.95,26.75-8.62,2.7-17.42,2.64-26.27,1.85-20.93-1.85-40.73-8.02-59.84-16.6-15.16-6.81-29.16-15.78-43.19-24.66-11.04-6.99-22.05-14.02-33.08-21.03-.63-.4-1.33-.71-2.53-1.34.19,2.83.18,5.24.55,7.6,1.5,9.44,3.32,18.79,7.3,27.55,2.67,5.87,6.32,11.08,10.52,15.9,14.23,16.34,30.36,30.25,49.63,40.11,13.15,6.73,27.08,11.11,41.38,14.46,11.47,2.69,23.07,4.14,34.81,4.74,2.09.11,3.15-.31,3.91-2.58,4.43-13.18,12.6-23.19,25.25-28.78,8.69-3.84,17.6-3.94,26.21.64,4.72,2.51,6.9,6.7,7.6,11.99,1.46,11.03-3.29,19.01-11.42,25.6-9.34,7.58-20.07,11.6-31.71,13.48-2.23.36-4.46.69-6.61,1.03,0,2.9-.19,5.84.03,8.75.39,5.2.95,10.66,3.26,18.28,2.52,8.31,4.54,13.05,11.6,18.6,10.17,8,28.71,10.28,40.63,13.96,11.07,3.43,23.49,10.89,32.37,18.21,6.43,5.3,12.14,11.29,16.3,18.64,6.92,12.24,7.34,24.86,1.84,37.74-4.43,10.37-10.72,19.64-16.66,29.12-5.67,9.06-11.62,17.96-15.59,27.98-6.51,16.43-6.33,32.57,3.22,47.77,5.18,8.24,11.12,15.99,16.77,23.92,5.43,7.63,10.07,15.65,12.4,24.88,2.95,11.69,1.22,22.84-3.55,33.7-4.68,10.66-11.34,20.1-17.49,29.86-5.26,8.36-10.43,16.81-15.16,25.5-3.31,6.08-5.03,12.8-5.03,19.9,0,4.8,1.13,9.24,3.24,13.48,3.51,7.07,8.32,13.2,13.32,19.19,7.1,8.5,15.07,16.27,20.81,25.91,5.03,8.46,8.81,17.4,10.12,27.25,1,7.49-.08,14.83-2.59,21.92-8.14,23.07-19.72,44.19-35.11,63.04-6.67,8.18-14,15.71-23.64,20.4-3.05,1.48-7.71-1.15-7.82-4.6-.02-.58.44-1.42.93-1.73,11.87-7.52,19.94-18.67,27.52-30.2,10.68-16.24,19.03-33.64,25.26-52.17,6.41-19.07,2.49-36.08-9.19-51.59-4.9-6.51-10.62-12.38-15.66-18.79-4.33-5.51-8.42-11.23-12.25-17.11-8.72-13.38-9.24-27.57-3.57-42.3,3.91-10.15,9.87-19.1,15.6-28.2,5.76-9.15,11.49-18.35,16.75-27.8,3.6-6.48,5.83-13.64,6.02-21.2.26-10.37-3.45-19.43-9.45-27.61-4.7-6.42-9.59-12.69-14.13-19.22-6.24-8.98-11.48-18.52-13.76-29.44-3.08-14.76-.97-28.91,5.91-42.14,4.43-8.52,9.6-16.64,14.58-24.85,5.43-8.95,11.51-17.51,15.47-27.31,3.23-7.97,4.29-16.11,1.07-24.38-2.33-5.98-6.51-10.39-11.71-13.88-10.68-7.17-22.51-11.55-34.82-14.75-8.44-2.2-16.94-3.33-25.1-6.78-19.15-8.09-32.16-21.01-35.49-42.11-.98-6.22-1.14-12.57-1.69-19.13-.93,0-2.41,0-3.88,0-25.95-.1-50.57-5.89-73.8-17.75-17.62-9-32.48-21.6-46.32-35.79-13.77-14.11-22.31-30.78-26.03-50.15-1.47-7.66-2.05-15.42-1.82-23.23.02-.84,0-1.69,0-2.56-3.68.54-3.54.55-3.86,3.94-.86,9.1-3.46,17.75-6.53,26.3-7.82,21.79-21.03,39.77-37.16,55.85-30.46,30.38-66.95,49.7-107.57,61.57-12.15,3.55-24.52,6.01-37.03,7.81-.27.04-.53.12-.73.16.55,3.92,1.15,7.75,1.62,11.59,1.42,11.59-.95,22.49-5.86,32.91-6.17,13.1-15.14,24.07-25.86,33.39-12.33,10.72-25.27,20.71-37.9,31.07-2.42,1.99-4.79,4.08-6.93,6.37-3.11,3.34-2.93,5.15.83,7.61,5.02,3.29,10.2,6.35,15.32,9.49,7.12,4.37,13.84,9.23,19,16.02,8.38,11.03,10.03,22.87,4.2,35.66-4.29,9.42-10.28,17.71-16.56,25.79-6.99,8.99-14.25,17.76-21.1,26.87-2.36,3.14-4.15,6.86-5.62,10.55-1.99,5-.94,9.73,2.46,13.93,4.62,5.7,10.57,9.73,16.44,13.87,9.62,6.79,19.41,13.34,28.83,20.4,7.38,5.53,13.73,12.22,19.12,19.86,10.89,15.46,13.37,32.16,7.82,50.26-3.72,12.13-9.14,23.51-14.4,34.96-6.64,14.45-13.29,28.9-17.7,44.29-3.34,11.63-4.25,23.46-3.51,35.53.75,12.16,2.76,24,7.34,35.29,2.77,6.83,6.37,13.12,11.54,18.46,5.44,5.62,12.12,8.22,19.58,9.08,4.14.48,8.36.37,12.46,1.03,1.94.31,3.83,1.64,5.46,2.89,1.04.8.77,2.07-.85,2.15-14.75.71-28.73-1.49-40.52-11.56-9-7.68-15.18-17.4-19.47-28.41-7.28-18.68-9.56-38.19-8.45-58.11.86-15.3,5.81-29.58,11.93-43.42,5.65-12.77,11.75-25.32,17.44-38.07,3.52-7.87,6.14-16.05,7.15-24.74,1.37-11.87-1.83-22.39-8.52-31.95-6.39-9.15-15.02-15.81-23.97-22.08-9.3-6.5-18.82-12.7-27.86-19.56-4.6-3.49-8.69-7.86-12.41-12.34-6.13-7.38-6.68-15.71-2.67-24.45,3.66-7.99,9.13-14.69,14.36-21.58,7.57-9.98,15.26-19.87,22.54-30.06,2.62-3.67,4.57-7.96,6.21-12.21,4.21-10.91,1.49-21.48-7.63-28.59-5.33-4.15-11.26-7.48-16.94-11.15-4.87-3.15-10.03-5.9-13.84-10.5-4.22-5.09-4.65-9.45-.27-14.29,4.59-5.07,9.75-9.63,14.89-14.15,10.08-8.86,20.61-17.21,30.4-26.38,10.26-9.61,18.65-20.83,24.09-34.11,3.92-9.57,4.95-19.46,3.61-29.67-.03-.2-.16-.39-.16-.38-6.19,0-12.27.15-18.35-.03-14.68-.44-29.14-2.28-42.79-8.22-8.4-3.65-15.97-8.58-21.61-16.14-12.18-16.36-5.5-35.39,14.17-40.14,12.61-3.05,24.6-.4,36.03,5.04,18.17,8.65,31.15,22.82,40.42,40.73.3.57.57,1.16.87,1.73.06.12.17.22.35.44,11.61-2.04,23.08-4.87,34.38-8.53,29.81-9.65,57.22-23.99,81.71-43.85,16.06-13.02,30.93-27.34,42.78-44.6,8.01-11.67,14.03-24.41,18.92-37.72.14-.37.23-.76.48-1.58-1.88.95-3.38,1.7-4.87,2.46-14.11,7.15-28.48,13.82-42.25,21.6-12.85,7.27-25.04,15.75-37.54,23.67-8.19,5.19-16.59,9.93-26.11,12.13-11.34,2.62-22.58,2.9-33.36-2.35-8.18-3.99-14.63-9.79-17.68-18.82-2.5-7.41-1.63-14.78.4-22.12,3.02-10.88,9.18-19.84,16.64-27.97,5.93-6.47,12.69-11.93,20.18-16.66-.17-.42-.26-.84-.48-1.16-6.77-9.71-4.38-21.43,2.69-29.37,6.92-7.77,15.82-12.29,25.37-15.53,11.4-3.87,23.15-5.11,35.15-4.09,28.06,2.39,51.06,15.38,70.75,35.16,2.51,2.52,4.27,5.82,6.11,8.37ZM314.54,84.95c.85.94,1.39,1.91,2.22,2.4,14.48,8.62,28.96,17.26,43.52,25.73,14.87,8.65,29.89,17.01,46.23,22.53,14.63,4.95,29.46,8.85,45.02,8.98,4.98.04,9.86-.49,14.65-1.95,13.01-3.98,14.6-15.37,11.57-24.29-2.28-6.72-7.07-11.53-12.44-15.81-8.69-6.91-18.76-10.99-28.96-14.84-1.65-.63-2.91-.53-4.47.47-11.35,7.3-23.83,11.19-37.16,12.02-9.26.58-18.5.13-27.69-1.6-15.79-2.97-31.16-7.31-45.82-14.03-2.28-1.04-4.1-.86-6.68.38ZM284.25,89.76c-.23.02-.44,0-.64.05-1.36.38-2.72.74-4.06,1.16-14.16,4.44-28.62,6.88-43.45,5.97-10.43-.65-20.87-1.53-31.24-2.81-8.75-1.08-17.33-3.2-25.42-7.02-.7-.33-1.92-.17-2.6.26-6.58,4.16-12.66,9-18.09,14.64-8.38,8.69-15.39,18.22-18.1,30.42-1.15,5.16-1.44,10.28.75,15.25.78,1.77,1.94,2.98,4.02,3.4,5.1,1.03,10.14.57,15.16-.32,9.13-1.63,17.28-5.76,25.11-10.6,10.82-6.7,21.35-13.94,32.43-20.16,21.25-11.94,44.19-19.78,67.05-27.79-.21-.56-.56-1.48-.91-2.43ZM323.91,68.12c.93,0,1.21.03,1.48,0,5.73-.82,11.43-1.98,17.19-2.4,12.72-.94,25.45-.8,38.18.24,11.42.94,22.65,2.87,33.82,5.35,2.74.61,5.87,2.06,8.19,1.26,2.54-.88,4.52-3.79,6.46-6.07,4.47-5.26,8.13-10.93,7.53-18.39-.3-3.76-1.87-6.82-5.42-8.03-4.24-1.45-8.61-2.89-13.02-3.36-10.61-1.15-21.22-.24-31.68,1.76-17.04,3.26-32.94,9.62-47.53,19.23-4.97,3.27-9.83,6.72-15.21,10.42ZM95.54,239.8c-.73-1.83-1.23-3.5-2.02-4.99-2.12-3.98-4.09-8.08-6.61-11.78-8.1-11.86-17.92-21.34-32.83-23.28-7.06-.92-13.86-.28-19.97,3.78-6.01,4-9.05,9.78-8.33,17.06.73,7.35,4.36,13.06,11.55,15.28,6.03,1.86,12.23,3.4,18.46,4.26,10.53,1.46,21.17,1.23,31.78.52,2.59-.17,5.17-.55,7.98-.85ZM292.85,69.72c.15-.09.3-.18.46-.27-2.15-2.95-3.92-6.32-6.52-8.79-14.6-13.9-31.41-23.22-51.71-25.03-14.6-1.3-28.61.87-41.94,7.12-6.15,2.88-11.91,6.42-16.24,11.89-3,3.78-4.78,8.06-4.89,13.19.52-.17.85-.25,1.16-.39,12.29-5.74,25.36-8.29,38.7-9.56,10.32-.98,20.67-.84,30.92.82,10.15,1.64,20.3,3.41,30.36,5.56,6.65,1.42,13.15,3.62,19.71,5.48ZM288.28,76.28c-6.88-1.16-13.58-2.54-20.35-3.36-8.83-1.08-17.71-2.21-26.59-2.38-7.8-.15-15.66.7-23.44,1.64-10.34,1.25-20.29,4.2-29.71,8.81-.39.19-.73.5-1.32.91,16.03,4.11,32.05,5.5,48.18,5.67,14.35.15,28.39-2.31,42.29-5.74,1.85-.46,4-.54,5.42-1.61,1.16-.87,1.95-1.21,3-.76.84-1.06,1.57-1.99,2.51-3.19ZM409.99,81.03c-14.17-5.4-66.06-5.25-81.06.14,27.06,8.84,53.84,12.09,81.06-.14ZM475.78,203.87c13.56-1.29,23.57-4.08,34.02-13.68-11.6-5.37-26.04-.84-34.02,13.68ZM470.12,256.61c-1.14-4.9-2.59-9.75-3.33-14.72-.74-4.99-.76-10.09-1.1-15.14-.18.03-.37.05-.55.08-1.13,10.38-.04,20.39,4.98,29.78ZM302.22,89.38c1.81.77,3.36,1.43,4.91,2.09.16-.1.32-.2.48-.3-.27-.65-.39-1.44-.84-1.91-1.43-1.51-2.93-.99-4.55.12Z"/>
</svg>