<?xml version="1.0" encoding="UTF-8"?>
<svg id="Layer_1" data-name="Layer 1" xmlns="http://www.w3.org/2000/svg" version="1.1" viewBox="0 0 595.28 841.89">
  <defs>
    <style>
      .cls-1 {
        fill: #000;
        stroke-width: 0px;
      }
    </style>
  </defs>
  <path class="cls-1" d="M77.07,716.09c-14.15-5.04-26.06-12.99-34.89-24.98-12.87-17.49-14.07-36.16-4.71-55.62,4.13-8.59,9.94-15.98,16.57-22.74,6.93-7.06,14.08-13.92,20.93-21.05,5.5-5.73,10.46-11.96,13.28-19.48,5.48-14.6,2.71-22.85-7.82-31.88-6.64-5.69-13.52-11.12-20.04-16.94-3.59-3.2-6.96-6.73-9.92-10.52-7.37-9.44-7.63-18.18-.04-27.37,5.6-6.77,12.19-12.75,18.5-18.91,8.1-7.91,16.55-15.47,24.47-23.56,3.1-3.17,5.62-7.13,7.6-11.12,4.24-8.56,2.4-17.8-4.06-24.88-5.53-6.07-12.61-9.91-19.42-14.2-7.88-4.96-15.74-9.96-23.37-15.29-4.42-3.08-7.86-7.26-10.25-12.18-2.62-5.41-2.51-10.75.43-16.02,3.79-6.8,9.51-11.85,15.33-16.79,11.4-9.68,23.03-19.09,34.27-28.94,10.53-9.23,20.17-19.34,26.73-31.91,2.14-4.1,3.78-8.46,5.65-12.7-.18-.13-.35-.26-.53-.4-3.95,1.36-7.89,2.78-11.86,4.06-16.16,5.2-32.63,8.63-49.71,7.89-19.19-.83-35.68-7.74-47.9-22.94-9.65-12-9.81-27.23-1.24-41.17,9.35-15.21,23.31-24.08,40.23-28.23,25.44-6.24,48.13.1,68.21,16.52,9.56,7.82,16.97,17.31,21.73,28.78.08.2.26.35.39.52,22.1-8.42,88.43-61.67,101.89-82.08-1.2.65-1.87,1-2.54,1.36-16.16,8.79-32.23,17.75-48.52,26.31-7.15,3.76-14.92,6.07-23.08,6.67-8.35.62-15.49-2.28-21.88-7.46-8.21-6.66-11.44-15.25-10.11-25.65.08-.67.09-1.34.15-2.25-2.15-.46-4.25-.88-6.34-1.36-15-3.45-27.67-10.96-37.65-22.62-11.17-13.06-12.83-27.94-6.56-43.62,10.02-25.02,28.67-40.23,54.64-46.62,14.21-3.5,28.59-3.89,43.11-1.92,28.13,3.82,53.22,14.65,75.31,32.39,10.07,8.09,18.68,17.56,25.41,28.67.42.69.95,1.41,1.61,1.81,3.02,1.82,5.73,3.9,6.96,7.65,6.83-10.27,14.54-19.43,23.23-27.74,25.11-24,54.06-41.33,87.83-50.13,9.96-2.6,20.1-3.94,30.45-2.99,18.75,1.72,37.86,13.85,43.55,32.07,2.73,8.74,3.07,17.66,1.77,26.63-.82,5.65-2.06,11.25-3.28,16.83-.37,1.7.68,1.91,1.69,2.34,10.31,4.42,19.91,10.04,28.54,17.23,9.56,7.97,17.88,16.91,22.08,28.96,1.6,4.6,2.45,9.27,1.68,14.2-.95,6.07-4.09,10.62-9.1,13.96-6.07,4.05-12.88,6.21-20.01,7.27-10.43,1.56-20.96,1.73-31.38.37-9.97-1.3-19.82-3.45-29.71-5.34-1.29-.25-1.9-.03-2.81.9-4.46,4.5-8.69,9.33-13.68,13.17-14.52,11.19-30.38,11.81-46.91,4.81-10.14-4.29-19.13-10.48-27.28-17.71-8-7.11-15.37-14.93-23.01-22.44-.53-.52-.97-1.14-1.89-1.48.57,2.71,1.01,5.45,1.73,8.11.72,2.68,1.61,5.32,2.61,7.91,4.21,10.96,8.16,22.07,14.6,31.98,13.22,20.37,31.28,35.35,52.72,46.4,16.65,8.58,34.01,15.3,52.63,18,9.59,1.39,19.35,1.69,29.03,2.48.44.04.88-.03.9-.04,1.37-6.23,2.13-12.43,4.11-18.2,5.55-16.19,17.04-27.29,31.86-35.17,8.3-4.42,17.16-7.14,26.64-6.84,12.07.38,22.11,5.41,30.09,14.42,5.39,6.08,6.41,12.96,2.96,20.38-2.34,5.03-4.57,10.13-7.22,15-3.78,6.95-9.66,12.09-15.55,17.22-13.49,11.74-28.98,19.3-46.52,22.73-.51.1-.99.35-2.11.76,2.99,6.65,5.37,13.53,9,19.67,8.67,14.65,17.76,29.06,27,43.36,14.07,21.77,26.19,44.48,34.35,69.18,4.41,13.34,6.79,27,6.6,41.07-.28,21.11-7.16,39.96-20.9,55.8-10.67,12.3-22.51,23.58-33.78,35.37-8.03,8.4-16.16,16.73-23.9,25.41-4.83,5.41-7.88,11.88-8.62,19.29-.67,6.67.57,13.02,3.74,18.77,4.46,8.1,9.37,15.97,14.22,23.85,5.62,9.12,10.96,18.36,13.97,28.74,2.78,9.59,2.84,19.36,1.9,29.17-1.74,18.3-7.08,35.56-15.58,51.82-6.3,12.04-14.59,22.38-26.79,28.96-3.36,1.81-7.01,3.11-10.61,4.43-2.61.96-7.39-1.78-7.9-4.51-.12-.62.81-1.83,1.53-2.15,5.75-2.6,11.1-5.8,15.65-10.22,7.64-7.43,12.87-16.42,16.95-26.17,5.68-13.56,9.38-27.63,11.22-42.22,2.68-21.3-2.24-40.6-14.3-58.34-6.18-9.09-11.92-18.5-17.42-28.01-4.41-7.63-6.42-16.01-5.92-24.94.45-8.17,3.6-15.29,7.93-22.05,6.03-9.42,13.84-17.3,21.66-25.17,9.74-9.81,19.69-19.42,29.21-29.44,11.37-11.96,20.13-25.53,23.93-41.89,2.17-9.36,2.57-18.82,1.84-28.34-1.66-21.59-10.01-41.06-19.39-60.17-7.92-16.14-18.05-30.96-27.83-45.99-8.34-12.81-16.71-25.62-23.07-39.6-.59-1.3-1.14-2.61-1.83-4.21-6.06,0-12.2.48-18.24-.1-11.25-1.1-22.34-3.14-32.92-7.47-7.23-2.96-14.72-5.31-21.92-8.34-18.77-7.89-35.86-18.53-49.64-33.62-9.74-10.67-19.36-21.55-27.08-33.89-1.52-2.42-2.97-4.91-4.19-7.49-5.47-11.56-11.18-23.02-16.16-34.79-4.25-10.04-5.77-20.85-6.8-31.67-.02-.2-.09-.4-.17-.74-2.73,1.72-5.54,3.2-8.01,5.11-6.32,4.91-16.89,2.1-20.29-3.59-.19-.32-.44-.61-.45-.63-4.84,6.22-9.56,12.62-14.63,18.73-14.27,17.22-30.32,32.64-47.75,46.62-22.14,17.75-45.57,33.54-70.89,46.45-.66.34-1.34,1.42-1.33,2.15.1,21.66-8.38,39.75-22.61,55.61-11.57,12.89-25.21,23.42-38.36,34.53-6.63,5.6-13.23,11.26-19.56,17.2-2.47,2.32-4.48,5.31-6.12,8.3-2.11,3.87-1.46,5.83,2.25,8.12,8.77,5.42,17.76,10.5,26.4,16.1,10.4,6.74,19.66,14.81,26.36,25.44,4.16,6.61,6.5,13.74,5.73,21.66-.67,6.92-3.83,12.79-8.02,18.14-7.41,9.45-16.56,17.14-25.36,25.2-6.84,6.27-13.6,12.65-20.23,19.15-1.79,1.76-3.17,4.03-4.41,6.25-2.4,4.31-2.12,7.47,1.45,10.83,5.76,5.43,11.91,10.44,17.71,15.83,5.51,5.13,11.2,10.16,16.08,15.86,12.36,14.41,11.54,32.13,2.16,46.99-5.33,8.45-12.56,15.23-19.63,22.13-7.4,7.22-14.93,14.34-20.91,22.85-6.3,8.96-10.47,18.72-11.63,29.74-1.73,16.48,9.13,31.41,25.24,34.42,2.36.44,3.97.38,5.58-2.25,4.43-7.24,11.04-11.83,19.44-13.64,6.53-1.41,12.03.97,16.97,4.91,1.87,1.49,3.62,3.25,5,5.18,3.53,4.94,2.61,10.35-2.39,13.82-2.2,1.53-4.67,2.99-7.23,3.61-5.31,1.3-10.75,2.18-16.17,2.88-1.83.24-2.64.8-3.09,2.48-4.13,15.44-1.45,29.67,7.41,42.88,7.18,10.71,17.16,17.77,28.87,22.72,13.9,5.88,28.42,9.73,43.16,12.6,10.54,2.05,21.18,3.79,31.87,4.79,14.96,1.39,29.99,1.59,44.7-2.46,2.02-.55,3.93-1.49,5.88-2.29,2.23-.91,6.1.79,6.59,3.13.13.64-.6,1.78-1.25,2.21-5.12,3.38-10.9,5.03-16.88,6.01-13.86,2.25-27.77,2.3-41.73.99-22.84-2.15-45.22-6.63-66.87-14.18-21.74-7.58-39.32-20.74-51.43-40.64-7.21-11.85-10.14-24.71-8.56-38.54.05-.45.07-.9.07-1.36,0-.22-.08-.43-.12-.68ZM275.6,89.43c-5.82-11.04-13.6-20.41-23.79-27.46-25.89-17.9-54.5-24.47-85.51-18.86-19.82,3.59-35.94,13.62-47.36,30.5-6.03,8.92-10.68,18.51-9.96,29.66.78,12.19,5.34,16,14.22,18.58,7.2,2.1,14.63,2.65,22.11,2.8,1.55.03,2.38-.45,3.17-1.82,4.12-7.09,9.15-13.52,15.47-18.76,26.2-21.73,56.26-28.24,89.39-22.27,7.79,1.4,15.21,3.91,22.27,7.62ZM458.2,84.03c.07-.2.23-.53.3-.88,1.76-8.62,3.94-17.18,5.12-25.89.95-7.01.51-14.14-2.27-20.91-.75-1.84-1.87-2.86-3.82-3.37-9.18-2.4-18.31-1.25-27.29.73-18.08,3.98-35.01,11.03-50.94,20.4-18.33,10.79-34.2,24.76-49.77,39.09-1.22,1.12-2.39,2.31-3.56,3.49-1.16,1.17-2.3,2.37-3.69,3.82,43.87-19.44,89.05-24.32,135.92-16.48ZM53.74,253.55c6.58-.63,11.8-.87,16.93-1.66,19.87-3.09,38.49-10.14,56.71-18.39.55-.25,1.1-1.35,1.02-1.98-.8-7.18-2.99-13.94-6.51-20.25-4.64-8.32-11.54-13.64-20.83-15.99-8.84-2.23-17.73-2.73-26.62-.82-15.18,3.27-28.07,10.38-37.15,23.37-4.91,7.02-8.02,14.63-6.81,23.5.67,4.91,2.75,8.68,7.93,9.7,5.51,1.09,11.09,1.84,15.34,2.52ZM337.65,115.37c28.88,13.82,57.66,26.21,87.75,35.58,12.14-15.74,20.41-33.36,27.7-52.04-39.87-3.62-78.02,1.93-115.45,16.45ZM452.13,157.24c3.87.49,7.29,1.22,10.73,1.31,7.6.19,15.22.31,22.82,0,6.97-.29,13.72-2.01,19.8-5.6,2.23-1.32,4.54-2.94,6.03-4.99,4.76-6.57,3.95-13.57.16-20.19-7.56-13.19-20.4-18.95-34.16-23.71-6.73,18.52-14.38,36.39-25.37,53.19ZM326.83,120.01c.42,2.59.91,4.37.94,6.15.02,1.64.51,2.8,1.68,3.95,9.19,8.96,18.12,18.21,27.55,26.9,5.52,5.08,11.63,9.6,17.83,13.85,5.51,3.78,11.88,4.89,18.56,3.63,9.68-1.82,17.11-7.31,23.84-14.29-.45-.18-.66-.27-.87-.35-29.58-11.23-58.11-24.75-86.07-39.5-.91-.48-2.21-.24-3.46-.34ZM277.47,100.54c-3.56-1.12-6.69-2.45-9.96-3.07-13.3-2.51-26.64-2.68-39.98-.09-17.97,3.49-34.16,10.64-47.84,23.01-.74.67-1.46,1.38-2.65,2.51,4.84-.42,8.97-.76,13.09-1.13,9.31-.85,18.61-1.79,27.92-2.56,9.54-.8,19.09-1.61,28.66-2.08,5.1-.25,10.24.05,15.35.39,2.54.17,5.02-.47,6.39-2.62,2.92-4.56,5.76-9.16,9.02-14.36ZM508.88,258.48c.64-.09,1.23-.11,1.8-.25,8.28-2.06,16.27-4.89,23.78-9,8.88-4.87,16.97-10.7,22.75-19.23,2.32-3.43,4.2-7.08,4.57-11.33-17.8-2.39-47.41,16.78-52.88,39.82ZM233.13,134.08c-.04-.11-.09-.22-.13-.32-6.82,1.06-13.66,2.01-20.45,3.21-15.96,2.82-31.98,5.01-48.21,5.38-.67.02-1.64.68-1.92,1.3-2.38,5.22-3.56,10.67-3.28,16.46.1,2.14.81,2.89,2.85,2.44,4.99-1.11,10.07-1.89,14.94-3.37,15.12-4.59,29.16-11.78,43.32-18.64,4.32-2.09,8.59-4.3,12.88-6.46Z"/>
</svg>