<?xml version="1.0" encoding="UTF-8"?>
<svg id="Layer_1" data-name="Layer 1" xmlns="http://www.w3.org/2000/svg" version="1.1" viewBox="0 0 595.28 841.89">
  <defs>
    <style>
      .cls-1 {
        fill: #000;
        stroke-width: 0px;
      }
    </style>
  </defs>
  <path class="cls-1" d="M527.42,705.64c2.18-3.83,4.23-7.74,6.57-11.48,5.4-8.63,10.41-17.45,14.57-26.75,2.53-5.66,5.45-11.14,7.84-16.85,2.57-6.14,4.6-12.46,5.32-19.18.8-7.51-.59-14.67-2.23-21.93-1.15-5.1-2.93-9.88-5.18-14.5-2.68-5.5-5.61-10.88-8.59-16.22-1.44-2.58-2.87-5.34-4.96-7.33-2.1-2-3.46-4.36-5.11-6.61-1.3-1.78-3.31-3.03-4.91-4.6-3.3-3.24-6.48-6.59-9.81-9.79-1.34-1.29-3.22-2.08-4.37-3.5-1.74-2.15-4.29-3.25-6.05-5.35-1.14-1.35-2.68-2.38-4.1-3.48-2.07-1.6-4.25-3.07-6.29-4.72-1.38-1.11-2.72-2.33-3.87-3.67-1.73-2.03-3.57-4.06-4.86-6.37-3.65-6.49-3.46-13.25-.73-20.03,3.73-9.27,10.04-16.82,16.9-23.78,7.76-7.88,16.12-15.16,24.24-22.68,6.21-5.75,11.97-11.89,16.88-18.8,2.64-3.71,3.78-7.92,4.52-12.38.51-3.08-.18-5.77-1.07-8.56-.36-1.13-.24-2.43-.65-3.53-.49-1.33-1.3-2.54-2-3.79-1.86-3.3-3.57-6.69-5.68-9.83-1.12-1.66-2.94-2.84-4.42-4.25-1.55-1.48-3.02-3.03-4.61-4.47-1.55-1.41-3.19-2.73-4.8-4.08-.25-.21-.77-.31-.81-.54-.41-1.97-2.41-2.08-3.59-3.13-1.77-1.57-3.63-3.05-5.53-4.45-1.64-1.21-3.64-2.03-5.04-3.45-2-2.03-4.65-2.81-6.9-4.32-3.25-2.18-6.48-4.39-9.82-6.43-1.88-1.15-3.97-1.94-5.93-2.96-1.59-.82-3.1-1.8-4.7-2.59-2.13-1.05-4.32-1.98-6.46-2.99-1.9-.9-3.76-1.89-5.68-2.76-.9-.4-1.94-.49-2.83-.9-2.88-1.33-5.69-2.83-8.6-4.09-2.64-1.14-5.42-1.93-8.07-3.05-3.87-1.63-7.64-3.49-11.51-5.11-3.09-1.3-6.32-2.27-9.41-3.59-2.37-1.02-4.6-2.36-6.92-3.53-1.89-.95-3.82-1.81-5.69-2.78-3.19-1.64-6.36-3.34-9.54-5.01-1.58-.83-3.3-1.47-4.73-2.5-2.07-1.5-4.01-3.22-5.88-4.98-2.15-2.02-4.2-4.15-6.25-6.28-1.7-1.77-2.3-4.12-3.34-6.25-2.05-4.21-1.6-8.41-.9-12.53,1-5.86,3.02-11.5,6.78-16.24,3.72-4.7,7.67-9.21,11.55-13.84-2.1-.66-4.44-1.3-6.72-2.13-2.91-1.07-5.78-2.23-8.62-3.46-3-1.29-6.05-2.52-8.89-4.11-5.08-2.84-10.03-5.92-15-8.94-2.65-1.61-5.42-3.09-7.81-5.03-4.32-3.5-8.39-7.33-12.59-10.98-1.74-1.51-3.64-2.84-5.3-4.43-1.79-1.72-3.35-3.69-5.08-5.47-1.86-1.92-3.87-3.69-5.7-5.64-1.56-1.66-3.03-3.42-4.42-5.23-1.78-2.31-3.45-4.69-5.14-7.07-1.59-2.23-3.25-4.42-4.7-6.74-1.2-1.93-2.07-4.06-3.18-6.05-1.03-1.87-2.41-3.57-3.23-5.52-1.58-3.72-2.95-7.54-4.27-11.37-1.04-3.02-1.95-6.08-2.79-9.16-1.72-6.35-2.67-12.78-1.32-19.34.89-4.33,1.9-8.64,2.91-13.2-2.28-.22-4.74-.48-7.21-.69-11.59-1.03-22.41,2.03-32.96,6.36-11.69,4.81-23.3,9.82-35,14.6-16.62,6.78-32.39,15.28-47.81,24.35-15.88,9.34-30.8,20.13-45.03,31.88-9.92,8.2-19.38,16.8-27.09,27.17-1.17,1.57-2.3,3.16-3.43,4.76-.1.15-.1.37-.21.87,2.44-.5,4.7-1.09,7-1.42,4.83-.71,9.66-1.46,14.52-1.87,3.59-.31,7.26-.48,10.82-.06,3.99.47,7.94,1.55,11.84,2.61,3.16.86,6.31,1.89,9.31,3.2,1.81.79,3.34,2.23,4.97,3.41,1.07.78,2.12,1.58,3.12,2.45.91.79,1.77,1.66,2.6,2.54,1.2,1.29,2.52,2.52,3.5,3.97,2.87,4.24,2.75,8.73.6,13.21-2.55,5.31-6.45,9.63-10.5,13.79-5.28,5.43-11.35,9.85-18.4,12.62-6.75,2.66-13.77,4.62-21.04,5.32-5.88.57-11.79,1.2-17.68,1.12-4.57-.07-9.1-1.44-13.68-1.77-2.73-.2-5.13-1.16-7.31-2.38-2.48-1.39-4.5-3.49-6.38-5.83-1.49-1.85-1.92-3.95-2.4-5.8-.75-2.92-.57-6.21-.18-9.26.39-3.09,1.52-6.09,2.38-9.35-1.54.54-3.13.98-4.62,1.65-7.26,3.29-14.32,6.97-20.49,12.09-2.01,1.66-3.91,3.55-5.49,5.62-9.47,12.43-16.21,26.24-20,41.4-1.12,4.48-1.9,9.12-2.19,13.72-.28,4.51,0,9.09.51,13.59.44,3.91,1.2,7.84,2.4,11.58,1.21,3.77,3.26,7.26,4.74,10.96,2.11,5.3,6.1,9.37,9.04,14.12,1.3,2.11,2.82,4.11,4.44,5.98,2.17,2.49,4.58,4.79,6.83,7.21,1.73,1.86,3.39,3.79,5.07,5.69.09.1.12.25.22.33,2.38,1.9,4.81,3.75,7.15,5.7,2.35,1.96,4.62,4.03,6.94,6.03,1.26,1.08,2.53,2.14,3.83,3.18,4.46,3.58,8.98,7.08,13.36,10.75,2.76,2.31,5.27,4.91,7.98,7.28,1.6,1.4,3.56,2.41,5.02,3.92,3.91,4.05,7.5,8.44,11.51,12.38,2.03,2,3.13,4.43,4.58,6.72.07.11.15.23.25.32,3.67,3.31,5.82,7.6,7.46,12.13,1.54,4.25,3.4,8.53,4.03,12.95,1.06,7.42.76,14.88-2.25,22.03-8.32,19.7-19.75,37.24-35.77,51.57-5.98,5.35-12.24,10.4-18.36,15.59-.56.48-1.1.98-2.13,1.91,3.03,1.42,5.75,2.71,8.47,3.99,2.94,1.38,5.94,2.64,8.81,4.14,3.37,1.76,6.59,3.81,9.96,5.58,2.2,1.16,4.62,1.9,6.81,3.08,1.6.86,2.97,2.14,4.45,3.23,2.29,1.69,4.59,3.37,6.88,5.06.33.24.75.41.96.73,1.72,2.5,3.43,5.01,5.1,7.54,2.73,4.14,3.53,8.97,4.35,13.67.91,5.18.52,10.45-.39,15.68-2.6,14.95-9.89,27.77-18,40.24-9.24,14.21-20.75,26.39-33.63,37.28-7.05,5.96-14.44,11.51-21.72,17.19-1.51,1.18-3.28,1.83-5.66,1.17,1.03-1.26,1.84-2.46,2.86-3.45,7.81-7.56,15.69-15.05,23.5-22.6,10.92-10.55,21.68-21.23,30.38-33.81,6.05-8.76,7.67-18.41,7.53-28.77-.07-4.88-1.63-9.26-3.12-13.64-.81-2.36-2.87-4.38-4.65-6.29-1.95-2.08-4.14-3.95-6.39-5.7-1.36-1.06-3.05-1.71-4.56-2.58-1.87-1.08-3.64-2.33-5.57-3.27-3.63-1.77-7.32-3.41-11.03-5-2.01-.86-4.11-1.52-6.16-2.27-4.64-1.71-9.34-3.31-13.9-5.2-1.89-.79-3.52-2.22-5.25-3.38-1.06-.71-2.69-1.27-2.99-2.24-.6-1.89-.95-4.13-.51-6.02,1.58-6.82,5.31-12.64,9.33-18.26,4.41-6.17,10.21-10.85,16.23-15.39,11.14-8.41,22.43-16.66,32.28-26.66,4.61-4.69,7.25-10.27,7.27-16.8.01-3.3-.66-6.67-1.54-9.87-1.12-4.09-2.65-8.09-4.24-12.03-.7-1.73-2-3.22-3.01-4.83-.21-.34-.47-.69-.54-1.07-.58-3.04-2.19-5.32-4.72-7.11-.7-.49-.74-1.83-1.36-2.53-2.56-2.89-5.23-5.66-7.84-8.51-2.28-2.49-4.39-5.15-6.8-7.5-2.24-2.18-4.77-4.06-7.2-6.04-2.67-2.17-5.4-4.27-8.05-6.47-3.07-2.55-6.07-5.17-9.1-7.76-3.21-2.75-6.38-5.54-9.64-8.22-1.36-1.12-3.06-1.84-4.38-3-3.49-3.08-6.96-6.2-10.25-9.49-1.97-1.97-3.54-4.31-5.37-6.42-2.57-2.96-5.28-5.8-7.79-8.8-1.02-1.22-1.6-2.81-2.53-4.13-3.43-4.87-6.51-9.95-8.15-15.7-1.58-5.53-3.85-10.91-3.92-16.82-.02-1.64-.65-3.26-.77-4.91-.55-7.74.19-15.39,1.76-22.98,4.57-22.02,14.53-41.46,28.14-59.18,6.82-8.88,14.3-17.17,23.29-23.83,7.02-5.21,14.58-9.7,22.01-14.32,2.61-1.62,5.59-2.64,8.36-4.02.62-.31,1.16-.9,1.58-1.47,10.31-14.14,22.05-26.95,35.48-38.19,17.83-14.92,36.56-28.62,56.74-40.18,10.21-5.85,20.82-11.03,31.36-16.28,17.57-8.74,36.1-15.1,54.55-21.63,1.33-.47,2.65-.97,3.97-1.47.17-.06.32-.18.43-.61-2.23.2-4.47.29-6.68.61-11.46,1.66-22.95,3.15-34.37,5.11-15.72,2.71-31.4,5.7-47.06,8.74-8.78,1.7-17.45,4.02-26.26,5.56-13.12,2.29-26.22,4.9-39.56,5.54-3.55.17-7.17.16-10.68-.34-4.35-.62-8.79-1.55-12.07-4.82-1.33-1.33-2.35-3.15-3-4.94-2.3-6.27-1.8-12.51-.17-18.98,2.65-10.47,7.09-20.01,13.1-28.89,8.41-12.42,19.24-22.3,31.73-30.5,10.79-7.09,21.96-13.43,34.31-17.32,11.12-3.5,22.57-5.36,34.26-4.75,6.08.32,12.19,1,18.19,2.05,5.02.88,9.92,2.5,14.86,3.87,5.54,1.54,11.03,3.19,16.14,5.98,3.33,1.82,7.1,2.86,10.31,4.84,5.93,3.67,12.08,7.11,16.59,12.73,1.88,2.34,4.36,4.2,6.37,6.46,5.02,5.6,9.35,11.68,12.09,18.76,1.55,3.99,2.97,8.03,4.46,12.05,1.97.33,4.18.79,6.41,1.03.62.07,1.54-.29,1.94-.77,10.12-12.14,20.27-24.25,32.15-34.75,16.53-14.61,34.78-26.33,56.19-32.47,9.81-2.81,19.87-4.54,30.1-4.2,6.49.22,12.99,1.03,19.4,2.1,6,1,11.77,3.06,17.16,5.93,3.73,1.99,7.38,4.18,10.84,6.61,4.17,2.93,8.31,5.99,12.07,9.43,2.85,2.6,5.1,5.86,7.58,8.85,1.33,1.61,2.78,3.16,3.83,4.95,2.54,4.32,5.41,8.46,6.38,13.59.4,2.11,1.97,3.96,2.67,6.05.76,2.27,1.09,4.68,1.68,7.02.64,2.55,1.48,5.06,2.01,7.64.52,2.51.75,5.07,1.12,7.61.21,1.45.61,2.88.68,4.33.29,5.52.7,11.04.63,16.56-.04,3.42-.61,6.89-1.36,10.24-.95,4.21-2.03,8.44-3.6,12.45-2.41,6.15-7.09,10.63-12.2,14.58-9.37,7.25-19.72,12.66-31.22,15.66-5.43,1.42-11,2.02-16.61,1.1-5.76-.94-11.54-1.8-17.22-3.08-2.73-.62-5.23-2.21-7.88-3.22-2.23-.85-4.6-1.34-6.79-2.26-3.66-1.54-7.21-3.34-10.84-4.94-1.4-.62-2.96-.89-4.36-1.52-5.48-2.45-11.08-4.7-16.33-7.58-2.94-1.61-6.07-2.78-8.92-4.4-2.6-1.48-5.33-2.5-7.98-3.76-1.07-.51-1.97-1.4-3.03-1.94-1.6-.81-3.31-1.42-4.93-2.2-1.61-.77-3.16-1.67-4.76-2.47-3.81-1.92-7.6-3.88-11.46-5.71-1-.47-2.27-.37-3.27-.83-4.9-2.25-9.73-4.66-14.63-6.9-4.34-1.98-8.77-3.77-13.13-5.71-1.57-.69-3.06-1.55-4.79-2.44-.7,6.61-.14,12.7,1.85,18.66,1.1,3.28,1.99,6.64,3.35,9.81,1.46,3.41,3.35,6.63,5.08,9.92.87,1.66,1.71,3.35,2.73,4.91,1.45,2.23,3.07,4.35,4.61,6.52,1.06,1.5,2.01,3.08,3.15,4.51,2.51,3.15,5.06,6.27,7.7,9.31,2.32,2.67,4.76,5.24,7.21,7.79,1.08,1.12,2.29,2.11,3.49,3.1,1.77,1.46,3.75,2.7,5.34,4.33,5.23,5.36,11.37,9.61,17.34,14.01,4.64,3.42,9.89,6.01,14.88,8.96,2.35,1.39,4.65,2.89,7.09,4.08,2.33,1.14,4.83,1.91,7.23,2.9,3.68,1.52,7.28,3.28,11.04,4.59,3.86,1.35,7.86,2.31,11.83,3.34.46.12,1.13-.33,1.64-.62,7.31-4.1,14.84-7.65,23-9.79,6.7-1.75,13.29-4.06,20.08-5.28,7.19-1.29,14.55-1.83,21.86-2.26,4.75-.28,9.56-.03,14.3.45,3.96.4,8,1.08,11.75,2.38,3.95,1.36,8.03,2.49,11.41,5.44,5.12,4.47,6.73,10.13,2.26,15.58-7.79,9.51-17.26,16.89-29.27,19.92-6.72,1.7-13.84,1.88-20.8,2.6-3.27.34-6.59.55-9.87.44-5.15-.18-10.31-.57-15.44-1.09-5.41-.54-10.81-1.27-16.2-2.03-4.33-.61-8.66-1.25-12.93-2.16-4.55-.97-9.04-2.26-13.7-3.44-3.2,4.36-4.54,9.27-4.2,14.67.1,1.65.2,3.32.54,4.93.22,1.06.74,2.12,1.36,3.01,2.23,3.2,4.36,6.5,6.92,9.42,1.58,1.8,4.1,2.76,5.8,4.49,3.67,3.75,8.64,5.05,13.03,7.44,1.83,1,3.56,2.2,5.44,3.09,2.44,1.16,4.98,2.09,7.47,3.13,1.28.53,2.59,1.02,3.84,1.6,3.43,1.59,6.8,3.31,10.26,4.81,2.64,1.14,5.42,1.96,8.09,3.06,3,1.23,5.93,2.61,8.9,3.92,3.19,1.41,6.38,2.83,9.59,4.2,3.21,1.37,6.5,2.59,9.65,4.07,3.5,1.65,6.88,3.56,10.33,5.31,1.58.81,3.25,1.44,4.81,2.29,1.87,1.02,3.65,2.2,5.49,3.27,1.83,1.07,3.72,2.04,5.52,3.17.89.56,1.53,1.51,2.42,2.04,1.19.71,2.68.97,3.77,1.79,4.13,3.09,8.66,5.6,12.39,9.33,1.39,1.39,3.34,2.7,5.06,4,2.3,1.74,4.53,3.62,6.53,5.69,1.33,1.37,2.21,3.16,3.29,4.77.11.17.15.44.3.52,3.18,1.62,4.07,5,5.91,7.65.04.06.1.1.12.16,1.97,5.45,4.49,10.55,4.58,16.74.17,10.86-4.98,19.17-11.16,27.14-7.26,9.35-15.41,17.9-24.1,25.93-6.29,5.82-12.85,11.38-18.69,17.62-3.77,4.03-6.7,8.93-9.52,13.73-1.34,2.29-1.89,5.21-2.16,7.92-.19,1.96.59,4.04,1.1,6.02.41,1.57.93,3.16,1.66,4.6.77,1.51,1.68,3.05,2.87,4.23,2.41,2.4,5.08,4.54,7.59,6.84.98.9,1.74,2.07,2.76,2.9,2.12,1.73,4.45,3.22,6.52,5,1.33,1.14,2.32,2.66,3.54,3.93.97.99,2.08,1.84,3.1,2.78,2.47,2.29,4.92,4.6,7.39,6.89,1.41,1.3,2.89,2.53,4.23,3.89,1.05,1.07,1.88,2.36,2.93,3.42.93.94,2.11,1.62,3.05,2.55.99.98,1.84,2.09,2.71,3.19,1.55,1.96,3.11,3.93,4.59,5.94,1.81,2.46,3.75,4.87,5.28,7.5,2.76,4.72,5.33,9.56,7.82,14.43.78,1.52,1.18,3.28,1.55,4.97.99,4.61,2.14,9.22,2.72,13.89.84,6.83.17,13.62-1.4,20.35-2.53,10.86-8.03,20.36-13.23,30.03-8.32,15.48-17.94,30.11-29.14,43.66-3.26,3.94-6.99,7.49-10.53,11.2-.39.4-.91.67-1.38,1l-.76-.64ZM324.23,113.01c2.97.22,6.26.37,9.52.73,5.01.55,10.01,1.15,14.98,1.93,3.02.47,5.98,1.4,8.98,1.99,4.01.79,8.15,1.08,12.04,2.26,5.19,1.57,10.59,2.25,15.67,4.46,3.09,1.34,6.58,2.06,9.88,3.13,5.1,1.64,10.05,3.59,14.96,5.66,1.23.52,2.61.66,3.83,1.18,2.56,1.1,4.71,3.05,7.55,3.66.86.19,1.56,1.02,2.36,1.52.73.45,1.47.88,2.23,1.28,2.1,1.12,4.22,2.2,6.32,3.33,1.64.89,3.22,1.87,4.87,2.73,4.43,2.3,8.87,4.57,13.32,6.83,3.3,1.68,6.63,3.31,9.93,5,1.38.71,2.62,1.71,4.05,2.27,2.71,1.06,5.52,1.85,8.26,2.84,2.19.79,4.26,2,6.5,2.5,3.83.85,7.57,2.12,11.6,2.2,2.74.06,3.29.07,4.03-2.55.6-2.12,1.16-4.26,1.92-6.32,1.78-4.82,2.35-9.84,2.63-14.91.21-3.8.19-7.62.23-11.42.03-3.37.4-6.8-.07-10.1-.8-5.63-1.13-11.37-2.95-16.81-1.31-3.93-1.3-8.23-3.48-11.91-1.01-1.71-1.77-3.57-2.73-5.31-1.9-3.44-3.56-7.07-5.9-10.18-2.25-2.98-5.27-5.38-7.9-8.09-4.32-4.46-9.09-8.32-14.35-11.63-4.48-2.82-9.11-5.31-14.16-6.91-2.49-.79-5.01-1.51-7.56-2.07-4.25-.93-8.49-2.11-12.8-2.46-7.94-.65-15.89-.18-23.79,1-11.39,1.71-22.02,5.41-31.64,11.87-11.61,7.8-21.71,17.32-31.37,27.33-6.28,6.5-12.4,13.14-18.23,19.32.47,2.11.82,3.7,1.25,5.64ZM303.32,105.38c-1.04-1.57-1.87-2.93-2.79-4.22-3.5-4.91-7.41-9.45-11.94-13.45-2.8-2.48-5.34-5.29-8.33-7.5-4.28-3.16-8.73-6.16-13.37-8.77-4.47-2.51-9.23-4.54-13.94-6.6-3.3-1.44-6.72-2.63-10.11-3.85-1.51-.54-3.1-.87-4.66-1.3-4.76-1.31-9.48-2.79-14.29-3.87-4.5-1.01-9.08-1.7-13.66-2.33-4.46-.61-8.94-1.25-13.43-1.38-8.03-.23-15.97.77-23.86,2.41-12.79,2.66-24.09,8.21-33.31,17.45-7.1,7.12-12.33,15.65-16.28,24.92-3.54,8.31-6.6,16.72-4.82,26.04.55,2.86,1.87,5.29,4.21,6.88,5.1,3.46,11.04,3.66,16.85,3.33,6.57-.38,13.14-1.23,19.65-2.26,9.29-1.47,18.55-3.21,27.79-4.99,5.68-1.09,11.28-2.55,16.94-3.73,9.61-2,19.23-4.01,28.88-5.82,11.51-2.16,23.04-4.21,34.59-6.12,8.1-1.34,16.25-2.4,24.38-3.52,3.71-.51,7.44-.86,11.49-1.33ZM100.42,259.85c.92,2.91,1.24,5.54,2.5,7.6,2.76,4.49,7.54,6.55,12.28,7.96,3.96,1.18,8.26,1.3,12.44,1.66,9.34.81,18.61-.17,27.85-1.39,1.82-.24,3.56-1.03,5.8-1.71-1.76-2.03-3.06-4.1-4.87-5.48-2.42-1.85-5.21-3.23-7.91-4.68-1.78-.96-3.63-1.88-5.55-2.46-3.19-.97-6.44-1.82-9.73-2.4-3.16-.55-6.38-.79-9.58-.96-2.87-.16-5.77-.25-8.62.01-4.78.44-9.52,1.19-14.61,1.85ZM456.59,250.81c0,.19.01.39.02.58,19.37,3.27,38.78,6.05,59.13,3.94-1.06-.69-1.62-1.14-2.24-1.45-4-2.03-8.25-3.48-12.64-4.17-5.4-.84-10.87-1.55-16.33-1.7-5.7-.16-11.44.2-17.13.72-3.63.33-7.2,1.37-10.8,2.08Z"/>
</svg>