<?xml version="1.0" encoding="UTF-8"?>
<svg id="Layer_1" data-name="Layer 1" xmlns="http://www.w3.org/2000/svg" version="1.1" viewBox="0 0 595.28 841.89">
  <defs>
    <style>
      .cls-1 {
        fill: #000;
        stroke-width: 0px;
      }
    </style>
  </defs>
  <path class="cls-1" d="M139.96,259.46c4.47-1.99,8.5-3.72,12.47-5.57,17.94-8.35,34.68-18.73,50.24-31.19,10.35-8.28,20.68-16.6,29.62-26.5,5.52-6.12,10.72-12.6,15.6-19.28,8.01-10.97,14.92-22.69,21.12-34.85,6.94-13.61,12.2-27.84,14.86-43.04.48-2.74,1.02-5.46,1.52-8.2.02-.13-.11-.28-.32-.8-.68.57-1.35,1.01-1.86,1.59-29.3,33.05-64.45,57.74-103.26,77.2-15.92,7.99-32.59,13.73-49.91,17.43-10.32,2.21-20.8,3.31-31.32,2.81-12.18-.57-23.92-3.4-35.05-8.75-6.72-3.23-13.26-6.73-18.92-11.72-4.98-4.39-9.12-9.53-11.39-15.93-2.33-6.58-1.41-13.14,1.81-19.13,2.12-3.93,4.82-7.6,7.67-11.03,13.48-16.24,31.36-25.25,50.34-32.49,11.76-4.48,23.74-8.08,35.96-10.93,1.09-.26,2.23-1.39,2.88-2.43,4.9-7.83,10.41-15.17,17.33-21.16,13.7-11.87,28.55-21.68,46.15-26.37,12.46-3.32,25-4.07,37.68-1.81,8.71,1.55,17.08,4.27,24.92,8.52,5.37,2.91,10.79,5.78,15.87,9.18,7.6,5.09,14.63,10.91,18.77,19.6.16.34.51.59.74.85-.22-.24,2.23-1.2,2.4-1.25.41-.11,6.71.13,6.06,1.18,1.19-1.92,2.41-4.2,3.91-6.26,3.4-4.7,7.6-8.58,12.29-11.85,4.13-2.88,8.29-5.77,12.71-8.12,5.67-3.02,11.47-5.89,17.47-8.11,5.04-1.86,10.38-2.95,15.67-3.93,11.03-2.04,22.01-1.34,32.9,1.27,21.16,5.07,38.79,16.6,54.03,32.13,4.74,4.83,8.29,10.9,12.52,16.29.84,1.07,2.16,2.09,3.43,2.38,18.23,4.19,35.83,10.27,52.8,18.31,14.31,6.78,26.46,16.47,36.34,29.11,4.2,5.38,6.95,11.47,7.13,18.56.16,6.13-2.36,11.3-5.74,15.98-4.38,6.05-9.95,10.92-16.5,14.24-6.74,3.42-13.67,6.48-20.7,9.22-6.88,2.68-14.15,4.03-21.51,4.16-6.62.12-13.3.2-19.87-.53-28.34-3.13-54.22-13.87-79.15-27.63-25.1-13.85-48.09-30.76-69.37-50.16-6.19-5.64-11.71-12.08-17.54-18.14-.76-.79-1.56-1.52-2.34-2.28-.23.14-.45.28-.68.42,1.02,5.03,1.93,10.08,3.06,15.08,4.14,18.29,11.78,35.05,21.51,50.79,5.93,9.6,12.05,19.13,18.75,28.18,10.17,13.74,22.94,24.8,36.1,35.38,14.22,11.43,29.06,21.86,45.4,29.83,6.28,3.06,12.64,5.94,18.97,8.89.46.21.98.3,1.38.42-.72-5-1.64-9.89-2.08-14.84-.66-7.36.63-14.5,3.63-21.19,3.03-6.76,8.12-11.17,15.11-13.31,15.67-4.8,30.56-1.59,45.14,4.59,6.47,2.74,12.29,6.65,17.42,11.59,6.15,5.93,8.89,13.02,7.05,21.79-1.64,7.85-5.06,14.59-10.98,19.84-7.22,6.4-15.69,9.58-25.14,9.83-11.82.32-23.13-2.56-34.27-6.31-.7-.24-1.41-.48-2.46-.84,2.65,7.3,6.34,13.49,11.34,18.8,16.18,17.23,33.79,32.71,52.69,46.72,13.31,9.86,26.22,20.31,37.41,32.82,4.51,5.04,8.24,10.56,10.38,17.13,1.95,6,1.64,11.67-1.11,17.49-2.32,4.91-5.79,8.54-9.91,11.58-6.02,4.43-12.24,8.58-18.35,12.88-8.07,5.69-15.93,11.81-21.45,20.19-6,9.1-8.33,19.09-4.95,30.26,3.31,10.92,10.36,19.35,16.29,28.54,5.28,8.18,10.58,16.34,14.14,25.52,1.64,4.22,2.5,8.55.38,12.94-1.64,3.38-4.36,5.74-7.42,7.44-6,3.33-12.16,6.38-18.32,9.39-6.4,3.13-12.51,6.83-17.69,11.72-5.9,5.56-10.55,12.29-11.59,20.79-.98,8,.83,15.67,3.71,23.08,4.83,12.41,12.56,22.9,20.76,33.03,12.22,15.09,22.46,31.51,31.02,49.04,4.39,8.99,6.63,18.6,7.01,28.73.36,9.56-1.78,18.52-5.75,26.95-3.55,7.54-7.31,15.06-11.84,21.98-4.77,7.3-11.62,12.58-19.1,16.9-6.6,3.81-13.64,6.32-20.97,8.03-.42.1-.88.01-1.65-.44,3.41-2.94,6.81-5.89,10.24-8.8,5.18-4.39,10.62-8.47,15.5-13.19,4.91-4.76,8.1-10.95,11.07-17.15,4.98-10.4,8.65-21.28,10.14-32.81,1.39-10.82-.17-21.45-4.23-31.38-7.95-19.42-19.44-36.62-32.49-52.76-8.34-10.32-16.21-21.02-21.5-33.43-3.16-7.4-5.74-15.05-5.69-23.26.05-8.38,2.82-15.88,8.44-21.95,2.95-3.19,6.36-5.96,9.73-8.68,6.88-5.56,14.85-8.97,22.88-12.31,5.05-2.1,9.87-4.87,13.55-9.13,2.18-2.52,3-5.69,2.14-9.13-1.71-6.83-5.09-12.84-8.78-18.65-5.68-8.95-11.78-17.62-17.26-26.7-4.41-7.32-7.3-15.37-7-24.19.19-5.67,1.79-10.99,4.47-16.05,3.49-6.61,8.31-12,13.94-16.54,5.24-4.23,11.01-7.74,16.46-11.71,5.97-4.36,12.51-8.18,17.58-13.49,7.08-7.41,9.57-15.13,3.76-26.72-3.43-6.84-8.86-11.94-14.56-16.58-13.94-11.37-28.19-22.33-42.17-33.66-15.19-12.31-29.39-25.79-42.16-40.74-3.67-4.29-5.97-9.82-8.96-14.73-.62-1.01-1.39-2.22-2.37-2.65-25.31-11.08-48.89-25.18-70.76-42.39-14.13-11.11-27.92-22.66-39.4-36.7-6.46-7.89-12.15-16.53-17.53-25.26-4.92-7.98-9.16-16.44-13.3-24.9-4.94-10.07-8.18-20.8-10.45-31.85-.66-3.2-1.97-6.16-2.49-9.38-.18-1.14-.36-2.46-1.31-3.06-3.96-2.51-8.17,4.4-9.19,7.33-1.44,4.13-1.54,8.58-2.64,12.79-1.33,5.11-2.95,10.13-4.81,15.06-3.78,10.01-8.59,19.59-14.15,28.67-5.53,9.02-11.09,18.07-17.32,26.57-7.97,10.87-17.82,19.97-27.96,28.66-19.87,17-40.89,32.26-64.09,44.1-6.92,3.53-14.01,6.7-20.98,10.12-.97.48-2.11,1.29-2.48,2.23-4.04,10.16-10.98,18.02-18.37,25.62-16.31,16.79-34.09,31.72-52.67,45.74-10.28,7.76-19.86,16.52-29.57,25.05-5.18,4.55-8.65,10.43-10.24,17.31-1.12,4.84.07,9.28,2.31,13.69,3.51,6.89,9.67,10.7,15.43,14.95,4.64,3.43,9.86,6.03,14.45,9.52,6.27,4.77,12.71,9.41,17.65,15.82,5.56,7.22,9.16,15.25,9.08,24.59-.07,8.09-2.72,15.59-6.81,22.34-5.58,9.2-11.87,17.94-17.43,27.16-3.24,5.38-5.92,11.19-8.34,17.03-1.97,4.76-.42,8.42,3.03,11.95,4.52,4.63,10.27,6.73,15.8,9.43,5.25,2.56,10.38,5.4,15.51,8.23,5.88,3.24,10.81,7.68,15.02,13,3.28,4.14,5.26,8.91,6.25,14.09,2.31,12.07-1.95,22.8-6.86,33.24-5.9,12.53-14.54,23.15-23.07,33.82-10.98,13.74-20.17,28.71-27.68,44.71-4.03,8.6-5.84,17.94-5.99,27.56-.14,9.05,1.71,17.71,4.88,26.05,2.47,6.49,4.98,13.01,8.07,19.21,4.29,8.61,10.79,15.34,18.34,21.08,4.96,3.77,9.64,7.95,14.43,11.97.51.43.91,1,1.37,1.51-.1.22-.2.44-.3.67-4.54-1.44-9.19-2.58-13.58-4.39-8.2-3.38-15.67-8-22.05-14.5-5.44-5.54-9.7-11.8-12.86-18.93-2.05-4.61-4.35-9.1-6.29-13.76-2.11-5.06-3.23-10.38-3.81-15.9-1.07-10.16.34-20.07,4.16-29.23,3.93-9.41,9.16-18.25,14.05-27.21,7.41-13.58,17.5-25.15,26.65-37.43,6.43-8.64,12.13-17.79,15.28-28.32,2.06-6.88,3.22-13.91,1.69-21.13-1.22-5.75-4.22-10.61-8.02-14.75-3.07-3.34-6.89-5.94-10.38-8.86-5.5-4.6-12.24-6.78-18.41-10.08-4.95-2.64-9.9-5.38-14.5-8.61-4.65-3.27-5.57-11.01-2.93-17.47,4.12-10.08,9.97-19.08,15.92-28.05,3.93-5.93,8.05-11.77,11.36-18.06,3.97-7.53,6.17-15.74,4.11-24.39-.88-3.71-2.47-7.3-4.14-10.73-3.23-6.63-8.59-11.49-13.91-16.2-4.07-3.6-8.71-6.5-13.11-9.68-5.86-4.24-12.01-8.1-17.54-12.75-5.98-5.04-9.73-11.73-9.23-20.03.44-7.41,3.75-13.75,8.19-19.45,7.57-9.72,16.68-17.77,26.18-25.35,12.2-9.74,24.78-19,36.73-29.06,11.93-10.05,23.31-20.8,33.51-32.78,3.74-4.39,6.28-9.55,8.42-15.12-5.44,1.55-10.58,3.2-15.81,4.45-9.62,2.28-19.31,3.68-29.15,1.37-7.69-1.8-14.52-5.43-19.74-11.5-6.15-7.15-9.33-15.75-8.4-25.41.28-2.93,1.75-5.96,3.36-8.49,4.55-7.16,11.41-11.63,18.67-15.25,11.05-5.51,22.75-8.62,35.12-8.12,6.43.26,12.72,1.45,18.47,4.78,4.71,2.73,7.84,6.87,9.88,11.84,3.8,9.26,3.95,18.9,2.2,28.65-.37,2.08-.97,4.11-1.61,6.72ZM320.76,92.62c-.08.15-.16.3-.24.46.79.97,1.5,2.02,2.38,2.88,6.76,6.68,13.37,13.53,20.39,19.92,11.08,10.08,23.04,19.02,35.8,26.7,16.24,9.76,32.89,18.77,50.88,24.62,9.48,3.08,19.11,5.81,28.84,7.82,9.13,1.88,18.46,2.55,27.85,2.26,7.84-.25,15.61-1.18,23.05-3.47,6.66-2.05,13.02-5.18,19.39-8.13,7.62-3.53,14.04-8.7,19.25-15.55,6.74-8.86,6.75-18.95-.52-27.38-4.62-5.35-10.27-9.45-16.43-12.72-15.94-8.47-32.9-14.09-50.19-18.72-3.63-.97-7.32-1.68-10.91-2.49,1.59,5.35,3.43,10.36,4.55,15.54,2.35,10.8-1.35,21.67-12.28,26.5-8.12,3.59-16.47,3.19-24.84,1.79-12.34-2.08-23.85-7.06-35.52-11.45-17.97-6.76-35.87-13.73-53.94-20.22-9.02-3.24-18.33-5.59-27.52-8.34ZM274.93,93.36c-.14-.21-.27-.42-.41-.64-6.38,1.85-12.77,3.68-19.15,5.55-21.27,6.23-41.65,15.02-62.34,22.92-12.87,4.91-25.59,10.46-39.41,12-7.2.8-14.35.75-21.16-2.49-5.25-2.5-9.27-6.25-11.23-11.89-2.34-6.72-1.64-13.49.59-20.13,1.08-3.21,2.28-6.37,3.47-9.69-.57,0-.96-.07-1.32,0-17.37,3.68-34.2,9.17-50.52,16.32-8.85,3.88-17.24,8.58-24.26,15.57-3.68,3.66-6.27,7.85-7.01,13.13-1.07,7.75,2.59,13.66,7.18,19.1,5.37,6.36,12.32,10.56,19.52,14.19,7.76,3.91,15.94,6.88,24.48,8.27,6.44,1.05,13.02,1.41,19.55,1.63,9.77.33,19.43-1.1,28.94-3.19,14.76-3.23,28.99-8.2,42.8-14.54,28.57-13.11,54.38-30.52,77.29-52.47,4.52-4.33,8.67-9.09,12.98-13.65ZM455.45,76.87c-.41-.82-.61-1.43-.97-1.91-3.93-5.33-7.39-11.15-11.91-15.88-19.07-19.93-42.28-27.13-68.99-23-12.76,1.97-24.5,6.94-35.78,13.05-6.03,3.27-11.71,7.33-17.18,11.56-3.54,2.74-6.64,6.05-9.68,9.35-3.14,3.41-1.81,10.16,2.46,10.78,6.61.97,12.62-2.64,18.94-3.7,7.01-1.18,14.35-2.3,21.48-3.03,11.06-1.13,22.2-1.52,33.32-1.87,8.8-.27,17.62-.3,26.41.13,9.55.47,19.08,1.52,28.61,2.49,4.36.45,8.68,1.31,13.3,2.03ZM285.69,71.5c-.24-.42-.55-.82-.94-1.22-2.98-3.02-5.72-6.29-9.04-8.94-7.79-6.22-16.08-11.64-25.18-15.73-8.23-3.7-16.49-7.06-25.34-8.88-12.1-2.49-24.15-2.44-36.09.52-16.24,4.03-29.5,13.18-40.21,26.28-3.31,4.05-6.15,8.52-9.53,13.27,1.15-.05,1.53-.05,1.9-.09,10.89-1.28,21.75-2.99,32.67-3.75,11.08-.77,22.23-.86,33.34-.78,8.95.07,17.9.8,26.85,1.32,8.05.47,16.1,1.22,24.01,2.81s15.48,2.7,23.61,3.34c.77.06,1.57.12,2.3-.14,2.48-.87,2.76-6.08,1.65-8.02ZM272.39,88.18c-.54-.23-1.07-.55-1.64-.68-10.75-2.45-21.67-3.54-32.64-3.91-10.2-.34-20.41-.43-30.61-.52-8.74-.08-17.48-.18-26.22.06-8.25.23-16.51.73-24.74,1.4-6.93.57-13.83,1.51-20.73,2.41-.71.09-1.7.9-1.92,1.6-1.23,3.93-2.6,7.87-3.27,11.92-1.01,6.06.28,11.91,4.24,16.53,3.66,4.27,8.81,6.32,14.21,7.31,8.18,1.48,16.27.33,24.01-2.27,12.96-4.36,25.88-8.94,38.56-14.09,19.77-8.03,39.84-14.96,60.73-19.76ZM322.91,87.97c.03.17.07.34.1.51,6.58,1.67,13.18,3.27,19.74,5.03,15.1,4.06,29.56,10.07,44.15,15.69,12.41,4.78,24.89,9.42,37.56,13.4,8.77,2.75,17.9,3.67,26.9.27,7.04-2.66,11.86-7.24,13.21-15.25,1.01-6.01-.67-11.47-2.28-17.07-.82-2.84-2.37-3.93-5.03-4.13-14.63-1.09-29.25-2.73-43.9-3.22-14.98-.5-29.99.13-44.99.23-12.22.08-24.42.57-36.51,2.6-3.01.5-5.97,1.29-8.95,1.94ZM131.89,247.78c-.32-6.34-1.18-12.35-3.67-18.21-3.06-7.2-8.5-11.17-15.49-12.97-14.12-3.64-27.59-.89-40.54,5.3-5.17,2.47-7.85,7.08-7.58,12.68.39,8.22,3.04,15.66,8.96,21.73,7.5,7.68,16.46,11.44,26.85,11.9,9.48.41,18.53-1.96,27.5-4.74.74-.23,1.69-1.12,1.82-1.85.83-4.59,1.46-9.23,2.16-13.85ZM463.56,248.48c.56,3.8,1.18,8.44,1.96,13.04.12.71.91,1.72,1.54,1.86,7.75,1.71,15.48,3.82,23.33,4.74,6.5.76,13.07-.38,19.23-3.16,5.56-2.52,10.36-6.15,14.26-10.89,3.66-4.45,5.44-9.92,6.58-15.56,1.55-7.7-1.52-14.02-8.46-17.17-12.52-5.7-25.48-8.19-39.07-4.85-4.75,1.17-9.13,3.31-12.29,7.18-3.47,4.24-5.52,9.31-6.12,14.9-.32,2.99-.58,5.99-.96,9.9ZM297.69,71.96c-.67.03-1.42.37-2.24,1.12-2.37,2.16-3.03,7.86-1.83,10.72,1.08,2.59,3.82.79,5.78,1.1.72.11,2.08-.48,2.3-1.09,1.06-2.88-.35-12.02-4.02-11.85Z"/>
</svg>