<?xml version="1.0" encoding="utf-8"?>
<!-- Generator: Adobe Illustrator 28.3.0, SVG Export Plug-In . SVG Version: 6.00 Build 0)  -->
<svg version="1.1" id="Layer_1" xmlns="http://www.w3.org/2000/svg" xmlns:xlink="http://www.w3.org/1999/xlink" x="0px" y="0px"
	 viewBox="0 0 595.28 841.89" style="enable-background:new 0 0 595.28 841.89;" xml:space="preserve">
<path d="M132.73,826.17c-1.54,0.02-3.11,0-4.63-0.02c-1.53-0.02-3.12-0.03-4.68-0.02l-0.2,0c-2.91,0.03-5.4-0.17-7.62-0.6
	c-1.09-0.21-2.18-0.29-3.24-0.36c-0.32-0.02-0.65-0.04-0.97-0.07c-4.4-0.35-8.65-1.15-13.35-2.08c-6.67-1.32-13.52-3.46-20.36-6.36
	c-7.64-3.24-14.04-6.81-19.57-10.92c-4.4-3.27-8.44-6.85-12-10.65c-6.36-6.78-11.58-14.39-15.52-22.61
	c-3.13-6.53-5.49-13.08-7.02-19.47c-0.72-3.01-1.17-6.08-1.51-8.69c-0.43-3.22-0.41-6.42-0.35-9.69c0.06-3.12,0.68-6.51,1.96-10.68
	c1.55-5.05,3.57-9.27,6.16-12.9c0.88-1.23,1.88-2.43,2.74-3.46l0.57-0.68c0.92-1.1,1.87-2.25,2.89-3.25
	c4.86-4.82,9.67-8.59,14.7-11.54c0.83-0.49,1.68-0.96,2.52-1.43c1.4-0.79,2.85-1.6,4.25-2.48l0.09-0.06
	c1.65-1.03,3.35-2.1,4.72-3.55c1.22-1.29,2.01-2.97,2.71-4.58c1.28-2.95,2.22-5.42,2.95-7.76c0.51-1.63,0.71-3.32,0.9-4.95
	l0.08-0.69c0.22-1.77,0.3-3.64,0.26-5.91c-0.14-8.61-2.49-15.64-7.17-21.48c-1.98-2.48-4.14-5.11-6.49-7.57
	c-1.11-1.17-2.2-2.42-3.24-3.64c-0.49-0.57-0.99-1.14-1.48-1.71c-0.3-0.34-0.6-0.69-0.9-1.03c-0.73-0.83-1.48-1.7-2.25-2.54
	c-4.25-4.65-10.38-9.5-13.4-14.47c-5.26-8.63-8.67-18.05-11.31-26.12c-1.6-4.89-2.22-10.25-1.84-15.93
	c0.18-2.64,0.93-5.23,1.72-7.63c1.15-3.49,2.67-6.92,4.14-10.24c0.48-1.09,0.97-2.18,1.44-3.27c2.81-6.53,9.09-14.22,14.21-20.98
	c2.64-3.48,5.83-7.56,9.53-11.4c2.93-3.05,6.37-7.88,9.77-11.63c6.3-6.94,10.77-11.58,13.6-19.2c1.16-3.11,2.06-6.28,2.68-9.4
	c0.33-1.69,0.43-3.42,0.47-4.88c0.03-1,0.01-2-0.01-2.96c-0.02-0.93-0.04-1.9-0.01-2.83c0.12-3.65-0.67-7.14-1.44-10.52l-0.16-0.69
	c-1-4.43-2.55-8.71-4.62-12.72c-2.64-5.12-5.2-9.08-8.06-12.46c-2.63-3.11-5.03-5.88-7.87-8.38c-0.75-0.66-1.51-1.32-2.26-1.97
	c-1.75-1.52-3.56-3.09-5.25-4.71c-3.06-2.95-6.11-6.29-9.91-10.83c-3.61-4.32-6.53-8.55-8.92-12.94c-2.54-4.66-4.47-9.86-5.89-15.89
	c-0.45-1.9-0.81-3.87-1.15-5.78c-0.2-1.1-0.41-2.23-0.63-3.35c-0.52-2.59-0.84-5.27-1.16-7.86c-0.09-0.72-0.18-1.43-0.27-2.15
	c-0.48-3.74-0.41-7.5-0.35-11.14c0.05-2.66,0.64-5.42,1.22-7.77c1.5-6.13,3.74-11.16,6.83-15.36c1.29-1.75,2.69-3.48,4.04-5.15
	l0.71-0.87c0.84-1.05,1.72-2.13,2.65-3.07c4.19-4.22,8.81-8.18,13.73-11.77c1.99-1.45,4.03-2.91,6-4.33
	c3.21-2.3,6.52-4.67,9.73-7.08c3.33-2.49,6.68-5.21,10.25-8.29c2.42-2.09,4.96-4.38,7.23-7c4.4-5.08,7.59-10.18,9.74-15.57
	c1.51-3.78,3.2-8.2,4.2-12.8l0.13-0.58c0.47-2.16,0.96-4.4,0.92-6.76c-0.01-0.75,0.06-1.52,0.14-2.33c0.09-0.91,0.18-1.85,0.15-2.81
	c-0.24-7.07-1.48-13.13-3.81-18.54c-2.54-5.91-5.75-11.39-9.52-16.29c-3.65-4.74-6.87-8.57-10.13-12.03
	c-2.96-3.15-5.9-6.43-8.74-9.76c-4.43-5.2-9.07-10.79-12.77-16.98c-3.03-5.06-5.33-10.24-6.84-15.39c-1.46-4.99-2.54-9.15-3.39-13.1
	c-0.3-1.42-0.43-2.87-0.56-4.41c-0.11-1.33-0.23-2.71-0.47-4.06c-0.55-3.06-0.51-6.23-0.47-9.3c0.01-0.8,0.02-1.6,0.02-2.4
	c0-2.59,0.27-5.4,0.79-8.33c0.64-3.61,1.54-7.81,3.34-11.62c1.3-2.73,2.59-5.4,4.04-7.94c2.52-4.41,5.56-8.42,8.48-12.09
	c3.18-4.01,6.85-7.99,10.91-11.82c5.66-5.34,11-9.43,16.33-12.49c6.56-3.77,12.28-6.36,17.98-8.15c3.75-1.18,8-2.51,12.23-3.46
	c2.4-0.54,4.97-1.04,8.33-1.6c2.96-0.5,5.93-0.93,8.84-1.29c0.31-0.04,0.65-0.06,1.07-0.06c0.3,0,0.6,0,0.91,0.01
	c0.32,0,0.65,0.01,0.97,0.01c0.23,0,0.46-0.01,0.69-0.02c1-0.06,2-0.15,2.97-0.25c0.52-0.05,1.05-0.1,1.57-0.14
	c0.27-0.02,0.55-0.04,0.82-0.05c0.09,0,0.17,0,0.26,0c0.6,0.02,1.2,0.04,1.79,0.07c1.76,0.06,3.59,0.13,5.37,0.25
	c1.72,0.12,3.47,0.3,5.16,0.48c0.64,0.07,1.28,0.13,1.92,0.2c0.53,0.05,1.07,0.11,1.6,0.17c0.76,0.08,1.52,0.17,2.28,0.24
	c4.69,0.42,9.41,1.36,13.98,2.28l1.15,0.23c7.36,1.47,14.65,3.81,21.69,6.06l0.5,0.16c0.56,0.18,1.06,0.26,1.54,0.26
	c0.74-0.01,1.42-0.22,2.16-0.68c3.45-2.13,7.31-3.03,10.29-3.58c3.36-0.62,6.79-0.94,10.18-1.51c5-0.85,10.18,0.14,15.18,0.4
	c5.45,0.29,10.92,1.18,16.01,3.19c2.05,0.81,4.13,1.61,6.15,2.38c2.99,1.15,6.09,2.34,9.11,3.57c1.46,0.59,2.92,1.36,4.33,2.1
	c0.54,0.29,1.09,0.57,1.63,0.85c0.49,0.25,1.02,0.48,1.59,0.47c1.32-0.01,1.84-1.21,2.01-1.6c0.32-0.72,0.49-1.61,0.52-2.63
	c0.01-0.41,0.01-0.41,0.42-0.62c0.77-0.4,1.35-0.57,1.88-0.58c0.33,0,0.66,0.06,1.01,0.19c0.48,0.18,0.94,0.19,1.25,0.19
	c0.19,0,0.38-0.01,0.57-0.03c0.15-0.01,0.29-0.02,0.44-0.02c2.91-0.01,5.61,0.76,8.07,2.31c1.76,1.11,3.5,2.21,5.11,3.53
	c-0.5-0.41,11.02-11.59,12.15-12.52c5.21-4.28,11.46-7.9,19.11-11.04c5.17-2.13,9.99-3.59,14.74-4.49c2.65-0.5,5.38-0.86,8.01-1.21
	l1.41-0.19c2.1-0.28,4.16-0.34,5.89-0.36c0.77-0.01,1.54-0.01,2.31-0.01c0.78,0,1.55,0,2.33-0.01l0.47-0.01
	c1.11-0.01,2.23,0.16,3.42,0.34c0.89,0.13,1.8,0.27,2.73,0.34c3.96,0.26,7.91,1.25,11.39,2.12c4.84,1.21,9.81,3.09,15.22,5.76
	c5.65,2.78,11.2,6.25,16.48,10.29c2.76,2.12,6.35,4.96,9.56,8.19c0.48,0.48,1.16,1.03,2.15,1.02c0.42,0,0.86-0.11,1.35-0.33
	c5.17-2.26,10.89-4.14,18.01-5.93c1.85-0.46,3.71-0.97,5.52-1.46c2.18-0.59,4.44-1.21,6.66-1.74c1.48-0.36,3.03-0.63,4.53-0.9
	c1.19-0.21,2.41-0.43,3.62-0.69c3.54-0.76,7.1-0.9,9.8-0.92c1.53-0.02,3.09,0,4.46,0.02c1.37,0.02,2.74,0.17,4.18,0.33
	c1.07,0.12,2.18,0.24,3.29,0.31c1.52,0.09,3,0.33,4.57,0.59c0.39,0.06,0.77,0.13,1.16,0.19c5.15,0.81,10.51,2.14,16.4,4.07
	c8.04,2.63,14.94,5.52,21.11,8.84c3.82,2.06,7.41,4.46,10.65,7.16c0.5,0.42,1,0.83,1.51,1.24c1.32,1.08,2.69,2.2,3.97,3.36
	c0.85,0.77,1.62,1.62,2.44,2.53c0.25,0.28,0.5,0.55,0.75,0.82c1.14,1.24,2.25,2.5,3.28,3.66c2.87,3.26,5.25,6.9,7.64,10.65
	c5.08,7.98,8.64,15.56,10.88,23.17c1.01,3.42,1.85,7.05,2.51,10.79c0.74,4.21,1.25,7.76,1.32,11.41c0.01,0.68,0.12,1.33,0.22,1.96
	c0.09,0.54,0.17,1.04,0.18,1.53c0.1,2.78-0.21,5.5-0.53,8.38l-0.12,1.05c-0.46,4.13-1.35,7.77-2.74,11.11
	c-1.72,4.14-3.74,7.7-6.2,10.89c-2.74,3.56-6.39,6.65-11.48,9.74c-3.28,1.99-6.9,3.5-10.41,4.95c-1.23,0.51-2.5,1.04-3.74,1.58
	c-3.72,1.63-7.14,3.21-10.44,4.85c-1.07,0.53-2.14,1.34-3.26,2.48c-0.9,0.91-1.48,1.97-1.77,3.24c-0.83,3.52-0.94,7.27-0.34,11.47
	c0.44,3.06,0.88,5.58,1.4,7.94c1,4.57,2.79,9.01,5.48,13.59c2.69,4.59,6.03,8.77,9.26,12.82l0.72,0.91
	c4.7,5.9,9.61,12.34,13.68,19.47c5.72,10.02,9.9,19.35,12.77,28.51c0.99,3.15,2.05,6.88,2.49,10.7c0.1,0.85,0.2,1.71,0.3,2.56
	c0.2,1.63,0.4,3.31,0.57,4.96c0.04,0.4,0,0.86-0.05,1.35c-0.02,0.16-0.03,0.32-0.04,0.48c-0.02,0.28-0.06,0.56-0.09,0.84
	c-0.07,0.56-0.15,1.13-0.13,1.74c0.08,2.94-0.48,5.78-1.06,8.79c-0.08,0.43-0.17,0.85-0.25,1.28c-1.27,6.65-3.85,13.37-8.13,21.16
	c-1.69,3.08-3.81,6.16-6.46,9.43c-2.64,3.25-5.81,6.34-10.27,10.04c-1.18,0.98-2.37,1.95-3.56,2.91c-2.33,1.89-4.74,3.85-7.05,5.87
	c-2.73,2.39-5.3,4.87-7.66,7.39c-4.85,5.18-7.92,11.35-9.13,18.35c-0.61,3.53-1.19,7.72-0.78,11.99c0.75,8.02,2.65,14.83,5.8,20.82
	c3.54,6.72,7.85,13.62,13.57,21.71c4.62,6.52,9.5,13.54,13.93,20.66c2.01,3.23,3.72,6.76,5.38,10.18c0.65,1.34,1.32,2.73,2.01,4.09
	c2.55,5.06,4.77,10.7,7.19,18.29c1.51,4.74,2.62,9.02,3.39,13.09c0.68,3.57,1.14,6.98,1.41,10.4c0.25,3.08,0.08,6.09-0.11,8.63
	c-0.25,3.3-1.02,6.85-2.37,10.85c-1.96,5.84-4.91,11.38-9.02,16.95c-2.23,3.02-4.9,5.77-7.48,8.43l-0.49,0.51
	c-1.25,1.28-2.5,2.56-3.76,3.83c-2.2,2.22-4.47,4.52-6.64,6.85c-4.36,4.68-9.31,10.22-13.03,16.68c-3.3,5.74-5.8,11.67-7.42,17.62
	c-0.99,3.62-1.98,7.49-2.31,11.4c-0.05,0.58-0.11,1.17-0.17,1.76c-0.25,2.31-0.5,4.71,0.04,7.21c0.17,0.8,0.24,1.65,0.31,2.56
	c0.08,1.02,0.16,2.08,0.41,3.15c0.87,3.72,2.89,6.76,4.56,8.99c2.38,3.19,4.71,5.89,7.1,8.25c3.44,3.4,7.33,7.25,10.97,11.16
	c7.6,8.17,13.13,15.38,17.42,22.71c3.17,5.42,5.94,10.97,8.25,16.52c1.85,4.46,3.95,9.75,5.48,15.24c0.99,3.54,1.89,7.02,2.13,10.55
	c0.05,0.74,0.12,1.49,0.19,2.21c0.1,0.99,0.19,1.93,0.23,2.87c0.16,4.03-0.35,8.3-1.61,13.44c-1.35,5.47-3.16,10.57-5.41,15.15
	c-7.1,14.49-20.53,28.81-33.76,38.02c-8.37,5.82-17.41,8.95-27.01,12.03c-9.42,3.03-19.93,2.7-29.82,3.94
	c-7.66,0.96-13.98-0.86-21.67-1.66c-4.94-0.51-9.78-1.97-14.06-3.25c-3.72-1.12-7.45-2.54-11.05-3.91l-0.6-0.23
	c-5.55-2.11-10.97-4.85-16.2-7.5l-0.58-0.29c-3.12-1.58-6.23-3.17-9.34-4.76c-1.75-0.9-3.51-1.8-5.26-2.69
	c-4.72-2.41-9.04-3.92-13.21-4.63c-1.16-0.2-2.39-0.28-3.99-0.26c-0.7,0.01-1.4,0.03-2.1,0.06l-0.26,0.01
	c-2.76,0.1-5.33,0.71-7.69,1.36c-3.05,0.84-5.99,2.13-8.74,3.84c-2.71,1.68-5.45,3.42-8.09,5.1c-2.03,1.29-4.07,2.58-6.11,3.86
	c-8.75,5.49-17.16,9.47-25.72,12.19c-4.37,1.39-8.32,2.38-12.09,3.04c-1.01,0.18-2.06,0.32-3.08,0.46
	c-1.04,0.14-2.12,0.28-3.18,0.47c-1.78,0.31-3.67,0.47-5.95,0.5c-1.68,0.02-3.37-0.04-5.1-0.1c-4.48-0.17-8.94-0.98-13.26-2.42
	c-4.51-1.51-8.29-3.37-11.56-5.71c-2.95-2.12-5.43-4.71-7.46-6.97c-2.83-3.15-5.24-6.72-7.58-10.17c-1.11-1.64-2.26-3.34-3.44-4.99
	c-1.42-1.97-2.86-3.85-4.86-5.26c-2.24-1.58-4.72-2.36-7.37-2.33c-1.54,0.02-3.17,0.31-4.86,0.87c-4.26,1.41-8.5,3.49-12.58,6.15
	c-3.51,2.3-7.07,4.81-10.57,7.48c-1.73,1.32-3.38,2.76-4.98,4.16c-0.9,0.78-1.82,1.59-2.74,2.36c-4.8,4.02-9.29,7.46-13.71,10.53
	c-5.26,3.65-9.42,6.14-13.5,8.08c-5.77,2.75-11.57,4.76-17.22,5.99l-0.58,0.13c-2.6,0.57-5.28,1.15-7.93,1.58
	c-0.98,0.16-1.98,0.22-3.04,0.28c-1,0.06-2.03,0.12-3.06,0.27C138.22,825.97,135.78,826.14,132.73,826.17z M70.44,688.05
	c-7.4,8.25-19.1,12.14-27.66,19.57c0,0-0.96,0.83-0.96,0.83c-2.68,2.32-5.13,5.12-7.5,8.55c-2.2,3.19-3.57,6.7-4.62,9.71
	c-1.42,4.07-2.08,8.14-1.97,12.09c0.02,0.75,0.12,1.47,0.22,2.16c0.08,0.6,0.16,1.17,0.19,1.73c0.18,3.6,1.02,7.19,1.7,10.08
	c1.05,4.49,2.63,9.12,4.82,14.14c3.74,8.57,8.18,15.66,13.56,21.67c2.55,2.85,5.57,5.67,9.78,9.15c3.99,3.3,8.73,6.28,14.49,9.11
	c6.74,3.32,12.98,5.76,19.08,7.46c7.18,2.01,13.92,3.3,20.6,3.96c1.28,0.13,2.58,0.29,3.84,0.46c1.87,0.24,3.81,0.49,5.74,0.61
	c2.98,0.19,6.01,0.21,8.94,0.23l1.73,0.01c0.53-0.01,1.03-0.1,1.48-0.18c0.38-0.07,0.74-0.14,1.05-0.14c0.25,0,0.48,0,0.7,0
	c4.42-0.05,8.83-0.7,12.98-1.35c2.96-0.47,5.93-1.16,9.08-2.1c6.92-2.08,13.63-5.15,19.94-9.12c5.68-3.58,11.56-7.86,17.97-13.08
	c1.53-1.24,3.06-2.52,4.54-3.76c2.02-1.69,4.1-3.43,6.19-5.09c5.97-4.74,11.73-8.29,17.61-10.86c3.11-1.36,7.27-2.92,11.84-2.97
	c0.28,0,0.57,0,0.86,0.01c2.03,0.06,3.88,0.48,5.67,1.28c3.08,1.38,5.37,3.97,7.58,6.47l0.09,0.1c1.32,1.49,2.44,3.14,3.62,4.88
	c0.56,0.82,1.13,1.67,1.73,2.49c0.64,0.88,1.27,1.79,1.88,2.68c1.48,2.14,3.02,4.35,4.76,6.36c4.66,5.39,10.91,9.07,19.09,11.25
	c2.35,0.63,4.78,1.07,7.2,1.31l0.78,0.08c2.32,0.24,4.72,0.48,7.12,0.45c0.21,0,0.42-0.01,0.63-0.01c1.48-0.05,2.95-0.26,4.37-0.47
	c0.8-0.12,1.62-0.24,2.43-0.32c4.55-0.48,8.81-1.71,13.5-3.14c9.42-2.88,17.85-7.53,24.14-11.26c2.9-1.72,5.78-3.58,8.57-5.37
	c2.07-1.33,4.2-2.71,6.33-4.02c3.84-2.36,8.22-4.09,13.02-5.14c1.15-0.25,2.32-0.38,3.55-0.51c1.15-0.12,2.34-0.25,3.51-0.49
	c0.7-0.14,1.44-0.22,2.25-0.23c1.33-0.01,2.69,0.16,4.01,0.32c0.3,0.04,0.6,0.08,0.9,0.11c3.68,0.43,7.58,1.72,11.94,3.92
	c5.77,2.92,12.31,6.23,18.53,9.64c9.77,5.36,20.46,9.77,31.79,13.1c4.52,1.33,9.09,2.07,13.35,2.67c3.51,0.5,7.26,0.69,12.13,0.64
	c0.81-0.01,1.62-0.02,2.43-0.04c2.51-0.06,4.7-0.24,6.69-0.54c1.64-0.25,3.28-0.59,4.86-0.92c1.3-0.27,2.64-0.54,3.95-0.77
	c5.71-0.97,11.19-2.69,15.32-4.08c0,0,0.85-0.28,0.85-0.28c9.04-3.04,18.52-5.59,26.38-11.17c13.9-9.87,25.63-23.43,31.16-39.73
	c1.53-4.51,2.45-8.04,2.97-11.45c0.22-1.42,0.28-2.81,0.34-4.15l0-0.05c0.02-0.38,0.08-0.78,0.15-1.2c0.11-0.7,0.23-1.43,0.16-2.21
	c-0.09-1.07-0.26-2.13-0.43-3.15c-0.15-0.94-0.3-1.82-0.39-2.72c-0.29-3.09-1.11-5.98-2.07-9.17c-2.67-8.85-6.47-17.5-11.29-25.7
	c-4.27-7.27-9.75-14.49-16.76-22.08c-2.2-2.38-4.49-4.74-6.7-7.02c-2.12-2.18-4.31-4.44-6.41-6.71c-2.09-2.26-3.98-4.7-5.88-7.21
	c-2.19-2.89-3.64-6.17-4.87-9.29c-1.21-3.05-1.89-6.18-2.03-9.32l-0.02-0.43c-0.14-3.24-0.29-6.58,0.15-9.84l0.09-0.69
	c0.31-2.33,0.64-4.74,1.12-7.06c1.69-8.16,4.71-16.08,9.23-24.2c3.51-6.3,8.01-12.26,13.76-18.21c4.89-5.06,9.91-10.16,14.17-14.48
	c2.17-2.2,4.22-4.69,6.65-8.08c4.65-6.48,7.4-14.24,8.18-23.06c0.35-4.01,0.17-7.93-0.55-11.63c-0.74-3.82-1.63-7.56-2.55-11.37
	c-2.07-8.58-5.46-17.32-10.65-27.5c-3.21-6.29-7-11.98-10.29-16.72c-1.2-1.72-2.4-3.44-3.6-5.16c-3.16-4.52-6.43-9.19-9.53-13.86
	c-4.64-6.98-8.19-13.43-10.84-19.71c-2.56-6.05-4.02-11.71-4.46-17.31c-0.46-5.83-0.3-10.54,0.5-14.84c1.14-6.03,3-11.15,5.69-15.65
	c3.91-6.55,9.35-11.6,14.16-15.68c1.38-1.17,2.78-2.34,4.17-3.5c3.14-2.62,6.38-5.34,9.48-8.14c3.86-3.5,7.31-7.69,10.26-12.45
	c3.51-5.68,6.07-11.81,7.6-18.22c0.45-1.87,0.74-3.77,1.02-5.62l0.17-1.08c0.05-0.33,0.1-0.66,0.16-0.99
	c0.25-1.56,0.52-3.18,0.58-4.81c0.12-3.01-0.14-6.17-0.85-10.25c-0.68-3.95-1.7-7.86-3.01-11.65c-2.37-6.84-5.47-13.59-9.48-20.66
	c-3.45-6.09-7.68-12.21-13.71-19.85c-2.58-3.27-4.89-6.3-7.07-9.26c-3.21-4.37-5.9-9.37-8.45-15.73c-2.1-5.23-3.42-10.76-3.95-16.44
	c-0.33-3.62-0.58-7.87,0.17-11.99c0.82-4.49,2.97-7.93,6.59-10.53c3.35-2.41,7.14-4.06,10.81-5.65c1.61-0.7,3.27-1.38,4.87-2.04
	c3.5-1.44,7.12-2.93,10.57-4.75c3.78-2,7.22-4.89,10.54-8.84c2.54-3.03,4.41-6.67,5.72-11.12c0.78-2.66,1.33-5.61,1.66-9.02
	c0.13-1.32,0.26-2.74,0.33-4.14c0.04-0.86,0.02-1.79-0.05-2.84c-0.06-0.77-0.14-1.54-0.22-2.29c-0.06-0.53-0.12-1.07-0.16-1.6
	c-0.06-0.67-0.11-1.34-0.15-2.01c-0.09-1.37-0.19-2.79-0.41-4.19c-0.46-2.88-1.05-5.8-1.74-8.68c-0.95-3.97-1.93-8.07-3.8-11.89
	c-1.9-3.91-3.56-7.11-5.21-10.07c-3.4-6.12-7.4-11.67-11.9-16.5c-4.55-4.89-9.53-9.1-14.81-12.53c-4.03-2.62-7.98-4.75-12.07-6.53
	c-5.58-2.43-10.21-4.23-14.58-5.67c-5.99-1.98-11.06-3.25-15.97-4c-2.11-0.32-4.26-0.57-6.11-0.78c-3.13-0.35-6.32-0.51-9.06-0.64
	c-0.09,0-0.18-0.01-0.27,0c-0.61,0.01-1.17,0.12-1.72,0.23c-0.46,0.09-0.89,0.18-1.27,0.18l-0.26,0c-2.89,0.03-5.67,0.45-8.49,0.91
	c-2.51,0.41-5.15,0.96-8.06,1.67c-4.66,1.15-9.21,2.77-13.62,4.35c-0.8,0.28-1.59,0.57-2.39,0.85c-2.54,0.9-5.01,2.04-7.35,3.4
	l-1.23,0.71l0.86,1.12c0.51,0.66,1.01,1.31,1.51,1.95c1.1,1.42,2.14,2.76,3.17,4.13c5.97,7.91,10.06,15.98,12.51,24.66
	c0.82,2.91,1.42,6.12,1.84,9.8c0.29,2.6,0.09,5.46-0.65,8.98c-0.09,0.42-0.17,0.84-0.26,1.26c-0.58,2.84-1.12,5.52-2.38,8.02
	c-1.76,3.5-3.99,6.32-6.63,8.38c-3.17,2.48-7.23,3.9-12.07,4.22c-1.31,0.09-2.63,0.14-3.92,0.15c-4.95,0.05-9.83-0.43-14.51-1.43
	c-6.81-1.46-13.71-3.51-20.5-6.09c-4.34-1.65-8.72-3.57-12.58-5.26c-4.39-1.93-8.06-3.58-11.68-5.4c-4.31-2.16-8.64-4.48-12.83-6.72
	l-1.87-1c-0.88-0.47-1.75-0.93-2.63-1.4c-3.64-1.94-7.4-3.94-11-6.04c-4.78-2.78-9.59-5.69-14.25-8.5
	c-2.27-1.37-4.55-2.74-6.82-4.11c-0.55-0.33-1.11-0.63-1.7-0.94c-0.27-0.15-0.55-0.29-0.84-0.45l-1.63-0.89l-0.2,1.84
	c-0.01,0.12-0.03,0.22-0.05,0.3c-0.05,0.26-0.11,0.63,0.02,1.03c2.28,6.85,4.52,13.56,6.66,19.93c0.36,1.08,0.73,2.05,1.12,2.97
	c0.4,0.93,1.16,1.46,2.08,1.45c0.24,0,0.49-0.04,0.74-0.12c2.47-0.74,5.01-0.78,7.71-0.81c0.45-0.01,0.89-0.01,1.34-0.02
	c0.43-0.01,0.87-0.02,1.3-0.02c1.95-0.02,4.23,0.02,6.4,0.49c2.92,0.64,6.74,1.56,10.37,3.04c4.01,1.64,7.55,3.97,10.51,6.93
	c2.56,2.56,4.44,5.52,5.58,8.78c0.12,0.36,0.25,0.71,0.38,1.07c0.71,1.96,1.38,3.81,1.32,5.78c-0.01,0.47-0.02,0.95-0.02,1.43
	c-0.01,1.31-0.03,2.54-0.24,3.72c-0.41,2.31-1.73,4.27-3.91,5.83c-2.01,1.44-4.53,2.18-7.47,2.22c-0.1,0-0.2,0-0.3,0
	c-1.79-0.01-3.69-0.54-5.53-1.06l-0.12-0.04c-5.36-1.5-9.38-3.58-12.67-6.54c-1.25-1.12-2.53-2.14-3.82-3.02
	c-3.36-2.29-6.47-5.28-9.79-9.4c-1.57-1.95-3.15-4.07-4.97-6.68c-0.26-0.37-0.87-1.25-1.99-1.24c-0.39,0-0.79,0.12-1.24,0.35
	c-6.25,3.25-9.57,8.98-9.58,16.56c0,0.55,0.13,1.05,0.25,1.48c0.08,0.29,0.15,0.57,0.16,0.79c0.16,2.97,1.32,5.54,2.43,7.65
	c3.32,6.31,8.12,11.94,14.29,16.71c6.34,4.91,13.56,8.98,22.07,12.43c7.75,3.15,15.19,5.14,22.72,6.07c0.9,0.11,1.8,0.24,2.7,0.37
	c2.12,0.3,4.32,0.61,6.52,0.72c1.19,0.06,2.4,0.08,3.58,0.07c4.16-0.05,8.29-0.54,12.27-1.48c4.07-0.96,7.61-2.29,10.8-4.08
	c3.5-1.96,6.11-4.69,7.75-8.12c0.51-1.06,0.66-2.12,0.81-3.13c0.06-0.39,0.11-0.76,0.18-1.11c0.33-1.65,0.31-3.06-0.07-4.43
	c-0.18-0.64-0.32-1.28-0.42-1.93c2.25,0.85,3.65,2.19,4.37,4.16c0.06,0.17,0.12,0.34,0.19,0.52c0.2,0.56,0.4,1.13,0.68,1.7
	c0.83,1.73,0.89,3.73,0.18,6.31c-0.8,2.91-2.55,5.58-5.07,7.7c-1.68,1.42-3.71,2.82-6.4,4.4c-5.14,3.02-12.24,5.41-18.72,5.87
	c-2.26,0.16-4.33,0.25-6.32,0.27c-5,0.05-9.46-0.32-13.62-1.14l-1.74-0.34c-3.34-0.65-6.8-1.32-10.11-2.25
	c-10.39-2.92-19.33-6.59-27.34-11.22c-2.94-1.7-5.78-3.59-8.5-5.63c-2.26-1.7-4.19-3.79-6.35-5.56c-2.3-1.89-4.68-3.28-6.51-5.73
	c-0.91-1.21-1.65-2.52-2.39-3.84c-0.91-1.61-1.82-3.22-2.73-4.83c-1.85-3.27-2.05-5.98-2.66-9.54c-0.54-3.16,0.34-6.41,0.15-9.61
	c-0.02-0.41-0.34-1.41-0.16-1.78c0,0-1.01,4.67-1.01,4.67c-0.15,0.31-0.27,0.56-0.38,0.79c-0.21,0.43-0.37,0.76-0.51,1.13
	c-2.47,6.5-9.06,14.17-16.06,16.12c-7,1.95-14,3.89-21,5.84c-8.41,2.34-16.87,1.86-25.18,3.91c-6.22,1.53-11.85,4.81-17.83,7.14
	c-4.53,1.77-9.46,3.1-12.97,6.46c-3.69,3.54-5.23,8.86-5.24,13.97c0,4.3,1.43,8.18,2.2,12.33c0.62,3.32,0.35,6.42,3.03,8.99
	c0.34,0.32,0.73,0.7,0.67,1.16c-0.04,0.29-0.25,0.52-0.45,0.73c-2.62,2.73-4.58,4.52-7.88,2.16c-2.31-1.65-4.05-4.09-4.9-6.79
	c-0.19-0.59-0.39-1.17-0.59-1.74c-0.32-0.91-0.63-1.77-0.85-2.66c-0.22-0.87-0.46-1.74-0.69-2.61c-0.67-2.47-1.37-5.02-1.58-7.51
	c-0.3-3.62-0.54-7.46,0.13-11.18c0.79-4.4,2.96-8.24,6.43-11.41c3.01-2.75,6.56-4.78,9.95-6.63c5.78-3.16,12.37-5.81,20.17-8.1
	c6.26-1.84,12.04-3.17,17.68-4.06c1.58-0.25,3.26-0.53,5.43-0.92c1.17-0.21,2.33-0.42,3.5-0.63c2-0.36,4.07-0.74,6.1-1.07
	c0.89-0.15,1.81-0.26,2.7-0.37c1.31-0.16,2.67-0.33,4.01-0.61c3.93-0.82,7.51-1.67,10.95-2.59c3.13-0.84,5.95-2.04,8.4-3.56
	c2.04-1.27,4.93-3.37,6.36-6.99c0.58-1.47,1.28-2.94,1.95-4.36l0.37-0.79c2.02-4.32,2.51-8.87,2.85-13.16
	c0.07-0.95-0.08-1.85-0.23-2.71c-0.07-0.41-0.14-0.79-0.17-1.17c-0.08-0.75-0.16-1.5-0.24-2.25c-0.24-2.19-0.49-4.45-0.67-6.68
	c-0.23-2.83-0.38-5.64-0.53-8.99c-0.08-1.71-0.1-3.51-0.08-5.51c0.03-2.04-1.15-2.75-1.85-2.99l-0.99-0.34l-0.5,0.91
	c-0.43,0.79-0.86,1.57-1.29,2.35c-0.95,1.73-1.84,3.37-2.78,5.02c-2.45,4.27-5.82,8.23-10.94,12.82c-3.3,2.97-7.17,5.51-11.48,7.55
	c-3.97,1.88-7.53,2.9-10.89,3.14c-1.82,0.13-3.42,0.2-4.9,0.22c-3.23,0.04-6.08-0.19-8.71-0.7c-6.99-1.34-13.59-3.85-20.16-7.66
	c-2.53-1.47-5.47-3.28-8.07-5.55c-0.74-0.64-1.49-1.28-2.23-1.91c-1.47-1.24-3-2.53-4.38-3.88c-1-0.98-1.9-2.04-2.85-3.17
	c-0.65-0.77-1.32-1.56-2.02-2.32c-3.63-3.92-6.32-7.91-8.23-12.19c-1.57-3.53-3.17-7.77-3.08-12.45c0.06-3.19,0.79-5.92,2.23-8.34
	c0.31-0.52,0.67-1.02,1.06-1.56c0.29-0.41,0.6-0.83,0.88-1.27c0.22-0.34,0.74-1.14,0.41-2.02c-0.33-0.89-1.27-1.17-1.68-1.29
	c-0.61-0.18-1.22-0.36-1.83-0.55c-1.59-0.48-3.23-0.97-4.87-1.38c-3.15-0.79-6.57-1.58-10.75-2.5c-2.5-0.55-5.07-1.05-7.64-1.5
	c-1.88-0.32-3.88-0.6-6.14-0.85c-0.82-0.09-1.63-0.13-2.42-0.18c-0.92-0.05-1.79-0.1-2.66-0.21c-3.9-0.51-7.1-0.73-10.08-0.69
	c-0.18,0-0.37,0-0.55,0.01c-2.06,0.05-4.24,0.17-6.85,0.39c-3.64,0.3-7.26,0.78-11.04,1.45c-4.47,0.79-9.17,1.96-14.37,3.56
	c-6.66,2.06-13.16,4.96-19.31,8.61c-6.41,3.81-12.66,8.8-19.1,15.24c-3.41,3.42-6.44,7.18-8.69,10.08
	c-4.68,6.01-7.98,11.89-10.09,17.96c-1.56,4.49-2.28,8.56-2.22,12.45c0.02,1.05,0.01,2.13,0,3.17c-0.03,2.92-0.06,5.95,0.52,8.97
	c0.25,1.29,0.38,2.59,0.53,3.97c0.14,1.35,0.29,2.75,0.55,4.13c0.43,2.29,1.05,4.56,1.65,6.75c0.13,0.48,0.26,0.96,0.39,1.44
	c1.69,6.27,4.39,12.28,8.26,18.37c3.75,5.89,8.28,11.07,12.67,16.08c1.76,2.01,3.6,4.01,5.38,5.94c1.65,1.79,3.36,3.65,4.99,5.5
	c1.92,2.18,3.79,4.47,5.6,6.69c0.49,0.6,0.97,1.19,1.46,1.78c4.45,5.43,8.09,11.51,11.13,18.59c2.54,5.91,3.94,11.3,4.29,16.48
	c0.32,4.79,0.49,9.93-0.46,15.08c-0.16,0.87-0.31,1.74-0.46,2.61c-0.43,2.47-0.87,5.03-1.55,7.47c-1.83,6.57-4.17,12.19-7.15,17.2
	c-3.42,5.75-7.15,10.54-11.39,14.66c-3.24,3.14-6.01,5.57-8.7,7.63c-5.77,4.41-11.57,8.54-16.48,12c-4.88,3.43-10.5,7.48-15.5,12.05
	c-4.05,3.71-7.01,6.98-9.29,10.3c-4.72,6.85-7.07,14.41-6.99,22.45c0.01,0.77,0.12,1.5,0.22,2.21c0.1,0.65,0.19,1.27,0.19,1.87
	c0.02,2.27,0.33,4.49,0.64,6.64c0.09,0.61,0.17,1.22,0.25,1.83c0.46,3.54,1.15,7.06,1.83,10.33c1.38,6.67,3.52,12.41,6.55,17.57
	c3.55,6.04,8,11.79,13.61,17.56c2.9,2.99,5.95,5.92,8.89,8.75c0.73,0.71,1.47,1.41,2.2,2.12c2.7,2.61,5.28,5.66,8.36,9.87
	c4.1,5.62,7.29,11.65,9.48,17.95c1.64,4.72,2.69,8.97,3.21,13.01c0.06,0.46,0.12,0.91,0.18,1.37c0.39,2.9,0.75,5.64,0.67,8.45
	c-0.01,0.5-0.09,1.02-0.17,1.57c-0.09,0.61-0.18,1.24-0.19,1.9c-0.07,3.06-0.66,6.03-1.31,9.05c-1.07,4.99-3.08,10.08-6.14,15.57
	c-2.99,5.36-6.93,10.58-12.4,16.42c-1.59,1.7-3.51,3.72-6.15,6.31c-4.43,4.33-8.51,9.06-12.5,14.47c-3.28,4.44-5.7,8.3-7.64,12.13
	c-2.92,5.79-5.28,11.96-7.27,17.29c-1.07,2.86-1.65,5.46-1.77,7.93c-0.16,3.07,0.36,6.01,1.18,9.47c1.02,4.28,2.64,8.39,4.21,12.37
	l0.21,0.54c3.42,8.66,7.36,15.86,12.05,22c7.13,9.33,16.36,17.83,22.44,27.96c4.96,8.27,8.13,17.63,8.45,27.31
	c0.11,3.38-0.02,6.81-0.9,10.08C75.2,681.56,73.1,685.09,70.44,688.05z M326.12,107.36c-0.65,0.01-1.19,0.03-1.68,0.08
	c-1.05,0.1-1.75,0.5-2.1,1.19c-0.35,0.71-0.24,1.55,0.34,2.5c2.59,4.22,5.83,9.09,10.26,13.23c3.2,2.99,6.74,5.24,10.53,6.7
	c2.08,0.8,4.04,1.18,5.98,1.16c0,0,0,0,0,0c1.23-0.01,2.45-0.19,3.64-0.54c2.66-0.77,3.9-2.31,4.04-5.01
	c0.21-3.99-1.24-7.68-4.43-11.27c-2.6-2.93-6.03-5.07-10.51-6.55c-3.36-1.11-6.89-1.63-10.78-1.59c-0.65,0.01-1.32,0.03-2,0.07
	l-1.26,0.01c-0.33,0-0.67,0-1,0C326.81,107.35,326.46,107.35,326.12,107.36z M297.39,83.65c-0.5,0.01-0.95,0.2-1.25,0.55
	c-0.48,0.56-0.46,1.28-0.38,1.84c0.05,0.38,0.12,0.74,0.19,1.09c0.08,0.42,0.16,0.82,0.19,1.2c0.13,1.41,0.23,2.86,0.34,4.25
	c0.06,0.75,0.11,1.5,0.17,2.26c0.02,0.21,0.06,0.39,0.09,0.52c0.01,0.04,0.02,0.09,0.03,0.13c0.08,0.56,0.16,1.12,0.25,1.68
	c0.2,1.28,0.39,2.48,0.45,3.7c0.13,2.73,0.12,5.52,0.11,8.23l0,0.3c0,0.58-0.09,1.18-0.18,1.83c-0.05,0.33-0.09,0.66-0.13,1
	l-0.39,3.51l2.45-2.54c0.52-0.53,1.01-1.06,1.49-1.58c1.02-1.1,1.99-2.14,3.02-3.04c1.11-0.96,2.32-1.8,3.59-2.69
	c0.48-0.33,0.95-0.66,1.43-1c1.37-0.99,1.56-1.68,0.86-3.25c-0.21-0.46-0.42-0.92-0.63-1.38c-0.39-0.83-0.79-1.7-1.13-2.55
	c-0.37-0.92-0.77-1.83-1.16-2.71c-1.15-2.59-2.23-5.03-2.49-7.75c-0.11-1.12-0.86-1.93-2.07-2.23c-0.86-0.21-1.7-0.49-2.59-0.79
	c-0.43-0.14-0.86-0.29-1.3-0.42C297.98,83.7,297.67,83.65,297.39,83.65z M323.91,68.89l0.8,0.55c0.17,0.11,0.33,0.23,0.5,0.35
	c0.38,0.26,0.76,0.53,1.18,0.79l1.29,0.79c1.58,0.98,3.22,1.99,4.86,2.94l2.24,1.3c4.2,2.44,8.55,4.97,12.88,7.38
	c2.47,1.37,5.01,2.71,7.46,4c2.01,1.06,4.08,2.15,6.1,3.25c7.7,4.21,16.3,8.22,26.29,12.28c8.95,3.63,16.04,5.84,23.01,7.15
	c4.1,0.78,8.54,1.49,13.2,1.47l0.08,0c2.99-0.03,5.55-1,7.87-2.03c1.13-0.5,2.28-1.33,3.35-2.39c2.91-2.88,4.47-6.66,4.9-11.88
	c0.17-2.01,0.05-4.07-0.05-5.89c-0.09-1.55-0.21-3.34-0.6-5.07c-1.06-4.71-2.67-9.26-4.79-13.51c-2.86-5.72-6.64-11.35-11.55-17.21
	c-0.18-0.22-0.74-0.88-1.68-0.87c-0.37,0-0.75,0.12-1.13,0.34c-4.04,2.37-8.19,4.39-12.32,5.99c-3.6,1.4-7.48,2.88-11.43,4.2
	c-5.88,1.97-11.87,3.27-16.43,4.19c-1.8,0.36-3.75,0.68-5.95,0.96c-0.81,0.1-1.61,0.17-2.46,0.23c-1,0.08-2.03,0.16-3.06,0.31
	c-3.27,0.49-6.65,0.68-9.91,0.86l-0.37,0.02c-1.08,0.06-2.15,0.1-3.18,0.11c-1.13,0.01-2.24,0-3.31-0.05
	c-2.94-0.12-5.93-0.33-8.82-0.53l-2.79-0.19c-1.6-0.11-3.26-0.22-4.86-0.41c-1.84-0.22-3.72-0.5-5.53-0.78
	c-0.63-0.09-1.26-0.19-1.89-0.28c-0.47-0.07-0.93-0.15-1.4-0.23c-0.22-0.04-0.45-0.08-0.67-0.12l-1.02-0.17L323.91,68.89z
	 M191.76,62.39c0.18,1.3,0.42,2.46,0.64,3.33c0.7,2.76,1.49,5.32,3.2,7.57c2.34,3.08,4.67,6.5,7.51,9.14
	c2.49,2.32,5.21,4.39,8.01,6.32c4.05,2.79,8.64,5.18,14.05,7.3c5.43,2.14,11.42,3.35,18.3,3.71c0.36,0.02,0.72,0.03,1.08,0.02
	c2.84-0.03,5.79-0.75,9-2.19c7.48-3.35,13.94-8.38,19.22-14.96c4.4-5.49,7.17-12.07,8.71-20.73c0.12-0.66-0.03-1.27-0.41-1.72
	c-0.38-0.44-0.94-0.69-1.59-0.68c-1.34,0.03-2.65,0.1-3.93,0.18l-0.07,0c-0.26,0.01-0.48,0.07-0.65,0.12
	c-0.03,0.01-0.06,0.02-0.1,0.03c-0.88-0.21-1.82-0.31-2.86-0.29c-1.12,0.01-2.22,0.15-3.28,0.28c-1.04,0.13-2.03,0.25-3.01,0.26
	c-0.2,0-0.4,0-0.6-0.01l-0.09,0c-0.21,0-0.38,0.04-0.5,0.07l-0.05,0.01c-0.64,0.08-1.31,0.18-1.97,0.27
	c-1.52,0.22-2.95,0.43-4.4,0.5c-0.47,0.02-0.96,0.04-1.46,0.05c-2,0.02-4.03-0.12-5.78-0.25l-0.88-0.06
	c-2.43-0.18-4.95-0.37-7.4-0.7c-3.68-0.49-7.24-1.4-11.18-2.44c-3.51-0.93-7.06-2.01-10.49-3.05l-0.22-0.07
	c-4.05-1.23-7.45-2.29-10.83-3.44c-0.8-0.27-1.61-0.57-2.39-0.86c-2.15-0.8-4.37-1.63-6.76-1.98c-0.26-0.04-0.53-0.06-0.8-0.05
	c-0.5,0.01-1.23,0.08-1.9,0.43c-0.69,0.36-1.33,0.78-1.94,1.19c-0.53,0.35-1.03,0.69-1.54,0.97
	C191.16,52.42,191.16,58.14,191.76,62.39z M299.99,70.89c-0.56,1.18-1.12,2.76-1.94,3.54l-0.98,0.93l1.01,0.9
	c0.08,0.07,0.15,0.14,0.21,0.21c0.19,0.19,0.41,0.41,0.72,0.57c0.62,0.33,1.15,0.55,1.71,0.54c1.41-0.02,1.91-1.35,2.15-1.99
	c0.58-1.54,0.99-3.88,0.78-5.53c-0.11-0.9-0.68-1.82-1.56-2.05c-0.39-0.1-0.81-0.07-1.21-0.03c-0.12,0.01-0.25,0.03-0.32,0.12
	c-0.07,0.09-0.05,0.22-0.04,0.33c0.08,0.7-0.01,1.44-0.34,2.07C300.12,70.63,300.05,70.76,299.99,70.89z M312.62,52.74
	c0.3,0,0.52,0.02,0.72,0.06l1.95,0.42c3.33,0.72,6.78,1.47,10.12,2.35c4.56,1.2,9.25,1.92,13.78,2.61c0.83,0.13,1.65,0.25,2.48,0.38
	c1.49,0.23,3,0.32,4.46,0.39c1.31,0.07,2.66,0.14,3.97,0.33c1.8,0.26,3.75,0.37,5.94,0.35c0.19,0,0.39-0.01,0.58-0.01
	c3.66-0.08,7.38-0.23,10.97-0.37c1.43-0.06,2.86-0.11,4.3-0.17c0.17-0.01,0.33-0.02,0.5-0.04l0.69-0.1
	c1.73-0.25,3.46-0.49,5.18-0.74c0.25-0.04,0.51-0.07,0.76-0.11c0.75-0.1,1.54-0.21,2.31-0.37c0.65-0.13,1.31-0.22,2.01-0.31
	c1.69-0.23,3.44-0.46,5.14-1.32c0.07-0.03,0.29-0.04,0.44-0.05c0.18-0.01,0.36-0.02,0.54-0.05c0.22-0.03,0.45-0.06,0.67-0.08
	c0.56-0.06,1.14-0.13,1.73-0.28c2.52-0.65,5.19-1.37,8.16-2.2c5.46-1.53,10.37-3.29,15.01-5.39l1.26-0.57l-0.74-1.22
	c-1.15-1.89-2.73-3.14-4.26-4.36c-0.28-0.22-0.56-0.44-0.83-0.67c-4.62-3.77-9.12-6.91-13.75-9.6c-6.2-3.6-12.77-6.29-19.54-7.99
	c-3.02-0.76-5.75-1.41-8.65-1.6c-1.02-0.07-2.06-0.19-3.07-0.31c-1.37-0.16-2.79-0.33-4.22-0.37c-0.55-0.02-1.13-0.02-1.7-0.02
	c-1.79,0.02-3.74,0.15-5.94,0.4c-0.43,0.05-0.86,0.09-1.29,0.14c-2.12,0.23-4.3,0.46-6.43,0.97c-4.65,1.12-9.6,2.39-14.41,4.56
	c-5.46,2.46-11.79,5.63-17.34,10.47c-3.07,2.68-5.48,5.49-7.37,8.6l-0.42,0.7l0.45,0.68c0.25,0.38,0.51,0.75,0.76,1.11
	c0.6,0.88,1.17,1.7,1.68,2.56c0.52,0.88,1.23,1.3,2.17,1.29l0.1,0c0.15-0.01,0.3-0.02,0.45-0.02
	C312.17,52.76,312.4,52.74,312.62,52.74z M226.98,38.98c-1.29,0.01-2.58,0.15-3.83,0.29c-0.61,0.07-1.21,0.13-1.82,0.18l-0.75,0.06
	c-1.5,0.12-3.06,0.25-4.59,0.44c-0.55,0.07-1.01,0.3-1.45,0.52c-0.18,0.09-0.38,0.19-0.6,0.28l-2.73,1.17l2.75,1.12
	c0.24,0.1,0.45,0.19,0.65,0.27c0.4,0.17,0.75,0.32,1.12,0.45c2.2,0.77,4.49,1.42,6.79,1.92c2.68,0.58,5.4,1.25,8.03,1.9
	c1.41,0.35,2.82,0.7,4.23,1.03l0.27,0.06c5.85,1.4,11.9,2.84,18.05,3.52c0.55,0.06,1.1,0.13,1.65,0.19c2.16,0.26,4.4,0.52,6.66,0.5
	c0.21,0,0.43-0.01,0.64-0.02c0.67-0.02,1.39-0.04,2.27-0.05c0.61-0.01,1.23-0.01,1.84-0.01c0.62,0,1.24-0.01,1.85-0.01l3.9-0.04
	l0.36-2.32L271.49,50c-0.27-0.14-0.53-0.28-0.8-0.42c-0.57-0.3-1.11-0.58-1.63-0.89c-3.85-2.34-7.56-4.05-11.36-5.25
	c-3.62-1.14-7.93-2.39-12.43-3.05c-2.31-0.34-4.6-0.58-6.73-0.8c-3.48-0.35-7-0.48-10.41-0.59l-0.31-0.01
	C227.54,38.98,227.26,38.97,226.98,38.98z"/>
</svg>
