<?xml version="1.0" encoding="utf-8"?>
<!-- Generator: Adobe Illustrator 28.3.0, SVG Export Plug-In . SVG Version: 6.00 Build 0)  -->
<svg version="1.1" id="Layer_1" xmlns="http://www.w3.org/2000/svg" xmlns:xlink="http://www.w3.org/1999/xlink" x="0px" y="0px"
	 viewBox="0 0 595.28 841.89" style="enable-background:new 0 0 595.28 841.89;" xml:space="preserve">
<g>
	<path d="M58.17,412.02c-1.86,0-3.74-0.34-5.76-1.04c-7.81-2.71-14.67-6.73-20.39-11.94c-3.1-2.82-5.7-6.27-7.73-10.24l-0.42-0.81
		c-0.91-1.77-1.86-3.61-2.53-5.47c-1.49-4.1-2.42-7.53-2.91-10.78c-0.4-2.67-0.82-5.61-1.26-8.98c-0.93-7.04-0.78-14.07-0.54-20.66
		c0.16-4.45,0.77-8.88,1.28-12.24c0.27-1.8,0.57-3.63,0.86-5.4c0.29-1.74,0.58-3.55,0.85-5.33c0.14-0.92,0.36-1.82,0.6-2.78
		c0.14-0.57,0.29-1.17,0.42-1.77c0.95-4.48,2.28-8.94,3.57-13.27c0.26-0.88,0.52-1.75,0.78-2.63c0.89-3.03,1.92-6,3.07-9.3
		c1.24-3.55,2.57-7.13,3.7-10.17c0.8-2.13,1.61-4.25,2.42-6.38c0.69-1.81,1.38-3.61,2.07-5.42c1.44-3.83,3.14-8.36,4.81-12.93
		c0.24-0.65,0.48-1.3,0.72-1.95c1-2.71,2.03-5.51,2.92-8.33c1.76-5.58,3.76-11.9,5.45-18.17c1.64-6.08,3.08-12.31,4.47-18.33
		l0.25-1.07c1.2-5.17,2.19-9.86,3.04-14.33c0.45-2.37,0.8-4.79,1.13-7.12c0.18-1.28,0.37-2.56,0.57-3.84
		c0.2-1.25,0.41-2.51,0.62-3.76c0.27-1.64,0.56-3.34,0.81-5.01c0.15-1.01,0.24-2.02,0.32-3.01c0.05-0.53,0.09-1.05,0.15-1.58
		c0.24-2.25,0.48-4.49,0.72-6.74l0.39-3.68c0.01-0.11,0.02-0.22,0.02-0.34c0-0.04,0-0.08,0-0.12c0.53-8.92,0.47-17.83,0.37-26.19
		c-0.03-2.72-0.2-5.43-0.39-8.2c-0.2-3-0.45-5.97-0.77-9.5c-0.21-2.32-0.44-4.94-0.77-7.52c-0.26-2.02-0.56-4.07-0.85-6.04
		c-0.19-1.31-0.39-2.62-0.57-3.94c-0.13-0.92-0.24-1.84-0.35-2.76c-0.16-1.29-0.32-2.62-0.52-3.93c-0.35-2.27-0.78-4.53-1.19-6.65
		l-0.02-0.12c-0.84-4.35-1.72-8.84-2.63-13.25c-0.36-1.74-0.77-3.48-1.16-5.17c-0.23-0.97-0.46-1.95-0.68-2.92
		c-0.43-1.9-0.85-3.8-1.28-5.71c-0.49-2.2-0.98-4.41-1.48-6.61c-0.13-0.59-0.28-1.17-0.43-1.75c-0.23-0.9-0.44-1.75-0.61-2.62
		c-0.31-1.62-1.36-2.37-2.24-2.85l-1.15-0.62c-2.61-1.41-5.31-2.87-7.85-4.47c-2.71-1.71-4.95-3.85-6.67-6.35
		c-0.91-1.33-1.23-2.7-0.9-3.94c0.33-1.27,1.3-2.38,2.66-3.05c1.47-0.72,2.87-1.07,4.28-1.07c1.75,0,3.49,0.54,5.3,1.65
		c2.91,1.78,4.97,4.53,6.69,8.92c0.73,1.85,1.3,3.84,1.85,5.76l0.15,0.52c0.39,1.37,1.15,2.2,2.52,2.78
		c4.94,2.1,10.45,3.79,16.83,5.16c3,0.64,5.48,1.06,7.82,1.32c1.72,0.19,3.47,0.34,5.15,0.48c1.2,0.1,2.4,0.21,3.6,0.32
		c2.4,0.23,5.02,0.34,8.23,0.34c1.72,0,3.46-0.03,5.15-0.06c1.21-0.02,2.41-0.04,3.62-0.05c3.22-0.03,6.47-0.33,9.6-0.62
		c0.58-0.05,1.16-0.11,1.73-0.16c3.8-0.34,7.51-0.74,11.04-1.2c2.36-0.31,4.73-0.7,7.03-1.08c0.74-0.12,1.48-0.25,2.23-0.37
		l2.01-0.33c2.74-0.44,5.57-0.9,8.35-1.41c2.69-0.49,5.39-1.08,8.01-1.65l1.2-0.26c3.12-0.68,6.34-1.38,9.49-2.16
		c1.67-0.41,3.34-0.88,4.96-1.33c1.4-0.39,2.84-0.79,4.26-1.15c3.79-0.96,7.66-1.89,11.4-2.78l2.21-0.53
		c2.45-0.59,4.99-1.2,7.49-1.72c1.68-0.35,3.42-0.64,5.1-0.92c0.54-0.09,1.07-0.18,1.61-0.27l1.24-0.21c1.74-0.3,3.54-0.6,5.3-0.85
		c1.87-0.26,3.43-0.43,5-0.47c1.44-0.04,2.99-0.05,4.86-0.05c1.29,0,2.58,0.01,3.87,0.02l0.85,0.01c3.61,0.02,7.2,0.66,10.55,1.35
		c3.97,0.81,8.01,2.17,12.03,4.04c3.45,1.6,6.6,3.66,9.35,6.11c3.14,2.8,5.56,5.28,7.61,7.8c2.81,3.46,4.64,6.79,5.62,10.17
		c0.75,2.6,1.31,4.94,0.63,7.31c-0.29,1-0.53,1.05-0.7,1.08c-0.06,0.01-0.12,0.02-0.17,0.02c-0.1,0-0.28,0-0.51-0.33
		c0.53-0.48,0.78-1.29,0.75-1.83c-0.04-0.78-0.17-1.61-0.4-2.55c-0.92-3.82-2.62-7.35-5.05-10.48c-3.48-4.49-7.35-8.34-11.5-11.46
		c-2.53-1.9-5.46-3.49-9.22-5c-3.3-1.33-6.73-2.09-10.05-2.84l-0.79-0.18c-1.38-0.31-2.79-0.41-4.15-0.5l-0.39-0.03
		c-0.47-0.03-0.94-0.07-1.41-0.11c-1.62-0.13-3.3-0.25-4.96-0.25c-0.27,0-0.54,0-0.8,0.01c-2.4,0.06-4.8,0.31-7.13,0.56l-1.32,0.14
		c-2.26,0.23-4.67,0.48-7.08,0.88c-2.58,0.42-5.15,0.98-7.35,1.47l-2.01,0.45c-4.23,0.94-8.61,1.91-12.89,2.97
		c-2.64,0.65-5.3,1.38-7.87,2.08c-1.9,0.52-3.86,1.05-5.79,1.55l-1.44,0.37c-3.93,1.02-8,2.07-12.03,2.96
		c-4.51,0.99-9.33,1.93-14.73,2.88c-3.75,0.66-7.56,1.15-11.45,1.64c-1.56,0.2-3.16,0.36-4.71,0.51c-2.07,0.21-4.21,0.42-6.31,0.73
		c-2.31,0.34-4.7,0.45-7.01,0.56c-1.49,0.07-3.02,0.15-4.54,0.28c-2.28,0.2-4.71,0.29-7.88,0.29c-1.42,0-2.84-0.02-4.27-0.03
		c-0.64-0.01-1.28-0.02-1.92-0.02c-1.99-0.02-4.04-0.23-6.03-0.44c-0.88-0.09-1.75-0.18-2.63-0.26c-1.67-0.14-3.3-0.29-4.92-0.46
		c-0.72-0.08-1.44-0.2-2.2-0.32l-0.37-0.06c-6.14-1.01-12.39-2.67-18.58-4.94c-0.28-0.1-0.56-0.19-0.85-0.27l-0.13-0.04
		c-0.39-0.12-0.71-0.2-1.02-0.2c-0.64,0-1.01,0.34-1.17,0.54c-0.49,0.62-0.31,1.39-0.17,1.95c0.35,1.5,0.71,3.01,1.08,4.51
		c0.7,2.92,1.43,5.94,2.08,8.91c0.76,3.44,1.48,6.96,2.18,10.37c0.35,1.69,0.69,3.38,1.05,5.07c0.16,0.75,0.32,1.49,0.48,2.24
		c0.3,1.34,0.6,2.73,0.85,4.1c0.38,2.1,0.71,4.26,1.02,6.34c0.1,0.67,0.21,1.35,0.31,2.02c0.09,0.59,0.19,1.18,0.28,1.77
		c0.27,1.71,0.56,3.48,0.77,5.22c0.22,1.76,0.39,3.56,0.56,5.3c0.1,1.05,0.2,2.1,0.32,3.15c0.14,1.31,0.29,2.61,0.45,3.92l0.17,1.39
		c0.01,0.13,0.04,0.26,0.06,0.38c0.02,0.11,0.04,0.22,0.05,0.33c0.15,2.57,0.3,5.15,0.44,7.72c0.04,0.82,0.08,1.65,0.11,2.47
		c0.07,1.67,0.14,3.4,0.31,5.11c0.51,5.18,0.42,10.48,0.34,15.61c-0.03,1.96-0.07,3.98-0.07,5.98c0,2.03-0.2,4.12-0.39,6.14
		c-0.1,1-0.19,2.03-0.27,3.06c-0.07,0.95-0.13,1.91-0.19,2.86c-0.08,1.22-0.16,2.44-0.25,3.66c-0.09,1.19-0.21,2.25-0.37,3.25
		c-0.25,1.61-0.45,3.25-0.64,4.84c-0.3,2.51-0.61,5.1-1.15,7.6c-0.3,1.37-0.45,2.77-0.6,4.12c-0.1,0.86-0.19,1.75-0.33,2.61
		c-0.23,1.47-0.52,2.97-0.8,4.42c-0.1,0.52-0.2,1.04-0.3,1.56c-0.19,0.99-0.37,1.98-0.55,2.98c-0.45,2.45-0.92,4.99-1.45,7.46
		c-0.56,2.64-1.22,5.3-1.86,7.89c-0.17,0.69-0.34,1.37-0.51,2.06c-0.32,1.29-0.63,2.58-0.94,3.87c-1.02,4.2-2.08,8.54-3.19,12.78
		c-0.55,2.08-1.21,4.19-1.85,6.22c-0.33,1.06-0.67,2.11-0.98,3.18c-2.93,9.74-6.64,19.4-10.22,28.74l-0.13,0.34
		c-2.81,7.32-5.32,13.93-7.65,20.78c-2.52,7.4-5.37,15.79-7.24,24.33c-0.26,1.18-0.54,2.38-0.81,3.54
		c-0.47,1.99-0.95,4.05-1.34,6.11c-0.31,1.64-0.49,3.32-0.66,4.94c-0.08,0.73-0.16,1.47-0.25,2.2l-0.08,0.63
		c-0.09,0.75-0.19,1.53-0.3,2.28c-0.3,1.99-0.45,4-0.59,5.95c-0.08,1.05-0.15,2.13-0.25,3.19c-0.24,2.54-0.32,5.2-0.24,7.89
		c0.08,2.74,0.33,5.51,0.57,8.19l0.1,1.16c0.21,2.4,0.46,4.98,0.82,7.54c1.33,9.38,4.23,17.09,8.88,23.56
		c1.93,2.69,4.46,5.2,7.95,7.91c3.97,3.07,8.41,5.76,13.58,8.23c2,0.95,4.13,1.94,6.35,2.64c0.95,0.3,1.79,0.44,2.58,0.44
		c0.58,0,1.13-0.08,1.65-0.24c-0.1,0.11-0.21,0.22-0.33,0.32c-0.83,0.74-1.86,1.15-3.14,1.24
		C58.91,412.01,58.54,412.02,58.17,412.02z M36.65,24.55c-0.72,0.06-1.42,0.32-2.08,0.85c-0.54,0.43-0.93,1.1-0.93,1.79
		c0,0.56,0.04,1.79,0.43,2.17c0.04,0.03,0.07,0.07,0.1,0.1c1.33,1.63,2.97,2.79,4.53,3.84c1.22,0.82,2.49,1.52,3.84,2.25
		c0.6,0.33,1.21,0.66,1.84,1.02l2.17,1.23l-0.57-2.43c-0.73-3.09-1.79-5.47-3.33-7.49C41.34,26.16,38.93,24.35,36.65,24.55z"/>
	<path d="M537.1,412.02c-0.37,0-0.73-0.01-1.1-0.04c-1.28-0.09-2.31-0.5-3.14-1.24c-0.12-0.11-0.23-0.21-0.33-0.32
		c0.52,0.16,1.07,0.24,1.64,0.24c0,0,0,0,0,0c0.79,0,1.63-0.15,2.58-0.44c2.22-0.7,4.36-1.69,6.35-2.64
		c5.17-2.46,9.61-5.15,13.58-8.23c3.5-2.71,6.02-5.22,7.95-7.91c4.65-6.47,7.55-14.18,8.88-23.56c0.36-2.55,0.61-5.13,0.82-7.54
		l0.1-1.16c0.24-2.68,0.49-5.44,0.57-8.19c0.08-2.69,0-5.35-0.24-7.89c-0.1-1.05-0.18-2.14-0.25-3.18
		c-0.14-1.95-0.29-3.96-0.59-5.95c-0.12-0.76-0.21-1.55-0.3-2.31l-0.07-0.59c-0.09-0.73-0.17-1.47-0.25-2.21
		c-0.17-1.62-0.35-3.29-0.66-4.93c-0.39-2.06-0.87-4.12-1.34-6.11c-0.27-1.16-0.55-2.36-0.81-3.54c-1.87-8.54-4.72-16.93-7.24-24.33
		c-2.33-6.84-4.84-13.46-7.65-20.78l-0.12-0.32c-3.58-9.34-7.29-19-10.23-28.75c-0.32-1.06-0.65-2.12-0.98-3.18
		c-0.64-2.03-1.3-4.14-1.85-6.22c-1.11-4.23-2.16-8.56-3.18-12.74c-0.32-1.3-0.63-2.6-0.95-3.9c-0.17-0.7-0.34-1.4-0.52-2.1
		c-0.64-2.57-1.29-5.23-1.85-7.85c-0.53-2.47-1-5.01-1.45-7.47c-0.18-0.99-0.37-1.98-0.55-2.97c-0.1-0.52-0.2-1.03-0.3-1.55
		c-0.28-1.45-0.57-2.95-0.8-4.43c-0.13-0.85-0.23-1.74-0.33-2.6c-0.15-1.35-0.3-2.75-0.6-4.12c-0.54-2.49-0.85-5.09-1.15-7.59
		c-0.19-1.59-0.39-3.23-0.64-4.84c-0.16-1-0.28-2.06-0.37-3.25c-0.1-1.22-0.17-2.43-0.25-3.65c-0.06-0.96-0.13-1.92-0.2-2.87
		c-0.07-1.02-0.17-2.06-0.27-3.06c-0.19-2.02-0.39-4.11-0.39-6.14c0-2-0.03-4.02-0.07-5.98c-0.08-5.13-0.17-10.44,0.34-15.61
		c0.17-1.71,0.24-3.44,0.31-5.11c0.03-0.82,0.07-1.65,0.11-2.47c0.14-2.58,0.29-5.15,0.44-7.73c0.01-0.11,0.03-0.22,0.05-0.33
		c0.02-0.13,0.04-0.25,0.06-0.38l0.17-1.42c0.15-1.3,0.31-2.59,0.45-3.89c0.11-1.05,0.21-2.1,0.32-3.14
		c0.17-1.74,0.35-3.54,0.56-5.3c0.21-1.74,0.5-3.52,0.77-5.23c0.09-0.59,0.19-1.17,0.28-1.76c0.1-0.67,0.21-1.34,0.31-2.02
		c0.32-2.08,0.65-4.24,1.02-6.34c0.24-1.36,0.55-2.75,0.85-4.1c0.16-0.74,0.33-1.49,0.48-2.24c0.35-1.68,0.7-3.37,1.04-5.05
		c0.7-3.41,1.42-6.94,2.18-10.39c0.66-2.97,1.38-5.99,2.08-8.9c0.36-1.51,0.72-3.01,1.08-4.52c0.13-0.56,0.31-1.34-0.17-1.95
		c-0.16-0.2-0.52-0.54-1.17-0.54c-0.31,0-0.63,0.08-1.02,0.2l-0.13,0.04c-0.28,0.09-0.57,0.17-0.85,0.27
		c-6.19,2.27-12.44,3.93-18.58,4.94l-0.37,0.06c-0.76,0.13-1.48,0.25-2.2,0.32c-1.62,0.17-3.25,0.32-4.92,0.46
		c-0.88,0.08-1.75,0.17-2.63,0.26c-1.98,0.21-4.04,0.42-6.03,0.44c-0.64,0.01-1.28,0.01-1.92,0.02c-1.42,0.02-2.85,0.03-4.27,0.03
		c-3.17,0-5.6-0.09-7.88-0.29c-1.52-0.13-3.06-0.21-4.54-0.28c-2.31-0.11-4.7-0.23-7.01-0.56c-2.1-0.31-4.24-0.52-6.31-0.73
		c-1.55-0.15-3.14-0.32-4.7-0.51c-3.89-0.49-7.7-0.99-11.45-1.64c-5.4-0.94-10.22-1.88-14.73-2.88c-4.02-0.88-8.09-1.94-12.02-2.96
		l-1.45-0.38c-1.93-0.5-3.89-1.04-5.79-1.55c-2.57-0.7-5.23-1.43-7.87-2.08c-4.28-1.06-8.66-2.03-12.89-2.96l-2.01-0.45
		c-2.21-0.49-4.77-1.05-7.35-1.47c-2.41-0.39-4.82-0.65-7.08-0.88l-1.32-0.14c-2.33-0.24-4.74-0.49-7.13-0.56
		c-0.27-0.01-0.54-0.01-0.8-0.01c-1.67,0-3.34,0.13-4.96,0.25c-0.47,0.04-0.94,0.07-1.41,0.11l-0.39,0.03
		c-1.36,0.09-2.76,0.19-4.15,0.5l-0.79,0.18c-3.32,0.74-6.75,1.51-10.05,2.84c-3.76,1.51-6.69,3.1-9.22,5
		c-4.15,3.12-8.02,6.97-11.5,11.46c-2.43,3.13-4.13,6.66-5.05,10.48c-0.23,0.94-0.36,1.78-0.4,2.55c-0.03,0.54,0.22,1.35,0.75,1.83
		c-0.23,0.33-0.41,0.33-0.51,0.33c-0.05,0-0.11-0.01-0.17-0.02c-0.17-0.03-0.41-0.07-0.7-1.08c-0.68-2.37-0.12-4.72,0.63-7.31
		c0.97-3.38,2.81-6.71,5.62-10.17c2.05-2.53,4.47-5.01,7.61-7.8c2.75-2.45,5.9-4.51,9.35-6.11c4.02-1.87,8.07-3.23,12.03-4.04
		c3.34-0.69,6.94-1.32,10.55-1.35l0.85-0.01c1.29-0.01,2.58-0.02,3.87-0.02c1.87,0,3.42,0.02,4.86,0.05c1.56,0.04,3.13,0.22,5,0.47
		c1.76,0.24,3.56,0.55,5.3,0.85l1.25,0.21c0.54,0.09,1.07,0.18,1.61,0.27c1.68,0.28,3.42,0.56,5.1,0.92
		c2.5,0.52,5.03,1.13,7.48,1.72l2.25,0.54c3.73,0.89,7.59,1.82,11.37,2.78c1.42,0.36,2.87,0.76,4.26,1.15
		c1.62,0.45,3.3,0.92,4.97,1.33c3.16,0.78,6.38,1.48,9.49,2.16l1.2,0.26c2.62,0.57,5.32,1.16,8.01,1.65
		c2.78,0.51,5.61,0.96,8.35,1.4l2.01,0.33c0.74,0.12,1.48,0.24,2.23,0.37c2.3,0.38,4.67,0.78,7.03,1.08
		c3.53,0.46,7.24,0.86,11.04,1.2c0.58,0.05,1.16,0.11,1.73,0.16c3.14,0.29,6.39,0.59,9.6,0.62c1.21,0.01,2.41,0.03,3.62,0.05
		c1.69,0.03,3.43,0.06,5.15,0.06c3.22,0,5.83-0.11,8.23-0.34c1.2-0.12,2.4-0.22,3.6-0.32c1.69-0.14,3.43-0.29,5.15-0.48
		c2.34-0.26,4.83-0.68,7.82-1.32c6.38-1.37,11.89-3.06,16.83-5.16c1.37-0.58,2.12-1.41,2.52-2.78l0.15-0.54
		c0.55-1.92,1.12-3.9,1.84-5.74c1.72-4.39,3.78-7.14,6.69-8.92c1.82-1.11,3.55-1.65,5.3-1.65c1.42,0,2.82,0.35,4.28,1.07
		c1.36,0.67,2.33,1.78,2.66,3.05c0.33,1.25,0.02,2.61-0.9,3.94c-1.72,2.5-3.96,4.64-6.67,6.35c-2.53,1.6-5.23,3.06-7.84,4.47
		l-1.16,0.63c-0.88,0.48-1.93,1.23-2.24,2.85c-0.17,0.87-0.38,1.72-0.61,2.62c-0.15,0.58-0.29,1.17-0.43,1.75
		c-0.5,2.2-0.99,4.4-1.48,6.6c-0.43,1.91-0.85,3.82-1.28,5.72c-0.22,0.98-0.45,1.96-0.68,2.93c-0.39,1.69-0.8,3.43-1.16,5.16
		c-0.93,4.47-1.8,9-2.65,13.37c-0.41,2.13-0.84,4.39-1.19,6.65c-0.2,1.31-0.36,2.64-0.52,3.93c-0.11,0.92-0.23,1.84-0.35,2.76
		c-0.18,1.31-0.37,2.62-0.57,3.94c-0.29,1.98-0.59,4.02-0.85,6.04c-0.31,2.4-0.52,4.73-0.77,7.52c-0.31,3.53-0.57,6.49-0.77,9.5
		c-0.19,2.77-0.35,5.48-0.39,8.2c-0.1,8.36-0.16,17.27,0.37,26.19c0,0.04,0,0.08,0,0.12c0,0.11,0.01,0.23,0.02,0.34l0.41,3.87
		c0.23,2.18,0.47,4.36,0.7,6.55c0.06,0.53,0.1,1.05,0.15,1.58c0.09,0.98,0.17,2,0.32,3c0.25,1.69,0.54,3.39,0.81,5.04
		c0.21,1.25,0.42,2.49,0.61,3.74c0.2,1.28,0.38,2.56,0.57,3.84c0.33,2.34,0.68,4.76,1.13,7.13c0.84,4.46,1.84,9.15,3.04,14.33
		l0.24,1.05c1.39,6.03,2.84,12.27,4.48,18.36c1.69,6.26,3.69,12.59,5.45,18.17c0.89,2.82,1.92,5.62,2.92,8.33
		c0.24,0.65,0.48,1.3,0.72,1.95c1.67,4.55,3.37,9.09,4.81,12.93c0.68,1.8,1.37,3.61,2.06,5.41c0.8,2.09,1.63,4.26,2.43,6.39
		c1.13,3.03,2.46,6.6,3.7,10.17c1.15,3.29,2.17,6.26,3.07,9.3c0.26,0.88,0.52,1.76,0.78,2.64c1.29,4.32,2.61,8.78,3.56,13.26
		c0.13,0.6,0.27,1.19,0.42,1.77c0.24,0.96,0.46,1.86,0.6,2.78c0.27,1.78,0.56,3.57,0.85,5.31c0.29,1.77,0.59,3.61,0.86,5.41
		c0.51,3.36,1.11,7.79,1.28,12.24c0.24,6.6,0.4,13.63-0.54,20.66c-0.45,3.37-0.86,6.31-1.26,8.98c-0.49,3.26-1.41,6.68-2.91,10.78
		c-0.68,1.86-1.62,3.69-2.53,5.47l-0.42,0.81c-2.03,3.97-4.63,7.42-7.73,10.24c-5.72,5.21-12.58,9.23-20.39,11.94
		C540.84,411.68,538.96,412.02,537.1,412.02z M558.7,24.54c-2.24,0-4.22,1.1-5.88,3.28c-1.51,1.98-2.54,4.31-3.26,7.33L549,37.52
		l2.12-1.21c0.62-0.35,1.22-0.68,1.8-1c1.32-0.72,2.56-1.4,3.75-2.2c0.99-0.66,1.97-1.35,2.86-2.14c1.11-0.98,1.49-1.83,2.01-3.2
		c0.1-0.27,0.21-0.55,0.15-0.84c-0.04-0.23-0.19-0.43-0.34-0.62C560.48,25.15,560.29,24.54,558.7,24.54z"/>
	<path d="M378.17,820.04c-0.11,0-0.22,0-0.33-0.01c-1.88-0.11-3.8-0.31-5.65-0.51c-0.62-0.07-1.25-0.13-1.87-0.2
		c-6.97-0.71-13.38-3.62-19.35-6.54c-4.05-1.98-7.23-3.84-9.99-5.85c-4.64-3.37-8.47-6.96-11.72-10.98
		c-3.11-3.85-5.48-7.6-7.26-11.45c-1.45-3.14-2.44-6.5-3.03-10.25c-0.36-2.31-0.93-5.56,0.42-7.56c0.19-0.28,0.44-0.6,0.79-0.59
		c0.47,0.01,0.68,0.61,0.69,1.08c0.01,0.88-0.21,1.75-0.35,2.62c-0.7,4.36,1.14,8.68,3.08,12.49c2.3,4.5,4.85,8.2,7.79,11.33
		l0.04,0.04c2.29,2.44,4.66,4.96,7.28,7.11c2.98,2.44,6.01,4.55,9.02,6.26c4.37,2.49,9.13,4.65,14.15,6.4
		c4.83,1.69,8.96,2.48,13,2.48c0.34,0,0.68-0.01,1.01-0.02c0.46-0.02,0.93-0.02,1.39-0.02c0.38,0,0.77,0.01,1.15,0.02
		c0.3,0.01,0.61,0.02,0.91,0.02c4.25,0,8.3-1.06,11.71-2.1c5.71-1.74,11.39-4.36,17.85-8.24c1.77-1.06,3.54-2.11,5.31-3.16
		c2.78-1.65,5.66-3.36,8.48-5.08c4.36-2.66,9.13-5.63,15.01-9.34c2.55-1.61,5.12-3.26,7.62-4.86c2.61-1.68,5.31-3.41,7.98-5.09
		c8.13-5.12,17.83-11.04,28.08-16.06c4.75-2.33,9.02-4.1,13.07-5.41c1.03-0.34,2.07-0.7,3.08-1.05c1.66-0.58,3.37-1.18,5.07-1.66
		c2.93-0.82,6.81-1.82,10.79-2.26c1.18-0.13,2.36-0.31,3.5-0.49c1.7-0.26,3.46-0.53,5.17-0.62l0.6-0.03
		c1.37-0.07,2.8-0.15,4.18-0.15c1.77,0,3.23,0.12,4.59,0.37c1.03,0.19,2.06,0.27,3.06,0.35c0.69,0.05,1.34,0.11,2,0.19
		c0.73,0.1,1.46,0.24,2.22,0.4c0.42,0.09,0.84,0.17,1.27,0.25c0.15,0.03,0.3,0.04,0.43,0.04c0.58,0,1.06-0.23,1.38-0.65
		c0.24-0.32,0.47-0.88,0.22-1.74l-0.28-0.94c-0.44-1.49-0.88-2.98-1.33-4.46c-0.84-2.74-1.19-5.55-1.55-8.53l-0.01-0.09
		c-0.46-3.7-0.85-7.69-0.68-11.74c0.08-1.86,0.27-3.76,0.45-5.6c0.08-0.83,0.16-1.65,0.24-2.48c0.04-0.51,0.08-1.01,0.12-1.52
		c0.09-1.13,0.17-2.3,0.34-3.42c0.24-1.61,0.44-3.24,0.64-4.82c0.13-1.02,0.26-2.04,0.4-3.06c0.39-2.9,1.01-5.81,1.6-8.63
		c0.36-1.72,0.74-3.5,1.06-5.27c0.29-1.6,0.7-3.22,1.1-4.78c0.32-1.28,0.66-2.6,0.93-3.93c0.56-2.68,1.05-5.41,1.52-8.06
		c0.15-0.81,0.29-1.62,0.44-2.43c0.35-1.92,0.69-3.86,1.01-5.75l0.18-1.05c0.15-0.89,0.31-1.78,0.47-2.66
		c0.39-2.17,0.79-4.41,1.11-6.63c0.41-2.79,0.77-5.62,1.12-8.36c0.18-1.43,0.37-2.87,0.56-4.3l0.17-1.31
		c0.42-3.12,0.85-6.35,1.09-9.57c0.19-2.5,0.53-5.05,0.87-7.51c0.2-1.46,0.41-2.97,0.58-4.47c0.21-1.86,0.39-3.76,0.57-5.59
		c0.11-1.2,0.23-2.4,0.35-3.6c0.04-0.39,0.11-0.78,0.18-1.19c0.06-0.34,0.12-0.69,0.17-1.04l0.1-0.71c0.36-2.69,0.73-5.47,1.07-8.21
		c0.17-1.34,0.28-2.7,0.39-4.01l0.02-0.2c0.07-0.81,0.13-1.61,0.19-2.42c0.09-1.19,0.18-2.43,0.3-3.63c0.11-1.14,0.26-2.31,0.4-3.44
		c0.08-0.64,0.16-1.29,0.24-1.93c0.03-0.28,0.05-0.57,0.07-0.85c0.02-0.21,0.03-0.42,0.05-0.63c0.11-1.04,0.22-2.07,0.32-3.11
		c0.15-1.39,0.29-2.78,0.43-4.18c0.17-1.71,0.31-3.11,0.42-4.4c0.07-0.86,0.14-1.72,0.21-2.57c0.09-1.09,0.17-2.18,0.27-3.27
		c0.05-0.6,0.13-1.2,0.21-1.83c0.05-0.42,0.11-0.84,0.16-1.26c0.1-0.87,0.2-1.74,0.3-2.62c0.29-2.55,0.6-5.19,0.86-7.79
		c0.1-0.97,0.15-1.95,0.21-2.9c0.07-1.11,0.13-2.26,0.26-3.36c0.4-3.36,0.41-6.75,0.42-10.04c0-1.3,0.01-2.65,0.04-3.97
		c0.01-0.61,0.07-1.23,0.13-1.88c0.08-0.83,0.16-1.68,0.14-2.56l-0.02-1.42c-0.06-3.9-0.13-7.93-0.39-11.9
		c-0.24-3.64-0.8-7.19-1.26-9.87c-0.56-3.28-1.21-6.18-1.98-8.87c-0.83-2.9-2.05-6.67-4.12-10.1c-2.44-4.05-4.8-7.15-7.43-9.75
		c-2.3-2.28-4.92-4.28-7.99-6.12c-3.15-1.88-5.89-3.06-8.64-3.72c-2.13-0.51-4.36-0.92-6.81-1.25c-0.38-0.05-0.77-0.08-1.17-0.08
		c-1.63,0-3.16,0.42-4.64,0.82c-0.32,0.09-0.64,0.18-0.97,0.26c-1.39,0.36-1.97,1.11-2.19,1.83c-0.45-0.52-0.74-1.37-0.6-2.02
		c0.29-1.34,1.08-2.37,2.49-3.24c1.92-1.19,4.05-1.82,6.49-1.93c0.47-0.02,0.94-0.03,1.4-0.03c6.1,0,12.02,1.85,18.12,5.67
		c3.84,2.4,6.74,4.73,9.11,7.33c3.6,3.94,6.6,8.53,8.9,13.63c1.47,3.26,2.65,6.77,3.5,10.44c0.57,2.46,0.97,5.04,1.36,7.53
		c0.16,1.03,0.32,2.06,0.49,3.09c0.88,5.22,0.84,10.62,0.8,15.85c-0.01,1.3-0.02,2.61-0.01,3.91l0,2.81c0,2.09,0,4.18,0,6.27
		c0.01,3.46-0.24,7.07-0.74,10.72c-0.15,1.09-0.22,2.19-0.28,3.26c-0.05,0.8-0.1,1.63-0.19,2.42c-0.19,1.79-0.41,3.61-0.62,5.37
		c-0.18,1.46-0.35,2.93-0.51,4.39c-0.1,0.88-0.17,1.76-0.24,2.62c-0.07,0.86-0.15,1.74-0.24,2.6c-0.16,1.45-0.34,2.9-0.52,4.36
		c-0.21,1.7-0.42,3.46-0.61,5.2c-0.11,1.01-0.18,2.02-0.26,3c-0.07,0.94-0.14,1.91-0.24,2.85c-0.2,1.83-0.42,3.7-0.63,5.5
		c-0.17,1.42-0.34,2.84-0.49,4.26c-0.09,0.77-0.15,1.55-0.22,2.3c-0.08,0.89-0.16,1.81-0.26,2.69c-0.18,1.43-0.37,2.88-0.57,4.28
		c-0.19,1.38-0.38,2.8-0.56,4.21c-0.16,1.31-0.31,2.64-0.45,3.93c-0.15,1.37-0.3,2.8-0.48,4.19c-0.17,1.34-0.37,2.7-0.56,4.02
		c-0.18,1.26-0.37,2.55-0.53,3.84c-0.14,1.1-0.24,2.21-0.34,3.29c-0.05,0.58-0.11,1.16-0.17,1.75l-0.07,0.65
		c-0.1,1.01-0.21,2.05-0.34,3.06c-0.15,1.15-0.31,2.31-0.47,3.46c-0.22,1.58-0.45,3.22-0.65,4.83c-0.15,1.2-0.28,2.42-0.4,3.6
		c-0.16,1.48-0.32,3.01-0.52,4.51c-0.38,2.78-0.84,5.61-1.3,8.34l-0.05,0.3c-0.43,2.58-0.88,5.2-1.32,7.73l-0.55,3.17l-0.3,1.78
		c-0.3,1.74-0.59,3.48-0.9,5.21c-0.1,0.57-0.2,1.15-0.3,1.72c-0.31,1.79-0.63,3.64-1.01,5.43c-0.68,3.21-1.3,5.84-1.95,8.27
		c-1.5,5.61-2.56,11.47-3.5,16.63c-0.37,2.03-0.56,4.1-0.74,6.1c-0.06,0.7-0.13,1.41-0.2,2.11c-0.08,0.81-0.17,1.62-0.25,2.43
		c-0.31,2.97-0.63,6.03-0.84,9.07c-0.09,1.32,0,2.63,0.09,3.89c0.04,0.56,0.08,1.13,0.1,1.69c0.03,0.7,0.06,1.39,0.08,2.09
		c0.13,4.45,0.82,8.86,2.05,13.08c0.66,2.25,1.37,4.65,2.19,7.02c0.49,1.43,1.36,3.18,3.74,4.07c4.32,1.62,8.69,4.25,13.35,8.04
		c2.66,2.17,4.9,4.38,6.84,6.76l0.19,0.23c2.05,2.52,3.99,4.9,5.63,7.6c1.25,2.06,2.12,4.14,2.66,6.36
		c0.39,1.61,0.05,3.52-0.92,5.11c-0.9,1.47-2.23,2.51-3.66,2.85c-0.62,0.15-1.24,0.22-1.84,0.22c-1.54,0-3.08-0.49-4.72-1.49
		c-2.04-1.25-3.64-3.08-5.34-5.02l-0.18-0.21c-2.47-2.83-4.83-6.14-7.43-10.43c-1.48-2.44-2.81-4.91-3.91-7.01
		c-1.66-3.14-3.29-6.37-4.87-9.5l-0.69-1.37c-0.45-0.89-1.11-1.44-2.08-1.72l-0.15-0.04c-2.48-0.72-5.03-1.46-7.75-1.62
		c-1.1-0.06-2.24-0.19-3.33-0.31c-1.6-0.18-3.26-0.36-4.92-0.37l-0.11,0c-1.93,0-3.86,0.25-5.73,0.49
		c-0.56,0.07-1.12,0.14-1.69,0.21c-2.15,0.25-4.3,0.57-6.39,0.88c-4.03,0.6-8.04,1.74-11.47,2.75c-4.97,1.48-9.4,3.13-13.55,5.06
		c-4.42,2.06-8.77,4.39-12.85,6.61c-3.14,1.71-6.41,3.6-10.59,6.15c-2.34,1.42-4.67,2.93-6.92,4.39c-0.9,0.58-1.8,1.17-2.7,1.75
		c-1.69,1.09-3.39,2.18-5.08,3.27c-2.92,1.88-5.84,3.76-8.77,5.63c-3.57,2.28-7.79,4.96-12.02,7.6c-3.02,1.88-6.11,3.75-9.19,5.57
		c-0.72,0.43-1.45,0.86-2.17,1.28c-5,2.96-10.18,6.03-15.47,8.58c-5.42,2.61-10.6,4.41-15.84,5.51c-1.09,0.23-2.22,0.31-3.42,0.4
		c-0.55,0.04-1.1,0.08-1.65,0.13c-0.38,0.04-0.76,0.09-1.14,0.14C379.43,819.95,378.78,820.04,378.17,820.04z M553.21,763.94
		c0.04,0.11,0.08,0.21,0.12,0.32c0.1,0.27,0.21,0.55,0.35,0.83c0.29,0.56,0.58,1.11,0.86,1.67c0.88,1.71,1.79,3.47,2.73,5.19
		c2.52,4.59,5.4,9.4,9.33,13.53c1.28,1.34,2.68,2,4.28,2l0.09,0c1.17-0.02,2.18-0.5,2.84-1.36c0.67-0.88,0.88-2.07,0.58-3.28
		c-0.19-0.75-0.49-1.45-0.78-2.1c-1.06-2.35-2.58-4.62-4.79-7.14c-2.68-3.06-5.05-5.52-7.88-7.53c-2.02-1.44-4.04-2.78-6.57-3.46
		l-1.93-0.51L553.21,763.94z"/>
	<path d="M211.55,811c-2.13,0-4.27-0.06-6.35-0.18c-3.12-0.18-6.76-0.41-10.33-0.96c-2.82-0.43-6.53-1.02-10.26-1.79
		c-3.15-0.65-6.37-1.48-9.85-2.53c-6.59-1.99-11.9-3.7-16.74-5.36c-3.13-1.08-6.26-2.37-9.29-3.62l-1.71-0.7
		c-3.72-1.53-7.72-3.22-12.58-5.31c-1.43-0.62-2.87-1.3-4.26-1.95c-0.61-0.29-1.23-0.58-1.84-0.86c-1.8-0.83-3.59-1.67-5.38-2.51
		c-3.83-1.79-7.8-3.64-11.71-5.43c-8.71-3.98-15.48-6.73-21.95-8.93c-5.94-2.02-10.97-3.35-15.82-4.2c-1.91-0.33-3.84-0.5-5.72-0.5
		c-3.45,0-6.86,0.57-10.15,1.69c-1.35,0.46-2.71,0.95-4.03,1.43c-1.08,0.39-2.16,0.78-3.24,1.16c-1.57,0.55-2.53,1.6-3.02,3.31
		c-0.93,3.3-2.34,6.66-4.18,9.98c-0.94,1.7-1.99,3.35-3.18,4.89c-1,1.29-1.96,2.77-3.13,3.89c-1.28,1.23-3.35,2.14-5.09,2.49
		c-0.87,0.17-1.58,0.29-2.22,0.35c-0.12,0.01-0.23,0.02-0.34,0.02c-0.76,0-1.43-0.28-1.92-0.81c-0.6-0.64-0.91-1.58-0.84-2.58
		c0.07-1.08,0.23-1.87,0.5-2.51c0.24-0.57,0.48-1.15,0.72-1.72c0.97-2.35,1.98-4.78,3.23-6.97c2.47-4.31,5.97-7.82,10.4-10.44
		c0.46-0.27,0.94-0.54,1.41-0.8c0.74-0.41,1.5-0.83,2.24-1.31c0.92-0.58,1.48-1.24,1.67-1.94c0.72-2.63,1.28-4.99,1.71-7.2
		c0.58-2.93,1.05-5.93,1.51-8.82l0.03-0.18c0.22-1.39,0.35-2.8,0.45-4.02c0.19-2.19,0.35-4.17,0.45-6.18l0.05-0.92
		c0.14-2.84,0.29-5.77,0.32-8.66c0.04-3.97-0.2-8.29-0.73-13.22c-0.12-1.13-0.2-2.3-0.28-3.43c-0.06-0.83-0.12-1.66-0.19-2.49
		c-0.09-1.04-0.23-2.16-0.41-3.41c-0.23-1.54-0.46-3.09-0.69-4.63c-0.41-2.71-0.84-5.51-1.2-8.27c-0.6-4.52-1.59-9.36-3.11-15.25
		c-0.44-1.71-0.85-3.46-1.24-5.16c-0.44-1.9-0.9-3.87-1.41-5.8c-0.46-1.75-1-3.49-1.52-5.17c-0.34-1.11-0.7-2.25-1.03-3.38
		c-0.61-2.1-1.21-4.24-1.79-6.31c-0.42-1.51-0.84-3.02-1.27-4.53c-0.75-2.62-1.5-5.24-2.25-7.86c-1.55-5.4-3.16-10.98-4.66-16.48
		c-0.23-0.84-0.46-1.69-0.7-2.53c-1.3-4.71-2.64-9.58-3.54-14.45c-0.32-1.71-0.7-3.42-1.08-5.07c-0.4-1.75-0.81-3.57-1.13-5.35
		c-0.31-1.71-0.48-3.51-0.65-5.24c-0.08-0.85-0.17-1.71-0.27-2.56c-0.05-0.39-0.1-0.78-0.16-1.17c-0.09-0.6-0.17-1.16-0.21-1.72
		c-0.1-1.43-0.19-2.89-0.28-4.3c-0.16-2.63-0.32-5.34-0.6-8.01c-0.46-4.41-0.37-8.93-0.29-13.31c0.03-1.36,0.05-2.73,0.06-4.09
		c0.03-3.88,0.4-7.84,0.78-11.57c0.19-1.86,0.47-3.75,0.74-5.59c0.26-1.76,0.53-3.57,0.72-5.38c0.45-4.22,1.43-8.43,2.37-12.51
		l0.17-0.74c0.67-2.88,1.55-5.78,2.41-8.59c0.43-1.4,0.87-2.85,1.28-4.28c1.21-4.23,2.79-8.7,4.97-14.05
		c2.51-6.17,5.69-13.31,10.3-19.52c3.1-4.17,6.62-8.11,10.86-11.16c4.28-3.08,8.84-6.18,14.34-6.18c0.65,0,1.31,0.04,1.96,0.12
		c2.03,0.26,3.2,1,3.78,2.4c0.21,0.51,0.12,0.69-0.02,0.89c-0.03,0.04-0.06,0.08-0.09,0.12c-0.22-0.7-0.79-1.33-2.05-1.67
		c-0.71-0.19-1.47-0.29-2.2-0.29c-0.34,0-0.68,0.02-1,0.06c-4.32,0.56-8.4,2.46-12.48,5.79c-1.81,1.48-3.49,3.1-5.05,4.63
		c-2.93,2.87-5.09,6.09-7.61,10c-3.74,5.81-6.23,12.27-8.42,17.98c-2.81,7.31-5.15,14.65-6.94,21.81
		c-1.08,4.31-2.15,8.95-2.69,13.74c-0.25,2.23-0.61,4.5-0.96,6.7c-0.17,1.08-0.34,2.16-0.5,3.23c-0.03,0.23-0.04,0.45-0.04,0.63
		c0,0.08,0,0.16-0.01,0.25l-0.27,3.29c-0.17,2-0.33,4-0.49,6c-0.03,0.41-0.03,0.8-0.03,1.18l0,0.31c0,1.76-0.01,3.51-0.02,5.27
		c-0.02,4.3-0.04,8.74,0.04,13.12c0.03,2.03,0.24,4.06,0.43,6.02c0.09,0.92,0.18,1.83,0.26,2.75c0.02,0.27,0.03,0.56,0.03,0.9
		c0,2.58,0.37,5.13,0.76,7.49c0.19,1.11,0.33,2.27,0.46,3.39c0.12,1.01,0.25,2.05,0.41,3.07c0.4,2.53,0.83,5.21,1.4,7.85
		c1.27,5.95,2.61,11.31,4.08,16.39c1,3.45,1.96,6.99,2.88,10.41c0.63,2.34,1.28,4.76,1.94,7.13c1.38,4.96,2.82,9.99,4.21,14.85
		l1.3,4.57c0.36,1.26,0.72,2.51,1.09,3.77c0.71,2.43,1.45,4.94,2.1,7.43c0.8,3.04,1.52,6.17,2.22,9.2l0.47,2.03
		c0.72,3.11,1.47,6.33,2.11,9.5c0.3,1.48,0.51,3.01,0.72,4.5c0.08,0.57,0.16,1.13,0.24,1.7c0.33,2.19,0.71,4.79,1.07,7.43l0.02,0.15
		c0.17,1.22,0.35,2.48,0.45,3.71c0.12,1.42,0.21,2.86,0.31,4.26c0.17,2.44,0.34,4.96,0.61,7.45c0.63,5.81,0.47,11.56,0.22,17.94
		c-0.14,3.57-0.33,7.06-0.99,10.46c-0.43,2.21-0.75,4.45-1.06,6.63c-0.21,1.49-0.43,3.04-0.68,4.54c-0.14,0.84-0.37,1.67-0.62,2.56
		c-0.14,0.51-0.29,1.04-0.42,1.58c-0.19,0.79,0.04,1.3,0.27,1.6c0.3,0.38,0.76,0.6,1.29,0.6c0.22,0,0.46-0.04,0.71-0.11
		c0.88-0.27,1.76-0.54,2.65-0.82c1.2-0.37,2.39-0.75,3.59-1.1c2.52-0.75,5.25-1.12,8.33-1.12c1.33,0,2.71,0.07,4.23,0.2
		c3.61,0.32,7.03,1.01,10.18,2.05c1.6,0.53,3.24,1,4.82,1.45c2.08,0.59,4.24,1.21,6.28,1.96c4.49,1.64,8.98,3.53,13.33,5.37
		l0.95,0.4c2.85,1.2,5.73,2.51,8.51,3.77c0.72,0.33,1.44,0.65,2.16,0.98c0.68,0.31,1.37,0.65,2.04,0.99
		c0.56,0.28,1.11,0.56,1.67,0.82c0.97,0.45,1.93,0.91,2.89,1.37c2.94,1.39,5.98,2.83,9,4.19c0.82,0.37,1.63,0.74,2.45,1.11
		c4.48,2.03,9.11,4.12,13.81,5.88c1.41,0.52,2.83,1.11,4.2,1.68c1.51,0.63,3.07,1.27,4.64,1.85c2.57,0.94,5.21,1.76,7.77,2.55
		l2.25,0.7c3.29,1.02,6.7,2.08,10.09,3.01c2.64,0.72,5.54,1.39,9.13,2.11c3.01,0.6,5.95,1.06,9.21,1.56
		c1.39,0.21,2.89,0.35,4.47,0.42c0.68,0.03,1.36,0.06,2.03,0.09c2.97,0.13,6.03,0.27,9.06,0.27l0.49,0c1.69-0.01,3.37-0.21,4.99-0.4
		c0.73-0.09,1.48-0.18,2.21-0.25c0.55-0.05,1.1-0.1,1.65-0.14c1.09-0.09,2.21-0.18,3.33-0.33c6.17-0.82,11.67-1.95,16.82-3.44
		c6.02-1.75,11.45-3.92,16.59-6.64c0.95-0.5,1.82-1.23,2.62-1.94c4.63-4.06,7.19-10.52,7.83-16.54c0.06-0.6,0.12-1.17,0.23-1.72
		c0.08-0.42,0.29-0.84,1.26-1.03c0.01,0,0.03,0,0.04,0c0.28,0,0.79,0.27,0.91,0.64c1.94,5.98-0.59,11.89-4.03,16.86
		c-2.04,2.94-4.49,5.61-7.42,7.64c-2.69,1.88-5.75,3.43-9.63,4.9c-3.07,1.16-6.06,2.15-8.91,2.93c-2.9,0.8-5.95,1.38-8.58,1.86
		c-2.25,0.41-4.57,0.76-6.81,1.09c-0.97,0.15-1.95,0.29-2.92,0.44c-0.04,0.01-0.09,0.01-0.14,0.01c-0.06,0-0.12,0.01-0.19,0.01
		C218.95,810.83,215.18,811,211.55,811z M40.94,775.19c-2.67,1.42-4.83,3.73-6.57,6.16c-1.05,1.46-1.97,3.02-2.77,4.64
		c-0.46,0.93-2.3,3.8-1.03,4.69c0.29,0.2,0.68,0.16,1.04,0.11c2.71-0.41,4.58-2.94,6.15-4.98l0.09-0.12
		c1.59-2.05,2.68-4.37,3.73-6.61c0.23-0.5,0.47-1,0.71-1.5c0.16-0.33,0.2-0.65,0.23-0.93c0.01-0.09,0.02-0.19,0.04-0.29l0.38-2.23
		C42.94,774.13,40.94,775.19,40.94,775.19z"/>
	<path d="M294.64,801.99c-0.09-0.12-0.13-0.33-0.1-0.64c0.06-0.56,0.29-0.94,0.72-1.36c0.12-0.12,0.4-0.41,0.46-0.88
		c0.06-0.47-0.15-0.83-0.24-0.98l-0.69-1.46c-0.1-0.38-0.28-0.78-0.56-1.21c-3.13-4.82-5.65-10.1-7.72-16.16
		c-1.15-3.38-2.13-6.82-2.98-10.53c-0.66-2.89-0.29-5.87,0.11-8.43c0.15-0.95,1.29-1.89,2.5-2.05c0.08-0.01,0.16-0.02,0.24-0.02
		c0.86,0,1.79,0.59,2.24,1.43c0.12,0.22,0.33,0.53,0.67,0.77c1.69,1.19,2.74,2.89,3.62,4.55c0.37,0.69,0.76,1.38,1.13,2.05
		c0.58,1.03,1.03,2.22,1.82,3.11c0.22,0.24,0.42,0.48,0.56,0.78c-0.07-1.18,0.46-2.28,0.65-3.42c0.16-0.97,0.32-1.64,0.79-2.47
		c1.12-1.95,1.81-4.06,3.19-5.88c1.44-1.91,3-2.99,4.89-3.39c0.3-0.06,0.59-0.1,0.86-0.1c0.97,0,1.83,0.41,2.7,1.28
		c1.51,1.51,1.95,3.62,2.27,5.65c0.25,1.58,0.11,3.18-0.04,4.87l-0.05,0.58c-0.04,0.42-0.07,0.84-0.11,1.27
		c-0.11,1.33-0.22,2.71-0.41,4.03c-0.63,4.34-1.87,8.4-3.68,12.07c-2.02,4.08-4.57,7.94-7.6,11.48c-0.35,0.41-0.71,0.81-1.07,1.2
		c-1.01,1.12-1.82,2.41-2.86,3.49C295.5,802.08,294.89,802.33,294.64,801.99z M288.77,763.49c-0.23,0-0.45,0.07-0.63,0.2
		c-0.37,0.27-0.65,0.69-0.75,1.12c-0.09,0.39-0.03,0.74,0.01,1l0.01,0.08c0.07,0.45,0.14,0.9,0.2,1.34
		c0.18,1.19,0.36,2.41,0.58,3.62c0.84,4.63,2.25,9.47,4.32,14.78c0.61,1.57,1.11,3.43,2.13,4.76c1.12,1.46,2.25,2.89,3.31,4.39
		c0,0,2.37-3.22,2.57-3.55c0.77-1.33,1.44-2.72,2.17-4.07c2.09-3.89,4.09-8.17,4.51-13.05l0-0.05c0.01-0.17,0.03-0.33,0.06-0.44
		c0.84-2.96,0.79-5.89,0.65-9.13c-0.05-1.06-0.46-2.09-0.82-2.87c-0.57-1.24-1.35-1.5-1.9-1.5c-0.51,0-1.02,0.22-1.55,0.67
		c-0.8,0.68-1.49,1.48-2,2.3c-1.99,3.21-2.82,6.84-3.38,9.97c-0.07,0.37-0.14,0.75-0.21,1.12c-0.36,1.82-0.67,3.59-0.9,5.45
		c-0.04,0.35-0.13,0.76-0.45,0.91c-0.27,0.12-0.58-0.02-0.8-0.21c-0.91-0.78-0.47-1.75-0.48-2.75c0-0.92-0.01-1.87-0.31-2.8
		c-1.09-3.33-2.15-6.07-3.76-8.63c-0.47-0.74-0.97-1.44-1.39-2.03C289.7,763.76,289.2,763.49,288.77,763.49z"/>
	<path d="M296.35,82.76c-1.26-0.76-1.76-2.51-2.44-3.83c-0.92-1.8-1.78-3.64-2.6-5.49c-1.68-3.76-3.36-7.73-5.14-12.11
		c-2.85-7.02-4.94-12.88-6.59-18.43c-0.7-2.36-1.21-5.01-1.59-8.34c-0.23-2.03,0.17-3.98,1.16-5.63c0.67-1.13,1.73-1.74,2.98-1.74
		c0.54,0,1.1,0.12,1.66,0.36c1.56,0.67,2.9,1.55,4.09,2.69c0.3,0.29,0.6,0.57,0.9,0.86c2.2,2.09,4.02,4.34,5.92,6.65
		c0.6,0.72,1.04,1.69,1.53,2.49c2.02,3.29,4.28,6.58,5.49,10.27c0.32-0.25,0.47-0.65,0.6-1.03c0.45-1.3,0.88-2.4,1.6-3.54
		c0.52-0.83,1.71-2.89,1.71-3.84c1.25-2.6,2.75-4.4,4.7-5.66c0.79-0.51,1.64-0.77,2.46-0.77c1.59,0,3.02,0.97,3.81,2.6
		c0.43,0.89,0.67,1.95,0.73,3.34c0.18,3.77-0.89,7.35-2.02,11.15l-0.1,0.32c-1.22,4.11-3.08,7.95-5.03,11.86
		c-1.66,3.32-3.58,6.52-5.76,9.53c-0.92,1.27-2.08,2.33-2.94,3.62c-1.05,1.57-2.11,3.14-3.24,4.66c-0.09,0.12-0.19,0.25-0.33,0.32
		c-0.15,0.08-0.33,0.07-0.5,0.05C297.01,83.07,296.66,82.95,296.35,82.76z M282.6,35.37c0.02,0.35,0.03,0.69,0.04,1.02l0,0.05
		c0.03,0.86,0.05,1.68,0.22,2.56c0.79,4.04,2.09,7.94,3.35,11.71c0.41,1.24,0.84,2.51,1.24,3.79c0.77,2.42,1.65,4.81,2.5,7.13
		c0.57,1.54,1.15,3.14,1.69,4.71c0.61,1.77,1.19,3.59,1.75,5.36l0.02,0.07c0.37,1.17,0.75,2.35,1.13,3.52
		c0.19,0.58,0.52,0.96,0.74,1.22c0,0,0.02,0.03,0.03,0.03c0.76,0.89,1.44,1.5,2.76,0.99c0.53-0.2,0.94-0.63,1.31-1.06
		c1.46-1.68,2.94-3.4,4.25-5.15c0.01,0.07-0.01,0.15,0,0.22c1.16-2.21,2.35-4.41,3.53-6.61c0.15-0.28,0.28-0.52,0.41-0.74
		c0.25-0.44,0.46-0.83,0.65-1.25c2.48-5.36,4.24-10.36,5.37-15.28c0.35-1.53,0.45-3.13,0.38-4.7c-0.05-1.01,0.21-2.43-0.59-3.2
		c-0.88-0.85-1.84-0.54-2.77-0.07c-2.44,1.23-3.57,3.63-4.36,5.82c-1.36,3.77-2.1,6.96-2.34,10.04c-0.08,1.01-0.23,1.99-0.44,2.93
		c-0.36,1.58-0.28,3.07-0.2,4.66c0.02,0.29,0.03,0.6,0.04,0.91l0.04,0.96l-0.27,0.08c-0.3,0.09-0.58,0.13-0.83,0.13
		c-1.16,0-1.37-1.09-1.4-1.56c-0.02-0.29-0.02-0.63-0.01-0.98c0-0.17,0.01-0.77,0.01-0.77c0.02-2.19,0.03-4.46-0.9-6.78
		c-0.43-1.07-0.82-2.17-1.19-3.24l-0.02-0.06c-0.28-0.8-0.57-1.63-0.88-2.45c-2.06-5.46-5.34-10.23-10.02-14.6
		c-0.56-0.53-1.51-1.41-2.99-1.57l-2.42-0.26L282.6,35.37z"/>
</g>
</svg>
