<?xml version="1.0" encoding="utf-8"?>
<!-- Generator: Adobe Illustrator 28.3.0, SVG Export Plug-In . SVG Version: 6.00 Build 0)  -->
<svg version="1.1" id="Layer_1" xmlns="http://www.w3.org/2000/svg" xmlns:xlink="http://www.w3.org/1999/xlink" x="0px" y="0px"
	 viewBox="0 0 595.28 841.89" style="enable-background:new 0 0 595.28 841.89;" xml:space="preserve">
<path d="M531.65,830.11c-0.01-0.21-0.03-0.43-0.04-0.65c-0.08-1.27-0.17-2.59-0.27-3.89c-0.14-1.7-0.28-3.39-0.43-5.09
	c-0.09-1.07-0.19-2.15-0.28-3.22c-0.01-0.15-0.01-0.33-0.01-0.51c0-0.13,0-0.27,0-0.4c-0.05-1.63-0.08-3.29-0.1-4.89
	c-0.06-3.65-0.13-7.42-0.4-11.13c-0.32-4.36-0.3-8.81-0.28-13.11c0.01-2.58,0.03-5.25-0.03-7.89c-0.01-0.36-0.01-0.68-0.01-0.94
	c0-0.79,0-1.3-0.24-1.78c-0.47-0.93-1.46-0.93-1.83-0.93c-0.23,0-0.51,0.01-0.87,0.03c-0.23,0.01-0.48,0.03-0.77,0.04
	c-2.09,0.08-4.19,0.28-6.22,0.47c-0.9,0.09-1.81,0.17-2.71,0.25c-0.1,0.01-0.21,0.01-0.31,0.02l-0.23,0.01
	c-0.89,0.05-1.77,0.09-2.66,0.13c-2,0.1-4.06,0.19-6.1,0.32c-2.48,0.16-5,0.34-7.44,0.51c-1.26,0.09-2.53,0.18-3.79,0.27
	c-0.69,0.05-1.38,0.09-2.07,0.13c-1.23,0.08-2.5,0.16-3.76,0.26c-1.68,0.14-3.38,0.31-5.02,0.47c-0.77,0.08-1.54,0.15-2.31,0.23
	c-0.07,0.01-0.13,0.01-0.2,0.01l-3.34,0.14c-2.3,0.1-4.6,0.2-6.9,0.3l-0.64,0.03c-2.72,0.12-5.54,0.25-8.31,0.39
	c-0.43,0.02-0.85,0.04-1.28,0.06c-1.51,0.07-3.07,0.14-4.61,0.34c-1.51,0.2-3.01,0.22-4.6,0.24c-1.41,0.02-2.86,0.04-4.31,0.2
	c-0.98,0.1-1.95,0.13-2.97,0.15c-1.12,0.03-2.28,0.06-3.45,0.2c-1.38,0.17-2.76,0.19-4.21,0.22c-1.34,0.02-2.73,0.05-4.12,0.2
	c-1.08,0.12-2.15,0.14-3.29,0.16c-1.21,0.02-2.46,0.05-3.71,0.2c-1.54,0.19-3.14,0.2-4.68,0.22c-1.51,0.01-3.07,0.03-4.63,0.2
	c-1.34,0.15-2.73,0.16-4.07,0.17c-1.46,0.01-2.98,0.03-4.48,0.21c-1.66,0.2-3.38,0.22-4.86,0.22l-1.61,0
	c-1.38,0-2.98,0.01-4.58,0.18c-1.68,0.17-3.41,0.18-5.09,0.19c-1.77,0.01-3.6,0.02-5.42,0.21c-1.87,0.2-3.72,0.21-5.79,0.21l-0.72,0
	c-1.74,0-3.44,0.01-5.13,0.15c-2.07,0.16-4.19,0.19-6.25,0.22c-2.09,0.03-4.26,0.05-6.4,0.22c-2.14,0.17-4.34,0.2-6.46,0.22
	c-0.94,0.01-1.88,0.02-2.81,0.05c-2.52,0.06-5.09,0.1-7.58,0.13c-4.42,0.06-9,0.13-13.5,0.34c-5.01,0.24-9.88,0.27-13.99,0.27
	c-1.83,0-3.66-0.01-5.49-0.02c-1.83-0.01-3.67-0.01-5.5-0.01c-3.3,0-7.65,0.02-12.07,0.19c-5.63,0.21-11.16,0.23-16.8,0.23l-3.63,0
	c-2.36,0-4.89,0-7.42,0.03c-1.29,0.01-2.59,0.02-3.89,0.04c-3.74,0.04-7.61,0.08-11.41,0.08c-4.81,0-8.81-0.06-12.59-0.19
	c-3.84-0.13-7.74-0.14-11.52-0.15c-4.53-0.01-9.22-0.02-13.81-0.25c-2.24-0.11-4.5-0.12-6.68-0.13c-2.72-0.01-5.54-0.02-8.28-0.23
	c-2.58-0.2-5.18-0.2-7.69-0.21c-2.47,0-5.02,0-7.49-0.2c-1.87-0.15-3.74-0.16-5.56-0.17c-1.95-0.01-3.96-0.02-5.9-0.21
	c-2.04-0.19-4.08-0.21-6.06-0.22c-1.85-0.01-3.77-0.02-5.62-0.19c-1.29-0.12-2.58-0.14-3.83-0.16c-1.49-0.02-2.89-0.05-4.29-0.21
	c-1.66-0.2-3.32-0.22-4.92-0.24c-1.21-0.02-2.46-0.03-3.67-0.13c-3.99-0.32-8.03-0.52-11.95-0.71l-2.04-0.1
	c-1.67-0.08-3.37-0.22-5.02-0.35c-2.03-0.16-4.14-0.33-6.22-0.4c-2.96-0.11-6.1-0.35-10.17-0.77c-3.46-0.36-6.89-0.62-9.5-0.82
	c-1.27-0.09-2.57-0.23-3.82-0.36c-1.53-0.16-3.1-0.32-4.68-0.42c-1.95-0.12-3.95-0.38-5.89-0.63c-1.14-0.15-2.31-0.3-3.47-0.43
	c-0.94-0.1-1.9-0.17-2.82-0.23c-0.92-0.07-1.87-0.13-2.79-0.23c-0.81-0.09-1.64-0.22-2.44-0.35c-0.69-0.11-1.41-0.23-2.13-0.31
	c-0.83-0.1-1.67-0.18-2.49-0.26c-0.71-0.06-1.44-0.13-2.15-0.21c-1.3-0.15-2.62-0.33-3.9-0.5c-0.61-0.08-1.22-0.16-1.83-0.24
	c-0.11-0.01-0.21-0.02-0.32-0.03c-0.04,0-0.08,0-0.12-0.01c-0.44-0.04-0.77-0.07-1.06-0.07c-0.42,0-1.03,0.05-1.5,0.53
	c-0.58,0.58-0.57,1.35-0.57,2.41c0,0.97-0.01,1.94-0.02,2.91c-0.03,2.34-0.07,4.75,0.13,7.14c0.18,2.19,0.19,4.45,0.2,6.63
	c0.01,2.23,0.01,4.53,0.21,6.81c0.14,1.67,0.17,3.38,0.19,5.03c0.02,1.46,0.04,2.98,0.14,4.48c0.11,1.63,0.28,3.28,0.44,4.87
	c0.08,0.83,0.17,1.65,0.25,2.48c0.01,0.14,0.01,0.3,0.01,0.47c0,0.21,0,0.45,0.02,0.7c0.08,0.9,0.17,1.79,0.26,2.69
	c0.16,1.64,0.33,3.34,0.47,5.01c0.07,0.85,0.08,1.7,0.08,2.61c0,0.01,0,0.02,0,0.03h-3.19l-0.06-0.8c-0.1-1.5-0.21-3-0.32-4.5
	c-0.07-0.86-0.15-1.73-0.24-2.57c-0.04-0.37-0.07-0.74-0.11-1.11l-0.2-2.13c-0.18-1.86-0.36-3.71-0.52-5.57
	c-0.03-0.29-0.03-0.59-0.03-0.91c0-0.33,0-0.67-0.03-1.02c-0.08-1.08-0.17-2.15-0.26-3.23c-0.16-1.85-0.32-3.76-0.43-5.63
	c-0.09-1.5-0.11-3.05-0.12-4.54c-0.02-1.89-0.05-3.84-0.21-5.79c-0.28-3.37-0.34-6.83-0.39-10.17c-0.02-1.45-0.05-2.9-0.09-4.35
	c-0.01-0.21-0.01-0.41-0.01-0.62c0-0.25,0-0.5-0.01-0.76c-0.04-1.19-0.79-2.02-1.96-2.17c-2.17-0.28-4.35-0.55-6.53-0.82
	c-0.51-0.06-1.03-0.12-1.54-0.18c-0.81-0.09-1.66-0.18-2.47-0.3c-1.07-0.16-2.15-0.33-3.22-0.5c-1.19-0.19-2.43-0.39-3.65-0.56
	c-1.01-0.14-2.03-0.26-3.02-0.38c-1.21-0.14-2.46-0.29-3.68-0.48c-1.68-0.26-3.39-0.56-5.04-0.86c-1.17-0.21-2.33-0.41-3.5-0.61
	c-4.01-0.67-7.98-1.32-11.81-1.92c-0.81-0.13-1.62-0.22-2.41-0.3c-0.01,0-0.03,0-0.04,0v-3.84c0.17,0.03,0.35,0.05,0.52,0.08
	c1.41,0.21,2.82,0.42,4.23,0.65c1,0.16,2,0.34,2.99,0.51c1.03,0.18,2.06,0.36,3.09,0.53c2.51,0.4,4.97,0.8,7.47,1.14
	c1.13,0.16,2.28,0.29,3.39,0.42c1.16,0.14,2.35,0.28,3.52,0.44c1.52,0.21,3.06,0.45,4.56,0.68c1.76,0.27,3.58,0.55,5.38,0.8
	c1.56,0.21,3.15,0.38,4.69,0.55c0.94,0.1,1.89,0.2,2.83,0.31c0.98,0.12,1.96,0.25,3,0.39c0.49,0.07,1,0.14,1.52,0.2l1.39,0.18
	l-0.07-1.4c-0.05-0.94-0.03-1.89-0.02-2.82c0.02-1.69,0.05-3.43-0.28-5.19c-0.07-0.39-0.08-0.85-0.08-1.32l0-0.21
	c-0.01-1.23,0-2.49,0.01-3.71c0.02-2.58,0.04-5.25-0.12-7.88c-0.27-4.44-0.25-8.99-0.24-13.38c0.01-4.11,0.03-8.36-0.19-12.54
	c-0.18-3.53-0.18-7.13-0.18-10.61c0-3.35,0-6.82-0.16-10.25c-0.29-6.16-0.28-12.44-0.28-18.51c0.01-5.12,0.01-10.41-0.16-15.62
	c-0.29-8.83-0.27-17.82-0.24-26.51c0.01-4.54,0.03-9.23-0.01-13.85c-0.01-2.02-0.03-4.04-0.05-6.07
	c-0.09-11.26-0.18-22.9,0.12-34.33c0.19-7.19,0.18-14.49,0.16-21.55c-0.01-7.59-0.03-15.43,0.21-23.14
	c0.11-3.56,0.12-7.18,0.13-10.67c0.01-4.62,0.02-9.39,0.27-14.06c0.15-2.85,0.15-5.72,0.16-8.5c0-2.97,0.01-6.03,0.19-9.02
	c0.29-4.68,0.27-9.42,0.26-14.01c-0.01-4.11-0.03-8.36,0.18-12.52c0.13-2.66,0.13-5.35,0.14-7.96c0-3.08,0-6.26,0.23-9.36
	c0.22-3.12,0.22-6.27,0.21-9.32c0-2.96-0.01-6.02,0.2-9c0.16-2.34,0.16-4.7,0.17-6.98c0-2.38,0-4.83,0.19-7.22
	c0.28-3.53,0.26-7.1,0.25-10.56c-0.01-3.07-0.03-6.24,0.17-9.34c0.15-2.42,0.16-4.87,0.16-7.23c0-2.61,0.01-5.31,0.22-7.94
	c0.22-2.74,0.21-5.51,0.21-8.18c0-2.5-0.01-5.09,0.17-7.6c0.16-2.22,0.17-4.47,0.18-6.64c0.01-2.3,0.02-4.67,0.22-6.97
	c0.22-2.6,0.22-5.22,0.22-7.76c0-2.13,0-4.34,0.13-6.48c0.16-2.58,0.18-5.19,0.2-7.72c0.02-2.65,0.04-5.38,0.23-8.04
	c0.2-2.94,0.2-5.91,0.19-8.78c-0.01-2.81-0.01-5.72,0.18-8.56c0.17-2.48,0.18-4.99,0.18-7.41c0.01-2.56,0.01-5.2,0.22-7.76
	c0.22-2.8,0.22-5.63,0.22-8.36c0-2.38-0.01-4.85,0.14-7.24c0.17-2.72,0.19-5.47,0.21-8.12c0.02-2.71,0.04-5.5,0.22-8.23
	c0.22-3.32,0.21-6.67,0.21-9.91c0-2.9-0.01-5.89,0.15-8.82c0.21-3.78,0.21-7.62,0.22-11.32c0.01-3.58,0.01-7.28,0.2-10.9
	c0.23-4.41,0.21-8.88,0.2-13.2c-0.01-4.24-0.03-8.63,0.19-12.93c0.2-3.97,0.19-7.99,0.19-11.88c-0.01-3.91-0.01-7.95,0.19-11.91
	c0.32-6.14,0.3-12.36,0.28-18.37c-0.01-2.95-0.02-5.99,0.01-8.98c0.07-6.6,0.05-13.31,0.04-19.8c0-2.46-0.01-4.91-0.01-7.37
	c0-15.5-0.01-31-0.02-46.5c0-0.1,0-0.2,0-0.31c0.01-0.68,0.03-1.53-0.45-2.22c-0.48-0.69-1.31-0.76-1.92-0.82
	c-0.16-0.01-0.33-0.03-0.44-0.05c-0.11-0.02-0.23-0.05-0.34-0.07c-0.35-0.08-0.71-0.15-1.11-0.19c-1.12-0.09-2.23-0.17-3.35-0.25
	c-2.25-0.16-4.57-0.32-6.82-0.62c-2.5-0.34-5.04-0.58-7.49-0.82c-1.11-0.11-2.21-0.21-3.32-0.32c-1.55-0.16-3.12-0.37-4.64-0.56
	c-1.43-0.19-2.9-0.38-4.37-0.54c-1.5-0.16-3.02-0.29-4.5-0.42c-1.56-0.13-3.18-0.27-4.76-0.44c-1.5-0.17-3.03-0.38-4.5-0.59
	c-1.15-0.16-2.34-0.33-3.52-0.48c-1.08-0.13-2.18-0.22-3.23-0.3c-0.12-0.01-0.24-0.02-0.36-0.03v-4.25
	c0.24,0.03,0.47,0.05,0.71,0.08c1.57,0.18,3.15,0.36,4.73,0.53c0.79,0.08,1.57,0.15,2.36,0.22c0.87,0.07,1.77,0.15,2.65,0.25
	c0.97,0.11,1.96,0.24,2.91,0.37c0.81,0.11,1.63,0.22,2.44,0.31c1.36,0.16,2.8,0.31,4.28,0.43c0.79,0.07,1.59,0.12,2.38,0.18
	c1.12,0.08,2.27,0.16,3.4,0.28c0.99,0.1,2,0.24,2.98,0.38c0.72,0.1,1.45,0.2,2.17,0.29c1.33,0.16,2.73,0.3,4.27,0.44
	c0.78,0.07,1.56,0.13,2.35,0.18c1.07,0.08,2.17,0.16,3.24,0.27c1.24,0.13,2.51,0.29,3.73,0.45c0.52,0.07,1.04,0.14,1.56,0.2
	c0.1,0.03,0.19,0.04,0.29,0.05c0.59,0.04,1.18,0.09,1.77,0.14c1.46,0.12,2.97,0.23,4.46,0.31c0.18,0.01,0.34,0.01,0.48,0.01
	c1.93,0,1.93-1.5,1.94-2.39c0-0.77,0.02-1.54,0.04-2.31c0.04-1.97,0.09-4-0.11-6.01c-0.29-2.95-0.27-5.98-0.25-8.92
	c0.02-2.29,0.03-4.66-0.1-7.01c-0.29-5.33-0.32-10.76-0.35-16.01c-0.01-2.28-0.02-4.63-0.06-6.95c-0.01-0.9-0.13-1.78-0.25-2.64
	c0-0.03-0.01-0.06-0.01-0.1c0.1,0,0.21-0.01,0.33-0.01c0.21,0,0.41,0.01,0.62,0.01c0.22,0.01,0.45,0.01,0.67,0.01
	c0.1,0,0.19,0,0.29,0c0.4-0.01,0.8-0.02,1.21-0.02c0.43,0,0.82,0.01,1.19,0.03c0.12,0.5,0.19,0.96,0.21,1.38
	c0.03,0.75,0.03,1.52,0.03,2.26c0,0.54,0,1.08,0.01,1.62c0.04,2.1,0.06,4.21,0.09,6.32c0.06,5.04,0.12,10.24,0.42,15.37
	c0.14,2.29,0.15,4.64,0.16,6.91c0.01,2.52,0.02,5.13,0.2,7.71c0.22,3.17,0.26,6.41,0.28,9.46c0.01,1.26,0.74,2.03,2.01,2.12
	c0.56,0.04,1.12,0.12,1.72,0.2c0.37,0.05,0.74,0.1,1.11,0.14c2.11,0.24,4.23,0.48,6.35,0.7c0.23,0.02,0.46,0.03,0.69,0.04
	c0.16,0.01,0.33,0.01,0.49,0.03c1.03,0.1,2.06,0.2,3.1,0.3c1.54,0.15,3.07,0.3,4.61,0.44c0.31,0.03,0.6,0.03,0.88,0.03
	c0.24,0,0.47,0,0.68,0.02c1.37,0.13,2.74,0.26,4.1,0.4c1.07,0.11,2.14,0.21,3.21,0.32c0.4,0.04,0.78,0.04,1.16,0.05l0.11,0
	c2.71,0.04,5.44,0.28,8.12,0.73c0.22,0.04,0.42,0.04,0.59,0.04l0.17,0c0.05,0,0.09,0,0.14,0c0.76,0.04,1.52,0.07,2.28,0.1
	c1.72,0.07,3.49,0.14,5.19,0.37c1.22,0.17,2.43,0.22,3.61,0.26c0.69,0.03,1.39,0.06,2.08,0.11c1.29,0.1,2.62,0.27,3.9,0.43
	c0.67,0.08,1.34,0.17,2,0.25c0.26,0.03,0.5,0.03,0.71,0.03c0.11,0,0.22,0,0.34,0.01c0.81,0.04,1.63,0.07,2.44,0.11
	c1.86,0.07,3.78,0.14,5.62,0.38c1.1,0.14,2.19,0.18,3.25,0.22c0.9,0.03,1.74,0.07,2.59,0.15c3.47,0.36,7,0.58,10.41,0.79l0.28,0.02
	c2.03,0.13,4.1,0.28,6.1,0.42c1.71,0.12,3.41,0.25,5.12,0.36c3.07,0.2,6.14,0.39,9.22,0.57l3.57,0.22c0.95,0.06,1.89,0.12,2.83,0.18
	c4.17,0.27,8.48,0.54,12.75,0.58c2.14,0.02,4.63,0.06,7.02,0.39c1.9,0.26,3.85,0.26,5.41,0.26h0.46c1.54,0,2.92,0.01,4.28,0.15
	c1.9,0.19,3.8,0.2,5.64,0.21c1.73,0.01,3.53,0.02,5.25,0.19c2.35,0.22,4.68,0.25,6.85,0.25c0.56,0,1.12,0,1.68,0
	c0.56,0,1.12,0,1.67,0c1.56,0,3.4,0.02,5.22,0.13c3.62,0.23,7.27,0.26,10.67,0.26c0.8,0,3.99-0.01,4.79-0.01
	c2.7,0,5.6,0.02,8.54,0.15c4.47,0.2,9.26,0.29,15.52,0.29c2.55,0,5.1-0.01,7.65-0.03c2.54-0.01,5.09-0.03,7.63-0.03
	c2.25,0,4.25,0.01,6.11,0.03l0.07,0l0.07-0.01c2.74-0.27,5.42-0.31,7.68-0.31c1.02,0,2.04,0.01,3.06,0.02
	c1.03,0.01,2.05,0.02,3.08,0.02c2.42,0,4.28-0.05,6.03-0.17c2.37-0.16,4.8-0.16,7.14-0.17c2.57-0.01,5.24-0.02,7.87-0.22
	c1.41-0.11,2.87-0.13,4.28-0.14c1.79-0.02,3.64-0.04,5.47-0.25c2.05-0.23,4.16-0.24,6.2-0.25c1.32-0.01,2.68-0.01,4.03-0.08
	c0.87-0.04,1.76-0.07,2.63-0.09c1.97-0.05,4-0.11,6.01-0.37c1.52-0.2,3.02-0.21,4.61-0.23c1.07-0.01,2.18-0.02,3.29-0.1
	c2.08-0.14,4.19-0.31,6.23-0.47c0.95-0.08,1.91-0.15,2.86-0.23c0.12-0.01,0.24-0.01,0.36-0.02l0.18-0.01
	c1.13-0.05,2.27-0.09,3.4-0.13c2.59-0.09,5.26-0.19,7.9-0.34c2.02-0.11,4.07-0.3,6.04-0.48c0.89-0.08,1.79-0.16,2.68-0.23
	c0.07,0,0.11,0,0.15,0c0.91-0.04,1.82-0.08,2.73-0.12c2.1-0.09,4.28-0.19,6.42-0.34c1.55-0.11,3.1-0.28,4.61-0.45
	c0.72-0.08,1.44-0.16,2.16-0.24c0.13-0.01,0.26-0.02,0.39-0.02c0.11,0,0.23-0.01,0.34-0.01c0.76-0.04,1.52-0.08,2.27-0.13
	c1.74-0.09,3.54-0.19,5.31-0.32c2.97-0.21,5.98-0.46,8.9-0.7l0.97-0.08c2.44-0.2,4.88-0.41,7.31-0.62l1.76-0.15
	c2.96-0.26,5.92-0.52,8.88-0.78c2.9-0.26,5.79-0.52,8.69-0.78c0.74-0.07,1.49-0.13,2.23-0.2c2.05-0.18,4.18-0.37,6.27-0.59
	c1.7-0.18,3.42-0.38,5.08-0.57c1.57-0.18,3.15-0.36,4.72-0.53c0.85-0.09,1.72-0.15,2.57-0.22c0.87-0.06,1.76-0.13,2.65-0.22
	c2.11-0.22,4.25-0.47,6.33-0.71c1.16-0.13,2.32-0.27,3.48-0.4c0.13-0.01,0.26-0.01,0.39-0.02c0.19,0,0.39-0.01,0.58-0.03
	c1.08-0.11,2.15-0.23,3.23-0.35c1.23-0.13,2.46-0.27,3.7-0.4c1.61-0.17,2.96-0.3,4.22-0.41c0.68-0.06,1.37-0.11,2.05-0.16
	c1.11-0.08,2.25-0.17,3.38-0.29c0.89-0.1,1.78-0.23,2.63-0.36c0.65-0.1,1.32-0.2,1.97-0.28c1.58-0.2,3.18-0.35,4.39-0.47
	c0.82-0.08,1.64-0.14,2.45-0.21c0.92-0.07,1.85-0.15,2.77-0.24c0.66-0.06,1.33-0.16,1.96-0.24c0.32-0.04,0.63-0.09,0.95-0.13
	c0.52-0.07,1.05-0.14,1.57-0.2c1.43-0.19,2.9-0.38,4.35-0.54c1.3-0.14,2.01-0.99,1.91-2.27l-0.02-0.23
	c-0.07-0.82-0.14-1.64-0.2-2.46l-0.03-0.39c-0.03-0.38-0.06-0.73-0.07-1.08c-0.01-0.87-0.01-1.74-0.01-2.61
	c0-1.08-0.01-2.17-0.02-3.25c-0.04-2.36-0.06-4.71-0.09-7.07c-0.08-6.58-0.16-13.38-0.39-20.07c-0.03-0.95-0.07-1.89-0.11-2.84
	c-0.07-1.75-0.14-3.55-0.18-5.32h5c0.01,0.1,0.01,0.2,0.01,0.3c0.01,0.61,0,1.22,0,1.83c-0.01,1.14-0.02,2.33,0.05,3.5
	c0.21,3.22,0.23,6.51,0.25,9.69c0.02,3.01,0.03,6.13,0.21,9.2c0.21,3.53,0.21,7.13,0.22,10.61c0,2.58,0.01,5.24,0.09,7.88
	c0.01,0.18,0,0.35,0,0.53c0,0.28-0.01,0.58,0.01,0.89c0.04,0.58,0.15,2.12,1.93,2.12c0.19,0,0.39-0.01,0.7-0.05
	c0.78-0.09,1.59-0.16,2.36-0.23c0.93-0.09,1.9-0.17,2.85-0.29c1.37-0.17,2.76-0.36,4.1-0.54c1.35-0.19,2.76-0.38,4.13-0.55
	c0.79-0.1,1.61-0.16,2.4-0.23c0.79-0.07,1.61-0.13,2.42-0.23c1.7-0.21,3.42-0.43,5.09-0.66c1.12-0.15,2.23-0.3,3.35-0.44
	c1.15-0.15,2.33-0.27,3.47-0.4l0.35-0.04c0.87-0.09,1.73-0.18,2.6-0.27c1.68-0.17,3.41-0.35,5.11-0.56
	c1.31-0.16,2.63-0.35,3.91-0.53c1.35-0.19,2.75-0.39,4.12-0.56c1.25-0.15,2.51-0.25,3.83-0.35c0.24-0.02,0.48-0.04,0.72-0.06
	c0.02,0.46,0,0.94-0.02,1.43c-0.01,0.15-0.01,0.3-0.02,0.44c-2.31,0.34-4.65,0.66-6.93,0.98L580,55.65
	c-3.42,0.47-6.83,0.94-10.25,1.4c-1.15,0.16-2.29,0.31-3.44,0.46c-1.76,0.23-3.58,0.47-5.38,0.72c-1.42,0.2-2.84,0.42-4.26,0.64
	c-1.86,0.28-3.78,0.58-5.67,0.83c-1.41,0.19-2.86,0.34-4.26,0.48c-1.12,0.11-2.28,0.23-3.42,0.37c-0.77,0.09-1.54,0.22-2.29,0.34
	c-0.92,0.15-1.78,0.29-2.66,0.38c-0.93,0.1-2.03,0.57-2.02,2.3c0.02,1.77,0.02,3.55,0.03,5.33l0.01,2.09c0,0.52-0.01,1.05-0.02,1.58
	c-0.02,1.17-0.04,2.39,0.06,3.6c0.34,3.99,0.31,8.09,0.28,12.05c-0.03,3.45-0.05,7.02,0.16,10.54c0.15,2.56,0.16,5.17,0.16,7.71
	c0,2.84,0,5.77,0.22,8.67c0.24,3.27,0.23,6.62,0.21,9.85c-0.01,3.15-0.03,6.41,0.19,9.63c0.16,2.29,0.16,4.64,0.16,6.91
	c0,2.52,0,5.13,0.22,7.71c0.22,2.69,0.21,5.45,0.2,8.11c-0.01,2.63-0.02,5.36,0.19,8.05c0.17,2.17,0.17,4.4,0.18,6.56
	c0,2.32,0.01,4.71,0.21,7.08c0.24,2.75,0.22,5.58,0.21,8.31c-0.01,2.63-0.03,5.35,0.18,8.04c0.19,2.42,0.19,4.91,0.19,7.31
	c0,2.52,0,5.12,0.21,7.69c0.2,2.47,0.2,5.01,0.2,7.46c0,2.2,0,4.48,0.14,6.74c0.17,2.64,0.19,5.34,0.21,7.95
	c0.02,2.69,0.04,5.47,0.22,8.22c0.22,3.35,0.21,6.77,0.2,10.08c-0.01,3.21-0.03,6.52,0.17,9.79c0.21,3.48,0.21,7.04,0.21,10.49
	c0,3.26,0,6.64,0.18,9.97c0.28,5.14,0.25,10.39,0.23,15.46c-0.02,4.65-0.04,9.45,0.17,14.18c0.35,7.94,0.32,16.03,0.29,23.84
	c-0.01,3.75-0.03,7.62,0,11.43c0.01,1.8,0.03,3.6,0.04,5.4c0.08,9.75,0.16,19.84-0.12,29.73c-0.25,9.08-0.23,18.31-0.21,27.24
	c0.02,8.87,0.05,18.03-0.2,27.04c-0.14,4.93-0.13,9.93-0.12,14.77c0.01,5.97,0.02,12.14-0.24,18.19c-0.23,5.15-0.21,10.38-0.2,15.43
	c0.02,5.18,0.03,10.53-0.21,15.78c-0.15,3.2-0.14,6.43-0.14,9.56c0.01,3.64,0.01,7.4-0.23,11.08c-0.24,3.65-0.23,7.34-0.21,10.91
	c0.01,3.46,0.03,7.04-0.19,10.53c-0.16,2.47-0.16,4.96-0.16,7.37c0,2.7,0,5.49-0.22,8.19c-0.22,2.65-0.21,5.33-0.21,7.91
	c0,2.4,0.01,4.88-0.17,7.29c-0.16,2.19-0.17,4.4-0.19,6.53c-0.01,2.27-0.02,4.61-0.22,6.88c-0.21,2.38-0.21,4.76-0.21,7.07
	c0,2.04,0,4.14-0.15,6.18c-0.16,2.26-0.18,4.55-0.2,6.76c-0.02,2.32-0.05,4.72-0.23,7.05c-0.18,2.28-0.21,4.57-0.23,6.78
	c-0.01,1.24-0.03,2.52-0.07,3.77c-0.06,1.67-0.08,3.37-0.11,5.01c-0.05,3.2-0.1,6.51-0.37,9.73c-0.16,1.99-0.17,3.99-0.18,5.92
	c-0.01,1.89-0.02,3.85-0.18,5.75c-0.14,1.73-0.17,3.47-0.19,5.16c-0.02,1.82-0.05,3.71-0.23,5.52c-0.22,2.19-0.24,4.39-0.25,6.51
	c-0.01,1.21-0.02,2.46-0.07,3.68c-0.05,1.32-0.08,2.65-0.1,3.94c-0.05,2.59-0.1,5.26-0.36,7.85c-0.19,1.95-0.22,3.89-0.24,5.78
	c-0.01,0.94-0.03,1.91-0.06,2.85c-0.05,1.47-0.08,2.96-0.1,4.41c-0.05,2.88-0.1,5.87-0.37,8.76c-0.22,2.38-0.24,4.76-0.26,7.07
	c-0.01,1.21-0.02,2.47-0.06,3.7c-0.06,1.75-0.08,3.53-0.11,5.24c-0.05,3.32-0.1,6.74-0.37,10.08c-0.19,2.37-0.19,4.75-0.19,7.05
	c0,2.17,0,4.41-0.16,6.58c-0.25,3.22-0.26,6.47-0.27,9.62c-0.01,2.61-0.02,5.31-0.16,7.94c-0.15,2.8-0.24,5.36-0.27,7.82
	c-0.01,0.75-0.02,1.46,0.51,1.99c0.5,0.5,1.16,0.5,1.45,0.5c0.17,0,0.36-0.01,0.59-0.02c1.96-0.12,3.95-0.3,5.87-0.47
	c0.82-0.07,1.64-0.14,2.46-0.21c0.31-0.03,0.63-0.05,0.94-0.07c0.84-0.05,1.68-0.09,2.53-0.14c1.78-0.09,3.63-0.19,5.44-0.32
	c2.28-0.16,4.59-0.34,6.83-0.52c1.08-0.09,2.16-0.17,3.24-0.26c3.35-0.26,6.7-0.52,10.05-0.78c0.58-0.04,1.16-0.09,1.74-0.13
	c1.08-0.08,2.2-0.16,3.31-0.26c1.01-0.09,2.02-0.2,3.03-0.31c1.21-0.13,2.47-0.27,3.7-0.37c0.6-0.05,1.22-0.05,1.87-0.06
	c0.46,0,0.93,0,1.4-0.02c0.54-0.02,1.08-0.06,1.64-0.11c0,0.8,0,1.61,0,2.43l-1.51,0.12c-2.7,0.21-5.48,0.42-8.22,0.67
	c-1.34,0.12-2.68,0.29-3.98,0.45c-0.67,0.08-1.33,0.17-2,0.24c-0.1,0.01-0.19,0.01-0.29,0.01c-0.16,0-0.31,0-0.47,0.02
	c-1.02,0.1-2.04,0.19-3.06,0.29c-1.61,0.15-3.22,0.31-4.84,0.46c-0.17,0.02-0.37,0.02-0.57,0.02c-0.24,0-0.51,0-0.8,0.03
	c-1.38,0.13-2.75,0.27-4.13,0.4c-1.13,0.11-2.26,0.22-3.39,0.33c-0.16,0.02-0.33,0.02-0.49,0.02c-0.2,0-0.44,0.01-0.68,0.03
	c-1.65,0.15-3.29,0.31-4.94,0.47l-2.96,0.28c-0.09,0.01-0.17,0.01-0.26,0.01c-0.09,0-0.19,0-0.28,0.01l-2.1,0.12
	c-1.83,0.1-3.65,0.21-5.48,0.33c-0.76,0.05-1.53,0.12-2.27,0.19c-0.66,0.06-1.32,0.12-1.98,0.17c-1.2,0.09-1.93,0.86-1.91,2.03
	c0.01,0.26,0,0.53,0,0.8c0,0.18,0,0.37,0,0.55c0,2.14,0,4.28,0,6.41c0,5.07-0.01,10.32,0.04,15.48l0.01,0.62
	c0.04,4.04,0.08,8.21,0.44,12.31c0.16,1.76,0.19,3.57,0.21,5.32c0.02,1.23,0.04,2.51,0.1,3.77l0.02,0.48
	c0.12,2.33,0.24,4.74,0.4,7.11c0.01,0.08,0.01,0.17,0.03,0.25H531.65z M67.79,69.47c-0.26,0-1.04,0-1.62,0.58
	c-0.62,0.63-0.65,1.53-0.64,2.64c0.04,2.65,0.07,5.31,0.09,7.96c0.04,3.97,0.08,8.08,0.17,12.13c0.26,12.33,0.17,24.88,0.09,37.02
	l-0.01,0.85c-0.03,4.2-0.01,8.46,0,12.58c0.03,8.28,0.07,16.83-0.27,25.24c-0.22,5.36-0.2,10.8-0.18,16.07
	c0.02,5.54,0.04,11.28-0.21,16.9c-0.19,4.12-0.19,8.31-0.2,12.36c-0.01,4.13-0.01,8.41-0.21,12.6c-0.18,3.85-0.17,7.75-0.16,11.52
	c0.02,4.15,0.03,8.44-0.22,12.65c-0.18,2.95-0.19,5.94-0.2,8.84c-0.01,2.98-0.03,6.07-0.22,9.08c-0.17,2.72-0.17,5.47-0.17,8.13
	c0,2.7,0,5.5-0.18,8.23c-0.28,4.07-0.33,8.21-0.38,12.21c-0.03,2.15-0.05,4.36-0.12,6.54c-0.05,1.59-0.05,3.19-0.06,4.74
	c-0.01,2.64-0.02,5.38-0.23,8.05c-0.21,2.73-0.21,5.5-0.22,8.18c0,2.63-0.01,5.34-0.21,7.99c-0.19,2.55-0.19,5.13-0.18,7.63
	c0,2.49,0.01,5.05-0.18,7.56c-0.27,3.5-0.32,7.05-0.37,10.49c-0.03,1.81-0.05,3.69-0.11,5.53c-0.05,1.49-0.06,3-0.08,4.45
	c-0.02,2.36-0.05,4.8-0.21,7.18c-0.18,2.64-0.21,5.32-0.24,7.91c-0.03,2.39-0.05,4.87-0.2,7.28c-0.15,2.39-0.15,4.8-0.15,7.14
	c0,2.58,0,5.24-0.2,7.84c-0.21,2.69-0.21,5.42-0.21,8.06c0,2.54,0,5.16-0.19,7.72c-0.21,2.87-0.21,5.77-0.2,8.58
	c0,2.69,0.01,5.47-0.18,8.18c-0.27,3.94-0.32,7.94-0.37,11.81c-0.03,2.02-0.05,4.11-0.11,6.16c-0.05,1.81-0.06,3.65-0.07,5.43
	c-0.02,2.81-0.04,5.71-0.21,8.56c-0.21,3.32-0.21,6.68-0.22,9.93c0,3.14-0.01,6.39-0.2,9.56c-0.19,3.24-0.18,6.52-0.16,9.7
	c0.02,3.53,0.04,7.18-0.24,10.75c-0.21,2.73-0.22,5.5-0.22,8.17c-0.01,2.25-0.01,4.57-0.14,6.85c-0.26,4.56-0.26,9.19-0.26,13.67
	c0,3.52,0,7.16-0.13,10.73c-0.27,7.65-0.28,15.42-0.28,22.93c0,5.22-0.01,10.62-0.1,15.92c-0.24,13.67-0.2,27.57-0.16,41.02
	c0.02,5.65,0.03,11.49,0.03,17.23c0,2.65-0.01,5.3-0.02,7.95c-0.02,6.43-0.04,13.08,0.03,19.62c0.03,2.98,0.03,6.02,0.03,8.96
	c0,6.15-0.01,12.51,0.26,18.78c0.24,5.53,0.25,11.16,0.26,16.62c0.01,4.26,0.01,8.67,0.13,13.02c0.14,5.3,0.15,10.69,0.17,15.91
	c0.02,6.81,0.03,13.86,0.33,20.79c0,0.06,0,0.12,0,0.19c0,0.15,0,0.3,0.01,0.45c0.13,1.48,0.77,2.15,2.21,2.3
	c0.3,0.03,0.57,0.03,0.84,0.04c0.25,0,0.48,0,0.69,0.03c1.83,0.24,3.66,0.49,5.49,0.74l2.54,0.35c0.25,0.03,0.51,0.07,0.76,0.11
	c0.7,0.1,1.43,0.2,2.16,0.27c1.09,0.1,2.18,0.18,3.26,0.27c0.72,0.06,1.44,0.11,2.16,0.17c1.52,0.13,3.16,0.27,4.81,0.43
	c1.3,0.13,2.6,0.26,3.9,0.4c1.14,0.12,2.27,0.23,3.41,0.35c0.25,0.02,0.48,0.03,0.68,0.03c0.17,0,0.34,0,0.47,0.02
	c1.15,0.13,2.29,0.26,3.44,0.39c2.09,0.24,4.24,0.48,6.38,0.69c2.67,0.26,5.38,0.47,8.01,0.67l3.03,0.24
	c2.92,0.23,5.94,0.47,8.91,0.65c2.19,0.14,4.41,0.24,6.56,0.33c0.93,0.04,1.85,0.08,2.78,0.13c0.12,0.01,0.24,0.01,0.36,0.01
	c0.12,0,0.25,0,0.37,0.01c0.89,0.08,1.78,0.16,2.67,0.24c1.78,0.16,3.63,0.33,5.45,0.46c0.93,0.07,1.87,0.09,2.77,0.11
	c1.3,0.03,2.52,0.05,3.76,0.21c2,0.26,4.03,0.32,5.99,0.38c0.87,0.03,1.77,0.05,2.64,0.1c1.13,0.06,2.27,0.07,3.37,0.08
	c1.75,0.02,3.55,0.03,5.3,0.24c2.28,0.26,4.59,0.32,6.83,0.37c1.04,0.02,2.11,0.05,3.16,0.09c1.6,0.07,3.22,0.08,4.79,0.09
	c2.25,0.02,4.57,0.03,6.84,0.22c3.25,0.27,6.56,0.32,9.75,0.37c1.61,0.03,3.27,0.05,4.9,0.1c2.01,0.07,4.04,0.08,6,0.08
	c2.88,0.01,5.85,0.03,8.76,0.22c4.31,0.29,8.7,0.31,12.94,0.33c1.78,0.01,3.63,0.02,5.43,0.05c5.69,0.09,11.74,0.13,19.64,0.13
	c4.3,0,8.79-0.01,13.58-0.02c5.47-0.01,11.32-0.03,17.74-0.03c1.66-0.03,3.58-0.05,5.91-0.05c2.51,0,5.23,0.02,8.11,0.04
	c3.29,0.02,6.68,0.05,10.25,0.05c7.22,0,13.12-0.1,18.56-0.31c5.71-0.22,11.53-0.28,17.17-0.34c3.25-0.03,6.61-0.07,9.92-0.13
	c0.93-0.02,1.85-0.03,2.77-0.04c2.48-0.03,5.05-0.05,7.6-0.25c2.29-0.18,4.65-0.2,6.93-0.22c2.25-0.02,4.58-0.04,6.89-0.21
	c1.83-0.13,3.69-0.14,5.59-0.14l0.92,0c2.38,0,4.53-0.02,6.75-0.23c1.84-0.18,3.76-0.19,5.61-0.2c1.85-0.01,3.76-0.02,5.66-0.19
	c1.63-0.15,3.25-0.16,4.9-0.16l1.12,0c1.97,0,3.9-0.02,5.88-0.24c1.38-0.16,2.77-0.17,4.24-0.19c1.4-0.02,2.85-0.03,4.29-0.18
	c1.5-0.16,3-0.16,4.58-0.17c1.75-0.01,3.55-0.02,5.36-0.24c1.19-0.15,2.39-0.17,3.67-0.2c1.13-0.02,2.31-0.05,3.48-0.17
	c1.4-0.14,2.79-0.16,4.27-0.17c1.66-0.02,3.37-0.03,5.09-0.25c1.14-0.14,2.29-0.17,3.5-0.2c0.99-0.02,2.02-0.05,3.05-0.14
	c1.48-0.14,3.03-0.16,4.52-0.18c1.77-0.03,3.6-0.05,5.42-0.26c1.03-0.12,2.06-0.14,3.15-0.17c1.05-0.03,2.14-0.05,3.24-0.17
	c1.43-0.15,2.86-0.19,4.36-0.22c1.36-0.03,2.76-0.06,4.16-0.19c2.44-0.23,4.95-0.3,7.38-0.38c1.08-0.03,2.16-0.06,3.24-0.11
	l0.16-0.01c0.16-0.01,0.32-0.01,0.48-0.02c0.82-0.07,1.65-0.15,2.47-0.22c1.78-0.16,3.62-0.33,5.42-0.46
	c0.76-0.05,1.54-0.09,2.3-0.12c1.16-0.05,2.35-0.09,3.56-0.23c3.15-0.35,6.38-0.52,9.51-0.69c0.88-0.05,1.75-0.09,2.63-0.14
	c2.18-0.13,4.4-0.23,6.54-0.32c0.99-0.04,1.98-0.09,2.96-0.14c0.04,0,0.08,0,0.13,0c0.18,0,0.41,0,0.68-0.07
	c1.04-0.26,1.69-1.01,1.73-2.02c0.01-0.2,0.01-0.4,0.01-0.59c0-0.13,0-0.27,0-0.4c0.07-2.49,0.07-5.01,0.08-7.44
	c0.01-3.5,0.01-7.11,0.21-10.65c0.28-5.09,0.33-10.26,0.39-15.26c0.03-2.62,0.06-5.32,0.12-7.97c0.02-1.07,0.03-2.15,0.04-3.22
	c0.02-2.37,0.04-4.82,0.24-7.22c0.19-2.32,0.2-4.66,0.21-6.93c0.01-2.27,0.02-4.61,0.21-6.89c0.18-2.18,0.18-4.39,0.18-6.52
	c0-2.21,0-4.49,0.2-6.71c0.27-2.9,0.32-5.84,0.37-8.69c0.02-1.39,0.05-2.82,0.1-4.22c0.05-1.28,0.05-2.58,0.06-3.83
	c0.02-2.17,0.03-4.42,0.24-6.61c0.19-1.96,0.21-3.95,0.23-5.86c0.02-1.79,0.04-3.63,0.19-5.42c0.18-2.04,0.18-4.1,0.18-6.09
	c0-2.03,0-4.13,0.19-6.16c0.19-2.08,0.21-4.18,0.22-6.21c0.01-1.87,0.02-3.8,0.18-5.67c0.2-2.42,0.2-4.86,0.2-7.22
	c0-2.24,0-4.55,0.18-6.81c0.27-3.54,0.32-7.13,0.37-10.61c0.03-1.77,0.05-3.61,0.11-5.41c0.05-1.63,0.06-3.28,0.07-4.88
	c0.01-2.6,0.03-5.29,0.22-7.92c0.19-2.63,0.22-5.29,0.24-7.86c0.02-2.35,0.04-4.77,0.19-7.14c0.17-2.72,0.18-5.48,0.18-8.15
	c0-2.57,0.01-5.23,0.17-7.83c0.2-3.25,0.22-6.54,0.24-9.73c0.02-2.82,0.04-5.74,0.18-8.59c0.18-3.63,0.18-7.3,0.17-10.86
	c-0.01-3.67-0.01-7.46,0.19-11.17c0.25-4.65,0.25-9.38,0.24-13.95c0-3.81-0.01-7.75,0.14-11.62c0.26-7.03,0.25-14.17,0.24-21.08
	c-0.01-5.95-0.02-12.11,0.15-18.16c0.25-9.08,0.23-18.3,0.2-27.22c-0.02-8.8-0.05-17.91,0.19-26.85c0.24-8.77,0.19-17.68,0.14-26.3
	c-0.02-3.75-0.04-7.63-0.04-11.44c0-2.12,0.01-4.25,0.01-6.37c0.01-5.6,0.03-11.39-0.04-17.09c-0.03-2.65-0.03-5.34-0.03-7.95
	c0-5.07-0.01-10.31-0.22-15.49c-0.19-4.56-0.21-9.21-0.23-13.71c-0.02-4.65-0.04-9.45-0.25-14.18c-0.11-2.63-0.12-5.32-0.13-7.92
	c-0.01-3.02-0.02-6.15-0.19-9.24c-0.19-3.32-0.21-6.72-0.23-10.01c-0.02-3.36-0.04-6.83-0.24-10.26c-0.11-1.95-0.11-3.94-0.12-5.87
	c0-2.42-0.01-4.91-0.22-7.4c-0.19-2.25-0.2-4.57-0.22-6.82c-0.01-2.16-0.03-4.39-0.19-6.6c-0.18-2.36-0.18-4.79-0.17-7.14
	c0-2.5,0-5.09-0.21-7.66c-0.27-3.3-0.32-6.69-0.36-9.97c-0.02-1.69-0.05-3.44-0.1-5.16c-0.05-1.48-0.05-3-0.05-4.47
	c-0.01-2.63-0.01-5.35-0.26-8.06c-0.19-2.08-0.2-4.23-0.21-6.3c-0.01-2.01-0.02-4.08-0.19-6.14c-0.17-2.12-0.17-4.31-0.17-6.43
	c0-2.29,0.01-4.66-0.21-7.02c-0.2-2.24-0.21-4.55-0.22-6.79c-0.01-2.04-0.02-4.14-0.17-6.23c-0.2-2.8-0.2-5.68-0.2-8.46
	c0-2.71,0-5.51-0.18-8.28c-0.19-2.86-0.21-5.8-0.23-8.64c-0.02-2.72-0.04-5.53-0.21-8.3c-0.15-2.48-0.15-5.02-0.16-7.47
	c-0.01-2.59-0.01-5.27-0.18-7.92c-0.19-2.97-0.19-6.02-0.2-8.97c0-3.13-0.01-6.36-0.23-9.55c-0.12-1.76-0.1-3.59-0.08-5.36
	c0.01-0.91,0.02-1.84,0.02-2.77c-0.01-1.21-0.02-2.71-2.08-2.71c-0.22,0-0.5,0.01-0.83,0.04c-1.64,0.1-3.27,0.29-4.51,0.44
	c-1.66,0.21-3.32,0.43-4.98,0.65c-1.22,0.16-2.43,0.32-3.65,0.48c-0.66,0.08-1.31,0.16-1.97,0.23c-0.76,0.08-1.51,0.17-2.26,0.27
	c-0.63,0.08-1.26,0.18-1.89,0.28c-0.82,0.13-1.66,0.26-2.48,0.35c-1.03,0.12-2.09,0.2-3.11,0.28c-0.69,0.06-1.39,0.11-2.08,0.18
	c-1.17,0.11-2.4,0.24-3.88,0.42c-1.23,0.15-2.45,0.3-3.68,0.45c-1.84,0.23-3.68,0.45-5.52,0.66c-0.87,0.1-1.77,0.18-2.64,0.26
	c-0.79,0.07-1.58,0.14-2.37,0.23c-1.05,0.11-2.1,0.24-3.14,0.37c-0.87,0.11-1.74,0.21-2.62,0.31c-0.2,0.02-0.43,0.03-0.67,0.03
	c-0.28,0.01-0.58,0.01-0.89,0.05c-1.25,0.14-2.5,0.29-3.75,0.44c-1.85,0.22-3.77,0.45-5.65,0.65c-0.96,0.1-1.96,0.18-2.92,0.25
	c-0.76,0.06-1.52,0.12-2.28,0.19c-1.59,0.15-3.19,0.31-4.78,0.48c-0.91,0.09-1.82,0.19-2.74,0.28c-0.12,0.01-0.24,0.02-0.37,0.02
	c-0.19,0.01-0.41,0.02-0.64,0.05c-0.6,0.08-1.19,0.16-1.79,0.25c-1.04,0.15-2.11,0.3-3.16,0.42c-0.49,0.05-0.98,0.11-1.47,0.16
	c-2.15,0.24-4.37,0.49-6.55,0.59c-3.12,0.14-6.15,0.47-8.96,0.81c-2.52,0.3-5.48,0.62-8.4,0.76c-1.85,0.08-3.71,0.26-5.51,0.43
	c-1.31,0.12-2.66,0.25-3.98,0.34c-3.46,0.23-6.85,0.47-10.28,0.82c-2.62,0.26-5.31,0.44-7.9,0.62c-0.83,0.06-1.67,0.11-2.5,0.17
	c-2.48,0.18-4.51,0.3-6.37,0.39c-2.4,0.12-4.8,0.22-7.19,0.32l-2.9,0.12c-0.1,0-0.19,0-0.29,0.01c-0.18,0-0.35,0-0.53,0.02
	c-0.98,0.07-1.95,0.15-2.93,0.23c-2.14,0.17-4.35,0.34-6.52,0.47c-0.68,0.04-1.37,0.05-1.96,0.05l-1.23,0
	c-0.62,0-1.35,0.01-2.09,0.05c-1.66,0.1-3.33,0.23-4.95,0.36c-1.48,0.12-3.02,0.24-4.52,0.33c-1.14,0.07-2.31,0.08-3.44,0.1
	c-1.68,0.02-3.42,0.04-5.17,0.24c-1.58,0.18-3.15,0.21-4.82,0.23c-1.4,0.02-2.84,0.05-4.28,0.17c-1.89,0.16-3.85,0.17-5.74,0.18
	c-2,0.01-4.07,0.02-6.13,0.2c-2.65,0.24-5.39,0.26-8.04,0.28c-1.61,0.01-3.28,0.03-4.93,0.09c-4.2,0.16-8.44,0.18-12.04,0.18
	c-1.24,0-2.47,0-3.71-0.01c-1.24,0-2.47-0.01-3.71-0.01c-4.33,0-8.99,0.03-13.72,0.24c-0.75,0.03-1.52,0.05-2.37,0.05
	c-1.85,0-3.75-0.08-5.58-0.16c-1.38-0.06-2.81-0.12-4.23-0.15c-2.14-0.04-4.44-0.06-7.22-0.06c-1.84,0-3.69,0.01-5.53,0.02
	c-1.84,0.01-3.68,0.02-5.52,0.02c-4.38,0-9.56-0.04-14.84-0.34c-2.22-0.13-4.47-0.13-6.65-0.14c-2.67-0.01-5.43-0.02-8.12-0.25
	c-1.63-0.14-3.27-0.15-4.67-0.15l-1.58,0c-1.66,0-3.43-0.02-5.19-0.21c-1.55-0.17-3.11-0.19-4.62-0.21
	c-1.42-0.02-2.9-0.04-4.32-0.19c-1.49-0.16-2.99-0.17-4.44-0.17c-1.61-0.01-3.14-0.02-4.67-0.21c-1.3-0.17-2.61-0.19-3.87-0.21
	c-1.21-0.02-2.36-0.04-3.51-0.18c-1.42-0.17-2.85-0.2-4.23-0.22c-1.23-0.02-2.51-0.05-3.74-0.18c-2.38-0.25-4.8-0.32-7.14-0.39
	c-1.01-0.03-2.02-0.06-3.03-0.1c-0.09,0-0.18,0-0.27-0.01c-0.09,0-0.17,0-0.26-0.01c-0.84-0.08-1.68-0.16-2.52-0.24
	c-1.64-0.16-3.34-0.32-5.01-0.47c-1.19-0.1-2.4-0.18-3.56-0.25c-0.69-0.04-1.38-0.09-2.07-0.14c-1.24-0.09-2.47-0.18-3.71-0.27
	c-2.34-0.17-4.75-0.35-7.13-0.5c-2.03-0.13-4.1-0.23-6.1-0.33c-0.88-0.04-1.77-0.09-2.65-0.13c-0.09,0-0.17-0.01-0.26-0.01
	c-0.08,0-0.17,0-0.25-0.01c-0.65-0.08-1.3-0.15-1.95-0.23c-1.32-0.16-2.68-0.33-4.03-0.45c-1.19-0.11-2.4-0.19-3.57-0.27
	c-0.69-0.04-1.38-0.09-2.07-0.14c-3.41-0.26-6.83-0.51-10.24-0.79c-2.1-0.17-4.2-0.35-6.3-0.52c0,0-4.81-0.4-5.73-0.48
	c-2.2-0.19-4.47-0.38-6.71-0.55c-1.6-0.12-3.22-0.22-4.79-0.31c-0.73-0.04-1.46-0.09-2.2-0.14l-0.15-0.01
	c-0.19-0.01-0.37-0.02-0.56-0.04c-0.7-0.08-1.4-0.17-2.1-0.26c-1.16-0.14-2.31-0.29-3.47-0.42c-0.49-0.06-0.99-0.11-1.48-0.15
	c-0.68-0.06-1.31-0.12-1.96-0.21C68.64,69.52,68.18,69.47,67.79,69.47z"/>
</svg>
