<?xml version="1.0" encoding="UTF-8"?>
<svg id="Layer_1" data-name="Layer 1" xmlns="http://www.w3.org/2000/svg" version="1.1" viewBox="0 0 635.01 530.58">
  <defs>
    <style>
      .cls-1 {
        fill: #000;
        stroke-width: 0px;
      }
    </style>
  </defs>
  <path class="cls-1" d="M629.99,379.4c-10.44,10.03-22.92,16.32-37.27,17.26-11.01.73-21.22-3.04-29.91-10.18-8.9-7.31-16.02-15.85-19.12-27.25-.32-1.16-1.02-2.22-1.35-2.92-7.43-1.03-14.4-1.62-21.21-3.02-13.2-2.73-25.3-7.91-35.27-17.37-7.33-6.96-12.4-15.01-12.97-25.41-.03-.59-.62-1.15-2.03-1.57.35,2.94.62,5.89,1.07,8.82,1.13,7.39,2.76,14.73,3.45,22.16,1.57,16.85,6.02,32.94,13.03,48.21,2.77,6.03,7.52,11.14,11.66,17.09-8.67-3.4-14.63-9.2-17.84-17.66-2.03-5.36-3.71-10.88-5.13-16.43-2.97-11.62-4.97-23.41-6.25-35.36-.9-8.42-2.64-16.76-4.23-25.09-.15-.76-2-1.2-3.6-2.09,1.42,12.56,2.13,24.29,4.22,35.77,1.89,10.38,3.59,20.7,3.75,31.26.15,10.53-2.29,20.52-6.27,30.34-.36-8.98-.84-17.96-1.06-26.94-.25-10.56-1.89-20.86-3.91-31.23-1.91-9.79-2.17-19.91-3.15-29.88-.23-2.38-.45-4.76-.83-8.68-5.71,4.85-10.16,8.75-14.73,12.5-15.92,13.03-32.04,25.75-51.14,34.06-7.89,3.44-16.13,5.48-24.56,6.53-4.13.52-8.52-.02-12.65-.82-7.39-1.42-11.14-6.53-9.25-13.65,1.41-5.32,1.13-10.43.7-15.62-.74-8.91.4-17.46,3.92-25.69,5.36-12.54,14.67-20.95,27.53-24.93,20.96-6.48,42.18-8.36,63.5-1.39,3.53,1.15,6.95,2.65,10.82,4.14,1.93-7.64-.58-14.36-2.19-20.94-1.58-6.47-4.65-12.57-7.44-19.79,1.78.74,3.2.92,3.98,1.73,5.18,5.36,8.17,12.02,10.05,19.07,1.74,6.5,2.71,13.2,4.11,19.8.7,3.29.98,6.77,3.45,10,2.16-2.39,1.13-4.61.88-6.64-.43-3.46-1.24-6.87-1.59-10.33-.9-8.97-1.8-17.94-2.36-26.93-.2-3.27.57-6.6,2.32-9.9.52,3.4,1.21,6.79,1.54,10.21,1.11,11.46,2.01,22.94,3.19,34.39.28,2.67,1.34,5.26,2.47,9.45,2.03-3.73,3.37-6.19,5.04-9.24,1.35.1,3.22.25,4.68.36,6.87-7.72,13.4-15.32,20.21-22.66,8.21-8.84,17.08-16.99,27.42-23.33,12.12-7.43,25.16-9.38,38.87-5.47,3.08.88,6.17,2.31,8.79,4.15,9.31,6.54,12.03,14.18,8.62,27.24-5.58,21.34-19.22,36.23-40.68,42.49-6.55,1.91-13.97,1.64-20.91,1.2-8.92-.57-17.77-2.32-26.65-3.62-.34-.05-.59-.67-1.04-1.23.59-.36,1.13-.93,1.72-.99,9.96-1.04,19.93-2.09,29.9-3,13.17-1.2,24.87-5.61,34.13-15.39,1.71-1.8,3.11-3.9,5.03-6.35-8.69-4.39-16.85-9.25-26.84-7.29-4.14.81-8.36,1.87-12.18,3.61-12.28,5.62-24.38,11.65-36.59,17.44-2.84,1.35-4.83,3.15-6.09,6.2-1.32,3.18-3.46,6.01-5.43,9.33,1.85,15.17,11.97,24.32,24.96,30.96,9.91,5.06,20.45,8.08,31.72,8.1,2.47,0,4.94.32,7.93.53.76-1.8,1.76-3.5,2.2-5.34,1.72-7.19,6.29-11.83,12.84-14.72,6.37-2.81,12.99-3.65,19.72-1.55,3.93,1.23,7.54,3.11,8.21,7.82.63,4.41-1.24,7.93-4.64,10.48-6.31,4.72-13.45,7.66-21.2,9.14-1.92.37-3.82.79-5.7,1.18,2.04,13.74,15.94,27.9,31.83,32.12,16.16,4.29,31.06-.52,45.83-7.27l-.03.02ZM352.9,350.25c2.18,1.09,3.06,1.93,3.89,1.89,6.23-.34,12.57-.21,18.64-1.44,12.42-2.52,23.54-8.41,34.01-15.37,11.05-7.35,21.81-15.13,32.75-22.65,3.83-2.63,7.82-5.01,11.79-7.54-1.57-5.42-5.43-10.39-4.04-16.57-8.69-.68-16.89-1.37-25.1-1.95-5.74-.41-11.51-1.15-17.22-.87-7.73.38-15.5,1.14-23.09,2.59-7.09,1.35-14.23,3.28-19.99,8.09-13.2,11-17.02,25.75-16.98,42.67,3.55-2.59,6.54-4.83,9.58-6.99,1.84-1.3,3.68-2.64,5.67-3.67,5.11-2.65,10.18-5.43,15.49-7.62,8.77-3.63,17.63-7.1,26.61-10.15,10.13-3.44,20.45-6.35,30.7-9.45.7-.21,1.49-.14,2.25-.14.22,0,.49.16.66.33.1.11.05.36.09.72-.49.4-.98,1.05-1.63,1.29-17.3,6.6-34.19,14.15-50.42,23.03-9.2,5.03-17.89,11.01-26.64,16.82-2.4,1.59-4.18,4.11-7,6.97h-.02ZM567.89,271.14c.89-2.41,1.86-4.66,2.56-6.98,3.65-12.04-.83-16.57-12.3-20.37-1.15-.38-2.48-.25-3.72-.39-12.46-1.46-23.15,3-32.94,10.09-13.64,9.87-25.89,21.32-37.18,33.79-.83.91-1.19,2.25-2.53,4.9,2.39-1.33,3.21-1.74,3.98-2.23,9.31-5.87,18.41-12.08,27.97-17.5,6.48-3.68,13.34-7.13,20.47-9.15,12.06-3.41,23.66-2.13,33.69,7.84h0ZM575.62,335.78c-5.82-3.97-10.95-2.6-15.97-.47-4.43,1.88-7.64,4.88-8.17,10.94,9.08-1.9,17.34-3.55,24.14-10.47h0Z"/>
  <path class="cls-1" d="M197.75,219.99c-2.79,13.4-5.56,26.81-8.37,40.21-.6,2.88-1.3,5.74-1.99,8.78,4.09.47,7.53,1.08,8.46,5.54,11.36-10.44,24.2-17.15,38.52-20.49,20.21-4.72,39.64-2.63,57.83,8.29,10.2,6.13,16.75,19.25,12.94,33.22-3.6,13.19-11.11,22.96-24.35,27.43-8.08,2.73-16.3,1.79-24.4-.44-10.01-2.75-19-7.71-27.92-12.83-7.17-4.11-14.16-8.58-21.58-12.19-5.32-2.59-10.98-4.79-17.16-4.9-.9-.02-1.78-1.32-2.66-2.02.82-.77,1.62-2.19,2.45-2.21,14.07-.29,27.59-5.55,41.74-4.7,6.2.38,12.48.97,18.51,2.39,6.92,1.62,12.86,5.5,17.83,10.69,2.24,2.34,4.29,4.8,4.62,9.22-19.28-14.39-40.39-16.99-62.96-13.03,3.31,1.07,6.61,2.18,9.93,3.21,3.33,1.04,6.77,1.78,10.02,3.04,6.76,2.63,13.35,5.72,20.16,8.22,5.36,1.97,10.87,3.68,16.44,4.9,11.02,2.4,19.05-2.62,24.76-11.52,2.24-3.49,3.74-7.73,4.54-11.82,1.1-5.66-.67-10.81-4.82-15.13-5.59-5.81-12.61-8.97-20.09-11.28-19.08-5.89-37.6-3.67-55.49,4.49-5.4,2.47-10.31,6-15.5,8.95-1.53.87-3.28,1.36-4.86,2.15-7.76,3.89-11.26,10.26-12.36,18.86-.75,5.86-3.12,11.57-5.2,17.19-4.66,12.59-6.33,25.61-6.91,38.95-.48,11.18-1.99,22.32-4.45,33.63-.51-1.5-1.36-2.97-1.48-4.5-.58-8.01-.99-16.03-1.43-24.05-.14-2.48-.21-4.96-.34-8.29-3.44,7.55-6.54,14.33-9.63,21.12-.52-.17-1.04-.33-1.57-.5.44-2.84.9-5.67,1.31-8.52,1.86-12.85,3.37-25.76,5.65-38.53,2.19-12.28,5.18-24.41,7.91-37.06-5.34-.35-11.46-.73-17.59-1.18-8.22-.61-16.6-.44-24.6-2.12-10.83-2.28-20.97-7.13-29.78-13.81-6.69-5.08-10.99-12.1-11.19-21.19-.21-9.86,4.3-15.68,12.92-19.02,23.37-9.03,44.36-3.22,60.31,16.41,5.84,7.18,11.46,14.54,17.82,22.64,2.43-8.36,4.74-15.94,6.81-23.58,2.69-9.92,4-20.08,4.6-30.33.28-4.88-.1-9.34-4.85-12.55-2.72-1.84-5.51-4.46-4.15-9.37,1.58.79,2.97,1.15,3.93,2.01,9.13,8.17,19.86,8.78,31.12,6.63,3.4-.65,6.68-1.89,10.02-2.86l-.22-.16c-.37,1.13-.4,2.66-1.17,3.34-7.66,6.68-16.09,10.97-26.66,7.78-.71-.21-1.44-.35-2.18-.46-.16-.02-.37.23-.56.35-.17.45-.53.92-.48,1.34,1.96,16.53-2.16,32.25-6.38,47.95-1.62,6.02-3.5,11.98-5.19,17.98-.28,1.01-.22,2.12.89,3.52.54-1.17,1.26-2.3,1.6-3.53,3.93-14.41,7.71-28.86,11.73-43.24,1.24-4.45,1.71-9.32,5.33-12.82l-.17-.16v-.04ZM96.43,234.35c-7.01,4.87-8.81,10.91-6.79,17.71,1.65,5.57,4.96,10.56,9.98,13.77,12.63,8.07,25.87,14.12,41.55,12.63,7.49-.71,14.97.34,22.07,3.25,1.47.6,3.09.85,5.25,1.42-.79-3.38-1.39-5.97-2.06-8.86-5.39-1.82-10.77-3.74-16.21-5.46-11.45-3.62-22.98-7.15-33.52-13-8.72-4.84-17.79-9.66-20.26-21.47h0ZM166.97,271.35c2.07-2.82.58-4.39-1.08-6.13-5.73-5.97-11.21-12.17-17.06-18.02-9.86-9.85-21.89-14.66-35.84-14.55-2.97.02-5.95.25-7.84,3.3,4.19,6.25,9.83,10.44,16.09,13.64,13.82,7.07,27.8,13.82,41.74,20.64,1.25.61,2.73.77,3.99,1.11h0ZM178.69,287.52c-4.74.05-4.9,0-6.05,3.06-4.13,11.06-6.46,22.57-8.13,34.21-.34,2.39.13,4.9.23,7.36,4.08-15.01,12.1-28.63,13.95-44.63h0ZM186.48,276.3c-.33.6-.66,1.14-.9,1.71-.05.12.24.38.38.58.53-.46,1.06-.92,1.58-1.38-.29-.25-.58-.5-1.06-.92h0ZM163.99,336.85c.11,0,.21,0,.32-.01l-.07-1.68c-.11,0-.21,0-.32.01l.07,1.68Z"/>
  <path class="cls-1" d="M279.28,142.76c-2.31.74-4.7,1.31-6.92,2.27-5.73,2.48-11.73,3.39-17.9,3.26-.73-.02-1.45-.9-2.17-1.38l-.17.19c.55-.59,1.09-1.19,1.64-1.78l-.13.2c5.06-.1,8.75-3.38,12.87-5.61,2.61-1.42,4.97-3.29,8.38-5.59-6.34-.97-11.66-1.97-17.03-2.56-40.09-4.47-79.43-12.62-118.07-24.1-7.63-2.27-14.95-5.66-22.31-8.79-4.88-2.08-8.8-5.75-8.72-11.23.09-5.88,4.57-9.45,9.69-11.34,5.36-1.98,10.96-3.53,16.6-4.45,12.37-2.02,24.81-2.35,37.4-2.06,18.63.44,36.89,2.81,54.87,7.36,27.84,7.04,54.29,17.57,78.65,32.91,5.68,3.58,10.84,8.02,16.09,12.25,2.12,1.71,4.07,3.83,3,7.33-9.59-9.04-20.97-15.04-32.57-20.63-26.31-12.68-53.88-21.55-82.74-26-10.1-1.56-20.39-1.97-30.62-2.54-7.24-.41-14.55-.75-21.75-.16-9.45.78-18.83,2.39-28.2,3.88-2.59.41-5.05,1.7-9.08,3.12,3.14,1.89,4.81,3.34,6.75,4,11.14,3.75,22.21,7.76,33.54,10.83,26.3,7.13,52.71,13.81,79.1,20.6,11.11,2.86,22.26,5.59,33.43,8.23,3.61.85,7.06,1.02,10.76-1.02,5.24-2.88,11-4.66,17.2-4.79,9.72-.2,13.46,2.41,16.81,12.76-2.73.07-3.95-2.07-5.54-3.31-3.4-2.64-6.87-3.47-11.21-2.3-8.01,2.17-15.51,5.13-21.83,10.66l.2-.19-.02-.02Z"/>
  <path class="cls-1" d="M539.65,122.29c-3.14-7.28-9.23-8.75-14.93-10.16-10.2-2.53-20.62-3.83-31.19-3.7-8.51.1-17.06-.57-25.52.04-35.87,2.57-70.87,9.33-104.13,23.5-6.18,2.63-12.08,6.04-17.76,9.66-3.09,1.97-5.82,4.82-8.01,7.79-2.98,4.05-1.65,7.55,3.11,9.41,1.84.72,3.83,1.24,5.79,1.45,7.68.83,15.31,1.81,23.1.59,8.4-1.32,16.92-1.83,25.35-2.98,10.66-1.45,21.28-3.11,31.9-4.83,15.05-2.43,30.09-4.93,45.12-7.5,15.99-2.74,32.01-5.36,47.63-9.91,3.24-.94,6.55-1.64,10.14-1.48-1.92,1.02-3.78,2.19-5.78,3.03-21.23,8.97-43.16,15.81-65.65,20.67-12.45,2.69-25.1,4.45-37.68,6.54-11.34,1.89-22.65,4.15-34.07,5.34-13.44,1.4-26.98,2.95-40.47.51-3.89-.7-7.8-1.98-11.34-3.72-8.07-3.97-10.79-12.62-5.76-20.15,3.13-4.68,7.34-9.07,11.99-12.21,6.37-4.31,13.39-7.9,20.55-10.76,19.08-7.62,38.88-12.75,59.07-16.65,22.78-4.4,45.79-5.41,68.85-5.25,12.72.09,25.48,1.56,37.63,5.83,3.96,1.39,7.82,3.39,11.3,5.74,3.32,2.24,3.29,4.02.75,9.19h.01Z"/>
  <path class="cls-1" d="M450.5,322.54c-.56,1.15-.85,2.6-1.73,3.47-23.2,23.01-32.41,52.42-38.08,83.39-3.53,19.25-7.91,38.25-15.54,56.33-5.78,13.71-13.13,26.46-23.7,37.21-7.61,7.74-16.61,12.95-27.07,15.3-4.02.9-8.52.75-12.61.01-10.09-1.82-13.03-9.76-9.99-18.76,2.35-6.96,7.65-11.66,13.01-16.23,1.59-1.35,3.5-2.34,5.78-2.77-2.66,3.51-5.58,6.85-7.9,10.57-1.97,3.15-3.58,6.62-4.79,10.13-1.62,4.67.25,7.69,4.86,9.16,5.95,1.9,11.4-.21,16.71-2.3,10.95-4.31,18.48-12.73,25.03-22.08,11.1-15.87,17.19-33.9,21.78-52.46,2.94-11.89,5.07-23.97,7.73-35.93,4.26-19.22,10.89-37.54,22.04-53.92,5.53-8.13,12.06-15.4,20.63-20.54.83-.5,1.76-.84,2.66-1.19.15-.06.41.2,1.19.6h-.01Z"/>
  <path class="cls-1" d="M221.23,198.11c-5.62-3.05-11.93-2.91-17.99-3.84-5.18-.8-10.45-.99-15.63-1.8-14.83-2.3-28.36-7.75-40.6-16.61-10.75-7.78-21.87-15.01-30.32-25.57s-12.54-22.62-13.39-35.94c-.28-4.34.78-8.38,3.52-12.96.78,1.99,1.79,3.29,1.68,4.49-1.39,15.14,3.42,28.51,13.83,38.95,16.81,16.86,36.29,30.07,59.75,36.06,7.45,1.9,15.32,2.12,22.95,3.4,8.37,1.4,16.68,3.14,25.03,4.7,9.31,1.74,18.44.79,27.42-1.99,19.01-5.88,35.96-15.11,49.24-30.31.94-1.08,2.09-1.98,4.13-2.33-.59,1.16-1.09,2.38-1.78,3.48-1.34,2.11-2.88,4.1-4.18,6.23-7.46,12.21-17.97,20.55-31.24,25.86-12.4,4.96-24.82,9.38-38.43,8.85-4.74-.19-9.47-.55-14.21-.83l.22.16h0Z"/>
  <path class="cls-1" d="M186.89,306.45c-.02.85-.04,1.64-.07,2.72-2.43-.34-3.59-1.74-3.2-4,.41-2.4,2.29-3.29,4.52-2.79,8.36,1.9,15.37,6.2,20.5,13.01,3.93,5.22,6.61,11.16,7.44,17.82,1.35,10.91,2.22,21.94,4.41,32.69,5.24,25.71,24.3,39.23,49.07,38.01,6.8-.34,13.3-2.4,19.08-6.19,6.12-4.01,6.33-9.01.12-12.91-6.76-4.25-14.27-5.94-22.28-4.08-2.85.66-5.7,1.36-9.53,2.27,1.98-3.45,4.84-4.43,7.16-5.79,8.89-5.2,18.26-6.2,28.07-2.7,12.85,4.58,18.43,19.81,5.43,30.86-5.72,4.86-12.57,7.45-19.72,8.69-21.71,3.76-43.82-3.57-56.76-22.52-5.93-8.67-8.87-18.47-9.92-28.79-.71-6.98-.56-14.04-1.12-21.04-.4-4.97-.96-9.99-2.16-14.81-2.48-10.02-11.34-18.46-21.03-20.45h0Z"/>
  <path class="cls-1" d="M459.5,390.33c-2.04,3.75-5.08,6.65-8.29,9.37-4.58,3.89-9.31,7.61-13.86,11.53-4.96,4.28-9.57,8.85-10.77,15.66,2.73,5.12,7.87,6.02,12.36,6.15,21.32.63,42.69.63,62.75-8.28,8.48-3.77,16.59-8.29,23.49-14.67,1.09-1.01,2.27-2,3.1-3.21,4.04-5.92,2.96-11.16-3.35-14.39-3.53-1.81-7.45-2.88-11.26-4.08-6.85-2.15-13.71-4.24-19.74-9.45,1.3-.14,2.04-.4,2.7-.26,7.31,1.55,14.62,3.08,21.89,4.81,3.14.74,6.25,1.72,9.24,2.93,10.94,4.44,13.34,18.03,5.82,26.98-5.07,6.04-11.35,10.61-18.06,14.56-14.88,8.75-30.88,13.9-48.2,15.31-8.49.69-16.93.96-25.42.77-5.56-.12-10.92-1.15-15.96-3.64-9.31-4.58-13.06-13.46-5.68-23.6,3.46-4.77,8.15-8.84,12.89-12.44,6.36-4.84,13.25-9,20.02-13.27,1.69-1.06,3.52-3.23,6.33-.8v.02Z"/>
  <path class="cls-1" d="M535.29,135.51c4.31,6.49,3.73,12.32,1.16,18.03-5.25,11.65-10.78,23.21-18.95,33.17-8.61,10.5-19.97,17.44-32.11,23.03-14.16,6.52-29.13,10.23-44.49,12.98-18.25,3.27-35.82,1.67-53.26-4.08-12.08-3.98-22.76-10.44-32.62-18.25-5.27-4.17-10.26-8.81-14.81-13.76-3.87-4.21-7.11-9.12-4.31-16.72.88,1.83,1.43,2.7,1.73,3.64,1.64,5.27,5.32,9.04,9.46,12.31,16.74,13.21,35.15,23.09,56.37,26.88,14.21,2.54,28.45,2.02,42.56-.87,8.56-1.75,17.16-3.49,25.52-5.96,13.29-3.92,25.61-9.87,36.42-18.84,6.92-5.74,11.68-13.02,16.22-20.52,2.98-4.92,5.46-10.14,8.33-15.12,2.7-4.69,3.64-9.7,2.8-15.91h-.02Z"/>
  <path class="cls-1" d="M180.04,356.5c2.41,9.82,10.07,15.28,16.72,21.6,3.44,3.27,6.95,6.58,9.78,10.35,6.24,8.32,5.43,15.71-2.65,22.34-7.71,6.33-16.88,9.71-26.76,10.86-17.24,2-33.95-.42-50.11-6.67-11.23-4.34-22.41-8.77-32.22-15.98-6.06-4.45-9.64-10.03-8.12-17.96,1.16-6.06,5.31-9.7,10.51-11.87,4.32-1.8,9.05-3.29,13.68-3.56,10.51-.61,20.25-2.91,28.76-9.35.32-.24.85-.22,2.12-.52-1.62,4.34-4.67,6.66-7.89,8.7-4.49,2.86-9.52,4.19-14.76,5.09-5.15.88-10.27,2.07-15.28,3.54-2.31.68-4.6,2.05-6.41,3.66-4.68,4.14-4.66,9.53.02,13.61,2.24,1.96,4.78,3.72,7.45,5.04,13.93,6.92,28.13,13.23,43.58,15.91,12.16,2.11,24.42,3,36.41-.92,4.48-1.46,8.9-3.49,12.87-6.01,5.2-3.3,5.72-7.27,1.88-12.03-2.5-3.1-5.66-5.67-8.53-8.48-5.8-5.67-10.85-11.83-12.38-20.1-.4-2.14-.43-4.35-.63-6.53.65-.25,1.3-.5,1.96-.75v.03Z"/>
  <path class="cls-1" d="M31.73,348.28c-3.49,1.62-5.64,2.71-7.86,3.63-5.67,2.36-9.95,5.96-10.25,12.54-.27,5.79,4.16,11.17,10.95,13.81,9.98,3.87,18.65,1.26,26.27-5.66,8.69-7.88,14.2-18.05,19.97-28.05,5.76-9.97,11.47-20,17.88-29.55,6.79-10.13,15.68-18.26,26.9-23.44,11.01-5.07,22.46-6.6,34.14-2.77,4.12,1.35,8.42,3.24,9.15,8.93-3.79-1.67-7.08-3.75-10.67-4.61-16.04-3.84-29.55,1.65-41.36,12.23-9.46,8.48-16.27,18.99-22.21,30.11-4.72,8.84-9.39,17.71-14.41,26.38-4.15,7.17-9.11,13.83-15.63,19.08-11.26,9.08-24.56,11.02-37.7,3.59-2.98-1.69-5.85-4.03-7.98-6.7-7.1-8.9-5.22-19.85,4.48-25.82,5.05-3.1,10.69-4.82,18.33-3.7h0Z"/>
  <path class="cls-1" d="M252.29,146.9c-4.1,1.72-8.07,3.92-12.32,5.07-11.1,3-21.81.45-32.16-3.59-8.39-3.27-16.64-6.92-24.85-10.64-8.82-4-18.2-5.67-27.66-5.83-6.69-.12-13.37,1.8-18.88,6.26-1.3,1.06-2.6,2.11-4.82,2.61.43-1.21.58-2.64,1.33-3.6,4.91-6.25,11.58-9.35,19.33-10.32,11.66-1.45,22.91.3,33.87,4.42,7.95,2.99,15.84,6.24,23.98,8.64,8.35,2.45,16.9,4.41,25.49,5.77,4.04.64,8.39-.51,12.58-1.03,1.95-.24,3.91-1.31,5.43.86l.13-.2c-.55.59-1.09,1.19-1.64,1.78l.17-.19h.02Z"/>
  <path class="cls-1" d="M512.47,175.94c-12.42,9.27-25.87,14.38-41.66,9.62-4.53-1.37-9.18-2.63-13.41-4.7-17.34-8.46-35.46-9.03-55.17-5.76,1.27-1.67,1.8-3.14,2.74-3.47,2.8-.99,5.73-1.88,8.67-2.18,14.98-1.55,29.85-2.19,44.32,3.7,12.24,4.99,25.08,6.7,38.22,4.7,4.16-.63,8.23-1.9,12.35-2.84,1.14-.26,2.31-.41,3.47-.61.16.51.31,1.02.47,1.53h0Z"/>
  <path class="cls-1" d="M325.45,79.84c-.73-10.24-5.2-18.73-10.85-26.84-4.28-6.14-8.45-12.38-12.15-18.87-1.52-2.68-2.22-6.13-2.32-9.26-.18-5.42,4.28-8.28,9.13-5.81,3.02,1.54,5.93,3.86,8.04,6.51,6.17,7.75,9.61,16.72,11.1,26.57,1.44,9.52.71,18.69-2.95,27.69h0ZM323.08,51.58c-1.56-9.31-5.02-17.49-11.47-24.11-1.02-1.05-2.72-1.44-5.39-2.79,4.07,11.23,11.17,18.71,16.86,26.9h0Z"/>
  <path class="cls-1" d="M341.15,401.43c.43,6.42,3.67,9.72,9.68,10.1,5.16.33,9.81-1.04,14.2-3.9,8.39-5.46,14.38-13.18,20.11-21.09,6.02-8.31,11.65-16.9,17.49-25.35,1.41-2.04,2.97-3.99,5.31-5.63-.3,1.2-.42,2.47-.91,3.59-3.32,7.57-6.38,15.27-10.16,22.61-7,13.62-16.45,25.12-30.38,32.28-5.72,2.94-11.63,4.43-18.05,2.08-4.49-1.65-7.74-4.57-9.66-8.86-.96-2.15-1.23-4.43,2.38-5.84h-.01Z"/>
  <path class="cls-1" d="M85.02,351.24c8.92-2.77,13.52-9.3,17.88-15.93,5.23-7.97,10.45-15.9,17.33-22.61,4.58-4.47,9.85-7.56,15.99-9.41,3.11-.94,5.29-.36,7.38,2.64-11.77,2.48-18.19,11.13-24.25,19.97-3.1,4.52-5.18,9.74-8.16,14.35-2.28,3.54-5.02,6.87-7.98,9.87-4.04,4.09-9.3,4.61-14.7,3.61-1.02-.19-1.87-1.3-3.47-2.49h-.02Z"/>
  <path class="cls-1" d="M359.25,108.96c-.42-1.5-1.57-3.26-1.14-4.47,4.14-11.71,10.5-21.62,22.77-26.34,1.16-.45,2.34-.99,3.56-1.12,4.89-.54,8.23,3.69,6.3,8.26-.83,1.97-2.33,4.01-4.08,5.17-4.36,2.89-8.92,5.52-13.61,7.81-5.18,2.53-12.17,2.61-11.89,11.89l-1.89-1.2h-.02ZM367.8,96.82c3.17-1.93,6.32-3.91,9.52-5.79,3.19-1.87,5.8-4.26,8.65-8.66-9.36,2.36-14.41,7.77-18.18,14.45h.01Z"/>
  <path class="cls-1" d="M428.29,229.3c20.01,7.41,35.77-.49,50.96-12.4,1.22,3.19-.81,5.55-2.38,7.78-4.81,6.84-11.55,11.13-19.59,12.91-8.93,1.98-17.86,1.99-26.24-2.65-2.06-1.14-3.92-2.29-2.76-5.65h.01Z"/>
  <path class="cls-1" d="M319.28,99.59c-4.17-6.52-9.44-8.61-14.97-10.42-3.54-1.16-7.12-2.38-10.42-4.06-4.41-2.25-5.97-5.99-4.32-9.04,2.22-4.1,7.56-5.86,11.52-3.07,2.73,1.93,5.21,4.74,6.73,7.71,1.31,2.56,2.65,4.5,5.09,6.09,3.86,2.52,6.7,5.93,6.38,12.78h0ZM303.71,81.66c-2.26-3.91-4.59-5.61-8.72-3.64,2.14,2.8,4.81,3.67,8.72,3.64Z"/>
  <path class="cls-1" d="M349.52,148.83c.43-5.32,4.55-6.51,8.17-7.19,4.1-.77,8.67-1.13,12.65-.13,10.54,2.64,20.87,6.1,31.15,9.77-7.97,1.11-15.54-.25-23.05-2.67-5.44-1.75-10.86-3.73-16.81-3.3-4.27.3-8.55.22-12.11,3.53h0Z"/>
  <path class="cls-1" d="M143.73,397.89c-6.66,1.44-13.06,1.68-19.43-.05-6.21-1.68-11.39-4.94-15.55-9.85-2.03-2.4-3.43-4.92-1.7-8.53,5.45,4.44,9.91,10.05,16.83,12.17,6.63,2.03,13.23,4.17,19.84,6.26h0Z"/>
  <path class="cls-1" d="M438.78,420.15c15.44-1.25,29.52-2.39,43.59-3.53-10.38,4.94-21.19,7.43-32.52,7.22-3.68-.07-7.26-.72-11.08-3.69h0Z"/>
  <path class="cls-1" d="M165.78,146.39c1.47,3.34-1.22,8.48,4.2,9.96,2.98-3.74-1.66-5.24-1.98-8.28,2.66-1.09,4.81.35,6.26,2.08,1.34,1.59,2.31,3.85,2.57,5.92.31,2.43-2.42,5.23-5.03,5.77-2.95.61-5.4-.65-7.29-2.78-3.35-3.76-2.99-7.27,1.27-12.67h0Z"/>
  <path class="cls-1" d="M279.08,142.95c2.7,1.27,5.62,2.22,8.04,3.89,4.33,2.98,4.4,9.37.43,12.12-2.98,2.07-6.19,2-8.99-.2-2.74-2.15-3.15-4.9-1.37-8.98.89,1.64,1.52,3.56,2.78,4.88.79.83,2.74,1.34,3.78.96,1.93-.71,2.32-2.55,1.01-4.3-1.34-1.79-2.96-3.37-4.23-5.2-.66-.95-.86-2.23-1.26-3.36l-.2.19h.01Z"/>
  <path class="cls-1" d="M234.26,163.06c.81.26,2.8.37,3.98,1.41,1.52,1.34,2.87,3.29,3.41,5.22.49,1.74-2.64,4.32-4.97,4.73-3.61.64-8.33-2.7-8.88-6.27-.45-2.94,2.15-5.34,6.46-5.08h0Z"/>
  <path class="cls-1" d="M363.48,51.66c1.43-1.41,2.42-2.39,3.52-3.46-2.04-2.44-3.23-3.86-4.66-5.57,6.57-.12,9.24,1.47,9.33,5.19.09,3.82-6.22,9.12-10.05,8.45-3.7-.65-5.02-3.77-3.9-10.24,1.75,1.71,3.2,3.13,5.76,5.64h0Z"/>
  <path class="cls-1" d="M337.8,104.2c2.17.16,4.05,1.09,4.43,3.27.37,2.12.44,4.47-.09,6.52-.57,2.17-2.84,2.85-4.87,2.47-1.55-.29-3.51-1.05-4.29-2.25-2.88-4.43.25-12.48,5.32-14.19.52-.17,1.29.42,2.36.8-1,1.33-1.83,2.42-2.66,3.52-2.54,2.12-1.54,4.61-1.03,7.31,4.63-2.31.9-5.02.83-7.45h0Z"/>
  <path class="cls-1" d="M372.55,183.02c2.08,2.28,4.5,3.51,7.26,3.7-.72-1.3-1.33-2.41-2.06-3.73,3.82-.97,5.61,1.03,7.43,4.63-1.62,1.33-3.05,3.33-4.85,3.77-1.92.47-4.48-.03-6.27-1.01-3.34-1.83-3.65-4.49-1.51-7.35h0Z"/>
  <path class="cls-1" d="M437.36,189.61c1.82,1.64,3.99,3.21,5.61,5.21.72.89.91,3,.35,3.97-1.01,1.72-2.86,2.7-5.09,1.69-2.05-.93-4.12-1.82-4.56-4.4-.48-2.82.81-4.73,3.68-6.47h.01ZM437.26,194.84l.22-.35-.35-.04.13.4h0Z"/>
  <path class="cls-1" d="M197.92,220.15l.46-1.12c-.21.32-.42.64-.63.95l.17.16h0Z"/>
</svg>