<?xml version="1.0" encoding="UTF-8"?>
<svg id="Layer_1" data-name="Layer 1" xmlns="http://www.w3.org/2000/svg" version="1.1" viewBox="0 0 403.31 841.89">
  <defs>
    <style>
      .cls-1 {
        fill: #000;
        stroke-width: 0px;
      }
    </style>
  </defs>
  <path class="cls-1" d="M340.6,203.97c14.2-16.46,28.48-32.86,42.52-49.45,3.19-3.77,3.85-7.2-3.14-7.67-9.36-.64-18.67-2.63-28.02-2.7-50.65-.37-101.31-.33-151.96-.43-2.94,0-6.36,1.11-8.75-.01-16.69-7.82-29.75,1.19-42.39,9.49-8.74,5.73-16.47,13.19-23.95,20.59-4.24,4.19-2.69,7.8,3.05,8.29,19.68,1.71,38.67-1.16,56.73-9.42,8.9-4.07,12.43-11.98,15.06-20.64.29-.95,1.87-2.44,2.01-2.35,1.37.87,3.42,1.85,3.67,3.11,1.8,9.35,2.78,18.81-3.05,27.24-3.55,5.13-.71,7.5,3.51,9.14,4.36,1.7,9.08,2.5,13.37,4.33,20.54,8.72,23.71,28.51,7.01,43.28-2.2,1.94-4.58,3.76-7.12,5.21-3.3,1.87-4.08,2.53-.07,5.09,5.83,3.72,10.91,8.61,16.21,13.12,14.66,12.47,14.98,29.63.49,41.94-3.98,3.38-8.72,6-13.41,8.38-15.31,7.76-31.87,8.78-48.26,6.19-24.34-3.84-32.06-25.3-16.86-44.62,1.09-1.39,2.32-2.66,3.51-3.97q9.6-10.53-5.19-13.86c-1.72-.39-3.55-.37-5.22-.9-20.71-6.59-28.15-23.13-16.02-39.02,3.2-4.19,4.26-6.59-2.62-7.25-4.63-.44-9.26-1.81-13.66-3.4-18.16-6.58-23.47-21.99-13-37.91,3.19-4.84,7.18-9.15,10.8-13.71-6.84.71-13.72,1.13-20.5,2.17-23.24,3.55-46.21,8.27-68.14,17.07-9.71,3.9-11.23,6.57-5.46,15.26,6.81,10.26,14.41,20.13,22.64,29.29,34.63,38.54,69.54,76.84,104.58,115.01,6.31,6.88,13.7,12.78,20.63,19.07,3.63,3.29,6.78,6.58,4.39,12.12-4.45,10.35-2.9,20.73.11,31.08,3.96,13.62,4.45,27.59,4.73,41.67.66,33.5,2.83,67.01,2.43,100.49-.24,20.42-4.28,40.79-6.27,61.21-.74,7.58-.38,15.26-.73,22.88-1.42,30.71-5.83,60.74-20.64,88.34-1.11,2.07-2.02,4.28-3.4,6.15-1.29,1.75-3.07,3.13-4.64,4.67-.18-2.05-.89-4.22-.45-6.13,1.71-7.42,3.91-14.73,5.7-22.13,6.9-28.66,9.74-57.63,10.42-87.2.88-38.14,5.08-76.19,7.56-114.3.76-11.69.85-23.45.65-35.17-.14-8.21-1.47-16.4-1.9-24.62-.48-9.3-.87-17.42-7.95-25.81-10.95-12.98-8.42-29.29-.11-43.01,4.39-7.24,2.5-9.76-2.92-13.59-35.31-24.99-65.63-55.49-94.45-87.42-15.74-17.44-29.91-36.33-44.35-54.9-6.6-8.48-10.39-18.13-10.06-29.44.22-7.51,3.02-11.8,9.62-15.07,16.5-8.18,33.89-13.62,52.03-15.71,18.07-2.08,36.32-2.53,54.49-3.69,3.52-.22,7.15.08,10.53-.71,14.57-3.38,15.29-6.7,8.05-19.66-19.21-34.37-37.79-69.1-56.53-103.73-1.37-2.53-2.39-5.4-2.81-8.23-.18-1.21,1.43-2.95,2.64-3.96.5-.42,2.51.11,3.09.82,2.6,3.15,5.02,6.47,7.36,9.83,18.96,27.15,33.04,56.88,46.07,87.17,1.86,4.32,3.56,8.71,5.46,13.01,6.2,14.04,6.24,14.15,21.11,11.85,8.11-1.25,14.79,1.17,21.47,5.72,3.51,2.39,8.69,4.41,12.64,3.75,33.36-5.6,66.98-3.33,100.47-3.44,21.09-.07,42.2,2.27,63.26,4,6.35.52,12.58,2.61,18.86,3.98,12.77,2.8,13.89,4.09,7.62,16.2-13.6,26.27-31.46,49.71-50.94,71.8-27.65,31.35-55.93,62.14-83.95,93.16-.79.87-1.45,2.06-2.44,2.5-1.37.61-2.99.65-4.51.94.11-1.55-.34-3.47.42-4.58,6.28-9.23,12.46-18.56,19.27-27.4,18.32-23.76,36.98-47.25,55.38-70.94,2.83-3.64,4.98-7.8,7.45-11.71l-.46.45c1.33-1.33,2.66-2.65,3.99-3.98l-.44.45c1.31-1.31,2.63-2.63,3.94-3.94l-.3.28ZM188.98,302.57c12.51-2.23,26.16-3.3,36.46-13.32,8.33-8.1,7.58-16.62-1.59-23.61-14.92-11.37-19.58-11.63-35.87-1.46-3.95,2.46-7.95,5.1-11.19,8.38-5.61,5.68-14.28,11.52-11.18,20.17,3.35,9.35,13.93,8.93,23.36,9.84ZM167.05,236.89c13.93-.27,26.7-4.21,38.59-11.21,5.52-3.25,13.04-6.19,12.37-13.41-.7-7.54-7.84-11.18-14.76-13.61-1.66-.58-3.3-1.31-5.01-1.67-13.74-2.88-45.17,13.21-51.11,26.11-2.56,5.56-.38,10.53,5.96,12.07,4.53,1.1,9.3,1.18,13.96,1.72Z"/>
  <path class="cls-1" d="M153.67,839.22c-25.99-.81-50.73-5.29-74.47-14.88-17.09-6.91-32.66-16.16-43.59-31.76-11.02-15.73-13.42-32.53-5.6-50.08,19.49-43.73,53.72-66.95,101.09-71.13,2.33-.21,4.88,2.1,7.32,3.23-1.34,2.29-2.14,5.67-4.14,6.67-5.72,2.87-11.84,5.03-17.95,7.01-25.66,8.3-45.84,23.58-59.82,46.72-14.46,23.92-10.57,41.09,12.77,57.13,17.97,12.35,38.49,17.43,59.69,19.34,51.74,4.66,100.53-6.94,146.68-29.68,11.4-5.62,22.28-13.48,31.32-22.42,17.2-17.02,15.09-34.66-4.05-49.47-15.77-12.19-34.69-16.7-53.31-21.99-2.77-.79-5.48-1.8-8.18-2.82-.44-.16-1.02-1.01-.91-1.34.25-.79.72-1.84,1.38-2.11,1.04-.42,2.31-.41,3.46-.35,22.37,1.24,44.55,4,64.75,14.31,7.67,3.91,14.86,9.72,20.66,16.13,10.66,11.79,12.99,25.96,7.67,41.14-5.66,16.16-16.2,28.5-30.12,38.1-28.01,19.33-59.47,30.82-92.21,38.4-20.48,4.74-41.61,6.65-62.45,9.83Z"/>
  <path class="cls-1" d="M193.44,628c.8-63.48,1.65-126.96,2.36-190.44.16-13.77,3.18-26.18,10.49-38.39,7.76-12.97,13.76-27.49,6-43.33-.72-1.47.48-3.87.78-5.84,2.13.69,4.78.81,6.3,2.18,9.25,8.3,11.93,24.46,5.5,37.48-4.13,8.36-8.89,16.73-14.96,23.71-5.54,6.39-7.74,12.89-7.08,20.85,1.55,18.72,3.17,37.43,4.72,56.15.77,9.36,1.95,18.71,2.07,28.08.47,38.84-.18,77.71,1.12,116.52,1.04,30.96,1.32,62.38,15.8,91.18.66,1.32-.02,3.32-.08,5-1.84-.85-4.08-1.29-5.45-2.62-14.52-14.07-22.08-31.91-25.11-51.34-2.53-16.2-2.92-32.73-4.25-49.12.59-.02,1.19-.05,1.78-.07Z"/>
  <path class="cls-1" d="M333.87,210.71c-20.55,10.33-41.8,14.07-64.57,8.27-5.87-1.5-12.82-2.59-17.93,3.63-.61.75-4.5.04-5.59-1.16-1.32-1.45-2.37-4.72-1.6-6.17,1.57-2.94,3.99-6.34,6.88-7.46,5.34-2.08,11.22-3.5,16.94-3.71,23.33-.85,46.97,2.8,69.84-5.07.32-.11,1.81,3.22,2.76,4.94l.3-.28c-1.31,1.31-2.63,2.63-3.94,3.94,0,0,.44-.45.44-.45-1.33,1.33-2.66,2.65-3.99,3.98l.46-.45Z"/>
  <path class="cls-1" d="M159.61,750.69c-13.98-1.74-26.28-5.45-37.16-12.97-4.17-2.88-8.3-7.02-10.22-11.53-1.46-3.43.6-8.36,1.09-12.62,2.15,2.43,4.44,4.74,6.43,7.29,10.08,12.96,24.98,14.73,39.49,15.97,9.82.83,19.86-1.2,29.82-1.58,1.78-.07,3.63,1.7,5.45,2.63-1.09,1.23-1.96,3.15-3.29,3.57-10.49,3.25-21.07,6.2-31.62,9.25Z"/>
  <path class="cls-1" d="M116.83,233.4c-2.07,1.29-3.38,2.5-4.92,3.01-9.85,3.29-19.73,6.53-29.69,9.48-1.22.36-3.65-.7-4.28-1.8-.64-1.11-.32-3.93.6-4.57,3.7-2.63,7.54-5.82,11.78-6.76,7.31-1.63,14.96-1.87,22.49-2.34,1.16-.07,2.43,1.75,4.03,2.98Z"/>
</svg>