<?xml version="1.0" encoding="UTF-8"?>
<svg id="Layer_1" data-name="Layer 1" xmlns="http://www.w3.org/2000/svg" version="1.1" viewBox="0 0 323.58 841.89">
  <defs>
    <style>
      .cls-1 {
        fill: #000;
        stroke-width: 0px;
      }
    </style>
  </defs>
  <path class="cls-1" d="M257.9,182.74c14.66.87,14.22,1,17.68,12.88,7.16,24.56,1.94,47.21-10.45,68.48-6.23,10.7-13.91,20.59-21.37,30.52-12.14,16.16-24.2,32.41-37.11,47.94-12.6,15.16-25.9,29.94-43.7,39.32-8.63,4.55-17.71,8.39-26.87,11.76-11.29,4.15-21.84,1.27-30.07-6.98-11.78-11.81-24.56-22.24-37.98-32.08-8.01-5.87-14.19-13.63-18.08-23.01-12.86-30.95-21.43-62.4-15.3-96.53,1.91-10.61.82-21.76,1.06-32.67.11-4.69,2.2-7.78,5.09-11.84,17.67-24.81,44.56-28.67,71.02-31.6,28.48-3.15,56.76,1.04,84.32,9.54,6.28,1.94,13.2,2.21,19.85,2.44,11.93.4,23.9-.14,35.83.35,6.43.27,7.15,2.16,6.07,11.45ZM119.1,208.63c-.23,1.1-.46,2.2-.7,3.29h59.15c-3.79-2-5.01-3.2-6.23-3.21-17.41-.12-34.81-.08-52.22-.08ZM127.97,188.81c-4.52-2.61-6.6-4.75-7.77-4.33-9.94,3.54-21.6-.52-33.89,8.91,14.98-1.65,26.48-2.91,41.66-4.58ZM154.28,277.03c-5.09,0-10.18-.16-15.26.04-5.1.2-10.48-1.46-17.28,1.73,12.66,8.82,22.99.99,32.54-1.78ZM173.58,237.42c11.55,1.97,19.49,3.39,27.46,4.65,3.62.57,6.67-.16,7.96-4.65h-35.41ZM173.4,201.11h15.28c-6.47-2.67-10.38-6.79-15.28,0Z"/>
  <path class="cls-1" d="M151.33,727.98c-.88-1.17-2.41-2.26-2.55-3.51-1.53-13.87-2.87-27.76-4.22-41.65-.8-8.24-1.63-16.47-2.28-24.72-.29-3.62-.31-7.27-.2-10.9.7-23.32,2.28-46.65,1.93-69.95-.24-16.49-3.77-32.9-4.57-49.4-1.34-27.43-4.14-55.09,2.25-82.17,2.2-9.31,7.21-18.33,12.48-26.48,16.39-25.31,34.81-49.03,56.53-70.15,16.37-15.92,32.28-32.46,44.06-52.23,21.51-36.11,35.29-74.75,36.79-117.23.86-24.36,1.59-48.74,3.16-73.06.99-15.38,3.42-30.67,5.42-47.79-30.86,21.78-65.95,27.85-100.75,33.15-19.14,2.92-38.84,3.8-58.75,2.03-22.27-1.98-44.24-4.57-65.7-10.53-16.96-4.71-33.82-10.15-47.85-25.41-1.61,8.98-2.92,16.18-4.17,23.39-.18,1.02-.13,2.07-.15,3.11-1.03,58.65-2.24,117.3-3,175.95-.37,28.07,6.85,54.47,21.91,78.11,5.74,9.01,14,16.63,21.93,24,16.13,15.01,29.84,31.57,39.07,51.83,7.62,16.73,11.12,34.53,13.1,52.36,3.14,28.3,9.07,56,14.37,83.87,2.41,12.65,3.56,25.55,5.16,38.35,3.3,26.39,1.07,52.86-.83,79.11-1.58,21.77-2.63,43.43-2.15,65.22.21,9.45-3.37,17.11-12.63,23.86.7-4.14.82-6.95,1.65-9.53,6.92-21.32,4.12-43.05,2.95-64.72-.17-3.09-.99-6.14-1.13-9.22-1.21-27.46-2.96-54.93-3.28-82.4-.29-24.47-4.42-48.31-8.43-72.27-1.87-11.2-2.64-22.57-4.14-33.84-1.96-14.82-3.25-29.81-6.43-44.37-6.05-27.71-20.6-50.62-42.62-68.56-30.85-25.13-46.31-58.15-47.77-97.23-1.13-30.09,0-60.28.59-90.41.53-26.44,1.14-52.9,2.82-79.28,1.24-19.54,4.12-38.98,6.61-58.42.39-3.03.9-8.16,6.68-4.94,8.64-11.48,21.75-10.92,34.1-13.56,21.74-4.65,43.34-9.16,65.64-10.71,24.2-1.68,48.28-5.2,72.41-7.9,2.06-.23,4.16-.59,6.19-.4,27.77,2.58,55.68,4.19,82.68,12.03,2.48.72,4.88,1.74,7.26,2.76,9.42,4.04,14.86,10.56,14.3,21.49-1.02,19.66-2.14,39.34-2.32,59.02-.16,17.6,1.29,35.21,1.3,52.81,0,14.98-1.18,29.95-1.59,44.93-.57,21-6.88,40.75-13.02,60.5-10.37,33.32-28.42,62.18-52.89,86.87-24.15,24.37-47.42,49.36-67.69,77.18-10.8,14.81-17.51,30.02-16.72,48.78.9,21.27-1.58,42.83.84,63.87,3.71,32.2,2.6,64.3,1.84,96.41-.5,21.15-3.7,42.22-5.2,63.35-.66,9.27-.11,18.62-.11,27.93-.96.23-1.92.45-2.89.68ZM292.01,39c-17.64-8.27-35.37-9.62-52.56-10.99-30.49-2.43-61.08-1.3-91.51,3.05-17.87,2.56-35.9,4.09-53.89,5.61-15.96,1.34-31.97,2.14-47.97,2.94-4.8.24-8.65,2.23-8.92,6.77-.17,2.93,1.89,7.37,4.32,8.8,6.63,3.9,13.76,7.24,21.09,9.6,26.28,8.49,53.66,10.62,80.98,12.03,23.86,1.23,47.55-2.53,70.91-6.88,20.76-3.86,41.54-8.18,61.1-16.94,6.44-2.89,11.55-6.45,16.44-14Z"/>
  <path class="cls-1" d="M108.48,711.83c-25.7,4.96-44.84,16.59-60.38,34.2-19.71,22.34-12.34,43.76,10.82,54,11.18,4.94,23.55,8.74,35.65,9.73,40.01,3.28,78.57-3.3,114.38-22.2,10.98-5.79,21.37-12.72,28.12-23.89,8.36-13.83,6.77-27.85-6.65-36.69-8.88-5.84-19.42-9.37-29.55-13.02-6.54-2.36-13.67-3.06-22.8-4.97,3.74-1.99,5.38-3.57,7.12-3.68,16.14-1.02,32.18.45,47.53,5.38,27.51,8.83,40.16,34.54,22.62,63.2-7.77,12.68-18.4,22.5-31.29,29.7-27.54,15.39-57.18,23.21-88.58,26.47-20.48,2.12-40.33.67-59.95-4.03-10.41-2.49-20.77-6.73-30.04-12.09-28.64-16.54-34.27-47.05-13.4-72.67,15.58-19.13,36.49-30.37,60.27-36.14,3.85-.93,8.25-.19,12.27.53,1.2.22,1.95,2.98,3.86,6.19Z"/>
</svg>