<?xml version="1.0" encoding="UTF-8"?>
<svg id="Layer_1" data-name="Layer 1" xmlns="http://www.w3.org/2000/svg" version="1.1" viewBox="0 0 757.03 641.22">
  <defs>
    <style>
      .cls-1 {
        fill: #000;
        stroke-width: 0px;
      }
    </style>
  </defs>
  <path class="cls-1" d="M610.58,181.13c-3.83,19.89-8.87,47.11-14.42,74.23-1.48,7.21-4.02,14.32-6.93,21.1-8.3,19.31-25.95,28.43-46.47,22.8-14.88-4.08-28.73-10.1-40.32-21.83-25.41-25.71-45.26-55.55-65.33-85.14-6.53-9.63-9.95-22.28-11.73-34.01-2.57-16.94,9.05-26.97,24.72-20.82,36.91,14.5,70.18,3.4,103.29-11.71,9.21-4.2,18.11-9.1,27.28-13.42,4.26-2,8.7-3.98,13.27-4.9,14.02-2.81,24.45,5.63,23.44,19.97-1.1,15.5-3.81,30.88-6.79,53.72ZM520.76,195.79c-.15-1.19-.29-2.37-.44-3.56-.48.41-1.37.81-1.37,1.23-.02,1.18.32,2.37.52,3.56.43-.41.86-.82,1.3-1.23ZM518.85,266.33c.97.61,1.9,1.33,2.95,1.76.31.12.96-.61,1.45-.95-.96-.62-1.87-1.36-2.9-1.78-.32-.13-.99.62-1.5.97Z"/>
  <path class="cls-1" d="M399.65,136.66c11.19,27.18,21.28,54.89,33.96,81.36,9,18.79,20.86,36.34,32.66,53.62,8.95,13.11,22.25,22.2,37.02,27.48,17.25,6.17,30.15,16.27,41.24,30.92,13.93,18.4,29.61,35.34,34,59.66-.21-6.78-.94-13.6-.53-20.34,1.5-24.42,5.6-48.33,15.22-71.05,7.08-16.73,14.96-33.21,20.75-50.38,8.92-26.44,13.15-53.69,11.12-81.87-2.61-36.2-4.29-72.47-6.44-109.98-13.2,10.07-24.04,19.83-36.26,27.35-25.75,15.84-54.61,22.8-84.31,26.96-25.36,3.54-50.58,8.07-75.96,11.44-7.89,1.05-16.23.59-24.12-.67-15.44-2.46-19.09-8.97-15.1-24.4,5.39-20.9,28.31-40.22,51.42-43.8,5.82-.9,11.9-2.06,17.13-4.61,30.62-14.97,63-24.36,96.13-31.62,14.85-3.25,29.15-2.29,43.56,2.69,21.11,7.3,34.52,21.8,37.86,43.39,4.42,28.59,6.78,57.5,9.79,86.3,2.57,24.5-1.45,48.55-5.06,72.68-2.14,14.28-6.51,27.59-13.72,39.96-14.75,25.32-24.69,52.74-29.62,81.22-2.91,16.84-.18,34.91,1.58,52.27,5.73,56.62,26.15,108.73,51.05,159.24,4.01,8.13,10.6,14.99,15.96,22.39-20.13.53-25.43-2.35-32.24-19.94-5.37-13.88-9.62-28.18-14.48-42.26-2.37-6.89-4.98-13.7-8.51-20.34-1.36,15.5.76,30.58,4.63,45.42,4.72,18.09-2.22,32.54-14.98,49.44-.26-5.67-1.11-8.13-.34-9.86,8.38-18.96,6.69-38.27,1.97-57.56-11.4-46.56-23.38-92.99-34.4-139.64-1.76-7.43-3.39-12.16-7.75-18.51-4.74-6.91-9.47-13.81-14.21-20.72-1.47-2.14-2.93-4.28-4.61-6.25-6.89-8.09-14.56-17.27-24.86-20.95-45.35-16.2-68.51-53.6-86.62-94.42-9.8-22.1-15.67-45.97-22.9-69.17-1.51-4.83-1.23-10.22-1.77-15.35.58-.03,1.16-.06,1.74-.09ZM396.27,107.75c13.76,3.4,27.5-.6,41.17-2.84,15.29-2.51,30.32-7.58,45.66-8.63,23.27-1.59,45.29-7.34,66.93-15.12,20.61-7.41,38.72-18.73,53.88-36.67-14.59-11.03-28.67-18.77-46.95-14.29-42.57,10.46-85.26,20.47-127.78,31.1-12.54,3.14-20.35,13.16-27.51,23.06-4.62,6.39-9.67,13.3-5.39,23.38ZM579.47,402.04c.46-.43,1.32-.87,1.32-1.29-.03-1.24-.4-2.47-.64-3.7-.47.45-1.35.9-1.34,1.33.03,1.22.42,2.44.67,3.66ZM601.94,482.66c-.46.41-1.31.81-1.32,1.24-.03,1.21.28,2.43.46,3.64.48-.42,1.36-.84,1.37-1.27.02-1.2-.32-2.4-.52-3.6ZM597.15,461.72l-.93-.98-.36,1.44,1.29-.45ZM592.84,452.72l.7.78.32-1.05-1.02.28Z"/>
  <path class="cls-1" d="M658.03,524.69c15.93-10.7,32.62-16.96,50.99-19.17,14.6-1.76,25.25,3.6,32.64,15.32,7.5,11.89,7.84,24.53-1.38,35.79-21.49,26.25-42.91,52.62-78.78,60.43-8.51,1.85-16.44,6.18-24.79,8.91-29.33,9.6-59.5,11.88-89.85,7.69-20.03-2.76-33.04-16.53-34.53-34.36-.42-5.06.72-10.87,3.01-15.4,3-5.91,7.04-11.84,12.05-16.08,16.57-14,36.57-21.92,56.12-31.52,5.69,9.1-1.33,12.59-5.32,15.73-7.94,6.26-16.96,11.14-25.26,16.97-5.52,3.88-11.14,7.91-15.72,12.81-9.87,10.56-8.05,22.79,3.6,30.84,8.29,5.72,17.39,6.86,27.07,6.1,12.07-.95,24.56-.06,36.16-2.88,35.32-8.59,71.2-16.62,97.97-44.32,7.04-7.29,14.54-14.28,20.64-22.31,10.65-14.02,6.19-24.58-11.53-26.05-12.63-1.05-25.49.63-38.24,1.06-4.95.17-9.9.28-14.85.42Z"/>
  <g>
    <path class="cls-1" d="M141.13,311.74c2.01,15.25,4.4,30.46,5.96,45.76,3.08,30.31-4.34,58.77-14.8,87.01-8.4,22.68-14.33,46.26-21.88,69.27-4.71,14.34-12.07,27.12-28.17,36.73,2.23-5.83,3.43-9.66,5.12-13.26,15.21-32.45,28.66-65.41,33.9-101.29,2.34-15.99,7.77-31.56,9.62-47.58,1.77-15.31,1.91-31.07.48-46.41-.9-9.74-4.75-19.76-9.45-28.49-8.26-15.33-11.95-30.95-12.1-48.46-.43-51.66,5.21-102.71,12.77-153.66.4-2.68.82-5.37,1.28-8.04,1.3-7.55.4-17.44,7.14-21.24,9.08-5.13,20.03-9.15,30.31-9.49,18.13-.59,36.37,1.76,54.54,3.24,29.21,2.38,57.34,10.62,84.74,19.86,23.38,7.88,38.69,27.06,47.77,49.99,1.9,4.79.58,12.01-1.62,17.08-9.88,22.83-21.14,45.06-30.91,67.93-16.22,37.92-40.82,68.03-77,88.65-15.85,9.03-30.91,19.52-45.94,29.91-10.9,7.53-17.52,17.71-20.62,31.3-7.95,34.86-20.34,68.43-31.35,102.41-6.32,19.49-5.53,41.33-7.65,62.14-.74,7.27-.61,14.64-.95,24.04-11.24-9.19-13.22-19.87-12.07-30.38,2.06-18.81,4.58-37.72,9.09-56.06,8.36-34.01,18.56-67.55,27.46-101.43,6.05-23.05,20.14-39.49,39.98-51.54,9.83-5.97,19.81-11.73,30.04-16.97,38.37-19.67,65-50.03,82.19-89.19,7.23-16.46,14.67-32.84,22.64-50.64-11.18-1.46-21.24-4.49-30.99-3.69-23.45,1.91-45.69-1.52-67.63-9.55-10.1-3.7-20.84-5.62-31.1-8.93-18.21-5.87-34.93-14.43-48.48-28.39-5.16-5.31-10.6-10.35-16.08-15.67-7.81,21.22-12.04,77.3-9.31,147.72,2.88-22.13,5.31-44.34,8.87-66.37,1.38-8.5,4.27-17.17,8.41-24.69,5.19-9.43,15.45-12.36,24.59-6.91,30.42,18.14,64.2,24.04,98.44,28.69,4.03.55,8.2.78,12.01,2.05,10.57,3.5,14.43,10.87,11.16,22.1-13.48,46.31-42.25,81.08-82.57,106.4-19.14,12.02-39.23,5.95-58.81-.38-3.14-1.01-6.21-2.24-9.31-3.38-1.22-1.5-2.45-3.01-3.67-4.51-.11-.61-.11-1.26-.36-1.81-.15-.33-.67-.48-1.03-.72.65.69,1.3,1.39,1.95,2.08,1.11,1.59,2.22,3.18,3.34,4.78ZM336.63,154.13c.06-1.3.65-2.91.1-3.85-11.73-20.17-27.74-34.54-51.78-37.96-5.34-.76-10.86-1.12-15.94-2.78-20.15-6.58-40.72-8.03-61.82-7.89-18.09.12-36.48-.33-53.49-8.79-3.45-1.72-8.22-.79-15.56-1.31,15.45,19.07,30.51,33.84,50.4,40.69,22.8,7.85,46.42,14.24,70.2,18.04,24.46,3.91,49.54,3.96,74.35,5.57,1.14.07,2.37-1.11,3.55-1.73Z"/>
    <path class="cls-1" d="M147.91,527.45c16.78,6.39,33.72,12.4,50.3,19.29,12.64,5.25,20.15,16.7,19,28.56-1.51,15.66-10.91,26.63-24.85,31.98-10.52,4.03-22.51,6.96-33.58,6.23-21.58-1.42-43.13-4.91-64.37-9.16-14.48-2.9-28.83-7.52-42.47-13.21-19.71-8.23-36.97-19.92-44.62-41.61-4.87-13.82-3.55-20.91,7.5-30.69,3.98-3.52,8.64-6.53,13.45-8.8,12.48-5.9,39.42-5.41,57.21,1.36-4.24,1.6-6.75,2.9-9.43,3.47-2.6.55-5.36.31-8.04.5-6.03.44-12.11.53-18.06,1.48-21.63,3.46-24.86,6.33-32.62,27.96,8.94,17.47,25.63,25.78,43.06,30.93,33.82,9.98,68.55,16.5,103.84,18.5,8.34.47,17.26-2.31,25.29-5.27,7.17-2.64,12.23-8.53,12.46-17.05.26-9.66-7.72-12.29-14.21-15.2-26.88-12.04-26.96-11.84-39.85-29.24Z"/>
  </g>
</svg>