<?xml version="1.0" encoding="UTF-8"?>
<svg id="Layer_1" data-name="Layer 1" xmlns="http://www.w3.org/2000/svg" version="1.1" viewBox="0 0 806.32 641.22">
  <defs>
    <style>
      .cls-1 {
        fill: #000;
        stroke-width: 0px;
      }
    </style>
  </defs>
  <g>
    <path class="cls-1" d="M279.32,338.28c-6.25,10.23-7.65,22.02-9.78,33.36-4.77,25.29-8.38,50.79-12.7,76.17-1.57,9.24-3.8,18.36-6.38,30.62-1.7-4.99-3.03-7.26-3.19-9.61-1.1-16.07.6-31.94,3.79-47.7.52-2.57.07-5.34.07-9.5-8.03,16.41-16.91,30.47-28.45,43.06-.81-1.22-1.57-1.96-1.43-2.22,11.72-22.4,16.91-46.9,22.89-71.14,2.25-9.13,4.43-18.29,6.28-27.51.88-4.37.92-8.91,1.34-13.38.37-.59.74-1.18,1.11-1.77l-.85,2.03c-7.11,4.71-9.66,12.87-14.51,19.3-2.95,3.91-5.52,8.27-7.44,12.78-6.01,14.11-16.99,23.23-30.2,29.61-14.76,7.13-30.24,12.78-45.02,19.88-17.4,8.37-34.5,17.4-51.48,26.62-4.98,2.7-9.32,6.75-13.58,10.6-8.09,7.33-10.36,16.34-7.25,26.91,1.73,5.88,3.26,11.91,4.03,17.97,3.54,27.95-4.34,52.1-25.78,70.77-11.35,9.88-25.35,11.38-39.49,7.49-14.45-3.98-17.96-18.58-7.06-31.61.46,2.51.88,4.15,1.06,5.82.82,7.8,5.23,12.57,13.2,13.69,11.87,1.66,22.46-1.56,29.89-10.98,13.7-17.37,19.3-36.9,12.99-58.88-1.36-4.73-2.72-9.46-3.93-14.23-3.4-13.34-.29-25.19,8.44-35.67,8.92-10.69,20.79-17.26,32.8-23.72,23.95-12.89,49.13-22.81,74.65-32.07,8.03-2.91,15.66-7.24,22.93-11.78,4.79-2.99,9.6-6.86,12.7-11.47,7.47-11.09,13.93-22.85,19.47-35.96-12.18,6.43-24.35,12.87-36.53,19.29-9.46,4.99-18.81,10.18-28.42,14.85-7.82,3.8-16.18,5.36-24.97,5.99-15.49,1.12-27.51-10.48-22.22-29.49,3.77-13.52,12.57-23.86,22.25-33.55,11.91-11.92,26.27-19.56,42.18-24.74,12.88-4.19,25.67-8.67,38.38-13.33,10.7-3.92,21.24-5.94,32.32.85,1.4-13.13-1.45-22.89-11.71-31.21-18.37-14.9-28.6-34.48-24.46-58.59,2.62-15.25,6.88-30.5,12.61-44.86,9.28-23.25,20.31-45.81,30.75-68.59,6.67-14.56,13.48-29.06,20.49-43.46,2.09-4.29,5.05-8.16,8.56-13.73,4.75,12.36,14,16.88,23.75,20.32,12.48,4.41,25.23,7.17,38.23,1.69-5.24-6.7-19.94-11.53-54.2-17.6,2.11-1.63,3.33-3.03,4.86-3.68,18.14-7.76,36.17-5.22,53.94,1.21,12.36,4.48,15.45,15.46,16.04,26.8.52,10.21-.85,20.51-1.32,30.78-.24,5.35-.55,10.71-.46,16.06.4,23.47-1.79,46.69-4.5,70.01-2.01,17.27-6.04,33.82-10.45,50.47-5.18,19.58-15.62,35.12-33.11,45.69-5.98,3.61-11.55,8.13-17.89,10.86-9.84,4.23-16.01,10.92-18.54,22.19,2.31.21,4.64.96,6.69.5,8.56-1.95,16.91-2.11,25.62-.24,5.94,1.28,12.32.65,18.5.65,12.65,0,23.03,4.61,31.6,14.07,7.07,7.81,11.93,16.92,15.48,26.48,3.45,9.28,2.99,18.79-6.27,25.5-4.99,3.62-9.74,7.68-15.11,10.62-9.85,5.4-20.54,6.87-30.53,1-8.07-4.74-15.77-10.46-22.62-16.83-8.4-7.81-15.74-16.77-24.12-25.86-5.76,9.96-5.02,19.73-3.7,29.17.95,6.78,6.13,11.55,12,14.98,7.46,4.36,15.09,8.42,22.59,12.69,5.72,3.25,11.58,6.32,17,10.03,16.87,11.54,22.26,28.18,18.93,47.51-3.42,19.86-10.83,38.59-18.18,57.33-6.43,16.39-12.32,33.07-17.08,50-4.02,14.31,3.63,27.55,16.38,31.77,12.82,4.24,28.21-5.48,29.44-18.58.62-6.58-1.37-9.12-7.87-9.84-2.04-.23-4.12-.08-6.18-.21-1.6-.1-3.2-.36-5.02-.57,5.09-7.12,14.5-10.32,22-7.74,10.18,3.5,12.67,8.22,13.27,17.27,1.09,16.46-14.58,33.66-31.44,35.86-29.82,3.91-51.02-18.92-45.69-48.49,3.31-18.37,10.52-35.28,17.2-52.48,6.08-15.65,11.54-31.56,16.79-47.51,1.63-4.97,1.78-10.44,2.41-15.71,1.55-12.98-4.35-22.27-14.92-28.96-7.64-4.84-15.63-9.16-23.19-14.12-6.51-4.27-12.9-8.8-18.87-13.79-7.39-6.17-10.52-14.47-10.16-24.12.16-4.12,0-8.25,0-12.37,2.51-1.53,3.52-3.3.34-6.39v6.68ZM371.1,52.02c-31.08,9.97-54.66-.92-75.78-20.4-10.27,26.2-20.33,52.15-30.61,78-8.79,22.08-17.45,44.11-22.76,67.45-4.51,19.83-.86,37.38,10.22,53.81,5.28,7.83,10.88,15.45,16.4,23.11,1.67,2.32,2.24,4.34,2.18,7.59-.16,9.28,1.25,18.6,2.12,28.75,1.17.22,2.74.34,4.21.81,7.91,2.56,7.75,2.5,11.75-4.63,2.78-4.96,5.41-10.25,9.23-14.34,8.1-8.68,17.47-16.2,25.31-25.08,10.03-11.36,20.1-22.91,24.12-38.23,4.47-17.02,9.08-33.9,11.63-51.45,3.72-25.52,7.68-50.96,9.13-76.74.21-3.66,1.05-7.29,1.41-10.95.55-5.64.93-11.3,1.45-17.72ZM293.83,307.88c.69,1.42.96,2.73,1.75,3.46,12.93,12.04,26.62,23.31,37.62,37.31,1.01,1.28,2.36,2.3,3.62,3.37,12.33,10.49,21.52,10.83,34.34,1.26,1.65-1.23,3.04-2.81,4.72-3.99,5.23-3.68,6.55-9.07,3.88-14.15-4.36-8.31-9.54-16.26-15.05-23.87-3.8-5.25-10.03-7.3-16.32-7.45-14.01-.35-28.04-.2-42.06-.19-4.52,0-8.78.92-12.49,4.25ZM245,288.11c-1.81.48-5.44,1.18-8.87,2.41-14.28,5.12-28.54,10.28-42.72,15.68-5.35,2.04-10.68,4.36-15.61,7.26-14.52,8.54-26.07,20.01-32.72,35.77-.8,1.9-.67,4.75.22,6.6.44.92,3.79,1.24,5.42.67,8.09-2.82,16.44-5.26,23.98-9.22,26.88-14.12,52.68-30.32,81.09-41.48,1.44-.57,2.95-2.75,3.16-4.35,1.06-8.05-3.88-13.3-13.95-13.32ZM271.48,328.57c-1.04.75-1.92,1.1-1.91,1.43.05,1.49.34,2.97.54,4.46.46-.33,1.26-.63,1.3-1.01.15-1.45.06-2.93.06-4.88ZM268.14,338.81c-.25.3-.72.63-.7.91.05.78.32,1.54.5,2.3.25-.32.73-.65.71-.95-.05-.76-.32-1.51-.51-2.26ZM253.27,405.67l-.37.71.48.09-.12-.79Z"/>
    <path class="cls-1" d="M268.04,442.48c13.5.06,26.8,2.22,38.58,9.12,14.29,8.36,14.5,22.67,1.42,33.2-12.9,10.39-27.65,15.44-44.07,17.18-20.86,2.21-40.84-.84-60.26-8.09-11.79-4.4-22.32-11-28.01-22.84-4.86-10.12-6.27-20.86,1.36-30.21,7.91-9.7,18.45-15.05,31.38-13.45,2.53.31,5.19,2.38,7.05,4.34,1.15,1.2.9,3.72,1.28,5.65-1.73.12-3.52.57-5.19.3-9.71-1.63-20.77,3.48-25.11,11.77-3.08,5.9-.74,15.86,6.5,20.75,7.05,4.75,14.87,8.87,22.93,11.5,20.76,6.8,41.9,7.59,62.77.11,5.34-1.91,10.53-4.62,15.3-7.71,7.15-4.62,7.34-7.65.3-13.06-5.81-4.46-12.45-7.86-18.8-11.6-2.66-1.57-5.51-2.83-8.28-4.23.28-.91.55-1.83.83-2.74Z"/>
    <path class="cls-1" d="M284.7,124.12c6.76,1.43,13.54,2.8,20.28,4.32,6.34,1.44,12.74,2.74,18.94,4.68,4.14,1.3,7.8,1.33,11.94-.05,3.01-1.01,6.51-1.04,9.74-.84,6.13.38,9.84,3.91,10.44,9.97.22,2.24-.02,5.46-1.4,6.65-1.13.97-4.29-.37-6.53-.79-1.86-.35-3.85-1.57-5.51-1.2-15.23,3.41-29.22-.7-42.97-6.58-1.88-.8-3.69-1.79-5.62-2.44-10.87-3.66-21.56-5.08-31.59,2.54-1.04.79-2.87.55-4.33.79.06-1.87-.61-4.3.32-5.51,4.69-6.1,11.03-9.71,18.74-10.56,2.44-.27,4.93-.04,7.39-.04.06-.31.11-.62.17-.93Z"/>
    <path class="cls-1" d="M313.28,243.96c-7.67,11.17-16.36,14.55-27.51,10.5-11.4-4.14-13.85-7.35-12.71-18.01,5.54,5.24,10.52,10.82,18.38,10.07,7.16-.68,14.29-1.67,21.84-2.57Z"/>
    <path class="cls-1" d="M340.17,173.4c.06,4.3-5.75,10.16-10.47,10.55-4.48.37-10.37-5.09-10.66-9.89-.29-4.85,6.22-10.8,11.5-10.51,4.16.23,9.58,5.77,9.63,9.85ZM329.47,170.7c-.19.76-.35,1.41-.51,2.05.5.03,1,.13,1.48.05.12-.02.28-.74.15-.98-.24-.42-.7-.73-1.12-1.12Z"/>
    <path class="cls-1" d="M296.65,199.32c3.29,3.86,5.23,5.9,6.9,8.14,2.8,3.76,2.35,7.64-1.03,10.74-3.57,3.26-7.9,3.95-11.15,1.76-4.48-3.03-5.46-6.51-2.41-11.37,2.03-3.24,4.9-5.95,7.69-9.26ZM295.33,213.43c.24-.67.57-1.33.68-2.03.04-.26-.41-.6-.64-.9-.37.46-1.05.93-1.04,1.39.01.52.63,1.03,1,1.54Z"/>
    <path class="cls-1" d="M283.75,176.59c-.38,4.44-5.24,8.48-9.41,7.67-3.91-.76-5.23-3.59-5.15-7.23.07-3.42,4.51-6.92,8.67-6.95,3.22-.03,6.18,3.24,5.9,6.52ZM275.44,175.13c-.36.57-1,1.14-1.01,1.72-.02.62.55,1.26.86,1.89.36-.59.99-1.17,1.02-1.78.03-.6-.55-1.22-.87-1.83Z"/>
    <path class="cls-1" d="M308.51,162.96c-1.15.88-3.17,3.54-4.59,3.25-2.41-.49-5.33-2.4-6.38-4.53-1.03-2.11-.2-5.26.25-7.88.1-.61,2-1.38,3-1.29,3.36.3,8.1,6.18,7.72,10.44Z"/>
  </g>
  <g>
    <path class="cls-1" d="M521.64,368.46c-3.19,3.09-2.17,4.86.34,6.39,0,4.13-.16,8.26,0,12.37.37,9.65-2.77,17.95-10.16,24.12-5.97,4.99-12.36,9.52-18.87,13.79-7.56,4.96-15.54,9.27-23.19,14.12-10.57,6.7-16.47,15.98-14.92,28.96.63,5.27.78,10.74,2.41,15.71,5.25,15.95,10.71,31.86,16.79,47.51,6.68,17.2,13.88,34.11,17.2,52.48,5.33,29.57-15.87,52.4-45.69,48.49-16.86-2.21-32.52-19.41-31.44-35.86.6-9.06,3.08-13.77,13.27-17.27,7.5-2.58,16.91.62,22,7.74-1.82.21-3.41.47-5.02.57-2.06.13-4.14-.02-6.18.21-6.5.72-8.49,3.26-7.87,9.84,1.23,13.11,16.61,22.82,29.44,18.58,12.75-4.21,20.41-17.45,16.38-31.77-4.76-16.94-10.66-33.61-17.08-50-7.35-18.74-14.76-37.47-18.18-57.33-3.33-19.33,2.07-35.97,18.93-47.51,5.42-3.71,11.28-6.77,17-10.03,7.51-4.27,15.14-8.33,22.59-12.69,5.87-3.43,11.06-8.19,12-14.98,1.32-9.44,2.06-19.21-3.7-29.17-8.38,9.1-15.72,18.05-24.12,25.86-6.85,6.37-14.55,12.09-22.62,16.83-9.99,5.87-20.68,4.39-30.53-1-5.37-2.94-10.12-7-15.11-10.62-9.26-6.71-9.72-16.23-6.27-25.5,3.56-9.56,8.41-18.67,15.48-26.48,8.57-9.47,18.95-14.07,31.6-14.07,6.18,0,12.56.62,18.5-.65,8.71-1.87,17.06-1.7,25.62.24,2.05.47,4.38-.29,6.69-.5-2.52-11.27-8.7-17.95-18.54-22.19-6.35-2.73-11.91-7.25-17.89-10.86-17.49-10.57-27.93-26.11-33.11-45.69-4.41-16.64-8.44-33.2-10.45-50.47-2.71-23.32-4.89-46.54-4.5-70.01.09-5.35-.22-10.71-.46-16.06-.47-10.26-1.84-20.57-1.32-30.78.58-11.34,3.67-22.32,16.04-26.8,17.77-6.43,35.8-8.97,53.94-1.21,1.53.66,2.75,2.05,4.86,3.68-34.26,6.07-48.96,10.9-54.2,17.6,13.01,5.48,25.75,2.72,38.23-1.69,9.75-3.44,18.99-7.96,23.75-20.32,3.51,5.57,6.47,9.44,8.56,13.73,7.01,14.4,13.82,28.9,20.49,43.46,10.44,22.78,21.47,45.34,30.75,68.59,5.74,14.37,10,29.61,12.61,44.86,4.14,24.12-6.09,43.7-24.46,58.59-10.26,8.32-13.11,18.08-11.71,31.21,11.08-6.79,21.63-4.77,32.32-.85,12.71,4.66,25.5,9.14,38.38,13.33,15.91,5.17,30.26,12.81,42.18,24.74,9.68,9.69,18.48,20.02,22.25,33.55,5.29,19.01-6.72,30.6-22.22,29.49-8.8-.64-17.16-2.19-24.97-5.99-9.61-4.67-18.96-9.87-28.42-14.85-12.18-6.42-24.36-12.86-36.53-19.29,5.54,13.11,12.01,24.87,19.47,35.96,3.11,4.61,7.91,8.48,12.7,11.47,7.28,4.54,14.91,8.87,22.93,11.78,25.52,9.26,50.69,19.18,74.65,32.07,12.01,6.46,23.89,13.03,32.8,23.72,8.74,10.48,11.84,22.32,8.44,35.67-1.21,4.77-2.57,9.5-3.93,14.23-6.31,21.98-.71,41.51,12.99,58.88,7.43,9.43,18.02,12.64,29.89,10.98,7.97-1.12,12.37-5.89,13.2-13.69.18-1.67.59-3.31,1.06-5.82,10.9,13.03,7.39,27.63-7.06,31.61-14.14,3.89-28.14,2.39-39.49-7.49-21.45-18.67-29.32-42.82-25.78-70.77.77-6.07,2.3-12.09,4.03-17.97,3.11-10.57.84-19.58-7.25-26.91-4.25-3.85-8.59-7.9-13.58-10.6-16.98-9.21-34.07-18.25-51.48-26.62-14.78-7.11-30.26-12.75-45.02-19.88-13.21-6.38-24.19-15.5-30.2-29.61-1.92-4.51-4.49-8.86-7.44-12.78-4.84-6.43-7.4-14.59-14.51-19.3l-.85-2.03c.37.59.74,1.18,1.11,1.77.42,4.47.47,9.01,1.34,13.38,1.85,9.22,4.03,18.38,6.28,27.51,5.97,24.24,11.17,48.74,22.89,71.14.14.27-.62,1-1.43,2.22-11.54-12.59-20.42-26.65-28.45-43.06,0,4.16-.45,6.93.07,9.5,3.2,15.76,4.89,31.62,3.79,47.7-.16,2.35-1.48,4.62-3.19,9.61-2.58-12.26-4.81-21.38-6.38-30.62-4.32-25.38-7.92-50.88-12.7-76.17-2.14-11.33-3.53-23.13-9.78-33.36v-6.68ZM431.3,106.6c.36,3.66,1.2,7.28,1.41,10.95,1.45,25.78,5.41,51.22,9.13,76.74,2.56,17.54,7.16,34.43,11.63,51.45,4.02,15.32,14.09,26.87,24.12,38.23,7.84,8.88,17.22,16.4,25.31,25.08,3.82,4.09,6.45,9.38,9.23,14.34,3.99,7.13,3.83,7.19,11.75,4.63,1.46-.47,3.04-.6,4.21-.81.87-10.15,2.29-19.46,2.12-28.75-.06-3.25.5-5.27,2.18-7.59,5.52-7.66,11.12-15.28,16.4-23.11,11.08-16.44,14.73-33.99,10.22-53.81-5.31-23.34-13.98-45.37-22.76-67.45-10.29-25.85-20.34-51.8-30.61-78-21.12,19.48-44.7,30.37-75.78,20.4.52,6.42.9,12.08,1.45,17.72ZM494.63,340.49c-14.02-.01-28.05-.16-42.06.19-6.29.16-12.52,2.2-16.32,7.45-5.51,7.61-10.7,15.56-15.05,23.87-2.67,5.09-1.35,10.47,3.88,14.15,1.68,1.18,3.07,2.76,4.72,3.99,12.82,9.58,22.01,9.23,34.34-1.26,1.26-1.07,2.61-2.09,3.62-3.37,11-13.99,24.69-25.27,37.62-37.31.79-.74,1.06-2.05,1.75-3.46-3.71-3.33-7.97-4.24-12.49-4.25ZM542.01,338.29c.21,1.6,1.72,3.79,3.16,4.35,28.41,11.16,54.21,27.36,81.09,41.48,7.53,3.96,15.89,6.4,23.98,9.22,1.63.57,4.98.26,5.42-.67.89-1.84,1.02-4.69.22-6.6-6.65-15.75-18.19-27.23-32.72-35.77-4.93-2.9-10.25-5.22-15.61-7.26-14.17-5.4-28.44-10.56-42.72-15.68-3.43-1.23-7.06-1.92-8.87-2.41-10.07.02-15.01,5.27-13.95,13.32ZM529.54,370.3c.04.38.85.67,1.3,1.01.2-1.49.5-2.97.54-4.46.01-.32-.87-.67-1.91-1.43,0,1.95-.09,3.43.06,4.88ZM532.31,377.93c-.02.3.46.64.71.95.18-.77.44-1.53.5-2.3.02-.29-.45-.61-.7-.91-.19.75-.46,1.5-.51,2.26ZM547.57,443.32l.48-.09-.37-.71-.12.79Z"/>
    <path class="cls-1" d="M532.92,479.34c-13.5.06-26.8,2.22-38.58,9.12-14.29,8.36-14.5,22.67-1.42,33.2,12.9,10.39,27.65,15.44,44.07,17.18,20.86,2.21,40.84-.84,60.26-8.09,11.79-4.4,22.32-11,28.01-22.84,4.86-10.12,6.27-20.86-1.36-30.21-7.91-9.7-18.45-15.05-31.38-13.45-2.53.31-5.19,2.38-7.05,4.34-1.15,1.2-.9,3.72-1.28,5.65,1.73.12,3.52.57,5.19.3,9.71-1.63,20.77,3.48,25.11,11.77,3.08,5.9.74,15.86-6.5,20.75-7.05,4.75-14.87,8.87-22.93,11.5-20.76,6.8-41.9,7.59-62.77.11-5.34-1.91-10.53-4.62-15.3-7.71-7.15-4.62-7.34-7.65-.3-13.06,5.81-4.46,12.45-7.86,18.8-11.6,2.66-1.57,5.51-2.83,8.28-4.23-.28-.91-.55-1.83-.83-2.74Z"/>
    <path class="cls-1" d="M516.26,160.98c-6.76,1.43-13.54,2.8-20.28,4.32-6.34,1.44-12.74,2.74-18.94,4.68-4.14,1.3-7.8,1.33-11.94-.05-3.01-1.01-6.51-1.04-9.74-.84-6.13.38-9.84,3.91-10.44,9.97-.22,2.24.02,5.46,1.4,6.65,1.13.97,4.29-.37,6.53-.79,1.86-.35,3.85-1.57,5.51-1.2,15.23,3.41,29.22-.7,42.97-6.58,1.88-.8,3.69-1.79,5.62-2.44,10.87-3.66,21.56-5.08,31.59,2.54,1.04.79,2.87.55,4.33.79-.06-1.87.61-4.3-.32-5.51-4.69-6.1-11.03-9.71-18.74-10.56-2.44-.27-4.93-.04-7.39-.04-.06-.31-.11-.62-.17-.93Z"/>
    <path class="cls-1" d="M487.68,280.82c7.67,11.17,16.36,14.55,27.51,10.5,11.4-4.14,13.85-7.35,12.71-18.01-5.54,5.24-10.52,10.82-18.38,10.07-7.16-.68-14.29-1.67-21.84-2.57Z"/>
    <path class="cls-1" d="M470.42,200.41c5.28-.29,11.79,5.67,11.5,10.51-.29,4.8-6.18,10.26-10.66,9.89-4.72-.39-10.53-6.25-10.47-10.55.05-4.08,5.48-9.62,9.63-9.85ZM470.37,208.68c-.14.24.03.96.15.98.47.09.98-.02,1.48-.05-.16-.65-.32-1.29-.51-2.05-.41.4-.87.7-1.12,1.12Z"/>
    <path class="cls-1" d="M512,245.44c3.05,4.86,2.07,8.34-2.41,11.37-3.24,2.19-7.58,1.51-11.15-1.76-3.38-3.1-3.83-6.98-1.03-10.74,1.67-2.24,3.61-4.28,6.9-8.14,2.8,3.31,5.66,6.02,7.69,9.26ZM506.63,248.76c0-.46-.67-.93-1.04-1.39-.23.3-.68.64-.64.9.11.69.44,1.35.68,2.03.36-.51.99-1.02,1-1.54Z"/>
    <path class="cls-1" d="M523.1,206.93c4.16.04,8.6,3.54,8.67,6.95.07,3.64-1.24,6.47-5.15,7.23-4.17.81-9.03-3.23-9.41-7.67-.28-3.27,2.68-6.54,5.9-6.52ZM524.65,213.82c.03.61.65,1.19,1.02,1.78.31-.63.88-1.27.86-1.89-.01-.58-.65-1.15-1.01-1.72-.32.61-.9,1.24-.87,1.83Z"/>
    <path class="cls-1" d="M492.45,199.82c1.15.88,3.17,3.54,4.59,3.25,2.41-.49,5.33-2.4,6.38-4.53,1.03-2.11.2-5.26-.25-7.88-.1-.61-2-1.38-3-1.29-3.36.3-8.1,6.18-7.72,10.44Z"/>
  </g>
</svg>