<?xml version="1.0" encoding="UTF-8"?>
<svg id="Layer_1" data-name="Layer 1" xmlns="http://www.w3.org/2000/svg" version="1.1" viewBox="0 0 944.02 841.89">
  <defs>
    <style>
      .cls-1 {
        fill: #000;
        stroke-width: 0px;
      }
    </style>
  </defs>
  <g>
    <path class="cls-1" d="M587.08,265.08c1.46,2.72,2.38,6.01,4.49,8.07,8.37,8.15,17.59,15.46,25.61,23.92,19.73,20.8,43.98,33.98,70.5,43.66,3.03,1.11,6.08,2.22,8.99,3.59,1.07.51,1.79,1.78,3.26,3.32-23.56,6.4-44.7,2.43-65.51-9.3-21.95-12.37-38.8-30.46-56.28-47.67-36.52-35.95-71.49-73.41-102.31-114.52-2.33-3.11-4.72-6.2-6.82-9.47-18.17-28.31-11.54-40.75,9.87-60.65,13.91-12.92,32.25-15.81,49.29-21.62,2.39-.82,4.9-1.29,8.9-2.32-4.48-17.35-13.25-32.11-21.23-47.22-2.39-4.53-5-9.12-6.27-14-.65-2.49.6-7.03,2.51-8.22,2.11-1.32,6.71-.95,8.87.59,4.11,2.92,8.17,6.67,10.64,11,6.72,11.78,12.76,23.96,18.76,36.13,2.83,5.73,4.97,11.8,7,16.71,45.42-6.13,89.11-15.98,134.13-16.57,22.65-.3,45.24-3.41,67.9-4.31,18.7-.75,37.46-.32,56.19,0,5.11.09,10.37,1.1,15.26,2.64,14.81,4.69,23.01,18.85,21.04,34.62-3.27,26.03-13.87,49.86-22.48,74.21-10.8,30.53-21.68,61.25-38.86,88.93-14.36,23.14-30.05,45.48-45.63,67.85-3.83,5.49-7.78,12.52-17.47,10.56,25.86-36.91,49.06-74.99,66.47-116.02,15.42-36.35,28.12-73.86,41.85-110.92.82-2.22.1-5.02.09-7.55l1.4-2.57c-.32.97-.64,1.94-.96,2.91-16.56,5.13-33.28,9.81-49.64,15.5-25.45,8.86-52.17,9.59-78.45,12.95-19.22,2.46-38.7,2.84-57.97,5.05-23.15,2.66-46.19,6.27-70.94,9.7,2.15,5.38,3.91,9.77,6.15,15.39,3.45-1.78,5.98-3.4,8.72-4.44,30.56-11.61,65.38,4,78.79,34.06,5.03,11.28,2.34,21.93.03,32.2-3.77,16.78-12.89,31.17-27.41,41.18-10.9,7.51-22.67,12.47-36.45,8.73-7.43-2.02-14.93-3.75-22.4-5.61-1.5-1.13-2.99-2.25-4.49-3.38-1.48-1.1-2.96-2.2-4.44-3.3-1.48-1.09-2.95-2.18-4.43-3.27-1.6-2.45-3.2-4.89-4.8-7.34-1.62-11.58-3.97-23.12-4.65-34.75-.75-12.71,2.62-16.85,13.17-20.98,1.19,8.57,1.75,17.4,3.73,25.89,4.29,18.42,20.64,28.78,39.38,26.91,15.13-1.51,21.88-12.75,29.45-23.21,8.31-11.49,10.76-25.27,3.63-36.79-8.2-13.26-21.36-22.55-37.6-25.55-1.78-.33-3.88.28-5.65.93-5.4,1.96-10.71,4.16-17.13,6.69,4.16,4.59,7.93,8.74,11.86,13.06,2.51-1.66,4.33-2.43,5.56-3.75,3.64-3.89,7.11-8.52,12.84-3.4,5.16,4.61,4.72,11.54-1.76,16.85-7.03,5.77-14.75,10.08-24.81,7.47-8-2.08-8.3-2.3-2.51-9.82-8.21-9.35-19.05-17.38-23.73-28.1-5.85-13.39-15.13-14.31-26.27-14.1-14.25.28-28.49.95-42.71,1.83-8.98.56-16.74-1.94-23.06-8.15-1.76-1.73-2.17-4.84-3.21-7.31,14.33,7.05,28,8.15,42.37,5.32,3.06-.6,6.44.6,9.65.45,9.55-.45,19.08-1.17,29.58-1.84-.7-5.07-.51-8.38-1.67-11.12-2.96-7.05-4.89-16.29-10.37-19.94-4.07-2.71-13.19,1.5-19.83,3.43-15.5,4.49-31.13,8.73-46.18,14.48-11.28,4.31-14.35,15.03-8.24,25.28,11.36,19.04,27.2,34.11,44.18,49.92,8.75-10.69,20.09-13.45,31.84-14.24,10.73-.72,21.73-4.82,36.76,1.16-7.1,2.01-9.94,3.16-12.89,3.59-12.23,1.79-24.5,3.33-36.75,5.01-5.81.8-11.54,1.79-13.89,9.08,13.6,13.72,27.21,27.62,41.08,41.26,2.06,2.03,5.36,2.81,8.08,4.17,1.66,2.35,3.32,4.69,4.98,7.04,1.48,1.1,2.96,2.19,4.44,3.29,1.48,1.11,2.96,2.22,4.44,3.32,1.47,1.15,2.94,2.3,4.42,3.45ZM564.76,99.69c1.99,5.95,3.8,10.69,5.15,15.56,4.91,17.72,4.84,17.63,23.87,14.96,39.28-5.51,78.58-10.9,117.87-16.35,29.55-4.1,59.4-6.53,88-15.95,12.05-3.97,24.77-6.6,33.17-18.43-8.66-5.96-17.83-6.42-26.73-5.92-38.16,2.15-76.3,4.79-114.44,7.26-4.53.29-9.06.93-13.59.92-38.6-.1-75.39,10.43-113.3,17.95Z"/>
    <path class="cls-1" d="M835.35,629.94c21.15-9.23,42.61-10.54,64.08-2.46,3.62,1.36,7.28,2.74,10.64,4.61,27.36,15.24,31.66,42.83,8.57,63.9-12.31,11.23-26.59,20.76-41.14,29.01-44.79,25.39-93.39,38.61-144.75,40.48-18.77.68-37.33-2.37-54.52-11.6-31.96-17.18-39.69-51.41-15.43-77.95,18.76-20.53,42.36-33.99,71.03-36.2,2.48-.19,5.11.34,7.53,1.02,1,.28,1.64,1.83,3.12,3.63-23.98,4.48-43.16,17.06-60.03,33.37-4.54,4.39-8.48,9.78-11.4,15.39-9.05,17.43-1.26,29.35,11.99,38.12,7.3,4.84,16.52,8.23,25.23,9.23,27.1,3.12,53.76,2.3,80.76-5.2,29.58-8.21,57.71-19.06,84.55-33.46,13.1-7.03,25.83-15,34.56-27.85,3.91-5.76,3.58-10.65-.78-15.78-8.8-10.36-20.54-15.71-33.23-19.01-13.49-3.51-27.19-6.2-40.8-9.25Z"/>
    <path class="cls-1" d="M814.42,656.19c-28.39-11.78-42.08-35.04-50.49-62.78,2.49,25.74,5.36,51.25-4.07,78.03-8.11-19.33-12.14-37.42-14.58-56.02-7.11-54.18-14.87-108.28-21.73-162.49-3.22-25.41-11.19-49.02-22.95-71.56-3.53-6.77-6.85-13.64-8.84-21.32,9.43,10.65,18.55,21.39,24.06,34.61,5.44,13.06,11.73,25.91,15.54,39.45,4.02,14.29,5.55,29.29,10.91,43.76-.78-16.02-1.14-32.08-2.42-48.06-2.12-26.41-4.83-52.78-4.37-79.6.72,3.57,1.63,7.12,2.14,10.73,6.29,44.45,11.55,89.07,19.09,133.3,5.86,34.4,13.63,68.57,22.47,102.34,3.17,12.1,11.7,22.9,18.3,33.98,5.24,8.8,11.27,17.12,16.96,25.65Z"/>
    <path class="cls-1" d="M673.3,174.3c1.04-6.23,5.64-8.46,11.07-8.72,12.88-.61,26.09-2.6,38.63-.65,28.51,4.44,55.38,1.63,81.09-11.67,1.51-.78,3.69-.25,6.71-.37-7.67,14.9-20.98,19.49-34.71,22.93-15.96,4-32.17,2.36-48.3.75-10.27-1.02-20.52-2.45-30.82-2.99-7.44-.39-14.94.4-23.66.71Z"/>
    <path class="cls-1" d="M687.22,319.85c3.43-3.74,4.38-5.67,5.86-6.25,15.71-6.2,30.15-14.19,41.63-26.99,1.28-1.43,5.36-2.28,6.55-1.35,1.5,1.17,2.4,4.77,1.77,6.75-3.7,11.7-11.18,20.94-22.67,24.98-9.49,3.34-19.76,5.6-33.13,2.86Z"/>
  </g>
  <g>
    <path class="cls-1" d="M306.96,189.84c2.36,2.97,5.08,5.73,7.02,8.95,9.3,15.47,11.87,30.8-1.66,45.5-4.79,5.2-1,7.69,3.22,10.02l-.43-.6c13.06,49.46-42.85,86.78-80.65,77.89-28.67-6.75-55.85-39.66-53.21-68.41.57-6.19,3.46-12.16,5.52-19.02-6.61-2.63-13.02-4.18-18.31-7.5-8.15-5.12-15.81-11.13-23.12-17.4-3.55-3.05-5.65-5.39-11.47-4.21-13.71,2.78-26.91-.26-39.3-7.19-9.35-5.23-9.56-4.86-25.17-4.51,1.4,3.17,2.22,6.16,3.87,8.6,28.16,41.6,51.62,85.52,67.43,133.41,4.25,12.88,10.5,25.1,15.55,36.94-8.67-4.27-15.66-10.63-21.55-23-7.8-16.38-14.65-33.22-21.79-49.92-14.59-34.14-32.95-66.17-53.35-97.15-13.2-20.05-26.14-40.43-27.82-65.47-.56-8.38-2.09-16.84-1.38-25.12.95-11.08,9.69-17.6,19.15-19.58,16.98-3.55,34.65-7.4,51.7-6.27,27.1,1.8,53.96,7.45,80.88,11.76,7.95,1.27,10.52-.63,10-9.18-.99-16.21-10.67-27.49-21.91-37.72-2.33-2.12-6.62-3.78-3.19-7.07,2.21-2.11,7.65-3.67,9.95-2.41,17.73,9.74,26.8,25.92,30.65,45.16,2.93,14.64,2.66,14.27,16.82,17.47,17.66,3.99,35.13,8.83,52.71,13.2,2.41.6,4.96.63,8.25,1.01,4.33-25.3-6.38-46.9-14.94-71.36,12.11,2.59,15.77,10.06,18.82,17.5,5.44,13.3,8.37,27.05,7.17,41.71-1.33,16.34-.87,16.44,14.84,22.2,6.67,2.44,13.51,4.46,20.2,6.86,6.12,2.2,11.18.16,16.62-2.72,12.44-6.59,25.71-8.74,39.61-5.34,4.46,1.09,4.47,1.06,10.35,10.52-13.89,3.75-28.65-6.16-41.71,3.22,17.58,7.93,35.23,15.52,52.52,23.85,8.14,3.92,15.98,8.7,23.28,14.03,12.82,9.36,14.57,18.78,9.18,33.63-6.68,18.4-19.33,32.15-33.48,44.61-12.2,10.74-25.11,20.72-38.13,30.48-33.42,25.05-64.39,52.7-91.74,84.35-4.65,5.38-10.1,10.07-15.2,15.05-22.93,22.42-49.91,21.83-78.13,13.55-1.48-.43-2.42-2.7-4.24-4.85,8.39-1.1,15.88-2.38,23.42-3.03,24.49-2.12,45.26-12.3,61.14-30.67,35.25-40.77,78.82-71.61,121.33-103.79,15.44-11.69,30.79-23.56,43.54-40.81-28.89-2.1-57.02-1.61-80.12-20.41,25.23,2.8,50.1,9.71,76.37,3.76-3.58-7.85-10.55-9.93-17.01-12.26-25.52-9.18-51.12-18.15-76.75-27.03-2.23-.77-5.82-1.36-7.21-.18-6.71,5.66-16.23,8.93-17.82,19.33-14.57,9.23-22.48,24.46-33.61,36.79-6.63,7.34-9.61,14.22-4.31,24.71-13.69-6.7-19.94-14.13-20.09-23.22-.02-1.07,3.46-2.2,5.32-3.3,1.5,4.89,4.44,6.76,7.81,2.09,8.1-11.21,15.67-22.81,24.21-35.36-13.82,2.49-23.63-1.74-31.99-10.05.77-1.48.97-2.45,1.38-2.56,2.91-.73,5.95-1.07,8.8-1.97,2.67-.84,5.16-2.24,7.73-3.39-2.28-1.64-4.34-3.82-6.87-4.82-8.29-3.3-16.69-8.11-24.61-1.62.26,10.14,2.97,20.5.06,28.91-3.12,9.01,4.05,9.55,6.79,11.72-7.39,6.57-13.48,12-19.58,17.39-6.79,6-14.61,11.2-20.13,18.2-5.07,6.43-8.89,14.58-7.57,23.48,3.97,26.91,29.48,55.2,64.91,43.11,13.07-4.46,23.63-13.45,31.11-25.38,8.58-13.68,7.17-22.43-4.63-34.04-3.89-3.83-7.15-8.32-13.39-15.68,10.25,1.2,16.05,1.88,22.67,2.66,1.88-16.01,3.75-32.03,5.63-48.06ZM167.23,147.05c-2.86,4.12-4.96,6.96-6.86,9.93-4.89,7.65-8.79,14.98-7.26,25.17,2.68,17.83,11.67,29.63,27.9,36.73,14.61,6.38,27.34,4.08,38.65-7.54,11.15-11.45,14.87-30.4,8.76-42.71-5.92-11.93-15.6-18.64-28.96-20.97-1.46,1.88-3.57,4.35-5.38,7.02-1.8,2.65-3.31,5.5-5.28,8.84,4.66,1.12,8.91,2.14,13.6,3.27-14.02,12.18-23.25,10.99-30.95-3.55-1.97-3.71-.24-5.96,3.57-7.13,9.61-2.96,13.41-9.71,12.95-22.02-.31-8.36-7.37-8.45-12.48-9.64-10.75-2.49-22.3-2.32-32.57-5.93-22.82-8.03-46.05-6.5-69.28-5.2-8.25.46-16.49,3.19-24.46,5.76-5.67,1.83-6.52,6.7-2.08,10.44,7.95,6.69,16.45,11.95,27.2,14.08,15.84,3.14,31.91,6.43,48.7,16.15-16.67,4.72-29.54,1.04-42.34-3.38-13.01-4.49-26-9.04-39.79-13.84,1.79,21.04,10.43,38.38,23.39,53.87,14.8-7.66,17.78-8.44,31.75-3.89,13.16,4.28,25.97,9.65,39.45,14.74-5.9-29.5,2.04-53.9,31.78-60.19ZM231.69,158.52c12.52-.23,23.19-.51,33.87-.58,2.58-.02,5.22,1.17,7.72.85,2.05-.26,3.92-1.93,5.88-2.97-1.5-1.68-2.68-4.18-4.56-4.91-9.63-3.75-19.29-7.53-29.21-10.38-11.81-3.39-23.84-6.12-35.9-8.43-1.75-.34-4.66,2.97-6.14,5.19-.4.59,2.42,4.86,3.91,4.95,12.61.73,19.54,9.23,24.44,16.28ZM315.14,164.96c-5.6-1.57-8.12-2.11-10.5-3-2.4-.9-4.58-2.44-7.02-3.21-6.82-2.16-12.73,2.7-9.59,8.69,3.83,7.29,4.78,10.02-4.95,9.05-1.76-.17-3.81,2.63-6.01,4.27,19.56,12.01,24.6-7.18,38.07-15.8Z"/>
    <path class="cls-1" d="M85.5,696.26c-12.61,2.37-23.71,3.12-33.86,6.62-25.65,8.86-33.75,30.71-18.23,55.9,7.31,11.86,17.34,21.57,30.01,27.02,13.56,5.84,27.93,9.94,42.17,14.01,20.05,5.73,40.77,7.14,61.48,7.1,11.55-.02,23.09-1.68,34.63-2.72,10.29-.93,18.21-6.69,25.34-13.43,9.88-9.32,11.85-24.27,3.71-35.26-5.71-7.71-12.91-14.48-20.19-20.81-6.19-5.39-13.43-9.55-23.65-16.65,7.02-.73,10.61-2.16,13.36-1.2,12.11,4.23,24.8,7.73,35.77,14.1,24.49,14.24,32.45,46.18,5.7,72.61-10.43,10.31-23.14,17.27-37.57,19.17-15.3,2.02-30.96,3.67-46.27,2.62-27.12-1.86-54.44-3.75-80.47-13.02-26.94-9.6-50.56-23.1-63.83-50.24-16.99-34.76-.97-70.21,44.76-73.35,8.87-.61,19.54-1.35,27.13,7.52Z"/>
    <path class="cls-1" d="M157.53,580.37c-1.44,4.56-2.4,6.35-2.53,8.21-2.58,36-16.91,68.72-28.86,102.04-5.48,15.28-14.53,28.84-26.01,40.5-2.43,2.47-5.57,4.24-11.83,8.88,7.87-17.92,14.67-31.65,20.02-45.93,10.83-28.95,21.23-58.07,31.03-87.38,2.85-8.51,2.77-17.96,4.54-26.88,8.32-42.07,8.79-85.03,14.55-127.4,1.62-11.95.12-24.32,3.35-36.72,1.22,13.3,3.74,26.64,3.39,39.91-.74,27.85-3.05,55.66-4.55,83.49-.26,4.85-2.67,10.47,4.27,14.7,7.9-44.5,27.81-84.15,46.06-125.1.09,1.88.37,3.78.21,5.64-.23,2.58-.47,5.25-1.29,7.68-8.43,25-17.2,49.89-25.38,74.96-4,12.24-8.06,24.64-10.18,37.28-5.7,33.91-11.22,67.9-15.21,102.05-3.54,30.31-1.43,60.69,4.47,90.71,1.22,6.21,2.32,12.44,4.19,22.51-5.2-5.36-8.88-7.77-10.6-11.16-8.27-16.31-13.06-33.24-13.29-52.06-.28-23.54,2.24-46.64,5.71-69.73,2.3-15.35,5.36-30.58,7.93-45.89.41-2.43.05-4.99.03-10.31Z"/>
    <path class="cls-1" d="M174.16,369.41c30.83,11.23,33.36,6.21,62.98-.69-1.23,13.05-6.23,16.98-24.76,19.44-19.4,2.58-32.87-4.03-38.22-18.75Z"/>
    <path class="cls-1" d="M315.53,254.3c4.49-9,12.23-11.1,21.19-9.15,13.61,2.96,27.11,6.48,40.69,9.77-1.36,7.22-6.13,9.04-11.52,8.76-6.41-.32-12.84-1.26-19.13-2.57-10.61-2.21-21.11-4.91-31.66-7.41l.43.6Z"/>
  </g>
</svg>