<?xml version="1.0" encoding="UTF-8"?>
<svg id="Layer_1" data-name="Layer 1" xmlns="http://www.w3.org/2000/svg" version="1.1" viewBox="0 0 418.95 841.89">
  <defs>
    <style>
      .cls-1 {
        fill: #000;
        stroke-width: 0px;
      }
    </style>
  </defs>
  <path class="cls-1" d="M198.58,833.03c-29.35,2.84-60.24.17-90.23-9.83-16.89-5.64-32.55-13.68-44.38-27.66-15.68-18.53-15.71-37.41,0-55.67,17.59-20.45,41.11-30.88,66.13-38.44,7.19-2.17,14.9-3.44,22.4-3.61,9.69-.22,11.48-.61,12.01-9.03.8-12.88.99-25.8,1.64-38.69,1.57-31.05,3.45-62.09,4.84-93.15,1.55-34.73,1.46-69.31-8.55-103.17-5.24-17.71-10.17-22.16-28.81-21.36-11.7.5-23.34,2.29-35.03,2.99-21.26,1.27-37.28-9.07-50.57-24.31-21.21-24.34-26.66-53.49-22.45-84.29,5.08-37.12,12.72-73.89,17.84-111.01,4.64-33.63,7.37-67.53,10.95-101.3,1.61-15.15,2.71-30.39,5.13-45.41,1.16-7.24,4.79-12.47,12.98-16.7,25.67-13.28,52.76-19.67,81.09-21.73,57.04-4.14,113.9-2.71,170.46,6.68,6.89,1.14,14.18,1.35,21.1.48,7.38-.92,9.1,2.16,9.83,8.52,1.8,15.75,3.87,31.49,6.29,47.16,5.67,36.59,11.22,73.21,17.61,109.68,2.83,16.16,7.98,31.9,11.4,47.97,9.1,42.83,3.26,83.16-22.07,119.57-15.34,22.05-37.48,35.2-62,44.88-12.01,4.74-23.95,9.69-35.8,14.83-15.61,6.77-24.68,18.98-29.9,35.02-7.72,23.69-9.28,48.3-12.1,72.73-3.09,26.78-6.59,53.54-8.43,80.41-1.49,21.66-.69,43.46-1.11,65.2-.14,7.2,3.26,8.92,9.85,8.42,18.78-1.42,37.58-2.8,56.4-3.41,16.03-.52,31.62,2.95,46.36,9.14,6.97,2.92,13.78,6.87,19.67,11.59,20.88,16.73,23.82,40.81,8,62.46-10.3,14.09-23.97,24.19-39.51,31.79-37.53,18.35-77.3,27.71-121.03,29.28ZM346.83,112.51c.35-.04.71-.07,1.07-.11-1.06-18.23-2.14-36.46-3.16-54.69-.8-14.35-1.14-14.41-15.72-11.13-7.98,1.8-16.17,3.56-24.29,3.7-20.56.37-41.18.6-61.7-.53-35.29-1.95-70.63-3.67-105.75.47-17.31,2.04-34.31,7.43-51.17,12.26-10.27,2.94-16.97,9.96-17.66,21.63-.69,11.7-2.34,23.34-2.9,35.04-.78,16.42.19,33-1.6,49.29-4.61,41.91-10.42,83.7-15.57,125.55-2.65,21.6-5.02,43.22-1.27,64.98,3.13,18.12,11.58,33.2,25.68,44.93,10.42,8.67,22.08,12.61,35.99,9.48,7.97-1.79,16.38-2.53,24.56-2.39,26.03.45,40.4,10.47,45.9,32.91,9.04,36.87,10.01,74.58,9.55,112.3-.23,18.77-1.57,37.51-2.1,56.28-.55,19.38-.34,38.8-1.19,58.16-.72,16.39-2.32,32.75-3.85,49.1-2.34,25.06-13.18,46.09-31.09,63.56-.99.97-2.96.92-4.48,1.35.15-1.53-.15-3.3.52-4.55,9.69-17.89,14.61-36.88,15.17-57.3.33-12.07.13-13.81-12.07-11.69-26.67,4.63-50.37,16.25-69.64,35.3-14.22,14.05-12.78,27.8,2.49,40.89,12.91,11.07,28.66,16.02,44.73,19.85,34.42,8.19,69.23,5.8,103.53.48,28.4-4.4,56.21-12.65,81.58-27,7.12-4.03,14.14-8.63,20.21-14.08,17.33-15.55,16.08-32.35-3.19-44.94-5.84-3.82-12.38-6.85-18.97-9.18-25.84-9.15-52.56-12.11-79.85-10.26-10.25.69-10.14,1.09-8.53,12.04,3.2,21.71,7.97,42.76,21.36,60.89.9,1.22.62,3.3.9,4.98-1.79-.59-4.08-.67-5.29-1.86-18.13-17.86-30.2-38.93-33.21-64.56-.72-6.11-1.08-11.92-9.27-12.43-2.84-.18-4.98-1.93-.53-3.13,8.21-2.2,6.31-7.56,6.16-13.78-.56-24.04-1.05-48.14.1-72.13,1.34-28.09,4.07-56.12,6.82-84.12,1.89-19.22,4.19-38.46,7.46-57.49,5.39-31.44,23.01-53.39,53.06-65.11,12.58-4.9,25.04-10.17,37.31-15.81,27.6-12.7,46.1-33.29,56-62.42,9.31-27.39,6.71-54.51,1.65-81.89-2.24-12.13-5.69-24.09-7.19-36.29-3.93-32.13-7.09-64.35-10.55-96.54Z"/>
  <path class="cls-1" d="M358.79,279.7c1.29,22.44-4.63,43.37-12.9,63.56-6.22,15.18-19.21,24.52-34.64,27.67-24.85,5.08-45.81,17.63-66.99,30.25-6.05,3.61-12.18,7.2-18.58,10.09-9.37,4.24-19.18,5.21-29.13,1.71-8.25-2.9-16.36-6.32-24.8-8.52-4.87-1.27-10.45-1.53-15.38-.57-17.07,3.35-32.34-.05-47.15-9.03-8.92-5.41-18.7-9.82-28.62-13.06-21.85-7.13-31.92-25.76-29.63-45.95,2.53-22.25,3.76-44.35,13.79-65.01,6.14-12.65,13.46-23.35,27.54-27.94,2.69-.88,5.07-2.82,7.46-4.46,23.51-16.22,48.14-16.69,73.61-5.27,1.07.48,2.16.95,3.17,1.56,26.5,16.14,54.56,16.31,83.27,7.67,10.65-3.21,21.03-7.35,31.44-11.31,6.03-2.3,11.87-5.11,17.8-7.67,29.31-12.68,36.65,1.76,43.02,21.71,3.55,11.1,4.57,23.01,6.72,34.55ZM158.28,383.91c.36-.07,4.08-.84,7.79-1.6-3.99-.08-7.98-.26-11.96-.22-2.29.02-4.58.35-6.85.62-1.13.13-2.25.43-3.37.65,1.36.38,2.7,1.03,4.08,1.08,2.28.09,4.58-.21,10.32-.54ZM124.82,271.45l1.07.59.08-1.01-1.15.42Z"/>
</svg>