<?xml version="1.0" encoding="UTF-8"?>
<svg id="Layer_1" data-name="Layer 1" xmlns="http://www.w3.org/2000/svg" version="1.1" viewBox="0 0 418.95 523.8">
  <defs>
    <style>
      .cls-1 {
        fill: #000;
        stroke-width: 0px;
      }
    </style>
  </defs>
  <path class="cls-1" d="M11.48,215.04c2.65-42.89,4.92-85.81,8.21-128.65.79-10.34,4.06-19.65,18.41-21.4,8.61-1.05,16.49-8.6,24.59-13.4,34.27-20.32,71.29-30.66,111.11-28.79,42.13,1.98,83.83-1.42,125.69-5.66,21.78-2.2,44.35-1.07,66.05,2.06,12.85,1.85,25.79,8.97,36.77,16.52,16.84,11.57,19.62,25.45,8.18,43.55-6.37,10.09-5.75,18.28-4.58,29.21,3.97,37.33,10.7,74.45-1.18,112.34-13.86,44.19-41.89,63.93-94.83,67.38-2.76.18-5.67-1.85-8.51-2.85,1.46-2.62,2.81-5.31,4.43-7.83.52-.8,1.65-1.33,2.61-1.71,35.66-14.16,32.66-44.38,30.19-73.91-.87-10.36-3.39-20.74-6.45-30.71-1.97-6.42-6.29-12.13-9.56-18.15-4.83,5.28-10.78,9.91-14.28,15.96-14.04,24.21-16.65,51.77-20.53,78.63-5.15,35.69-5.34,36.74-39.96,46.44-47.82,13.4-96.31,21.28-146.06,16.98-15.6-1.35-31.37-4.03-46.37-8.45-33.25-9.79-47.64-30.86-46.86-65.6.17-7.36.62-14.72.94-22.08.66.04,1.31.08,1.97.11ZM44.74,170.62c.28.01.57.02.85.03-.78,17.9-2.1,35.79-2.12,53.69,0,9.31,1.68,18.76,3.85,27.85.82,3.43,5.15,6.03,7.88,9,1.12-3.44,3.68-7.12,3.15-10.28-4.89-28.93-.63-56.67,10.98-83.22,11.5-26.29,25.69-37.15,43.29-34.81,16.09,2.13,28.79,18.72,31.92,45.85,2.52,21.84,2.52,43.99,3.33,66.01.35,9.45-.45,18.94.13,28.36.12,1.91,4.22,5.06,6.31,4.93,2.07-.13,5.5-3.62,5.61-5.78,1.04-19.96.79-40.01,2.28-59.93,1.84-24.61,9.77-47.61,25.48-66.76,18.19-22.18,42.08-19.62,56.36,5.19,21.23,36.89,22.84,75.7,10.27,115.65-.48,1.51-2.54,3.71-3.59,3.58-1.75-.23-4.43-1.86-4.74-3.32-3.06-14.3-5.44-28.75-8.54-43.04-4.21-19.4-7.53-39.16-13.81-57.9-4.63-13.82-14.58-14.18-22.5-1.17-17.86,29.32-25.87,61.96-26.86,95.97-.46,15.88,5.23,20.99,20.69,21.14,23.09.23,46.21-.57,69.27-1.91,2.73-.16,7.81-7.07,7.22-9.87-6.14-28.86,1.27-56.68,6.26-84.47,3.75-20.9,12.29-40.36,29.3-54.5,15.28-12.7,33.65-10.34,42.15,7.31,6.19,12.86,9.26,27.63,11.4,41.9,1.54,10.2-.91,20.97-1.27,31.5-.14,4.12.54,8.28.85,12.41,3.01-3.9,7.11-7.37,8.85-11.77,12.7-32.1,11.48-66.03,12.25-99.65.32-13.83-9.62-10.99-17.71-9.69-35.18,5.67-70.13,13.22-105.5,17.03-49.06,5.28-98.36,9.84-147.38-2.56-20.75-5.25-42.01-8.49-63.03-12.64-.96,21.96-1.91,43.92-2.87,65.87ZM154,95.13c62.4.57,123.39-7.94,184.02-19.83,12.26-2.4,24.36-5.71,36.45-8.9,1.78-.47,4.63-3.21,4.36-3.92-.84-2.25-2.52-4.84-4.59-5.87-22.74-11.33-47.49-8.95-71.03-6.68-45.99,4.42-91.8,7.04-138.02,5.09-32.67-1.38-64.48,5.47-95.37,16.03-2.51.86-4.19,4.14-6.25,6.3,2.29,1.42,4.43,3.7,6.89,4.12,27.82,4.73,55.68,9.17,83.53,13.68ZM80.41,226.17c-2.15,45.31,1.98,50.02,36.8,52.36,2.09.14,4.19.27,6.28.24,7.53-.12,11.12-1.91,8.82-11.24-5.45-22.17-9.56-44.68-14.01-67.1-2.02-10.2-3.28-20.55-5.47-30.7-.55-2.53-3.2-6.14-5.24-6.39-2.14-.26-5.4,2.44-6.95,4.68-14.1,20.46-19.28,43.72-20.24,58.15Z"/>
  <path class="cls-1" d="M155.32,453.91c41.82,1.04,81.53-8.4,119.73-23.8,29.48-11.88,31.04-22.13,10.12-46.03-2.52-2.88-4.49-6.24-6.72-9.37,4.6-1.66,9.09-4.35,13.8-4.78,18.03-1.66,30.1,7.93,37.96,22.94,8.68,16.55,7.13,33.43-6.91,46.16-11.44,10.37-25.03,19.44-39.2,25.53-41.01,17.62-84.74,25.04-129.03,24.96-19.35-.04-39.86-5.08-57.75-12.73-29.69-12.69-36.64-41.32-18.85-68.02,20.57-30.87,51.74-41.21,86.97-42.27,3.91-.12,8.59,1.69,11.68,4.16,3.67,2.94,6.01,7.55,8.93,11.43-4.09,2.53-7.88,6.12-12.33,7.4-13.93,4.03-28.8,5.61-41.97,11.25-9.1,3.9-17.39,11.87-23.57,19.92-10.36,13.49-6.76,23.77,9.77,28.17,12.06,3.2,24.89,3.5,37.37,5.1Z"/>
  <path class="cls-1" d="M204.24,356.23c2.22-13.34,3.76-25.78,6.71-37.87.71-2.91,6.1-6.47,9.31-6.44,2.74.03,7.23,4.42,7.85,7.5,5.28,25.95,5.18,51.96-2.11,77.57-1.72,6.04-5.46,11.5-8.28,17.23-3.53-6.11-9.02-11.88-10.19-18.42-2.36-13.25-2.37-26.91-3.29-39.57Z"/>
</svg>