<?xml version="1.0" encoding="UTF-8"?>
<svg id="Layer_1" data-name="Layer 1" xmlns="http://www.w3.org/2000/svg" version="1.1" viewBox="0 0 307.64 841.89">
  <defs>
    <style>
      .cls-1 {
        fill: #000;
        stroke-width: 0px;
      }
    </style>
  </defs>
  <g>
    <path class="cls-1" d="M248.56,440.56c3.5,3.59,4.74,7.97,4.62,13.5-.39,18.38-.51,36.78.09,55.15.36,11.12,2.06,22.22,3.47,33.29,2.18,17.23,3.45,34.49,2.32,51.85-.33,5.05-1.37,10.05-1.87,15.1-2.37,23.97-3.34,48.03-4.78,72.06-.9,14.95-.62,29.88-1.45,44.77-.75,13.5-2.11,27.03-4.24,40.38-1.38,8.64-6.58,15.58-14.56,19.89-16.08,8.7-33.42,12.44-51.52,14.1-14.54,1.34-28.14-3.21-42.19-4.87-2.01-.24-4.01-.93-6.01-.91-16.7.18-29.93-7.37-41.74-18.34-2.97-2.76-6.13-5.41-9.55-7.56-11.32-7.1-16.11-17.91-17.98-30.5-1.94-13.05-4.62-26.04-5.58-39.16-.9-12.16,0-24.46.19-36.69.04-2.36.53-4.71.74-7.07,1.42-16.54,2.84-33.07,4.2-49.61.22-2.71.49-5.48.18-8.15-3.13-27.1-2.69-54.2-.37-81.32.41-4.73.58-9.58.06-14.28-.97-8.81-.38-17.54.3-26.3.64-8.2,2.02-16.05,7.46-22.77,1.94-2.39,2.3-6.11,4.34-8.37,7.67-8.49,17.35-11.55,28.6-9.09,12.23,2.68,24.42,5.53,36.67,8.13,3.62.77,7.38,1.26,11.07,1.28,17.36.09,34.74.53,52.07-.23,14.85-.65,29.63-2.73,45.46-4.28ZM74.96,570.7c.67,5.16,2.13,11.47,2.2,17.79.16,15.29-.35,30.59-.56,45.89-.17,12.09,3.09,22.69,13.11,30.43,9.97,7.7,21.58,9.3,33.65,9.12,21.32-.31,42.63-4.45,63.97-.26.65.13,1.36.01,2.03-.08,9.4-1.27,18.85-2.23,28.15-4,3.82-.73,8.38-2.29,10.73-5.06,7.66-9.01,12.59-19.11,9.6-31.77-1.22-5.15-1.44-10.92-.45-16.09,1.25-6.51.95-12.68.29-19.15-.61-5.96-.49-12.2.55-18.09,2.1-11.93-.99-18.2-12.46-21.81-9.44-2.97-19.16-4.69-29.08-3.71-12.14,1.2-24.21,2.97-36.34,4.3-16.83,1.85-33.67,3.59-50.52,5.2-3.36.32-7,.56-10.16-.35-9.39-2.71-17.41-1.44-24.72,7.64Z"/>
    <path class="cls-1" d="M73.86,783.86c2.8,1.12,4.74,1.48,6.18,2.54,6.65,4.92,14.11,8.03,21.88,10.65,4.49,1.52,8.75,3.73,13.23,5.31,13.23,4.66,26.6,7.46,40.88,5.58,7.66-1.01,15.63-.54,23.37.2,15.03,1.42,29.83,1.66,44.26-3.69,11.33-4.2,19.81-10.75,24.21-22.86,4.79-13.2,8.08-26.48,9.63-40.42,2.6-23.36,3.19-46.77,3.61-70.23.95-53.45,2.87-106.89,1.99-160.36-.39-23.47-1.12-46.95-2.22-70.39-.82-17.29-2.38-34.54-3.83-51.79-1.61-19.13-8.43-36.2-20.67-51.09-4.96-6.04-9.61-12.33-14.51-18.43-6.86-8.55-11.91-18.02-15.97-28.23-2.86-7.21-7.05-13.91-10.95-20.67-4.68-8.12-7.34-16.66-7.29-26.12.17-31.01.16-62.01.29-93.02.01-3.25-.73-6.8,2.77-10.39,1.02,4.44,2.22,8.06,2.63,11.77,1.01,9.1,1.97,18.22,2.39,27.36.97,21.06,1.41,42.14,2.49,63.2.4,7.79,2.51,15.28,6.32,22.32,4.03,7.45,8.06,15.02,10.88,22.97,4.56,12.86,13.09,22.9,21.38,33.21,6.39,7.95,13.12,15.64,19.04,23.93,9.31,13.02,12.94,28.32,15.67,43.75,3.49,19.72,5.19,39.64,6.72,59.63,1.9,24.75,2.57,49.55,4.21,74.29,2.12,32.01,1.03,63.98,1.18,95.96.15,32.32-.57,64.68-2.11,96.97-1.17,24.72-4.06,49.25-13.9,72.58-7.12,16.89-18.74,27.74-35.76,33.85-10.01,3.6-20.29,5.44-30.71,6.79-2.97.39-6.08-.42-9.12-.41-12.19.06-24.44-.44-36.57.49-20.13,1.54-39.38-.78-57.3-10.47-13.36-7.22-20.27-19.18-24.29-34.75Z"/>
    <path class="cls-1" d="M56.08,747.33c-10.64-12.88-16.83-26.5-18.07-42.8-3.01-39.47-1.49-78.91-1.05-118.37.19-16.99.48-34.02,1.65-50.96,1.09-15.87,3.35-31.66,5.19-47.48.82-7.06,1.85-14.1,2.83-21.15,1.95-14.07,3.83-28.14,5.92-42.19,1.29-8.68,2.81-17.34,4.43-25.97,2.51-13.39,8.53-24.93,18.44-34.4,10.67-10.19,19.58-21.74,25.55-35.29,1.73-3.92,2.93-8.42,2.97-12.67.1-12.1,3.02-23.48,7.35-34.62,3.96-10.18,6.25-20.65,7.14-31.61,1.38-16.88,4.31-33.64,5.29-50.53.69-11.76,3.6-23.38,1.16-35.48-1.58-7.81-.83-16.02,1.26-24.2,1.71-6.66.87-14.04.7-21.08-.35-14.59-2-29.22,3.35-43.39.64-1.69.63-4.42-.33-5.76-3.93-5.47-3.45-11.6-3.43-17.7.02-7.44-.95-14.87,1.69-22.22,4.19-11.68,9.57-16.15,21.78-15.8,7.07.2,14.12,1.4,21.16,2.32,3.33.43,6.59,1.4,9.91,1.87,10.7,1.5,16.86,8.36,17.37,19.06.4,8.38-1.36,16.2-5.14,23.61-1.7,3.32-3.54,6.57-5.52,10.23.49,1.02.94,2.28,1.65,3.37,7.65,11.68,8.28,24.24,4.27,37.16-1.98,6.37-4.73,12.5-7.66,20.13-3.09-5.03-4.27-9.28-4.3-13.93-.05-7.49-.18-14.99-.03-22.48.09-4.24-.84-8.05-3.13-11.6-2.49-3.87-4.86-7.82-7.22-11.62-8.34.65-17.01,1.33-25.72,2.01-3.5,19.9-6.99,39.74-10.44,59.36,8.14,1.62,16.33,3.73,24.65,4.75,5.29.64,10.81-.05,16.16-.7,3.73-.45,7.26-.95,12.45,1.41-8.03,3.63-14.89,5.64-22.02,5.73-7.76.09-15.53-.94-23.31-1.26-1.89-.08-3.82.7-6.49,1.23.25,4.72,0,9.15.79,13.4,2.41,13.05,4.24,25.92,2.02,39.35-1.83,11-1.62,22.33-2.61,33.49-.78,8.77-1.86,17.53-3.06,26.26-1.77,12.96-6.39,24.95-13.01,36.18-4.55,7.73-6.72,16.2-8.52,24.87-.89,4.25-2.16,8.55-4.04,12.44-5.8,12-12.82,23.29-22.91,32.2-16.67,14.73-22.66,33.94-24.34,55.24-.85,10.79-2.66,21.51-3.47,32.31-.61,8.13.11,16.37-.51,24.5-3.76,49.29-.51,98.68-2.39,147.99-.38,9.84-1.24,19.69-1.08,29.52.26,16.31.02,32.76,2.13,48.88,1.83,13.98,1.11,27.78,1.19,41.67,0,1.58-.42,3.15-.65,4.73Z"/>
    <path class="cls-1" d="M184.53,287.33c2.01,13.78,9.98,23.64,18.48,33.28,16.07,18.22,26.21,39.33,29.81,63.41,1.34,8.98,2.26,18.03,3.22,27.07.08.74-.99,1.61-2.09,3.26-1.19-2.98-2.21-5.26-3.02-7.62-5.68-16.61-10.46-33.59-17.26-49.72-4.83-11.44-12.01-21.97-18.83-32.45-5.93-9.11-12.15-17.9-14.43-28.81-.76-3.66-.65-6.52,4.11-8.42Z"/>
  </g>
  <path class="cls-1" d="M210.28,644.61c-2.46-3.96-5.2-8.38-8.29-13.36-.76,1.43-1.52,3.04-2.44,4.56-1.56,2.6-2.82,5.55-4.92,7.61-4.01,3.92-10.53,2.85-12.79-2.24-1.75-3.93-2.28-8.41-3.33-12.52-2.94,6.25-5.84,12.91-9.19,19.32-1.71,3.26-3.86,6.49-6.49,9.03-7.36,7.09-16.12,5.21-20.6-4.11-.58-1.22-1.16-2.47-1.46-3.78-.99-4.26-1.86-8.56-2.78-12.84-6.72-2.48-8.72-10.59-16.39-13.28-1.1,4.8-2.13,9.56-3.31,14.29-.74,2.95-1.49,5.94-2.63,8.74-1.15,2.81-3.68,3.73-6.66,3.79-3.21.06-5.16-1.64-6.14-4.39-.79-2.21-1.11-4.6-1.56-6.92-1.81-9.28-3.81-18.54-5.27-27.87-.48-3.08-1.53-6.72,1.83-10.05,7.46,4.43,5.75,13.06,9.67,19.61.89-3.68,1.69-7.15,2.57-10.59.33-1.31.78-2.59,1.28-3.85,1.45-3.67,3.66-6.64,7.92-7.01,3.39-.29,7.41,2.89,8.83,7.24,1.76,5.41,3.1,10.96,5.21,18.62,1.66-6.39,2.58-10.56,3.85-14.62,1.75-5.61,4.34-7.76,8.31-7.42,3.73.32,6.46,3.19,7.2,8.66.59,4.36.35,8.83.55,13.25.12,2.67.38,5.34.74,10.05,1.79-2.7,2.67-3.76,3.26-4.96,3.75-7.58,7.11-15.37,11.29-22.7,1.92-3.35,4.74-7.23,9.54-6.59,5.45.72,7.69,5.12,9.23,9.79.62,1.89.84,3.92,1.29,6.13,4.21-10.39,5.89-11.19,16.45-7.64,1.4-3.87,2.82-7.79,4.68-12.92,4.29,5.55,1.43,11.36,3.5,16.17,4.06-2.42,8.08-5.21,13.59-2.08-5.45,11.51-10.88,22.98-16.5,34.86Z"/>
</svg>