<?xml version="1.0" encoding="UTF-8"?>
<svg id="Layer_1" data-name="Layer 1" xmlns="http://www.w3.org/2000/svg" version="1.1" viewBox="0 0 397.51 841.89">
  <defs>
    <style>
      .cls-1 {
        fill: #000;
        stroke-width: 0px;
      }
    </style>
  </defs>
  <path class="cls-1" d="M17.13,642.5c-.51-30.21,4.98-59.2,15.5-87.42,7.37-19.78,14.06-39.82,21.11-59.72,5.86-16.55,13.02-32.6,22.12-47.57,11.05-18.17,19.16-37.61,26.9-57.27,6.82-17.32,14.33-34.42,20.11-52.09,6.99-21.36,12.42-43.23,18.63-64.84,4.6-16.01,9.12-32.04,14.1-47.93,8.65-27.59,16.05-55.51,20.35-84.09,1.53-10.15,2.39-20.38,5.06-30.34.5-1.85.8-3.92.5-5.78-2.61-16.43-.87-33.34-5.81-49.57-1.2-3.94-.71-9.02.68-12.98,1.99-5.67,5.08-11.12,8.51-16.09,4.96-7.18,12.8-9.37,21.09-10.1,5.53-.49,11.08-.79,16.6-1.38,11.8-1.28,20.56,3.17,26.38,13.51,1.35,2.41,2.93,4.69,4.31,7.08.82,1.43,1.93,2.92,2.07,4.46.94,10.23,1.88,20.63-3.23,30.05-1.79,3.3-1.87,5.95-1.31,9.38,1.28,7.92,2.35,15.91,2.96,23.91,1.47,19.36,1.98,38.79,6.89,57.78,1.43,5.55,1.41,11.54,1.6,17.34.51,15.27.35,30.57,1.28,45.81.52,8.53,3.13,16.9,4.05,25.43,3,27.78,11.02,54.39,18.11,81.25,5.8,21.96,15.51,42.32,26.06,62.16,16.39,30.82,28.84,63.14,39.74,96.18,9.22,27.95,18.46,55.91,23.1,85.08,2,12.59,3.69,25.31,4.21,38.02.72,17.5.53,35.05.13,52.57-.49,21.46-4.17,42.52-9.04,63.4-3.72,15.96-6.66,32.16-12.99,47.35-2.97,7.13-6.69,14.07-10.94,20.52-5.69,8.61-14.78,13.26-23.65,17.99-3.64,1.94-6.91,4.7-10.7,6.22-5.6,2.25-11.4,4.25-17.3,5.43-12.24,2.46-24.58,4.51-36.94,6.33-4.63.68-9.42.47-14.13.35-7.76-.2-15.52-.92-23.28-.98-20.03-.16-40.07.38-60.08-.25-13-.41-26.05-1.83-38.91-3.83-13.59-2.11-26.16-7.61-37.58-15.3-8.27-5.57-16.17-11.71-24.22-17.6-.67-.49-1.22-1.32-1.95-1.53-8.17-2.33-11.44-9.32-14.96-15.9-7.55-14.12-11.34-29.49-14.22-45.08-2.93-15.82-5.98-31.65-7.94-47.6-1.72-14.03-2.01-28.24-2.93-42.36ZM317.39,639.33c0-8.84.16-19.13-.08-29.41-.1-4.39-.77-8.82-1.66-13.14-.92-4.47-3.06-9.01-7.1-10.89-8.43-3.9-15.67-10.52-25.38-11.56-.28-.03-.56-.04-.83-.02-18.02.88-36.04,1.76-54.05,2.65-.27.01-.54.14-.82.16-9.42.63-18.85,1.92-28.25,1.71-13.59-.3-27.16-1.65-40.73-2.63-3.86-.28-7.72-.74-11.56-1.26-9.05-1.21-18.02-3.53-27.19-.44-5.78,1.95-11.77,3.29-17.57,5.18-9.16,2.99-12.18,6.91-12.12,16.48.04,6.92.42,13.88,1.35,20.73,1.78,13.17-.91,26.01-2.1,38.98-1.04,11.33-2.04,22.67-2.6,34.04-.34,6.89,1.84,13.15,7.16,17.99,1.02.93,2.09,1.91,2.77,3.08,5.8,10.16,15.26,14.08,26.2,15.45,12.38,1.56,24.74,3.63,37.17,4.44,13.27.86,26.66,1.9,39.89-.88,18.82-3.96,37.67.37,56.5-.15,1.6-.04,3.25.67,4.83,1.17,11.42,3.58,22.35,2.14,33.31-2.36,8.05-3.31,13.75-8.55,16.07-16.8,2.02-7.18,4-14.54,4.54-21.93,1.21-16.34,1.51-32.75,2.25-50.59ZM193.38,151.11c-1.96,16.44-6.08,31.25-8.37,46.67,21.4,5.53,41.95,6.75,62.97,1.37,2.04-15.66-1.26-30.88-6.54-46.21-15.85,3.64-31.4,6.54-48.07-1.83ZM192.48,68.82c-.78,10.89-1.63,21.07-2.17,31.27-.19,3.56.33,7.16.65,10.74.28,3.1,2.09,4.79,5.1,5.66,13.8,4.01,27.63,4.68,42.21,1.16-1.12-13.08-.38-26.1-5.65-38.57-14.41.62-25.99-8.17-40.14-10.26Z"/>
  <path class="cls-1" d="M288.9,649.2c.09,7.68-1.75,14.89-5.85,21.37-3.39,5.37-8.07,9.23-14.72,9.81-7.5.66-13.73-3.44-17.26-10.64-5.95-12.1-.13-33.3,8.03-41.24,3.18-3.09,6.76-4.94,11.21-2.36.47.27,1.06.34,1.59.49,13.32,3.9,16.96,8.75,17,22.57ZM265.73,664.02c7.69-8.87,7.98-19.45,1.41-30.04-3.93,9.9-5.34,19.13-1.41,30.04Z"/>
  <path class="cls-1" d="M228.57,653.53c4.26-10.27,8.12-19.58,12.57-30.32,1.21,2.44,2,3.3,2.03,4.18.28,9.17.62,18.34.52,27.51-.04,3.25-.87,6.64-2.02,9.71-3.77,10.05-14.4,11.81-20.87,3.3-2.81-3.7-4.48-8.26-6.63-12.45-.84-1.64-1.58-3.33-3.02-6.39-1.48,8.75-2,16.14-5.77,23.33-3.72-2.32-4.62-5.9-5.07-9.21-1.51-11.15-.64-22.16,3.11-32.85.95-2.71,2.25-5.74,5.48-5.27,2.07.3,4.5,2.19,5.66,4.06,3.52,5.65,6.47,11.66,9.71,17.49,1.16,2.09,2.52,4.06,4.3,6.91Z"/>
  <path class="cls-1" d="M143.03,650.38c7.03-9.61,13.65-18.67,20.33-27.7.24-.32.95-.3,1.45-.44.4.35,1.19.76,1.14,1.03-2.44,13.84-4.84,27.69-7.55,41.48-.57,2.91-1.99,5.81-3.63,8.32-4.67,7.18-13.67,7.33-18.83.53-.33-.44-.71-.88-.93-1.37-6.28-14.32-11.15-28.98-10.07-44.91.13-1.93,1.27-4.85,2.7-5.42,2.97-1.18,4.18,1.98,5.3,4.06,1.56,2.92,2.76,6.04,4.01,9.12,2.06,5.06,4.05,10.16,6.09,15.3Z"/>
  <path class="cls-1" d="M184.48,670.47c-5.08-4.37-6.33-9.24-7.19-13.98-1.81-9.99-.34-19.82,2.64-29.45.7-2.28,1.83-4.29,4.43-4.2,3.15.1,4.14,2.61,4.19,5.24.14,6.88.54,13.82-.11,20.64-.67,6.98-2.47,13.86-3.95,21.75Z"/>
</svg>