<?xml version="1.0" encoding="UTF-8"?>
<svg id="Layer_1" data-name="Layer 1" xmlns="http://www.w3.org/2000/svg" version="1.1" viewBox="0 0 741.87 530.58">
  <defs>
    <style>
      .cls-1 {
        fill: #000;
        stroke-width: 0px;
      }
    </style>
  </defs>
  <g>
    <path class="cls-1" d="M237.55,223.75c3.41,2.89,6.82,5.78,10.22,8.67,2.4,2.05,5.11,1.29,7.63.58,4.42-1.24,8.69-2.99,13.12-4.2,19.67-5.39,39.56-7.48,59.76-3.4,10.8,2.18,20.79,6.6,30.57,11.56,5.86,2.97,11.92,5.64,16.46,10.6,1.79,1.96,3.51,4.03,4.93,6.26,3.17,4.97,3.2,10.15.11,15.15-3.7,5.99-7.4,12.01-11.52,17.71-1.64,2.26-4.14,4.3-6.7,5.43-12.22,5.4-24.86,8-38.3,5.25-29.07-5.94-53.47-19.94-73.42-41.85-2.38-2.62-5.23-4.81-7.79-7.12-1.78,1.22-2.77,2.13-.75,3.48,18.34,12.33,26.38,30.54,28.69,51.66,1.67,15.25.72,30.55-.14,45.87-.71,12.56-.93,25.28,2.32,37.72,1.64,6.28,4.74,11.64,9.34,16.97,1.52-2.26,2.98-4.32,4.33-6.44,4.55-7.12,10.57-12.61,17.95-16.72,3.72-2.08,7.61-2.97,11.82-3.17,7.85-.36,12.99,3.67,16.19,10.25,5.73,11.8-.01,24.09-7.12,29.48-10.24,7.77-21.56,9.34-33.78,6.41-1.14-.27-2.28-.51-3.77-.85-1.35,4.67-.64,8.89.12,13.13,1.79,9.91,5.84,18.92,10.68,27.66,1.33,2.41,3.68,4.58,2.96,8.65-8.29-10.72-16.75-20.52-20.13-33.27-1.41-5.34-2.01-10.95-2.38-16.48-.21-3.19-1.17-5.37-3.59-7.46-10.88-9.4-16.02-21.75-17.35-35.77-1.15-12.13-.53-24.23.71-36.37,1.53-14.97,2.97-30.02,1.24-45.1-1.73-15.16-7.56-28.51-17.88-39.82-1.28-1.4-2.9-2.47-5.08-4.29-3.58,7.08-7.31,13.54-10.19,20.36-7.07,16.76-13.57,33.77-20.67,50.52-3.01,7.09-3.69,13.93-.96,21.13.56,1.46.86,3.02.79,4.72-4.41-3.54-6.25-8.47-6.42-13.7-.11-3.51,1.1-7.14,2.11-10.6,1.83-6.26,4.12-12.38,5.92-18.65,4.63-16.16,11.63-31.34,18.77-46.48,1.63-3.45,3.19-6.92,4.77-10.35-2.94-2.57-4.3-1.28-5.45,1.01-2.72,5.43-5.39,10.88-8.25,16.24-8,14.99-16.14,29.91-24.09,44.93-2.82,5.34-5.22,10.9-8.34,16.19.97-7.15,2.88-14.04,5.24-20.81,2.47-7.1,4.84-14.24,7.63-21.21,2.7-6.76,5.89-13.32,8.83-19.98,3.02-6.83,6-13.68,9.09-20.74-9.27-3.51-16.97-.35-24.56,2.69-12.06,4.83-22.62,12.29-33.12,19.75-11.49,8.17-22.68,16.76-34.05,25.1-13.37,9.8-27.4,18.47-42.98,24.38-10.76,4.08-21.79,6.81-33.38,6.57-8.37-.18-16.49-1.65-23.47-6.6-11.64-8.26-14.95-20.13-12.89-33.49,3.72-24.07,24.76-38.82,45.61-37.88,9.67.44,17.96,4.13,24.3,11.53,8.99,10.5,6.69,27.45-10.77,31.06,2.36-1.86,4.07-3.13,5.68-4.51,4.94-4.21,6.22-11.54,2.94-17.21-4.05-7.02-10.43-11.02-18.19-12.12-18.55-2.63-36.23,10.48-39.33,28.97-.59,3.52-.51,7.38.26,10.87,2.02,9.12,7.59,14.84,17.1,16.64,10.1,1.91,19.79.3,29.43-2.56,16.31-4.83,30.64-13.47,44.38-23.16,13.71-9.67,27.14-19.73,40.91-29.29,11.92-8.28,24.63-15.22,38.21-21.02-7.28.35-14.56.99-21.84.97-10.46-.03-20.86-1.13-30.86-4.39-15.54-5.07-27.54-14.26-33.46-30.06-1.96-5.24-3.09-10.57-2.56-16.36.8-8.69,5.49-14.91,11.68-20.26,3.16-2.73,7.04-4.41,11.36-4.37,7.52.06,15.08-.25,22.53.53,16.32,1.7,31.92,6.18,46.3,14.28,15.48,8.72,24.22,20.13,31.03,40.34,3.18-7.45,4.59-14.9,5.98-22.39,1.95-10.55,3.1-21.12,2.42-31.86-.53-8.45-2.99-16.16-8.19-22.97-7.38-9.65-14.75-19.32-21.95-29.11-4.33-5.89-7.81-12.25-9.89-19.37-2.77-9.48-1.73-18.74.95-27.97,3.46-11.9,10.29-21.9,17.98-31.37.49-.6,1.43-.84,2.76-1.58.13,3.86-1.78,6.19-2.94,8.7-3.36,7.26-6.77,14.47-8.44,22.4-3.28,15.52.92,28.71,11.44,40.35,7.5,8.29,14.6,16.95,21.86,25.45,8.02,9.39,12.1,20.19,12.79,32.59,1.2,21.86-4.03,42.37-12.04,62.4-.25.64-.89,1.12-1.35,1.67-1-1.41-2.07-1.93-3.7.09l3.77-.18h.06ZM111.43,177.65c-.43,4.76-1.3,7.95-.88,10.97,1.71,12.48,7.99,22.14,18.81,28.78,10.04,6.16,21.17,8,32.65,8.52,7.5.34,15.05.24,22.5,1.03,10.76,1.15,21.45,2.92,32.32,4.45,1.88-3.44,3.19-7.87,8.03-8.91-2.89-3.05-5.77-5.68-10.33-6.49-13.8-2.45-27.56-5.18-41.21-8.33-15.37-3.55-30.36-8.45-44.55-15.48-6.32-3.13-12.43-6.63-17.35-14.54h0ZM265.94,244.4c1.23,1.32,1.74,2.15,2.48,2.62,17.57,11.06,36.2,19.63,56.65,23.86,8.11,1.68,16.31,2.56,24.56,1.51,4.3-.55,8.62-1.43,12.71-2.83,3.57-1.22,7.85-2.53,8.52-7.02.7-4.65-3.3-6.88-6.46-8.88-3.86-2.44-8.09-4.46-12.4-5.97-9.93-3.48-20.31-4.56-30.78-4.29-13.36.34-26.71,1.12-40.07,1.5-4.79.14-9.6-.3-15.23-.5h.02ZM251.68,250.53c17.63,18.8,34.41,30.63,57.61,37.24,6.73,1.92,13.61,3.75,20.55,4.45,10.22,1.04,19.51-2.96,28.46-7.46,1.26-.63,2.08-2.15,3.59-3.77-3.54.17-6.18.36-8.82.41-6.07.1-12.2.71-18.2.08-11.89-1.25-23.18-5.07-34.16-9.72-14.4-6.09-27.66-14.12-39.99-23.7-1.88-1.46-3.49-3.51-6.74-2.94-.73,1.73-1.54,3.65-2.29,5.42h0ZM219.73,215.08c-7.24-14.25-17.32-23.31-30.07-29.62-13.9-6.88-28.81-9.97-44.09-11.11-5.96-.45-12.28-1.76-19.39,1.6,5.82,3.05,10.54,6.01,15.61,8.1,24.19,9.98,48.47,19.72,72.73,29.52,1.24.5,2.58.76,5.2,1.5h0ZM290.71,409.65c6.26,3.35,12.56,4.69,17.91,3.58,4.55-.94,8.87-2.65,12.34-5.88,4.73-4.39,5.61-13.18,1.96-18.1-3.1-4.19-8.32-4.36-15.06-.4-1.67.98-3.31,2.08-4.73,3.39-5.22,4.82-9.65,10.25-12.43,17.4h.01ZM308.06,231.29c-15.14-1.54-44.35,1.5-53.23,5.68,3.23,4.24,7.68,3.59,11.97,2.75,13.96-2.75,27.89-5.68,41.26-8.42h0ZM239.84,240.28c.45-2.19.77-3.98,1.2-5.75.88-3.61-.38-6.36-3.74-7.18-2.08-.5-4.3-.47-6.46-.5-2.19-.04-4.58,0-5.65,2.38-1.18,2.63-.85,5.34,1.15,7.44,3.77,3.96,4.88,6.88,13.5,3.6h0ZM211.51,235.27c1.85.29,3.44,3.56,5.79.91-1.93-.3-3.86-.61-5.79-.91ZM230.94,222.23c0-.07.02-.15.03-.22-.39-.09-.77-.23-1.16-.26-.16-.02-.34.17-.51.26.55.08,1.1.15,1.64.23h0Z"/>
    <path class="cls-1" d="M248.15,227.9c-2.17-1.21-4.04-2.24-6.15-3.41,3.22-14.98,8.52-28.96,15.72-42.15,5.09-9.31,13.35-15.55,23.14-19.14,9.53-3.5,19.51-5.74,29.19-8.83,5.76-1.84,11.4-4.11,17-6.41,17.18-7.05,27.79-20.72,36.3-36.43,4.86-8.96,9.66-17.95,14.49-26.93-.34-.17-.78-.6-1.14-.54-17.11,2.62-33.4-1.34-49.26-6.94-20.83-7.35-41.45-15.28-62.05-23.24-8.37-3.23-16.78-9.52-22.15-15.48,1.1-.2,2.02-.66,2.78-.46,6.11,1.54,12.29,2.91,18.26,4.88,20.28,6.69,40.45,13.7,60.72,20.4,11.04,3.65,22.12,7.29,33.36,10.25,5.3,1.39,11.01,1.26,16.55,1.59,1.3.08,2.66-.77,4.64-1.4-1.52-2.72-3.35-4.42-5.32-6.11-8.2-7.02-17.41-12.34-27.13-16.92-20.47-9.63-41.51-17.62-63.5-23.06-14.13-3.5-28.37-6.36-42.92-6.84-5.67-.19-11.66.72-16.39,5.59.27-.93.28-2.09.87-2.74,3.41-3.81,7.9-5.77,12.87-5.84,7.01-.1,14.11-.21,21.03.75,28,3.87,54.97,11.48,80.76,23.18,9.95,4.51,20.27,8.26,29.31,14.54,4.78,3.32,9.37,6.92,14.05,10.38,3.27,2.42,4.32,5.72,3.82,9.64-.18,1.44-.14,2.95-.52,4.33-3.99,14.49-8,28.95-13.62,42.94-9.51,23.7-27.1,38.1-51.14,44.94-9.29,2.65-18.94,4.08-28.46,5.88-10.57,2.01-20.18,5.79-26.6,14.94-3.05,4.35-5.67,9.07-7.92,13.89-3.68,7.89-6.89,15.99-10.62,24.75h.03Z"/>
    <path class="cls-1" d="M213.4,339.83c2.55.68,3.62.66,4.24,1.18,3.94,3.24,7.9,6.48,11.63,9.95,2.73,2.53,4.29,5.79,4.8,9.58,1.26,9.41-1.56,15.21-9.73,20.12-6.24,3.74-13.18,5.44-20.18,5.3-28.01-.54-52.83-9.67-73.28-29.22-6.64-6.34-10.87-14.1-11.39-23.7-.49-9.04,3.36-15.84,10.6-20.23,11.37-6.9,23.71-8.08,36.4-3.59,3.36,1.19,5.7,3.39,7.34,8.43-7.47-4.2-14.23-4.37-21.15-3.57-5.18.6-9.92,2.28-14.29,5.01-7.15,4.47-9.06,10.26-5.94,18.12,2.8,7.07,8.13,12.09,14.21,16.23,15.93,10.85,33.48,17.61,52.72,19.45,5.78.55,11.65.33,17.28-1.77,5.82-2.17,7.99-4.86,6.73-11.02-.9-4.41-3.09-8.59-5-12.73-1-2.17-2.63-4.05-4.97-7.54h-.02Z"/>
    <path class="cls-1" d="M355.96,104.57c-3.28,1.35-6.52,2.79-9.83,4.04-3.14,1.19-5.87,2.54-8.5,5.01-3.79,3.56-9.09,4.35-14.34,2.91-1.63-.45-3.29-1.05-4.7-1.95-4.05-2.58-7.87-2.4-12.36-.67-10.48,4.04-21.05,2.31-31.38-.98-2.86-.91-5.35-1.59-8.34-.31-6.89,2.94-13.3,1.03-19.39-2.61-.21-.12-.4-.27-.61-.4-3.97-2.33-7.91-2.42-11.82-.28-1.93-1.86-1.5-3.8-.23-5.81,3.12-4.94,9.01-7.43,15.33-5.64,4.15,1.18,8.42,2.82,11.87,5.31,5,3.62,9.99,5.61,16.24,4.86,3.06-.37,6.26.61,9.4.68,6.14.15,12.09-.7,17.63-3.71,5.85-3.18,11.6-2.79,17.25.84,3.04,1.95,6.31,3.54,9.7,5.41,6.86-6.48,14.39-10.24,24.12-6.72l-.04.02Z"/>
    <path class="cls-1" d="M298.95,136.93c-2.12-3.51.03-4.84,1.73-5.99,1.13-.76,2.71-1.14,4.11-1.17,8.93-.21,17.87-.18,26.8-.46,1.7-.05,3.1.15,3.42,1.66.26,1.23-.05,2.99-.82,3.95-2.62,3.3-6.42,4.25-10.4,3.79-3.82-.44-7.68-1.07-11.35-2.19-4.55-1.38-8.92-1.42-13.5.42h.01Z"/>
    <path class="cls-1" d="M155.99,289.09c9.24-19.8,27.59-34.23,42.27-33.61-5.61,3.32-10.86,5.91-15.51,9.3-4.86,3.55-9.22,7.8-13.68,11.88-4.44,4.06-8.72,8.28-13.07,12.43h0Z"/>
    <path class="cls-1" d="M254.28,152.1c1.02-.82,1.85-1.99,2.42-1.87,6.67,1.38,13.31,2.94,20.16,4.51-5.63,8.98-15.12,7.87-22.58-2.64h0Z"/>
  </g>
  <g>
    <path class="cls-1" d="M523.43,283.38c.38.82,1.12,1.69,1.03,2.46-.1.85-.85,1.72-1.49,2.42-11.09,12.07-15.78,26.92-19.34,42.51-3.86,16.89-9.75,33.06-20.93,46.79-4.97,6.1-10.63,11.4-17.37,15.43-13.65,8.16-27.4,7.3-40.74-.55-21.94-12.91-28.02-35.15-19.8-57.97,5.09-14.12,13.9-25.65,25.19-35.13,16.12-13.55,33.69-24.81,54.3-30.49,10.18-2.81,20.47-4.09,30.92-1.54,2.78.68,5.5,1.59,7.79,2.26,3.37-2.21,6.54-4.29,10.15-6.66-1.65-8.27-4.08-16.62-7.93-24.46-.98-2-3.21-3.49-5.09-4.92-5.41-4.1-11.29-7.65-16.33-12.16-6.06-5.43-13.18-8-20.8-9.78-7.33-1.71-14.66-3.39-22.01-4.99-6.88-1.5-12.62-5.13-17.58-9.87-6.92-6.61-12.48-14.18-15.86-23.32-2.78-7.5-6.16-14.78-9.29-22.15-1.48-3.49-2.63-7.04-2.59-10.96,1,.08,1.71-.03,1.81.17,2.18,4.31,4.18,8.72,6.46,12.98,3.2,6,6.65,11.86,9.91,17.83,4.17,7.62,9.87,13.92,17.02,18.72,3.14,2.11,6.89,3.76,10.59,4.48,6.17,1.2,12.52,1.46,18.78,2.16,12.84,1.44,24.3,5.24,33.66,15.17,9.08,9.65,14.59,21.15,19.98,32.82,1.68,3.64,1.78,8,2.58,12.04.46,2.33.86,4.66,1.4,7.6,3.78-.95,6.98-1.75,10.52-2.63-.96-4.74-1.63-9.03-2.71-13.21-2.84-11.02-5.99-21.97-8.77-33-2.38-9.49-.7-18.55,5.12-26.3,4.5-5.98,9.47-11.83,15.14-16.67,11.12-9.48,16.8-21.65,20.15-35.41,1.84-7.54,4.35-14.91,6.2-22.44,1.38-5.66,2.16-11.47,3.25-17.21.39-2.05.03-4.43,2.79-6.32.99,1.23,2.51,2.28,2.79,3.59,1.11,5.2,2.45,10.47,2.53,15.73.1,6.76-.76,13.56-1.52,20.31-.57,5.07-1.71,10.08-2.44,15.14-2.02,14.1-8.58,25.65-19.27,34.94-3.12,2.71-6.12,5.56-9.33,8.17-9.06,7.36-13.93,17.29-17.31,28.1-1.4,4.48-1.46,8.91.23,13.54,1.9,5.22,3.22,10.68,4.45,16.11,1.01,4.45,1.51,9.02,2.31,14.04,1.88,1.1,4.73,2.15,6.66,4.1,1.72,1.74,2.42,4.48,3.45,6.56,5.32-.39,10.83-1.26,16.31-1.08,7.9.25,15.1,3.07,21.89,7.23,9.92,6.07,19.44,12.99,30.57,16.76,4.78,1.62,9.87,2.92,14.88,3.18,7.8.41,14.76-2.83,15.66-13.41.94-11.07-3.24-19.86-12.47-25.36-15.09-8.99-31.4-13.12-48.85-7.83-10.45,3.17-20.69,7.02-31.03,10.52-1.26.43-2.62.58-4.12.34,12.99-10.52,25.72-21.63,43.55-22.21,6.47-.21,13.07.71,19.46,1.91,9.65,1.8,18.42,6.1,26.56,11.47,6.89,4.55,11.77,10.85,14.02,18.95.9,3.26,1.68,6.56,2.5,9.76,4.03-12.09.4-26.38-9.14-34.53-12.34-10.54-26.5-14.67-42.66-11.75-7.13,1.29-14.37,1.95-21.56,2.93-7.15.98-13.45,4.08-19.34,8.05-5.65,3.81-11.13,7.86-16.77,11.7-1.88,1.28-3.52,3.62-6.98,1.94,4.23-6.08,9.74-10.63,15.2-15.17,3.18-2.64,6.69-4.88,9.94-7.44,4.31-3.4,9.22-5.46,14.49-6.57,9.72-2.04,19.42-4.39,29.25-5.62,19.52-2.45,35.89,4.07,48.56,19.2,4.67,5.58,6.46,12.48,6.95,19.61.26,3.85-.16,7.76-.35,11.63-.28,5.8-2.35,10.86-6.28,15.17-1.63,1.79-3.34,3.58-4.6,5.63-6.23,10.12-15.8,12.14-26.58,11.01-11.95-1.25-22.16-6.84-31.9-13.39-6.05-4.07-11.91-8.41-18.02-12.38-7.13-4.64-14.96-6.66-23.55-5.82-3.34.33-6.18.69-7.31,4.49-.79,2.65-3.16,2.14-5.25,1.45-.22,1.35-.57,2.09-.42,2.72,3.98,16,8.16,31.94,11.98,47.98,2.24,9.42,4.21,18.93,5.77,28.48,1.5,9.18,4,17.96,8.01,26.34,4.3,8.97,8.47,18.01,12.66,27.04.15.33-.12.86-.28,1.85-4.56-2.07-7.83-5.43-10.92-9.04-10.21-11.94-14.91-26.07-15.77-41.46-.76-13.56-2.1-27.03-4.98-40.29-1.95-8.97-4.57-17.79-6.93-26.66-1.11-4.16-2.31-8.3-3.56-12.77-2.88,1.41-5.23,2.56-8.19,4.02,1.16,4.07,2.32,7.95,3.36,11.86,1.62,6.08,3.46,12.11,4.66,18.28,3.1,16,7.53,31.63,12.66,47.06,5.22,15.71,2.76,31.18-1.26,46.61-.1.37-.69.61-1.65,1.4-.4-2.5-.92-4.67-1.07-6.86-.67-9.42-1.02-18.87-1.92-28.27-.45-4.79-1.69-9.52-2.77-14.24-3.2-13.94-5.67-27.98-7.26-42.21-.88-7.83-3.21-15.5-4.82-23.26-.68-3.29-1.21-6.61-1.85-10.18-2.62-.21-4.96-.4-7.31-.6-2.28-2.15-4.46-4.4-6.88-6.37-.52-.42-1.89.19-2.86.32-1.19-.2-2.44-.72-3.57-.54-11.77,1.85-23.44,4-33.52,11.05-22.05,15.42-37.91,35.73-48.93,60.2-4.07,9.03-2.94,17.38.26,26.05.86,2.32,2.35,3.43,4.73,3.92,6.66,1.38,12.52-.56,17.91-4.21,7.56-5.12,13.29-11.92,18.04-19.71,6.64-10.89,9.91-23.11,14.21-34.92,5.15-14.17,12.39-26.82,24.49-36.26,2.23-1.74,4.22-3.78,6.32-5.68l-.03-.05ZM425.23,375.57c.36-4.48-.07-8.05,1.02-11.07,3.53-9.78,7.05-19.63,11.6-28.96,12.63-25.87,33.11-43.3,59.78-53.7,7.05-2.75,14.12-5.16,21.92-3.93,1.53.24,3.21-.5,5.01-.82-3.26-4.49-4.46-5.29-10.44-5.47-8.28-.25-16.44.61-24.32,3.4-23.45,8.3-43.09,22.28-59.56,40.68-8.04,8.98-13.54,19.51-15.1,31.77-1.34,10.56,1.47,19.63,10.08,28.1h.01ZM531.29,272.48c.27,1.24.41,2.19.68,3.09,2.01,6.91,6.26,8.95,12.57,5.89,4.34-2.1,8.61-4.38,12.84-6.7,2.44-1.33,2.59-4.37.29-6.05-2.22-1.62-4.78-2.27-7.52-1.51-6.04,1.67-12.07,3.37-18.86,5.27h0Z"/>
    <path class="cls-1" d="M532.13,303.6c-.84,2.69-1.36,5.54-2.58,8.05-4.46,9.15-9.2,18.17-11.59,28.16-.62,2.59-1.52,5.12-2,7.73-1.88,10.29-3.5,20.63-5.5,30.9-1.9,9.77-3.78,19.58-6.34,29.19-4.83,18.16-12.53,35.13-22.4,51.11-7.02,11.37-14.11,22.7-22.91,32.81-8.24,9.47-17.38,17.75-30.02,20.89-14.44,3.58-27.46,1.32-38.23-9.66-9.5-9.69-11.64-24.58-5.26-36.36,4.33-8,13.11-12.11,21.43-9.89,7.48,1.99,10.67,7.68,12.79,15.77-2.19-1.33-3.55-2.07-4.83-2.94-3.47-2.34-7.28-3.25-10.98-1.12-4.22,2.42-6.7,6.48-6.87,11.32-.29,8.2,5.62,15.45,13.68,17.66,8.26,2.26,16.06,1.05,22.95-3.8,4.93-3.47,9.88-7.29,13.71-11.88,16.57-19.85,30.58-41.4,40.22-65.49,3.32-8.29,5.6-17.04,7.93-25.69,4.37-16.15,8.09-32.49,12.72-48.56,4.22-14.66,12.64-27.08,22.36-38.62.57.14,1.14.27,1.71.41h.01Z"/>
    <path class="cls-1" d="M567.67,308.32c2.18.82,4.44,1.46,6.51,2.49,9.11,4.52,16.33,11.34,22.57,19.2,7.11,8.95,14.05,18.03,20.95,27.14,9.16,12.1,19.37,23.08,32.41,31.13,7.41,4.57,15.04,8.69,23.36,11.62,1.98-3.9,3.65-7.65,5.71-11.17,6.25-10.68,14.8-18.7,27.16-21.64,10.11-2.4,19.09,0,26.9,7.09,7.89,7.16,8.42,18.89,3.27,27.36-6.36,10.46-16.47,14.97-27.98,16.16-7.87.81-15.89.14-23.87.13-.51,14.16,15.27,28.44,29.95,24.62,5.54-1.44,9.75-4.17,12.3-9.34.96-1.95,1.78-4.03,3.05-5.76.56-.76,2.26-1.3,3.14-1.01.78.26,1.52,1.78,1.58,2.78.08,1.41-.31,2.92-.82,4.26-3.38,8.87-13.87,16.21-23.36,15.75-8.37-.4-16.37-2.28-22.41-8.94-2.93-3.23-6.62-5.88-9.03-9.42-2.54-3.74-4.73-8.06-5.68-12.44-.85-3.93-2.71-5.69-6.03-7.27-7.22-3.42-14.45-6.89-21.32-10.96-14.72-8.71-26.02-20.95-35.19-35.29-7.07-11.06-14.26-22.05-21.47-33.03-4.99-7.6-11.34-13.92-18.71-19.23-1.28-.93-2.37-2.12-3.55-3.2.19-.35.37-.7.56-1.05v.02ZM685.82,403.41c9.14,2.54,17.49,3.19,25.88.98,5.22-1.37,10.05-3.54,13.55-7.99,4.35-5.53,3.48-11.82-2.29-15.69-7.6-5.1-14.92-3.06-21.8,1.27-7.68,4.84-12.13,12.26-15.35,21.43h0Z"/>
    <path class="cls-1" d="M583.64,81.64c.12-2.83-1.12-4.81-3.96-5.21-4.31-.6-8.67-1.42-12.98-1.27-13.89.46-27.36,3.73-40.79,6.98-15.56,3.77-31.17,7.44-46.54,11.91-14.01,4.07-27.49,9.69-40.16,17.08-5.72,3.33-10.99,7.16-14.65,13.09,1.43,3.36,4.56,4.33,7.65,4.54,7.96.54,16,1.36,23.93.82,24.52-1.66,48.61-6.07,72.16-13.15,13.33-4,26.13-9.19,37.55-17.37,1.44-1.03,2.87-2.83,5.37-1.29-12.27,14.61-26.59,26.26-44.81,32.2-25.29,8.24-51.41,12.28-77.93,13.37-8.69.36-17.54.1-25.69-3.87-1.52-.74-3.09-1.44-4.47-2.4-7.21-5.02-8.56-12.18-3.92-19.66,4.13-6.65,10.12-11.3,16.9-14.63,9.14-4.49,18.5-8.64,28.07-12.09,22.46-8.1,45.84-12.63,69.31-16.61,10.5-1.78,21.08-3.33,31.68-4.21,6.9-.57,14.05-1.05,20.63,2.45,4.06,2.16,5.19,4.01,4.13,8.04-.13.48-1.05.76-1.61,1.13l.12.16h0Z"/>
    <path class="cls-1" d="M547.96,405.98c-11.98,4.43-20.49,12.23-27.91,21.37-1.66,2.04-2.99,4.41-4.15,6.79-2.96,6.04-1.06,10.35,5.64,11.9,5.43,1.26,11.01,2.45,16.55,2.56,18.59.37,36.78-1.92,53.92-9.82,10.26-4.73,19.41-11.05,27.42-18.99,1.88-1.86,3.64-3.97,4.94-6.26,3.13-5.51,1.48-10.48-4.29-13.26-5.54-2.67-11.41-3.95-17.62-3.72-4.7.18-9.41,0-14.14-.69,11.62-4.99,23.48-7.76,35.87-3.82,11.08,3.52,15.21,15.17,9.36,25.36-3.32,5.79-8.07,10.29-13.09,14.53-20.5,17.29-44.37,25.49-70.99,26.29-8.01.24-16.03.64-23.9-1.23-3.51-.83-7.08-1.89-10.28-3.51-9.18-4.64-11.45-12.97-6.25-22.03,5.09-8.86,12.58-15.38,21.12-20.67,3.49-2.16,7.3-3.88,11.13-5.39,1.84-.72,4.08-2.04,6.68.59h0Z"/>
    <path class="cls-1" d="M509.63,162.96c4.26-2.1,8.29-4.28,12.47-6.1,4.86-2.12,9.73-4.36,14.82-5.75,6.39-1.75,12.42.82,18.29,3.12,2.62,1.03,5.07,2.5,8.3,4.13-4.49,1.9-8.21,1.66-11.85.8-9.5-2.26-18.16-.59-26.38,4.68-3.64,2.33-7.67,4.17-11.7,5.77-4.9,1.95-9.59,1.26-13.24-2.85-3.99-4.5-8.56-5.08-14.38-4.04-8.52,1.52-17.22,3.15-25.95.82-7.71-2.06-15.44-4.04-23.13-6.18-1.08-.3-1.98-1.26-3.49-2.27,4.92-3.67,10.18-3.63,15.36-3.85.72-.03,1.46.1,2.16.28,12.19,3.08,24.58,2.27,36.87,1.37,7.5-.55,13.24,1.64,18.1,7.06.79.89,1.87,1.52,3.75,3.02h0Z"/>
    <path class="cls-1" d="M660.02,338c-.58-3.1.42-4.91,2.66-5.89,2.26-.99,4.53-1.43,6.97-.03,4.87,2.81,6.94,8.84,4.38,14.65-2.12,4.79-5.47,8.54-10.59,10.49-8.38,3.2-16.16,2.15-23.47-2.92-8.33-5.78-14.65-13.42-20.21-21.77-7.3-10.97-15.23-21.44-25.79-29.53-6.98-5.35-14.7-9.37-23.25-11.7-.84-.23-1.59-.79-3.71-1.9,2.34-.5,3.36-.95,4.33-.88,14.58,1.11,26.38,8.24,36.4,18.14,6.88,6.8,12.82,14.6,18.84,22.22,5.15,6.52,10.53,12.74,17.3,17.63,4.52,3.26,9.33,5.14,15.01,3.64,3.49-.92,6.11-2.95,7.9-6.02,2-3.44,1.04-5.59-2.8-6.22-1.17-.19-2.41.04-3.96.08h-.01Z"/>
    <path class="cls-1" d="M583.52,81.48c-.25.24-.51.48-.76.71.06-.17.08-.44.2-.5.19-.09.45-.05.68-.06l-.12-.16h0Z"/>
  </g>
</svg>