<?xml version="1.0" encoding="UTF-8"?>
<svg id="Layer_1" data-name="Layer 1" xmlns="http://www.w3.org/2000/svg" version="1.1" viewBox="0 0 333.73 841.89">
  <defs>
    <style>
      .cls-1 {
        fill: #000;
        stroke-width: 0px;
      }
    </style>
  </defs>
  <path class="cls-1" d="M274.75,425.81c-5.47-20.97-12.81-41.48-23.18-60.66-8.55-15.82-18.35-30.78-24.79-47.95-7.96-21.25-13.95-42.8-15.71-65.16-1.8-22.84-1.45-45.87-1.53-68.82-.02-6.73,1.27-13.56,2.74-20.18,2.34-10.51,4.69-21.11,8.21-31.26,4.51-12.99,3.09-24.51-5.76-34.96-6.07-7.17-6.26-15.32-4.75-23.94,1.45-8.29,3.68-16.58,3.84-24.9.14-7.04-1.34-14.42-3.62-21.13-3.12-9.15-9.79-14.51-20.27-13.61-9.16.78-18.32,1.63-27.5,1.9-10.26.3-16.36,4.16-20.38,13.79-4.75,11.38-6.98,23.48-4.74,35.39,2.13,11.34,1.14,20.8-4.94,30.91-6.49,10.79-5.58,22.56,3.45,32.28,3.71,3.99,4.77,8.24,4.32,13.21-.94,10.39-1.94,20.78-3.04,31.16-1.1,10.38-1.62,20.89-3.67,31.09-4.89,24.3-10.23,48.53-15.95,72.65-5.12,21.58-12.12,42.45-24.98,60.97-21.26,30.64-36.83,64.15-47.42,99.8-4.77,16.06-8.24,32.61-10.86,49.17-2.76,17.44-4.12,35.12-5.51,52.74-2.63,33.3-4.9,66.64-7.19,99.97-.44,6.43-.3,12.9-.41,19.36-.27,14.12-.65,28.23-.79,42.35-.23,23.21,6.33,44.31,19.63,63.41,3.15,4.52,6.04,9.61,7.42,14.87,2.31,8.82,7.35,15.67,14.6,20.01,16.86,10.07,34.34,19.16,53.27,24.84,22.03,6.6,44.62,3.18,67.01,3.13.77,0,1.53-.46,2.3-.68,15.01-4.31,30.01-8.62,45.03-12.9,10.58-3.02,20.06-8.1,28.88-14.64,7.74-5.74,15.8-11.04,23.56-16.74,6.25-4.6,11.4-10.01,13.35-18.02,3.6-14.77,8.34-29.27,8.39-44.75.06-17.75.63-35.5.83-53.24.14-12.5.41-25.03-.08-37.51-.68-17.26-2.43-34.49-3-51.75-.74-22.16-3.26-44.13-7.53-65.78-5.58-28.31-11.95-56.49-19.23-84.41ZM193.38,25.93c.61.03,1.19.63,1.78.98-.62.3-1.23.6-1.85.9-.59-.35-1.17-.7-1.76-1.06.61-.3,1.23-.85,1.83-.82ZM175.73,23.52c1.17.61,2.59,1.97,2.7,3.12.18,1.77-.65,3.65-1.58,7.89-2.22-3.76-3.2-5.02-3.74-6.45-.49-1.29-.52-2.76-.75-4.16,1.14-.17,2.54-.84,3.36-.41ZM159.33,32.26c.32-.11,1.92,1.74,1.75,2.38-.42,1.63-1.16,3.59-2.43,4.47-.99.69-2.84.16-4.37.08.06-1.53-.31-3.39.45-4.4.98-1.3,2.93-1.98,4.6-2.54ZM121.75,328.87c11.3-22.95,16.07-47.89,20.29-72.71,3.83-22.51,7.51-45.21,7.05-68.26-.2-10.07.31-20.15.31-30.23,0-7.52-.32-15.03-.49-22.37,9.88,1.04,20.11,3.41,31.91-3.71-4.82-1.05-7.63-2.19-10.43-2.18-8.48.03-15.58-3.58-22.37-7.96-9.73-6.28-12.52-17.01-2.22-25.84,2.77-2.37,5.16-3.29,8.63-2.2,13.32,4.15,24.46.7,32.98-10.29,2-2.59,4.23-2.32,6.28-1.52,1.4.55,2.89,2.5,3.17,4.03,1.31,7.38,4.31,13.86,9.68,19.02,7.31,7.03,7.96,15.42,5.5,24.46-3.16,11.56-7.1,22.94-9.68,34.62-2.41,10.89-4.63,22.06-4.89,33.15-.47,20.49-.39,41.09,1.21,61.51,1.67,21.21,7.42,41.76,14.94,61.73.83,2.22,1.46,4.51,2.3,7.13-20.49,13.93-34.39,33.65-48.1,54.98-4.49-3.4-8.74-5.78-11.89-9.17-11.24-12.09-22.04-24.58-33.16-36.78-2.25-2.47-2.42-4.52-1-7.41ZM94.91,802.49c.3-.37.61-.74.91-1.11.63.59,1.25,1.19,1.88,1.78-.18-.01-.36-.02-.53-.06-.76-.17-1.5-.4-2.25-.61ZM98.81,804.17c-.07-.08-.11-.19-.16-.29.28.18.57.37.86.55-.24-.08-.57-.1-.7-.26ZM245.43,591.3c-1.31,14.42-2.26,28.87-3.54,43.29-.64,7.19-2.22,14.33-2.46,21.52-.21,6.37,1.01,12.78,1.3,19.18.2,4.38-.12,8.78-.22,14.08-6.87.72-13.94,1.53-21.04,2.19-6.14.57-11.5,2.64-16.03,7-4.94,4.75-9.88,9.54-15.22,13.8-12.95,10.33-27.83,9.15-42.56,5.69-5.71-1.34-11.06-4.65-16.23-7.66-2.59-1.5-5.36-3.97-6.39-6.64-3.34-8.65-9.92-9.51-17.67-8.75-5.98.59-11.98.98-17.97,1.37-1.6.1-3.24.03-4.83-.23-8.05-1.29-9.55-2.88-9.02-11.04,1.05-16.06,2.95-32.09,3.45-48.17.45-14.44-.79-28.93-.76-43.4.01-7.2,1.04-14.42,1.88-21.6.91-7.75,8.43-13.39,16.24-12.42,3.18.4,6.34,1.46,9.49,1.38,7.43-.19,14.97-1.49,18.49-8.98,6.21-13.2,18.54-16.72,30.62-21.16,11.06-4.07,21.27-.86,31.7,2.35,12.99,4,23.57,11.44,28.8,23.92,5.23,12.5,14.77,15.91,26.65,16.58,2.01.11,4.02.09,7.98.16-1.02,6.62-2.15,12.04-2.65,17.52ZM234.45,377.74c-5.61,7.34-11.13,14.76-16.69,22.14-2.42,3.21-5.08,6.26-7.27,9.62-6.6,10.1-5.97,19.31,1.2,29.37,7.93,11.12,15.59,22.43,23.22,33.76,2.19,3.25,3.89,6.84,4.91,8.67-7,7.66-13.2,14.45-19.35,21.18-11.63-9.02-22.96-17.65-34.1-26.54-2.8-2.23-5.02-5.21-7.39-7.94-5.9-6.81-8.33-6.73-13.16,1.29-5.58,9.27-10.75,18.8-16.14,28.19-6.13,10.69-9.36,11.43-19.54,4.39-2.64-1.83-5.21-3.8-7.58-5.96-3.54-3.25-6.87-6.74-10.76-10.59,8.88-14.99,17.63-29.81,26.44-44.59,1.44-2.41,3.21-4.62,4.65-7.03,1.6-2.68,1.3-4.66-1.11-7.34-15.05-16.72-29.66-33.83-44.67-50.59-2.9-3.24-2.09-5.58-.12-8.45,5.22-7.62,10.4-15.27,16.19-23.76,10.55,12.95,20.15,25.31,30.42,37.08,4.69,5.37,10.37,10.06,16.21,14.19,7.68,5.42,12.41,4.56,18.92-2.56,2.69-2.94,4.79-6.43,7.12-9.7,10.91-15.37,21.81-30.74,33.55-47.29,5.79,11,10.66,20.88,16.16,30.4,2.71,4.68,1.84,8.23-1.1,12.08Z"/>
</svg>