<?xml version="1.0" encoding="UTF-8"?>
<svg id="Layer_1" data-name="Layer 1" xmlns="http://www.w3.org/2000/svg" version="1.1" viewBox="0 0 288.31 841.89">
  <defs>
    <style>
      .cls-1 {
        fill: #000;
        stroke-width: 0px;
      }
    </style>
  </defs>
  <path class="cls-1" d="M194.22,113.4c-.58,34.73-4.13,69.73-6.22,104.28-.95,15.75,3.13,30.62,12.54,43.59,4.36,6.02,9.76,11.33,13.75,17.56,7.05,11.01,15.01,21.84,19.7,33.87,12.24,31.42,20.21,64.11,25.08,97.56,7.37,50.6,6.93,101.47,5.83,152.37-.66,30.31-2.1,60.6-2.45,90.91-.37,32.7-3.15,65.36-11.22,96.78-10.57,41.15-37.74,74.06-84.7,78.01-19.33,1.63-38.82,1.63-58.07,3.84-42.61,4.9-85.76-38.37-87.41-81.42-1.14-29.7-3.35-59.4-3.48-89.1-.26-60.11-.11-120.24,1.18-180.34.82-38.22,3.05-76.45,12.78-113.81,6.72-25.78,17.12-49.47,33.81-70.55,9.19-11.6,17.7-24.05,24.53-37.16,10.74-20.61,13.77-42.71,11.7-66.29-2.99-34.04-7.65-68.12-1.84-102.57,2.55-15.09.86-30.85,1.76-46.27,1.28-22.02,7.87-28.4,29.91-28.09,11.32.16,22.69,1.72,33.9,3.53,13.1,2.11,21.78,9.89,24.05,23.26,1.91,11.21,3.5,22.55,4.18,33.89.71,12,.87,24.05.67,36.14ZM163.35,593.36c-.2,0-.39,0-.59,0,0,27.46.56,54.95-.18,82.39-.56,21.06-5.82,40.66-23.39,54.88-25.88,20.94-57.13,28.16-91.67,5.13-1.63-1.09-2.63-3.11-3.92-4.7,2.01-.65,4.34-2.31,6-1.81,18.86,5.74,36.24-.88,53.49-6.61,21.9-7.27,33.59-23.12,34.22-46.24,1.43-53.17,2.79-106.34,3.5-159.53.22-16.67-4.11-32.76-11.17-48.03-7.24-15.65-18.49-24.02-36.43-22.79-15.42,1.06-30.78.43-45.78-4.42-7.93-2.56-8.39-2.08-8.6,6.54-.99,40.61-2.62,81.23-2.47,121.84.17,47.48,1.77,94.96,3.12,142.42.42,14.81,1.59,29.64,3.18,44.38,2.94,27.28,36.33,61.04,65.11,57.62,16.95-2.01,34.37.32,51.46-.92,41.97-3.06,67.23-22.85,78.22-68.65,6.61-27.52,9.2-56.42,10.1-84.8,1.71-53.77.45-107.63,1.29-161.44.64-40.76-1.47-81.29-11.37-120.8-9.12-36.38-17-73.63-46.34-101.35-10.84-10.24-18.25-24.12-18.5-39.58-.33-20.54,1.11-41.11,1.79-61.66.05-1.64.09-3.28.13-4.92-1.93.51-4.13.58-5.74,1.6-14.2,8.99-29.33,7.87-44.71,4.42-8.69-1.95-8.88-1.79-7.66,6.59,4.19,28.86,2.87,57.25-10.71,83.59-7.04,13.66-15.07,27.22-24.9,38.94-28.77,34.28-35.43,75.82-41.35,117.84-.8,5.66,1.31,8.85,7.34,8.57,13.08-.59,26.32-.16,39.19-2.11,28.32-4.28,49.3,5.25,62.85,30.57,9.03,16.87,14.13,35.02,14.42,54.16.4,26.28.1,52.58.1,78.87ZM114.83,68.12c-.15,0-.3,0-.45,0,0,7.43-.11,14.87.03,22.3.21,11.61,2.23,14.66,13.44,15.1,7.74.31,16.25-.35,23.25-3.33,25.63-10.88,29.06-18.11,24.61-45.72-3.04-18.86-15.31-28.41-34.69-27.27-3.2.19-6.53-.24-9.68-.93-10.83-2.37-15.3-.04-16.32,10.72-.91,9.63-.19,19.41-.19,29.13ZM133.52,167.77c.11.48.22.96.33,1.44,9.37-2.16,18.82-4.01,28.09-6.55,13.8-3.78,15.35-6.37,14.14-20.34-.31-3.6-1.33-5.09-5.16-3.09-17.6,9.18-35.79,11.05-54.54,3.75-2.43-.95-4.28-1.35-4.68,2.04-1.65,13.82,4.68,21.66,18.39,22.73,1.14.09,2.29.01,3.43.01ZM176.47,114.43c.54-11.3-.64-12.53-9.24-7.68-16.08,9.06-32.45,13.06-50.55,6.75-4.84-1.69-6.06,2.6-5.19,6.01.75,2.92,2.78,6.94,5.16,7.74,7.37,2.48,15.25,5.27,22.78,4.91,9.47-.46,18.78-4.01,28.19-6.06,6.67-1.45,9.74-5.31,8.85-11.66Z"/>
</svg>