<?xml version="1.0" encoding="UTF-8"?>
<svg id="Layer_1" data-name="Layer 1" xmlns="http://www.w3.org/2000/svg" version="1.1" viewBox="0 0 288.31 841.89">
  <defs>
    <style>
      .cls-1 {
        fill: #000;
        stroke-width: 0px;
      }
    </style>
  </defs>
  <path class="cls-1" d="M36.35,790.41c-.65-2.51-1.59-4.99-1.89-7.55-.86-7.33-1.54-14.68-2.15-22.04-.88-10.72-1.51-21.46-2.46-32.17-1.07-12.04-2.37-24.05-3.57-36.08-.03-.34-.03-.67-.05-1.01-.8-14.79-1.88-29.57-2.33-44.37-.98-32.34-1.89-64.69-2.38-97.04-.74-48.55-1.65-97.11-1.46-145.65.14-37.24,11.21-71.49,32.21-102.44,8.31-12.25,16.72-24.48,21.97-38.49,4.4-11.75,6.68-23.36,5.06-36.38-1.64-13.2.05-26.86.67-40.3.4-8.72,1.56-17.4,2.25-26.11.86-10.73,1.49-21.48,2.4-32.2,1.09-12.72,2.48-25.41,3.56-38.12,1-11.79,1.29-23.21-5.46-34.13-8.78-14.19-4.35-32.73,7.38-43.25,4.33-3.89,8.4-7.46,15-2.69,2.78,2,7.79,1.22,11.78,1.18,8.67-.1,16.63,2.31,24.01,6.53,11.34,6.49,13.26,11.14,10.62,23.93-.34,1.64-.75,3.26-1.17,5.03,7.43,5.75,10.82,14.16,12.74,23.05,1.56,7.19,2.55,14.64,2.61,21.99.27,29.02.27,58.04-.04,87.06-.1,9.05-1.72,18.08-2.22,27.14-.65,11.81,0,23.51,3.48,34.98,2.21,7.28,5.63,13.56,11.18,18.85,5.37,5.11,10.94,10.18,15.4,16.04,14.5,19.04,23.29,40.88,28.77,63.95,5.36,22.55,8.24,45.55,10.67,68.62,2.67,25.38,6.36,50.65,9.32,76,1.21,10.35,1.92,20.78,2.47,31.19,1.57,29.93,2.97,59.86,4.37,89.8.75,16.15.89,32.34,2.15,48.45,1.95,24.95-1.06,49.79-.86,74.69.09,10.73-1.32,21.47-1.94,32.21-.15,2.56-.85,5.44,2.86,6.64,1.01.32,2,1.95,2.26,3.14,2.5,11.54,3.98,28.95-10.03,37.22-6.37,3.75-12.73,7.58-19.4,10.73-17.72,8.37-36.26,14.45-55.77,16.59-8.99.99-18.19.35-27.29.06-7.72-.24-15.42-.99-23.12-1.61-12.74-1.03-25.37-2.34-37.25-7.77-12.04-5.5-21-14.32-28.28-25.05-1.22-1.8-1.63-4.16-1.39-7.1,4.46,3.66,8.88,7.35,13.37,10.97,9.4,7.58,19.92,11.84,32.13,13.17,12.48,1.36,24.77,1.59,37.21.11,5-.59,10.11-.41,15.17-.3,15.76.35,30.69-3.29,45.11-9.28,9.62-3.99,19.23-8.06,28.62-12.56,9.31-4.46,16.78-11.15,21.7-20.1-1.97-12.15-3.96-24.02-5.8-35.92-1.74-11.27-3.33-22.57-4.98-33.86-.97-6.64-2.22-13.25-2.85-19.92-1.07-11.38-2.01-22.79-2.56-34.21-1.53-31.61-2.48-63.26-4.33-94.85-1.43-24.5-3.57-48.97-5.95-73.4-2.06-21.05-5.04-42.01-7.37-63.04-1.71-15.37-2.85-30.8-4.57-46.16-2.78-24.84-8.23-48.97-19.24-71.64-5.08-10.47-12.1-19.5-20.09-27.68-10.56-10.81-14.77-23.76-15.18-38.39-.09-3.03-.07-6.08,0-9.11.27-10.43.51-20.66-3.63-30.79-2.33-5.71-2.73-12.53-2.66-18.84.17-15.13.98-30.26,1.81-45.38,1.25-22.87,3.76-45.68,2.44-68.63-.11-1.88-.66-3.73-1.27-7.01-6.55,5.61-13.32,5.68-20.51,5.36-7.87-.34-15.79.72-24.48,1.21,3.34,12.53,2.23,25.89,1.76,39.14-.66,18.81-2.58,37.58-3.57,56.39-1.19,22.53-3.99,45.06-2.25,67.64,1.88,24.41-6.42,45.65-18.86,65.76-6.91,11.16-14.42,21.95-21.21,33.18-12.75,21.1-19.11,44.07-21.04,68.71-2.74,35.05-1.5,70.1-1.36,105.15.13,34.04.21,68.14,2.11,102.11,2.68,47.89,1.24,95.75,1.01,143.63-.07,14.97-1.56,29.93-2.4,44.9-.32.05-.65.1-.97.15ZM96.66,15.37c-5.82,6.54-8.38,13.56-7.97,21.69.39,7.66,2.54,10.35,10.19,10.96,5.35.43,10.84-.5,16.15.14,10.69,1.29,16.81-5.22,22.77-12.29,2.04-2.42,1.86-4.84-.29-7.23-4.21-4.68-9.59-7.54-15.53-8.86-8.13-1.81-16.43-2.9-25.3-4.42Z"/>
  <path class="cls-1" d="M59.22,598.34c-1.05-19.5-1.72-39.03-3.29-58.49-.83-10.33-3.36-20.51-4.87-30.79-2.29-15.65-4.53-31.34-.6-47.08,5.25-21.02,17.88-35.31,38.96-40.99,14.92-4.01,30.2-6.42,45.76-6.27,10.8.1,21.6-.02,32.39.29,4.66.13,9.39.72,13.93,1.75,5.49,1.25,10.13,4.44,12,9.86,2.07,5.98,3.99,12.24,4.48,18.49,1.13,14.43,1.78,28.92,1.83,43.39.05,16.33,4.22,31.88,7.48,47.64,4.35,21,8.95,41.98,12.4,63.14,1.73,10.57,1.43,21.6-1.72,32.09-4.05,13.5-12.25,23.36-26.71,25.98-11.21,2.03-22.58,3.15-33.91,4.46-6.34.73-12.75,1.69-19.08,1.41-19.14-.85-38.27-2.01-57.37-3.51-15-1.18-22.78-12.23-22.72-24.87.06-12.15.01-24.3.01-36.45.34-.01.68-.03,1.02-.04ZM174.6,420.71c-5.44.61-10.73,1.41-16.06,1.76-13.4.88-26.88,1.01-40.21,2.5-10.94,1.23-21.94,3.32-32.02,8.14-14.6,6.99-22.35,19-23.77,34.93-1.2,13.47.22,26.82,2.92,40.08,5.56,27.36,9.31,54.94,9.28,82.93,0,9.44-.04,18.88-.06,28.31,0,4.72-.15,9.44.05,14.15.27,6.38,1.64,8.08,7.76,10.06,2.22.72,4.53,1.46,6.83,1.59,17.79,1,35.58,2.17,53.38,2.67,14.45.4,28.88-.32,43.25-2.47,13.56-2.02,21.13-11.7,21.89-21.63.87-11.38,1.4-23.07-.25-34.29-2.66-18.18-7.04-36.13-11.03-54.11-4.01-18.06-7.53-36.11-6.8-54.77.34-8.75.29-17.54-.09-26.28-.56-12.75-3.33-24.71-15.1-33.58Z"/>
  <path class="cls-1" d="M192.24,595.72c-6.31,12.62-8.33,13.38-21.94,9.23-6.28,8.61-13.51,15.4-25.09,7.92-1.66,2.34-2.86,4.33-4.35,6.09-8.41,9.91-17.56,8.2-21.74-4.31-1.9-5.7-2.79-11.74-4.19-17.61-.61-2.57-1.34-5.11-2.45-9.35-3.92,8.54-7.37,15.36-6.53,23.54.15,1.5-.51,3.37-1.41,4.62-.88,1.23-2.57,2.6-3.88,2.58-1.29-.02-3.01-1.46-3.71-2.74-.92-1.68-1.67-3.91-1.36-5.71,1.7-9.9,2.69-19.99,7.05-29.25,2.33-4.94,4.58-10.08,11.22-10.14,6.96-.06,9.95,4.99,12.22,10.38,1.76,4.16,2.86,8.6,4.73,14.41,1.53-3.99,2.58-6.68,3.59-9.39,1.06-2.83,1.78-5.83,3.16-8.49,4.62-8.88,13.31-9.37,19.05-1.19.76,1.09,1.28,2.35,1.88,3.5.69.08,1.48.43,1.91.18,11.45-6.68,18.87-4.29,23.52,8.05,1.47,3.9,2.5,7.65,8.31,7.67Z"/>
  <path class="cls-1" d="M155.02,519.83c11.84-2.54,14.27-1.46,20.52,9,3.97,6.64.74,14.35-7.02,14.36-4.33,0-7.5,1.37-11.18,2.67-5.41,1.93-10.41-.3-14.35-2.77-3.92,4.91-7.07,9.74-11.09,13.69-5.54,5.45-12.33,5.35-17.92-.19-4.24-4.19-7.75-9.11-12.46-14.75-.94,6.07-1.71,10.96-2.69,17.27-2.04-2.25-3.31-3.19-3.99-4.45-2.88-5.33-2.68-11.21-1.6-16.77,1.65-8.51,10.39-11.3,17.01-5.54,4,3.48,7.33,7.72,11.27,11.96,4.54-2.74,5.28-7.68,7.13-11.74,1.8-3.95,3.08-8.18,4.13-12.4,1.28-5.15,4.37-8.64,9.36-9.45,5.23-.85,8.73,2.5,11.21,6.88.47.83,1.13,1.55,1.66,2.25Z"/>
  <path class="cls-1" d="M137.11,493.28c-5.67,3.89-12.01,6.71-19.11,2.05-5.71,7.6-8.85,18.67-22.29,13.11-.37,1.06-.54,2.24-1.13,3.15-2.05,3.15-4.9,3.39-5.78.31-1.08-3.79-1.65-7.86-1.58-11.8.12-6.69,1.06-13.36,1.36-20.05.19-4.22,1.91-6.97,6.21-8.33,9.2,3.23,4.56,13.14,9.26,19.07,1.58-3.57,3.21-7.02,4.65-10.55,1.85-4.52,4.06-8.6,9.65-9.04,5.4-.42,7.48,3.62,9.97,8.01,7.95-3.52,15.35-2.56,22.03,3.44,2.62,2.36,5.83,2.9,9.37,1.3,1.34-.61,3.19-.1,4.94-.1-4.5,12.58-11.64,15.04-27.57,9.44Z"/>
</svg>