<?xml version="1.0" encoding="UTF-8"?>
<svg id="Layer_1" data-name="Layer 1" xmlns="http://www.w3.org/2000/svg" version="1.1" viewBox="0 0 473.86 539.5">
  <defs>
    <style>
      .cls-1 {
        fill: #000;
        stroke-width: 0px;
      }
    </style>
  </defs>
  <path class="cls-1" d="M373.2,475.05c21.68-4,35.27-17.88,41.04-37.95,13.45-46.77,18.35-94.45,14.51-143.29-2.18-27.8-.46-55.9-.48-83.87,0-12.68-.75-25.42.25-38.03,1.34-16.95,3.95-33.81,6.27-50.68.19-1.35,2.31-2.43,3.54-3.64,1.05,1.33,2.54,2.51,3.03,4.02.57,1.74.53,3.8.31,5.67-5.33,45.72,2.2,91.31,1.58,137.02-.36,26.57,5.11,53.19,5.38,79.82.34,33.09-4.55,65.84-13.7,97.8-6.89,24.08-21.38,42.66-44.62,51.39-23.04,8.67-47.32,14.14-71.19,20.5-21.55,5.74-42.87,2.25-63.95-3.2-18.39-4.75-36.74-9.65-55.05-14.68-1.62-.44-2.85-2.28-4.26-3.47,1.45-.62,2.93-1.81,4.35-1.75,8.88.36,17.74,1.24,26.62,1.51,24.14.73,48.28,1.28,72.42,1.8,1.85.04,3.72-.7,5.58-1.08-1.91-.62-3.78-1.38-5.73-1.83-27.82-6.3-55.65-12.55-83.47-18.86-2.47-.56-4.97-1.2-7.27-2.24-10.55-4.78-13.01-10.69-8.54-21.28,1.71-4.06,4.18-7.83,6.54-11.58.57-.91,2.51-2.01,3.06-1.69,1.31.75,3.15,2.39,3.04,3.49-1.13,11.39,6.65,13.32,15.11,14.93,26.17,4.99,52.31,10.18,78.5,15.07,4.3.8,8.97,1.3,13.19.5,36.71-6.9,38.66-10.21,42.03-44.87,2.77-28.47,6.01-56.77,11.97-84.78,2.61-12.27,2.04-13.03-9.99-14.93-8.02-1.27-16.37-.69-24.57-.55-4.41.07-8.8,1.23-13.22,1.33-1.55.04-4.47-1.63-4.45-2.47.06-2.24.77-5.74,2.28-6.42,5.15-2.33,10.66-4.67,16.2-5.17,10.74-.98,21.65-1.46,32.4-.78,13.87.88,20.35,8.21,20.93,22.18.24,5.7-.14,11.46-.65,17.16-2.23,25.29-5.43,50.52-6.66,75.86-.85,17.47-6.53,33.3-11.98,49.41-.45.34-.89.69-1.34,1.03.32-.47.65-.94.97-1.4Z"/>
  <path class="cls-1" d="M215.02,268.42c10.06-.97,25.25-2.35,40.41-3.91,22.75-2.34,45.52-4.47,68.21-7.32,14.26-1.79,19.33-6.42,21.68-19.92,3.67-21.13-2.41-40.25-13.9-57.89-3.81-5.85-9.31-4.78-15.29-4.35-15.84,1.14-31.74,1.42-47.62,1.83-1.24.03-2.53-1.6-3.79-2.46.76-.97,1.36-2.58,2.3-2.81,18.43-4.5,36.73-9.92,55.42-12.82,11.66-1.82,16.73,3.87,20.33,17.02,5.86,21.38,11.73,42.75,17.29,64.21,6.73,25.94-2.81,40-29.62,44.11-6.83,1.05-16.27-.42-19.76,3.5-3.03,3.4.51,12.81,1.41,19.52,1.6,11.94,2.7,24.02,5.3,35.75,3.18,14.39-1.91,25.93-12.85,33.42-37.5,25.66-77.35,46.66-123.24,52.75-19.99,2.65-31.97-4.86-37.55-24.2-4.73-16.39-7.45-33.39-10.64-50.2-3.44-18.06-4.95-36.62-9.94-54.22-5.62-19.82,3.35-29.13,21.5-35.36,1.19-.41,2.53-.37,3.75-.71,16.01-4.53,18.97-10.56,17.58-27.54-1.39-16.98-1.12-34.12-.91-51.19.1-8.41,5.07-14.05,13.15-16.9,24.3-8.57,49.34-11.67,74.99-10.18,1.1.06,2.17.85,3.25,1.3-1.16,1.37-2.08,3.61-3.5,3.99-16.51,4.5-33.1,8.72-49.67,13-2.46.63-4.99,1.02-7.39,1.8-16.15,5.26-16.9,5.98-17.32,22.49-.34,13.36-.39,26.75.02,40.11.78,25.59,3.54,27.84,36.43,27.16ZM299.48,300.07c5.53-11.58,1.27-12.97-5.98-12.43-15.8,1.18-31.61,2.37-47.43,3.03-17.74.73-35.51,1.31-53.26,1.11-10.5-.12-19.78-4.27-26.2-13.22-2.17-3.02-4.56-8.94-6.17-8.71-4.01.57-7.62,3.91-11.39,6.14-1.09.65-2.22,1.25-3.25,1.97-12.53,8.8-12.16,8.71-8.24,22.94,5.2,18.86,9.76,37.9,14.61,56.86,2.82,11.03,5.21,22.2,8.62,33.05,4.7,14.97,8.58,17.38,23.6,14.71,38.1-6.77,71.43-25.15,104.62-43.76,6.05-3.39,8.2-8.71,8.32-15.84.28-16.38,1.49-32.73,2.16-45.85Z"/>
  <path class="cls-1" d="M247.17,121.61c39.52-1.16,79.01-1.31,117.72-9.92,17.24-3.84,33.99-9.97,50.82-15.5,4.12-1.35,8.05-3.97,11.44-6.77,12.68-10.46,13.31-18.24-.26-27.03-14.23-9.23-30.04-16.6-46.03-22.37-18.99-6.86-38.92-11.1-58.41-16.6-1.59-.45-2.91-1.84-4.36-2.79,1.33-.88,2.85-2.71,3.98-2.5,31.06,5.93,62.94,8.59,92.24,21.68,9.18,4.11,18.48,8.92,26.12,15.32,15.4,12.91,15.31,26.51,1.43,40.85-12.44,12.85-28.52,19.56-45.16,23.32-24.04,5.43-48.51,10.17-73.03,12.02-35.44,2.68-71.18,4.46-106.65,3.09-54.51-2.11-109.09-5.85-162.46-18.59-9.8-2.34-19.76-5.42-28.58-10.15-15.6-8.38-16.99-20.78-3.16-31.56,9.36-7.31,20.29-13.23,31.38-17.58,33.17-13.01,67.54-21.08,103.08-25.48,41.31-5.12,82.62-3.99,123.85-2.46,34.2,1.27,68.17,6.87,100.68,18.58,10.72,3.86,21.81,7.57,28.41,17.95.81,1.28,0,3.6-.07,5.44-1.54-.26-3.51,0-4.54-.86-17.32-14.6-38.93-18.39-59.94-22.26-59.16-10.92-118.73-10.45-178.5-4.84-35.07,3.29-68.84,11.13-101.56,23.71-10.61,4.08-20.94,9.19-30.75,14.94-8.73,5.12-8.2,10.67,1.27,14.7,8.12,3.46,16.71,6.55,25.39,7.84,30.74,4.55,61.52,9.12,92.43,12.05,30.98,2.94,62.14,3.92,93.22,5.76Z"/>
  <path class="cls-1" d="M33.26,228.4c-1.55,61.29-3.19,108.93-3.72,156.58-.2,17.69,1.68,35.47,3.54,53.12,2.31,21.92,14.66,36.43,36.02,41.59,14.66,3.54,29.83,5.04,44.81,7.13,6.25.87,12.62.82,18.91,1.44.75.07,1.91,1.74,1.86,2.6-.05.88-1.34,2.37-2.15,2.41-20.77,1.11-40.95,6.46-62.41,2.95-37.21-6.09-54.69-31.62-55.6-62.41-1.36-45.65,1.29-91.41,1.86-137.13.54-43.16,7.14-86.15,2.68-129.47-1.43-13.83-.34-27.94-.12-41.91.02-1.44,1.98-2.84,3.03-4.26,1.18,1.08,3.13,2,3.4,3.28,1.32,6.2,2.74,12.47,3.12,18.77,2.01,32.96,3.71,65.94,4.77,85.32Z"/>
  <path class="cls-1" d="M71.11,339.57c0,22.25.03,44.49-.06,66.74,0,1.75-.81,3.49-1.24,5.23-.81-1.65-2.01-3.23-2.35-4.97-2.55-13.02-6.53-26.01-7.03-39.13-1.05-27.2-5.55-54.21-2.05-81.75,3.35-26.37,3.63-53.14,5.26-79.73.16-2.54-.32-5.34.6-7.55,1.83-4.4,4.9-12.24,6.62-12.02,7.05.89,4.53,7.88,4.4,12.3-.67,22.82-2.36,45.62-2.86,68.45-.53,24.13-.12,48.29-.12,72.43-.39,0-.78,0-1.17,0Z"/>
</svg>