<?xml version="1.0" encoding="UTF-8"?>
<svg id="Layer_1" data-name="Layer 1" xmlns="http://www.w3.org/2000/svg" version="1.1" viewBox="0 0 853.85 539.5">
  <defs>
    <style>
      .cls-1 {
        fill: #000;
        stroke-width: 0px;
      }
    </style>
  </defs>
  <path class="cls-1" d="M816.65,186.8c-32.64,5.05-65.16,11.18-97.96,14.79-24.71,2.72-49.88,4.06-74.66,2.71-34.15-1.86-68.2-6.31-102.16-10.66-23.51-3.01-46.8-7.71-72.28-12.01-6.41,26.1-.44,52.94-2.55,79.3-2.23,27.94-3.93,55.97-7.68,83.71-3.57,26.4-9.5,52.49-16.93,78.88-9.8-14.9-13.34-31.64-13.88-48.02-1.68-50.96-4.92-101.95,4.06-152.82,4.46-25.24,5.18-51.13,7.76-78.54-10.9,0-20.12-1.23-28.91.19-70.91,11.5-142.16,18.14-214.08,18.15-45.36,0-87.34-6.75-128.69-28.24-9.37,53.73-20.52,107.47-27.51,161.75-3.8,29.52-6.09,60.16,4.33,89.72,7.8,22.13,19.71,38.73,45.31,41.07,6.11.56,11.98,3.75,18.09,4.27,26.93,2.3,53.89,4.27,80.86,6,67.39,4.33,134.8,8.46,202.8,16.65-5.81,2.28-11.46,5.2-17.46,6.65-6,1.45-12.36,1.42-18.56,2.03-19.64,1.92-39.31,5.67-58.9,5.33-29.05-.52-58.1-3.38-87.04-6.28-30.94-3.1-61.78-7.23-92.61-11.26-10.22-1.34-20.44-3.22-30.43-5.79-38.17-9.82-51.06-25.59-54.65-65.1-.65-7.11-1.82-14.48-4.45-21.04-17.26-43.11-18.1-87.21-7.37-131.61,9.48-39.25,20.99-78.01,30.8-117.18,6.32-25.2,23.47-38.79,46.75-45.42,14.88-4.24,30.38-7.61,45.76-8.51,95.27-5.55,188.74,6.34,280.67,31.17,12.9,3.48,25.37,8.68,37.77,13.75,3.25,1.33,7.9,5.29,7.78,7.84-.91,18.31,10.24,16.73,22.29,14.64,47.63-8.26,95.35-5.53,143.09-1.09,33.1,3.07,66.25,5.68,99.32,9.04,18.57,1.89,37.22,3.96,55.44,7.82,8.76,1.85,16.94,7.51,24.66,12.55,2.56,1.67,2.86,6.81,4.19,10.37-3.45.86-7.18,3.03-10.31,2.37-49-10.33-98.64-13.62-148.56-15.06-32.21-.93-64.36-4.87-96.54-4.97-27.85-.09-55.71,3.33-83.98,10.52,17.5,4.18,34.83,9.49,52.55,12.27,22.54,3.53,45.36,6.16,68.15,7.17,66.59,2.93,133.22,4.83,199.83,7.2,5.83.21,13-2.14,15.09,6.7l.79-.99ZM96.11,103.35c21.08,17.51,44.87,17.81,66.53,19.8,48.51,4.46,97.34,5.86,146.07,7.35,40.52,1.24,81.09.84,121.64,1.11,7.35.05,15.21.48,16.19-9.83,1.1-11.48-8.28-10.06-14.78-11.08-27.54-4.3-55.28-7.39-82.7-12.31-58.48-10.49-117.4-12.57-176.59-11.32-25.64.54-50.03,6.33-76.37,16.29Z"/>
  <path class="cls-1" d="M815.86,187.79c6.34-5.9,15.19-17.96,18.57-16.59,12.05,4.9,6.98,18.2,5.47,27.27-5.19,31.23-3.19,61.97.27,93.19,6.22,56.18-5.89,111.16-14.49,166.24-.67,4.29-4.12,9.86-7.82,11.64-13.92,6.73-28,15.22-42.87,17.53-67.24,10.44-135.16,9.51-202.77,5.56-27.5-1.6-56.13-6.73-79.87-23.3-8.93-6.23-15.78-15.71-22.6-24.48-1.47-1.89.14-8.51,2.42-10.32,2.32-1.84,8.6-2.03,10.78-.18,29.07,24.81,64.48,26.83,99.89,27.89,63.58,1.91,126.79-3.35,189.96-10.19,13-1.41,26.56,2.36,41.61,3.93.8-4.55,2.39-8.39,1.98-12.01-3.51-30.93-8.79-61.72-10.7-92.73-1.66-26.92-.77-54.15,1.11-81.09,1.95-27.88,6.46-55.59,9.84-83.37,0,0-.79.99-.79.99Z"/>
  <path class="cls-1" d="M386.84,318.59c3.28,29.5-10.88,44.91-36.43,54.83-27.1,10.52-53.85,21.4-83.57,20.75-23.58-.52-37.5-12.17-38.68-35.05-.77-14.9-4.85-28.12-10.21-41.78-10.49-26.71-1.61-47.7,26.4-56.1,35.81-10.73,73.11-13.65,110.59-10.9,10.89.8,16.88,8.47,19.56,17.59,4.9,16.66,8.3,33.76,12.33,50.67ZM371.31,347.54c-4.44-22.45-8.5-43.59-12.85-64.68-2.49-12.04-8.69-16.53-19.96-13.1-22.75,6.91-45.12,15.09-67.88,21.99-13.75,4.17-20.25,13.88-23.06,26.72-1.77,8.07-2.57,16.41-3.2,24.67-1.75,23.07,5.34,30.72,28.27,26.4,33.27-6.26,66.14-14.64,98.69-22.01Z"/>
  <path class="cls-1" d="M642.35,438.9c-15.57,0-31.17.56-46.72-.13-21.69-.96-30.63-10-29.38-31.03,1.34-22.67,3.67-45.34,6.9-67.82,3.08-21.46,11.33-28.63,33.59-27.59,27.85,1.31,55.62,4.55,83.38,7.45,4.97.52,9.73,3.34,14.52,5.25,11.52,4.59,18.38,11.37,17.35,25.58-1.35,18.6.03,37.37-.54,56.05-.21,6.85,9.91,13.65,1.74,19.59-7.24,5.27-16.15,9.14-24.9,11.19-8.94,2.1-18.57,1.42-27.91,1.64-9.34.22-18.69.05-28.03.05v-.24ZM704.68,343.09c-34.55-1.57-66.96-3.05-101.45-4.62,0,13.74.43,24.05-.12,34.3-.59,10.94-2.1,21.84-3.53,35.97,37.75,1.3,73.52,2.53,112.32,3.86-2.93-14.82-5.91-25.61-6.99-36.59-1.07-10.96-.24-22.1-.24-32.93Z"/>
  <path class="cls-1" d="M84.18,211.22c8.02-14.27,18.58-11.53,28.62-9.09,35.53,8.62,71.57,11.85,107.98,9.52,21.68-1.39,43.9-1.79,64.75-7.08,46.93-11.92,90.19-2.24,135.29,17.99-5.07,2.66-9.17,6.8-12.42,6.22-37.54-6.75-74.2,2.98-111.12,5.83-60.21,4.65-120.05,8.32-178.62-11.02-11.38-3.76-22.57-8.07-34.49-12.36Z"/>
  <path class="cls-1" d="M789.79,245.7c-28.64,29-62.73,38.66-101.21,33.54-57.37-7.62-114.7-15.55-172.05-23.33-1.03-.14-2.39.28-3.06-.24-3.64-2.89-7.9-5.52-10.16-9.3-.67-1.13,4.05-7.83,6.94-8.33,12-2.08,24.41-4.68,36.38-3.65,67.08,5.82,133.81,16.28,201.42,14.71,13.93-.32,27.83-2.23,41.74-3.41Z"/>
</svg>