<?xml version="1.0" encoding="UTF-8"?>
<svg id="Layer_1" data-name="Layer 1" xmlns="http://www.w3.org/2000/svg" version="1.1" viewBox="0 0 443.6 539.5">
  <defs>
    <style>
      .cls-1 {
        fill: #000;
        stroke-width: 0px;
      }
    </style>
  </defs>
  <path class="cls-1" d="M376.35,402.79c6.77-.04,13.67-.97,20.28.04,15.8,2.41,23.91,17.35,17.15,32.3-3.04,6.72-7.88,13.07-13.19,18.26-50.6,49.45-110.28,78.2-182.14,77.26-20.17-.26-40.68-1.16-60.37-5.09-22.09-4.41-30.24-18-23.96-39.31,5.44-18.47,1.58-31.14-11.34-45.41-11.02-12.18-18.08-28.63-24.52-44.17-19.82-47.84-33.1-97.63-43.25-148.42-5.79-28.96-12.03-58.3-22.59-85.71-10.76-27.91-4.95-50.72,14.48-69.37,16.89-16.21,36.28-31.19,57.1-41.67,44.91-22.6,93.46-35.37,143.58-39.5,19.09-1.57,39.36.85,53.82,17.05,1.77,1.98,1.49,5.78,2.16,8.74-2.31.27-5.02,1.48-6.85.68-30.17-13.14-60.01-7.19-89.3,2.34-28.1,9.14-55.98,19.2-83.32,30.39-22.24,9.1-41.17,23.85-56.35,42.57-16.44,20.28-10.89,34.5,15.22,38.13,26.24,3.65,52.45,1.17,78.3-4.58,61.08-13.59,117.8-36.95,168.34-74.5,8.46-6.29,15.66-12.48,17.32-23.75.91-6.19,4.55-9.3,9.47-2.15,1.44,2.09,2.68,6.01,4.18,6.09,22.5,1.3,20.29,17.93,20.43,32.73.47,50.07,1.08,100.15.8,150.22-.11,20.3-3.52,40.59-3.39,60.87.22,35.5,4.36,71.03-1.42,106.45-12.96,13.21-15.02,13.32-22.36-1.85-3.99-8.26-8.44-17.49-8.44-26.28,0-39.79.99-79.6,2.71-119.36.91-21.11,4.03-42.13,6.15-63.19,1.05-10.42-2.63-20.21-12.41-22.24-4.94-1.03-13.25,6.03-17.55,11.42-25.32,31.73-37.25,68.15-34.1,108.79,1.9,24.47,5.52,48.79,7.8,73.24,1.02,10.93,1.48,22.05.63,32.96-.55,7.12-5.64,13.52-13.59,11.86-4.76-1-10.53-5.59-12.38-10.01-2.84-6.79-3.33-14.8-3.72-22.35-1.99-38.06-3.52-76.15-5.43-114.22-1.13-22.6-8.53-43.16-22.33-61.07-7.23-9.38-14.44-9.24-19.59,1.09-5.59,11.22-11.03,23.24-12.88,35.47-6.24,41.4-4.74,82.6,7.87,122.99,4.03,12.89,7.77,25.91,10.87,39.05,3.84,16.29.22,27.15-8.46,28.19-7.9.95-12.53-5.41-17.12-21.62-15.21-53.66-30.39-107.33-46.33-160.78-2.18-7.31-2.78-19.56-13.36-19.21-10.87.36-21.55,5.97-26.03,17.41-2.73,6.97-3.98,14.61-5.17,22.06-1.07,6.68-.2,13.76-1.87,20.23-5.36,20.73-.99,40.33,5.7,59.75,3.86,11.21,9.16,22.02,12.03,33.45,9.34,37.19,28.57,72.25,24.5,112.39-.78,7.65,1.76,13.17,10.53,14.23,8.34,1.01,16.66,3.81,24.92,3.58,15.2-.42,30.34-3.4,45.53-3.69,54.86-1.04,98.97-26.32,139.15-60.61,6.35-5.42,13.49-11.56,16.22-18.87,1.28-3.42-7.35-10.28-10.95-15.92-1.23-1.92-.82-4.88-1.16-7.37ZM356.49,92.48c-26.31,16.65-51.3,36.1-79.21,49.39-64.14,30.55-131.2,50.73-203.78,40.94-7.34-.99-6.07,1.99-4.65,6.74,7.51,25.13,14.73,50.33,22.16,75.48.69,2.35,2.08,4.5,3.14,6.74.53-2.41,1.53-4.82,1.53-7.23,0-26.52,11.11-45.27,36.58-55.14,17.53-6.8,26.41-4.73,35.62,11.96,4.87,8.83,7.73,18.75,11.98,27.95,1.22,2.64,4.11,4.51,6.23,6.73.39-2.5,1.07-4.98,1.14-7.49.54-19.08,6.37-36.66,15.61-53.08,15.21-27.02,34.12-29.42,54.1-6.69,6.1,6.94,11.03,15.04,15.67,23.09,4.82,8.36,5.67,3.49,8.6-1.33,10.09-16.6,19.67-33.74,31.77-48.81,5.76-7.18,16.29-12.79,25.5-14.44,16.99-3.05,17.35-1.62,17.54-17.13.15-12.71,0-25.41-.01-38.12.63-2.06,1.26-4.11,1.89-6.17-.47,2.2-.93,4.41-1.4,6.61Z"/>
</svg>