<?xml version="1.0" encoding="UTF-8"?>
<svg id="Layer_1" data-name="Layer 1" xmlns="http://www.w3.org/2000/svg" version="1.1" viewBox="0 0 685.51 841.89">
  <defs>
    <style>
      .cls-1 {
        fill: #000;
        stroke-width: 0px;
      }
    </style>
  </defs>
  <path class="cls-1" d="M50.36,653.41c-5.98,7.74-9.52,17.05-16.49,24.16-3.38,3.44-7.31,4.42-12,3.87-3.22-.38-5.04-2.26-5.74-4.93-.65-2.46.47-4.96,2.59-6.45,2.8-1.97,5.8-3.67,8.82-5.3,1.71-.93,3.6-1.51,5.43-2.21,4.64-1.78,8.72-4.37,12.18-7.99,1.05-1.1,2.6-1.71,3.92-2.54.43.46.86.92,1.29,1.38ZM37.59,665.82c-5.38,2.8-9.4,4.77-13.27,7.02-.71.41-.78,1.93-1.15,2.93.91.15,1.99.68,2.71.38,4.43-1.87,8.42-4.35,11.71-10.33Z"/>
  <g>
    <path class="cls-1" d="M674.53,47.29c-3.13.91-5.6,2.12-8.15,2.3-12.26.87-24.55,1.32-36.81,2.2-6.6.47-13.16,1.51-19.74,2.3-4.4.52-8.84.86-13.2,1.6-24.21,4.1-48.15,9.32-70.8,19.12-17.9,7.75-34.07,18.51-49.69,30.08-3.15,2.33-6.65,4.47-9.1,7.42-3.71,4.48-6.65,9.6-10.8,15.78,6.49-1.14,11.54-1.41,16.17-2.95,11.18-3.73,22.73-5.79,34.13-8.54,3.33-.8,6.84-1.27,9.89-2.7,4.4-2.06,8.78-.89,13.05-.52,6.58.58,11.33,6.08,11.88,12.93,1.53,18.8-3.88,35.31-16.52,49.4-1.8,2-3.6,4.07-4.98,6.36-1.46,2.41-1.87,5.04.39,7.47,2.05,2.2,5.27,3.43,8,1.89,3.37-1.9,6.56-4.3,9.39-6.95,13.42-12.56,22.75-28.27,33.14-43.19,7.16-10.27,15-20.08,22.76-29.92,7.75-9.82,18.65-12.12,30.4-11.86,6.6.14,13.27.09,19.78,1,7.7,1.07,15.28,3.05,22.89,4.75.79.18,1.43,1.08,2.8,2.18-6.68,2.98-12.67,5.14-19.43,3.65-9.64-2.13-19.47-2.21-29.24-2.19-6.79.01-12.94,2.86-17.72,7.88-2.88,3.02-5.56,6.28-7.97,9.69-4.26,6.01-8.25,12.21-12.59,18.69,10.72,1.95,12.45,11.62,15.52,19.63,1.56,4.07.41,9.19.48,13.83.03,1.96.05,3.92.02,5.88-.04,1.99,1.01,3.1,2.68,4,5.7,3.1,10.69,6.91,13.54,13.05.69,1.48,2.21,2.56,3.66,4.17,5.31-12.11,7.86-23.65,8.58-35.81.55-9.41-.23-18.64-1.32-27.91-.26-2.19-.81-4.57-.24-6.58.54-1.89,2.11-3.76,3.73-4.99,1.26-.95,5.21,1.31,6.13,3.15.43.86.67,1.86.81,2.82,3.22,22.13,1.34,43.57-8.81,63.84-7.42,14.82-19.93,22.69-35.94,24.89-14.87,2.04-29.86,3.19-44.89,2.35-7.3-.41-14.59-1.39-21.85-2.35-13.57-1.79-27.07-3.87-40.78-4.65-18.46-1.04-35.45-7.41-51.53-16.19-6-3.27-12.35-4.6-18.96-5.33-12.38-1.36-24.75-2.77-37.15-3.97-4.86-.47-9.78-.32-14.66-.7-6.57-.5-13.11-1.36-19.68-1.82-3.86-.27-7.86-.63-11.61.06-9,1.66-17.56-3.8-18.38-12.95-.42-4.75.56-9.62.9-14.23-6.49,5.5-9.8,12.49-10.58,23.24-.44,6.16-1.49,12.12-4.12,17.76-1.35,2.9-2.88,5.57-6.92,7.5.54-2.45.63-4.12,1.27-5.55,3.09-6.91,3.32-14.36,3.3-21.62-.03-10.63,4.52-18.37,12.87-24.22,3.02-2.12,5.67-4.06,7.25-7.81,1.34-3.19,4.24-5.97,7.02-8.24,2.71-2.21,6.25-1.42,9.03.28,2.81,1.71,5.21,1.15,8.26.77,12.65-1.58,25.28-3.23,38.18-2.76,11.47.42,22.95,1.91,34.5.7,5.98-.63,11.51-2.17,16.83-4.87,5.24-2.66,10.45-5.46,15.91-7.59,3.36-1.31,5.26-3.32,6.11-6.6,3.31-12.75,11.3-22.7,19.61-32.39,16.06-18.7,37.25-29.33,59.99-37.2,12.51-4.33,25.41-7.42,38.52-9.5,10.18-1.62,20.28-3.94,30.52-4.84,11.22-.98,22.56-.72,33.85-.94,9.57-.18,19.15-.02,28.7-.51,4.83-.25,8.65.49,11.72,6.34ZM334.83,156.45c-.31-.8-.62-1.6-.93-2.4-.17.16-.49.46-.48.47.52.59,1.06,1.16,1.6,1.73.29.76.59,1.51.88,2.27.08-.21.29-.52.22-.62-.39-.51-.85-.97-1.29-1.45ZM324.67,157.27c-4.71,3.44-6.01,8.47-6.32,13.88-.16,2.82-1.35,5.54.32,8.54,2.03,3.64,3.6,4.14,6.28.83,3.09-3.82,4.18-8.13,2.71-12.95-1.06-3.47-2.1-6.95-3.14-10.42.35-.14.7-.28,1.04-.42-.19-.17-.38-.35-.57-.52-.11.36-.22.71-.33,1.07ZM336.94,186.76c13.13,1.09,25.07,1.66,37.05.33,1.94-.22,3.93-.14,5.88,0,11.18.78,22.36,2.06,33.55,2.31,8.83.2,16.9,2.15,24.61,6.33,16.36,8.87,33.76,14.33,52.42,15.3,2.9.15,6.21.44,8.61-.77,1.59-.8,1.89-4.16,2.74-6.38.18-.46.19-.98.4-1.41,1.96-3.9,4.04-7.62,1.71-12.31-.72-1.45.02-3.89.63-5.69,1.1-3.24,2.22-6.59,4.02-9.45,4.97-7.89,10.14-15.66,15.52-23.27,3.74-5.28,6.81-10.85,8.48-17.06,2.03-7.54-1.06-16.04-12.37-14.67-1.68.2-3.37.65-4.94,1.25-5.72,2.2-11.66,3.65-17.32,6.27-6.8,3.14-14.46,4.36-21.71,6.55-13.35,4.03-26.98,7.42-39.36,14-8.78,4.67-18,6.31-27.65,6.36-4.87.03-9.77-.32-14.62-.81-16.82-1.73-33.64-3.12-50.53-.97-1.57.2-3.1.63-4.72.96,4.11,11.45,3.13,22.13-2.41,33.14ZM578.15,150.24c-9.35,9.66-18.16,18.85-27.07,27.95-2.57,2.62-5.1,5.52-8.22,7.28-3.11,1.76-5.36,4.1-7.78,6.54-1.82,1.83-4.23,3.49-6.67,4.21-4.64,1.38-9.47,2.25-14.28,2.89-2.53.34-4.07,1.48-5.18,3.51-.82,1.5-1.55,3.06-2.21,4.64-2.58,6.26-4.68,8.67,4.95,8.35,1.2-.04,2.42.33,3.63.4,8.52.47,17.07,1.59,25.55,1.2,15.21-.71,30.4-2.14,45.56-3.65,8.09-.81,15.56-3.79,22.35-8.36-3.37-6.33-3.77-6.92-11.11-10.37-4.28-2.01-6.43-5.15-6.59-9.73-.07-2.19.02-4.4.27-6.57.93-8.18-.66-15.65-6.3-21.88-1.97-2.17-4.29-4.01-6.9-6.41ZM327.91,148.25c-1.28.11-2.14.16-2.99.29-.07.01-.06.55-.09.85.67.06,1.35.21,2.01.14.26-.03.47-.54,1.07-1.28Z"/>
    <path class="cls-1" d="M311.11,523.2c-9,6.53-19.22,9.3-30.18,10.22-12.74,1.08-25.46,2.09-38.17.22-6.01-.88-11.91-2.47-17.85-3.74-1.19,7.63,1.26,14.8,7.29,19.48,8.56,6.65,16.91,13.48,24.31,21.49,8.46,9.15,11.02,19.87,10.14,31.91-.45,6.06-.43,12.15-.56,18.23-.19,9.05.04,18.18-5.28,26.19-.46.69-1.12,1.26-2.46,2.75,1.1-6.65,2.24-12.05,2.84-17.5.67-6.06.97-12.16,1.23-18.25.32-7.57.35-15.16.68-22.73.19-4.24-1.16-7.64-4.34-10.45-9.77-8.62-19.55-17.24-29.2-26-3.02-2.74-5.62-5.95-8.73-9.28-2.82,1.86-5.13,4.62-6.68,8-4.52,9.88-7.77,20.07-7.78,31.1,0,4.4-.24,8.8-.53,13.18-.11,1.65-.66,3.28-2.09,4.97-1.44-7.91-2.87-15.81-4.36-24.01-.92,6.36-1.89,12.37-2.64,18.4-.61,4.84-.86,9.72-1.46,14.56-.35,2.86-.89,5.76-4.33,7.85-.11-1.34-.32-2.15-.23-2.93,1.86-15.58,3.33-31.15,1.09-46.83-1.16-8.14-4.47-15.05-11.4-19.77-2.19-1.49-4.71-2.58-7.2-3.51-7.32-2.74-13.45-7.32-18.66-12.9-2.58-2.76-4.09-6.62-5.72-10.15-1.31-2.84-2.11-5.93-3.06-8.93-1.7-5.42.38-9.96,4.4-13.13,3.78-2.99,8.17-5.45,12.65-7.26,10.91-4.4,22.52-4.49,34.04-4.04,6.07.23,12.11,1.54,18.15,2.45,1.68.25,3.39.65,4.97,1.28,2.95,1.17,4.92,3.88,3.78,4.46-1.28.65-3.14.36-4.71.19-14.47-1.55-28.91-1.71-43.34.4-6.45.95-12.21,3.52-17.65,6.95-.62.39-1.27.77-1.82,1.26-2.83,2.5-2.63,5,.92,5.93,4.7,1.23,9.59,2.14,14.43,2.36,6.61.29,13.26-.03,19.88-.42,3.4-.2,6.75-1.2,10.15-1.63,1.99-.25,4.04-.09,6.07.51-16.73,7.88-34.13,11.19-52.46,9.13-.31-.16-.62-.31-.92-.47.35.1.7.21,1.05.31.16,3.96,3.42,5.7,5.88,7.92,1.42,1.28,3.31,2.04,5.28,3.2,5.48-6.32,12.89-6.19,20.25-5.52,4.59.42,9.13,1.57,13.66,2.53,4.63.98,9.18,1.62,13.6-.82.55-.3,1.4-.06,2.78-.09-.67,3.82-2.76,5.58-6.16,6.15-4.95.83-9.75.21-14.46-1.45-7.59-2.68-15.37-2.86-23.24-1.58-.95.16-1.9.47-2.79.84-.41.17-.68.67-1.46,1.51,5.04,3.33,9.08,7.7,14.44,10.67,7.86,4.35,13.2,10.83,14.58,20.13.5,3.36,1.57,6.63,2.72,11.37,1.24-8.98,3.87-16.03,7.38-22.85,2.42-4.7,5.16-9.01,9.79-11.63,2.63-1.49,3.18-3.34,2.85-6.07-.71-5.79-.22-11.73-3.95-16.95-2.1-2.94-.73-6.55,1.47-8.86,5.64-5.91,12.49-9.44,21.01-8.26.59.08,1.08.9,1.98,1.71-2.31.88-4.32,1.61-6.3,2.43-2.02.84-4.15,1.55-5.98,2.71-2.61,1.66-6.23,3.07-5.53,6.98.63,3.48,3.86,5.13,6.97,5.84,6.65,1.52,13.37,3.39,20.11,3.63,10.04.36,20.14-.33,30.18-1.03,4.86-.34,9.67-1.62,14.46-2.7,1.89-.42,3.69-1.34,5.44-2.21,6.31-3.12,6.59-3.88,4.37-10.69,5.96,1.38,8.04,3.97,7.28,9.25-.2,1.43-.68,2.82-1.03,4.22,0,0,.18-.22.18-.22Z"/>
    <path class="cls-1" d="M80.04,649.75c-1.05-1.32-2.18-2.58-3.12-3.97-3.08-4.54-3.56-9.43-1.26-14.38,10.14-21.9,47.8-20.86,66.21-14.59,2.72.93,5.5,2.05,7.31,6.13-2.55-.44-4.32-.54-5.95-1.07-10.92-3.58-22.07-4.4-33.4-2.86-8.45,1.15-16.1,4.28-22.45,10.08-6.42,5.86-5.58,11.38,1.99,15.78,6.16,3.58,13.02,4.41,19.79,4.92,7.56.57,15.2.06,22.81-.03,2.98-.04,5.4-.68,7.75-3.24,5.22-5.67,12.2-7.94,19.91-8.05,2.96-.04,5.33.83,6.78,3.46.27.48-.01,1.49-.38,2.02-.24.34-1.51.5-1.62.32-1.37-2.27-3.49-1.54-5.32-1.26-4.96.76-9.41,2.89-13.16,6.15-4.38,3.8-4,7.64.84,10.76,5.48,3.54,11.74,5.02,18.01,6.04,12.32,2.01,24.71,3.51,37.24,3.31.83-.01,1.67.37,2.61,1.68-.98.3-1.95.79-2.96.89-9.31.89-18.62,1.97-27.95,2.47-10.25.55-19.96-2.01-29.02-6.76-5.98-3.13-8.75-7.89-9.07-14.54-7.15,1.36-14.29,2.86-21.49,4.05-12.38,2.03-23.87-.29-34.27-7.48l.2.17Z"/>
    <path class="cls-1" d="M310.93,523.42c1.51.02,2.91.02,3.2,2.11.29,2.12.18,5.11,1.48,6.13,4.96,3.87,6.33,11.23,13.18,13.19,1.84.53,3.51,1.74,5.2,2.72,5.97,3.45,10.3,8.16,11.78,15.15.5,2.37,1.35,4.66,2.44,8.31,3.73-17.1,14.04-27.17,28.69-33.7-2.08.18-4.21.12-6.23.57-9.05,2.02-17.92,1.04-26.71-1.42-2.35-.66-4.69-1.36-7.05-1.97-3.85-1-7.65-1.65-11.38.62-.65.4-1.75.04-3.61.03,4.01-5.27,8.57-6.68,13.94-5.92,2.89.41,5.8.94,8.58,1.82,8.97,2.85,17.97,1.69,26.91.27,4.03-.64,7.91-2.19,12.79-3.6-.87,2.81-1.6,5.15-2.33,7.5-.24,0-.55-.1-.71.01-.51.36-.97.8-1.45,1.21.68-.44,1.36-.89,2.04-1.33,4.91-.7,7.89-3.96,9.59-8.15,1.91-4.73,3.17-9.73,4.63-14.63.61-2.03,1.01-4.11,2.68-6.22.26.95.76,1.92.73,2.86-.18,6.11-.93,12.09-2.67,18.04-2.17,7.41-6.74,12.24-13.49,15.55-4.39,2.16-8.68,4.58-12.8,7.23-6.19,3.98-10.27,9.66-12.76,16.62-3.09,8.62-3.99,17.62-5,26.59-1.15,10.15-2.05,20.33-3.15,31.43-.8-1.45-1.6-2.27-1.69-3.16-.65-6.59-1.17-13.19-2.63-19.73-1.61,8.9-3.23,17.81-4.84,26.71-.31,0-.62.01-.93.02-.18-2.16-.57-4.33-.51-6.49.3-11.23.77-22.46,1.05-33.69.16-6.36.16-12.73.05-19.09-.11-6.61-3.22-11.7-8.43-15.6-1.18-.88-2.31-1.9-3.62-2.54-6.1-3.01-9.91-7.84-11.89-14.27-.28-.91-.91-1.71-1.77-3.28-3.46,11.13-10.53,19.03-18.98,25.63-10.66,8.34-14.73,19.84-16.7,32.49-1.24,7.95-2.29,15.92-3.34,23.9-.32,2.41-.26,4.88-.6,7.29-.15,1.07-.86,2.06-1.75,4.05-3.7-17.78-3.14-34.15,2.59-50.28,2.89-8.14,8.09-14.54,14.47-20.11,3.51-3.07,7.31-5.83,10.64-9.07,6.71-6.53,11.45-14.05,10.54-23.99l-.18.22ZM347.15,572.72c-.1.19-.31.39-.29.57.05.43.2.85.31,1.27.11-.19.33-.4.31-.58-.05-.43-.22-.84-.33-1.26Z"/>
    <path class="cls-1" d="M183.62,777.48c1.74-16.34,2.19-31.81-1.62-47.18-.82-3.32-1.02-6.8-1.83-10.13-2.47-10.12-8.96-17.31-17.41-22.87-5.51-3.62-11.79-6.06-16.41-11.05-1.21-1.31-3.07-.87-3.74.6-1.41,3.08-3.06,6.28-3.42,9.56-.84,7.77-1.3,15.62-1.33,23.44-.07,17.14.21,34.27.36,52-1.04-3.92-2.04-7.43-2.88-10.98-.9-3.8-1.86-7.6-2.43-11.45-2.64-17.88-1.55-35.69,1.45-53.42.96-5.65,2.66-11.07,8.67-13.49-2.05-5.02-5.95-9.19-4.58-15.8,1.05,1.37,1.81,2.03,2.15,2.86,3.59,9,10.13,14.78,19.1,18.18,8.39,3.18,15.85,7.79,21.43,15.06,3.49,4.55,5.96,9.54,7.08,15.18.82,4.07,1.97,8.11,2.36,12.22.34,3.61-.17,7.31-.29,10.97-.17,5.37-.24,10.75-.5,16.12-.38,7.8-.3,15.7-3.98,22.92-.44.86-.99,1.69-1.61,2.43-.26.31-.84.36-1.27.52-.33-5.27-3.11-7.73-7.58-6.28-3.95,1.28-7.85,2.82-10.68,6.19-2.98,3.55-2.77,6.43.85,9.45,4.56,3.8,10.24,5.01,15.75,5.44,10.78.84,21.57.06,31.8-3.92,2.91-1.13,5.72-2.87,8.13-4.87,3.05-2.54,3-4.94-.21-7.26-2.94-2.13-6.35-3.63-9.61-5.29-1.47-.75-3.09-1.21-5.66-2.2,4.29-2.01,7.89-1.05,11.16-.71,3.07.32,6.16,1.7,8.96,3.16,6.78,3.54,8.08,9.8,3.67,16-2.66,3.74-6.28,6.36-10.37,8.03-15.96,6.54-32.39,7.53-48.89,2.51-4.05-1.23-7.93-4.01-11.12-6.91-5.02-4.58-4.96-10.47-.68-15.81,4.45-5.55,10.55-7.8,17.36-8.41,3.41-.31,6.19.92,7.83,5.21Z"/>
    <path class="cls-1" d="M234.19,383.7c2.57,9.03,7.6,15.48,14.41,20.7,3.13,2.4,5.99,5.16,9.21,7.4,4.59,3.19,7.67,7.48,9.96,12.42,5.52,11.85,7.45,24.25,5.63,37.25-1.08,7.7-1.91,15.43-3.87,23.11-.36-4.23-1.28-8.5-.97-12.68,1.12-15.02-1.87-29.28-7.08-43.2-2.53-6.74-7.15-12.03-13.58-14.94-10.94-4.94-15.64-14.38-19.37-24.7-1.24-3.43-1.49-7.28-3.01-10.55-2.46-5.3-.43-9.13,3.27-12.43,5-4.45,10.86-7.41,17.27-9.44,11.05-3.49,22.17-2.97,33.45-1.5,6.98.91,14.08.93,21.12,1.4,5.66.38,11.12,1.56,16.32,3.97,9.21,4.28,9.19,13.96,1.26,19.11-5.7,3.7-12.08,5.61-18.59,6.54-18.81,2.71-37.65,2.72-56.42-.68-2.85-.52-5.68-1.12-9.01-1.79ZM284.46,380.56c6.49-1.19,13.03-2.15,19.44-3.66,3.02-.72,5.95-2.25,8.64-3.87,2.9-1.75,2.91-4.03-.07-5.53-4.79-2.4-9.79-4.45-14.82-6.31-2.93-1.09-6.06-1.95-9.16-2.17-5.59-.4-11.3.35-16.8-.48-8.35-1.25-16.21.66-23.84,3.05-5,1.57-9.61,4.81-13.93,7.95-3.84,2.79-3.34,5.29,1,6.86,3.2,1.16,6.56,2.08,9.93,2.52,13.12,1.71,26.3,2.35,39.61,1.64Z"/>
    <path class="cls-1" d="M215.02,606.9c1.43-.73,2.06-1.35,2.55-1.26,5.01.95,10.26,1.33,14.92,3.2,8.99,3.61,10.75,11.78,4.15,18.9-3.1,3.34-7,6.31-11.1,8.27-14.29,6.84-29.54,8.66-45.16,6.63-3.79-.49-7.63-1.95-11.05-3.73-10.22-5.32-10.81-17.89-5.66-24.66,3.69-4.85,8.27-8.48,13.84-10.62,2.34-.9,5.2-.64,7.8-.48.64.04,1.35,1.75,1.64,2.79.08.28-1.25,1.31-2,1.4-7.89.94-12.38,6.36-15.98,12.54-2.26,3.89-.3,9,3.97,11.28,4.36,2.33,9.06,3.75,14.12,3.51,9.33-.44,18.61-1.13,27.63-3.9,5.74-1.76,10.87-4.47,14.96-8.92,2.24-2.44,2.29-3.43-.14-5.52-2.4-2.07-5.09-3.82-7.74-5.57-1.97-1.29-4.08-2.36-6.75-3.88Z"/>
    <path class="cls-1" d="M311.32,668.57c.67,3.74,3.18,7.29.75,11.32-2.61,4.33-5.97,7.83-10.46,10.14-11.91,6.11-24.8,7.97-37.91,7.51-9.01-.32-18.01-1.86-26.94-3.3-6.81-1.1-13.23-3.52-18.87-7.75-4.9-3.67-7.99-8.35-6.82-14.52,1.29-6.79,5.92-11.23,12.33-13.5,2.24-.79,4.86-.74,7.3-.67.89.03,2.28,1.1,2.5,1.94.38,1.46-.66,1.79-2.22,1.77-4.19-.06-7.41,2.21-9.99,5.24-4.23,4.97-3.74,10.5,1.93,13.67,4.63,2.59,9.85,4.62,15.04,5.59,14.77,2.78,29.73,4.09,44.64,1.25,5.44-1.04,10.62-3.51,15.88-5.45,1.11-.41,2.08-1.28,3.03-2.04,4.24-3.43,6.98-7.45,4.33-14.01,2.41,1.27,4.05,2.14,5.68,3,0,0-.21-.2-.21-.2Z"/>
    <path class="cls-1" d="M383.6,777.42c6.21-1.25,10.62-.14,14.61,2.4,4.45,2.84,6.08,8.36,4.33,13.67-1.61,4.88-5.04,8.29-9.17,11.15-7.58,5.26-16.21,8.24-24.99,10.26-8.26,1.9-16.65,3.84-25.4,2.6-7.72-1.09-14.75-3.3-20.65-8.61-7-6.31-7.34-14.27-2.05-21.72,4.84-6.82,11.56-10.35,21.53-9.23-1.93,1.26-2.83,2.18-3.91,2.5-4.86,1.44-8.92,4.03-11.88,8.12-4.22,5.84-3.23,11.8,2.69,15.9,5.42,3.76,11.68,5.06,18.12,4.99,13.72-.15,26.54-4.04,38.66-10.25,2.56-1.31,4.99-3.18,6.96-5.27,2.88-3.06,2.7-6.9-.31-9.83-2.22-2.15-4.88-3.86-8.54-6.69Z"/>
    <path class="cls-1" d="M314.38,510.97c2.12.3,3.51.4,4.87.69,11.26,2.42,22.61,4.66,34.11,4.58,11.17-.08,21.72-3.41,31.2-9.59,1.21-.79,2.33-1.83,3.22-2.97,1.25-1.61,1.13-3.26-.91-4.21-4.47-2.07-9.1-3.53-14.1-3.7-6.59-.23-13.18-1-19.76-.85-6.62.16-13.29.73-19.79,1.94-5.97,1.11-11.73,3.33-17.59,5.04-.7.2-1.47.46-2.17.35-.88-.13-2.35-.48-2.44-.95-.2-1.05-.09-2.79.59-3.26,1.98-1.36,4.18-2.66,6.48-3.24,11.22-2.82,22.53-4.57,34.23-3.44,6.55.63,13.21.06,19.82.19,5.38.1,10.73.45,15.83,2.54,6.63,2.72,10.87,7.73,3.24,16-4.96,5.38-11.62,8.07-18.33,10.48-18.18,6.52-35.7,4.55-52.59-4.4-1.51-.8-2.9-1.86-4.26-2.9-.49-.37-.76-1.04-1.64-2.32Z"/>
    <path class="cls-1" d="M316.33,219.34c-11.03-2.44-18.61,2.34-25.22,10.21-9.51,11.32-13.52,24.84-16.22,38.9-1.26,6.54-.76,12.99,1.04,19.58,2.4,8.83,1.82,17.99.55,27.03-.37,2.66-1.24,5.28-1.31,7.94-.19,7.73-3.47,13.63-10.54,18.33.57-1.96.97-3.4,1.41-4.83.98-3.25,2.54-6.44,2.85-9.75.71-7.53,1-15.12,1.09-22.69.04-3.39-.55-6.85-1.32-10.18-2.06-8.91-3.43-17.89-1.53-26.94,3.33-15.82,9.03-30.56,20.5-42.5,4.52-4.71,9.77-8.17,16.17-9.63,4.98-1.14,9.53-.63,12.54,4.53Z"/>
    <path class="cls-1" d="M286.44,799.92c5.1-.66,8.65-1.4,12.14.68,7.48,4.45,8.97,13.57,3.09,21.66-4.32,5.93-10.9,8.3-17.42,10.29-12.79,3.9-25.98,4.98-39.25,3.3-5.82-.74-11.48-2.37-16.2-6.34-5.87-4.93-6.53-12.36-1.62-18.17,5.36-6.33,12.42-8.38,20.4-7.85.79.05,1.53.99,2.74,1.83-3.32,1.05-6.06,1.95-8.83,2.8-3.92,1.2-6.93,3.63-9.24,6.93-2.4,3.45-1.99,6.61,1.55,8.82,2.45,1.52,5.26,2.8,8.07,3.35,16.28,3.23,32.12,1.74,47.28-5.26,1.75-.81,3.42-1.94,4.86-3.22,4.19-3.75,4.25-9.8.05-13.53-1.97-1.75-4.35-3.04-7.62-5.28Z"/>
    <path class="cls-1" d="M210.32,699.56c-.5-5-1.38-10.05,2.08-15.84.68,2.47,1.24,3.91,1.47,5.4,1.62,10.44,7.08,18.08,16.48,22.89,1.09.56,2.17,1.17,3.31,1.61,11.92,4.56,19.77,13.58,25.56,24.38,3.23,6.03,4.41,12.85,4.04,19.88-.35,6.6.02,13.23-.41,19.82-.55,8.24-2.26,16.29-5.79,25.17-1.47-3.56-1.35-6.15-1.43-8.66-.15-4.89-.16-9.79-.23-14.69-.12-8.09-.16-16.17-.4-24.25-.47-15.67-9.62-25.66-22.11-33.39-.84-.52-1.68-1.08-2.6-1.39-8.48-2.9-13.8-9.07-17.62-16.84-.73-1.48-1.67-2.84-2.52-4.26l.18.17Z"/>
    <path class="cls-1" d="M257.75,633.74c-2.28.91-4.61,1.93-7.01,2.76-3.62,1.26-6.43,3.56-8.76,6.5-2.93,3.71-2.67,5.63,1.31,8.48,1.38.99,2.95,1.81,4.55,2.36,15.28,5.29,30.61,6.29,45.93.14,1.35-.54,2.75-1.07,3.97-1.85,2.32-1.5,3.07-3.48,2.06-6.29-1.83-5.09-4.68-9.15-9.76-11.38-2.01-.89-4.02-1.8-6.6-2.95,1.02-.76,1.82-1.9,2.61-1.89,10.61.14,17.79,4.89,20.68,13.34,2.4,7.02.87,12.86-5.58,16.3-4.05,2.17-8.52,3.84-12.99,4.89-15.78,3.71-31.22,2.26-45.93-4.63-2.77-1.3-5.55-3.6-7.12-6.17-2.27-3.7-2.03-8.03.43-11.9,4-6.26,14.3-10.41,21.91-8.82.1.02.12.44.29,1.1Z"/>
    <path class="cls-1" d="M382.37,626.35c5.9-3.29,10.75-4.3,15.43-4.69,14.15-1.2,28.34-1.5,42.54-.07,6.34.64,12.74.74,18.69,3.32,2.22.96,4.52,2.01,6.38,3.51,4.47,3.63,4.84,8.4,1.3,12.94-4.13,5.29-9.88,8.25-16.17,9.49-11.4,2.24-22.86,1.38-34.17-1.19-.19-.04-.33-.33-1.02-1.06,1.48-.31,2.65-.61,3.84-.79,8.48-1.27,17.05-2.09,25.4-3.92,4.66-1.02,9.11-3.43,13.37-5.75,3.03-1.64,2.72-3.64-.47-5.4-1.47-.81-3.13-1.36-4.77-1.76-10.73-2.59-21.65-3.85-32.67-4.12-11.96-.29-23.93-.34-37.67-.52Z"/>
    <path class="cls-1" d="M336.81,615.65c-7.16,1.24-13.15,3.85-18.78,7.33-1.45.9-2.91,1.88-4.08,3.1-2.42,2.53-2.3,5.59.56,7.58,1.95,1.36,4.3,2.5,6.63,2.93,14.94,2.81,29.68,2.22,43.97-3.45,1.8-.72,3.64-1.56,5.16-2.74,3.51-2.71,3.63-5.85.16-8.5-2.09-1.6-4.69-2.54-7.1-3.72-1.43-.7-2.91-1.28-4.88-2.14,6.47-2.81,15.03-1.57,18.82,2.29,4.17,4.25,4.24,10.27.3,15.36-3.68,4.76-9.07,6.62-14.42,8.27-13.35,4.11-26.99,4.21-40.68,2.01-4.91-.79-9.45-2.61-13.06-6.23-4.36-4.37-4.83-10.3-.22-14.22,7.4-6.31,15.92-10.43,26.06-9.74.31.02.58.67,1.54,1.87Z"/>
    <path class="cls-1" d="M308.59,335.82c13.82-4.34,27.56,3.68,35.13,16.77,3.94,6.82,6.53,14.22,6.85,22.26.48,12,1.08,24,1.56,36,.48,11.74,3.86,22.58,9.91,32.61.5.83.95,1.69,1.37,2.56.09.17-.04.45-.16,1.36-1.42-1.14-2.74-1.96-3.76-3.07-8.78-9.47-14.12-20.61-15.01-33.5-.87-12.46-.88-24.99-1.65-37.46-.27-4.34-1.21-8.76-2.63-12.87-4.51-13-12.72-21.88-27.32-23.13-1.16-.1-2.28-.79-4.3-1.54Z"/>
    <path class="cls-1" d="M311.54,668.77c-.1-2.06.75-3.69,2.92-3.15,10.19,2.56,20.52.85,30.77,1.13,12.99.35,25.09-3.77,36.64-9.49.87-.43,1.67-1.05,2.4-1.69,3.44-3.07,3.59-5.02.71-8.77-.72-.93-1.53-1.8-3.02-3.55,3.32,0,5.78-.38,8.07.08,6.97,1.41,9.48,6.66,6.74,13.33-1.88,4.56-5.17,7.99-9.47,9.89-5.56,2.46-11.36,4.71-17.29,5.93-14.83,3.06-29.81,2.15-44.68.03-4.76-.68-9.34-2.6-14-3.95l.21.2Z"/>
    <path class="cls-1" d="M329.96,381.74c-2.05,11.68-8.16,20.45-19.01,25.87-3.5,1.75-7.17,3.24-10.42,5.37-11.42,7.46-15.93,18.62-16.78,31.8-.65,10.21-1.67,20.41-2.6,30.6-.38,4.12-.88,8.23-1.46,12.32-.26,1.83-.86,3.61-1.83,5.37-.95-11.27-3.02-22.31-2.43-33.7.4-7.78.03-15.63,1.46-23.32,2.48-13.37,9.88-23.27,22.08-29.39,3.05-1.53,6.25-2.77,9.45-3.98,7.21-2.72,12.5-7.52,16.02-14.36,1.3-2.52,2.69-5,4.04-7.5.5.31.99.61,1.49.92Z"/>
    <path class="cls-1" d="M79.84,649.58c1.08,8.67,4.27,15.77,13.59,18.32l-.23-.19c.6.51,1.2,1.02,1.81,1.54l-.21-.15c1.1.46,2.21.92,3.31,1.38l-.22-.16c3.86,2.53,7.87,4.87,11.56,7.63,7.77,5.82,12.71,13.78,14.81,23.08,2.32,10.25,4.43,20.66,5.29,31.11,1.04,12.63-.34,25.29-3.87,37.74-.14-1.66-.28-3.33-.42-4.99-1.26-14.48-2.47-28.96-3.8-43.43-.74-8.09-3.04-15.82-5.71-23.46-3.16-9-9.27-15.41-17.25-20.36-4.79-2.97-9.53-6.09-13.92-9.61-4.88-3.91-6.33-9.7-7.14-15.63-.27-1.99.88-2.6,2.6-2.64l-.2-.17Z"/>
    <path class="cls-1" d="M398.81,660.56c1.54,4.65,2.4,8.3.58,11.99-2.16,4.38-4.12,8.97-7.02,12.84-4.7,6.28-9.86,12.25-15.25,17.96-7.26,7.7-10.32,16.8-11.69,27.14-1.99,15.06.01,29.9.77,44.84.18,3.61-.1,7.25-.68,10.93-4.04-10.37-7.89-20.78-8.06-31.96-.17-11.5.4-23.02,2.98-34.3,2.05-8.93,7.24-16.04,13.75-22.27,6.39-6.12,12.66-12.33,17.81-19.6,3.2-4.52,5.65-9.17,5.37-14.91-.03-.54.57-1.1,1.44-2.67Z"/>
    <path class="cls-1" d="M254.78,487.07c-1.54.6-2.51.8-3.28,1.3-3.46,2.27-3.69,5.99-.42,8.38,1.36.99,3,1.78,4.62,2.19,10.26,2.59,20.61,4.49,31.22,2.62,5.43-.96,10.36-3.09,14.01-7.45,2.07-2.47,1.94-4.45-.78-6.18-3.23-2.05-6.74-3.67-9.99-5.98,5.67-.54,11.2-.88,16.28,2.47,6.77,4.47,4.61,12.72-.21,16.98-7.53,6.66-16.48,10.06-26.38,9.39-8-.54-15.99-2.14-23.81-4-3.67-.87-7.42-2.91-10.29-5.39-5.12-4.42-4.22-12.32,1.13-15.8,2.64-1.71,4.95-1.68,7.9,1.46Z"/>
    <path class="cls-1" d="M152.76,753.52c11.04-.39,12.65,8.51,9.97,15.28-2.83,7.13-8.21,11.79-15.03,14.27-11.82,4.3-24.07,6.77-36.76,4.74-4.85-.77-9.52-2.26-13.17-5.95-4.2-4.24-5.21-9.55-2.61-14.75,3.54-7.07,13.48-12.77,21.31-12.12.92.08,1.91.46,2.64,1.01.46.34.62,1.25.66,1.91.02.3-.55.87-.92.93-1.69.27-3.44.26-5.11.63-5.49,1.21-9.92,4.11-13,8.86-2.32,3.59-1.93,6.32,1.38,9.06,3.52,2.92,7.74,4.37,12.24,4.26,9.33-.23,18.69-.79,27.57-3.93,5.83-2.06,11.05-5.12,13.96-11.18,2.67-5.56,2.66-6.74-2.03-11.37-.34-.33-.55-.8-1.1-1.64Z"/>
    <path class="cls-1" d="M427.99,751.91c-.84-2.7-1.62-5.41-2.52-8.09-6.35-18.84-3.98-37.2,3.35-55.14,2.94-7.18,8.34-12.68,14.36-17.5,1.92-1.53,3.94-2.93,5.83-4.49,6.66-5.49,12.6-11.57,16.09-20.45,2.21,1.93,2.38,3.94,1.61,5.55-1.8,3.73-3.59,7.61-6.17,10.79-3.55,4.37-7.53,8.5-11.86,12.09-10.86,8.98-16.37,20.62-17.97,34.32-1.06,9.01-1.53,18.04-.87,27.14.37,5.09-.01,10.23-.06,15.35-.6.15-1.2.29-1.8.44Z"/>
    <path class="cls-1" d="M437.6,751.49c5-2.31,9.95-2.6,14.59-.82,8.72,3.35,10.51,11.1,4.83,17.51-3.02,3.41-6.59,5.98-10.73,7.52-13.31,4.94-27,6.99-41.04,3.7-3.74-.88-7.5-2.34-10.81-4.29-8.03-4.71-5.84-16.1-.36-20.18,1.42-1.06,3.58-1.28,5.45-1.51.63-.08,1.82.89,1.98,1.56.14.63-.72,1.51-1.2,2.24-.1.16-.46.13-.69.21-3.61,1.3-4.54,4.09-4.34,7.6.21,3.57,2.57,5.24,5.57,5.99,4.72,1.17,9.51,2.78,14.28,2.82,10.06.08,20.12-.93,29.45-5.22,2.61-1.2,5.17-2.86,7.24-4.83,2.61-2.49,2.26-5.43-.83-7.29-2.68-1.62-5.75-2.62-8.7-3.76-1.51-.58-3.14-.84-4.71-1.25Z"/>
    <path class="cls-1" d="M267.45,811.35c-1.39-9.78-2.73-19.37-2-29.16.58-7.8,1.69-15.62,1.47-23.4-.58-20.65,9.22-36.08,23.61-49.41,3.24-3,6.71-5.75,10.09-8.6,4.38-3.68,8.22-7.74,9.85-13.46.22-.78,1.07-1.39,1.94-2.48,1.83,5.01.38,8.89-2.44,12.09-4.38,4.97-9.27,9.48-13.75,14.36-5.15,5.6-10.41,11.14-15.04,17.16-6.04,7.86-7.76,17.31-8.26,26.99-.82,15.85-1.05,31.74-3.32,47.5-.38,2.62-.59,5.26-.91,7.88-.02.12-.43.2-1.22.53Z"/>
    <path class="cls-1" d="M221.78,351.18c-10.95,6.63-14.63,16.85-16.07,27.72-1.21,9.17-.71,18.57-.94,27.86-.23,9.3.24,18.69-.81,27.89-1.44,12.58-7.73,22.64-18.86,29.26-.32.19-.89-.04-1.77-.1,2.11-2.86,4.23-5.46,6.04-8.26,5.94-9.18,7.47-19.6,7.9-30.21.4-10.03.13-20.1.72-30.12.64-10.77,1.99-21.47,7.25-31.24,3-5.56,6.8-10.26,12.7-12.83,1.07-.47,2.54,0,3.83.03Z"/>
    <path class="cls-1" d="M352.56,794.54c-5.02-17.71-5.4-34.96-6.72-52.05-.94-12.16-5.97-22.65-12.03-32.74-1.82-3.03-5.26-5.07-7.87-7.65-2.42-2.4-4.88-4.8-7.01-7.45-.75-.93-.6-2.6-.42-4.24,4.52,4.76,10.18,7.56,15.41,11.01,3.16,2.08,5.71,5.38,7.92,8.56,6.69,9.63,10.77,20.3,11.38,32.1.65,12.49,1.33,24.99,1.6,37.49.1,4.71-.43,9.53-2.26,14.97Z"/>
    <path class="cls-1" d="M139.08,502.64c-2.77,5.56-5.21,10.02-7.26,14.66-3.5,7.91-4.37,16.51-5.77,24.91-1.91,11.43-5.22,22.39-9.94,32.91-2.94,6.55-6.79,12.54-12.9,16.67-5.12,3.47-10.66,5.59-18.6,4.64,2.78-1.63,4.26-2.65,5.86-3.39,5.26-2.45,9.17-6.23,12.36-11.1,9.14-13.95,14.39-29.36,17.95-45.49,1.85-8.36,3.86-16.67,8.23-24.2,2.24-3.85,4.65-7.44,10.07-9.61Z"/>
    <path class="cls-1" d="M406.18,493.44c4.49-.27,6.78,1.76,8.91,4.07,4.57,4.97,7.51,10.93,9.27,17.3,1.55,5.62,2.43,11.47,3.16,17.28,1.22,9.71,1.54,19.5,3.74,29.13,2.31,10.11,6.33,19,14.33,25.77,4.07,3.44,8.34,6.64,12.85,10.22-8.03-1.09-19.32-7.54-24.91-14.15-5.69-6.72-9.13-14.4-9.8-23.28-.8-10.53-1.55-21.07-2.68-31.57-.57-5.32-1.46-10.71-3.06-15.8-1.74-5.58-4.38-10.89-8.72-15.1-.96-.93-1.68-2.1-3.08-3.87Z"/>
    <path class="cls-1" d="M241.22,298.88c-5.04,2.63-8.8,4.9-12.8,6.6-6.52,2.78-13.13,5.4-19.84,7.66-3.2,1.08-6.71,1.33-10.11,1.64-2.87.26-5.19-.9-6.73-3.56-1.53-2.65-.23-4.85,1.1-6.81,4.45-6.59,11.05-10.34,18.32-12.94,10.64-3.8,18.31-2.34,29.01,2.48-3.93,1.44-3.9,1.2-7.78.77-10.62-1.2-20.52.67-29.01,7.67-.94.78-1.9,1.56-2.74,2.45-.83.88-1.51,1.89-2.66,3.37,5.35.73,9.36-1.71,13.52-3.16,6.23-2.18,12.3-4.81,18.51-7.05,4.57-1.65,5.3-1.49,11.22.9Z"/>
    <path class="cls-1" d="M27.28,750.45c1.64-2.06,3.38-4.05,4.92-6.2,5.56-7.78,11.37-15.41,16.5-23.47,5.61-8.83,7.52-19.05,9.52-29.16.62-3.12,1.26-6.23,2.02-9.31.34-1.39.74-2.9,1.57-4.01.62-.82,1.94-1.28,3.03-1.46.29-.05,1.24,1.51,1.23,2.32-.05,3.41-.27,6.82-.56,10.22-1.1,13.11-4.01,25.78-11.89,36.54-4.6,6.29-10.27,11.82-15.68,17.48-2.85,2.98-6.17,5.5-9.27,8.23-.46-.4-.91-.79-1.37-1.19Z"/>
    <path class="cls-1" d="M535.68,711.79c-5.5-.45-11.02-.79-16.51-1.38-9.55-1.03-18.82-3.16-27.42-7.6-6.73-3.47-12.9-7.94-14.75-15.55-1.55-6.34-1.59-13.08-1.96-19.66-.09-1.52.99-3.28,1.96-4.61.78-1.07,2.49-1.11,2.87.4.59,2.36.9,4.86.84,7.29-.38,15.54,7.79,24.75,21.85,29.43,8.8,2.93,17.73,5.44,26.61,8.1,2.23.67,4.5,1.21,6.76,1.8-.08.59-.16,1.18-.23,1.77Z"/>
    <path class="cls-1" d="M214.09,329.99c-4.21.64-6.47,2-7.17,6.41-.69,4.31-4.25,7.02-7.7,9.47-5.87,4.16-12.61,6.4-19.34,8.66-.69.23-1.56.51-2.16.28-1.95-.73-4.39-1.22-5.57-2.68-1.39-1.71-.98-4.34.72-6.11,3.22-3.35,6.33-6.92,9.98-9.75,8.43-6.54,17.77-10.34,28.72-7.51.89.23,1.68.81,2.52,1.23ZM177.13,348.58c10.9-.46,22.34-7.77,26.42-16.74-11.77,1.08-18.9,8.58-26.42,16.74Z"/>
    <path class="cls-1" d="M77.68,571.65c-.34,1.65-.44,2.83-.84,3.9-2.02,5.46-3.6,11.17-6.32,16.26-2.97,5.56-7.64,9.52-14.6,9.58-5.62.05-8.92-3.9-7.91-9.45.73-4.01,2.64-7.29,5.64-9.98,5.2-4.65,10.98-8.05,18.13-8.74,1.8-.17,3.55-.93,5.9-1.57ZM68.94,580.05c-8.29.67-14.74,7.68-13.56,14.85,8.48-1.36,10.18-8.87,13.56-14.85Z"/>
    <path class="cls-1" d="M158.05,433.8c.42.53,1.32,1.31,1.2,1.55-3.37,6.49-6.51,13.14-10.4,19.31-3.29,5.22-11.34,7.52-17,5.75-8.27-2.58-10.11-9.71-3.88-15.64,1.91-1.82,4.25-3.31,6.61-4.51,3.69-1.87,7.45-3.71,11.39-4.9,5.07-1.53,9.38-4.01,13.06-7.75.97-.98,2.25-1.65,4.13-1.89-1.66,2.74-3.32,5.48-4.97,8.22-2.07.21-3.75.95-4.33,3.18-6.04,2.49-12.15,4.82-18.07,7.57-1.89.88-3.53,2.66-4.85,4.36-2.24,2.88-.74,5.83,2.98,6.08,4.43.3,8.26-1.11,10.94-4.76,3.15-4.3,6.12-8.73,9.16-13.1,2.12-.25,3.51-1.34,4.03-3.46Z"/>
    <path class="cls-1" d="M283.23,342.04c.18-7.76.37-14.29.49-20.82.27-14.67,0-29.37.93-43.99.67-10.5,3.56-20.7,9.12-29.88.71-1.18,1.76-2.15,3.56-4.3-2.49,6.93-4.79,12.39-6.42,18.04-2.66,9.22-3.32,18.69-2.74,28.3.57,9.54,1.12,19.13.87,28.67-.21,7.97-1.35,15.97-5.8,23.97Z"/>
    <path class="cls-1" d="M397.01,685.57c7.08,1.5,11.8,6.33,14.7,12.59,4.98,10.78,7.04,22.37,7.1,34.21.04,7.31-.47,14.62-.86,21.93-.22,4.01-.71,8.01-1.23,13.58-2.67-3.81-2.21-6.78-2.38-9.45-.62-10.02-.77-20.08-1.61-30.08-.63-7.54-2.03-15.01-3.12-22.51-1.12-7.73-5.02-13.67-11.67-17.77-.6-.37-1.29-.58-1.93-.86.34-.55.68-1.1,1.01-1.65Z"/>
    <path class="cls-1" d="M380.74,448.72c3.19,1.08,5.86,2.17,8.62,2.89,7.26,1.89,12.16,6.95,16.91,12.25.31.35.48.84.69,1.27,1.47,2.98,1.24,7.01-.64,8.89-2.16,2.17-5.14,2.28-7.57,1.43-9.87-3.47-18.83-14.93-18.61-25.58,0-.43.42-.86.58-1.16ZM385.99,455.61c2.66,6.95,6.99,12.21,15.82,14.42-4.52-6.8-10.58-10.13-15.82-14.42Z"/>
    <path class="cls-1" d="M388.51,676.25c-1.47,4.74-5.64,6.46-9.44,8.17-6.78,3.05-13.96,4.15-21.49,3.32-10.65-1.17-21.34-1.94-32.42-2.92,1.35-2.87,3.76-4.06,6.29-4.33,4.36-.47,8.8-.7,13.17-.45,7.05.4,14.05,1.61,21.1,1.87,7.96.3,15.53-1.6,22.79-5.66Z"/>
    <path class="cls-1" d="M312.77,391.88c-3.16,2.56-4.95,4.68-7.22,5.71-8.57,3.91-17.46,5.83-27.01,4.1-7.87-1.43-15.85-2.31-23.8-3.31-1.87-.23-3.89-.25-5.69.22-1.45.38-2.64.4-2.73-1.01-.05-.72,1.46-2.14,2.36-2.22,4.36-.39,8.77-.78,13.12-.51,6.05.38,12.12,1.03,18.06,2.17,6.59,1.27,12.46-.42,18.47-2.72,3.98-1.53,7.95-3.91,14.44-2.43Z"/>
    <path class="cls-1" d="M297.51,538.77c-1.28,4.59-4.63,6.9-8.39,8.53-8.49,3.68-17.28,4.85-26.37,2.39-1.65-.44-3.33-.77-4.95-1.3-7.44-2.44-14.88-4.71-22.84-2.46-.49.14-1.54-.36-1.7-.8-.19-.53.08-1.63.52-1.91,1.19-.76,2.51-1.48,3.88-1.76,6.15-1.25,12.2-.5,18.02,1.66,8.01,2.98,16.25,4.03,24.5,1.95,5.79-1.46,11.29-4.07,17.34-6.32Z"/>
    <path class="cls-1" d="M523.85,676.25c-6.47-3.64-12.94-7.28-19.4-10.93.16-.44.33-.89.49-1.33,3.43.91,6.91,1.65,10.26,2.77,3.93,1.32,7.82,2.81,11.58,4.54,2.93,1.35,3.93,3.69,3.41,6.58-.54,3.01-2.8,3.57-5.38,4.01-5.55.95-10.95.22-15.53-2.79-5.26-3.47-10.01-7.73-14.84-11.81-.64-.54-.45-2.09-.94-4.89,9.14,9.19,17.68,16.16,30.34,13.85Z"/>
    <path class="cls-1" d="M210.14,699.39c-6.24,8.06-7.66,17.9-9.39,27.41-2.62,14.38-.94,28.87.59,43.28.22,2.08,1.2,4.08,2.16,7.21-4.85-3.69-6.33-7.98-6.93-12.49-2.61-19.78-.26-39.05,6.64-57.75,1.27-3.43,2.56-7.07,7.11-7.49l-.18-.17Z"/>
    <path class="cls-1" d="M387.79,432.82c-7.23-.17-14.16-1.11-19.88-7.56,1.95.12,3.2.19,4.45.29,4.1.33,8.21.62,12.31,1.01,1.92.18,4.07.1,5.67.96,1.78.95,3.93,2.64,4.35,4.38.55,2.31-.84,4.91-3.31,5.99-2.18.96-4.61,1.99-6.91,1.94-6.81-.16-12.84-2.64-17.51-7.78-.66-.72-.58-2.12-.84-3.2,1.04.25,2.4.16,3.05.8,3.69,3.65,8.37,5,13.22,5.78,1.69.27,3.55-.5,5.33-.8.02-.6.04-1.2.06-1.8Z"/>
    <path class="cls-1" d="M227.01,699.06c10.31,5.58,21.36,6.96,32.73,6.6,6.11-.19,12.23-1.5,18.3,0,2.7.67,5.29,1.77,7.93,2.68-.07.48-.14.97-.21,1.45-6.31.09-12.62.28-18.94.23-5.86-.05-11.78.12-17.55-.68-5.25-.73-10.38-2.52-15.49-4.07-3.1-.94-5.58-2.88-6.78-6.21Z"/>
    <path class="cls-1" d="M405.05,665.5c-.15-2.29,1.47-3.39,3.54-3.42,4.6-.07,9.3-.33,13.8.42,8.97,1.5,17.44.12,25.79-3,.85-.32,1.74-.53,3.28.04-.97,1.09-1.83,2.31-2.93,3.24-5.94,4.96-12.65,6.86-20.42,5.61-7.6-1.22-15.29-1.94-23.05-2.89Z"/>
    <path class="cls-1" d="M231.24,334.43c1.04-1.47,1.91-3.1,3.14-4.38,8.31-8.69,13.77-18.83,16.59-30.56.86-3.56,1.64-7.66,6.37-10.29-2,8.7-3.39,16.77-5.77,24.53-3.08,10.1-10.57,16.52-20.34,20.7Z"/>
    <path class="cls-1" d="M204.96,682.9c-6.96-.77-13.52.63-20.23,2.09-7.89,1.72-16.07,2.28-23.77-1.54-2.34-1.16-5.07-1.89-5.82-5,.53-.07,1.04-.31,1.33-.15,9.47,5.33,19.2,4.35,29.17,1.58,6.67-1.85,13.47-2.63,19.32,3.02Z"/>
    <path class="cls-1" d="M93.43,667.9c-.88-2.44-1.76-4.88-2.64-7.31,6.54,7.25,14.27,5.97,22.26,4.73,4.48-.7,9.15-.21,14.09,1.06-.8.55-1.53,1.28-2.4,1.61-8.72,3.32-17.77,3.01-26.85,2.32l.22.16c-1.1-.46-2.21-.92-3.31-1.38l.21.15c-.6-.51-1.2-1.02-1.81-1.54l.23.19Z"/>
  </g>
</svg>