<?xml version="1.0" encoding="UTF-8"?>
<svg id="Layer_1" data-name="Layer 1" xmlns="http://www.w3.org/2000/svg" version="1.1" viewBox="0 0 685.51 841.89">
  <defs>
    <style>
      .cls-1 {
        fill: #000;
        stroke-width: 0px;
      }
    </style>
  </defs>
  <path class="cls-1" d="M407.91,760.19c-.61-11.06.31-22.04,1.86-33.01,1.39-9.87,7.83-15.74,17.15-19.42,2.64-1.04,5.5-1.6,8.24-2.41,2.26-.67,4.57-1.25,6.73-2.13,6.73-2.75,11.52-7.15,13.26-14.01.19-.77.59-1.51.66-2.28.16-1.65,1.64-3.19.48-4.94-1.48.72-2.96,1.44-4.44,2.16-2.89,1.41-5.95,2.32-9.23,2.44-7.63.29-15.27.52-22.9.8-8.99.33-17.97.74-26.96,1.01-4.95.15-9.81-.59-14.59-1.77-4.3-1.06-8.38-2.65-11.93-5.15-2.14-1.5-3.25-1.78-3.66,1.69-1.02,8.59,5.06,17.97,13.89,21.11,2.36.84,4.91,1.23,7.33,1.95,2.74.82,5.5,1.63,8.11,2.73,1.31.56,2.33,1.74,3.41,2.71.08.07-.4.97-.56.95-1-.1-2-.29-2.97-.55-4.39-1.19-8.75-2.49-13.17-3.61-12.88-3.27-20.32-14.17-17.93-26.38.3-1.55.56-3.11.95-4.64.3-1.19,1.26-1.48,2.25-.59,6.12,5.48,13.82,6.95,21.89,7.77,8.19.83,16.25.03,24.35-.84,10.45-1.12,20.92-2.11,31.38-3.2,3.55-.37,7.09-.9,10.07-2.93.44-.3.69-1,.73-1.54.02-.23-.68-.65-1.12-.76-1.8-.45-3.71-.63-5.43-1.25-3.15-1.14-6.34-2.29-9.23-3.87-3.23-1.76-5.02-4.55-5.15-8.21-.11-3.32-.83-4.09-4.33-4.63-3.5-.53-7.04-.97-10.57-1.13-4.4-.2-8.83-.06-13.24-.07-1.53,0-3.06.07-4.57-.09-.53-.06-1.27-.63-1.39-1.09-.12-.48.21-1.38.65-1.61,1.3-.69,2.7-1.36,4.15-1.66,4.99-1.01,10.07-1.6,15.17-.89,3.51.49,6.97,1.3,10.44,2.01.99.2,1.94.62,2.94.78,2.89.45,5.5.4,8.13-1.46,4.79-3.4,10.37-5.31,16.38-6.07,1.74-.22,3.39-.14,4.86.83.22.15.44.64.34.8-.21.32-.82.8-.94.73-1.84-1.05-3.64-.32-5.44.04-5.42,1.07-10.28,3.27-14.53,6.54-6.68,5.13-6.04,9.82,1.67,13.34,4.33,1.98,9.01,2.95,13.72,3.38,11.36,1.05,22.73,1.08,33.9-1.63,2.78-.68,5.48-1.65,8.15-2.65,1.4-.52,2.74-1.28,3.95-2.12,2.58-1.79,2.53-3.06-.06-4.71-.42-.27-.86-.52-1.31-.72-5.52-2.43-11.03-4.87-16.58-7.25-.71-.31-1.6-.26-2.41-.38-.02.73-.16,1.48-.02,2.18.28,1.39.8,2.74,1.03,4.13.08.47-.41,1.01-.64,1.52-.42-.23-1.07-.37-1.22-.7-.85-1.87-1.83-3.74-2.29-5.7-.99-4.15-1.95-8.32-2.44-12.54-.69-5.94-1.35-11.94-1.29-17.9.09-7.87.98-15.73,1.38-23.6.38-7.6,2.23-14.97,3.77-22.4.26-1.23.82-2.52.64-3.7-.44-2.89.83-5.28,2.17-7.63,3.14-5.51,7.26-10.29,12.89-13.8,2.25-1.4,4.46-3.02,6.95-3.91,11.4-4.07,17.24-12.81,22.29-22.29.45-.84.86-1.73,1.09-2.65.33-1.35.47-2.74.7-4.12-1.84-.39-2.55,1.15-3.64,1.94-3.12,2.27-6.46,4.18-10.3,5.02-4.44.97-8.96,2.01-13.49,2.23-17.01.83-33.93-.17-50.69-3.16-1.5-.27-3.04-.33-4.53-.63-1.81-.37-3.61-.85-5.37-1.39-.32-.1-.51-.7-.64-1.11-.03-.09.47-.44.74-.46,1.35-.09,2.71-.18,4.06-.13,7.46.27,14.92.68,22.39.85,8.82.2,17.64.52,26.45-.52,5.04-.6,10.15-.66,15.2-1.19,2.68-.28,5.34-.92,7.92-1.68,2.08-.62,4.1-1.53,5.98-2.56,1.89-1.03,3.93-2.24,3.69-4.67-.21-2.19-2.21-3.08-4.07-3.86-2-.84-4.09-1.52-6.18-2.19-5.96-1.93-12.18-2.8-18.39-3.63-6.04-.81-12.1-1.53-18.14-2.35-.53-.07-.98-.58-1.47-.89.58-.24,1.14-.62,1.75-.69,1-.12,2.04-.12,3.05-.03,8.95.85,17.91,1.59,26.82,2.69,4.01.49,7.9,1.77,11.86,2.62,7.84,1.7,10.79,7.17,11.93,13.73.83,4.75.15,9.5-2.43,13.77-2.24,3.7-4.57,7.39-7.28,10.8-3.39,4.25-8,7.24-13.23,9.36-2.18.88-4.4,1.68-6.56,2.58-5.68,2.37-10.43,5.82-14.2,10.47-5.42,6.7-5.39,6.67-6.86,14.83-2.84,15.79-3.15,31.7-2.2,47.61.42,7.06,1.76,14.08,2.61,21.12.2,1.67,1.11,2.42,2.8,2.87,4.07,1.09,8.15,2.21,12.12,3.58,3.01,1.04,6.02,2.23,8.73,3.79,11.16,6.44,8.93,1.78,1.12,9.04-1.88,1.75-4.17,3.35-6.6,4.31-4.03,1.59-8.32,2.64-12.53,3.85-1.26.36-2.89.15-2.81,2.01.08,1.79-.9,3.94,1.73,4.92,1.41.52,2.85.99,4.33,1.31.97.21,2.03.16,3.05.13,11.37-.26,26.99-.53,38.35-.82,4.41-.11,14.14-.22,18.55-.42,6.81-.31,12.93-2.52,18.38-6.25,1.74-1.19,3.41-2.68,4.59-4.35,2.41-3.44,1.6-6.62-1.93-9.1-.67-.47-1.38-.97-2.16-1.25-8.25-2.97-21.85-5.77-30.97-4.94-5.06.46-10.14.77-15.21,1.1-1,.07-2.01-.05-3.01-.17-.21-.03-.39-.44-.53-.7-.03-.05.15-.27.28-.31.78-.29,1.56-.65,2.38-.8,6-1.06,7.73-2.18,13.76-3.04,2.14-.31,4.47-.27,6.58.18,5.61,1.19,20.78,2.51,26.25,4.15,2.35.7,4.54,2.14,6.51,3.58,2.52,1.84,3.69,4.46,3.68,7.48,0,5.82.03,11.64,0,17.46-.02,5.05-1.59,9.64-5.07,13.57-.86.97-1.76,1.96-2.83,2.7-4.78,3.29-9.76,6.35-15.43,8.17-4.02,1.29-13.38,2.46-16.93,4.72-.27.17-.63.35-.93.34-.44-.02-.89-.19-1.29-.39-.05-.03.07-.67.28-.82,2.56-1.79,10.26-3.93,13.1-5.2,6.19-2.79,11.53-6.62,16.81-10.6,3-2.26,5-5.13,6.08-8.54.62-1.96,1.24-3.94,1.69-5.94.37-1.67.5-3.38.74-5.07-2.19-.29-3.1,1.57-4.52,2.47-6.67,4.2-13.92,6.45-22.01,6.3-11.03-.2-31.63-.35-42.66-.56-3.39-.06-6.78-.24-10.17-.41-3.75-.18-7.45-.57-10.72-2.55-.34-.21-1.07-.26-1.35-.06-.31.22-.53.87-.43,1.24,1.7,6.45,3.95,12.69,8.18,18.18,2.03,2.64,4.85,3.84,8.21,4.15,3.21.29,10.67.55,13.87.86,2.81.27,5.84-.01,7.64,2.77.18.28.94.25,1.43.36,4.36,1.03,5.55,4.24,6.15,7.81.06.34-.34.99-.65,1.06-.37.08-.94-.22-1.29-.49-.37-.3-.68-.73-.86-1.16-2.25-5.43-7.35-6.5-12.68-7.03-3.03-.3-10.35-.22-13.41-.29-5.66-.14-9.92-2.36-13.26-6.72-4.44-5.78-6.74-12.34-8.93-18.96-.53-1.62-.29-3.44-.63-5.13-.29-1.42,2.44-2.5.82-3.58-.97-.64-2.94.06-4.45.06-3.56-.02-7.13-.07-10.69-.17-2.69-.07-2.91.12-2.07,2.67,1.11,3.36,1.47,6.74,1.07,10.26-1.26,10.99-8.68,18.66-20.31,20.77-2.16.39-4.35.72-6.54.97-3.93.44-7.6,1.56-11.09,3.27-1.5.73-3.01,1.52-4.61,1.97-2.6.74-4.03,2.39-4.45,4.7-.77,4.18-1.69,8.39-1.89,12.61-.43,8.97-.87,17.96.24,26.93.23,1.86-.11,3.78-.09,5.67.06,4.72.17,9.44.29,14.16.06,2.52.7,5.13.19,7.54-1.09,5.13,1.21,9.59,2.62,14.21.43,1.42,1.9,2.56,2.85,3.86.76,1.03,1.49,2.09,2.16,3.17.11.18-.03.63-.22.8-.2.18-.66.33-.9.24-4.06-1.51-6.76-4.28-7.8-8.17-.85-3.2-1.38-6.49-1.77-9.77-.56-4.69-1.01-9.4-1.25-14.11-.2-3.93-.02-7.87-.02-11.8,0-2.05,0-4.1,0-6.15Z"/>
  <path class="cls-1" d="M189.95,660.85c-9.53-.4-18.98.62-28.42,1.62-6.74.71-13.49,1.41-20.19,2.33-5.07.7-9.88,2.26-14.28,4.77-3.47,1.98-5.88,4.66-6.61,8.54-.64,3.4.21,5.7,3.59,6.92,2.97,1.07,6.17,1.67,9.33,2.19,8.57,1.4,17.27.87,25.91,1.25,6.44.28,12.91.4,19.3,1.1,8.75.96,17.3-.05,25.79-1.62,4.04-.74,7.45-3.02,10.43-5.66,1.74-1.55,1.34-2.43-.94-3.45-3.19-1.44-6.43-2.85-9.43-4.59-3.09-1.79-5.23-4.49-6.46-7.71-1.99-5.22-1.06-9.98,3.09-14.01,3.68-3.57,8.37-5.35,13.63-5.65,1.46-.08,3,.39,4.43.8.5.15,1.12.92,1.1,1.38-.03.9-.86.57-1.5.45-6.32-1.16-11.33,1.17-15.37,5.39-3.35,3.51-3.04,8.81.4,12.58,2.24,2.45,5.05,4.27,8.25,5.4,3.16,1.11,6.41,2.3,9.72,2.7,11.46,1.41,22.71.61,33.41-3.87,3.89-1.63,7.53-3.62,10.46-6.59,5.34-5.42,4.97-9.47-1.6-13.65-2.92-1.86-6.16-3.31-9.26-4.92-1.33-.69-2.72-1.29-4.04-1.98-.19-.1-.21-.52-.24-.79,0-.08.25-.25.4-.26.33-.02.68-.01,1.01.05,5.16,1.05,10.23,2.37,14.82,4.85,1.72.93,3.36,2.2,4.61,3.63,2.53,2.87,3.14,6.17,1.77,9.77-1.23,3.21-3.32,5.83-5.98,8.1-6.04,5.15-13.25,8.22-21.13,9.9-6.96,1.48-14.02,2.44-21.19,1.23-.99-.17-2.05-.23-3.04-.09-.43.06-1.08.76-1.06,1.15.06,1.23.45,2.45.59,3.69.19,1.71.65,3.49.33,5.13-1.54,7.85-5.51,14.18-13.71,17.6-3.25,1.35-6.59,2.55-9.74,4.08-4.65,2.27-9.23,4.68-13.72,7.21-4.23,2.38-7.05,5.85-8.29,10.36-.33,1.22-.63,2.5-1.27,3.58-2.61,4.45-2.94,9.24-3.11,14.18-.34,9.92-1.22,19.82-1.58,29.74-.19,5.18.27,10.39.4,15.58.12,4.57.22,9.13.26,13.7,0,.35-.46.7-.7,1.05-.35-.28-.91-.51-1.03-.86-1.75-4.98-2.42-10.11-2.69-15.33-.67-12.66.59-25.19,2.38-37.71.34-2.34.4-4.71.72-7.06.39-2.81.8-5.62,1.43-8.39.74-3.23,1.84-6.39,2.59-9.61,1.1-4.72,3.94-8.4,8.01-11.16,4.66-3.15,9.51-6.06,14.4-8.9,3.45-2.01,7.12-3.68,10.64-5.58,5.77-3.12,9.03-7.95,10.68-13.82.11-.4,0-1.03-.29-1.29-.2-.18-.96-.05-1.31.17-3.94,2.4-8.29,3.41-12.95,3.81-2.68.23-5.28,1.09-7.93,1.62-6.7,1.34-13.48,1.32-20.28.91-8.97-.54-17.95-1.05-26.92-1.59-8.81-.54-17.62-1.05-25.93-4.25-1.24-.48-1.97.11-1.75,1.35.6,3.35,2.13,6.32,4.63,8.79,2.92,2.88,6.08,5.54,10.14,6.99,3.43,1.23,5.95,3.56,8.56,5.79.21.18.21.57.31.87-.44.07-1.04.35-1.3.18-3.23-2.12-7.03-3.08-10.52-4.65-8.6-3.87-14.53-9.77-14.99-19.23-.11-2.36-.26-4.72-.4-7.08-.4-6.75,3.1-11.44,9.14-14.68,5.07-2.72,10.67-4.1,16.44-4.68,8.09-.81,16.23-1.21,24.33-2.02,6.6-.66,13.2-.91,19.82-.55,1.3.07,2.57.57,3.85.87l.07-.06Z"/>
  <path class="cls-1" d="M289.57,767.45c0-7.24-.11-14.48.03-21.72.14-7.14,1.78-14.06,4.3-20.8.44-1.18,1.19-2.45,1.05-3.6-.41-3.24,1.51-5.36,3.55-7.49,2.19-2.29,4.92-3.84,7.99-4.9,3.02-1.03,6.16-1.85,9.08-3.09,3.69-1.57,7.27-3.38,10.79-5.26,2.25-1.2,3.91-3.04,4.73-5.39,1.59-4.52,2.56-9.14,2.58-13.92,0-.42-.16-1.04-.47-1.22-.29-.16-.99.02-1.33.26-6.34,4.49-13.71,6.85-21.23,8.86-6.73,1.8-13.69,2.16-20.65,2.46-8.99.39-17.98.79-26.94-.36-5.4-.7-10.72-1.69-15.7-3.79-1.8-.76-3.36-2.04-4.99-3.14-.21-.14-.19-.57-.27-.87.41-.05.93-.29,1.2-.14,6.47,3.62,13.71,4.4,21.01,4.85,9.39.58,18.62-.89,27.86-2.11,10.79-1.43,21.29-3.98,31.42-7.71,2.15-.79,4.12-2.11,6.02-3.37,1-.67.7-1.76-.48-2.2-2.04-.77-4.17-1.36-6.16-2.22-4.98-2.14-8.86-5.28-10.13-10.52-1.22-5.04.08-9.37,4.41-12.75,3.06-2.4,6.73-3.59,10.59-4.35.27-.05.61.18.92.28-.11.27-.14.65-.35.79-1.25.8-2.55,1.54-3.83,2.31-1.56.95-3.21,1.8-4.65,2.89-4.31,3.29-4.72,8.63-1.06,12.58,2.18,2.36,5.03,3.7,8.19,4.52,5.43,1.4,10.98,2.04,16.59,2.17,8.49.19,16.98.32,25.38-1.17,4.53-.8,8.96-1.93,12.96-4.07,2.17-1.16,4.2-2.67,5.98-4.32,1.88-1.75,1.9-3.05.21-5.03-1.24-1.46-2.76-2.8-4.41-3.86-4.7-2.99-9.92-4.75-15.65-5.13-.55-.04-1.07-.44-1.6-.68.43-.21.85-.58,1.29-.61,8.92-.58,16.78,2,23.4,7.45,4.09,3.37,4.37,7.33,1.06,11.38-1.61,1.97-3.66,3.74-5.82,5.2-6.61,4.45-14.15,6.74-22.23,7.5-8.48.79-16.95.7-25.38-.6-.5-.08-1.01-.15-1.51-.17-1.53-.06-2.46.75-1.98,1.99,1.53,3.95,1.48,8.05,1.43,12.13-.03,2.35-.37,4.71-.61,7.06-.49,4.72-3.2,8.23-7.16,10.97-3.71,2.57-7.88,4.33-12.31,5.52-2.61.7-5.27,1.22-7.86,1.97-1.93.56-3.88,1.2-5.64,2.1-2.76,1.41-4.81,3.46-5.39,6.52-.79,4.19-1.93,8.34-2.39,12.55-.62,5.64-.89,11.31-1.04,16.98-.31,12.29-.51,24.58-.6,36.87-.03,3.61.48,7.23.71,10.84.05.77.02,1.56-.09,2.32-.03.19-.48.35-.76.47-.09.03-.33-.1-.39-.2-.31-.55-.63-1.11-.85-1.69-1.45-3.75-1.97-7.66-2.01-11.62-.07-7.24-.02-14.48-.02-21.72-.26,0-.51,0-.77,0Z"/>
  <path class="cls-1" d="M441.18,482.37c7.45-.21,14.28,1.79,19.92,6.5,4.87,4.07,5.33,10.1,1.65,15.5-1.68,2.46-4.04,4.23-6.74,5.64-8.12,4.25-16.86,6.67-26.14,7.12-6.94.34-13.92.54-20.81-.78-.99-.19-2.05-.27-3.03-.14-.49.06-1.29.72-1.28,1.1.04,1.39.12,2.85.6,4.15,1.49,4.01,1.56,8.14.61,12.14-.94,3.97-2.53,7.83-4.16,11.63-1.33,3.1-3.64,5.7-6.41,7.85-4.96,3.86-10.2,7.39-16.34,9.46-4.53,1.53-8.48,3.98-12.38,6.47-1.44.92-2.53,2.53-3.38,4.02-3.98,6.96-5.63,14.5-5.75,22.31-.16,11.03.05,22.07-.24,33.1-.2,7.41-.62,14.8.83,22.15.21,1.07.09,2.2.06,3.3,0,.23-.32.45-.49.67-.25-.18-.61-.31-.74-.54-.31-.56-.6-1.14-.75-1.75-1.24-5.08-2.41-10.17-2.41-15.4-.02-11.98.01-23.96,0-35.94,0-5.69.25-11.37,2.19-16.82,1.27-3.58,2.88-7.06,4.35-10.57.18-.44.58-.81.72-1.25,2.07-6.79,7.66-10.55,13.88-13.61,5.6-2.75,10.62-6.21,15.44-9.96,7.28-5.69,10.55-13.34,12.07-21.79.06-.34-.31-.75-.49-1.13-.29.12-.65.18-.86.37-.61.55-1.17,1.14-1.73,1.73-2.19,2.35-4.97,3.68-8.18,4.51-7.27,1.87-14.73,2.21-22.18,2.51-10,.41-20.02.48-30.01.99-8.67.45-16.86-1.25-24.88-3.99-1.1-.38-2.09-1.04-3.16-1.51-1.14-.5-1.76-2.44-3.23-1.56-.62.37-.41,2.05-.45,3.14-.16,4.36,1.2,8.4,3.15,12.3,1.57,3.15,4.21,5.3,7.54,6.75,5.22,2.29,10.47,4.46,16.16,5.63,2.97.61,5.95,1.37,8.23,3.46.21.2.45.7.36.8-.28.3-.7.54-1.11.67-.29.09-.69.03-1-.06-7.78-2.17-15.74-3.79-23.11-7.19-5.53-2.55-9.02-6.38-10.86-11.83-2.27-6.72-1.65-13.36-.08-20.05.05-.23.46-.49.74-.53.23-.03.65.18.75.39.2.42.24.91.36,1.37.81,3,2.88,4.98,5.95,5.99,8.09,2.66,16.29,4.06,24.98,2.86,8.38-1.16,16.85-1.77,25.28-2.6,8.27-.82,16.52-1.67,24.62-3.52,3.82-.87,6.86-2.67,9.3-5.41.85-.95,1.54-2.09,2-3.24.69-1.7.06-2.63-1.86-3.2-2.58-.77-5.23-1.37-7.73-2.3-3.76-1.39-6.52-3.91-8.41-7.24-3.76-6.63-2.82-12.42,3.04-17.57,3.6-3.16,7.45-6.01,12.59-6.73.45-.06.93.05,1.4.08-.41.4-.76,1.04-1.26,1.17-4.56,1.23-8.15,3.81-11.32,6.97-6.25,6.24-4.74,14.95,3.39,19.02,1.91.96,4.06,1.7,6.2,2.05,16.59,2.74,33.09,2.59,49.4-1.71,2.93-.77,5.78-1.82,8.62-2.85,1.25-.46,2.47-1.08,3.54-1.84,4.69-3.32,5.31-9.28,1.28-13.27-1.37-1.35-3.1-2.46-4.83-3.4-4.14-2.25-8.66-3.56-13.4-4.59Z"/>
  <path class="cls-1" d="M135.63,117.61c-2.53,0-6.78,0-11.02,0-1.76,0-3.37-.32-4.47-1.79-.62-.82-.52-2.12.48-2.42,2.07-.62,4.22-1.33,6.35-1.38,5.08-.11,10.18.09,15.27.25,9.39.29,18.66-.23,27.56-3.32,4.92-1.71,9.76-3.62,14.67-5.37,4.59-1.63,9.2-3.23,13.85-4.72,5-1.6,9.81-3.48,14.08-6.46,4.72-3.3,10.39-4.54,15.94-6,4.4-1.16,8.82-2.22,13.19-3.48,6.52-1.87,13.16-3.01,19.97-3.38,1.98-.11,4.03.08,5.45-1.88.48-.66,2.12-.94,3.17-.85,2.86.26,5.69.85,8.54,1.24,6.04.83,12.07,1.64,18.12,2.41,1,.13,1.62-.34,1.3-1.41-.23-.76-.5-1.51-.67-2.28-1.35-6.18.9-11.15,6.01-15.11.78-.61,1.9-1.27,2.63-.31.45.58.47,2.02,0,2.54-4.38,4.83-2.84,10.44-2.65,15.89.04,1.31.85,1.97,2.11,2.32,5.69,1.58,13.94-.98,17.45-5.39,1.66-2.09,1.64-4.44,1.16-6.8-.58-2.78-1.4-5.52-2.06-8.29-.08-.32.26-.73.4-1.09.29.14.72.21.86.44,2.63,4.34,4.04,9.04,4.02,13.98,0,1.57-1.03,3.37-2.13,4.66-3.52,4.14-8.18,6.7-13.92,6.91-3.53.13-7.1-.24-10.63-.58-4.04-.39-8.06-.99-12.09-1.5-3.86-.49-7.76-.84-11.58-1.52-5.35-.96-10.52-.04-15.6,1.18-6.72,1.62-13.32,3.68-19.99,5.49-3.57.97-7.16,1.94-10.8,2.65-6.34,1.24-12.53,2.68-18.01,6.17-2.07,1.32-4.48,2.25-6.85,3.09-9.98,3.55-20.05,6.86-29.98,10.5-12.37,4.54-25.17,6.33-40.11,5.62Z"/>
  <path class="cls-1" d="M233.37,536.72c9.78.15,20.41-.7,30.92-2.7,1.99-.38,3.93-.96,5.87-1.52,5.63-1.62,10.01-4.54,12.13-9.91.38-.96.56-2.51,2.05-2.33,1.6.2,2,1.78,1.91,2.98-.14,1.82.58,3.34,1.1,4.98,1.03,3.23.97,6.52-.07,9.78-2.55,7.93-7.77,13.96-15.35,18.15-3.93,2.17-8.11,3.95-12.22,5.82-6.41,2.92-12.75,5.94-18.1,10.45-.25.21-.5.47-.8.57-.26.08-.72.05-.85-.11-.16-.19-.21-.69-.07-.83,1.49-1.49,2.83-3.22,4.61-4.33,4.79-2.97,9.73-5.73,14.69-8.45,3.65-2,7.51-3.68,11.11-5.75,6.07-3.49,10.61-8.3,13.49-14.41,1.31-2.78,2.13-5.65,1.75-8.72-.05-.42-.29-.97-.64-1.17-.26-.15-1.02.04-1.23.31-5.8,7.32-14.4,9.7-23.36,11.21-14.11,2.38-28.33,2.69-42.59,1.19-6.06-.64-12.15-1.16-18.17-2.04-6.92-1.01-13.61-2.75-19.11-7.15-.29-.23-.91-.2-1.35-.12-.16.03-.31.55-.3.84.26,5.51,1.73,10.51,6.18,14.56,4.22,3.84,8.87,6.77,14.73,7.98,3.3.68,6.59,1.51,9.79,2.54,5.47,1.76,9.9,4.81,12.57,9.74.18.33,0,.84-.03,1.27-.46-.08-1.01-.03-1.36-.25-.97-.63-1.94-1.29-2.76-2.09-3.66-3.58-8.26-5.42-13.33-6.45-1.99-.4-3.98-.78-5.97-1.19-4.55-.92-8.63-2.74-12.34-5.36-6.61-4.66-10.52-10.62-10.56-18.49-.02-4.25-.12-8.51.16-12.75.11-1.64.86-3.43,1.89-4.79,1.44-1.91,3.19-3.73,5.18-5.13,2.55-1.79,5.34-3.42,8.27-4.59,11.13-4.44,22.61-7.67,34.89-7.82,3.56-.04,7.11-.35,10.66-.46.69-.02,1.39.33,2.08.51-.77.25-1.53.65-2.31.72-2.53.21-5.08.34-7.62.44-12.58.47-24.39,3.68-35.7,8.64-3.86,1.69-7.43,3.83-10.33,6.79-4.43,4.52-3.96,8.79,1.33,12.41,4.82,3.29,10.49,4.42,16.22,5.1,10.61,1.27,21.27,2.02,32.92,1.96Z"/>
  <path class="cls-1" d="M359.94,248.47c-.99-.86-1.95-1.75-2.97-2.57-2.62-2.13-5.68-3.44-9.13-3.87-6.19-.77-11.73-3.01-16.92-6.14-.99-.6-2.03-1.15-3.09-1.64-3.73-1.72-6.84-3.99-8.82-7.53-.85-1.52-2.2-2.79-3.3-4.18-3.27-4.14-3.58-8.73-2.24-13.52.43-1.53,1.92-2.02,3.09-.94,2.8,2.59,6.34,3.53,9.99,4.34,5.6,1.24,11.2,2.53,16.8,3.76,6.22,1.37,12.52.91,18.75.27,7.94-.81,15.84-1.43,23.85-.81,5.4.42,10.86.41,16.28.23,5.47-.17,10.76-1.31,15.5-4.05,4.19-2.42,4.75-6,1.38-9.4-.91-.92-2.02-1.69-3.1-2.44-3.31-2.28-7.02-3.72-10.99-4.79-10.44-2.8-21.1-2.8-31.81-2.57-10.51.23-21.03.37-31.54.62-3.21.08-6.45.26-9.63.69-5.02.68-9.33,2.8-12.84,6.24-.17.17-.56.15-.85.22.06-.27.03-.61.19-.81,3.1-3.78,7.2-6.26,12.12-7.34,3.62-.8,7.34-1.21,11.04-1.63,4.21-.47,8.43-.9,12.66-1.09,5.42-.24,10.86-.37,16.28-.25,6.95.15,13.93.32,20.83,1.02,5.54.56,11.01,1.79,16.46,2.96,4,.86,7.53,2.77,10.89,4.98,3.23,2.12,5.03,5.05,6.27,8.38.64,1.72.5,3.38-.39,5.03-1.66,3.09-3.25,6.22-4.85,9.35-3.25,6.37-7.36,12.12-14.08,15.77-2.76,1.5-5.65,3.01-8.69,3.81-5.69,1.51-11.54,2.53-17.34,3.68-.53.1-1.18-.33-1.77-.51.25-.53.41-1.14.78-1.58.29-.35.82-.54,1.28-.73.78-.31,1.58-.57,2.37-.84,4.78-1.61,9.65-3.02,14.33-4.85,8.54-3.35,15.25-8.74,19.76-16.35.22-.37.22-.86.33-1.29-.48,0-1-.1-1.45.01-5.62,1.42-11.25,1.85-17.11,1.27-7.58-.75-15.22-1.15-22.84-1.18-6.26-.02-12.54.53-18.76,1.19-6.39.68-12.53-.3-18.61-1.77-5.9-1.43-11.73-3.11-17.59-4.69-1.4-.38-1.96-.08-2,1.22-.08,2.85.47,5.5,1.62,8.25,2.03,4.84,5.51,8.01,10.11,10.77,5.81,3.48,11.84,6.08,18.65,7.17,5.14.82,9.1,3.28,11.64,7.58-.19.18-.39.36-.58.54Z"/>
  <path class="cls-1" d="M258.25,58.58c-5.06-.36-10.13-.7-15.19-1.1-4.28-.34-8.24-1.77-12.17-3.29-10.11-3.91-19.41-8.91-27.36-16.1-3.5-3.16-7.66-5.75-11.76-8.26-5.53-3.38-11.32-6.38-16.93-9.64-5.45-3.17-11.4-4.79-17.73-5.44-6.58-.67-13.17-1.27-19.72-2.09-2.9-.36-5.73-.28-8.6.03-.59.06-1.67-.26-1.77-.59-.19-.66-.09-1.61.32-2.15,1.68-2.23,4.13-3.29,7.03-3.13,2.7.15,5.38.61,8.07.89,6.24.66,12.48,1.29,18.72,1.94,4.43.46,8.76,1.39,12.61,3.47,10.86,5.86,21.81,11.61,31.4,19.26.77.62,1.62,1.17,2.31,1.86,8.31,8.33,18.99,13.16,30.08,17.24,4.23,1.55,8.79,2.35,13.25,3.3,1.44.31,3.06.17,4.55-.06,6.43-.97,12.86-.66,19.31-.2,3.54.25,7.11.37,10.67.31,6.98-.11,13.92.13,20.79,1.36,3.5.63,7.02,1.12,10.53,1.71.44.07.83.4,1.24.61-.37.2-.72.53-1.11.58-.84.1-1.7.14-2.54.07-6.48-.52-12.82.66-19.2,1.35-7.99.86-15.91,1.08-23.63-1.64-1.38-.49-2.98-.57-4.48-.62-2.88-.09-5.77-.03-8.66-.03,0,.12-.02.24-.03.36Z"/>
  <path class="cls-1" d="M251.14,338.13c-.41,1.51-.72,3.06-1.25,4.53-2.79,7.8-4.47,15.81-5.72,23.95-1.44,9.42-1.38,18.88-1.07,28.31.55,16.81-2.91,32.9-9.18,48.55-5.11,12.74-11.21,25.04-19.5,36.28-3.25,4.41-6.97,8.53-10.51,12.76-.4.48-1,.83-1.52,1.21-.12.09-.44.15-.47.1-.17-.24-.43-.54-.38-.77.19-.76.4-1.54.77-2.24,2.89-5.52,5.53-11.18,8.78-16.51,11.28-18.54,19.28-38.2,23.76-59.06,1.12-5.23,1.53-10.61,1.97-15.94.76-9.27,1.07-18.57,2.99-27.72,2.04-9.75,4.19-19.47,8.32-28.69.76-1.69,1.09-3.69,3.09-4.71,0,0-.08-.06-.08-.06Z"/>
  <path class="cls-1" d="M376.38,362.4c5.51,3.2,11.59,4.82,17.86,6.39,9.45,2.37,18.96,3.22,28.64,3.27,4.74.03,9.61.43,14.21-.37,7.97-1.39,15.81-3.45,23.62-5.5,2.56-.67,5.04-1.94,7.24-3.36,5.02-3.23,5.16-7.92.87-11.98-2.6-2.46-5.69-3.85-9.16-4.83-10.63-2.99-21.44-4.61-32.58-4.14-4.91.21-9.78-.1-15.73-1.57,13.73-.21,26.29-1.21,38.76,1.25,3.81.75,7.7,1.19,11.47,2.07,2.93.69,5.86,1.6,8.55,2.86,4.49,2.1,6.52,5.82,6.7,10.4.15,3.93.31,7.87.2,11.79-.23,7.79-4.16,13.9-10.76,18.42-7.14,4.89-15.08,8.42-23.6,10.79-3.89,1.08-7.76,2.21-11.65,3.27-.8.22-1.66.23-2.49.34l.07.07c2.58-2.18,5.88-2.96,9.02-4.09,3.15-1.14,6.37-2.26,9.22-3.9,5.18-3,10.17-6.28,15.11-9.62,3.59-2.43,6.59-5.46,8.76-9.11.73-1.23,1.32-2.56,1.79-3.9.51-1.44,1.33-2.92.21-4.44-1.19.55-2.41,1.04-3.56,1.66-4.45,2.41-9.22,3.99-14.26,4.86-4,.69-7.98,1.54-12.01,1.99-4.54.5-9.13.83-13.7.87-6.1.05-12.22-.04-18.3-.48-3.16-.23-6.27-1.28-9.38-2.05-5.24-1.3-10.42-2.83-15.69-3.96-4.39-.94-8.3-2.74-12.01-4.98-2.75-1.66-4.18-4.11-3.97-7.19.04-.64.8-1.24,1.23-1.85.36.49.83.93,1.06,1.46.55,1.32.99,2.68,1.48,4.02.26,1.59,1.3,1.92,2.81,1.51Z"/>
  <path class="cls-1" d="M552.97,819.78c-12.22,4.36-29.05,4.95-41.84,2.91-4.2-.67-8.25-1.87-11.83-4.14-2.89-1.83-5.11-4.16-6.14-7.32-1.42-4.35-.39-8.24,3.36-11.13,4.17-3.21,13.44-4.64,18.83-4.89.3-.01.62.21.93.32-.28.33-.49.84-.86.97-1.1.39-6.59.49-7.65.96-2.89,1.29-5.99,2.37-8.49,4.16-4.19,3.02-4.27,7.51-.7,11.19,1.98,2.04,4.54,3.25,7.25,4.25,3.68,1.37,11.82,1.75,15.7,2.11,8.71.81,17.31.23,25.67-2.21,2.56-.75,5.05-1.86,7.38-3.11,1.58-.85,3.03-2.07,4.19-3.4,2.92-3.33,2.6-5.82-.94-8.55-1.03-.8-2.19-1.52-3.42-2.02-4.68-1.91-9.58-3.19-14.65-3.84-1.57-.2-2.36.63-1.69,1.89.82,1.54,1.95,2.93,2.87,4.43.69,1.12,2.47,1.85,1.57,3.58-1.09-.69-2.32-1.24-3.24-2.09-2.45-2.28-4.16-4.99-4.68-8.23-1.9-11.86-3.77-23.74-3.23-35.76.48-10.7,1.41-21.39,2.21-32.07.1-1.39.6-2.76.97-4.13.07-.27.4-.47.62-.71.13.26.41.53.38.77-1.29,8.32-.58,16.69-.58,25.03,0,8.98.51,17.95.91,26.93.23,5.19.62,10.38,1.05,15.57.22,2.72.39,2.7,3.46,2.89,3.89.24,7.78.45,11.64.93,3.25.4,6.15,1.76,8.67,3.74,4.42,3.46,5.32,7.5,2.71,12.24-.46.84-1.14,1.57-1.66,2.38-.14.22-.06.55-.08.83.29-.08.65-.08.87-.25,2.29-1.71,4.34-3.57,4.39-6.57,0-.3.08-.62.19-.91.05-.12.28-.3.39-.27.31.07.8.16.87.35.36,1.01.95,2.09.82,3.07-.16,1.2-.75,2.46-1.53,3.45-3.95,5.01-13.61,8.14-19.94,9.94-.26.07-.76-.05-.88-.23-.14-.2,4.18-.64,4.34-.87.53-.78,1.14-1.5,1.72-2.25.02.02.04.03.06.05Z"/>
  <path class="cls-1" d="M310.11,338.95c-2.11,1.35-4.56,1.05-6.9,1.2-5.92.37-11.85.62-17.78,1.02-6.18.41-12.06,1.85-17.22,5.16-1.94,1.24-3.8,2.67-5.39,4.28-3.44,3.5-2.98,8.7,1.05,11.67,3.6,2.65,7.52,4.85,12,6.06,3.26.87,6.53,1.71,9.75,2.7,4.6,1.42,9.37,1.55,14.1,1.44,13.91-.33,27.77-1.41,41.52-3.49.84-.13,1.65-.39,2.48-.52,5.9-.9,9.84-3.93,11.74-9.22.16-.44.38-.89.68-1.26.14-.18.52-.22.8-.25.08,0,.29.24.28.36-.19,1.37-.04,2.91-.69,4.07-2.67,4.81-6.42,8.4-12.64,9.16-6.55.8-13.07,1.85-19.6,2.82-6.53.97-13.06,1.9-19.56,3.02-5.74.99-11.47,1.21-17.19.14-4.98-.94-9.94-1.96-14.85-3.16-4.7-1.15-8.54-3.77-12.04-6.83-.33-.29-.85-.39-1.28-.58-.11.41-.34.83-.3,1.23.51,4.6,1.8,8.97,4.45,12.94,2.97,4.44,6.68,7.79,12.61,8.68,4.75.72,8.76,3.32,12.8,5.6,1.33.75,2.13,2.35,3.11,3.6.12.15-.05.65-.25.81-.17.14-.74.14-.86,0-2.62-3-6.48-3.93-10.12-5.15-1.88-.64-3.93-1.09-5.92-1.16-4.74-.16-8.52-2.08-11.59-5.2-3.88-3.95-6.33-8.6-6.4-14.05-.07-5.51.06-11.03.15-16.54.05-3.15,1.42-5.76,3.79-8,5.78-5.45,12.52-8.84,20.86-9.83,7.47-.89,14.9-.51,22.36-.67,2.03-.05,4.07.01,6.11.02l-.06-.06Z"/>
  <path class="cls-1" d="M199.18,464.98c-.63,1.77-1.07,3.63-1.93,5.3-4.65,8.97-10.36,17.39-16.8,25.3-12.87,15.8-19.38,33.78-21.92,53.17-1.23,9.37-1.95,18.8-2.97,28.19-.92,8.46-1.74,16.93-2.98,25.35-.66,4.5-2.09,8.9-3.27,13.33-.18.66-.9,1.19-1.37,1.79-.34-.61-.92-1.2-.99-1.83-.94-8.66-.43-17.31.51-25.93,1.11-10.18,2.31-20.35,3.74-30.5,1.86-13.14,4.88-26.05,10.07-38.45,3.71-8.87,8.63-17.1,15.06-24.52,8.19-9.47,15.78-19.32,21.92-30.08.23-.4.66-.7.99-1.04l-.07-.06Z"/>
  <path class="cls-1" d="M549.98,537.83c-.29,2.13-.79,5.88-1.36,9.61-.06.36-.55.84-.92.92-.27.06-.91-.4-1-.72-1.05-3.81-2.44-7.59-2.95-11.47-1.41-10.73-6.05-20.25-11.94-29.37-1.31-2.03-2.63-4.05-4.05-6.01-7.42-10.21-12.22-21.32-14.15-33.56-1.52-9.66-3.43-19.26-3.8-29.04-.13-3.46.07-6.92.15-10.39,0-.28.23-.56.36-.85.23.3.62.58.66.9.77,6.25,1.17,12.56,2.31,18.74,1.49,8.06,3.43,16.05,5.41,24.03,1.73,6.96,4.83,13.43,9.14,19.37,2.37,3.26,4.83,6.47,7.24,9.71,4.35,5.85,8.18,11.96,11.1,18.54,2.55,5.74,3.88,11.72,3.81,19.58Z"/>
  <path class="cls-1" d="M435.67,820.8c6.03-1.05,10.53-4.07,13.55-9.03.27-.44.86-.71,1.3-1.06-.05.59.02,1.22-.18,1.76-1,2.78-2.95,4.99-5.32,6.8-1.95,1.49-4.04,2.92-6.29,3.98-7.46,3.53-15.41,5.72-23.67,6.95-.5.07-1.03.15-1.52.07-.44-.06-.85-.33-1.27-.5.23-.37.37-.85.71-1.1.78-.57,1.66-1.03,2.5-1.53-1.04.08-2.09.12-3.13.24-10.55,1.25-20.99.9-31.27-1.8-4.11-1.08-7.99-2.63-11.41-5.06-2.36-1.68-4.15-3.78-5.17-6.32-1.56-3.92-1.36-7.84,1.43-11.24,4.01-4.88,9.4-7.59,16.04-8.04.5-.03,1.02.05,1.51.17.29.07.54.32.8.49-.21.21-.39.59-.63.62-3.6.43-6.95,1.51-9.93,3.41-1.66,1.06-3.31,2.26-4.58,3.69-3.42,3.85-3.29,8.21.18,12.06,2.34,2.61,5.41,4.24,8.78,5.47,5.42,1.99,11.11,2.96,16.85,3.39,13.09.97,25.75-.8,37.63-6.2,3.17-1.44,6.3-3.16,9.02-5.24,5.44-4.16,4.93-8.28-1.11-11.57-3.13-1.7-6.58-2.48-10.14-2.93-3.19-.41-6.39-.76-9.58-1.17-.3-.04-.57-.3-.85-.46.3-.33.55-.92.89-.97,8.13-1.18,15.97-.44,22.96,3.9,5.51,3.41,6.28,8.66,1.93,13.39-1.95,2.12-4.59,3.69-6.93,5.49-1.03.79-2.11,1.54-3.16,2.3-.27.06-.54.12-.81.18.11.15.21.29.32.44.18-.19.36-.37.54-.56Z"/>
  <path class="cls-1" d="M155.83,829.87c-4.88-.05-9.53-.83-14.01-2.45-3.35-1.21-6.37-2.95-8.92-5.34-5.11-4.78-7.09-13.94,1.73-19.64,4.75-3.07,9.96-4.69,15.65-5.01,1.27-.07,2.59.5,3.86.85.17.05.31.56.27.83-.04.26-.27.65-.51.71-.64.17-1.33.19-1.99.3-5.11.83-9.74,2.7-13.81,5.67-5.16,3.76-5.31,8.2-.43,12.34,3.33,2.83,7.28,4.64,11.73,5.32,11.88,1.83,22.9-.53,33.18-6.15,1.45-.79,2.82-1.8,3.97-2.93,1.27-1.24,2.43-2.65,3.3-4.15,1.67-2.87,1.37-4.48-1.18-6.74-1.59-1.41-3.38-2.62-5.11-3.9-.79-.59-1.66-1.1-2.43-1.7-.21-.17-.35-.59-.28-.83.06-.18.55-.4.78-.35,3.66.8,7.17,1.97,10.05,4.31,3.39,2.76,4.32,5.86,2.49,9.76-1.06,2.26-2.57,4.46-4.34,6.3-5.99,6.25-13.89,9.44-22.47,11.26-3.77.8-7.69,1.05-11.54,1.54Z"/>
  <path class="cls-1" d="M564.75,581.91c.07,7.08-.61,14.2.83,21.21,1.11,5.4,2.43,10.78,4.05,16.07,3.71,12.08,10.18,22.92,17.38,33.49,4.62,6.77,8.6,13.92,12.71,20.99,3.86,6.65,4.6,14.08,5.93,21.38,1.49,8.2.74,16.32-.19,24.47-.07.61-.28,1.22-.55,1.78-.1.21-.54.3-.85.37-.09.02-.32-.17-.36-.29-.22-.75-.46-1.5-.59-2.26-1.65-9.96-3.32-19.91-4.9-29.88-.85-5.33-2.46-10.4-4.78-15.36-4.66-9.98-10.13-19.57-15.68-29.14-5.82-10.04-9.34-20.88-12.33-31.92-2.53-9.34-1.84-18.76-1.6-28.19.02-.89.64-1.77.97-2.65l-.06-.06Z"/>
  <path class="cls-1" d="M278.52,820.03c10.48-.28,20.58-2.18,30.2-6.02,3.09-1.24,6.08-2.83,8.85-4.61,2.06-1.32,3.9-3.07,5.46-4.91,2.1-2.47,1.91-4.47-.45-6.76-1.51-1.47-3.32-2.69-5.01-4.01-.9-.71-1.85-1.38-2.72-2.12-.14-.12-.05-.51,0-.76.01-.07.3-.17.43-.13,4.27,1.21,8.37,2.78,11.17,6.19,2.31,2.82,2.13,5.9.23,8.87-2.11,3.32-5.09,5.87-8.47,8.06-6.49,4.21-13.74,6.83-21.3,8.81-6.07,1.59-12.31,2.39-18.57,2.73-5.96.32-11.86-.41-17.5-2.43-3.2-1.15-6.1-2.74-8.53-5.03-5.03-4.76-5.43-13.62,1.77-18.18,3.57-2.26,7.49-3.66,11.69-4.44.65-.12,1.41-.17,2,.04.53.18.9.76,1.34,1.16-.39.24-.76.63-1.18.69-4.67.71-8.71,2.63-12.11,5.62-2.87,2.52-3.6,6.18-1.53,9.02,1.29,1.77,3.12,3.33,5.03,4.55,3.12,2.01,6.84,2.77,10.56,3.19,2.86.32,5.76.32,8.64.46Z"/>
  <path class="cls-1" d="M278.2,486.75c-2.31.92-4.6,1.9-6.94,2.76-3.24,1.19-5.89,3.12-8.11,5.56-3.98,4.39-2.84,10.78,3.12,12.9,7,2.48,14.21,4.42,21.75,4.39,8.13-.03,16.3.07,24.39-1.1,8.75-1.27,16.59-4.45,23.54-9.49,1.31-.95,2.48-2.17,3.39-3.47,1.16-1.66.88-3.41-.8-4.66-1.84-1.37-3.97-2.39-5.94-3.62-1.65-1.03-3.25-2.14-4.87-3.22,2.33-.93,4.05.67,5.92,1.36,2.03.74,3.94,1.84,5.78,2.96,3.88,2.35,4.67,5.58,2.36,9.39-1.69,2.79-4.09,5.03-6.82,6.94-6.9,4.83-14.49,8.15-23.19,9-9.98.98-19.99,1.33-29.93-.2-4.5-.7-8.91-1.94-13.32-3.08-1.62-.42-3.19-1.11-4.66-1.87-6.78-3.5-8.45-11.49-3.42-16.96,1.63-1.77,3.67-3.3,5.78-4.57,3.55-2.14,7.66-2.89,11.97-3.01Z"/>
  <path class="cls-1" d="M261.67,344.3c-.64-7.89,1.41-14.34,5.02-20.33,2.73-4.52,5.83-8.87,9.04-13.11,5.49-7.26,9.9-15.02,13.49-23.22,3.43-7.82,5.18-15.91,5.1-24.4-.06-6.13.24-12.27.53-18.4.21-4.42,1.22-8.74,2.92-12.88.14-.35.67-.57,1.01-.85.31.35.85.68.89,1.06.35,2.96.82,5.94.83,8.91.04,6.77-.41,13.54-.2,20.3.39,12.17-3.11,23.33-9.32,33.89-3.67,6.23-7.87,12.13-12.74,17.62-2.69,3.04-5.32,6.13-7.77,9.34-3.35,4.39-5.96,9.17-7.33,14.44-.59,2.26-.91,4.59-1.5,7.62Z"/>
  <path class="cls-1" d="M358.2,364.35c2.39,9.52-1.78,18.97-10.28,24.17-2.41,1.47-4.86,2.89-7.24,4.4-2.83,1.8-5.84,3.18-9.14,4.05-4.43,1.17-8.59,2.92-12.48,5.23-4.14,2.47-6.47,5.84-6.73,10.49-.51,9.3-1.97,18.47-4.35,27.54-1.69,6.45-1.86,13.09-1.76,19.73.1,5.83-.03,11.66,0,17.49.02,5.42,1.52,10.58,3.18,15.74.47,1.46,2.02,3.05.33,4.71-.93-1.25-2.12-2.4-2.75-3.78-3.75-8.18-4.33-16.76-3.6-25.51.66-8.01,1.13-16.03,1.72-24.04.7-9.42,1.39-18.85,2.22-28.26.18-2.02.93-3.99,1.41-5.98.33-1.37.82-2.74.93-4.13.22-2.78,1.73-4.68,4.18-6.12,4.36-2.55,9.12-4.26,14.09-5.29,6.41-1.33,12.12-3.93,17.56-7.23,7.49-4.54,11.3-11.08,12.43-19.14.19-1.34.19-2.71.28-4.06Z"/>
  <path class="cls-1" d="M347.72,324.01c-5.12,1.25-9.64,3.29-13.48,6.5-1.5,1.25-2.9,2.67-4.03,4.22-1.82,2.51-1.69,4.63.54,6.88,1.35,1.36,3.03,2.57,4.8,3.41,2.09,1,4.38,1.79,6.68,2.21,8,1.48,16.07,2.31,24.27,1.66,6.59-.52,13.23-.75,19.63-2.41,3.24-.84,6.55-1.8,9.48-3.3,8.41-4.31,8.41-13.76.1-18.25-2.63-1.42-5.51-2.43-8.27-3.64-.46-.2-.92-.42-1.31-.71-.24-.18-.44-.5-.48-.78-.02-.11.48-.42.7-.39,4.2.6,8.36,1.4,12.01,3.57,7.85,4.67,8.92,14.78,2.23,20.87-2.84,2.59-6.28,4.38-10.04,5.39-4.38,1.17-8.86,2.23-13.37,2.78-11.31,1.4-22.65,1.64-33.92-.52-4.01-.77-8-1.69-11.33-3.97-1.87-1.28-3.65-2.87-4.9-4.67-2-2.87-1.98-6.05.22-8.88,4.15-5.32,9.87-8.54,16.68-10.08,1.18-.27,2.52.05,3.78.09Z"/>
  <path class="cls-1" d="M434.82,263.05c0-6.93-.06-13.85.05-20.78.02-1.43-.61-3.2,1.23-4.24.58,1.27,1.28,2.5,1.71,3.81,3.01,9.16,3.1,18.62,3.29,28.08.11,5.35.37,10.7.61,16.04.2,4.62,1.51,9.04,3.46,13.25,1.67,3.61,3.57,7.14,5.6,10.59,2.89,4.9,6.55,9.19,12.07,11.83.29.14.37.74.41,1.13,0,.09-.6.37-.87.31-1.14-.23-2.44-.31-3.35-.89-2.78-1.77-5.83-3.4-8.01-5.71-9.43-9.99-15.44-21.43-15.66-35-.1-6.14-.02-12.28-.02-18.42-.17,0-.35,0-.52,0Z"/>
  <path class="cls-1" d="M175.69,55.65c-.37,8.08-1.38,16.02-3.74,23.82-1.05,3.47-1.64,7.08-2.24,10.65-.84,4.98-2.75,9.42-6.95,12.8-4.83,3.88-10.25,5.43-16.49,3.46-.38-.12-.93-.58-.91-.84.03-.36.47-.88.85-1,2.08-.68,4.2-1.25,6.3-1.87,7.18-2.14,11.28-6.45,12.08-13.64.45-4.04,1.56-8.06,2.81-11.98,3.26-10.24,4.51-20.66,4.1-31.3-.03-.79-.05-1.58-.14-2.36-.99-8.12-5.04-12.51-13.6-14.53-2.45-.58-5.01-.76-7.51-1.17-.27-.04-.5-.36-.74-.55.26-.17.49-.44.77-.48,12.05-1.98,22.82,5.31,24.47,16.74.58,4.05.64,8.16.94,12.25Z"/>
  <path class="cls-1" d="M648.65,814.61c-4.46-.85-8.96-1.56-13.38-2.59-7.55-1.77-14.99-3.95-22.57-5.55-5.6-1.18-11.36-1.68-17.04-2.54-1.67-.25-3.33-.59-4.95-1.02-6.5-1.72-10.98-5.66-13.2-11.47-1.23-3.22-1.56-6.73-2.23-10.13-.08-.39.26-.85.41-1.28.46.4,1.18.73,1.33,1.21.62,1.96.94,4,1.6,5.94,2.2,6.56,6.7,10.82,14.25,11.87,1.84.26,3.68.64,5.53.7,14.89.45,29.15,3.76,43.11,8.26,3.66,1.18,7.09,2.96,10.59,4.53.3.13.41.76.44,1.17.01.13-.48.43-.76.44-1.01.05-2.03.02-3.04.02-.03.14-.06.29-.09.43Z"/>
  <path class="cls-1" d="M355.84,149.97c-.16,2.2-.39,4.4-.47,6.6-.3,7.93-3.2,15.12-7.58,21.78-1.38,2.1-3.52,3.78-5.4,5.56-.14.13-1.36-.3-1.45-.63-.21-.73-.16-1.58.02-2.33.86-3.52,1.46-7.15,2.79-10.52,2.35-5.95,3.78-12.05,5.06-18.25,2.38-11.51,3.06-23.1,2.97-34.78,0-.31.5-.62.77-.93.22.2.59.36.64.59.35,1.7.73,3.4.91,5.12.54,5.01,1.05,10.03,1.45,15.05.33,4.23.48,8.47.71,12.7-.14,0-.28.01-.42.02Z"/>
  <path class="cls-1" d="M135.28,37.71c4.42.91,8.92,1.73,13.34,2.81,2.58.63,3.09,2.01,1.82,4.37-.75,1.4-1.82,2.65-2.76,3.95-.67.92-.67,1.54.4,2.35,2.74,2.09,2.95,2.79,1.39,5.51-1.02,1.79-2.48,3.36-3.75,5.03-.7.91-1.44,1.81-.58,2.98,1.48,2.02,1.41,4.15.42,6.31-.82,1.79-.1,2.92,1.54,3.95,1.39.87,2.67,1.94,3.79,3.1.64.66,1.22,1.72,1.13,2.53-.08.7-1.23,1.26-1.77,1.97-1.06,1.4-2.01,2.87-3.02,4.31-1.47,2.1-2.93,4.21-4.47,6.27-.19.26-.83.23-1.26.33-.03-.44-.24-.96-.06-1.3,1.4-2.7,2.89-5.35,4.31-8.04,1.11-2.11.94-2.63-1.26-3.72-1.04-.52-2.19-.87-3.23-1.39-3.38-1.68-4.55-4.69-2.88-7.96.74-1.46,1.64-2.68.63-4.37-1.58-2.65-.94-5.24.83-7.57,1.47-1.93,2.34-3.64.58-5.92-1.06-1.37-.54-3.05.55-4.42.6-.75,1.23-1.53,1.98-2.14,4.15-3.38,3.22-3.61-1.5-5.05-2.26-.69-4.53-1.31-6.77-2.06-.69-.23-1.26-.78-1.89-1.18.79-.2,1.59-.4,2.51-.63Z"/>
  <path class="cls-1" d="M47.96,829.64c-6.73.46-13.19-.97-19.66-2.29-.51-.11-.9-.76-1.34-1.16.53-.27,1.05-.55,1.59-.8.14-.06.33-.03.5-.04,7.62-.38,15.25-.67,22.87-1.17,5.91-.39,11.87-.72,17.7-1.66,9.44-1.52,17.73-5.51,24.42-11.9,4.48-4.28,8.49-9,12.66-13.56,3.08-3.36,6.06-6.79,9.12-10.18.19-.21.6-.26.9-.38.01.41.21.95,0,1.2-7.51,8.74-13.46,18.59-22.08,26.56-8.63,7.99-19.05,12.53-30.98,14.12-5.2.69-10.47.86-15.72,1.27Z"/>
  <path class="cls-1" d="M397.84,719.66c.64,1.78,1.45,3.52,1.88,5.34,1.09,4.62,2.06,9.26,2.96,13.91.3,1.54.32,3.13.34,4.7.08,5.83.05,11.66.17,17.48.1,5.22-.4,10.39-1.28,15.54-.37,2.17-.73,4.37-.7,6.55.09,7.34-2.47,13.92-6.27,20.19-.25.41-.52.82-.84,1.18-1.27,1.44-2.3,3.16-4.53,3.53-1.39-1.89.09-3.55.66-5.18,1.47-4.19,3.29-8.26,4.77-12.44.57-1.62.67-3.39.86-5.11.33-2.97.56-5.95.86-8.93.62-6.28,1.23-12.55,1.9-18.82.47-4.39,1.12-8.76,1.51-13.15.21-2.33.23-4.7-.01-7.02-.63-5.95-1.46-11.89-2.22-17.83,0,0-.05.06-.05.06Z"/>
  <path class="cls-1" d="M369.84,370.19c.9,2.53,1.8,5.03,2.7,7.54,1.58,4.43,4.7,7.67,9.13,9.72,7.89,3.66,15.68,7.58,23.84,10.63,8.37,3.13,12.11,8.78,12.72,16.63.24,3.12-.14,6.29-.35,9.43-.41,6.29-.72,12.58-1.39,18.84-.91,8.48-.82,16.99-1.33,25.46-.3,5.1-2.37,10.12-3.7,15.16-.09.32-.68.53-1.03.79-.17-.43-.52-.88-.47-1.29.19-1.56.41-3.12.79-4.65.65-2.61,1.61-5.16,2.09-7.79.45-2.47.74-5.03.57-7.52-.35-5.4.33-10.7,1.12-16.01.23-1.55.35-3.13.36-4.69.06-6.45-.02-12.91.1-19.36.08-4.27.2-8.51-.99-12.69-1.4-4.9-4.38-8.25-9.82-9.91-8.91-2.72-16.95-7.23-24.92-11.74-6.83-3.86-9.19-10.22-9.94-17.24-.03-.3.06-.63.15-.93.04-.14.21-.24.35-.39Z"/>
  <path class="cls-1" d="M457.91,264.58c.39,5.33.87,10.65,1.14,15.99.17,3.45.09,6.92,0,10.37-.02.67-.43,1.74-.94,1.91-1.1.38-1.23-.76-1.47-1.43-2.26-6.3-3.86-12.73-3.81-19.41.05-5.98.28-11.95.42-17.93.11-4.91-.55-9.74-1.84-14.49-1.28-4.73-2.67-9.43-3.98-14.15-1.63-5.88-4.3-11.25-8.67-15.84-.2-.2-.21-.55-.32-.84.42.06,1.06-.02,1.24.21,2.35,2.87,5.32,5.51,6.8,8.74,4.58,9.98,8.94,20.1,10.89,30.86.95,5.24.88,10.63,1.27,15.96-.24.02-.48.03-.73.05Z"/>
  <path class="cls-1" d="M479.7,399.26c.42.82.7,1.14.75,1.49.43,3.12.76,6.25,1.25,9.35,1.4,9.02,2.6,18.08,4.39,27.03,1.55,7.74,4.44,15.17,7.84,22.38,2,4.23,2.94,8.68,3.79,13.17.09.49-.32,1.07-.5,1.61-.54-.31-1.28-.5-1.59-.95-1.97-2.93-4.11-5.8-5.7-8.9-5.91-11.5-9.06-23.64-9.47-36.4-.28-8.8-.67-17.59-.99-26.39-.02-.61.12-1.23.24-2.39Z"/>
  <path class="cls-1" d="M134.96,640.98c-1.15,4.35-4.39,7.41-7.66,10.36-7.11,6.41-13.11,13.64-18.37,21.39-2.8,4.12-5.25,8.46-7.58,12.83-3.24,6.07-4.35,12.46-3.34,19.28.65,4.34.38,8.8.49,13.21,0,.28-.25.57-.38.85-.36-.22-.96-.37-1.06-.67-2.94-8.76-5.86-17.61-2.89-26.84,1.3-4.04,3.26-7.95,5.4-11.69,4.98-8.69,11.64-16.26,18.99-23.3,5.42-5.18,10.97-10.25,16.47-15.36l-.08-.06Z"/>
  <path class="cls-1" d="M168.6,571.9c-.72,4.18-1.73,8.35-2.09,12.56-.41,4.68-.46,9.42-.26,14.11.3,6.91.98,13.81,1.46,20.72.78,11.32-3.33,21.33-9.64,30.73-.22.33-.81.44-1.22.65-.19-.38-.53-.76-.55-1.15-.03-.62.08-1.26.24-1.86.94-3.51,1.65-7.1,2.95-10.49,2.72-7.1,3.49-14.33,3.15-21.82-.48-10.54-.24-21.09,1.78-31.51.69-3.54,1.96-6.98,3.05-10.44.17-.54.8-.96,1.22-1.43,0,0-.06-.06-.06-.06Z"/>
  <path class="cls-1" d="M529.74,566.3c1.1,3.92.89,7.82.52,11.71-1.1,11.48-.61,22.94.54,34.38.46,4.58,2.11,8.84,4.46,12.94,1.98,3.46,3.54,7.13,5.19,10.74.2.44-.18,1.1-.29,1.66-.46-.16-1.02-.22-1.36-.51-4.06-3.41-7.39-7.3-9.73-11.96-3.25-6.47-3.83-13.37-3.64-20.3.28-10.69,1.46-21.33,3.5-31.87.43-2.24.55-4.52.81-6.79Z"/>
  <path class="cls-1" d="M286.28,751.26c-.43,3.99-.7,8.72-1.5,13.36-1.34,7.8-2.07,15.6-1.86,23.5.17,6.27-1.41,12.17-4.72,17.65-.33.55-.68,1.09-1.1,1.57-.18.21-.76.41-.84.34-.29-.29-.68-.73-.61-1.04.47-2.31,1.12-4.6,1.55-6.91.65-3.55,1.67-7.13,1.65-10.7-.04-9.02.83-17.91,2.76-26.73,1.67-7.63,1.56-15.33,1.28-23.05-.21-5.82-.6-11.63-2.26-17.3-.08-.27.3-.66.46-1,.21.23.54.43.6.68.99,3.98,2.24,7.92,2.83,11.95.82,5.6,1.14,11.27,1.75,17.66Z"/>
  <path class="cls-1" d="M232,603.49c-.53,8.65-.98,17.31-1.62,25.96-.3,4.08-1.1,8.12-1.41,12.2-.2,2.66-.08,5.36.14,8.03.55,6.65-1.42,12.8-4.07,18.83-.25.57-.63,1.11-1.05,1.59-.17.2-.64.36-.88.29-.22-.07-.48-.48-.46-.72.08-.93.15-1.88.43-2.78.6-1.97,1.29-3.92,2-5.86,1.16-3.16,1.77-6.41,1.74-9.75-.04-4.41-.1-8.82-.19-13.23-.21-9.79.06-19.55,1.54-29.26,1.33-8.68.83-17.29-1.01-25.87-.36-1.7-.72-3.4-1.03-5.11-.05-.26.17-.56.27-.84.26.19.6.34.77.58.26.39.47.84.6,1.29,2.38,8.07,4.7,16.15,4.24,24.64Z"/>
  <path class="cls-1" d="M60.2,687.56c-1.87.04-3.28-.1-3.76-1.58-.47-1.45-.2-2.87,1.22-3.81,1.1-.72,2.31-1.32,3.5-1.91,5.66-2.83,10.28-6.7,13.52-11.87,2.55-4.08,4.95-8.23,7.43-12.35.25-.41.43-.99.81-1.17,3.46-1.66,5.12-4.97,7.85-7.28.25-.21.45-.5.74-.63.26-.11.61-.05.91-.06,0,.27.12.61-.02.79-1.91,2.41-3.83,4.82-5.79,7.2-1.57,1.91-2.62,3.94-2.99,6.4-.7,4.71-2.35,9.21-4.62,13.46-3.22,6.04-7.98,10.55-15.25,12.31-.66.16-1.32.32-1.98.41-.67.09-1.35.1-1.59.11ZM64.67,682.59c6.06-1.28,9.33-5.17,11.17-10.37.13-.07.29-.12.39-.22.07-.07.07-.2.1-.31-.14.19-.28.39-.43.58-3.23,3.29-6.31,6.73-10.3,9.31-.38.24-.58.72-.87,1.08l-.61.44c.18-.17.36-.34.54-.52Z"/>
  <path class="cls-1" d="M462.08,566.29c3.19,3.08,4.2,7.09,5.31,11.02,3.01,10.67,2.84,21.49,1.57,32.36-.95,8.14-2.1,16.27-2.52,24.43-.33,6.48-1.42,12.83-2.37,19.21-.49,3.29-1.65,6.44-3.89,9.12-.4.48-.99.85-1.55,1.17-.22.13-.7.09-.92-.05-.21-.14-.4-.57-.32-.78.42-1.03.87-2.05,1.41-3.02,3.04-5.44,4.43-11.24,4.1-17.33-.39-7.28.53-14.45,1.46-21.65,1.01-7.81,2.13-15.63,2.65-23.48.61-9.33-.6-18.54-3.88-27.45-.43-1.18-.65-2.42-.97-3.63l-.08.06Z"/>
  <path class="cls-1" d="M240.8,581.32c-.31,2.31-.73,4.61-.92,6.93-1.31,15.87-2.62,31.74-1.1,47.68.39,4.08.39,8.19.48,12.29.08,4.01.86,7.83,3.21,11.28.45.66.84,1.39,1.06,2.14.38,1.25,1.66,2.49.27,3.85-1.32-.61-2.93-.95-3.89-1.88-3.16-3.04-5.14-6.79-5.13-11.03.03-10.4.22-20.81.6-31.2.23-6.3.83-12.58,1.46-18.86.57-5.64,1.36-11.27,2.16-16.89.21-1.5.83-2.94,1.26-4.41.18.03.36.07.53.1Z"/>
  <path class="cls-1" d="M295.92,409.26c2.48,3.95,2.61,8.44,3.09,12.77,1.06,9.55,1.62,19.14,2.67,28.69.64,5.88.1,11.64-.88,17.41-.8,4.66-1.8,9.29-2.78,13.93-.23,1.07-.72,2.09-1.11,3.12-.05.12-.3.29-.39.26-.29-.1-.74-.24-.77-.43-.28-1.53-.74-3.09-.66-4.62.14-2.99.45-5.98.94-8.93,1.04-6.25,1.34-12.52,1.21-18.83-.18-9.45-.05-18.9-.26-28.35-.11-5.03-.66-10.05-1-15.07l-.06.06Z"/>
  <path class="cls-1" d="M345.85,570.14c1.66,2.36,1.66,5.09,1.87,7.73.63,7.85,1.18,15.71,1.67,23.58.17,2.66.1,5.34.1,8.01,0,1.57-.11,3.15-.13,4.72-.07,5.51.01,11.02-.21,16.52-.33,8.33-3.11,16.07-7.06,23.49-.22.42-.53.81-.87,1.15-.22.21-.58.29-.87.43-.12-.28-.39-.6-.33-.84.28-1.23.49-2.5,1.02-3.65,4.73-10.28,4.99-21.12,4.91-32.04-.1-13.7-.02-27.41-.02-41.11,0-2.68-.01-5.36-.02-8.04,0,0-.06.06-.06.06Z"/>
  <path class="cls-1" d="M379.06,102.33c-.18,4.49-.37,8.07-.47,11.66-.15,5.86.38,11.68,2.18,17.3,2.96,9.22,5,18.63,6.98,28.05.72,3.43,1.92,6.66,3.76,9.73,1.08,1.81,2.64,3.68,1.3,6-2.62-.42-3.83-2.41-5.16-4.16-2.2-2.87-3.37-6.19-4.1-9.6-1.83-8.65-3.72-17.29-5.23-25.99-.94-5.42-1.54-10.93-1.7-16.42-.12-4.22.62-8.47,1.1-12.69.12-1.04.69-2.03,1.34-3.87Z"/>
  <path class="cls-1" d="M618.33,652.43c-.07,4.23-2.44,5.71-6.06,4.23-2.54-1.03-4.73-2.62-6.14-4.82-1.9-2.96-3.75-6-5.14-9.19-2.24-5.12-3.64-10.5-4.15-16.03-.05-.52.42-1.07.65-1.61.57.24,1.34.34,1.68.75,1.05,1.23,2.11,2.5,2.85,3.9,2.38,4.45,5.69,8.18,9.65,11.48,2.69,2.23,4.88,4.85,5.99,8.09.41,1.19.52,2.47.66,3.2ZM603.29,638.95c-.13.03-.37.04-.38.1-.07.29-.21.63-.1.87,1.87,4.42,4.05,8.68,8.09,11.8.53.41,1.48.36,2.23.53.08-.75.44-1.6.17-2.22-.56-1.29-1.28-2.61-2.26-3.65-2.34-2.48-4.86-4.81-7.32-7.2-.11-.11-.29-.15-.43-.23Z"/>
  <path class="cls-1" d="M368.09,291.78c.34-7.86.46-15.73,1.09-23.56.4-5,1.53-9.95,2.37-14.91.1-.61.42-1.2.69-1.77.13-.27.41-.47.63-.7.15.38.46.78.43,1.15-.28,3.6-.74,7.2-.89,10.8-.14,3.29-.1,6.61.13,9.89.37,5.2.06,10.36-.42,15.54-.48,5.16-.53,10.35-.69,15.53-.09,2.67.12,5.35-.06,8.02-.27,3.98-.12,7.86,1.93,11.49.31.54.42,1.19.52,1.81.03.23-.21.66-.41.71-.24.06-.71-.11-.84-.32-1.75-2.71-3.26-5.48-3.5-8.75-.39-5.34-1-10.66-1.34-16-.19-2.97-.03-5.97-.03-8.95.13,0,.27,0,.4,0Z"/>
  <path class="cls-1" d="M256.19,94.53c.28.03,1.62.11,2.92.37.34.07.75.67.77,1.04.01.38-.32.97-.67,1.12-.91.38-1.89.7-2.88.79-10.45.96-20.12,4.09-29.5,8.39-7.75,3.55-15.81,6.51-23.73,9.74-2.64,1.08-5.27,2.19-7.92,3.23-.4.16-.94.02-1.42.03.23-.48.31-1.16.71-1.41,1.68-1.06,3.4-2.1,5.22-2.94,10.63-4.93,21.26-9.85,31.94-14.67,7.53-3.4,15-5.1,24.58-5.69Z"/>
  <path class="cls-1" d="M427.58,431.37c-.2,3.13-.44,6.26-.6,9.4-.63,12.1-1.18,24.2.45,36.29.39,2.89,1.52,5.43,2.95,7.96,1.2,2.12,1.14,3.62.19,3.77-1.79.28-2.83-.87-3.78-1.96-1.95-2.24-3.06-4.84-3.68-7.68-1.1-4.99-1.07-10.02-.7-15.05.46-6.27,1.19-12.53,1.74-18.8.49-5.48.88-10.97,1.35-16.45.13-1.56.39-3.11.65-4.66.04-.24.41-.43.63-.64.13.24.35.47.37.72.07.78.07,1.57.07,2.36,0,1.57,0,3.15,0,4.72.12,0,.24.01.37.02Z"/>
  <path class="cls-1" d="M556.98,492.6c-4.66.13-8.07-1.15-11.24-3.07-4.02-2.43-7.33-5.56-10.21-9.09-1.57-1.92-2.48-4.12-2.4-6.56.02-.47.63-1.06,1.14-1.33.27-.15,1.13.14,1.31.45.74,1.22,1.44,2.48,1.93,3.8.49,1.31,1.27,2.1,2.76,2.44,3.77.86,7.53,1.78,11.27,2.74,2.27.59,4.59,1.11,6.7,2.05,1.29.57,2.37,1.76,3.25,2.87,1.52,1.93.53,5.88-3.24,5.7-.68-.03-1.35,0-1.25,0ZM553.52,489.5c1.32,0,1.84.08,2.32-.02.58-.13,1.11-.41,1.67-.62-.38-.45-.68-1.2-1.16-1.32-3.53-.87-7.09-1.63-10.66-2.39-.25-.05-.76.14-.81.31-.07.23.08.65.29.82,2.65,2.05,5.7,3.16,8.35,3.23Z"/>
  <path class="cls-1" d="M528.18,728.96c1.24,2.13,1.61,4.4,1.56,6.68-.14,7.23-.39,14.45-.6,21.67-.02.63-.17,1.25-.16,1.88.08,10.83.27,21.67.2,32.5-.02,3.74.01,7.59-1.91,11.08-.45.81-1.13,1.52-1.73,2.26-.08.1-.4.17-.46.11-.22-.18-.56-.46-.53-.66.11-.77.24-1.55.55-2.27,1.48-3.46,1.75-7.07,1.29-10.68-1.09-8.64-.97-17.23.35-25.84.54-3.55,1.22-7.16-.03-10.74-.15-.42-.03-.94,0-1.41.49-8.14.98-16.29,1.48-24.59Z"/>
  <path class="cls-1" d="M215.52,353.05c-1.79-.01-3.07-1.38-2.96-2.92.13-1.82,1.04-3.38,2.5-4.49,2.22-1.68,4.5-3.34,6.95-4.69,2.91-1.59,6.02-2.86,9.07-4.23,4.79-2.14,9.14-4.78,12.22-8.94.37-.51.91-.92,1.39-1.35.1-.09.42-.15.47-.1.18.21.46.54.39.7-.47.99-.9,2.04-1.58,2.91-5.98,7.51-13.32,13.79-21.12,19.61-1.69,1.26-3.76,2.08-5.69,3.04-.58.29-1.28.35-1.64.45ZM217.36,349.12c3.48-1.53,6.33-3.89,9.05-6.41.18-.16.14-.53.2-.8-.3-.01-.68-.15-.88-.03-2.88,1.82-5.75,3.66-8.6,5.53-.25.16-.38.5-.53.78-.07.13-.12.38-.05.44.21.18.48.3.81.48Z"/>
  <path class="cls-1" d="M295.65,648.88c3.35.35,6.71.66,10.05,1.09.98.13,2.01.47,2.84.96.8.48,1.72,1.19,1.95,1.96.36,1.2-.69,2.08-1.81,2.53-.89.36-1.93.61-2.89.56-7.1-.35-14.19-.77-21.28-1.19-1.86-.11-3.72-.27-5.57-.41-1.1-.08-2.06-.51-2.21-1.58-.19-1.41,1.01-1.96,2.2-2.12,3.69-.49,7.39-.88,11.1-1.23,1.85-.18,3.72-.2,5.58-.29.01-.1.02-.19.03-.29Z"/>
  <path class="cls-1" d="M170.65,481.04c-.63,1.43-1.04,3-1.94,4.26-3.82,5.38-7.6,10.8-11.76,15.95-5.64,6.99-10.34,14.34-12.83,22.85-.79,2.72-2.12,5.3-3.27,7.92-.16.37-.7.61-1.07.9-.21-.34-.64-.71-.6-1.03,1.36-10.48,4.65-20.22,12.02-28.58,6.11-6.93,11.92-14.09,17.9-21.13.4-.47,1.03-.77,1.55-1.14h0Z"/>
  <path class="cls-1" d="M252.12,424.47c-.2,4.72-.5,9.44-.58,14.16-.16,9.51-3.51,18.22-7.63,26.74-.23.47-.96.72-1.46,1.07-.08-.6-.32-1.23-.2-1.79.79-3.54,1.41-7.14,2.55-10.59,2.36-7.13,3.42-14.43,4.02-21.83.35-4.4.78-8.79,1.18-13.18.04-.47,0-.98.18-1.4.57-1.34-.13-3.25,2-3.9.05,1.37.14,2.74.15,4.11.03,2.2,0,4.41,0,6.61-.07,0-.15,0-.22,0Z"/>
  <path class="cls-1" d="M458.08,201.85c1.06.44,2.27.71,3.15,1.36,2.38,1.76,4.85,3.49,6.84,5.6,2.43,2.56,5.19,4.23,8.68,5.37,2.8.91,5.32,2.67,7.8,4.27,1.05.68,1.86,1.84,2.48,2.92,1.05,1.85.41,4.11-1.33,5.55-1.32,1.09-3.35,1.28-5.19.18-1.26-.75-2.44-1.72-3.38-2.8-1.48-1.71-2.86-3.52-4.05-5.41-3.62-5.75-8-10.9-13.53-15.18-.62-.48-1.01-1.2-1.51-1.81l.04-.04ZM477.32,218.64c-.08.27-.32.6-.22.79,1.4,2.59,4.6,5,5.83,4.44.13-.06.31-.24.3-.35-.33-2.78-3.05-3.42-4.98-4.77-.12-.09-.31-.13-.47-.15-.15-.02-.31.02-.46.03Z"/>
  <path class="cls-1" d="M554.32,661.76c1.49.21,2.98.49,4.48.62,4.37.36,6.47,3,7.7,6.52.93,2.66.29,4.58-2.39,6.01-1.73.92-3.7,1.72-5.65,1.96-6.86.84-19.07,1.58-25.97,2.02-4.71.3-9.47.06-14.2.03-.29,0-.58-.26-.87-.4.26-.37.45-.98.78-1.06,1.46-.34,2.96-.61,4.46-.77,9.07-.93,23.47-1.79,32.54-2.76,2.17-.23,4.35-.65,6.44-1.25,2.36-.68,2.92-1.83,2.41-3.96-.64-2.64-2-4.55-5.13-5.18-1.58-.32-3.02-1.21-4.53-1.85l-.06.06Z"/>
  <path class="cls-1" d="M415.98,525.36c.19-1.44.2-1.92.33-2.37.07-.24.37-.61.55-.6.26.01.58.27.74.5.18.25.28.58.3.89.45,6.66,4.6,11.71,8.69,16.69,3.28,4,8,6.15,13.06,7.73,4.64,1.45,9.22,3.06,13.81,4.64.78.27,1.49.72,2.22,1.11.11.06.21.3.16.39-.12.24-.34.63-.5.62-1.85-.08-3.76.03-5.52-.4-4.4-1.1-8.82-2.23-13.07-3.75-6.31-2.25-11.54-5.89-14.84-11.56-1.44-2.48-3.02-4.93-4.14-7.54-.98-2.3-1.39-4.8-1.81-6.33Z"/>
  <path class="cls-1" d="M280.1,258.42c.23-10.14,2.23-20.04,4.56-29.88,1.36-5.75,3.95-11.03,7.64-15.83.38-.5.9-.92,1.38-1.35.08-.07.32-.06.42,0,.11.07.25.28.21.36-.36.71-.71,1.42-1.14,2.09-3.92,6.03-6.14,12.61-7.01,19.56-.9,7.18-1.48,14.41-2.37,21.59-.54,4.37-1.42,8.71-2.17,13.05-.05.26-.37.48-.57.71-.32-.3-.91-.59-.91-.89-.07-3.14-.04-6.28-.04-9.42Z"/>
  <path class="cls-1" d="M365.06,131.77c0-6.28,0-12.56,0-18.84,0-.63.04-1.26.14-1.87.04-.23.33-.42.51-.63.18.23.5.45.53.7.4,3.75.91,7.49,1.1,11.25.4,8.01,1.16,15.96,2.92,23.83.72,3.21,1.04,6.51,1.38,9.79.16,1.54-.02,3.12-.2,4.67-.02.2-1.23.57-1.48.39-.64-.46-1.28-1.13-1.5-1.83-.8-2.54-1.83-5.1-2.04-7.71-.54-6.57-.68-13.16-.97-19.75-.13,0-.25,0-.38,0Z"/>
  <path class="cls-1" d="M364,495.86c2.58,0,4.11.02,5.63,0,2.34-.04,4.26.94,6.03,2.21,1.27.91,1.18,2.46-.32,3-1.2.43-2.68.76-3.89.52-3.06-.62-6.03-.21-9.07-.14-5.58.13-11.17-.32-16.75-.61-.51-.03-.99-.7-1.48-1.07.44-.41.82-1.09,1.32-1.19,6.47-1.22,12.89-2.83,18.52-2.7Z"/>
  <path class="cls-1" d="M486.51,356.24c.83,1.33,1.85,2.59,2.47,4,4.6,10.38,7.98,21.01,7.95,32.41-.01,4.7.66,9.4.85,14.11.08,2.03-.26,4.07-.47,6.1-.02.19-.48.48-.71.46-.23-.02-.59-.35-.62-.57-.32-2.18-.65-4.36-.84-6.55-.56-6.58-1.25-13.15-1.51-19.74-.16-4.11-.54-8.15-1.69-12.11-1.77-6.06-3.57-12.11-5.36-18.17l-.07.06Z"/>
  <path class="cls-1" d="M239.71,687.17c.44,2.9,1.04,5.8,1.27,8.71.33,4.14,2.47,7.03,6.22,9.14,4.71,2.63,9.68,4.45,15.19,4.97,2.19.21,4.37.53,6.52.92,3.94.72,7.34,2.35,9.75,5.45.18.23.16.59.23.89-.44.09-.97.36-1.3.22-.91-.39-1.75-.94-2.6-1.45-2.9-1.73-6.04-2.71-9.49-3.06-6.6-.67-12.93-2.08-18.72-5.42-4.88-2.82-7.58-6.62-7.77-11.91-.1-2.8-.02-5.6-.02-8.4.24-.02.48-.04.71-.06Z"/>
  <path class="cls-1" d="M340.39,60.84c5.25.5,9.68,2.06,13.45,4.9,7.64,5.76,13.29,13,17.58,21.18.3.56.55,1.17.67,1.78.12.58.04,1.2.05,1.81-.39-.36-.93-.66-1.16-1.1-3.12-6.06-7.77-11.06-12.65-15.92-3.66-3.63-7.97-6.34-12.92-8.21-1.88-.71-3.71-1.56-5.49-2.47-.47-.24-.66-.95-.98-1.45.59-.21,1.19-.43,1.45-.53Z"/>
  <path class="cls-1" d="M162.32,767.97c.12,2.48.31,4.97.34,7.45.09,7.85.11,15.71.18,23.56.06,5.79-1.65,11.16-4.48,16.26-.31.55-.72,1.06-1.17,1.52-.18.18-.65.29-.9.2-.22-.08-.5-.5-.45-.71.44-1.83.74-3.72,1.47-5.45,2.08-4.91,2.7-9.98,2.85-15.21.25-8.63.78-17.25,1.22-25.87.03-.59.24-1.18.37-1.76.19,0,.37,0,.56.01Z"/>
  <path class="cls-1" d="M374.33,212.21c-5.08,0-10.16-.04-15.24.01-5.28.05-10.45-.62-15.56-1.77-.53-.12-1.01-.44-1.51-.66.65-.08,1.32-.26,1.96-.21,6.05.51,12.1,1.5,18.16,1.49,10.14-.01,20.33.38,30.44-.82,3.35-.4,6.68-.96,10.01-1.49,3.18-.5,5.41-1.81,5.1-5.28-.03-.37.44-.77.68-1.16.54.33,1.35.53,1.59,1,1.33,2.6-.13,5.74-3.36,6.86-1.88.66-3.92,1.06-5.92,1.23-5.56.46-11.12.8-16.7,1.06-3.21.15-6.43.03-9.65.03,0-.1,0-.2,0-.29Z"/>
  <path class="cls-1" d="M163.62,750.83c0,2.51.01,5.03-.02,7.54,0,.25-.4.72-.5.69-.44-.11-1.09-.29-1.2-.59-.37-1.03-.63-2.12-.77-3.2-.6-5.01-1.13-10.02-1.72-15.02-.37-3.13-.67-6.27-1.29-9.36-.3-1.49-1.13-2.94-1.98-4.27-.85-1.35-2.03-2.51-3.03-3.79-.15-.2-.09-.54-.13-.82.3-.03.7-.2.9-.08,3.31,2.06,5.97,4.55,7,8.33,1.84,6.75,2.79,13.6,2.73,20.55Z"/>
  <path class="cls-1" d="M367.32,524.9c-3.2-.25-6.4-.47-9.6-.77-6.09-.56-12.15-.41-18.2.44-.29.04-.62-.17-.94-.26.27-.25.5-.64.82-.72,6.62-1.5,13.35-2.13,20.12-1.5,4.78.45,9.46.06,14.14-.57,3.21-.43,6.3-1.28,8.13-4.19.18-.28,1.09-.51,1.29-.36.46.35.94.95.96,1.46.05,2.17-1.48,3.58-3.36,4.31-2.3.89-4.8,1.48-7.27,1.85-1.98.29-4.05.06-6.08.06,0,.08,0,.15-.01.23Z"/>
  <path class="cls-1" d="M171.62,665.35c3.49.65,7.19,1.09,10.73,2.07,3.88,1.07,7.6,2.63,11.38,4.01.61.22,1.18.61,1.69,1,.2.15.28.57.22.83-.07.25-.37.61-.6.63-.66.07-1.37.11-1.99-.05-2.6-.7-5.25-1.31-7.73-2.28-8.56-3.34-17.43-3.51-26.45-2.58-1.36.14-2.8,1.02-4.12-.15,1.2-.48,2.36-1.18,3.61-1.4,4.31-.76,8.65-1.36,13.27-2.06Z"/>
  <path class="cls-1" d="M471.05,513.44c6.36-.63,12.45-.19,18.53-.18,4.41,0,8.83.02,13.24-.07,2.96-.06,5.73-.59,7.61-3.1.22-.3,1.35-.4,1.67-.16.44.33.87,1.26.66,1.62-.61,1.07-1.32,2.39-2.38,2.87-1.93.87-4.12,1.48-6.25,1.67-2.86.25-5.78.15-8.65-.06-7.78-.56-15.55-1.26-23.33-1.92-.28-.02-.54-.32-1.11-.67Z"/>
  <path class="cls-1" d="M422.72,393.34c-2.86-.21-5.23-.37-7.58-.58-.19-.02-.49-.44-.48-.66.02-.22.35-.59.57-.61,1.35-.11,2.7-.16,4.06-.19,7.83-.19,15.57-.96,23.1-3.06,5.54-1.54,11.05-3.16,15-7.49.24-.26.86-.23,1.3-.34.06.44.31.95.17,1.32-1.06,2.7-3.4,4.25-6,5.51-5.17,2.51-10.75,3.89-16.45,4.73-4.68.69-9.43.96-13.68,1.37Z"/>
  <path class="cls-1" d="M362.68,309.95c.1,1.34.23,3.53.43,5.72.49,5.4-1.53,10.2-4.11,14.86-.23.41-.54.85-.94,1.09-.51.32-1.16.45-1.74.66-.22-.54-.73-1.14-.61-1.59.61-2.28,1.33-4.54,2.13-6.78,1.34-3.75,2.16-7.56,2.28-11.54.09-3.13.57-6.26,1.09-9.36.31-1.85-.62-3.97,1.22-5.53.22,1.99.56,3.97.61,5.96.05,1.88-.2,3.76-.37,6.51Z"/>
  <path class="cls-1" d="M403.22,172.76c.48.19.87.23,1.05.43,1.07,1.21,2.23,2.38,3.12,3.7,3.85,5.73,9.18,9.95,15.36,13.39,2.31,1.28,4.43,2.85,6.59,4.36.28.19.29.79.29,1.2,0,.09-.61.3-.89.24-1.15-.25-2.33-.45-3.4-.89-6.6-2.69-12.5-6.27-16.53-11.98-2.13-3.01-3.98-6.18-5.9-9.31-.15-.24.19-.74.31-1.14Z"/>
  <path class="cls-1" d="M393.01,678.09c.83-.08,1.66-.18,2.49-.23,6.77-.39,13.55-.65,20.3-1.21,2.67-.22,5.32-.95,7.88-1.73,2.43-.75,4.71-1.86,5.43-4.52.06-.24.91-.58,1.1-.46.36.22.67.72.73,1.14.27,1.78-.83,3-2.2,3.99-3.28,2.37-6.92,4.1-11.14,4.19-5.76.13-11.53.06-17.3-.03-2.36-.04-4.71-.36-7.06-.55-.07-.2-.15-.4-.22-.6Z"/>
  <path class="cls-1" d="M277.91,358.72c2.97,1.2,6.02,1.94,9.28,2.28,8.77.93,17.52,2.04,26.38,1.71.67-.02,1.35.07,2,.21.21.05.48.43.47.65-.01.26-.24.69-.47.74-1.79.45-3.59,1.12-5.4,1.16-3.55.08-7.13,0-10.66-.4-4.71-.52-9.39-1.34-14.05-2.16-3.02-.53-5.9-1.47-8.12-3.62.19-.19.37-.38.56-.57Z"/>
  <path class="cls-1" d="M409.01,363.91c.78-.09,1.56-.27,2.33-.26,10.07.19,19.99-1.04,29.81-2.97,4.31-.84,8.55-2,12.8-3.09,1.95-.5,3.33-1.53,3.17-3.7-.02-.28.5-.59.76-.89.36.3.88.54,1.07.92.82,1.66.28,3.17-1.14,4.24-1.02.77-2.29,1.42-3.56,1.73-14.19,3.47-28.58,5.45-43.3,4.79-.65-.03-1.29-.22-1.94-.33,0-.15,0-.29,0-.44Z"/>
  <path class="cls-1" d="M307.51,823.18c-1.25,0-1.42.03-1.58,0-.32-.07-.9-.2-.89-.28.02-.41.06-1.03.33-1.17,2.33-1.25,4.66-2.51,7.1-3.57,4.16-1.8,8.15-3.86,11.34-6.93,1.86-1.78,3.27-3.96,4.95-5.91.34-.4,1.01-.55,1.53-.82.01.59.24,1.27,0,1.75-.77,1.56-1.54,3.16-2.61,4.54-5.26,6.78-12.41,10.85-20.17,12.39Z"/>
  <path class="cls-1" d="M222.69,529.44c3.7-.06,7.41.05,11.09-.21,7.76-.55,15.56-1.12,22.87-3.86,2.79-1.04,5.34-2.64,7.92-4.11.87-.49.68-1.34-.05-1.99-.12-.11-.29-.17-.41-.27-.96-.78-2.68-1.02-2.49-2.64.11-.93,2.45-.67,4.53.5,2.77,1.56,3.15,3.28.75,5.23-1.75,1.43-3.78,2.81-5.95,3.48-4.63,1.44-9.37,2.77-14.19,3.49-7.52,1.12-15.14,1.54-22.78,1.12-.44-.02-.87-.23-1.31-.36,0-.13.01-.26.02-.39Z"/>
  <path class="cls-1" d="M237.33,562.15c-.46-.19-.69-.22-.72-.31-.09-.26-.23-.66-.1-.81,1.04-1.23,2.02-2.53,3.25-3.58,3.29-2.8,7.13-4.72,11.51-5.68,3.12-.68,6.2-1.54,9.32-2.19,1.34-.28,2.44-1.8,4.05-.74-1.18.83-2.27,1.84-3.57,2.46-1.79.85-3.7,1.55-5.63,2.08-5.07,1.41-9.8,3.37-13.99,6.44-1.3.95-2.85,1.62-4.11,2.32Z"/>
  <path class="cls-1" d="M435.42,717.95c-3,.43-5.99.87-8.99,1.27-.28.04-.6-.17-.9-.26.18-.26.29-.65.54-.76,1.22-.51,2.44-1.09,3.73-1.36,3.78-.79,7.57-1.59,11.4-2.12,5.09-.71,9.9-1.9,13.82-5.25.47-.4,1.41-.33,2.14-.48-.28.69-.39,1.52-.87,2.05-3.12,3.37-7.25,5.03-11.86,5.74-2.99.46-6,.82-9.01,1.22,0-.02,0-.03,0-.05Z"/>
  <path class="cls-1" d="M365.27,236.83c1.98-1.86,4.61-1.87,7.09-1.83,6.35.09,12.41-1.25,18.48-2.73,2.48-.61,4.87-1.31,6.69-3.13.28-.27.87-.27,1.32-.4.07.58.37,1.25.17,1.74-.71,1.75-2.36,2.66-4.14,3.23-5.62,1.79-11.35,3.18-17.32,3.34-4.06.11-8.12-.05-12.18-.09,0,0-.1-.11-.1-.11Z"/>
  <path class="cls-1" d="M170.22,711.81c-.37-.33-.78-.56-.97-.91-.1-.18.09-.66.3-.79,1.12-.69,2.21-1.48,3.44-1.93,2.19-.79,4.44-1.47,6.72-2.02,5.23-1.25,10.44-2.51,15.07-5.25.34-.2.9-.09,1.36-.13-.13.4-.12.99-.4,1.16-2.53,1.53-4.96,3.31-7.71,4.38-4.33,1.69-8.88,2.91-13.35,4.3-1.43.44-2.9.77-4.46,1.18Z"/>
  <path class="cls-1" d="M410.43,243.27c-.15.28-.23.63-.46.82-2.65,2.06-5.77,3.3-9.04,4.19-2.43.66-4.93,1.16-7.42,1.6-5.06.9-9.84,2.36-13.95,5.38-.3.22-.88.11-1.34.15.18-.41.24-.98.57-1.2,2.33-1.54,4.61-3.19,7.11-4.45,1.75-.88,3.8-1.33,5.77-1.78,5.27-1.18,10.58-2.24,15.52-4.43.75-.33,1.61-.48,2.44-.63.23-.04.53.22.8.35Z"/>
  <path class="cls-1" d="M199.99,809.87c-.78,2.08-1.24,4.27-2.37,6.11-3.27,5.36-8.29,8.97-14.37,11.32-.52.2-1.24-.07-1.87-.11.3-.52.48-1.18.93-1.53,2.19-1.71,4.46-3.33,6.69-5.01,3.98-2.99,7.54-6.28,8.8-11.14.1-.39.52-.71.8-1.06.38.39.76.77,1.4,1.42Z"/>
  <path class="cls-1" d="M527.41,703.43c-4.78-.57-9.99-1.19-15.2-1.85-.41-.05-5.03-.4-5.41-.61.47-.12,5.21-.36,5.67-.34,4.4.25,8.79.65,13.19.82,7.13.26,19.17-.9,24.83-5.37.29-.23.88-.14,1.33-.2-.1.55,0,1.31-.35,1.61-1.12.94-2.34,1.81-3.64,2.53-4.52,2.48-14.88,3.04-20.43,3.41Z"/>
  <path class="cls-1" d="M340.6,381.3c-.25.56-.32,1.11-.65,1.39-1.37,1.14-2.67,2.48-4.27,3.21-3.01,1.36-6.18,2.44-9.34,3.47-2.54.82-5.15,1.45-7.77,2.05-1.47.34-2.65,1.95-4.44.89,1.4-.81,2.73-1.76,4.21-2.4,1.83-.78,3.77-1.33,5.68-1.93,4.16-1.32,8.13-2.98,11.77-5.31,1.1-.7,2.3-1.28,3.52-1.8.28-.12.81.26,1.29.43Z"/>
  <path class="cls-1" d="M507.51,535.39c-.29.36-.43.71-.69.84-2.82,1.39-5.57,2.95-8.51,4.08-5.6,2.15-11.39,3.91-15.55,8.36-.25.27-.88.22-1.33.32-.03-.42-.24-.92-.06-1.23,1.59-2.9,4.04-5.04,7.25-6.25,5.77-2.17,11.61-4.18,17.43-6.22.39-.14.92.06,1.47.1Z"/>
  <path class="cls-1" d="M583.75,688.34c-.26,1-.52,2.07-.82,3.13-1.83,6.38-5,12.04-10.41,16.44-1.38,1.12-3.05,1.93-4.62,2.83-.18.1-.71-.07-.86-.26-.13-.17-.06-.63.11-.81,1-1.07,1.96-2.18,3.09-3.12,5.17-4.32,8.7-9.6,10.95-15.68.38-1.03.96-1.99,1.48-2.97.06-.11.36-.24.42-.2.22.15.39.36.67.64Z"/>
  <path class="cls-1" d="M210.53,713.6c-.48.56-.78,1.21-1.3,1.48-1.63.82-3.28,1.7-5.05,2.17-5.9,1.58-11.69,3.33-16.57,6.99-.2.15-.6.07-.91.09.07-.4-.02-1,.24-1.17,2.43-1.69,4.75-3.61,7.43-4.88,4.37-2.08,8.97-3.73,13.49-5.52.44-.17,1.03-.23,1.47-.11.41.11.71.54,1.21.96Z"/>
  <path class="cls-1" d="M307.65,507.06c-.66.11-1.32.27-1.99.32-.3.02-.62-.16-.93-.25.16-.21.28-.54.49-.61,1.1-.38,2.22-.71,3.34-1.04,3.69-1.1,7.43-2.05,11.04-3.34,3.8-1.35,7.25-3.32,9.97-6.25.38-.41,1.09-.56,1.64-.83-.07.71.15,1.68-.26,2.08-1.6,1.57-3.23,3.23-5.17,4.38-4.76,2.81-10.17,4.09-15.64,5.13-.82.16-1.67.23-2.5.34,0,.02,0,.04.01.07Z"/>
  <path class="cls-1" d="M288.86,659.11c4.18.57,8.89,1.11,13.55,1.86,3.54.57,6.84,1.86,9.79,3.78,1.23.8,2.33,1.81,3.35,2.85.38.39.69,1.4.45,1.66-.92.98-1.4-.13-1.87-.62-2.82-2.92-6.41-4.68-10.39-5.63-3.93-.94-7.96-1.48-11.95-2.2-1.49-.27-2.99-.52-4.47-.82-.19-.04-.3-.4-.45-.61.15-.06.3-.17.45-.18.33-.04.68-.04,1.54-.08Z"/>
  <path class="cls-1" d="M432.31,504.75c-2.18-.13-3.54-.12-4.86-.32-.96-.14-1.88-.53-2.81-.82.71-1.34,2-.41,2.99-.64.48-.11,1.01-.03,1.51-.02,6.35.16,12.46-.47,17.73-4.23.29-.21.89-.04,1.35-.05-.1.41-.06.95-.33,1.2-2.31,2.18-5.15,3.52-8.38,4.03-2.65.42-5.33.62-7.2.83Z"/>
  <path class="cls-1" d="M381.52,548.15c-.46.62-.78,1.43-1.41,1.84-8.99,5.84-18.85,7.33-29.45,4.97-.39-.09-.72-.43-1.07-.65.47-.1.98-.35,1.42-.26,5.05.96,10.05.91,15.1-.12,3.85-.79,7.39-2.17,10.86-3.83,1.49-.72,3.07-1.26,4.62-1.89l-.06-.06Z"/>
  <path class="cls-1" d="M407.94,706.81c-2.38-.52-5.04-.97-7.59-1.72-1.38-.41-2.58-1.34-3.85-2.04,1.65-1.44,3.12.02,4.51.41,4.01,1.13,8.01,1,12.07.5,1.49-.18,3-.33,4.5-.37.34,0,.89.48.97.82.06.24-.43.86-.75.91-3.15.52-6.32.96-9.86,1.48Z"/>
  <path class="cls-1" d="M310.88,700.91c-.2.17-.41.43-.7.57-.9.43-1.81.89-2.75,1.21-4.93,1.7-9.86,3.38-14.81,5.03-.25.08-.6-.1-.91-.16.09-.26.12-.56.29-.77.2-.24.49-.47.79-.57,5.7-1.99,11.42-3.97,17.13-5.92.26-.09.62.05.91.13.05.01.03.26.04.48Z"/>
  <path class="cls-1" d="M362.17,258.74c.26.4.7.78.74,1.2.59,6.09.57,12.17-.67,18.21-.04.21-.4.36-.61.54-.15-.27-.4-.54-.42-.82-.05-.93-.2-1.91,0-2.81,1.25-5.42.82-10.91,1.01-16.38,0,0-.06.05-.06.05Z"/>
  <path class="cls-1" d="M360.53,247.93c1.84.58,1.81,2.04,1.81,3.43,0,2.46-.1,4.93-.16,7.39,0,0,.06-.05.06-.05-.56-2.2-1.15-4.4-1.67-6.62-.28-1.19-.42-2.41-.62-3.61.19-.18.39-.36.58-.54Z"/>
  <path class="cls-1" d="M438.58,698.57c2.59-2.14,5.17-4.3,7.78-6.42.15-.12.55.04.83.07-.07.28-.04.64-.22.84-2.23,2.53-4.59,4.91-8.23,5.69l-.16-.18Z"/>
  <path class="cls-1" d="M310.17,339.01c.31-.11.61-.28.93-.32.96-.1,1.93-.15,2.9-.2.01,0,.03.21.05.32-.98.06-1.97.13-2.95.18-.33.02-.66-.02-.99-.03,0,0,.06.05.06.05Z"/>
  <path class="cls-1" d="M554.38,661.7c-.16.01-.32.05-.48.03-.94-.08-1.88-.17-2.82-.26,1.2-1.03,2.22-.41,3.25.29,0,0,.06-.06.06-.06Z"/>
  <path class="cls-1" d="M213.6,528.27c.33.06.65.15.98.19.66.09,1.32.15,1.98.22-.69.03-1.39.12-2.08.07-.28-.02-.54-.34-.81-.53l-.07.05Z"/>
  <path class="cls-1" d="M404.48,363.42c-.46.03-.89.07-1.32.05-.07,0-.12-.32-.17-.49.45.01.89.01,1.34.05.05,0,.09.2.16.39Z"/>
  <path class="cls-1" d="M213.67,528.22c-.32-.03-.63-.05-.95-.09-.42-.05-.84-.12-1.27-.19.41.01.84,0,1.24.05.31.04.6.18.9.28,0,0,.07-.05.07-.05Z"/>
  <path class="cls-1" d="M168.66,571.96c.22-.34.44-.69.67-1.03.01.13.09.32.02.39-.22.22-.5.4-.75.59,0,0,.06.06.06.06Z"/>
  <path class="cls-1" d="M345.91,570.08c-.13-.28-.26-.56-.39-.84.11.3.22.6.34.9,0,0,.05-.06.05-.06Z"/>
  <path class="cls-1" d="M458.04,201.9c-.46-.03-.93-.05-1.39-.11-.13-.02-.23-.18-.35-.27.23-.14.55-.44.69-.38.4.16.73.47,1.09.72,0,0-.04.04-.04.04Z"/>
  <polygon class="cls-1" points="361.64 293.17 361.92 293.27 361.74 293.55 361.64 293.17"/>
  <path class="cls-1" d="M275.6,357.1c.77.54,1.54,1.08,2.31,1.62-.18.19-.37.38-.56.57-.56-.75-1.12-1.5-1.68-2.25l-.07.06Z"/>
  <path class="cls-1" d="M244.89,501.39c-.11.06-.22.11-.32.17,0-.11,0-.23,0-.34.11.06.21.12.32.17Z"/>
  <path class="cls-1" d="M295.97,409.2c-.12-.36-.23-.72-.35-1.09.1.38.2.76.29,1.14,0,0,.05-.06.05-.06Z"/>
  <polygon class="cls-1" points="427.1 417.29 426.83 417.2 427 416.92 427.1 417.29"/>
  <polygon class="cls-1" points="184.45 726.71 184.56 727.02 184.27 726.99 184.45 726.71"/>
  <path class="cls-1" d="M199.25,465.04c.12-.22.25-.45.37-.67-.02.11,0,.25-.07.33-.09.12-.24.19-.37.29,0,0,.07.06.07.06Z"/>
  <path class="cls-1" d="M170.66,481.04c.12-.27.24-.53.35-.8-.12.27-.24.53-.36.8,0,0,0,0,0,0Z"/>
  <path class="cls-1" d="M428.52,401.52c-.17.2-.33.39-.5.59.19-.17.37-.34.56-.52,0,0-.07-.07-.07-.07Z"/>
  <polygon class="cls-1" points="397.89 719.6 397.75 719.26 397.85 719.66 397.89 719.6"/>
  <path class="cls-1" d="M381.57,548.21c.2-.09.4-.19.61-.28-.08.07-.16.16-.26.19-.12.04-.27.02-.41.03,0,0,.06.06.06.06Z"/>
  <path class="cls-1" d="M275.67,357.04c-.23-.17-.46-.34-.69-.51.21.19.41.38.62.57,0,0,.07-.06.07-.06Z"/>
  <path class="cls-1" d="M486.58,356.18c-.11-.22-.22-.44-.34-.66.08.09.19.17.23.28.05.13.03.29.04.43,0,0,.07-.06.07-.06Z"/>
  <path class="cls-1" d="M252.21,336.29c-.36.61-.71,1.22-1.07,1.84,0,0,.08.06.08.06.35-.62.7-1.23,1.05-1.85l-.07-.05Z"/>
  <path class="cls-1" d="M252.27,336.34c.09-.25.18-.5.26-.74,0,.11.03.24-.02.34-.07.13-.21.24-.31.35,0,0,.07.05.07.05Z"/>
  <path class="cls-1" d="M438.74,698.75c-.21.18-.43.36-.64.53.16-.23.32-.47.48-.71,0,0,.16.17.16.17Z"/>
  <path class="cls-1" d="M365.37,236.94c-.21.17-.42.35-.63.52.18-.21.35-.42.53-.64,0,0,.1.11.1.11Z"/>
  <path class="cls-1" d="M462.16,566.23c-.2-.21-.39-.42-.59-.63.17.23.34.46.51.69,0,0,.08-.06.08-.06Z"/>
  <path class="cls-1" d="M135.04,641.04c.09-.24.17-.48.26-.72-.11.22-.22.44-.34.65,0,0,.08.06.08.06Z"/>
  <path class="cls-1" d="M189.88,660.91c.21.09.42.19.62.28-.08-.03-.18-.06-.25-.11-.11-.07-.2-.16-.3-.23,0,0-.07.06-.07.06Z"/>
</svg>