<?xml version="1.0" encoding="UTF-8"?>
<svg id="Layer_1" data-name="Layer 1" xmlns="http://www.w3.org/2000/svg" version="1.1" viewBox="0 0 553.77 530.58">
  <defs>
    <style>
      .cls-1 {
        fill: #000;
        stroke-width: 0px;
      }
    </style>
  </defs>
  <path class="cls-1" d="M992.86,50.58c3.22,0,3.22-5,0-5s-3.22,5,0,5h0Z"/>
  <g>
    <path class="cls-1" d="M484.44,427.65c5.94-2.55,11.36-5.03,16.88-7.22,8.26-3.29,16.64-6.24,25.76-5.28,2.41.25,4.86.57,7.15,1.3,9.46,3,14.57,11.29,13.18,21.14-.89,6.32-3.81,11.75-7.5,16.83-5.67,7.79-12.71,14.18-20.4,19.88-17.68,13.11-37.23,22.18-58.74,26.88-8.29,1.81-16.74,2.22-25.1.65-3.85-.72-7.77-2.05-11.17-3.98-9.02-5.1-12.24-13.28-9.2-23.19,3.77-12.28,11.91-21.03,23.1-27.06.97-.52,2.01-.96,3.07-1.24,3.54-.94,6.52-.22,7.81,1.98,1.68,2.86.03,4.95-1.7,7.13-2.68-3.69-2.77-3.82-5.68-1.57-6.81,5.24-12.18,11.68-14.81,19.98-2.47,7.77.09,11.81,8.14,13.26,8.28,1.49,16.48.06,24.33-2.12,21.67-6.03,41.06-16.47,57.43-32.05,3.99-3.79,7.34-8.28,10.82-12.57,1.09-1.34,1.83-3.05,2.44-4.69,1.23-3.32.67-5.45-2.59-6.33-4.21-1.13-8.7-1.88-13.03-1.71-10,.39-19.67,3-29.3,5.62-4.83,1.32-9.71,2.44-15.96,3.99,3.48-5.75,9.28-5.44,12.74-9.17-1.86-4.05-3.73-8.24-5.71-12.37-10.85-22.76-21.32-45.69-29.25-69.67-4.52-13.66-8.3-27.5-11.59-41.52-3.62-15.41-5.09-31.06-6.72-46.69-.71-6.77.36-13.71-.06-20.54-.48-7.67,2.06-14.52,4.31-21.58,3.89-12.21,7.46-24.52,10.08-37.39-4.23,4.83-8.42,9.71-12.71,14.49-6.41,7.14-13.56,13.4-22.15,17.82-5.82,2.99-11.9,5.05-18.53,3.16-1.86-.53-3.85-1.37-5.18-2.67-.83-.81-1.16-3.1-.6-4.11.53-.97,2.48-1.21,3.85-1.65.34-.11.9.15,1.23.41,4.6,3.51,9.12,1.9,13.7-.07,9.08-3.91,16.72-9.96,24.05-16.39,5.16-4.52,10.07-9.34,14.92-14.21,1.67-1.68,3.49-3.72,4.07-5.91,3.21-12,5.11-24.22,4.58-38.14-5.43,9.78-13.54,14.42-22.25,17.81-12.31,4.79-24.89,8.89-37.37,13.26-.13.04-.36-.21-1.23-.76,2.07-1.21,3.82-2.32,5.65-3.28,11.15-5.89,22.39-11.63,33.46-17.67,5.13-2.8,10.31-5.7,14.4-10.57-1.08-.47-1.66-.94-2.24-.94-13.8.13-27.49.97-39.86,8.06-6.72,3.85-13.41,7.77-19.95,11.92-5.98,3.8-11.71,8-17.6,11.94-10,6.68-20.54,7.81-31.5,2.64-5.6-2.64-11.08-5.57-16.56-8.46-1.09-.58-1.96-1.59-2.54-3.29,1.17.14,2.39.1,3.49.45,6.53,2.1,13,4.43,19.56,6.42,6.96,2.11,13.7,1.16,19.73-2.86,5.52-3.68,10.63-7.98,16.11-11.73,7.85-5.37,15.75-10.7,23.85-15.68,11.24-6.91,23.5-8.6,36.44-6.27,5.78,1.04,11.64,1.67,18.37,2.61-3.45-21.38-7.83-41.28-22.4-57.64-4.45,3.41-8.52,6.77-12.84,9.77-14.44,10.04-30.28,17.47-46.3,24.53-14.6,6.43-29.57,11.96-45.05,15.79-6.85,1.7-13.98,2.26-21.01,3.17-4.46.58-4.91.61-4.5,4.57,1.79,17.42,3.66,34.81,10.11,51.36,5.84,14.98,15.8,26.06,30.31,32.87,8.22,3.86,16.64,7.29,25.03,10.78,18.13,7.55,32.73,19.3,43.25,35.98,1.77,2.81,3.69,5.53,5.49,8.32,1.88,2.9,3.55,5.59,3.75,9.49.19,3.77,2.57,7.45,4.05,11.14,6.99,17.49,12.89,35.33,17.39,53.62,3.91,15.9,7.82,31.8,11.34,47.78,2.76,12.53,4.96,25.19,7.35,37.8,1.32,6.96,2.52,13.95,3.74,20.93.26,1.51.39,3.04.77,6.06-1.44-1.83-2.2-2.38-2.38-3.08-3.96-15.41-7.8-30.86-11.79-46.27-3.98-15.41-8.04-30.8-12.17-46.18-4.25-15.81-8.41-31.64-13-47.35-3.9-13.36-8.45-26.54-12.46-39.87-.88-2.94-2.53-5.1-4.5-7.19-10.97-11.7-23.94-20.3-39.16-25.52-8.59-2.94-17.23-5.81-25.64-9.21-24.33-9.85-39.53-27.56-45.58-53.25-2.91-12.36-4.76-24.78-4.72-37.48.01-4.64-.15-9.29-.18-13.93-.02-2.54-.68-4.56-2.69-6.44-5.24-4.9-5.44-10.84-2.65-17.08,2.97-6.63,7.8-11.78,13.24-16.43,11.94-10.21,25.72-17.28,40.23-22.93,9.11-3.55,18.44-5.85,27.72-8.79,4.53-1.44,8.5-3.68,13.16-4.4,20.79-3.21,43.71-1.51,59.37,14.45,9.7,9.89,16.61,22.58,21.7,35.37,10.75,27.03,9.31,53.81-1.73,80.23-5.46,13.07-11.39,25.99-18,38.51-4.87,9.22-6.88,18.8-5.94,28.79,1.47,15.67,3.2,31.37,6.09,46.82,3.73,20,9.14,39.66,15.29,59.08,8.22,25.93,18.11,51.24,28.04,76.54.23.58.62,1.1,1.32,2.31l.03-.05ZM415.55,57.09c-.56.42-6.91-3.86-7.99-4.27-3.6-1.36-7.59-1.59-11.4-1.54-7.44.09-14.86,1.74-22.03,3.6-20.93,5.44-40.5,14.2-58.18,26.73-5.56,3.94-10.37,8.95-15.41,13.58-2.21,2.03-3.27,4.65-2.94,7.78.2,1.88,1.02,2.9,2.92,2.76,3.09-.22,6.19-.4,9.25-.85,13.67-2.05,26.51-6.93,39.27-11.98,19.78-7.83,39.04-16.75,56.82-28.56,2.91-1.93,5.61-4.19,9.68-7.25h0Z"/>
    <path class="cls-1" d="M493.49,458.27c3.74-4,7.34-8.13,11.26-11.94,2.99-2.91,6.42-5.33,8.15-9.36.3-.69,1.93-1.43,2.58-1.19.76.29,1.42,1.58,1.59,2.53.6,3.39-1.19,6.12-3.35,8.26-5.63,5.56-12.53,9.26-19.27,13.17-.32-.49-.64-.97-.96-1.46h0Z"/>
  </g>
  <g>
    <path class="cls-1" d="M128.01,456.65c3.35.94,6.76,1.7,10.03,2.84,12.92,4.49,25.9,8.82,38.64,13.77,8.12,3.15,15.32,8.01,20.75,15.08,7.62,9.91,6.15,19.98-3.98,27.37-5.4,3.94-11.58,6-18.01,7.41-13.49,2.96-27.18,3.29-40.87,2.43-9.24-.58-18.51-1.56-27.62-3.2-12.25-2.2-24.32-5.41-35.29-11.55-4.55-2.55-9.01-5.57-12.79-9.15-10.36-9.81-10.15-22.5.53-32.03,9.59-8.56,21.31-12.59,33.87-14.34,1.21-.17,2.73-.15,3.7.44,1.31.8,2.93,2.14,3.1,3.43.17,1.27-.97,3.19-2.11,4.05-1.44,1.09-3.46,1.43-5.25,2.04-7.22,2.46-14.21,5.37-20.33,10.04-9.03,6.89-8.93,12.39.43,18.64,7.83,5.23,16.67,8.26,25.7,10.28,22.99,5.14,46.24,7.15,69.68,3.43,4.96-.79,9.93-2.03,14.62-3.8,5.91-2.23,6.89-6.04,2.52-10.64-4.17-4.39-8.69-8.84-13.89-11.79-12.62-7.16-25.73-13.45-38.64-20.1-1.81-.93-3.61-1.88-5.41-2.82.21-.61.41-1.22.62-1.83h0Z"/>
    <g>
      <path class="cls-1" d="M128.93,447.43c-.47-3.01-1.05-4.78-.97-6.52.65-14.1,1.09-28.22,2.26-42.28,1.02-12.18,2.46-24.37,4.52-36.42,3.11-18.12,8.05-35.82,16.1-52.43,3.1-6.39,6.99-12.59,11.5-18.06,20.25-24.58,40.92-48.82,61.3-73.29,7.05-8.46,13.16-17.59,17.36-27.84,4.71-11.52,5.87-23.75,6.4-36,.63-14.32.71-28.66,1.18-42.99.11-3.36.73-6.72,1.37-10.03.15-.8,1.18-1.7,2.01-2.01.5-.19,1.72.49,2.05,1.09.89,1.64,1.84,3.39,2.14,5.2,3.66,22.04,8.5,43.96,7.96,66.49-.35,14.86-4.82,28.55-12.2,41.47-14,24.49-34.17,42.71-57.58,57.72-6.75,4.33-13.68,8.39-20.59,12.48-3.7,2.19-6.71,4.9-9.02,8.62-5.72,9.22-9.72,19.07-12.45,29.57-3.62,13.9-6.74,27.88-8.57,42.14-2.05,15.91-3.89,31.86-6.4,47.7-1.72,10.82-4.42,21.49-6.72,32.21-.15.71-.68,1.35-1.65,3.19h0Z"/>
      <path class="cls-1" d="M149.99,82.09c-8.6,2.78-17.49,1.26-26.16,5.15,1.15,1.25,1.93,2.4,2.97,3.18,7.55,5.6,16.04,9.39,25.04,11.74,8.34,2.18,16.83,4.02,25.36,5.26,20.02,2.89,39.92,1.34,60.12-2.49-1.69-3.4-4.8-4.51-7.56-5.42-7.39-2.43-14.92-4.48-22.45-6.45-6.18-1.62-12.45-2.91-18.56-5.55.96-.13,1.93-.47,2.87-.37,10.28,1.03,20.61,1.8,30.82,3.35,5.34.81,10.56,2.81,15.66,4.72,2.27.85,4.43,2.54,6.11,4.35,4.54,4.89,3.25,10.13-2.9,12.51-1.56.6-3.25.89-4.91,1.18-16.68,2.95-33.4,3.8-50.37,2.5-14.48-1.11-28.27-4.53-41.74-9.56-6.94-2.59-13.39-6.17-19.07-11.04-1.25-1.07-2.71-2.54-4.15-2.63-3.74-.25-5.06-2.43-5.51-6.07-3.15,1.51-4.75,4-6.39,6.34-6.11,8.7-10.22,18.42-13.97,28.29-6.09,16.03-10.68,32.44-12.54,49.55-1.91,17.61.82,34.49,8.24,50.56,2.56,5.55,5.57,10.9,8.37,16.34,1.12,2.17,2.23,4.34,3.44,6.71-.81-.05-1.38.08-1.52-.11-9.53-12.95-18.66-26.11-23.19-41.85-5.52-19.2-4.84-38.24.45-57.42,3.78-13.7,8.83-26.82,15.55-39.31,2.09-3.89,4.6-7.56,6.96-11.31,5.49-8.72,13.95-13.23,23.38-16.23,5.7-1.81,11.32-.23,16.86,1.07,3.01.71,5.88,1.99,8.81,3.02h-.02Z"/>
      <path class="cls-1" d="M116.1,260.23c1.46.23,2.6.09,3.32.57,12.99,8.68,20.16,20.8,20.43,36.49.12,7.13-.37,14.34-1.37,21.41-1.97,13.98-4.15,27.94-6.87,41.78-2.11,10.73-4.82,21.38-7.94,31.86-4.26,14.29-9.17,28.38-13.82,42.55-.05.14-.32.21-1.05.68-.2-1.29-.6-2.36-.47-3.36.51-4.19,1.21-8.35,1.79-12.53,3.17-23.19,6.19-46.41,9.54-69.57,2.35-16.27,5.13-32.47,7.77-48.69,1.13-6.97.74-13.84-.7-20.72-1.47-7.03-5.6-12.63-9.54-18.37-.32-.47-.53-1.02-1.08-2.09h-.01Z"/>
      <path class="cls-1" d="M149.91,190.11c-7.25.68-14.48,1.59-21.74,1.99-9.1.5-18.12-.66-27-2.61-2.62-.57-5.31-1.55-7.57-2.97-4-2.51-4.78-6.53-1.86-10.33,6.72-8.72,15.37-14.25,26.68-14.95,8.5-.52,16.13,2.45,23.69,5.69,6.97,2.98,13.88,6.09,20.83,9.12,14.02,6.11,28.78,7.72,43.89,7.26,3.78-.11,7.56-.06,11.34.09,1.36.05,2.69.61,5.54,1.31-10.53,3.45-19.47,6.74-29.33,6.57-14.49-.25-27.61-5.19-40.43-11.29-7.61-3.62-15.02-7.7-22.8-10.87-8.21-3.35-16.77-4.18-25.17-.16-1.74.83-4.31,1.21-3.33,4.34.12.38-.81,1.24-1.4,1.67-1.16.84-2.62,1.35-3.62,2.33-1.5,1.48-.99,3.37,1.14,3.72,4.77.79,9.59,1.48,14.41,1.76,12.45.73,24.69,2.59,36.76,5.62,0,.56-.02,1.13-.03,1.69v.02Z"/>
      <path class="cls-1" d="M162.89,71.36c-1.78-4.73-3.4-9.52-5.36-14.17-5.35-12.63-13-23.65-23.65-32.4-5.6-4.6-11.77-8.25-19.06-9.43-2.42-.39-5.69-1.46-6.92,1.14-.67,1.42.74,4.49,2.08,6.1,5.54,6.62,11.25,13.13,17.21,19.37,4.18,4.38,8.87,8.26,14.17,13.13-1.83-.04-2.67.2-3.2-.11-10.96-6.31-22.02-12.51-31.38-21.16-2.77-2.56-5.5-5.34-7.52-8.49-6.47-10.1-1.28-19.78,10.74-20.32,6.11-.28,11.6,2,16.84,4.8,13.54,7.23,22.72,18.64,29.82,31.88,4.22,7.86,7.14,16.21,8.02,25.16.15,1.49-.22,3.03-.34,4.54-.48,0-.96-.02-1.44-.03h-.01Z"/>
      <path class="cls-1" d="M18.97,84.04c17.46-4.84,33.99-12.41,50.91-18.82.2.38.4.76.6,1.14-1.62,1.08-3.18,2.29-4.88,3.21-11.65,6.34-23.23,12.83-35.07,18.8-3.85,1.94-8.35,3.06-12.65,3.48-6.03.59-8.96-3.29-7.49-9.19.49-1.99,1.38-4.1,2.7-5.61,3.33-3.78,6.69-7.65,10.6-10.78,11.98-9.57,25.35-16.6,40.17-20.77,6.35-1.78,12.85-2.7,19.35-2.05,5.86.59,11.45,2.52,14.85,8.37-.9-.45-1.83-.85-2.71-1.35-5.74-3.31-11.9-3.72-18.31-2.82-12.35,1.73-23.6,6.48-33.92,13.16-6.86,4.45-13.12,9.85-19.43,15.1-2.2,1.83-3.73,4.47-5.57,6.74.28.47.56.93.84,1.4h0Z"/>
      <path class="cls-1" d="M189.2,225.39c-2.15,1.67-3.29,2.86-4.67,3.58-6.17,3.22-12.33,6.46-18.63,9.4-6.76,3.15-13.95,4.88-21.42,4.94-9.29.08-17.02-3.23-21.62-11.7-1.34-2.47-1.79-5.55-2.07-8.41-.09-.97,1.44-2.51,2.57-3.02.68-.3,2.48.6,3.01,1.45,5.82,9.38,14.69,11.65,24.72,10.16,10.19-1.51,20.26-3.79,30.38-5.76,2.16-.42,4.28-1.42,7.73-.65h0Z"/>
    </g>
    <path class="cls-1" d="M156.97,496.25c-8.69.35-17.35,1.76-26.09.63-1.66-.21-3.4-.36-4.91-.99-.97-.4-1.6-1.61-2.38-2.46,1.02-.51,1.98-1.24,3.06-1.46,1.2-.24,2.51-.1,3.76.01,7.1.61,14.2,1.23,21.29,1.91,1.84.18,3.66.56,5.49.84-.07.51-.14,1.01-.21,1.52h-.01Z"/>
  </g>
</svg>