<?xml version="1.0" encoding="UTF-8"?>
<svg id="Layer_1" data-name="Layer 1" xmlns="http://www.w3.org/2000/svg" version="1.1" viewBox="0 0 285.58 530.58">
  <defs>
    <style>
      .cls-1 {
        fill: #000;
        stroke-width: 0px;
      }
    </style>
  </defs>
  <path class="cls-1" d="M992.86,50.58c3.22,0,3.22-5,0-5s-3.22,5,0,5h0Z"/>
  <g>
    <path class="cls-1" d="M140.78,333.39c-2.07-6.87-4.18-13.57-4.31-20.62-.14-7.4-.38-14.81-.03-22.19.53-11.25,2.4-22.33,5.74-33.12,4-12.9,12.56-22.26,23.35-29.8,4.08-2.85,8.47-5.24,12.68-7.91,12.47-7.93,25.06-15.7,37.33-23.94,7.35-4.93,13.83-11.01,19.74-17.64,9.33-10.47,14.68-22.93,17.91-36.38,1.98-8.23,3.63-16.53,5.45-24.89,1.75,2.56,1.3,5.48,1.08,8.3-.42,5.44-1.07,10.85-1.51,16.29-1.2,14.66-6.2,27.82-15.46,39.28-8.47,10.47-18.71,19.03-29.83,26.49-10.14,6.8-20.59,13.16-30.8,19.86-3.89,2.55-7.62,5.38-11.22,8.32-10.21,8.33-16.44,19.14-19.68,31.84-3.63,14.19-6.03,28.54-6.97,43.18-.34,5.25-1.62,10.44-2.44,15.67-.38,2.42-.67,4.86-1,7.29l-.03-.03Z"/>
    <path class="cls-1" d="M252.26,76.06c5.28,2.51,10,5.4,11.17,11.57.89,4.7-.56,8.96-2.73,12.94-4.24,7.8-10.22,13.92-18.16,18.11-10.32,5.45-21.41,8.65-32.64,11.45-8.29,2.06-16.71,3.29-25.27,3.04-16.29-.48-32.36,1.79-48.5,3.42-10.4,1.05-20.85.89-31.23-.92-13.14-2.29-26.39-3.74-39.73-4.35-11.85-.54-23.16-3.37-33.9-8.42-4.46-2.09-8.06-5.24-11.05-9.12-4.47-5.82-4.63-11.57-.55-17.8,4.05-6.17,10.29-9.51,16.54-12.85.39-.21,1.06.1,2.54.29-5.59,2.99-10.17,5.87-13.73,9.97-1.75,2.02-3.22,4.39-4.38,6.8-1.7,3.53-.76,6.83,1.59,9.89,4.24,5.5,10.04,8.57,16.58,10.02,8.46,1.88,17.02,3.48,25.75,3.33,14.69-.26,29.16,1.76,43.57,4.24,10.05,1.73,20.12,1.87,30.25.93,6.4-.59,12.82-.91,19.23-1.37,8.02-.58,16.04-.45,24.07-.14,19.15.73,37.25-3.89,54.73-11.31,8.88-3.77,15.71-9.82,20.02-18.62,2.56-5.22,2.43-10.19-.51-15.14-1.19-2-2.44-3.96-3.66-5.94v-.02Z"/>
    <path class="cls-1" d="M108.84,457.23c-12.38.61-23.54,4.4-34.26,9.79-3.92,1.97-7.34,4.61-10.24,7.9-5.88,6.66-5.92,14.93.33,21.17,2.8,2.8,6.12,5.25,9.59,7.17,11.1,6.15,23.22,9.36,35.72,10.89,27.15,3.32,53.48-.84,79.16-9.65,4.66-1.6,9.18-3.9,13.4-6.46,5.71-3.46,6.95-8.34,4.47-14.57-2.25-5.63-6.3-9.61-11.5-12.53-7.34-4.11-15.31-6.58-23.36-8.83-1.52-.43-3.01-.95-4.85-1.54.55-.5.89-1.04,1.15-1,9.38,1.14,18.83,1.99,27.71,5.59,4.99,2.03,9.38,4.93,12.83,9.13,3.26,3.96,5.13,8.55,5.58,13.61.6,6.8-2.87,11.67-8.07,15.48-4.97,3.65-10.63,6-16.4,8.02-14.61,5.11-29.62,8.57-45.06,9.74-8.48.64-17.02,1.16-25.5.78-17.51-.79-34.35-4.63-49.75-13.42-4.62-2.64-8.76-5.85-11.97-10.27-6.38-8.77-5.03-18.35,1.22-25.67,2.06-2.41,4.51-4.67,7.21-6.31,12.27-7.48,25.62-10.86,40.01-9.72.87.07,1.72.45,2.58.68v.02Z"/>
    <path class="cls-1" d="M127.35,249.9c-5.27-5.65-10.81-10.6-14.65-16.95-5.08-8.39-12.02-14.99-19.24-21.42-6.66-5.93-14.86-8.85-22.99-11.81-8.61-3.13-17.15-6.37-25.15-10.89-6.9-3.9-13.28-8.39-18.13-14.84-4.11-5.45-6.47-11.5-6.53-18.27-.04-4.63.55-9.26.79-13.9.22-4.27.34-8.55.53-13.73.67,1.52,1.18,2.2,1.25,2.93.49,4.78,1.16,9.57,1.26,14.36.28,14.03,6.72,24.39,18.97,30.69,7.67,3.94,15.92,6.77,24.01,9.86,5.99,2.29,12.17,4.06,18.17,6.32,5.75,2.17,10.87,5.41,15.45,9.6,8.76,8,16.33,16.93,20.94,27.92,2.47,5.88,3.91,12.19,5.77,18.32.11.36-.2.85-.44,1.8h0Z"/>
    <path class="cls-1" d="M243.47,75.86c-7.12-2.45-14.15-3.07-21.07-3.45-10.93-.59-21.76-1.54-32.43-4.03-11.39-2.66-22.91-2.48-34.49-1.77-4.62.28-9.29.11-13.91-.25-9.12-.7-18.2-1.83-27.32-2.51-9.97-.73-19.91.22-29.82,1.21-5.58.56-11.12,1.47-16.68,2.2-.61.08-1.26-.04-2.6-.11.97-.8,1.41-1.36,1.97-1.58,8.09-3.08,16.19-6.14,24.32-9.13,4.87-1.79,9.93-2.52,15.11-2.59,13.52-.19,26.95.75,40.28,3.14,2.67.48,5.42.74,8.13.69,14.09-.25,27.77,2.01,41.34,5.75,8.79,2.42,17.84,3.89,26.77,5.81,5,1.08,10.02,2.12,14.97,3.38,1.87.48,4.01.85,5.42,3.24h.01Z"/>
    <path class="cls-1" d="M128.08,262.38c3,5.01,3.53,9.96,4.44,14.75,3.1,16.25,2.44,32.62,1.46,49.01-.18,3.04-.22,6.12-.03,9.16.79,13,1.78,25.99,1.33,39.02-.4,11.56-.98,23.11-1.47,34.67-.07,1.77,0,3.54-.12,5.31-.58,9.94-1.2,19.87-1.79,29.81-.38,6.41-.93,12.83-1.03,19.25-.17,10.64-3.19,20.22-9.81,28.6-.27.35-.67.59-1.7,1.48.46-1.76.64-2.76.98-3.7,2.04-5.61,3.37-11.35,3.59-17.34.26-7.22.55-14.44,1.03-21.65.76-11.37,1.71-22.73,2.52-34.1.46-6.57.81-13.14,1.19-19.72.98-17.18,1.23-34.37.94-51.58-.16-9.64.08-19.3.28-28.95.16-7.87.61-15.73.76-23.59.17-9.33-.79-18.57-2.55-27.74-.12-.61-.02-1.26-.02-2.68h0Z"/>
    <path class="cls-1" d="M228.05,160.25c-5.62,3.66-11.28,7.26-16.84,11-5.64,3.8-11.67,6.72-18.13,8.84-11.64,3.83-23.05,3.37-33.31-3.48-13.29-8.87-27.17-8.31-41.6-4.36-6.49,1.78-12.92,3.86-19.49,5.3-7.86,1.73-15.81,2.17-23.92,1.14-7.99-1.01-15.88-2.16-23.41-5.09-4.56-1.78-8.52-4.38-10.81-9.15.58.51,1.19.98,1.72,1.53,2.73,2.9,6.22,4.51,9.89,5.76,7.18,2.45,14.64,3.23,22.16,4.06,9.29,1.03,18.26-.18,27.18-2.35,4.35-1.06,8.57-2.68,12.83-4.13,7.96-2.7,16.12-4.19,24.53-4.5,6.07-.22,11.8,1.04,17.38,3.24,2.24.88,4.47,1.78,6.66,2.78,8.5,3.85,17.13,3.98,25.76.66,5.84-2.25,11.44-5.18,17.35-7.17,6.21-2.1,12.67-3.47,19.04-5.08.87-.22,1.85-.03,2.78-.03.08.34.15.68.23,1.02h0Z"/>
    <path class="cls-1" d="M140.26,421.64c.35,8.48.79,16.96,1.03,25.44.33,11.77,2.05,23.27,5.97,34.41,1.11,3.17,2.13,6.38,3.11,9.59.26.84.24,1.76,0,2.77-6.95-6.95-12.49-14.86-12.78-24.87-.35-11.99.33-24.02.7-36.02.12-3.8.67-7.6,1.02-11.39.32.03.64.05.96.08h-.01Z"/>
    <path class="cls-1" d="M140.22,344.93c.57,8.6,2.09,17.27,1.49,25.79-1.11,15.58,1,31.31-1.91,48.02-1.2-1.72-1.97-2.36-2.13-3.13-.77-3.75-1.75-7.51-1.99-11.3-.68-11.09,1.19-22.02,2.39-33.01.75-6.83.33-13.79.47-20.69.04-1.86.19-3.72.29-5.58l1.38-.09h.01Z"/>
    <path class="cls-1" d="M167.75,81.37c6.61,1.19,9.29,3.45,9.53,7.46.13,2.15-.36,4.12-1.82,5.82-2.15,2.51-4.76,4.34-7.92,5.26-5.76,1.67-11.02-1.77-11.41-7.67-.26-3.94,1.01-7.62,3.62-10.68,1.61-1.88,2.46-1.92,5.65-.6-2.21,2.43-4.02,5.04-3.83,8.44.05.95-.03,2.02.38,2.82.4.77,1.34,1.75,2.06,1.77,2.36.06,4.26-1.2,5.82-2.92,1.35-1.49,1.42-3.16.49-4.91-.73-1.37-1.48-2.74-2.58-4.79h.01Z"/>
    <path class="cls-1" d="M162.42,506.23c13.51-4.87,27.07-9.02,35.77-21.61,3.26,2.77,3.8,4.79,2.25,8.17-1.28,2.78-3.61,4.41-6.2,5.79-6.32,3.36-13.26,4.64-20.17,5.96-3.85.74-7.77,1.14-11.66,1.7h0Z"/>
    <path class="cls-1" d="M144.38,194.76c4.73-.06,7.45,1.91,7.74,5.28.33,3.89-2.55,7.22-6.95,7.75-3.39.41-6.33-.69-8.46-3.47-2.03-2.66-1.64-5,1.31-6.74,2.11-1.24,3.74-3.77,6.37-2.82h0ZM143.62,202.83c.42-.29,1.81-.76,2.29-1.7.75-1.47-.73-2.31-1.82-2.91-1.62-.91-3.38-1.24-4.88.25-.39.38-.67,1.15-.59,1.67.21,1.43,2.18,2.6,5,2.69h0Z"/>
    <path class="cls-1" d="M193.61,145.82c-.43-1.4-.7-2.29-1.02-3.31.59-.13,1.08-.4,1.44-.28,1.36.44,2.8.82,4,1.56,5.23,3.24,5.19,10.34-.02,13.62-4.08,2.57-8.26.35-8.55-4.47-.2-3.23.97-5.64,4.15-7.12h0ZM193.96,153.91c2.19-1,2.62-2.74,2.05-4.73-.17-.58-1.03-1.13-1.69-1.33-.32-.1-1.1.56-1.32,1.04-.85,1.85-.82,3.61.96,5.02Z"/>
    <path class="cls-1" d="M76.78,47.23c-3.16,0-5.17-2.12-4.92-5.72.32-4.76,2.36-7.52,5.64-7.57,3.57-.06,6.91,2.83,6.88,6.01-.04,3.66-3.82,7.29-7.59,7.29h0ZM75.84,37.73c-1.32,2.06-1.55,3.63.13,4.88.31.23,1.56-.23,1.91-.71,1.6-2.2-.48-2.87-2.04-4.17Z"/>
    <path class="cls-1" d="M196.24,22.16c-3.15.08-4.75-1.66-4.77-5.2-.02-4.14,2.81-8.19,5.78-8.26,3.19-.08,6.44,2.92,6.42,5.93-.02,3.56-3.86,7.45-7.44,7.54h.01ZM195.41,18.22c3.74-3.33,3.78-4.12.59-6.78-1.67,1.97-2.21,3.99-.59,6.78Z"/>
    <path class="cls-1" d="M63.47,137.47c4.32.27,7.22,1.59,8.72,5.32.86,2.13.48,4.09-.58,5.95-1.25,2.2-3.84,3.09-5.68,2.08-1.94-1.06-2.74-3.4-1.95-5.74.85-2.53.68-5.06-.51-7.61ZM68.29,145.81c-.48-.6-.82-1.02-1.16-1.43-.33.48-.9.96-.92,1.46-.02.45.56.93.87,1.4.36-.42.71-.84,1.21-1.42h0Z"/>
  </g>
</svg>