<?xml version="1.0" encoding="UTF-8"?>
<svg id="Layer_1" data-name="Layer 1" xmlns="http://www.w3.org/2000/svg" version="1.1" viewBox="0 0 329.07 530.58">
  <defs>
    <style>
      .cls-1 {
        fill: #000;
        stroke-width: 0px;
      }
    </style>
  </defs>
  <path class="cls-1" d="M992.86,50.58c3.22,0,3.22-5,0-5s-3.22,5,0,5h0Z"/>
  <g>
    <path class="cls-1" d="M272.51,120.12c.68,4.05-.31,6.73-2.49,8.79-3.43,3.23-6.8,6.57-10.45,9.45-3.99,3.16-8.15,6.11-12.45,8.69-7.53,4.5-15.07,9.05-22.89,12.83-9.87,4.78-19.92,9.1-30.06,13.07-10.06,3.95-20.69,5.24-31.18,4.69-13.96-.73-27.73-3.63-40.72-10.04-3.9-1.92-7.66-4.2-11.57-6.09-6.13-2.96-12.3-5.83-18.52-8.52-3.96-1.71-8.03-3.13-12.1-4.5-5.99-2.01-10.24-7.27-15.51-10.63-3-1.91-5.84-4.16-8.63-6.46-1.79-1.48-3.77-3.17-2.9-6.24.87-3.06,3.09-4.22,5.71-4.22,3.04,0,6.12-.09,9.11.43,9.74,1.69,19.25.99,28.96-1.12,9.56-2.08,19.39-1.38,28.89,1.64,7.99,2.54,15.87,5.56,23.89,7.97,4.69,1.41,9.44.66,14.33.19,10.65-1.03,20.41-5.79,30.76-7.85,7.99-1.59,15.96-2.25,24.15-1.79,16.18.91,32.42,1.66,48.6-.54,1.56-.21,3.17.14,5.07.25ZM170.9,170.92c-2.24-3.29-3.76-.72-5.54,0h5.54Z"/>
    <path class="cls-1" d="M19.02,77.97c.81,3.11,1.07,5.4,1.96,7.29,3.08,6.52,6.22,13.02,9.65,19.31,6.73,12.36,16.17,21.94,25.57,31.49,4.24,4.31,8.89,8.11,13.12,12.43,4.94,5.04,10.63,8.46,16.75,11.08,6.07,2.6,12.14,5.22,18.28,7.59,6.59,2.54,12.74,5.89,18.35,10.66,3.84,3.26,7.98,6.06,12.8,9.67-7.87.9-14.25-.96-20.39-4.11-10.35-5.32-20.61-10.9-31.01-16.1-6.96-3.48-13.17-8.03-18.78-13.93-8.05-8.48-16.25-16.8-24.66-24.81-7.33-6.98-12.67-15.68-17.23-24.98-3.14-6.41-5.93-13.26-7.65-20.31-1.62-6.61-2.31-13.52-4.67-19.96-1.61-4.39-.86-8.7,1.32-12.6,1.52-2.71,3.04-5.61,5.12-7.69,8.82-8.85,18.93-15.02,30.5-17.82.96-.23,1.99-.15,3.22.47-.68.38-1.32.89-2.03,1.14-9.05,3.2-16.77,9.16-24.3,15.47-1.62,1.36-3.17,2.94-4.47,4.69-1.96,2.64-3.8,5.38-2.55,9.36.45,1.45.29,3.24.12,4.84-.63,5.94,2.02,9.45,6.23,12.3,9.04,6.13,18.68,10.04,29.16,11.03,7.48.7,14.97,1.3,22.47,1.62,13.18.57,26.39.6,39.56,1.43,10.32.65,20.62,1.91,30.88,3.36,20.02,2.82,40.05,3.17,60.13,1.2,10.91-1.07,21.83-1.95,32.72-3.25,16.34-1.95,32.58-4.65,48.44-9.72,6.49-2.07,12.58-5.04,18.15-9.51,4.86-3.9,6.02-8.84,4.58-15.16-2.84-12.48-12.58-21.65-24.2-22.49-1.21-.09-2.44-.15-3.65-.07-13.49.88-26.65-1.83-39.87-4.35-11.58-2.21-23.25-3.8-34.89-5.56-14.11-2.13-28.3-3.01-42.5-2.36-18.44.84-36.85,2.33-55.27,3.63-4.24.3-8.46,1.03-12.7,1.41-2.12.19-4.26.03-7.1.03,1.05-1.1,1.41-1.79,1.9-1.96,13-4.42,25.88-9.79,39.45-11.13,12.51-1.23,25.13-1.57,37.69-1.42,15.25.18,30.2,3.44,45.06,7.26,3.93,1.01,8.03,1.63,12.05,1.58,12.86-.15,25.44,2.23,38.03,4.78,5.18,1.05,10.45,1.47,15.65,2.43,4.38.8,8.77,1.67,13.03,3.04,4.27,1.38,8.37,3.42,12.54,5.17,12.73,5.33,18.6,20.87,13.27,35.1-.64,1.7-1.41,3.38-1.76,5.17-3.22,16.44-11.22,29.52-21.69,40.93-.73.79-1.27,1.8-1.9,2.71-18.87,27.57-41.78,49.89-68.09,67.58-10.87,7.31-22.8,12.22-35.13,15.2-8.59,2.07-17.44,2.76-26.34,3.28,2.67-.78,5.32-1.61,8.01-2.31,4.53-1.2,9.08-2.28,13.61-3.47,10.25-2.71,19.42-8.37,27.87-15.12,17.78-14.21,36.43-27.02,52.82-43.47,12.59-12.63,23.73-26.66,32.94-42.63,2.33-4.04,4.13-8.48,6.78-13.99-2.29.91-3.49,1.32-4.65,1.85-10.43,4.75-21.36,7.28-32.36,9.32-22.02,4.07-44.15,7.27-66.45,8.57-12.55.73-25.15,1.32-37.7.99-9.91-.26-19.78-2.04-29.67-3.1-11.7-1.25-23.39-2.88-35.13-3.56-17.44-1-34.79-2.84-52.03-5.96-8.5-1.54-16.28-5.52-23.73-10.34-1.38-.89-2.79-1.72-5.21-3.2l-.02-.02Z"/>
    <path class="cls-1" d="M208.58,435.98c1.65-.96,1.83-1.16,2.01-1.16,12.97.16,25.94.48,38.41,5.22,7.35,2.79,13.44,7.6,17.21,15.61,3.15,6.7,4.76,13.71,3.31,21.39-.79,4.2-2.39,7.8-4.92,10.98-7.31,9.22-16.77,14.53-26.69,18.8-16.79,7.23-34.26,10.98-52.13,12.78-24.49,2.46-48.6-.36-72.53-5.95-10.67-2.49-20.49-7.47-28.64-15.99-6.65-6.96-11.07-15.35-11.55-25.94-.27-6.08,1.53-11.35,4.94-15.98,7.13-9.69,16.19-16.26,26.58-20.06,9.81-3.59,19.9-6.21,29.89-9.13,2.06-.6,4.27-.87,6.46.46-9.9,3.88-19.58,7.49-29.15,11.47-9.61,3.99-18.49,9.48-25.75,17.96-6.77,7.92-7.72,15.55-3.2,25.26,3.18,6.84,8.25,11.31,14,14.99,7,4.47,14.65,6.81,22.45,8.37,21.27,4.23,42.75,5.9,64.25,4.13,20.49-1.69,40.61-6.13,59.33-16.46,4.35-2.4,8.56-5.37,12.38-8.74,6.02-5.32,7.43-13.19,4.35-21.21-2.1-5.49-5.55-9.6-10.06-12.65-7.79-5.27-16.38-7.94-25.09-10.25-4.84-1.28-9.71-2.4-15.89-3.92l.03.02Z"/>
    <path class="cls-1" d="M145.24,203.01c10.97,10.49,15.65,24.44,16.32,39.88.6,13.97,2.76,27.63,4.58,41.35,2.21,16.66,1.82,33.18.82,49.89-.98,16.4-1.35,32.92-.82,49.34.79,24.39-4.73,46.68-14.81,67.81-.08.18-.33.25-1.23.88.71-3.12,1.17-5.63,1.86-8.06,3.49-12.36,5.95-25.02,7.26-37.86.82-8,.66-16.25.04-24.3-1.58-20.55-3.15-41.07-3.24-61.75-.08-18.3-1.28-36.6-1.9-54.9-.16-4.85-.39-9.77.09-14.56,1.62-16.16-.38-31.38-8.02-45.36-.4-.73-.64-1.57-.95-2.35h0Z"/>
    <path class="cls-1" d="M183.25,210.84c-4.49,13.47-7.16,27.32-6.48,41.78.51,10.86,1.51,21.7,1.81,32.56.18,6.68-.36,13.41-.91,20.08-.86,10.35-2.18,20.66-2.96,31.02-.29,3.87.53,7.84.59,11.77.15,10.2.39,20.41.16,30.6-.22,10.06,1.45,19.82,2.82,29.64.48,3.43,1.26,6.81,1.59,10.25,1.56,15.96,7.56,29.65,16.2,42.03,1.25,1.79,2.37,3.69,3.12,6.28-.83-.6-1.75-1.09-2.47-1.83-3.78-3.85-7.68-7.58-11.22-11.7-4.91-5.72-8.67-12.5-9.84-20.44-2.28-15.51-4.14-31.11-5.9-46.7-.38-3.37.6-6.91.56-10.37-.12-9.25-.21-18.52-.78-27.74-.94-15.15,1.02-30.02,2.59-44.96.51-4.81.98-9.66,1.02-14.49.09-13.45-.07-26.9-.11-40.35-.04-10.8,2.34-21.05,5.58-31.07.8-2.48,2.26-4.69,3.42-7.02.4.22.81.44,1.21.66h0Z"/>
    <path class="cls-1" d="M165.98,497.38c-5.02.22-10.05.74-15.06.61-10.74-.29-21.5-.76-32-3.82-7.79-2.27-15.16-5.54-20.27-13.09-1.69-2.5-2.86-5.53-3.98-8.46-.43-1.13-.31-2.75,0-3.99.63-2.5,2.82-3.04,4.06-.86,6.24,11.01,16.09,14.99,26.43,18.19,12.14,3.75,24.42,6.66,36.9,8.46,1.35.19,2.64.84,3.96,1.27,0,.56-.03,1.13-.04,1.69h0Z"/>
    <path class="cls-1" d="M117.34,38.12c-5.09.68-10.2,1.25-15.28,2.08-15.46,2.52-30.69,6.2-45.18,13.04-5.39,2.55-10.73,5.44-14.56,12.89-.12-2.58-.6-4.04-.15-4.81,1.32-2.29,2.7-4.77,4.6-6.32,3.6-2.95,7.41-5.71,11.42-7.83,13.17-6.94,27.1-10.8,41.54-12.22,6.03-.59,11.84.87,17.62,3.16h-.01Z"/>
    <path class="cls-1" d="M141.5,189.48c2.14,0,4.08-.26,5.95.05,7.98,1.3,15.72-.17,23.48-2.1,4.09-1.02,8.25-1.71,13.71-2.81-3.43,6.6-7.38,10.13-12.33,11.03-9.27,1.68-18.57,1.3-27.53-2.53-.93-.4-1.77-1.1-2.58-1.78-.26-.22-.31-.78-.69-1.86h0Z"/>
  </g>
</svg>