<?xml version="1.0" encoding="UTF-8"?>
<svg id="Layer_1" data-name="Layer 1" xmlns="http://www.w3.org/2000/svg" version="1.1" viewBox="0 0 344.84 841.89">
  <defs>
    <style>
      .cls-1 {
        fill: #000;
        stroke-width: 0px;
      }
    </style>
  </defs>
  <path class="cls-1" d="M93.21,183.38c25.5,2.02,50.66-1.66,75.92-4.25,24.64-2.52,49.31-5.71,74.18-2.96,1.79.2,3.84.53,5.4-.1,7.3-2.96,14.26,1.21,21.43.87,1.42-.07,3.5,2.17,4.36,3.82,2.9,5.63,5.61,11.39,7.99,17.26,4.77,11.74,9.2,23.61,13.91,35.37,2.01,5.03,2.2,9.96.24,15-.22.56-.19,1.22-.45,1.75-9.05,18.74-18.06,37.51-31.53,53.66-5.62,6.73-11.51,13.25-16.9,20.16-12.65,16.2-28.47,28.86-45.33,40.18-11.14,7.48-24.08,11.2-37.22,13.7-7.24,1.38-13.86-1.21-19.77-5.08-10.37-6.79-20.63-13.77-30.66-21.04-16.4-11.89-32.52-24.16-48.87-36.12-6.94-5.08-12.75-11.03-17.18-18.44-4.47-7.49-9.08-14.92-14.09-22.05-4.83-6.86-4.76-14.46-3.16-21.79,4.17-19.14,8.86-38.17,13.81-57.12,3.12-11.95,6.32-13.49,18.87-12.89,9.66.45,19.35.09,29.03.09ZM61.76,294.97c-.11-.21-.21-.43-.34-.63-.08-.11-.21-.19-.31-.28.29.24.58.47.87.71.61.61,1.22,1.21,1.82,1.82l.25.46-.44-.27c-.61-.6-1.23-1.2-1.84-1.8ZM58.24,258.42c.42.24.83.48,1.25.72l-1.39-.57c-.11-.84-.22-1.67-.33-2.51-.34.22-.68.43-1.02.65.5.57,1,1.13,1.5,1.7ZM216.51,245.68c5.3-.08,8.03-1.7,7.82-6.97-4.52.16-7.79,1.04-7.82,6.97ZM106.41,207.43c.1.67.2,1.34.3,2.01,3.6-2.89,8.82,4.7,12.5-3.76-4.87.67-8.84,1.21-12.8,1.75ZM80.69,250.86q6.11-2.35,4.43-7.11c-1.51,2.43-2.77,4.45-4.43,7.11ZM77.19,256.12q-3.97,1.75-3.1,6.05c1.1-2.14,2.1-4.09,3.1-6.05ZM155.73,291.05c1.54-2.01,2.8-3.67,4.87-6.37-4.96.6-6.76,1.86-4.87,6.37ZM254.69,226.62c.51.14,1.02.28,1.53.42.65-1.2,1.66-2.34,1.84-3.61.13-.9-.87-1.96-1.37-2.94-.85.9-2.06,1.68-2.44,2.75-.34.96.25,2.24.44,3.38ZM167.59,192.49c.13.54.26,1.08.39,1.62,1.71-.57,3.43-1.14,5.14-1.71-.06-.28-.13-.57-.19-.85-1.78.31-3.56.63-5.34.94ZM155.16,363.07l.7-1.08c-.93-.61-1.84-1.26-2.83-1.77-.14-.07-.64.56-.98.87,1.04.66,2.07,1.32,3.11,1.98ZM253.06,188.61c-.48-.25-.95-.69-1.44-.7-.52-.02-1.06.36-1.58.57.49.27.97.72,1.46.74.51.02,1.04-.39,1.56-.61ZM188.29,332.23c-.22-.21-.45-.58-.63-.55-.53.08-1.04.31-1.55.47.19.21.42.62.57.6.53-.09,1.04-.32,1.6-.52ZM141.06,219.49c-.17.07-.43.1-.48.22-.1.23-.08.51-.11.76.26-.08.6-.1.75-.28.09-.11-.09-.46-.16-.7ZM185.98,277.57c.03.52.06,1.04.08,1.56.17-.22.41-.42.49-.67.07-.25,0-.55-.08-.81-.02-.07-.32-.05-.49-.08Z"/>
  <path class="cls-1" d="M320.8,230.05c-4.17-3.94-8.56-7.56-12.28-11.77-2.76-3.13-5.02-6.84-6.86-10.61-8.08-16.45-12.48-34.03-14.72-52.1-3.33-26.97-5.68-54.08-9.55-80.97-1.36-9.45-3.67-18.86-4.99-28.4-.24-1.72-1.24-3.34-2.14-5.68-7.21,8.04-14.65,14.24-27.64,8.68,2.96-1.03,4.38-1.5,5.78-2.01,1.98-.71,4.26-1.05,5.88-2.26,3.59-2.69,8.09-5.51,7.17-10.68-.78-4.37-5.44-5.6-9.19-6.23-16.89-2.81-33.55-7.59-51.12-4.21-6.99,1.34-14.61,1.1-21.69-.03-16.17-2.56-32.01-.7-47.71,2.47-13.3,2.69-26.36,6.56-39.51,9.94-2.6.67-5.4,1.05-5.28,4.93.11,3.6.87,6.51,4.56,8.04,7.1,2.94,14.43,4.49,22.12,3.77,11.42-1.07,22.83-2.19,34.24-3.4,2.69-.28,5.36-.87,8-1.51,12.82-3.12,25.63-3.6,38.65-.98,4.98,1,10.25.57,15.38.87,1.4.08,2.78.45,4.47.75-5.47,6.16-17.83,12.18-26.61,11.96-12.79-.33-25.27,2.3-37.87,2.98-15.32.82-30.78-.39-46.14-1.38-4.33-.28-8.56-2.74-12.74-4.44-2.51-1.02-4.77-2.65-7.26-3.72-4.86-2.09-6.39-1.61-8,3.52-4.15,13.25-8.1,26.57-11.89,39.93-12.35,43.63-24.53,87.3-41.73,129.37-1.57,3.83-2.28,8.01-3.68,13.1-3.01-3.71-3.74-7.19-4.03-10.97-.92-11.94.38-23.53,4.75-34.74,4.84-12.39,9.81-24.74,14.26-37.28,9.92-27.91,19.47-55.95,29.35-83.87,3.31-9.34,5.54-19.24,12.49-26.93.56-.62.99-1.61,1-2.43.07-10.58,8.16-14.22,15.88-17.54,5.77-2.48,12.15-3.55,18.26-5.26,24.39-6.83,49.19-9.34,74.49-7.74,6.56.42,13.22-.79,19.84-1.23,3.92-.26,7.94-1.15,11.74-.58,13.1,1.95,26.21,4.06,39.14,6.9,4.2.92,8.16,3.87,11.66,6.61,1.9,1.49,3.37,4.42,3.7,6.87,1.15,8.69,4.34,16.33,9.6,23.31,1.57,2.09,2.41,4.88,3.09,7.48,5.44,20.73,10.81,41.49,16.1,62.26,3.13,12.3,5.89,24.69,9.1,36.96,3.54,13.5,8.53,26.45,15.61,38.55,1.52,2.6,3.09,5.32,3.84,8.19,2.16,8.36,2.06,16.74-7.55,21.48Z"/>
  <path class="cls-1" d="M256.12,365.58c.24.98.99,2.54.63,2.86-14.42,12.88-28.99,25.58-43.43,38.43-12.06,10.73-18.89,23.77-19.03,40.4-.52,61.67-1.36,123.34-2.16,185.01-.28,21.77-.72,43.54-1.26,65.3-.14,5.72-.8,11.44-1.39,17.14-1.16,11.22-.59,22.3,2.24,33.25.8,3.09,1.36,6.24.4,9.97-2.12-4.17-5.1-8.13-6.16-12.56-1.95-8.17-3.64-16.58-3.9-24.94-1.16-37.77-.95-75.6-2.82-113.34-1.99-40.23-1.2-80.44-1.43-120.65-.03-5.69.98-11.39,1.57-17.09.68-6.6,1.63-13.19,2.09-19.8,1.22-17.68,9.86-31.54,22.57-43,10.75-9.69,20.32-20.49,29.77-31.33,8.11-9.31,14.87-19.77,22.39-29.61,7.16-9.36,14.32-18.74,21.85-27.8,11.31-13.61,17.32-29.57,21.65-46.38.98-3.79,1.63-7.72,3.16-11.28,2.29-5.33,8.3-6.14,11.37-1.3,1.98,3.12,2.78,7.25,3.17,11.02.3,2.89-.53,6.05-1.47,8.89-6.38,19.37-14.26,37.8-29.42,52.41-9.56,9.22-18.2,19.39-27.14,29.24-1.35,1.48-2.09,3.52-3.11,5.3-.26.08-.56.12-.76.27-.12.09-.1.37-.15.56.25-.32.51-.65.76-.97Z"/>
  <path class="cls-1" d="M239.95,715.84c1.25-.77,1.54-1.11,1.76-1.06,14.81,3.07,29.44,6.38,40.87,17.53,12.71,12.39,14.85,33.07,4.82,48.3-6.29,9.56-14.91,16.66-24.22,22.94-21.95,14.8-45.9,23.79-72.55,26-26.38,2.18-51.84-1.64-76.76-9.71-16.8-5.44-29.39-16.46-38.26-31.67-9.22-15.83-4.98-29.93,8.05-41.24,4.07-3.53,8.86-6.32,13.6-8.94,2.24-1.24,5.12-1.6,7.75-1.78,2.02-.14,3.03,2.34,1.72,3.93-.94,1.14-2.27,1.96-3.35,3.01-4.55,4.42-9.39,8.6-13.53,13.38-6.98,8.08-7.2,15.78-1.41,24.88,6.73,10.58,15.84,18.49,27.86,22.07,11.25,3.35,22.75,6.18,34.33,8.04,24.83,3.99,49.44,2.84,73.2-6.28,15.63-6,30.27-13.8,42.48-25.54,13.18-12.66,13.96-29.93,1.28-43.31-5.12-5.41-11.61-9.55-17.62-14.08-3.05-2.3-6.43-4.17-10.02-6.46Z"/>
  <path class="cls-1" d="M150.39,782.11c-.42-3.27-.87-5.49-.97-7.72-.9-21.73-1.39-43.48-2.76-65.17-.74-11.8-.72-23.47-.13-35.27.51-10.21-.86-20.5-1.23-30.76-.51-14.2-1.36-28.41-1.15-42.6.4-26.59,1.52-53.17,2.2-79.76.29-11.18.74-22.4.19-33.55-.63-12.56,1.39-24.69,4.41-36.67,1.05-4.17,4.45-7.7,3.89-12.53-.05-.43,1.46-1.59,1.9-1.43.96.35,2.53,1.59,2.4,1.99-3.05,9.4.13,18.58,1.08,27.75,6.62,64.26,2.81,128.68,3.31,193.03.07,8.72-1.38,17.45-1.96,26.19-.58,8.73-1.37,17.48-1.33,26.21.08,17.29-2.37,34.28-5.31,51.24-1.05,6.03-.19,12.48-4.56,19.05Z"/>
  <path class="cls-1" d="M153.2,412.13c-.4,2.96-.41,4.51-.86,5.93-.68,2.19-2.72,2.98-4.14,1.44-2.39-2.6-4.96-5.53-5.97-8.79-1.89-6.1-5.67-8.95-11.38-11.61-9.53-4.43-18.68-9.98-27.25-16.09-15.75-11.24-30.89-23.32-46.42-34.87-10.92-8.12-19.91-18.02-25.14-30.47-4.65-11.08-7.68-22.85-11.23-34.37-.34-1.11.64-2.63,1.01-3.95,1.51.6,3.63.77,4.39,1.88,1.5,2.2,2.2,4.93,3.32,7.41,2.73,6.06,5.31,12.2,8.31,18.13,6.9,13.61,17.06,24.23,30.58,31.34,18.85,9.92,35.99,22.39,52.47,35.68,9.85,7.95,18.82,17.11,27.41,26.45,2.99,3.25,3.65,8.65,4.92,11.91Z"/>
  <path class="cls-1" d="M218.11,369.86c-8.18,17.39-17.74,31.36-31.58,42.02-5.8,4.47-19.47,1.8-23.74-4.22-3.09-4.36-.82-10.18,4.4-11.21.59-.12,1.28-.33,1.78-.14,7.77,3.04,13.1-2.04,18.59-5.84,8.41-5.81,16.49-12.11,24.77-18.11,1.2-.87,2.76-1.22,5.78-2.5Z"/>
  <path class="cls-1" d="M199.99,787.82c1.67-.86,3.26-2.16,5.03-2.51,17.36-3.43,31.19-12.3,41.53-26.61,1.81-2.5,3.4-5.33,7.12-3.88,3.53,1.37,4.65,4.37,4.72,7.99.07,4.16-1.29,7.86-4.14,10.66-12.83,12.62-28.36,18.92-46.34,18.88-2.51,0-5.03-1.38-7.54-2.12-.12-.8-.25-1.6-.37-2.41Z"/>
  <path class="cls-1" d="M261,168.36c-1.45-3-2.32-4.46-2.88-6.03-9.8-26.95-11.57-54.66-7.81-82.9.4-2.99.15-6.09.81-9,.33-1.43,2.07-2.53,3.16-3.78,1.18,1.17,3.23,2.23,3.4,3.53.79,6.28,1.88,12.68,1.39,18.93-1.79,22.99-.58,45.82,2.17,68.63.22,1.79.21,3.62.2,5.43,0,1.15-.19,2.3-.45,5.19Z"/>
</svg>