<?xml version="1.0" encoding="UTF-8"?>
<svg id="Layer_1" data-name="Layer 1" xmlns="http://www.w3.org/2000/svg" version="1.1" viewBox="0 0 368.04 841.89">
  <defs>
    <style>
      .cls-1 {
        fill: #000;
        stroke-width: 0px;
      }
    </style>
  </defs>
  <g>
    <path class="cls-1" d="M295.73,309.34c2.7-4.94,6.2-9.62,7.95-14.88,8.73-26.3,11.29-53.09,9.24-80.96-2.26-30.67-8.42-60.18-17.74-89.28-6.44-20.12-12.45-40.39-18.62-60.5-24.1,14.6-49.36,27.65-77.89,32.53-9.92,1.69-20.12,2.05-30.21,2.45-12.78.5-25.68,1.42-38.36.29-12.21-1.09-24.42-3.83-36.21-7.28-6.55-1.92-12.25-6.76-18.92-10.62-9.47,19.16-17.79,39.01-22.58,59.97-4.8,21.02-7.41,42.54-11.99,63.62-2.95,13.59-4.72,26.95-2.09,40.69.5,2.59.78,5.3,1.76,7.71,7.01,17.19,12.78,35.08,21.61,51.3,15.5,28.47,37.4,51.28,66.25,67.14,10.37,5.69,19.74,13.19,30.28,20.34-2.19,1.69-3.4,2.62-5.28,4.07,3.28,3.09,6.31,6.28,9.69,9.05,8.32,6.83,12.76,15.87,14.37,26.15,2.53,16.11,5.13,32.27,6.35,48.51.89,11.83.03,23.86-.8,35.75-1.8,26.05-5.55,52.07-5.62,78.11-.04,15.9-.75,31.77-.78,47.66-.05,26.49.63,52.99.3,79.48-.19,14.8-4.62,35.27-22.53,49.29,1.24-3.45,1.8-5.51,2.7-7.41,5.51-11.67,9.19-23.78,9.82-36.79,1.12-23.04,2.57-46.06,3.68-69.09.23-4.82-.42-9.68-.67-14.52-.09-1.76-.64-3.64-.2-5.26,4.78-17.96.78-35.88.2-53.84-.61-19,.29-38.05-.11-57.07-.35-16.76-.8-33.58-2.67-50.21-1.77-15.74-3.97-31.73-8.67-46.77-5.56-17.78-17.64-31.2-34.87-39.74-11.85-5.87-24.07-11.67-34.5-19.63-23.43-17.9-43.21-39.26-54.8-67.08-3.57-8.58-7.17-17.15-10.94-25.65-9.51-21.47-10.57-43.29-4.65-66.02,7.67-29.42,14.3-59.2,26.79-87.02,9.38-20.91,20.28-41.15,30.92-61.47,5.4-10.32,15.68-15.44,25.37-20.69,22.38-12.12,46.08-20.3,71.71-21.8,5.28-.31,10.68-.06,15.93.62,23.22,3.02,46.15,7.48,68.59,14.28,9.76,2.96,17.84,8.32,21.35,18.29,13.02,37.03,26.87,73.82,38.14,111.39,5.9,19.66,7.17,40.71,10.38,61.16,4.3,27.45-2.07,53.7-10.62,79.28-7.1,21.25-20.79,39.07-35.57,55.58-10.89,12.17-23.09,23.24-35.35,34.06-9.53,8.42-17.07,17.8-21.25,29.89-9.25,26.75-17.46,53.55-17.43,82.42.03,20.81-1.89,41.64-3.26,62.44-1.64,24.76-.39,49.41.93,74.15,1.09,20.27,1.58,40.55,5.24,60.56,2.77,15.16,6.08,30.22,9.13,45.34.31,1.53.49,3.09,1.06,6.82-11.3-8.68-16.59-18.75-19.09-29.86-2.31-10.25-3.02-20.92-3.78-31.45-2.12-29.57-.88-59.19-1.05-88.79-.28-47.5,3.55-94.74,6.42-142.03.95-15.62,5.81-31.11,9.9-46.39,4.11-15.34,13.37-27.6,25.26-38.18,17.24-15.33,32.6-32.48,46.18-51.16,1.75-2.4,2.6-5.45,3.87-8.2,2.57-3.58,5.15-7.16,7.72-10.75ZM88.18,70.89c5.26,7.2,12.31,9.18,18.94,10.87,15.72,4.01,31.6,7.5,48.09,6.33,4.37-.31,9.07-.36,13.18.89,9.27,2.82,18.34.81,27.36-.27,23.71-2.84,44.12-14.44,64.66-25.5,4.29-2.31,6.46-6.35,5.98-10.92-.5-4.77-5.4-5.28-8.95-6.75-1.58-.66-3.49-.49-5.22-.81-11.68-2.14-23.28-5.01-35.06-6.29-14.92-1.62-30.08-3.51-44.95-2.5-24.49,1.67-47.22,10.47-68.38,22.84-5.6,3.27-10.37,7.96-15.65,12.1Z"/>
    <path class="cls-1" d="M295.73,309.34c-2.57,3.58-5.15,7.16-7.72,10.75-7.65,7.95-15.51,15.7-22.9,23.89-13.02,14.43-28.82,25.04-46.67,31.95-14.05,5.44-28.65,2.86-42.74-1.9-3.69-1.25-7.51-3.21-11.22-3.1-12.34.38-23.87-3.19-34.53-8.24-26.07-12.33-48.46-29.52-61.25-56.23-5.32-11.1-9.73-22.59-16.17-33.19-5.34-8.78-.68-15.95,6.16-23.46,4.37.57,9.59.95,14.67,1.97,22.87,4.63,45.68,10.28,69.07,10.78,25.2.54,50.12-2.24,73.55-12.85,15.7-7.11,31.7-13.33,48.87-16.12,4.32-.7,8.48-2.39,12.71-3.65,2.11-.63,4.16-1.62,6.31-1.89,15.2-1.87,19.5,1.9,18.2,17.14-1.2,14.03.83,28.19-1.99,42.12-1.49,7.33-2.9,14.67-4.34,22.01Z"/>
    <path class="cls-1" d="M235.53,175.79c11.27,2.3,24.61,5.02,37.95,7.74,2.57.52,5.14,1.44,7.72,1.44,7.28,0,11.16,4.01,13.9,10.25,2.94,6.67,1.31,12.85-3.49,16.97-5.9,5.06-12.83,9.29-19.94,12.49-12.22,5.5-25.67,5.98-38.81,7.18-18.64,1.7-36.18,7.62-53.69,13.57-10.18,3.46-20.31,5.18-31.16,4.62-19.38-1-38.97.26-58.16-2.06-10.94-1.32-22.42-5.19-31.55-12.67-6.29-5.15-7.18-13.23-3.01-20.35,5.4-9.22,14.34-14.36,23.09-19.4,17.56-10.11,37.03-14.29,56.95-15.65,20.67-1.41,41.42-1.51,62.14-2.3,11.89-.45,23.78-1.13,38.07-1.83ZM196.56,198.41c0-.4,0-.81-.01-1.21-3.41-.19-6.82-.38-10.23-.57,0,.4,0,.8,0,1.21,3.42.19,6.83.38,10.25.57Z"/>
  </g>
  <path class="cls-1" d="M147.58,707.38c-6-3.69-11.69-2.39-17.63-.2-13.08,4.83-24.78,11.64-34.43,21.84-13.4,14.17-14.04,29.02-1.62,43.93,13.26,15.92,31.17,24.62,50.27,30.77,45.42,14.64,88.94,9.29,130.58-13.65,14.06-7.75,27.11-16.79,38.59-28.05,1.9-1.86,3.92-3.62,5.65-5.63,8.31-9.63,8.19-14.75-1.01-23.86-11.31-11.19-25.94-16.54-40.31-22.25-7.2-2.86-14.54-5.36-21.64-10.35,2.2-.3,4.54-1.22,6.59-.79,15.95,3.33,31.99,6.36,47.71,10.61,11.62,3.14,21.98,9.1,29.89,18.78,7.91,9.69,8.45,20.08,3.83,31.1-4.24,10.09-11.96,17.78-19.99,24.52-31.2,26.22-66.91,43.96-107.74,47.02-44.54,3.35-86.46-6.46-121.61-36-7.27-6.11-13.57-14.33-17.86-22.82-9.62-19.08-4.31-36.73,12.84-52.14,12.03-10.82,26.91-16.87,42.76-19.97,3.79-.74,7.99-.17,11.86.57,1.66.32,2.94,2.62,4.39,4.01-.36.85-.73,1.69-1.09,2.54Z"/>
</svg>