<?xml version="1.0" encoding="UTF-8"?>
<svg id="Layer_1" data-name="Layer 1" xmlns="http://www.w3.org/2000/svg" version="1.1" viewBox="0 0 330.83 841.89">
  <defs>
    <style>
      .cls-1 {
        fill: #000;
        stroke-width: 0px;
      }
    </style>
  </defs>
  <path class="cls-1" d="M185.2,64.84c16.96,0,33.92-.02,50.88.04,1.29,0,2.57.58,3.86.89-1.14,1.2-2.08,3.12-3.44,3.48-14.96,3.98-29.83,9.97-45.04,11.06-34.42,2.47-69.09,4.38-103.33-2.93-3.95-.84-7.86-1.97-11.71-3.21-15.32-4.91-16.08-5.06-18.37,10.24-7.92,52.85-18.27,105.64-13.46,159.45,2.16,24.16,6.04,48.3,11.18,72.02,7.8,36.01,29.91,61.25,62.68,77.92,19.18,9.76,36.74,13.67,59.27,6.6,36.19-11.36,62.39-31.56,78.41-65.32,23.87-50.3,38.88-102.63,31.49-158.96-3.95-30.1-10.02-59.92-15.21-89.85-.58-3.32-2.01-6.51-2.39-9.84-.36-3.08.15-6.27.27-9.41,2.77,2.32,6.27,4.17,8.14,7.07,2.52,3.91,4.28,8.49,5.53,13.02,7.01,25.36,14.58,50.6,20.46,76.23,16.11,70.27-3.88,134.14-37.74,194.6-16.88,30.14-43.87,45.85-79.02,50.26-29.73,3.72-57.85,2.6-85.32-9.6-13.98-6.21-25.69-15.15-34.29-27.82-18.71-27.58-35.44-56.34-41.48-89.56-3.49-19.21-5.86-38.96-5.67-58.43.4-39.34,6.57-78.11,16.53-116.23,4.1-15.67,7.96-31.41,11.83-47.14,4.18-16.99,15.79-26.66,31.93-30.66,14.42-3.57,29.11-7.1,43.85-8.06,39.31-2.56,78.56-1.51,117.22,7.38,9.34,2.15,18.67,4.57,23.79,13.72,1.12,2,.3,5.08.38,7.67-2.28.06-4.75.72-6.79.06-8.22-2.67-16.14-7.66-24.46-8.34-27.66-2.23-55.44-4.19-83.16-3.9-22.9.24-45.94,2.83-67.84,10.82-2.23.81-4.07,2.7-6.09,4.09,2.03,1.43,3.92,3.8,6.12,4.13,19.38,2.89,38.75,6.13,58.26,7.82,14.14,1.22,28.47.24,42.71.24v.47Z"/>
  <path class="cls-1" d="M165.01,188.81c23.41,1.83,55.8,4.2,88.15,7.05,6.67.59,13.23,2.79,19.72,4.67,1.61.47,2.75,2.57,4.1,3.93-1.6.77-3.19,1.57-4.81,2.32-4.15,1.93-8.26,3.96-12.48,5.73-8.65,3.63-17.11,9.29-26.07,10.27-26.16,2.86-52.29,6.45-78.95,2.74-24.08-3.35-48.55-3.78-72.82-5.87-6.67-.57-13.23-2.49-19.85-3.73-5.87-1.1-11.63-4.2-10.05-10.23,1.06-4.03,6.71-8.16,11.19-9.71,7.57-2.61,15.8-4.08,23.83-4.5,23-1.2,46.04-1.64,78.04-2.66ZM182.05,212.34c.02-.3.03-.6.05-.9,16.89,0,33.79.3,50.67-.16,5.89-.16,11.76-2.09,17.58-3.48,1.05-.25,1.8-1.8,2.68-2.75-1.12-.5-2.22-1.37-3.36-1.42-8.77-.45-17.61-.17-26.31-1.18-45.84-5.33-91.6-4.59-137.33,1.03-2.32.29-4.54,1.36-6.81,2.07,2.61.52,5.2,1.36,7.83,1.51,31.67,1.82,63.34,3.54,95.01,5.29Z"/>
  <path class="cls-1" d="M93.53,806.41c7.11-.94,12.45-1.8,17.82-2.33,32.92-3.23,65.8-7.32,98.81-9.19,17.37-.99,35.12,1.09,51.59,8.19,1.58.68,2.56,2.77,3.81,4.21-1.69.62-3.56,2.08-5.03,1.75-29.2-6.67-57.83,1.46-86.64,3.48-38.38,2.69-76.66,6.69-115,9.95-4.68.4-9.82.74-14.09-.76-4-1.41-9.26-4.86-9.96-8.24-.6-2.88,3.78-8.19,7.24-10.19,5.13-2.97,11.49-3.73,17.17-5.85,25.25-9.44,50.71-18.4,75.55-28.84,11.82-4.97,22.4-12.83,26.49-26.46.36-1.21,3.26-2.93,3.59-2.67,1.5,1.19,3.65,3.14,3.5,4.59-1.14,10.56-5.65,19.7-14.88,25.23-13.3,7.96-26.98,15.33-40.76,22.42-5.96,3.07-12.63,4.74-18.9,7.23-3.7,1.47-7.27,3.29-10.89,4.95,4.01.97,8.03,1.93,10.57,2.54Z"/>
  <path class="cls-1" d="M152.34,552.05c1.48-22.68,3.52-50.29,4.94-77.94.45-8.71-.68-17.51-1.27-26.25-.41-6.05-1.3-12.07-1.61-18.12-.13-2.56.67-5.17,1.05-7.75,1.57,2.09,4.14,4,4.56,6.3,2.15,11.94,5.18,23.96,5.24,35.97.15,27.03-1.32,54.06-2.04,81.1-.31,11.5-1.52,23.12-.37,34.49,3.34,33.19-1.71,66.15-1.64,99.24.03,12.75-2.52,25.51-3.96,38.26-.15,1.3-.7,2.56-1.07,3.83-.62-1.4-1.67-2.75-1.81-4.2-2.96-30.24-6.1-60.27-2.54-90.95,2.63-22.7.52-45.95.52-73.99Z"/>
  <path class="cls-1" d="M169.34,561.32c1.62-33.07,2.24-66.23,5.33-99.17,1.35-14.4,7.64-28.37,12.11-42.4.47-1.46,3.84-2,5.86-2.96.31,1.89,1.18,3.87.85,5.64-2.43,13.15-6.66,26.17-7.39,39.4-1.98,35.72-2.77,71.52-3.52,107.3-.48,22.98,0,45.97-.16,68.96-.01,2.05-1.64,4.09-2.52,6.13-1.25-1.54-3.22-2.91-3.62-4.64-2.24-9.79-5.23-19.6-5.82-29.54-.96-16.17-.26-32.45-.26-48.68l-.86-.04Z"/>
  <path class="cls-1" d="M186.61,717.71c-1.45,17.14-2.7,32.56-4.12,47.97-.18,1.91-1.26,3.73-1.93,5.6-.95-1.73-2.41-3.35-2.76-5.19-2.35-12.51-5.24-24.99-6.49-37.62-2.2-22.13-2.95-44.37,2.35-66.27.49-2.04,2.83-3.64,4.31-5.44,1.27,2.1,3.44,4.1,3.66,6.31,1.91,18.72,3.46,37.48,4.98,54.64Z"/>
</svg>