<?xml version="1.0" encoding="UTF-8"?>
<svg id="Layer_1" data-name="Layer 1" xmlns="http://www.w3.org/2000/svg" version="1.1" viewBox="0 0 403.31 841.89">
  <defs>
    <style>
      .cls-1 {
        fill: #000;
        stroke-width: 0px;
      }
    </style>
  </defs>
  <path class="cls-1" d="M157.1,821.91c-39.23-2.51-75.74-9.23-105.58-35-8.2-7.08-15.8-15.51-21.51-24.68-12.14-19.49-13.85-40.74-.86-60.19,21.95-32.9,54.46-49.97,92.8-56.69,3.54-.62,7.44-.54,10.94.26,3.18.73,6.04,2.88,9.04,4.41-2.67,1.79-5.11,4.43-8.05,5.25-24.22,6.72-47.07,16.11-66.68,32.31-1.13.93-2.41,1.68-3.53,2.62-28.65,23.88-28.65,55.06.33,78.12,19.4,15.43,41.88,24.18,66.37,26.65,67.56,6.81,128.79-13.08,186.83-45.62,1.91-1.07,3.51-2.67,5.37-3.84,29.13-18.29,21.74-42.07,2.14-56.99-10.38-7.9-22.35-13.71-33.57-20.52-1.2-.73-2.15-1.85-3.22-2.79,1.73-.68,3.55-2.14,5.16-1.93,20.72,2.7,40.1,9.48,55.85,23.35,19.5,17.17,20.92,44.05,2.55,62.41-10.71,10.71-23.54,19.92-36.79,27.36-49.27,27.68-102.41,42.63-157.61,45.49Z"/>
  <g>
    <path class="cls-1" d="M213.19,85.67c41.4-.88,81.98-6.07,124.47-10.35,1.6-.16,3.31.83,4.98,1.28-.57,1.27-.8,3.13-1.78,3.71-5.61,3.31-11.21,6.78-17.17,9.35-25.23,10.86-52.26,14.91-79.14,16.3-37.25,1.92-74.87,4.45-111.86-3.22-17.04-3.53-33.83-8.62-50.37-14.11-6.58-2.18-7.82-.55-6.97,5.04,8.31,55.14,21.98,107.45,67.3,145.96,39.05,33.18,55.97,77.66,59.94,127.79,1.1,13.87,3.87,27.77,3.46,41.58-.74,24.83-2.29,49.73-5.36,74.37-4.77,38.38-10.34,76.7-17.01,114.8-4.26,24.34-10.02,48.57-17.32,72.17-3.56,11.5-12.13,21.47-18.61,32.03-.49.79-2.32.76-3.52,1.11-.13-1.25-.68-2.63-.33-3.72,7.69-23.57,14.65-47.43,23.48-70.57,10.41-27.29,9.7-56,12.75-84.18,2.91-26.91,2.36-54.23,5.99-81.01,4.32-31.84-.92-62.82-4.09-94.09-.66-6.56-1.45-13.11-2.53-19.61-5.91-35.45-23.04-65-50.23-87.83-42.38-35.58-63.81-80.94-67.9-135.4-1.21-16.05-3.17-32.05-4.13-48.11-.72-11.96-1.01-24.37,15.71-26.16,23.01-20.22,51.4-27.82,80.45-32.16,47.13-7.04,94.58-12.46,142-2.3,12.73,2.73,25.2,7.25,37.33,12.11,37.32,14.94,54.85,51.32,49.93,88.1-1.84,13.72-4.96,27.29-7.83,40.86-4.68,22.1-15.88,40.41-31.38,56.84-19.11,20.25-37.7,41.08-55.33,62.64-35.04,42.86-51.61,93.03-54.36,147.77-2.29,45.39-3.39,90.84-4.73,136.26-1.01,34.09,3.74,67.16,18.78,98.24.86,1.77.81,3.98,1.19,5.99-2.14-1.19-4.89-1.89-6.31-3.66-21.68-26.86-29.5-58.76-30.52-92.15-.9-29.27.46-58.65,1.73-87.95,1.27-29.25,2.96-58.51,5.73-87.65,4.83-50.95,24.57-96.12,56.52-135.79,14.24-17.68,28.86-35.33,45.24-50.97,36.46-34.81,46.88-78.01,44.13-126.09-.99-17.41-8.11-28.53-26.59-34.82-35.32-12.02-70.64-18.2-107.71-12.65-31.79,4.76-63.71,8.85-95.32,14.59-11.29,2.05-21.94,7.86-32.69,12.41-2.33.99-3.83,3.92-5.71,5.96,2.32,1.59,4.44,4.05,7,4.64,17.07,3.91,34.08,8.97,51.4,10.65,19.46,1.89,38.49,2.39,57.34,1.99Z"/>
    <path class="cls-1" d="M326.88,132.16c-2.04,8.99-3.18,19.34-6.75,28.78-13.86,36.6-35.7,68.64-59.02,99.71-1.18,1.57-3.42,2.35-5.16,3.5.05-2.4-.72-5.21.27-7.12,6.66-13.02,14.09-25.66,20.53-38.79,16.11-32.81,31.33-65.98,35.28-103.01.27-2.5,2.46-4.8,3.76-7.2,2.8,1.88,7.17,3.2,8.08,5.76,1.91,5.36,2,11.37,3.02,18.39Z"/>
    <path class="cls-1" d="M126.85,122.41c4.13,4.45,7.53,6.53,8.42,9.39,2.38,7.61,3.78,15.54,5.38,23.38,7.28,35.7,20.37,68.4,47.99,93.69,1.53,1.4,2.45,3.47,3.66,5.22-2.58-.16-5.56.45-7.69-.62-14.55-7.3-26.73-17.44-36.43-30.68-19.38-26.47-26.44-56.36-25.09-88.61.13-3.14,1.93-6.21,3.76-11.77Z"/>
    <path class="cls-1" d="M189.45,131.66c.57-1.36,1.63-3.92,2.7-6.48,2.94,1.57,7.34,2.4,8.54,4.83,4.16,8.4,8.94,17.09,10.36,26.15,3.93,25.09,6.55,50.4,9.12,75.68,1,9.8.48,19.76.66,29.65-9.27-8.03-8.3-19.93-10.75-30.25-7.2-30.38-13.32-61.01-19.81-91.55-.45-2.12-.46-4.34-.82-8.03Z"/>
    <path class="cls-1" d="M265.11,160.53c-3.47,23.1-7.35,49.65-11.59,76.14-.41,2.54-2.99,4.73-4.56,7.09-.64-2.47-1.91-4.97-1.82-7.42,1.14-31.26,2.42-62.51,3.82-93.76.13-2.82.88-5.84,2.22-8.28.87-1.58,3.45-3.27,5.06-3.09,1.67.18,4.21,2.39,4.45,4,1.07,7.16,1.45,14.43,2.4,25.33Z"/>
  </g>
</svg>