<?xml version="1.0" encoding="UTF-8"?>
<svg id="Layer_1" data-name="Layer 1" xmlns="http://www.w3.org/2000/svg" version="1.1" viewBox="0 0 489.99 729.5">
  <defs>
    <style>
      .cls-1 {
        fill: #000;
        stroke-width: 0px;
      }
    </style>
  </defs>
  <path class="cls-1" d="M16.23,433.44c-.35-4.76-1.15-9.54-.96-14.28.42-10.96,3.75-21.06,10.48-29.86,3.56-4.66,8.31-7.96,13.27-10.94.97-.58,2.11-1.1,3.21-1.19.75-.06,1.57.67,2.36,1.04-.35.59-.56,1.53-1.06,1.73-5.4,2.18-8.98,6.55-12.64,10.7-4.09,4.64-6.08,10.08-5.49,16.44.36,3.82,1.88,7.05,4,10.04,5.25,7.41,11.75,13.66,18.34,19.88,17.08,16.12,38.18,23.94,60.29,29.7,17.08,4.45,34.41,7.83,51.88,10.2,12.92,1.76,25.98,2.47,38.95,3.87,15.35,1.66,30.74,1.46,46.1.9,10.33-.38,20.62-1.84,30.91-2.96,11.44-1.24,22.84-2.84,34.3-3.92,14.33-1.35,28.72-2.08,43.04-3.52,22.38-2.24,44.47-6,65.37-14.83,9.57-4.04,18.93-8.53,27.12-15.07,5.94-4.74,10.56-10.62,14.15-17.26,3.5-6.49,4.11-13.08-.19-19.58-1.57-2.37-2.97-4.86-5.04-8.28,1.86.72,2.92.87,3.63,1.45,2.66,2.19,5.37,4.38,7.76,6.85,2.28,2.37,3.77,5.25,4.31,8.63.42,2.64,1.49,5.17,1.89,7.81,1.55,10.07-2.02,19.06-5.45,28.06-.44-.06-.88-.13-1.33-.19.73-6.88,1.46-13.75,2.28-21.54-2.77,3.69-4.98,6.54-7.08,9.48-6.44,9.01-15.31,14.98-24.92,20.06-15.39,8.13-31.69,13.6-48.73,16.97-11.29,2.23-22.63,4.12-34.14,4.82-10.15.62-20.31,1.27-30.43,2.27-11.63,1.16-23.22,2.82-34.84,4.1-12.77,1.41-25.54,2.88-38.35,3.88-8.99.7-18.06,1.2-27.06.84-13.99-.56-27.97-1.76-41.92-3.02-10.31-.93-20.62-2.09-30.84-3.66-21.81-3.35-43.39-7.81-64.31-15.05-18.72-6.48-34.77-17-48.27-31.47-2.1-2.25-4.26-4.44-6.33-6.72-4.15-4.57-7.77-9.51-10.52-16.57,0,4.25-.2,7.22.05,10.15.39,4.58,1.57,9.14,1.5,13.69-.05,3.3,1.59,4.87,3.72,6.48,6.14,4.63,12.37,9.14,18.47,13.81,8.02,6.15,17.3,9.96,26.41,13.98,20.77,9.17,42.49,15.41,64.78,19.66,9.97,1.9,19.93,3.86,29.96,5.41,7.76,1.19,15.62,1.81,23.44,2.63,10.3,1.09,20.6,2.15,30.91,3.17,2.1.21,4.23.32,6.33.28,19.61-.4,39.22-.51,58.81-1.38,16.1-.71,32.04-3.08,47.89-6.13,10.72-2.06,21.61-3.26,32.37-5.12,7.35-1.27,14.76-2.54,21.89-4.66,13.59-4.05,27.07-8.5,40.46-13.16,11.3-3.94,21.47-10.16,31.32-16.89,2.12-1.45,4.39-2.68,7.69-4.68-1.6,3.67-3.73,5.01-5.56,6.54-11.73,9.84-24.81,17.31-39.15,22.72-16.16,6.09-32.38,11.99-49.35,15.42-7.88,1.6-15.88,2.62-23.82,3.97-9.45,1.61-18.85,3.5-28.32,4.89-9.48,1.39-19,3-28.55,3.32-23.05.77-46.13,1.11-69.19,1.05-9.17-.02-18.35-1.46-27.5-2.47-7.81-.86-15.6-1.93-23.37-3.07-10.61-1.56-21.24-3.07-31.79-4.98-20.21-3.65-40.08-8.8-59.26-16.15-11.44-4.39-22.81-9.32-33.41-15.4-9.58-5.5-19.05-11.78-25.83-20.92-2.48-3.34-4.08-7.33-5.99-11.07-.04-.08.97-.69,1.5-1.05.24.17.47.34.71.51-.27-.13-.55-.26-.82-.4l-.04.04Z"/>
  <path class="cls-1" d="M369.62,125.13c-2.11,1.28-4.04,2.78-6.84,2.48-1.06-.11-2.43.85-3.34,1.67-6.2,5.56-13.65,6.81-21.51,5.92-2.34-.26-5.01-1.42-6.69-3.04-4.45-4.28-10.29-4.98-15.7-6.57-1.89-.56-4.47.64-6.55,1.49-3.01,1.24-5.79,3.01-8.76,4.36-2.6,1.18-5.33,2.1-7.99,3.15-4.2,1.66-7.46.19-10.23-3.01-.88-1.02-1.82-1.98-2.78-2.93-3.8-3.76-8.16-4.86-13.16-2.63-3.15,1.41-6.26,2.9-9.42,4.31-3.33,1.49-6.61,3.09-10.04,4.3-1.94.69-4.12.96-6.19.96-4.51,0-6.21-1.26-7-5.91-.48-2.81-1.81-3.37-4.24-3.42-5.51-.11-10.61,1.43-15.58,3.57-3.52,1.52-7,3.16-10.57,4.56-1.57.62-3.32,1-5.01,1.07-4.73.19-6.55-1.42-7.36-6.14-.6-3.51-1.06-4.05-4.28-3.32-3.16.72-6.23,1.85-9.29,2.94-2.89,1.03-5.7,2.26-8.56,3.37-.89.34-1.81.68-2.74.84-6.48,1.09-8.57-.24-10.5-6.69-4.19,1.19-8.34,2.54-12.58,3.51-1.98.45-4.13.33-6.18.18-2.27-.16-3.32.49-2.45,2.2,1.41,2.76,1.26,5.55,1.15,8.43-.04.94-.27,2.18.2,2.8,3.93,5.12.78,9.44-1.46,13.83-.59,1.15-1.63,2.07-3.34,4.15,1.06-5.33,1.87-9.39,2.89-14.47-1.61.56-2.21.96-2.79.94-2.26-.08-3.19-1.61-2.01-3.31.97-1.38,2.38-2.51,3.12-3.99.65-1.3.91-2.93.85-4.4-.08-1.82-2.08-2.56-3.34-1.23-1.55,1.64-2.78,3.59-4.41,5.75-.03-3.66,1.85-5.94,4.17-8,1.03-.91.88-.9.54-2.96-.5-3-1.08-6.04-1.05-9.06.03-2.46.76-5.14,3.09-6.52,1.72-1.02,2.43-2.13,2.39-4.09-.08-4.04,2.16-6.91,5.25-9.1,4.31-3.05,9.13-4.86,14.46-5.07,1.7-.07,3.41-.01,5.03-.01,1.77-5.38,3.25-10.51,5.14-15.47,3.34-8.74,9.97-15.03,16.9-20.79,5.19-4.31,10.79-3.67,16.31.56,5.05,3.88,9.58,8.25,13.17,14.34,3.76-3.18,6.55-7.21,11.79-7.86,5.19-.64,8.69,2.29,12.98,4.67,1.33-1.96,2.64-3.98,4.06-5.93.79-1.08,1.66-2.15,2.65-3.04,7.76-6.93,11.65-4.66,15.85.9,2.09,2.76,4.01,5.63,6.06,8.42,1.93,2.61,3.92,5.17,5.92,7.79,3.94-6.99,9.9-12.14,15.99-17.02,6.1-4.89,9.85-4.67,16.08-.06,1.06.79,2.03,1.71,3.34,2.83,1.17-1.05,2.23-2.09,3.38-3.01,3.21-2.56,5.65-2.82,8.85-.24,4.82,3.89,9.01,8.36,11.01,14.47.58,1.79,1.13,3.42,3.09,4.56,7.35,4.25,8.01,6.05,5.94,14.29,11.92-1.79,22.53.25,31.11,11.03-1.97-.61-3.09-.86-4.15-1.3-8.43-3.48-17.11-5.8-26.26-4.27-3.11.52-6.02,2.28-8.97,3.59-.64.28-1.62,1.24-1.51,1.56.9,2.61-3.33,2.58-2.51,5.11.17.53-.26,1.25-.45,2.05-2.67-1.2-2.28-3.25-2.28-5.09,0-1.66-.74-2.32-2.34-2.65-6.57-1.34-13-.64-19.26,1.43-4.59,1.52-8.6,3.99-10.92,9.17-1.9-3.41-.41-5.63,1.3-7.6,3.68-4.21,8.62-6.3,13.91-7.65,2.02-.51,4.08-.86,6.32-1.33-2.73-4.43-2.43-8.6-.5-12.85.46-1.01.62-2.16.91-3.24,4.04-1.84,8.09-3.68,12.23-5.56-2.26-4.04-3.97-9.01-8.75-11.75l.15.14c-2.86-3.03-3.66-3.13-6.89-.54-2.45,1.96-2.89,2.58-.48,5.59,2.85,3.55,4.22,7.66,3.87,12.26-1.08-1.01-2.39-1.87-3.2-3.06-2.26-3.33-4.26-6.84-6.49-10.2-.94-1.42-2.04-2.83-3.34-3.91-3.76-3.11-5.8-3.27-9.76-.33-4.16,3.09-8.05,6.53-12.03,9.85-4.46,3.72-7.34,7.91-3.63,13.88.08,0,.53.19.69.05,1.06-.96,1.38-3.09,3.38-2.44.5.16,1.01,1.73.79,2.42-.52,1.64-.6,4.27-3.38,3.47-1.72-.5-2.03.16-2.21,1.45-.16,1.18-.19,2.28,1.39,2.65,1.11.26,2.21.68,3.25,1.16,5.24,2.4,9.04,9.31,8.49,15.71-4.68-5.49-8.47-11.75-17.04-11.29-7.68.41-12.66,4.59-16.96,10.7-2.47-3.12.2-5.21.91-7.84-3.83-1.15-6.65-3.56-7.67-7.6-.95-3.77.38-7.18,2.24-10.73-3.94-2.03-6.33-5.43-9.09-8.61-2.8-3.23-6.64-5.93-10.55-7.73-3.53-1.63-7.6-1.11-10.47,2.41-1.7,2.08-3.38,4.17-5.15,6.18-3.04,3.44-5.98,6.99-9.28,10.16-2.51,2.4-4.82,4.82-6.37,8.01,13.48,3.19,11.96,4.83,16.87,12.06.87-1.04,1.76-1.94,2.45-2.98,3.9-5.89,9.68-8.66,16.41-9.44,4.02-.47,7.71,1.07,10.22,4.26,2.32,2.95,4.1,6.33,6.11,9.52l-.83.83c-.82-.49-1.71-.88-2.43-1.49-1.17-.99-2.35-2.02-3.31-3.21-6.85-8.45-21.51-4.39-25.77,5.52-.36.83-.51,1.75-.91,3.12-3.07-2.91-5.89-5.39-8.5-8.09-5.28-5.47-14.87-4.93-20.71-.58-1.34,1-3.05,1.92-1.71,4.17.5.83.02,1.02-1,1.12-1.06.1-2.03,1.04-3.33,1.77-.26-.67-.59-1.31-.75-1.98-.95-3.93-4.67-6.09-8.15-4.52-.63.29-1.15,1.47-1.2,2.27-.09,1.6.18,3.22.33,5.21-2.72-1.96-4.6-3.45-5.33-6.67-1.22-5.32-5.76-8.39-11.23-7.83-3.92.4-7.97,1.44-11.5,3.15-5.17,2.5-6.29,6.55-4.14,11.92-.71.24-1.4.69-2.1.69-2.81,0-3.81.65-4.06,2.87-.34,3.03,2.05,6.17,5.19,6.52,1.7.19,3.58.33,5.15-.2,5.58-1.89,11.05-4.11,16.59-6.12,1-.36,2.14-.34,3.9-.6-1.11,2.07-2.16,3.46-2.6,5.02-.37,1.33-.46,3.11.17,4.2.41.71,2.5,1.07,3.53.72,3.98-1.37,7.8-3.21,11.75-4.65,3.21-1.17,6.48-2.41,9.83-2.9,2.13-.31,4.49.55,6.69,1.13,3.12.83,2.34,3.8,2.93,5.97.21.78-.34,2.21,0,2.41.91.53,2.27,1.01,3.19.71,3.08-1,6.06-2.35,9.07-3.58,4.6-1.87,9.18-3.78,13.79-5.63,3-1.2,6.03-.85,9.02.08,2.17.68,4.08,1.07,4.72-2.03.13-.64,1.22-1.08,2.5-2.13-.23,3.55-1.66,6.48.83,8.84.13.13-.02.59-.08.89-.59,3.37-.49,3.7,2.03,3.63,1.49-.04,3.07-.38,4.42-.99,4.19-1.9,8.29-3.98,12.42-6.02,2.24-1.11,4.38-2.42,6.67-3.38,4.9-2.04,9.66-2.44,13.89,1.67.58.56,1.68,1.2,2.27,1,1.94-.66,2.36.69,2.96,1.85,2.95,5.71,4.98,6.53,10.87,4,2.46-1.06,4.76-2.48,7.12-3.78,2.02-1.11,3.99-2.31,6.01-3.41,6.42-3.48,12.49-3.23,18.05,1.82,1.25,1.13,2.41,2.11,3.67-.53,1.67,2.89,2.8,5.86,6.23,6.93,3.82,1.19,7.53,1.37,11.28.14,2.54-.83,5.17-1.58,7.46-2.89,3.09-1.76,5.65-4.14,3.23-8.73,2.91.03,4.46.44,5.08,3.17.58,2.58,2.18,2.85,3.85,1.06,2.29-2.45,2.18-5.36,1-8.09-1.34-3.12-3.19-6.02-5.05-9.47,3.15.28,5.43,1.7,7.2,3.89,1.98,2.44,3.58,5.47,2.9,8.47-.62,2.75.66,4.77.95,7.12.38,3.04.35,6.13.41,9.2.06,3.04.01,6.08.01,9.43,3.37,2.7,6.9,6.14,10.69,9.26,6.15,5.06,7.22,13.6,3.35,19.79-.99,1.57-1.97,3.21-5,3.49.98-1.8,1.72-3,2.31-4.26,2.59-5.49,1.63-11.09-2.61-15.37-1.53-1.55-2.97-2.9-5.51-1.58-.86.44-2.63-.02-3.51-.69-1.22-.92-.92-2.4.09-3.57,1.5-1.76.27-2.96-1.07-3.66-2.29-1.2-4.9-1.52-7.31-2.73-2.36-1.18-5.02,1-6.93,3.06-1.6,1.73-2.33,3.5-.67,5.62.34.44.52,1.03.71,1.57.63,1.83-.42,3.13-1.83,3.72-.73.31-2.04-.38-2.93-.89-.59-.34-.91-1.17-1.54-2.04-3.42,1.83-4.55,5.06-5.21,8.42-.17.84.93,1.93,1.46,2.93-1.12.65-2.82,1.64-4.6,2.67-.9-6.6-3.2-9.39-7.44-9.26-3.92.12-5.81,2.89-6.72,9.85-2.18-3.32-1.77-6.9,1.17-10.05,4.88-5.25,9.68-2.51,14.08.32,2.51-3.1,4.87-5.82,7-8.7.88-1.19,1.23-2.77,1.9-4.13,2.35-4.78,6.73-7.56,11.57-6.8,2.08.32,4.01,1.68,6.28,2.69-.5-3.66-.6-7.28-1.57-10.64-.86-2.98-.34-5.62.33-8.39.17-.05.35-.06.49-.15.09-.05.1-.22.15-.33-.17.2-.34.41-.51.61l.09.03ZM166.38,99.67c.11.53.23,1.06.34,1.59.19-.14.37-.28.56-.42-.3-.39-.59-.78-.89-1.18,0-.96.07-1.91.03-2.87-.27-7.62,3.12-13.33,9.41-17.31,9.05-5.72,19.09-2.37,22.8,7.43.13.34.4.64.7,1.09,3.85-3.14,7.57-6.3,9.67-11.47-4.48-4.34-8.84-8.67-13.31-12.87-3.66-3.43-5.99-4.08-11.94-.86-1.16.63-2.16,1.61-3.09,2.56-7.82,8.06-14.35,16.95-17.93,27.77-1.13,3.42-1.27,3.4,1.66,5.54.59.43,1.32.66,1.99.99h0ZM180.97,106.82c3.09-2.06,6-4.23,9.12-6,1.74-.99,2.57-2.32,2.73-4.07.19-2.09.22-4.23.02-6.32-.39-4.1-2.98-6.5-7.13-6.9-8.87-.86-16.42,7.63-14.47,16.32.44,1.95,1.35,3.38,3.53,4.04,2.13.65,4.08,1.89,6.2,2.92h0ZM263.89,79.88c-3.58-5.01-6.75-9.53-10.01-13.98-2.74-3.73-4.78-4.08-8.63-1.42-3.18,2.19-5.28,5.34-7.29,8.35,3.59,4.58,6.93,8.85,10.5,13.4,4.34-5.01,9.37-6.88,15.43-6.35ZM333.85,93.97c.05-3.79-.26-4.58-3.19-6.37-1.61-.98-3.36-1.85-5.16-2.35-6.25-1.77-12.07,3.22-11.44,9.67.23,2.4,1.13,4.7,3.35,5.62,3.81,1.59,7.92,4.27,11.37-.87.48-.72,1.54-1.1,2.4-1.49,1.94-.89,3.05-2.22,2.66-4.21h.01ZM270.36,96.75c-.6-2.06-.94-3.94-1.69-5.63-1.87-4.2-5.87-6.2-10.33-5.17-3.98.92-6.81,3.44-8.4,7.15-1.48,3.46-.24,7.86,2.61,9.76,1.09.73,2.25,1.29,3.59.09,3.93-3.53,8.86-4.99,14.22-6.2h0ZM168.18,103.44l-.18.34.26.04-.08-.38Z"/>
  <path class="cls-1" d="M309.97,617.83c2.04-.37,2.95-.82,3.71-.63,13.56,3.33,27.18,6.43,40.6,10.25,8.74,2.49,16.56,7.1,23.06,13.64,12.41,12.46,12.08,25.59,1.87,38.66-6.88,8.81-15.89,15.01-25.52,20.37-17.62,9.8-36.63,15.76-56.29,19.71-16.03,3.23-32.24,4.7-48.61,4.99-28.8.51-57.09-2.52-84.72-10.82-15.36-4.61-30.11-10.65-42.39-21.32-3.71-3.23-7.08-7.12-9.69-11.29-6.9-11-6.09-22.22.32-33.24,6.37-10.96,15.75-18.72,26.59-24.89,9.79-5.57,20.31-9.07,31.43-10.61,6.16-.85,12.28-.37,17.93,2.65,1.18.63,2.37,1.33,3.31,2.25.52.51.52,1.54.76,2.34-.71.04-1.62.39-2.1.08-2.93-1.86-6.18-1.83-9.46-1.97-8.62-.37-16.74,1.74-24.64,4.91-12.12,4.86-22.92,11.69-31.48,21.72-3.91,4.59-6.73,9.69-8.01,15.69-1.44,6.71.46,12.49,4.19,17.89,4.61,6.66,11.09,11.09,18.04,14.91,11.71,6.43,24.32,10.49,37.21,13.64,12.68,3.1,25.57,4.96,38.59,6.22,14.41,1.4,28.84,1.56,43.21.7,31.32-1.86,61.67-8.05,89.51-23.32,6.02-3.3,11.73-7.38,17.01-11.79,3.45-2.89,6.2-6.8,8.66-10.64,3.25-5.07,3.13-10.5.17-15.85-2.67-4.82-6.53-8.5-10.85-11.78-8.69-6.6-18.78-10.32-28.91-13.92-6.13-2.18-12.36-4.11-18.52-6.21-1.35-.46-2.6-1.21-4.99-2.34h.01Z"/>
  <path class="cls-1" d="M291.01,648.09c.47,1.83.81,3.71,1.43,5.49,1.43,4.09.5,7.69-2.55,10.49-2.21,2.04-4.74,3.97-7.48,5.16-10.64,4.6-21.9,6.84-33.41,7.87-10.53.95-21.07.88-31.6-.04-6.88-.6-13.57-1.76-19.7-5.52-6.51-3.99-8.84-13.61-3.16-19.42,6.66-6.81,9.24-15.39,12-23.87,3.97-12.21,6.77-24.73,7.05-37.7.19-8.51-.82-16.83-3.27-24.98-2.29-7.63-5.47-14.98-6.91-22.87-.2-1.11-.82-2.13-1.17-3.22-1.11-3.44-3.49-4.87-7.03-4.54l.13.14c-5.83-3.35-11.12-7.22-14.55-13.28-.94-1.66-2.1-4.29-4.57-3.71-2.84.67-6.07.68-8.08,3.77-1.19,1.83-3.07,3.5-5.02,4.5-6.91,3.55-14.67,1.4-19.87-5.33-1.61-2.09-2.88-4.44-4.46-6.9-.67.46-1.31.82-1.86,1.3-8.13,7.04-17.38,7.66-27,4.19-8.63-3.11-15.11-8.99-19.36-17.21-.61-1.19-1.22-2.38-1.99-3.86-2.34,1.51-4.48,3.01-6.74,4.32-2.32,1.34-4.65,2.77-7.15,3.65-6.59,2.29-12.69,1.72-18.27-3.12-5.46-4.74-10.33-9.79-12.54-16.86-.62-1.99-.96-4.07-1.54-6.57-1.27.61-2.53,1.26-3.83,1.81-1.76.75-3.52,1.59-5.35,2.1-9.63,2.7-18.68-3.84-19.26-14.2-.41-7.28-.29-14.6,1.28-21.8.16-.72.5-1.42.87-2.06.17-.28.7-.61.95-.53.5.16,1.22.51,1.3.9.26,1.31.3,2.66.37,4,.33,5.93.66,11.86.96,17.8.14,2.83,1.33,5.19,3.23,7.2,2.12,2.24,4.57,3.51,7.72,2.18,2.81-1.19,5.65-2.34,8.44-3.58,4.14-1.83,5.78-1.23,7.41,3.15,2.92,7.88,7.11,14.84,13.49,20.46,5.37,4.73,8.73,5.51,15.17,2.4,3.45-1.67,6.64-3.85,10.02-5.67,4.76-2.57,6.27-2.15,8.52,2.76,2.61,5.7,5.97,10.65,11.23,14.3,8.43,5.83,17.1,7.38,26.51,2.49,2.72-1.41,5.6-2.52,8.46-3.63,1.49-.58,2.58-.14,2.72,1.74.28,3.74,2.65,6.27,5.36,8.43,5.06,4.04,9.33,4.33,14.82.82,2.9-1.85,5.5-4.18,8.18-6.35,5.22-4.21,8.58-3.81,12.53,1.57.45.62.91,1.25,1.28,1.92,4.74,8.59,12.74,11.82,21.81,13.04,2.97.4,5.63-.91,7.75-3.1,2.28-2.34,4.43-4.82,6.84-7.02,1.59-1.45,1.74,0,1.76,1.25l.07-.09c-1.33,2.73-2.57,5.51-4,8.18-1.84,3.44-4.77,5.41-8.68,5.87-.97.11-1.94.25-3.38.43,4.54,6.18,7.06,12.57,8.68,19.32.84,3.52.98,7.23,2.02,10.68,3.52,11.72,4.57,23.53,3.44,35.76-1.35,14.62-5.39,28.19-13.25,40.55-2.35,3.7-5.32,7.01-8.01,10.49-3.7,4.79-2.72,9.65,2.59,12.43,1.34.7,2.82,1.31,4.31,1.56,3.39.57,6.83,1.2,10.25,1.25,10.93.17,21.84.46,32.77-.87,9.55-1.16,18.85-3.16,28.02-5.98,5.72-1.76,9.29-5.22,9.82-11.32.15-1.73.84-2.89,2.43-3.54l-.16-.12,1.31,1.31-.15-.15.05-.02Z"/>
  <path class="cls-1" d="M222.93,522.34c2-.46,2.72.95,3.42,2.35,1.28,2.58,2.36,5.27,3.8,7.74,3.35,5.75,6.66,7.03,13,5.07,7.99-2.47,14.9-7.01,21.71-11.7,1.58-1.08,3.14-2.29,4.88-3.03,3.4-1.44,5.42-.33,6.46,3.21,2.66,9,8.49,11.91,17.52,9.03,5.31-1.69,9.25-5.31,13.47-8.63,1.48-1.17,2.39-3.71,5.24-2.55.29.12,1.57-2.18,2.43-3.41,1.56,1.38,3.22,2.97,5,4.4,4.59,3.69,9.91,5.05,15.67,4.25,3.56-.5,6.5-2.42,8.42-5.52,1.31-2.11,2.33-4.41,3.42-6.65.5-1.03.73-2.2,1.28-3.2,1.72-3.12,3.95-3.48,6.42-1.02,1.09,1.08,1.98,2.35,2.99,3.51,3.61,4.14,8.27,5.73,13.51,4.66,9.82-2.02,18.73-5.65,24.29-14.86,2.14-3.54,2.67-3.56,8.43-5.24.34.15.81.21.98.47,4.63,7.08,11.08,7.95,17.32,2.32,3.21-2.9,5.49-6.4,6.89-10.48.43-1.27.71-2.6,1.21-3.84,1.16-2.9,2.92-3.71,5.26-1.77,4.92,4.07,9.67,2.93,14.36.02,5.52-3.42,9.83-7.92,11.72-14.41,1.69-5.81,3.64-11.54,5.6-17.67,1.64,2.13,2.49,4.31,2.41,6.85-.47,13.85-5.6,24.95-18.55,31.46-5.47,2.75-10.96,3.32-16.57.35-1.76,2.72-3.37,5.56-5.32,8.13-1.38,1.82-3.06,3.49-4.86,4.89-6.11,4.72-14.49,5.57-21.33-2.88-4.51,12.54-14.24,18.8-26.37,21.94-8.8,2.28-17.21,2.07-24.24-5.98-3.37,7.5-8.08,13.56-16.45,14.49-7.77.86-14.8-1.49-20.11-7.14-4.64,3.24-9.2,6.35-13.68,9.57-2.99,2.14-5.55,4.62-6.89,8.26-.78,2.13-2.23,4.01-3.38,6-6.02,10.45-9.25,21.86-11.34,33.62-3.76,21.15,1.41,40.7,11.05,59.39.44.85,1.02,1.67,1.24,2.58.12.49-.23,1.33-.64,1.64-.26.2-1.03-.29-1.58-.47l.15.15-1.31-1.31.16.12c-1.25-1.43-2.46-2.89-3.76-4.27-4.38-4.65-7.93-9.83-10.58-15.66-6.09-13.4-5.7-27.29-2.66-41.16,3.37-15.38,9.1-29.95,17.37-43.8-9.84.6-16.78-3.39-20.19-12.82-1.97,1.31-3.53,2.4-5.14,3.41-6.35,3.98-12.76,7.83-20.08,9.82-7.55,2.05-13.61.17-17.12-5.77-2.63-4.45-4.67-9.22-4.85-14.55l-.07.09h0Z"/>
  <path class="cls-1" d="M449.35,414.98c-.43-1.04-.7-2.18-1.31-3.11-2.83-4.34-5.8-8.59-8.62-12.93-1.12-1.72-2.32-1.76-3.82-.7-.47.33-.91.71-1.35,1.08-5.96,4.93-5.95,5.69-.56,10.96,1.91,1.87,3.52,4.04,5.28,6.07,1.51,1.74,2.9,3.61,4.58,5.16,2.62,2.39,3.74,2.12,5.87-.94.65-.94,1.27-1.93,2.06-2.75.29-.3,1.17-.39,1.52-.17.34.22.56,1.01.45,1.46-.26,1.11-.63,2.23-1.15,3.25-2.31,4.49-5.94,5.4-9.92,2.27-1.78-1.4-3.2-3.3-4.65-5.08-1.58-1.93-2.88-4.1-4.52-5.97-2.91-3.32-5.83-3.83-9.65-1.83-1.5.78-2.91,1.73-4.81,2.88,3.44,5.19,6.63,10.17,10.77,14.42,2.15,2.2,4.8,2.83,7.9,1.27,1.94-.98,4.25-1.23,6.82-.84-1.28.98-2.51,2.04-3.85,2.94-5.34,3.56-9.4,3.32-13.88-1.32-2.92-3.03-5.77-6.28-7.88-9.89-2.56-4.39-6.46-6.18-10.85-7.68-1.9-.65-3.75-1.47-5.18.52-1.36,1.89-2.61,4.14-1.24,6.4,1.05,1.73,2.66,3.2,4.25,4.5,2.52,2.06,5.46,3.65,7.8,5.87,2.35,2.23,4.19,4.99,6.32,7.59,2.85-1.31,5.84-2.69,8.83-4.06.23.33.45.66.68.99-1.99,2.37-4.19,4.61-6.61,6.54-2.09,1.66-4.58,1.36-5.96-.92-3.7-6.09-8.8-10.57-14.79-14.25-3.17-1.95-4.31-5.25-4.88-9.22-5.65,1.17-11.13,2.31-17.43,3.62,2.68,5.25,5.22,9.55,9.73,12.4l-.14-.15c1.63,1.84,3.21,3.73,4.9,5.51,2.91,3.08,6.38,4.04,10.39,2.38,3.87-1.6,7.44-.85,11.76,1.55-1.45.42-2.18.73-2.95.85-3.39.53-6.91.62-10.16,1.61-3.12.94-5.71.38-8.16-1.25-7.01-4.66-12.37-10.95-16.69-18.06-2.67-4.4-.95-7.73,4.27-8.61,4.15-.7,8.37-1.08,12.57-1.28,1.65-.08,2.77-.03,3.64-1.82,2.73-5.62,5.89-5.14,10.41-3.3,1.77.72,3.45,1.67,4.77,2.32,3.42-1.77,6.51-3.48,9.7-4.97,1.22-.56,2.38-.68,2.79-2.38,1.13-4.66,4.7-7.43,8.63-9.48,2.38-1.24,2.76-2.4,2.17-4.91-1.49-6.33-3.15-12.7-3.68-19.15-.59-7.24-.13-14.57.08-21.86.15-5.14.63-10.27.99-15.65-2.84.93-5.2,1.49-7.37,2.48-1.67.76-3.22,1.92-4.62,3.15-1.94,1.7-3.92,3.28-6.64,2.79-2.27-.4-3.64.66-4.94,2.2-.49.59-1.07,1.11-1.65,1.61-4.71,4.1-8.74,4.34-13.2-.08-2.21-2.19-3.71-1.63-5.93-.65-7.11,3.13-10.97,1.51-13.9-5.86-1.03-2.61-2.36-3.96-5.43-4.06-7.1-.24-8.23-1.44-9.87-8.98-1.29,1.93-2.34,3.73-3.62,5.35-2.68,3.38-5.62,6.33-10.57,5.69-.94-.12-2.17.44-2.96,1.07-1.34,1.07-2.43,2.45-3.63,3.7-2.75,2.88-5.72,4.95-10.12,4.3-1.5-.22-3.27.79-4.81,1.48-1.57.7-2.97,1.75-4.5,2.56-3.14,1.65-6.48,1.85-9.24-.37-2.79-2.25-5.39-2.41-8.54-1.22-1.39.52-3.03.46-4.56.52-2.87.11-5.57-.72-6.93-3.3-1.83-3.47-4.35-3.79-7.67-2.8-1.45.44-3.03.56-4.56.61-4.73.14-6.88-1.57-8.16-6.28-.35-1.29-.71-2.57-1.18-4.24-1.94.47-3.88,1.1-5.87,1.39-2.07.3-4.2.48-6.29.35-3.12-.19-5.61-1.77-6.56-4.79-1.27-4.01-.89-8.08.53-12.09,1.62,2.56.69,5.4.96,8.08.45,4.43,3.43,6.93,7.82,6.24,1.88-.29,3.71-.9,5.57-1.37,1.11-.28,2.21-.63,3.34-.84,2.39-.43,3.63.33,4.15,2.63.21.93.06,1.93.24,2.87.71,3.78,2.72,5.22,6.5,4.68,1.33-.19,2.66-.36,3.95-.7,3.98-1.05,7.2-.13,9.45,3.46,1.9,3.03,4.9,3.1,7.68,2.27,4.5-1.34,8.51-1.6,12.48,1.57,1.02.82,3.3.55,4.81.13,1.6-.45,2.9-1.87,4.47-2.55,2.25-.97,4.64-2.32,6.95-2.29,3.51.05,5.85-1.32,7.92-3.8.86-1.03,1.84-1.97,2.73-2.97,1.6-1.81,3.43-3.1,6.01-2.69,3.66.58,5.8-1.61,7.49-4.3,2.13-3.41,4.01-6.98,6.03-10.46,1.12-1.93,2.33-3.82,4.18-5.4-.26,3.56-.57,7.11-.75,10.67-.07,1.33-.01,2.72.29,4.01.81,3.44,1.95,4.28,5.64,4.44,1.15.05,2.31-.06,3.46.03,2.91.23,5.13,1.5,6.17,4.38.33.9.56,1.85.99,2.7,1.45,2.87,3.57,3.8,6.68,2.88,1.09-.32,2.09-.96,3.16-1.4,4.1-1.7,5.45-1.77,8.45,1.82,2.63,3.14,5.21,3.07,8.37.23,1.14-1.03,2.17-2.18,3.23-3.29,1.3-1.35,2.98-2.24,4.66-1.42,2.6,1.26,4-.2,5.41-1.81,1.71-1.95,3.65-3.54,6.29-3.66,4.18-.19,6.76-2.68,8.55-5.97,1.66-3.04,3.2-5.53,7.34-5.13,1.07.1,2.58-1.43,3.42-2.55,2.84-3.78,2.59-8.35,2.61-12.71.03-6.11-.24-12.23-.66-18.33-.14-1.95-1.17-3.84-1.9-6.09,2.64.69,4.53,1.53,4.64,4.39.3,7.85.87,15.7.88,23.55,0,2.96-.99,6.01-1.98,8.86-1.13,3.26-3.63,5.31-7.02,6.28-3.71,1.06-4.77,2.3-4.78,5.83-.02,4.23.17,8.46.26,12.69.29,12.67.8,25.34.8,38.01,0,7.01,1.61,13.2,6.14,18.61,2.84,3.39,5.45,6.96,6.35,11.46.34,1.69-.17,2.61-2.02,2.47l.13.15v-.07Z"/>
  <path class="cls-1" d="M375.86,424.43c-6.28.66-11.52.97-16.67,1.83-5.22.87-6.34,3.3-3.28,7.4,4.09,5.47,8.31,10.93,14.02,14.95,6.23-7.93,8.13-8.48,17.89-5.54,1.46.44,2.93.82,4.61,1.28-2.06,2.43-4.63,1.62-7.02,1.42-1.32-.11-2.6-.65-3.93-.81-3.37-.42-5.87.46-7.34,4.01-1.45,3.51-4.01,4.3-6.74,2.04-6.24-5.17-11.72-11.11-15.79-18.2-.63-1.1-.74-2.5-1.04-3.63-3.36-.74-6.5-1.5-9.68-2.1-1.87-.35-3.81-.73-5.68-.6-6.2.46-8.67,4.84-6.05,10.5.73,1.57,1.58,3.08,2.4,4.59,1.74,3.21,3.48,6.42,5.25,9.6,1.78,3.19,1.91,3.19,5.41,2.27,2.59-.68,5.19-1.32,7.81-1.89,2.69-.58,5.12.06,7.85,1.72-6.61,1.83-12.61,3.55-18.65,5.12-2.57.67-4.31-.13-5.32-2.17-2.81-5.66-5.57-11.35-8.34-17.03-.08-.17-.19-.34-.23-.53-1.02-5.11-3.92-7.11-9.26-6.65-2.93.25-5.98-1.11-8.99-1.62-1.5-.25-3.08-.49-4.56-.27-2.84.41-4.43,2.17-4.52,5.09-.06,2.07-.05,4.36.74,6.2,1.95,4.58,4.23,9.04,6.64,13.4,1.53,2.75,3.15,3.17,6.35,2.3,2.03-.55,4.02-1.25,6.04-1.86,2.68-.82,5.16-.35,7.96,1.21-5.28,1.57-10.04,3.21-14.91,4.37-3.61.86-6.57-1.01-8.24-4.04-3.6-6.48-8.17-12.61-8.45-20.13-2.75-.99-5.25-1.79-7.68-2.79-5.35-2.2-10.94-2.1-16.47-1.51-4.78.5-7.89,5.16-7.66,11.23.18,4.91,2.01,9.38,5.25,13.11,2.82,3.25,6.54,3.78,10.54,2.82,3.16-.76,6.3-1.65,9.46-2.39,1.26-.3,2.58-.36,3.98-.14-5.45,3.34-10.9,6.65-17.61,6.35-4.47-.2-8.16-2.04-10.59-5.94-2.78-4.45-4.99-9.13-4.72-14.56.11-2.34-.86-3.28-3.18-3.86-3.5-.87-6.94-2.18-10.25-3.65-3.61-1.61-7.29-2.05-11.19-2.11-3.8-.05-6.24,1.64-7.73,4.87-2.29,4.95-2.85,10.33-3.21,15.67-.23,3.4,2.56,5.21,6.37,4.46,3.19-.63,6.33-1.53,9.49-2.33,2.68-.67,5.3-.97,7.58,1.08-3.88,1.16-7.7,2.31-11.52,3.45-1.84.55-3.65,1.27-5.52,1.58-6.09,1.01-10.45-2.48-10.12-8.58.29-5.31,1.39-10.58,2.2-16.4-6.09-2.38-12.46-4.88-18.85-7.36-.89-.34-1.81-.66-2.75-.82-7.62-1.27-11.57,1.38-13.67,8.75-1.15,4.03-2.52,8.01-4.08,11.9-1.82,4.53-.76,7.05,4.11,7.88,2.82.48,5.75.26,8.63.34.95.03,1.91,0,3.19,0-4.18,2.91-12.29,3.78-16.12,1.93-4.07-1.97-5.89-5.84-3.97-10,2.26-4.91,3.62-10.05,5.13-15.19,2.23-7.57,8.28-10.87,15.97-9.39,5.33,1.03,10.3,2.92,15.02,5.58,2.17,1.22,4.44,2.26,6.65,3.41,1.36.71,2.54.62,3.66-.5,6.06-6.04,13.04-4.27,19.9-2.07,3.63,1.16,6.97,3.16,10.54,4.54,3.49,1.34,3.7,1.31,5.9-1.89,3.2-4.66,7.99-6.15,13.05-5.95,5.49.21,11.07.7,15.97,4.01,3.08,2.08,3.29,1.82,5.9-1.46,2.79-3.5,6.26-4.8,10.69-3.69,4.08,1.02,8.21,1.87,12.34,2.67,2.67.52,4.84.4,6.97-2.28,3.68-4.65,8.98-5.55,14.64-3.99,1.47.41,2.87,1.09,4.34,1.5,3.44.96,6.85,2.34,10.15-.67.89-.81,2.5-1.08,3.8-1.15,4.42-.22,8.84-.32,13.26-.27.99,0,1.98.76,3.91,1.57h.02Z"/>
  <path class="cls-1" d="M67.05,414.99c1.74-1.48,3.48-2.97,5.23-4.44,3.37-2.84,7.12-4.61,11.64-3.7,1.25.25,2.83.71,3.49,1.63,1.63,2.25,3.5,3.14,6.24,2.81,2.88-.34,5.25,1,7.17,3.04,1.49,1.58,2.82,1.82,5.05,1.12,8.66-2.72,12.16-1.46,18.13,6.07,1.21-.57,2.53-1.2,3.85-1.8,4.25-1.95,8.16-1.28,11.91,1.41,2.8,2,5.75,3.78,8.6,5.72,1.89,1.28,3.44,1.18,5.05-.57,8.46-9.16,15.59-5.96,22.48.07,1.42,1.24,2.66,2.69,3.63,4.71-.98-.3-2.06-.43-2.92-.94-2.31-1.36-4.43-3.06-6.8-4.3-4.67-2.45-7.89-2.03-11.43,1.68-4.2,4.4-6.82,9.74-7.99,15.69-.68,3.43.5,4.9,4.04,5.63,1.49.31,3.04.41,4.57.44,3.93.07,7.23,1.79,10.7,3.53-.51.55-.76,1.03-.98,1.02-4.39-.21-8.78-.6-13.18-.69-7.76-.17-11.56-4.98-9.46-12.53.97-3.48,2.44-6.82,3.8-10.54-4.52-2.35-9.24-4.75-13.91-7.25-3.05-1.63-5.75-.38-8.05,1.27-6.52,4.72-9.87,11.62-12.09,19.09-.74,2.49.54,4.02,3.36,4.03,4.97,0,9.82.47,14.63,2.73-.97.18-1.93.49-2.9.52-3.65.13-7.3.26-10.95.24-6.47-.03-9.26-3.39-7.6-9.59,1.49-5.58,3.66-11.02,7.84-15.18,3.01-3,2.42-3.7-.64-6.35-3.18-2.75-6.92-3.17-10.81-1.77-4.28,1.55-7.76,4.22-9.82,8.36-1.88,3.77-3.58,7.63-5.19,11.52-1.08,2.62-.8,2.9,2.26,3.89,2.51.81,4.99,1.68,7.26,3.5-2.98-.44-5.99-.74-8.94-1.36-3.85-.81-4.91-2.43-3.87-6.16.87-3.11,2.16-6.1,3.43-9.61-2.53-.25-4.71-.47-7.07-.71.62-2.38,2.45-2.01,3.73-1.85,3.22.41,5.5-.46,7.02-3.49.66-1.32,1.92-2.34,2.89-3.46-4.16-4.68-8.24-5.12-12.26-1.15-5.52,5.44-9.12,12.23-13.23,19.29,2.68,1.12,5.09,2.13,8.78,3.67-3.74,0-6.18.19-8.58-.05-3.15-.31-4.3-2.18-3.41-5.26.37-1.27,1-2.49,1.67-3.64,3.97-6.8,7.88-13.65,14.01-18.79-2.49-3.4-4.42-4.31-7.49-2.9-2.23,1.02-4.54,2.37-6.11,4.18-3.51,4.05-6.75,8.36-9.76,12.79-2.62,3.86-2.41,4,1.01,7.63-6.34.11-8.1-2.4-5.23-7.87,1.42-2.69,3.44-5.06,5.13-7.62.82-1.24,1.48-2.57,2.22-3.86l-.14.14h-.01Z"/>
  <path class="cls-1" d="M259.45,58.65c-2.41-2.01-2.85-3.75-3-5.67-.97-11.81.07-23.43,3.99-34.63,1.04-2.98,2.95-5.9,5.16-8.16,3.9-4,9.34-2.84,11.89,2.14,2.46,4.8,2.49,9.9,1.36,15.02,3.54-1.85,6.78-3.95,10.3-5.31,5.96-2.3,10.71.97,11.31,7.3.45,4.79-.86,9.09-3.21,13.21-5.24,9.21-17.5,17.69-28.64,19.26,3.59-2.67,6.67-4.85,9.63-7.19,5.98-4.7,10.79-10.41,13.99-17.34.95-2.06,1.71-4.32,1.97-6.56.31-2.7-1.5-3.86-3.96-2.64-6.65,3.3-12.13,8.05-16.49,14.06-1.02,1.4-1.84,2.95-2.96,4.26-1.42,1.67-3.77,2.05-5.14.91-1.58-1.32-1.5-3.01-.68-4.7.33-.69.78-1.33,1.27-1.92,4.47-5.41,6.21-11.85,6.81-18.63.18-2.04-.3-4.19-.81-6.21-.48-1.87-2.22-2.29-3.51-.83-1.25,1.41-2.37,3.04-3.11,4.76-3.56,8.18-5.06,16.85-5.68,25.69-.29,4.09-.31,8.21-.48,13.18h0Z"/>
  <path class="cls-1" d="M63.69,331.78c-.4-1.08-1.04-2.13-1.14-3.23-.32-3.39-2.04-4.65-5.42-5.4-6.36-1.41-9.91-6.71-9.22-13.33.42-3.96,1.13-8.08,2.76-11.65,1.47-3.2,1.11-5.69-.04-8.64-1.17-3.02-2.33-6.14-2.78-9.32-1.07-7.58.12-14.63,6.66-19.68,3.26-2.52,5.98-2.11,8.81,1.13-.51.24-.96.63-1.43.65-5.37.25-7.92,2.14-9.61,7.21-1.49,4.47-1.66,7.23-.81,14.62,1.69-4.1-1.14-9.17,3.45-12.18-.17,3.61-.49,6.9-.43,10.19.1,6.26-.4,12.38-1.74,18.54-.84,3.86-.69,8.01-.53,12.01.12,3.22,2.36,5.12,5.38,6,.72.21,1.52.28,2.28.24,3.99-.23,5.88,1.97,6.91,5.53,1.55,5.36,3.22,6.34,8.64,5.36,2.26-.41,4.5-.92,6.75-1.39,3.76-.77,6.66.24,8.92,3.59,4.59,6.84,8.11,8.11,16.03,6.29.74-.17,1.47-.45,2.18-.73,3.98-1.56,7.27-.9,10.4,2.28,3.07,3.13,5.38,3,9.05.02,3.27-2.66,6.3-5.62,9.52-8.35,1.44-1.22,3.09-2.18,5.35-2.82-.64,1.35-1.19,2.74-1.93,4.03-2.72,4.75-6.57,8.54-10.87,11.8-4.72,3.57-9.71,3.41-14.07-.78-2.2-2.12-4.15-1.92-6.68-1.46-3.36.61-6.8.98-10.21,1.16-4.84.25-8.91-1.91-11.04-6.03-2.17-4.19-4.87-4.71-8.74-3.3-.53.19-1.13.2-1.66.29.41.74,1.27,1.59,1.11,2.17-.28,1.04-1.2,1.9-1.76,2.89-.13.23.07.91.27.98.4.15,1.09.23,1.33,0,.74-.72,1.01-2.57,2.39-1.6.87.6,1.42,2.16,1.47,3.32.08,2.15-1.78,3.9-3.96,4.23-2.11.32-4.97-1.41-5.09-3.67-.12-2.35.57-4.75.86-6.81-3.11-.93-6.71-2.01-10.32-3.1l.12.13c-.44-.44-.87-.87-1.31-1.31l.13.09.02.03Z"/>
  <path class="cls-1" d="M247.25,255.85c-4.39,1.4-7.99.04-11.53-1.71-2.06-1.01-4.03-2.25-6.17-3.04-2.16-.8-4.18-.47-5.28,1.99-2.87,6.4-8.92,5.97-13.49,2.59-2.62-1.93-4.98-4.21-7.46-6.32-2.64-2.24-3.52-2.12-5.28.88-.68,1.15-1.13,2.44-1.78,3.61-3.21,5.7-7.22,6.3-12.07,1.72-1.96-1.85-3.67-3.95-5.61-5.81-1.83-1.75-2.62-1.61-4.11.41-.45.62-.85,1.29-1.21,1.96-2.32,4.29-6.79,4.71-10.6,1.03-1.78-1.72-3.26-3.73-5.28-6.07-.79,1.49-1.31,2.61-1.95,3.64-2.03,3.26-5.39,3.81-8.2,1.12-1.5-1.44-2.53-3.36-3.85-5-1.63-2.01-2.52-1.94-3.91.15-.21.32-.36.68-.56,1-3.19,5.12-5.95,5.09-9.26-.14-1.13-1.78-1.99-3.74-3.24-5.42-1.39-1.88-2.47-1.84-4.21-.12-.68.67-1.1,1.62-1.82,2.21-.8.65-1.77,1.34-2.75,1.49-9.89,1.54-19.42,4.34-28.63,8.23-.88.37-1.73.83-2.59,1.25-3.67,1.8-6.59,4.11-5.51,8.78-2.13.76-2.88-.46-3.2-1.71-.78-3.04-.05-5.96,2.38-7.85,2.99-2.33,6.17-4.65,9.64-6.08,7.69-3.16,15.97-3.9,24.19-4.53,2.46-.19,4.57-.34,5.56-3,.19-.51.67-.94,1.07-1.35,3.09-3.21,5.81-3.34,8.9-.15,1.58,1.63,2.83,3.59,4.52,5.78.71-.88,1.22-1.6,1.82-2.24,3.47-3.74,7.55-3.77,10.86.05,1.45,1.67,2.63,3.58,4.24,5.82.81-1.4,1.23-2.23,1.76-3,2.66-3.88,4.89-4.09,8.43-.88,2.36,2.15,3.5,5.64,7.46,6.52,1.06-1.4,2.16-2.94,3.36-4.4,2.76-3.36,5.07-3.62,8.26-.71,2.13,1.94,3.93,4.23,6.04,6.2,3.12,2.9,5.1,2.51,7.22-1.22.57-1,1.02-2.07,1.57-3.08,2.78-5.01,5.84-5.66,10.16-2.11,2.08,1.71,4.04,3.56,6.16,5.21,1.2.94,2.55,1.76,3.95,2.35,2.48,1.04,3.73.57,5.34-1.76.65-.95,1.07-2.07,1.77-2.96,1.52-1.94,3.37-3.07,6-2.13,1.8.65,3.77.9,5.47,1.73,4.39,2.15,8.67,4.52,13.47,7.06h-.05Z"/>
  <path class="cls-1" d="M239.18,60.13c2.37-13.09,1.39-25.66-4.63-37.47-.9-1.76-2.53-3.15-3.79-4.68-3.18,1.79-3.46,4.62-4.17,7.15-1.33,4.74-.86,9.47.31,14.18.96,3.86.63,5.23-1.19,6.06-2.09.96-3.89.1-6.1-2.95-3.15-4.34-6.04-8.91-11.28-11.77-.94,3.07-.38,5.71.64,8.4,2.67,7.06,7.41,12.5,13.13,17.21,2.37,1.95,4.84,3.79,7.21,5.74.65.53,1.09,1.3,1.93,2.33-1.14.16-1.74.45-2.15.27-11.59-4.9-20.62-12.49-25.63-24.34-1.47-3.47-1.93-7.05-1.52-10.72.46-4.18,3.73-6.58,7.75-5.18,3.33,1.16,6.32,3.29,9.06,4.77.96-3.48,1.73-7.46,3.18-11.17,1.92-4.9,5.38-6.77,9.81-6.24,2.74.32,4.48,2.08,6.15,3.95,4.27,4.79,6.1,10.75,6.82,16.84,1.03,8.63.61,17.27-3.3,25.34-.33.67-.72,1.31-1.13,1.94-.08.12-.35.12-1.11.33h.01Z"/>
  <path class="cls-1" d="M251.41,254.06c1.33-4.97,4.01-6.51,7.92-4.43,1.17.62,2.16,1.58,3.28,2.31,1.92,1.25,3.8,2.63,5.85,3.62,3.63,1.76,4.35,1.6,6.37-2.02,3.29-5.9,8.17-6.76,13.1-6,1.47.23,2.83,1.14,4.27,1.64,2.52.88,5.04,1.78,7.6,2.51,2.1.6,3.99,0,6.06-.84,2.03-.83,3.16-1.63,4.11-3.77,2.09-4.74,4.54-5.13,9.15-2.27,2.93,1.82,5.84,3.71,8.9,5.29,2.89,1.49,3.91,1.35,5.59-1.63,2.58-4.57,7.77-5.73,13.09-3.73,1.07.4,2.06,1.1,3.16,1.38,2.96.77,6.25.63,7.91-1.91,2.03-3.1,4.1-2.85,6.82-1.74,1.23.5,2.52.84,4.05,1.34.53-.81,1.22-1.51,1.5-2.35.98-2.86,2.98-3.96,5.81-3.39,3.76.75,6.37-.59,7.89-4.2,5.19,3.27,11.13,4.79,14.87,10.07-4.33-1.82-8.66-3.63-13.43-5.64-2.44,3.34-5.5,6.23-10.08,3.35-3.49,4.61-8.53,5.26-15.14,1.95-1,1.36-2.15,3.13-3.51,4.72-2.75,3.23-6.22,3.43-9.95,2.03-.9-.34-1.74-.82-2.63-1.16-2.31-.88-4.12-.19-5.47,1.82-.43.64-.76,1.34-1.2,1.96-2.68,3.76-5.05,4.54-9.39,2.65-2.26-.99-4.32-2.45-6.4-3.8-1.12-.73-2.07-1.71-3.11-2.57-4.32-3.53-4.18-3.42-7.55.96-1.76,2.28-3.96,4.29-6.23,6.08-1.66,1.31-3.78,1.88-5.99,1.07-3.05-1.12-6.19-2.02-9.14-3.36-5.62-2.55-6.97-2.31-10.57,2.6-.57.77-1.12,1.57-1.78,2.26-2.04,2.12-4.42,3.13-7.26,1.72-2.38-1.18-4.77-2.4-6.99-3.85-1.43-.93-2.51-2.36-3.83-3.48-2.67-2.26-2.82-2.23-5.78-.03-.45.33-.91.65-1.39.93-.11.06-.33-.08-.49-.12v.03Z"/>
  <path class="cls-1" d="M232.15,275.93c-3.23,2.14-6.21,1.73-9.14.96-1.84-.49-3.67-.57-4.73,1.01-3.26,4.86-7.55,3.48-11.79,2.17-1.81-.56-3.43-1.7-5.19-2.43-1.39-.58-2.86-1.19-4.33-1.31-2.4-.2-.65,1.45-.9,2.76-1.17-.23-2.34-.45-3.52-.68-.69-.13-1.62-.62-2.02-.34-3.29,2.26-6.25.37-9.26-.62-3.46-1.14-6.84-2.52-10.33-3.54-2.33-.68-4.79-.89-8.09-1.47.44,1.43.7,2,.78,2.6.41,2.95-.85,4.19-3.36,3-3.97-1.88-7.76-4.13-11.67-6.14-2.88-1.48-5.77-2.97-8.77-4.16-.83-.33-2.42.09-3.05.75-.92.97-1.3,2.46-1.91,3.73-4.6-2.39-9.54,2.32-14.29-.86-2.64-1.77-4.87-3.65-6.47-6.36-.76-1.28-1.67-2.48-2.65-3.91-.9.52-1.63.79-2.14,1.27-1.66,1.56-3.08,1.23-4.38-.43-1.72-2.2-3.41-4.42-5.74-7.45,2.05.59,3.3.78,4.39,1.3,2.19,1.03,3.96,2.61,6.9,1.37,2.01-.84,3.99.88,5.09,2.88.93,1.68,1.61,3.5,2.62,5.12,2.49,3.96,8.66,5.91,12.75,4.04.79-.36,1.46-1.21,1.95-1.98,2.19-3.51,5.42-4.38,8.96-2.93,4.05,1.66,7.91,3.81,11.74,5.95,1.82,1.02,2.94,1.62,4.87-.25,3.3-3.19,7.63-2.25,11.43-1.03,4.72,1.51,9.36,3.44,13.78,5.7,3.26,1.67,5.78,2.24,8.77-.54,2.72-2.53,6.06-1.71,9.18-.34,2.45,1.07,4.86,2.25,7.36,3.22,2.3.9,4.3.77,6.15-1.41,2.33-2.74,5.45-3.28,8.91-2.06,2.48.87,5.03,1.52,8.12,2.43l-.02-.02Z"/>
  <path class="cls-1" d="M172.11,163.23c.46.96.92,1.91,1.36,2.88,1.46,3.17,3.43,3.85,6.4,1.82,1.53-1.04,2.85-2.53,3.96-4.04,2.22-3.02,4.21-6.22,6.35-9.3,2.07-2.98,2.24-3.01,6.29-1.92-4.62,3.5-6.16,8.23-5.71,13.59.15,1.82.95,3.7,1.87,5.32,1.2,2.1,3.27,2.43,5.55,1.83,1.87-.5,3.57-3.89,5.72-.41,1.13-.82,2.26-1.65,4.36-3.18-1.12,2.64-1.92,4.1-2.37,5.65-.8,2.77.82,7.01,3.22,8.01,2.61,1.09,5.26,1.06,7.34-1.38.49-.57,1.04-1.15,1.67-1.55,1.04-.65,2.46.22,2.46,1.43,0,.19,0,.39-.08.56-.7,1.59-1.71,3.39.22,4.61,1.36.86,3.12,1.38,4.73,1.48,4.14.23,7.92-1.1,11.4-3.33.78-.5,1.59-.94,2.99-1.75,0,1.24.27,2.16-.04,2.45-1.69,1.59-1.49,3.04.23,4.27,1.75,1.25,3.74,1.26,5.26-.27,1.29-1.3,2.18-2.99,3.47-4.85.86,1,1.47,1.65,2.03,2.35,2.5,3.15,5.87,3.21,7.71-.32,1.23-2.36,2.3-3.48,5.14-3.38,3.63.12,5.78-2.7,7.69-5.38.95-1.34,1.5-2.96,2.53-5.09,1.71,2.77,1.32,5.06.32,7.31-1.47,3.33-3.99,5.67-7.4,6.85-2.38.82-4.31,1.96-6.13,3.85-2.83,2.96-6.38,4.19-10.42,1.82-.84-.49-2.17-.75-3.07-.47-6.3,1.94-6.64,1.88-11.07-3.53-3.63,2.43-7.65,3.48-12.01,3-1.31-.14-2.84-.23-3.82-.95-1.79-1.32-2.99-3.62-4.91-4.52-1.67-.79-4.01-.05-6.02-.27-2.34-.25-3.74-1.94-4.55-3.98-.76-1.93-1.23-3.97-1.82-5.97-10.7,4.44-15.23.61-16.27-14.08-.66,1.4-1.15,2.55-1.74,3.64-.45.84-.95,1.67-1.57,2.4-2.29,2.71-5.94,3.76-8.79,2.59-2.4-.99-3.14-3.49-2.36-7.96l-.14.16h.02Z"/>
  <path class="cls-1" d="M148.07,325.37c.29,1.01.66,2,.85,3.03.9,4.75,3.03,7.31,7.8,7.85,4.71.54,8.45,2.39,11.31,6.05,2.25,2.88,5.2,3.7,8.67,3.46,4.13-.28,8.01.43,11.37,3.13,1.42,1.14,2.99,1.45,4.85.76,2.96-1.1,5.97-.83,9.05-.09,1.54.37,3.34,0,4.96-.34,3.36-.73,6.72-1.52,9.98-2.59,1.76-.58,3.5-1.58,4.92-2.78,4.24-3.6,8.62-7.12,12.37-11.21,2.79-3.04,4.69-6.91,7.13-10.62,2.14,1.87,1.56,4.54.95,6.99-.81,3.24-2.7,5.87-5.33,8.01-3.42,2.79-6.78,5.66-10.04,8.62-3.48,3.15-7.03,5.94-12.1,5.88-1.29-.01-2.63.54-3.86,1.03-3.88,1.54-7.74,1.85-11.82.71-1.34-.37-2.94.12-4.41.33-3.49.5-6.95.83-9.83-1.81-1.92-1.76-4.24-1.67-6.53-1.54-5.81.31-10.55-1.61-13.98-6.41-1.92-2.69-4.66-3.61-7.76-4.39-7.84-1.97-10.03-5.44-8.53-14.08h-.02Z"/>
  <path class="cls-1" d="M165.25,287.09c1.62-.11,2.58-.38,3.46-.21,7.83,1.52,15.63.68,23.49.19,11.1-.7,22.23-.85,33.24,1.24.27.05.47.5,1.14,1.25-19.17,6.84-38.16,4.02-57.13,1,2.1,5.92,11.32,11.51,20.58,12.42,11.19,1.11,12.89.66,24.15-6.37-1.89,5.03-6.65,9.05-12.03,9.66-10.46,1.19-20.24-.86-28.93-7.01-2.99-2.12-5.77-4.47-5.77-8.74,0-.89-1.1-1.78-2.19-3.42h0Z"/>
  <path class="cls-1" d="M52.84,426.96c-1.79,1.68-5.49-2.91-5.89,2.42-3.03-7.41-7.47-14.16-7.6-22.43-.11-6.93,2.39-12.7,7.5-17.37,3.08-2.82,6.18-5.58,11.32-7.06-.74,1.52-.94,2.38-1.47,2.93-2.13,2.22-4.4,4.3-6.54,6.5-5.36,5.52-7.07,12.09-5.53,19.57.35,1.68.66,3.37,1.1,5.65.83-1.18,1.52-1.94,1.98-2.83,2.64-5.08,6.91-8.68,11.12-12.32,3.2-2.77,3.35-3.63.7-6.95-.91-1.15-1.99-2.17-3.75-4.07,2.16.17,3.45-.12,4.14.4,1.34,1,3.1,2.33,3.31,3.73.47,3.07,1.9,3.54,4.64,3.54,1.46,0,3.15,1.22,4.31,2.34,1.48,1.44,2.53,3.34,3.87,5.18-2.22,1.1-3.17-.41-4.33-1.61-2.95-3.05-4.73-3.5-7.94-1.16-5.12,3.75-9.86,7.97-12.83,13.77-1.87,3.65-1.24,6.9,1.88,9.76h0Z"/>
  <path class="cls-1" d="M342.37,282.21c-12.99,6.88-58.2,10.16-74.09,5.82,8.71-2.96,16.88-2.52,24.78-3.58,8.16-1.09,16.4-1.8,24.62-2.16,8.22-.36,16.46-.08,24.7-.08h-.01Z"/>
  <path class="cls-1" d="M252.79,165.45c6.49-12.16,8.9-13.07,18.35-7.17.5-7.12,3.96-12.38,10.2-15.62,5.36-2.79,8.96-1.08,11.4,5-.33.07-.81.33-.98.19-4.89-3.92-6.19-4.05-11.05-.53-3.84,2.78-6.64,6.22-7.04,11.28-.24,3.09-1.49,3.76-3.99,2.06-5.26-3.57-8.57-3.11-11.72,4.56-.86,2.09-.92,4.51-1.65,6.67-.32.95-1.3,2.19-2.13,2.33-.83.13-1.96-.85-2.76-1.56-.54-.47-.67-1.37-1.1-1.99-1.84-2.68-2.37-2.67-5.39-.65-.82.54-1.96.59-2.96.87-.27-.99-.82-2-.77-2.97.2-3.93-.31-5.49-2.13-5.72-1.86-.24-3.57,1.41-4.49,4.5-.26.89-.21,1.87-.32,2.97-2.49-3.06-2.24-5.91.6-8.82,2.57-2.63,6.11-3.38,8.09-.65,2.54,3.52,6.01,4.11,9.85,5.25h0Z"/>
  <path class="cls-1" d="M347.93,300.58c-1.98,2.96-3.83,6.03-5.98,8.86-2.06,2.71-4.76,4.42-8.44,3.88-3.49-.52-6.3,1.25-9.12,2.88-3.62,2.09-7.12,3.07-11.37,1.18-2.06-.91-4.96-.67-7.28-.11-6.48,1.55-11.79.03-15.84-5.21-1.63-2.11-3.57-2.77-6.01-2.39-2.07.32-4.12.82-6.19,1.16-5.75.94-8.42-.53-10.89-5.93-1.43-3.12-3.29-5.35-5.59-6.68,2.28-1.54,4.04-1.08,5.4.92,1.18,1.74,2.25,3.57,3.15,5.47,1.17,2.47,3.08,3.31,5.61,2.91,2.45-.38,4.96-.66,7.29-1.45,3.85-1.31,6.7-.01,9.21,2.76.51.57,1.04,1.13,1.57,1.69,3,3.21,6.68,4.41,10.93,3.41,4.02-.94,7.89-1.22,11.74.74.86.44,2.24.31,3.21-.04,1.79-.64,3.48-1.58,5.15-2.5,2.73-1.51,5.52-2.68,8.74-2.25,3.19.42,5.54-1.08,7.53-3.34,2.02-2.29,4.03-4.59,6.05-6.89.38.31.75.62,1.13.93h0Z"/>
  <path class="cls-1" d="M374.92,227.35c-2.82-7.07-5.29-14.35-5.24-22.02.05-7.38,1.08-14.75,1.72-22.59-5.83,1.69-9.82-.13-11.3-6.8-2.01,2.79-3.79,5.12-7.07,4.72-1.6-.2-2.96-.83-2.9-3.22,5.61,2.71,7.67-3.49,12.18-4.58.11,1.29.08,2.58.36,3.79.87,3.76,3.42,5.02,6.89,3.24,3.64-1.86,5.55-5.07,6.23-9.08,2.33.83,1.84,2.75,1.72,4.35-.11,1.5-.86,2.97-.91,4.46-.45,12.47-.88,24.94-1.14,37.42-.07,3.36.48,6.74.74,10.11-.43.06-.86.13-1.29.19h.01Z"/>
  <path class="cls-1" d="M430.68,269.48c1.2-1.76,2.84-1.61,3.77-.14,1.61,2.54,3.4,5.25,3.95,8.11.89,4.59-.06,9.09-4.05,13.17-.49-1.47-.97-2.42-1.12-3.42-.49-3.22-.78-6.47-1.31-9.68-.78-4.71-3.86-7.55-8.28-8.53-1.8-.4-3.93.67-6.28,1.15-.02-2.35,1.93-3.52,3.09-5.04,1.29-1.68,1.15-3.06-.18-4.62-3.21-3.75-7.36-6.16-11.71-8.21-3.81-1.79-7.77-3.26-11.65-4.91-.61-.26-1.16-.69-1.46-1.88,1.98.3,4,.42,5.92.93,4.61,1.24,9.23,2.5,13.72,4.08,2.13.75,4.1,2.11,5.93,3.48,4.54,3.4,5.49,6.41,3.97,12.08,1.89,1.08,3.85,2.19,5.81,3.3.4.39.8.78,1.2,1.18.07.13.12.28.21.4.05.07.16.1.24.14-.19-.14-.39-.28-.58-.41-.4-.39-.79-.79-1.19-1.18h0Z"/>
  <path class="cls-1" d="M172.25,163.07c-1.77.96-3.71,1.89-4.73-.74-1.24-3.2-3.02-5.62-6.76-4.78-3.79.85-5.66,3.69-6.12,7.48-.09.74-.23,1.48-.5,3.24-.85-1.39-1.54-2-1.56-2.62-.11-3.91-1.8-.04-3.36-1.1-.76-.98.07-2.95-.15-4.71-.59-4.7-4.44-6.72-8.21-3.79-2.43,1.89-4.09,4.77-5.9,6.96-.75-2.66-.58-3.54,1.22-6.46,1.6-2.59,3.86-4.3,6.81-4.91,5.55-1.15,8.49,1.11,10.01,7.89.94-1.14,1.67-2.14,2.52-3.01,3.21-3.32,7.09-3.34,11.22-2.24,1.18.31,2.86.8,3.63.25,2.13-1.51,5.09-.94,6.85-3.71,3.32-5.24,6.01-5.12,11.29.1-.96.1-1.67.4-2.11.17-2.71-1.39-4.39-.29-5.6,2.13-.95,1.91-1.93,3.61-4.33,4.24-4,1.04-3.96,1.19-4.38,5.77l.14-.16h.02Z"/>
  <path class="cls-1" d="M223.78,307.07c-3.45,4.05-6.34,7.3-9.79,10.02-1.86,1.47-4.09,2.51-6.43,1.76-2.62-.84-4.94-.22-7.22.75-4.15,1.75-8.23,2.01-12.04-.58-2.21-1.5-4.12-.5-5.94.29-3.09,1.34-5.63,1.04-7.64-1.69-1.32-1.79-3.09-2.09-5.08-1.97-2.76.16-4.31-1.49-5.14-3.8-.71-1.96-1.05-4.05-1.53-6.09-.43-1.86-.77-3.74-1.26-5.58-.25-.93-2.02-1.86-.17-2.62.45-.19,2.01,1.09,2.33,1.97.98,2.68,1.56,5.51,2.38,8.25,1.23,4.09,1.26,4.25,5.34,4.4,2.38.09,4,1.1,5.4,2.78,1.16,1.4,2.42,1.56,4.05.74,3.27-1.66,6.36-1.64,9.85.11,1.98.99,4.91.91,7.16.32,3.54-.92,6.94-2.04,10.69-1.51,2.57.37,4.3-1.27,5.93-2.96,2.23-2.31,4.64-4.29,9.12-4.58h-.01Z"/>
  <path class="cls-1" d="M129.4,306.22c-.65,1.3-.98,2.99-2.01,3.82-6.7,5.44-13.92,8.66-22.71,4.9-2.04-.87-4.39-1.55-6.57-1.49-4.19.12-6.58-1.89-7.62-5.57-.77-2.72-1.33-4.91-4.89-5.33-2.68-.32-3.85-3.07-4.37-5.55-.62-2.98-.93-6.04-1.14-9.07-.05-.68.76-1.91,1.36-2.04,1.56-.32,1.64.92,1.76,2.17.26,2.65.69,5.28,1.08,7.91.32,2.15,1.4,3.41,3.75,3.56,3.18.21,4.8,2.5,5.37,5.21.83,3.99,3.02,5.37,6.91,5.08,1.44-.11,2.99.45,4.4.95,6.06,2.17,11.81,2.72,17.3-1.72,1.88-1.52,4.39-2.27,6.61-3.38.27.18.53.37.8.55h-.03Z"/>
  <path class="cls-1" d="M433.41,295.86c.25,1.38.85,2.57.52,3.36-.79,1.9-1.62,4.18-3.16,5.32-6.75,5.03-13.92,9.07-22.71,4.94-2.47-1.16-4.74-.84-7.19.04-3.04,1.09-6.15,2.12-9.32,2.69-4.35.78-8.18-.47-9.9-4.9-1.14-2.94-3.6-3.39-6.84-4.06,2.56-2.02,4.43-1.87,6.32-.67.63.4,1.14,1.02,1.64,1.6,4.73,5.47,5.95,5.79,12.69,3.3,1.43-.53,2.84-1.14,4.26-1.7,3.5-1.39,7.01-1.9,10.44.16,3.11,1.86,6.24,1.41,9.36.19,4.85-1.9,9.55-4.05,12.15-9.03.22-.42.84-.62,1.74-1.25h0Z"/>
  <path class="cls-1" d="M358,275.23c1.01-1.66,2.23-2.74,4.16-1.25,1.35,1.04,2.85,1.98,3.92,3.27,1.27,1.54,1.83,3.5,4.04,4.44.96.41,1.43,2.55,1.67,3.99.86,5.24-1.88,9.56-4.49,13.99.86-5.2,1.72-10.39,2.58-15.59-.38-.07-.76-.14-1.14-.22-1.32,6.08-2.64,12.16-3.95,18.22-1.05-1.62-2.32-2.97-2.88-4.57-1.43-4.11-2.58-8.33-3.78-12.52-.37-1.27-.4-2.65-.83-3.9-1.57-4.53-3.35-5.28-7.79-3.4-.66.28-1.29.65-2.56,1.3.37-3.3,2.17-4.62,4.43-4.75,2.2-.13,4.45.58,6.67.92,4.01,5.29,2.71,12.11,5.06,18.4.65-3.13,1.28-5.69,1.69-8.28.81-5.13-1.37-8.28-6.81-10.05h0Z"/>
  <path class="cls-1" d="M174.19,174.56c-3.7,8.18-11.42,11.9-18.78,9.41-1.56-.53-2.65-.58-4.22.15-5.55,2.59-10.89,1.64-13.9-2.54-3.7-5.14-4.48-11.11-.92-16.66.85-1.33,2.03-2.36,3.97-1.37-.91,1.57-2.17,3.02-2.61,4.68-.47,1.8-.6,3.92-.1,5.69.59,2.12,1.62,4.37,3.12,5.93,3.31,3.46,8.03,2.5,10.34-1.76,1.56-2.88,2.88-3.24,4.24-.59,1.94,3.77,4.97,3.37,7.86,2.51s5.53-2.56,8.27-3.91c.76-.37,1.47-.83,2.73-1.54Z"/>
  <path class="cls-1" d="M116.01,328.93c-1.46.43-2.92.9-4.39,1.28-2.12.54-4.21.52-6.05-.86-2.07-1.55-4.31-2.42-6.95-2.14-2.81.3-4.86-1.11-6.27-3.32-1.27-1.97-2.67-2.8-5.17-2.66-5.52.32-5.53.14-8.09-5.07-1.66.48-3.28,1.15-4.97,1.41-4.02.6-6.64-1.64-6.96-5.73-.33-4.16.42-6.53,3.74-10.64-.24,1.8-.31,2.76-.51,3.69-.28,1.31-.81,2.57-.95,3.89-.55,5.08,1.6,6.76,6.47,5.13.9-.3,1.74-.82,2.64-1.14,2.84-1.01,3.84-.78,4.65,2.18.71,2.59,1.71,2.9,4.07,2.14,3.13-1,5.77.24,7.35,3.03,1.53,2.7,3.63,3.71,6.62,3.56,1.09-.05,2.49.13,3.26.78,3.36,2.84,7.38,3.46,11.52,4.47h-.01Z"/>
  <path class="cls-1" d="M268.36,291.32c7.08,2.64,13.9,5.42,21.06,7.27,6.87,1.77,13.81,3.09,20.93,3.11,8.04.03,15.51-2.08,22.3-6.45,2.67-1.72,5.36-3.38,9.11-5.75-1.09,3.6-2.73,5.08-4.47,6.47-6.16,4.91-13.09,7.66-21.03,8.28-15.15,1.17-29.18-2.56-42.63-9.09-1.92-.93-3.52-2.54-5.27-3.83h0Z"/>
  <path class="cls-1" d="M64.75,332.86c-.09,2.09-.26,4.18-.25,6.27.03,14.61.14,29.22.11,43.83,0,1.99-.64,3.98-1.37,5.91-1.1-12.05-4.13-23.86-3.08-36,.48-5.54.68-11.11,1.32-16.63.18-1.55,1.44-2.98,2.21-4.46l-.13-.09,1.31,1.31-.12-.13h0Z"/>
  <path class="cls-1" d="M125.53,230.96c-.18-.64-.51-1.27-.53-1.92-.43-11.87-.94-23.73-1.17-35.6-.07-3.41.55-6.85,1.15-10.23.24-1.31,1.31-2.47,2.65-4.84,2.07,18.54,2.39,35.59-2.11,52.59h0Z"/>
  <path class="cls-1" d="M254.62,277.64c.39-4.94,3.47-7.38,8.18-6.58,2.99.51,5.87,1.64,8.83,2.39,2.58.66,5.16,1.34,7.79,1.67,1.21.16,2.9-.08,3.73-.84,3.36-3.08,7.34-2.99,11.38-2.65,4.4.37,8.34,2.18,12.1,4.96-3.38-.31-6.78-.46-10.12-.98-4.09-.63-8.02-1.11-11.11,2.52-1.75,2.06-4.17,1.94-6.4,1.43-2.96-.68-5.84-1.76-8.73-2.73-1.44-.49-2.84-1.12-4.25-1.71-4.2-1.78-8.12-2-11.4,2.51h0Z"/>
  <path class="cls-1" d="M298.76,151.8c-.21-4.3,1.61-6.66,5.05-7.08,4.61-.57,6.26,1.34,7.44,8.89,4.53-.04,6.77,2.65,7.37,6.96.18,1.27.64,2.02,1.97,2.41,4.06,1.19,4.41,4.21,3.61,8.14-.72-.77-1.38-1.22-1.67-1.84-1-2.1-2.23-2.46-4.57-1.73-3.58,1.12-4.23.3-3.98-3.57.06-.96.16-1.92.13-2.87-.1-3.11-1.24-3.8-3.86-2.32-.66.37-1.17,1.07-1.85,1.33-.63.24-1.71.38-2.04.04-.55-.57-1.02-1.64-.87-2.37.37-1.85,1.28-3.6,1.64-5.45.34-1.76.02-3.8-1.94-4.28-1.22-.3-2.85.4-4.09,1.05-.88.46-1.41,1.58-2.34,2.69h0Z"/>
  <path class="cls-1" d="M122.16,139.75c-1.64,3.22-3.35,6.4-4.9,9.66-.88,1.85-.73,3.02,1.89,3.5,2.75.5,3.03,2.21,1.41,4.57-.94,1.37-2.24,2.73-2.56,4.27-1.34,6.46.79,9.68,7.25,11.43,1.46.4,3,.54,5.06.89-4.54,2.77-8.44,1.35-12.19-.43-3.67-1.74-5.17-4.99-5.06-8.95.05-1.9.39-3.8.57-5.7.08-.89.43-1.93.11-2.65-1.53-3.38-.4-6.43,1.13-9.31,1.65-3.1,3.77-5.9,7.29-7.29h0Z"/>
  <path class="cls-1" d="M431.82,323.57c-4.15,6.53-10.2,10.57-17.74,12.27-1.62.37-4.07-.25-5.31-1.35-3.04-2.69-5.74-1.93-8.95-.58-2.78,1.16-5.8,2.1-8.78,2.32-3.53.26-4.75-1.52-5.11-6.48.88,1.01,1.38,1.67,1.96,2.25,1.63,1.65,3.45,2.23,5.71,1.16,2.24-1.06,4.59-1.89,6.88-2.87,2.97-1.27,5.93-1.75,8.75.29,2.51,1.82,5.06,1.55,7.57.18,2.02-1.1,3.92-2.41,5.89-3.59,2.73-1.65,5.47-3.27,8.21-4.9.3.43.61.86.91,1.29h0Z"/>
  <path class="cls-1" d="M365.42,269.13c-4.72,0-9.46.31-14.14-.11-2.94-.27-5.23-.45-6.73,2.62-.94,1.92-2.81,2.55-4.86,2.43-3.24-.19-6.48-.45-9.72-.68-1.91-.13-3.82-.4-5.72-.33-.86.03-2.37.68-2.42,1.16-.2,2.2-1.19,2.6-2.83,1.52-1.17-.78-.81-2.88.79-3.84,2.84-1.7,5.88-2.66,9.32-2.02,2.25.42,4.57.47,6.86.63,2.58.19,4.86.07,6.14-2.93.89-2.09,3.07-2.97,5.31-2.77,3.8.34,7.59.85,11.35,1.49,2.31.4,4.56,1.18,6.84,1.79l-.18,1.03h-.01Z"/>
  <path class="cls-1" d="M261.24,306.41c.49.89.79,1.2.82,1.54q.54,5.22,5.79,5.74c2.93.3,5.18,1.66,5.79,4.7.5,2.46,1.86,3.64,4.23,3.95,5.63.73,11.29,2.22,17.34-1.51-3.42,5.23-8.15,7.18-13.32,6.12-1.68-.34-3.35-.8-5.04-.92-3.57-.24-5.88-2.14-6.42-5.5-.48-2.99-2-3.59-4.67-3.79-5.93-.46-7.52-3.95-4.53-10.34h.01Z"/>
  <path class="cls-1" d="M410.43,256.76c-2.89,2.64-6.28,2.9-9.53,3.37-3.48.5-6.57,1.05-8.44,4.68-.61,1.18-2.81,1.97-4.37,2.14-2.02.22-4.13-.33-6.2-.6-3.07-.4-6.58-2.16-7.31,3.23-2.02-1.81-1.89-3.63-.75-4.5,1.56-1.19,3.63-2.05,5.58-2.3,1.8-.23,3.73.59,5.61.83,2.26.28,4.23-.17,5.06-2.66.91-2.75,3.18-3.97,5.7-4.1,4.87-.27,9.76-.08,14.65-.08h0Z"/>
  <path class="cls-1" d="M89.54,282.22c2.41,7.44,9.03,9.55,15.14,12.22,6.84,2.99,13.02.5,19.3-2.85-.04,2.94-2.2,3.93-3.94,5.17-2.93,2.09-6.25,2.92-9.79,2.61-5.67-.5-10.59-3.03-15.37-5.93-3.29-2-5.44-4.81-6.6-8.39-.25-.76.06-1.71.12-2.58.38-.08.76-.17,1.15-.25h0Z"/>
  <path class="cls-1" d="M378.06,288.73c14.78,11.22,29.02,8.96,43.14-1.26-5.08,7.64-11.93,12.08-21.19,11.9-8.83-.17-16.74-2.54-21.95-10.64h0Z"/>
  <path class="cls-1" d="M183.6,328.95c0,1.9-.18,3.82.05,5.69.25,2.09,1.67,3.04,3.68,2.29,2.3-.86,4.51-2.06,6.6-3.35,2.84-1.76,2.78-1.85,5.62.65.28.25.63.43,1.14.78,1.4-.8,2.95-1.56,4.37-2.51,2.1-1.41,3.96-3.09,6.6-.62.44.41,2.59-.99,3.96-1.57-1.82,4.34-1.82,4.27-6.62,4.23-1.01,0-2.12.62-3.01,1.22-2.82,1.9-5.54,3.4-8.93,1.04-.62-.43-2.1.12-3.08.49-1.95.73-3.76,2.06-5.76,2.42-5.06.91-8.51-3.1-7.16-8.07.28-1.03.95-1.95,1.44-2.92.37.08.73.15,1.1.23h0Z"/>
  <path class="cls-1" d="M374.55,279.16l34.98-7.02c-5.47,5.37-12.2,7.77-19.34,8.52-5.13.54-10.45,1.61-15.6.19l-.04-1.7h0Z"/>
  <path class="cls-1" d="M322.19,180.81c-4.54,2.59-8.91,3.51-13.53,3.15-1.27-.1-3.09-.46-3.63-1.33-2.17-3.53-7.49-3.41-8.76-7.73-1.12-3.8-1.09-7.58,1.07-11.08.37-.6,1.1-1.26,1.72-1.33.57-.06,1.3.57,1.8,1.06.16.15-.21,1.2-.3,1.2-2.25-.13-2.5,1.67-2.5,3.03,0,2.04.23,4.22.97,6.09.67,1.7,2.2,2.44,4.27,1.3,1.9-1.05,3.39-.56,3.32,2-.07,2.52,1.4,3.37,3.6,3.49,1.32.07,2.64.15,3.96.13,1.92-.03,3.84-.17,5.76-.22.56,0,1.11.11,2.25.24Z"/>
  <path class="cls-1" d="M123.26,283.07c-8.17,2.29-16.42,3.44-24.58.37-1.92-.72-3.71-1.85-5.43-2.99-.4-.27-.44-1.4-.29-2.05.08-.36.95-.87,1.37-.79,9.65,1.78,19.29,3.62,28.93,5.46Z"/>
  <path class="cls-1" d="M68.42,295.5c-3.28-6.83-2.79-12.47.22-17.98,1.22-2.23,2.88-3.91,5.34-4.94,2.18-.91,4.11-.93,5.92.47,1.97,1.52,2.83,3.5,1.84,6.17-.63-.29-1.17-.42-1.58-.73-3.58-2.79-5.55-2.6-7.54,1.25-1.02,1.98-1.39,4.32-1.95,6.53-.33,1.28-.42,2.63-.72,3.92-.34,1.44-.81,2.86-1.53,5.31Z"/>
  <path class="cls-1" d="M361.68,303.74c-5.11-1.34-6.85-5.31-8.17-9.56-.68-2.18-.92-4.51-1.77-6.61-.43-1.05-1.76-1.74-2.69-2.59-.83.91-1.71,1.78-2.46,2.76-.39.51-.55,1.21-.81,1.82-.48-.56-1.22-1.05-1.39-1.69-.73-2.84.06-4.54,2.43-5.7,2.78-1.36,5.47-1.01,7.06,1.56,1.38,2.22,2.2,4.83,3.05,7.34,1.44,4.25,1.64,8.97,4.73,12.67h.02Z"/>
  <path class="cls-1" d="M336.72,183.17c2.92,3.23,7.12,3.27,12.59.12-1.99,5.73-6,7.87-11.57,6.41-1.37-.36-2.9-.17-4.35-.1-6.57.32-11.5-6.35-8.51-12.6.25-.52,1.18-.72,1.79-1.07.1.61.26,1.23.28,1.84.04,1.53-.26,3.12.08,4.57.79,3.38,4.79,4.65,7.6,2.55.73-.54,1.4-1.15,2.09-1.72h0Z"/>
  <path class="cls-1" d="M350.45,312.29c.34,6.02-3.84,13.65-8.46,15.37-1.43.53-3.72.63-4.81-.17-2.38-1.75-4.4-1.49-6.97-.71-1.93.58-4.19.37-6.26.11-1.82-.23-3.02-1.41-2.72-4.01,3.39,2.83,6.77,2.5,10.16.84,2.02-.99,3.91-1.35,5.85.27,1.67,1.4,3.22.79,4.51-.69,1.64-1.87,3.27-3.75,4.81-5.7,1.29-1.62,2.44-3.34,3.88-5.32h0Z"/>
  <path class="cls-1" d="M161.38,324.11c-3.29-.91-6.98-.86-7.53-4.71-.52-3.6-1.3-7.55,2.79-11.08-.3,3.18-.73,5.53-.71,7.87.04,3.31.71,3.86,4.11,4.14.95.08,2.16-.31,2.81.14.94.66,1.52,1.86,2.15,2.9.14.22-.2.71-.26,1.08-.65,3.98-.63,3.95,3.53,5.17,1.63.48,3.22,1.11,5.59,1.95-4.06,2.05-7.43,1.68-10.61-.1-2.81-1.57-3.03-4.19-1.87-7.37h0Z"/>
  <path class="cls-1" d="M323.7,330.88c-3.54,4.34-8.04,6.79-13.34,7.92-3.1.66-5.37-1.86-7.88-2.01-2.56-.16-5.11,2.24-8.17,1.87-2.67-.32-4.03-2.04-5.01-4.17-.21-.46.43-1.32.67-1.99.58.27,1.47.4,1.67.85,1.4,3.01,2.09,3.63,4.57,2.98,1.45-.38,2.88-1.07,4.13-1.9,2.24-1.5,4.26-3.74,6.32.3.31.6,2.15.78,3.18.59,2.79-.53,5.55-1.27,8.26-2.12,1.92-.6,3.74-1.53,5.6-2.31h0Z"/>
  <path class="cls-1" d="M431.49,290.58c-3.53-1.76-4.75-4.21-5.38-7.07-.45-2.04-.58-4.2-1.33-6.12-.39-.99-1.82-1.58-2.78-2.34-.63.82-1.29,1.61-1.86,2.46-.39.58-.64,1.25-1.03,2.02-2.35-3.03-2.49-4.04-1.03-6.04,1.43-1.96,3.97-3,5.95-2.35,2.97.96,4.95,3.06,5.52,6.05.81,4.2,1.24,8.48,1.93,13.39h0Z"/>
  <path class="cls-1" d="M189.13,211.76c-2.21.08-4.05-1.15-5.14-3.39-1.17-2.42-.51-6.43,1.18-8.07.27-.26.55-.65.88-.72,3.38-.68,6.3.72,9.05,2.32,1.75,1.03,2.21,4.17,1.09,6.28-1.39,2.62-3.77,3.65-7.05,3.57h0ZM188.01,201.05c-1.4,3.82-1.45,4.46-.47,5.73,1.16,1.51,2.45,1.49,3.85.27,1.25-1.09,1.37-2.18.09-3.28-.98-.84-2.03-1.6-3.47-2.72Z"/>
  <path class="cls-1" d="M83.19,272.38c-1.68-.87-2.95-1.7-4.34-2.22-6.18-2.32-12.82,1.34-14.04,7.82-.64,3.37-.86,6.82-1.34,10.23-.17,1.23-.54,2.44-1.25,3.6-.91-5.39-1.39-10.75.35-16.01,2.68-8.12,10.55-10.04,17.21-7.98,1.78.55,3.66,1.44,3.4,4.56h.01Z"/>
  <path class="cls-1" d="M158.77,391.37c.27,2.11-.84,3.62-2.64,4.54-2,1.02-4.07,1.02-6-.3-3.32-2.28-4.69-8.06-2.34-11.33.87-1.21,2.83-2.53,4.1-2.36,2.56.35,5.42,1.19,6.18,4.35.4,1.66.48,3.39.7,5.09h0ZM152.26,383.79c-.73.65-1.64,1.06-1.72,1.59-.24,1.67-.46,3.44-.14,5.06.47,2.36,3.15,3.46,5.5,2.39,2.45-1.11,1.1-2.77.4-4.29-.32-.69-.42-1.55-.91-2.07-.87-.95-1.96-1.7-3.13-2.68h0Z"/>
  <path class="cls-1" d="M190.66,217.14c2,.87,3.06,1.16,3.94,1.73,2.86,1.85,3.83,4.17,2.94,6.72-.82,2.34-4.34,4.54-6.86,4.28-2.91-.3-5.52-2.61-5.77-5.44-.13-1.48.09-3.03.45-4.48.12-.49,1.17-1.1,1.74-1.04.49.05,1.15.91,1.27,1.5.19.9-.24,1.94,0,2.81.22.79.91,1.93,1.53,2.03.98.16,2.25-.2,3.04-.8.42-.32.31-1.7.05-2.47-.46-1.34-1.22-2.58-2.34-4.84h0Z"/>
  <path class="cls-1" d="M142.79,275.72c-3.05,5.17-2.08,10.52-1.25,15.76.65,4.14,1.72,8.21.41,12.38-.21.66-.73,1.22-1.55,2.53-.22-1.47-.34-2.12-.42-2.78-.5-4.15-1.01-8.3-1.48-12.45-.34-3.02-.75-6.04-.93-9.07-.2-3.53,1.85-5.49,5.21-6.37h0Z"/>
  <path class="cls-1" d="M243.62,304.29c.89-2.66,1.58-5.41,2.71-7.96,2.5-5.61,4.59-11.23,2.39-17.62,2.77.14,3.78,1.95,3.89,3.43.26,3.38.51,6.99-.39,10.18-1.35,4.77-4.59,8.67-7.54,12.6-.35-.21-.7-.41-1.06-.62h0Z"/>
  <path class="cls-1" d="M213.4,166.01c-1.25-3.9.4-5.94,2.45-7.7,2.35-2.01,5.13-2.6,8.09-1.62,4.95,1.64,7.8,8.09,5.61,12.81-.32.7-1.43,1.04-2.17,1.55-.45-.71-1.1-1.36-1.28-2.13-.17-.69.26-1.49.29-2.25.14-3.88-1.14-6.21-3.76-6.93-3.45-.95-5.99.29-7.9,3.88-.31.58-.64,1.15-1.33,2.4h0Z"/>
  <path class="cls-1" d="M292.91,224.49c3.93-.03,5.04.73,5.14,3.53.12,3.36-2.93,6.74-6.24,6.9-3.15.16-5.26-1.96-5.3-5.31-.04-3.66,1.74-5.09,6.4-5.13h0ZM291.46,225.63c-.64,1.84-1.17,2.87-1.29,3.95-.04.4.88.91,1.37,1.36.61-1.04,1.33-2.03,1.74-3.14.11-.29-.75-.93-1.82-2.18h0Z"/>
  <path class="cls-1" d="M154.13,365.55c-2.69.9-4.74,1.61-4.78,4.16,0,.62.56,1.5,1.11,1.79.46.24,1.53.01,1.9-.4.88-.96,1.5-2.16,2.52-3.7.72.73,1.8,1.33,1.8,1.92,0,1.44-.2,3.05-.87,4.29-1.25,2.31-5.24,2.99-7.65,1.57-2.86-1.68-3.45-5.93-1.28-9.14,1.74-2.56,3.33-2.8,7.26-.5h-.01Z"/>
  <path class="cls-1" d="M241.11,307.29c.03-6.22-1.85-11.71-3.94-17.26-.89-2.37-.41-5.28-.4-7.95,0-1.89,1.23-3.07,3.12-4.36.14,1.53.36,2.6.32,3.66-.15,4.61.61,9.02,1.81,13.5.86,3.22.45,6.79.41,10.21,0,.74-.86,1.47-1.33,2.21h0Z"/>
  <path class="cls-1" d="M144.37,305.69c1.87-5.56,1.15-10.17.22-14.84-.44-2.22-.31-4.63,0-6.89.59-4.43,2.69-6.07,7.19-6.11-1.28,2.16-3.04,4.19-3.7,6.53-.65,2.32-.21,4.96-.22,7.45,0,2.69.04,5.38,0,8.07-.03,2.11-.52,4.01-3.49,5.79h0Z"/>
  <path class="cls-1" d="M374.61,311.84c.37,1.48.52,2.51.87,3.46,1.45,3.99,3.6,5.11,7.9,4.4,1.05-.18,2.66-.42,3.18.14,3.48,3.72,6.94,1.82,10.45.29.63-.27,1.26-.54,2.32-1-2.76,4.91-8.1,7.43-11.93,5.21-2.53-1.47-4.89-1.78-7.56-1.87-2.59-.09-4.23-1.86-5.28-3.94-.95-1.88-2.5-3.97.04-6.7h0Z"/>
  <path class="cls-1" d="M354.68,376.72c-2.63,1.51-4.75,3.34-3.07,6.34.46.82,1.83,1.6,2.77,1.58,3.12-.08,3.88-2.53,4.15-5.56,2.41,1.48,3.53,3.02,2.5,5.4-.95,2.21-4.86,4.09-7.31,3.69-5.03-.82-7.47-6.5-4.54-10.63,1.29-1.82,2.93-2.3,5.51-.82h0Z"/>
  <path class="cls-1" d="M231.14,296.04c-.43-2.03-1.1-4.04-1.22-6.08-.23-3.67.89-5.08,4.97-6.77-.16,1.21-.16,2.26-.44,3.22-1.02,3.54-.2,6.63,1.63,9.76,1.89,3.21,3.7,6.6,2.73,10.78-2.71-3.82-5.26-7.44-7.82-11.05l.15.14h0Z"/>
  <path class="cls-1" d="M293.34,187.72c2.48.06,3.74,1.83,4.12,3.9.41,2.19-.87,4.03-2.65,5.37-1.7,1.28-3.67,1.33-5.41.36-2.41-1.36-3.08-3.77-2.88-6.42.24-3.28,1.54-4.81,5.34-5.9-.63,1.6-1.31,2.88-1.62,4.25-.25,1.07-.24,2.29,0,3.36.13.58.98,1.35,1.54,1.39.49.03,1.41-.81,1.48-1.35.2-1.61.07-3.26.07-4.94v-.02Z"/>
  <path class="cls-1" d="M245.78,312.03c.16-5.23,2.04-9.1,5.09-12.39,3.21-3.46,5.7-7.13,4.27-12.55.67.69,1.69,1.27,1.96,2.09,1.02,3.2,1.18,6.57-.85,9.38-3.32,4.62-6.96,9-10.47,13.47Z"/>
  <path class="cls-1" d="M253.96,367.18c-.47,2.36-1.88,3.97-4.14,5.01-2.15.99-4.15.84-5.86-.65-1.63-1.42-2.71-3.32-2.14-5.58.32-1.26,1.05-2.45,1.78-3.55.4-.59,1.13-1.06,1.81-1.33,2.46-.96,8.6,3.4,8.56,6.1h0ZM246.42,363c-1.19.13-1.87,1.73-1.62,3.78.22,1.84,1.62,3.35,2.8,2.73,1.04-.55,2.07-1.65,2.48-2.74.36-.95-2.75-3.87-3.66-3.77h0Z"/>
  <path class="cls-1" d="M136.7,279.47c-2.8,6.28-.65,11.02.86,15.85,1.46,4.67.85,6.87-2.62,10.51-.21-.29-.67-.68-.6-.86,1.87-4.9.03-9.25-1.82-13.68-1.29-3.1-1.53-6.34.6-9.24.59-.8,1.68-1.24,3.58-2.58h0Z"/>
  <path class="cls-1" d="M191.71,183.86c3.15-.03,4.67,1.18,4.65,3.7-.03,3.28-3.46,6.68-6.75,6.7-2.73.02-4.84-2.39-4.74-5.38.12-3.59,2.01-4.98,6.85-5.02h0ZM192.89,186.65c-1.29-.17-2.35-.64-2.99-.31-.78.41-1.41,1.44-1.69,2.33-.15.47.65,1.78.88,1.74.84-.12,1.77-.5,2.37-1.08.6-.58.84-1.53,1.43-2.69h0Z"/>
  <path class="cls-1" d="M439.66,303.54c.51,6.86-1.28,8.92-7.13,9.65-2.41.3-4.67,1.6-7.07,2.16-2.57.6-5.22,1.07-7.85,1.18-.96.04-1.98-1.12-2.84-2.13,4.07.8,7.63-.05,11.06-1.97,1.5-.84,3.16-1.87,4.77-1.91,4.83-.12,7.07-3.17,9.05-6.97h.01Z"/>
  <path class="cls-1" d="M69.99,265.13c-7.91.37-11.64,5.19-10.65,13.59.42,3.56.63,7.15.44,10.76-3.42-6.51-4.59-13.31-1.67-20.18,2.45-5.75,6.77-7.04,11.87-4.17h.01Z"/>
  <path class="cls-1" d="M293.5,205.14c-1.31.69-2.14,1.14-2.99,1.57-1.65.82-2.07,2.29-1.62,3.86.22.79,1.01,1.73,1.76,1.99,1.68.59,2.92-.38,3.73-1.84.41-.74.68-1.56,1.14-2.61,2.49,3.72,2.4,4.88-.18,6.93-2.43,1.92-6.21,1.67-8.35-.55-2.14-2.23-2.27-5.91.03-8.33.98-1.04,2.48-1.72,3.87-2.17.6-.19,1.53.64,2.62,1.15h-.01Z"/>
  <path class="cls-1" d="M286.06,159.49c2.69-1.84,4.04-3.78,6.46-2.24,2.17,1.38,2.97,3.65,2.45,6.43-.7,3.76-2.67,6.71-5.74,8.89-1.53,1.08-3.15,2.22-5.24,1.42-2.08-.8-3.48-2.12-3.67-5.34,2.36,2.54,4.7,3.97,7.44,1.85,2.89-2.24,4.4-5.33,4.33-8.92-.07-3.3-2.79-2.11-6.02-2.1h-.01Z"/>
  <path class="cls-1" d="M206.76,165.73c.3-2.22.51-3.49.64-4.77.15-1.51.56-3.09.28-4.53-.75-3.86-3.53-4.64-6.67-2.04-.29.24-.45.64-.75.85-.27.19-.66.21-.99.3.14-3.88,1.32-5.56,4.3-6.1,2.59-.47,5.49,1.03,6.56,3.58,1.93,4.61.52,8.47-3.36,12.7h0Z"/>
  <path class="cls-1" d="M249.49,384.22c-.74-.08-1.24-.06-1.7-.19-2.09-.59-3.38.35-3.85,2.27-.47,1.93,1.34,4.27,3.37,4.51.93.11,1.9-.03,2.84-.14.86-.1,1.7-.31,2.89-.54-.94,3.43-3.25,4.84-5.99,4.68-2.51-.14-4.54-1.8-5.55-4.36-.97-2.44-1.19-4.78.58-6.97,2.16-2.68,4.67-2.51,7.41.75h0Z"/>
  <path class="cls-1" d="M153.48,346.91c-.55.33-.99.53-1.37.83-.95.77-2.77,1.8-2.64,2.33.37,1.52,1.43,2.94,2.48,4.18.24.28,2-.14,2.31-.67.64-1.1.77-2.49,1.11-3.77,2.37,2.87,2.5,5.21.4,7.12-1.93,1.76-4.2,1.61-6.7-.43-2.36-1.93-3.29-6.21-1.92-8.89,1.1-2.16,2.67-2.37,6.32-.69h0Z"/>
  <path class="cls-1" d="M247.67,356.24c-3.36-.02-5.13-1.41-5.89-4.19-.56-2.06.4-5,2.23-5.97.68-.36,1.74,0,2.62.04-.2.61-.39,1.22-.61,1.82-.3.84-.99,1.75-.84,2.49.15.73,1.05,1.46,1.8,1.83.27.13,1.17-.7,1.57-1.25.3-.41.22-1.08.4-1.6.48-1.43,1.7-1.77,2.72-.79,2,1.91,1.07,5.71-1.81,7.07-.83.39-1.82.45-2.21.54h.02Z"/>
  <path class="cls-1" d="M352.61,346.63c3.89,1.23,4.68,2.06,4.25,4.07-.48,2.26-2.09,3-4.21,3.08-3.86.14-6.33-2.5-6.11-6.58.18-3.32,2.43-5.26,5.71-4.75.63.1,1.17.82,2.04,1.46-.91.26-1.43.56-1.93.53-1.8-.13-3.3.66-3.3,2.34,0,1.28,1.03,2.7,1.93,3.78.33.4,1.61.01,2.45-.02-.1-.81-.18-1.61-.31-2.41-.05-.34-.22-.65-.52-1.49h0Z"/>
  <path class="cls-1" d="M351.37,360.87c-.83.96-2.01,1.77-2.28,2.81-.3,1.14-.11,2.72.51,3.7.45.71,2.27,1.29,2.92.93.95-.52,1.57-1.89,2.02-3.01.32-.82.15-1.84.2-2.93,3.38,2.2,4,3.51,2.97,5.79-1.08,2.37-4.37,3.61-7.45,2.8-2.66-.7-4.12-3.04-3.86-6.2.23-2.93.89-3.45,4.97-3.88h0Z"/>
  <path class="cls-1" d="M156.11,287.08c-.45,2.08-.88,4.2-1.36,6.31-.68,2.95-1.28,5.94-2.18,8.82-.35,1.1-1.44,1.97-2.96,2.58.59-2.47,1.41-4.91,1.72-7.42.3-2.45-.1-4.99.16-7.45.26-2.47,1.18-2.87,4.63-2.85h-.01Z"/>
  <path class="cls-1" d="M77.35,350.25c-.3,2.29-.71,3.74-.57,5.13.06.58,1.31,1.04,2.02,1.55.22-.63.69-1.3.6-1.88-.14-.88-.98-2.03.46-2.21.93-.12,2.39.42,2.88,1.15,1.02,1.53.81,3.3-.56,4.73-1.43,1.49-3.17,2.58-5.04,1.12-1.25-.98-2.33-2.48-2.9-3.96-.67-1.77-.03-2.59,3.11-5.63Z"/>
  <path class="cls-1" d="M243.46,276.76c3.5,3.75,3.56,5.16.68,17.31-1.71-3.25-2.06-12.16-.68-17.31Z"/>
  <path class="cls-1" d="M437.12,268.66c6.75,2.19,8.08,9.61,3.38,17.79-1.19-6.1,1.26-12.64-3.38-17.79Z"/>
  <path class="cls-1" d="M80.97,368.08c3.36,1.78,4.11,3.06,3.56,5.58-.41,1.89-1.54,2.95-3.5,3.16-2.62.28-4.08-.68-5.11-3.46-.53-1.44.16-2.92,2.09-4.45.13,1.37.03,2.66.43,3.76.24.66,1.25,1.04,1.92,1.55.51-.74,1.4-1.46,1.44-2.22.05-1.2-.47-2.42-.82-3.93h0Z"/>
  <path class="cls-1" d="M361.41,158.22c1.01-2.37,2.71-3.18,4.36-2.78,1.75.43,3.66,1.39,4.85,2.71,2.74,3.01,1.17,7.05-4.64,10.87,1.16-2.05,1.88-3.19,2.47-4.4.77-1.57,1.44-3.15.11-4.82-1.29-1.62-2.77-2.55-4.93-1.85-.59.19-1.25.16-2.22.27h0Z"/>
  <path class="cls-1" d="M120.56,328.42c.18-4.8.98-6.8,3.5-6.71,5.56.19,9.69-2.64,14.06-5.34-2.23,4.08-5.21,7.37-10.21,7.18-3.54-.13-5.74,1.22-7.36,4.87h.01Z"/>
  <path class="cls-1" d="M236.86,310.91c-4.65-1.39-6.87-5.29-8.95-9.12-.61-1.13-.27-3.09.28-4.4.3-.73,1.92-.92,2.94-1.35l-.15-.14c-.99,3.14-.16,5.81,1.77,8.41,1.54,2.08,2.68,4.47,3.99,6.72l.11-.11h0Z"/>
  <path class="cls-1" d="M192.83,447.73c5.4-2.14,15.42-2.12,20.07-.35-4.06,1.15-12.98,1.38-20.07.35h0Z"/>
  <path class="cls-1" d="M225.47,329.87c1.39,4.05-.9,6.56-3.37,8.97-2.23,2.17-4.69,3.76-9.33,2.62,6.33-2.51,10.76-5.64,12.7-11.59Z"/>
  <path class="cls-1" d="M320.41,439.82c-5.05.19-10.11.78-15.12-.4,5.15-3.24,10.14-1.6,15.12.4Z"/>
  <path class="cls-1" d="M251.41,445.61c-5.07-.22-10.03-.44-14.99-.66,2.92-3.55,9.05-3.31,14.99.66Z"/>
  <path class="cls-1" d="M161.74,431.28c5.19-3.57,7.09-3.09,12.51,2.86-4.17-.95-8.03-1.83-12.51-2.86Z"/>
  <path class="cls-1" d="M214.01,441.38c-4.6-.7-9.2-1.4-13.79-2.11,5.23-3.28,9.62-.85,13.79,2.11Z"/>
  <path class="cls-1" d="M285.89,444.87c-3.96,0-7.91.02-11.87-.01-.67,0-1.35-.2-2.31-.36,3.72-2.56,8.24-2.72,14.18.38h0Z"/>
  <path class="cls-1" d="M208.46,453.9c-4.82.81-9.64,1.61-14.66,2.45,1.92-3.19,1.92-3.23,6.76-3.4,2.61-.09,5.24-.02,7.85-.02.02.32.03.64.05.96h0Z"/>
  <path class="cls-1" d="M350.45,438.85h-11.18c3.08-3.87,3.87-3.93,11.18,0Z"/>
  <path class="cls-1" d="M251.09,451.99h-14.92c3.34-2.99,4.96-3.1,14.92,0Z"/>
  <path class="cls-1" d="M142.92,435.38c-4.55-1.92-8.41-3.55-12.6-5.32,5.15-1.83,7.84-.66,12.6,5.32Z"/>
  <path class="cls-1" d="M231.53,438.84c1.83-1.05,2.52-1.71,3.3-1.85,3.45-.6,7.67-.12,11.61,1.33-5.01,1.19-9.3.74-14.91.51h0Z"/>
  <path class="cls-1" d="M275.24,450.83c4.07-2.36,8.38-.93,12.99-1.14-3.75,2.35-6.39,2.63-12.99,1.14Z"/>
  <path class="cls-1" d="M359.69,431c3.98-3.99,8.99-1.94,13.75-1.35-4.41.81-8.81,1.61-13.22,2.42-.18-.36-.35-.71-.53-1.07Z"/>
  <path class="cls-1" d="M238.32,93.16c-2.22-2.87-3.71-5.16-3.66-8.14,0-.44.47-1.12.86-1.24.42-.13,1.24.1,1.48.45,1.65,2.4,2.66,4.97,1.31,8.94h.01Z"/>
  <path class="cls-1" d="M270.72,437.38c3.06-3.62,6.91-2.86,11.97-2.22-4.46,2.36-8.35,1.56-11.97,2.22Z"/>
  <path class="cls-1" d="M389.27,433.46c.23-.69.26-1.65.74-2.02,2.94-2.26,6.07-1.5,9.21-.52-3.2,1.79-6.52,2.66-10.09,2.39l.14.15h0Z"/>
  <path class="cls-1" d="M218.93,322.55c5.83.96,6.02-3.37,7.98-6.24,1.44,3.15.33,5.58-1.66,7.55-1.52,1.51-3.42,1.41-6.32-1.31h0Z"/>
  <path class="cls-1" d="M61.78,297.24c-3.04,5.09-.27,8.14,1.67,11.51-3.25-1.72-5.02-3.81-5.37-6.27-.31-2.15.52-3.72,3.71-5.24h0Z"/>
  <path class="cls-1" d="M136.91,438.72c-3.96-.22-7.61-.42-12.3-.69,1.57-1.03,2.45-2.02,3.45-2.19,3.29-.55,6.22.37,8.85,2.88Z"/>
  <path class="cls-1" d="M280.77,80.4c.78-1.82,1.42-3.73,2.43-5.42.3-.5,1.65-.38,2.51-.54.15.84.71,1.96.37,2.47-1.1,1.63-2.54,3.03-3.85,4.52-.49-.34-.98-.68-1.47-1.02h.01Z"/>
  <path class="cls-1" d="M100.96,430.11c3.85-2.4,7.07-.8,10.95,1.85-4.35.77-7.57-1.2-10.95-1.85Z"/>
  <path class="cls-1" d="M310.85,448.84c3.52-3.22,7.23-2.96,11.09-.95-3.7.32-7.39.64-11.09.95Z"/>
  <path class="cls-1" d="M339.46,443.54c4.12-2.56,7.47-1.69,11.31-.23-3.8,1.27-7.11,2.41-11.31.23Z"/>
  <path class="cls-1" d="M291.88,83.71c-1.8,2.15-3.17,3.83-4.64,5.42-.11.12-1.22-.28-1.35-.62-.72-2.05,1.19-5.34,3.39-5.77.54-.11,1.2.42,2.6.97Z"/>
  <path class="cls-1" d="M292.66,75.35c-2.12-3.12-1.05-5.31.51-7.33.28-.36,1.32-.68,1.44-.53.43.5.99,1.36.82,1.82-.79,2.06-1.82,4.04-2.77,6.04h0Z"/>
  <path class="cls-1" d="M374.72,437.11c-3.78,1.67-6.49,2.88-9.23,4.03-.23.1-.88-.19-.93-.4-.11-.47-.16-1.18.11-1.47,2.47-2.68,5.65-2.42,10.04-2.16h.01Z"/>
  <path class="cls-1" d="M168.42,444.28c-5.14.83-8.35-.88-11.75-1.71,3.95-1.92,7.2-.36,11.75,1.71Z"/>
  <path class="cls-1" d="M133.23,445.68c-4.02-.49-7.23-.89-11.27-1.38,4.89-2.36,6.11-2.19,11.27,1.38Z"/>
  <path class="cls-1" d="M298.02,87.99c-2.62-2.21-2.77-4.71-1.69-7.63,3.14,2.54,3.2,2.8,1.69,7.63Z"/>
  <path class="cls-1" d="M395.35,424.06c-2.93.62-5.85,1.27-8.8,1.81-.38.07-1.14-.44-1.23-.8-.09-.37.37-1.26.67-1.3,3.12-.4,6.27-.67,9.4-.97l-.04,1.26h0Z"/>
  <path class="cls-1" d="M170.21,439.21c-4.09-1.38-7.06-2.38-10.21-3.44,4.42-2.22,5.05-2.04,10.21,3.44Z"/>
  <path class="cls-1" d="M304.16,80.96c-2.93-1.14-3.75-3.52-4.38-6.09,3.53-.28,4.54,1.04,4.38,6.09Z"/>
  <path class="cls-1" d="M116.87,425.4c-3.16-1.23-5.64-2.19-8.12-3.15l.06-1.03c1.13-.15,2.39-.68,3.37-.36,1.85.6,3.86,1.34,4.69,4.54h0Z"/>
  <path class="cls-1" d="M444.73,408.67c-1.37,1.56-2.31,2.33-2.84,3.32-.43.8-.36,1.87-.74,4.29-1.12-2.43-2.36-3.81-2.1-4.8.56-2.12,2.52-2.78,5.68-2.8h0Z"/>
  <path class="cls-1" d="M432.49,417.81c-1.15,2.32-3.17,3.48-5.28,4.48-.36.17-1.17-.02-1.39-.32-.2-.27-.05-1.1.24-1.39,1.76-1.73,3.95-2.55,6.43-2.78h0Z"/>
  <path class="cls-1" d="M285.44,100.54c-.28-.23-.84-.5-.81-.67.34-2.04.3-4.31,2.4-5.51.31-.18,1.12.5,1.7.79-.92,1.79-1.83,3.58-2.76,5.35-.04.08-.34.03-.52.04h-.01Z"/>
  <path class="cls-1" d="M90.22,431.82c-2.9.3-5.12,1.81-7.89.92,3.2-3.17,3.39-3.19,7.89-.92Z"/>
  <path class="cls-1" d="M307.74,93.82c-.86,1.02-1.37,2.19-1.97,2.24-1.78.13-2.2-1.44-2.05-2.75.11-.9,1.03-1.71,1.59-2.56.76.96,1.52,1.92,2.43,3.07Z"/>
  <path class="cls-1" d="M225.17,95.72c-.57-1.51-1.03-2.16-1.02-2.8.04-1.45.31-2.89.56-4.32,0-.03,1.14-.09,1.39.19,1.28,1.39,1.37,3,.48,4.66-.26.48-.58.93-1.42,2.27h.01Z"/>
  <path class="cls-1" d="M216.32,88.13c-1.15,1.61-2.18,3.07-3.28,4.49-.07.1-.91-.19-.91-.27.09-1.23.06-2.53.49-3.66.26-.7,1.18-1.23,1.92-1.62.23-.12.84.48,1.77,1.05h0Z"/>
  <path class="cls-1" d="M229.08,85.26c-3.17-2.29-3.92-3.51-3.54-5.33.06-.31.42-.79.65-.8.5-.02,1.37.11,1.45.38.53,1.69.89,3.43,1.44,5.75Z"/>
  <path class="cls-1" d="M215.41,102.73c-.06-1.16-.38-2.4-.09-3.47.18-.65,1.31-1.04,2.01-1.55.18.81.66,1.7.48,2.42-.24.99-.99,1.85-1.52,2.76-.29-.06-.59-.11-.88-.17h0Z"/>
  <path class="cls-1" d="M222.14,78.88c-.25.98-.32,1.76-.67,2.39-.22.4-.86.84-1.28.8-.45-.03-1.05-.51-1.25-.94-.77-1.64.06-2.88,1.26-3.91.22-.19.88-.24.99-.09.42.57.69,1.24.96,1.75h-.01Z"/>
  <path class="cls-1" d="M449.22,414.84c-1.15,1.18-2.23,2.44-3.5,3.46-.31.25-1.28-.32-1.94-.51.24-.65.34-1.74.74-1.87,1.56-.48,3.22-.65,4.84-.94l-.13-.15h0Z"/>
  <path class="cls-1" d="M430.88,424.63c2.04-.58,4.09-1.17,6.13-1.75-1.53,2.41-3.32,3.96-5.95,3.03-.06-.43-.12-.85-.18-1.28Z"/>
  <path class="cls-1" d="M419.14,424.8c-1.96,1.33-3.29,2.32-4.71,3.15-.31.18-1.19-.03-1.33-.31-.18-.37-.07-1.18.22-1.43,1.42-1.22,2.96-2.29,5.81-1.42h0Z"/>
  <path class="cls-1" d="M294.69,100.62c-1.75-2.95-1.85-4.68-.21-6.92,1.83,2.05,1.19,3.85.21,6.92Z"/>
  <path class="cls-1" d="M67.18,414.85c-2.34-.41-4.66-.89-6.99-3.29,3.36.17,5.62.74,6.85,3.43l.14-.14h0Z"/>
  <path class="cls-1" d="M408.51,422c1.26-3.22,2.51-3.98,5.63-2.43-2.07.9-3.4,1.47-5.63,2.43Z"/>
  <path class="cls-1" d="M434.32,404.55c1.08-1.52,2.6-2.24,5.7-2.24-2.19,1.44-3.54,2.33-4.89,3.23-.27-.33-.54-.66-.81-.99h0Z"/>
  <path class="cls-1" d="M422.68,431.52c-.87.55-1.7,1.21-2.64,1.6-.34.14-.95-.38-1.43-.6.28-.43.47-1.04.86-1.24.8-.4,1.71-.57,2.57-.83.21.36.43.72.64,1.08h0Z"/>
  <path class="cls-1" d="M52.31,400.16c-1.87-1.44-3.05-3.08-1.83-6.06.74,2.45,1.29,4.25,1.83,6.06Z"/>
  <path class="cls-1" d="M57.13,417.6c-.84-.43-1.59-.81-2.34-1.2.31-.36.73-1.07.91-1.02.84.26,1.61.73,2.4,1.13-.28.31-.55.61-.98,1.08h0Z"/>
  <path class="cls-1" d="M72.39,418.98c.15-.11.32-.34.44-.31.84.18,1.68.41,2.51.62-.1.37-.21.74-.31,1.12-.81-.31-1.63-.6-2.43-.94-.12-.05-.14-.32-.21-.49Z"/>
  <path class="cls-1" d="M71.33,426.46c-.23.22-.47.44-.7.65-.22-.37-.45-.74-.67-1.11.3-.13.65-.41.9-.34.22.06.32.52.48.8h-.01Z"/>
  <path class="cls-1" d="M404.53,435.45l-3,.18c0-.23-.02-.47-.03-.7h3.01c0,.17.01.35.02.52h0Z"/>
  <path class="cls-1" d="M195.22,534.93c-.34.34-.66.69-1.02,1-.05.04-.27-.11-.41-.18.52-.23,1.04-.45,1.56-.68l-.13-.14h0Z"/>
  <path class="cls-1" d="M30.04,397.51c-.11.22-.23.45-.34.67.02-.1.01-.23.07-.28.11-.11.26-.17.39-.25l-.13-.13h.01Z"/>
  <path class="cls-1" d="M31.25,396.41c-.4.37-.8.73-1.21,1.1l.13.13,1.21-1.1-.13-.12h0Z"/>
  <path class="cls-1" d="M31.38,396.54c.13-.23.25-.46.38-.68-.03.1-.02.24-.09.31-.12.11-.28.17-.42.25,0,0,.13.12.13.12Z"/>
  <path class="cls-1" d="M236.75,311.03c.17.15.35.3.52.44-.1-.04-.24-.05-.29-.13-.07-.12-.09-.28-.12-.43l-.11.11h0Z"/>
  <path class="cls-1" d="M200.41,82.17c-.97-1.95-1.99-3.62-2.58-5.42-.17-.52.86-1.44,1.34-2.18.63.49,1.66.88,1.81,1.49.45,1.81,2.12,3.77-.57,6.11h0Z"/>
  <path class="cls-1" d="M193.36,67.75c.84,1.18,1.72,1.87,1.67,2.46-.09.94-.8,1.81-1.25,2.71-.61-.81-1.49-1.55-1.72-2.45-.15-.59.64-1.42,1.3-2.73h0Z"/>
  <path class="cls-1" d="M185.95,69.99c-1.37-2.37-2-4.04-.15-5.75.12-.11.79.08.91.3.92,1.74.65,3.34-.76,5.46h0Z"/>
  <path class="cls-1" d="M179.91,71.27c.54,1.23,1.13,1.92.99,2.39-.25.81-.95,1.48-1.46,2.21-.48-.73-1.3-1.44-1.34-2.19-.03-.6.89-1.25,1.81-2.4h0Z"/>
  <path class="cls-1" d="M252.7,78.48c-1.85-.97-2.31-2.39-1.79-3.92.21-.63,1.44-1.5,1.92-1.35,1.98.63,1.31,2.38,1.07,3.76-.1.57-.81,1.04-1.21,1.51h0Z"/>
  <path class="cls-1" d="M247.2,72.4c-1.71-2.65-1.61-4.34.12-5.73.35-.28,1.15-.36,1.53-.15.38.2.82,1.02.69,1.34-.55,1.33-1.3,2.57-2.35,4.55h.01Z"/>
  <path class="cls-1" d="M245.98,80.14c-1.18-1.85-1.44-3.19.04-4.31.2-.15.85-.06,1.03.14,1.4,1.58.09,2.62-1.07,4.17h0Z"/>
  <path class="cls-1" d="M315.24,66.09c.45,2.08.9,4.16,1.5,6.94-4.96-3.57-5.08-4.93-1.34-6.8l-.15-.14h-.01Z"/>
</svg>