<?xml version="1.0" encoding="UTF-8"?>
<svg id="Layer_1" data-name="Layer 1" xmlns="http://www.w3.org/2000/svg" version="1.1" viewBox="0 0 489.99 585.66">
  <defs>
    <style>
      .cls-1 {
        fill: #000;
        stroke-width: 0px;
      }
    </style>
  </defs>
  <path class="cls-1" d="M35.17,434.99c4.88-1.03,9.79-1.95,14.64-3.14,3.77-.92,7.42-2.34,11.19-3.22,2.81-.65,5.73-.95,8.62-1.09,4.88-.24,8.35,2.22,10.63,6.36,1.09,1.98,1.91,4.1,2.8,6.19,2.86,6.73,6.64,8.81,13.81,7.58,3.34-.58,6.68-1.24,10.04-1.66,4.47-.56,8.25,1.06,11.55,4.02,1.81,1.62,3.62,3.25,5.56,4.7,4.08,3.04,8.6,4.43,13.7,3.21,3.14-.76,6.4-1.22,9.4-2.35,8.47-3.2,17.02-3.51,25.78-1.61,8.22,1.79,16.41,1.25,24.55-.57,4.42-.99,8.82-2.08,13.26-2.96,6.02-1.19,11.92-.73,17.6,1.76,2.22.98,4.46,1.92,6.69,2.88,4.79,2.06,9.78,2.25,14.75,1.09,3.77-.87,7.45-2.15,11.14-3.34,2.77-.89,5.5-1.93,8.24-2.91,5.83-2.08,11.66-2.34,17.6-.3,2.89.99,5.89,1.83,8.91,2.27,5.59.83,10.95-.32,16.08-2.63,3.4-1.53,6.82-2.99,10.2-4.55,6.33-2.92,12.53-2.57,18.68.53,2.17,1.09,4.32,2.23,6.56,3.16,4.82,2.01,9.59,2.4,14.53-.01,4.79-2.34,9.77-4.27,13.98-7.7,2.92-2.38,6.45-2.21,9.71-.95,4.99,1.93,9.68,2.11,14.4-.71,3.42-2.04,7.05-2.18,10.73-.61,1.04.45,2.07.95,3.14,1.31,2.61.87,3.29.59,3.9-2.28,1.04-4.91,4.32-7.6,8.79-8.74,4.05-1.04,8.3-1.29,12.42-2.12,5.06-1.03,10.07-2.27,15.08-3.48.93-.22,1.82-.68,2.69-1.1,5.16-2.52,5.72-3.87,3.42-9.1-3.39-7.73-7.05-15.28-13.08-21.44-7.91-8.07-17.5-13.19-28.15-16.57-.55-.18-1.02-.62-1.52-.95.49-.25.97-.7,1.47-.72,1.29-.04,2.63-.1,3.87.2,17.7,4.29,32.42,12.84,41.58,29.27,1.58,2.83,3.28,5.59,4.8,8.45,3.84,7.21,2.58,12.99-3.96,17.9-5.29,3.98-11.46,6-17.83,7.33-4.42.93-8.94,1.47-13.43,2-3.28.39-5.58,1.08-6.34,5.13-.96,5.17-5.64,6.64-10.63,3.72-2.16-1.27-4.25-2.48-6.76-2.08-1.68.27-3.35.93-4.9,1.68-.99.48-1.73,1.44-2.6,2.18-5.92,5.02-12.33,6.28-19.24,2.22-1.94-1.14-3.54-.86-5.48-.2-5.19,1.77-10.41,3.51-15.71,4.91-6.74,1.78-13.16.16-19.33-2.64-2.06-.93-4.07-2.01-6.1-3-3.54-1.72-7.19-1.9-10.83-.42-3.44,1.41-6.85,2.92-10.23,4.47-4.75,2.18-9.72,3.73-14.92,4.01-3.01.16-6.08-.56-9.11-.99-1.11-.16-2.22-.53-3.25-.97-6.81-2.92-13.5-2.41-20.24.37-3.88,1.61-7.86,3.01-11.86,4.31-8.94,2.91-17.85,3.16-26.41-1.24-7.69-3.96-15.5-3.89-23.59-1.6-8.75,2.48-17.63,4.29-26.81,3.56-3.7-.29-7.43-.63-11.06-1.36-4.74-.95-9.31-.75-13.87.8-3.06,1.05-6.13,2.15-9.27,2.89-3.28.78-6.64,1.35-10,1.69-7.01.69-12.95-1.76-18.25-6.34-7.72-6.69-6.33-6.09-16.56-4.36-2.7.46-5.45.8-8.18.79-6.77-.03-11.75-3.24-14.84-9.22-1.26-2.44-2.23-5.03-3.26-7.58-1.11-2.77-3.06-4.16-6.06-3.65-2.54.43-5.09.92-7.57,1.61-4.36,1.21-8.64,2.74-13.03,3.89-5.81,1.52-11.69,2.19-17.76,1.54-15.09-1.62-23.58-14.37-19.2-28.99,2.04-6.81,5.84-12.61,10.22-18.06,10.29-12.78,23.5-21.12,39.25-25.48,1.83-.51,3.83-.57,5.75-.5,1.03.04,2.08.73,3.03,1.28.28.16.41.88.32,1.28-.05.24-.75.59-.99.5-2.75-1.08-5.16.19-7.44,1.25-15.12,7.04-28.15,16.63-37.03,31.09-1.85,3.02-3.56,6.22-4.74,9.54-3.87,10.94,2.23,19.63,13.79,19.99.81.03,1.62,0,2.43,0,.04.2.08.4.12.6l.02-.02Z"/>
  <path class="cls-1" d="M112.97,408.16c1.29.49,2.53,1.19,3.86,1.44,9.2,1.75,18.42,3.43,27.64,5.06,1.42.25,2.91.18,4.37.17,20.91-.03,41.82-.14,62.73-.11,19.28.03,38.56-.03,57.83.37,10.83.22,21.64,1.61,32.48,1.88,8.07.2,16.18-.37,24.25-.93,8.28-.57,16.21-2.96,24.12-5.36,7.28-2.21,14.66-4.12,21.84-6.58,6.41-2.2,12.68-4.85,18.88-7.59,2.16-.96,4.09-2.62,5.87-4.24,2.48-2.25,3.87-5.15,3.98-8.58.4-13.28.62-26.55-.71-39.82-1.19-11.92-2.61-23.83-2.26-35.86.27-9.11-1.18-18.07-2.82-27-.1-.53-.44-1.01-.66-1.51-.32.34-.78.61-.95,1.01-4.52,10.47-13.64,13.63-23.86,14.83-4.49.53-9.04.59-13.57.82-.42.02-.85-.34-1.28-.53.37-.42.67-1.05,1.13-1.21,3.81-1.35,7.71-2.46,11.47-3.93,4.21-1.65,8.48-3.3,12.4-5.52,5.5-3.11,8.9-7.99,9.53-14.42.45-4.6-1.16-6.52-5.65-7.45-.93-.19-1.96-.32-2.73-.81-.74-.47-1.22-1.36-1.81-2.06.89-.2,1.79-.61,2.67-.57,2.1.11,4.19.36,6.27.67,3.7.56,6.26,2.78,7.6,6.11,1.87,4.64,3.67,9.35,5.02,14.16,2.99,10.64,4.25,21.57,5.09,32.57.64,8.39,1.57,16.76,2.28,25.14.67,7.9,1.43,15.8,1.77,23.72.3,6.96.07,13.94.1,20.91.04,8.27-3.64,14.59-10.1,19.48-6.01,4.54-12.72,7.85-19.81,10.18-12.45,4.1-24.98,8-37.58,11.58-8.58,2.44-17.43,3.44-26.38,3.7-16.06.47-32.06-.47-48.05-1.78-.65-.05-1.29-.1-1.94-.12-16.69-.38-33.37-.88-50.06-1.1-18.64-.25-37.28-.12-55.91-.41-7.26-.11-14.53-.81-21.78-1.44-7.41-.65-14.03-3.72-20.4-7.34-1.97-1.12-3.94-2.28-5.74-3.64-1.46-1.1-3.65-1.4-4.2-3.58,1.74-.07,3.49-.15,5.23-.22l-.14-.1h-.02Z"/>
  <path class="cls-1" d="M259.92,296.31c7.65,5.14,12.41,12.58,16.44,20.61,5.16,10.27,10.21,20.6,15.51,30.8,3.44,6.62,7.44,12.93,12.6,18.4,10.41,11.02,22.98,17.19,38.37,16.65,5.57-.2,10.82-1.89,15.75-4.49.49-.26.79-.87,1.18-1.31-.52-.31-1-.7-1.55-.93-6.12-2.53-12.35-4.85-18.36-7.63-3.5-1.62-6.7-3.91-9.97-6-1.07-.69-2.03-1.63-2.83-2.62-.83-1.04-1.3-2.29-.27-3.55.93-1.12,2.08-1.54,3.45-.89,1.9.9,3.78,1.86,5.66,2.78,4.55,2.24,9.26,3.95,14.44,3.56,1.75-.13,3.49-.58,5.19-1.04.51-.14.89-.78,1.32-1.19-.5-.3-.99-.63-1.51-.88-2.76-1.33-5.64-2.45-8.28-3.99-12.18-7.1-24.29-14.32-35.03-23.56-5.89-5.06-12.16-9.75-16.09-16.7-.4-.7-.84-1.38-1.22-2.09-.13-.24-.11-.55-.16-.83.4.08.81.13,1.21.24.14.04.25.2.36.32,5.41,6.6,12.74,10.96,19.18,16.35,11.25,9.4,24.19,16.23,36.73,23.63,2.05,1.21,4.5,1.73,6.79,2.5.91.3,1.94.27,2.83.63,2.92,1.18,3.68,3.73,1.84,6.26-1.9,2.61-4.74,3.88-7.69,4.84-1.98.64-4.06,1-6.09,1.49,1.95,1.08,3.87,2.23,5.86,3.22,1.73.87,3.62,1.45,5.3,2.4,1.07.61,2.21,1.48,2.78,2.53,2.41,4.46,1.64,6.5-3.23,8.68-16.69,7.47-32.79,5.8-48.3-3.38-9.63-5.7-16.6-14.02-21.7-23.76-5.02-9.6-9.38-19.55-13.99-29.36-2.61-5.57-5-11.24-7.72-16.76-3.46-7.01-8.34-12.69-15.84-15.68-.42-.17-.76-.53-1.14-.8.44-.17.88-.34,1.32-.5.3-.11.73-.12.89-.33,4.14-5.3,10.22-5.15,15.96-5.3,11.18-.29,22.37-.31,33.54-.07,4.98.11,9.95.98,14.9,1.74,4.4.68,8.31,2.57,11.74,5.46,1.63,1.37,2.17,1.22,2.65-.58,2.02-7.49,3.8-15.05,6.06-22.46,1.87-6.14-.26-10.93-4.51-14.88-5.98-5.57-13.16-8.72-21.42-9.22-11.17-.67-21.84,1.99-32.52,4.69-7.64,1.93-14.57,5.33-20.96,9.85-1.55,1.09-2.76,2.66-4.15,3.98-.17.16-.5.13-.76.19-.07-.31-.29-.72-.17-.91.78-1.21,1.49-2.5,2.48-3.52,4.81-4.95,10.48-8.78,16.85-11.27,13.19-5.15,26.73-8.99,41.12-7.89,10.13.78,18.74,4.97,25.31,12.78,3.95,4.69,5.6,10.15,3.74,16.32-1.03,3.4-1.96,6.83-2.9,10.26-.07.27.02.65.17.89.06.09.55.04.74-.08,7.97-5.14,15.4-10.9,19.86-19.53,1.23-2.38,1.57-5.25,2.08-7.94.71-3.75.44-7.35-.57-11.2-1.56-5.9-2.59-12.08-2.78-18.17-.32-10.34.24-20.71.33-31.07.07-8.07,1.28-16.19-.67-24.2-.45-1.87-1.13-3.73-2.03-5.42-2.06-3.92-4.78-7-9.85-6.39-.37.05-.79-.27-1.19-.42.3-.35.54-.9.91-1.01,3.66-1.06,7.03-.62,9.99,1.98,4.61,4.06,6.94,9.37,7.89,15.22.72,4.46.96,9.01,1.12,13.53.44,13.11.6,26.23,1.12,39.34.42,10.51,1.2,21,1.82,31.51.08,1.37.75,2.85-1.06,3.79-.43.22-.6,1.11-.74,1.73-1.81,7.99-7.29,12.8-14.27,16.13-3.34,1.59-6.87,2.94-10.45,3.86-3.77.97-5.13,3.48-5.65,6.86-.37,2.39-.62,4.8-.95,7.19-.11.8-.29,1.59-.49,2.37-2.09,7.85-5.36,10.25-13.36,9.01-7.49-1.16-14.91-2.79-22.36-4.24-4.91-.96-9.88-1.73-14.71-3.02-6.86-1.83-13.6-4.09-20.41-6.11-1.83-.54-3.72-.88-5.58-1.32l-.61-.45c.24.11.48.23.72.34v.03ZM264.29,291.81c0-.08-.01-.15-.02-.23-1.92.26-3.84.51-5.75.8-.29.04-.55.28-.82.42.31.21.6.56.93.61,3.51.5,7.07.74,10.53,1.46,15.63,3.26,31.23,6.7,46.86,9.94,3.3.69,6.7,1.03,10.07,1.16,2.55.1,3.48-1.62,2.21-3.84-.69-1.21-1.74-2.43-2.94-3.09-2.53-1.39-5.17-2.81-7.94-3.49-4.06-1-8.25-1.7-12.42-1.93-13.56-.75-27.14-1.23-40.72-1.81h.01Z"/>
  <path class="cls-1" d="M130.92,321.64c-5.27-.05-10.38-.93-14.71-4.06-1.91-1.37-3.36-1.66-5.66-.95-8.89,2.71-20.15-1.54-25.14-9.31-.84-1.3-1.18-2.93-1.62-4.45-.1-.34.33-1.16.6-1.19.55-.08,1.21.11,1.72.39.39.21.65.71.92,1.11,3.68,5.48,9.03,8.24,15.37,9.15,3.82.55,7.28.08,9.54-3.9,1.65-2.91,4.63-2.53,5.65.78.71,2.33,2.11,3.72,3.98,4.55,4.71,2.09,9.54,3.9,14.35,5.75,1.51.58,2.69-.02,3.9-1.14,3.45-3.15,7.02-6.16,10.64-9.11.81-.66,1.08-1.05.33-1.79-.69-.69-1.43-1.32-2.11-2.01-5.5-5.65-7.08-12.51-6.23-20.13,1.68-15.1,9.82-26.92,19.68-37.63,13.43-14.6,32.95-11.06,43.82-1.63,5.49,4.76,11.04,9.52,15.29,15.55,1.57,2.23,2.07,2.25,3.43.06,3.01-4.89,8.52-6.45,14.04-4.57,2.87.98,5.86,2.11,8.25,3.9,4.1,3.08,4.94,8.04,2.77,13.13-.09.2-.56.43-.74.36-.22-.09-.43-.47-.45-.73-.09-1.29-.1-2.59-.15-3.88-.12-3.25-1.74-5.61-4.7-6.75-2.23-.86-4.62-1.54-6.99-1.74-4.49-.39-6.58,1.19-7.77,5.57-.8,2.97-1.31,5.98-.65,9.11.63,3,1.21,6.06,1.32,9.12.12,3.53-.23,7.08-.52,10.6-.11,1.33,0,2.45,1.54,2.32,6.17-.52,11.79-2.39,15.56-7.68,1.75-2.45,2-5.35,1.42-8.38-.29-1.56-.97-3.39.58-4.83.77,1.36,1.7,2.66,2.27,4.09,2.79,6.97,2.01,10.42-3.37,15.69-4.64,4.55-10.49,6.41-16.71,6.89-2.02.16-4.51-.89-6.14-2.2-1.6-1.28-2.74-1.19-4.31-.55-11.72,4.79-21.05,12.54-28.38,22.79-6.56,9.17-10.63,19.6-15.15,29.81-3.2,7.25-6.6,14.42-10,21.58-6.87,14.47-18.41,22.6-34.16,24.92-6.9,1.02-13.8,1.78-20.75.31-2.44-.52-4.86-1.13-6.15-3.41-.54-.96-.73-2.63-.25-3.52.49-.9,2.31-1.99,3.02-1.7,2.76,1.13,3.8-.56,5.02-2.34,1.44-2.09,2.94-4.13,4.41-6.2-2.41-.17-4.82-.26-7.22-.51-7.72-.79-14.32-3.77-19.36-9.87-2.27-2.74-4.7-5.35-7.09-7.99-1.08-1.19-1.71-2.67-.7-3.93.67-.84,2.17-1.58,3.22-1.48,8.42.76,15.26-3.06,21.26-8.04,6.58-5.47,12.53-11.71,18.55-17.8,3.29-3.33,6.19-7.06,9.24-10.64.7-.82.58-1.43-.63-1.46-1.3-.03-2.59,0-3.89,0v-.03ZM122.82,394.75c3.19-.41,7.54-.8,11.84-1.55,10.82-1.89,19.25-7.38,24.66-17.1,2.76-4.95,5.56-9.88,8.06-14.96,4.5-9.16,8.46-18.58,13.22-27.6,8.73-16.53,21.37-28.77,39.78-34.07,1.78-.51,2.36-1.45,2.38-3.07.04-3.72.21-7.44.1-11.16-.17-5.65-.62-11.29-.76-16.94-.04-1.65-.78-2.43-2.09-2.79-1.08-.3-2.24-.27-3.37-.38-8.66-.82-17.08.7-25.53,2.41-4.72.96-9.62,1.61-14.42,1.53-8.52-.14-12.31-3.78-13.26-11.64-.05-.38-.28-.74-.43-1.11-.34.33-.76.62-1.01,1.01-3.45,5.48-7.2,10.8-10.2,16.51-2.72,5.19-3.79,10.98-3.66,16.91.19,8.92,8.43,17.58,17.47,16.3,3.82-.54,7.62-1.39,11.35-2.39,5.61-1.51,11.1-3.56,16.75-4.86,4.57-1.05,9.32-1.09,13.89.49.32.11.56.44.83.67-.3.09-.6.24-.91.26-6.63.61-13.1,1.96-19.4,4.12-4.75,1.63-9.46,3.35-14.22,4.92-5.97,1.96-12.03,2.79-18.03.23-2.04-.87-3.57-.2-4.85,1.04-3.26,3.14-6.53,6.3-9.47,9.74-4.21,4.92-7.91,10.29-12.24,15.09-5.64,6.24-11.54,12.27-17.63,18.07-4.86,4.63-10.76,7.76-17.21,9.72-1.71.52-1.44,1.06-.6,2.25,4.28,6.04,10.06,9.62,17.38,10.37,6.01.62,12.05.74,16.92-3.92.46-.44,1.04-.93,1.62-1.03.88-.14,2.17-.29,2.64.19.67.68,1.06,1.96.98,2.94-.07.83-.86,1.74-1.56,2.34-5.17,4.41-10.39,8.76-15.61,13.1-.74.62-1.61,1.09-2.36,1.71-1.15.96-.65,1.82.5,1.98,2.39.34,4.83.39,8.44.64v.03ZM183.04,243.3c-3.55.24-8.24,1.72-12.37,4.87-3.53,2.69-4.11,4.88-1.95,8.68,1.77,3.11,4.27,5.37,8.08,5.35,4.19-.03,8.42.06,12.54-.54,8.98-1.29,17.92-2.39,26.96-.69.29.06.61-.02.92-.03-.12-.37-.11-.88-.36-1.09-4.11-3.4-8.24-6.76-12.38-10.12-5.79-4.7-12.61-6.31-21.44-6.43h0Z"/>
  <path class="cls-1" d="M338.6,126.17c.57,13.46-1.95,26.29-5.09,39.03-.23.94-.56,1.86-.92,2.76-.09.24-.44.52-.67.52s-.49-.29-.69-.5c-.1-.1-.13-.29-.14-.45-.42-8.24-1.11-16.48-1.16-24.72-.04-7.59,1.01-15.2.84-22.78-.18-7.74-1.04-15.49-2.03-23.17-.62-4.86-5.52-8.25-11.5-8.64-2.42-.16-4.86-.04-7.28-.18-.38-.02-.72-.73-1.08-1.13,2.28-1.92.15-1.98-1.03-2.34-3.73-1.13-6.54-.89-9.32,2.86-3.37,4.56-8.35,7.59-14.16,8.78-5.65,1.16-10.61-.77-13.93-5.53-.55-.79-1.01-1.66-1.5-2.5-.59-1.02-1.15-.67-1.87-.09-2.38,1.91-4.59,4.19-7.26,5.57-9.86,5.08-19.36,1.7-23.11-5.98-.98-2-1.87-1.05-2.91-.09-4.86,4.47-10.36,7.69-16.94,8.96-10.91,2.1-20.78-4.48-22.7-15.24-1.08-6.07,2.66-14.41,7.89-17.72,1.99-1.26,4.09-2.11,6.43-1.44,1.8.52,2.3-.35,2.65-1.79,3.08-12.62,9.71-23.17,18.86-32.25,1.88-1.87,1.91-2.01-.21-3.63-7.85-5.98-16.53-10.07-26.43-11.3-1.6-.2-3.18-.56-4.76-.89-.45-.09-.86-.33-1.3-.5.44-.18.86-.42,1.31-.52,5.82-1.4,11.59-.76,17.29.58,6.53,1.53,12.61,4.2,17.89,8.37,2.06,1.63,3.51,1.92,5.97.51,2.74-1.57,5.97-2.45,9.11-3.09,3.23-.66,5.57.84,6.7,3.52.12.27.06.62.09.93-.4,0-.94.16-1.18-.04-1.67-1.39-3.32-.88-4.99-.09-.88.41-1.77.81-2.62,1.26-3.91,2.08-4.66,4.88-2.26,8.4,3.34,4.86,5.64,10.18,7.11,15.86.44,1.68.9,2.7,3.09,2.82,8.23.45,14.08,5.17,16.64,13.18.46,1.44.57,2.01,1.95.71,1.64-1.54,3.42-2.95,5.26-4.25,1.02-.72,2.47-1.56,3.42-.21.32.45-.57,1.96-1.16,2.81-1.74,2.52-3.86,4.81-5.38,7.44-2.79,4.84-2.73,9.9-.13,14.85,2.06,3.94,4.76,5.04,8.83,3.4,5.81-2.34,9.88-6.58,12.69-12.12,1.19-2.33.98-4.54-.82-6.25-2.45-2.32-5.16-4.37-7.84-6.45-1.13-.88-1.77-.08-2.03,1-.3,1.25-.44,2.54-.76,3.79-.32,1.24.46,1.4,1.29,1.34,1.12-.08,2.23-.41,3.35-.47.37-.02.96.37,1.11.72.14.32-.07.93-.33,1.25-2.32,2.79-5.8,3.18-8.62.94-.81-.64-1.38-1.55-.12-2.32,1.77-1.07,2.03-2.74,2.12-4.58,1.06-20.49,15.32-33.75,31.74-38.41,2.42-.69,5.13-.78,7.65-.56,2.32.2,4.37,1.54,4.8,4.13.13.76-.48,1.87-1.09,2.47-.98.98-1.13-.47-1.7-.8-.92-.54-1.98-1.06-3.01-1.16-3.61-.34-7.06.4-10.42,1.77-12.04,4.92-20.74,12.94-24.43,25.79-.5,1.73-.72,2.74,1.58,2.82,1.6.05,3.26.26,4.78.74,2.59.81,5.32,1.53,7.57,2.95,4.13,2.59,5.35,6.72,3.94,11.4-.33,1.08-.76,2.13-1.19,3.18-.5,1.2-.47,1.55,1.12,1.49,3.52-.12,7.09-.07,10.59.32,4.3.48,7.97,2.47,10.92,5.71.54.59,1.17,1.13,1.84,1.56,3.2,2.05,4.9,5.13,5.79,8.67,2.43,9.58,4.78,19.19,3.84,28.98l.02.04ZM249.22,63.37c0-4.84-.02-4.85-4.03-3.25-.3.12-.57.37-.87.41-.44.05-1.03.1-1.29-.14-.22-.2-.22-.93-.02-1.23,1.16-1.75,2.3-3.54,3.66-5.12,1.05-1.22,1.45-2.23.97-3.9-1.94-6.63-5.14-12.55-9.49-17.9-1.16-1.43-2.28-1.77-3.6-.41-2.7,2.79-5.46,5.52-7.98,8.46-4.35,5.09-7.42,10.97-10.07,17.08-.43.99-.57,2.1-.85,3.16,1.02-.24,2.06-.41,3.05-.73,2.3-.75,4.53-1.83,6.88-2.31,10.05-2.04,18.74,6.29,16.78,16.13-.43,2.16-1.49,4.25-2.53,6.24-1.87,3.58-2.08,4.46.65,7.29,1.61,1.67,3.74,3.19,5.92,3.91,5.24,1.71,9.97-.13,13.89-3.61,5.81-5.15,7.05-11.59,4.87-18.99-1.18-4-3.3-6.91-7.1-8.68-4.52-2.1-4.53-2.13-5.08,2.65-.11.96-.38,1.9-.56,2.85-.29,1.48.56,1.73,1.65,1.34,1.52-.55,2.95-1.31,4.46-1.9.34-.13.81.06,1.22.1-.08.3-.08.66-.26.89-2.4,3.04-5.47,5.07-9.29,5.71-1.03.17-2.27-.12-3.23-.58-1.14-.54-1.88-1.78-.28-2.51,2.69-1.22,2.6-3.4,2.55-4.95h-.02ZM222.02,62.73c-1.91.3-3.84.51-5.72.93-2.28.51-4.1,3.96-2.98,6.07,1,1.89,2.88.84,4.32.44,1.04-.29,1.93-1.12,2.94-1.59.5-.23,1.4-.47,1.61-.24.36.39.53,1.2.41,1.75-.47,2.23-1.92,3.65-4.04,4.46-4.05,1.56-7.95,1.02-11.72-.86-.57-.29-.86-1.14-1.29-1.74.62-.41,1.27-1.21,1.85-1.17,2.73.21,2.8-1.43,2.65-3.39-.09-1.26.39-2.94-1.23-3.28-1.1-.23-2.59.2-3.57.84-3.28,2.13-4.94,5.42-5.93,9.13-2.21,8.31,3.3,15.67,11.88,16.23,8.66.56,19.46-6.71,22.96-15.92,1.42-3.73.38-6.47-2.96-8.84-2.75-1.95-5.81-2.78-9.18-2.84v.02Z"/>
  <path class="cls-1" d="M116.24,222.17c0,6.47.02,12.93,0,19.4-.03,8.48-2,16.68-3.82,24.87-.87,3.93-.14,6.81,2.85,9.53,3.52,3.21,7.22,6,11.77,7.52,4.29,1.43,8.61,2.8,12.9,4.23.38.13.66.56.98.85-.33.28-.62.71-.99.81-8.9,2.46-16.64-.01-23.41-5.86-2.18-1.88-4.01-4.23-5.76-6.55-2.01-2.66-3.11-5.51-1.93-9.07.57-1.73.29-3.88-.03-5.77-2.51-14.76-3.34-29.66-2.56-44.55.78-14.81,4.38-29.11,11.03-42.46,5.23-10.5,14.6-15.64,25.41-18.69.45-.13.98-.07,1.44.03.25.05.59.35.62.58.04.23-.18.63-.4.76-.41.24-.94.27-1.34.51-3.71,2.19-7.52,4.25-11.08,6.65-3.37,2.28-3.46,6.3-.37,9.15,3.19,2.94,7.15,4.5,11.31,5.27,3.64.67,7.38.87,11.08,1.09,5.82.34,11.65.55,17.48.75,12.16.41,24.28-.18,36.38-1.37,9.5-.93,19.03-1.7,28.55-2.3,7.75-.49,15.53-.99,23.29-.83,8.39.17,16.77,1.15,25.16,1.7,11.45.75,22.85,2.77,34.37,2.02,5.95-.39,11.89-1.27,17.76-2.34,5.77-1.05,10.71-3.66,13.44-9.31.26-.53.86-.89,1.3-1.33.13.71.48,1.46.35,2.11-1.04,4.87-3.49,8.54-8.36,10.52-5.92,2.4-12.09,3.68-18.36,4.25-10.66.98-21.38.88-32.01-.13-13.56-1.29-27.13-2.11-40.73-1.52-9.53.42-19.06,1.26-28.54,2.35-17.55,2.02-35.08,4.06-52.79,3.11-8.4-.45-16.81-.9-25.17-1.75-5.68-.58-11.1-2.39-15.68-6.01-1.5-1.18-2.72-2.74-4.01-4.18-.8-.9-1.49-1.9-2.24-2.85-.6,1.14-1.43,2.22-1.75,3.44-1.81,6.71-4.05,13.36-5.09,20.19-1.25,8.29-1.45,16.73-2.1,25.11.35,0,.7.03,1.06.04v.03Z"/>
  <path class="cls-1" d="M190.2,570.71c-3.8-.04-7.45-.71-10.79-2.52-1.25-.67-2.74-1.61-3.24-2.79-1.31-3.07-3.46-2.86-6-2.26-2.03.48-4.1.84-6.16,1.2-.23.04-.63-.23-.76-.47-.1-.18.02-.62.19-.79.35-.33.78-.59,1.21-.8,7.8-3.74,14.62-8.92,21.42-14.19,10.37-8.03,20.91-15.85,31.3-23.85,2.03-1.56,3.9-3.41,5.56-5.38,3.11-3.69,3.64-7.85,1.45-12.23-.72-1.45-1.51-2.87-2.3-4.28-2.49-4.43-4.17-9.15-4.72-14.19-.67-6.23,1.05-11.87,4.72-16.9.54-.74,1.4-1.34,2.25-1.72.46-.21,1.37,0,1.73.37.32.32.42,1.23.2,1.68-1.45,2.95-2.35,5.99-2.52,9.3-.25,5.01.9,9.65,3.41,13.95,1.38,2.38,2.96,4.65,4.38,7.01,4.89,8.12,4.38,16.78-2,23.78-3.46,3.8-7.55,7.09-11.62,10.27-6.51,5.08-13.31,9.79-19.86,14.83-5.58,4.28-11.49,7.85-18.24,9.94-.86.27-1.61.88-2.41,1.33.65.86,1.12,2.02,1.98,2.53,3.63,2.15,7.61,2.5,11.73,1.87,6.78-1.03,13.16-3.29,19.37-6.13,2.8-1.28,5.6-2.58,8.49-3.62,4.32-1.56,8.29-1.01,11.51,2.6.65.73,1.39,1.37,1.99,2.13,3.88,4.9,8.89,5.59,14.42,3.65,2.89-1.01,5.6-2.54,8.46-3.66,2.09-.82,4.26-1.74,6.45-1.94,2.66-.24,5.05,1.03,6.96,2.94,3.65,3.65,7.67,3.74,11.93,1.27,2.38-1.38,4.81-2.71,7.04-4.31,5.19-3.72,10.57-4.62,16.43-1.74,6.75,3.32,13.23,2.59,19.21-1.8,1.78-1.31,3.08-3.27,4.65-4.89.4-.42.97-.68,1.46-1.01.32.55.78,1.07.93,1.66.75,3.16-.04,6.14-1.5,8.9-3.9,7.37-11.98,10.85-20.72,8.88-2.67-.6-5.31-1.5-7.81-2.6-2.66-1.17-4.93-.92-7.31.67-2.55,1.71-5.14,3.42-7.89,4.77-7.57,3.72-14.96,4.16-21.57-2.11-1.58-1.5-2.98-1.29-4.83-.58-4.21,1.62-8.45,3.25-12.81,4.37-7.33,1.9-13.43-.65-18.22-6.26-4.27-5-3.19-6.42-12.21-3.18-6.69,2.41-13.38,4.9-20.53,5.7-1.6.18-3.2.39-4.81.58v.02Z"/>
  <path class="cls-1" d="M232.57,106.47c22.25.32,44.26-1.94,66.02-6.58.79-.17,1.58-.34,2.36-.56,6.25-1.76,12.51-3.5,17.07-8.62.24-.28.95-.44,1.25-.28.32.17.62.79.58,1.18-.41,4.2-1.58,8.1-5.79,9.98-4.12,1.84-8.31,3.71-12.65,4.87-11.9,3.18-24.03,5.33-36.31,6.19-11.94.83-23.92,1.63-35.88,1.53-17.85-.14-35.41-2.92-52.45-8.41-3.37-1.09-6.61-2.64-9.76-4.28-3.75-1.96-6.27-5.05-7.17-9.3-.13-.62-.37-1.21-.56-1.81-.64.46-1.61.79-1.86,1.4-.94,2.36-2,4.77-2.39,7.26-1.35,8.66-1.6,17.33-.33,26.09,1.41,9.78-.69,19.32-3.12,28.75-.12.46-.33.94-.62,1.3-.27.33-.76.75-1.07.69-.32-.06-.71-.61-.79-1.01-.69-3.32-1.36-6.65-1.94-9.99-.79-4.62-1.4-9.28-2.25-13.89-2.43-13.29.81-25.68,5.89-37.78,1.62-3.86,4.33-6.78,8.11-8.69,1.14-.58,2.21-1.32,3.25-2.08,8.75-6.41,18.49-9.08,29.29-7.78.55.07,1.07.39,1.6.6-.48.35-.92.88-1.45,1.02-5.29,1.41-10.7,2.48-15.88,4.21-3.48,1.16-6.82,2.97-9.95,4.93-3.55,2.23-3.78,5.95-.53,8.72,1.92,1.64,4.3,2.98,6.7,3.76,5.53,1.79,11.12,3.49,16.81,4.6,8.23,1.61,16.53,3.03,24.87,3.84,6.26.61,12.62.12,18.94.12v.02Z"/>
  <path class="cls-1" d="M113.12,408.27c-1.59-.68-3.14-1.46-4.76-2.03-3.95-1.41-8.02-2.53-11.89-4.11-8.84-3.61-15.59-9.77-20.52-17.88-3.6-5.93-3.79-12.59-3.6-19.28.21-7.28.61-14.55.61-21.83,0-11.18.58-22.3,1.92-33.4.83-6.89,1.24-13.83,2.13-20.72.9-6.92,2.75-13.62,6.18-19.78,2.48-4.46,5.72-8.21,10.09-10.95,2.77-1.74,5.74-2.04,8.86-1.54.23.04.55.39.57.63.02.21-.26.58-.49.67-.9.33-1.83.6-2.76.83-4.66,1.16-6.36,4.69-6.84,8.94-.63,5.64,1.4,10.47,5.04,14.71,5.63,6.56,12.83,10.8,20.75,13.91,3.15,1.24,6.41,2.16,9.61,3.28.39.14.66.65.98.99-.41.14-.82.42-1.22.39-10.41-.89-20.57-2.73-29.18-9.17-6.2-4.63-10.29-10.69-10.96-18.67-.04-.52-.32-1.02-.48-1.53-.28.38-.69.72-.83,1.15-.84,2.61-1.92,5.19-2.34,7.88-.89,5.73-1.66,11.51-2.07,17.29-.98,14.03-1.93,28.07-2.5,42.13-.44,10.82-.33,21.67-.36,32.5-.01,3.99,1.34,7.58,3.67,10.85,6.03,8.47,13.34,15.37,23.13,19.34,2.69,1.09,5.33,2.32,7.94,3.59.49.24.74.96,1.1,1.45-.64.08-1.28.16-1.92.23l.14.1v.03Z"/>
  <path class="cls-1" d="M319.36,204.06c-7.1.19-13.13-1.25-17.72-6.31-1.29-1.42-2.04-.83-3.17,0-5.1,3.71-10.78,5.93-17.11,6.15-6.33.23-12.22-1.37-17.4-5.05-1.83-1.3-3.03-1.63-4.93.08-7.8,6.99-17.2,9.4-27.45,8.82-5.39-.31-10.64-1.4-15.05-4.76-1.77-1.35-3.11-.98-4.84-.08-9.35,4.86-19.27,5.06-29.36,3.22-5.68-1.04-10.91-3.15-14.84-7.61-1.16-1.32-2.08-.9-3.36-.31-11.6,5.34-22.38,2.97-32.57-3.77-1.72-1.14-3.1-2.84-4.53-4.38-.47-.51-.62-1.32-.92-2,.67.19,1.5.2,1.98.61,3.75,3.21,7.91,5.59,12.7,6.85,4.92,1.3,9.87,1.7,14.86.52,3.06-.72,5.6-2.38,7.99-4.41,3.15-2.68,4.91-2.67,7.32.61,3.77,5.13,9.01,7.12,14.93,8.09,9.02,1.47,17.72,1.05,25.81-3.89,3.01-1.84,3.92-1.81,6.43.68,3.48,3.43,7.74,4.58,12.34,4.88,5.18.34,10.32.27,15.35-1.55,4.05-1.47,7.51-3.73,10.7-6.54,4.09-3.61,5.09-3.82,9.13-.52,8.01,6.52,20.81,6.48,29.07.57.53-.38,1.07-.73,1.59-1.12,4.94-3.67,4.9-3.64,9.01,1.3,2.78,3.34,6.68,4.59,10.79,4.78,7.75.34,15.16-.91,21.58-5.76.39-.3,1.08-.21,1.63-.29-.1.6,0,1.39-.34,1.76-1.73,1.89-3.35,3.98-5.42,5.42-4.38,3.03-9.36,4.35-14.19,4.03v-.02Z"/>
  <path class="cls-1" d="M304.2,134.67c-2.7-.96-5.51-1.71-8.07-2.96-1.77-.87-2.84-.73-4.25.59-9.33,8.76-20.6,10.99-32.87,9.39-3.9-.51-7.63-1.87-10.37-4.84-1.48-1.6-2.42-1.24-4.01-.23-4.94,3.17-10.57,4.19-16.29,3.85-11.42-.68-22.02-3.78-30.43-12.11-1.34-1.32-2.47-.83-3.93-.63-11.21,1.48-21.18-1.38-29.64-8.96-1.29-1.16-2.3-2.72-3.1-4.27-.28-.54.46-1.6.74-2.43.55.38,1.2.68,1.63,1.16.94,1.06,1.58,2.49,2.69,3.29,6.65,4.8,14.08,7.29,22.33,6.52,1.97-.18,4.04-1.12,5.74-2.22,3.32-2.15,4.75-2.38,7.05.41,7.67,9.26,18.04,12.14,29.39,12.5,5.69.18,10.87-1.09,14.37-6.4,1.66-2.53,4.8-2.3,5.75.5,2.4,7.09,8.18,7.88,14.09,7.74,4.46-.11,8.96-1.17,13.3-2.33,3.8-1.01,6.87-3.47,9.53-6.46,4.24-4.77,5.38-4.88,10.68-1.6.69.42,1.36.91,2.1,1.21,3.73,1.54,7.42,1.56,10.38-1.43,2.37-2.39,4.27-5.25,6.42-7.87.35-.43.94-.68,1.41-1.01.08.47.32.97.22,1.39-1.09,4.41-2.26,8.79-5.32,12.35-2.45,2.85-5.39,4.65-9.51,4.85h-.03Z"/>
  <path class="cls-1" d="M277.52,490.24c-.69,2.28-1.2,5.57-2.66,8.36-2.3,4.42-5.18,8.55-7.95,12.71-.87,1.31-.71,1.93.64,2.48s2.7,1.1,4.02,1.71c4.1,1.92,8.25,3.74,12.26,5.84,7.59,3.98,15.07,8.18,22.64,12.19,6.44,3.42,11.59,8.2,15.52,14.31.31.48.37,1.12.54,1.69-.57-.02-1.21.12-1.7-.1-6.2-2.75-12.47-5.36-18.53-8.39-6.5-3.25-12.75-7-19.19-10.38-5.86-3.08-11.83-5.97-17.75-8.92-1.59-.79-3.28-1.41-4.81-2.31-4.21-2.46-5.03-6.3-2.17-10.2,1.14-1.56,2.53-2.95,3.71-4.49,1.87-2.43,3.7-4.9,5.49-7.4,5.42-7.54,4.66-15.1-.02-22.64-.68-1.1-1.51-2.11-2.17-3.22-.18-.31-.17-1.01.05-1.22.26-.25.89-.3,1.27-.18.6.2,1.2.53,1.67.96,5.4,4.89,8.32,11,9.14,19.17v.03Z"/>
  <path class="cls-1" d="M265.21,388.84c-13.59-.41-27.19-.58-40.76-1.29-12.59-.66-25.14-1.86-37.71-2.88-2.89-.23-5.77-.68-8.64-1.09-.4-.06-.75-.51-1.13-.78.43-.28.85-.81,1.28-.81,4.86,0,9.72.01,14.57.16,9.7.29,19.4.91,29.1.93,17.15.04,34.29-.42,51.44-.34,8.88.04,17.77.79,26.64,1.28.48.03.94.57,1.4.88-.51.29-.99.7-1.54.87-6.07,1.84-12.29,2.82-18.61,2.94-5.34.11-10.69.02-16.03.02v.11h-.01Z"/>
  <path class="cls-1" d="M371.6,325.51c-5.07-.35-10.04-1.19-14.13-4.4-1.96-1.53-2.82-1.02-4.24.65-4.22,4.96-9.64,8.03-16.06,9.25-4.63.88-9.02.13-13.03-2.34-1.06-.65-1.93-1.7-2.7-2.71-.28-.37-.21-1.32.09-1.7.22-.27,1.29-.28,1.62,0,5.14,4.57,10.73,3.65,16.28,1.21,5.44-2.39,9.04-6.67,11.1-12.23.28-.75.48-1.54.67-2.32.46-1.88,1.5-3.28,3.44-3.67,2.21-.45,3.63.84,4.83,2.52,4.78,6.77,10.05,8.85,17.87,6.45,3.49-1.07,6.68-3.12,10.02-4.71.66-.31,1.37-.53,2.05-.79.07.73.36,1.52.18,2.18-2.13,7.63-7.54,11.33-15.08,12.38-.96.13-1.93.15-2.89.22h-.02Z"/>
  <path class="cls-1" d="M258.58,402.04c-13.81-.4-27.49-1.73-41.16-3.36-9.47-1.13-18.95-2.13-28.41-3.31-1.83-.23-3.59-.98-5.39-1.5,1.41-2.04,3.55-1.17,5.31-1.09,7.43.35,14.84.96,22.26,1.46,5.49.37,10.97.9,16.47,1.08,13.75.45,27.52,1.16,41.27.96,10.32-.15,20.62-1.54,30.92-2.43,2.41-.21,4.79-.67,7.19-.93.35-.04.75.38,1.12.59-.31.3-.57.78-.93.87-8.47,2.03-16.88,4.48-25.46,5.86-7.63,1.22-15.46,1.25-23.2,1.8h.01Z"/>
  <path class="cls-1" d="M222.59,339.28c-7.51.32-14.37-1.83-20.39-6.31-2.02-1.5-3.58-3.67-5.17-5.67-.32-.4.14-1.43.24-2.16.54.24,1.2.34,1.59.73,3.99,4,8.72,6.72,14.22,7.91,9.04,1.96,17.65.78,25.69-3.98,1.63-.97,2.79-2.08,2.9-4.13.05-.94.44-1.89.77-2.8.64-1.73,1.98-2.48,3.79-2.42,1.89.06,3.33,1.25,3.8,3.15.11.46.11.96.14,1.44.24,4.22,1.03,5.25,5.07,6.07,4.31.88,8.64.96,13,.27.58-.09,1.23.2,1.84.32-.31.53-.51,1.18-.94,1.59-5.1,4.88-16.01,7.54-22.78,2-2.02-1.65-3.42-1.38-5.5-.27-5.65,3.01-11.72,4.58-18.24,4.23l-.03.03Z"/>
  <path class="cls-1" d="M301.39,265.14c-11.02.4-20.52,1.83-29.26,6.53-.57.31-1.14.68-1.75.8-.32.06-.8-.29-1.08-.57-.11-.12,0-.68.18-.83.74-.61,1.5-1.23,2.34-1.68,11.11-6.04,22.84-8.41,35.45-6.42,4.67.74,9.12,1.87,13.33,3.98.37.18.63.58.94.87-.46.06-.95.25-1.39.17-3.79-.66-7.57-1.44-11.37-2.03-2.86-.44-5.75-.65-7.39-.83h0Z"/>
  <path class="cls-1" d="M354.22,246.56c.17,4.36-2.8,6.48-6.14,5.26-2.42-.88-4.09-2.55-4.97-4.96-.82-2.22.29-4.96,2.45-6.2,2.22-1.28,4.84-.71,6.32,1.55,1.03,1.58,1.81,3.34,2.34,4.34h0ZM350.32,245.3c-.17-2.02.11-3.78-1.82-3.34-1,.23-2.08,1.39-2.54,2.4-.5,1.09,1.7,3.47,2.89,3.04.82-.29,1.23-1.72,1.48-2.1h-.01Z"/>
  <path class="cls-1" d="M202.24,230.69c-3.18.1-6.51-2.18-6.8-4.97-.09-.87.8-1.83,1.24-2.75.59.42,1.52.72,1.72,1.28.71,1.94,2.11,2.35,3.84,2.02,2.05-.39,2.25-2.03,2.24-3.73,0-.64-.13-1.34.09-1.91.11-.29,1.08-.62,1.27-.47,1.86,1.56,2.65,4.45,1.89,6.52-.91,2.5-2.85,3.92-5.49,4h0Z"/>
  <path class="cls-1" d="M171.39,216.13c-.11,3.89-2.81,6.82-5.72,6.91-3.26.1-6.82-3.2-6.75-6.38.02-.73.39-1.58.86-2.15.33-.39,1.18-.64,1.67-.5.35.1.6.93.68,1.47.08.6-.31,1.32-.1,1.83.89,2.1,3.81,2.5,5.12.59.78-1.14.95-2.68,1.47-4.01.15-.39.53-.92.84-.94.35-.03.94.35,1.09.7.44,1.01.7,2.09.83,2.5v-.02Z"/>
  <path class="cls-1" d="M297.81,222.41c2.74-.03,2.92-2.58,4.12-4.14.27-.35.68-.6,1.03-.9.21.36.61.72.6,1.07-.05,1.58.03,3.24-.4,4.73-.67,2.32-2.34,3.9-4.86,4-2.59.1-4.67-1.11-5.95-3.37-.44-.77-.56-1.86-.49-2.77.16-1.89,1.92-2.82,3.45-1.72,1.07.78,1.73,2.12,2.58,3.21-1.02-.34-2.04-.67-3.05-1.01-.1-.11-.19-.22-.29-.32.13.08.25.16.38.24.6,1.38,1.36,2.32,2.88.98h0Z"/>
  <path class="cls-1" d="M257.19,236.25c-.63,1.47-1.1,3.2-2.05,4.62-1.1,1.66-3.26,2.12-4.7,1.43-1.77-.85-2.74-2.85-2.07-4.91.9-2.79,2.97-4.58,5.71-5.47.52-.17,1.62.34,1.94.86.56.92.73,2.07,1.18,3.47h0ZM254.75,234.54c-.31-.7-.39-1.15-.53-1.17-.28-.04-.65.09-.87.28-1.44,1.27-2.69,2.67-2.49,4.78,0,.15.71.41.75.36,1.12-1.46,2.19-2.96,3.13-4.25h0Z"/>
  <path class="cls-1" d="M351.32,219.86c-.26,1.98-1.48,3.8-3.5,5.06-.94.59-2.32.78-2.91,1.58-1.13,1.53-1.21.41-1.63-.36-.15-.27-.47-.44-.66-.7-1.37-1.88-1.35-2.15.79-2.98,2.45-.96,4.45-2.03,3.42-5.26-.09-.27.92-1.3,1.37-1.26,2.15.16,3.23,1.48,3.12,3.92h0Z"/>
  <path class="cls-1" d="M143.23,228.38c-.1,1.96-1.46,2.97-3.74,2.78-1.93-.16-3.62-1.65-3.68-3.24-.06-1.68,2.57-4.09,4.28-3.93,1.56.15,3.23,2.49,3.13,4.4h0ZM139.33,224.89c-.78,1.26-1.46,1.98-1.62,2.81-.06.31,1.07,1.03,1.75,1.2.31.08,1.24-.81,1.18-1.14-.14-.82-.68-1.58-1.31-2.87Z"/>
  <path class="cls-1" d="M181.29,289.43c-6.69-.39-12.78-2.08-17.49-7.12-.26-.28-.33-.75-.49-1.13.44.05.92,0,1.31.16,2.51,1.07,4.92,2.43,7.5,3.25,6.37,2.04,12.78,1.03,19.07-.48,6.25-1.5,12.42-3.33,18.62-5,1.24-.33,2.49-.71,3.76-.86.47-.05,1,.51,1.5.79-.28.5-.46,1.33-.87,1.47-10.35,3.53-20.52,7.69-31.54,8.86-.48.05-.97.05-1.38.07h.01Z"/>
</svg>