<?xml version="1.0" encoding="UTF-8"?>
<svg id="Layer_1" data-name="Layer 1" xmlns="http://www.w3.org/2000/svg" version="1.1" viewBox="0 0 489.99 585.66">
  <defs>
    <style>
      .cls-1 {
        fill: #000;
        stroke-width: 0px;
      }
    </style>
  </defs>
  <path class="cls-1" d="M479.26,328.96c-.07-.54.05-1.11.12-1.66,1.51-12.69.33-25.24-2.45-37.68-1.99-8.89-4.37-17.7-6.37-26.6-.5-2.25-1.46-3.98-2.81-5.88-1.31-1.85-1.04-4.63-1.87-6.87-.49-1.34-1.69-2.48-2.71-3.59-.88-.96-1.95-1.77-3.25-2.93,4.15-1.16,5.82-3.63,6.09-7.35.28-3.88-1.88-6.7-3.93-9.44,3.09-7.91,3.01-8.57-1.69-15.7.78-3.44,2.23-7.01.6-10.34-1.74-3.56.63-6.88-.19-10.28-1.52-6.3-6.55-10.51-13.57-11.35-.52-.06-.99-.47-1.34-.65-.43-4.81-1.26-9.44-1.17-14.05.2-10.08,3.59-19.31,9.57-27.69.93-1.31,1.84-2.64,2.75-3.95-11.82,7.51-18.04,17.99-18.86,32.1-2.38-4.39-5.48-6.05-10.32-5.08,6.41-6.84,9.22-14.15,8.23-22.6-1.06-8.96-12.92-14.06-21.24-9,2.18.6,4.26,1.11,6.3,1.76,6.62,2.12,9.43,6.15,8.94,12.72-.66,8.83-10.45,19.06-19.62,20.93-8.95,1.82-14.11-2.63-15.45-9.03-.57-2.7-.64-5.53-.61-8.3.06-4.56,1.79-8.37,6.71-10.48-3.3-1.15-3.49-1.33-4.47-.38-1.9,1.85-3.93,3.71-5.25,5.92-2.88,4.81-2.4,10.27-1.34,15.29,2.19,10.4,12.47,15.26,21.29,12.55,4.24-1.3,8.3-3.12,12.44-4.7.17.38.52,1.17.84,1.92,1.92-.65,3.52-1.18,5.46-1.83,1.41,2.85,2.15,5.41,2.41,8.23.27,2.93.78,5.93,1.78,8.7.85,2.36-.16,5.53,3.29,7.5.61-3.16,1.14-5.86,1.66-8.57,3.29,17.35-.85,32.71-13.83,46.14,3.1,1.53,6.07,3.21,9.48,2.47,2.33-.51,5.36-.51,7.1-3.97h-11.07c1.67-2.12,2.82-3.61,4.03-5.06.22-.26.67-.35,1.49-.75,1.67,1.17,3.59,2.4,5.38,3.79,5.99,4.64,6.4,10.74,2.53,17.03-4.95,8.05-12.53,11.47-22.39,10.69-4.65-.36-8.03-2.4-9.42-6.49-1.73-5.11-2.93-10.3-1.66-15.83,1.73-7.55,7.18-11.2,15.32-9.73-1.81-3.45-3.17-4.25-7.17-3.59-7.06,1.18-11.73,5.07-13.79,11.54-2.25,7.05-1.42,14,1.27,20.76,1.75,4.39,5.05,7.55,9.93,8.94,8.83,2.53,17.19,1.52,24.91-3.34,2.24-1.41,4.36-2.99,6.53-4.49-1.96,5.08-1.89,10.03,1.52,14.73-2.94,1.61-5.58,3.23-5.14,6.53.35,2.61,1.25,5.15,1.94,7.83-.63.29-1.33.62-2.03.94s-1.51.52-2.09.97c-2.07,1.59-2.23,3.1-.73,5.46,1.22-2.7,3.32-4.14,6.45-3.46,3.12.68,4.34,3.1,4.77,5.78.43,2.65-.22,5.19-1.97,7.37-1.51,1.88-3.74,2.48-6.38,1.75-2.11-.58-3.32-1.91-3.49-4.01-.12-1.4-.23-2.8-.37-4.57-2.69,1.87-2.51,4.5-3.57,6.57-1.05,2.05-3.36,3.5-4.76,5.45-.71.98-.83,2.47-.84,3.74-.01,1.97.29,3.95.47,5.93-10.86,2.36-15.97,8.49-15.77,18.93.03,1.28-.06,2.56-.09,3.84-3.66,1.56-6.82,3.64-8.57,7.22-1.76,3.59-2.74,7.27-1.14,11.11-5.41,2.19-9.92,4.73-10.84,10.35-3.95,1.46-8.21,2.18-10.42,6.7,1.74,0,3.04.04,4.33,0,3.83-.13,7.49.34,10.56,2.72,2.92,2.27,3.35,4.91,1.14,7.8-2.25,2.94-5.05,5.17-9.63,5.09-.58-2.1-.94-4.31-1.79-6.34-3.27-7.83-12.46-13.16-20.88-4.25-1.43,1.51-2.51,3.32-3.64,5.06-.78,1.2-1.38,2.5-2.04,3.75-6.7-2.94-12.98-3.78-19.98.56,7.57,1.25,14.35,2.28,18.39,8.37-3.5,5.17-8.35,7.41-14.13,7.73-5.38.31-8.9-2.85-8.06-7.25,2.19-11.38-10.87-16.35-18.54-12.75-1.56.73-3.11,1.47-4.77,2.26-2.26-4.76-5.36-8.52-10.68-9.94-5.59-1.49-10.2,1.11-14.58,3.94-2.44-5.27-5.92-8.85-11.8-9.6-6.4-.82-9.93,3.08-13.06,7.54,1.51-.25,2.81-.86,4.07-1.55,2.09-1.15,4.27-1.95,6.75-1.62,4.09.55,6.95,2.7,8.37,6.26,1.34,3.33-.74,5.66-3.22,7.75-3.2,2.69-7.07,4.29-11.18,4.71-4.04.42-7.83-1.02-10.62-3.97-1.44-1.52-2.46-3.19-1.31-5.55.88-1.81,1.06-3.95,1.35-5.97,1.37-9.68-6.04-17.07-15.64-15.37-2.81.5-5.41,2.02-8.07,3.06-5.48-6.28-11.2-8.02-18.98-5.51.89.5,1.51.82,2.1,1.17,2.67,1.59,5.43,3.06,7.96,4.83,2.25,1.58,2.62,3.76,1.46,5.93-1.68,3.16-6.64,5.55-9.93,4.79-3.12-.72-6.68-4.84-5.72-8.21.95-3.33-.07-6.2-.49-9.2-1.02-7.3-7.84-11.43-15.51-9.5-2.72.68-5.31,1.78-8.12,2.74-1.05-5.7-5.35-9.21-9.71-12.67l.18.14c-1.41.62-1.34,1.59-.81,2.76,1.16,2.54,2.44,5.05,3.31,7.68,1.14,3.46.36,5.89-2.74,7.67-2.31,1.32-4.96,2.33-7.6,2.89-4.12.88-8.5-2.66-7.82-6.88.23-1.43.71-2.88,1.35-4.2,2.21-4.59,1.51-9.13-2.13-12.77-5.51-5.53-12.91-6.58-21.16-3.02-2.69-7.72-7.79-13.07-16.48-14.53-1.45-8.74-5.9-13.66-17.28-11.31.7-4.25-.84-7.64-4.29-10.33-.66-.52-.75-1.66-1.16-2.5-2.36-4.78-5.35-6.12-10.92-4.96-.55.11-1.16.02-1.49.02-1.38-1.11-2.6-2.1-4.37-3.51,0,1.37.02,1.87,0,2.38-.12,3.54-1.2,4.88-4.79,5.96-3.18.96-6.17.15-7.86-2.14-2.82-3.8-.48-10.08,4.29-11.49.95-.28,1.94-.42,2.92-.63-.02-.28-.03-.56-.05-.84-1.7-.43-3.4-.86-5.1-1.29,2.18-7.19,2.16-8.91.69-11.63-1.69-3.13-5.06-3.09-7.92-3.82-1.36-4.94-1.15-10.5-7.53-12.3.22-1.06.38-1.88.66-3.2-1.49.7-2.5,1.2-3.53,1.65-1.25.56-2.47,1.2-3.77,1.59-2.67.8-5.09.43-6.93-1.77-1.91-2.27-2.01-4.68-.66-7.27,1.43-2.75,4.17-3.02,7.25-3.36-.92-1.14-1.57-1.93-2.29-2.83,1.15-1.43,2.26-2.74,3.29-4.1,3.58-4.72,3.19-8.31-1.49-12.22-1.31-1.09-2.85-2.01-4.44-2.7-6.22-2.69-11.4-.27-13.09,6.01-1.98,7.35.41,12.03,8.06,15.8-4.5,7.63-4.28,12.44,5.22,18.21-1.22,2.98-1.41,5.94.22,9.04,1.67,3.16,4.81,4.17,7.72,5.32,1.25,9.14,3.31,11.43,12.13,13.31-1.63,4.13-2.1,8.25.95,12.06,3.2,4,7.83,4.53,12.82,4.13.15,2.57.13,4.6.42,6.6.73,5.02,5.11,8.75,10.43,9.08,3.25.2,6.14-.6,9.08-1.99,2.74-1.3,5.8-2.32,8.83-2.69,5.26-.63,7.75,1.84,7.62,6.8-.11,4.49-2.73,6.95-7.53,6.63-2.62-.18-5.2-.96-8.81-1.67,4.01,4.46,8.62,5.82,13.31,6.75.14.85.31,1.39.32,1.93.09,7.65,10.05,13.89,19.56,8.74,2.43-1.31,4.81-2.55,7.4-3.55,5.19-2,11.13-.9,14.55,3,1.26,1.43,1.73,3.04.84,4.65-.8,1.45-1.79,2.98-3.12,3.98-4.79,3.61-9.93,6.14-16.76,1.88,1.14,3.78,2.65,6.01,5.57,7.15,5.52,2.16,10.64.57,15.56-2.03,2.16,7.44,5.7,10.11,13.32,9.49,6.19-.5,11.64-2.97,15.68-7.53,2.3-2.59,5.13-4.06,8.52-4.6,5.21-.84,8.91,2.02,9.25,6.96.44,6.49-3.58,11.18-10.54,11.81-3.03.27-6.14-.17-9.22-.28,4.49,7.16,13.77,7.91,22.87,1.83.64.93,1.27,1.87,1.93,2.79,3.27,4.54,7.03,5.97,12.63,4.79,5.36-1.13,9.12-4.03,11.49-8.76,2.15-4.3,6.26-6.32,10.98-5.87,3.07.29,5.71,2.37,6.13,5.19.75,5.03-.54,9.62-4.06,13.54-1.73,1.93-3.95,2.27-6.41,1.38-2.66-.96-4.8-2.49-6.28-4.86-.47-.76-1.52-1.2-2.99-2.31.03,3.88.53,6.77,2,9.4,3.44,6.11,10.22,8.48,16.82,3.84,1.51-1.06,2.77-2.43,4.29-3.78,3.52,4.32,7.38,7.53,13.32,7.78,5.57.24,10.24-1.94,15.11-4.59.22,1.1.32,1.81.5,2.51,2.31,9.01,11.57,13.43,20.64,9.81,5.72-2.28,9.3-6.3,10.11-12.12.39-2.85,2.08-4.76,4.58-5.22,2.78-.51,5.86-.22,8.68.32,3.21.61,4.42,3.39,4.2,6.01-.3,3.49-1.37,6.96-4.39,9.49-2.23,1.86-4.17,2.12-6.28.19-1.36-1.24-2.13-3.05-3.15-4.62-.53-.83-1.02-1.68-2.07-3.42-.43,6.43-.65,11.69,5.54,14.54,4.64,2.14,8.41.46,14.46-6.23,4,3.88,8.98,5.32,14.54,4.17,4.06-.84,7.85-2.43,11.15-4.98,3.98-3.08,5.15-6.18,3.86-10.74-.34-1.2-.92-2.59-.57-3.66,1.12-3.45,3.22-6.4,6.45-8.46,2.93-1.87,6.68-1.35,8.37,1.2,2.85,4.3,3.17,8.85.23,13.15-2.65,3.88-6.59,5.57-11.62,4.37-.9,2.08-.24,3.71,1.41,5.02,1.88,1.49,4.09,2.4,6.57,1.96,4.47-.79,8.25-2.66,10.28-6.75,1-2,1.84-4.06,2.85-6.3,4.66-.04,8.82-1.34,12.41-4.31,3.78-3.13,5.72-6.97,5.73-11.85,7.54-1.18,11.07-5.57,11.54-12.21,1.89-.63,3.6-1.06,5.18-1.76,5.06-2.24,7.71-7.14,7.2-12.36-.63-6.4-4.21-10.17-10.39-11.24-2.01-.35-3.92-.3-4.38-2.79-1.07-5.77,3.83-14.1,9.73-15.78,1.72-.49,4.01-.36,5.64.33,3.01,1.26,4.22,5.4,3.13,8.81-1.4,4.37-3.92,6.3-8,6.01-1.47-.1-2.91-.46-4.81-.77,5.41,6.7,12.45,6.65,16.59.32.61-.94.95-2.04,1.44-3.05,1.75-3.6.4-7.14-.64-10.64,11.01-1.32,14.04-5.13,11.8-14.42,6.48-6.91,6.48-14.2,1.06-21.65,10.22-3.67,11.73-7,6.96-14.77,1.81-1.6,3.63-3.2,5.63-4.96-3.11,2.74,2.82,14.09,3.01,17.03.14,2.18-.92,4.25-1.94,6.18-3.72,7-5.32,14.31-8.69,21.43-.89,1.88-1.83,3.83-1.84,5.91-.02,3.85,3.1,7.06,3.69,10.86.89,5.73-3.66,10.01-4.59,15.32-.52,3.01,1.07,4,1.21,6.15.18,2.62-1.03,5.72-1.49,8.3-.61,3.43-2.62,2.75-5.23,4.4s-3.21,3.71-3.59,6.56c-.5,3.74-.76,7.51,1.37,10.83-7.33,8.75-1.61,16.64,1.82,25.12-3.01,0-5.52-.01-8.03,0-6.78.04-10.51,2.86-12.46,8.95-1.99,6.18-1.12,12.07,1.34,17.44-1.43,3.14-3.04,5.76-3.81,8.59-.81,3-.49,6.26-1.25,9.28-.81,3.2-2.78,6.16-3.41,9.37-1.11,5.64-1.63,11.39-2.32,17.1-.24,2-.36,4-2.6,5.81-1.78-1.65-3.43-3.18-5.09-4.71-5.48-5.07-10.13-4.88-14.9.86-7.28,8.75-12.81,18.27-13.62,29.71-2.06.78-3.81,1.92-6.19.95-2.68-1.09-4.62.37-5.98,2.37-2.83,4.17-4.41,8.72-3.88,13.74.45,4.33,3.95,8.27,8.46,8.99,7.03,1.12,13.43-.31,18.36-5.49,5.74-6.02,4.27-14-3.09-17.92-1.5-.8-3.05-1.51-4.75-2.35,3.27-11,8.48-20.46,17.71-27.95,2.59,2.73,4.72,5.15,7.05,7.37,2.68,2.55,5.98,3.55,9.77,2.7.9-.2,1.78-.46,3.22-.85,1.53-2.16,2.78-4.55,3.76-7.11.6-1.58,1.13-3.18,1.64-4.79-.17.3-.35.6-.52.9.93-7.29,1.86-14.58,2.83-22.2,8.78,0,17.96-.9,21.01-10.9,3.23-10.59-11.69-14.62-19.46-14.29-3-5.24-1.88-10.13-.2-14.92,1.39-3.98,3.51-5.21,8.04-5.03,1.76.07,3.49.56,5.25.72s3.59.41,5.29.14c3.52-.56,5.33-2.51,4.9-5.86-.38-2.88-1.51-5.72-2.61-8.47-1.52-3.81-3.25-7.54-1.89-12.16,1.2,0,2.32.01,3.45,0,9.12-.14,14.83-7.6,11.76-15.7-.7-1.84.02-4.1-.76-5.77-.92-1.97-2.49-2.82-3.03-5.31-.66-3.05-1.4-6.11-2.09-9.14s.31-5.45,1.69-8.36c1.6-3.38,2.82-6.95,3.63-10.6.29-1.31.51-2.73-.05-3.95-.72-1.54-2.48-2.3-3.51-3.66-1.38-1.81-1.21-4.35-.71-6.57,1.22-5.44,3.93-10.79,7.01-15.41,2.34,3.39,3.17,7.61,3.34,11.73s-.27,8.24-.2,12.35c.08,4.45.76,8.91.32,13.34-.25,2.54-.87,5.05-.92,7.61-.11,5.55,1.5,10.89,1.29,16.5-.49,12.91-2.25,26.61-5.38,39.05-3.54,14.05-5.97,28.87-11.23,42.13-7.01,17.66-15.89,34.58-26.46,50.38-4.3,6.43-9.31,11.78-13.31,18.36-4.21,6.92-9.9,12.84-16.23,17.85-8.85,7.01-18.89,12.32-28.87,17.59-9.4,4.97-19.98,5.8-30.37,7.75-11.43,2.14-23.16,2.39-34.73,1.49-6.42-.5-12.54.66-18.81.95-2.91.14-5.89.31-8.73-.15-9.22-1.49-17.76-4.85-26.09-8.82-14.27-6.8-28.66-13.4-42.98-20.12-5.65-2.65-11.31-5.3-16.84-8.15-1.55-.8-2.71-2.25-4.03-3.44,5.03.32,8.44-2,10.76-6.06.93-1.63,1.77-3.32,2.73-4.93,2.12-3.57,4.01-7.3,6.53-10.61,3.31-4.34,5.97-4.2,9.29-.01.94,1.19,1.75,2.48,2.64,3.71,4.14,5.75,8.77,11.03,15.36,14.49.45.24.73.77,1.06,1.13-.6,1.72-1.25,3.28-1.7,4.89-1.93,6.91,1.07,13.88,7.13,17.46,9.97,5.88,28.85-.62,29.91-13.63.6-7.45,6.72-9.94,12.15-5.27,3.06,2.64,6.17,5.23,9.19,7.91,4.24,3.76,8.95,6.72,14.64,8.16,8.03,2.02,14.71-1.61,16.79-9.18.63-2.29,1.16-4.61,1.86-7.43,2.31.7,4.19,1.13,5.95,1.82,3.28,1.29,6.47,2.78,9.74,4.11,6.05,2.47,12.32,2.87,19.27,1.88-.86-.75-1.21-1.28-1.7-1.45-6.15-2.19-11.54-5.6-17.02-8.95-3.92-2.4-8.4-4.2-12.89-5.5-5.86-1.7-10.57,1.01-12.42,6.55-.76,2.29-.93,4.75-1.63,7.06-.98,3.26-2.75,4.16-6.25,3.38-4.33-.98-7.95-3.2-11.35-5.83-3.67-2.83-7.38-5.61-11.15-8.32-2.63-1.89-5.79-2.88-8.94-2.12-3.11.76-5.98,2.36-9,3.62-5.12-7.38-19.15-7.52-30.52-2.57-.59-.62-1.4-1.21-1.85-1.98-2.5-4.22-4.72-8.59-7.41-12.7-2.36-3.62-4.81-7.31-7.92-10.33-4.43-4.3-11.23-4.4-16.18-.62-2.12,1.61-4.12,3.58-5.53,5.75-2.67,4.12-4.84,8.51-7.27,12.77-.67,1.18-1.53,2.26-2.84,4.17-1.94-5.94-3.44-10.93-5.21-15.83-1.32-3.67-2.75-7.34-4.57-10.81-2.71-5.17-8.77-9.47-16.23-6.21-.49.21-1.14.08-1.97.12-.6-1.34-1.16-2.68-1.81-3.99-1.32-2.67-3.53-4.58-6.45-5.43-3.51-1.02-7.2-1.3-10.62-2.91-2.69-1.27-5.16.78-7.81,2.26-.77-4.36-.47-8.21.04-12.08.29-2.2.68-4.47.4-6.65-.6-4.79-1.27-9.63-5.41-13.2-3.92-3.37-8.03-3.96-12.38-1.16-2.41,1.55-4.6,3.53-6.5,5.62-2.3,2.54-4.14,5.44-6.27,8.12-1.23,1.54-2.63,2.96-3.95,4.44-1.07-2.61-1.1-4.82-1.07-7.02.06-5.22.25-10.43.17-15.64-.03-2.01-.41-4.07-1-6-1.8-5.86-3.81-7.24-10.73-7.58.22-.73.46-1.38.62-2.06.98-3.95-.57-6.78-4.08-9.05-3.08-1.99-6.35-1.7-9.71-1.45-1.29.09-2.72.52-3.85.15-2.56-.84-3.78.4-4.65,2.21-2.22,4.61-2.5,9.29,0,13.9,2.11,3.88,5.95,5.55,10.39,4.48,1.89-.46,3.7-1.22,5.54-1.84.61.8,1.17,1.53,2,2.6.78-1.18,1.13-1.78,1.55-2.34,1.08-1.4,2.48-2.97,4.32-2.19,1.39.6,2.33,2.26,3.28,3.58.4.55.37,1.44.36,2.17-.06,3.91.27,7.88-.36,11.71-1.02,6.24-1.27,12.41.1,18.99-5.55-3.35-9.85-7.41-13.75-11.82-4.43-5-8.59-10.21-13.02-15.21-12.65-14.26-21.43-30.2-24.33-48.76-.29-1.88-1.15-3.69-2.12-6.7-1.67,4.23-1.44,7.42-.95,10.37,2.18,13.13,6.27,25.71,14.08,36.92,5.42,7.77,11.31,15.25,16.99,22.86,7.24,9.7,16.01,17.85,26.63,24.35,9.29,5.69,17.67,12.53,26.01,19.41,11.16,9.21,23.07,17.53,35.4,25.32,5.57,3.52,11.02,7.25,16.25,11.21,6.96,5.27,14.15,10.14,22.23,13.79,10.7,4.83,21.39,9.66,32.03,14.59,4.97,2.3,9.77,4.91,14.73,7.22,14.75,6.86,30.37,7.4,46.33,5.51,5.86-.69,11.75-1.23,17.65-1.44,3.11-.11,6.24.87,9.38.99,7.67.28,15.33,1.46,23.04.15,6-1.02,12.23-1.19,18.07-2.72,14.14-3.7,27.43-9.5,40.31-16.06,5.59-2.85,10.58-6.5,15-10.85,7.61-7.49,13.26-16.21,17.97-25.47,7.86-15.43,15.6-30.91,23.31-46.4,1.92-3.87,3.55-7.86,5.34-11.79,6.43-14.18,6.57-29.66,10.33-44.4.82-3.24,1.34-6.55,1.88-9.84,1.44-8.79,3.02-17.56,4.17-26.39,1.5-11.46,1.99-22.98.47-34.49h-.05ZM40.99,223.15c-1.12-2.5-.42-4.78.66-6.93,1.21-2.39,4.25-2.88,6.43-1.12,2.06,1.66,4.38,3.28,4.04,6.23-.18,3.25-2.23,5.62-5.11,6.01-2.79.38-4.61-1.04-6.02-4.19ZM56.46,259.84c-2.33-.36-3.18-1.93-3.3-4.01-.16-2.84.54-4.26,2.92-4.75,1.9-.39,3.9-.36,6.1-.54,2.14,2.82,2.84,5.19.81,7.64-1.68,2.03-4.12,2.04-6.53,1.67h0ZM67.38,275.31c-2.52.08-4.65-1.03-5.68-3.2-.84-1.76-1.13-3.75-1.6-5.44,3.06-1.99,5.6-3.65,8.17-5.33,3.15,1.02,4.59,2.98,4.34,5.89-.09,1.1,0,2.23-.23,3.3-.53,2.55-2.68,4.7-5,4.77h0ZM94.32,303.61c-1.69.03-3.29-.45-3.76-2.08-.94-3.27-1.24-6.72,1.02-9.56,1.05-1.32,3.12-2.56,4.8-2.65,2.03-.1,4.11,1,4.79,3.37.51,1.76,1.26,3.46,1.88,5.15-1.88,3.53-4.52,5.71-8.73,5.78h0ZM128.03,331.46c-3.79-.08-6.81-2.86-6.79-6.25.02-3.04,4.04-7.11,7.02-7.11,3.95,0,8.45,4.38,8.17,7.94-.24,3.01-4.11,5.51-8.39,5.42h0ZM306.3,391.02c-2.22,3.2-5.73,3.77-9.36,3.35-3.6-.41-6.3-2.22-7.07-5.78-.46-2.14-.95-4.22-.25-6.54,1.3-4.3,2.66-5.56,7.33-5.56,4.29.07,7.72,1.8,10.01,5.12,2.18,3.16,1.43,6.42-.64,9.4h-.02ZM416.44,332.98c-.14-.02-.34,0-.41-.07-.07-.08-.1-.2-.12-.32.18.13.35.26.53.39ZM407.04,366.21c-2.9-1.62-5.74-3.21-8.91-4.98,2.17-4.14,5.9-5.26,9.75-6.16,2.29,1.1,5.45,1.72,5.41,4.57-.05,3.53-2.79,5.5-6.25,6.57ZM422.39,342.67c2.6,3.24,2.01,6.3-1.21,8.03-3.35,1.8-7.37.81-8.91-2.61-.78-1.75-1.09-4.02-.63-5.83.51-2,2.14-3.74,3.9-6.59,2.91,2.95,5.1,4.82,6.85,7h0ZM446.85,306.81c-.29,1.02-1.42,2.09-2.47,2.62-2.47,1.25-4.72-.02-6.29-1.59-2.11-2.11-2.97-4.7-.87-7.38,2.76,1.18,4.97,2.28,7.3,3.08,1.76.61,2.77,1.72,2.34,3.27h0ZM460.92,236.28c-.22,2.52-1.59,4.12-4.24,4.54-1.27.2-2.61-.02-3.93-.07.42-2.86.79-5.73,1.28-8.58.36-2.13,1.69-2.72,3.76-1.81,2.3,1.01,3.37,3.04,3.13,5.92h0ZM458.36,225.85c-1.79.42-3.29.76-5.15,1.2-.94-2.53-4.32-3.62-4.73-6.76-.4-3.08-.14-3.5,2.94-3.85,1.73-.19,3.47-.35,5.38-.54,3.06,3.24,3.22,4.09,1.56,9.96h0ZM446.31,189.97c.22-2.31.39-4.63.66-7.95,2.42,1.66,4.49,2.51,5.59,3.99,1.28,1.72,2.05,3.94,2.41,6.04.43,2.47-.48,3.32-3.04,3.8-1.9.36-3.83.58-6.38.95.25-2.26.53-4.54.76-6.83ZM444.88,219.44c-2.35-.62-4.68-1.23-7.51-1.98,1.48-2.5,2.75-4.65,4.22-7.14,2.96,2.56,5.27,4.96,3.29,9.11h0ZM446.34,206.34c.54-1.24-.37-3.03-.67-4.6.73-.04,1.45-.11,2.18-.11,7.47.05,7.86.5,6.79,8.11-1.74.6-3.67,1.27-5.53,1.91-2.23-1.35-4.05-2.37-2.78-5.32h.01ZM452.62,241.04c.1,2.58,2.99,1.45,3.91,2.25-2.79,1.73-5.65,3.5-8.51,5.27,1.53-2.51,3.06-5.01,4.6-7.52ZM453.58,274.21c-2.35.03-4.55-1.95-4.62-4.15-.07-2.06,1.34-3.51,3.54-3.63,2.37-.13,4.85,2.1,5.01,4.52.11,1.7-1.74,3.24-3.92,3.26h-.01ZM459.65,257.27c-2.49,2.5-6.26,2.96-9,1.1-1.46-.99-1.85-2.21-1.18-3.84,1.19-2.89,2.74-4.2,7.39-5.82.66.51,1.53.99,2.13,1.68,2.43,2.78,2.59,4.93.65,6.88h0ZM387.34,508.74c3.63,2.58,3.4,6.86-.33,9.36-.79.53-1.7.93-2.61,1.29-6.7,2.67-10.56.29-10.1-6.41.16-2.33.99-4.62,1.49-6.82,4.72-1.06,8.33.28,11.55,2.57h0ZM435.81,427.31c1.66,1.02,3.59,1.93,5.13,3.23,5.32,4.49,4.55,8.84-2.1,12.16-1.02-.41-2.11-.83-3.19-1.28-3.56-1.49-4.74-3.1-3.91-6.32.68-2.62.99-5.54,4.07-7.79ZM460.07,350.8h.69v3.69h-.69v-3.69ZM460.78,368.94c-2.39.44-4.44.81-6.85,1.26-2.52-3.76-2.85-7.63-.68-11.68,5.8.47,7.91,3.29,7.53,10.43h0ZM244.87,515.71c.07-1.81.52-3.69,1.23-5.37,1.38-3.27,3.3-4.09,6.98-3.01,1.39.41,2.51,1.01,3.47-.42,5.94,1.77,8.39,5.32,6.98,10.15-1.13,3.86-7.12,7.03-11.93,6.31-4.6-.69-6.91-3.17-6.74-7.66h0ZM79.85,410.07c-3.3,1.59-6.04,1.03-7.58-1.54-1.5-2.51-1.56-4.82-.07-9.33,2.79.34,5.71.52,8.53,1.12,1.2.26,2.53,1.18,3.19,2.17,1.49,2.24-.62,5.92-4.07,7.58ZM133.81,473.89c-10.84-7.42-21.64-14.8-32.81-22.44,5.56-.22,8.76-3.37,11.6-6.96,2.12-2.68,4.12-5.44,6.24-8.12.82-1.04,1.73-2.04,2.74-2.91,2.98-2.54,5.4-1.94,6.45,1.77.65,2.3.83,4.74,1.05,7.13.17,1.85.09,3.71.09,5.57,0,5.75,1.29,11.06,5.85,14.76-.44,4.07-.83,7.69-1.21,11.19h0ZM142.83,473.76c-1.51-2.77-1.46-5.32.54-11.11,2.85.72,5.56,1.11,7.99,2.11,2.62,1.07,3.42,3.33,3.09,6.02-.33,2.64-1.78,4.52-4.17,5.66-2.7,1.29-5.99,0-7.45-2.68ZM185.39,507.58c-10.74-6.59-21.48-13.19-32.2-19.8-.81-.5-1.54-1.12-2.81-2.05,2.17-1.02,4.3-1.57,5.76-2.82,2.59-2.2,4.89-4.73,7.09-7.3,3.81-4.45,9.04-4.49,12.12.43,1.77,2.82,3.03,6.07,3.81,9.27,1.87,7.67,3.52,15.38,7.11,22.57-.31-.08-.63-.14-.88-.3h0Z"/>
  <path class="cls-1" d="M445.35,201.23c.04.07.07.15.09.22-.15-.13-.3-.25-.44-.38.12.05.3.07.36.15h0Z"/>
  <path class="cls-1" d="M179.42,334.8c-.88-.66-1.69-1.46-2.66-1.96-10.64-5.53-15-19.75-10.47-29.27,4-8.4-5.28-18.01-12.7-18.01h-4.51c-1.86,2.73.13,4.9.42,7.51-.91.45-1.9,1.32-2.86,1.29-1.03-.04-2.35-.7-2.96-1.49-1.03-1.31-1.91-2.87-2.28-4.45-.68-2.88-1.13-5.84-1.36-8.79-.66-8.3-4.93-13.86-13.54-16.39-1.45,2.08.49,5.46-3.21,6.87-1.15-3.38-1.89-6.77-3.44-9.79-1.51-2.96-3.84-5.55-6.04-8.62-4.68,3.88-9.14,7.03-14.78,8.6-9.83,2.73-23.57-2.29-28.81-10.09-4.05-6.03-4.4-12.58-1.89-19.21.56-1.5,1.83-2.88,3.1-3.96.63-.54,2.02-.3,3.4-.44-5.6,9.13-2.07,20.42,6.14,24.56,13.1,6.61,23.37,1.02,27.43-5.86,7.51-12.73-2.12-25.01-14.63-26.72-4.33-.59-8.64-.09-12.98,2.12.33,2.14.79,4.26.95,6.41.17,2.19.04,4.4.04,7.03,5.8-.87,6.33-5.26,7.97-9.18,2.33,1.93,3.12,3.63,1.99,6.1-1.35,2.96-3.67,4.82-6.77,5.85-3.65,1.22-6.32-.35-6.47-4.05-.19-4.94-1.28-9.67-4.1-13.76-6.44-9.32-15.59-13.83-28-12.86.67,1.14,1.15,1.97,2.07,3.55-2.7-.53-4.92-.59-6.76-1.41-2.73-1.22-5.16-.97-7.98-.3-9.54,2.27-18.17,6.16-25.85,11.94-.28.21-.71.25-1.07.36,1.53-4.15,5.43-8.57,12.32-12.49,5.36-3.05,11.19-5.35,16.36-7.77,2.13-3.07,4.13-5.95,6.13-8.82.33.11.65.22.98.33,0-1.83-.18-3.69.03-5.5.6-5.07,5.57-9.3,10.27-8.99,2.23.15,3.71.95,4.21,3.56-3.6.04-6.71.64-8.04,4.14-1.43,3.77.56,6.85,4.84,6.89,2.06.02,4.14-.56,6.01-.84.7-3.85,1.07-7.17,1.96-10.37.76-2.72,2.16-5.27,5.74-5.65-.59,1.56-1.41,3.09-1.74,4.7-1.37,6.69-.7,12.91,4.91,17.96,5.55,4.99,18.24,6.32,25.68.25,9.72-7.93,7.51-22.25,2.26-28.46-1.35-1.6-3.78-2.57-5.92-3.35-5.07-1.86-10.11-.52-15.08.67-2.8.67-5.87.88-8.08,3.62,1.16,1.57,2.31,3.15,3.95,5.39,1.22-1.92,2.02-3.17,2.82-4.44,4.65,4.46,2.73,9.85-3.87,12.53.24-1.77.44-3.33.66-4.98-1.87-1.27-3.75-2.56-5.64-3.85-3.02-5.59-6.68-10.84-8.6-17-4.81-15.43-1.49-28.92,9.83-40.86,3.81-4.02,7.63-8.08,10.86-12.51,2.76-3.78,4.97-8.05,2.38-12.95,4.16.14,6.61,1.59,6.85,4.63.2,2.52.18,5.39-.93,7.58-2.01,3.98-4.73,7.69-7.49,11.28-1.72,2.24-4.09,4.04-6.12,6.08-10.43,10.47-13.8,22.67-9.9,36.54.9,3.19,2.32,6.26,3.59,9.62,2.91-.83,4.6-2.68,6.48-4.2,6.74-5.45,14.32-7.54,23.63-5.15-2.04-3.84-2.82-7.46-.84-11.22,1.71-3.23,2.33-3.7,6.32-3.21,3.24.41,6.93-1.3,9.39,2.27,3.59-7.94,8.83-9.94,14.03-5.31-1.29.35-2.41.49-3.34.95-1.19.59-2.48,1.25-3.29,2.21-1.13,1.34-1.63,3.04-.44,4.65,1.32,1.8,3.23,1.14,4.84.6,2.91-.97,4.24-3.31,5.02-8.11,4.8,3.65,5.39,6.93,2,11.24-4.03,5.13-9.69,5.88-15.75,2.28-4.38,2.23-8.63,4.39-12.93,6.58,8.11,8.43,10.27,18.72,7.19,29.93-2.54,9.28-9.26,15.33-19.05,17.27-9.3,1.85-18.22.18-24.99-6.88-1.95-2.03-3.33-4.56-5.24-7.24-4.99,3.12-10.37,5.11-16.46.64-1.07,1.51-1.99,2.78-3.02,4.23.93.3,1.45.58,1.99.62,3.92.31,7.9.25,11.76.89,10.65,1.77,18.2,7.62,23.34,16.42.28.48.69.89,1.27,1.62,1.35-1.06,2.61-2.12,3.94-3.09,7.03-5.08,15.3-5.31,22.47-.4,11.67,8,15.59,19.52,9.88,31.86-.38.82-.76,1.64-1.1,2.37,3.08,2.68,5.95,5.17,9.58,8.33,1.8.27,4.72.6,7.6,1.14,8.84,1.64,13.95,6.52,14.92,15.65.25,2.38.04,4.8.04,7.56,2.98-.78,5.38-1.41,7.57-1.98-1.64-5.81-3.89-11.36-4.63-17.08-.77-6.02-.75-12.29.13-18.3,1.18-8.03,6.2-14.26,12.77-19.49,5.62-4.47,12.19-7.4,19.45-11.9-1.34,3.58-2.86,5.48-4.69,7.19-4.2,3.95-8.36,7.94-12.66,11.8-7.81,7-9.98,15.67-8.86,25.42.32,2.77.29,5.58.66,8.35,1.17,8.83,6.11,15.54,13.46,20.86,5.48,3.96,10.96,7.92,16.98,12.27.84-2.04,1.55-3.76,2.29-5.56,2.24.82,2.88,2.25,2.2,4.04-1.15,3.01-3.1,5.19-5.7,4.96-2.94-2.34-5.05-4.02-6.14-4.89-8.06-.31-7.66,4.9-8.77,8.85-1.96,6.98,2.45,19.37,14.34,21.07,6.9.99,13.07-1.49,17.54-6.28,2.92-3.12,5.35-7.08,6.62-11.06,3.3-10.37-4.04-18.63-13.12-21.08-2.6-.7-5.27-1.31-8.15-.44-1.68.51-3.77.74-6.07-.63,6.9-4.47,13.63-7.86,21.67-4.44,7.67,3.26,12.2,9.19,14.41,16.78,1.36,4.67.82,9.18-.78,13.77.51.24.99.59,1.53.71,6.98,1.59,10.75,5.99,11.96,12.4.39,2.04,1,3.5,3.03,3.91,3.63-2.79,6.95-5.76,10.7-8.13,5.62-3.55,11.74-4.94,18.58-2.97,7.71,2.22,12.35,6.78,13.63,14.74,1.86-1.83,3.37-3.29,4.85-4.77,2.68-2.67,6.13-4.07,9.8-4.94,6.49-1.55,13.41,1.61,16.24,7.41,1.06,2.19,1.73,4.54,2.71,6.77,3.07,7,5,7.9,13.37,5.82-.44,1.44-.45,2.78-1.16,3.55-1.73,1.89-4.14,3.26-6.8,2.61-2.4-.58-5.11-1.53-6.7-3.16-2.61-2.69-4.72-5.93-6.52-9.19-2.93-5.28-5.69-6.64-11.9-5.42-6.13,1.21-11.26,4.08-16.3,8.41-.59-1.83-1.16-3.34-1.57-4.89-2.34-8.86-8.65-12.52-18.23-10.12-4.16,1.04-8.1,2.84-12.14,4.31-3.66,1.33-7.19,2.86-11.37,2.53-2.53-.2-4.13-.96-4.99-3.13-.69-1.73-1.41-3.46-1.95-5.24-1.16-3.8-3.94-6.25-7.01-8.34-3.08,3.83-5.51,7.74-8.82,10.79-7.19,6.62-15.82,9.6-26,7.26-1.13-.26-2.35-.21-3.53-.31l.18.14h.03ZM101,148.84c-.05.99-.17,1.55-.1,2.09.6,4.43,2.83,5.83,7.14,4.29,2.11-.75,4.05-1.91,6.01-2.86-1.69-4.11-6.04-5.29-13.05-3.52h0ZM172.09,293.32c-.24.36-.47.72-.71,1.08.76.37,1.52.74,2.31,1.06.02,0,.44-.65.39-.69-.63-.52-1.32-.98-1.99-1.45h0Z"/>
  <path class="cls-1" d="M387.97,172.83c-.25-.15-.52-.28-.8-.4-1.92-.81-4.11-.7-6.13-1.25-5.7-1.58-7.04-7.59-7.19-12.75-.08-2.83.82-5.86.05-8.64-.3-1.07-2.66-5.7-4.3-5.09-1.85.69-3.62,1.96-5.23,1.79-2.4-.25-3.93-2.17-5.13-4.26-.69-1.2-1.88-2.59-3.15-2.96-5.55-1.64-8.91-5.3-11.4-9.94-.43-.8-.96-1.56-1.62-2.62-1.41,1.13-2.54,2.09-3.73,2.96-5.49,4.01-11.27,3.91-17.18.96-2.44-1.22-4.74-2.7-7.21-3.86-6.58-3.07-9.59-2.44-14.04,2.76.14-4.43,1.85-6.54,6.23-7.16,3.56-.5,7.1-.3,10.43,1.24,2.66,1.23,5.27,2.58,8.02,3.61,4.34,1.61,7.52.75,10.57-2.57.78-.84,1.43-1.79,2.25-2.6,3.8-3.73,7.73-3.48,10.69.92,1.47,2.18,2.38,4.68,3.55,7.03.58,1.17,1.08,2.39,1.8,3.48.71,1.08,1.64,2.04,2.61,3.22,2.11-3.92,4.09-7.61,6.21-11.56-5.05-1.38-9.47-3.98-13-7.9-4.9-5.45-6.63-11.75-5.74-18.71.59-4.63,3.16-6.45,8.06-5.88-4.13,3.41-3.73,7.39-2.34,11.71,2.07,6.45,6.01,11.24,12.76,13.74,4.62,1.71,8.9.92,11.68-2.75,2.14-2.82,4.21-6.02,5.05-9.34,3.56-14.08-12.03-22.63-21.6-20.15-.53.14-.96.57-1.96,1.19,1.21,2.42,2.42,4.83,3.86,7.71,1.55-.99,2.65-1.63,3.67-2.36,1.04-.74,2.02-1.56,3.36-2.6-.09,5.34-1.89,7.16-8.26,8.86-.54-1.12-.93-2.36-1.67-3.37-.77-1.05-2.14-1.75-2.78-2.85-3.33-5.69-6.72-11.37-9.7-17.23-5.29-10.41-4.58-21.27-2.05-32.18.59-2.54,1.29-5.05,2.03-7.55.87-2.97,2.67-5.43,5.31-7.2.95-.64,2.35-.66,4.52-1.22-.85,3.69-1.37,6.55-2.18,9.33-1.83,6.26-3.77,12.44-4.65,18.96-.52,3.82-.26,7.42.55,11.01,1.43,6.33,3.69,12.41,7.32,18.2,2.29-.93,4.21-1.79,6.19-2.5,6.81-2.44,13.02-1.14,18,3.6,6.35,6.04,9.19,13.33,6.68,21.91-.3,1.02-.48,2.07-.68,2.94h9.8c.07-6.87-.19-14.34,2.6-21.34,2.74-6.88,5.84-13.64,9.18-21.36,1.18,1.59,2.52,2.58,2.42,3.41-.28,2.34-1,4.66-1.84,6.9-2.15,5.76-4.94,11.35-6.61,17.23-2.79,9.85-2.53,19.88.46,29.68,1.58,5.17,4.48,9.81,9.59,13.49,1.57-1.67,2.97-3.14,4.33-4.59,2.67,4.85-.15,8.67-7.55,9.53.06-1.24.12-2.4.18-3.69-6.19-6.26-12.13-12.83-15.87-20.96-1.75-3.8-2.3-3.64-6.68-1.74-.9.39-2.16.06-3.65.06-2.65,3.65-6.25,6.67-11.31,7.88-.71.17-1.6.67-1.9,1.25-2.57,4.96-5.32,9.93-2.78,15.7,7.68-1.21,13,2.6,14.1,10.05.65,4.39.91,8.83,1.37,13.43,2.13,1.26,4.54.39,6.82.44,6.77.16,9.67,2.83,9.78,9.25,0,.56.07,1.13-.03,1.67-.6,3.57.69,5.98,4.33,7.58,8.71,3.84,10.2,9.92,5.46,17.87-1.38,2.32-2.81,6.97-5.3,8.07-1.93-2.88-2.04-4.51-1.59-7.8.39-2.85.93-5.74-1.26-8.06-1.83-1.94-4.9-2.46-6.42-4.65-1.42-2.04-1-4.77-.96-7.25.06-3.73-1.27-7.89-4.41-9.74h.01Z"/>
  <path class="cls-1" d="M181.45,135.92c.53,1.3.92,2.13,1.22,2.99,2.88,8.14-.28,16.6-8.02,21.36-6.56,4.03-13.79,5.48-21.51,4.57-4.98-.59-9.06-2.92-11.44-7.09-1.56-2.74-2.85-5.77-3.41-8.81-1.33-7.2-1.38-14.43,1.74-21.36,1.7-3.77,4.51-6.54,8.63-7.96,3.87-1.34,7.59-.11,10.23,3.44-1.33.1-2.45.21-3.57.25-5.02.19-8.32,2.45-8.94,7.17-.9,6.84-.92,13.72,2,20.31,1.46,3.3,4.01,4.91,7.72,5.13,4.25.25,8.23-.5,11.98-2.45,5.62-2.92,8.39-8.07,7.12-14-.77-3.58-1.88-7.1-3.1-11.61,2.48,1.8,4.22,3.06,6.16,4.48,3.61-2.23,7.26-3.91,12-2.36,4.48,1.47,5.45,5.7,8.45,8.05-.32,2.95-.63,5.83-.93,8.63,4.29,3.93,9.72,4.81,14.58,2.43,3.44-1.69,3.91-5.64.57-7.59-3.16-1.85-6.69-3.13-10.08-4.61-1.23-.54-2.52-.93-4.67-1.72,6.54-1.15,11.95-.19,17.57,1.29,1.33-5.95,5.33-8.38,12-7.29,1.63-5.51,3.76-10.54,11.24-9.76.65-1.48,1.14-2.89,1.87-4.18,1.69-2.97,4.4-4.68,7.95-5.15,1.36-.18,7.08-2.15,8.38-2.88.27-.15.71-.02,1.06-.02.17.35.56.78.46.95-3.16,5.18-2.76,9.36,1.36,13.65,6.07,6.33,14.36,6.63,20.9.79,6.75-6.03,8.62-13.6,7.55-21.94-.55-4.26-3.55-7.14-7.83-8.3-8.66-2.35-17.18-3.14-24.25,3.83-.23.22-.71.22-1.08.32.41-8.79,7.36-14.29,16.27-12.87,1.36.22,2.72.46,4.08.67,7.09,1.11,13.26,3.67,17.08,9.8,7.59-5.62,10.5-5.84,17.63-1.35,2.79-2.5,5.55-5.2,9.79-5.41,1.53-.08,3.11-.23,4.59.05,8.98,1.68,16.95,14.09,12.88,22.57-.93-1.72-1.79-3.11-2.45-4.58-1.52-3.4-4.22-5.78-7.38-7.77-4.9-3.08-9.78-2.4-14.47.33-1.01.59-1.43,2.03-2.17,3.06-1.27,1.77-.29,4.56-3.01,5.85-2.2-1-2.54-3.19-3.57-4.88-2.28-3.73-3.09-3.94-6.78-1.47-.96.64-1.88,1.32-2.59,1.82-.63,3.91-.83,7.66-1.87,11.19-1.95,6.59-5.49,12.32-11.96,16.03-9.7,5.57-21.99,2.14-27.15-7.61-.43-.81-.8-1.65-1.17-2.41-2.67.25-5.12.49-9.01.85,2-1.52,2.81-2.19,3.67-2.78.96-.65,1.98-1.23,3.49-2.16-4.12-1.9-5.89-.13-7.61,1.65-1.61,1.67-2.22,3.84-.98,5.67,2.1,3.08,3.16,6.02.66,9.23-2.29,2.94-5.56,4.03-9.33,4.01-.16,0-.32.18-.48.27-1.51,8.02-4.1,9.93-12.34,11.17-3.29,6.33-9.22,8.22-16.24,7.25-6.57-.91-12.02-3.57-13.61-11.12-1.69,1.23-2.93,2.13-4.54,3.29,3.18-9.05,2.32-10.97-5.35-10.89v-.02ZM221.83,143.41c1.66-1.23,3.51-2.27,4.91-3.7,1.97-2.01,1.82-4.12.02-5.9-1.69-1.69-3.88-1.97-5.79-.75-2.52,1.61-3.05,3.61-1.62,6.11.73,1.28,1.48,2.54,2.47,4.23h0ZM239.47,127.38c-1.13-2.03-2.41-3.53-4.79-3.94-2.55,2.35-2.29,4.86-1.25,7.47,3.35.82,5.07-.51,6.05-3.53h-.01Z"/>
  <path class="cls-1" d="M382.91,353.21c-2.32,6.28-6.53,11.79-13.23,15.29-7.55,3.95-15.57,5.23-23.99,2.9-8.91-2.47-15.18-10.3-15.52-19.09-.36-9.43,2.83-17.6,10.02-24.17,1.92-1.75,4.48-3.12,7-4,5.56-1.94,10.75.5,13.26,6.24-1.39-.66-2.39-1.14-3.38-1.62-4.42-2.13-9.07-1.46-12.12,2.09-5.66,6.6-7.79,14.24-6.12,22.52,1.29,6.37,6.38,10.08,15.09,10.04,9.12-.04,16.26-4.11,20.09-12.38,2.65-5.73,1.92-9.64-2.83-14.2-1.09-1.04-2.33-1.94-3.72-3.09-1.59,1.63-3.04,3.11-4.86,4.97,1.52.9,2.88,1.69,4.24,2.49-.15.28-.25.76-.49.85-2.66.95-5.08.16-7.26-1.22-1.41-.89-3.15-1.82-2.32-4.31,3.14,1.21,4.68-.68,5.44-3.07,1.01-3.18,2.34-6.5,2.25-9.72-.58-18.98-6.14-36.2-21.06-49.91-7.74-7.11-16.83-10.87-27.71-10.65-.77.02-1.55-.08-2.65-.15,11.16-4.53,23.45-1.72,31.17,3.63,9.78,6.77,15.81,16.06,20.22,26.35,4.34,10.13,5.9,20.76,5.04,31.67-.16,2-.71,3.97-1.07,5.92,9.97,4.68,15.24,11.41,15.81,20.2,3.22-3.63,6.62-7.24,9.71-11.08,1.2-1.49,3.47-2.84,2.34-5.3-.76-1.66.16-2.73,1.61-2.89,1.16-.13,2.77.34,3.59,1.1,1.67,1.56,1.8,3.8,1.05,5.77-.73,1.89-1.64,4.03-3.19,5.26-4.82,3.79-9.97,7.22-16.38,9.55h-.03Z"/>
  <path class="cls-1" d="M63.76,370.82c2.37-1.07,5.08-1.53,7.49-.62,8.19,3.09,7.9,17.62,3.63,23.53-2.55-5.42-1.69-12.06-3.69-17.73-1.42.63-2.42,1.07-3.42,1.51-1.97.86-3.87,1.89-5.91,2.54-6.8,2.18-12.28-2.09-10.53-8.68,1.52-5.71,4.13-11.18,6.38-16.71,1.83-4.5,3.98-8.88,5.7-13.42,1.05-2.79.83-5.55-2.37-7.25-7.95,1.98-12.35,6.46-18.25,18.79-.51-.78-1.1-1.29-1.19-1.87-3.64-25.64-4.58-51.41-3.64-77.24.11-2.94.79-5.87,1.42-8.77.18-.82,1.23-1.63,1.9-2,4.79,2.51,1.71,13.93,1.6,18.37-.18,7.5-.06,15,.38,22.49.39,6.68.96,13.37,1.91,19.99.57,3.99,2.48,8.24,2.07,12.23.12-1.17,5.6-5.06,6.69-5.84,6.08-4.31,15.29-.65,15.04,7.42-.28,9.08-5.17,19.35-9.34,27.21-.69,1.31-1.44,2.67-1.43,4.15s1.07,3.07,2.55,3.08c.78,0,1.48-.42,2.17-.78.28-.15.56-.28.85-.41h0Z"/>
  <path class="cls-1" d="M116.26,183.24c2.45,6.84,6.26,8.12,11.79,4.71,2.29-1.41,4.28-3.26,6.3-5.02,2.17-1.9,4.16-3.99,6.32-5.89,3.54-3.12,7.57-3.74,11.97-1.76,1.24.56,2.46,1.2,3.61,1.92,5.8,3.66,10.16,2.52,15.18-1.17,2.32-1.71,4.2-3.93,6.34-5.87,3.8-3.45,5.2-3.64,9.99-1.49.36.16.7.34,1.04.53,6.29,3.6,10.95,2.05,16.73-3.33,3.08-2.87,3.45-3.03,6.01.46,1.8,2.46,3.55,4.87,6.57,6.25,6.86,3.15,12.25.64,13.43-6.4.43-2.56.67-5.17,1.27-7.69.42-1.78,1.03-3.63,2.05-5.15,2.24-3.36,6.07-4.23,9.8-2.31,2.41,1.24,4.53,3.27,7.58,2.31,3.15-.99,5.25-3.24,6.96-5.81,1.15-1.73,2.3-3.46,3.37-5.24,2.16-3.58,5.1-5.53,9.7-4.58,5.6,1.17,9.99-.9,13.79-4.64,2.05-2.02,4.2-3.96,6.44-5.78,1.4-1.13,3.07-1.98,5.06-3.23-1.6,14.13-10.01,23.11-25.95,22.97-1.91,2.68-3.78,5.51-5.87,8.19-3.28,4.21-7.6,7.27-13.15,7.85-3.35.35-6.84-.53-10.74-.9-.55,2.13-1.25,4.6-1.83,7.08-3.08,13.11-19.07,14.62-27.08,7.64-2.57-2.24-4.6-5.01-6.98-7.65-1.07,1.06-2.14,2.14-3.24,3.19-4.24,4.07-9.41,5.08-14.61,2.55-4.09-1.99-6.46-.99-9.11,1.92-2.85,3.13-6.44,5.4-10.62,6.9-3.82,1.37-7.37.91-10.86-.66-2.31-1.04-4.55-2.25-6.74-3.51-2.73-1.57-5.24-1.3-7.58.6-2.85,2.3-5.71,4.6-8.41,7.05-2.63,2.39-5.62,4.09-9.12,4.97-4.38,1.1-9.08-.96-10.12-4.58-.29-1.01.32-2.25.7-4.45v.02Z"/>
  <path class="cls-1" d="M383.53,314.7c0-.55.3-1.9-.05-3.09-1.46-4.9.6-8.73,3.98-12.13,2.29-2.31,4.7-4.54,7.23-6.62,2.79-2.3,3.88-4.54,2.49-8.26-3.01-8-1.06-15.76,2.95-23.09.88-1.61,2.2-3.09,3.64-4.3.58-.49,2.02-.08,3.3-.08-1.19,3.72-2.26,7.03-3.31,10.34-1.69,5.35-1.61,10.73.83,15.79,2.8,5.82,1.12,10.41-3.43,14.54-.28.26-.54.55-.84.79-5.6,4.4-9.47,9.82-11,16.72,6.66,1.55,10.22,5.59,10.32,12.76-1.17-.45-2.28-.63-3.03-1.21-5.93-4.62-11.99-4.64-18.06.09-1.21.94-2.2,2.14-3.45,3.03-1.24.88-2.81.21-3.16-1.26-.55-2.32-.24-4.58,1.66-6.2,3.03-2.59,6.27-4.96,9.95-7.84l-.02.02Z"/>
  <path class="cls-1" d="M264.76,114.1c-.97-3.85-1.72-6.8-2.58-10.22-8.28,4.42-15.75,2.03-23.1-.94-6.9-2.78-12.65-7.05-16.39-13.23-5.12-8.45-6.01-17.2-.83-25.99.91-1.54,2.21-2.87,3.94-5.07,0,5.49.11,9.83-.02,14.16-.3,10.01,4.31,17.66,13.01,22.99,4.1,2.51,8.71,4.43,13.35,5.93,3.71,1.2,7.9,1.64,10.09-2.87,4.44.14,5.08,3.38,5.83,6.14.88,3.22-.49,5.97-3.3,9.11h0Z"/>
  <path class="cls-1" d="M159.65,130.71c2.25-4.69,4.49-9.39,6.76-14.08,4.55-9.4,7.16-19.24,7.15-29.6,0-6.67.22-13.32-1.17-19.98-1.7-8.15-10.56-15.66-20.8-16.33-1.96-.13-3.93-.02-6.26-.02,2.65-2.28,7.73-3.61,11.28-3.1,14.24,2.06,20.8,12.48,21.57,21.86.21,2.58.87,5.15.94,7.73.44,18.73-4.81,35.93-15.85,51.54-.72,1.01-1.78,1.81-2.69,2.7-.31-.24-.62-.49-.93-.73h0Z"/>
  <path class="cls-1" d="M122.72,299.88c-2.85.37-3.87-.93-3.88-3.13-.02-3.77,3.54-7.43,7.62-7.97,5.57-.74,10.06,1.04,13.5,5.17.84,1.01,1.67,2.1,2.21,3.27,1.51,3.31,3.59,6.1,7.43,7.56-3.6,2.38-6.58,2.29-10.11-.43-1.97-1.51-3.59-3.42-5.43-5.09-1.41-1.27-2.79-2.66-4.43-3.62-2.95-1.73-4.92-.91-6.21,2.29-.26.65-.48,1.32-.7,1.95h0Z"/>
  <path class="cls-1" d="M419.43,184.84c-1.36.27-2.45.48-3.47.68-1.88-1.71-1.9-3.56-.49-5.09,1.43-1.56,3.42-2.49,5.8-1.78,3.89,1.15,6.18,3.79,7.6,7.23,2.15,5.18.84,10.23-.9,15.17-.9,2.55-2.09,5.1-4.39,7.08-2.03-4.65-1.75-9.29-1.75-13.89,0-3.17-.11-6.29-2.41-9.39h.01Z"/>
  <path class="cls-1" d="M248.45,354.24c-6.87.2-12.45-4.25-13.22-10.24-.7-5.4,3.12-9.9,9.29-10.89,2.93-.47,5.43.36,7.37,2.49,1.6,1.76,1.5,3.62.36,5.75-.95-.18-1.7-.29-2.43-.47-4.18-1.08-6.94,1.14-5.95,5.03.45,1.76,1.5,3.39,2.39,5.03.6,1.1,1.39,2.11,2.19,3.31h0Z"/>
  <path class="cls-1" d="M403.4,323c3.32-5.83,7.88-10.82,8.96-17.16-.55-.68-.74-1.15-1.03-1.21-1.73-.38-3.79-.42-3.49-2.84.26-2.08,2.18-3.7,4.36-3.97,3.84-.47,7.63,2.31,8.28,6.44.28,1.78.26,3.81-.37,5.48-2.78,7.38-9.22,10.92-16.71,13.26h0Z"/>
  <path class="cls-1" d="M416.86,290.4c.52-2.08,1.08-4.14,1.55-6.23.79-3.42,1.87-6.82,2.18-10.28.3-3.33-.41-3.66-4.48-3.8-.93-2.32.15-3.85,2.2-5.07,1.81-1.08,3.46-.35,5.02.41,4.13,2.01,6.42,6.85,5.25,11.4-1.54,5.98-5.18,10.63-10.42,14.14-.44-.19-.88-.39-1.32-.58h.02Z"/>
  <path class="cls-1" d="M296.57,345.18c-2.65-.1-5.34-.59-7.89-.22-3.46.51-4.48,2.62-3.94,6.09.56,3.57,2.27,7.18-.21,11.14-2.8-3.1-5.48-6.12-7.11-9.78-1.51-3.4-.64-6.58,1.94-9.27,3.3-3.44,10.19-4.71,14.73-2.84,2.66,1.1,2.71,1.2,2.48,4.89h0Z"/>
  <path class="cls-1" d="M99.21,269.63c-.62,1.51-1.03,2.49-1.44,3.47-3.46-1.09-4.19-2.08-3.32-4.39,1.12-2.99,4.23-4.74,7.43-3.84,1.82.51,3.66,1.37,5.13,2.5,4.23,3.24,7.87,9.45,9.26,15.49-6.63-3.35-9.96-9.99-17.06-13.23h0Z"/>
  <path class="cls-1" d="M127.27,177.45c-4.14-2.82-2.98-6.81-4.18-10.38-2.47.34-4.81.66-7.83,1.07.38-1.57.29-2.79.9-3.46,4.59-5.11,12.71-4.1,14.78,1.85.45,1.29.24,2.87-.02,4.26-.24,1.25-.88,2.46-1.5,3.61-.52.96-1.26,1.81-2.15,3.05Z"/>
  <path class="cls-1" d="M197.7,342.49c-1.57-3.01.28-4.87,2.56-6.43,5.23-3.58,11.83-3.32,18.6.99-3.83,1.6-7.66.32-10.98,1.32-3.45,1.04-6.69,2.67-10.18,4.11h0Z"/>
  <path class="cls-1" d="M387.29,142.21c-3.85-5.63-3.15-12.18-9.67-15.08.95-.92,1.61-2.12,2.46-2.25,1.22-.19,3.02,0,3.79.74,1.44,1.39,3,3.21,3.28,5.01.52,3.36.15,6.84.15,11.58h0Z"/>
  <path class="cls-1" d="M84.35,323.24c-.12,1.7-.35,3.37-2.63,3.64-1.91.22-3.48-1.46-3.45-3.53.04-2.09,1.52-3.35,3.74-3.21,2.13.14,2.33,1.56,2.34,3.11h0Z"/>
  <path class="cls-1" d="M430.44,390.95c-.72,2.34-1.08,4.11-1.84,5.72-.31.65-1.51,1.36-2.23,1.29-.75-.07-1.74-.93-2.02-1.65-1.1-2.82.96-4.93,6.09-5.37h0Z"/>
  <path class="cls-1" d="M80.58,156.79c1.26-3.28,3.53-4.73,6.43-5.31,2.39-.47,4.18.42,4.91,2.63-3.62.86-7.21,1.7-11.35,2.68h.01Z"/>
  <path class="cls-1" d="M283.76,401.87c.46.47,1.74,1.21,2.07,2.22.49,1.53-2.18,3.65-3.93,3.05-1.06-.37-2.24-1.54-2.52-2.55-.42-1.53,1.55-2.86,4.38-2.71h0Z"/>
  <path class="cls-1" d="M405.04,415.01c-2.19,2.73-3.94,3.33-5.87,1.88-1.02-.76-1.32-1.83-.38-2.85,1.47-1.6,3.43-1.27,6.25.97Z"/>
  <path class="cls-1" d="M133.72,358.24c-1.66,1.42-2.57,2.73-3.79,3.09-1.4.42-2.55-.67-2.83-2.13-.29-1.49,1.01-3.16,2.6-2.96,1.14.14,2.17,1.03,4.03,2h-.01Z"/>
  <path class="cls-1" d="M142.9,372.15c.46.57,1.59,1.41,1.87,2.46.37,1.43-1.36,2.73-3.05,2.57-1.57-.14-2.51-.98-2.65-2.47-.13-1.36,1.53-2.72,3.83-2.56Z"/>
  <path class="cls-1" d="M89.18,345.71c-1.22-1.77-2.48-2.79-2.39-3.68.1-.95,1.31-2.2,2.34-2.57,1.65-.59,2.76.94,2.64,2.11-.12,1.17-1.34,2.24-2.6,4.13h.01Z"/>
  <path class="cls-1" d="M435.1,353.85c2.21.11,3.66,1.45,3.25,2.94-.23.85-1.26,1.85-2.15,2.12-1.37.4-2.82-1.22-2.54-2.9.14-.85,1.05-1.59,1.45-2.16h-.01Z"/>
  <path class="cls-1" d="M96.44,353.63c-2.19-.02-3.45-.67-3.65-2.44-.16-1.38.77-1.96,2.11-2.01,1.48-.05,3.2,1.37,2.97,2.68-.13.71-1.03,1.3-1.43,1.77h0Z"/>
  <path class="cls-1" d="M213.74,403.24c.19,2.13-.52,3.21-2.2,2.94-.88-.14-2.16-1.03-2.3-1.75-.28-1.38.8-2.53,2.34-2.46.85.04,1.66.95,2.16,1.26h0Z"/>
  <path class="cls-1" d="M301.34,433.5c1.09,1.33,2.44,2.42,2.24,2.84-.47.97-1.59,1.86-2.67,2.27-.37.14-2.09-1.39-1.97-1.92.22-1,1.32-1.84,2.41-3.19h0Z"/>
  <path class="cls-1" d="M106.58,362.17c-1.8,2.01-3.46,2.33-4.96.35-.35-.46-.04-1.98.47-2.31,2.61-1.68,3.12.74,4.49,1.96Z"/>
  <path class="cls-1" d="M116.39,363.01c.94,1.11,2.12,1.92,2.02,2.54-.14.85-1.1,1.85-1.99,2.26-1.06.5-2.77-1.1-2.39-2.3.26-.82,1.29-1.42,2.36-2.5h0Z"/>
  <path class="cls-1" d="M178.73,405.11c-1.28,1-1.92,1.9-2.68,2-1.65.21-2.64-.89-2.51-2.35.06-.65,1.3-1.83,1.66-1.72,1.11.33,2.06,1.15,3.53,2.08h0Z"/>
  <path class="cls-1" d="M52.76,306.85c-2.44-1.15-3.88-1.9-3.99-3.75-.03-.55.54-1.46,1.05-1.62.53-.17,1.76.2,1.92.59.48,1.23.6,2.58,1.03,4.77h0Z"/>
  <path class="cls-1" d="M415.91,405.87c.99,1.19,1.96,1.88,2.2,2.75.33,1.23-.62,2.26-1.95,1.95-.91-.21-2.11-1.17-2.24-1.93-.11-.69,1.06-1.56,1.98-2.77h0Z"/>
  <path class="cls-1" d="M264.95,422.33c-.13,1.78-.06,3.04-.4,4.2-.12.41-1.3.86-1.86.74s-1.26-.88-1.36-1.44c-.35-2.03,1.02-2.92,3.62-3.49h0Z"/>
  <path class="cls-1" d="M245.58,427.79c-1.26,2.14-2.98,2.45-4.84,1.33-.4-.24-.44-1.97-.05-2.23,1.84-1.25,3.5-.74,4.89.9h0Z"/>
  <path class="cls-1" d="M429.01,364.27c.92,1.13,1.53,1.86,2.13,2.6-.71.48-1.51,1.43-2.09,1.32-.94-.17-1.74-1.05-2.59-1.62.72-.65,1.45-1.3,2.56-2.29h-.01Z"/>
  <path class="cls-1" d="M357.89,437.55c-1.25.81-2.07,1.68-3,1.8-.5.07-1.83-1.45-1.68-1.72.44-.82,1.34-1.67,2.24-1.91.48-.13,1.34.96,2.44,1.83h0Z"/>
  <path class="cls-1" d="M329.57,442.38c1.55-2.21,3.31-1.64,5.39-.72-1.69,2.14-3.48,2.38-5.39.72Z"/>
  <path class="cls-1" d="M314.36,445.16c-2.72-1.82-2.55-3.32-.25-5.06,2.36,1.46,2.71,2.91.25,5.06Z"/>
  <path class="cls-1" d="M367.59,429.11c1.31,1.26,2.11,2.52.2,3.59-.58.33-2.2.13-2.43-.28-1.23-2.19.68-2.65,2.23-3.31h0Z"/>
  <path class="cls-1" d="M161.42,401.39c-1.11-1.19-2.11-1.79-2.12-2.4,0-.72.84-1.46,1.31-2.18.63.56,1.6,1.04,1.81,1.71.18.62-.46,1.45-1,2.87Z"/>
  <path class="cls-1" d="M386.57,408.95c1.34-1.69,2.61-2.2,3.91-.67.32.38.21,1.59-.17,1.89-1.58,1.24-2.73.43-3.74-1.22Z"/>
  <path class="cls-1" d="M269.97,415.81c1.19-1.56,2.37-2.35,3.86-.97.37.34.42,1.54.08,1.88-1.42,1.44-2.63.71-3.94-.92h0Z"/>
  <path class="cls-1" d="M374.67,414.49c1.69.97,2.68,2.03,1.28,3.56-.33.36-1.65.47-2.03.16-1.54-1.22-1.26-2.46.76-3.72h-.01Z"/>
  <path class="cls-1" d="M216.66,417.94c1.16-.92,1.93-1.53,2.7-2.14.51.7,1.41,1.4,1.4,2.09,0,.59-1,1.56-1.66,1.64-.6.07-1.33-.82-2.43-1.59h0Z"/>
  <path class="cls-1" d="M291.66,423.71c-1.68-.97-2.28-2.04-1.2-3.29.34-.39,1.67-.6,2.01-.32,1.57,1.32.91,2.49-.81,3.6h0Z"/>
  <path class="cls-1" d="M60.7,319.74c-.95-.76-1.61-1.29-2.26-1.82.72-.69,1.35-1.61,2.22-1.94.34-.13,1.61.99,1.78,1.7.12.46-.96,1.19-1.74,2.06Z"/>
  <path class="cls-1" d="M430.53,383.58c-1.88-.88-2.21-2.12-.99-3.73,2.08.85,2.24,2.1.99,3.73Z"/>
  <path class="cls-1" d="M150.64,394.12c-.41-1.7-.67-2.76-.92-3.81.8-.21,1.24-.48,1.47-.37,2.09,1.03,2.38,2.23-.55,4.18Z"/>
  <path class="cls-1" d="M188.01,399.75c.37-1.47.76-2.94,2.89-2.14.47.18,1.02,1.35.81,1.71-.89,1.55-2.18,1.91-3.7.43h0Z"/>
  <path class="cls-1" d="M76.75,312.99c-1.44.72-2.17,1.35-2.92,1.37-.45.01-1.29-.92-1.3-1.43,0-.49.88-1.4,1.33-1.37.75.04,1.46.68,2.89,1.44h0Z"/>
  <path class="cls-1" d="M202.54,391.12c-1.21.81-1.95,1.68-2.53,1.6-.62-.09-1.29-1.02-1.53-1.71-.1-.29.91-1.3,1.36-1.27.74.05,1.43.69,2.71,1.38h-.01Z"/>
  <path class="cls-1" d="M227.58,424.27c.52.21,1.14.38,1.13.48-.05.45-.29.88-.45,1.31-.34-.13-.96-.24-.97-.41-.04-.44.17-.89.3-1.38h-.01Z"/>
</svg>