<?xml version="1.0" encoding="UTF-8"?>
<svg id="Layer_1" data-name="Layer 1" xmlns="http://www.w3.org/2000/svg" version="1.1" viewBox="0 0 489.99 585.66">
  <defs>
    <style>
      .cls-1 {
        fill: #000;
        stroke-width: 0px;
      }
    </style>
  </defs>
  <path class="cls-1" d="M224.82,107.06c12.35-1.41,21.94.4,25.19,12.46,1.95-.48,3.82-.95,5.52-1.37,1.88-4.86-3.03-2.78-4.75-4.85,1.73-1.17,3.41-2.3,5.73-3.86.18-2.05.39-4.53.63-7,1.12-11.59,4.51-22.76,9.72-33.56,2.67-5.52,6.17-10.57,11.2-14.55,3.98-3.15,8.34-5.21,13.48-4.8,3.52.28,5.91,1.78,7.49,6.11-6.52-3.15-10.7-.36-14.52,3.66-5.42,5.7-9.56,12.12-12.57,19.11-4.1,9.52-6.87,19.26-7.51,29.39,3.5.62,6.71.95,9.72,1.78,3.06.84,5.93,2.18,9.1,3.39.87-2.6,1.48-5.45,2.8-8.02,1.15-2.25,2.85-4.41,4.75-6.17,2.18-2.03,4.44-1.76,6.16,1.06-4.99,4.57-5.47,10.09-4.55,16.03,1.15,7.45,4.28,13.7,10.36,18.18,4.34,3.2,9.39,2.93,14.64-.68,6.95-4.78,11.08-11.44,13.29-19.02.87-2.96.32-5.83-2.86-7.43-.86-.44-2-1.2-2.1-1.99-.43-3.38-3.4-3.65-5.99-5.05-2.65,5.48-4.32,11.35-11.04,13.45-2.9.91-4.43.67-10.1-1.86.18-1.05.34-2.23.59-3.41.26-1.19.95-2.41.89-3.56-1.07-21.61,4.21-42.38,14.53-62.36,2.76-5.35,6.51-10.34,10.14-15.28,1.37-1.87,3.53-3.43,5.63-4.61,4.34-2.45,7.06-1.51,8.73,2.64.38.93.57,1.96.72,2.97.05.34-.3.76-.73,1.72-1.36-1.42-2.58-2.71-3.77-3.95-15.49,10.04-30.01,48.02-30.43,66.93,7.96-2.48,15.88-4.25,23.74-1.67,8,2.62,11.72,8.76,14.2,16.1,6.25,1.54,12.5,2.9,18.62,4.62,10.74,3.03,20.73,7.3,29.18,14.27,4.12,3.4,7.14,7.45,8.69,12.39,4.97,15.8,5.69,34.42,6.17,51.05.61,21.13,1.21,41.6-1.6,62.54-1.31,9.79-3.4,19.54-5.19,29.31-.14.75-.69,1.46-1.65,3.39-.75-2.63-1.55-4.18-1.61-5.81-.4-12.85-.92-25.7-.88-38.59.03-9.99,1.08-20.06,1.17-30.06.12-14.56,1.78-29.24-.22-43.79-.55.34-1.25.54-1.54.97-8.87,13.4-21.93,21.15-36.97,26.15-15.5,5.15-31.32,8.04-47.34,9.93-19.98,2.36-39.92,3.65-59.76,2.95-30.1-1.07-59.75-4.14-87.63-13.97-16.29-5.75-31.42-13.28-44.55-23.94-5.65-4.59-10.6-9.74-14.4-15.87-.63-1.02-1.24-2.05-2.33-3.86-.36,2.11-.72,3.28-.72,4.42,0,7.28.03,14.55.12,21.82.06,4.99.31,9.96.34,14.94.1,17.47,1.38,34.77,3,52.05.86,9.25,1.13,18.59,1.79,27.86.47,6.58,1.19,13.12,1.73,19.69.07.89-.3,1.84-1.63,2.96-1.13-4.21-2.43-8.38-3.37-12.64-3.22-14.61-6.28-29.26-7.47-44.32-.83-10.5-1.57-21.04-1.74-31.61-.23-14.33-.23-28.7.36-43.08.28-6.82,2.11-13.71,3.31-20.56.29-1.65,1.03-3.27,1.28-4.92,2.04-13.76,10.6-20.02,22.93-27.11,13.14-7.56,28.35-8.09,42.7-10.79,11.1-2.09,22.35-2.16,33.43-1.93,1.76.04,12.71-.86,13.46.81,1.38,3.06-3.87,4.65-6.09,4.38-6.82-.82-13.92-.61-20.93-.26-4.7.23-9.82.89-14.46,1.92-4.19.93-7.99,2.67-12.35,3.01-3.72.29-7.61,1.76-11.25,2.89-7.93,2.45-15.75,5.38-23.21,9.11-9.14,4.57-15.95,13.78-10.79,23.95,3.23,6.36,8.06,11.29,13.67,15.58,15.16,11.59,32.82,18.95,51.73,23.93,17.99,4.73,36.46,7.68,55.5,8.23,11.33.33,22.63,1.27,34,.92,25.61-.79,51.24-2.75,76.56-9.42,9.27-2.44,18.41-5.36,26.48-10.95,7.94-5.51,13.18-12.46,14.01-21.82.35-3.98-.37-7.56-3.17-10.26-4.28-4.12-8.41-8.53-13.38-11.8-6.39-4.2-13.54-7.42-20.4-11-.87-.45-1.96-.55-3.38-.93-.66,1.6-1.24,2.91-1.75,4.24-3.81,9.89-9.47,18.48-19.2,24.39-8.65,5.25-16.78,4.72-24.67.26-1.42-.81-2.74-1.78-4.5-2.93-1.05,2.29-1.87,4.19-2.78,6.05-3.64,7.37-8.68,13.72-16.02,18.16-16.12,9.75-39.83,4.36-42.86-15.84-4.31.72-8.61,1.73-12.92,2.11-13.32,1.18-22.94-6.15-25.07-16.81-1.2-5.99-.39-12.01,3.07-17.7,4.09-6.71,10.5-9.29,17.93-7.3.97.26,1.98.42,3.25.69.38-1.21.85-2.19.98-3.18,2.02-16.14,2.84-32.21-.84-47.79-1.21-5.14-3.41-10.03-5.5-14.87-2.27-5.26-6.26-6.64-12.63-2.18-.55.38-1.04.84-1.59,1.24-.54.39-1.11.74-1.99,1.31-1.05-2.82,1.47-4.31,2.76-5.88,1.49-1.82,3.45-3.57,5.56-4.63,4.69-2.36,9.2-1.58,12.63,1.56,2.38,2.18,4.43,4.89,5.85,7.76,3.57,7.2,5.11,15.14,5.35,23.25.26,8.49.03,17.06-.53,25.6-.33,4.97-1.73,9.95-2.82,15.84l.04-.03ZM256.22,122.59c-4.4.47-6.33,2.66-7.24,6.17-1.14,4.39-3.12,8.6-6.91,11.61-3.1,2.46-2.87,4.95-2.16,7.9.86,3.59,2.86,6.47,6,8.23,6.76,3.78,14.2,4.57,21.76.53,8.17-4.38,12.92-11.38,15.22-19.75,1.11-4.06.66-7.91-2.17-11.09-3.74-4.19-8.27-7.43-13.64-9.55-1.15-.45-2.72-.08-4.66-.09.67,2.53,1.58,4.45,1.59,6.43,0,2.1-.86,4.26-1.58,7.45,4.31-2.5,7.46-4.33,10.95-6.36-2.58,9.68-11.24,13.88-19.73,9.98-.36-.16-.3-1.06-.52-1.99,1.78-.54,3.39-1.02,5.13-1.55-.65-2.53-1.29-5.06-2.02-7.93h-.02ZM216.64,112.25c-7.98.17-11.77,2.21-13.31,7.35-1.44,4.82-1.68,9.68,1.32,13.77,1.28,1.75,2.97,3.54,4.97,4.41,7.64,3.34,19.46-.36,24.54-6.82,3.18-4.05,3.3-8.7,0-12.02-2.9-2.92-6.42-5.04-11.18-5.61-1.12,2.69-2.17,5.2-3.22,7.74,1.81,1.69,3.47,3.24,6.28,5.86-4.48.1-7.32.46-10.02.15-3.47-.4-6.22-2.8-5.87-4.62.59-3.04,3.58-2.75,5.91-3.6l.59-6.61h-.01ZM304.09,96.32c-.67,3.69-1.81,7.22-.53,11.03,5.33-1.56,9.3-4.44,13.29-8.31-4.12-2.06-7.91-3.4-12.76-2.72Z"/>
  <path class="cls-1" d="M203.06,558.49c18.34.79,36.76.74,55.51-.15,18.38-.87,36.78-2.08,55.17-3.12,15.36-.87,30.61-3.26,45.78-6.5,21.79-4.65,41.78-14.02,60.57-26.09,11.35-7.29,19.25-15.35,27.77-25.39,8.2-9.66,12.56-22.49,11.95-35.14-1.34-.64-2.94.21-3.92,1.33-5.46,6.23-7.3,2.11-13.47,4.17-2.81.94-4.77,4.6-7.89,5.72s-6.66.97-9.89-.17c-2.89-1.02-4.98-.02-6.7,2.58-3.39,5.11-6.88,10.17-10.42,15.19-1.64,2.33-3.3,4.71-5.28,6.77-5.06,5.26-11.53,5.38-15.87.28-1.98-2.33-3.37-5.11-5.24-7.54-4.23-5.52-8.98-5.89-15.05-1.2-2.32,1.79-4.57,3.92-6.25,6.28-.57.8-.85,1.68-1.37,2.49-.69,1.08-1.74,1.92-2.4,3.03-.72,1.2-1.12,2.56-1.15,3.9-4.12.82-1.84-5.45-.93-7.26,2.87-5.7,6.95-10.63,12.28-14.56,5.66-4.17,12.28-4.55,17.63-.79,2.17,1.53,3.93,3.58,5.81,5.45,1.27,1.25,2.43,2.6,4.13,4.44,2-2.94,3.67-5.21,5.12-7.59,2.74-4.47,5.25-9.06,8.07-13.49,1.4-2.2,3.12-4.28,4.96-6.17,4.69-4.82,10.11-6.17,16.26-4.01,3.09,1.08,6.33,2.95,10.12-.95-1.42-5.81-.09-11.94,3.09-17.76,4.12-7.53,10.95-15.31,19.86-15.25.42,0,.89,0,1.2-.29.33-.3.37-.8.38-1.25.46-15.24.92-30.47,1.39-45.71.16-5.29-1.99-9.34-2.42-14.28-.58-6.73.7-14.22,1.02-20.99.07-1.4-.1-2.79-.17-4.61,2.9.44,3.71,2.37,4.14,4.57.91,4.62,2.04,9.21,2.57,13.91,1.28,11.47,2.34,22.98,3.31,34.5.36,4.32.39,8.71.27,13.08-.27,10.02-.72,20.04-1.09,30.06-.23,6.26-.35,12.51-.65,18.78-.9,18.54-7.24,36.78-18.36,52.81-5.09,7.34-10.71,15.82-17.78,21.54s-14.82,9.13-22.02,13.99c-11,7.43-23.41,12.57-36.13,15.91-12.03,3.17-24.23,5-36.49,6.51-23.43,2.88-46.88,3.37-70.23,3.42-22.3.05-44.74.89-66.92-.86-19.02-1.5-38.08-2.8-56.63-6.5-22.01-4.38-42.95-11.02-60.78-23.84-4.47-3.22-5.87-4.8-7.53-9.19,1.6.75,2.64,1.16,3.58,1.7,21.92,12.58,45.67,20.89,71.75,24.12,16.5,2.04,32.89,3.42,49.33,4.13h0ZM451.1,459.51c3.67-.37,7.41-2.66,9.27-5.28,2.79-3.92,3.6-9.17,2.12-13.75-.46-1.42-1.14-2.79-2.14-3.89-8.13-8.99-13.43,7.26-16.14,13.74-1.07,2.55-1.14,5.94,1.03,7.65,1.69,1.33,3.76,1.74,5.85,1.53h.01Z"/>
  <path class="cls-1" d="M74.15,300.17c-16.84,3.75-28.05,21.76-19.72,38.73,5.27,10.74,13.67,18.81,24.11,24.93,14.68,8.61,31.05,13.81,47.92,17.89,18.48,4.47,37.23,7.98,56.24,10.64,14.11,1.98,28.35,3.14,42.62,4.32,12.68,1.05,25.37.24,38.03-.75,18.6-1.46,37.12-4.92,55.47-9.37,26.78-6.49,53.31-13.93,78.89-24.85,14.86-6.34,29.38-13.4,42.09-23.53,4.15-3.31,7.81-7.25,11.44-11.11,3.9-4.14,3.71-8.5,1.01-12.71-2.53-3.96-5.94-7.04-10.85-9.61.31,1.96.66,3.31.72,4.69.28,6.48-1.97,12.05-7.99,16.05-3.54,2.35-7.29,3.29-11.18,1.53-3.97-1.79-6.14-4.81-6.32-9.09-.25-6.19,3.99-11.67,10.36-13.49.85-.24,1.76-.2,2.62-.39.63-.14,1.23-.47,2.39-.93-.91-2.37-1.79-4.67-2.75-7.21,1.01-.19,1.74-.54,2.19-.37,7.24,2.84,14.59,5.52,21.62,8.74,3.55,1.63,7.01,3.85,9.65,6.57,4.95,5.08,6.12,11.39,2.9,18.44-2.29,5-5.68,9.3-9.81,13.14-11.06,10.28-23.81,18.11-37.33,24.82-26.82,13.31-55.04,22.28-83.73,29.56-13.75,3.49-27.63,6.4-41.51,9.08-13.04,2.52-26.16,4.29-39.33,4.54-6.12.12-12.31.89-18.39.67-17.41-.62-34.66-2.06-51.76-4.63-18.76-2.81-37.3-6.26-55.57-10.7-14.96-3.63-29.61-8.06-43.32-14.47-15.44-7.22-28.98-16.58-37.41-31.37-3.28-5.75-5.4-11.88-6.16-18.5-1.5-13.06,8.49-28.86,21.24-33.73,5.95-2.27,7.7-1.96,11.63,2.48h0ZM431.81,307.78c-5.95,3.46-6.24,4.04-4.95,9.44,3.88-2.02,4.99-4.99,4.95-9.44Z"/>
  <path class="cls-1" d="M271.82,281.86c1.62-2.71,3.08-4.6,3.93-6.68,2.99-7.34,5.56-14.81,8.71-22.1,2.55-5.91,5.54-11.7,8.67-17.39,1.11-2.02,2.97-3.89,4.89-5.32,5.05-3.75,9.31-1.52,11.19,1.62,1.43,2.39,2.32,5.24,2.74,8.04,1.22,8.13,1.94,16.37,3.14,24.5.6,4.06,1.71,8.02,2.82,11.95.47,1.66,1.53,3.12,2.51,5.03,5.52-5.04,7.95-10.85,10.13-16.62,3.78-10,7.09-20.14,10.66-30.2,1.07-3.02,2.29-6.01,3.63-8.94.71-1.56,1.67-3.08,2.78-4.44,4.45-5.42,11.57-5.2,14.3.66,1.26,2.7,1.78,5.88,2.02,8.93.52,6.8.62,13.66.97,20.49.09,1.82.48,3.61.82,5.98,7.76-7.01,11.52-15.93,18.56-23.94,0,2.04.33,3.22-.06,4.18-3.27,8.15-6.57,16.29-10.1,24.36-.93,2.13-2.46,4.18-4.13,5.91-5.03,5.2-12.05,4.44-15.05-1.52-2.73-5.44-2.37-11.6-3-17.53-.15-1.43,0-2.91-.68-4.5-1.84,5.19-3.44,10.46-5.56,15.56-3.22,7.72-6.51,15.45-10.39,22.92-1.64,3.15-4.62,5.88-7.41,8.39-5.49,4.94-12.4,4.23-16.78-.5-2.86-3.09-4.43-6.78-5.61-10.75-2.64-8.89-3.09-18.21-3.94-27.46-.26-2.87-.54-5.74-.87-9.28-4.51,7.1-6.41,14.31-9.24,21.21-2.28,5.55-4.33,11.18-6.8,16.67-1.13,2.52-2.76,4.97-4.6,7.12-4.62,5.42-11.8,5.99-16.74,1.62-4.02-3.55-5.95-8.28-7.24-13.27-1.95-7.58-2.37-15.43-2.01-23.4.19-4.11-.09-8.2-.16-12.7-4.72,1.62-7.04,4.58-8.46,7.98-2.47,5.92-4.65,11.95-6.75,17.98-2.81,8.08-5.42,16.25-10.41,23.55-1.95,2.85-4.47,5.53-7.22,7.71-5.85,4.65-13.39,4.32-18.42-.44-4.51-4.27-6.37-9.88-7.54-15.79-1.66-8.3-1.67-16.82-1.65-25.35,0-4.34-.19-8.66-.32-14.33-1.79,2.05-3.04,2.95-3.51,4.1-3.08,7.54-5.99,15.12-8.95,22.69-1.71,4.39-3.34,8.8-5.13,13.16-.73,1.78-1.69,3.51-2.75,5.16-5.87,9.18-14.76,9.28-20.84,1.78-4.05-5-6.21-11.09-7.07-17.45-1.27-9.37-1.86-18.87-2.84-28.3-.53-5.12-1.07-10.25-1.98-15.29-.43-2.35-1.26-5.23-4.35-5.35-3.27-.13-4.24,2.94-5.23,5.2-4.32,9.78-6.29,19.91-6.63,30.19-.07,2.16.9,4.26,1.62,7.37-1.56-.98-3.02-1.36-3.19-2.1-.83-3.56-1.86-7.18-1.79-10.83.14-7.5.76-15.08,3.25-22.44,1.15-3.4,2.68-6.84,4.74-9.87,4.06-5.99,10.7-6.72,15.61-1.97,3.36,3.25,5.01,7.5,5.68,12.01,1.25,8.33,2.1,16.75,3.09,25.14,1.04,8.83,2.31,17.6,6.97,25.27.51.84,1.27,1.52,2.33,2.78,1.14-1.76,2.3-3.05,2.87-4.51,2.42-6.18,4.57-12.43,6.99-18.61,2.42-6.17,4.78-12.4,7.72-18.38,1.49-3.02,3.85-5.93,6.45-8.24,5.66-5.03,12.37-4.16,16.04,1.75,2.22,3.57,2.48,7.73,2.66,11.89.42,9.73.62,19.48,1.44,29.15.3,3.61,1.63,7.23,3.27,10.45,1.97,3.88,4.64,3.95,7.51.35,2.31-2.9,4.35-6.13,5.8-9.44,2.58-5.9,4.61-11.98,6.9-17.98,1.83-4.79,3.49-9.65,5.62-14.34,2.09-4.61,5.37-8.68,9.9-11.35,2.78-1.64,6.1-2.87,9.24-3.28,4.67-.61,8.09,1.64,9.02,5.98.94,4.37,1.06,8.97,1.37,13.49.43,6.39.41,12.86,1.14,19.19.49,4.25,1.61,8.48,5.68,12.76l.02-.04Z"/>
  <path class="cls-1" d="M42.48,492.45c-.28,5.18,1.71,10.3,4.43,15.35,1.77,3.29,3.81,6.44,5.61,9.71,1.24,2.25,2.47,7.81,4.34,9.34-.8-.65-1.7-1.22-2.38-1.97-4.15-4.54-8.36-9.04-12.36-13.7-8.9-10.37-13.33-22.79-15.33-36.23-1.66-11.2-2.34-22.54-2.59-33.97-.5-22.73,1.4-45.5,4.05-68.27.92-7.89,2.92-15.76,4.41-23.63.33-1.74.88-3.3,3.25-4.08,2,1.39,1.99,3.64,1.91,5.91-.24,6.88-.51,13.77-.73,20.65-.52,16.9-1.35,33.81-1.4,50.67-.03,11.21,1.09,22.33,1.64,33.49.4,8.06.72,16.13,1.12,25.15,1.5-1.76,2.49-2.77,3.3-3.89,4.71-6.48,10.09-12.32,17.26-16.43,1.93-1.11,3.94-2.18,6.01-2.94,6.81-2.48,12.31-.87,15.33,5.01,1.94,3.76,2.8,8.07,4.36,12.05,1.93,4.92,4.04,9.77,6.17,14.61.48,1.1,1.3,2.08,2.11,2.99,3.61,4,5.78,4.29,10.59.95,3.85-2.68,7.38-5.8,11.18-8.55,3.25-2.35,6.52-4.8,10.08-6.58,5.05-2.54,9.24-2,12.37,1.64,4.9,5.72,8.31,12.33,11.05,20.89-4.49-2.07-6.08-5.26-8.74-7.23-2.79-2.07-5.61-4.13-8.77-6.46-3.2,2.31-6.07,4.37-8.92,6.45-4.51,3.29-9.01,6.59-13.53,9.87-6.65,4.82-16.94,4.32-22.96-2.42-4.74-5.3-7.49-11.63-9.44-18.37-1.08-3.73-1.8-7.58-2.9-11.3-.62-2.09-1.69-4.02-2.47-5.84-10.58,1.19-18.59,9.1-24.4,17.2-2.39,3.33-3.48,6.64-3.65,9.93h0Z"/>
  <path class="cls-1" d="M121.03,310.05c1.31.55,2.36.8,3.18,1.35,11.22,7.57,24.47,10.9,37.8,13.97s26.94,5.11,40.67,6.79c17.61,2.17,35.33,3.58,53.25,3.64,26.33.09,52.49-3.09,78.34-10.54,14.09-4.06,28.21-8.01,42.2-12.41,6.1-1.92,11.93-4.86,19.15-7.86-1.44,1.72-2.09,2.62-2.86,3.4-6.64,6.75-14.46,11.79-23.02,15.95-21.15,10.28-43.24,16.51-66.16,19.72-16.44,2.31-32.88,3.68-49.21,2.95-14.1-.63-28.1-2.14-42.1-3.49-17.26-1.66-34.06-5.03-50.61-9.23-10.77-2.73-21.28-6.07-30.76-11.47-3.06-1.74-5.88-3.89-8.6-6.08-1.77-1.43-3.09-3.3-1.27-6.71v.02Z"/>
  <path class="cls-1" d="M312.2,491.12c1.37,1.17,2.58,2.2,3.63,3.09,1.92-2.33,3.56-4.69,5.58-6.7,4.46-4.44,9.84-5.16,15.28-3.49,9.1,2.79,12.99,11.97,9.55,21-3.37,8.85-14.16,18.57-27.35,19.49-9.87.69-16.27-5.48-16.64-15.38-.09-2.46.4-4.98.72-8.6-2.87,3.55-4.78,6.37-7.17,8.75-2.8,2.79-5.74,5.65-9.11,7.67-8.32,5.01-17.67,3.33-23.05-3.81-1.95-2.59-3.52-5.46-5.62-8.77-2.45,2.57-4.74,5.15-7.23,7.55-3.84,3.7-7.55,7.61-11.8,10.82-5.51,4.16-11.64,6.75-18.45,4.1-3.26-1.27-5.88-3.3-7.38-6.29-1.91-3.81-3.53-7.77-5.21-11.7-2.31-5.41-5.34-6.37-10.49-2.51-2.94,2.21-5.25,5.29-7.61,8.15-2.26,2.74-2.21,5.39,1.32,7.57-3.48.96-4.59-.68-5.23-2.65-.3-.92,0-2.06.06-3.1.3-5.91,10.19-15.78,16.18-16.99,3.16-.64,6.25-.45,8.2,2.19,1.81,2.45,3.37,5.07,5.05,7.61,1.79,2.71,3.32,5.63,5.45,8.06,2.42,2.76,5.37,3.1,8.73,1.04,2.82-1.73,5.56-3.81,7.82-6.18,4.58-4.82,8.79-9.95,13.19-14.92,1.02-1.15,2.05-2.36,3.29-3.28,5.68-4.21,10.86-3.16,14.19,2.28,1.28,2.08,2.2,4.38,3.44,6.48,3.37,5.67,6.6,6.93,13.43,4.73,3.35-1.08,6.55-2.75,9.72-4.35,2.76-1.39,5.45-2.98,8.05-4.66,1.2-.78,2.38-1.84,3.12-3.01,1.39-2.21,3.22-3.56,6.35-4.21v.02ZM311.75,493.71c-4.39,5.29-4.79,10.82-3.35,16.25,1.71,6.47,7.4,8.69,14.1,5.75,2.81-1.23,5.62-2.85,7.89-4.86,2.08-1.83,3.92-4.25,5.01-6.7,1.66-3.73.46-6.58-2.69-8.57-3.07-1.94-6.36-1.88-9.53.96-2.42,2.17-4.14,5.04-6.3,7.5-1.13,1.29-1.35,3.48-4.34,4.15.68-3.2,1.01-5.89,1.87-8.46.89-2.65.45-4.47-2.67-6.02h0Z"/>
  <path class="cls-1" d="M85.75,316.2c1.04,0,2.09.04,3.08.35,1.2.37,2.25,1.13,3.19,1.97,7.42,6.64,7.96,19.06-1.81,23.53-8.99,4.11-20.72,1.08-24.86-6.83-2.88-5.51-1.48-12.48,2.83-16.87,4.03-4.12,11.8-2.14,17.18-2.15h.4-.01ZM79.18,321.74c-2.96-.33-5.82.52-7.56,3.71-3.69,6.76,5.48,9.26,10.06,9.86s10.17-3.6,6.87-9.17c-.33-.56-.89-.93-1.44-1.29-2.16-1.42-5.09-2.8-7.93-3.11h0Z"/>
  <path class="cls-1" d="M162.43,525.52c-7.47.47-13.78-4.32-12.87-13.09.4-3.89,1.49-7.85,2.91-11.6,1.02-2.71,2.65-5.36,6.47-5.93,1.47-.22,2.98-1.82,4.19-3.04,3.92-3.96,8.5-3.98,12.78-2.39,9.38,3.5,14.63,13.22,8.11,23.85-4.5,7.33-13.1,12.27-21.59,12.2h0ZM155.17,507.97c-.05,1.76-.18,2.61-.08,3.42.13,1.02.38,2.02.69,2.99.93,2.98,3.42,4.64,6.66,4.48,5.2-.26,11.42-4.6,13.69-9.36,2.43-5.1-.66-8.25-3.42-11.54-.52-.62-1.12-1.21-1.79-1.69-3.85-2.73-10.82-.95-12.9,3.51-1.35,2.9-2.11,6.02-2.85,8.19h0Z"/>
  <path class="cls-1" d="M317.64,369.56c-.54,7.52-5.35,11.96-11.51,15.21-5.43,2.86-10.71,2.17-15.37-.95-4.13-2.76-5.82-6.73-4.92-11.73.18-1,.63-2.59,1.3-2.83,3.95-1.42,2.68-6.39,6.48-7.86,2.26-.87,4.31-2.42,6.6-3.1,2.06-.62,4.35-.7,6.48-.61,7.09.3,11.55,5.41,10.94,11.87ZM289.79,371.6c1.79,4.1,5.81,3.88,9.75,3.85,3.33-.03,5.95-1.54,8-4.05,2.12-2.61,1.69-5.56-.86-6.9-3.48-1.83-11.16-.12-13.91,3.15-1.04,1.24-1.94,2.57-2.97,3.95h-.01Z"/>
  <path class="cls-1" d="M387.89,331.5c-2.67-.78-2.57-2.41-1.61-4.41,2.42-5.02,7.25-7.96,13.42-8.12,6.4-.17,10.82,2.19,12.55,7.34,3.97,11.82-6.69,21.74-16.3,20.66-7.63-.85-12.47-6.66-11.57-14.8,2,1.33,3.75,2.71,5.72,3.76,4.66,2.48,10.33.71,12.27-3.7,1.35-3.07.39-5.35-2.69-6.35-3.89-1.27-8.02.41-10.59,4.25-.33.49-.79.91-1.21,1.37h0Z"/>
  <path class="cls-1" d="M144.57,361.37c.46-3.55,2.42-7.98,6.52-11.48,3.14-2.67,5.57-2.61,8.64-.27,1.25.96,2.86,1.49,4.15,2.41,2.32,1.64,4.87,3.13,6.69,5.2,2.13,2.42,2.2,5.72,1.01,8.85-2.75,7.24-15.83,13.81-24.08,6.25-2.67-2.45-3.45-5.19-2.93-10.97h0ZM153.7,355.66c-.76,1.89-2.07,3.7-2.03,5.39.04,1.9.76,4.22,2.12,5.37,1.79,1.51,4.51.95,6.76-.49,2.48-1.58,3-3.73,1.33-5.91-1.91-2.49-4.37-4.22-8.18-4.37h0Z"/>
  <path class="cls-1" d="M351.76,344.34c9.11,2.85,12.21,7.26,11.36,14.44-.65,5.42-4.05,8.82-8.98,11.28-5.29,2.64-9.92,1.71-13.99-1.38-6.87-5.21-3.97-18.24,4.71-21.56,2.02-.77,3.92-.74,5.48.61,2.01,1.74,2.01,3.84.5,6.44-1.14-.44-2.23-.87-3.33-1.29-2.56,1.07-3.02,3.23-2.83,5.28.12,1.24,1.02,3.08,1.99,3.29,1.4.31,3.69-.15,4.73-1.12,3.01-2.81,3.47-6.39,2.54-9.97-.44-1.7-1.19-3.32-2.18-6.02h0Z"/>
  <path class="cls-1" d="M252.72,362.4c5.32-.3,8.47,1.2,10.35,4.91,2.21,4.35,2.24,8.76-.8,13.08-5.83,8.3-19.61,9.35-25.64,2.06-4.2-5.08-2.83-13.14,3-17.41.7-.52,1.54-1.07,2.35-1.2,3.9-.6,7.81-1.06,10.74-1.44h0ZM252.56,365.8c-1.15.63-5.25,1.69-5.42,1.68-3.39-.32-4.48.24-5.72,2.96-1.29,2.84-.84,5.83,1.13,7.39,1.83,1.46,7.03,1.56,9.33.19,2.24-1.34,4-4.72,3.31-7.18-.47-1.67-1.6-3.12-2.63-5.04Z"/>
  <path class="cls-1" d="M212.15,372.84c-.3,7.61-8.63,11.83-15.89,11.43-4.86-.27-8.99-2.4-11.33-6.72-2.15-3.97-2.01-7.84,1.29-11.63.71-.81,1.57-1.9,2.47-2.08,2.35-.46,4.96.04,7.08-.84,1.98-.83,3.6-2.06,5.97-2.01,5.57.11,11.69,4.37,10.42,11.85h0ZM191.94,367.83c-1.43,4.85-.7,7.04,2.62,8.04,3.64,1.1,7.82-.29,9.1-3.23.48-1.1.75-2.64.3-3.58-.78-1.66-2.18-3.01-3.72-5-1.97,4.57-5.48,1.96-8.3,3.76h0Z"/>
  <path class="cls-1" d="M112.02,338.12c3.38,1.03,5.98,1.78,8.55,2.6,4.42,1.42,7.01,4.21,7.16,8.94.13,4.14-2.35,8.41-6.33,10.54-6.3,3.37-14.57,1.66-17.77-3.68-3.02-5.04-.76-12.84,4.97-16.82,1.07-.74,2.4-1.12,3.41-1.58h.01ZM112.35,342.57c-3.1,3.76-4.14,6.35-3.6,8.79.49,2.23,2.05,3.48,4.38,3.7,2.49.23,5.49-1.8,6.22-4,.92-2.76.22-5.59-1.72-6.46-1.59-.72-3.27-1.27-5.28-2.03h0Z"/>
</svg>