<?xml version="1.0" encoding="UTF-8"?>
<svg id="Layer_1" data-name="Layer 1" xmlns="http://www.w3.org/2000/svg" version="1.1" viewBox="0 0 489.99 585.66">
  <defs>
    <style>
      .cls-1 {
        fill: #000;
        stroke-width: 0px;
      }
    </style>
  </defs>
  <path class="cls-1" d="M471.95,409.17c-.39-3.58-2.54-3.65-4.01-2.38-3.91,3.4-7.22,1.56-10.74-.6-.41-.25-.86-.43-1.29-.63-10.14-4.71-20.73-7.82-31.67-9.42-9.12-1.33-18.14-1.21-26.55,2.94-3.59,1.77-4.92,1.07-5.09-3.17-.18-4.79-.25-9.62.13-14.38,1.04-13.18,1.07-26.26-1.04-39.52-1.88-11.8.28-23.63.34-35.4.02-4.6-.43-9.46-.66-14.11-.22-4.65.36-9.68-1.27-13.85-2.39-6.11-3.46-11.7-1.07-17.75.27-.68-.13-1.89-.61-2.59-1.09-1.58-2.35-3.07-3.71-4.43-.34-.34-1.33-.09-1.99.02-.6.11-1.15.41-1.73.62-.09-.62-.26-1.24-.27-1.86-.1-5.71-3.96-9.12-9.47-8.39-.63.08-1.62.21-1.87-.12-2.43-3.16-4.77-1.71-6.87,0-2,1.64-2.48.71-2.96-1.27-2.05-8.49-1.09-16.63-.54-25.13,1.08-16.82,2.75-33.3,3.39-50.19.15-3.9-.72-5.24-4.47-6.15-2.78-.67-5.77-.84-8.28-2.07-2.54-1.24-3.75.54-5.33,1.36-.42.22-.28,2.16.14,3.08.27.6,1.48.99,2.31,1.12,2.77.42,5.56.65,8.33,1.07.22.03.58,1.35.45,1.44-4.86,3.33-9.55,6.99-14.74,9.7-4.08,2.13-8.74,3.23-13.22,4.51-8.4,2.38-16.8,4.77-25.3,6.74-8.14,1.89-16.58,2.71-24.59,4.99-7.51,2.13-14.88,3.97-22.82,3.22-5.47-.51-11.24.37-16.37-1.2-9.55-2.92-19.03-3.31-28.69-2.83-8.04.4-16.09.59-24.12,1.08-3.46.21-6.86.99-10.3,1.42-2.54.31-5.14.88-7.65.59-4.32-.5-8.58-1.74-12.9-2.37-6.8-.99-11.96-4.88-16.72-9.57-.21-.2.13-1.5.53-1.72,2.03-1.13,4.12-2.16,6.27-3.05,4.3-1.79,6.35-7.61,12.17-6.72.2.03.73-.7.67-1.01-.07-.37-.56-.8-.95-.95-2.63-1.01-5.1-1.13-7.52.66-.72-.02-2.62,1.84-3.26,2.26-1.19.78-2.4,1.56-3.63,2.27-1.91,1.1-4.04,1.78-6,2.87-.87.48-1.75.98-2.43,1.72-.47.52-.83,1.14-1.17,1.75-.89,1.58-1.81,3.2-2.27,4.99-.39,1.51-.1,2.94-.34,4.43-.62,3.81-1.67,7.5-2.13,11.35-1.09,9.02-1.81,18.09-2.52,27.17,0,5.15-.66,10.4-.98,15.54-.26,4.25-1.4,8.23-1.84,12.49-1.48-.2-3-.07-4.41.39-3.22,1.05-5.96,2.78-9.29,3.62-2.97.75-4.7,1.73-4.53,5.16.1,1.9-.15,3.82-.29,5.72-.31,4.47-.89,8.92-.92,13.4-.19,25.9-1.33,51.89-3.22,77.41-.85,11.56-1.98,23.1-3.14,34.62-.08.79-1.38,2.04-2.1,2.01-3.28-.13-6.57-.48-9.82-1.05-8.44-1.47-16.72-1.91-25.18-.16-12.98,2.7-24.96,7.67-36.32,14.14-3.04,1.73-5.66,4.7-7.59,7.7-2.99,4.66-2.04,9.87,1.62,11.71,2.77,1.4,5.68,2.9,8.66,3.4,8.45,1.41,16.96,2.31,25.45,3.45,9.99,1.33,20.03,2.33,29.93,4.18,7.36,1.37,14.49,4.16,21.83,5.8,9.82,2.19,19.74,1.77,29.27-.68,8.69-2.24,17.13-1.13,25.68.66,7.12,1.49,14.18,3.33,21.32,4.67,8.28,1.55,16.6,2.9,24.94,3.99,4.21.55,8.51.62,12.73.39,6.93-.37,13.82-1.17,20.73-1.7.51-.04,1.59.73,1.56,1-.43,3.75.26.65-.27,4.38-.04.28,0,.57,0,.86,3.27-.55,1.47,1.86,1.49,2.84.17,10.68.34,21.36.25,32.03-.07,8.19.24,16.49-1,24.53-1.15,7.46-4.17,14.63-6.24,21.97-.61,2.16-2.77,4.5.19,6.66.22.16.11.94,0,1.38-.71,2.57-1.18,5.25-2.32,7.62-.54,1.13-2.29,2.1-3.64,2.34-4.96.89-10.03,1.25-14.96,2.27-1.34.28-3.01,2.01-3.31,3.34-.25,1.13.97,3.02,2.07,3.9,1.35,1.08,3.24,1.93,4.94,2.04,7.97.5,15.97.92,23.95.97,8.7.05,17.41-.38,26.11-.54,5.75-.1,11.48-.31,16.08-4.36.74-.65,1.3-2.64.86-3.29-3.62-5.42-8.02-9.74-15.35-8.85-1.9.23-3.81.29-5.72.48-2.37.23-4.75.69-7.12.7-2.15,0-3.93-.89-4.09-3.48-.32-4.91-.81-9.82-.96-14.74-.23-7.32-.19-14.65-.34-21.97-.1-4.73-.36-9.46-.45-14.19,0-.59.8-1.74.89-1.71,2.82,1.05,2.32-1.54,2.42-2.55.9-9.17,1.79-18.35,2.31-27.55.42-7.43-.79-7.57-1.08-15.06-.1-2.56.67-3.48,2.62-3.38,9.32.45,18.69.63,27.95,1.79,11.44,1.43,22.78,2.21,34.12.35,7.79-1.28,15.51-2.5,23.58-2.24,9.52.3,19.06-.7,28.58-1.26,8.18-.48,16.18-1.84,23.67-5.15,16.09-7.1,32.8-12.37,49.88-16.67,7.37-1.85,14.91-3.48,20.98-8.56,4.12-3.45,6.96-7.23,6.29-13.31h-.05ZM360.09,250c.21-.25.42-.5.63-.75,1.74-2.03,3.2-4.51,6.22-4.42,1.87.06,3.21.92,4.05,2.12,1.87-.51,3.25.12,4.56,1.97,3.81,5.38-.26,10.52-4.9,13.03-4.88,2.64-12.58,2.15-13.41-4.46-.37-2.98,1.1-5.35,2.85-7.49h0ZM122.3,265.25c.57-1.8,1.15-3.64,2.31-5.1.29-.37.84-.82,1.53-1.24,2.2-1.35,5.81-2.48,7.02-.29,1.74,3.16,5.78,9.12,2.52,12.38-.61.61-1.4,1.01-2.04,1.59-.56.52-.98,1.16-1.5,1.73-2.17,2.37-5.65,2.93-8.88,3.19-.35.03-.72.05-1.03-.12-.33-.18-.53-.54-.68-.89-1.53-3.57-.4-7.6.75-11.24h0ZM107.94,267.44c.64-.59,1.64-.77,2.38-1.3.27-.19.52-.41.76-.63.69-.64,1.32-1.36,2.12-1.9,1.84-1.24,4.15-1.53,6.37-1.79.1-.01.22-.02.29.05.06.06.07.15.08.23.44,4.25-.69,8.44-.45,12.7.21,3.8,2.21,5.14,5.95,5.25,6.39.18,10.74-2.96,13.68-8.33.47-.86.92-2.15.63-2.98-1.2-3.43-2.48-6.88-4.15-10.11-1.33-2.56-3.71-3.16-6.4-2.13-.73.28-1.6.23-2.4.33.11-.82.26-1.63.33-2.45.91-10.47,1.83-20.95,2.71-31.43.18-2.17.22-4.35.37-6.52.18-2.49,1.9-1.51,3.16-1.24,4.75,1.03,9.45,2.65,14.23,3.09,3.89.36,8.7-1.1,11.6,2.35.86,1.02,1.6,2.19,2.71,2.93.9.59,1.96.85,3,1.08,1.27.28,2.56.55,3.84.39,2.96-.35,7.17-1.59,8.48-4.55.44-1,.64-2.1.91-3.16.2-.78.45-1.55.69-2.31.51-1.59,1.73-1.53,3.19-1.83,1.74-.36,3.48-.71,5.22-1.05,3.41-.68,6.82-1.35,10.23-2.04.73-.15,1.44-.38,2.15-.58-.06-.32-.11-.65-.17-.97,0,0-18.13,2.58-20.07,2.5-.68-.03-1.44-.08-1.94-.57-.34-.33-.51-.8-.76-1.21-.87-1.42-2.68-1.91-4.31-1.93-2-.03-4.71-.98-6.56,0-2.01,1.04-3.58,2.7-4.86,4.55-1.21,1.76-2.57,3.65-4.64,4.18-3.57.92-7.86-.07-11.5-.46-4.29-.45-8.58-.94-12.87-1.46-.57-.07-1.51-1.41-1.46-2.06.65-8.19,1.41-16.36,2.29-24.52.12-1.09,1.01-2.12,1.75-2.99.11-.13,1.63.62,2.1,1.26.64.87.62,2.35,1.37,3.01,4.38,3.88,8.67,7.77,14.93,8.49,5.44.63,10.79,2.62,16.22,3.01,3.83.28,7.7-1.39,11.6-1.67,4.37-.32,8.81.04,13.21-.09,5.05-.16,10.1-.41,15.13-.85,9.85-.87,19.47.41,29.18,2.66,5.18,1.2,10.73.48,16.1.75,12.13.63,23.12-4.02,34.61-6.39,6.16-1.27,12.57-1.56,18.67-3.01,8.28-1.97,16.4-4.6,24.56-7.03,3.23-.96,6.39-2.15,9.56-3.27,6.34-2.25,10.9-6.72,14.79-12.03.35-.48.85-.84,1.29-1.25.13.63.38,1.27.37,1.9-.12,8.81-.12,17.62-.49,26.41-.17,4.07-1.67,8.08-1.55,12.12.14,4.59-2.55,6.3-5.69,8.12-5.96,3.44-12.51,3.89-19.24,3.54-1.96-.1-3.93-.13-6,.55,3,.49,6,1.26,9.01,1.4,6.92.33,13.66-.4,19.49-4.53.29-.21.64-.33.97-.49.03.44.17.9.09,1.31-1.59,8.44-1.81,16.95-.37,25.52.14.85.09,1.85.52,2.53,2.3,3.62.47,6.2-1.51,9-.99,1.39-1.31,1.71-2.86.54-4.46-3.37-9.31-6.64-14.99-4.41-3.1,1.21-5.69,3.76-8.35,5.9-.42.34-.01,1.74.02,2.65.6-.35,1.34-.56,1.78-1.06,2.54-2.9,6.42-5.89,10.48-5.96,4.67-.08,7.56,5.03,10.28,8.29,1.18,1.41-.89,5.2-2.83,6.25-2.98,1.6-5.7,3.45-9.49,2.8-2.23-.38-4.8.83-6.86.14-3.48-1.17-5.51-3.68-4.38-7.8,1-3.65-3.95-7.94-8.06-7.24-.92.16-1.82.49-2.69.84-2.01.8-3.94,2.66-5.53-1.07-.35-.82-3.38-1.3-4.77-.81-4.79,1.68-8.36,5.08-10.71,9.59-2.33,4.46-8.38-2.92-11.53-3.09-1.63-.09-3.69-.53-5.28-.3-2.79.39-4.8,2.84-7.88,2.36-3.21-.1-6.01-2.86-8.5-4.61-2.71-1.91-4.44-2.11-7.68-2.12-.88,0-1.77,0-2.64.14-4.12.71-7.25,3.98-8.88,7.68-1.85,4.2-1.27,9.06.64,13.24,3.29,7.17,13.04,8.99,19.29,3.63,1.33-1.14,2.41-2.59,3.58-3.87,2.73,6.9,9.18,9.81,18.31,8.33,4.8-.78,8.11-3.24,9.83-7.87.13-.36,1.22-.74,1.53-.54,9.54,5.84,19.81,4.28,26.98-4.35,1.2-1.45,1.87-1.55,3.32-.35,3.65,3,7.82,3.31,12.14,2.3,2.2-.52,4.4-1.03,6.57-1.63,4.1-1.15,7.23-3.47,8.91-7.57.17-.41,1.35-.82,1.75-.61,8.47,4.54,18.33,2.07,23.58-5.91.61-.93,1.94-2.37,2.43-2.17,1.53.61,2.82,1.89,4.2,2.92-.35.48-.59,1.15-1.06,1.42-6.68,3.85-13.42,7.38-21.21,8.88-7.85,1.52-15.5,3.93-23.22,6.02-12.83,3.48-25.73,6.53-39.04,7.93-5.22.55-10.27,2.53-15.48,2.85-15.94.98-31.76,3.53-47.91,2.24-9.82-.78-19.67-.6-29.51-1.11-4.54-.23-9.05-1.26-13.59-1.61-6.15-.48-12.34-1.04-18.47-.88-12.95.34-25.8-.82-38.66-2.58-3.57-.49-7.25-.52-10.82-.2-3.68.33-6.96-.36-10.14-2.27-1.74-1.05-3.48-2.12-5.34-2.88-2.51-1.03-3.44-2.85-3.63-5.39-.11-1.5-.31-3.6.89-4.71l-.02-.06ZM162.11,217.65c.11-1.12.23-2.21.5-3.22.38-1.42,1.06-2.69,2.39-3.66,1.1-.79,2.39-1.33,3.75-1.48,1.97-.22,4.07.42,5.55,1.8.4.37.75.8.99,1.28,1.27,2.54-.45,6.59-2.52,8.06-.76.54-1.61,1-2.55,1.11-2.45.29-5.64-.43-7.53-2.18-.21-.2-.41-.42-.52-.69-.12-.32-.09-.68-.06-1.02ZM321.7,265.15c-.21,5.24-5.87,10.6-10.43,10.97-.82.67-1.9,1.09-3.28,1.04-.43-.01-.84-.07-1.22-.16-1.21.57-2.8,0-3.86-.42-5.35-2.07-8.34-7.26-4.5-12.13,1.84-2.33,3.98-4.5,6.32-6.3,1.91-1.48,2.69-.92,3.44,1.51.06.18.68.36.96.28,1.89-.55,3.75-1.17,5.63-1.76,4.73-1.49,6.15-.55,6.76,4.53.13,1.05.16,2.11.18,2.43h0ZM291.34,276.86c-.78,2-2.37,3.53-3.95,4.95-.67.6-1.37,1.21-2.2,1.57-.79.34-1.66.44-2.52.47-5.08.15-10.23-2.51-13.17-6.79-.39-.57-.75-1.19-.85-1.87-.08-.58.04-1.15.16-1.72,1.5-7.15,4.55-10.83,12.37-8.51,3.43,1.02,6.85,2.86,9.24,4.19.91.51,1.4,1.38,1.6,2.38.36,1.75-.13,3.92-.68,5.33h0ZM265.21,268.83c.09,1.23-.16,2.48-.65,3.66-.74,1.77-1.94,3.29-3.13,4.77-1.1,1.37-2.3,2.8-3.98,3.32-.97.3-2.01.27-3.03.19-1.13-.09-2.27-.25-3.35-.6-2.36-.78-4.4-2.54-5.55-4.77-1.52-2.96-.84-5.63-.46-8.67.43-3.45,1.65-4.63,6.55-5.4,4.69-.73,9.11-.19,12.32,4.05.8,1.05,1.2,2.23,1.29,3.44h0ZM124.11,446.56c-11.04,1.64-21.39-1.73-31.84-5.08-5.77-1.85-11.83-2.8-17.79-3.88-5.54-1-11.11-1.82-16.7-2.4-6.03-.63-12.11-.6-18.11-1.38-5.16-.67-10.33-1.71-15.33-3.22-5.47-1.65-6.67-5.27-3.92-10.27,3.68-6.7,9.89-10.17,16.68-12.78,15.59-6,31.66-7.28,48.26-3.42,2.95.68,6.03.66,9.04,1.11.63.1,1.74.94,1.7,1.29-.68,5.14-2.86,11.91-.1,16.89.81,1.46,1.69,2.93,2.7,4.25,3.86,5.04,9.54,7.78,15.28,9.81,5.95,2.11,12.13,3.53,18.27,4.96,2.81.65,5.75.6,8.64.86.04.23.08.46.11.68-5.63.86-11.26,1.74-16.89,2.58h0ZM236.84,453.16c-9.1.29-18.2.86-27.3.53-12.36-.44-24.5-3-36.54-6.26-5.49-1.49-11.17-2.16-17.35-3.31,7.32.23,14.08.37,20.84.67,9.67.43,19.35,1.19,29.02,1.43,10.18.24,20.36-.09,30.54.08,3.54.06,2.1,3.67,3.07,5.58.03.06-1.45,1.26-2.27,1.29h0ZM249.57,570.03c-10.49,0-20.98.07-31.47-.09-1.27-.02-2.53-1.23-3.8-1.89,1.33-1.03,2.69-2.96,4-2.92,6.27.19,12.54.78,18.79,1.48,4.2.47,8.36,1.37,12.54,2.08-.02.45-.04.89-.06,1.34h0ZM252.92,560.55c4.47-.29,9.04.01,13.39-.82,7.23-1.38,12.15,1.71,16.28,7.02.05.07-.88,1.31-1.39,1.34-7.79.49-15.58.88-23.38,1.26-1.53.08-3.06.06-4.59.01-.6-.02-1.2-.24-1.8-.38.53-.28,1.03-.69,1.6-.82,6.02-1.38,12.06-2.69,18.07-4.09,1.27-.29,2.48-.85,3.72-1.29-.05-.25-.1-.5-.14-.75-7.21.68-14.42,1.5-21.65,1.97-3.01.2-6.07-.27-9.1-.56-2.82-.27-5.63-.77-8.45-1.05-1.75-.17-2.84-.2-1.94-2.67,1.06-2.92,1.35-6.12,1.96-9.2.28-1.38.38-2.82.81-4.15,1.93-5.99,3.92-11.96,5.95-17.91,2-5.88,2.2-11.92,1.83-18.05-.11-1.78.65-3.6.57-5.38-.21-4.69-.67-9.37-1-14.06-.06-.9-.34-2.04.08-2.68,1.52-2.34,3.29-4.52,5.09-6.74-3.26,7.57-2.43,15.63-2.82,23.5-.44,8.93-.3,17.89-.43,26.83-.08,4.91-.38,9.83-.26,14.74.11,4.32.63,8.63,1.03,12.94.19,2.12,1.6,2.7,3.34,1.71.92-.53,2.13-.68,3.23-.75v.03ZM242.46,461.82c1.03-1.39,2.18-2.7,3.29-4.03.25.23.5.45.74.68-.9,1.38-1.77,2.78-2.72,4.12-.21.29-.75.35-1.14.52-.07-.44-.36-1.04-.17-1.29h0ZM240.72,463.53c-.03-.22-.06-.42-.07-.55.35-2.31.19-4.08.93-5.26.62-.98,2.29-1.26,3.5-1.84-.02.46.12,1.02-.08,1.38-1.01,1.78-2.08,3.53-3.18,5.25-.26.41-.73.69-1.1,1.03h0ZM241.04,452.41c-.23-.47-.73-1.27-.64-1.34,1.1-.9,2.26-1.72,3.46-2.47.2-.13.69.2,1.63.52-1.79,1.33-3.12,2.31-4.45,3.29h0ZM246.28,477.51c-.35.66-.9,1.22-1.34,1.84-.6.85-1.18,1.73-1.76,2.59-.12-1-.18-2.01-.36-3.01-.4-2.32.43-3.97,2.33-5.36,1.75-1.28,3.27-2.87,4.89-4.33.13.06.25.12.38.18-1.38,2.7-2.73,5.41-4.14,8.09h0ZM243.01,471.82c-.46-4.56,2.62-9.06,7.71-11.65-2.5,3.78-5,7.55-7.71,11.65ZM246.87,463.43c-.1.09-.32.05-.48.07.05-.33,0-.73.17-.99.87-1.44,1.76-2.87,2.71-4.26.29-.42.78-.71,1.17-1.06.14.51.28,1.01.66,2.36-1.25,1.16-2.73,2.53-4.23,3.89h0ZM246.01,439.83c-12.68.5-25.35,1.24-38.04,1.59-12.58.34-25.15-.04-37.76-1.54-8.47-1.01-17.07-.5-25.61-.63-8.49-.13-17-1.39-25.18-3.98-2.62-.83-5.18-1.81-7.71-2.91-2.23-.97-3.99-2.57-6.08-3.84-1.37-.84-2.94-1.35-4.04-2.64-2.14-2.53-4.49-7.67-3.98-11.05.41-2.72.65-5.5,1.33-8.15.26-1.01,1.53-1.72,2.35-2.56.31,1.24.4,2.57,1.24,3.48,2.93,3.2,10.21,3.45,14.06,4.33,5.62,1.28,11.23,2.56,16.89,3.64,8.79,1.68,17.65,3.41,26.52,4.04,8.1.58,16.3.1,24.38-.6,9.68-.84,19.29-2.36,28.92-3.67,3.9-.53,7.77-1.27,11.61-2.54-9.61.53-19.25.81-28.82,1.65-2.88.25-5.76.48-8.64.67-10.64.7-21.34.93-32.03.37-10.19-.54-20.15-1.85-30.22-3.48-5.67-.92-11.33-1.89-17-2.83-2.34-.39-3.16-1.58-3.35-4.1-.54-7.45-1.77-14.88-2.19-22.33-.28-4.93.43-9.89.62-14.84.31-8.46.53-16.94.85-25.4.12-3.25.4-6.5.63-9.74.03-.47.22-.91.34-1.37.41.31.89.56,1.22.94,3.94,4.5,8.98,6.37,14.66,6.93.75.07,1.95,1,2.08,1.68,1.83,9.39,9.19,9.1,15.19,6.76,4.05-1.58,6.44-4.64,7.81-8.76.27-.81,1.38-1.78,2.2-1.84,14.8-1.21,29.61-2.27,44.41-3.41,1.66-.13,3.29-.48,4.87-1.09-7.14-.22-14.3-.74-21.43-.6-8.95.18-17.88.9-26.82,1.41-1.75.1-3.03.06-4.26-1.91-4.9-7.86-15.83-7.4-19.64.82-1.13,2.45-2.26,2.36-4.66,2.08-6.51-.78-10.5-5.22-14.71-9.49-.36-.37-.65-1.01-.67-1.52-.48-14.88-.93-29.77-1.37-44.65-.03-1,0-2,0-3.18,4.43,7.04,10.68,10.87,18.11,11.74,12.24,1.44,24.55,2.37,36.83,2.97,10.03.49,20.08-.15,30.11.32,9.12.43,18.23,2.06,27.35,2.49,9.9.46,19.82.35,29.71.12,12.96-.3,25.94-.64,38.85-1.62,6.71-.51,13.25-2.54,19.91-3.69,5.27-.91,10.73-1.09,15.89-2.39,10.47-2.62,20.81-5.73,31.18-8.72,5.77-1.66,11.72-2.99,17.17-5.39,2.79-1.23,5.41-2.78,7.99-4.39,1.34-.84,2.66-1.7,4-2.54.84-.53,1.95-2,2.85-2.16.48-.09.98.01,1.46.11-.03,2.37,0,4.75.06,7.12.04,1.5.12,3.06.82,4.4.83,1.57,1.85,2.49,2.15,4.26.38,2.2.74,4.46.72,6.69-.04,6.97-.25,13.93-.66,20.87-.06,1.05-1.37,2.31-2.43,2.91-8.12,4.57-17.11,4.64-26.18,4.15-.66-.04-1.34-.22-1.96-.12-2.44.4-4.07.4-3.8-3.12.18-2.44-1.49-3.97-4.35-3.73-5.55.47-8.72,3.38-10.23,10.35-.51,2.34-1.06,3.15-3.62,2.45-10.99-3.01-21.1-.04-31.17,3.84-9.92,3.82-19.82,8.08-30.18,10.25-8.64,1.81-18.51.21-27.3-.56-.4-.04,1.13,1.44,1.28,1.53.87.5,2.13.52,3.09.66,16.28,2.37,31.91.09,47.17-5.19,6.51-2.26,13.07-4.58,19.81-5.96,4.75-.97,9.84-.42,14.79-.52.75-.01,1.5.2,2.26.26,2.29.19,4.33.3,6.42,2.11,2.65,2.29,6.25,2.4,9.51,1.23,2.65-.95,2.67-3.49,2.45-5.82-.56-5.78-.62-5.83,5.16-5.4,9.55.72,18.78.02,27.2-4.82.46-.27,1.04-.33,1.57-.48.11.72.32,1.44.3,2.15-.22,8.24-.74,16.48-.63,24.73.07,5.3,1.06,10.62,1.59,15.94.12,1.19,0,2.4-.06,3.53.13,4.82.53,9.67.34,14.47-.36,9.15-1.05,18.27-1.59,27.4-.41,6.79-.8,13.58-1.19,20.36-.02.43.02.87.03,1.3.33-.15.64-.37.99-.42.76-.12,1.53-.16,2.3-.22-.28.83-.33,2.16-.88,2.42-4.47,2.1-8.85,4.79-13.61,5.82-13.99,3.01-28.09,5.57-42.24,7.83-11.34,1.81-22.75,3.41-34.22,4.19-9.42.63-18.97-.23-28.45-.17-8.23.05-16.44.42-24.66.74l.02-.02ZM126.52,335.01c.86-1.82,1.76-3.71,3.33-4.96,1.57-1.24,3.76-1.76,5.76-1.53,1.91.22,3.55,1.71,4.7,3.2,1.44,1.87,2.21,4.34,1.74,6.62-.23,1.12-.8,2.01-1.26,3.03-.32.71-.45,1.48-.88,2.14-1.51,2.32-4.95,2.82-7.53,2.72-1.49-.05-3.05-.17-4.36-.93-.86-.5-1.61-1.37-1.86-2.35-.13-.5.04-1.01-.08-1.48-.1-.4-.46-.8-.59-1.21-.02-.07-.04-.14-.06-.22-.43-1.73.33-3.46,1.07-5.04h.02ZM351.94,314.78c-.2,2.69-.89,8.17-4.12,8.87-3.58.77-4.92-3.33-4.68-6.08.1-1.14.23-2.7.59-4.14.44-1.73,1.23-3.31,2.74-3.82,1.11-.38,3.41-1.01,4.46-.13,1.17.97,1.1,4,1,5.31h.01ZM467.76,412.97c-1.37,2.28-2.47,4.89-4.36,6.63-5.72,5.3-13.29,6.7-20.51,8.85-12.34,3.67-24.75,7.15-36.86,11.47-9.03,3.22-17.7,7.51-27.46,8.17-14.08.96-28.2,1.57-42.3,2.3-3.41.18-6.82.23-10.24.34v.27c-13.1-.02-26.2-.1-39.3-.05-10.24.04-20.48.25-30.73.29-.8,0-2.37-.94-2.33-1.09.34-1.43-1.62-2.64.74-4.53,5.66-4.53,11.98-3.12,18.08-2.84,7.66.36,15.3,1.95,22.96,2.55,3.52.28,7.13-.32,10.64-.86,10.28-1.58,20.57-3.16,30.78-5.07,11.28-2.1,22.5-4.47,33.69-6.94,2.81-.62,5.45-2.01,8.09-3.23,3.89-1.81,7.71-3.76,11.54-5.7.83-.42,1.64-.95,2.34-1.57,2.81-2.48,2.47-4.36-.92-6.36-.52-.3-1.05-1.37-.93-1.92,1.81-8.66,2.86-9.5,11.84-12.18,8.04-2.39,16.11-1.77,24.13.14,7.8,1.86,15.51,4.26,23.18,6.69,2.85.91,5.64,2.34,8.18,3.98,2.96,1.91,5.51,2.48,8.09-.23.39-.41,1.09-.5,1.64-.74.01.56.25,1.25,0,1.65l.02-.02Z"/>
  <path class="cls-1" d="M334.92,139.67c.02-3.07.06-6.15-.09-9.22-.53-10.89-.61-21.77-.91-32.66-.14-5.21,0-10.41.23-15.61.2-4.51,1.24-10.45-.11-14.87-.71-2.33-2.88-3.96-5.12-4.87-2.5-1.03-4.93-1.4-7.56-1.08-1.31.16-3.79.98-1.85,2.86.51.49,1.25.64,1.95.68,1.4.07,2.81-.22,4.18.08,5.47,1.16-1.12,6.76-2.88,8.47-2.75,2.68-5.86,4.95-9.23,6.77-6.68,3.61-14.21,5.39-21.78,6.08-14.03,1.26-28.2,1.35-42.32,1.81-7.82.26-15.48.82-22.62,4.42-1.79.9-4.34.73-6.47.44-2.1-.28-4.14-1.3-6.19-2.06-6.67-2.48-13.42-2.71-20.26-1.52-5.49.95-10.31.53-13.94-5.14-2.71-4.24-6.77-7.22-12.27-6.93-.57.03-1.77-.81-1.72-1,.39-1.72.75-3.55,1.65-5,.32-.51,2.09-.08,3.2-.05.62.02,1.3.27,1.86.12,2.07-.53,4.11-1.2,6.16-1.8.41-.12.85-.17,1.27-.26-.1.42-.21.83-.3,1.25-.41,2.04-1.16,4.07-1.15,6.12.03,3.5,4.29,7,7.38,6.09,4.3-1.26,8.27-3.21,10.07-7.78.34-.85.19-1.97.07-2.94-.08-.69-.49-1.36-.75-2.04.7-.04,1.41-.13,2.11-.11.85.02,1.71.08,2.56.21.99.15,1.98.4,2.97.61-.73.75-1.49,1.47-2.16,2.27-1.14,1.36-2.5,2.63-3.25,4.2-1.11,2.32-.62,4.84,1.91,5.88,2.55,1.04,5.83,2.41,8.02,1.62,3.3-1.19,6.35-3.76,8.73-6.45,1.83-2.07,2.44-5.24,3.67-7.89.28-.61.79-1.41,1.32-1.5.62-.11,1.68.29,1.97.79.25.44-.21,1.38-.51,2.02-.32.68-.86,1.24-1.23,1.9-2.41,4.31-.85,9.94,3.2,11.61,8.58,3.55,20.04-4.03,20.13-13.32.02-2.07-1.02-3.79-2.74-4.88-1.41-.89-4.75-.6-2.96,1.73.39.5.92.86,1.33,1.35,2.12,2.55.47,5.99-1.09,8.17-.91,1.26-1.84,2.42-3.11,3.31-1.18.82-2.65,1.37-4.07,1.59-1.94.3-3.91.22-5.69-.79-2.24-1.28-3.2-3.94-2.76-6.36.17-.94.64-1.83,1.1-2.65.16-.29.32-.59.47-.89,0-.04.02-.09.04-.23-.05-1.44.98-2.51,2.26-2.95-.84-2.22.73-2.48,1.99-2.13,2.97.81,5.23-1.27,7.93-1.39,4.64-.21,9.21-.55,12.98-3.68.62-.51,1.54-.84,2.34-.87.73-.03,1.49.46,2.24.73-.47.52-.88,1.12-1.42,1.56-1.35,1.11-3.14,1.88-4.04,3.27-1.62,2.51-3.16,5.25-3.9,8.13-.53,2.06-.48,5.4.76,6.57,1.44,1.36,4.64,1.66,6.8,1.22,5.84-1.19,9.73-5.33,12.96-10.42.34,4.8,2.7,7.54,6.61,7.34,6.96-.34,12.44-3.43,15.84-9.62.71-1.3.44-1.03,1.35-.1,3.2,3.26,7.17,4.8,11.65,4.32,6.64-.71,10.77-4.65,13.29-10.66,1.5-3.6.95-7.34-1.73-10.06-2.83-2.87-5.71-3.25-9.65-1.49-.5.22-1.78-.24-2.09-.75-1.71-2.86-3.48-3.04-5.46-.47-1.55,2.01-3.15,3.99-4.85,5.87-1.61,1.78-5.36,2.5-7.61,1.85-1.89-.54-4.18-.32-5.71-1.35-2.48-1.66-4.17-.86-5.69.79-1.45,1.57-2.51,3.49-3.79,5.23-.14.19-.72.31-.81.21-3.5-4.12-3.9-4.2-9.18-1.77-.47.22-1.08.15-1.63.21.3-.55.52-1.18.92-1.63.29-.32.81-.48,1.26-.6,4.68-1.27,9.34-2.65,14.06-3.73,12.35-2.83,21.28-10.46,29.22-19.87,4.68-5.54,6.47-13.67,14.14-16.64.62-.24.72-1.76,1.07-2.68-.86-.06-1.83-.4-2.58-.15-6.13,2.08-12.22,4.26-18.32,6.44-.38.14-.99.7-.96.74,1.54,2.48-.91,1.95-1.75,2.19-5.18,1.43-10.48,2.47-15.59,4.1-6.38,2.04-11.21,6.02-13.58,12.63-.83,2.32-1.89,4.56-2.99,6.76-1.53,3.06-3.55,5.54-7.33,5.85-1.36.11-2.69.56-4.67,1,4.66-7.13,8-14.28,5.83-22.88-.46-1.81-1.39-3.51-2.1-5.27-1.31.93-2.63,1.86-3.94,2.79-.08.05-.23.11-.22.16.17,1.17.16,2.42.59,3.5.63,1.55,1.93,2.89,2.34,4.47,1.52,5.8-1.26,10.37-4.24,14.8-.29.43-1.07.52-1.62.77-.5-1.16-1.23-2.28-1.42-3.48-.13-.85.46-1.79.73-2.69-.96-.12-2.05-.58-2.85-.28-2.15.79-3.5-.1-4.57-1.85-.71-1.15-1.3-2.39-1.9-3.6-2.38-4.74-4.06-10.09-9.31-12.58-3.44-1.63-7.04-2.98-10.66-4.15-5.16-1.68-6.32-3.39-6.71-8.8-.12-1.66-1.98-3.24-3.04-4.86-1.63,1.38-3.33,2.69-4.83,4.2-.36.36-.04,1.41-.03,2.15.44,0,1.02.19,1.3-.02,2.14-1.59,2.76.18,3.54,1.65,2.7,5.04,2.17,10.49,2.25,15.81.1,7.12,3.11,11.42,10.01,13.36,6.91,1.94,13.86,3.68,20.78,5.56.54.15.99.7,1.48,1.06-.55.4-1.11,1.15-1.66,1.13-1.19-.05-2.37-.6-3.58-.75-7.32-.92-14.69-1.49-21.95-2.78-6.28-1.11-11.56.13-16.53,3.86-3.69,2.78-7.73,5.05-12.69,4.82-.36-.02-.71.47-1.1.62-3.8,1.42-7.51,3.37-11.46,4.06-3.7.65-7.34,2.61-8.56,6.38-1.2,3.72-.76,4.84,2.89,6.1,1.53.53,1.8.93,1.36,2.6-3.02,11.62-3.18,23.72-5.17,35.49-1.46,8.65-1.25,17.81-2.84,26.28-1.7,9.08-3.8,18.12-.38,27.46.47,1.29.33,2.9.1,4.28-.2,1.21-.35,1.56,1.17,1.51,3.29-.11,4.07-1.27,3.23-4.65-.86-3.41-2.12-6.97-1.91-10.34.7-11.42,2.07-22.77,2.98-34.17.81-10.22,1.26-20.49,2.05-30.72.36-4.66,1.15-9.27,1.72-13.91.24-1.96,1.15-1.96,2.36-.76,2.54,2.51,4.96,5.17,7.59,7.58,1.6,1.46,3.41,3.38,5.31,3.68,3.69.58,7.51.28,11.26.12,6.02-.26,12.05-.87,17.7,2.34,5.54,3.14,10.79,2.53,16.32.07,3.87-1.72,8.18-3.09,12.4-3.35,10.38-.65,20.87-.18,31.24-.91,10.51-.75,21.01-2.06,31.38-3.79,6.34-1.06,12.21-3.88,16.64-8.8,3.25-3.6,6.26-7.43,9.73-11.57-.35,3.15-.75,5.93-.95,8.73-.59,8.44-1.1,16.89-1.63,25.35-.03.54-.06,1.23.22,1.61,1.28,1.71.05,2.17-1.14,2.67-5.88,2.48-11.74,4.99-17.65,7.4-4.2,1.71-8.47,3.27-12.71,4.89,1.35.27,2.61.21,3.71-.22,8.93-3.48,17.86-6.97,26.73-10.59,1.44-.59,2.13-1.07,2.15,1.1.03,4.95.1,9.89.33,14.84.31,6.88.54,13.78,1.27,20.64.5,4.67.88,8.92-4.1,11.21-.34.15-1.16.09-1.18-.02-.72-2.74-2.4-1.73-3.35-.67-2.18,2.44-4.12,5.11-6,7.8-.76,1.09-1.17,1.47-2.28.34-2.31-2.33-4.77-2.17-7.16-.28-1.1.88-2.09,1.9-3.2,2.77-.41.32-1.25.73-1.49.55-2.67-2.01-4.06-.12-5.31,1.68-.96,1.38-1.63,2.98-2.43,4.49-.17.31-.34.62-.51.93-.18-.36-.3-.76-.53-1.07-1.35-1.78-2.98-5.15-4.06-5.01-3.23.42-6.41,1.16-9.7,1.57-2.1.27-3.78,3.11-5.71,4.73-.25.21-1.15.16-1.23,0-2.84-5.88-9.48-7.71-14.64-4.02-.53.38-1.25.83-1.84.76-5.03-.67-8.85,1.74-10.31,6.64-1.46,4.9.8,11.36,5.04,13.03,7.52,2.96,16.68,2.35,20.75-6.76.2-.44.55-.8.83-1.2.19.53.44,1.06.55,1.61.87,4.11,3.75,6.98,7.84,7.32,4.38.37,7.63-1.97,10.06-5.23,1.32-1.77,2.11-1.74,3.96-.7,6.18,3.48,17.23,2.59,19.62-7.46.52-2.18.94-1.23,2.11-.35,1.52,1.14,3.4,2.32,5.18,2.47,10.7.9,22.68-13.02,16.79-24.28-2.64-5.05-3.89-10.03-3.86-15.5h.02ZM290.55,60.55c.27-.61.71-1.08,1.25-1.45.68-.47,1.51-.78,2.32-.99,1.45-.37,3-.52,4.28-1.28.47-.28.9-.64,1.39-.89,1.12-.58,2.17-.32,3.36-.41.96-.07,1.8-.46,2.78-.5,2.1-.08,4.17.93,5.31,2.77,1.96,3.17,2.69,6.35-.48,8.97-4.14,3.42-9.74,3.67-14.91,2.62-1.73-.35-3.54-1.01-4.57-2.48-.77-1.1-.97-2.5-1.04-3.83-.04-.86-.04-1.76.31-2.53h0ZM270.04,68.1c-.05-.23-.1-.46-.1-.7-.01-.89.27-1.63.64-2.41.31-.66.9-1.16,1.19-1.81.21-.47.23-.99.45-1.48,1.68-3.73,3.48-3.05,6.94-1.85,1.17.41,2.42.52,3.62.84.38.1.76.23,1.05.5.32.29.48.72.62,1.12.8,2.17,1.6,4.62.7,6.7-.95,2.2-3.47,4.24-5.47,5.37-.86.48-1.74.95-2.7,1.17-.96.21-1.96.16-2.93-.02-1.14-.22-2.29-.65-3.16-1.45-1.13-1.03-1.3-2.35-1.32-3.77.56-.12-.33-2.15.47-2.2h0ZM265.74,48.63c1.46-2.52,4.26-4.89,4.34-7.47.17-5.18,4.08-5.83,7.09-7.32,3.06-1.51,6.62-2.07,9.97-3,6.46-1.78,12.92-3.53,19.18-5.24-9.98,12.99-21.6,24.73-39.92,27.74,7.74-7.7,15.98-14.07,25.44-18.75,1.74-.86,3.72-1.22,5.57-1.88.79-.28,1.51-.73,2.27-1.1-.91-.27-2-1.01-2.7-.75-3.91,1.49-7.87,2.96-11.52,4.96-4.04,2.21-7.88,4.84-11.59,7.58-2.39,1.77-4.36,4.1-6.57,6.12-.68.62-1.51,1.08-2.28,1.61.23-.85.29-1.8.71-2.53v.03ZM262.8,64.74c.92.48,1.37,1.92,1.93,2.77-.73,2.18-.7,3.71-2.36,5.57-.85.96-1.72,1.93-2.74,2.7-1.46,1.11-3.18,1.79-4.89,2.46-.96.38-1.92.75-2.88,1.13-.98.39-2.21.73-3.01,0-.69-.63-.64-1.72-.5-2.63.49-3.12,1.41-6.51,2.88-9.27.7-1.31,1.58-1.56,2.98-.59.36.25,1.77-.61,2.37-1.27,1.84-2.01,4.05-2,6.21-.88h0ZM221.29,46.56c-7.54-1.9-10.27-6.52-9.29-16,1.56,6.26,4.71,11.39,9.95,15.17.3.22.44.68.66,1.02-.44-.06-.88-.09-1.31-.2h-.01ZM235.08,48.66c-9.42-2.91-17.85-7.12-21.47-17.45-.2-.58-.22-1.21-.33-1.82.53.16,1.07.29,1.58.49,6,2.44,11.9,5.08,16,10.5,1.79,2.37,3.29,4.96,4.92,7.45.1.16.2.33.46.77-.48.03-.86.14-1.17.05h0ZM215.6,73.58c-1.66,2.98-4.52,5.24-7.26,7.33-.71.54-1.46,1.1-2.34,1.2-1.21.14-2.37-.58-3.4-1.28-2.24-1.5-3.84-2.68-1.63-5.08,1.98-2.15,4.16-3.48,6.66-4.96.78-.46,1.57-.93,2.45-1.14.73-.18,1.5-.18,2.26-.18,1.1,0,2.2,0,3.3.01.13,0,.27,0,.37.09.13.11.14.3.14.47,0,1.4.08,2.29-.54,3.53h-.01ZM196.43,66.09c11.82-5.77,24.08-4.24,36.23-3.57-11.83,1.85-23.57,4.42-36.23,3.57ZM203.51,57.04c1.61-.73,3.64-.77,5.48-.75,5.66.07,11.32.31,16.98.49,0,.32,0,.64.02.95-4.04-.13-8.12-.55-12.12-.28-2.84.19-5.78.94-8.33,2.15-4.71,2.22-9.46,3.91-14.84,4.02,4.35-2.27,8.49-4.62,12.81-6.59h0ZM180.33,75.26c.13-1.16.5-2.27.87-3.37.37-1.1.77-2.25,1.6-3.05.37-.35.82-.61,1.33-.81,1.5-.57,3.45-.53,4.89-.37,1.14.12,2.33.38,3.3,1.06,1.39.99,2.12,2.39,2.16,4.09.04,1.5-.57,2.84-1.52,3.92-1.34,1.53-3.55,2.24-5.51,2.57-1.48.24-4.74,1.03-6.11.09-1.11-.76-1.13-2.95-1-4.14h-.01ZM269.11,181.15c-.34.99-.69,2-1.31,2.83-.92,1.23-2.35,1.96-3.76,2.54-2.48,1.03-5.17,1.76-7.86,1.42-2.69-.34-5.39-1.95-6.47-4.49-1.45-3.42-.57-13.62,4.96-12.72.44.07.8.77,1.19,1.18-1.11,1.02-3.74,2.05-1.32,3.7,2.33,1.58,3.75-1.17,4.13-2.85.54-2.34,3.05-3.06,5.54-2.75,1.9.23,3.79,1.06,4.76,2.22,1.02,1.2,1.36,2.87,1.25,4.42s-.61,3.04-1.11,4.5h0ZM291.62,179.14c-.49,2.47-1.7,4.8-3.59,6.4-.81.68-1.74,1.22-2.74,1.57-1.34.48-2.8.62-4.22.33-2.47-.5-4.71-2.37-5.45-4.81-1.83-6.02,3.66-14.2,10.07-12.84,2.84.6,5.41,2.91,6,5.79.24,1.18.16,2.39-.07,3.56ZM313.88,174.48c-.27,1.99-1.16,3.87-2.39,5.43-1.44,1.85-3.46,3.37-5.8,3.62-2,.21-4.02-.52-5.81-1.51-.9-.5-1.79-1.08-2.45-1.88-3.39-4.1.75-9.25,2.72-12.68l.5.35c-.11,1.43-.22,2.86-.32,4.28,1.18-1.01,2.42-1.95,3.52-3.05.99-.99,1.71-2.27,2.75-3.2,4.43-3.98,7.5,4.36,7.35,7.78-.01.29-.04.57-.08.85h.01ZM321.85,158.23c.22-.33.74-.45,1.12-.67,0,.53.22,1.23-.03,1.57-1.32,1.81-2.75,3.54-4.14,5.3-.19-.12-.39-.25-.58-.37,1.2-1.94,2.38-3.91,3.63-5.82h0ZM335.86,166.08c-2.1,5.19-5.89,9.67-12.05,9.46-3.26-.11-8.23-.78-6.36-5.44.47-1.17,1.3-2.13,2.02-3.16,1.48-2.12,2.53-4.66,4.45-6.42,2.08-1.9,4.64-3.74,7.01-5.27.47-.3,1.61-.1,2.11.31,3.39,2.7,4.54,6.27,2.82,10.53h0Z"/>
  <path class="cls-1" d="M76.94,552.04c14.55,2.02,29.09,4.16,43.66,6.04,10.96,1.41,21.96,2.54,32.95,3.67.76.08,1.61-.98,2.46-1.42,1.42-.73,2.85-1.86,4.33-1.95,1.83-.11,3.88.33,5.56,1.13,6.49,3.06,13.2,2.36,19.92,1.52,2.13-.27,4.19-1.17,6.31-1.35,1.01-.08,3.06,1.16,3.02,1.3-.85,2.75.92,1.71,2.16,1.67,1.2-.04,3.08-.55,2.14,1.94-.03.08.76.7,1.13.67,1.9-.17,3.78-.53,5.67-.7.56-.05,1.16.3,1.75.46-.48.4-.92.86-1.45,1.18-5.77,3.52-11.93,2.11-15.79-1.91-3.25-3.38-5.66-1.61-8.52-1.55-1.65.04-3.28.48-4.92.75,1.53.87,3,1.88,4.61,2.6,7.83,3.5,15.49,7.56,24.35,7.93.29.01.57.25.86.38-.29.2-.59.58-.86.56-3.77-.26-7.76.1-11.26-1.04-6.69-2.16-13.13-5.12-19.61-7.89-1.87-.8-3.37-1.08-5.38-.11-1.55.74-3.73.9-5.43.5-9.79-2.3-19.78-1.71-29.68-2.35-16.29-1.06-32.6-1.75-48.88-2.84-3.76-.25-7.49-1.37-11.18-2.31-1.43-.37-2.87-1.15-3.99-2.11-.62-.54-.95-1.94-.73-2.78.16-.63,1.35-1.27,2.16-1.39,1.5-.22,3.05-.06,4.58-.06.02-.18.05-.36.07-.54h-.01ZM126.47,562.03c.03-.38.05-.76.08-1.14-5.22-.88-10.42-1.86-15.65-2.63-11.04-1.61-22.09-3.17-33.16-4.59-1.79-.23-3.69.39-5.55.62,1.8,1.18,3.48,3.1,5.42,3.42,7.98,1.3,16.02,2.36,24.07,3.04,8.24.7,16.52.87,24.79,1.27h0ZM163.42,562.3c.54-.1,1.63-.31,2.72-.51-.96-.42-1.92-.85-2.89-1.26-.79-.33-1.61-.93-2.37-.87-.85.07-1.66.76-2.48,1.18.62.41,1.2.99,1.88,1.2.8.24,1.7.16,3.14.27h0Z"/>
  <path class="cls-1" d="M272.1,117.82c-4.33-.23-8.69-.82-12.98-.53-10.88.75-15.97,5.77-17.35,16.44-.91,6.98-3.12,9.66-8.99,10.9-.45.09-.92.08-1.38.11.07-.51,0-1.09.23-1.52,1.13-2.19.37-4.22-1.41-5.3-1.43-.87-3.58-1.25-5.19-.92-3.49.72-4.19,3.9-4.88,6.94-.13.56-.78,1.36-1.24,1.39-7.04.42-14.09.73-21.14,1.07-5.34.26-10.71,1.04-16.02.64-3.3-.25-6.53-2.26-9.79-3.49,5.08,3.12,10.39,5.33,16.4,5.12,10.02-.36,19.9-3.13,30.05-.91,1.74.38,3.34,1.5,5.05,2.11,2.01.71,4.1,1.79,6.1,1.73,5.84-.18,11.5-5.66,13.42-12.53.89-3.21,1.45-6.52,2.45-9.69,1.08-3.44,2.81-6.59,6.76-7.23,3.89-.63,7.86-.81,11.77-1.39,2.77-.41,5.49-1.15,8.22-1.79.3-.07.53-.45.79-.68-.29-.17-.57-.47-.87-.49v.02ZM227.13,147.37c-1.53.17-3.12-.59-3.71-2.19-.33-.9-.47-3.05.05-3.85.22-.33.56-.56.9-.76,1.24-.73,3.4-1.53,4.84-.68.9.53.86,1.43.9,2.36.08,1.75,0,3.87-1.71,4.74-.4.2-.83.33-1.27.38h0ZM231.54,148.19c-.31.11-.78-.2-1.17-.32.32-.3.59-.73.97-.87,1.98-.75,3.98-1.42,5.98-2.12.13.32.26.63.39.95-2.05.8-4.1,1.62-6.17,2.36Z"/>
  <path class="cls-1" d="M197.23,188.95c-3.66-.47-7.7-1.73-9.76-6.34-1.93-4.33-.61-10.22,3.03-13.95,3.75-3.84,5.35-4.11,10.2-2.06.81.34,2.03.34,2.78-.04,2.53-1.29,4.28-.4,5.89,1.73,3.07,4.06,3.18,9.14.19,13.29-3.99,5.54-7.13,7.55-12.33,7.38h0ZM207.95,174.71c-.38-2.04-1.58-4.76-3.31-5.36-1.35-.46-1.74.74-2.98,1s-2.46-.5-3.53-1.18c-2.12-1.37-4.7-1.06-6.16.95-2.12,2.92-3.16,7.64-.92,10.87,1.05,1.52,2.56,2.66,4.08,3.71,1.08.75,2.21,1.49,3.49,1.72,2.76.5,5.3-1.5,6.94-3.74,1.43-1.95,2.51-4.25,2.53-6.71,0-.36-.04-.8-.13-1.27h-.01Z"/>
  <path class="cls-1" d="M240.17,177c-.87-6.55-5.05-9.33-10.85-7.28-.72.25-1.62,0-2.41.12-1.87.25-4.04.06-5.54.96-3.52,2.1-4.57,5.79-4.58,9.84,0,5.85,2.13,8.15,8.49,9.13,9.29,1.43,16.03-4.34,14.91-12.76h-.02ZM235.51,182.07c-.71,2.17-2.17,3.98-4.28,4.61-.62.19-1.28.23-1.93.28-1.65.12-3.33.24-4.97-.05-1.65-.29-3.29-1.03-4.36-2.35-1.42-1.75-1.61-4.18-1.42-6.39.25-2.96,1.96-3.95,4.16-5.58.17-.13.35-.26.55-.33.23-.07.47-.07.72-.06,1.12.05,2.25.09,3.37.14.39.02.79.03,1.15-.11.39-.15.68-.47,1.05-.66,1.89-1,4.49,1.53,5.45,3.07,1.32,2.11,1.25,5.2.52,7.43h-.01Z"/>
  <path class="cls-1" d="M175.34,168.17c-1.09-.36-2.28-.51-3.15.06-1.91,1.25-1.15,3.45.97,3.65,1.86.18,3.81.95,4.85,2.55.96,1.49.95,3.39.7,5.11-.26,1.73-.96,3.67-2.61,4.18-1.35.42-2.78-.29-4.17-.66-1.2-.32-2.25-.14-3.21-.97s-1.45-2.65-1.85-3.82c-.26-.75-.18-1.61-.25-2.41-.41.87-.9,1.71-1.2,2.62-.17.52-.03,1.14-.03,1.72-.11,5.13,4.29,8.88,9.27,7.96,4.94-.91,7.6-3.92,7.87-8.89.22-4.09-1.83-8.43-5.55-10.39-.47-.25-1.03-.51-1.63-.71h0Z"/>
  <path class="cls-1" d="M387.81,558.95c-8.15,1.08-16.33,1.94-24.44,3.28-14.6,2.42-29.15,5.17-43.73,7.7-3.28.57-6.62,1.06-9.94,1.1-3.57.05-4.22-1.42-2.39-4.47.38-.64.73-1.3,1.09-1.95-.81.09-1.63.16-2.43.29-5.03.83-10.05,1.7-15.08,2.5-.84.13-1.75.15-2.57-.01-.85-.17-1.64-.63-2.46-.96.79-.08,1.58-.18,2.37-.22,2.57-.14,5.17-.11,7.7-.48.82-.12,1.64-1.21,2.17-2.04,1.78-2.77,3.4-5.65,5.18-8.43.27-.42,1.1-.49,1.68-.72.08.68.46,1.53.19,2.02-1.19,2.17-2.58,4.24-3.88,6.35-.23.37-.42.76-.63,1.15.51.06,1.03.22,1.52.17,5.4-.55,10-2.65,13.83-6.64,1.33-1.38,3.45-2.01,5.21-2.97-.99,1.68-1.77,3.53-3.02,4.99-2.17,2.53-4.7,4.77-6.93,7.25-.75.83-1.06,2.04-1.58,3.08,1.11.1,2.26.45,3.31.25,7.04-1.27,14.1-2.51,21.09-4.03,17.71-3.86,35.51-7,53.74-7.21h0Z"/>
  <path class="cls-1" d="M328.04,124.66c-7.74,6.64-16.57,10.13-26.97,9.3-1.43-.11-2.89.57-4.35.86-.44.09-1,.27-1.33.09-3.24-1.84-6.45-3.75-10.15-5.92,15.52,6.1,29.47,3.57,42.8-4.34h0Z"/>
  <path class="cls-1" d="M168.31,128.19c12.5-1.41,26.29-2.98,40.08-4.54-13.44,4.48-27.31,5.41-40.08,4.54Z"/>
  <path class="cls-1" d="M370.66,261.12l.22-.09.19.17c-.13-.04-.27-.07-.41-.08h0Z"/>
  <path class="cls-1" d="M266.26,363.49c-9.82,5.5-19.84,10.38-31.44,11.17-2.32.16-3.41-.48-4.78-2.39-1.61-2.23-3.88-5.1-6.17-5.48-4.44-.74-9.07.63-12,4.32-2.02,2.55-3.85,2.33-6.22,1.02-.84-.47-1.64-1.02-2.46-1.51-5.93-3.52-11.63-7.74-18.55-8.83-8.09-1.28-16.24-2.12-24.37-3.1-1.55-.19-3.13-.12-4.69-.17-.02.16-.04.32-.07.49,1.87.67,3.7,1.51,5.62,1.97,6.85,1.64,13.78,2.92,20.57,4.79,3.73,1.03,7.33,2.77,10.83,4.52,4.3,2.15,8.3,5,12.7,6.83,2.14.89,3.49,1.03,2.73,3.77-.22.81.75,2.11,1.38,3.05,4.61,6.83,16.91,5.43,19.7-2.78,1.09-3.21,2.75-4.67,6.11-3.99,7.09,1.44,13.5-.75,19.5-3.8,9.42-4.78,18.52-10.19,27.87-15.13,3.04-1.61,6.44-2.55,9.68-3.79-9.3,1.28-17.88,4.51-25.96,9.03h.02ZM227.4,378.99c-2.12,4.16-6.68,6.19-11.7,5.17-1.37-.28-2.85-.76-3.64-1.95-.57-.86-.67-1.94-.63-2.95.22-5.46,3.77-8.44,8.55-10.15.98,1.63,1.68.43,3,.72,1.6.35,2.96,1.07,4.38,1.96.39.24.78.51,1.01.91.26.45.28,1,.25,1.51-.09,1.8-.53,3.41-1.22,4.78Z"/>
  <path class="cls-1" d="M376.38,382.45c-5.28,2.36-10.47,4.93-15.85,7.01-7.1,2.74-14.35,5.81-22.22,4.24-3.71-.74-7.73-2.57-10.49-5.14-2.47-2.3-4.42-5.09-7.93-4.91-3.68.2-6.42,2.54-7.64,5.92-.87,2.39-2.28,3.13-4.47,3.28-1.04.08-2.05.32-3.08.45-9.21,1.16-18.42,2.31-27.63,3.46,1.17.63,2.34.8,3.47.68,9.1-.98,18.21-1.93,27.28-3.1,2.17-.28,3.76-.7,4.17,2.3.12.85,1.19,1.78,2.03,2.34,4.58,3.08,11.18,1.89,13.98-2.68.99-1.62,1.74-1.52,3.37-1.01,3.43,1.06,6.98,2.25,10.49,2.38,8.67.32,16.43-2.99,23.79-6.97,3.95-2.13,7.48-5.04,11.2-7.59-.15-.22-.31-.44-.46-.66h-.01ZM323.87,388.81c.5.54.88,1.2,1.07,1.92.33,1.24.12,2.58-.49,3.67-.86,1.54-2.6,3.31-4.46,3.33-1.45.02-3.05-.52-4.05-1.64-.73-.82-1.13-1.96-.95-3.02.22-1.31,1.22-2.31,1.77-3.51,1.23-2.71,3.59-3.06,6.01-1.64.41.24.78.54,1.1.89h0Z"/>
  <path class="cls-1" d="M389.19,356.11c-8.76,11.55-23.24,24.14-32.88,20.94,12.98-1.03,20.4-10.22,28.8-17.89,1.25-1.14,2.75-2,4.14-2.98l-.06-.06h0Z"/>
  <path class="cls-1" d="M231.87,259.12c-3.47-2.37-8.06-2.35-11.72-.64-10.51,4.9-7.89,16.24-2.08,22.93.81.93,2.31,1.59,3.54,1.73,6.97.77,16.79-2.05,16.98-12.7.07-4.03-3.56-9.15-6.73-11.31h.01ZM227.87,279.44c-1.85,0-3.72-.12-5.48-.73-1.87-.65-3.61-1.92-4.47-3.73-2.45-5.13,1.11-15.62,7.86-14.5,3.32.55,8.2,3.75,9.31,7.21.41,1.28.31,2.67.02,3.96-.55,2.4-1.76,4.63-3.48,6.35-.52.53-1.11,1.02-1.82,1.25-.51.16-1.06.18-1.59.18h-.35Z"/>
  <path class="cls-1" d="M191.71,282.79c-4.71-.15-9.23-.61-11.39-6.01-1.25-3.11-1.17-5.98.67-8.73,3.63-5.44,9.19-6.93,15.25-7.83,2.37-.35,4.05.23,5.27,1.96,1.8,2.54,4.44,5.25,4.67,8,.79,9.23-4.01,13.08-14.47,12.61h0ZM201.04,266.7c-1.74-1.32-4.92-2-6.76-2.74-3.15-1.27-4.85-.71-7.56,1.31-3.34,2.49-4.88,8.61-1.51,11.87,1.39,1.34,3.19,2.13,4.97,2.8,1.09.41,2.2.79,3.35.87,2.4.18,4.74-1.01,6.29-2.81s2.37-4.17,2.67-6.57c.18-1.44.12-3.05-.83-4.16-.17-.2-.38-.39-.62-.57h0Z"/>
  <path class="cls-1" d="M338.07,195.29c-12.92,9.11-25.79,18.27-40.38,24.65-.63.27-1.34.36-2.01.54.03-.65,0-1.31.1-1.95.33-2.22-2.62-5.08-4.89-4.73-2.6.41-4.98,2.41-6.33,4.9-.01.05,0,.1-.01.15-.18.42-.36.84-.53,1.26-.04.07-.11.1-.15.16-.17.51-.3,1.03-.37,1.56-.12.86-.98,2.15-1.69,2.27-3.98.67-8.01,1.37-12.05,1.47-13.12.31-25.87-1.93-38.08-7.58.75.73,1.55,1.32,2.43,1.77,13.87,7.23,28.54,8.63,43.59,7.5,3.48-.26,6.88-1.54,10.58.13,1.16.52,3.3-.9,4.8-1.75,1.63-.93,2.88-2.63,4.58-3.32,17.71-7.17,32.86-18.26,46.98-31.03-2.19,1.33-4.47,2.54-6.55,4.01h-.02ZM290.35,223.58c-1.11.22-2.33.18-3.27.02-.45-.07-.98-.3-1.04-.76-.06-.49.54-1.09.66-1.55.22-.85-.09-1.54.48-2.39.52-.78,1.3-1.33,2.1-1.81.8-.48,1.67-.92,2.61-.97.51-.03,1.09.11,1.36.56.13.22.17.49.19.75.29,2.96.29,5.48-3.08,6.15h-.01Z"/>
  <path class="cls-1" d="M157.47,283.43c-4.61-.34-8.38-1.05-10.38-5.09-1.68-3.39-2.15-7.02.19-10.11,3.12-4.13,7.57-6.19,12.75-6.19s9.18,4.4,9.71,10.54c.34,3.89-2.94,9.99-8.51,10.16-1.48.04-2.94.53-3.75.68h-.01ZM166.58,272.44c.21-.79.3-1.6.24-2.42-.07-.91-.35-1.86-1.03-2.47-.41-.36-.92-.58-1.42-.78-4.7-1.88-7.98-3.1-11.86.76-2.32,2.3-3.51,7.74-1.58,10.82,1.01,1.61,3,2.23,4.83,2.61.95.2,1.94.36,2.86.11.81-.22,1.49-.74,2.15-1.25,1.56-1.23,3.1-2.53,4.27-4.15.69-.97,1.25-2.06,1.55-3.22h-.01Z"/>
  <path class="cls-1" d="M142.42,229.56c.45.26.93.47,1.34.79,10.71,8.52,23.11,12.36,36.18,14.48,16.68,2.71,33.08.41,49.52-1.12,2.45-.23,4.91-.41,7.37-.56.4-.02.82.25,1.24.38-.31.28-.58.71-.94.81-4.14,1.17-8.23,2.82-12.47,3.3-9.38,1.05-18.84,2.25-28.28,2.01-14.58-.37-28.96-2.97-42.18-10.27-4.48-2.48-8.91-5.15-11.78-9.81h0Z"/>
</svg>