<?xml version="1.0" encoding="UTF-8"?>
<svg id="Layer_1" data-name="Layer 1" xmlns="http://www.w3.org/2000/svg" version="1.1" viewBox="0 0 489.99 585.66">
  <defs>
    <style>
      .cls-1 {
        fill: #000;
        stroke-width: 0px;
      }
    </style>
  </defs>
  <path class="cls-1" d="M46.4,353.92c15.66,10.72,32.84,18.42,50.6,24.87,19.84,7.21,40.24,12.43,61,16.13,11.93,2.12,23.97,3.77,36.02,5.05,12.75,1.35,25.55,2.47,38.36,2.84,13.49.39,27.01-.19,40.51-.4,10.3-.16,20.55-1.03,30.74-2.46,9.65-1.35,19.34-2.5,28.88-4.38,16.78-3.3,33.23-7.87,49.18-14.13,19.75-7.75,38.45-17.44,55.47-30.2,3.1-2.32,6.04-4.87,9.09-7.27.65-.51,1.12-1.24,2.37-.55,2.43,1.34,3.69.72,3.52-1.83-.17-2.65,1.14-4.19,2.76-5.84,4.51-4.61,8.51-9.62,11.41-15.42,2.48-4.98,3.96-10.28,3.46-15.86-.65-7.23-3.45-13.68-8.12-19.27-1.56-1.87-3.21-3.67-4.82-5.49-.3,1.1-.07,1.8.29,2.44,1.37,2.44,2.94,4.79,4.15,7.31,2.53,5.25,4.12,10.86,3.44,16.65-1.22,10.32-7.73,17.77-14.22,25.04-2.5-6.03-4.68-11.91-7.37-17.54-1.85-3.88-3.41-7.81-4.43-11.96-2.47-10.01-6.13-19.54-10.88-28.7-4.37-8.43-10.04-15.76-17.21-21.95-2.53-2.18-5.14-4.27-7.79-6.31-2.01-1.54-3.2-3.4-3.62-5.96-1.18-7.1-2.57-14.16-3.83-21.25-.35-1.97-.81-3.97-.74-5.94.11-2.9.66-5.79,1-8.69.58-4.88.16-9.63-2.55-13.85-.99-1.54-1.02-2.76-.59-4.46.88-3.47,1.34-7.05,2.09-10.56.21-.99.73-1.95,1.29-2.81,1.23-1.88,1.81-4.05,1.44-6.1-1.86-10.21-7.73-17.47-17.12-21.7-4.3-1.94-8.31-.63-11.39,3.13-.53-1.81-1.09-3.44-1.43-5.11-.1-.51.7-1.58.6-1.65-1.57-1.05-1.44-2.7-1.67-4.25-.43-2.77-.89-5.53-1.41-8.28-.5-2.63.87-5.62-1.54-7.89-.13-.12,0-.51,0-.78-.04-2.92-.09-5.83-.11-8.75-.04-4.61-1.1-9.02-2.87-13.22-.69-1.65-.58-2.79.24-4.37,3.33-6.45,2.49-11.21-2.66-16.33-1.71-1.7-3.57-3.23-5.33-4.87-.46-.43-1.24-1.16-1.12-1.45.79-1.93-.14-3.69-.27-5.51-.04-.6.15-1.36.52-1.82,1.19-1.46,2.51-2.81,3.86-4.29,1.09,3.73-1.25,6.57-2.02,9.89,4.23-1.36,6.59-6,5.06-9.92-.85-2.17-1.28-4.23-1.21-6.57.13-3.83-2.18-6.14-6.06-6.55-.88-.09-1.75-.24-2.7-.37.36-3.65.08-6.88-1.96-9.83-2.26-3.27-5.53-3.82-9.12-3.54-.36-1.97-.55-3.69-1.01-5.35-.72-2.61-2.21-4.57-5.07-5.06-5.13-.88-10.99,2.79-12.49,7.85-.12.4.1.9.22,1.82.72-.89,1.07-1.47,1.56-1.88,1.52-1.29,2.96-2.74,4.68-3.7,3.72-2.08,6.44-1.14,7.94,2.79.97,2.55,1.44,5.28,2.17,8.03.59-.29,1.41-.69,2.23-1.08,1.86-.9,3.39-.24,4.71,1.07,2.12,2.1,2.86,6.08,1.39,8.85-.73,1.38-.04,1.81.87,1.93,1.3.18,2.65-.04,3.98,0,3.99.09,5.83,2.16,5.63,6.08-.16,3.03-1.86,5.2-3.82,7.6-.57-.94-.95-1.77-1.51-2.46-1.18-1.43-2.23-3.14-3.74-4.08-2.46-1.53-5.26-2.5-5.6-5.97-.03-.34-.4-.7-.69-.97-1.25-1.18-2.47-1.38-3.76.14.45.31.77.53,1.09.74,1.18.79,1.61,2.1.89,3.09-.4.55-1.95.61-2.86.39-1.94-.45-3.76-1.38-5.7-1.84-5.97-1.43-9.9.84-11.72,6.67-.32-.22-.66-.4-.91-.65-1.99-2.01-4.32-1.91-6.67-.92-2.37,1-3.21,3.04-3.29,5.49-.04,1.19-.17,2.38-.2,3.57,0,.27.25.77.42.79.34.03.91-.11,1.01-.34.39-.97.59-2.03.96-3.01.72-1.87,2.13-3.09,4.02-3.62,1.82-.51,2.47,1.24,3.58,2.1.1.08.23.13.34.19.86-.31,1.72-.62,2.58-.94.45-.8.9-1.6,1.34-2.4,2.01-3.75,5.54-4.8,10.18-2.67-3.97,1.86-7.64,3.58-11.31,5.29-2.62,2.04-5.23,4.08-7.86,6.1-3.49,2.69-5.91,2.68-9.18-.17-4.45-3.88-9.1-7.48-14.32-10.24-2.93-1.55-6.04-2.76-9.1-4.03-2.54-1.05-4.69-.09-6.6,1.6-.7.62-1.51,1.24-1.91,2.04-1.51,3.04-3.8,3.19-6.55,2.02-.12-.05-.26-.06-.39-.09-7.37-2.24-15.01,3.02-16.65,9.43-.43,1.66-.7,3.35-1.08,5.21-2.5-.83-3.77-2.87-5.13-4.82-1.45-2.08-2.72-4.31-4.39-6.19-2.61-2.94-6-4.03-9.77-2.55-2.58,1.01-4.99,2.44-7.79,3.83-3.7-3.14-8.41-3.6-13.32-3.13-1.66.16-3.01-.06-4.36-1.33-3.91-3.68-6.64-2.58-9.41-.95-3.56,2.08-5.15,6.04-4.1,10.2.36-.83.65-1.4.86-2,.88-2.55,2.72-4.2,4.95-5.56,2.37-1.45,4.58-1.29,6.63.52,1.4,1.24,2.66,2.64,4.05,3.89.3.27.89.21,1.34.3-.02-.45,0-.91-.07-1.36-.05-.31-.23-.6-.53-1.37,3.21.86,6.04,1.51,8.8,2.4,1.85.6,3.2,1.51,2.77,4.08-.38,2.29,1.26,3.58,3.36,3.35,1.91-.2,2.71-1.37,2.54-3.78-.04-.52-.31-1.04-.32-1.56,0-.47.03-1.15.32-1.39,4.46-3.66,9.11-5.72,13.25-.7,1.79,2.16,3.7,4.23,5.34,6.5,2.09,2.88,5.47,2.25,8.23,3.25.44.16,1.5-.87,1.99-1.56.33-.47.14-1.3.24-1.95,1.01-6.53,5.86-9.87,12.39-8.53,1.69.35,2.56,1.45,2.62,3.32.23,6.64,5.4,11.82,12.07,12.03,2.27.07,4.61-.24,6.81.17,5.19.97,10.39.41,15.58.47-1.15.66-2.2,1.91-2.75,2.45-6.31,6.12-10.73,13.61-15.34,20.98-2.21,3.53-2.64,7.19-1.28,11.11,1.76,5.07,3.14,10.21,2.75,15.66-.05.65.15,1.32.29,1.97.96,4.53,1.93,9.06,2.95,13.83-2.57,2-5.73,2.81-9.16,2.31-3.94-.58-7.36.53-10.6,2.68-2.56,1.7-5.16,3.35-7.83,4.87-4.81,2.74-9.95,4.52-15.53,4.86-3.19.19-4.29-.51-5.57-3.43-.69-1.58-1.21-3.32-2.24-4.64-1.21-1.55-1.72-3.22-2.22-5.04-2.33-8.47-4.73-16.93-7.21-25.37-1.31-4.47-3.86-8.12-7.52-11.1-2.79-2.27-5.17-5.06-7.92-7.39-2.68-2.26-3.94-5.78-7.04-7.65-.62-.38-.91-1.3-1.53-2.25,3.51.98,6.47,1.73,9.38,2.63,5.85,1.82,11.51-.11,14.95-5.45.64-.99,1.58-1.78,2.36-2.64,6.14,3.99,8.63,5.06,14.82,6.02,5.04.77,9.27-.56,12.13-5.09,1.47-2.32,1.49-2.31,4.05-2.48-.81-1.2-1.57-2.37-2.38-3.51-.77-1.09-1.58-.98-2.28.26-2.78,4.95-6.95,6.83-12.35,5.68-4.53-.97-8.66-2.47-11.78-6.23-1.64-1.97-2.81-1.59-4.23.76-.18.3-.4.59-1.05,1.55-.21-1.4-.47-2.15-.38-2.85.07-.58.55-1.12.86-1.66,1.53-2.63,4.07-3.49,6.77-2.19,1.27.62,2.44,1.44,4.12,2.44-1.49-3.6-3.81-5.54-7.03-5.59-3.05-.04-4.85,2.26-6.05,5.09-1.26-5.5-2.73-6.28-7.79-6.09-1.85.07-3.69.4-5.52.72-1.44.26-2.35,0-2.42-1.68,0-.22-.52-.42-1.02-.79-.83,3.28-3.02,4.58-6,5.28-2.44.57-4.75,1.74-7.07,2.75-3.79,1.65-8.67-.56-9.85-4.63-.32-1.1-.6-2.02-1.78-2.35-2.18,2.65-2.12,2.53-4.35,1.13-2.28-1.43.55-2.02.31-3.36-3.54.58-5.77-.96-6.58-4.49-.03-.12-.44-.16-.82-.29-.16.49-.32.98-.49,1.47-.15.43-.31.85-.66,1.77-1.42-1.58-2.51-2.72-3.5-3.93-.3-.37-.52-1-.45-1.46.35-2.44,4.52-4.97,6.82-3.96,1.93.85,3.66,2.14,5.48,3.24,1.49.91,2.78,2.3,5.38,2.29-1.46-1.51-2.45-2.57-3.48-3.59-.86-.85-1.72-1.69-2.65-2.45-4.09-3.33-6.69-3.55-11.39-.97-1.53-5.78-3.83-10.93-10.61-12.25.41-.98.76-1.81,1.09-2.62,1.56.18,2.99.49,4.42.48,1.43,0,2.87-.31,4.33-.49,4.62,7.47,17.68,8.89,24.13,4.97,2.24-1.37,3.79-1.73,6.33-.47,6.37,3.18,14.61-.91,16.29-7.7.08-.32-.03-.84-.25-1.03-.24-.21-.79-.28-1.09-.15-.84.38-1.64.87-2.43,1.36-1.47.91-2.86,1.99-4.41,2.76-4.08,2.04-7.55.77-9.56-3.29-.46-.94-1.02-1.92-1.78-2.6-1.4-1.25-3.37-.45-3.51,1.42-.07,1.02.17,2.13.55,3.1.56,1.42.05,2.37-1.06,3.07-1,.64-2.05,1.31-3.17,1.64-3.8,1.11-7.68,1.22-11.41-.14-2.09-.76-4.34-1.73-5.83-3.28-1.35-1.41-2.4-1.82-4.05-1.18-1.62.62-3.22.38-4.64-.44-1.23-.71-2.23-1.82-3.45-2.56-1.1-.67-2.31-1.23-3.55-1.54-.55-.14-1.28.47-2.15.83,4.14,2.62,4.41,3.57,2.45,7.64-.64,1.32-1.39,2.6-1.91,3.97-.21.56.05,1.31.16,2.76,2.2-3.22,4.66-3.93,7.4-2.66,2.25,1.04,3.78,3.02,4.75,5.27,1,2.32,2.53,4.61,1.55,7.63-.71-.81-1.23-1.41-1.77-2-3.25-3.58-6.95-5.22-11.8-3.22-2.6,1.07-4.9-.95-4.34-3.68.27-1.35.89-2.62,1.42-4.16-1.36.12-2.35.21-3.35.31-.21.02-.59.18-.59.21.14.63.64,1.4.44,1.87-1.5,3.41,0,5.89,2.4,8.05-1.92.16-3.71.33-5.5.46-3.89.29-6.23-1.7-6.22-5.56,0-3.99,1.48-7.5,3.74-10.79,1.2-1.74,2.5-.67,3.81-.77,1.77-.14.91,1.21,1.27,1.86.29.53.61,1.04,1.24,2.1.49-3.16.92-5.58-.84-7.86-.34-.44-.27-1.61.09-2.11,3.92-5.5,9.19-8.92,15.99-9.47,1.46-.12,3.15.61,4.48,1.38,1.45.83-.37,2.18.05,3.28.08.21.34.35.52.53.57-.39,1.33-.66,1.7-1.2.44-.64.48-1.55.84-2.27.35-.7.76-1.44,1.34-1.93,3.34-2.87,7.22-4.57,11.64-4.71,1.29-.04,2.66.27,3.87.73,2,.77,2.17,1.42,1.48,3.64-.69,2.24-.37,3.51,1.04,4.06,1.19.46,2.51-.29,3.03-2.39.56-2.23,2.02-3.55,3.82-4.35,2.41-1.06,4.98-2.01,7.57-2.38,4.62-.65,7.4,1.38,9.01,5.86.1.29.53.47.83.71,1.93-3.87.97-7.35-2.6-9.13-1.16-.57-2.53-.85-3.83-.99-5.07-.54-9.88.18-14.1,3.3-.98.73-1.72.8-2.83.01-1.15-.81-2.61-1.46-3.99-1.62-6.18-.7-11.65.92-16.04,5.53-.52.55-1.07,1.07-1.67,1.66-3.34-2.78-6.99-3.07-10.75-1.99-4.9,1.42-8.93,4.26-11.9,8.41-1.69,2.37-2.93,5.05-6.09,5.91-.58.16-1.06.8-1.49,1.31-3.68,4.33-5.8,9.25-5.45,15.04.26,4.3,3.08,7.54,7.26,8.42,1.28.27,2.57.49,4.34.82-2.82,5.21-2,10.49-1.63,15.71-2.89.77-4.99,3.24-4.95,5.9,0,.62.25,1.33.61,1.84.65.94,1.51,1.48,2.74.82,1.29-.7,1.68-1.64,1.1-2.97-.75-1.73-.33-3.23,1.28-4.51,1.83,3.56,5.12,5.22,8.78,5.42,6.14.33,12.31.12,18.46.03,2.04-.03,4.07-.37,6.1-.59-7.24,6.24-14.37,12.57-20.97,19.55-7.42,7.85-12.83,16.68-15.81,27.04-.27.94-.68,1.84-1.13,3.05-2.02-2.45-3.44-4.78-3.55-7.5-.14-3.6-.18-7.25.3-10.8.73-5.34.34-9.8-5.33-12.4-2.49-1.14-2.86-2.79-1.72-5.36.69-1.57,1.75-2.98,2.66-4.45,1.23-1.99,1.21-2.87-.76-3.85-2.7-1.35-3.35-3.51-3.42-6.24-.12-5.07,1.38-9.74,3.36-14.29.82-1.9,1.39-4.06,3.9-4.7.39-.1.68-1.33.63-2-.02-.27-1.13-.7-1.68-.62-.74.11-1.56.49-2.08,1.02-.92.94-1.76,2.02-2.43,3.16-2.4,4.07-3.95,8.53-4.65,13.13-.72,4.74-.94,9.66,3.54,12.98-.83,1.67-1.56,3.09-2.26,4.53-.99,2.04-1.18,4.24-.21,6.21,1.4,2.84,1.2,5.76.89,8.65-.84,7.94-2.03,15.85-2.8,23.8-.26,2.68-1.12,3.88-3.83,4.65-4.77,1.35-7.84,4.91-9.55,9.53-.37.99-.79,2.25.68,3.13.11-.43.19-.63.22-.85.58-4.69,5.31-9.83,9.69-10.45,1.33-.19,2.13.19,1.51,1.79-.13.34.08.8.22,1.83.52-.93.67-1.27.88-1.56.29-.4.62-.78.93-1.17.47.39,1.2.69,1.37,1.19.3.86.3,1.83.36,2.76.22,3.41-.8,6.59-1.89,9.75-.35.99-.69,2.02-.79,3.06-.1,1.1.83,1.69,1.85,1.25.85-.37,1.64-.9,2.46-1.34.94-.49,1.85-1.12,2.85-1.4,1.72-.49,2.56.13,2.55,1.93,0,1.86-.14,3.74-.49,5.56-.36,1.88-.26,3.76,1.34,4.69,1.67.97,1.62,2.22,1.62,3.68,0,1.34-.09,2.69.08,4,.07.55.65,1.28,1.15,1.44.48.16,1.2-.25,1.74-.54.32-.17.52-.6.74-.94,1.6-2.46,3.25-4.89,4.73-7.41.41-.69.3-1.68.43-2.54.09-.57.18-1.14.31-1.98.77.45,1.27.65,1.66.99,3.72,3.26,5.38,7.54,5.98,12.31.3,2.38.41,4.79.73,7.17.28,2.08,1.79,2.66,3.42,1.37.62-.49,1.17-1.1,1.69-1.71,3.37-3.95,8.5-2.99,10.85.8,1.73,2.79,3.8,5.37,5.73,8.04-.23.03-.46.07-.68.03-2.96-.55-5.81-1.95-8.96-.91-.49.16-1.24-.33-1.83-.6-5-2.25-9.12-.92-11.13,4.05-.76,1.88-1.92,2.79-3.56,3.36-1.54.53-3.01,1.7-4.82.97.03-.43,0-.7.07-.95,2.29-7.85-2.3-14.55-9.14-15.33-1.73-.2-2.07-1.26-2.49-2.61-1.25-3.94-2.56-7.85-3.96-11.74-1.06-2.95-2.64-5.79-5.28-7.4-5.18-3.15-9.94-7.79-16.91-6-.12.03-.27-.02-.4,0-4.19.11-5.86,1.41-7.21,5.56-.49,1.52-.94,3.07-1.59,4.52-1.67,3.72-2.43,7.6-2.32,11.67.14,5.47,2.5,9.44,7.65,11.61,1.34.56,2.66,1.17,4.43,1.95-6.01,1.22-12.19-3.4-13.69-9.78-1.7-7.25-.11-14.01,2.78-20.61,1.96-4.48,4.96-7.89,9.92-9.16.49-.12.91-.48,1.73-.92-5.3-.83-8.64,1.67-11.18,5.32-5.36,7.69-7.21,16.34-5.5,25.48,1.34,7.11,6.5,11.67,13.87,12.36.88.08,1.75.21,2.71.33-1.68,5.2.74,9.21,3.43,13.24-3.05,1.28-5.87,2.16-8.37,3.6-2.59,1.49-4.88,3.51-7.73,5.62.11-1.16.12-1.8.25-2.41.16-.78.43-1.54.65-2.31.46-1.58.94-3.08,1.55-4.63.43-1.09.86-2.19,1.12-3.34.45-1.98.21-3.7-.18-5.64-.11-.53-.84-5.19-.39-5.34-2.35.75-2.09,2.32-2.25,3.73-.36,3.17-.36,6.47-1.26,9.48-1.97,6.61-4.35,13.11-6.68,19.62-4.78,13.38-11.72,26.04-13.69,40.37-.17,1.26-.85,1.83-1.84,2.36-4.53,2.42-7.05,6.44-8.57,11.14-1.54,4.75-1.32,9.5.71,14.07.76,1.72.82,3.22,0,4.94-2.2,4.57-4.17,9.22-7.39,13.25-1.9,2.38-3.34,5.14-4.91,7.77-.85,1.43-.85,3.16.66,3.9,2.64,1.3,3.65,3.78,5.19,5.92,1.17,1.62,6.22,7.64,6.42,1.72.19-5.95,2.76-11.53,4.81-17.05,1.19-3.22,2.42-6.42,3.77-9.96,5.21,2.64,10.41,4,16.04,3.67.26,1.94.35,3.66.73,5.32,1.34,5.92,4.98,10.33,9.78,13.74,7.82,5.55,16.64,6.93,25.96,5.38,3.91-.65,7.76-1.72,11.77-2.64.34,2.6.76,5.2,1.02,7.83.47,4.77,2.16,9.08,4.87,12.97,5.65,8.11,15.31,10.42,24.08,5.81.93-.49,1.85-1.02,2.75-1.52,8.15,8.63,18.73,9.71,27.44,4.81,2.46,5.31,6.79,7.88,12.43,8.92,4.76.88,9.3.05,13.85-.96,2.79-.62,5.52-1.53,8.58-2.39,0,3.25-.05,6.19.02,9.11.04,1.63.84,2.23,2.32,1.65,3.27-1.27,6-3.2,7-6.85,10.11,1.86,17.34-4.15,24.94-9.15-1.15.1-2.17.55-3.18,1-4.75,2.11-9.45,4.3-14.67,5.16-1.97.32-3.69.04-5.48-.53-1.42-.46-2.21-1.33-2.08-2.96.32-3.85.51-7.71.88-11.55.07-.71.56-1.6,1.13-2,2.09-1.44,4.29-2.71,6.46-4.02.19-.11.63-.15.72-.04,1.47,1.88,1.61.46,2.07-.73.42-1.1,1.16-2.08,1.7-3.15,2.04-4.02,5.69-5.86,10.14-5.42,4.05.4,7.77,1.86,11.51,3.22,8.44,3.08,16.75,2.39,25.04-.52.31-.11.76-.72.74-.75-1.12-1.29-.08-2.31.62-3.04,1.64-1.72,3.33-3.5,5.32-4.76,4.43-2.79,7.89-2.1,11.21,2.01,1.51,1.86,2.82,3.89,4.17,5.88,2.8,4.13,6.72,5.56,11.5,4.67,1.55-.29,3.18-.75,4.5-1.58,3.72-2.33,7.3-4.88,10.92-7.36.06-.04-.07-.38-.16-.78-.74.35-1.44.66-2.13,1-3.11,1.53-6.09,3.43-9.35,4.54-7.47,2.53-9.83.31-12.76-3.96-1.5-2.19-3.19-4.32-5.07-6.19-3.37-3.36-7.94-4.11-12.52-1.69-4.46,2.36-7.28,6.08-8.68,11.07-7.19,1.7-14.35,1.29-21.47-1.24-3.5-1.24-7.17-2-10.76-2.96-5.21-1.38-11.17,1.08-13.65,5.94-2.07,4.05-5.85,4.77-10.08,6.57,1.08-4.21,1.84-7.7,2.87-11.1,2.43-8.03,4.82-16.08,9.41-23.27,2.39-3.75,4.98-6.9,9.9-6.98,1.04-.02,2.11-.33,3.12-.66,3.19-1.06,5.74.09,8.06,2.19.5.45.99.9,1.52,1.31,4.96,3.88,9.86,3.88,14.43-.42,2.61-2.46,4.88-5.31,7.06-8.17,2.1-2.76,3.81-5.82,5.8-8.66,1.54-2.2,1.69-2.29,4.25-1.18,4.69,2.03,9.1,1.52,13.41-.98,1.15-.67,2.32-1.34,3.39-2.13,6.81-5.08,12.34-11.42,17.7-17.95,3.23-3.94,4.6-8.39,4.64-13.32.06-6.69-.04-13.38-.13-20.08,0-.63-.41-1.26-.88-2.64-.61,1.79-1.08,2.76-1.26,3.78-1.19,6.81-2.25,13.65-3.52,20.45-.34,1.8-.91,3.73-1.93,5.2-5.2,7.51-11.13,14.37-18.55,19.82-3.8,2.79-7.68,3.97-12.3,1.61-3.12-1.59-5.94-.7-8.3,1.97-1.14,1.29-2.05,2.8-3.05,4.22-2.62,3.71-5.05,7.58-7.91,11.1-3.96,4.89-5.77,5-10.56,1.16-3.64-2.92-7.67-4.23-12.32-3.53-.58.09-1.16.16-1.68.23,1.95-4.19,3.76-8.18,5.68-12.12.82-1.67,1.88-3.23,2.8-4.85.56-.98,1.23-1.5,2.47-1.69,3.07-.46,3.39-.81,3.23-3.82-.08-1.54.35-2.6,1.4-3.52,2.51-2.2,4.92-4.55,7.59-6.54,12.21-9.12,24.49-18.13,36.74-27.18,2.58-1.91,5.17-3.81,7.71-5.75,1.2-.91,2.4-1.24,3.62-.2.54.46,1.29,1.17-.25,1.47-.26.05-.67.86-.56,1.04.24.39.94.92,1.16.81.9-.46,1.98-.97,2.41-1.78.29-.55-.21-1.73-.67-2.42-.45-.67-1.3-1.06-2.06-1.64,1.39-1.11,2.49-2.1,3.71-2.9.44-.29,1.25-.36,1.74-.16,4.03,1.67,5.12,1.58,7.17-1.99,1.09-1.9,2.34-1.88,3.97-1.58,4.78.9,9.02,3.19,13.31,5.3.9.44,1.5,1.73,1.98,2.75.32.68.09,1.6.29,2.37,1.08,4.05,4.29,4.99,7.54,2.26.3-.25.6-.49,1.21-.98,3.17,3.02,6.34,6.03,9.58,9.1-2.44,1.03-4.57,1.83-6.61,2.83-1.23.6-1.4,1.88-.68,3.07,1.02,1.68,2.54,2.23,4.43,2.13,2.12-.11,3.5-1.25,4.32-3.07.35-.76.34-1.69.56-2.86,2.89,2.23,5.78,3.94,6.78,7.41-.61.18-1.4.22-1.71.62-1.36,1.76-.67,4.71,1.27,5.97,1.78,1.16,4.02.77,5.27-1.07.55-.81.81-1.82,1.28-2.92,5.37,4.75,9.94,9.87,13.48,16.53-3.24,0-5.58.65-6.73,3.53,1.85-.72,3.66-.86,5.42-.41-1.38.95-2.82,1.72-3.98,2.79-3.11,2.87-5.57,6.12-5.49,10.67.02,1.29.29,2.46,1.49,3.06.48.24,1.36.25,1.76-.04.59-.42.92-1.21,1.33-1.87.02-.03-.39-.47-.52-.44-2.32.69-1.66-1.08-1.41-1.95,1.42-5.11,4.99-8.55,9.09-11.68.53,1.56.98,2.87,1.68,4.92.21-1.86.32-2.88.53-4.77,1.93,3.32,3.51,5.91,4.92,8.6.25.48-.04,1.6-.47,2.01-5.41,5.12-11.37,9.32-18.92,10.61-3.42.58-6.83,1.29-10.28,1.54-3.96.28-7.37,1.56-10.33,4.18-.9.8-1.92,1.46-2.8,2.28-2.18,2.04-3.9,4.35-4.62,7.35-.32,1.35.06,2.36.95,3.27.77.79,1.89.5,2.16-.62.24-.99.15-2.07.44-3.04.64-2.12,2.59-3.27,3.83-4.89,2.26-2.95,5-4.25,8.47-4.61,1.99-.2,3.97-.47,5.96-.6,8.6-.55,16.18-3.32,21.99-10,1.47-1.69,2.98-3.36,4.52-5.09,1.71,2.88,1.25,5.6.03,8.36-1.51-.54-2.77-1.93-4.52-.59,5.52,3.57,6.51,9.54,4.37,14.49-2.51,5.79-6.97,9.75-12.8,12.04-3.31,1.3-6.71,1.59-9.8-1.16.15.87.33,1.66.83,2.06,2.4,1.93,5.36,2.07,8.03,1.32,8.17-2.32,14.23-7.21,17-15.52.86-2.59,1.06-5.36-.15-7.83-1.25-2.55-1.1-4.84.17-7.34,2.47,4.98,4.58,10.12,6.49,15.33,1.22,3.33,2.58,6.61,3.6,10.01.35,1.18.26,2.17.89,3.37.6,1.16,1.08,2.38,1.42,3.64.41,1.5,1.23,2.47,1.89,3.84.68,1.42,1.3,2.87,2.1,4.24,1.34,2.28,1.37,2.4-.54,4-2.97,2.49-5.93,5.01-9.03,7.34-18.43,13.83-38.7,24.24-60.32,32.05-16.22,5.86-32.83,10.25-49.86,13.13-9.74,1.65-19.48,3.25-29.35,3.96-10.39.75-20.77,1.92-31.17,2.09-14.17.23-28.36-.06-42.52-.6-10.13-.39-20.23-1.48-30.34-2.38-11.15-.99-22.18-2.83-33.2-4.81-15.74-2.84-31.25-6.55-46.51-11.33-18.53-5.8-36.48-12.98-53.29-22.79-10.79-6.3-20.86-13.55-28.89-23.31-9.91-12.04-12.44-25.11-5.5-39.47,3.37-6.97,8.09-12.91,14.28-17.59,6.09-4.6,12.4-8.81,20.35-9.8-1.03-.45-2.11-.93-3.03-.73-2.46.53-4.95,1.12-7.27,2.09-9.73,4.07-17.7,10.45-23.79,19.05-5.12,7.24-8.17,15.21-8.08,24.27.08,7.77,2.72,14.64,6.96,20.97,6.36,9.5,14.89,16.77,24.22,23.16h-.09ZM293.45,69.73c-4.64-.4-9.27-.79-13.91-1.25-3.05-.3-5.45-2.01-7.08-4.67-.96-1.56-.57-1.98-1.68-2.18.42-.48.82-1.28,1.26-1.29,2.91-.11,6.14-.83,8.68.15,5.26,2.02,10.17,4.95,14.74,9.08-.97.09-1.5.21-2.01.17h0ZM137.23,138.28c-1.15,5.59-2.2,11.2-3.37,17.19-2.7-2.33-5.37-1.12-8.07.13.41-3.23.86-6.19,1.15-9.17.23-2.36-.37-4.54-2.25-6.13-1.27-1.07-.99-2.26-.67-3.62,1.07-4.51,2.31-9,2.98-13.57.64-4.32.68-8.73.95-13.11.06-1.04,0-2.08,0-3.24,3.12,1.56,3.91,3.16,3.61,6.39-.3,3.17-.56,6.36-.63,9.55-.1,4.61,1.36,8.69,4.9,11.77,1.25,1.1,1.74,2.16,1.4,3.81h0ZM96.38,202.32v2.54c-.77-.94-.87-1.8,0-2.54ZM65.43,293.64c-4.24-5.15-1.42-18.01,6.28-22.24-1.33,7.86-3.08,15.19-6.28,22.24ZM382.97,249.52c-.06,0-.3-.43-.28-.45.27-.24.58-.43.88-.64.09.21.19.43.33.75-.31.13-.61.28-.93.35h0ZM378.96,144.9s.03.08.05.12c-.1-.07-.19-.14-.29-.21.08.03.19.03.24.09h0ZM360.37,130.84c.23-.22.53-.36.8-.53.06.23.13.46.22.81-.3.09-.6.17-.9.26-.05-.18-.19-.47-.13-.53h.01ZM317.92,70.17c6.02-2.47,11.93-5.27,18.12-7.21,5.3-1.67,8.98-.36,11.61,2.89.14.17.24.34.35.51-1.53,1.4-3.89,3.12-5.09,4.02-3.56,2.68-9.21,2.51-13.34,2.3-2.53-.13-5.05-.39-7.57-.65-1.71-.18-3.17-1.02-4.84-1.34.24-.22.49-.41.77-.53h0ZM321.72,79.59c7.23,1.39,14.38,1.04,21.29-1.47,2.31-.84,4.31-2.53,6.85-4.06,2.02,2.88,4.32,6.07,6.02,9.63.41.86.45,2.11.18,3.05-.43,1.51-1.15,2.97-1.93,4.35-1.18,2.08-1.39,4.05.35,5.88,2.02,2.12,2.84,4.81,3.64,7.49,2.15,7.16,2.3,14.54,1.61,21.86-.53,5.6-3.98,9.65-8.97,12.22-.85.44-2.04.37-3.05.28-1.98-.18-3.94-.63-5.92-.8-1.3-.11-1.56-1.02-1.6-1.91-.1-2.66-.04-5.33-.04-8.31.66-.16,1.6-.21,2.34-.61,1.02-.56,2.1-1.23,2.8-2.12,1.37-1.74,1.31-4.47.13-6-1.23-1.6-2.37-1.76-5.63-.63,0-3.71.27-7.34-.08-10.9-.34-3.55-1.19-7.06-2.02-10.54-.5-2.12-1.77-3.88-3.5-5.25-3.66-2.9-7.24-5.92-11.02-8.65-2.14-1.55-4.6-2.63-6.86-4.39,1.81.29,3.62.54,5.42.89h-.01ZM339.88,120.84c.26-.5.74-1.3,1.06-1.27.66.06,1.54.44,1.84.97.35.61.25,1.52.21,2.29-.07,1.16-.69,2.12-1.91,2.06-1.16-.06-1.23-1.16-1.25-2.11v-.79h.02c0-.39-.13-.85.03-1.16h0ZM294.68,96.75c1.44,1.31,2.95,2.34,4.55.72,1.48-1.5,1.57-3.31.83-5.2-.1-.25-.21-.51-.39-.7-1.15-1.26-.55-2.46.13-3.63,1.07-1.85,2.23-3.65,3.27-5.52.41-.73,1.55-2.67,2.11-3.79.11.12.21.24.34.34,2.68,1.99,8.24,6.95,11,8.82,7.24,4.89,12.71,10.97,13.84,20.09.31,2.51,1.03,4.98,1.22,7.49.22,2.82.05,5.67.05,8.43-1.01-.68-1.85-1.72-2.71-1.73-1.53-.02-3.07.56-4.59.94-.2.05-.38.37-.5.59-.82,1.52-.09,4.32,1.4,5.44,1.45,1.09,3.25,1.01,4.72-.4.64-.61,1.02-1.5,1.58-2.38v12.93c-1.71.4-3.23.92-4.79,1.06-1.13.11-2.73.15-3.4-.51-2.48-2.46-5.64-2.8-8.76-3.45-2.21-.46-3.9-1.66-4.9-3.74-2.03-4.21-1.37-8.6-.9-12.98.05-.48.46-.96.8-1.36.38-.45,1.38-.76.42-1.44-.44-.31-1.26-.37-1.77-.18-.51.18-.89.72-1.31,1.15.29-2.04.62-4.08.85-6.13.23-1.99.5-3.99.48-5.98-.02-2.13-.34-4.26-.57-6.38-.21-1.99.24-4.09-.88-5.98-.75,3.4-1.15,6.78-1.58,10.16-.52,4.1-.67,8.44-2.9,11.94-2.17,3.41-3.21,6.91-3.75,10.8-.35,2.49-.95,5.12-3.32,7.1-1.04-5.87-1.85-11.4-3.08-16.84-.43-1.89-.41-3.03.97-4.57,2.76-3.07,2.28-5.67-1.03-8.48-.19-.16-.28-.42-.49-.73.94-1.82,1.9-3.7,3.04-5.9h.02ZM327.62,125.18c.03.08-.66.58-.7.55-.34-.31-.6-.7-.93-1.13.35-.4.57-.65.79-.91.29.49.63.97.84,1.49ZM290.26,106.51h.34v2.16h-.34v-2.16ZM216.65,81.72c2.06,0,3.97.39,5.16,2.34.07.03.11.05.18.08-.77.33-1.9.8-2.53,1-2.1.69-4.05,1.6-6.49.83-3.52-1.11-7.19-1.73-11.67-2.76,5.67-1.64,10.52-1.5,15.35-1.49ZM175.59,79.88c-2.51-.08-5.07-.45-7.52-.09-5.66.85-10.86-.42-15.86-2.82-2.66-1.28-3.79-3.99-3.16-7.38.24-1.29-.53-1.24-1.21-1.52,3.06-3.91,5.18-4.3,9.03-1.73,4.65,3.11,9.27,6.29,14,9.27,2.46,1.55,5.15,2.75,8.61,4.56-1.88-.15-2.89-.28-3.9-.31v.02ZM176.29,83.75c-.02.07-.02.17-.07.21-.02.02-.06.03-.08.05l.15-.25h0ZM172,185.79c-.95-1.29-1.87-2.63-3.01-3.74-3.73-3.66-7.55-4.07-12.01-1.44-.68.4-1.34.86-2.25,1.45-.45-2.34-.76-4.5-1.3-6.6-1.27-4.93-3.58-9.22-8.13-11.91-1.2-.71-1.7-1.57-1.54-2.93.38-3.31.68-6.63,1.1-9.93.18-1.43.59-2.83.92-4.34.35.31.73.52.9.84,2.48,4.68,8.51,5.7,13.45,3.77,3.19-1.25,6.08-3.29,9.01-5.12,1.46-.91,2.84-2.04,4.05-3.27,2.45-2.47,4.78-3.41,7.9-.84,1.97,1.63,4.51,1.5,6.84.32,1.07-.54,2.16-1.07,3.12-1.78,4.89-3.6,9.04-7.94,12.54-12.87,2.59-3.64,2.59-7.83,1.86-11.96-.5-2.85-1.59-5.6-2.97-8.42-.1.51-.3,1.03-.3,1.54.05,3.6.33,7.22.12,10.8-.1,1.63-.88,3.4-1.83,4.78-3.28,4.75-7.21,8.94-11.72,12.57-2.38,1.92-4.74,2.68-7.58.54-2.39-1.8-5.11-1.41-7.46.31-2.04,1.5-3.91,3.24-5.86,4.87-3.19,2.67-6.53,4.94-10.59,6.27-6.3,2.07-11.35-5.03-9.93-9.73,2.48-8.2,6.23-15.57,12.21-21.77,5.29-5.49,10.59-10.97,15.76-16.57,2.89-3.14,5.54-6.5,8.24-9.81,1.03-1.26,2.01-2.43,3.76-2.77,1.05-.2,1.92-.72,2.68-1.42,1.05,1.66,2.21,3.48,2.43,3.79,1.59,2.31,3.3,4.54,4.85,6.87.78,1.17,1.34,2.49,2,3.75.56.49,1.24.9,1.64,1.5,1.45,2.16,3.32,3.74,5.56,5.08,1.56.93,3.06,2.26,4.06,3.76,6.45,9.73,11.95,19.93,14.95,31.31.17.63.17,1.31.31,2.45-1.16-.13-2.19-.06-3.08-.38-4.51-1.63-7.81-4.79-9.66-9.09-1.71-3.97-2.77-8.22-4.14-12.41-1.36,1.07-.86,2.85-.68,4.27.6,4.8,1.96,9.37,4.75,13.44,2.61,3.8,6.07,6.43,10.53,7.48,2.66.62,3.91,1.83,4.26,4.66.91,7.43,1.74,14.78.54,22.3-.64,4.02-1.11,8.19-.39,12.36.47,2.75,0,5.14-2.85,6.79-1.77,1.02-3.08,2.83-4.62,4.32-1.19-1.83-2.28-3.67-3.53-5.39-2.44-3.34-5.71-5.61-9.63-6.87-5.69-1.83-10.86.87-12.68,6.54-.2.62-.2,1.3-.37,2.42-.99-1.43-1.71-2.59-2.56-3.65-2.59-3.26-5.37-5.11-10.5-2.88-1.1.48-2.25.86-3.32,1.4-1.5.77-2.56.31-3.42-.98-.82-1.22-1.58-2.48-2.45-3.67h.02ZM175.34,194.41c-.06.16-.12.32-.18.48-.45-.21-.9-.42-1.35-.63.51.05,1.02.1,1.53.15h0ZM159.76,193.74c-2.55,1.25-4.89,2.4-8.12,3.98,2.2-3.55,4.37-5.23,8.12-3.98ZM169.51,205.34c3.06-.15,5.37,1.36,7.77,2.73.69.39,1.05,1.48,1.42,2.31.05.11.08.22.12.33-.96.74-1.88,1.6-2.04,1.78-4.33,4.82-9.71,4.84-15.48,3.59-5.21-1.12-9.63-3.7-13.89-6.88,7.2-2.52,14.59-3.48,22.11-3.85h-.01ZM139.2,190.84c1.52,2.68,3.15,5.53,1.4,8.82-5.41-2.49-6.84-7.23-8.05-12.54,3.32-.25,5.34,1.39,6.65,3.72h0ZM129.83,209.13c1.84-.97,3.5-.39,4.06,1.58.53,1.87.72,3.83,1.17,6.34-2.92-2.45-4.2-6.41-8.61-5.89,1.12-.68,2.22-1.43,3.38-2.04h0ZM104.42,183.72c-2.06-1.21-2.8-3.12-2.06-5.49.64-2.02,1.26-4.05,1.91-6.07.35-1.11,1.1-1.38,2.18-1.06,1.77.53,3.67.79,5.3,1.6,1.23.61,2.26,1.8,3.14,2.91,2.31,2.92,4.41,6,6.74,8.89,2.26,2.79,4.21,5.7,5.18,9.36-5.57-3.14-11.03-5.95-17.01-7.7-1.88-.55-3.7-1.45-5.39-2.45h0ZM109.74,194.31c5.98,2.33,10.14,4.87,16.47,10.12-.91.4-1.62.87-2.39,1.03-3.12.61-6.3.97-9.37,1.74-1.55.39-2.43.05-3.43-1.05-3.34-3.69-3.85-8.03-1.28-11.84ZM94.11,232.67c.17-.36.41-.69.56-1.06,2.5-6.38,7.17-10.37,13.56-12.62,3.39-1.19,6.68-2.67,10.02-4.01,3.36-1.36,6.87-.56,10.3-.55.69,0,1.42,1.06,2.06,1.7,1.59,1.59,3.23,3.15,4.69,4.85.74.85,1.47,1.94,1.65,3.01.78,4.59,1.36,9.21,2,13.82.07.53,0,1.07.03,1.6.36,8.58-.15,17.06-2.38,25.41-.65,2.43-.82,4.98-1.2,7.48-1.87-1.7-.85-4.17-1.36-6.39-1.84,2.49-2.21,6.48-.48,8.99,1.12,1.63,1.64,3.31,1.84,5.16.45,4.28,1.67,8.35,3.2,12.35.28.72.33,1.53.48,2.29-8.58,2.52-14.99-.71-17.73-8.96-.88-2.65-1.41-5.41-2.22-8.09-1.4-4.6-3.16-5.86-7.85-5.64-1.46.07-2.92.45-4.38.46-1.7.01-3.45-.02-5.11-.39-2.98-.66-4.42-2.7-4.62-5.75-.23-3.53.27-6.93,1.43-10.24.93-2.64,1.97-5.24,2.98-7.86.29-.75.68-1.45.95-2.21,1.44-4.02,1.44-6.19-3.74-7-1.26-.2-2.53-.89-3.59-1.64-2.15-1.52-2.25-2.27-1.1-4.71h.01ZM116.08,331.47c-7.78-.65-14.83-3.16-20.37-9.02-3.36-3.56-5.36-7.62-5.02-12.63.02-.27.05-.53.05-.8-.04-2.69-.55-3.16-3.36-3.16-2.14,0-4.33.3-6.4-.07-2.45-.44-4.83-1.38-7.18-2.24-1.1-.4-1.51-1.21-1.08-2.57,1.58-4.96,2.51-10.06,2.91-15.26.08-1.02.57-2,1.04-3.61,1.77,3.33,3.25,6.12,4.97,9.38.58-3.21-.52-5.7-1.66-7.86-3.11-5.93-2.24-4.22.02-10.79.17-.5.4-.99.61-1.48,1.16-2.7,2.21-3.15,4.3-1.28,1.43,1.29,2.81,3.03,3.35,4.83,1.13,3.81,1.8,7.77,2.47,11.7.67,3.94,1.05,7.93,1.66,11.88.2,1.3.6,2.62,1.16,3.81,2.03,4.37,5.26,6.94,10.32,6.82,2.65-.07,5.22-.32,8.43-1.85-1.33-.07-1.87-.15-2.4-.12-.93.06-1.85.25-2.78.27-5.61.12-9.28-2.56-10.45-7.94-.79-3.64-1.12-7.38-1.82-11.05-.85-4.44-1.64-8.91-2.87-13.25-1.27-4.48-4.11-7.75-9.16-8.98,2.73-8.8,5.43-17.48,8.17-26.32,2.5,1.4,4.68,2.62,6.81,3.81-1.72,4.68-3.64,9.23-5.02,13.95-.85,2.89-1.2,6.03-1.18,9.06.02,5.72,3.54,10.05,9.11,11.12,3.1.59,6.35.48,9.53.48,2.29,0,2.43-.06,3.01,2.07,1.12,4.09,2.24,8.19,3.38,12.38-1.17-.41-2.55-1.1-4.02-1.34-1.42-.24-2.94-.18-4.38.03-1.56.23-2.92.97-4.16,3.2,1.34-.37,1.88-.55,2.44-.67,4.85-1.04,8.16.24,10.35,4.67,1.77,3.57,2.99,7.41,4.38,11.15.93,2.5,1.59,5.1,2.61,7.56,2.08,5,4.9,9.45,11.01,11.97-6.85,1.95-12.8,2.66-18.8,2.15h.02ZM130.31,319.98c-1.25-2.2-2.39-4.47-3.35-6.8-2.1-5.14-4.06-10.34-6.25-15.97,5.25,4.66,11.23,5.13,17.45,4.73,3.17-.2,3.11-.12,3.99,2.95,1.02,3.58,2.07,7.16,3.32,10.66.5,1.39.57,2.46-.25,3.71-.72,1.11-1.25,2.35-1.77,3.57-.1.23.17.82.41.94s.84-.01,1-.24c.68-.96,1.27-2,2.24-3.6,1.12,1.96,1.97,3.42,2.92,5.08-1.88,1.45-4.15,1.37-6.09,1.49-5.62.33-10.62-1.22-13.62-6.52h0ZM318.12,231.83c-9.88,5.15-18.88,11.65-27.58,18.55-5.54,4.4-10.7,9.28-15.94,14.05-3.11,2.83-5.3,6.28-6.52,10.4-.56,1.88-1.64,3.65-2.71,5.33-4.23,6.65-8.54,13.25-12.83,19.86-.21.33-.53.58-.84.91-2.36-.33-3.78-1.93-4.9-3.78-.9-1.48-1.58-3.09-2.32-4.66-.57-1.21-1.04-2.46-1.61-3.67-2.46-5.29-5.88-8.73-14.67-7.49-.13.02-.26.07-.39.08-7.06.87-8.94-1.36-9.09-7.7-.1-4.1.78-8.21,1.07-12.33.33-4.76,1.52-9.53.31-14.32-.32-1.28-.71-2.59-1.34-3.74-2.22-4.05-9.28-3.95-10.51.97.42-.12.85-.1.98-.29,1.38-2.04,3.46-2.1,5.38-1.48,2.1.68,2.97,2.66,3.05,4.77.1,2.8.17,5.64-.11,8.42-.38,3.84-1.18,7.63-1.62,11.46-.36,3.17-.72,6.38-.61,9.55.19,5.48,3.72,8.81,9.24,9.06,2,.09,4.02.12,6.02-.03,3.78-.28,6.04,1.51,7.35,4.9.97,2.49,2.01,4.95,3.1,7.38,1.57,3.5,3.77,6.48,7.69,8.12-.35.77-.61,1.48-.97,2.13-6.17,11.32-10.11,23.46-13.2,35.92-.06.26-.06.53-.13.79-1.09,4.35-1.83,4.88-5.99,3.01-2.26-1.02-4.4-2.6-6.16-4.36-3.02-3.02-5.58-6.49-8.54-9.57-2.11-2.2-4.36-4.38-6.9-6.01-4.88-3.13-11.81-1.97-15.5,4.22-.05.08.04.25.1.58,1.26.55,1.72-.71,2.45-1.27,4.32-3.34,8.67-3.3,12.66.4,1.95,1.81,3.67,3.88,5.39,5.93,1.8,2.15,3.47,4.41,5.21,6.61,3.4,4.31,7.28,7.84,13.15,8.24,1.46.1,2.1.95,1.85,2.45-.33,1.97-.5,3.97-.97,5.9-.15.62-.93,1.32-1.58,1.55-6.71,2.38-13.52,4.15-20.76,3.41-2.48-.25-4.65-1.13-6.62-2.58-2.18-1.6-3.45-3.76-3.24-6.49.09-1.19.09-2.18-1.06-2.71-1.24-.58-2,.22-2.64,1.16-2.94,4.31-7.35,4.97-12.01,4.62-4.85-.36-8.89-2.55-12.31-6.02-2.16-2.2-2.39-2.14-5.07-.32-7.65,5.21-14.07,4.13-19.59-.15-2.39-1.85-3.98-4.35-5.25-7.01-2.21-4.65-3.21-9.58-2.99-14.75.06-1.33.53-1.77,1.87-1.98,3.28-.5,6.52-1.25,9.95-1.93-.03-.03.3.16.3.33,0,1.23-.13,2.69,1.4,2.92,1.56.23,1.7-1.26,2.13-2.39.55-1.43.55-3.24,2.36-3.97.18-.07.31-.71.2-1-.94-2.62.94-4.48,1.66-7.28,1.75,1.38,3.38,2.34,4.56,3.68,3.18,3.61,6.17,7.38,9.25,11.08,1.03,1.23,2.05,2.47,3.17,3.62,4.67,4.83,11.05,6.46,17.59,3.29,3.08-1.49,5.97-3.39,8.62-5.81-.83.25-1.68.44-2.49.75-2.12.8-4.19,1.72-6.33,2.45-5.03,1.73-9.53.72-13.22-3.1-2.69-2.79-5.15-5.8-7.74-8.69-1.87-2.09-3.71-4.22-5.7-6.2-2.29-2.29-4.85-4.19-8.17-4.76-1.41-.24-2.21-1.07-2.78-2.5-1.36-3.44-3.01-6.77-4.8-10.72,1.56.25,2.43.34,3.28.54.51.12.99.4,1.47.64,8.84,4.41,15.49,3.81,24.82-4.42,4.5-3.97,7.49-9.05,10-14.41,3.46-7.38,5.85-15.15,7.97-23.01.13-.48.02-1.03.02-2.41-.76,1.37-1.17,1.97-1.45,2.63-3.86,9.14-8.48,17.88-14.52,25.76-2.34,3.05-5.18,5.78-8.04,8.37-2.28,2.06-5.01,3.74-8.24,3.71-1.94-.02-4.05-.33-5.78-1.14-2.82-1.33-5.64-2.44-8.73-2.7-1.2-.1-1.84-.4-2.25-1.69-2.22-6.92-3.77-13.95-2.94-21.25.35-3.02,1.12-6.04,2.09-8.92,2.03-5.97,2.45-11.95,1.23-18.14-.75-3.78-.97-7.67-1.73-11.45-.52-2.58-1.66-5.03-2.33-7.59-.73-2.79-1.23-5.65-1.97-9.15,2.14.98,3.78,1.67,5.36,2.47,2.73,1.38,5.35,2.99,8.16,4.17,1.92.81,4.08,1.44,6.13,1.45,4.52.02,9.07-.17,13.55-.73,3.89-.48,6.17-2.9,7.4-6.84,1.39-4.46,1.37-8.93,1.42-13.46.02-1.63-.68-2.91-1.97-3.74-1.83-1.18-3.78-2.18-5.86-3.35,2.17-.94,4.32-1.91,6.5-2.81,1.78-.73,3.5-.44,4.83.91,2.14,2.19,4.14,4.52,6.19,6.79.6.67,1.19,1.35,2.05,2.32-.26-2.23-.67-4.03-.64-5.83.09-5.96,5.29-9.32,10.89-7.15,4.76,1.85,7.86,5.39,10.04,9.86.46.96.74,2,1.19,2.97,1.13,2.48,2.71,2.64,4.51.51,1.46-1.73,2.91-3.47,4.41-5.16.44-.49,1.03-.84,1.72-1.37,3.05,3.5,4.52,8.16,8.49,11.31,1.33-2.17.17-4.4,1.07-6.59.47.86.84,1.53,1.21,2.21,1.95,3.56,3.62,3.87,6.53,1.18.98-.91,1.84-1.95,2.87-2.8,1.23-1.02,2.5-2.05,3.9-2.79,2.48-1.3,4.63-.77,6.32,1.51,1.25,1.69,2.32,3.51,3.87,5.86.16-1.2.4-1.8.27-2.3-.44-1.67-.89-3.36-1.55-4.96-1.62-3.9-4.85-5.48-8.77-3.93-2.3.91-4.36,2.5-6.41,3.94-1.17.82-2.11,1.95-3.19,2.98-1.55-2.45-3.03-4.52-4.2-6.76-.52-.99-.58-2.3-.58-3.47,0-5.89.14-11.78.07-17.67-.04-3.06-.46-6.11-.65-9.17-.08-1.3,0-2.61,0-4.12,7.97,2.15,15.03-.08,21.82-3.39,3.59-1.75,6.95-3.98,10.35-6.11,2.33-1.46,4.58-2.38,7.49-1.78,3.93.81,7.64-.48,11.25-2.5,3.33,6.32,2.08,13.26,3.8,20.24,2.55-2.52,4.95-4.55,6.92-6.95,1.77-2.15,2.11-4.84,1.26-7.6-1.02-3.31-1.86-6.68-3.03-9.94-.61-1.7-.6-2.97.61-4.4,3.4-4.02,4.8-8.86,5.35-14,.26-2.41,1.01-4.56,3.04-6.06-.26,3.38-.71,6.76-.72,10.14-.01,6.6,3.73,10.63,9.35,11.57,1.67.28,3.42.64,4.57,2.15,2.05,2.69,4.85,3.01,7.9,2.4.52-.1,1.01-.35,1.53-.43,1.76-.27,2.08,0,2.26,1.78.27,2.77.52,5.55.87,8.31.13,1.04.36,2.12.8,3.07,2.7,5.77,5.07,7.11,10.87,5.31.38-.12.78-.15,1.17-.22.43-1.42.46-2.72-.26-4.18-2.07-4.2-3.33-8.68-3.85-13.34-.19-1.72.45-2.47,2.05-2.27.92.12,1.85.32,2.71.65,3.4,1.32,6.34.14,8.97-1.83,2.33-1.74,4.41-3.83,6.84-5.98.85,5.08,2.28,9.8,5.43,13.81.24.3.55.74.48,1.05-.69,3.38.99,7.23-2.09,10.32-6.67-2.32-13.21-1.63-19.5,1.74-.2.11-.52.02-.78.02-.19.33-.31.74-.59.96-4.33,3.43-7.31,7.74-8.52,12.99-2.46-.46-4.75-1.14-7.08-1.26-4.83-.25-7.74,1.75-9.7,6.23-.37.85-.49,1.83-.97,2.61-.27.43-1.02.72-1.57.77-.47.04-.97-.41-1.48-.55-6.36-1.73-12.28.62-15.79,6.35-.83,1.36-1.43,2.85-2.06,4.12-3.35-1.63-6.69-3.55-10.26-4.88-2.57-.95-5.43-1.46-8.17-1.53-6.12-.14-10.83,3.75-12.4,9.92-.6,2.36-1.73,4.87.22,7.12.41-2.22.57-4.51,1.27-6.62,1.66-4.98,4.76-8.87,12.11-8.1,5.84.62,11,2.87,15.52,7.22-.75.81-1.41,1.43-1.95,2.13-3.14,4.03-3.03,8.44-1.18,12.87.76,1.81,2.01,3.44,3.2,5.03,1.11,1.49,2.42,2.83,4,4.65-1.79.86-3.24,1.75-4.81,2.27-2.36.79-3.92-.23-4.35-2.68-.27-1.57-.36-3.17-.63-4.74-.27-1.62-1.17-2.59-2.94-2.74-1.32-.11-2.63-.45-3.92-.78-2.83-.72-4.7-3.08-4.65-5.73.07-3.55,1.67-4.87,5.27-4.34-1.27-2.2-2.92-2.54-4.85-1.02-3.49,2.75-3.66,8.35-.15,11.23,1.29,1.06,2.96,1.88,4.59,2.26,4.19.98,4.91.67,4.81,5.66-.01.65.12,1.34.32,1.96.8,2.47,2.47,3.66,5.09,3.7,2.38.04,4.47-.85,6.31-2.22,1.43-1.06,2.61-1.01,3.94.06.83.66,1.77,1.18,2.95,1.96-.76.59-1.36,1.21-2.09,1.6-3.99,2.16-7.91,4.47-12.05,6.31-2.13.94-4.64,1.27-6.99,1.37-2.74.11-5.22-.99-7.16-3.06-1.1-1.17-2.17-2.37-3.32-3.49-2.15-2.12-3.75-2.38-6.5-1.09-.84.4-1.62.93-2.43,1.4-5.71,3.24-11.58,6.01-18.14,7.19-5.92,1.06-12.54-.49-15.11-7.93-.09-.25-.16-.51-.27-.76-1.83-4.02-1.85-3.99-5.86-2.78-1.9.57-3.84,1.16-5.8,1.37-2.24.23-3.15-.75-2.52-2.81.46-1.52.15-2.43-.71-3.62-1.88-2.6-1.6-6.11.64-8.4.57-.59,1.59-.75,2.4-1.1.28.7.54,1.4.85,2.08.14.3.38.55.82,1.18.5-1.96.98-3.5-.74-4.6-1.19-.76-3.01-.34-4.4.88-3.03,2.63-3.88,6.51-2.4,10.17.48,1.18.76,2.51.8,3.78.12,3.66,1.5,4.86,5.32,4.38.5-.06,1.01-.12,2.43-.28-8.25,4.8-15.96,8.02-24.86,7.34-6.33-.48-11.32-2.92-13.88-9.07-.93-2.24-2.42-3.44-4.93-3.22-.93.08-1.9-.11-2.8.08-8.24,1.73-16.55,2.72-25.94,2.45,3.92,2.09,7.18,2.97,10.62,3.23,4.72.36,9.32-.4,13.83-1.75.77-.23,1.52-.51,2.28-.73,3.26-.95,3.32-.98,5.13,1.95,3.03,4.91,7.19,8.28,12.93,9.29,6.31,1.12,12.53.35,18.41-2.12,5.03-2.11,9.89-4.64,15.03-7.08.18.31.63.81.8,1.4,2.54,8.83,11.21,11.16,18.18,9.98,6.8-1.15,13.03-3.78,18.97-7.22,4.99-2.89,3.9-2.82,7.45,1.11,4.98,5.51,10.97,6.98,17.77,4.27,4.19-1.67,8.23-3.8,12.19-5.98,3.99-2.19,7.92-4.49,12.48-5.22,2.62-.42,5.28-.56,7.98-.83-2.02,2.32-4.64,3.8-7.33,5.21l.1.06ZM335.05,216.64c-4.95-1.09-9.75,0-14.62.67-3.14.44-6.66.83-9.52-.16-3.81-1.32-7.48-3.67-8.41-8.33-.31-1.53-.67-3.05-1.09-4.93,3.73,0,7.17-.12,10.59.07,1.11.06,2.24.8,3.24,1.43,2.48,1.56,4.92,3.2,7.33,4.87,1.72,1.2,9.93,4.66,14.58,6.48-.7.07-1.42.06-2.08-.09h-.02ZM347.94,210.4c-.61,1.08-.37,2.74-2.14,3.02-2.18.33-4.32,1.49-6.5-.14-2.97-2.22-6.02-4.34-9.02-6.49,3.85-2.35,7.55-4.6,11.19-6.83-1.84-1.99-1.91-2.07-3.99-.91-1.86,1.04-3.55,2.4-5.44,3.37-1.63.84-3.65,2.16-5.14,1.8-2.64-.64-5.15-2.17-7.42-3.76-1.24-.87-1.7-2.65-1.3-4.39.09-.41-.14-.89-.22-1.34-.46.36-1.11.62-1.35,1.09-.33.66-.35,1.47-.52,2.3-5.12-1.46-9.86-4.15-15.43-1.76.62-3.36,2.3-5.7,4.61-7.51,4.02-3.15,6.88-3.05,10.73-1.06,4.51,2.32,4.71,2.27,6.02-2.73.13-.52.14-1.07.31-1.57,1.55-4.63,5.78-6.54,10.22-4.49,1.3.6,2.41,1.63,3.61,2.45,1.69,1.16,3.09.62,3.55-1.39.09-.39.04-.8.09-1.2,1.34-11.94,12.17-17.94,22.66-15.42,1.16.28,2.28.79,3.45,1,2.11.39,3.61-.56,3.57-2.66-.07-3.04,1.12-5.91.45-9.1-.47-2.2.97-4.62,2.61-6.46.87-.99,2.05-1.28,3.29-.74,1.1.48,2.11,1.16,3.22,1.61,1.14.47.77-.53.91-1.02.25.05.54.04.71.18,5.65,4.89,10.09,10.6,12.19,17.91.47,1.62.62,3.19-.6,4.52-1.56,1.71-1.67,3.81-1.93,5.95-.34,2.76-.86,5.51-1.53,8.21-.66,2.64-.86,2.73-3.59,2.45-2.11-.21-4.21-.63-6.15-.93.91-1.39,1.99-2.73,2.71-4.24.43-.89.78-2.33.35-3.03-1.21-1.96-.89-4.11-1.28-6.16-.58-3.03-2.34-4.9-5.27-5.95-1.93-.69-3.42-.13-4.83.96-1.64,1.27-1.39,2.36.95,3.87-.13-.86-.57-1.81-.27-2.2.38-.51,1.34-.76,2.07-.78,2.62-.1,4.62,1.59,4.9,4.22.25,2.35,0,4.66,1.35,6.93.97,1.62-1.96,5.69-4.26,6.54-.87.32-1.79.59-2.71.68-3.03.31-5.72,1.45-7.93,3.49-1.63,1.51-3.21.92-5.08.74-2.36-.22-2.99-1.53-3.91-3.25-.91-1.71-2.2-3.36-3.69-4.59-1.74-1.44-4.03-1.14-5.34.61-2.17,2.9-3.04,6.24-2.12,9.98.21-.69.38-1.39.63-2.05.75-1.97,1.3-4.07,2.38-5.85,1.06-1.75,2.65-1.73,3.94-.09.88,1.12,1.65,2.49,1.97,3.86.66,2.82,1.85,4.66,5.11,4.21.17-.02.4.31.61.49-2.73,4.04-5.5,8.05-8.18,12.12-1.17,1.78-2.18,3.67-3.24,5.52h.02ZM350.75,219.83c-.95-1.69-.47-2.9.7-4.05,5.24-5.16,10.36-10.44,15.71-15.48,4.43-4.18,10.15-5.76,15.94-6.85,1.77-.34,3.57-.19,5.32.56-.88,3.14-2.23,7.63-3.07,10.12-.85,2.52-2.68,4.22-5.26,5.12-4.27,1.49-8.53,3-12.75,4.62-1.62.62-3.21,1.05-4.95,1.3-1.77.25-3.51,1.18-5.12,2.07-2.08,1.16-4.19,2.13-6.52,2.6h0ZM372.49,234.7c-.07.18-.5.41-.52.39-.56-.59-1.12-1.18-1.61-1.83-.1-.13.08-.46.21-1.06.4.19.63.3.86.4.9.43,1.45,1.04,1.06,2.1ZM369.07,221.71c.96,0,1.82-.2,2.53.04,2.33.75,4.57.24,6.62-.63,4.52-1.92,8.94-4.11,13.4-6.19,1.07,7.51,2.17,15.3,3.32,23.39-8.49-5.89-16.56-12.06-25.89-16.61h.02ZM396.75,258.29c-.4.12-1.13-.03-1.35-.33-.77-1.08-1.17-2.27-.21-3.47.68.87,1.41,1.71,1.99,2.65.14.24-.18,1.08-.43,1.16h0Z"/>
  <path class="cls-1" d="M341.68,490.51c-9.33-4.46-19.71-6.57-29.79-9.36-.4-.11-.97.19-2.26.47,1.33.54,1.85.76,2.38.96,7.23,2.75,14.65,5.19,21.64,8.31,9.69,4.31,17.8,10.29,23.77,18.15,8.24,10.85,6.49,22.42-2.45,31.63-3.18,3.28-7.08,6.17-11.11,8.73-8.06,5.13-17.33,8.39-26.86,11.1-22.5,6.41-45.81,8.67-69.39,9.39-6.03.18-12.08-.33-18.12-.47-12.13-.27-24.06-1.78-35.82-4.19-12.58-2.58-24.62-6.33-35.22-12.77-6.01-3.65-11.14-8-14.18-13.81-1.55-2.97-2.52-6.11-1.98-9.36.7-4.29,2.58-8.24,5.58-11.79,4.77-5.63,10.85-10.12,17.44-14.15,7.1-4.34,14.6-8.1,22.56-11.22,1.63-.64,3.73-.94,4.5-3.34-2.12.41-3.99.56-5.67,1.12-10.29,3.4-19.63,8.19-28.39,13.83-6.49,4.18-12.34,8.86-16.51,14.86-2.94,4.23-4.84,8.81-4.48,13.72.6,8.37,3.94,15.85,11,22.05,7.51,6.59,16.49,11.29,26.34,14.92,20.39,7.51,41.96,10.48,64.02,11.22,18.04.61,35.93-.82,53.56-4.01,16.54-2.99,32.47-7.5,47.05-14.94,12.38-6.31,22.51-14.24,28.07-25.88,4.4-9.21,3.98-17.98-1.85-26.55-5.63-8.27-14.15-13.97-23.83-18.61h0Z"/>
  <path class="cls-1" d="M465.43,330.37c-1.56,3.09-3.23,6.14-4.55,9.34-2.79,6.8-7.04,12.6-12.04,17.86-3.67,3.86-7.68,7.41-11.54,11.1-.29.28-.6.54-.89.82-4.52,4.38-10.01,6.7-16.22,6.9-6.62.21-12.19,2.62-17.07,6.93-4.61,4.08-9.19,8.18-13.79,12.26-4.45,3.94-9.33,6.64-15.6,5.82-4.92-.65-9.15,1.31-13.2,3.83-3.63,2.26-7.19,4.66-10.94,6.71-5.62,3.08-11.56,4.93-18.06,3.12-3.07-.86-6.18-1.65-9.17-2.74-5.83-2.12-11.5-2.01-17.11.64-4.59,2.17-9.14,4.41-13.75,6.53-5.82,2.67-11.89,4.07-18.27,2.71-3.24-.69-6.43-1.7-9.58-2.75-6.5-2.18-13.01-2.64-19.66-.66-4.6,1.37-9.26,2.53-13.87,3.86-7.12,2.05-13.97,1.57-20.58-1.88-1.42-.74-2.92-1.31-4.38-1.98-4.12-1.87-8.31-2.75-12.83-1.47-3.84,1.09-7.75,1.96-11.63,2.93-7.52,1.87-14.54.88-20.99-3.58-2.53-1.75-5.04-3.52-7.63-5.18-2.98-1.91-6.22-3.03-9.82-2.95-1.47.03-2.95-.04-4.42.01-7.3.28-13.65-1.99-19.01-6.98-.88-.82-1.78-1.62-2.65-2.46-3.85-3.72-8.21-6.39-13.7-6.8-2.52-.19-5.05-.32-7.57-.59-4.5-.49-9.04-.79-13.46-1.66-7.83-1.53-13.6-5.94-16.97-13.3-.67-1.46-1.41-2.88-2.21-4.27-1.81-3.16-4.6-4.78-8.21-4.86s-7.23.07-10.84-.07c-5.61-.22-11.15-.95-16.4-3.1-7.79-3.2-13.05-8.61-14.96-17.01-1.23-5.43-.8-10.89-.33-16.34.08-.92.07-1.78-.93-1.72-.94.05-1.7.72-1.36,1.95.17.62.34,1.28.31,1.91-.2,3.45-.74,6.91-.64,10.35.25,8.52,3.8,15.43,10.79,20.47,6.27,4.52,13.47,6.3,21.01,6.86,3.73.28,7.49.09,11.24.15,3.5.06,6.16,1.44,7.59,4.84.67,1.6,1.53,3.12,2.29,4.68,2.91,5.94,7.57,9.89,13.71,12.22,4.91,1.86,10,2.75,15.2,3.14,3.86.29,7.73.53,11.59.84,2.59.21,4.96,1.12,6.99,2.73,1.99,1.57,3.88,3.27,5.77,4.98,4.23,3.82,8.85,6.99,14.58,7.94,3.41.56,6.91.91,10.35.83,4.36-.1,8.17,1.02,11.6,3.63.96.73,1.9,1.5,2.93,2.1,2.87,1.7,5.66,3.6,8.71,4.91,6.67,2.88,13.58,2.29,20.45.64,3.11-.75,6.23-1.46,9.3-2.36,3.4-1,6.59-.56,9.73.89,2.18,1.01,4.33,2.11,6.56,3.02,6.18,2.52,12.54,3.7,19.16,2.01,5.68-1.45,11.35-2.93,17.01-4.46,5.28-1.43,10.52-1.63,15.75.23,1.63.58,3.28,1.14,4.96,1.53,3.11.72,6.21,1.55,9.37,1.91,6.41.74,12.47-.81,18.25-3.54,4.47-2.11,8.92-4.24,13.37-6.39,4.55-2.19,9.14-2.71,13.9-.66,1.46.63,3,1.14,4.55,1.5,2.97.69,5.96,1.48,8.98,1.8,7.24.76,13.66-1.79,19.71-5.48,3.54-2.16,7.01-4.42,10.59-6.5,2.94-1.71,6.07-2.6,9.58-1.98,1.53.27,3.19.02,4.77-.18,5.29-.66,9.41-3.64,13.29-6.96,4.57-3.91,9.01-7.98,13.55-11.93,3.82-3.32,8.09-5.45,13.34-5.7,6.36-.3,12.46-1.87,17.5-6.04,2.87-2.38,5.48-5.09,8.17-7.68,1.25-1.2,2.37-2.54,3.63-3.73,2.13-2.01,4.54-3.78,6.45-5.98,3.59-4.14,7.28-8.36,8.85-13.72,1.42-4.83,2.22-9.85,3.27-14.79.04-.18-.21-.42-.45-.87-.54.69-1.12,1.25-1.46,1.92l.04-.05Z"/>
  <path class="cls-1" d="M214.74,470.06c-2.18-8.36-4.85-16.61-7.52-24.84-1.47-4.55-4.32-8.32-8.09-11.24-1.76-1.37-3.88-2.31-5.91-3.29-.35-.17-1.22.35-1.59.77-.23.26-.15,1.11.11,1.42.85,1.02,1.81,1.97,2.8,2.86,3.43,3.08,6.02,6.76,7.99,10.93,5.12,10.83,8.49,22.02,9.03,34.17.33,7.4-.34,14.68-.55,22.01-.15,5.2-.65,10.41-.48,15.59.18,5.36,2.1,10.32,6.24,13.89,6.95,5.99,15.11,9.59,24.26,10.46,12.51,1.19,23-3.51,32.07-11.83,1.91-1.75,3.28-3.92,3.76-6.47.14-.72-.5-1.7-1.03-2.37-.16-.2-1.23.13-1.73.44-.78.49-1.45,1.15-2.12,1.79-2.02,1.92-3.86,4.07-6.07,5.75-4.85,3.68-10.27,6.23-16.4,6.96-9.95,1.19-18.72-1.99-26.74-7.6-3.17-2.22-5.41-5.21-5.89-9.18-.38-3.17-.83-6.37-.78-9.55.1-6.27.54-12.54.83-18.67-.2-7.5-.36-14.9-2.22-22.02l.03.02Z"/>
  <path class="cls-1" d="M237.02,28.6c-.11-1.06-.19-2.13-.44-3.16-.28-1.17-1.06-1.86-2.33-1.71-1.24.15-1.89.95-2.03,2.13-.09.79-.13,1.62.02,2.4.47,2.46-.57,4.13-2.57,5.37-1.02.63-1.98,1.46-3.09,1.81-3.28,1.04-6.59,1.38-9.39-1.22-.47-.43-.57-1.32-.69-2.02-.03-.2.47-.49.72-.75-.39-.05-.81-.22-1.16-.13-1.37.32-1.62,1.22-1.11,2.43.94,2.24,2.67,3.67,4.88,4.47,4.29,1.56,8.1.15,11.73-2.1.86-.53,1.67-1.14,1.98-1.35,2.63,1.68,4.68,3.48,7.07,4.41,4.07,1.59,7.87-.16,11.39-2.11,2.43-1.34,4.62-3.12,6.78-4.61,1.38,1.61,2.54,3.46,4.16,4.74,3.99,3.16,8.55,3.57,13.23,1.7,1.7-.68,2.91-.72,4.23.76.84.94,2.13,1.58,3.33,2.08,3.37,1.41,6.59.72,9.5-1.25,1.4-.95,2.39-1.1,3.89-.12,2.83,1.84,5.98,1.58,8.76-.03,2.27-1.32,4.23-3.18,6.29-4.85.67-.54,1.23-1.2,1.84-1.82-.01,1.28-.05,2.55-.02,3.83.08,4.27,2.77,7.85,6.83,8.78,3.69.84,7.43.89,10.98-.62,1.19-.5,2.37-1.27,3.23-2.21.49-.53.63-1.77.38-2.5-.38-1.09-1.4-.84-2.37-.49-2.25.81-4.5,1.71-6.83,2.2-5.66,1.2-9.19-1.68-8.9-7.44.12-2.37-.56-3.76-2.42-4.55-2.74,1.62-5.29,3.34-8.02,4.68-3.03,1.48-6.03,1.67-8.9-.84-2.08-1.82-3.39-1.56-5.65.25-.93.75-1.87,1.51-2.9,2.11-1.63.94-3.3.82-4.97-.06-1.57-.82-1.79-2.14-1.65-3.73.11-1.31-.35-2.44-1.78-2.73-1.51-.3-2.52.35-3.16,1.8-.35.8-.88,1.7-1.58,2.13-4.9,3.04-12.82,2.76-15.19-5.8-.21-.76-.31-1.57-.59-2.3-.12-.3-.63-.66-.91-.62-.47.07-1.03.34-1.3.7-.29.39-.5,1.04-.39,1.49.9,3.68-1.44,4.97-4.28,5.81-2.67.79-5.35,1.71-8.09,2.1-4.41.63-8.05-2.58-8.51-7.09v.03Z"/>
  <path class="cls-1" d="M316.74,358.09c-9.6,8.19-20.47,12.84-33.39,11.29-5.91-.71-10.68-3.16-13.44-8.73-.15-.3-.53-.49-1.42-1.28.14,1.46-.01,2.36.32,3.01,3.02,5.94,8.41,8.56,14.58,9.22,12.54,1.34,23.74-2.36,33.53-10.25,2.13-1.72,3.99-3.78,6.02-5.73,5.47,4.18,11.6,4.04,17.71,2.79,9.15-1.86,16.89-6.33,22.99-13.63,3.24,2.74,7.13,2.85,10.71,1.81,9.87-2.87,16.78-9.1,19.7-19.23.17-.6-.09-1.32-.17-2.13-.45.25-.6.28-.66.37-.14.22-.23.47-.36.7-4.15,7.71-10.22,13.28-18.45,16.36-3.49,1.31-6.74,1.42-9.23-2.21-1.09-1.59-2.45-1.34-3.54.26-.82,1.21-1.39,2.66-2.4,3.66-7.65,7.56-16.66,12.01-27.66,11.15-3.47-.27-6.85-1.37-7.95-5.51-.16-.59-1.36-1.48-1.62-1.34-.7.37-1.71,1.29-1.62,1.85.52,3.43-1.44,5.66-3.66,7.55v.02Z"/>
  <path class="cls-1" d="M360.77,250.55c1.64,4.58,4.47,8.16,9.38,9.69,3.15.98,5.16,3.2,6.41,6.18.88,2.09,1.72,4.2,2.71,6.24,2.02,4.15,5.4,6.1,10.02,5.92,5.92-.24,10.98-2.74,15.87-5.72-.05-.28-.09-.57-.14-.85-1.42.18-2.84.4-4.26.53-3.58.35-7.15.81-10.73.94-3.35.12-5.87-1.38-7.26-4.61-.79-1.84-1.77-3.59-2.67-5.37-1.65-3.27-4.19-5.61-7.74-6.48-4.92-1.2-7.78-4.33-9.39-8.92-1.5-4.27-3.02-8.53-4.58-12.78-.46-1.24-.98-2.48-1.66-3.6-.27-.44-1.14-.93-1.54-.8-.93.3-.89,1.17-.52,2,.85,1.93,1.83,3.83,2.49,5.82,1.29,3.91,2.24,7.95,3.62,11.83v-.02Z"/>
  <path class="cls-1" d="M255.44,12.36c2.38-.81,4.73-.76,6.97.45,2.83,1.52,3.6,3.91,2.41,6.96-.38.97-.66,2.05-.65,3.07.02,1.62,1.74,2.53,3.19,1.75.55-.3,1.1-.84,1.34-1.4,1.92-4.35,5.77-5.29,9.89-5.49,3.72-.18,5.82,1.38,7.29,4.91,1,2.41,2.57,2.84,4.64,1.26.95-.72,1.77-1.78,2.83-2.13,1.12-.37,2.45-.08,3.91-.08-1.31-2.38-2.93-3.73-5.56-3.42-1.14.14-1.91-.25-2.75-1.15-3.8-4.09-8.58-5.11-13.89-3.91-2.04.46-4.01,1.21-5.97,1.81-4.28-6.11-10.26-7.57-16.38-4.09-4.45,2.53-6.58,6.85-4.91,10.42.78-4.65,3.42-7.5,7.63-8.94v-.02Z"/>
  <path class="cls-1" d="M203.83,512.43c-2.24-.54-3.02.86-3.71,2.07-2.46,4.33-3.2,8.98-2.12,13.87,1.49,6.7,5.33,11.9,10.72,15.91,9.21,6.86,19.45,9.61,31.81,6.87-1.21-.57-1.63-.87-2.09-.97-4.41-.93-8.91-1.56-13.23-2.78-7.12-2.01-13.75-5.01-18.84-10.71-5.81-6.52-7.63-15.22-3.1-22.84.23-.39.34-.85.56-1.41h0Z"/>
  <path class="cls-1" d="M337.16,334.44c3.36-5.28,8.25-8.41,14.33-9.18,3.8-.48,7.82-.45,11.58.23,6.8,1.24,13.25,0,19.73-1.58.36-.09.65-.42,1.43-.94-1.3-.1-1.94-.21-2.59-.19-6.27.1-12.49-.02-18.65-1.62-4.14-1.08-8.4-1.23-12.67-.11-6.73,1.76-11.73,5.56-14.78,11.86-.54,1.11-.95,2.16.25,3.53.53-.77.98-1.36,1.37-1.99h0Z"/>
  <path class="cls-1" d="M338.67,280.17c-1.36,1.81-2.57,3.73-3.78,5.65-1.93,3.04-3.65,6.23-5.73,9.16-3.56,5-8.12,7.68-14.48,5.39-.49-.18-1.06-.12-1.59-.16-4.96-.42-8.5.27-10.2,7.56-.26,1.13-1.41,2.35.02,3.82.87-1.92,1.58-3.72,2.48-5.43,1.59-2.99,3.6-3.96,6.93-3.41,1.31.22,2.62.52,3.87.94,4.69,1.56,8.76.23,12.18-2.95,2.33-2.16,4.56-4.59,6.23-7.27,2.92-4.7,5.38-9.68,8.07-14.62-1.97-.82-3.12.16-4.01,1.33h.01Z"/>
  <path class="cls-1" d="M282.6,463.01c3.5-9.84,9.48-18.2,16.53-25.79,1.77-1.91,3.75-3.78,6.86-3.36-1.56-2.33-2.29-2.81-4.06-2.21-1.24.42-2.45,1.07-3.5,1.84-5.62,4.12-9.42,9.8-12.94,15.65-5.49,9.13-8.44,18.94-6.82,29.83.27-1.21.53-2.42.82-3.62,1-4.12,1.68-8.36,3.1-12.34h.01Z"/>
  <path class="cls-1" d="M296.98,352.64c-4.47,1.23-8.64.39-12.77-1.52-3.24-1.5-6.57-2.87-9.97-3.97-2.59-.84-5.02.25-7.08,1.83-1.68,1.3-3.12,2.87-2.77,5.93,4.67-5.67,7.7-6.27,13.89-3.12,1.78.91,3.49,1.95,5.29,2.83,2.66,1.31,5.46,2.11,8.47,1.86,6.11-.51,11.39-3.06,16.32-6.59-1.16.01-2.22.35-3.3.64-2.69.72-5.39,1.38-8.08,2.11h0Z"/>
  <path class="cls-1" d="M222.1,15.47c3.49-2.31,7.38-3.59,11.65-3.66,3.74-.06,6.97.48,8.16,4.73.08.29.62.71.82.65.46-.14,1.03-.44,1.22-.84,1.08-2.19.35-4.86-1.75-6.37-2.37-1.71-5.14-2.27-7.96-2.04-4.57.36-8.93,1.64-12.77,4.19-2.8,1.86-5.23,4.14-6.45,7.43-.74,2-.8,3.87,1.06,5.63-.02-4.6,2.62-7.48,6.01-9.72h.01Z"/>
  <path class="cls-1" d="M317.54,116.34c1.77-.29,3.06-1.25,3.83-3.01,1.07-2.45.31-4.61-.6-6.86-1.09-2.7-2.83-3.18-5.01-1.21-1.88,1.69-2.74,3.85-2.6,6.28.03,3.39,1.7,5.24,4.39,4.8h0ZM318.19,108.35c.38.44.76.89,1.41,1.64-.52.26-.89.6-1.19.55-.38-.07-1.02-.53-.99-.71.1-.52.49-.99.76-1.48h0Z"/>
  <path class="cls-1" d="M316.41,29.3c.81-1.24,1.45-1.81,1.57-2.48.5-2.74-.47-5.01-2.68-6.68-2.75-2.08-6-3.09-9.34-3.1-2.45,0-5.15.34-6.95,2.48-.5.6-.66,1.48-1.2,2.77,8.17-5.04,16.53-1.97,18.59,7h.01Z"/>
  <path class="cls-1" d="M292.71,27.84c-.2.67.3,1.83.87,2.41,3.59,3.67,10.96,2.58,12-2.8-1.11.38-2.03.82-2.99.97-.7.11-1.93.06-2.13-.32-1.33-2.65-3.7-1.71-5.69-1.7-.73,0-1.87.79-2.06,1.44Z"/>
  <path class="cls-1" d="M258.02,18.74c-1.14,1.91-3.19,2.24-4.93,3.12-2.34,1.19-4.11,2.92-4.83,5.5-.26.93-.24,1.99,1.09,2.07.81.04,1.59.19,1.89-1.29.54-2.63,3.74-4.56,6.48-4.43.7-.13,1.68.79,2.02-.73.2-.94,1.11-1.74,1.23-2.66.07-.58-.62-1.45-1.2-1.84-.39-.25-1.54-.08-1.75.26Z"/>
  <path class="cls-1" d="M273.11,125.3c-.39-.21-1.12-.57-1.18-.49-.36.5-.82,1.13-.79,1.68.09,1.64,1.46,2.67,3.32,2.71,2.46.12,3.99-1.29,4.94-3.32,1-2.14,1.18-4.38-.5-6.31-.45-.52-1.35-.83-2.07-.9-1.41-.15-2.06.91-1.21,2.18.87,1.3.75,2.46.22,3.72-.57,1.35-1.29,1.51-2.73.73h0Z"/>
  <path class="cls-1" d="M255.61,131.29c-.49-.73-.83-1.62-.99-2.49-.2-1.11-.15-2.27-.21-3.4-.31-.02-.62-.05-.93-.07-.35,1.11-.98,2.21-1,3.33-.09,3.57,1.75,6.34,5.17,6.09,1.71-.12,3.05-1.22,3.48-2.78.53-1.94-.08-3.62-1.55-4.52-1.09-.67-2.1-.5-2.81.44-.89,1.19.58,1.09,1.01,1.56.69.74.5,1.43-.13,2.08-.76.78-1.55.44-2.01-.24h-.03Z"/>
  <path class="cls-1" d="M146.69,108.02c1.31-.94,1.62-2.99.76-4.3-.61-.93-4.5-2.69-5.16-2.25-.53.36-1.07.84-1.37,1.39-.3.56-.29,1.27-.36,1.59.08,2.15.93,3.41,2.42,4.18,1.43.74,2.61.17,3.71-.62h0Z"/>
  <path class="cls-1" d="M235.69,128.84c-.04.08-.21.1-.8.36-.18-.99-.18-1.82-.49-2.5-.42-.92-1.27-.92-1.93-.25-1.1,1.1-1.16,2.76-.29,4.41.87,1.65,2.26,2.47,3.82,2.26,1.62-.22,3.08-1.49,3.4-2.94.34-1.52-.23-3-1.42-3.34-1.73-.5-1.84.98-2.3,2.01h0Z"/>
  <path class="cls-1" d="M173.7,33.66c-.54.57-.71,1.61-.79,2.46-.03.35.56.94.98,1.09.32.11,1.09-.21,1.21-.51.64-1.57,1.94-1.63,3.28-1.59,1.53.05,3.06.16,5,.27-1.32-2.05-3.24-2.47-5.03-3.06-1.84-.61-3.43.06-4.66,1.35h0Z"/>
  <path class="cls-1" d="M313.94,264.73c-.58.2-1.24.17-2.67.34,3.64,2.03,5.45,1.6,6.9-1,1.16-2.08.44-4.6-1.62-5.81-.86-.51-1.72-.33-2.03.43-.3.71-.41,1.94,0,2.44,1.74,2.12,1.72,2.82-.57,3.61h0Z"/>
  <path class="cls-1" d="M203.22,68.05c-1.59-2.38-3.62-3.21-5.64-3.79-2.83-.81-4.87,1.52-4.08,4.65,2.76-3.59,6.14-.71,9.72-.87h0Z"/>
  <path class="cls-1" d="M199.15,29.2c.28,2.69,1.41,4.06,3.48,4.22,2.44.18,4.46-1.95,5.22-6.38-.52.55-1.04,1.11-1.57,1.65-2.93,2.96-3.16,2.96-6.45.35-.11-.09-.44.1-.67.16h0Z"/>
  <path class="cls-1" d="M292,274.43c1.41,2.97,3.29,2.83,5.13,2.48,1.62-.31,2.49-1.57,2.78-3.07.14-.7-.07-1.65-.49-2.22-.4-.55-1.31-1.07-1.92-1.01-.61.07-1.35.79-1.65,1.41-.28.58-.44,1.75,1.03,1.11.06-.03.4.56.61.86-.73.45-1.43,1.17-2.21,1.28s-1.65-.38-3.27-.83h-.01Z"/>
  <path class="cls-1" d="M325.63,249.9c-.45.41-1,.71-1.5,1.06,3.26-.05,4.9-1.49,5.18-4.06.17-1.59.3-3.23-1.09-4.46-.63-.56-1.38-1.09-2.05-.28-.28.34-.02,1.11.02,1.69,0,.11.17.2.24.31,1.69,2.76,1.59,3.55-.8,5.74Z"/>
  <path class="cls-1" d="M205.47,24.35c-.09-.64-1.17-1.6-1.79-1.57-.59.02-1.55,1.11-1.58,1.76-.03.62.95,1.28,1.79,2.3.75-1.11,1.67-1.87,1.58-2.49Z"/>
  <path class="cls-1" d="M248.82,215.56c-.58-.41-.99-.66-1.36-.95-1.64-1.31-1.73-1.96-.45-3.51.34-.41.72-.8,1.15-1.11,1.58-1.13,3.33-1.97,5.2-.96,1.71.92,2.1,2.68,2.01,4.51-.11,2.45-.8,4.73-2.34,6.67-.71.89-1.35,1.77-.71,2.88.79,1.35,1.82.37,2.81.18,1.93-.36,2.8.39,2.82,2.3.02,2.03-.9,3.59-2.51,4.75-1.18.85-2.4,1.64-3.6,2.46.1.26.19.53.29.79,2.03-.88,4.22-1.51,6.05-2.7,3.17-2.05,3.99-6.64,1.92-9.14-1.91-2.31-2.35-3.64-2.21-6.47.05-.93.06-1.88-.01-2.81-.43-5.37-5.38-7.8-9.8-4.78-.98.67-1.98,1.5-2.55,2.5-.61,1.08-1.23,2.59-.92,3.65.48,1.66,2.07,2.3,4.21,1.75h0Z"/>
  <path class="cls-1" d="M150.97,337.62c-2.1,1.01-3.83,2.42-4.8,4.57-.22.48,0,1.15.02,1.73.43-.21,1.06-.3,1.25-.64,1.59-2.8,4.4-3.25,7.14-3.63,3.14-.44,5.98.71,8.8,2.02,4.27,1.99,8.63,3.81,12.95,5.71.16-.36.33-.72.49-1.08-5.01-2.95-9.9-6.13-15.06-8.78-3.42-1.75-7.21-1.63-10.8.09h0Z"/>
  <path class="cls-1" d="M196.01,348.54c5.1.22,6.64.88,10.39,4.28.99.89,1.93,1.84,2.98,2.66,2.31,1.81,4.73,3.45,7.75,3.85,1.92.25,3.66-.14,5.19-1.61-4.41.22-7.74-1.79-10.79-4.54-1.28-1.16-2.6-2.3-4.04-3.24-1.66-1.08-3.37-2.23-5.23-2.8-2.08-.64-4.38-.83-6.24,1.41h-.01Z"/>
  <path class="cls-1" d="M254.58,266.29c-.52-.32-1.71.16-2.43.57-.77.45-1.29.96-2.4.95-1.88-.02-2.59,1.16-2.2,2.82.49,2.14,2.59,3.71,4.65,3.49,2.44-.27,4.17-2.38,4.08-5.76-.3-.4-.82-1.53-1.7-2.07ZM252.5,271.3c-.58.33-1.52.02-2.72,0,1.47-1.2,2.46-2.01,3.6-2.95.77,1.44.08,2.41-.88,2.96h0Z"/>
  <path class="cls-1" d="M188.52,208.24c5.92-2.42,10.3.27,10.78,6.65.08,1.05.16,2.1.31,4.1,3.43-6.78.22-13.21-6.15-13.88-1.5-.16-3.15.36-4.59.91-.62.24-.89,1.38-1.39,2.23.57,0,.84.07,1.04,0Z"/>
  <path class="cls-1" d="M164.45,271.61c-.31-.12-.9-.09-1.08.12-.29.33-.53.9-.45,1.3.16.74.77,1.42.8,2.14.02.5-.52,1.13-.98,1.49-.15.12-1.04-.3-1.2-.65-.42-.94-.82-1.97-.87-2.99-.06-1.25.25-2.52.4-3.8-.32,0-.59-.07-.8.02-.23.1-.47.29-.6.51-1.69,2.64-1.53,5.27.15,7.85,1,1.54,2.52,2.14,4.11,1.68,1.44-.42,2.42-1.85,2.53-3.69.12-2.02-.55-3.41-2-3.98h0Z"/>
  <path class="cls-1" d="M180.8,256.59c-.42-.05-1.06.25-1.28.59-.15.24.12.92.39,1.24.75.88,1.78,1.56,2.36,2.53.41.69.27,1.71-1.62,1.06-.22.09-.82.34-1.43.58.45.72.75,1.83,1.38,2.08,1.38.55,2.88.46,4.02-.83,1.12-1.27,1.11-2.6.43-4.07-.86-1.85-2.25-2.96-4.26-3.19h0Z"/>
  <path class="cls-1" d="M238.23,252.24c-1.21.31-1.2,1.23-.93,2.24.04.14-.26.37-.51.7-3.5-1.88-1.8-4.97-1.52-7.86-1.67.84-2.27,1.98-2.27,3.39s-.04,2.97.36,4.33c.46,1.54,2.53,2.74,3.78,2.42,1.29-.33,2.7-.8,2.96-2.34.14-.83-.14-1.8-.45-2.62-.09-.24-.98-.37-1.42-.26h0Z"/>
  <path class="cls-1" d="M187.98,247.29c-1.92.05-1.24,1.63-1.54,2.59.02,1.72,1.08,2.87,2.58,2.83,1.26-.03,2.56-1.31,2.6-2.54.04-1.47-1.79-2.93-3.63-2.88h-.01ZM188.39,250.24c-.08,0-.15-.15-.22-.24.09-.07.18-.2.26-.2s.15.15.22.24c-.09.07-.18.2-.26.2Z"/>
  <path class="cls-1" d="M169.53,122.69c-1.49-1.12-2.69-.64-3.93.99.52.23.94.43,1.37.59,1.45.56,1.2,1.7.64,2.59-.64,1.03-1.32.18-1.94-.29-.36-.27-.77-.46-1.35-.8.38,2.59,1.31,3.85,2.72,3.96,1.3.1,2.83-1.11,3.53-2.79.68-1.64.32-3.23-1.04-4.25Z"/>
  <path class="cls-1" d="M199.2,100.98v.08s.06.02.09.03l-.09-.11Z"/>
  <path class="cls-1" d="M195.99,101.63c1.39,1.84-.52,1.67-1.2,2.33-.44-.72-.81-1.33-1.33-2.18-.83,1.49-.93,2.62.17,3.5,1.04.82,2.23.67,3.33-.01,1.56-.97,2.41-2.33,2.24-4.21-.82-.27-1.62-.62-2.46-.71-.22-.02-.88,1.12-.75,1.28Z"/>
  <path class="cls-1" d="M184.61,112.69v5.68c-.93-1.15-1.42-1.75-2.29-2.81.18,1.53.09,2.63.49,3.53.21.47,1.34.88,1.92.75,1.46-.33,2.38-1.97,2.41-3.75.04-1.93-.51-2.64-2.53-3.39h0Z"/>
  <path class="cls-1" d="M123.33,264.67c1.32-.95,1.86-3.12,1.15-4.66-.63-1.38-2.5-2.13-4.1-1.41-.59.27-.91,1.14-1.35,1.74.57.27,1.15.55,1.72.82.02.15.05.3.07.45-.89-.09-1.91.07-2.64-.32-1.87-1.01-2.09-3.27-.63-4.49.41-.34.72-.82,1.07-1.24-.67-.34-1.56-1.12-1.95-.92-.97.5-2.28,1.35-2.43,2.23-.27,1.61-.18,3.5.44,4.99,1.42,3.41,5.97,4.74,8.65,2.81h0Z"/>
  <path class="cls-1" d="M109.09,243.28c.71.51,2.05.65,2.89.36,1.49-.51,1.54-2.01,1.35-3.38-.14-1.03-.82-1.95-1.83-1.64-2.61.78-1.39-1.11-1.01-1.59.56-.72,1.59-1.07,2.48-1.61-.62-1.04-1.32-2.07-2.76-1.42-2.97,1.33-3.75,7.37-1.12,9.28Z"/>
  <path class="cls-1" d="M107.42,317.36c-.69-.81-1.38-1.63-2.13-2.39-.36-.37-.83-.78-1.3-.85-.44-.07-1.11.15-1.37.48-.23.29-.22,1.04,0,1.37,1.03,1.53,2.15,3.02,3.29,4.47,2.51,3.18,5.94,4.22,9.62,2.71,2.83-1.16,5.22-3.04,6.89-5.76-1.67.79-3.31,1.62-5,2.36-4.96,2.17-6.44,1.8-10.01-2.39h.01Z"/>
  <path class="cls-1" d="M348.16,107.55c.63-.74,1.07-1.79,1.21-2.76.23-1.57-.39-2.84-1.91-3.35-.45,1.51-.91,2.97-1.29,4.44-.14.54-.05,1.13-.07,1.7.71.01,1.76.31,2.05-.03h.01Z"/>
</svg>