<?xml version="1.0" encoding="UTF-8"?>
<svg id="Layer_1" data-name="Layer 1" xmlns="http://www.w3.org/2000/svg" version="1.1" viewBox="0 0 489.99 585.66">
  <defs>
    <style>
      .cls-1 {
        fill: #000;
        stroke-width: 0px;
      }
    </style>
  </defs>
  <path class="cls-1" d="M475.14,303.61c-.66-7.34-3.51-13.89-8.24-19.56-1.59-1.9-3.26-3.72-4.9-5.58-.31,1.11-.07,1.83.29,2.47,1.39,2.48,2.98,4.86,4.22,7.42,2.57,5.32,4.19,11.03,3.49,16.91-1.24,10.48-7.84,18.04-14.43,25.42-2.54-6.12-4.75-12.09-7.48-17.81-1.88-3.94-3.46-7.93-4.5-12.14-2.51-10.16-6.22-19.84-11.05-29.14-4.44-8.56-10.2-16-17.47-22.28-2.57-2.22-5.22-4.34-7.91-6.4-2.04-1.56-3.25-3.45-3.68-6.05-1.2-7.21-2.61-14.38-3.89-21.57-.35-2-.82-4.03-.75-6.03.11-2.95.67-5.88,1.02-8.82.59-4.95.16-9.77-2.58-14.06-1-1.56-1.03-2.8-.6-4.52.89-3.52,1.36-7.15,2.12-10.72.21-1,.74-1.98,1.31-2.85,1.25-1.91,1.84-4.11,1.46-6.2-1.88-10.36-7.85-17.73-17.38-22.03-4.37-1.97-8.44-.64-11.57,3.17-.53-1.84-1.11-3.49-1.45-5.19-.1-.52.71-1.6.61-1.68-1.6-1.07-1.46-2.74-1.7-4.31-.43-2.81-.9-5.61-1.43-8.41-.5-2.67.88-5.71-1.57-8-.13-.12,0-.52,0-.79-.04-2.96-.09-5.92-.11-8.88-.04-4.68-1.12-9.15-2.91-13.42-.7-1.67-.59-2.83.24-4.44,3.38-6.55,2.53-11.38-2.7-16.57-1.73-1.72-3.63-3.28-5.42-4.95-.46-.43-1.25-1.18-1.14-1.47.8-1.96-.14-3.74-.28-5.6-.04-.61.15-1.38.53-1.85,1.2-1.48,2.55-2.85,3.91-4.35,1.11,3.78-1.26,6.67-2.05,10.04,4.29-1.38,6.69-6.09,5.13-10.07-.86-2.2-1.3-4.3-1.22-6.67.13-3.88-2.22-6.23-6.16-6.65-.89-.1-1.78-.24-2.74-.37.37-3.7.09-6.98-1.99-9.98-2.3-3.31-5.61-3.88-9.25-3.6-.37-2-.56-3.75-1.02-5.43-.73-2.64-2.24-4.64-5.15-5.14-5.21-.89-11.15,2.84-12.68,7.97-.12.41.1.91.22,1.84.73-.9,1.08-1.49,1.58-1.91,1.54-1.3,3.01-2.79,4.75-3.76,3.78-2.11,6.54-1.16,8.06,2.84.99,2.58,1.47,5.36,2.2,8.15.6-.29,1.43-.7,2.27-1.1,1.88-.91,3.44-.24,4.78,1.09,2.15,2.14,2.9,6.17,1.41,8.99-.74,1.4-.04,1.83.89,1.96,1.32.19,2.69-.04,4.04,0,4.05.09,5.92,2.19,5.71,6.17-.16,3.07-1.88,5.28-3.88,7.71-.57-.95-.96-1.8-1.53-2.49-1.2-1.45-2.26-3.19-3.8-4.15-2.5-1.55-5.34-2.54-5.68-6.06-.03-.35-.41-.71-.7-.98-1.26-1.2-2.51-1.4-3.82.14.46.31.78.54,1.11.75,1.2.8,1.64,2.13.91,3.14-.41.56-1.98.62-2.9.4-1.97-.46-3.82-1.4-5.79-1.87-6.06-1.45-10.05.86-11.89,6.77-.32-.23-.67-.4-.92-.66-2.02-2.04-4.38-1.94-6.77-.93-2.4,1.02-3.26,3.08-3.34,5.57-.04,1.21-.18,2.42-.2,3.63,0,.28.25.78.42.8.34.03.93-.12,1.02-.35.4-.99.59-2.06.98-3.05.73-1.9,2.17-3.14,4.09-3.68,1.84-.52,2.51,1.26,3.63,2.13.1.08.23.13.35.19.87-.32,1.75-.63,2.62-.95.45-.81.92-1.62,1.36-2.44,2.04-3.81,5.62-4.87,10.33-2.71-4.03,1.88-7.75,3.63-11.48,5.37-2.66,2.07-5.31,4.14-7.98,6.2-3.54,2.73-6,2.72-9.32-.18-4.51-3.93-9.23-7.6-14.53-10.39-2.97-1.57-6.13-2.8-9.24-4.09-2.58-1.07-4.76-.09-6.7,1.62-.71.63-1.53,1.26-1.94,2.07-1.53,3.09-3.85,3.24-6.65,2.05-.12-.05-.26-.06-.39-.1-7.48-2.27-15.23,3.06-16.9,9.58-.43,1.68-.71,3.41-1.1,5.29-2.53-.84-3.83-2.91-5.21-4.89-1.47-2.11-2.76-4.38-4.46-6.28-2.65-2.99-6.09-4.09-9.92-2.59-2.62,1.02-5.07,2.47-7.9,3.89-3.76-3.19-8.54-3.65-13.52-3.18-1.69.16-3.05-.06-4.43-1.35-3.97-3.73-6.75-2.61-9.56-.97-3.61,2.11-5.23,6.13-4.17,10.35.37-.84.66-1.42.87-2.03.89-2.59,2.76-4.26,5.02-5.65,2.4-1.47,4.65-1.31,6.73.53,1.42,1.26,2.7,2.68,4.11,3.95.3.27.9.21,1.36.3-.02-.46,0-.93-.07-1.38-.05-.32-.23-.61-.54-1.39,3.25.87,6.13,1.54,8.93,2.44,1.88.6,3.24,1.53,2.81,4.14-.39,2.33,1.28,3.63,3.41,3.4,1.94-.21,2.75-1.39,2.57-3.84-.04-.53-.31-1.05-.33-1.58,0-.48.03-1.16.33-1.41,4.52-3.72,9.25-5.81,13.45-.72,1.81,2.2,3.76,4.29,5.43,6.6,2.12,2.92,5.55,2.28,8.36,3.3.45.16,1.52-.89,2.02-1.58.34-.48.14-1.32.25-1.98,1.03-6.63,5.95-10.02,12.57-8.66,1.71.35,2.6,1.48,2.66,3.37.23,6.75,5.49,12,12.25,12.21,2.31.07,4.68-.25,6.91.17,5.41,1.02,10.81.38,16.22.48.69.01,1.77.21,1.98.66,1.05,2.18,2.83,2.14,4.8,2.02,1.33-.08,2.68.1,4.02.27,4.05.49,7.24,2.87,10.37,5.14,3.61,2.62,6.84,5.76,10.33,8.56,2.45,1.97,3.97,4.45,4.55,7.47.53,2.78,1.08,5.6,1.17,8.42.33,10.85.34,21.7.73,32.55.19,5.41,1.23,10.73,3.02,15.88,1.43,4.1,1.41,4.11-2.52,5.45-.22.08-.51-.04-1.13-.1-.54-1.47-1.47-3.06-1.68-4.73-.67-5.5-1.4-11.02-1.48-16.55-.07-4.71.77-9.43,1.13-14.15.14-1.89.23-3.81.05-5.69-.36-3.77-.86-7.53-1.42-11.28-1.11-7.47-3.95-14.09-9.88-19.05-2.07-1.74-4.21-3.41-6.46-4.92-3.04-2.03-6.2-3.89-9.33-5.78-.49-.3-1.08-.43-1.62-.63.1,1.24.47,2.11,1.13,2.6,2.72,2.02,5.49,3.96,8.3,5.85,7.35,4.97,12.91,11.13,14.05,20.39.31,2.55,1.04,5.05,1.24,7.6.22,2.86.05,5.75.05,8.56-1.02-.69-1.88-1.75-2.75-1.76-1.55-.02-3.11.57-4.66.95-.21.05-.38.37-.51.6-.84,1.54-.1,4.38,1.42,5.53,1.47,1.11,3.3,1.03,4.8-.4.65-.62,1.03-1.53,1.61-2.41v13.13c-1.73.41-3.28.93-4.86,1.08-1.15.11-2.77.15-3.45-.52-2.52-2.5-5.73-2.84-8.89-3.5-2.24-.46-3.96-1.69-4.98-3.8-2.06-4.27-1.39-8.73-.91-13.17.05-.49.47-.98.81-1.38.39-.46,1.4-.77.43-1.46-.44-.31-1.28-.37-1.8-.19-.52.19-.91.73-1.33,1.17.3-2.07.63-4.14.87-6.22.23-2.02.51-4.05.49-6.07-.02-2.16-.35-4.32-.58-6.48-.21-2.02.24-4.16-.9-6.07-.76,3.45-1.17,6.88-1.6,10.31-.53,4.16-.68,8.57-2.94,12.12-2.2,3.46-3.26,7.01-3.8,10.97-.35,2.53-.96,5.19-3.37,7.21-1.06-5.96-1.88-11.58-3.12-17.1-.43-1.92-.41-3.08.99-4.64,2.8-3.11,2.31-5.75-1.05-8.61-.19-.16-.29-.42-.5-.74.95-1.85,1.93-3.75,3.08-5.99,1.47,1.33,3,2.38,4.62.73,1.5-1.53,1.6-3.36.84-5.28-.1-.25-.22-.52-.39-.71-1.17-1.28-.56-2.5.13-3.68,1.09-1.88,2.26-3.71,3.32-5.6.48-.87.78-1.84,1.16-2.76-.31-.24-.61-.48-.92-.71-.2.49-.31,1.04-.61,1.45-2.32,3.17-4.57,6.41-7.05,9.46-3.31,4.07-5.03,8.95-7.15,13.62-.48,1.05-.35,2.39-.45,3.6-.27,3.18,1.09,6.07,1.67,9.09.95,4.9,1.67,9.85,2.64,14.75.39,1.95.71,3.92,1.37,5.81s1.44,3.62,1.67,5.57c.42,3.7,2,7.23,3.08,10.84,1.35,4.52-.81,7.55-4.9,10.18-.2-.84-.44-1.35-.42-1.85.17-4.81-.86-10.08-2.35-14.64-1-3.08-2.54-5.97-3.4-9.04-.97-3.45-1.62-6.98-1.88-10.56-.39-5.37-.33-10.85-2.33-16-1.51-3.87-.84-7.41,1.45-10.78,5.28-7.77,9.59-16.23,16.43-23.07-1.88-1.17-2.7.11-3.63,1.02-6.4,6.21-10.89,13.82-15.57,21.3-2.24,3.58-2.68,7.3-1.3,11.27,1.79,5.15,3.19,10.36,2.79,15.9-.05.66.16,1.34.29,2,.97,4.6,1.96,9.2,2.99,14.04-2.61,2.03-5.81,2.86-9.3,2.34-4-.59-7.47.54-10.76,2.72-2.6,1.73-5.24,3.4-7.95,4.94-4.89,2.78-10.1,4.59-15.77,4.93-3.24.19-4.35-.52-5.65-3.48-.7-1.6-1.22-3.37-2.27-4.71-1.23-1.57-1.75-3.27-2.26-5.11-2.37-8.6-4.81-17.19-7.32-25.75-1.33-4.54-3.91-8.24-7.63-11.27-2.84-2.31-5.25-5.14-8.04-7.5-2.72-2.3-4-5.87-7.15-7.77-.63-.38-.92-1.32-1.55-2.28,3.56.99,6.57,1.76,9.52,2.67,5.94,1.84,11.68-.11,15.17-5.53.65-1,1.6-1.8,2.4-2.68,6.24,4.06,8.76,5.14,15.05,6.11,5.11.79,9.41-.57,12.32-5.17,1.49-2.36,1.52-2.34,4.11-2.52-.82-1.21-1.6-2.4-2.41-3.56-.78-1.11-1.6-1-2.31.27-2.83,5.02-7.06,6.93-12.53,5.76-4.59-.98-8.79-2.5-11.96-6.32-1.66-2-2.85-1.61-4.3.77-.19.31-.4.6-1.07,1.57-.21-1.42-.47-2.18-.38-2.89.08-.59.56-1.13.88-1.69,1.56-2.67,4.13-3.54,6.87-2.22,1.29.62,2.48,1.46,4.18,2.48-1.51-3.65-3.87-5.63-7.14-5.67-3.1-.04-4.93,2.29-6.14,5.17-1.28-5.58-2.77-6.38-7.91-6.18-1.88.07-3.75.4-5.6.73-1.46.26-2.38,0-2.46-1.7,0-.22-.53-.42-1.03-.8-.84,3.33-3.07,4.64-6.1,5.36-2.48.58-4.82,1.77-7.18,2.79-3.85,1.67-8.8-.57-9.99-4.7-.32-1.11-.61-2.05-1.81-2.39-2.21,2.69-2.15,2.56-4.41,1.14-2.32-1.46.56-2.05.32-3.41-3.59.59-5.86-.97-6.68-4.56-.03-.13-.45-.16-.83-.29-.16.5-.32,1-.49,1.49-.15.43-.32.86-.67,1.8-1.44-1.6-2.55-2.76-3.55-3.99-.31-.38-.52-1.01-.46-1.48.35-2.48,4.59-5.05,6.93-4.02,1.96.86,3.72,2.17,5.56,3.29,1.51.93,2.82,2.33,5.47,2.32-1.48-1.53-2.48-2.61-3.53-3.64-.87-.86-1.75-1.72-2.69-2.49-4.15-3.38-6.79-3.61-11.57-.98-1.55-5.87-3.89-11.1-10.78-12.44.42-1,.77-1.84,1.11-2.66,1.59.19,3.03.49,4.48.49s2.91-.32,4.4-.5c4.69,7.58,17.95,9.02,24.49,5.04,2.28-1.39,3.85-1.76,6.42-.47,6.46,3.22,14.83-.93,16.53-7.82.08-.32-.03-.86-.26-1.05-.25-.21-.8-.28-1.1-.15-.86.39-1.67.88-2.47,1.38-1.5.93-2.91,2.02-4.47,2.81-4.14,2.07-7.66.78-9.71-3.34-.47-.95-1.03-1.95-1.8-2.64-1.42-1.27-3.42-.46-3.56,1.44-.07,1.04.17,2.17.56,3.14.56,1.44.05,2.4-1.07,3.12-1.02.65-2.08,1.33-3.22,1.66-3.85,1.13-7.8,1.24-11.58-.14-2.12-.77-4.41-1.76-5.92-3.33-1.37-1.43-2.43-1.85-4.11-1.2-1.65.63-3.27.38-4.71-.44-1.25-.72-2.27-1.84-3.5-2.6-1.11-.68-2.35-1.25-3.61-1.56-.56-.14-1.3.48-2.18.84,4.2,2.66,4.48,3.62,2.49,7.76-.65,1.34-1.41,2.64-1.94,4.03-.22.57.06,1.33.16,2.8,2.23-3.27,4.73-3.99,7.51-2.7,2.28,1.05,3.84,3.07,4.82,5.35,1.02,2.35,2.57,4.67,1.57,7.74-.72-.82-1.25-1.43-1.79-2.03-3.3-3.63-7.05-5.3-11.98-3.27-2.64,1.09-4.97-.96-4.41-3.73.28-1.37.9-2.66,1.45-4.22-1.38.13-2.39.21-3.4.32-.21.02-.6.18-.59.21.14.64.65,1.42.44,1.89-1.52,3.46.02,5.98,2.44,8.17-1.95.16-3.76.33-5.58.47-3.94.29-6.32-1.73-6.31-5.65,0-4.05,1.51-7.61,3.8-10.95,1.21-1.77,2.53-.68,3.87-.78,1.8-.14.92,1.23,1.29,1.89.3.53.62,1.06,1.26,2.13.5-3.21.93-5.66-.86-7.98-.34-.45-.27-1.64.09-2.14,3.98-5.58,9.33-9.06,16.24-9.61,1.48-.12,3.2.62,4.55,1.4,1.47.85-.38,2.21.06,3.33.08.21.35.36.53.54.58-.39,1.35-.67,1.72-1.22.45-.65.49-1.57.85-2.3.35-.71.77-1.46,1.36-1.96,3.39-2.91,7.32-4.63,11.82-4.78,1.31-.04,2.7.27,3.93.74,2.03.78,2.2,1.44,1.51,3.69-.7,2.28-.37,3.56,1.06,4.12,1.21.47,2.54-.29,3.08-2.42.57-2.26,2.05-3.61,3.88-4.41,2.45-1.08,5.06-2.04,7.68-2.42,4.69-.66,7.52,1.4,9.15,5.95.11.3.54.47.84.72,1.96-3.93.99-7.46-2.64-9.26-1.18-.58-2.57-.86-3.89-1-5.14-.54-10.03.18-14.31,3.35-1,.74-1.74.81-2.87.01-1.16-.83-2.65-1.48-4.05-1.64-6.27-.71-11.82.94-16.28,5.61-.53.55-1.09,1.08-1.7,1.69-3.39-2.82-7.1-3.12-10.92-2.02-4.98,1.44-9.07,4.32-12.08,8.53-1.72,2.4-2.98,5.13-6.18,6-.58.16-1.08.81-1.52,1.33-3.74,4.4-5.89,9.39-5.53,15.27.27,4.36,3.12,7.66,7.37,8.55,1.3.27,2.61.5,4.4.84-2.86,5.29-2.03,10.65-1.66,15.94-2.94.78-5.06,3.29-5.02,5.99,0,.63.25,1.35.62,1.87.66.95,1.54,1.5,2.78.83,1.31-.71,1.7-1.66,1.12-3.01-.77-1.75-.33-3.28,1.3-4.58,1.86,3.61,5.19,5.3,8.91,5.5,6.23.33,12.49.13,18.74.03,2.07-.03,4.13-.38,6.19-.6-7.35,6.34-14.59,12.76-21.28,19.84-7.53,7.96-13.02,16.93-16.05,27.45-.28.96-.69,1.87-1.15,3.1-2.05-2.48-3.5-4.85-3.61-7.62-.15-3.65-.18-7.36.31-10.97.74-5.42.34-9.95-5.41-12.58-2.52-1.15-2.9-2.84-1.75-5.44.7-1.59,1.78-3.02,2.7-4.52,1.25-2.02,1.23-2.91-.78-3.91-2.74-1.37-3.41-3.56-3.47-6.33-.12-5.15,1.41-9.89,3.41-14.51.84-1.93,1.41-4.13,3.96-4.77.39-.1.69-1.35.64-2.03-.02-.27-1.14-.71-1.7-.63-.75.11-1.59.5-2.11,1.04-.94.96-1.78,2.05-2.47,3.21-2.44,4.13-4.01,8.66-4.72,13.33-.73,4.81-.96,9.8,3.6,13.18-.85,1.69-1.58,3.14-2.29,4.6-1.01,2.07-1.2,4.31-.22,6.3,1.42,2.88,1.21,5.85.9,8.78-.86,8.06-2.06,16.09-2.85,24.16-.27,2.72-1.14,3.94-3.89,4.72-4.84,1.37-7.96,4.98-9.7,9.67-.37,1-.8,2.28.69,3.18.11-.43.2-.64.22-.86.59-4.76,5.4-9.98,9.84-10.61,1.35-.19,2.16.19,1.53,1.81-.13.34.08.82.22,1.86.53-.94.68-1.29.9-1.59.29-.41.62-.79.94-1.18.48.4,1.21.7,1.39,1.21.3.87.3,1.86.36,2.8.22,3.46-.81,6.69-1.92,9.9-.35,1.01-.7,2.05-.8,3.11-.11,1.12.85,1.72,1.88,1.27.87-.37,1.66-.92,2.5-1.36.95-.5,1.88-1.13,2.9-1.42,1.75-.5,2.6.13,2.59,1.96,0,1.89-.14,3.8-.5,5.65-.36,1.9-.26,3.82,1.36,4.76,1.69.99,1.65,2.25,1.64,3.74,0,1.36-.1,2.73.08,4.07.07.56.66,1.3,1.17,1.47.49.16,1.22-.25,1.77-.55.33-.18.53-.61.75-.95,1.62-2.5,3.3-4.96,4.8-7.53.41-.7.3-1.71.43-2.58.09-.58.18-1.16.32-2.01.78.46,1.29.66,1.68,1,3.78,3.31,5.46,7.65,6.07,12.49.3,2.42.42,4.86.74,7.28.28,2.11,1.81,2.7,3.47,1.39.63-.5,1.19-1.12,1.71-1.74,3.42-4.01,8.63-3.04,11.01.81,1.76,2.83,3.86,5.45,5.81,8.16-.23.03-.47.08-.69.04-3-.55-5.9-1.98-9.1-.92-.5.16-1.26-.34-1.86-.61-5.08-2.29-9.26-.94-11.3,4.11-.77,1.91-1.95,2.83-3.62,3.41-1.56.54-3.06,1.72-4.89.98.03-.44,0-.72.07-.96,2.32-7.97-2.33-14.77-9.27-15.56-1.76-.2-2.1-1.28-2.53-2.65-1.26-4-2.6-7.97-4.02-11.92-1.07-2.99-2.68-5.88-5.36-7.51-5.25-3.2-10.09-7.91-17.17-6.1-.13.03-.27-.02-.41,0-4.25.11-5.95,1.44-7.32,5.64-.5,1.54-.95,3.11-1.61,4.58-1.7,3.78-2.47,7.71-2.36,11.84.14,5.55,2.54,9.59,7.76,11.78,1.36.57,2.7,1.19,4.5,1.98-6.1,1.24-12.37-3.45-13.9-9.93-1.73-7.36-.11-14.23,2.83-20.92,1.99-4.54,5.04-8.01,10.07-9.3.49-.13.93-.48,1.76-.93-5.38-.84-8.77,1.69-11.35,5.4-5.44,7.81-7.32,16.58-5.58,25.87,1.36,7.22,6.6,11.84,14.08,12.55.89.08,1.78.21,2.75.33-1.7,5.28.75,9.35,3.48,13.44-3.09,1.3-5.96,2.2-8.5,3.65-2.63,1.51-4.95,3.57-7.84,5.71.11-1.18.12-1.83.25-2.45.17-.79.43-1.56.66-2.34.27-.91.6-1.8.79-2.73.22-1.06,1.25.84,1.56-.57.85-3.88,1.95-7.7,2.95-11.55-1.08.25-1.62.75-1.99,1.36-.41.68-.69,1.44-1.01,2.18-.05-2.55-.11-5.11-.17-7.92-2.39.76-2.13,2.35-2.29,3.78-.36,3.22-.37,6.56-1.28,9.63-2,6.72-4.42,13.31-6.78,19.92-4.86,13.59-11.9,26.43-13.9,40.98-.18,1.28-.86,1.86-1.87,2.4-4.6,2.45-7.15,6.54-8.7,11.31-1.57,4.82-1.34,9.64.72,14.28.77,1.74.83,3.27,0,5.01-2.24,4.64-4.23,9.36-7.5,13.45-1.93,2.42-3.39,5.21-4.98,7.89-.86,1.45-.86,3.2.67,3.96,2.68,1.32,3.71,3.84,5.27,6.01,1.12,1.55,1.84,3.46,3.83,4.77-.21-1.58-.36-2.74-.52-3.89,2.06,0,2.62-1.63,3.18-3.12,1.67-4.43,3.26-8.88,4.9-13.32,1.21-3.26,2.46-6.52,3.82-10.11,5.29,2.68,10.57,4.06,16.28,3.73.26,1.97.36,3.72.74,5.4,1.36,6.01,5.06,10.49,9.93,13.95,7.94,5.64,16.9,7.04,26.35,5.46,3.97-.66,7.88-1.75,11.95-2.68.35,2.64.77,5.28,1.03,7.94.48,4.84,2.19,9.21,4.94,13.17,5.74,8.24,15.54,10.57,24.44,5.9.95-.5,1.88-1.04,2.79-1.54,8.27,8.76,19.01,9.86,27.86,4.89,2.49,5.39,6.89,8,12.62,9.06,4.83.89,9.44.05,14.06-.97,2.84-.63,5.61-1.55,8.71-2.42,0,3.3-.06,6.28.02,9.25.04,1.65.85,2.26,2.35,1.68,3.32-1.29,6.09-3.25,7.11-6.95,10.26,1.89,17.6-4.21,25.32-9.29-1.17.1-2.2.55-3.23,1.01-4.82,2.15-9.59,4.37-14.89,5.24-2,.33-3.75.04-5.56-.54-1.44-.46-2.25-1.35-2.11-3.01.32-3.91.52-7.83.89-11.73.07-.72.57-1.62,1.15-2.03,2.12-1.46,4.35-2.75,6.56-4.09.19-.12.64-.16.73-.04,1.49,1.91,1.64.47,2.1-.74.43-1.12,1.18-2.11,1.73-3.19,2.07-4.08,5.77-5.94,10.3-5.5,4.11.4,7.89,1.89,11.69,3.27,8.57,3.12,17.01,2.42,25.42-.53.32-.11.78-.73.75-.76-1.13-1.31-.08-2.35.63-3.09,1.67-1.74,3.38-3.56,5.4-4.83,4.49-2.83,8.01-2.13,11.38,2.04,1.53,1.89,2.86,3.95,4.23,5.97,2.84,4.19,6.82,5.64,11.68,4.74,1.57-.29,3.23-.77,4.57-1.6,3.78-2.36,7.41-4.95,11.08-7.47.06-.04-.07-.38-.16-.79-.75.35-1.47.67-2.17,1.02-3.16,1.56-6.19,3.49-9.49,4.6-7.59,2.57-9.98.32-12.95-4.02-1.53-2.23-3.24-4.38-5.15-6.28-3.42-3.41-8.06-4.18-12.71-1.72-4.53,2.4-7.39,6.17-8.81,11.24-7.3,1.73-14.56,1.31-21.79-1.26-3.55-1.26-7.28-2.03-10.93-3-5.29-1.41-11.34,1.1-13.85,6.03-2.1,4.11-5.94,4.85-10.23,6.67,1.1-4.28,1.87-7.82,2.91-11.27,2.47-8.15,4.89-16.32,9.55-23.62,2.43-3.81,5.05-7,10.05-7.08,1.06-.02,2.15-.33,3.17-.67,3.24-1.07,5.83.09,8.18,2.22.5.46,1,.92,1.54,1.33,5.03,3.94,10.01,3.94,14.65-.43,2.65-2.49,4.96-5.39,7.17-8.3,2.13-2.81,3.87-5.9,5.89-8.79,1.57-2.23,1.71-2.32,4.31-1.2,4.76,2.06,9.24,1.54,13.61-1,1.17-.68,2.35-1.36,3.44-2.17,6.91-5.16,12.52-11.59,17.96-18.22,3.28-4,4.67-8.52,4.71-13.52.06-6.79-.04-13.59-.13-20.38,0-.64-.41-1.28-.9-2.68-.62,1.81-1.1,2.8-1.28,3.83-1.21,6.92-2.29,13.86-3.57,20.76-.34,1.83-.92,3.78-1.96,5.28-5.28,7.62-11.3,14.59-18.83,20.12-3.86,2.84-7.79,4.03-12.49,1.64-3.17-1.61-6.03-.71-8.42,2-1.16,1.31-2.08,2.84-3.1,4.28-2.66,3.77-5.13,7.7-8.03,11.27-4.02,4.96-5.86,5.07-10.72,1.17-3.7-2.97-7.79-4.29-12.5-3.59-.59.09-1.17.16-1.71.24,1.98-4.25,3.82-8.31,5.76-12.31.83-1.7,1.91-3.28,2.84-4.93.56-1,1.25-1.52,2.51-1.71,3.12-.47,3.44-.82,3.28-3.88-.08-1.56.35-2.64,1.42-3.57,2.55-2.24,5-4.61,7.71-6.64,12.39-9.25,24.86-18.4,37.29-27.59,2.62-1.94,5.24-3.86,7.83-5.84,1.21-.93,2.44-1.26,3.68-.21.55.47,1.31,1.19-.25,1.49-.27.05-.68.88-.56,1.06.24.39.96.93,1.18.82.91-.46,2.01-.99,2.45-1.81.3-.56-.21-1.76-.68-2.45-.46-.68-1.32-1.08-2.1-1.67,1.41-1.13,2.52-2.13,3.76-2.95.44-.29,1.27-.37,1.77-.16,4.09,1.69,5.2,1.61,7.27-2.02,1.11-1.93,2.38-1.91,4.03-1.6,4.85.91,9.16,3.24,13.51,5.38.92.45,1.52,1.76,2.01,2.8.33.69.09,1.63.3,2.4,1.1,4.11,4.36,5.06,7.65,2.29.3-.25.61-.49,1.23-1,3.22,3.06,6.44,6.12,9.73,9.24-2.47,1.05-4.64,1.86-6.71,2.88-1.25.61-1.42,1.91-.69,3.11,1.04,1.7,2.58,2.26,4.5,2.16,2.15-.11,3.55-1.27,4.39-3.11.35-.78.35-1.71.56-2.9,2.93,2.27,5.87,4,6.88,7.53-.61.18-1.42.22-1.74.63-1.38,1.78-.68,4.78,1.29,6.06,1.81,1.18,4.08.78,5.35-1.09.56-.82.82-1.85,1.3-2.97,5.45,4.82,10.09,10.02,13.68,16.78-3.29,0-5.66.66-6.84,3.59,1.88-.73,3.71-.87,5.5-.42-1.41.97-2.86,1.75-4.03,2.83-3.16,2.91-5.66,6.21-5.57,10.84.02,1.31.29,2.49,1.51,3.11.49.25,1.38.26,1.79-.04.6-.43.94-1.23,1.35-1.89.02-.03-.4-.48-.52-.44-2.35.7-1.68-1.1-1.44-1.98,1.44-5.18,5.06-8.67,9.23-11.86.54,1.58,1,2.91,1.71,4.99.21-1.88.33-2.93.54-4.84,1.95,3.37,3.57,6,4.99,8.73.25.48-.04,1.63-.48,2.04-5.49,5.2-11.54,9.46-19.21,10.77-3.47.59-6.93,1.31-10.43,1.56-4.02.29-7.48,1.58-10.48,4.24-.91.81-1.95,1.48-2.84,2.32-2.21,2.07-3.96,4.42-4.69,7.46-.33,1.37.06,2.4.96,3.32.78.8,1.92.5,2.19-.62.24-1.01.15-2.1.45-3.09.65-2.15,2.63-3.32,3.88-4.96,2.3-3,5.08-4.31,8.6-4.68,2.02-.21,4.03-.48,6.05-.61,8.73-.56,16.42-3.37,22.32-10.15,1.49-1.72,3.02-3.41,4.59-5.17,1.74,2.92,1.27,5.68.03,8.48-1.53-.55-2.81-1.96-4.59-.6,5.6,3.62,6.61,9.68,4.43,14.71-2.54,5.88-7.08,9.9-12.99,12.22-3.36,1.32-6.81,1.61-9.95-1.18.15.88.33,1.68.84,2.09,2.44,1.96,5.44,2.1,8.16,1.34,8.3-2.35,14.44-7.32,17.26-15.75.88-2.63,1.07-5.45-.16-7.95-1.27-2.59-1.12-4.91.17-7.45,5.59,11.29,9.32,23.2,13.05,35.14.45-3.58.8-7.06-.19-10.55-.71-2.5-1.17-5.07-1.73-7.61.67,1,1.41,1.98,1.97,3.04,2.53,5.07,4.22,10.63,7,15.52,1.47,2.58,2.99,5.43,2.52,8.37-.05.29-.12.59-.32.81-.46.5-1.35.28-1.78-.25s-.55-1.23-.73-1.89c-.62-2.29-3.4-4.35-4.95-6.04-.22.16-.43.33-.65.49.82,1.34,1.65,2.67,2.44,4.02,1.36,2.32,1.39,2.43-.55,4.06-3.02,2.53-6.02,5.09-9.16,7.45-18.71,14.03-39.29,24.61-61.23,32.53-16.47,5.95-33.33,10.41-50.62,13.33-9.89,1.67-19.78,3.3-29.79,4.02-10.55.77-21.09,1.95-31.65,2.12-14.38.24-28.79-.06-43.17-.61-10.28-.39-20.54-1.5-30.8-2.41-11.32-1-22.52-2.87-33.7-4.89-15.98-2.88-31.72-6.65-47.21-11.5-18.81-5.89-37.03-13.18-54.09-23.14-10.96-6.4-21.17-13.76-29.33-23.66-10.06-12.22-12.63-25.49-5.58-40.06,3.42-7.08,8.21-13.11,14.5-17.86,6.18-4.67,12.59-8.95,20.66-9.95-1.05-.46-2.14-.94-3.08-.74-2.5.54-5.03,1.14-7.38,2.12-9.88,4.13-17.97,10.61-24.15,19.34-5.2,7.34-8.29,15.44-8.2,24.63.08,7.89,2.76,14.86,7.06,21.29,6.46,9.64,15.11,17.03,24.59,23.51,15.9,10.88,33.34,18.7,51.36,25.25,20.14,7.32,40.85,12.62,61.92,16.37,12.11,2.15,24.33,3.82,36.57,5.12,12.94,1.37,25.94,2.51,38.94,2.89,13.69.4,27.42-.19,41.13-.4,10.45-.16,20.86-1.05,31.21-2.5,9.79-1.37,19.63-2.54,29.32-4.45,17.03-3.35,33.73-7.99,49.92-14.34,20.05-7.87,39.03-17.71,56.31-30.66,3.15-2.36,6.13-4.94,9.22-7.38.66-.52,1.14-1.26,2.4-.56,2.46,1.36,3.74.73,3.57-1.86-.18-2.69,1.16-4.25,2.8-5.92,4.58-4.68,8.64-9.77,11.58-15.66,2.52-5.06,4.02-10.43,3.51-16.1l.02-.05ZM303.48,70.07c-2.17.3-4.75.47-7.16-.24-3.83-1.13-7.7-1.36-11.64-1.38-1.74,0-3.48-.42-5.23-.52-4.15-.25-6.15-3.13-7.69-6.39-.78-1.65-.84-3.45,1.33-4.37.43,1.38.69,2.86,1.37,4.1,1.58,2.87,3.88,4.7,7.39,4.93,4.05.26,8.07.81,12.11,1.22.4.04.86.17,1.2.02,2.61-1.12,5.21-.6,7.76.2.13-.54.31-.9.22-1-2.84-3.07-5.52-6.31-9.4-8.23-2.06-1.02-3.97-2.32-5.97-3.47-4.65-2.67-9.45-2.65-14.91-.52,1.17-2.62,2.64-4.33,4.72-5.61,1.84-1.14,3.49-.11,5.02.54,6.26,2.64,12.18,5.92,17.62,10.03,1.62,1.22,3.25,2.42,4.84,3.6-.48,2.17-.98,4.42-1.57,7.08h0ZM273.16,57.1c.42-.49.84-1.29,1.28-1.31,2.95-.11,6.23-.84,8.81.15,5.34,2.05,10.33,5.03,14.96,9.22-.98.09-1.52.21-2.04.17-4.71-.4-9.41-.81-14.12-1.27-3.1-.3-5.35-1.86-6.35-4.87-.44-1.34-1.32-1.88-2.54-2.09h0ZM330.15,122.16c-.34-.32-.61-.72-.95-1.15.35-.4.58-.66.8-.92.3.5.64.98.85,1.52.03.08-.67.59-.71.56h.01ZM293.28,104.85h-.34v-2.19h.34v2.19ZM96.12,199.92v2.58c-.79-.95-.89-1.83,0-2.58ZM387.05,247.83c-.06,0-.31-.44-.28-.46.28-.24.59-.44.89-.65.09.22.19.43.33.76-.32.13-.62.28-.94.35ZM442.63,309.68c-.23-.71-.46-1.42-.7-2.14.98.47.74,1.33.7,2.14ZM399.22,236.46c-8.62-5.98-16.81-12.24-26.28-16.86.98,0,1.84-.2,2.57.04,2.36.76,4.64.24,6.72-.64,4.59-1.95,9.07-4.17,13.61-6.28,1.08,7.62,2.21,15.53,3.38,23.75h0ZM382.98,141.63s.05.09.07.14c-.1-.08-.2-.15-.31-.23.08.03.2.03.24.09ZM364.11,127.36c.23-.22.54-.37.81-.54.06.23.13.46.23.83-.3.09-.61.17-.91.26-.05-.19-.2-.48-.13-.54h0ZM312.13,68.47c-.36,1.8-1.98,2.08-3.36,2.52-1.25.4-2.06-.34-2.53-1.46-.73-1.73-.84-3.43.51-4.93.34-.38.84-.6,1.09-.78,1.52.06,4.53,3.46,4.29,4.65h0ZM313.23,64.23c.22-.3.38-.65.64-.87,7.37-5.9,15.69-10.12,24.47-13.43,5.94-2.25,9.07-1.01,12.06,4.56.42.78.61,1.69.89,2.55-2.03-.52-4.03-1.18-6.09-1.5-5.65-.86-10.68,1.39-15.6,3.62-4.8,2.18-9.4,4.8-14.3,7.34-.6-.66-1.3-1.42-2.08-2.27h0ZM319.62,66.85l-.1.09c.49-.4.93-.94,1.49-1.17,6.11-2.51,12.11-5.35,18.39-7.32,5.38-1.69,9.11-.37,11.78,2.93.86,1.07,1.15,2.06.67,3.34-1.22,3.3-3.65,5.18-6.92,6.26-5.77,1.92-11.7,1.91-17.65,1.51-4.26-.28-8.51-.79-12.87-1.2.6-2.67,2.41-4.1,5.2-4.45h.01ZM343.26,118.39h.02c0-.4-.13-.86.03-1.18.26-.51.75-1.32,1.08-1.29.67.07,1.56.45,1.87.99.35.62.26,1.54.21,2.33-.07,1.18-.7,2.16-1.93,2.09-1.17-.06-1.25-1.18-1.27-2.14v-.8h0ZM343.63,132.71c-.1-2.7-.04-5.41-.04-8.44.67-.16,1.62-.21,2.37-.62,1.04-.56,2.13-1.24,2.84-2.15,1.39-1.77,1.33-4.53.13-6.09-1.25-1.62-2.41-1.79-5.72-.64,0-3.77.27-7.45-.08-11.07-.35-3.6-1.21-7.17-2.05-10.7-.51-2.15-1.79-3.93-3.56-5.33-3.72-2.94-7.35-6.01-11.19-8.78-2.17-1.57-4.67-2.67-6.97-4.45,1.83.3,3.68.55,5.5.9,7.34,1.41,14.6,1.06,21.61-1.49,2.34-.85,4.37-2.56,6.95-4.13,2.05,2.92,4.38,6.16,6.11,9.77.42.88.46,2.15.19,3.1-.43,1.54-1.17,3.02-1.96,4.42-1.19,2.11-1.41,4.11.35,5.97,2.05,2.15,2.88,4.88,3.7,7.6,2.18,7.27,2.34,14.76,1.63,22.19-.54,5.68-4.04,9.8-9.11,12.41-.86.44-2.07.38-3.1.29-2.01-.18-4-.64-6.01-.82-1.32-.11-1.59-1.04-1.62-1.94h.03ZM223.58,85.34c-1.43.62-3.14,1.04-4.67.91-5.74-.51-11.44-1.41-16.74-3.88-.27-.13-.45-.45-.66-.71,5.1.51,10.09,1.51,15.04,2.87,3.84,1.06,6.05-.51,6.72-4.47-.73.31-1.44.68-2.2.93-2.13.7-4.11,1.62-6.59.84-3.57-1.13-7.3-1.76-11.85-2.8,5.75-1.67,10.67-1.53,15.58-1.51,2.1,0,4.03.4,5.24,2.38,1.37.61,2.16.1,2.36-1.54,1.08,3.2.34,5.89-2.23,7.01v-.03ZM194.81,76.11c7.51-2.52,14.6-6.36,22.61-7.29,1.32-.15,2.71-.09,4,.18.66.14,1.72.94,1.7,1.42-.08,2.8,1.84,4.74,2.72,7.11.08.23,0,.53-.03.79-.44-.27-.95-.47-1.3-.83-3.88-4-8.63-3.87-13.52-2.83-5.65,1.19-11.26,2.51-17.65,3.94.68-1.21.92-2.31,1.47-2.5h0ZM185.26,77.18c.27-1.15.8-2.24,1.39-3.83,1.34.65,2.25,1.33,3.25,1.51,1.69.32,1.78,1.38,1.65,2.68-.13,1.37-.78,2.26-2.28,2.3-.54.02-1.08.12-1.61.11-1.96-.04-2.81-.96-2.39-2.77h0ZM155.05,53.28c2.21-.89,4.2.43,5.78,2.08,1.38,1.45,2.73,2.93,4.09,4.4,4.04,4.36,9.43,6.7,14.44,9.6,1.61.93,3.17,1.93,5.42,3.31-1.35.35-2.09.8-2.64.64-1.15-.34-2.27-.9-3.28-1.56-5.65-3.71-11.27-7.48-16.91-11.21-1.58-1.04-3.1-2.26-4.82-2.97-3.78-1.56-6.94-.38-9.51,2.61.7-4.14,4.15-5.58,7.42-6.9h.01ZM148.37,63.65c3.11-3.97,5.26-4.37,9.17-1.75,4.72,3.16,9.41,6.39,14.21,9.41,2.5,1.58,5.23,2.79,8.74,4.63-1.9-.16-2.93-.28-3.96-.31-2.55-.08-5.15-.46-7.64-.09-5.75.87-11.03-.42-16.1-2.86-2.71-1.3-3.85-4.05-3.21-7.49.25-1.31-.54-1.26-1.23-1.54h.02ZM147.44,60.49c-.27.77-.56,1.56-1,2.8-.52-1.75.08-2.37,1-2.8ZM169.49,78.36c-5.43.16-10.86.11-16.29-.03-5.29-.13-7.96-2.89-8.11-8.09-.06-2.03,0-4.06,0-5.96.96.08,1.71.13,2.45.19-.15,1.31-.53,2.65-.38,3.92.43,3.65,2.35,6.19,5.91,7.55,5.65,2.15,11.43,1.77,17.26,1.23,2.8-.26,5.61-.44,8.41-.66.02.27.05.55.07.82-3.1.36-6.19.93-9.3,1.02h-.02ZM177.24,79.55c-.02.07-.02.17-.07.21-.02.02-.06.03-.08.05.05-.09.1-.17.15-.26h0ZM134.17,152.36c-2.75-2.36-5.45-1.13-8.19.13.42-3.28.88-6.29,1.17-9.31.23-2.4-.37-4.61-2.29-6.22-1.29-1.09-1.01-2.29-.68-3.67,1.08-4.58,2.34-9.14,3.03-13.78.65-4.39.69-8.87.96-13.31.07-1.05,0-2.12,0-3.29,3.17,1.58,3.97,3.21,3.66,6.49-.31,3.22-.57,6.46-.64,9.69-.1,4.68,1.38,8.82,4.97,11.95,1.27,1.11,1.76,2.19,1.42,3.86-1.17,5.67-2.23,11.37-3.42,17.45h0ZM142.63,163.63c0,.92-.66,2.03-1.34,2.74-.91.96-2.14,1.63-3.73,2.79-.94-4.11-.82-7.78-.38-11.35.58-4.69,1.68-9.32,2.47-13.98.21-1.27.07-2.61.15-3.91.04-.65.14-1.31.35-1.92,2.92-8.41,5.23-17.11,10.22-24.63,2.69-4.06,5.78-7.86,8.84-11.66,6.49-8.06,14.17-14.93,21.86-21.94,1.3,1.44,2.45,2.7,3.66,4.05-2.37,2.45-4.83,4.98-7.27,7.53-6.39,6.66-12.94,13.18-19.11,20.05-4.62,5.14-8.34,10.95-10.8,17.53-1.91,5.11-2.89,10.3-3.4,15.72-.59,6.32-1.61,12.6-1.52,18.98ZM169.84,179.35c-3.79-3.71-7.66-4.13-12.2-1.47-.69.41-1.36.87-2.29,1.47-.46-2.38-.77-4.57-1.32-6.7-1.29-5.01-3.64-9.36-8.26-12.09-1.22-.72-1.72-1.6-1.57-2.97.38-3.36.69-6.73,1.12-10.08.19-1.45.6-2.87.94-4.41.35.32.74.53.92.86,2.52,4.75,8.64,5.79,13.65,3.83,3.23-1.26,6.17-3.34,9.14-5.2,1.49-.93,2.88-2.07,4.11-3.32,2.49-2.51,4.85-3.47,8.02-.85,2,1.65,4.58,1.52,6.94.33,1.09-.55,2.2-1.09,3.17-1.81,4.96-3.65,9.17-8.06,12.73-13.07,2.63-3.7,2.63-7.95,1.89-12.14-.51-2.9-1.61-5.69-3.02-8.55-.11.52-.31,1.05-.3,1.57.05,3.66.34,7.33.13,10.96-.1,1.66-.89,3.45-1.85,4.85-3.33,4.82-7.32,9.08-11.89,12.76-2.42,1.95-4.81,2.72-7.69.54-2.43-1.83-5.19-1.43-7.58.32-2.07,1.52-3.97,3.29-5.95,4.94-3.23,2.71-6.63,5.01-10.75,6.36-6.4,2.1-11.52-5.11-10.08-9.87,2.52-8.32,6.32-15.81,12.39-22.09,5.37-5.57,10.75-11.13,16-16.83,2.94-3.19,5.63-6.6,8.37-9.96,1.05-1.28,2.04-2.47,3.82-2.82,1.65-.32,2.88-1.33,3.87-2.75,1.28-1.83,4.02-2.4,5.99-1.37.27.14.37.59.53.93h-2.73c.16.49.17.85.31.91,3.53,1.49,5.54,4.37,7.69,7.41,4.54,6.44,10.25,11.94,16.08,17.2,2.42,2.18,4.31,4.54,5.22,7.48,2.76,8.87,5.42,17.78,7.8,26.76,3.24,12.23,4.48,24.72,4.2,37.38-.14,6.36-.02,12.72-.02,19.62-3.81-3.03-4.36-6.88-4.77-10.54-.34-3.05.27-6.2.33-9.31.13-6.92.34-13.84.19-20.75-.06-2.79-1.03-5.55-1.52-8.33-.91-5.18-1.83-10.35-2.62-15.55-.87-5.72-3.58-10.74-6.13-15.76-2.19-4.31-4.94-8.35-7.64-12.37-.95-1.41-2.35-2.71-3.84-3.51-3.33-1.78-5.8-4.38-8.14-7.24-2.49-3.04-5.11-5.98-7.75-8.88-.56-.61-1.47-.89-2.76-.86.3.65.51,1.35.91,1.93,1.62,2.34,3.35,4.6,4.93,6.97.79,1.19,1.36,2.53,2.03,3.81.57.5,1.26.92,1.67,1.52,1.47,2.19,3.37,3.8,5.65,5.15,1.58.94,3.11,2.29,4.12,3.82,6.54,9.87,12.13,20.23,15.18,31.78.17.64.17,1.33.31,2.49-1.18-.13-2.22-.06-3.13-.39-4.58-1.66-7.93-4.86-9.8-9.23-1.73-4.03-2.81-8.35-4.2-12.59-1.38,1.09-.87,2.9-.69,4.34.61,4.87,1.99,9.51,4.82,13.64,2.65,3.86,6.16,6.53,10.68,7.59,2.7.63,3.97,1.85,4.33,4.73.92,7.54,1.77,15,.55,22.64-.65,4.09-1.12,8.31-.4,12.54.48,2.79,0,5.22-2.89,6.89-1.8,1.03-3.13,2.88-4.69,4.38-1.21-1.85-2.31-3.72-3.58-5.47-2.47-3.39-5.8-5.7-9.77-6.97-5.78-1.85-11.02.89-12.87,6.64-.2.63-.21,1.32-.37,2.46-1.01-1.45-1.74-2.63-2.59-3.71-2.62-3.31-5.45-5.18-10.66-2.93-1.12.49-2.29.87-3.37,1.42-1.52.78-2.59.31-3.47-1-.83-1.24-1.6-2.52-2.49-3.72-.96-1.31-1.9-2.67-3.05-3.79l-.04.03ZM176.27,191.89l-.19.49c-.46-.21-.91-.42-1.37-.64.52.05,1.04.1,1.56.15ZM160.46,191.21c-2.58,1.27-4.97,2.43-8.24,4.04,2.23-3.6,4.44-5.3,8.24-4.04ZM143.07,200.62c3.8,0,7.02-1.67,10.33-3.21,2.56-1.19,5.14-2.4,7.82-3.24,3.97-1.25,7.93-1.14,11.84.62,1.56.7,3.42.73,5.1,1.22,4.35,1.26,5.65,3.32,4.99,7.82-.14.93-.43,1.84-.79,3.29-3.98-6.5-9.6-8.08-16.32-7.17-5.48.74-10.94,1.31-16.18,3.41-3.19,1.28-6.73,1.97-10.28.91.69-3.58.69-3.65,3.48-3.65h0ZM142.73,275.02c.54,4.67,1.81,9.25,2.77,13.87.3,1.45.98,2.9.94,4.34-.11,4.13,1.83,7.55,3.48,11.07,1.49,3.18,3.02,6.36,4.76,9.41.91,1.59.95,2.94.26,4.55-.74,1.72-1.26,3.54-2.14,6.06-.81-2.19-1.39-3.64-1.88-5.13-1.98-6.02-4.01-12.02-5.86-18.08-1.84-6.05-3.59-12.14-5.18-18.26-1.48-5.7-1.45-11.41-.06-17.21,1.8-7.5,3.26-15.11,2.73-22.89-.35-5.12-.3-10.45-1.81-15.26-1.86-5.95-2.08-12.25-4.43-18.03-.03-.07.13-.21.32-.48,2.39.65,4.1,1.65,4.62,4.6,1.28,7.16,3.21,14.2,4.34,21.38.82,5.19.94,10.52,1,15.79.03,2.23-.8,4.5-1.4,6.7-1.56,5.76-3.18,11.58-2.48,17.57h.02ZM98.57,237.18c-1.28-.2-2.57-.9-3.64-1.66-2.18-1.54-2.28-2.3-1.11-4.79.17-.37.42-.7.57-1.08,2.54-6.48,7.28-10.53,13.76-12.81,3.44-1.21,6.78-2.71,10.17-4.08,3.41-1.38,6.97-.56,10.46-.56.7,0,1.44,1.08,2.09,1.73,1.62,1.61,3.27,3.2,4.76,4.92.75.87,1.49,1.97,1.68,3.06.79,4.66,1.38,9.35,2.03,14.03.07.53,0,1.09.03,1.63.36,8.71-.15,17.32-2.41,25.79-.66,2.46-.83,5.06-1.22,7.6-1.9-1.73-.87-4.23-1.38-6.48-1.87,2.53-2.24,6.58-.49,9.12,1.14,1.66,1.67,3.36,1.87,5.24.46,4.34,1.69,8.47,3.25,12.53.28.73.33,1.56.49,2.33-8.71,2.56-15.21-.72-17.99-9.09-.89-2.69-1.43-5.5-2.26-8.21-1.42-4.67-3.21-5.94-7.97-5.72-1.48.07-2.96.45-4.44.46-1.73.01-3.51-.02-5.18-.39-3.03-.67-4.49-2.74-4.69-5.84-.23-3.58.27-7.04,1.45-10.4.94-2.68,2-5.32,3.03-7.97.29-.76.69-1.48.97-2.24,1.47-4.08,1.47-6.28-3.79-7.11h-.04ZM126.65,208.9c1.14-.69,2.25-1.45,3.43-2.07,1.87-.98,3.55-.4,4.13,1.6.54,1.89.73,3.89,1.19,6.44-2.96-2.49-4.27-6.51-8.74-5.97h-.01ZM141.12,208.03c-1.37-.74-3.07-.84-5.24-1.4,1.23-.45,2-.96,2.78-.98,2.93-.09,5.76.64,7.88,2.65,5.26,5.01,11.88,6.88,18.65,8.33,5.22,1.12,10.03.26,13.42-4.43.42-.58.52-1.39,1.07-2.96-1.25.63-1.69.73-1.94,1-4.4,4.9-9.85,4.91-15.72,3.64-5.29-1.14-9.78-3.75-14.1-6.99,7.31-2.55,14.81-3.53,22.45-3.91,3.1-.15,5.45,1.38,7.89,2.77.7.4,1.07,1.5,1.44,2.34.43.97.59,2.05,1.03,3.02.93,2.04.37,4.38-1.57,5.42-1.05.57-2.26,1.03-3.44,1.14-4.04.38-8.1.65-12.15.84-3.19.15-6.04-.87-8.78-2.59-4.46-2.79-9.03-5.4-13.66-7.9h0ZM139.59,188.27c1.54,2.72,3.19,5.61,1.42,8.95-5.5-2.52-6.95-7.34-8.18-12.73,3.37-.25,5.42,1.41,6.75,3.78h.01ZM104.23,186.01c-1.36-.59-2.84-1-4.09-1.76-2.45-1.49-3.87-3.66-3.98-6.66-.16-4.54.32-8.9,2.62-12.95.72-1.27,1-2.79,1.53-4.18.93-2.44,3.64-4.16,6.11-3.42,3.74,1.12,7.41,2.51,11.01,4.03,3.1,1.31,5.36,3.69,6.71,6.79,1.35,3.1,2.59,6.25,3.81,9.4,2.37,6.12,4.69,12.26,7.07,18.38.19.48.57.95.97,1.28.93.77,2.3,1.44,1.68,2.88-.57,1.32-1.45,2.59-2.45,3.63-.89.93-2.17.31-2.29-1.04-.13-1.46-.36-2.98,1.04-4.14.28-.23.37-1.27.18-1.4-.44-.3-1.31-.55-1.64-.32-1.18.84-1.43-.14-1.68-.79-.84-2.13-1.7-4.27-2.35-6.47-1.06-3.6-3.19-6.53-5.44-9.43-2.07-2.67-3.97-5.47-5.94-8.21-1.69-2.35-3.45-4.43-6.76-4.61-1.54-.08-3.01-1.15-4.55-1.64-3.17-1.02-6.08.6-7.38,4.2,1.54-.57,2.95-1.1,5.02-1.87-2.08,3.28-2.89,6.16-3.36,9.22-.38,2.47.41,4.37,2.3,5.65,1.77,1.19,3.75,2.19,5.77,2.86,3.48,1.15,6.86,2.41,10.09,4.19,2.23,1.22,4.78,1.85,7.15,2.86,3.67,1.56,5.11,4.3,4.61,9.54-3.28-2.78-6.02-5.16-8.82-7.44-1.35-1.1-2.74-2.27-4.29-3.01-4.15-1.97-8.4-3.73-12.62-5.56h-.03ZM127.02,191.33c-5.65-3.19-11.2-6.04-17.26-7.81-1.91-.56-3.75-1.47-5.47-2.49-2.09-1.23-2.85-3.17-2.09-5.57.65-2.05,1.28-4.11,1.93-6.17.36-1.12,1.12-1.4,2.22-1.07,1.8.54,3.73.8,5.38,1.62,1.25.62,2.29,1.82,3.19,2.96,2.34,2.96,4.47,6.09,6.85,9.03,2.29,2.83,4.28,5.78,5.26,9.51h-.01ZM109.69,191.79c6.07,2.37,10.3,4.94,16.72,10.27-.93.41-1.65.89-2.43,1.04-3.17.62-6.39.98-9.51,1.77-1.58.4-2.47.05-3.48-1.07-3.39-3.75-3.91-8.15-1.3-12.01ZM71.08,270.04c-1.35,7.98-3.13,15.41-6.37,22.57-4.31-5.23-1.44-18.28,6.37-22.57ZM65.47,311.64c-2.06,5.15-3.99,10.35-5.9,15.55-.45,1.23-.61,2.57-.9,3.86-2.35-2.9-4.7-5.79-7.36-9.07,1.79-2.63,3.52-5.53,5.6-8.17,2.47-3.13,4.38-6.49,5.77-10.22.94-2.53,2.08-4.99,3.23-7.44,2.82-6.02,4.94-12.21,5.93-18.83.84-5.59,1.88-11.18,3.36-16.63,1.74-6.37,4.16-12.56,6.1-18.89,2.36-7.71,6.47-14.59,10.59-21.37,1.82-3,5.01-5.36,7.97-7.43,2.57-1.8,5.64-2.99,8.62-4.12,5.92-2.24,12.12-3.58,18.28-4.99,1.1-.25,2.32-.04,3.69-.04-.65,2.16-2.27,2.48-3.51,3.14-5.72,3.07-11.82,5.25-17.89,7.5-1.77.66-3.61,1.17-5.29,2.01-3.83,1.92-7.06,4.53-9.08,8.44-1.3,2.52-2.91,4.89-4.12,7.45-.85,1.81-1.25,3.83-1.86,5.75-2.17,6.82-4.3,13.65-6.56,20.44-.81,2.43-2.07,4.7-2.95,7.1-1.72,4.67-3.28,9.4-4.97,14.08-1.2,3.34-1.58,6.81-2.02,10.3-.97,7.57-3.91,14.55-6.72,21.56v.02ZM116.12,331.02c-7.89-.66-15.06-3.21-20.68-9.16-3.41-3.61-5.44-7.73-5.09-12.82.02-.27.05-.54.05-.81-.04-2.73-.55-3.21-3.41-3.21-2.17,0-4.39.3-6.5-.07-2.49-.44-4.9-1.4-7.29-2.28-1.12-.41-1.53-1.23-1.09-2.6,1.61-5.03,2.55-10.21,2.95-15.49.08-1.03.57-2.03,1.06-3.66,1.79,3.38,3.3,6.22,5.05,9.52.58-3.26-.53-5.78-1.69-7.98-3.16-6.02-2.27-4.28.02-10.95.18-.51.41-1,.62-1.5,1.18-2.74,2.24-3.2,4.36-1.3,1.45,1.3,2.85,3.08,3.4,4.9,1.15,3.87,1.83,7.89,2.5,11.88.68,4,1.06,8.05,1.69,12.06.21,1.32.61,2.66,1.18,3.87,2.06,4.43,5.34,7.05,10.48,6.92,2.69-.07,5.3-.32,8.56-1.88-1.35-.07-1.9-.16-2.44-.12-.94.06-1.88.26-2.82.28-5.69.12-9.42-2.6-10.6-8.06-.8-3.7-1.14-7.5-1.84-11.22-.86-4.51-1.66-9.05-2.91-13.46-1.29-4.55-4.17-7.87-9.3-9.12,2.77-8.93,5.51-17.75,8.3-26.72,2.54,1.42,4.76,2.66,6.92,3.87-1.74,4.75-3.7,9.37-5.1,14.16-.86,2.94-1.22,6.13-1.2,9.2.03,5.8,3.6,10.2,9.25,11.29,3.14.6,6.45.49,9.68.48,2.33,0,2.47-.06,3.06,2.1,1.14,4.16,2.27,8.31,3.43,12.57-1.18-.41-2.59-1.11-4.08-1.36-1.44-.24-2.99-.18-4.45.03-1.58.23-2.97.98-4.23,3.25,1.36-.37,1.91-.55,2.48-.68,4.92-1.05,8.28.25,10.51,4.74,1.79,3.62,3.04,7.52,4.45,11.32.94,2.54,1.61,5.18,2.65,7.67,2.11,5.08,4.97,9.59,11.18,12.15-6.95,1.98-12.99,2.7-19.09,2.19h-.02ZM130.57,319.36c-1.26-2.23-2.43-4.54-3.4-6.91-2.14-5.22-4.12-10.49-6.35-16.21,5.33,4.73,11.4,5.21,17.72,4.8,3.22-.21,3.16-.12,4.05,3,1.04,3.63,2.1,7.27,3.37,10.82.5,1.41.58,2.5-.25,3.77-.73,1.12-1.27,2.39-1.8,3.63-.1.24.17.83.42.95.25.12.85-.01,1.02-.24.7-.98,1.29-2.03,2.28-3.66,1.14,1.99,2,3.48,2.96,5.15-1.9,1.48-4.21,1.39-6.19,1.51-5.71.33-10.78-1.24-13.83-6.61h0ZM231.39,362.72c-6.81,2.41-13.73,4.21-21.08,3.46-2.51-.26-4.72-1.15-6.72-2.62-2.22-1.63-3.5-3.81-3.29-6.59.09-1.21.09-2.21-1.07-2.76-1.25-.59-2.04.23-2.68,1.17-2.98,4.37-7.46,5.04-12.19,4.69-4.92-.37-9.03-2.58-12.5-6.12-2.19-2.23-2.43-2.17-5.14-.33-7.77,5.29-14.28,4.19-19.89-.15-2.43-1.88-4.04-4.41-5.33-7.12-2.25-4.72-3.26-9.72-3.04-14.98.06-1.35.54-1.8,1.89-2.01,3.33-.51,6.62-1.26,10.1-1.95-.03-.03.3.16.3.34,0,1.25-.14,2.73,1.42,2.96,1.59.24,1.72-1.28,2.17-2.43.56-1.45.56-3.29,2.4-4.03.18-.07.31-.73.21-1.02-.96-2.66.96-4.55,1.69-7.39,1.77,1.41,3.43,2.37,4.63,3.74,3.23,3.66,6.26,7.5,9.39,11.25,1.04,1.25,2.08,2.51,3.21,3.68,4.74,4.91,11.22,6.56,17.86,3.34,3.13-1.52,6.06-3.44,8.75-5.9-.84.25-1.7.45-2.52.76-2.15.81-4.26,1.74-6.43,2.49-5.11,1.76-9.67.73-13.42-3.14-2.73-2.83-5.23-5.88-7.86-8.82-1.9-2.12-3.77-4.28-5.78-6.3-2.32-2.32-4.92-4.25-8.3-4.83-1.43-.25-2.25-1.09-2.82-2.54-1.38-3.49-3.05-6.87-4.88-10.89,1.58.25,2.47.34,3.33.54.52.12,1.01.4,1.49.65,8.97,4.47,15.73,3.87,25.19-4.48,4.57-4.03,7.6-9.19,10.15-14.62,3.51-7.5,5.94-15.38,8.09-23.36.13-.49.02-1.04.02-2.45-.77,1.39-1.19,2-1.47,2.67-3.92,9.28-8.6,18.15-14.74,26.15-2.38,3.1-5.26,5.86-8.17,8.49-2.32,2.09-5.09,3.8-8.36,3.77-1.97-.02-4.11-.33-5.87-1.16-2.86-1.35-5.72-2.48-8.87-2.74-1.21-.1-1.86-.4-2.29-1.72-2.25-7.03-3.83-14.16-2.98-21.57.35-3.06,1.13-6.13,2.13-9.06,2.06-6.06,2.48-12.13,1.25-18.41-.76-3.84-.99-7.78-1.76-11.62-.53-2.62-1.69-5.1-2.37-7.7-.74-2.84-1.25-5.73-2-9.29,2.17,1,3.83,1.7,5.44,2.51,2.77,1.4,5.43,3.04,8.28,4.23,1.95.82,4.14,1.47,6.22,1.47,4.59.02,9.21-.17,13.76-.74,3.94-.49,6.27-2.94,7.51-6.94,1.41-4.53,1.39-9.06,1.45-13.66.02-1.66-.69-2.95-2-3.79-1.86-1.2-3.84-2.21-5.95-3.4,2.2-.95,4.39-1.94,6.6-2.85,1.81-.74,3.56-.45,4.9.93,2.17,2.22,4.2,4.58,6.29,6.89.61.68,1.21,1.37,2.08,2.35-.26-2.26-.68-4.09-.65-5.92.1-6.05,5.37-9.46,11.05-7.26,4.84,1.87,7.98,5.47,10.19,10.01.47.97.76,2.03,1.2,3.01,1.15,2.52,2.75,2.68,4.58.52,1.48-1.76,2.96-3.52,4.48-5.24.44-.5,1.05-.85,1.74-1.39,3.09,3.55,4.59,8.29,8.62,11.48,1.35-2.2.17-4.47,1.09-6.69.48.87.86,1.56,1.23,2.24,1.98,3.61,3.67,3.93,6.63,1.19,1-.92,1.87-1.98,2.92-2.84,1.25-1.03,2.54-2.08,3.96-2.83,2.52-1.32,4.7-.78,6.42,1.54,1.27,1.71,2.36,3.56,3.92,5.95.16-1.22.41-1.82.28-2.33-.44-1.7-.9-3.41-1.58-5.03-1.65-3.95-4.92-5.56-8.9-3.99-2.34.92-4.42,2.54-6.51,4-1.18.83-2.14,1.98-3.24,3.02-1.58-2.49-3.08-4.59-4.27-6.86-.53-1-.58-2.33-.59-3.52,0-5.98.14-11.96.07-17.93-.04-3.11-.47-6.21-.66-9.31-.08-1.32,0-2.65,0-4.18,8.09,2.19,15.26-.08,22.15-3.44,3.64-1.78,7.06-4.04,10.51-6.2,2.36-1.48,4.65-2.42,7.61-1.8,3.99.83,7.75-.49,11.42-2.54,3.38,6.42,2.11,13.46,3.85,20.55,2.59-2.56,5.03-4.62,7.03-7.05,1.79-2.18,2.14-4.91,1.28-7.71-1.03-3.36-1.89-6.78-3.07-10.09-.62-1.73-.61-3.01.62-4.47,3.46-4.08,4.88-8.99,5.43-14.21.26-2.45,1.03-4.63,3.09-6.16-.26,3.43-.72,6.86-.73,10.29-.01,6.7,3.79,10.79,9.49,11.74,1.7.28,3.47.64,4.64,2.18,2.08,2.73,4.92,3.05,8.02,2.44.53-.1,1.03-.36,1.56-.44,1.78-.27,2.11,0,2.29,1.81.28,2.81.53,5.63.88,8.44.13,1.06.36,2.16.81,3.11,2.74,5.86,5.15,7.22,11.03,5.39.38-.12.79-.15,1.18-.23.43-1.45.47-2.76-.26-4.24-2.1-4.26-3.38-8.81-3.91-13.54-.2-1.75.46-2.51,2.08-2.3.93.12,1.88.33,2.75.66,3.45,1.34,6.44.14,9.11-1.85,2.37-1.77,4.47-3.89,6.94-6.07.86,5.15,2.31,9.95,5.51,14.02.24.31.56.75.49,1.07-.71,3.43,1,7.34-2.12,10.48-6.77-2.35-13.41-1.66-19.8,1.76-.21.11-.53.02-.79.02-.2.33-.32.76-.6.98-4.39,3.48-7.43,7.85-8.65,13.18-2.49-.46-4.83-1.16-7.19-1.28-4.9-.25-7.86,1.78-9.84,6.33-.38.86-.5,1.86-.98,2.65-.27.44-1.03.73-1.6.78-.48.04-.98-.42-1.5-.56-6.45-1.76-12.47.63-16.03,6.45-.84,1.38-1.46,2.89-2.09,4.18-3.4-1.65-6.79-3.61-10.41-4.95-2.61-.97-5.51-1.49-8.29-1.55-6.21-.14-11,3.81-12.58,10.07-.61,2.4-1.76,4.94.22,7.22.42-2.25.58-4.58,1.29-6.72,1.69-5.05,4.83-9.01,12.29-8.22,5.93.62,11.16,2.92,15.75,7.33-.76.82-1.43,1.45-1.98,2.16-3.19,4.09-3.08,8.57-1.2,13.07.77,1.84,2.04,3.49,3.25,5.11,1.13,1.51,2.46,2.87,4.06,4.72-1.82.88-3.29,1.77-4.88,2.31-2.4.8-3.98-.24-4.41-2.73-.28-1.59-.37-3.22-.64-4.81-.28-1.65-1.19-2.62-2.99-2.78-1.34-.12-2.67-.45-3.98-.79-2.87-.74-4.77-3.12-4.72-5.82.07-3.6,1.69-4.94,5.34-4.41-1.29-2.23-2.96-2.58-4.92-1.03-3.54,2.79-3.71,8.48-.15,11.4,1.31,1.07,3.01,1.91,4.66,2.29,4.26.99,4.98.68,4.89,5.75-.01.66.12,1.36.32,1.99.82,2.51,2.51,3.71,5.17,3.76,2.41.04,4.54-.86,6.41-2.25,1.45-1.08,2.65-1.02,4,.06.84.67,1.79,1.2,2.99,1.99-.77.6-1.39,1.23-2.12,1.63-4.05,2.19-8.03,4.54-12.23,6.4-2.16.96-4.71,1.29-7.1,1.39-2.78.11-5.3-1.01-7.27-3.11-1.11-1.19-2.21-2.4-3.37-3.55-2.18-2.15-3.8-2.42-6.6-1.11-.86.4-1.64.95-2.47,1.42-5.8,3.29-11.75,6.11-18.41,7.3-6.01,1.08-12.73-.5-15.33-8.05-.09-.26-.16-.52-.27-.77-1.86-4.08-1.88-4.05-5.95-2.82-1.93.58-3.9,1.18-5.89,1.39-2.27.23-3.2-.76-2.56-2.85.47-1.54.15-2.47-.72-3.67-1.91-2.64-1.62-6.2.65-8.52.58-.6,1.61-.76,2.43-1.12.28.71.55,1.42.86,2.11.14.31.38.56.83,1.2.51-1.99,1-3.55-.75-4.67-1.21-.77-3.05-.34-4.47.89-3.07,2.67-3.94,6.61-2.44,10.33.48,1.2.77,2.55.82,3.84.12,3.71,1.52,4.93,5.4,4.45.51-.06,1.02-.12,2.46-.28-8.37,4.88-16.2,8.14-25.23,7.45-6.42-.49-11.49-2.96-14.09-9.21-.95-2.28-2.46-3.49-5-3.27-.94.08-1.93-.11-2.84.08-8.36,1.76-16.81,2.76-26.33,2.49,3.98,2.12,7.29,3.01,10.78,3.28,4.8.36,9.46-.41,14.04-1.77.78-.23,1.54-.52,2.32-.75,3.31-.96,3.37-.99,5.21,1.98,3.08,4.99,7.3,8.4,13.13,9.43,6.41,1.13,12.72.36,18.69-2.15,5.11-2.15,10.04-4.71,15.26-7.18.18.31.64.83.82,1.43,2.58,8.97,11.38,11.33,18.45,10.13,6.9-1.17,13.23-3.83,19.26-7.33,5.06-2.93,3.96-2.86,7.56,1.13,5.05,5.59,11.14,7.09,18.04,4.33,4.26-1.7,8.35-3.86,12.38-6.07,4.05-2.23,8.04-4.55,12.67-5.3,2.66-.43,5.36-.57,8.1-.84-2.05,2.36-4.71,3.86-7.44,5.28-10.03,5.23-19.17,11.83-27.99,18.83-5.62,4.46-10.87,9.42-16.18,14.26-3.16,2.88-5.38,6.38-6.62,10.55-.57,1.91-1.67,3.71-2.75,5.41-4.29,6.75-8.67,13.45-13.02,20.16-.21.33-.54.59-.85.92-2.4-.34-3.83-1.96-4.97-3.83-.91-1.5-1.6-3.14-2.35-4.73-.58-1.23-1.06-2.49-1.63-3.72-2.5-5.37-5.97-8.86-14.89-7.6-.13.02-.26.07-.4.09-7.17.88-9.08-1.38-9.23-7.82-.1-4.16.79-8.34,1.08-12.52.34-4.84,1.55-9.67.31-14.53-.33-1.3-.72-2.63-1.36-3.8-2.25-4.11-9.42-4-10.67.98.43-.12.87-.1.99-.29,1.4-2.07,3.51-2.14,5.46-1.5,2.13.69,3.01,2.7,3.09,4.85.1,2.85.17,5.72-.11,8.55-.38,3.89-1.2,7.74-1.64,11.64-.37,3.22-.73,6.48-.62,9.7.19,5.57,3.78,8.94,9.38,9.2,2.03.09,4.08.12,6.11-.03,3.83-.29,6.13,1.53,7.46,4.97.98,2.53,2.04,5.02,3.15,7.5,1.6,3.56,3.82,6.57,7.81,8.24-.35.78-.62,1.5-.98,2.16-6.27,11.49-10.26,23.82-13.4,36.46-.07.26-.07.54-.13.8-1.11,4.41-1.86,4.95-6.08,3.06-2.29-1.03-4.47-2.64-6.25-4.43-3.06-3.07-5.66-6.59-8.67-9.72-2.14-2.23-4.42-4.45-7.01-6.1-4.95-3.18-11.99-2-15.73,4.28-.05.08.04.25.11.59,1.28.56,1.75-.72,2.49-1.29,4.39-3.4,8.8-3.35,12.85.4,1.98,1.84,3.73,3.94,5.47,6.02,1.83,2.18,3.53,4.48,5.29,6.71,3.45,4.38,7.39,7.96,13.35,8.37,1.48.1,2.13.96,1.88,2.49-.33,2-.51,4.03-.98,5.99-.15.63-.95,1.34-1.6,1.58h.05ZM303.07,197.68c-2.5,3.71-1.34,7.3.48,10.75,2.07,3.91,4.9,7.43,9.25,8.6,3.17.85,6.8,1.07,10.01.45,4.96-.96,9.87-1.56,14.9-1.5.92,0,1.85-.48,2.77-.45.44.02,1.09.66,1.21,1.13.11.47-.21,1.44-.55,1.55-1.79.58-3.66.92-5.48,1.41-4.84,1.3-9.68,2.53-14.77,2.2-1.05-.07-2.14.24-3.19.46-4.4.93-8.31.22-11.58-3.12-1.79-1.84-3.85-3.43-5.53-5.36-1.22-1.4-2.3-3.06-2.97-4.78-2.35-6-.38-10.43,5.59-12.39-.01.37.05.79-.13,1.05h-.01ZM341.24,214.44c-.92.17-1.93.22-2.83.02-5.03-1.1-9.9,0-14.85.68-3.18.45-6.76.84-9.66-.16-3.87-1.34-7.59-3.73-8.54-8.46-.31-1.56-.68-3.1-1.11-5.01,3.78,0,7.27-.12,10.75.07,1.12.06,2.27.81,3.29,1.45,2.52,1.58,4.99,3.24,7.44,4.94,2.23,1.55,4.68,2.45,7.18,3.25.21-.28.42-.56.62-.84-.47-.23-.98-.41-1.4-.7-3.66-2.55-7.35-5.07-10.94-7.72-3.36-2.48-7.11-3.1-11.14-2.76-1.19.1-2.43-.03-3.55.3-2.04.6-2.48,0-1.96-1.93.05-.2-.73-.63-1.22-.98,2.7-2.02,5.47-1.22,8.38-.45,6.67,1.77,12.37,5.36,17.96,9.18,3.8,2.6,7.51,5.33,11.96,6.77.5.16.82.87,1.22,1.33-.53.35-1.02.91-1.6,1.02h0ZM341.58,224.79c-11.38,7.86-22.72,15.76-33.97,23.8-6.84,4.88-13.58,9.92-20.19,15.1-4.49,3.51-8.52,7.52-11.49,12.52-2.89,4.87-6.24,9.44-8.52,14.71-1.37,3.16-3.77,5.88-5.7,8.81-3.5,5.3-7.58,10.31-10.35,15.96-3.14,6.39-5.38,13.26-7.5,20.08-1.7,5.51-2.65,11.25-3.89,16.9-.2.92-.2,1.88-.25,2.82-.29,5.13-.52,10.27-.89,15.4-.05.66-.6,1.47-1.16,1.86-1.22.84-2.59,1.45-4.3,2.37.72-5.2,1.37-10.07,2.09-14.93.66-4.53,1.02-9.15,2.18-13.55,1.61-6.07,3.7-12.03,5.84-17.95,3.08-8.54,6.99-16.66,11.65-24.49,4.57-7.69,9.24-15.29,14.47-22.55,1.57-2.18,2.95-4.6,3.88-7.1,1.71-4.59,4.42-8.4,8.09-11.52,6.3-5.36,12.66-10.65,19.09-15.85,10.37-8.38,21.86-15.07,33.32-21.8,2.55-1.5,5.31-2.65,8.06-4.01,1.35,1.57,1.04,2.38-.46,3.42h0ZM350.27,223.06c-.3.77-1.31,1.9-1.82,1.81-.89-.15-2.08-.95-2.38-1.77-.69-1.87-.92-3.92-1.21-5.26.01-2.88.55-3.79,2.1-4.07,1.66-.3,3,.21,3.6,1.88.35.98.72,2.06.65,3.07-.09,1.47-.41,2.97-.94,4.33h0ZM351.49,208.12c-.62,1.09-.37,2.78-2.17,3.06-2.21.34-4.39,1.51-6.6-.14-3.02-2.25-6.11-4.41-9.16-6.59,3.91-2.38,7.66-4.67,11.36-6.93-1.87-2.02-1.94-2.1-4.05-.93-1.89,1.05-3.6,2.44-5.52,3.42-1.66.85-3.7,2.19-5.21,1.82-2.68-.65-5.23-2.2-7.53-3.82-1.26-.88-1.73-2.69-1.32-4.46.09-.42-.14-.91-.23-1.36-.47.36-1.13.63-1.37,1.11-.33.67-.36,1.49-.53,2.33-5.19-1.49-10.01-4.21-15.67-1.78.63-3.41,2.33-5.79,4.68-7.63,4.08-3.2,6.98-3.09,10.89-1.08,4.57,2.35,4.78,2.3,6.11-2.77.14-.52.14-1.08.31-1.59,1.58-4.7,5.86-6.64,10.38-4.56,1.32.61,2.45,1.65,3.67,2.49,1.72,1.18,3.14.63,3.6-1.41.09-.39.05-.81.09-1.22,1.36-12.12,12.36-18.21,23-15.66,1.18.28,2.31.8,3.5,1.02,2.14.4,3.67-.57,3.62-2.7-.07-3.08,1.14-6,.45-9.24-.47-2.24.99-4.69,2.65-6.56.89-1,2.09-1.3,3.34-.75,1.12.48,2.14,1.18,3.27,1.64,1.15.47.78-.54.92-1.04.25.05.55.04.72.19,5.73,4.96,10.24,10.76,12.38,18.18.47,1.65.63,3.23-.61,4.59-1.59,1.74-1.69,3.87-1.96,6.04-.35,2.8-.87,5.6-1.55,8.34-.67,2.68-.87,2.77-3.65,2.49-2.15-.22-4.27-.64-6.24-.94.93-1.41,2.02-2.77,2.75-4.3.44-.9.79-2.37.36-3.07-1.23-1.99-.9-4.17-1.3-6.25-.58-3.08-2.38-4.98-5.35-6.04-1.96-.7-3.47-.13-4.9.98-1.67,1.29-1.41,2.39.96,3.93-.14-.87-.58-1.83-.28-2.23.39-.51,1.36-.77,2.1-.8,2.66-.1,4.69,1.62,4.98,4.29.26,2.39,0,4.73,1.37,7.04.98,1.65-1.99,5.78-4.33,6.64-.88.32-1.82.6-2.75.69-3.08.31-5.81,1.47-8.05,3.54-1.66,1.53-3.26.93-5.15.75-2.4-.22-3.04-1.55-3.97-3.3-.92-1.74-2.23-3.41-3.75-4.66-1.77-1.46-4.09-1.16-5.42.62-2.2,2.94-3.09,6.33-2.15,10.13.21-.7.38-1.41.64-2.09.76-2,1.32-4.13,2.41-5.94,1.07-1.78,2.69-1.76,4-.09.9,1.14,1.68,2.53,2,3.92.67,2.87,1.88,4.73,5.19,4.27.18-.02.41.32.62.5-2.77,4.1-5.58,8.17-8.3,12.31-1.19,1.81-2.21,3.72-3.28,5.61h.03ZM352.77,212.67c-.28-.4-.7-1.08-.54-1.35,1.47-2.56,3.02-5.08,4.61-7.56.5-.78,1.37-1.35,1.77-2.17,2.84-5.74,7.52-9.79,12.29-13.82,3.39-2.86,7.5-3.08,11.46-3.16,3.15-.07,6.39.89,9.47,1.8,1.66.49,3.47,1.52,3.44,3.91-2.36-.87-4.55-1.74-6.78-2.46-.72-.23-1.63-.23-2.37-.02-3.11.89-6.27,1.7-9.27,2.9-7.66,3.07-13.23,8.72-18.06,15.21-1.61,2.16-3.29,4.27-4.99,6.36-.21.25-.96.45-1.02.37h-.01ZM354.34,217.69c-.96-1.72-.47-2.94.71-4.11,5.32-5.23,10.52-10.6,15.95-15.72,4.5-4.24,10.3-5.84,16.18-6.96,2.1-.4,4.22-.14,6.29,1,2.63,1.45,2.88,1.27,2.6,4.02-.29,2.8-.89,5.57-1.39,8.35-.64,3.61-2.56,6.15-6.1,7.46-1.64.61-3.17,1.54-4.75,2.3-2.84,1.36-5.74,2.26-8.98,2.07-1.85-.11-3.74.42-5.61.6-1.57.15-3.16.49-5.15-.39,2.45-2.4,5.29-1.65,7.66-2.5,5.08-1.81,10.26-3.33,15.28-5.28,1.38-.53,2.57-1.98,3.44-3.28,1.12-1.67,1.95-3.56,2.69-5.45,1-2.53.78-4.93-1.23-7.02-.85,3.13-1.52,6.1-2.49,8.97-.86,2.56-2.72,4.29-5.34,5.2-4.33,1.51-8.66,3.04-12.95,4.69-1.65.63-3.26,1.07-5.03,1.32-1.8.25-3.57,1.19-5.2,2.1-2.11,1.18-4.25,2.17-6.62,2.64h.04ZM376.41,232.79c-.07.18-.51.42-.53.39-.57-.59-1.14-1.2-1.63-1.86-.1-.13.08-.47.21-1.08.41.19.64.3.87.41.91.43,1.48,1.06,1.08,2.13h0ZM401.04,256.73c-.4.12-1.14-.03-1.37-.34-.79-1.09-1.19-2.3-.22-3.52.69.89,1.44,1.73,2.02,2.69.15.24-.18,1.1-.43,1.17ZM417.79,262.16c-2.62-3.26-5.62-6.32-8.87-8.94-7.07-5.7-14.37-11.09-20.77-17.6-2.93-2.98-6.29-5.55-9.62-8.09-1.35-1.03-3.13-1.95-4.77-2.07-4.89-.35-8.82-3.11-13.21-4.67-.76-.27-1.47-.66-2.39-1.09,1.56-1.67,3.34-1.49,5.11-.78,3.12,1.26,6.11,2.89,9.3,3.9,5.79,1.84,10.82,5,15.53,8.64,8.14,6.29,16.14,12.75,24.16,19.2,10.44,8.4,17.25,19.45,22.09,31.68,2.93,7.39,4.95,15.13,7.33,22.73.21.68.13,1.45.14,2.19-2.16-4.98-4.26-9.99-6.5-14.94-4.81-10.65-10.18-21-17.53-30.16Z"/>
  <path class="cls-1" d="M193.58,490.7c-.78,2.44-2.91,2.74-4.57,3.39-8.08,3.17-15.69,6.98-22.9,11.39-6.7,4.1-12.87,8.65-17.71,14.37-3.06,3.61-4.96,7.62-5.67,11.97-.54,3.3.44,6.49,2.01,9.5,3.08,5.9,8.29,10.32,14.39,14.02,10.76,6.54,22.98,10.35,35.75,12.96,11.94,2.45,24.05,3.98,36.37,4.26,6.13.14,12.28.66,18.39.48,23.93-.73,47.6-3.02,70.44-9.53,9.67-2.76,19.08-6.06,27.26-11.27,4.09-2.6,8.05-5.54,11.28-8.86,9.07-9.35,10.85-21.1,2.49-32.11-6.06-7.98-14.29-14.04-24.13-18.42-7.1-3.16-14.63-5.64-21.97-8.43-.54-.21-1.07-.43-2.42-.98,1.31-.29,1.89-.59,2.3-.47,10.23,2.83,20.76,4.97,30.24,9.5,9.83,4.7,18.48,10.49,24.19,18.89,5.92,8.7,6.35,17.6,1.88,26.95-5.64,11.81-15.93,19.86-28.49,26.27-14.8,7.55-30.97,12.13-47.76,15.17-17.9,3.23-36.07,4.69-54.37,4.07-22.39-.75-44.29-3.77-64.99-11.39-9.99-3.68-19.11-8.45-26.73-15.14-7.16-6.29-10.56-13.89-11.16-22.39-.36-4.98,1.57-9.63,4.55-13.93,4.23-6.09,10.17-10.85,16.76-15.09,8.89-5.72,18.37-10.59,28.82-14.04,1.71-.56,3.6-.72,5.76-1.14h0Z"/>
  <path class="cls-1" d="M472.24,327.95c.25.46.5.7.46.88-1.06,5.02-1.88,10.11-3.32,15.01-1.6,5.44-5.34,9.73-8.98,13.93-1.94,2.23-4.38,4.02-6.54,6.07-1.28,1.21-2.42,2.57-3.69,3.79-2.73,2.63-5.37,5.39-8.29,7.8-5.12,4.23-11.31,5.83-17.77,6.13-5.33.25-9.67,2.41-13.55,5.78-4.61,4.01-9.11,8.14-13.75,12.11-3.94,3.37-8.13,6.4-13.49,7.06-1.6.2-3.29.45-4.84.18-3.56-.63-6.74.28-9.72,2.01-3.63,2.11-7.16,4.41-10.75,6.6-6.14,3.74-12.65,6.34-20.01,5.56-3.07-.32-6.1-1.12-9.12-1.83-1.58-.37-3.14-.88-4.62-1.53-4.83-2.09-9.5-1.56-14.12.67-4.52,2.18-9.04,4.34-13.57,6.49-5.87,2.77-12.01,4.34-18.52,3.59-3.2-.37-6.36-1.21-9.51-1.94-1.71-.4-3.38-.96-5.04-1.55-5.31-1.9-10.62-1.69-15.99-.24-5.74,1.56-11.5,3.06-17.27,4.53-6.73,1.72-13.18.52-19.45-2.04-2.26-.92-4.44-2.04-6.66-3.06-3.18-1.47-6.43-1.92-9.88-.91-3.11.92-6.28,1.64-9.44,2.4-6.98,1.68-13.98,2.27-20.76-.65-3.09-1.33-5.93-3.26-8.84-4.98-1.05-.62-2-1.4-2.98-2.14-3.48-2.65-7.35-3.79-11.78-3.68-3.5.08-7.05-.27-10.51-.84-5.81-.96-10.51-4.18-14.8-8.06-1.91-1.73-3.84-3.45-5.86-5.05-2.06-1.63-4.46-2.56-7.09-2.77-3.92-.32-7.84-.56-11.77-.85-5.28-.39-10.45-1.29-15.43-3.19-6.24-2.37-10.97-6.37-13.92-12.41-.77-1.58-1.64-3.12-2.32-4.75-1.45-3.45-4.15-4.85-7.7-4.91-3.8-.06-7.62.13-11.41-.15-7.65-.56-14.96-2.37-21.33-6.96-7.09-5.11-10.7-12.13-10.95-20.78-.1-3.49.45-7,.65-10.5.04-.64-.14-1.31-.31-1.94-.35-1.25.42-1.93,1.38-1.98,1.02-.06,1.02.81.94,1.75-.48,5.54-.92,11.07.33,16.59,1.94,8.53,7.28,14.02,15.18,17.26,5.33,2.19,10.95,2.92,16.65,3.15,3.66.15,7.33-.01,11,.07,3.67.08,6.5,1.73,8.34,4.94.81,1.41,1.57,2.86,2.24,4.33,3.42,7.48,9.28,11.95,17.23,13.5,4.49.88,9.1,1.19,13.67,1.69,2.55.28,5.12.41,7.68.6,5.57.42,10,3.13,13.9,6.9.88.85,1.79,1.66,2.69,2.49,5.44,5.06,11.89,7.37,19.3,7.08,1.49-.06,2.99.02,4.48-.01,3.65-.08,6.95,1.06,9.97,2.99,2.63,1.68,5.18,3.48,7.75,5.26,6.54,4.53,13.67,5.54,21.3,3.64,3.94-.98,7.9-1.86,11.81-2.97,4.58-1.3,8.84-.4,13.02,1.49,1.48.67,3.01,1.25,4.45,2.01,6.71,3.51,13.67,4,20.89,1.91,4.68-1.35,9.41-2.53,14.08-3.92,6.75-2.01,13.35-1.54,19.96.67,3.2,1.07,6.43,2.09,9.73,2.79,6.48,1.38,12.64-.04,18.55-2.75,4.68-2.15,9.3-4.43,13.96-6.63,5.69-2.69,11.45-2.8,17.37-.65,3.04,1.11,6.19,1.91,9.3,2.78,6.6,1.84,12.62-.04,18.33-3.16,3.8-2.08,7.42-4.51,11.1-6.81,4.1-2.56,8.4-4.55,13.39-3.89,6.36.84,11.32-1.9,15.84-5.9,4.67-4.14,9.33-8.31,14-12.45,4.95-4.38,10.6-6.82,17.32-7.04,6.3-.2,11.87-2.57,16.46-7.01.29-.28.6-.55.9-.83,3.92-3.74,7.98-7.34,11.71-11.27,5.07-5.33,9.38-11.23,12.22-18.13,1.33-3.25,3.03-6.35,4.61-9.48.35-.69.94-1.25,1.49-1.95l.02.06Z"/>
  <path class="cls-1" d="M218.53,494.06c-.29,6.21-.73,12.58-.84,18.95-.05,3.23.4,6.47.79,9.69.49,4.03,2.75,7.06,5.98,9.31,8.14,5.69,17.04,8.92,27.14,7.71,6.22-.74,11.72-3.33,16.64-7.07,2.24-1.7,4.1-3.89,6.16-5.83.68-.65,1.37-1.32,2.15-1.81.51-.32,1.6-.65,1.76-.45.53.68,1.18,1.67,1.04,2.4-.49,2.59-1.88,4.79-3.82,6.57-9.21,8.45-19.85,13.22-32.55,12.01-9.29-.88-17.57-4.54-24.63-10.62-4.21-3.63-6.16-8.65-6.34-14.1-.17-5.26.33-10.55.48-15.83.21-7.44.89-14.84.56-22.34-.55-12.33-3.97-23.69-9.17-34.68-2-4.22-4.62-7.96-8.11-11.09-1.01-.9-1.98-1.87-2.84-2.91-.27-.32-.34-1.18-.11-1.44.38-.43,1.26-.95,1.61-.78,2.06.99,4.21,1.95,6,3.34,3.83,2.97,6.71,6.8,8.21,11.41,2.71,8.35,5.42,16.72,7.63,25.21,1.88,7.23,2.05,14.74,2.25,22.36h0Z"/>
  <path class="cls-1" d="M317.15,28.64c-.65.65-1.24,1.37-1.95,1.94-2.09,1.69-4.08,3.58-6.39,4.92-2.83,1.64-6.02,1.9-8.89.03-1.53-.99-2.53-.84-3.95.12-2.95,2-6.22,2.7-9.64,1.27-1.22-.51-2.53-1.16-3.38-2.11-1.35-1.5-2.57-1.47-4.3-.77-4.75,1.9-9.37,1.48-13.43-1.72-1.64-1.3-2.82-3.18-4.22-4.81-2.19,1.51-4.42,3.32-6.88,4.68-3.57,1.97-7.44,3.76-11.57,2.14-2.43-.95-4.51-2.77-7.18-4.48-.31.21-1.14.83-2.01,1.37-3.68,2.29-7.55,3.71-11.91,2.13-2.25-.82-4-2.26-4.96-4.54-.52-1.23-.26-2.14,1.12-2.47.36-.09.79.08,1.18.13-.26.25-.77.55-.73.76.12.71.23,1.61.7,2.05,2.85,2.65,6.2,2.29,9.53,1.24,1.13-.36,2.11-1.2,3.14-1.84,2.03-1.26,3.09-2.96,2.61-5.45-.15-.79-.12-1.63-.02-2.43.14-1.19.81-2.01,2.06-2.16,1.3-.15,2.09.55,2.37,1.73.25,1.05.34,2.13.44,3.21.46,4.57,4.16,7.83,8.64,7.2,2.78-.4,5.5-1.32,8.22-2.13,2.88-.86,5.25-2.17,4.34-5.9-.11-.46.1-1.12.4-1.52.28-.37.84-.64,1.32-.71.28-.04.81.33.93.63.29.74.39,1.56.6,2.33,2.41,8.68,10.45,8.98,15.42,5.89.72-.44,1.25-1.36,1.61-2.17.65-1.46,1.68-2.13,3.21-1.82,1.46.29,1.93,1.44,1.81,2.77-.14,1.61.08,2.95,1.68,3.78,1.69.88,3.39,1.01,5.04.06,1.04-.6,1.99-1.38,2.94-2.14,2.29-1.84,3.62-2.1,5.73-.25,2.91,2.55,5.96,2.36,9.04.86,2.78-1.35,5.36-3.11,8.14-4.75,1.89.8,2.58,2.22,2.46,4.62-.3,5.85,3.28,8.77,9.03,7.55,2.36-.5,4.65-1.41,6.93-2.23.99-.36,2.02-.61,2.41.5.26.74.11,1.99-.38,2.53-.87.95-2.07,1.73-3.28,2.24-3.61,1.53-7.41,1.48-11.15.63-4.12-.94-6.85-4.58-6.94-8.91-.03-1.36.01-2.71.02-4.07.12-.17.23-.34.35-.51l-.26.6v-.02Z"/>
  <path class="cls-1" d="M270.84,359.35c.9.8,1.29.99,1.44,1.3,2.8,5.66,7.64,8.14,13.64,8.86,13.12,1.57,24.15-3.15,33.9-11.46,2.25-1.92,4.25-4.18,3.72-7.67-.09-.56.93-1.5,1.65-1.87.26-.14,1.49.77,1.64,1.36,1.12,4.2,4.55,5.32,8.07,5.59,11.16.88,20.31-3.64,28.07-11.32,1.03-1.02,1.61-2.49,2.44-3.71,1.11-1.63,2.48-1.88,3.59-.27,2.53,3.68,5.83,3.57,9.37,2.24,8.35-3.13,14.51-8.79,18.72-16.61.13-.23.22-.49.36-.71.06-.09.21-.13.67-.38.08.82.34,1.55.17,2.16-2.96,10.28-9.98,16.6-20,19.52-3.63,1.06-7.58.94-10.87-1.84-6.2,7.41-14.06,11.95-23.34,13.83-6.21,1.26-12.43,1.41-17.98-2.83-2.06,1.98-3.95,4.07-6.11,5.82-9.94,8.02-21.31,11.77-34.04,10.41-6.27-.67-11.73-3.34-14.8-9.36-.34-.66-.19-1.58-.33-3.06h.02Z"/>
  <path class="cls-1" d="M409.57,271.52c-4.96,3.03-10.1,5.57-16.11,5.81-4.69.19-8.11-1.8-10.17-6.01-1.01-2.07-1.86-4.21-2.75-6.33-1.28-3.03-3.32-5.28-6.51-6.28-4.98-1.56-7.85-5.2-9.52-9.84-1.41-3.94-2.37-8.03-3.68-12-.67-2.03-1.67-3.95-2.53-5.91-.37-.84-.41-1.72.53-2.03.41-.13,1.3.36,1.57.81.69,1.15,1.22,2.4,1.68,3.66,1.58,4.31,3.13,8.64,4.65,12.97,1.63,4.66,4.54,7.84,9.53,9.06,3.6.88,6.18,3.26,7.86,6.58.92,1.81,1.92,3.59,2.71,5.45,1.4,3.28,3.97,4.8,7.37,4.68,3.64-.13,7.27-.6,10.9-.95,1.45-.14,2.89-.36,4.33-.54.05.29.1.58.14.87h0Z"/>
  <path class="cls-1" d="M249.84,16.17c-1.7-3.62.47-8.01,4.99-10.58,6.22-3.54,12.28-2.06,16.63,4.15,1.99-.61,3.99-1.38,6.06-1.84,5.38-1.21,10.24-.18,14.1,3.97.85.92,1.63,1.3,2.79,1.17,2.67-.32,4.31,1.06,5.64,3.47-1.48,0-2.83-.29-3.97.08-1.08.36-1.91,1.43-2.87,2.17-2.1,1.61-3.69,1.17-4.71-1.28-1.48-3.58-3.62-5.16-7.4-4.98-4.19.2-8.09,1.16-10.04,5.57-.25.57-.81,1.12-1.37,1.43-1.47.8-3.22-.13-3.24-1.77-.01-1.04.28-2.13.66-3.12,1.2-3.1.42-5.53-2.45-7.07-2.28-1.23-4.66-1.28-7.08-.45-4.28,1.46-6.96,4.36-7.75,9.08h0Z"/>
  <path class="cls-1" d="M242.46,554.03c-12.55,2.78-22.94,0-32.29-6.98-5.47-4.08-9.37-9.35-10.88-16.15-1.1-4.96-.35-9.68,2.15-14.08.7-1.22,1.49-2.65,3.76-2.1-.22.57-.34,1.04-.57,1.44-4.6,7.74-2.75,16.57,3.15,23.19,5.17,5.79,11.9,8.84,19.12,10.88,4.39,1.24,8.96,1.88,13.43,2.83.47.1.9.4,2.13.98h0Z"/>
  <path class="cls-1" d="M339.15,336.05c-1.21-1.39-.8-2.45-.25-3.58,3.1-6.4,8.17-10.25,15-12.04,4.33-1.13,8.66-.98,12.86.12,6.25,1.63,12.57,1.75,18.94,1.64.66-.01,1.31.09,2.63.2-.79.53-1.09.87-1.45.96-6.58,1.61-13.13,2.87-20.03,1.6-3.82-.7-7.9-.72-11.76-.24-6.17.78-11.14,3.95-14.55,9.32-.4.63-.85,1.24-1.39,2.02h0Z"/>
  <path class="cls-1" d="M346.15,277.59c-2.73,5.01-5.23,10.07-8.19,14.84-1.69,2.72-3.96,5.18-6.32,7.38-3.47,3.23-7.6,4.58-12.37,2.99-1.28-.42-2.6-.73-3.93-.95-3.38-.56-5.42.43-7.03,3.46-.92,1.73-1.64,3.56-2.52,5.51-1.46-1.49-.29-2.73-.02-3.87,1.72-7.4,5.32-8.1,10.35-7.67.54.05,1.12-.01,1.61.17,6.45,2.32,11.08-.4,14.7-5.47,2.12-2.97,3.86-6.2,5.82-9.29,1.23-1.94,2.45-3.9,3.83-5.73.9-1.2,2.07-2.19,4.07-1.36h0Z"/>
  <path class="cls-1" d="M281.17,480.75c-1.64-11.06,1.35-21.02,6.93-30.29,3.57-5.94,7.43-11.71,13.13-15.89,1.07-.78,2.3-1.44,3.55-1.87,1.79-.61,2.54-.12,4.12,2.25-3.16-.43-5.16,1.47-6.96,3.41-7.16,7.71-13.23,16.2-16.78,26.18-1.44,4.04-2.13,8.34-3.15,12.53-.3,1.22-.56,2.45-.84,3.68h0Z"/>
  <path class="cls-1" d="M266.67,354.81c-.35-3.1,1.1-4.7,2.81-6.02,2.09-1.61,4.57-2.71,7.19-1.86,3.45,1.11,6.83,2.5,10.12,4.03,4.19,1.94,8.42,2.79,12.96,1.54,2.72-.75,5.47-1.42,8.2-2.15,1.09-.29,2.17-.64,3.35-.65-5,3.58-10.37,6.17-16.56,6.69-3.06.26-5.9-.55-8.6-1.88-1.82-.9-3.56-1.95-5.37-2.87-6.28-3.2-9.36-2.59-14.1,3.17h0Z"/>
  <path class="cls-1" d="M217.64,20.11c-1.89-1.79-1.83-3.68-1.08-5.71,1.24-3.34,3.71-5.66,6.55-7.54,3.9-2.59,8.33-3.89,12.97-4.25,2.87-.23,5.67.34,8.08,2.07,2.13,1.53,2.87,4.25,1.77,6.47-.2.4-.77.72-1.24.85-.21.06-.75-.37-.84-.66-1.21-4.32-4.49-4.86-8.29-4.8-4.34.07-8.28,1.37-11.83,3.71-3.44,2.27-6.12,5.2-6.1,9.87h0Z"/>
  <path class="cls-1" d="M316.18,107.76c-.14-2.47.73-4.65,2.64-6.37,2.22-2,3.97-1.51,5.08,1.23.92,2.28,1.69,4.48.61,6.96-.78,1.78-2.09,2.76-3.88,3.05-2.73.44-4.42-1.43-4.45-4.88h0ZM322.72,106.2c-.66-.77-1.04-1.22-1.43-1.67-.28.5-.67.97-.77,1.5-.04.18.61.64,1,.72.3.06.67-.29,1.2-.56h0Z"/>
  <path class="cls-1" d="M319.48,24.28c-2.09-9.1-10.57-12.22-18.87-7.1.55-1.31.71-2.21,1.21-2.81,1.83-2.18,4.56-2.52,7.05-2.52,3.39,0,6.68,1.03,9.48,3.14,2.25,1.69,3.23,3.99,2.72,6.78-.12.68-.78,1.26-1.6,2.52h.01Z"/>
  <path class="cls-1" d="M308.49,22.41c-1.05,5.46-8.53,6.57-12.18,2.84-.58-.59-1.09-1.77-.89-2.45.2-.66,1.36-1.46,2.09-1.46,2.03,0,4.43-.96,5.78,1.73.19.39,1.45.44,2.16.33.98-.15,1.91-.6,3.03-.98h.01Z"/>
  <path class="cls-1" d="M259.9,18.62c-2.78-.13-6.03,1.82-6.58,4.49-.31,1.5-1.1,1.35-1.92,1.31-1.35-.07-1.37-1.15-1.1-2.1.74-2.62,2.53-4.38,4.91-5.58,1.76-.89,3.84-1.23,5-3.17.21-.35,1.38-.52,1.77-.27.59.39,1.29,1.28,1.22,1.86-.12.94-1.04,1.75-1.25,2.71-.34,1.54-1.33.62-2.05.75Z"/>
  <path class="cls-1" d="M276.89,125.69c-1.89-.04-3.27-1.08-3.37-2.75-.03-.56.43-1.2.8-1.71.06-.08.8.28,1.2.5,1.46.79,2.18.63,2.77-.74.54-1.27.66-2.45-.22-3.77-.87-1.3-.21-2.37,1.23-2.22.74.08,1.64.39,2.1.92,1.7,1.95,1.52,4.23.51,6.4-.96,2.06-2.51,3.48-5.01,3.37h-.01Z"/>
  <path class="cls-1" d="M256.54,121.84c.06,1.15.01,2.33.22,3.45.16.88.51,1.79,1.01,2.53.47.69,1.27,1.03,2.04.24.64-.65.83-1.36.14-2.11-.44-.48-1.93-.38-1.03-1.58.72-.96,1.75-1.13,2.86-.45,1.5.91,2.11,2.62,1.58,4.59-.43,1.59-1.8,2.7-3.53,2.82-3.47.25-5.34-2.56-5.25-6.18.03-1.14.66-2.26,1.02-3.38.32.02.63.05.95.07h-.01Z"/>
  <path class="cls-1" d="M140.98,100.57c.06-.32.06-1.05.36-1.62.3-.56.84-1.05,1.39-1.42.67-.45,4.61,1.33,5.23,2.28.87,1.33.57,3.41-.77,4.37-1.11.8-2.31,1.38-3.76.63-1.5-.78-2.37-2.07-2.45-4.24ZM144.27,100.39c-.1-.07-.2-.15-.29-.22.13.04.26.08.38.13.14.32.28.64.42.97l-.51-.87h0Z"/>
  <path class="cls-1" d="M236.73,125.69c.6-.26.77-.28.81-.36.47-1.05.57-2.55,2.33-2.04,1.2.35,1.78,1.85,1.44,3.39-.33,1.47-1.81,2.75-3.45,2.98-1.58.22-3-.62-3.88-2.29-.88-1.68-.82-3.35.3-4.47.67-.67,1.53-.68,1.96.26.32.69.32,1.53.5,2.54h-.01Z"/>
  <path class="cls-1" d="M184.45,30.45c-1.97-.11-3.52-.22-5.08-.27-1.37-.04-2.68.02-3.33,1.62-.13.31-.9.63-1.23.52-.43-.15-1.03-.75-1-1.1.08-.86.25-1.92.8-2.5,1.24-1.31,2.86-1.99,4.73-1.37,1.82.6,3.77,1.02,5.11,3.11h0Z"/>
  <path class="cls-1" d="M314.25,263.61c1.45-.17,2.12-.14,2.71-.34,2.33-.8,2.35-1.51.58-3.66-.42-.51-.3-1.75,0-2.48.32-.76,1.19-.95,2.06-.43,2.09,1.23,2.82,3.79,1.64,5.9-1.47,2.64-3.31,3.07-7,1.01h.01Z"/>
  <path class="cls-1" d="M204.58,63.62c-3.64.16-7.07-2.76-9.87.88-.8-3.18,1.27-5.55,4.15-4.72,2.05.59,4.11,1.42,5.72,3.84Z"/>
  <path class="cls-1" d="M209.28,21.99c-.77,4.49-2.83,6.66-5.3,6.47-2.1-.16-3.25-1.55-3.53-4.28.23-.06.57-.25.68-.16,3.33,2.65,3.57,2.64,6.54-.36.54-.55,1.07-1.11,1.6-1.67h.01Z"/>
  <path class="cls-1" d="M294.7,273.12c1.64.45,2.52.95,3.32.84.79-.11,1.5-.84,2.25-1.3-.21-.3-.55-.9-.62-.87-1.49.66-1.33-.54-1.05-1.12.31-.63,1.05-1.36,1.68-1.43s1.55.47,1.95,1.02c.42.58.63,1.54.49,2.25-.3,1.53-1.18,2.81-2.82,3.12-1.87.36-3.77.5-5.2-2.51Z"/>
  <path class="cls-1" d="M327.32,249.29c.51-.36,1.07-.66,1.52-1.08,2.43-2.22,2.53-3.03.81-5.83-.07-.11-.23-.21-.24-.32-.04-.58-.3-1.37-.02-1.71.68-.83,1.44-.29,2.08.28,1.41,1.25,1.28,2.91,1.1,4.53-.28,2.62-1.95,4.08-5.26,4.13h.01Z"/>
  <path class="cls-1" d="M205.25,21.78c-.86-1.03-1.84-1.71-1.82-2.34.03-.66,1.01-1.77,1.61-1.79.63-.02,1.73.95,1.82,1.6.09.63-.84,1.4-1.61,2.53Z"/>
  <path class="cls-1" d="M253.94,230.83c1.22-.83,2.46-1.64,3.66-2.5,1.64-1.18,2.57-2.76,2.55-4.83-.02-1.93-.9-2.7-2.86-2.33-1,.19-2.05,1.18-2.85-.19-.66-1.12,0-2.02.72-2.92,1.57-1.97,2.26-4.28,2.38-6.77.09-1.85-.31-3.64-2.05-4.57-1.9-1.02-3.68-.17-5.28.98-.44.31-.83.71-1.17,1.13-1.29,1.57-1.2,2.23.46,3.56.37.3.78.55,1.38.97-2.16.55-3.79-.09-4.27-1.78-.31-1.07.32-2.61.94-3.7.57-1.01,1.6-1.86,2.59-2.54,4.48-3.07,9.51-.59,9.95,4.85.08.94.06,1.9.01,2.85-.14,2.88.3,4.22,2.24,6.57,2.09,2.53,1.26,7.19-1.95,9.27-1.86,1.2-4.08,1.85-6.14,2.74l-.29-.8h-.02Z"/>
  <path class="cls-1" d="M177.28,347.17c-4.38-1.92-8.8-3.78-13.14-5.8-2.86-1.33-5.74-2.49-8.93-2.05-2.79.39-5.63.84-7.25,3.69-.2.35-.84.44-1.27.65-.02-.59-.24-1.27-.02-1.76.98-2.19,2.74-3.62,4.87-4.64,3.65-1.74,7.49-1.87,10.96-.09,5.24,2.69,10.2,5.91,15.28,8.91l-.5,1.1h0Z"/>
  <path class="cls-1" d="M197.26,348.35c1.9-2.27,4.23-2.09,6.34-1.43,1.88.58,3.62,1.75,5.31,2.84,1.46.95,2.81,2.11,4.1,3.29,3.09,2.79,6.47,4.83,10.95,4.61-1.55,1.49-3.32,1.89-5.27,1.64-3.06-.4-5.52-2.06-7.86-3.9-1.06-.83-2.02-1.79-3.02-2.7-3.81-3.45-5.37-4.12-10.54-4.34h0Z"/>
  <path class="cls-1" d="M258.44,266.95c.09,3.44-1.66,5.58-4.14,5.85-2.1.23-4.23-1.37-4.72-3.54-.39-1.69.32-2.88,2.24-2.87,1.12,0,1.65-.51,2.44-.96.73-.42,1.94-.9,2.47-.58.89.54,1.42,1.69,1.72,2.1h-.01ZM251.84,269.93c1.22.03,2.18.35,2.76,0,.97-.56,1.68-1.54.89-3-1.16.95-2.16,1.77-3.66,3h.01Z"/>
  <path class="cls-1" d="M200.91,216.84c-.15-2.03-.23-3.09-.31-4.16-.49-6.48-4.93-9.21-10.94-6.75-.21.09-.48,0-1.06,0,.51-.87.78-2.02,1.41-2.26,1.47-.56,3.14-1.09,4.66-.93,6.47.68,9.72,7.21,6.24,14.09h0Z"/>
  <path class="cls-1" d="M161.79,267.84c-.15,1.3-.47,2.59-.41,3.86.05,1.03.46,2.07.89,3.03.16.36,1.07.79,1.22.66.46-.37,1.02-1.01.99-1.52-.04-.73-.66-1.42-.82-2.18-.09-.4.16-.99.46-1.32.19-.21.78-.25,1.1-.13,1.48.58,2.15,1.99,2.03,4.04-.11,1.87-1.1,3.32-2.57,3.75-1.61.47-3.15-.14-4.17-1.7-1.7-2.62-1.86-5.28-.15-7.96.14-.22.38-.42.61-.51.21-.09.48-.02.81-.02h0Z"/>
  <path class="cls-1" d="M181.68,260.51c1.91.65,2.06-.38,1.64-1.08-.59-.98-1.63-1.68-2.4-2.57-.28-.32-.55-1.01-.39-1.26.22-.35.87-.65,1.3-.6,2.04.23,3.45,1.36,4.33,3.24.69,1.49.71,2.84-.43,4.13-1.16,1.31-2.68,1.4-4.08.84-.65-.26-.95-1.38-1.4-2.11.61-.25,1.23-.5,1.45-.59h-.02Z"/>
  <path class="cls-1" d="M237.11,245.6c-.28,2.93-2.01,6.07,1.54,7.98.25-.34.55-.57.51-.71-.27-1.03-.28-1.96.95-2.27.45-.12,1.35.02,1.45.26.32.83.6,1.81.46,2.66-.26,1.56-1.7,2.03-3.01,2.37-1.26.33-3.37-.89-3.83-2.45-.41-1.38-.36-2.92-.37-4.4,0-1.43.61-2.59,2.3-3.44h0Z"/>
  <path class="cls-1" d="M187.55,248.2c.31-.97-.39-2.57,1.56-2.63,1.87-.05,3.73,1.42,3.69,2.92-.03,1.25-1.36,2.55-2.64,2.58-1.51.04-2.59-1.13-2.61-2.88h0ZM189.78,248.37c-.07-.09-.14-.23-.22-.24-.08,0-.17.13-.26.2.07.09.14.23.23.24.08,0,.17-.13.26-.2h0Z"/>
  <path class="cls-1" d="M166.39,120.09c1.26-1.65,2.48-2.15,3.99-1.01,1.37,1.04,1.75,2.65,1.05,4.31-.71,1.71-2.26,2.94-3.58,2.84-1.43-.11-2.38-1.39-2.76-4.02.59.35,1.01.54,1.37.82.63.47,1.32,1.34,1.97.29.56-.91.82-2.06-.65-2.63-.43-.17-.86-.37-1.39-.6h0Z"/>
  <path class="cls-1" d="M200.5,97.04c.21,1.96-.66,3.36-2.27,4.36-1.11.69-2.32.85-3.38.01-1.12-.89-1.01-2.04-.17-3.55.52.86.9,1.47,1.35,2.21.69-.66,2.63-.5,1.22-2.36-.13-.17.54-1.33.76-1.3.88.1,1.73.48,2.59.76l-.1-.12h0Z"/>
  <path class="cls-1" d="M185.69,114.7v-5.77c2.05.77,2.61,1.49,2.57,3.45-.03,1.81-.96,3.48-2.45,3.81-.59.13-1.73-.29-1.95-.76-.4-.9-.32-2.03-.5-3.58.88,1.08,1.38,1.69,2.32,2.85h0Z"/>
  <path class="cls-1" d="M120.86,259.65c-.58-.28-1.16-.55-1.74-.83.45-.61.77-1.49,1.37-1.76,1.62-.73,3.51.03,4.16,1.43.72,1.56.18,3.76-1.16,4.73-2.72,1.96-7.35.62-8.78-2.85-.63-1.51-.72-3.44-.44-5.07.15-.89,1.48-1.76,2.46-2.26.4-.2,1.31.59,1.98.93-.36.42-.67.91-1.08,1.26-1.48,1.24-1.25,3.54.64,4.56.74.4,1.78.24,2.68.33-.02-.15-.05-.3-.07-.46h-.02Z"/>
  <path class="cls-1" d="M112.97,233.52c-.9.55-1.95.9-2.52,1.63-.38.49-1.62,2.41,1.03,1.62,1.03-.31,1.72.62,1.86,1.67.19,1.39.14,2.91-1.37,3.43-.86.3-2.22.15-2.94-.37-2.67-1.94-1.87-8.08,1.14-9.42,1.47-.66,2.17.39,2.81,1.45h0Z"/>
  <path class="cls-1" d="M122.57,316.72c-1.7,2.77-4.12,4.68-6.99,5.85-3.74,1.53-7.22.48-9.77-2.76-1.16-1.48-2.29-2.98-3.34-4.54-.23-.34-.24-1.1,0-1.39.27-.34.95-.56,1.39-.49.48.08.95.49,1.32.87.76.77,1.46,1.61,2.16,2.43,3.62,4.25,5.12,4.62,10.16,2.42,1.71-.75,3.39-1.6,5.08-2.4h-.01Z"/>
  <path class="cls-1" d="M351.01,97.51c1.55.51,2.18,1.8,1.94,3.4-.15.99-.59,2.05-1.23,2.8-.29.35-1.37.04-2.08.03.02-.58-.07-1.18.07-1.72.38-1.5.85-2.97,1.31-4.51h-.01Z"/>
  <path class="cls-1" d="M319.52,66.94c1.87.24,3.74.53,5.62.72,2.56.26,5.12.53,7.68.66,4.2.21,8.46.46,12.08-2.26,1.37-1.03,2.47-2.42,3.95-3.91-.36,3.84-2.94,5.51-5.62,7.03-.8.45-1.8.76-2.72.77-5.95.11-11.93.8-17.82-.64-1.35-.33-3.1-.35-3.07-2.47l-.1.09h0Z"/>
  <path class="cls-1" d="M337.31,53.93c-6.17,3.03-12.35,6.06-18.52,9.09-.13-.26-.26-.53-.39-.79,5.69-4.02,11.81-7.16,18.91-8.3Z"/>
</svg>