<?xml version="1.0" encoding="UTF-8"?>
<svg id="Layer_1" data-name="Layer 1" xmlns="http://www.w3.org/2000/svg" version="1.1" viewBox="0 0 557.6 439.58">
  <defs>
    <style>
      .cls-1 {
        fill: #000;
        stroke-width: 0px;
      }
    </style>
  </defs>
  <path class="cls-1" d="M302.27,143.99c2.29.82,4.08,1.45,5.86,2.1,2.75,1.01,5.4,2.19,7.53,4.31,3.76,3.74,4.23,8.03,1.4,12.54-1.73,2.76-4.2,4.71-6.82,6.47-3.22,2.16-6.57,4.14-10.09,6.34.92.69,1.81,1.37,2.73,2.03,4.71,3.41,6.5,8.34,5.33,14.04-1.07,5.16-3.71,9.49-6.92,13.48-5.05,6.28-11.27,11.03-19.02,13.53-6.62,2.14-13.33,2.02-20.13.79-6.85-1.25-13.15-4.04-19.6-6.44-.22-.08-.51-.14-.63-.31-.18-.27-.35-.64-.32-.94.02-.15.52-.38.77-.34,2.62.4,5.23.95,7.86,1.28,13.98,1.74,27.16.06,38.39-9.41,3.68-3.1,6.49-6.89,8.38-11.33,1.56-3.65,1.06-4.98-2.45-6.65-1.31-.62-2.68-1.13-4.02-1.72-1-.44-2-.89-2.97-1.39-5.12-2.65-5.72-8.4-.98-12.17,1.88-1.5,4.14-2.51,6.23-3.75,3.96-2.36,7.93-4.71,11.88-7.08.61-.36,1.13-.87,2-1.56-.91-.52-1.54-1.03-2.27-1.28-2.4-.85-4.86-1.57-7.26-2.41-2.19-.77-4.22-1.84-5.85-3.58-2.65-2.81-3.12-5.84-1.46-9.37,1.57-3.33,4.32-5.52,7.23-7.52,3.8-2.61,7.68-5.11,11.57-7.6,8.32-5.32,16.26-11.11,22.86-18.53,3.64-4.1,6.91-8.47,8.81-13.71.25-.68.47-1.38.68-2.07,1.52-5.15.6-6.31-4.72-6.36-5.31-.06-10.33,1.34-15.32,2.83-10.98,3.27-21.29,8.12-31.31,13.63-9.48,5.21-18.68,10.84-27.48,17.15-5.63,4.04-11.21,8.15-15.91,13.28-2.11,2.31-3.95,4.86-5.73,7.08-.24-1.5-.3-1.86.72-3.27,1.84-2.55,3.68-5.13,5.79-7.46,6.97-7.71,15.28-13.88,23.69-19.86,10.3-7.33,21.03-13.98,32.37-19.58,9.26-4.57,18.78-8.56,28.98-10.46,3.06-.57,6.31-.68,9.41-.39,5.02.46,8.43,4.47,8.8,9.58.34,4.75-1.01,9.14-2.85,13.4-2.32,5.41-5.65,10.19-9.54,14.57-6.99,7.89-15.23,14.26-24.01,20-2.95,1.93-5.89,3.87-8.8,5.84-.86.58-1.62,1.31-2.82,2.3Z"/>
  <path class="cls-1" d="M110.07,251.28c.49-.03.97-.06,1.46-.1,1.65-.14,2.76.33,3.21,2.17.21.86,1,1.61,1.61,2.33.64.75,1.36,1.4,2.5.81.29-.15.79-.19,1.07-.05,2.21,1.1,3.95.85,5.96-.86,1.75-1.49,4.66-.04,5.44,2.4.44,1.36.56,2.83.87,4.46,2.32-.25,3.96-1.38,4.83-3.57.94-2.36,1.8-4.75,2.78-7.1.2-.48.73-.83,1.11-1.24.39.54,1.2,1.16,1.12,1.62-.63,3.69-1.08,7.47-2.28,10.98-1.28,3.73-4.67,5.46-8.36,6.33-2.52.59-4.4-.91-6.46-2.93-2.82,9.66-5.17,19.1-7.78,28.45-2.62,9.37-5.54,18.67-7.89,28.27,2.74-.47,5.07-.92,7.41-1.24.83-.12,1.72-.05,2.54.13,2.23.49,4.44,1.06,6.64,1.66.54.15,1.02.53,1.53.8-.23.32-.38.68-.5.67-1.8-.16-3.39.34-5.13.9-3.66,1.2-7.51,1.82-11.32,2.47-2.82.48-3.13.57-3.83,3.45-.32,1.29-.58,2.59-.81,3.9-.06.32.11.68.16.94,1.57-.41,3.04-1.02,4.55-1.14,2.8-.23,3.5.87,3.69,3.85.09,1.4-.25,2.56-.61,3.79-.3,1.04-.88,2.02-1.05,3.08-.12.74,0,1.9.48,2.26.47.35,1.55.03,2.31-.18.79-.22,1.5-.93,2.27-.96.71-.02,1.58.42,2.14.92.7.62.69,1.57.09,2.32-.6.74-1.31,1.38-2.01,2.03-1.28,1.19-1.3,1.21-1.71,4.15.77-.34,1.39-.53,1.92-.86,2.47-1.54,4.92-3.13,7.38-4.69.72-.45,1.39-1.07,2.18-1.28.73-.19,1.86-.23,2.29.19.58.57.89,1.66.86,2.51-.03.92-.6,1.82-.91,2.74-.47,1.37-1.01,2.73-1.34,4.13-.15.64.15,1.38.24,2.08.67-.15,1.43-.13,1.98-.47,2.52-1.55,4.4-3.79,6.16-6.12.57-.76,1.12-1.54,2.07-2.86.14,1.23.44,1.94.24,2.44-1.62,4.02-3.94,7.52-7.71,9.86-1.74,1.08-3.58,1.66-5.45.34-1.94-1.37-2.21-3.35-1.75-5.52.15-.67.3-1.35.57-2.58-1.36.83-2.24,1.38-3.12,1.9-1.25.75-2.44,1.64-3.77,2.19-3.59,1.49-6.33-.34-6.45-4.22-.02-.73.16-1.47.06-2.18-.12-.77-.22-1.8-.74-2.21-3.37-2.7-2.09-5.46-.44-8.06.76-1.2,1.82-2.22,2.66-3.23-2.55-.36-5-.7-7.69-1.08-1.4,1.81-1.16,4.37-1.45,6.62-1.69,12.9-5.6,25.22-9.14,37.65-.11.4-.48.74-.73,1.1-.4-.39-1.13-.75-1.16-1.17-.22-2.87-1.25-5.65-.53-8.65.73-3.05,1.01-6.2,1.45-9.31.2-1.43-.59-3.36-1.6-3.8-1.48-.65-2.84-.34-4.03.75-2.06,1.88-3.31,4.17-3.59,6.96-.34,3.33-.02,6.56,1.58,9.56.85,1.61,1.74,3.2,2.66,4.77,2.14,3.65,4.3,7.29,6.57,11.13,4.5-4.71,8.69-9.55,11.82-15.24,1.3-2.36,2.14-4.85,2.47-7.55.38-3.1-.39-4.8-3.13-6.24-.63-.33-1.29-.64-1.89-1.01-.15-.09-.16-.41-.23-.62,5.8-1.73,10.62,1.49,11,7.26.26,3.9-.96,7.41-2.54,10.85-2.61,5.69-6.49,10.52-10.32,15.39-.9,1.15-1.74,2.35-2.7,3.44-1.94,2.2-2.99,4.66-2.78,7.65.15,2.1-.37,4.1-1.43,5.94-1.16,2.01-3.25,3.11-5.12,2.7-2-.43-3.65-2.47-3.74-4.81-.04-.96.01-1.96.26-2.88,1.31-4.76.35-9.14-2.12-13.27-1.25-2.08-2.61-4.09-3.88-6.17-2.34-3.84-4.69-7.72-5.59-12.19-1.47-7.29-.43-14.05,5-19.6,4.25-4.35,8.66-5.04,14.13-2.21,1.1.57,1.34-.11,1.51-.76,1.04-4.1,2.29-8.17,2.96-12.33,2.19-13.49,4.98-26.85,8.46-40.06,2.89-10.99,5.99-21.92,8.98-32.88.25-.9.38-1.84.59-2.94-3.49.15-5.1-1.72-5.67-4.91-.16-.87-.83-1.72-1.44-2.43-2.77-3.24-2.88-5.37-.35-8.72.21-.28.37-.6.55-.9,0,0-.1.08-.1.08Z"/>
  <path class="cls-1" d="M304.91,79.34c6.38-5.1,8.99-12.07,11.85-18.89,1.67-3.98,2.36-8.15,2.07-12.46-.07-1.08-.28-2.17-.59-3.2-.66-2.21-1.14-2.53-3.42-2.04-6.75,1.46-13.45,3.17-20.23,4.45-8.21,1.55-16.47,2.8-24.73,4.11-13.04,2.08-26.11,4.02-38.57,8.64-4.44,1.65-8.79,3.47-12.69,6.27-6.01,4.33-9.39,9.92-9.39,17.53,0,6.02,1.38,11.78,2.7,17.57,1.05,4.6,2.41,9.16,3.04,13.81.61,4.54.82,9.2-.42,13.74-.11.4-.48.73-.73,1.09-.26-.46-.71-.9-.76-1.38-.26-2.77-.44-5.55-.61-8.33-.29-4.65-1.67-9.05-3.18-13.39-2.63-7.57-4.7-15.27-6.18-23.13-.09-.47-.21-.96-.15-1.43,1.3-10.49,5.96-18.83,15.33-24.25,8.47-4.91,17.59-8.09,27.03-10.54,10.92-2.83,22.04-4.57,33.09-6.74,9.85-1.93,19.55-4.66,29.33-6.96,2.94-.69,5.92-1.39,8.92-1.61,4.85-.36,8.44,1.91,10.54,6.29,1.98,4.12,2.67,8.49,2.26,13.07-.46,5.12-1.57,10.04-3.81,14.7-2.23,4.64-5.57,8.25-9.92,10.9-3.13,1.9-6.52,2.97-10.77,2.18Z"/>
  <path class="cls-1" d="M373.54,277.21c2.3-1.86,4.35-2.6,6.77-2.65,6.51-.13,12.69,1.5,18.87,3.25,4.41,1.25,8.85,2.43,13.32,3.46,6.99,1.62,13.59.29,19.49-3.6,3.73-2.45,7.35-5.24,10.48-8.41,7.7-7.8,16.07-14.84,24.17-22.19,1.77-1.61,3.38-3.49,4.72-5.48,3.05-4.53,5.76-9.28,8.85-13.78,1.77-2.58,3.87-4.99,6.07-7.23,3.68-3.75,8.44-4.8,13.42-4,5.36.87,10.64,2.26,15.93,3.54,4.14,1,8.27,1.94,12.55,1.75,2.17-.1,4.35-.37,6.5-.72,1.77-.29,2.25-1.47,1.02-2.87-1.59-1.81-3.33-3.56-5.25-5.01-4.3-3.24-9.32-5.17-14.22-7.28-6.96-3-13.37-6.79-18.59-13.31,1.06.27,1.67.28,2.1.57,3.57,2.44,7.6,3.69,11.75,4.71,6.74,1.66,13.22,4.02,19.33,7.34,3.65,1.98,7.16,4.22,9.77,7.49,1.33,1.67,2.45,3.62,3.18,5.63,1.32,3.64-.14,7.05-3.52,8.94-1.04.58-2.2,1.02-3.36,1.31-6.98,1.79-13.94,1.24-20.84-.42-4.35-1.05-8.61-2.52-12.99-3.44-2.69-.57-5.53-.56-8.3-.62-2.23-.05-3.95,1.34-5.29,2.88-2.47,2.82-4.73,5.83-7.02,8.82-3.17,4.14-6.26,8.34-9.44,12.48-.74.96-1.56,1.94-2.55,2.59-2.95,1.93-4.72,4.82-6.61,7.65-4.2,6.27-8.6,12.37-14.14,17.56-4.9,4.59-10.2,8.56-16.52,11.1-7.64,3.07-15.35,3.41-23.08.73-5.26-1.82-10.38-4.03-15.52-6.19-4.58-1.92-9.18-3.82-14.12-4.55-2.08-.31-4.24-.05-6.92-.05Z"/>
  <path class="cls-1" d="M378.07,214.92c1.74,1.04,3.27,1.98,4.84,2.87.39.22.95.47,1.32.35,6.3-2.01,11.48.46,16.14,4.27,3.85,3.14,7.4,6.66,11.07,10.02.18.16.41.33.48.54.1.31.22.76.08.96-.14.19-.66.28-.93.18-3.08-1.1-6.16-2.2-9.21-3.4-3.61-1.41-7.19-2.92-10.79-4.37-.53-.21-1.07-.39-1.96-.71,1.23,5.98.23,11.51-.61,18.01-.88-1.25-1.34-1.71-1.57-2.26-1.41-3.48-2.87-6.95-4.13-10.49-1.9-5.36-6.05-8.37-10.87-10.68-4.09-1.97-8.49-2.88-12.99-3.18-5.96-.41-11.87.21-17.76,1.08-1.9.28-3.84.21-6.54.34,1.01-.84,1.41-1.38,1.93-1.56,6.77-2.26,13.51-4.63,20.72-5.2,2.78-.22,5.53-.14,8.31-.09,8.6.13,13.71-3.64,15.26-13.64.54-3.51-.3-7.22-.51-10.85-.04-.61-.17-1.22-.1-1.81.05-.4.34-.8.62-1.1.06-.06.7.22.86.47,2.33,3.69,4.67,7.35,5.86,11.65,1.06,3.84.19,7.34-1.38,11.15,4.63-.64,8.78-1.8,12.59-3.95,2.74-1.55,5.32-3.4,8.01-5.05,4.72-2.9,7.92-7.16,10.34-11.98,3.73-7.42,9.43-12.88,16.44-17.1,4.22-2.54,8-5.56,10.7-9.71,1.38-2.12,2.78-4.33,3.53-6.71,1.43-4.49,2.67-9.08,3.48-13.72.49-2.81.1-5.8-.05-8.69-.36-7.03-.64-14.06.55-21.65.55.88.94,1.26,1.05,1.71,1.35,5.52,2.7,11.05,3.97,16.59,1.34,5.89,1.31,11.8-.02,17.69-.67,2.95-1.35,5.9-2.11,8.84-2.24,8.7-7.11,15.6-14.39,20.8-2.96,2.12-6.04,4.07-8.94,6.27-3.84,2.9-6.5,6.88-9.16,10.8-6.76,9.96-16.76,14.77-27.89,17.75-2.06.55-4.35.35-6.53.38-2.28.03-4.24.59-5.91,2.29-1.07,1.1-2.45,1.9-3.8,2.91Z"/>
  <path class="cls-1" d="M101.69,309.36c-11.64,5-21.34,2.37-27.35-6.4-5.01-7.32-8.18-15.34-9.6-24.11-.95-5.89-1.55-11.8-1.2-17.75.46-7.62,1.21-15.21,1.83-22.82.09-1.09.11-2.18.17-3.28.2-3.39.53-6.78.57-10.17.11-8.63-.34-17.21-3.04-25.51-1.85-5.68-5.47-9.73-11.09-11.73-7.65-2.73-15.55-3.79-23.57-2-7.12,1.59-10.67,8.74-8,15.55.13.34.37.64.45.98.04.19-.08.55-.23.62-.29.14-.7.25-.98.15-.3-.1-.56-.43-.75-.72-4.16-6.5-1.15-15.18,4.01-18.31,3.66-2.22,7.68-3.07,11.79-3.26,6.44-.3,12.78.52,18.97,2.51,7.36,2.37,12.12,7.37,14.83,14.43,2.27,5.93,3.35,12.12,3.74,18.44.21,3.39.6,6.79.5,10.17-.22,7.03-.88,14.04-1.06,21.07-.21,8.02-.55,16.07,0,24.06.75,10.84,4.28,20.81,11.32,29.39,3.49,4.25,7.68,6.92,13.15,7.61,1.72.22,3.42.67,5.54,1.09Z"/>
  <path class="cls-1" d="M36.86,197.93c3.92-3.3,8.13-3.49,12.56-1.58,3.61,1.56,6.19,4.23,8.15,7.53,2.89,4.86,4.42,10.17,5.21,15.77.76,5.33.99,10.69.49,15.99-.72,7.58-1.85,15.14-3.06,22.67-1.31,8.14-3.06,16.24-2.5,24.54.76,11.24,2.85,22.14,9.44,31.66,4.22,6.09,9.87,10.28,16.95,12.51.42.13.82.34,1.48.61-2.65,3.78-6.14,4.83-10.24,4.33-4.2-.52-7.35-3.03-10.3-5.8-5.07-4.75-8.5-10.66-10.9-17.06-4.07-10.83-5.59-22.15-4.42-33.64.69-6.83,2.22-13.61,3.76-20.32,2.73-11.98,4.85-24,4.09-36.36-.33-5.27-1.64-10.27-4.28-14.89-1.68-2.94-3.83-5.49-7.26-6.16-2.31-.46-4.77-.24-7.16-.24-.67,0-1.35.29-2.02.45Z"/>
  <path class="cls-1" d="M233.97,261.53c-3.34-.8-6.18.32-8.89,2.04-4.76,3.03-8.68,7.02-12.36,11.22-3.12,3.55-6.14,7.24-8.12,11.59-1.45,3.19-2.84,6.45-3.82,9.8-2.2,7.54-5.26,14.64-10.33,20.68-8.45,10.06-19.08,16.25-32.31,17.72-3.36.37-6.68,1.1-10.02,1.65-1.04.17-2.07.33-3.17.5,0-.55-.09-.85.01-.96,3.51-3.52,6.88-7.22,10.64-10.46,2.06-1.78,4.74-2.91,7.25-4.1,7.01-3.32,13.27-7.67,18.18-13.67,3.14-3.84,6.02-7.92,8.68-12.11,3.72-5.85,7.57-11.6,12.37-16.6,5.47-5.7,11.55-10.74,18.17-15.07,2-1.31,4.34-2.11,6.56-3.06,2.49-1.07,4.9-.74,7.14.82Z"/>
  <path class="cls-1" d="M145.84,137.29c-.88-2.52-.8-4.15-.26-5.8,2.49-7.54,7.11-13.48,13.69-17.84,2.33-1.54,5-2.35,7.89-2.22,3.88.19,6.51,2.32,8.61,5.35,1.23,1.77,1.26,1.75,2.95.6,2.71-1.85,5.47-3.46,8.71-4.37,5.77-1.62,12.51.97,16.01,5.96,3.15,4.49,4.65,9.61,5.11,14.96.23,2.64,1.21,3.8,3.63,4.6,3.44,1.13,6.81,2.55,10.06,4.15,3.52,1.73,6.44,4.27,8.69,7.57,2.33,3.41,3.24,7,1.81,11-.68,1.9-1.38,3.78-2.3,6.32-.94-1.87-.69-3.18-.6-4.37.31-4.5-1.69-7.66-5.39-9.97-4.86-3.03-9.98-5.47-15.51-7.03-.81-.23-1.63-.46-2.43-.72-3.47-1.09-5.42-3.46-5.97-7.05-.44-2.87-.81-5.76-1.49-8.58-.62-2.58-1.57-5.09-3.62-7-1.93-1.79-4.1-2.71-6.62-1.6-2.2.97-4.28,2.22-6.36,3.42-.73.42-1.31,1.08-1.98,1.61-3.87,3.03-7.97,2.19-9.33-2.67-.26-.93-.61-1.84-1.01-2.72-1.73-3.86-3.63-4.69-7.53-3.06-1.55.65-3.07,1.53-4.36,2.6-3.95,3.27-7.51,6.9-9.72,11.64-.71,1.52-1.54,2.97-2.71,5.21Z"/>
  <path class="cls-1" d="M367.5,274.85c-5.95-.34-11.69.87-17.31,2.39-4.78,1.3-9.45,3.03-14.08,4.79-5.48,2.08-11.07,3.2-16.94,3.79-11.02,1.11-21.1-2.08-31.17-5.62-2.71-.95-5.19-2.64-7.71-4.09-8.83-5.06-18.35-8.21-28.31-10.01-1.91-.35-3.92-1-6.01-.13-.63.26-1.81-.3-2.52-.8-.94-.67-.17-1.53.17-2.27.77-1.72,2.32-2.45,3.99-2.89,5.08-1.37,10.14-2.11,15.41-.74,6.85,1.78,13.5,4.07,19.56,7.7,8.55,5.13,17.86,8.25,27.47,10.22,9.94,2.04,20,1.62,29.96-.75,7.8-1.86,15.73-2.92,23.78-2.56,1.26.06,2.73-.38,3.71.98Z"/>
  <path class="cls-1" d="M232.14,192.49c.37,8.95-9.14,18.78-19.11,17.85-5.85-.54-10.07-3.86-13.56-8.31-.22-.28-.43-.6-.57-.93-1.05-2.47-2.95-3.48-5.58-3.86-4.13-.59-7.04-3.1-8.83-6.83-2.38-4.94-2.2-10.06-.88-15.23.06-.23.15-.46.24-.69.52-1.25,1.11-2.73,2.71-2.42,1.56.3,1.79,1.79,1.73,3.22-.12,2.81.2,5.58,1.09,8.25.38,1.14.83,2.31,1.5,3.28,1.38,2,3.52,2.47,5.73,1.44.44-.2.85-.48,1.29-.68,3.2-1.42,5.91-.58,7.87,2.34,1.41,2.11,2.7,4.35,4.41,6.19,2.56,2.75,5.2,2.62,7.93.08,5.35-4.97,6.39-11.13,5.02-17.98-.18-.89-.39-2.52-.13-2.62,1.29-.5,1.78.88,2.45,1.61,3.95,4.32,6.79,9.16,6.69,15.26Z"/>
  <path class="cls-1" d="M137.4,182.82c5.93-.11,11.44-1.93,16.88-4.03.79-.31,1.53-.75,2.31-1.07,4.29-1.74,5.72-1.45,8.88,2.11,1.38,1.55,3.21,2.09,5,2.82.3.12.78.46.75.61-.09.43-.3,1-.64,1.17-2.39,1.2-4.82,2.4-7.61,1.98-2.23-.33-4.24.09-6.34.96-6.3,2.62-12.9,4.28-19.72,4.47-3.71.1-7.48-.41-10.91-2.28-4.55-2.48-6.88-6.29-7.23-11.4-.26-3.81.14-7.53,1.72-11.03.65-1.43.68-2.7.24-4.19-2.48-8.46.05-15.75,5.55-22.19,1.7-1.99,3.96-3.23,6.77-2.65.4.08.96.42,1.05.75.09.35-.16,1.01-.47,1.21-5.94,3.89-7.56,9.75-7.45,16.36.05,3.32.25,3.49,3.61,4.7,3.67,1.32,4.94,4.81,2.58,7.41-.68.75-1.78,1.3-2.78,1.56-1.3.34-1.81,1.1-1.91,2.29-.16,1.78-.78,3.48-.2,5.37.85,2.79,2.27,4.39,5.19,4.8,1.56.22,3.15.18,4.72.26Z"/>
  <path class="cls-1" d="M255.41,332.79c0-1.44.01-2.87,0-4.31-.05-5.17-4.74-11.38-12.74-10.33-8.21,1.08-14.19,5.51-17.91,12.77-2.03,3.97-3.45,8.26-5.07,12.43-1.27,3.27-2.35,6.62-3.64,9.88-2.02,5.09-5.71,8.67-10.5,11.15-7.67,3.96-15.85,5.47-24.37,4.3-6.31-.87-12.01-3.58-17.41-6.98-4.53-2.85-8.06-6.59-10.76-11.17-.83-1.41-1.6-2.86-1.61-4.63.53.06.84.02.9.11,5.6,10.05,14.6,15.23,25.44,17.73,10.35,2.39,19.64-.03,28.12-6.19,1.95-1.42,3.3-3.28,4.15-5.42,1.6-4.04,2.91-8.2,4.45-12.28,1.49-3.96,2.8-8.04,4.75-11.77,4.45-8.54,11.46-14,21.01-15.93,4.99-1.01,9.67-.03,13.92,2.72,3.67,2.38,5.77,8.2,4.6,12.62-.51,1.94-1.06,3.93-2.49,5.45-.28-.05-.56-.1-.85-.15Z"/>
  <path class="cls-1" d="M429.15,84.27c2.94-7.2,7.38-13.24,13.83-17.73,2.49-1.73,4.92-3.54,7.91-4.42,3.71-1.09,7.48-.99,11.2-.42,3.77.57,7.45.47,11.22.02,8.52-1,16.16,1.03,22.3,7.34,4.19,4.31,3.9,8.57-1.19,11.81-3.35,2.13-7.08,3.7-10.75,5.27-3.23,1.38-6.56,2.53-9.92,3.55-7.61,2.31-13.35,6.74-16.67,14.09-.08.18-.37.28-.57.42-.95-1.35-.04-2.5.47-3.63,3.24-7.28,8.98-11.89,16.12-15.02,4.44-1.95,8.86-3.97,13.22-6.09,1.62-.79,3.09-1.92,4.58-2.96,1.01-.71,1.1-1.63.04-2.36-1.59-1.1-3.16-2.32-4.92-3.07-3.88-1.65-8-1.98-12.15-1.27-4.72.81-9.43.76-14.14,0-3.64-.58-6.95.02-10.07,2.04-3.46,2.24-7.06,4.27-10.53,6.5-2.24,1.44-4.35,3.09-6.53,4.63-.94.67-1.91,1.31-2.86,1.96-.19-.23-.38-.46-.57-.69Z"/>
  <path class="cls-1" d="M245.2,333.96c-4.73-.11-7.59,2.61-9.93,5.9-1.82,2.56-3.37,5.33-4.82,8.12-2.96,5.7-5.65,11.55-8.69,17.21-2.61,4.84-6.09,8.98-10.46,12.43-5.91,4.68-12.64,6.68-20,6.29-6.15-.32-12.24-1.33-18.16-3.24-10.4-3.37-18.74-9.47-25.09-18.35-.73-1.02-.53-1.54.68-1.65,4.24-.4,7.79,1.43,11.2,3.58,1.33.84,2.54,1.88,3.75,2.88,5.56,4.57,11.99,7.29,18.95,8.74,3.54.74,7.15,1.3,10.76,1.52,8.86.56,15.59-3.58,21.11-10.12,3.95-4.68,6.45-10.24,9.54-15.45,2.77-4.68,5.73-9.27,8.79-13.78,1.97-2.91,4.9-4.68,8.3-5.53,1.43-.36,3.09-.68,4.09,1.44Z"/>
  <path class="cls-1" d="M488.01,190.06c-.42.24-.6.43-.79.45-8.97.79-14.05,6.31-17.17,14.16-.89,2.25-1.46,4.62-2.33,6.88-1.77,4.59-4.07,8.81-8.55,11.41-3.48,2.01-7.32,2.45-11.19,2.64-3.03.15-6.07.03-9.1-.03-2.92-.05-5.43.94-7.71,2.74-4.56,3.61-9.17,7.16-13.77,10.72-.26.2-.64.26-1.28.5-.06-1.09-.23-2.02-.13-2.93,1.11-10.39,9.68-18.77,20.1-19.88,2.31-.24,4.53-.27,6.84-.03,2.88.3,5.82.25,8.73.12,3.32-.14,6.12-1.48,7.9-4.42,1.57-2.59,3.06-5.22,4.48-7.89,2.6-4.88,5.81-9.24,10.51-12.31,3.7-2.42,7.85-3.02,12.16-2.8.4.02.78.39,1.29.67Z"/>
  <path class="cls-1" d="M201.89,223.4c-2.18,1.67-4.4,3.3-6.54,5.01-5.41,4.32-10.9,8.52-17.22,11.48-3.2,1.5-6.47,2.64-10.1,2.7-3.76.06-7.18-1.02-10.48-2.62-6.5-3.15-12.07-7.66-17.5-12.33-3.39-2.91-4.74-6.78-5.28-11.21-.59-4.79-.04-9.72-1.64-14.4-.09-.26.36-.7.56-1.06.37.23.96.37,1.08.69.84,2.14,1.66,4.28,2.32,6.48.83,2.78,1.44,5.62,2.27,8.4.79,2.63,2.31,4.79,4.69,6.26,4.54,2.8,9.07,5.63,13.64,8.38,6.52,3.92,13,4,19.46-.24,2.13-1.4,4.36-2.62,6.54-3.95,5.56-3.38,11.62-4.35,18.2-3.58Z"/>
  <path class="cls-1" d="M128.39,320.36c.14-.83.11-1.44.34-1.93,1.86-4.08,3.63-8.22,5.7-12.2,4.28-8.24,10.73-14.48,19.03-18.45,4.39-2.1,7.31-5.1,9.08-9.39,1.85-4.48,3.42-9.07,5.2-13.58,2.05-5.18,5.34-9.52,9.49-13.19,2.34-2.07,3.29-2.16,6.91-.77-4.54.17-6.1,3.13-7.84,5.97-3.24,5.29-4.44,11.21-5.54,17.18-.88,4.8-2.36,9.4-5.03,13.55-1.69,2.61-3.8,4.77-6.69,5.98-6.69,2.79-11.79,7.47-16.46,12.9-4.04,4.69-8.62,8.91-12.98,13.33-.22.22-.59.3-1.22.6Z"/>
  <path class="cls-1" d="M250.01,200.06c.58-1.15,1.09-2.33,1.74-3.44,2.4-4.07,4.87-8.1,7.26-12.18.98-1.67,1.92-3.37,2.68-5.15.64-1.49.26-2.13-1.39-2.61-1.73-.51-3.52-.82-5.27-1.29-1.04-.28-2.13-.55-3.05-1.08-2.22-1.31-2.94-3.69-1.63-5.9.85-1.43,2.04-2.7,3.27-3.84,4.08-3.8,8.38-7.38,12.32-11.31,2.47-2.47,4.55-5.35,6.58-8.21.93-1.31,2.16-3.02,1.09-4.65-1.2-1.83-3.29-.84-5.03-.79-.23,0-.46.13-.69.21-.76.27-1.73.95-2.05-.28-.1-.37.94-1.32,1.61-1.56,2.24-.81,4.48-1.82,6.98-.67,1.86.85,2.83,2.11,2.93,4.17.11,2.28-.65,4.3-1.64,6.25-2.38,4.7-5.78,8.67-9.35,12.48-2.57,2.74-5.36,5.27-8.54,8.36,1.45.38,2.28.7,3.14.79,2.49.28,4.68,1.18,6.52,2.9,2.12,1.99,2.82,4.38,2.26,7.26-.81,4.11-3,7.44-5.95,10.2-3.35,3.14-7,5.97-10.54,8.91-.83.69-1.75,1.29-2.63,1.93l-.63-.5Z"/>
  <path class="cls-1" d="M435.62,101.66c-.47.46-.89.99-1.41,1.37-6.49,4.72-12.84,9.59-18.2,15.62-.73.82-1.4,1.69-2.16,2.46-4.49,4.56-5.2,10.46-5.87,16.37-.25,2.17-.46,4.34-.77,6.49-.54,3.75-2.6,6.22-6.34,7.07-4.02.91-7.78,2.44-11.61,3.93-4.47,1.74-9.32,2.49-14.02,3.61-.8.19-1.7.12-2.53,0-1.14-.17-1.57-1.32-.8-2.17.48-.53,1.11-.93,1.72-1.32,7.27-4.63,15.4-6.98,23.7-8.87.44-.1.98-.02,1.41.14.45.17.83.53,1.24.81.41-.71,1.07-1.39,1.2-2.15.39-2.26.44-4.58.85-6.84,1.73-9.41,5.9-17.62,12.38-24.65,3.67-3.99,8.18-6.83,13.07-9.08,2.58-1.18,5.2-2.26,7.81-3.39.12.19.24.39.35.58Z"/>
  <path class="cls-1" d="M361.01,159.34c4.88.18,8.87,1.97,11.71,5.51,2.41,3,4.26,6.45,6.31,9.74.18.3-.04.84-.07,1.27-.45-.04-.99.07-1.35-.13-3.12-1.86-6.24-3.72-9.31-5.68-4.23-2.7-8.89-3.13-13.66-2.5-4.67.61-9.28,1.65-13.7,3.38-5.54,2.17-11.39,3.18-17.21,4.28-.94.18-1.94.11-2.9.01-.37-.04-.69-.5-1.04-.77.29-.35.55-.74.88-1.04.16-.15.45-.15.68-.22,7.91-2.37,15.34-5.88,22.78-9.42,5.38-2.56,11.18-3.89,16.87-4.43Z"/>
  <path class="cls-1" d="M260.23,71.06c-5.9-.39-10.91-.04-15.52,3.11-.47-.9-.13-1.73.78-2.25,1.26-.72,2.54-1.52,3.91-1.89,3.02-.81,6.07-1.68,9.16-1.97,5.01-.48,5.91,2.99,4.4,6.55-.88,2.09-2.3,3.97-3.64,5.83-1.35,1.86-2.9,3.57-4.51,5.52.98.39,1.86.71,2.71,1.09,3.43,1.55,4.9,4.76,3.74,8.36-1.06,3.27-2.88,6.14-5.06,8.76-2.64,3.17-5.31,6.3-8.01,9.41-.42.49-1.04.8-2.05.84.54-1.14,1.12-2.27,1.62-3.43,2.08-4.76,4.14-9.52,6.19-14.3.28-.66.51-1.37.62-2.07.12-.75-.05-1.44-.95-1.7-.69-.21-1.37-.46-2.05-.73-4.39-1.74-5.29-4.74-2.45-8.49.8-1.06,1.82-1.95,2.75-2.9,1.94-2,3.95-3.95,5.82-6.02.86-.94,1.46-2.11,2.54-3.71Z"/>
  <path class="cls-1" d="M110.17,251.2c-3.07.12-6.05-.31-8.81-1.73-3.56-1.83-4.62-4.93-2.85-8.52,1.96-3.98,5.18-6.7,9.15-8.49,1.86-.84,3.89-1.3,5.84-1.94,2.98-.98,5.95-1.98,8.94-2.91.33-.1.79.23,1.19.36-.14.3-.19.73-.42.89-2.1,1.41-4.2,2.83-6.38,4.13-2.9,1.74-5.97,3.22-8.76,5.11-1.34.91-2.32,2.43-3.29,3.8-.79,1.11-.51,1.68.88,2.02,3.4.82,6.83,1.56,10.24,2.34.21.05.39.25.74.48-1.33,2.79-4.39,3.06-6.57,4.55l.1-.08Z"/>
  <path class="cls-1" d="M165.42,198.86c-.62,5.28-5.76,9.37-10.42,8.53-1.6-.29-3.03-1-3.8-2.52-.23-.45-.17-1.24.1-1.66.16-.26,1.1-.33,1.47-.11,2.42,1.47,4.67.84,6.84-.46,1.93-1.15,3.78-2.44,5.82-3.78Z"/>
</svg>