<?xml version="1.0" encoding="UTF-8"?>
<svg id="Layer_1" data-name="Layer 1" xmlns="http://www.w3.org/2000/svg" version="1.1" viewBox="0 0 595.28 608.86">
  <defs>
    <style>
      .cls-1 {
        fill: #000;
        stroke-width: 0px;
      }
    </style>
  </defs>
  <path class="cls-1" d="M514.25,151.85c3.11-2.96,5.82-2.92,8.62-1.73,2.81,1.19,3.47,3.58,3.01,6.34-.22,1.3.24,1.82,1.45,1.81,7.57-.09,15.15-.1,22.71-.35,3.08-.1,5.92-1.22,8.36-3.92-3.11-2.18-6.57-3.1-10.19-3.4-1.32-.11-1.69.66-.61,1.74.24.24.41.92.27,1.07-.28.3-.85.58-1.22.51-2.38-.48-3.75-1.84-3.84-3.67-.1-2.04.79-3.47,3.23-4.23,3.93-1.22,8.01-1.06,11.91,0,5.87,1.61,11.64,3.57,17.41,5.5,2.65.89,4.36,3.22,4.06,5.36-.38,2.66-2.03,4.43-4.6,5.02-4.85,1.1-9.72,2.12-14.62,2.93-3.51.58-6.91,1.23-9.73,4.18-1.97-3.68-.16-6.46,1.37-9.86-5.44.81-10.46,1.33-15.37,2.36-4.88,1.02-10.16.67-15.42,3.64,1.98.91,3.14,1.39,4.26,1.96,3.96,2.01,5.4,5.64,3.41,9.67-1.36,2.77-2.69,5.33-2.24,8.6.14.98-.91,2.4-1.81,3.18-1.56,1.36-3.4,2.39-5.15,3.53-3.03,1.97-3.47,3.31-2.59,6.79.67,2.64,1.25,5.31,1.64,8,2.25,15.53,1.19,30.72-4.38,45.54-2.65,7.06-6.85,13.09-11.49,18.86-5.94,7.4-12.13,14.6-18.03,22.03-5.64,7.1-10.14,14.83-12.41,23.74-2.33,9.16-2.86,18.26.19,27.61-.62-.56-1.57-1-1.8-1.69-1.13-3.32-2.61-6.65-2.97-10.08-1.13-10.92.49-21.45,5.45-31.38,4.2-8.41,10.02-15.7,15.64-23.14,5.04-6.66,10.02-13.37,14.8-20.22,4.12-5.92,5.78-12.86,7.27-19.78,1.75-8.11,1.37-16.34.91-24.53-.27-4.79-1.26-9.53-1.86-14.3-.15-1.19-.72-1.62-1.85-1.72-3.34-.27-6.68-.68-10.03-.87-.57-.03-1.49.61-1.7,1.16-.45,1.17-.63,2.47-.77,3.73-.54,4.86.17,9.69,1.29,14.35,1.68,6.94,2.13,14.03,2.24,21.03.26,17.02-5.03,32.18-16.76,44.93-5.87,6.38-11.83,12.73-16.47,20.15-5.62,8.98-8.68,18.64-7.87,29.29.47,6.17,1.98,12.11,5.85,17.08,1.32,1.7,3.27,3.12,5.23,4.06,3.33,1.61,6.16-.49,6.09-4.18,0-.48-.14-.95-.22-1.42-.58-3.09.31-4.05,3.29-3.13,5,1.53,7.38,5.15,5.22,11.48-1.98,5.8-9.21,9.6-15.27,8.35-5.22-1.08-9.64-3.64-12.86-7.93-4.96-6.59-7.59-14.06-8.21-22.3-1.31-17.22,4.54-31.91,15.68-44.71,5.39-6.19,11.06-12.13,16.49-18.28,6.46-7.33,9.79-16.05,11.48-25.61,1.3-7.38.85-14.76.77-22.15-.04-4.16-.52-8.34-1.09-12.47-.53-3.91.08-7.65,1.1-11.35,1.01-3.65,1.56-3.97,5.4-4.1,5.02-.17,9.97-.72,14.23-3.68,2.47-1.71,4.79-3.65,7.09-5.58.35-.3.55-1.28.33-1.69-1.61-2.98-.21-5.24,1.56-7.47.48-.61.91-1.27,1.69-2.37-1.6-.24-2.77-.41-3.94-.59-4.16-.64-5.32-1.76-5.93-6.11-.17-1.22-.62-1.81-1.77-1.62-3.64.6-7.81-.38-10.43,3.54-.25.38-2.37.18-2.86-.4-1.08-1.26-2.21-1.07-3.47-.88-10.61,1.6-21.18,3.41-31.71,5.57-7.84,1.61-15.78,2.89-23.75,3.61-8.02.73-15.88,2.23-23.76,3.66-9.62,1.75-19.22,3.61-28.86,5.27-3.01.52-5.03,1.78-5.7,4.87-.2.93-.45,1.86-.83,2.73-.13.3-.84.63-1.08.51-.33-.15-.49-.71-.68-1.12-.05-.11.1-.29.14-.45,1.18-5.38.02-4.9-4.61-4.4-.16.02-.31.13-.46.14-3.81.12-5.53,2.17-6.22,5.85-.68,3.6-1.91,7.12-3.08,10.61-1.45,4.34-1.82,8.79-1.75,13.31.03,1.93.16,3.86.21,5.8.19,7.61-1.72,10.67-9,13.55-5.22,2.06-10.61,3.7-15.88,5.64-6.5,2.39-12.05,6.03-15.67,12.19-1.24,2.12-1.68,3.92.03,6.16,1.82,2.37,3.13,5.13,4.39,8-1.89-.51-3.24-1.7-4.65-2.87-4.81-4.02-9.65-8.01-14.52-11.96-7.36-5.99-16.06-9.35-24.84-12.55-3.76-1.37-7.47-2.91-11.17-4.45-.85-.35-1.62-.99-2.27-1.65-.16-.16.24-1.3.54-1.38.75-.19,1.62-.17,2.37.03,7.74,2.02,15.47,4.07,23.19,6.16,8.12,2.2,14.97,6.55,20.86,12.48.44.44.97.79,1.51,1.24,3.1-8.42,8.67-14.39,16.58-18.14,4.65-2.21,9.32-4.39,14.09-6.29,3.65-1.46,5.18-3.58,4.7-7.71-.96-8.28.62-16.32,3.47-24.1.83-2.25,1.95-4.39,2.94-6.58.28-.62,1.25-1.05.16-1.94-1.9-1.54-.7-2.42.88-3.02,3.13-1.2,6.24-2.46,9.43-3.51,1.5-.49,2.83-1.47,4.75.24,1.73,1.53,5.07-.87,5.3-3.4,1.75-19.1,6.32-37.63,11.32-56.07,2.6-9.6,5.33-19.18,8.13-28.72.62-2.12,1.73-4.12,2.83-6.06.27-.47,1.41-.66,2.11-.59.33.03.8.97.81,1.5.05,2.09.12,4.21-.15,6.28-2.19,16.88-4.86,33.68-9.57,50.07-3.01,10.49-6.46,20.85-9.72,31.27-.24.76-.67,1.51-.69,2.28-.01.41.61,1.15,1,1.2.94.11,1.94,0,2.87-.21,6.21-1.35,12.4-2.74,19.76-4.38-2.6-.52-4.1-.99-5.63-1.09-3.21-.21-6.45-.11-9.65-.39-.93-.08-2.18-.83-2.59-1.63-.63-1.24.02-2.41,1.33-3.2,3.98-2.38,8.38-3.19,12.89-3.54,6.96-.54,13.92.18,20.53,2.13,6.73,1.99,13.22,1.84,19.96.61,11.51-2.11,23.08-3.92,34.62-5.87.6-.1,1.17-.43,2.09-.78-4.01-7.31-2.8-14.87-1.93-22.52,2.07-18.08-7.89-34.85-24.37-41.31-7.97-3.13-16.37-4.57-24.59-6.71-5.74-1.49-11.53-2.9-17.09-4.93-10.63-3.89-16.33-11.69-17.98-22.98-1.14-7.82-.49-15.37,1.28-22.9,1.2-5.09,3.63-9.64,7.5-13.24,1.27-1.18,2.9-1.96,4.38-2.91,1.21-.78,2.13-.07,2.99.67.17.15.13.54.19.82-.25.03-.54.15-.74.07-1.6-.68-2.37.6-3.25,1.44-3.97,3.83-6.14,8.72-7.1,13.97-1.39,7.63-1.08,15.3.71,22.92,1.82,7.76,6.58,12.81,13.95,15.26,5.01,1.66,10.2,2.81,15.36,3.94,9.23,2.04,18.69,3.13,27.56,6.66,17.31,6.89,27.22,19.61,30.39,37.96,1.19,6.85-.22,13.43-.67,20.13-.14,2.07-.39,4.12-.66,6.93,1.54-.92,2.53-1.5,3.51-2.1,2.05-1.25,4.02-2.68,6.17-3.73,3.24-1.59,5.39-.85,7.17,2.39.84,1.53,1.52,3.21,1.96,4.9.5,1.95,1.59,2.54,3.45,2.29,2.54-.34,5.12-.51,7.64-.93,1.65-.28,3.87-3,3.79-4.55-.03-.5-.57-1.12-1.05-1.4-.67-.39-1.48-.54-2.25-.74-.6-.15-1.21-.22-2.83-.51ZM488.31,162.24c3.97-.53,7.14-.81,10.22-1.44,1.44-.3,1.82-1.54,1.17-3.05-.86-2.02-1.36-2.4-3.08-1.54-2.81,1.4-5.61,2.84-8.31,6.03Z"/>
  <path class="cls-1" d="M214.12,286.51c-1.84,8.07-3.64,16.16-6.86,23.86-1.58,3.78-5.57,5.06-8.68,2.98-.8-.53-1.72-.89-2.53-1.41-4.51-2.87-9.17-2.66-13.82-.52-3.8,1.75-7.45,3.8-11.23,5.6-2.02.96-4.11,1.99-6.28,2.41-5.22,1.01-9.93-.12-13.51-4.38-1.14-1.35-2.15-2.81-3.29-4.16-2.96-3.53-3.74-3.79-7.65-1.14-3.18,2.15-6.1,4.72-9.03,7.23-5.13,4.4-10.12,8.96-15.26,13.35-3.2,2.73-6.71,4.98-10.81,6.17-5.52,1.6-10.11-.12-12.34-5.42-1.34-3.18-2.15-6.77-2.33-10.22-.36-6.75-.11-13.53-.13-20.3,0-1.58-.13-3.15-.23-5.47-1.65,1.26-2.89,1.96-3.81,2.95-5.8,6.25-11.53,12.56-17.27,18.85-5.09,5.59-10.04,11.31-15.32,16.72-3.12,3.2-6.96,5.2-11.75,3.88-.57-.16-1.23.04-1.85.09-2.23.18-4.46.44-6.7.54-4,.18-7.22-1.46-9.62-4.59-4.71-6.14-7.53-12.96-7.86-20.84-.56-13.62,1.01-27,4.33-40.16,2.88-11.38,5.7-22.8,9.39-33.92,6.1-18.4,15.31-35.17,29.97-48.23,8.77-7.81,18.28-14.9,29.45-18.98,20.04-7.33,37.9-3.1,53.44,11.28,7.4,6.85,12.67,15.35,18,23.8,4.29,6.8,8.52,13.64,13.09,20.25,3.12,4.5,7.05,8.32,11.65,11.44,8.56,5.79,22.62,3.94,29.56-5.09,1.07-1.4,1.98-2.92,3.04-4.33.21-.27.76-.28,1.16-.42.12.41.46.94.32,1.22-2.56,5.06-5.41,9.83-10.69,12.67-11.19,6.02-22.44,4.15-32.39-4.59-5.73-5.03-10.1-11.22-14.34-17.5-4.85-7.2-9.56-14.51-14.66-21.53-4.94-6.8-10.74-12.81-18.23-16.97-4.83-2.68-9.93-4.36-15.41-5.18-13.72-2.07-25.22,2.76-35.62,11.13-10.07,8.1-17.73,18.1-23.5,29.64-6.55,13.11-12.26,26.55-15.79,40.8-2.82,11.36-5.87,22.72-6.86,34.41-.67,8-.58,16.11-.2,24.13.23,4.86,3.08,9.12,5.61,13.19,2.02,3.25,6.45,3.44,9.79.64,2.34-1.96,4.51-4.17,6.47-6.5,4.66-5.54,9.06-11.29,13.74-16.81,4.89-5.76,9.5-11.8,15.67-16.33,2.2-1.61,4.32-3.3,7.33-3.24,3.62.07,5.88,1.41,6.76,4.92.66,2.63,1.02,5.38,1.1,8.09.16,6.28-.02,12.57.12,18.85.05,2.22.43,4.48,1,6.64.8,3.03,2.27,3.79,4.94,2.19,3.7-2.22,7.29-4.7,10.62-7.44,5.34-4.4,10.37-9.16,15.63-13.65,2.07-1.77,4.36-3.29,6.65-4.78,5.67-3.68,12.53-2.68,16.07,2.96,1.11,1.76,2.47,3.38,3.83,4.95,1.98,2.27,4.37,3.22,7.33,1.9,2.78-1.25,5.58-2.47,8.36-3.71,2.64-1.18,5.27-2.38,7.91-3.55,6.59-2.93,12.82-2.04,18.83,1.72,2.71,1.7,2.86,1.68,4.27-1.05,2.28-4.43,4.42-8.93,6.59-13.42.96-1.98,1.82-4,2.73-6,.36.14.72.28,1.08.42Z"/>
  <path class="cls-1" d="M101.24,390.15c-.7-4.14-1.73-7.9-1.83-11.69-.07-2.43.8-5.15,2.01-7.31,2.11-3.77,4.59-7.39,7.32-10.73,4.99-6.09,10.11-12.1,15.53-17.81,2.73-2.88,6.08-5.27,9.42-7.46,7.93-5.2,16.26-5.26,24.79-1.37,5.03,2.29,9.42,5.53,13.66,8.99,5.36,4.37,10.59,8.91,16.07,13.11,5.88,4.51,12.15,8.39,19.15,11.06,3.62,1.38,6.45.92,9.19-1.83,6.68-6.68,14.88-10.63,24.04-12.52,2.36-.49,3.62-1.63,4.7-3.58,5-9.08,6.14-18.76,5-28.93-1.17-10.38-5.22-19.82-9.01-29.37-4.91-12.39-9.97-24.74-13.02-37.77-1.42-6.1-2.74-12.24-2.45-18.57.2-4.35,1.01-8.61,2.9-12.57.61-1.29,1.41-2.54,2.35-3.61,1.17-1.32,2.65-1.67,4.34-.44-4.54,6.65-4.52,13.87-3.08,21.28,1.72,8.89,4.85,17.31,8.55,25.53,5.08,11.29,10.34,22.5,15.36,33.82,4.21,9.49,6.69,19.37,6.48,29.89-.16,8.1-2.85,15.07-8.1,21.13-.42.48-.83.97-1.27,1.49,12.53,2.06,24.89,4.81,37.39,5.97,14.36,1.33,28.15-1.64,40.52-9.61.54-.35,1.09-.69,1.6-1.07,3-2.26,4.41-5.13,2.97-8.81-2.27-5.83.29-10.24,4.56-13.53,5.46-4.21,11.35-7.86,17.15-11.61,4.87-3.15,9.84-6.09,13.05-11.21,2.69-4.31,3.66-8.92,2.71-13.84-1.68-8.66-.6-16.93,3.02-24.91.33-.72.72-1.44,1.23-2.03.25-.28.86-.34,1.29-.32.17,0,.45.51.44.78-.03.95-.07,1.92-.26,2.85-.42,2.04-.85,4.08-1.42,6.08-1.4,4.96-.8,9.89.28,14.76,2.61,11.73-.55,21.31-10.4,28.39-3.65,2.62-7.55,4.9-11.3,7.39-3.75,2.49-7.53,4.94-11.16,7.59-3.02,2.21-4.79,4.79-3.37,9.05,1.61,4.84-.08,9.09-3.9,12.56-3.77,3.42-8.19,5.72-12.81,7.59-8.25,3.34-16.83,5.05-25.78,5.36-10.7.37-21.14-1.25-31.52-3.42-6.5-1.36-13.04-1.78-19.64-1.52-.16,0-.32,0-.48.01-3.39.09-6.03,2.04-8.84,3.56-3.62-1.52-6.47.42-9.26,2.2-2.7,1.72-5.21,3.73-7.81,5.62-.13.09-.25.21-.35.33-4.99,5.77-11.03,5.91-17.54,3.2-8.69-3.62-16.39-8.84-23.68-14.74-6.13-4.95-12.23-9.93-18.51-14.7-2.14-1.63-4.71-2.73-7.16-3.91-6.06-2.93-11.99-2.1-17.38,1.49-3.72,2.48-7.36,5.31-10.38,8.58-5.77,6.27-11.15,12.89-16.53,19.5-4.39,5.39-6.36,11.8-7.2,18.62-.1.77-.4,1.52-.63,2.27-.04.12-.24.18-1.04.74Z"/>
  <path class="cls-1" d="M256.87,47.2c2.11-2.86,3.89-5.74,6.14-8.2,4.86-5.3,11.06-6.33,17.62-4.15,6.37,2.12,11.69,5.96,15.66,11.52,1.8,2.52,2.45,5.25,1.76,8.19-.16.7-1.28,1.18-1.97,1.75-.49-.58-1.4-1.16-1.41-1.75-.02-3.01-2.08-4.67-4.09-6.22-3.99-3.07-8.32-5.41-13.6-5.43-2.44,0-4.43.78-5.89,2.7-2.83,3.71-4.85,7.51-2.28,12.35,1.1,2.07,1.71,4.35.89,6.95-.88,2.83-2.61,4.49-5.28,4.99-2.79.53-5-.89-6.54-3.18-.62-.92-1.1-1.98-1.44-3.04-.85-2.69-2.9-3.84-5.43-4.09-11.4-1.14-21.69,1.78-30.53,9.1-1.49,1.23-2.44,3.39-3.09,5.3-1.75,5.17-3.64,6.84-9.04,6.61-9.41-.39-17.31,3.16-24.03,9.36-6.15,5.67-7.45,13.04-3.98,20.7,3.96,8.77,10.34,14.56,20.27,15.72.27.03.5.35,1.08.78-2.22,2.23-5.06,2.6-7.8,2.92-14.04,1.6-22.91-7.49-26.07-19.33-3.41-12.75.53-23.39,10.66-31.78,6.98-5.78,15.08-9.1,23.91-10.68,1.78-.32,2.67-.91,3.53-2.54,2.84-5.4,7.15-9.4,12.49-12.38,8.73-4.87,17.98-7.76,28.04-7.46,3.5.11,6.97.83,10.4,1.26Z"/>
  <path class="cls-1" d="M399.2,240.67c-2.21,7.63-4.42,14.38-4.91,21.41-.27,3.94.73,7.96,1.16,11.95.48,4.46,1.18,8.92,1.38,13.39.52,11.75-4.14,21.57-11.82,30.14-4.97,5.54-10.69,10.23-16.81,14.44-1.85,1.28-3.62,2.7-5.54,3.84-5.23,3.11-7.52,7.65-7.19,13.7.24,4.46-1.57,8.22-4.82,11.15-2.25,2.03-4.68,3.95-7.32,5.41-7.23,4.03-15.21,5.94-23.23,7.65-8.65,1.85-17.39,3-26.26,3.09-16.09.15-32.18.4-48.27.59-.3,0-.6-.19-1.08-.35,1.17-2.01,3.37-1.75,5.03-2.19,10.15-2.71,20.51-3.37,31.01-3.45,10.27-.08,20.57-.64,30.77-1.79,9.4-1.06,18.66-3.24,27.28-7.44,1.87-.91,3.71-1.94,5.42-3.13,3.66-2.56,5.7-6.03,5.53-10.63-.04-1.13.03-2.26-.01-3.38-.15-3.76,1.1-7.07,3.83-9.55,3.31-3.02,6.79-5.9,10.43-8.53,5.62-4.05,11.3-8.01,16.04-13.11,3.41-3.67,6.28-7.73,8.37-12.29,3.48-7.61,3.29-15.59,2.39-23.66-.78-6.99-2.25-14.05.08-20.99,1.78-5.31,3.71-10.6,5.97-15.72,1.01-2.29,1.41-4.17,0-6.27-.09-.13-.17-.28-.23-.42-.64-1.52-1.38-3.37.24-4.39,1.77-1.11,3,.69,3.91,1.91,4.69,6.33,9.25,12.75,13.88,19.13,11.36,15.66,21.09,32.31,30.02,49.44,1.04,1.99,2.23,3.91,3.26,5.91.13.26-.2.81-.42,1.15-.05.07-.66-.06-.83-.25-1.27-1.44-2.49-2.94-3.74-4.4-10.91-12.7-21.5-25.65-30.31-39.93-3.97-6.43-7.67-13.03-11.49-19.55-.4-.68-.81-1.35-1.72-2.87Z"/>
  <path class="cls-1" d="M69.82,557.42c-.43-.78-.99-1.52-1.28-2.34-2.97-8.47-6.17-16.87-7.59-25.79-1.46-9.1.17-17.61,5.11-25.37,3.94-6.18,9.57-8.08,16.71-5.93,2.3.69,4.59,1.44,6.82,2.34,4.35,1.74,8.36.77,11.78-1.94,3.76-2.99,7.38-6.25,10.61-9.81,6.61-7.28,13.37-14.4,21.06-20.54,9.17-7.33,19.73-11.25,31.42-12.12,1.28-.1,2.58-.04,3.86-.14,3.21-.27,5.95-1.44,7.61-4.37,2.14-3.77,4.43-7.47,6.25-11.39,4.34-9.36,8.9-18.62,15.58-26.54,3.28-3.9,7.22-7.29,11.11-10.61,1.51-1.29,3.7-1.81,5.62-2.58.26-.1.75.38,1.4.74-12.27,8.1-18.57,20.26-23.95,33.09-2.66,6.36-5.33,12.72-8.11,19.03-3.34,7.57-9.42,11.01-17.5,11.39-11.71.56-21.9,4.89-30.35,12.96-6.39,6.1-12.43,12.58-18.71,18.8-3.19,3.16-6.41,6.36-9.93,9.13-6.44,5.06-13.63,6.08-21.31,2.97-2.08-.84-4.19-1.62-6.33-2.29-2.96-.92-5.07-.4-6.62,2.18-1.55,2.58-2.99,5.36-3.75,8.25-1.89,7.18-2.58,14.47-1.37,21.93,1.01,6.21,1.54,12.51,2.28,18.77-.14.07-.29.14-.43.21Z"/>
  <path class="cls-1" d="M371.42,390.68c0,1.45.21,2.26-.03,2.89-1.98,5.2-1.25,10.42-.18,15.64.84,4.08,1.65,8.17,2.59,12.24,2.87,12.41,1.4,24.5-2.51,36.45-3.66,11.16-9.6,20.96-17.16,29.91-8.18,9.69-17.59,17.89-28.51,24.28-8.42,4.92-17.49,7.8-27.27,8.83-9.85,1.04-19.54-.09-29.28-.98-.64-.06-1.29-.06-1.93-.11-4.49-.3-8.97-.7-13.46-.87-7.56-.28-15.06.39-22.52,1.6-4.88.79-8.97,3.28-13.52,5.45.5-.58.91-1.27,1.51-1.72,5.62-4.26,11.93-6.69,18.97-7.53,8.3-.99,16.59-1.87,24.96-1.66,7.87.19,15.75.59,23.62.68,16.4.19,30.89-5.28,43.68-15.35,10.19-8.03,18.98-17.39,25.81-28.47,8.16-13.23,12.26-27.54,10.62-43.17-.45-4.29-1.68-8.49-2.41-12.76-.9-5.27-1.19-10.55.58-15.72,1.2-3.52,3.26-6.48,6.44-9.62Z"/>
  <path class="cls-1" d="M82.14,431.07c2.95,0,4.99.26,6.94-.05,5.49-.86,8.28-5.16,11.07-9.28,4.48-6.62,6.73-14.15,8.63-21.82,1.97-7.93,3.51-15.98,7.59-23.25,4.12-7.34,9.7-13.18,17.06-17.24,9.22-5.09,18.73-5.63,28.15-.85,7.58,3.84,14.95,8.11,22.28,12.4,6.5,3.81,12.9,7.81,19.22,11.91,6.17,4,12.55,4.23,19.25,1.71,3.1-1.17,6.23-2.27,10.29-3.74-1.16,2.75-2.65,3.7-4.29,4.53-4.82,2.46-10.15,2.79-15.36,3.55-1.17.17-2.55-.36-3.7-.87-4.1-1.82-8.16-3.7-12.19-5.68-10.8-5.31-21.49-10.86-32.41-15.94-4.02-1.87-8.45-3.24-12.83-3.81-5.73-.75-11,1.39-15.8,4.63-9.22,6.21-13.9,15.29-16.53,25.73-1.92,7.62-3.62,15.29-6.68,22.58-2.07,4.94-4.69,9.51-8.11,13.6-4.45,5.32-13.83,9.23-22.59,1.89Z"/>
  <path class="cls-1" d="M284.21,295.31c2.51,1.06,4.98,2.02,7.38,3.14,2.77,1.29,5.53,2.62,8.2,4.08,8.15,4.47,16.67,5.14,25.65,3.1,6.97-1.59,13.83-3.34,19.02-8.6,4.06-4.11,7.96-8.41,11.63-12.87,8.33-10.12,12.51-22.27,16.38-34.55.1-.3.24-.61.27-.92.43-3.79.53-3.7,2.37-5.61,2.68-2.77,5.02-5.76,6.51-9.45,1.19-2.93,2.94-5.67,4.67-8.34.97-1.51,1.48-2.8.44-4.41-2.06-3.19-.73-5.75,1.54-8.15.99-1.05,2.02-2.1,2.79-3.31,2.13-3.34,1.85-6.2-.73-9.22-.21-.24-.45-.46-.67-.69-.84-.88-2.42-1.72-1.01-3.04.47-.44,2.07-.04,2.94.4,4.5,2.26,8.24,9,4.25,16.24-1.34,2.43-1.97,4.3-.42,6.97,1.48,2.53.5,5.31-.95,7.77-2.12,3.58-4.03,7.31-6.45,10.68-1.45,2.02-3.56,3.67-5.63,5.11-1.55,1.07-3.46,1.76-5.31,2.19-1.94.45-2.32,1.42-2.6,3.28-1.67,11.12-4.23,22.01-9.57,32.05-4.1,7.71-9.27,14.69-15.24,21.02-6.18,6.55-14.18,9.94-22.87,11.49-4.87.87-9.88,1.02-14.84,1.27-5.16.26-9.72-1.59-13.97-4.47-5.53-3.75-9.75-8.8-14.01-13.82-.12-.14.08-.55.23-1.33Z"/>
  <path class="cls-1" d="M213.46,509.63c1.4-2.57,3.68-3.67,6.16-4.46,4.58-1.45,9.25-2.69,13.75-4.34,9.03-3.31,16.8-8.72,23.93-15.08,7.86-7,14.48-15.12,20.43-23.74,4.83-7.01,9.44-14.2,13.72-21.55,5.14-8.82,7.73-18.61,9.69-28.56,1.41-7.18,2.86-14.36,4.67-21.53,1.79,3.54.98,7.33,1.19,10.99.22,3.86.2,7.73.11,11.6-.09,3.82-.39,7.64-.63,11.9.97-.35,2.03-.52,2.85-1.06,6.84-4.5,13.72-8.96,20.41-13.67,2.02-1.42,3.5-3.6,5.4-5.62,1.56,2.6.34,4.68-1.1,6.19-2.97,3.13-6.05,6.26-9.53,8.79-5.09,3.7-10.93,6.08-16.93,7.99-1.23.39-2.16.66-2.65,2.26-3.91,12.83-11.62,23.58-19.32,34.29-6.3,8.76-13.14,17.12-21.26,24.31-8.63,7.65-18.13,13.93-29.34,17.07-6.62,1.86-13.4,3.13-20.11,4.62-.39.09-.86-.22-1.46-.4Z"/>
  <path class="cls-1" d="M94.56,145.84c6.34-9.01,11.68-18.71,20.53-25.89,11.14-9.04,23.64-7.55,34.23-.12,7.36,5.16,11.83,12.58,15.59,20.49,4.64,9.77,7.04,20.31,10.53,30.48,2.24,6.53,4.65,13,7.12,19.44.74,1.94,1.91,3.71,2.89,5.55,1.16,2.18,2.63,4.02,5.32,5.16-.94.14-1.98.62-2.8.38-2.91-.86-4.91-2.98-6.59-5.39-4.82-6.89-8.54-14.37-11.7-22.13-3.64-8.92-6.85-18.03-10.72-26.84-3.31-7.54-7.57-14.55-14.53-19.48-7.12-5.05-14.65-5.74-22.2-1.5-4.59,2.58-8.84,5.85-13,9.11-3.79,2.98-7.23,6.39-10.86,9.57-.9.78-1.94,1.4-2.92,2.09l-.87-.93Z"/>
  <path class="cls-1" d="M265.39,140.18c2.37-1.32,3.78-2.26,5.3-2.92,4.27-1.85,8.6-3.56,12.89-5.36,4.92-2.07,9.69-4.46,13.27-8.54,1.56-1.79,2.88-3.87,3.94-6,1.6-3.25,1.5-6.49-.9-9.47-.6-.74-1.11-1.61-1.42-2.5-1.05-2.96-.18-5.65,2.78-6.76,10.23-3.85,12.81-12.33,13.39-21.89.2-3.3-.42-6.7-.97-10-.25-1.53-1.07-3.05-1.95-4.36-.55-.82-1.72-1.76-2.55-1.7-.78.05-1.71,1.22-2.16,2.11-.64,1.26-.89,2.71-1.32,4.13-2.28-2.89-2.15-6.46.24-8.93,2.37-2.45,5.26-2.65,8.2-.46,2.67,2,4.26,4.8,5.35,7.87,2.72,7.66,2.76,15.38.59,23.19-1.54,5.55-4.06,10.49-8.43,14.32-1.14,1-1.31,1.85-.74,3.29,3.3,8.34.88,15.87-4.16,22.54-6.04,8-14.15,12.45-24.48,12.14-4.34-.13-8.69-.08-13.04-.16-.9-.02-1.8-.24-3.83-.54Z"/>
  <path class="cls-1" d="M260.63,195.04c2.81,2.68,5.14,5.11,7.69,7.29,4.94,4.23,10.67,6.18,17.26,6.29,14.99.24,28.87-3.27,41.91-10.76,8.29-4.76,12.81-11.85,15.18-20.74,1.46-5.45,1.51-10.71-1.17-15.91-1.57-3.05-1.95-6.41-.76-9.8.58-1.66,1.02-3.37,1.54-5.05,1.09-3.51.9-6.61-2.38-9.03-1.41-1.04-2.55-2.46-3.83-3.68-6.53-6.19-9.77-13.76-9.88-22.78-.04-3.35-.5-6.69.14-10.03.15-.77.36-1.53.65-2.25.09-.22.57-.48.79-.42.41.11,1.03.38,1.1.69.2.93.16,1.9.24,2.86.32,3.51.64,7.02,1,10.52.81,7.9,5.14,13.69,11.15,18.45,1.39,1.1,2.74,2.24,4.15,3.31,4.32,3.27,4.77,7.74,3.91,12.6-.11.62-.41,1.21-.65,1.81-1.79,4.65-1.91,9.21.04,13.93,1.52,3.65,1.14,7.55.28,11.38-1.62,7.12-4.23,13.76-8.71,19.65-3.12,4.11-7.29,6.76-11.63,9.22-12.93,7.32-26.67,11.75-41.7,11.79-10.05.02-17.55-4.54-23.18-12.48-1.32-1.86-3.25-3.6-3.14-6.85Z"/>
  <path class="cls-1" d="M186.22,272.57c-7.8,2.76-15.13,5.16-22.79,6.58-4.8.89-9.48,1.27-14.29.02-3.37-.87-6.34-2.32-8.77-4.76-2.16-2.16-4.46-4.26-6.18-6.75-3.19-4.6-7.45-5.69-12.63-4.91-2.68.4-5.41.56-8.1.88-5.08.61-8.62-1.88-11.53-5.66-.88-1.15-1.71-2.33-2.54-3.51-1.72-2.44-3.99-2.97-6.78-2.12-4.38,1.33-8.25,3.55-11.66,6.58-8.38,7.43-14.03,16.64-17.6,27.19-.15.44-.35.87-.67,1.64-1.87-1.39-2.18-2.87-1.67-4.96,2.89-11.8,9.26-21.47,18.25-29.4,3.6-3.18,7.87-5.49,12.66-6.71,5.53-1.41,9.05-.36,12.7,4.18.2.25.45.47.6.75,3.01,5.56,7.96,5.72,13.34,4.89,2.68-.41,5.4-.67,8.11-.83,3.94-.24,7.21,1.38,9.93,4.12,1.7,1.71,3.45,3.42,4.85,5.36,4.01,5.53,9.48,7.87,16.15,8.02,9,.2,17.96-.25,26.88-1.44.36-.05.77.37,1.72.85Z"/>
  <path class="cls-1" d="M412.98,44.36c-3.29,8.07-1.39,14.38,2.91,20.17,4.8,6.47,11.59,9.51,19.39,10.35,11.48,1.23,22.9,2.76,34.05,5.84,3.24.9,6.47,1.89,9.63,3.04,7.97,2.91,13.04,8.7,15.5,16.66,1.8,5.8,3.13,11.76,4.54,17.67.33,1.38.31,2.89.18,4.32-.58,6.22-1.23,12.43-1.94,18.64-.1.85-.68,1.65-1.2,2.85-2.06-2.82-1.87-5.83-2.4-8.54-1.22-6.28-1.83-12.67-3.06-18.95-.99-5.02-2.43-9.95-3.86-14.87-1.42-4.9-4.63-8.26-9.22-10.55-6.1-3.05-12.63-4.71-19.19-6.16-8.59-1.9-17.32-3.19-25.91-5.06-3.4-.74-6.78-2.02-9.87-3.64-8.5-4.46-12.82-11.96-13.8-21.27-.37-3.53-.01-7.35,4.26-10.48Z"/>
  <path class="cls-1" d="M243.43,170.23c-4.71-.87-9.49-1.52-14.12-2.72-2.12-.55-2.89.13-3.77,1.71-2,3.59-2.04,3.81.8,6.61,2.64,2.6,5.49,5,7.97,7.74,3.64,4.04,5.85,8.79,6.05,14.36.08,2.36-.61,4.44-1.83,6.39-1.85,2.96-5.29,4.31-8.7,3.31-1.52-.45-3-1.11-4.38-1.9-.91-.52-1.59-1.44-2.37-2.17.95-.36,1.87-.85,2.85-1.07,3.93-.87,5.14-2.69,4.19-6.55-.66-2.71-1.89-5.11-3.93-7.07-2.56-2.45-5-5.03-7.63-7.4-4.4-3.96-4.4-10.06-2.26-14.17.96-1.85,1.96-3.72,3.24-5.35,2.63-3.35,5.89-4.73,10.19-3.02,6.18,2.46,12.63,3.74,19.31,3.1,1.88-.18,3.82-.64,5.52-1.44,3.9-1.84,5.64-5.12,4.82-9.43-.31-1.65.14-2.48,1.32-3.12,1.53-.82,2.46.39,3.13,1.43.48.76.65,1.81.7,2.74.37,6.54-2.19,11.54-7.99,14.74-4.06,2.24-8.46,2.93-13.12,3.27Z"/>
  <path class="cls-1" d="M200.61,513.76c-.41.85-.44,1.07-.55,1.13-11.21,6.32-22.63,12.16-35.15,15.5-5.31,1.42-10.69,2.15-16.19,2.03-4.83-.11-9.67-.24-14.49-.05-6.9.27-13.24,2.47-18.86,6.48-4.66,3.33-7.4,8.01-8.4,13.61-.81,4.57-1.32,9.2-1.97,13.8-.7,4.93-2.62,9.26-6.51,12.51-1.5,1.26-3.23,2.29-5.29,1.66-.62-.19-1.05-1.04-1.56-1.6.44-.35.88-1.01,1.31-1.01,2.11.02,3.38-1.29,4.12-2.88,1.2-2.59,2.46-5.29,2.91-8.06.7-4.26.76-8.63,1.04-12.96.33-5.08,2.02-9.69,4.59-14.04,3.02-5.13,7.96-7.91,13.04-10.34,7.58-3.63,15.74-4.74,23.99-3.68,6.51.84,12.86.01,19.17-.91,12.42-1.82,24.24-5.97,35.95-10.42.71-.27,1.48-.41,2.88-.79Z"/>
  <path class="cls-1" d="M226.41,209.98c-1.59.68-2.17,1.17-2.68,1.11-4.92-.59-9.91-.91-14.71-2.04-6-1.41-10.65-5.23-14.29-10.13-2.94-3.96-3.88-8.67-2.6-13.3.71-2.56-.3-3.37-1.8-4.64-3.85-3.24-6.94-7.08-9.24-11.62-2.57-5.08-3.24-10.41-2.62-15.93.33-2.92,1.7-5.47,3.93-7.53,1.46-1.35,3.13-1.62,4.93-1.18,1.63.4,2.34,2.44,1.39,3.89-.17.26-1.03.45-1.13.33-2.01-2.57-2.83-.59-3.52.99-1.54,3.54-1.44,7.33-.37,10.86,2.64,8.77,7.83,15.42,16.89,18.32,1.5.48,2.72,1,3,2.69.29,1.75-.28,2.98-1.89,4.01-2.41,1.54-2.69,3.06-1.49,6.11,1.84,4.68,5.18,8.18,9.4,10.67,3.29,1.95,6.89,3.37,10.39,4.94,1.74.78,3.56,1.37,6.41,2.45Z"/>
  <path class="cls-1" d="M243.08,112.24c2.49,5.12,2.08,10.02-.81,14.69-3.09,5.01-7.64,8.12-13.21,9.89-6.65,2.12-12.13-.24-17.19-4.74,1.35.13,2.76.05,4.03.44,2.62.82,5.06.34,7.54-.48,5.25-1.74,9.3-5.03,12.24-9.65,2.5-3.92,1.88-5.72-2.44-7.87-1.7-.85-3.83-1.42-3.38-4.01.45-2.58,2.58-3.27,4.69-3.34,6.21-.21,11.49-2.7,16.46-6.13.4-.27.81-.54,1.16-.86,3.08-2.89,6.1-5.81,5.52-10.62-.13-1.04.26-2.14,1.44-2.01.79.08,1.95.81,2.16,1.49.83,2.68.57,5.36-.61,7.96-2.73,6.01-7.56,9.86-13.14,12.95-1.39.77-2.83,1.46-4.46,2.3Z"/>
  <path class="cls-1" d="M406.29,229.74c-.22-.5-.77-1.15-.62-1.49.51-1.14,1.13-2.29,1.95-3.21,4.06-4.56,9.38-7.31,14.9-9.5,14.47-5.75,29.41-9.95,44.68-12.96,5.17-1.02,10.38-1.77,15.59-2.56.47-.07,1.07.46,1.51.83.08.06-.25.91-.56,1.08-3.51,1.92-6.92,4.07-10.6,5.59-9.96,4.09-20.46,6.38-30.95,8.66-5.47,1.19-10.95,2.44-16.31,4.06-6.6,1.98-13.13,4.28-18.44,8.99-.22.19-.55.25-1.16.51Z"/>
  <path class="cls-1" d="M372.81,388.76c.1-2.02-.08-3.15.26-4.08.88-2.4,2-4.72,3.03-7.07,3.48-7.93,7.28-15.74,10.35-23.82,3.41-8.99,5.5-18.37,6.59-27.96.54-4.76,1.23-9.49,1.92-14.73,3.25,1.63,4.69,4.1,5.76,6.93,1.85,4.94.87,9.82-.26,14.69-3.43,14.84-9.29,28.64-17.7,41.36-2.57,3.88-5.01,7.85-7.54,11.75-.5.77-1.17,1.43-2.4,2.92Z"/>
  <path class="cls-1" d="M102.74,217.78c2.39-5.77,6.24-9.91,11.8-12.26,4.24-1.8,8.23-1.1,11.42,2.24,1.2,1.26,2.24,2.74,3.07,4.28,1.45,2.68,2.8,5.43,4,8.22,2.31,5.39,6.02,9.49,11.24,12.07,4.4,2.18,7.99,5.29,11.39,8.76,3.26,3.32,6.76,6.4,10.12,9.62.4.38.63.93,1.47,2.22-5.64-2.31-9.7-5.31-13.81-8.26-3.78-2.71-7.46-5.6-11.45-7.95-5.93-3.49-10.16-8.2-12.52-14.68-1.1-3.01-2.33-5.99-3.78-8.84-3.27-6.43-7.59-7.57-13.75-3.62-2.01,1.29-3.8,2.93-5.6,4.52-1.29,1.14-2.41,2.46-3.61,3.69Z"/>
  <path class="cls-1" d="M379.31,171.25c-9.03,1.48-16.86,2.75-24.69,4.05-1.66.28-2.85-.43-3.59-1.78-.89-1.61.15-2.91,1.3-3.68,1.7-1.13,3.58-2.36,5.53-2.67,6.53-1.07,13.06-1.12,19.12,2.22.51.28.92.73,2.33,1.86Z"/>
  <path class="cls-1" d="M325.74,132.35c-.33,1.34-.47,2.47-.88,3.49-2.9,7.22-8.85,11.15-15.56,14.21-.3.14-.88-.16-1.22-.41-.16-.11-.18-.66-.05-.89.38-.69.83-1.36,1.33-1.97,4.03-4.98,8.08-9.95,12.13-14.93.2-.25.32-.64.57-.76.69-.33,1.61-.95,2.1-.72.7.33,1.09,1.31,1.58,1.97Z"/>
</svg>