<?xml version="1.0" encoding="UTF-8"?>
<svg id="Layer_1" data-name="Layer 1" xmlns="http://www.w3.org/2000/svg" version="1.1" viewBox="0 0 595.28 638.14">
  <defs>
    <style>
      .cls-1 {
        fill: #000;
        stroke-width: 0px;
      }
    </style>
  </defs>
  <path class="cls-1" d="M422.46,167.93c-9.46,1.56-16.27-3.65-23.8-6.28-5.07-1.77-9.97-3.11-15.74-.54,1.55-4.98,5.34-6.24,8.93-6.66,5.95-.71,11.84.1,17.16,3.39,1.8,1.11,3.75,2.07,5.75,2.73,5.44,1.79,9.68-.35,11.44-5.73,3.11-9.51,6.03-19.09,9.2-28.58,1.68-5.05,3.7-9.99,5.58-14.98.7-1.85,1.6-3.52,4.64-3.32-4.32,14.45-8.6,28.74-13.02,43.55,6.08-2.7,11.29-5.49,16.82-7.31,5.19-1.71,10.67-2.9,16.12-3.43,8.05-.78,14.5,1.56,24.16,7.5,2.36-1.5,4.91-2.95,7.24-4.69,1.11-.83,2.1-2.12,2.6-3.42,1.19-3.08,3.5-4.71,6.41-5.78,1-.37,2.04-.67,2.98-1.16,6.32-3.26,12.04-1.41,17.35,2.3,5.71,3.99,11.38,8.11,14.53,14.62,6.33-1.44,12.26-3.03,18.28-4.07,4.78-.83,9.43-.16,12.62,4.19.86,1.18,1.79,2.49,2.08,3.87,1.08,5.26,1.08,10.55-.14,15.82-1.96,8.47-7.94,12.38-15.94,13.42-4.78.62-9.68.32-15.06.44-.09.16-.58.84-.84,1.61-2.46,7.14-6.23,13.48-10.98,19.34-5.76,7.11-11.06,14.58-16.91,21.61-5.21,6.27-11.5,11.25-19.23,14.37-5.1,2.06-9.83,5.06-14.94,7.09-8.7,3.47-17.77,5.5-27.19,5.81-4.02.13-8.04.67-12.05.62-5.79-.07-11.14-2.05-16.98-4.39,1.05-.61,1.6-1.2,2.01-1.12,9.7,1.95,18.98-.43,28.27-2.66,3.51-.84,6.96-1.94,10.43-2.92,11.51-3.24,21.08-9.95,30.44-17.03,10.91-8.24,20.67-17.74,29.32-28.27,8.32-10.13,13.22-21.81,12.73-35.23-.25-6.91-2.9-13.03-7-18.51-2.61-3.48-9.23-5.37-13.31-3.94-2.6.91-4.27,2.8-4.94,5.43-.41,1.61-.52,3.3-.75,4.87-12.16,2.05-11.95,4.72-10.49,13.94-6.84,4.01-6.59,10.5-5.52,17.62,1.59-.21,3.22-.43,4.86-.63,1.67-.2,3.34-.48,5.02-.54,2.47-.1,4.08,1.16,4.56,3.57.48,2.39-1.17,3.3-3.04,4.18-3.64,1.71-7.11,3.79-10.79,5.42-5.07,2.24-7.61,6.53-9.93,11.18-1.52,3.03-3.04,6.18-5.2,8.75-2.72,3.24-6.12,5.84-10.21,7.45-9.12,3.59-18.22,5.7-27.87,1.74-4.92-2.02-9.98-1.63-14.86.78-2.67,1.32-5.46,2.42-8.25,3.48-2.64,1.01-4,2.78-4.61,5.57-2.32,10.6-4.83,21.16-7.26,31.73-.05.21-.05.43-.1.63-.88,3.63-2.46,5.26-4.73,4.89-2.13-.34-4.2-2.86-3.87-5.84.43-3.78,1.46-7.51,2.46-11.19,1.51-5.52,3.23-10.99,5.2-17.65-4.06,1.68-7.13,2.82-10.1,4.19-7.59,3.51-15.56,4.37-23.7,3.03-3.29-.54-6.53-1.88-9.58-3.31-3.53-1.66-5.18-4.94-5.79-8.69-.1-.6.62-1.33.92-1.92.79.2,1.44.18,1.54.41,2.78,6.4,8.28,8.1,14.53,8.39,7.85.37,15.16-1.65,22.06-5.29.19-.1.35-.24.53-.36,4.03-2.72,9.22-4.66,11.78-8.39,2.57-3.75,2.55-9.29,3.64-14.05.42-1.84.75-3.71,1.19-5.91-.97-.1-1.83-.42-2.54-.22-9.36,2.72-18.68,5.54-28.03,8.27-3.46,1.01-6.94,1.99-10.46,2.72-1.31.27-2.78-.25-4.24-.93,14.52-8.76,31.33-10.75,46.94-16.12.78-2.96,1.47-5.6,2.27-8.65-4.45.09-8.16,1.44-11.87,2.79-9.4,3.42-18.76,6.94-28.22,10.2-2.05.71-4.42.47-7.15.72-5.55,5.3-11.82,11-17.76,17.03-7.2,7.31-15.52,10.25-25.88,9.35-14.97-1.3-28.66-5.95-41.73-13.06-4.67-2.54-9.54-4.72-14.42-6.86-4.09-1.79-8.28-3.58-13.64-.48.6-2.14.58-3.55,1.19-3.92,1.57-.97,3.48-2.18,5.14-2.03,3.77.34,7.65,1,11.18,2.33,7.78,2.93,15.35,6.38,23.04,9.56,10.59,4.37,21.68,6,33.08,6.02,4.71,0,8.63-1.59,12.03-4.86,4.59-4.42,9.5-8.51,14.01-13.01,8.99-8.97,15.06-19.49,16.35-32.41.47-4.75-.56-8.93-4.34-12.06-6.81-5.64-10.09-12.91-10.46-21.64-.02-.58-.44-1.14-.8-2-1.46.4-2.84.88-4.25,1.15-2.17.43-3.78-.42-4.57-2.51-.83-2.2.07-3.89,2.1-4.65,3.08-1.15,5.93-3.38,9.54-2.7,3.26,9.7,8.04,18.29,15.61,25.05,6.2,5.53,7.54,12.59,6.7,20.3-.9,8.33-2.86,16.37-7.65,23.46-.48.71-.99,1.39-1.9,2.68,1.68-.17,2.29-.09,2.76-.31,11.8-5.48,23.87-10.16,36.72-12.56,1.45-.27,2.79-1.06,4.22-1.47,2.08-.59,3.16-1.95,3.63-4,.77-3.31,1.64-6.6,2.71-10.89ZM561.64,167.15c-5.48,1.14-10.96,2.29-16.91,3.53-.06,1.72-.14,3.66-.21,5.75,5.96-.48,10.89-2.14,14.98-5.71.97-.84,1.33-2.39,1.97-3.61,1.68-1.45,1.95-3.06.73-4.89q-13.43,1.28-16.82,4.21c5.42.24,10.84.48,16.26.72ZM481.39,169.26c-18.94,5.1-37.89,10.2-56.59,15.23-.67,2.32-1.21,3.92-1.58,5.57-.35,1.55-.5,3.14-.81,5.16,21.94-5.93,43.42-11.35,66.02-13.29-.67-1.97-1.23-3.33-1.59-4.75-1.18-4.76-2.48-9.49,1.23-13.94.78-.94.72-2.77.65-4.16-.1-1.85-.59-3.67-.89-5.36-7.82-3.88-11-4.71-17.89-4.79-14.68-.16-27.3,5.35-38.7,14.13-.95.73-1.79,1.94-2.11,3.09-1.22,4.36-2.2,8.78-3.36,13.58,18.57-5.58,36.65-9.72,55.63-10.48ZM417.31,218.32c3.6-1.48,5.69-2.58,7.91-3.21,3.25-.92,6.62-2.2,9.89-2.07,4.16.16,8.25,1.68,12.41,2.39,3.32.57,6.86,1.64,10.01,1.01,6.44-1.28,12.97-3.29,18.2-7.28,5.21-3.98,9.57-9.1,10.03-16.3.21-3.26.83-6.37,4.32-9.42-24.21,4.55-46.6,10.69-69.28,17.17-1.11,5.62-2.2,11.18-3.49,17.71ZM545.09,160.36c6.09-.36,12.04-.71,18.05-1.07.16-2.83-.75-4.22-3.61-3.96-5.16.48-10.33.85-15.97,1.3l1.53,3.72Z"/>
  <path class="cls-1" d="M121.22,320.44c2.58-2.36,4.49-4,6.27-5.75,3.63-3.58,7.14-7.29,10.8-10.84,5.27-5.12,13.99-6.47,19.77,1.89,2.05,2.97,4.05,5.98,6.21,8.86,3.64,4.87,5.45,5.04,10.58,1.55,6.76-4.59,12.2-10.55,17.57-16.59,1.34-1.5,2.81-2.88,4.22-4.32.35.23.71.45,1.06.68-.23.83-.29,1.75-.7,2.47-3.8,6.65-7.44,13.41-11.57,19.85-3.01,4.68-7,8.5-12.39,10.65-5.08,2.03-9.81,1.5-13.7-2.11-3.06-2.85-5.45-6.44-8.07-9.75-1.02-1.3-1.86-2.74-2.66-3.94-3.55-.21-4.81,2.33-6.56,4.05-3.79,3.72-7.35,7.68-11.28,11.25-1.84,1.67-4.17,2.94-6.49,3.9-4.59,1.92-8.75.9-12.23-2.69-1.02-1.05-1.95-2.17-3.17-3.53-5.45,5.8-10.61,11.37-15.86,16.86-8.56,8.94-17.87,17.1-28.57,23.29-6.4,3.7-13.48,6.52-20.59,8.62-11.67,3.45-22.31-1.26-27.9-12.08-1.99-3.85-2.94-8.4-3.59-12.75-1.6-10.82-.65-21.68.64-32.47,3.05-25.55,9.55-50.21,20.25-73.65,7.01-15.37,15.65-29.75,27.16-42.29,7.57-8.25,16.19-15.25,26.34-19.78,17.33-7.74,34.75-8.05,51.22,2.61,6.95,4.5,13.46,9.7,20.04,14.76,6.63,5.1,13.57,9.65,21.52,12.34,11.64,3.95,23.28,4.94,34.74-.79.91-.45,1.88-.79,3.47-1.44-2.43,6.54-7.24,9.09-12.72,10.31-14.3,3.18-28,1.02-40.74-6.06-6.3-3.5-12.11-7.88-18.14-11.88-4.26-2.82-8.39-5.84-12.78-8.45-12.38-7.37-25.18-7.96-38.55-2.59-12.06,4.84-21.36,13.06-29.27,22.96-12.06,15.12-20.78,32.07-27.26,50.31-8.26,23.27-13.19,47.14-13.93,71.82-.17,5.49.33,11.06,1.13,16.5,1.21,8.21,6.38,11.56,14.53,10.39,8.07-1.16,14.73-5.3,21.31-9.61,12.74-8.36,23.12-19.34,33.3-30.51,2.58-2.83,4.97-5.85,7.63-8.6,1.61-1.66,3.4-3.27,5.39-4.41,4.41-2.53,8.28-1.17,10.42,3.44.97,2.09,1.77,4.25,3.12,7.53Z"/>
  <path class="cls-1" d="M239.83,192.46c-3.2,3.06-6.79,2.84-10.03,3.39-4.99.85-10.04,1.45-15.1,1.77-3.72.23-7.08-1.11-9.83-3.83-1.51-1.49-3.06-3.11-4.91-4.05-6.2-3.17-6.77-9.72-5.14-16.18.61-2.43,2.01-4.66,3.22-7.37-5.53-5.26-8.8-12-9.13-19.95-.33-7.8,2.76-14.51,7.31-20.94-.62-2.3-1.42-4.71-1.91-7.17-1.93-9.83,1.21-18.66,6.4-26.63,7.54-11.57,17.78-19.89,30.94-23.21,3.74-6.55,6.94-13.05,10.95-18.99,5.46-8.08,12.6-14.39,22.17-17.42,6.57-2.08,13.23-3.27,20-1.14,3.02.95,5.7.74,8.59-.65,5.58-2.69,11.49-4.43,17.74-4.84,6.06-.4,14.49,1.93,19.03,6.09,3.51,3.21,7.58,5.66,5.05,10.93-7.87-1.43-14.86-5.69-23.08-5.94-4.23-.15-8.18,2.09-10.17,5.82l-.03.06c-25.95-6.82-44.55,4.09-60.38,25.01,3.29-.42,5.44-.61,7.57-.98,6.69-1.14,13.13-.67,19.18,2.73,3.54,1.99,6.29,4.63,8.22,9.41-2.17-.49-3.49-.67-4.74-1.08-6.32-2.09-12.74-3.21-19.45-2.95-2.6.1-4.59.5-5.15,3.18-23.73-.08-43.07,18.81-40.74,40.02,2.19-.23,4.42-.66,6.63-.64,2.51.02,5.1.15,7.51.78,3.57.93,5.95,3.27,6.12,7.24.16,3.84-1.7,6.45-5.05,8.14-3.11,1.56-6.37,2.38-9.86,1.92-1.88-.25-3.75-.6-5.91-.95-3.96,5.47-5.68,11.2-2.51,17.76,1.79,3.69,4.58,6.03,8.54,7.02,1.23.31,2.53.45,3.7.93,2.94,1.22,4.03,2.96,3.99,5.87-.04,2.91-1.55,4.77-4.13,5.83-.78.32-1.63.65-2.45.67-4.06.09-5.35,2.97-6.23,6.16-.96,3.5.21,6.58,3.24,8.28,3.1,1.74,6.53,3.24,10,3.87,4.77.87,9.71.8,14.57,1.2,1.6.13,3.18.5,5.26.84Z"/>
  <path class="cls-1" d="M179.08,433.58c-5.45-2.99-8.76-6.87-11.72-10.82-8.7-11.62-12.14-24.71-9.44-39.12,2.91-15.51,8.69-29.79,18.68-42.2,4.32-5.37,9.93-9.23,15.12-13.6,4.86-4.1,9.57-8.39,14.22-12.73,6.84-6.38,10.26-14.62,11.83-23.58,1.59-9.07,1.62-18.17-.84-27.2-.97-3.55-1.92-7.21-1.89-11.7,1.51.97,2.44,1.25,2.86,1.88,8.18,12.39,12.65,25.87,12,40.89-.26,5.97-2.14,11.19-5.92,15.82-3.49,4.29-6.57,8.93-10.24,13.05-4.8,5.39-9.57,10.94-15.12,15.48-12.13,9.91-18.96,22.83-22.69,37.59-3.41,13.51-5.16,27.21-1.49,41.01.93,3.48,2.33,6.84,3.45,10.27.42,1.3.65,2.67,1.2,4.95Z"/>
  <path class="cls-1" d="M314.45,61.57c-9.52-7.68-23.38-7.13-31.62,1.16-2.24,2.25-4.01,4.95-6.03,7.42-.46.57-1.06,1.04-1.92,1.87.46-20.92,22.72-36.47,47.31-21.14.83-.34,1.92-.56,2.73-1.16,14.34-10.63,43.37-7.06,52.25,16.4,6.23,16.45,3.96,32.67-5.66,47.6-.89,1.39-2.3,2.44-3.49,3.63-2.29,2.3-4.51,1.76-7.09-.41.63-1.7,1.18-3.48,1.93-5.18,4.68-10.53,5.18-21.56,2.78-32.54-2.66-12.19-13.23-19.96-27.87-16.09-4.28,1.13-5.41,3.05-5.35,7.92.06,5.05-2.1,8.64-5.74,9.52-4.58,1.11-8.44-.99-10.97-5.59-2.41-4.39-2-9.01-1.26-13.41Z"/>
  <path class="cls-1" d="M306.65,438.17c-6.66,1.92-12.82,2.85-17.21,8.09.03-1.05-.26-2.23.13-3.12,2.73-6.17,7.45-10.82,12.31-15.26,4.21-3.85,8.7-7.42,13.16-10.99,15.79-12.63,22.66-29.15,22.06-49.19-.33-11.04-.12-22.1-.13-33.15,0-6.97,1.63-13.45,5.48-19.38,2.08-3.2,3.72-6.69,5.66-9.99.79-1.35,1.82-1.4,4.14-.5-2.75,4.99-2.37,10.6-3.12,15.99-2.32,16.72-1.53,33.53-.8,50.3.56,12.8-2.24,24.89-9.57,35.08-7.39,10.28-15.56,20.25-26.49,27.31-.53.34-.99.78-1.8,1.42.95,14.32-2.64,27.64-11.56,39.22-6.83,8.88-14.14,17.34-24.54,22.48,2.74-4.83,7.1-8.35,10.22-12.83,3.28-4.7,6.75-9.31,9.61-14.26,2.76-4.77,5.13-9.82,7.15-14.95,2.09-5.3,3.56-10.84,5.29-16.27Z"/>
  <path class="cls-1" d="M248.02,433.47c10.98,8.63,18.65,19.01,19.86,33.26,1.31,15.3-.88,30.18-6.71,44.34-4.84,11.73-13.76,20.29-23.7,27.84-12.01,9.11-26.02,13.17-40.49,16.07-10.19,2.04-20.43,3.83-30.57,6.1-14.38,3.21-21.57,9.05-28.44,23.24,0-2.6-.36-3.98.06-5.06,3.48-9.02,9.18-16.13,17.85-20.78,9.07-4.87,18.93-7.37,28.76-10.02,8.4-2.26,16.97-4.04,25.17-6.87,15.07-5.2,27.56-14.36,36.58-27.52,3.29-4.8,5.47-10.64,6.95-16.33,2.67-10.3,3.71-20.93,3.65-31.59-.05-9.75-2.26-18.93-7.79-27.16-.81-1.21-1.27-2.67-1.8-4.05-.1-.26.28-.7.63-1.47Z"/>
  <path class="cls-1" d="M397.22,330.6c-7.86-11.58-2.77-22.45-.81-33.58-1.39-.39-2.76-.76-4.12-1.17-6.11-1.86-12.27-3.57-18.29-5.68-3.07-1.08-5.82-1.07-8.56.51-4.22,2.43-8.51,4.76-12.57,7.42-9.58,6.29-18.76,13.24-28.65,18.99-6.56,3.81-13.83,7.07-21.2,8.7-14.38,3.18-27.72-4.73-34.11-19.05,1.74-1.79,3.56-3.68,5.63-5.81,1.29,1.62,2.46,3.11,3.65,4.57,6.65,8.16,14.57,11.9,25.31,8.47,5.1-1.63,9.91-3.61,14.69-5.99,10.68-5.3,21.54-10.24,32.43-15.08,4.11-1.83,8.15-3.71,11.52-6.67,4.05-3.55,8.53-4.51,13.64-3.05,6.34,1.8,12.68,3.63,19.06,5.29,2.65.69,5.4,1.06,8.13,1.38,3.55.42,5.28-.36,5.31-3.41.05-4.51,2.67-6.35,6.2-7.49-.4-3.06-1.53-5.95-.86-8.33.57-2,3.23-3.41,5.24-5.35-.99-2.4-2.15-5.22-3.58-8.69.48-.67,1.42-1.97,2.76-3.83,3.26,4.47,5.8,8.76,6.97,13.62.32,1.3-.93,3.18-1.86,4.51-.66.94-2,1.41-3.16,2.17,1.55,5.03,1.43,9.43-3.68,12.29-.62.35-1.11,1.37-1.2,2.13-.57,5.05-4.01,7.19-8.33,8.54-1,.31-1.94.79-3.35,1.37-.45,10.96.33,22.2-6.24,33.23Z"/>
  <path class="cls-1" d="M80.04,180.1c4.23-8.78,8.79-17.43,14.67-25.22,3.81-5.05,8.23-9.79,13-13.94,13.52-11.76,28.9-10.99,42.8-3.79,9.99,5.18,18.35,12.35,24.83,21.58,6.07,8.65,12.01,17.39,18.43,26.7-1.41.36-2.88,1.25-3.86.87-2.33-.91-4.79-2.05-6.55-3.77-5.94-5.78-11.58-11.87-17.36-17.81-5.11-5.26-11.12-9.18-17.77-12.27-12-5.57-23.26-3.51-34.04,3.13-9.8,6.04-18.65,13.33-27.03,21.22-1.78,1.67-3.86,3.02-5.81,4.52-.44-.4-.87-.81-1.31-1.21Z"/>
  <path class="cls-1" d="M122.7,264.72c5.03-2.59,9.07-4.91,13.3-6.78,7.51-3.31,11.02-2.17,15.62,4.61.71,1.05,1.39,2.14,2.01,3.24,2.7,4.76,4.76,5.99,9.81,4.23,6.22-2.17,12.31-4.8,18.25-7.64,4.57-2.19,8.81-5.04,13.24-7.52.61-.34,1.48-.21,2.19-.29.14.57.29.86.22.93-8.92,8.84-18.63,16.65-29.9,22.32-2.42,1.22-5.24,1.83-7.94,2.27-5.66.91-11.01-1.91-13.85-7.06-1.1-2.01-2.03-4.11-3.34-6.79-4.23,2.06-7.99,3.89-11.75,5.74-1.13.55-2.19,1.36-3.38,1.67-6.98,1.8-12.89,2.24-15.54-11.16-3.15,2.9-5.8,5.77-8.37,8.73-5.72,6.58-11.48,13.12-18.54,18.38-3.19,2.37-6.54,3.91-10.61,3.52-3-.29-5.39-1.6-6.53-4.39-1.2-2.93-2.79-6-2.84-9.03-.08-6.11.74-12.24,1.26-18.35.09-1.04.39-2.12.85-3.06.74-1.52,1.64-3.48,3.66-2.69,1.04.41,1.79,2.11,2.23,3.38.4,1.15.38,2.54.16,3.75-.08.46-1.24.73-2.45,1.38-.35,6.98-1.47,14.55,3.06,21.6,3.3.48,5.52-1.42,7.83-3.31,7.31-5.98,12.88-13.53,18.91-20.67,2.87-3.41,5.71-6.91,9.01-9.88,4.8-4.32,9.11-3.06,11.15,3.04.98,2.95,1.42,6.08,2.26,9.84Z"/>
  <path class="cls-1" d="M202.3,407.16c-8.55,13.63-8.91,28.18-8.64,42.91.17,9.1.2,18.22-.06,27.32-.2,7.08-2.44,13.72-4.95,20.34-3.05,8.05-8.97,12.35-16.91,13.89-12.77,2.47-22.86,9.01-30.34,19.4-4.58,6.36-8.41,13.26-12.58,19.92-.61.98-1.28,1.92-2.46,3.69-1.39-4.21-.94-7.52-.67-10.8,1.09-12.85,7.64-22.16,18.42-28.92,5.53-3.46,11.48-5.61,17.83-6.17,6.09-.53,10-3.86,13.5-8.28,6.2-7.8,8.73-16.99,9.62-26.62.84-9.07,1.09-18.2,1.53-27.31.51-10.5,2.24-20.72,7.09-30.16,1.44-2.8,3.45-5.32,5.39-7.82.52-.67,1.74-.78,3.21-1.39Z"/>
  <path class="cls-1" d="M114.37,538.54c-7.86-.77-10.67,4.03-13.26,8.74-2.29,4.16-2.9,8.85-2.83,13.6.17,10.61.55,21.22.39,31.82-.11,6.99-1.03,13.96-1.54,20.94-.16,2.26-1.25,4.94,1.06,6.54,2.35,1.63,4.94.48,7.28-.61,5.11-2.38,8.41-6.63,10.47-11.58,3.58-8.62,6.64-17.46,10.04-26.53.33.57,1.06,1.25,1.09,1.97.38,8.72.35,17.41-1.6,26-2.43,10.68-8.77,17.74-19.2,21.06-1.59.51-3.32.77-4.99.8-10.74.2-16.31-5.99-14.46-16.59,2.4-13.66,3.13-27.42,3.52-41.24.14-5.09.56-10.18,1.1-15.24.57-5.36,1.96-10.56,5.51-14.74,2.31-2.71,5.04-5.16,7.94-7.22,1.37-.98,3.62-1.17,5.39-.98,1.13.12,2.11,1.6,4.1,3.27Z"/>
  <path class="cls-1" d="M273.76,227.11c.81-3.59,3.35-3.62,6-3.63,7.38-.03,13.8,2.72,19.24,7.38,4.65,3.99,9.01,8.4,13.02,13.04,9.75,11.26,9.61,11.22,23.84,7.83,4.7-1.12,9.6-1.49,14.44-1.84,4.98-.36,9.67.98,14.11,3.3,2.61,1.37,5.33,2.54,8.12,3.86-.16,1.14-.34,2.34-.55,3.81-1.13-.05-2.17.23-2.71-.17-4.37-3.28-8.83-1.82-13.26-.37-6.46,2.11-12.79,4.66-19.33,6.4-4.03,1.07-8.37,1.23-12.58,1.37-5.45.18-10-2.21-13.29-6.44-4.16-5.34-7.78-11.1-11.95-16.43-2.98-3.82-6.26-7.47-9.79-10.78-3.27-3.06-7.2-5.24-11.78-5.99-1.2-.2-2.32-.86-3.53-1.33Z"/>
  <path class="cls-1" d="M126.64,483c4.99-.68,7.55-3.75,10.39-6.1,3.85-3.18,8-5.73,12.73-7.05,6.25-1.74,12.28-1.4,16.93,3.96.67.78.72,2.1,1.4,4.26-9.18-6.36-16.43-3.54-23.32,2.06-3.95,3.21-7.75,6.62-11.89,9.55-5.38,3.8-11.53,2.06-14.26-3.89-.96-2.08-1.26-4.46-1.85-6.71-.53-2.02-1.98-3.02-3.8-2.3-2.1.83-4.22,2-5.84,3.54-2.14,2.03-3.89,4.49-5.64,6.89-5.9,8.1-12.67,15.41-19.87,22.35-.84.81-1.89,1.4-3.06,2.26-.14-.96-.35-1.41-.22-1.7,5.39-11.56,10.65-23.2,17.9-33.77,2.82-4.12,6.65-7.05,11.47-8.74,3.87-1.36,7.65-.98,11.19.54,3.46,1.48,5.81,4.19,6.33,8.19.27,2.07.86,4.1,1.42,6.66Z"/>
  <path class="cls-1" d="M287.76,113.69c-4.08,7.31-9.82,12-17.46,14.52-12.99,4.28-26.78-5.04-27.28-18.68-.06-1.64.23-3.42.87-4.92.4-.94,2.1-2.28,2.59-2.05,1.17.54,2.45,1.75,2.78,2.94.34,1.21-.77,2.77-.63,4.11.92,8.88,13,14.72,20.77,10,4.78-2.91,8.61-6.95,11.88-11.45.8-1.11,1.03-2.69,1.33-4.09.17-.81,0-1.7-.07-2.54-.22-2.47.76-4.17,3.21-4.77,2-.49,3.23.73,4.16,3.71.43,1.37.81,2.89,1.68,3.96,3.72,4.51,8.22,4.87,12.65.63,2.73-2.62,4.87-5.87,7.11-8.96,1.43-1.97,2.55-4.15,4.14-6.78,2.83,9.58-.27,21-7.02,25.49-5.26,3.49-10.19,6.04-20.7-1.09Z"/>
  <path class="cls-1" d="M124.05,520.66c-11.81,4.17-21.43,11.3-31.87,16.92-4.86,2.62-9.98,4.92-15.23,6.6-6.2,1.98-12.26,1.4-16.99-3.91-1.93-2.17-3.06-4.67-2.33-7.6.21-.84,1.11-1.5,2-2.63.95,1.24,1.59,2.01,2.15,2.83,2.63,3.89,5.44,5.29,9.71,3.8,3.77-1.32,7.43-3.18,10.85-5.28,7.41-4.55,14.19-10.13,22.63-12.93,3.92-1.3,7.85-1.9,11.91-1.56,2.57.21,5.1.74,7.17,3.77Z"/>
  <path class="cls-1" d="M241.41,192.31c5.89-5.11,10.04-10.12,12.23-16.55,1.6-4.71,2.53-9.52,1.76-14.43-.52-3.29-1.09-6.87-5.48-7.65-1.63-.29-2.56-1.55-2.25-3.32.35-1.97,1.68-2.88,3.61-2.93,4.61-.11,7.75,2.62,9.8,6.16,7.12,12.24,5.57,24.91-5.08,34.75-3.59,3.31-8.09,5.38-14.59,3.97Z"/>
  <path class="cls-1" d="M338.18,170.02c2.78-2.29,4.87-4.01,7.49-6.17-.81-2.83-1.56-5.86-2.56-8.8-1.63-4.78-1.87-9.41.91-14.41,1.16.95,2.49,1.52,2.91,2.47,1.87,4.27,3.51,8.64,5.18,13,1.88,4.9-.33,8.77-3.52,12.08-2.58,2.67-5.76,4.17-10.39,1.84Z"/>
  <path class="cls-1" d="M298.55,148.93c-.43-2.67.67-4.45,3.23-4.44,7.33.04,14.01-2.56,20.82-4.67.75-.23,1.6-.18,3.39-.36-.88,1.4-1.19,2.3-1.81,2.81-4.85,3.98-9.4,8.5-16.21,9-3.44.25-6.75.12-9.42-2.34Z"/>
  <path class="cls-1" d="M314.02,367.56c1.09,1.46,1.84,2.45,2.7,3.6.45-.41,1.17-.74,1.21-1.15.12-1.18.17-2.44-.15-3.56-.32-1.14-1.11-2.15-1.73-3.27,2.08-2.58,4.25-2.02,6.47-1.01,2.2,1,2.2,2.93,1.95,4.9-.26,2.1-.4,4.25-.98,6.27-.77,2.67-2.67,4.33-5.57,4.47-2.18.1-4.31-.1-5.49-2.37-1.41-2.72-1.43-5.23,1.58-7.86Z"/>
  <path class="cls-1" d="M326.96,188.14c3.23-4.17,7.58-5.31,17.42-4.89-3.25,6.32-10.69,8.55-17.42,4.89Z"/>
</svg>