<?xml version="1.0" encoding="UTF-8"?>
<svg id="Layer_1" data-name="Layer 1" xmlns="http://www.w3.org/2000/svg" version="1.1" viewBox="0 0 595.28 569.61">
  <defs>
    <style>
      .cls-1 {
        fill: #000;
        stroke-width: 0px;
      }
    </style>
  </defs>
  <path class="cls-1" d="M130.76,178.29c-2.64-1.14-5.35-1.98-7.69-3.41-1.94-1.18-3.79-2.83-5.1-4.69-2.05-2.91-1.46-6.42,1.02-9.52,3.44-4.31-3.11-4.86-4.24-8.98-.63-2.3.55-4.86,2.31-6.41,2.9-2.55,4.19-1.58,3.2-6.18-.31-1.47-.55-3.04.01-4.43s2.22-2.44,3.59-1.84c1.02-7.42,2.77-11.83,10.86-11.83,2.59.49,4.45,2.1,5.94,4.23,1.7,2.44,3.43,4.86,5.2,7.24.42.57,1.06.98,1.97,1.78.08-6.44,1.05-12.25,2.87-17.92,1.5-4.69,3.58-9.01,7.31-12.36.7-.62,1.41-1.26,2.2-1.73,4.34-2.57,8.73-.58,9.36,4.45.32,2.61.14,5.33-.12,7.97-.26,2.62-.95,5.2-1.4,7.81-.59,3.36-.34,8.94,1.9,11.76,3.16,3.97,8.77,5.42,12.67,8.44,4.85,3.75,9.32,7.58,14.85,10.36,7.94,4,16.12,7.52,24.21,11.23.65.3,1.4.36,2.59.65-.42-3.06-.79-5.8-1.18-8.54-.31-2.15-.47-4.35-1.02-6.44-.38-1.45-1.11-2.92-2.06-4.08-1.58-1.93-3.49-3.59-5.22-5.4-6.06-6.35-4.27-14.93.23-19.47.99-1,1.96-2.08,3.13-2.83,3.49-2.25,5.33-5.63,6.77-9.32,1.02-2.62,1.89-5.29,2.93-7.9.33-.83.85-1.73,1.55-2.2.47-.32,1.5-.12,2.11.18.34.17.55,1.06.46,1.56-.72,3.98-1.39,7.97-2.36,11.89-.99,4-2.89,7.58-5.88,10.52-.89.88-1.83,1.74-2.59,2.72-2.36,3.06-2.33,6.03.24,8.93,1.87,2.11,3.96,4.01,5.95,6.01,3.04,3.06,4.99,6.83,4.08,11.02-2.01,9.29,8.58,18.3,15.62,20.2,6.06,1.64,11.77.03,17.5-1.39,2.87-.71,5.62-1.85,8.45-2.73.34-.1.8.19,1.2.3-.13.36-.14.87-.39,1.06-5.79,4.26-11.49,8.63-18.63,10.57-10.33,2.81-18.75-.34-25.84-7.92-.53-.57-.99-1.22-1.42-1.87-1.34-2.02-3.12-2.73-5.6-2.57-4.85.31-9.65-.02-14.39-1.43-9.02-2.69-16.81-7.46-23.8-13.62-2.94-2.59-5.77-5.29-8.66-7.95.16.68.39,1.6.59,2.51.69,3.04,1.21,6.14,2.1,9.12.57,1.9,1.37,3.9,2.63,5.38,3.24,3.79,6.89,7.23,10.2,10.97,2.88,3.24,6.64,5.16,10.28,7.25,7.34,4.21,15.02,7.61,23.33,9.53,8.95,2.08,18.01,1.96,27.06,1.28,7.15-.54,14.26-1.68,21.39-2.5,5.73-.65,11.47-1.4,17.22-1.76,4.47-.28,8.59,1.25,12.46,3.47,1.36.78,2.62,1.62,3.42,3.8-1.44-.32-2.43-.43-3.34-.75-5.89-2.02-11.81-2.33-17.97-1.11-10.4,2.06-20.83,4.01-31.33,5.48-12.65,1.77-29.44,3.56-40.9-3.51-3.09-1.91-6.18-3.81-9.27-5.72-1.34-.83-2.68-1.66-3.91-2.65-1.39-1.13-2.6-2.47-3.81-3.79-4.54-4.99-10.03-10.22-15.93-13.62-4.71-2.72-6.92-7.03-8.19-12.06-1.26-4.98-3.04-9.75-4.68-14.61-1.53-4.53-1.39-9.53-2.47-14.13-1.32-5.59-.42-12.23-.42-17.96-3.45,2.91-4.88,6.3-5.78,9.92-1.79,7.21-5.39,13.58-9.12,20.53-.59-.94-.82-1.77-1.35-2.08-4.36-2.56-7.74-6.26-11.45-9.58-3.78-3.38-3.18,4.82-4.79,6.4-1.78,1.75-4.91,2.24-5.03,5.19-.1,2.57,2.97,3.6,3.29,5.88.46,3.25-5,2.97-6.39,5.39-1.16,2.03-.69,6.46,1.43,7.58,1.91,1.01,10.24-.93,5.97,3.52-2.02,2.1-7.74,1.32-6.19,5.79,1.1,3.17,6.8,4.53,9.58,5.28,2.85.77,5.81,1.13,8.65,1.94,11.27,3.19,19.54,9.98,24.91,20.49,3.34,6.53,7.06,12.88,10.83,19.18,5.79,9.7,14.65,15.06,25.44,17.69,9.94,2.43,19.78,1.32,29.62-.42,5.98-1.06,11.96-2.18,17.88-3.55,4.99-1.15,9.64.02,14.15,1.76,5.8,2.24,10.59,6.05,14.55,10.81,1.27,1.53,2.17,3.44,2.94,5.3.34.82-.05,1.95-.18,4.08-1.17-1.86-1.71-2.74-2.27-3.59-6.19-9.48-14.84-14.59-26.26-14.16-3.38.13-6.78,1.1-10.05,2.08-9.88,2.96-19.78,5.75-30.24,5.39-1.59-.05-2.27.62-2.46,2.11-.1.77-.52,1.52-.51,2.27.09,8.58-1.4,17.07-.45,25.75.83,7.61,1.35,15.23,3.21,22.68,1.21,4.87,3.04,9.48,5.78,13.77,3.35,5.25,8.21,8.13,14.09,9.24,3.81.72,7.76.89,11.65,1,5.48.16,10.97-.07,16.45.04,7.82.16,13.77,3.53,17.48,10.58,1.09,2.08,2.23,4.13,3.44,6.14,1.88,3.12,4.59,4.73,8.29,3.92,4.87-1.07,9.72-2.23,14.56-3.44,11.9-2.98,23.43-3.21,34.2,3.94,7.82,5.18,15.79,10.14,23.72,15.16,5.68,3.6,11.5,6.97,17.07,10.72,9.24,6.23,16.02,14.82,22.29,23.87,4.1,5.91,8.21,11.81,12.42,17.65,6.26,8.69,14.78,14.47,24.8,17.74,11.27,3.67,22.74,6.74,34.16,9.94,12.32,3.46,24.7,6.69,37.01,10.2,3.97,1.13,7.93,1.63,12.02,1.49,5.32-.19,10.24,1.06,14.55,4.28,2.05,1.53,3.66,3.44,4.05,6.09.08.56-.16,1.16-.31,2.11-1.34-.77-2.4-1.35-3.43-1.96-6.32-3.76-13.13-5.72-20.49-5.76-12.08-.06-23.91-2.16-35.54-5.09-14.22-3.58-28.32-7.68-42.4-11.79-10.55-3.08-19.9-8.46-27.36-16.59-3.89-4.24-7.18-9.06-10.6-13.72-4.44-6.05-8.7-12.23-13.12-18.3-5.26-7.21-12.32-12.42-19.74-17.13-11.1-7.03-22.24-13.98-33.47-20.8-2.91-1.77-6.16-3.02-9.32-4.32-.86-.36-2-.05-3.53-.05,3.11,4.34,7.03,6.95,10.63,9.89,2.66,2.18,5.62,4,8.22,6.23,11.2,9.6,16.7,21.73,15.28,36.54-.74,7.66-4.73,13.74-12.48,15.9-2.12.59-2.72.29-2.48-1.67.53-4.33.84-8.73,1.87-12.95,2.74-11.29-.84-20.67-8.31-28.86-2.73-2.99-5.91-5.6-9.09-8.13-4.95-3.95-9-8.67-12.62-13.81-2-2.84-2.08-2.87-5.38-2.08-3.34.8-6.63,1.82-10,2.43-3.21.58-6.49.87-9.75,1.08-5.55.36-9.62-2.28-12.58-6.75-1.38-2.08-2.63-4.27-3.67-6.54-2.34-5.1-6.13-7.7-11.8-7.61-3.91.06-7.84.08-11.75-.15-5.45-.32-10.94-.52-16.3-1.44-10.81-1.86-17.8-8.73-21.87-18.56-3.18-7.69-4.79-15.81-5.21-24.15-.23-4.52-.91-9.06-.69-13.56.4-8.41,1.27-16.8,2.03-25.19.21-2.27.1-2.68-2.01-3.16-3.93-.9-7.87-1.77-11.94-2.68-.39,2.65-.85,5.39-1.17,8.15-1.11,9.54-4.29,18.47-7.71,27.36-5.09,13.26-9.53,26.73-11.89,40.78-2.19,13.02-1.04,25.83,3.11,38.37,2.51,7.58,5.53,14.94,9.48,21.9,3.19,5.62,8.2,8.88,14.26,10.67,2.68.79,5.44,1.33,8.13,2.09.5.14.86.75,1.29,1.14-.52.45-1.05,1.28-1.56,1.28-5.61-.03-11.2.8-16.82-.53-7.31-1.73-12.69-5.96-16.61-12.09-5.11-7.99-7.94-16.93-10.18-26.07-1.95-7.93-3.09-15.99-2.53-24.15.73-10.79,3.24-21.24,6.64-31.5,3.3-9.96,7.63-19.48,12.18-28.9,4.3-8.92,7.31-18.2,8.8-27.99.28-1.83,0-2.86-1.64-3.84-9.62-5.75-15.42-14.43-18.71-24.94-1.3-4.16-2.42-8.38-3.66-12.57-.25-.86-.5-1.83-1.06-2.47-6.36-7.24-13.72-12.78-23.78-13.6-.77-.06-1.51-.41-2.27-.54-1.42-.24-2.35-.12-3.44,1.4-3.56,4.96-7.06,9.91-10.06,15.26-1.89,3.37-4.53,6.35-6.98,9.37-2.86,3.52-5.92,6.88-8.85,10.34-3.47,4.11-7.55,7.48-12.29,10.01-5.59,2.98-11.56,3.53-17.75,2.71-2.78-.37-5.63-.36-8.35-.97-10.25-2.31-18.43-8.03-24.06-16.72-6.69-10.34-13.37-20.78-18.14-32.21-4.71-11.28-7.8-23.07-9.72-35.14-1.65-10.32-3.52-20.65-4.42-31.04-.92-10.59-.72-21.24.33-31.89,1.06-10.81,3.11-21.34,6.86-31.53,4.55-12.36,11-23.49,20.91-32.41,7.68-6.91,16.55-11.33,26.86-12.14,8.11-.64,15.59,1.72,21.57,7.41,3.26,3.1,6.1,6.7,8.85,10.28,2.85,3.72,5.27,7.77,8.06,11.53,2.96,3.99,5.13,4.53,9.72,2.48,5.14-2.29,10.16-4.86,15.28-7.19,7.32-3.33,15.05-5.48,23.05-5.73,17.02-.53,28.48,6.21,35.98,21.88,2.6,5.43,4.3,11.22,4.36,17.13.05,5.39-1.01,10.84-2.06,16.17-1.65,8.38-5.95,15.72-9.75,23.25-.67,1.33-1.39,2.63-2.89,3.65.17-1.18.29-2.38.53-3.54,1.6-7.77,3.77-15.47,4.68-23.31,1.03-8.85,1.05-17.87-2.44-26.37-1.23-3.01-2.76-6-4.68-8.6-4.54-6.15-10.63-9.34-18.5-9.31-9.01.03-17.25,2.54-25.08,6.7-4.28,2.27-8.44,4.79-12.76,6.98-2.21,1.12-4.63,1.83-7,2.58-6.32,1.99-11.86.12-16.41-4.23-3.26-3.11-5.97-6.8-8.81-10.33-2.45-3.04-4.62-6.31-7.13-9.31-5.67-6.78-12.27-7.78-20.74-4.46-7.39,2.9-13.04,8.06-17.52,14.42-8.07,11.44-13.08,24.11-14.69,38.09-1.24,10.78-.88,21.52-.11,32.31.79,11.09,2.13,22.06,4.98,32.82,3.4,12.86,7.65,25.43,13.48,37.4,3.49,7.16,7.07,14.3,11.19,21.1,4.24,6.99,9.71,13.06,16.48,17.8,1.28.89,2.61,1.75,4.02,2.4,7.08,3.27,13.26,1.05,18.39-3.92,5.61-5.44,10.76-11.37,15.96-17.22,3.74-4.21,7.12-8.73,10.86-12.94,1.73-1.94,3.93-3.46,6.12-5.35Z"/>
  <path class="cls-1" d="M489.57,351.89c1.39-2.26,2.51-3.94,3.49-5.7,10.8-19.63,17.93-40.52,21.67-62.62,3.1-18.34,2.81-36.8,2.35-55.26-.19-7.49-.9-14.97-1.7-22.43-1.05-9.82-2.83-19.5-7.78-28.25-2.46-4.35-5.77-7.76-10.83-9.1-3.67-.97-7.24-.3-10.55,1.07-4.46,1.85-8.96,3.82-12.97,6.45-7.71,5.05-15.11,10.57-22.6,15.96-10.84,7.8-22.19,14.62-35.1,18.49-7.94,2.38-16.04,3.8-24.29,4.76-11.57,1.34-23.14.9-34.7.56-6.52-.19-13-1.39-19.5-2.11-.88-.1-1.78-.09-2.66-.01-.42.04-.82.35-1.23.53.12-.59.05-1.43.41-1.72.68-.54,1.6-1.01,2.44-1.05,2.5-.12,5.03-.19,7.51.04,12.96,1.24,25.89,1.12,38.85-.07,8.73-.8,17.29-2.22,25.75-4.56,11.78-3.25,22.39-8.76,32.17-15.9,9.22-6.73,18.18-13.8,27.32-20.64,5.16-3.86,10.85-6.79,16.88-9.07,13.19-4.98,25.45.46,32.17,11.8,4.78,8.07,7.5,16.8,9.18,25.9,2.32,12.62,3.59,25.35,3.93,38.18.25,9.22.74,18.45.72,27.67-.05,16.19-2.65,32.07-6.94,47.65-3.78,13.75-8.84,27.04-15.56,39.64-1.69,3.17-3.55,6.27-5.54,9.25-1.29,1.93-2.87,3.72-4.51,5.37-6.53,6.59-15.42,3.06-17.93-3.84-1.48-4.07-2.19-8.44-3.06-12.71-1.35-6.57-2.46-13.18-3.85-19.74-.45-2.11-1.24-4.23-2.3-6.11-1.99-3.55-4.11-3.92-7.19-1.31-1.66,1.41-3.19,3.03-4.48,4.78-4.17,5.67-8.09,11.52-12.34,17.13-2.07,2.73-4.48,5.25-7.04,7.52-4.97,4.41-10.82,4.69-16.45,1.22-4.12-2.53-6.99-6.22-9.52-10.2-4.55-7.16-8.29-14.7-10.63-22.89-.28-1-.7-1.96-1.17-3.29-1.43,1.23-2.54,2.3-3.76,3.22-5.17,3.91-11.17,3.69-15.7-.97-2.13-2.2-3.86-4.93-5.26-7.67-2.69-5.29-4.86-10.85-7.55-16.14-3.43-6.72-8.47-12.03-15.29-15.4-4.77-2.36-9.76-4.24-15.05-4.99-5.86-.84-11.76-1.35-17.64-2.02-.85-.1-1.69-.32-2.64-1.16,1.22-.48,2.4-1.21,3.65-1.4,8.33-1.25,16.64-2.84,25.15-2.18,8.24.63,15.99,2.69,22.8,7.6,6.31,4.55,10.19,10.92,13.33,17.83,1.68,3.7,3.23,7.46,4.91,11.16.56,1.24,1.3,2.39,2.23,4.07,1.41-2,2.73-3.53,3.67-5.28,1.85-3.44,3.42-7.04,5.24-10.49.79-1.5,1.73-3.02,2.95-4.16,3.5-3.29,8.62-1.95,10.1,2.64.51,1.59.78,3.42.55,5.05-1.52,10.71.28,20.88,4.92,30.54,2.16,4.49,4.83,8.74,7.34,13.06.54.93,1.29,1.78,2.06,2.54,2.19,2.13,3.81,2.38,6.18.42,2.15-1.78,4.12-3.86,5.88-6.04,3.34-4.13,6.36-8.53,9.74-12.63,2.28-2.77,4.76-5.44,7.52-7.73,1.86-1.54,4.23-2.83,6.57-3.35,5.65-1.27,10.23,1.18,12.47,6.67,1.4,3.43,2.62,7.12,2.96,10.78.49,5.24,3,9.48,5.41,13.82,1.26,2.27,3.01,4.28,4.84,6.82Z"/>
  <path class="cls-1" d="M361.8,195.1c1.11-.8,1.55-1.34,2.08-1.47,8.61-2.09,15.63-7.12,22.25-12.59,6.87-5.66,13.48-11.69,19.85-17.92,9.76-9.55,17.85-20.5,25.74-31.61,4.7-6.62,9.71-13.03,14.61-19.52.66-.87,1.47-1.62,2.26-2.38,4.16-4.01,8.39-7.95,12.5-12.01,7.12-7.04,15.39-12.26,24.77-15.7,11.91-4.37,23.12-2.21,33.61,4.23,9.39,5.77,17.57,13.04,24.72,21.44,2.94,3.45,6.02,6.8,8.79,10.39,8.45,10.96,13.32,23.61,17.1,36.76,3.49,12.16,6.25,24.5,8.16,36.99,1.51,9.87,2.27,19.85,3.26,29.79,1.15,11.52,1.89,23.08,1.44,34.65-.29,7.31-.52,14.71-3.21,21.7-.11.29-.13.61-.24.91-2.31,6.21-6.12,11.07-12.91,12.41-7.49,1.48-13.43-1.7-18.28-7.22-1.12-1.28-2.07-2.71-3.41-4.5-1.53,1.98-2.8,3.71-4.18,5.35-.34.41-1.33.87-1.5.71-.5-.43-1.05-1.19-1.01-1.79.29-4.51.7-9.02,1.11-13.52.19-2.18.33-4.37.7-6.52.78-4.52,4.03-7.04,8.25-6.41,3.13.47,4.8,2.67,5.9,5.41.98,2.46,1.76,5.03,2.96,7.38.83,1.64,2.05,3.15,3.38,4.43,1.47,1.42,2.98,1.12,3.73-.73.81-2.01,1.48-4.15,1.78-6.29.53-3.71,1.05-7.47,1-11.2-.17-12.98-.13-26-1.02-38.94-1.47-21.35-4.86-42.46-10.08-63.25-3.72-14.8-10.3-28.09-20.24-39.73-6.01-7.04-12.16-13.91-19.57-19.52-3.76-2.85-7.81-5.22-12.35-6.6-5.72-1.74-11.37-1.23-17.03.56-14.44,4.57-25.57,13.43-34.24,25.71-4.5,6.38-8.92,12.9-14.13,18.66-9.09,10.06-16.7,21.41-26.66,30.68-11.33,10.55-22.63,21.17-36.49,28.49-3.05,1.61-6.19,2.98-9.68,3.21-.99.07-2-.25-3.69-.48Z"/>
  <path class="cls-1" d="M327.71,232.4c-.34,1.81-.34,2.57-.62,3.2-.82,1.86-1.67,3.71-2.65,5.49-6.33,11.49-9.73,24-12.52,36.66-1.48,6.72-1.52,13.67-1.26,20.57.11,2.8.31,5.6.5,8.39.13,1.85.97,2.68,3,2.45,5.34-.6,10.59.23,15.82,1.27,6.9,1.37,13,4.43,18.41,8.84,5.94,4.84,11.77,9.81,17.64,14.73,4.31,3.62,8.42,7.51,12.94,10.84,4.13,3.05,8.57,5.73,13.08,8.18,10.88,5.92,20.29,13.58,27.47,23.65,5.19,7.28,10.35,14.52,17.1,20.46,1.76,1.54,3.5,3.19,5.51,4.35,8.41,4.85,17.04,9.25,26.82,10.7,1.54.23,3.12.18,4.68.34,7.61.75,15.2,1.76,22.83,2.21,9.52.57,18.74,3.13,28.3,3.58,8.34.39,16.15,3.13,23.21,7.92,7.64,5.19,10.79,14.84,6.35,23.93-.93,1.91-2.15,3.69-3.24,5.52-.31-.11-.63-.22-.94-.32.21-1.81.32-3.64.64-5.43,1.53-8.72-1.05-15.64-8.51-20.72-6.67-4.54-14.03-6.73-21.98-7.08-3.91-.17-7.83-.01-11.75.02-7.52.06-14.97-.52-22.39-1.82-3.68-.64-7.45-.99-11.19-1.06-6.35-.11-12.44-1.33-18.19-3.91-4.99-2.23-9.93-4.63-14.68-7.32-7.51-4.24-12.99-10.7-18-17.56-1.66-2.27-3.35-4.56-4.68-7.02-5.54-10.22-14.27-17.28-23.44-23.91-1.25-.91-2.68-1.67-4.13-2.2-8.08-2.93-14.83-7.97-21.41-13.29-8.39-6.78-16.83-13.51-25.09-20.43-7.26-6.08-15.84-8.56-24.94-9.71-3.94-.5-7.78.25-11.38,2.03-3.35,1.66-6.72,3.28-10.03,5-3.58,1.86-6.71.88-9.49-1.52-2.25-1.94-4.34-4.08-6.37-6.25-3.85-4.14-8.51-6.1-14.17-6.03-10.95.14-19.52-4.26-25.98-13.25-6.86-9.56-11.39-20.06-14.16-31.4-1.49-6.1-2.25-12.29-1.89-18.58.05-.93-.04-1.93.26-2.78.22-.62.97-1.06,1.49-1.58.32.59.9,1.18.93,1.78.64,17.44,6.76,32.9,16.96,46.84,2.01,2.75,4.47,5.26,7.06,7.48,3.02,2.6,6.73,3.83,10.78,4.07,3.27.2,6.54.53,9.78.98,5.55.77,9.7,4.1,13.6,7.8,2.05,1.94,4.04,3.93,5.99,5.98,1.53,1.61,3.04,1.02,4.69.27,1.65-.75,2.66-1.52,2.76-3.72.46-9.98,1.03-19.97,1.95-29.92.65-7.04,3.27-13.65,6.08-20.06,3.83-8.75,8.14-17.27,14.57-24.5,1.01-1.13,2.07-2.21,3.89-4.15Z"/>
  <path class="cls-1" d="M381.9,100.03c.57,9.05-1.12,17.69-5.01,25.9-1.07,2.25-1.79,4.65-2.78,6.94-.38.87-1.2,1.67-2.2.9-.41-.32-.57-1.32-.45-1.93.73-3.5,1.78-6.94,2.36-10.46.92-5.53,2.32-11.12,2.17-16.65-.45-17.12-5.19-32.67-18.56-44.52-3-2.66-6.45-4.46-10.27-5.44-4.48-1.15-8.69-.27-12.44,2.51-.88.65-1.65,1.44-2.45,2.18-1.81,1.69-3.99,1.94-6.12,1.06-2.35-.97-3.75-2.88-3.52-5.55.36-4.18-.36-8.06-2.53-11.71-3.82-6.43-9.3-10.9-16.06-13.9-6.45-2.86-12.75-2.36-18.85,1.08-.82.46-1.62.96-2.37,1.52-2.43,1.8-5.26,2.45-8.01,1.57-2.69-.85-4.64.11-6.41,1.61-4.61,3.9-8.22,8.57-10.07,14.43-.28.89-.43,1.84-.79,2.69-1.36,3.19-3.9,4.33-7.2,3.31-2.84-.88-2.94-.93-4.23,1.56-4.35,8.43-6.05,17.3-4.54,26.76.29,1.81,1.66,3.73.14,5.63-1.07-1.45-2.28-2.8-3.17-4.35-2.8-4.92-5.02-10.03-5.57-15.79-.84-8.93,1.48-16.71,7.94-23.05,1.19-1.17,2.75-2.28,4.33-2.69,2.59-.67,3.72-2.43,4.95-4.51,3.19-5.42,6.89-10.48,12.1-14.17,3.74-2.65,7.67-4.62,12.55-4.23,1.51.12,3.22-.95,4.69-1.75,6.08-3.3,12.52-4.99,19.41-4.02,8.27,1.15,15.5,4.72,21.73,10.28,5.56,4.95,10.37,10.45,12.66,17.74.54,1.71,1.65,2.08,3.26,1.74,12.3-2.57,21.69,2.91,29.55,11.41,8.96,9.68,13.7,21.56,15.69,34.5.47,3.06.07,6.25.07,9.38Z"/>
  <path class="cls-1" d="M263.46,539.75c-.6.39-1.16,1-1.82,1.14-9.29,1.96-18.48,4.58-28.13,4.21-8.71-.34-16.57-2.94-23.25-8.63-3.92-3.34-7.78-6.79-11.42-10.43-6.12-6.12-8.86-13.73-9.71-22.27-1.79-17.99,2.49-35,8.1-51.77,3.8-11.37,8.17-22.55,12.14-33.86,2.99-8.52,5.75-17.16,6.88-26.13.79-6.32,1.05-12.77-.2-19.14-.12-.62.28-1.35.44-2.03.6.33,1.58.54,1.73,1.02.8,2.51,1.78,5.05,1.97,7.64.77,10.17.46,20.32-2.21,30.23-3.59,13.36-7.33,26.68-11.09,40-3.14,11.11-5.9,22.32-6.98,33.81-.7,7.45-.84,15.01.79,22.43.99,4.49,2.73,8.69,6.13,11.92,3.74,3.55,7.52,7.08,11.48,10.37,4.03,3.36,8.91,5.11,13.93,6.42,8.93,2.33,18.01,3.67,27.25,3.91,1.22.03,2.44.17,3.66.27.1.3.21.6.31.9Z"/>
  <path class="cls-1" d="M442.9,475.79c.47-.66.69-1.28,1.14-1.57,4.03-2.64,10.84-2.11,14.43,1.11,4.37,3.92,5.83,9.15,6.2,14.72.27,3.9.13,7.83.14,11.74.01,7.24.76,14.34,3.92,20.99,2.35,4.93,2.19,9.99.61,15.08-1.77,5.7-4.19,11.14-7.62,16.03-2.14,3.06-4.57,5.84-8.24,7.42-4.03,1.74-10.23-.37-12.15-5.11-1.34-3.32-2.47-6.77-1.42-10.48.21-.74.13-1.56.29-2.32,2.03-9.43-2.23-17.06-7.04-24.5-1.27-1.97-3.22-3.07-5.59-2.8-3.09.35-6.15.92-9.22,1.45-3.98.69-7.95,1.88-12,.38-1.89-.7-3.84-1.25-5.64-2.14-1.17-.58-2.09-1.65-3.12-2.5,1.18-1.9,2.52-.19,3.75-.11,4.26.27,8.41-.32,12.56-1.15,3.36-.67,6.73-1.31,10.08-2.03,7.13-1.55,13.3,1.45,16.1,7.34.87,1.83,1.9,3.61,3.1,5.24,3.98,5.45,5.32,11.54,4.79,18.17-.19,2.34-.18,4.69-.19,7.04,0,1.09.06,2.21.34,3.25.46,1.66,2.07,2.12,3.26.94.88-.87,1.72-1.88,2.25-2.98,2.17-4.49,4.27-9.02,6.29-13.57,1.41-3.18,1.12-6.41-.16-9.57-1.59-3.93-2.48-7.97-2.9-12.23-.56-5.67.46-11.2.6-16.8.09-3.74.56-7.47.55-11.2,0-1.66-.51-3.44-1.26-4.94-1.63-3.27-4.14-5.47-8.13-5.23-1.8.11-3.6.23-5.75.37Z"/>
  <path class="cls-1" d="M381.16,155.61c.66,7.52-1.95,14.15-5.85,20.35-6.11,9.71-13.94,17.63-24.35,22.77-5.31,2.62-10.86,3.83-16.79,3.4-6.4-.47-11.52-3.15-14.34-9.02-4.63-9.62-3.49-19.09,1.63-28.19.62-1.1,1.92-2.14,3.12-2.52,2.59-.81,4.28.93,3.76,3.61-.17.91-.56,1.78-.84,2.67-1.56,4.89-1.42,9.93-.7,14.88.82,5.67,4.68,8,10.47,7.23,3.66-.49,6.94-1.82,10.01-3.74,5.09-3.18,9.52-7.14,13.02-12.03,5.34-7.45,9.32-15.58,11.02-24.63.92-4.89.2-9.67-3.16-13.74-.42-.51-.5-1.32-.73-1.99.71-.02,1.54-.29,2.12-.03,6.87,3.04,10.78,8.32,11.58,15.8.18,1.7.03,3.44.03,5.16Z"/>
  <path class="cls-1" d="M470.49,270.92c2.98-4.47,3.36-9.22,4.5-13.69,1.15-4.51,1.94-9.12,3.03-13.65.36-1.49.96-2.98,1.8-4.25.33-.5,1.63-.55,2.44-.44.27.04.61,1.26.52,1.88-1.3,8.77-2.56,17.54-4.07,26.27-.47,2.73-1.39,5.47-2.6,7.97-2.41,4.98-7.94,5.69-11.43,1.38-1.93-2.39-3.38-5.26-4.58-8.11-1.51-3.58-2.53-7.37-3.78-11.06-.39-1.15-.84-2.29-1.49-4.06-1.21,1.92-2.13,3.33-3.01,4.77-1.06,1.73-1.99,3.55-3.16,5.2-3.55,4.98-8.58,6.22-13.95,3.15-3.24-1.85-6.19-4.21-9.23-6.4-5.36-3.86-11.1-7.01-17.3-9.26-5.15-1.87-10.37-3.47-15.97-1.83-.77.23-1.71-.14-3.21-.3,4.22-4.44,8.77-6.69,14.24-7.18,11.07-1,20.52,2.93,29.09,9.53,1.98,1.52,3.98,3.03,5.95,4.57,1.26.99,2.18.77,3.05-.58,2.04-3.14,4.06-6.3,6.28-9.31.99-1.35,2.28-2.6,3.69-3.48,3.75-2.34,7.77-1.48,10.13,2.26,1.14,1.81,1.83,3.95,2.47,6.02,1.93,6.25,3.73,12.54,5.6,18.81.13.42.43.79.99,1.78Z"/>
  <path class="cls-1" d="M325.63,156.61c-.67.91-.86,1.45-1.2,1.58-6.13,2.27-12.17,5.12-18.69,5.81-12.45,1.32-25.94-4.09-29.83-19.83-2.85-11.51-1.53-22.93,2.88-33.96.23-.58.54-1.13.8-1.7,1.04-2.35.92-2.59-1.3-3.3-1.92-.62-3.89-1.15-5.72-1.99-8.21-3.79-12.23-10.52-12.48-19.32-.12-4.37,1.3-8.61,3.84-12.32.44-.64,1.01-1.19,1.56-1.75,1.18-1.21,2.6-1.89,4.21-1.05,1.78.93,1.47,2.56.95,4.1-.19.58-.58,1.08-1.09,2-.19-1.33-.33-2.29-.56-3.91-.92,1.27-1.71,1.99-2.06,2.88-4.11,10.54-1.35,20.99,10.99,24.43,3.24.91,6.77.84,10.17,1.12,1.24.1,2.5-.13,3.75-.1,2.3.07,3.99,1.16,4.44,2.75.46,1.61-.72,4.03-2.86,4.82-3.26,1.2-5.03,3.57-6.17,6.6-.55,1.46-1,2.96-1.39,4.47-2.22,8.64-2.47,17.25.35,25.83,2.68,8.14,8.62,12.41,16.74,13.84,5.4.95,10.84.47,16.24-.42,1.95-.32,3.95-.35,6.43-.56Z"/>
  <path class="cls-1" d="M373.28,500.29c.15-.02.38-.11.44-.05,5.28,5.73,11.01,11.13,15.7,17.31,5.06,6.67,7.36,14.46,4.9,22.98-.3,1.04-.68,2.08-1.15,3.06-2.78,5.79-8.72,9.09-16.06,5.07-2.56-1.4-4.78-3.51-7-5.47-3.51-3.11-6.8-6.47-10.36-9.52-5.08-4.37-10.84-7.15-17.74-7.54-3.7-.21-7.4-1-11.02-1.88-8.14-1.96-15.86-.23-23.35,2.68-6.25,2.43-12.32,5.34-18.41,8.15-5.79,2.67-11.77,4.1-18.17,3.37-.45-.05-.9-.21-1.76-.43.71-.51,1.16-1.11,1.61-1.11,8.84.12,16.24-3.92,23.61-8.08,7.37-4.15,15.02-7.64,23.31-9.58,8.32-1.95,16.1-.9,23.13,4.16,1.83,1.32,3.63,2.23,6.01,1.96,3.38-.4,6.44.85,9.43,2.26,5.87,2.75,10.71,6.98,15.79,10.88,2.33,1.79,4.85,3.44,7.52,4.63,3.29,1.47,5.93.09,6.69-3.43.76-3.53.94-7.21-.67-10.6-1.94-4.09-4.25-8.01-6.12-12.12-2.38-5.24-4.5-10.6-6.7-15.93-.07-.18.24-.52.37-.78Z"/>
  <path class="cls-1" d="M239.58,491.75c-.76-3.1.76-4.68,2.15-6.28,4.43-5.09,10.15-8.27,16.29-10.73,6.41-2.57,13.12-4.16,19.98-4.57,4.5-.27,8.96.81,13.29,2.21,5.62,1.81,11.23,3.69,16.92,5.26,6.77,1.87,12.98.83,18.24-4.22,3.38-3.25,6.82-6.45,10.28-9.61,2.67-2.44,5.62-4.43,9.15-5.51,5.25-1.61,10.12-.78,13.86,3.11,3.65,3.8,6.66,8.21,9.95,12.35l-.61.82c-.84-.37-1.79-.59-2.5-1.13-2.6-1.99-4.93-4.42-7.72-6.07-6.77-4.03-9.36-4.36-16.48,1.31-3.29,2.62-6.04,5.9-9.06,8.86-2.81,2.75-5.96,5-9.59,6.59-5.94,2.61-11.93,2.09-17.83.19-5.04-1.61-9.99-3.52-14.89-5.51-7.42-3.03-14.98-4.17-22.87-2.32-5.46,1.28-10.93,2.5-16.01,5.05-4.78,2.4-9.24,5.14-12.56,10.18Z"/>
  <path class="cls-1" d="M271.27,468.24c2.11-1.94,4.13-4,6.36-5.78,4.43-3.53,7.57-7.81,8.7-13.45.49-2.44.98-4.88,1.7-7.26.76-2.52,1.56-5.08,2.75-7.41,1.64-3.21,4.3-4.2,7.84-3.74,3.24.42,6.51.9,9.76.8,7.38-.22,15.39-7.01,17.33-14.24,2.47-9.2,2.7-18.48.86-27.79-.96-4.87-4.08-8.72-6.53-12.88-1.26-2.15-2.83-4.12-4.17-6.23-.63-.99-1.03-2.13-.84-3.69,2.13,2.52,4.36,4.97,6.36,7.59,4.54,5.95,9.39,11.7,11.16,19.29,1.76,7.54,2.5,15.1.6,22.69-.56,2.22-1.49,4.43-2.67,6.4-1.77,2.93-3.79,5.73-5.91,8.43-5.64,7.18-13.31,8.75-21.87,7.61-1.38-.18-2.81-.43-4.08-.98-1.97-.86-3.11.1-3.76,1.62-1.16,2.71-2.19,5.49-3.05,8.31-1.83,6.01-5,11.11-10.06,14.86-3.19,2.36-6.6,4.41-9.92,6.6-.19-.24-.39-.49-.58-.73Z"/>
  <path class="cls-1" d="M425.28,478.44c-8.04-4.12-13.59-10.2-16.39-18.62-2.32-6.98-7.88-9.78-14.65-10.58-5.33-.63-10.57.45-15.82,1.29-4.3.69-8.64,1.43-12.97,1.47-8.85.08-13.74-5.61-14.33-13.56-.36-4.78.34-9.64.58-14.47.1-2.01.25-4.02.41-6.46,2.24,1.54,2.33,3.7,2.53,5.69.42,4.19.56,8.41,1.09,12.59.25,1.96.95,3.93,1.77,5.74,1.11,2.47,3.27,3.84,5.96,3.88,2.79.04,5.65-.01,8.38-.53,7.52-1.42,15.01-3.16,22.73-2.39,9.18.92,16.3,5.02,20.15,13.8.56,1.28,1.03,2.62,1.44,3.96,1.65,5.42,4.03,10.47,7.4,15.06.7.95,1.16,2.08,1.72,3.13Z"/>
  <path class="cls-1" d="M335.64,125.95c5.95-4.54,9.65-9.77,11.57-16.28,1.94-6.55-.47-11.64-5.28-15.81-3.14-2.71-7.03-4.03-11.1-4.56-1.27-.16-2.65.57-3.99.81-.66.11-1.83.23-1.94-.02-.33-.74-.61-1.9-.25-2.48.61-.97,1.63-1.81,2.66-2.36,2.92-1.53,6.21-1.41,9.18-.75,10.92,2.43,18.61,8.62,19.91,21.16.81,7.81-2.36,15.22-10.24,19.54-3.09,1.69-6.4,2.26-10.51.74Z"/>
  <path class="cls-1" d="M245.57,115.82c-2.24-.2-4.14-.64-5.25-2.68-.97-1.78.03-3.74,2-3.46,3.01.43,5.97,1.31,8.91,2.14,1.01.28.99,1.63-.06,2.07-1.82.75-3.73,1.3-5.6,1.93Z"/>
</svg>