<?xml version="1.0" encoding="UTF-8"?>
<svg id="Layer_1" data-name="Layer 1" xmlns="http://www.w3.org/2000/svg" version="1.1" viewBox="0 0 595.28 569.61">
  <defs>
    <style>
      .cls-1 {
        fill: #000;
        stroke-width: 0px;
      }
    </style>
  </defs>
  <path class="cls-1" d="M47.85,269.92c4.12.62,7.51.96,10.81,1.67,3.56.77,6.44,2.72,7.05,6.58.6,3.8-1.41,6.76-4.41,8.67-2.84,1.81-5.95,3.6-9.18,4.31-8.34,1.84-16.85,2.88-25.21,4.6-6.45,1.33-12.78,3.23-19.46,4.95-1.19-2.63,1.01-4.55,2.18-6.58,4.68-8.06,7.63-16.63,8.99-25.88.58-3.95,1.83-7.98,3.65-11.52,3.88-7.57,12.61-10.28,20.37-6.86,6.96,3.07,9.56,9.26,6.84,16.36-.45,1.18-1.02,2.31-1.63,3.69ZM14.52,293.7c8.02-4.5,15.95-7.29,24.68-8.09,4.23-.39,8.42-1.4,12.58-2.35,2.89-.66,5.69-1.7,7.35-4.63-1.98-2.51-4.65-2.98-7.46-3.24-5.69-.51-11,.76-16.17,3.08-2.2.98-4.57,1.57-6.87,2.34-.18-.38-.36-.76-.54-1.14,2.22-1.6,4.68-2.97,6.62-4.86,3.18-3.09,6.61-6.18,8.88-9.91,2.71-4.45.79-8.24-4.07-10.18-5.09-2.03-10.37-.24-12.97,5.01-1.49,3-2.35,6.41-2.97,9.74-1.43,7.63-3.73,14.89-7.71,21.59-.5.85-.9,1.75-1.35,2.63Z"/>
  <g>
    <path class="cls-1" d="M322.73,227.01c-16.45,8.67-32.23,16.75-50.53,18.81-13.15,1.48-26.02-.31-39.03-1.04-10.24-.57-20.59-.95-30.79-.14-11.77.94-22.18,6.4-31.59,13.31-4.78,3.52-9.73,4.54-15.22,3.5-2.79-.53-3.83.57-4.71,2.88-2.33,6.13-6.31,11.15-11.03,15.6-4.05,3.82-8.15,7.59-12.29,11.31-10.02,8.99-18.64,18.93-22.43,32.24-.47,1.64-.94,3.3-1.16,4.99-.73,5.7.14,6.44,5.94,4.68,4.3-1.3,8.46-3.04,12.74-4.38,8.77-2.75,17.47-5.84,26.4-7.93,11.09-2.6,22.38-3.08,33.77-1.16,12.86,2.17,23.24,8.35,31.58,18.16,3.32,3.91,6.35,8.08,9.54,12.1.89,1.13,1.89,2.17,3.05,3.49,0-6.65,0-12.8,0-18.96,0-7.9-.2-15.82.07-23.71.29-8.55.85-17.09,1.63-25.61.68-7.44,1.84-14.83,2.8-22.24.08-.63.2-1.34.56-1.82.82-1.12,1.79-2.12,2.7-3.17.52,1.26,1.54,2.55,1.48,3.79-.48,10.47-1.15,20.93-1.79,31.39-.06,1.07-.33,2.12-.38,3.19-.51,10.47-1,20.95-1.49,31.42-.38,8.12-.73,16.25-1.15,24.37-.16,3.09.51,5.86,2.06,8.58,4,7.03,5.8,14.67,5.77,22.76-.03,8.13.46,16.27-1.47,24.3-2.65,11-7.72,20.46-17.44,26.73-2.81,1.81-6.15,3.17-9.43,3.78-7.1,1.33-13.26-2.82-15.33-9.65-1.55-5.13-1.21-11.42,1.26-18.77.42,1.64.68,2.54.89,3.45.63,2.7.95,5.51,1.93,8.08,2.39,6.27,6.92,7.81,12.72,4.53,4.84-2.74,8.13-6.97,10.52-11.84,4.94-10.06,6.22-20.87,5.65-31.89-.14-2.67-1.36-5.4-2.54-7.88-5.47-11.49-12.73-21.81-21.18-31.28-7.95-8.92-18.04-13.34-29.99-14-12.57-.69-24.78.96-36.69,4.83-6.92,2.25-13.75,4.76-20.62,7.16-4.47,1.56-9,2.78-13.81,2.37-5.45-.46-8.68-3.53-8.86-9.05-.1-3.16.14-6.46.94-9.51,3.33-12.55,10.06-23.13,19.79-31.67,7.4-6.49,15.34-12.38,22.58-19.05,3.54-3.26,6.23-7.54,8.87-11.63,1.43-2.22-.36-4.34-3-3.68-1.5.38-3.5,1.29-4.04,2.5-2.94,6.59-8.61,9.86-14.6,12.89-15.51,7.86-26.59,19.93-33.73,35.7-3.32,7.33-5.3,14.93-4.39,23.06.87,7.8,4.3,14.13,11.94,16.81,4.12,1.44,8.85,2.22,13.16,1.81,9.13-.87,18.17-2.7,27.24-4.18,10.99-1.78,21.99-3.54,33.18-2.89,10.83.63,21.14,3.05,30.43,8.99,10.86,6.94,15.65,17.24,16.36,29.67.21,3.67.53,7.55-1.55,12.34-.88-3.07-1.58-4.82-1.87-6.63-3.2-19.56-17.64-30.61-33.33-33.91-9.52-2-19.14-1.96-28.73-.51-10.78,1.62-21.47,3.85-32.29,5.15-6.55.78-13.34,1.03-19.85.2-10.07-1.28-17.16-7.24-21.06-16.74-3.31-8.06-3.38-16.33-.96-24.55,6.08-20.64,18.12-36.67,37.26-46.98,3.58-1.93,7.39-3.4,10.99-5.29,2.05-1.08,4.07-2.39,5.76-3.96,1.59-1.47,1.83-3.1.92-5.63-1.41-3.92-2.25-7.71-6.19-10.15-1.87-1.16-2.96-3.51-4.55-5.18-2.3-2.4-2.34-5.25-1.27-9.06-4.32,1.98-7.82,3.44-11.2,5.16-17.93,9.12-35.84,18.3-53.74,27.46-1.14.58-2.23,1.27-3.4,1.78-.24.11-.84-.24-1.07-.54-.21-.27-.35-.96-.19-1.12,1.53-1.46,2.96-3.12,4.74-4.2,10.61-6.43,21.19-12.95,32.01-19.01,10.46-5.85,21.2-11.18,31.82-16.76,1.29-.68,2.54-1.44,4.34-2.47-2.72-2.07-5.19-1.33-7.54-.84-6.28,1.31-12.49,3.07-18.82,4.01-8.48,1.26-17.07,1.5-25.54-.22-13.89-2.83-22.85-11.37-26.91-24.74-4.78-15.71-3.68-31.28,2.48-46.49,3.84-9.48,10.08-17.35,16.76-24.93,6.8-7.7,13.78-15.25,19.19-24.08,4.84-7.91,7.4-16.34,6.58-25.65-.62-6.96-2.68-13.43-7.14-18.93-4.46-5.5-11.49-7.47-17.24-4.71-3.28,1.57-6.49,3.46-6.85,7.78-.04.48-.63.91-.97,1.36-.63-.48-1.74-.91-1.79-1.45-.13-1.19.02-2.55.51-3.63,3.43-7.56,13.28-11.69,21.13-8.94,4.79,1.68,8.71,4.51,11.57,8.76,8.97,13.31,9.9,27.56,4.4,42.26-3.88,10.37-10.9,18.83-17.87,27.28-4.9,5.94-9.93,11.83-14.25,18.19-9.51,14-12.03,29.54-8.63,46.01,3.11,15.04,13.1,23.29,28.56,23.49,5.76.08,11.52-.65,17.29-.84,5.99-.2,12-.43,17.98-.17,2.68.12,5.63.88,7.89,2.27,3.02,1.85,5.39,1.46,8.34.08,16.86-7.89,33.8-15.61,50.71-23.38,1.14-.53,2.31-.99,3.84-1.64.64,2.89-1.33,4.15-2.92,5.25-4.75,3.29-9.59,6.44-14.5,9.49-3.26,2.02-6.7,3.76-10.93,6.12,2.25.67,3.71,1.39,5.21,1.5,13.33.97,25.27-1.22,37.97-4.94,5.6-1.64,10.57-2.89,15.9-5.65,9.73-5.03,19.47-11.36,29.96-14.54,6.2-1.88,11.05-.48,15.78,3.76-3.77,2.85-8.13,4.08-12.39,4.59-11.48,1.37-21.14,7.11-30.48,12.96-11.15,6.99-23.01,11.16-35.83,13.09-7.88,1.19-15.83,1.03-23.67-.05-3.95-.54-7.8-2.16-11.55-3.67-2.17-.87-3.92-.9-6.06.01-3.85,1.65-7.74,3.44-10.68,6.52-2.18,2.28-8.35,9.06-.81,7.97,1.06-.15,2.15-.39,3.2-.14.63,1.03,0,2.32-.47,3.42s-.63,2.69.45,3.23c.44.22.95.18,1.44.13,1.45-.14,2.9-.27,4.36-.41.41-.04.83-.07,1.21.08,2.99,1.26-1.57,8.46,4.34,7.24,1.48-.31,2.33-2.1,4.07-2.19,2.41-.12,3.72,1.69,4.83,3.59.43.74.66,1.59,1.12,2.31,2.37,3.75,6.96,4.28,10.17,1.19,1.08-1.04,2.11-2.13,3.17-3.19,9.21-9.23,20.44-13.84,33.37-14.42,11.8-.54,23.54.38,35.19,2.08,22.55,3.28,44.35,1.18,65.27-8.23,2.73-1.23,5.49-2.42,8.3-3.44,2.31-.84,4.73-1.57,7.9.04Z"/>
    <path class="cls-1" d="M583.71,156.48c-18.61-7.39-35.32-17.61-48.79-32.8-13.66-15.41-25.41-32.26-37.41-48.94-5.62-7.81-11.3-15.66-19.28-21.33-2.42-1.72-5.11-3.13-7.85-4.28-3.87-1.62-7.84-1.7-11.83.03-3.92,1.7-7.96,3.12-11.94,4.7-12.98,5.17-23.77,13.46-33.22,23.6-8.92,9.58-16.96,19.84-23.83,31-7.59,12.33-16.95,23.13-28.44,31.97-3.86,2.97-8.24,5.26-12.44,7.78-.62.37-1.53.29-2.69-.41.72-.51,1.42-1.06,2.16-1.54,13.35-8.69,23.69-20.26,31.91-33.76,4.01-6.57,7.43-13.49,11.4-20.09,6.65-11.04,14.45-21.21,23.56-30.36,9.22-9.26,20.05-16.12,32.26-20.47,14.24-5.07,27.73-3.47,39.87,6.24,8.63,6.91,15.41,15.48,21.82,24.29,18.19,24.99,38.35,48.24,60.6,69.68,4.15,4,8.65,7.65,12.97,11.48.75.66,1.41,1.41,2.12,2.12-.32.37-.64.73-.97,1.1Z"/>
    <path class="cls-1" d="M222.23,29.02c.51-.43,1.05-.76,1.43-1.23,8.7-10.66,19.95-13.37,32.86-10.22,4.54,1.1,8.89,2.98,13.29,4.59,1.77.65,3.46,1.52,5.32,2.34,1-1.45,1.76-2.72,2.67-3.86,4.38-5.54,10.32-7.27,16.5-3.8,4.01,2.25,7.56,5.55,10.76,8.9,2.31,2.42,4,4.48,7.92,3.85,4.09-.66,7.37,1.74,9.94,4.85,2.82,3.4,4.16,7.43,4.71,11.75.94,7.27-2.54,20.84-9.86,26.76.08-1.71,0-3.02.24-4.27,1.43-7.47,1.27-14.88-.76-22.2-.6-2.17-1.27-4.46-4.15-5.76-.4,1.83-.57,3.25-1.02,4.58-1.13,3.28-3.9,5.08-6.82,4.57-2.69-.47-4.7-2.56-4.64-6.03.13-7.04-3.87-11.59-8.84-15.51-3.28-2.59-4.7-1.9-5.7,2.16-.2.83-.29,1.69-.46,2.52-1.08,5.3-4.11,7.19-9.24,5.38-2.39-.84-4.58-2.3-6.8-3.57-5.98-3.43-12.22-6.26-19.08-7.24-7.85-1.13-14.33,1.58-19.01,8.05-1.49,2.06-2.74,4.34-2.06,7.17.24.99.11,2.13-.11,3.15-.63,3-2.7,5-5.03,5.04-2.23.04-4.83-2-5.61-4.58-.3-1.01-.28-2.11-.4-3.17-1.06-9.29-9.37-14.1-17.71-9.8-3.31,1.71-6.5,4.32-8.74,7.29-4.53,6.01-8.11,12.6-6.05,20.69.09.37-.51,1.21-.93,1.34-.48.14-1.52-.14-1.64-.48-1.08-2.97-3.06-6.09-2.79-8.98,1.2-12.45,6.8-22.41,18.47-28.09,6.95-3.38,13.7-2.55,20.1,1.66.53.35.99.82,1.52,1.17.51.34,1.08.62,1.71.97Z"/>
    <path class="cls-1" d="M582.24,157.98c2.74,6.97.66,13.04-5.42,16.81-5.4,3.34-11.45,4.59-17.67,5.18-1.66.16-3.32.28-5.23.44,1.14,3.82,2.37,7.23,3.17,10.73,1.8,7.9-1.16,14.42-8.21,18.4-4.55,2.57-9.53,3.87-14.73,3.89-4.9.02-9.81-.44-14.71-.56-1.42-.03-3.07-.01-4.23.66-5.18,3.02-10.63,2.78-16.2,1.84-.84-.14-1.69-.27-2.52-.49-4.03-1.03-7.35-1.67-9.71,3.55-1.72,3.81-6.49,4.79-10.57,5.1-8.08.62-16.22,1.35-24.29.14-3.29-.5-6.46-1.84-10.72-3.1,10.14-8.06,20.81-10.4,33-9.85-.95-2.06-1.76-3.44-2.22-4.92-1.74-5.55,2.04-9.96,7.83-9.08,1.67.25,3.26,1.01,4.9,1.48,4.51,1.29,9.03,2.56,13.54,3.83,3.39.95,6.4,1.66,9.01-2.16,1.71-2.51,4.91-1.9,7.72-.96,6.13,2.04,12.45,3.16,18.93,2.64,2.74-.22,5.53-.72,8.12-1.62,4.35-1.52,5.59-3.91,4.47-8.45-.71-2.88-1.97-5.63-2.89-8.47-.58-1.81-1.31-3.66-1.41-5.53-.2-3.45,1.4-5.26,4.88-5.37,3.41-.11,6.84.56,10.25.41,4.86-.21,9.77-.51,14.54-1.4,5.6-1.05,9.01-4.6,9.51-10.54.06-.72.45-1.41.86-2.6Z"/>
    <path class="cls-1" d="M187.28,73.86c-4.64-.06-6.17,3.03-7.55,6.51-2.1,5.29-2.88,10.72-2.39,16.34.83,9.49,7.19,13.53,16.22,10.3,5.36-1.91,9.72-5.33,13.53-9.48.86-.94,1.44-2.16,2.38-3.01,2.83-2.58,6.54-1.47,7.39,2.24.33,1.43.18,2.98.23,4.47.28,8.43,10.31,15.3,18.07,12.01,6.08-2.58,11.6-5.44,13.45-12.57.4-1.53,1.57-3.13,2.84-4.1,3.27-2.48,7.65-.37,8.07,3.71.09.84.16,1.79-.14,2.54-1.56,3.82-.58,7.17,1.84,10.18,2.76,3.43,6.17,6.13,10.72,6.36,3.6.18,7.31.15,10.82-.53,6.75-1.3,13.14-3.77,19.08-7.31,1.39-.83,2.91-1.43,5.04-1.46-.46.77-.79,1.69-1.41,2.3-6.43,6.35-13.24,12.24-21.79,15.57-9.91,3.86-19.36,3.25-27.6-4.08-2.36-2.1-4.16-4.84-6.41-7.53-1.81,1.05-3.79,2.22-5.78,3.36-14.49,8.31-29.8,1.69-34.63-11.37-.14-.37-.47-.66-.89-1.23-1.97,1.19-3.96,2.4-5.95,3.6-4.5,2.71-9.29,4.26-14.63,4.02-7.67-.35-13.41-4.22-15.08-11.58-2.32-10.17-1.06-20.02,5.12-28.79.95-1.34,2.33-2.61,3.8-3.3,2.39-1.12,4.54-.71,5.64,2.82Z"/>
    <path class="cls-1" d="M430.32,317.98c.61-1.41.85-2.41,1.41-3.16,8.09-10.87,10.66-23.71,12.57-36.63,1-6.72-.99-13.17-4.91-18.87-5.91-8.59-13.11-15.85-22.13-21.14-8.86-5.2-17.98-9.99-26.78-15.29-10.69-6.44-19.17-15.06-24.37-26.59-.87-1.93-1.5-3.99-2.07-6.04-.13-.45.32-1.31.75-1.59.38-.25,1.34-.19,1.66.13,1.35,1.35,2.75,2.71,3.77,4.3,7.12,11.13,16.72,19.39,28.59,25.11,7.33,3.54,14.66,7.09,21.87,10.86,9.78,5.11,18.11,12.04,25.42,20.36,10.06,11.45,12.04,24.51,9.36,39.02-2.56,13.82-10.55,23.06-22.8,29.11-.49.24-1.11.21-2.35.42Z"/>
    <path class="cls-1" d="M337.75,488.19c-4.69-5.46-9.17-10.29-13.19-15.47-6.41-8.27-7.82-17.99-6.66-28.03,1.93-16.76,7.17-32.5,15.9-47,2.44-4.06,3.49-8.1,1.79-12.79-1.74-4.81-2.56-10-4.67-14.61-3.87-8.47-4.11-16.88-1.41-25.61,2.3-7.45,5.53-14.35,10.79-20.21,4.86-5.41,9.55-10.98,14.51-16.29,1.96-2.1,4.44-3.7,6.69-5.53.3.29.6.58.9.86-1.15,1.33-2.24,2.71-3.45,3.98-7.71,8.13-14.19,17.1-18.86,27.32-2.16,4.72-3.34,9.61-3.53,14.84-.2,5.55.85,10.58,4.18,15.13,1.38,1.89,2.45,4.02,3.52,6.11,3.56,6.9,3.85,13.93.48,20.99-1.47,3.09-2.84,6.27-4.74,9.09-7.94,11.81-11.76,25.02-13.64,38.92-.48,3.58-.95,7.25-.71,10.84.42,6.27,2.37,12.04,6.24,17.24,4.28,5.74,7.2,12.12,5.85,20.23Z"/>
    <path class="cls-1" d="M509.31,139.44c-7.3,4.19-14.85,5.18-22.76,2.72-5.09-1.58-5.15-1.41-8.13,3.13-.35.54-.7,1.08-1.06,1.61-5.89,8.73-12.83,11-22.77,7.4-1.41-.51-2.77-1.14-4.17-1.69-4.9-1.93-5.72-1.47-6.77,3.86-.83,4.19-1.45,8.44-2.49,12.57-.62,2.46-1.59,4.92-2.89,7.09-2.71,4.54-7.16,6.21-12.18,4.42-3.2-1.14-6.16-2.95-9.19-4.53-3.6-1.88-7.05-4.1-10.77-5.71-4.1-1.78-6.11-.41-6.34,4.09-.1,1.86.59,3.75.74,5.65.04.48-.48,1.27-.94,1.46-.42.17-1.5-.15-1.59-.46-1.06-3.63-2.82-7.31-2.74-10.94.12-5.44,4.46-8.6,9.8-7.35,4.73,1.11,9.22,3.26,13.75,5.11,2.77,1.13,5.38,2.64,8.11,3.85,1.93.86,3.49.12,4.02-1.86.83-3.09,1.42-6.24,2.03-9.38.78-3.98,1.13-8.08,2.28-11.95,2.11-7.11,7.28-9.78,14.43-7.71,3.28.95,6.48,2.2,9.65,3.5,3.36,1.37,5.88.27,7.85-2.41,1.52-2.07,2.72-4.36,4.18-6.47,4.53-6.58,10.06-7.89,17.19-3.58,4.98,3.01,9.91,5.93,15.77,6.82,1.66.25,3.31.51,4.96.76Z"/>
    <path class="cls-1" d="M106.1,102.48c-1.68,10.32-4.82,20.19-9.97,29.35-2.62,4.66-5.68,9.07-8.54,13.59-4.83,7.66-8.7,15.76-10.78,24.59-.73,3.08-.95,6.33-1.06,9.51-.16,4.66,2.39,7.94,6.65,9.15,4.69,1.34,9.61,1.94,14.45,2.68,6.34.97,12.8,1.31,19.03,2.72,9.4,2.11,15.86,8.09,19.52,17.02.36.89.36,1.93.69,3.9-1.93-1.62-3.06-2.55-4.17-3.5-4.33-3.69-9.24-6.21-14.9-7.06-8.88-1.32-17.77-2.5-26.65-3.79-2.32-.34-4.65-.73-6.93-1.31-13.26-3.36-19.06-12.63-16.31-26.04,2.14-10.43,6.74-19.82,12.52-28.66,1.99-3.04,4.12-6.02,6.43-8.82,6.06-7.35,10.36-15.68,14-24.42,1.36-3.27,3-6.42,4.52-9.62.5.23,1,.46,1.49.7Z"/>
    <path class="cls-1" d="M561.39,343.93c4.86,2.79,6.57,6.78,5.15,12.3-.47,1.84-1.29,3.66-2.28,5.28-3.96,6.48-11.16,7.11-15.97,1.16-1.65-2.04-2.27-4.92-3.31-7.43-.8-1.94-1.22-4.12-2.36-5.83-3.32-4.96-5.73-5.73-11.47-3.96-10.71,3.31-20.52,8.61-30.09,14.27-9.75,5.77-19.14,12.16-28.76,18.16-6.17,3.84-12.39,7.61-18.75,11.12-5.18,2.87-10.87,3.7-16.79,3.12-7.59-.76-12.38-5.26-15.75-11.65-.27-.51.24-1.43.39-2.15.6.15,1.32.14,1.76.49.82.67,1.48,1.53,2.18,2.34,5.46,6.31,12.33,7.19,19.86,4.94,7.51-2.24,13.78-6.82,20.02-11.33,16.5-11.93,33.32-23.32,51.76-32.1,4.03-1.92,8.23-3.66,12.53-4.83,8.03-2.19,13.83,1.24,16.39,9.12.85,2.63,1.78,5.23,2.68,7.84.14.4.24.83.43,1.21,1.7,3.37,4.55,5.61,6.74,5.08,3.06-.74,3.64-3.6,4.18-5.97.82-3.62,1.01-7.38,1.47-11.16Z"/>
    <path class="cls-1" d="M300.26,126.23c.75.7,1.36,1.22,1.92,1.78,5.79,5.79,15.94,6.17,22.08.81,2.72-2.38,2.82-3.4.15-5.88-1.84-1.7-3.22-3.5-2.52-6.13.72-2.71,2.51-4.3,5.29-5,7.04-1.77,10.39-5.92,10.66-12.97.2-5.3-1.29-10.17-3.96-14.66-1.55-2.62-3.44-4.88-6.99-4.91-.82,0-1.64-1.03-2.46-1.59.85-.77,1.56-1.88,2.56-2.25,4.37-1.61,8.18.11,11.12,3.07,7.08,7.11,9.87,15.87,8.47,25.81-.6,4.28-2.13,8.34-5.04,11.63-1.83,2.08-2.51,4.16-2.21,6.97.89,8.49-3.5,14.35-10.38,18.43-7.19,4.26-14.76,4.14-22.03.14-6.01-3.31-7.95-8.06-6.68-15.27Z"/>
    <path class="cls-1" d="M321.86,341.64c-17.7,8.23-31.76,5.62-42.93-7.44-8.49-9.93-12.51-21.77-15.52-34.11-1.07-4.36-1.67-8.84-2.9-13.14-1.29-4.5-2.78-9.01-4.75-13.24-3.6-7.75-8.56-14.33-17.62-17.5,1.18-.29,2.42-.97,3.54-.8,4.14.61,7.6,2.7,10.62,5.56,6.51,6.17,10.91,13.67,13.91,22.04,3.03,8.45,5.77,17.02,9.11,25.34,4.93,12.3,12.64,22.3,25.15,27.85,5.5,2.44,11.18,4.22,17.24,4.61,1.4.09,2.77.54,4.15.83Z"/>
    <path class="cls-1" d="M356.53,541.02c0-.97-.16-1.46.02-1.72,8.15-11.52,16.4-22.97,24.46-34.55,2.3-3.31,4.45-6.84,5.98-10.55,2.64-6.41.38-11.66-5.83-14.9-.76-.4-1.56-.71-2.32-1.11-5.67-2.99-7.2-6.42-5.55-12.65,2.23-8.38,6.37-15.84,11.28-22.9,1.46-2.1,3.06-4.13,4.7-6.1,3.45-4.15,6.48-8.48,7.51-13.94.22-1.15.85-2.21,1.86-3.24,1.84,4.26,1.81,8.53-.2,12.57-1.7,3.43-4.01,6.55-5.91,9.89-3.37,5.94-6.72,11.89-9.86,17.95-1.06,2.05-1.59,4.41-2.15,6.68-.57,2.31-.04,4.26,2.55,5.09.41.13.82.25,1.21.43,10.45,4.97,14.34,14.65,10.31,25.59-2.18,5.91-5.58,11.14-9.84,15.66-8.21,8.71-16.68,17.17-25.09,25.68-.79.8-1.91,1.29-3.14,2.09Z"/>
    <path class="cls-1" d="M186.67,176.04c-1.69-1.09-3.46-2.08-5.07-3.29-13.95-10.44-26.55-22.36-38.03-35.41-11.32-12.86-22.21-26.09-33.29-39.15-.42-.49-.85-.96-1.26-1.46-1.15-1.39-2.11-2.96-.61-4.55,1.56-1.66,3.28-.49,4.62.44,2.1,1.46,4.07,3.14,5.94,4.89,12.88,12,24.23,25.4,35.56,38.84,10.21,12.12,20.63,24.06,30.93,36.1.74.87,1.32,1.88,1.98,2.82-.25.26-.5.52-.75.78Z"/>
    <path class="cls-1" d="M450.13,326c.58-.18,1.18-.57,1.74-.51,7.89.82,13.61-3.2,18.34-8.7,3.75-4.36,7.06-9.13,10.21-13.95,6.08-9.29,14.4-14.86,25.36-16.86,6.21-1.13,11.87-.04,17.42,2.52,1.35.62,2.71,1.37,3.81,2.35,7.79,6.92,15.52,13.91,22.95,21.34-6.16-2.08-11.64-5.34-16.97-8.86-3.03-2.01-5.91-4.23-8.97-6.2-12.22-7.87-27.5-5.4-36.66,5.95-2.41,2.99-4.3,6.44-6.87,9.26-4.15,4.56-8.46,9.03-13.11,13.06-3.66,3.16-8.31,4.4-13.21,3.71-1.51-.21-2.92-1.09-4.38-1.66.12-.48.23-.96.35-1.44Z"/>
    <path class="cls-1" d="M392.17,411.68c-2.07-10.8.43-20.42,7.12-28.76,3.46-4.31,7.56-8.11,11.43-12.08,5.96-6.11,12.19-11.97,17.9-18.31,5.93-6.59,10.19-14.19,11.27-23.24.04-.29.55-.53,1.17-1.08,2.69,4.33,1.45,8.58.13,12.73-2.11,6.6-5.69,12.43-10.15,17.66-4.43,5.19-9.13,10.15-13.76,15.18-2.9,3.14-6.02,6.07-8.79,9.32-7.2,8.47-14.19,17.11-16.32,28.58Z"/>
    <path class="cls-1" d="M197.37,122.94c2.57,4.38,1.83,8.78,1.14,13.13-.64,4-1.27,8.04-2.45,11.89-1.18,3.85.08,6.69,2.58,9.3,1.48,1.54,3.22,2.84,4.66,4.41,3.16,3.46,6.72,6.71,9.19,10.62,5.5,8.7,12.73,13.64,23.29,12.94.4-.03.82.21,1.23.32-5.4,5.81-19.11,4.81-24.63-.7-.91-.91-1.99-1.71-2.67-2.76-4.75-7.41-10.29-14.13-16.52-20.37-3.33-3.33-4.51-7.7-3.19-12.45,2.45-8.78,4.92-17.56,7.38-26.34Z"/>
    <path class="cls-1" d="M326.37,546.04c9.82,1.85,18.42-1.41,27.33-1.91-7.88,4.9-15.72,9.79-25.28,10.4-7.48.48-11.45-4.18-9.22-11.3,1.39-4.43,3.48-8.74,5.9-12.72,4.9-8.06,9.85-16.01,10.49-25.79.04-.6.99-1.62,1.49-1.6.65.02,1.61.76,1.84,1.41,1.62,4.63,1.1,9.38-.48,13.8-1.92,5.4-4.56,10.54-6.87,15.8-1.68,3.83-3.34,7.66-5.19,11.91Z"/>
    <path class="cls-1" d="M324.48,160.08c-10.96,1.45-20.4,6.21-29.61,11.44-9.34,5.3-17.17,12.42-23.7,21.75-2.5-3.14-1.75-5.82-.43-8.12,1.68-2.94,3.6-5.85,5.92-8.3,6.49-6.86,13.84-12.7,22.42-16.78,7.38-3.51,15.03-4.71,22.89-1.51.9.36,1.68,1.01,2.52,1.52Z"/>
    <path class="cls-1" d="M297.55,305c1.93.83,3.7,1.81,5.6,2.28.7.18,2.17-.67,2.42-1.36.26-.71-.26-2.32-.9-2.65-1.84-.94-3.9-1.43-5.87-2.09,3.87-3.17,6.07-3.42,9.18-1.01,2.26,1.74,3.22,4.56,2.29,6.72-1.29,3-4.34,4.62-7.85,4.17-3.4-.43-4.43-1.66-4.88-6.06Z"/>
    <path class="cls-1" d="M226,138.91c-4.42,4.57-7.53,5.58-11.02,3.55-1.03-.6-1.47-2.22-2.18-3.37,1.02-.56,2.07-1.63,3.05-1.57,3.13.2,6.23.82,10.14,1.4Z"/>
  </g>
</svg>