<?xml version="1.0" encoding="UTF-8"?>
<svg id="Layer_1" data-name="Layer 1" xmlns="http://www.w3.org/2000/svg" version="1.1" viewBox="0 0 595.28 362.42">
  <defs>
    <style>
      .cls-1 {
        fill: #000;
        stroke-width: 0px;
      }
    </style>
  </defs>
  <path class="cls-1" d="M543.09,271.08c-.14,3.5-1.93,5.14-3.85,6.69-5.39,4.37-11.82,6.73-18.16,9.25-2.45.97-5.04,1.6-7.54,2.47-2.47.86-4.61,2.15-6.82,3.71-5.69,4.03-11.85,7.46-19.16,7.81-3.45.17-6.33-.99-8.75-3.37-1.89-1.87-3.86-3.69-5.55-5.74-3.76-4.53-8.59-7.33-14.01-9.39-6.72-2.55-13.49-5.01-20-8.03-6.55-3.04-11.41-8.05-14.11-14.9-.24-.61-.18-1.33-.43-3.46,2.23,2.22,3.66,3.36,4.74,4.77,4.92,6.43,11.48,10.29,19.11,12.6,3.07.93,6.03,2.25,9.11,3.14,8.79,2.55,16.4,6.86,22.18,14.12,2.47,3.1,5.57,5.14,9.74,4.88,1.89-.12,3.79-.29,5.64-.68,2.95-.62,5.9-1.29,8.76-2.23,1.1-.36,1.99-1.44,2.88-2.3,1.48-1.42,2.62-3.4,4.34-4.31,8.37-4.42,16.86-8.6,25.36-12.76,1.84-.9,3.89-1.38,6.5-2.28h.02Z"/>
  <g>
    <path class="cls-1" d="M294.13,163.27c4.08-4.7,9.45-8.34,16.19-10.41-.82,1.03-1.57,2.13-2.47,3.09-4.14,4.47-8.24,8.92-10.66,14.68-1.23,2.92-4,3.22-4.94.44-2.32-6.91-8.2-8.49-13.87-9.04-8.09-.8-13.72-4.99-18.98-10.42-1.31-1.36-2.71-2.65-4.17-3.85-.71-.59-1.61-1.06-2.49-1.28-.58-.14-1.41.1-1.9.46-.32.23-.5,1.16-.29,1.51.95,1.59,2.75,2.96,1.71,5.06-.97,1.95-2.3,3.73-3.66,5.89,3.62,3.57,8.72,5.47,14.1,6.69,4.85,1.1,9.53,2.48,13.5,5.63.42.33.79.74,1.13,1.16.09.11.01.37.01.99-1.23,0-2.49.21-3.65-.04-4.8-1.01-9.63-1.98-14.35-3.31-6.06-1.71-11.78-4.19-16.46-8.65-1.36-1.29-2.91-2.48-4.58-3.31-.76-.38-2.07.07-2.98.48-.21.1.08,1.57.32,2.36.26.84.73,1.61,1.6,3.44-2.45-.74-4.23-.84-5.37-1.75-1.03-.81-1.93-2.54-1.84-3.8.11-1.69,1.52-3.18,3.45-3.26,3.55-.14,7.1-.04,11.21-.04.67-.93,1.78-2.46,3.01-4.18-1.4-2.51-3.48-5.18-.03-7.92-.69.55-12.15-3.9-13.78-4.28-4.23-.99-8.44-2.06-12.71-2.84-30.62-5.65-60.94-6.52-92.16-5.49-7.91.26-15.74,1.63-23.62,2.21-9.65.71-18.9.45-28.51,2.1-9.32,1.59-18.61,3.4-27.82,5.56-7.75,1.82-15.28,4.47-22.37,8.21-4.24,2.24-8.11,4.96-11.32,8.55-5.45,6.1-4.76,10.51-.07,16.12,4.59,5.51,10.74,9.03,16.79,12.62,8.74,5.17,18.16,8.67,28.2,10.11,6,.86,12.1,1.14,18.17,1.32,7.04.2,14.1.23,21.14-.07,11-.46,21.99-1.25,32.98-1.92,6.82-.41,13.66-.72,20.46-1.32,17.75-1.57,35.44-3.75,52.45-9.33,6.08-2,11.95-4.83,17.61-7.87,2.91-1.57,5.1-4.45,7.66-6.69,1.26-1.1,2.55-2.21,3.97-3.08.44-.27,1.57,0,1.95.41.33.36.26,1.39,0,1.94-2.03,4.18-5.01,7.6-8.66,10.45-.88.68-1.78,1.32-3.66,2.71,8.26-.11,15.4.6,22.51-.66,1.05-.19,2.02-.27,2.09,1.02.03.57-.53,1.48-1.05,1.71-8.96,3.91-18.07,5.86-27.4,1.32-1.39-.68-2.41-.51-3.65.08-14.4,6.86-29.91,9.36-45.5,11.55-12.59,1.77-25.21,3.12-37.94,3.48-8.16.23-16.31.89-24.48,1.16-11.78.38-23.57,1-35.34.71-10.4-.26-20.84-1.44-30.61-5.49-11.27-4.67-22.11-10.11-30.83-19.01-10.23-10.44-7.26-20,1.51-28.09,5.52-5.09,12.28-8.33,19.19-10.98,12.05-4.63,24.6-7.51,37.38-9.42,11.82-1.77,23.66-3.35,35.64-3.61,6.83-.14,13.66-.69,20.49-.91,10.06-.32,20.11.05,30.2-.83,12.69-1.11,25.39.11,38.07,1.66,12.23,1.49,24.4,3.19,36.39,6,4.05.95,8.08,2.07,11.98,3.5,3,1.1,5.93,2.59,8.59,4.35,1.74,1.15,3.29,2.19,5.4,2.79,2.46.69,5.09,2.05,6.78,3.91,4.64,5.09,9.89,8.37,16.82,9.77,4.64.94,8.89,3.84,13.51,5.95h0ZM98.81,133.86c-.02-.19-.03-.38-.05-.58-.79.06-1.58.12-2.37.19.02.2.03.41.05.61.79-.07,1.57-.15,2.36-.22h.01Z"/>
    <path class="cls-1" d="M220.48,157.02c-1.68-.69-2.91-1.19-4.54-1.85,2.12,8.46-2.52,13.18-8.56,17-6.5,4.11-13.84,6.17-21.29,7.67-11.51,2.33-23.13,3.86-34.85,4.92-22.4,2.02-44.82,2.62-67.24,1.75-15.11-.59-30.34-1.13-45.06-5.39-3.86-1.12-7.55-2.54-10.6-5.25-3.26-2.89-4.26-6.67-.3-10.91,1.77-1.9,4.1-3.38,6.4-4.66,10.03-5.61,21.04-8.62,32.14-11.05,12.21-2.67,24.62-4.06,37.12-5.08,16.55-1.34,33.09-.79,49.63-1,6.09-.08,12.21-.18,18.28.26,11.51.84,23.1,1.45,34.3,4.55,3.79,1.05,7.42,2.8,11.02,4.44,1.61.73,3.34,1.71,3.58,4.57l-.03.03ZM31.87,170.8c3.19,2.54,6.6,3.59,10.07,4.52,10.86,2.89,22.05,3.99,33.16,4.29,29.99.81,60,1.19,89.86-3.01,12.39-1.74,24.64-3.94,36.44-8.14,2.99-1.07,5.8-2.76,8.52-4.43,1.22-.75,2.29-2.02,3-3.29,2.21-3.97.97-6.71-3.4-7.97-.54-.16-1.12-.19-1.67-.32-13.15-3.12-26.59-4.05-40.01-4.36-21.65-.49-43.29-.1-64.9,1.87-11.33,1.04-22.57,2.49-33.66,4.92-10.54,2.31-20.92,5.27-30.62,10.18-2.53,1.28-5.1,2.56-6.8,5.74h0Z"/>
    <path class="cls-1" d="M418.63,139.22c1.26,0,2.63-.31,3.77.06,3.92,1.28,7.49.04,11.07-1.22,1.91-.67,3.35-1.79,2.94-4.2-.56-3.31,1.45-5.26,3.76-7.15,2.78-2.28,5.69-4.49,8.08-7.15,4.14-4.59,3.99-7.33.03-11.96-.49-.58-1.07-1.09-1.53-1.69-2.8-3.62-3.03-5.97-.4-9.85,1.37-2.02,3.27-3.68,4.96-5.47,2.6-2.76,5.31-5.42,7.79-8.28,1.1-1.26,1.68-2.96,2.61-4.39,1.48-2.28.8-4.34-.46-6.38-.2-.32-.46-.61-.71-.89-5.64-6.23-5.55-9.07-.5-16.56,2.75-4.07,6.01-7.83,7.42-12.71,1.33-4.58.11-6.64-4.52-6.55-5.4.1-10.39,1.77-14.94,4.77-.47.31-1.29.08-1.95.09,0-.71-.32-1.74.02-2.07,5.81-5.55,12.35-9.64,20.81-8.5,5.61.75,8.76,5.99,7.81,11.74-.83,5.01-3.31,9.24-5.81,13.49-.58.98-1.23,1.92-1.85,2.87-3.05,4.66-3.02,4.64.29,8.92,3.1,4.01,4.19,8.39,2.38,13.32-2.56,6.98-7.37,12.32-12.64,17.31-.83.78-1.79,1.42-2.6,2.21-.94.91-1.06,1.97-.21,3.04.24.3.5.57.76.86,6.51,7.17,4.66,15.1-.49,21.67-2.19,2.8-5.14,5.04-7.9,7.35-1.24,1.04-1.88,2.02-2.17,3.7-1.02,5.85-4.08,8.33-9.98,8.94-5.92.61-11.02-1.46-15.98-4.13.05-.39.09-.78.14-1.18h0Z"/>
    <path class="cls-1" d="M436.61,44.94c-.76-.74-1.74-1.36-2.26-2.25-2.3-3.97-4.35-5.21-8.79-4.26-5.78,1.24-11.24,3.36-16.12,6.83-10.12,7.2-16.64,17.02-20.79,28.53-2.96,8.22-4.52,16.76-5.86,25.38-1.31,8.38-2.43,16.8-5.48,24.84-3.52,9.29-9.69,16.2-18.08,21.26-2.37,1.43-2.47,1.35-6.33.49,12.37-7.6,18.71-18.64,21.26-33-.35,1.98-13.92,3.12-15.83,4.45-1.93,1.35-3.5,3.23-5.66,4.17-3.79,1.64-8.75-.61-10.01-4.54-.15-.48-.26-.97-.34-1.46,1.32.8,2.73,1.52,4.26,1.77s3.19-.02,4.39-1c1.35-1.11,1.94-2.98,3.37-3.97,2.36-1.64,5.58-.22,8.23-.72,1.96-.37,4.35-1.31,6.17-2.08,4.43-1.88,6.77-5.38,7.02-10.21.24-4.66-.75-9.4-1.4-14.08-.35-2.54-2.5-3.48-4.88-3.85,2.58-4.33,3.72-4.29,9.55.04,2.31-9.88,5.78-19.23,11.47-27.68,6.43-9.55,14.79-16.76,25.48-21.12,4.7-1.92,9.6-2.28,14.41-.35,5.08,2.05,6.38,4.18,6.3,9.58-.02,1.14-.13,2.28-.2,3.41l.16-.18h-.04Z"/>
    <path class="cls-1" d="M277.16,72.01c.59-4.24.7-8.08,1.75-11.65,1.24-4.22,4.19-7.47,8.88-7.68,2.63-.12,5.31.99,8.14,1.59,8.8-15.03,17.92-13.53,27-7.13,1.71-1.5,3.27-3.21,5.15-4.45,6.56-4.34,13.55-3.57,20.02,1.22,1.21.9,2.38,1.95,3.29,3.15,1.66,2.16,3.7,3.47,6.28,4.48,8.45,3.3,12.69,13.58,9.13,21.71-1.66,3.79-4.52,6.22-9.01,6.6,3.82-3.31,5.31-7.39,4.41-12.15-.72-3.81-2.46-7.15-6.12-9.8-.57.54-1.19,1.11-1.8,1.69-1.17,1.12-2.62,2.06-4.03.92-1.07-.87-2.47-2.63-2.21-3.59.67-2.45-.18-3.99-1.67-5.62-2.1-2.31-4.47-4.11-7.57-4.8-3.92-.87-7.97,1.35-10.72,5.87-4.02,6.61-4.93,6.67-9.64.6-3.58-4.61-9.03-4.91-13.31-.88-2.47,2.33-3.69,5.23-4.42,8.41-.21.92-.06,1.95-.41,2.8-.86,2.12-3.64,2.57-5.08.84-1.09-1.31-1.86-2.9-3.04-4.1-2.54-2.57-5.08-2.67-7.28.09-1.61,2.02-2.84,4.51-3.59,6.99-.69,2.31-.67,4.83,1.38,6.91,1.06,1.08.01,2.72-.99,2.46-3.26-.84-5.75.08-7.32,2.78-1.93,3.3-3.3,6.9-1.66,10.81.8,1.9,1.72,3.76,2.69,5.58.6,1.12,1.4,2.13,2.39,3.59-6.79-2.76-10.69-8-10.3-14.39.43-7.19,2.82-10.93,9.65-12.84h0Z"/>
    <path class="cls-1" d="M436.45,45.12c.39-.55,1.07-1.08,1.12-1.67.11-1.28.53-2.58,1.76-2.41.81.11,2.01,1.56,2.01,2.42.02,1.79-.22,3.83-1.11,5.32-1.73,2.91-3.72,5.77-6.07,8.2-3.56,3.69-7.52,7-12.07,11.17,2.47.96,3.71,1.5,4.98,1.93,2.32.77,4.74,1.28,6.97,2.25,6.12,2.66,7.98,7.54,4.82,13.42-1.59,2.96-3.99,5.5-6.08,8.18-.81,1.04-1.8,1.93-2.92,3.1,1.5.81,2.83,1.45,4.07,2.22,5.72,3.59,6.64,8.66,3.09,14.15-2.13,3.3-5.05,6.16-7.96,8.85-2.78,2.57-5.93,4.74-9.04,6.92-3.9,2.73-7.48,5.71-10.52,9.47-4.61,5.72-7.79,7.04-17.87,8.56,1.01-1.15,1.52-2.12,2.33-2.6,3.34-2.01,6.39-4.52,7.93-7.99,2.78-6.26,7.71-10.19,13.04-13.94,3.41-2.4,6.81-4.85,9.99-7.55,2-1.7,3.68-3.82,5.3-5.91,1.12-1.45.76-2.84-1.02-3.7-1.37-.66-2.73-1.34-4.04-2.1-4.87-2.81-5.48-6.5-1.68-10.63,1.67-1.82,3.58-3.41,5.29-5.2,1.18-1.23,2.35-2.51,3.25-3.94,2.11-3.35,1.49-5.12-2.26-6.44-2.66-.93-5.48-1.45-8.13-2.41-5.26-1.89-6.22-5.06-2.83-9.56,1.47-1.95,3.36-3.58,5.07-5.36,3.8-3.97,7.65-7.9,11.37-11.95.7-.76.91-1.99,1.34-3l-.16.18.03.02Z"/>
    <path class="cls-1" d="M404.73,274.24c2.64,1.31,5.11,2.62,7.65,3.79,4.82,2.2,7.67,6.04,9.31,10.93.36,1.08.86,2.14,1.02,3.24,1.09,7.66,5.54,13.18,11.32,17.79,3.34,2.66,6.01,5.8,7.88,9.59,2.5,5.03,1.88,8.85-1.87,13.02-4,4.45-9.06,7.42-15.42,11.08,1.25-1.93,1.67-2.83,2.31-3.52,2.59-2.79,5.37-5.4,7.84-8.28,4.16-4.85,3.99-8.27-.5-12.93-1.84-1.91-3.84-3.69-5.92-5.33-6.01-4.74-10.4-10.47-11.74-18.21-.19-1.11-.45-2.23-.78-3.31-1.27-4.11-3.35-7.53-7.33-9.69-5.43-2.95-10.65-4.84-17.25-3.39-5.41,1.19-11.29.24-17.16-.55.72-.4,1.44-1.15,2.17-1.16,6.39-.08,12.24-2.08,18-4.62,9.07-4.02,17.77-8.59,24.55-16.1.51-.56,1.03-1.18,1.67-1.53.57-.31,1.65-.63,1.9-.36.42.44.69,1.49.45,2.02-.92,2.03-1.83,4.15-3.19,5.89-3.44,4.41-8.11,7.4-12.8,10.31-.64.4-1.28.8-2.1,1.32h-.01Z"/>
    <path class="cls-1" d="M329.74,133.84c-7.52,5.24-15.88,7.39-23.95,6.56-11.46-1.17-18.94-10.53-19.63-21.47-.31-4.92.29-9.84.44-14.77.04-1.16.02-2.4-.64-3.35s-2.21-1.36-2.97-.49c-.32.36-.43.85-.54,1.32-.45,2-.89,3.99-1.34,5.99-.38,1.71-.77,3.43-.98,5.18-2.77,22.33,19.33,37.76,39.87,29.52,5.69-2.28,10.89-5.29,15.88-8.76.63-.43,1.1-1.08,1.65-1.64-2.89.16-5.32,1.09-7.78,1.9h0Z"/>
    <path class="cls-1" d="M338.31,198.14c-12.31,9.6-26.59,15.13-41.18,20.04-2.59.87-5.11,1.18-7.73.03-.98-.43-2.18-.64-3.26-.56-4.12.3-7.53-1.19-10.12-4.23-3.3-3.88-7.45-6.35-12.03-8.36-2.06-.9-4-2.15-5.84-3.46-5.31-3.8-6.9-9.3-6.5-15.48.13-1.98.98-3.91,1.84-7.13.67,1.91,1.06,2.64,1.17,3.41,1.21,8.49,5.21,14.73,13.44,18.22,3.21,1.36,6.27,3.64,8.69,6.18,2.93,3.08,5.93,5.8,9.86,7.47,1.17.5,2.17,1.41,3.52,2.31,3.89-4.02,9.11-5.61,14.35-7.31,9.74-3.17,19.36-6.82,27.54-13.17,4.33-3.36,8.08-7.46,12.15-11.15.89-.81,2.65-2.13,2.96-1.89,1.68,1.34.08,2.74-.63,3.78-2.66,3.89-5.55,7.62-8.35,11.41l.11-.11h.01Z"/>
    <path class="cls-1" d="M463.35,220.74c5.7-13.93-8.92-28.96-20.26-34.83-6.73-3.48-13.47-6.96-20.18-10.48-5.57-2.93-10.76-6.38-15.06-11.06-2.63-2.87-4.17-6.29-5.37-9.9-.14-.42.15-1.22.51-1.48.29-.21.98.11,1.48.24.16.04.3.23.41.39,6.93,10.52,17.58,15.81,28.68,20.51,10.03,4.25,21.34,8.67,28.48,17.3,6.41,7.76,7.69,17,3.93,26.22-.61,1.49-1.43,3.05-2.89,3.72.1-.21.19-.43.28-.64h-.01Z"/>
    <path class="cls-1" d="M551.15,247.65c.97-.86,1.84-1.88,2.93-2.55,4.11-2.53,8.29-1.75,10.9,2.35,1.93,3.03,3.8,6.24,4.87,9.64.86,2.74,2.52,4.01,4.77,5.15,2.2,1.12,4.4,2.26,6.47,3.6,5.97,3.89,8.88,9.28,7.53,16.52-1.16,6.2-4.67,10.81-10.21,13.64-4.53,2.31-8.34,1.43-11.75-2.41-1.36-1.53-2.44-3.39-3.31-5.26-2.12-4.56-4.68-8.68-9.03-11.48-.56-.36-.61-1.52-.9-2.32.68-.22,1.44-.75,2.04-.61,3.75.92,7.2,2.41,9.38,5.87,1.62,2.57,3.23,5.15,4.89,7.69,2.33,3.58,4.99,4.05,7.83.86,3.95-4.43,5.99-9.74,1.32-15.36-3.27-3.94-6.99-7.49-10.46-11.27-2.31-2.51-4.85-4.9-6.69-7.73-2.48-3.82-5.28-6.42-10.58-6.32h0Z"/>
    <path class="cls-1" d="M465.08,225.71c10.96,1.9,17.47,10.55,25.14,32,.8-.65,1.52-1.17,2.17-1.77,7.25-6.82,16.21-9.99,25.79-10.5,7.86-.42,14.6,2.93,18.91,10.13-.42.24-.63.43-.69.39-8.74-5.91-17.92-4.62-27.26-1.81-5.42,1.63-9.84,4.78-13.97,8.48-1.26,1.13-2.54,2.3-4,3.12-2.82,1.58-5.26.79-6.48-2.11-.65-1.55-1.01-3.26-1.28-4.93-1.72-11.02-6.39-20.53-14.32-28.42-1.44-1.43-2.69-3.04-4.02-4.57h.01Z"/>
    <path class="cls-1" d="M371.81,299.95c5.02.52,10.06.95,15.07,1.6,2.8.36,5.59.92,8.3,1.7,5.75,1.66,10.08,5.13,12.54,10.69,1.07,2.42,2.07,4.88,2.92,7.38,1.62,4.74,1.3,9.34-1.41,13.64-1.42,2.24-3.03,4.36-4.43,6.62-1.3,2.08-2.75,4.14-3.56,6.42-1.11,3.14.12,4.79,3.46,4.68,2.8-.09,5.63-.58,8.35-1.27,2.82-.72,5.53-1.91,8.47-2.48-5.15,4.69-10.38,9.21-17.85,9.43-7.08.2-11.26-5.46-8.88-12.14.81-2.28,2.24-4.37,3.56-6.44,1.62-2.55,3.41-5,5.15-7.48,1.96-2.8,2.81-5.71,1.41-9.08-.79-1.91-1.21-3.97-1.91-5.93-2.23-6.17-7.04-9.13-13.14-10.41-3.88-.81-7.78-1.5-11.65-2.3-2.58-.53-4.8-1.76-6.79-3.36.14-.42.27-.84.41-1.26h-.02Z"/>
    <path class="cls-1" d="M365.9,300.82c-1.47.09-2.21.33-2.82.14-5.68-1.85-10.79-4.66-14.54-9.44-2.14-2.72-3.4-5.79-3.61-9.38-.9-14.95,4.78-27.37,14.55-38.19,5.34-5.92,10.89-11.66,16.46-17.36,1.57-1.61,3.53-2.87,5.42-4.12.46-.3,1.36.06,2.05.12-.11.67,0,1.52-.37,1.97-5.75,7.05-11.32,14.27-17.43,21-6.14,6.76-10.39,14.37-12.81,23.1-1.54,5.55-1.94,11.19-.66,16.78,1,4.36,3.6,7.91,7.18,10.65,1.93,1.48,3.95,2.85,6.58,4.74h0Z"/>
    <path class="cls-1" d="M367.7,89.15c-.98,6.01-6.14,11.21-11.81,12-7.82,1.08-13.78-2.1-18.03-8.38-1.62-2.39-2.69-3-5.76-2.32-9.9,2.18-18.51-5.4-17.83-15.16.25-3.54,1.87-6.5,4.42-8.93.34-.32,1.03-.29,1.55-.42.12.66.58,1.54.31,1.95-1.53,2.35-2.04,4.88-1.72,7.6.49,4.08,2.54,7.1,6.32,8.78,4.25,1.89,8.16.14,9.9-4.17.7-1.73,1.53-3.53,2.74-4.9,1.11-1.25,2.74-1.94,4.6-.79,1.81,1.12,2.83,2.49,2.21,4.66-.31,1.09-.47,2.38-1.18,3.15-2.24,2.44-1.1,4.48.41,6.57,3.84,5.3,10.54,7.2,16.72,4.49,2.48-1.09,4.73-2.73,7.12-4.14h.03Z"/>
    <path class="cls-1" d="M335.76,101.36c1.53.36.32,3.22-.4,4.43-1.31,2.19-3.18,4.1-5.5,5.22-7.1,3.45-13.75,2.26-19.74-2.39-2.28-1.77-3.48-2.02-6.2-.42-8.73,5.14-19.27.6-21.64-8.9-.86-3.44-.23-6.76,1.44-9.86.22-.41.89-.59,1.35-.88.32.59,1.03,1.29.9,1.75-.73,2.71-.43,5.27.72,7.76,1.72,3.73,4.61,5.97,8.73,6.4,2.26.24,4.6-.37,6.17-2.08s2.25-3.81,3.64-5.51c.67-.82,1.75-1.48,2.82-1.57,1.18-.1,1.36.83,1.54,1.86.33,1.85.87,3.77,2.23,5.07.61.58,1.26,1.06,1.78,1.72.62.8,1.17,1.58,2.01,2.18,2.46,1.79,5.4,2.03,8.24,1.1,1.51-.5,2.72-1.35,4.07-2.12,1.25-.72,2.69-1.09,3.9-1.95.82-.59,1.57-1.33,2.53-1.65.63-.2,1.1-.25,1.43-.17h-.02Z"/>
    <path class="cls-1" d="M280.32,186.59c3.86-1.83,7.84-3.46,11.55-5.55,5.44-3.06,8.78-8.31,12.65-12.98,4.12-4.97,8.01-10.13,12.25-14.99,4.03-4.62,8.74-8.43,14.77-10.24,2.8-.85,2.81-.82,6.29.34-.11.33-.12.87-.34.97-10.5,5.01-17.42,13.8-24.21,22.77-3.89,5.14-7.88,10.21-12.01,15.16-3.02,3.61-7.05,5.39-11.69,6.49-3.53.84-6.16-1.15-9.27-1.95v-.02Z"/>
    <path class="cls-1" d="M446.49,203.05c7.03,3.12,11.4,10.7,10.44,18.93-.97,8.39-4.67,15.65-11.08,21.13-2.33,1.99-5.61,3.05-8.63,4.02-2.25.72-4.76.61-8.15.98,1.23-1.12,1.73-1.74,2.37-2.13,1.13-.68,2.32-1.3,3.54-1.81,8.52-3.58,13.11-10.65,16.33-18.75,2.81-7.06.51-13.35-3.79-19.15-.68-.92-2.39-1.61-1.03-3.23h0Z"/>
    <path class="cls-1" d="M338.2,198.24c4.37-.71,7.44,1.59,9.65,4.82,2.78,4.06,5.06,8.45,7.53,12.72.38.65.62,1.38.9,2.09,1.9,4.73,3.87,9.4,10.32,11.37-5.85,2.01-9.3-.35-12.08-3.43-2.25-2.5-4.03-5.53-5.55-8.56-2.98-5.94-5.58-12.08-10.3-16.97-.41-.43-.25-1.41-.36-2.13l-.11.11v-.02Z"/>
  </g>
</svg>