<?xml version="1.0" encoding="UTF-8"?>
<svg id="Layer_1" data-name="Layer 1" xmlns="http://www.w3.org/2000/svg" version="1.1" viewBox="0 0 489.99 729.5">
  <defs>
    <style>
      .cls-1 {
        fill: #000;
        stroke-width: 0px;
      }
    </style>
  </defs>
  <path class="cls-1" d="M278.78,162.48c-1.22-4.33-3.02-8.6-3.47-13.01-.34-3.38,3.08-4.68,5.87-2.59,1.68,1.26,2.88,3.55,4.69,4.11,2.04.63,4.52-.16,6.8-.33-1.29-1.09-2.42-2.48-3.89-3.22-6.58-3.31-11.62-8.03-14.29-14.99-.74-1.95-2-4.31-1.49-6.02,2.55-8.41-2.51-14.99-5.3-21.86-1.41-3.47-5.75-5.84-8.96-8.47-3.81-3.12-7.91-5.89-11.72-9.01-1.45-1.19-2.45-2.93-3.66-4.43-1.5,1.49-2.97,3.01-4.5,4.46-4.62,4.38-9.14,8.87-13.94,13.04-2.6,2.26-2.74,3.97-1.19,7.14,1.98,4.05.03,6.29-4.05,4.72-3-1.16-3.59-.82-5.14,1.83-3.77,6.43-7.32,12.77-8.77,20.25-2.44,12.63-.05,23.45,11.56,30.34,12.37,7.34,14.5,18.24,12.21,31.07-.15.82-1.11,1.5-1.7,2.24-.57-.72-1.37-1.35-1.65-2.17-.33-.97-.28-2.1-.29-3.16-.09-10.36-4.38-17.9-13.4-23.58-11.75-7.4-16.24-21-13.59-34.88,3.74-19.62,15.53-33.7,30.46-45.68,7.57-6.08,15.29-12.03,23.38-17.39,3.34-2.22,7.74-3.55,11.78-3.9,15.58-1.35,31.11-1.81,45.11,7.29,3.69,2.4,3.29-2.36,4.99-3.49,1.83-1.21,4.67-3.23,5.81-2.6,1.67.93,2.48,3.8,3.15,6,.33,1.07.01,2.39-2.27,1.43-2.81-1.18-4.36-.07-3.89,1.89.39,1.65,1.01,3.39,2.02,4.71.93,1.22,2.52,1.95,3.82,2.89.74-1.15,1.68-2.21,2.18-3.46,1.68-4.22,3.06-8.56,4.91-12.7.4-.9,2.42-1.74,3.43-1.5.99.24,2.2,1.83,2.33,2.93.32,2.79.08,5.64.08,8.47,0,7.51.04,7.55,6.76,5.24,2-.69,3.92-1.7,5.97-2.13,4.38-.9,7.43,2.24,5.28,6-2.67,4.68-2.42,6.79,2.69,9.39,4.34,2.21,1.8,6.37-.35,9.08-2.36,2.97-2.03,4.22,1.19,6.3,5.32,3.43,5.38,9.17,3.48,14.29-1.79,4.82-5.98,7.64-11.38,8.34-6.21.8-6.18.9-4.24,6.99,5.67,17.8,11.65,35.52,16.88,53.45,4.75,16.29,7.11,33.04,8.01,50.03,1.19,22.58,2.35,45.18,4.37,67.7,2.29,25.66,5.87,51.2,12.87,76.06,5.12,18.2,12.82,35.2,27.05,48.46,1.07,1,1.57,2.62,2.33,3.95-1.44-.85-3.01-1.54-4.32-2.56-18.08-14.14-27.9-33.47-33.9-54.99-4.65-16.68-7.73-33.7-8.84-51.01-1.52-23.62-2.75-47.25-4.22-70.87-1.81-28.91-4.88-57.62-13.8-85.4-4.74-14.77-9.08-29.67-13.62-44.51-.62-2.02-1.15-4.12-2.09-5.99-1.39-2.75-3.11-5.33-4.69-7.98-.66,2.71-1.44,5.41-1.95,8.15-.91,4.84-1.42,9.77-2.51,14.57-4.09,17.96-16.39,27.33-33.52,31.37-8.01,1.89-16.08,1.91-23.9-.87-1.69-.6-2.87-2.64-4.28-4.02,1.58.33,3.15.72,4.74.99,3.81.64,7.62,1.26,11.45,1.79.64.09,1.34-.33,2.02-.52-.68-.49-1.34-1.01-2.04-1.47-1.73-1.15-3.99-1.93-5.08-3.51-1.77-2.56.99-2.44,2.45-2.94.51.33,1.02.67,1.54,1-.58-.26-1.17-.52-1.75-.78l-.02.03ZM312.89,96.64c-.17-.21-.34-.42-.52-.62.24.14.48.28.72.42-.07.07-.13.14-.2.2ZM300.22,143.41c-.3.1-.64.16-.9.33-.15.09-.18.36-.26.55.31-.37.62-.75.92-1.12.31-.09.65-.14.92-.3.16-.09.2-.37.3-.57-.33.37-.66.74-.98,1.11ZM313.05,156.22c-.71.7-1.42,1.4-2.13,2.1-1.43.67-2.87,1.33-4.3,2-.29.44-.59.89-.88,1.33.22-.52.44-1.03.65-1.55,1.43-.67,2.86-1.34,4.28-2.01.71-.7,1.42-1.4,2.13-2.09.25-.16.52-.3.73-.5.11-.11.12-.33.17-.51-.22.41-.44.82-.67,1.23h.02ZM342.81,92.46c-2.46-.07-4.93-.35-7.36-.09-.9.1-2.39,1.48-2.37,2.23.35,12.08,6.17,22.17,12.36,32,1.85,2.94,5.91,2.62,8.29.08,2.6-2.77,2.34-7.04-.8-9.09-1.74-1.14-3.97-1.53-5.71-2.67-1.04-.68-2.4-2.42-2.15-3.24.78-2.58,3.72-5.45,3.1-7.3-.82-2.45-4.71-3.72-6.29-6.14-.84-1.29.4-3.95.69-5.99.28-.15.59-.26.81-.46.11-.1.07-.38.1-.57-.23.41-.46.82-.69,1.24h.02ZM292.21,141.38c1.59-1.12,4.36-2.99,7.04-4.99.46-.35.51-1.24.75-1.89-.82-.22-1.75-.79-2.46-.6-9.39,2.54-9.81,2.65-14.51-4.25-1.6-2.35-2.46-4.79-5.86-4.29.57,2.57.54,5.51,1.84,7.65,2.55,4.21,5.76,8.08,13.2,8.37h0ZM276.71,109.65c-.89.85-1.63,1.23-1.72,1.72-.1.6.16,1.69.57,1.88,3.07,1.41,6.19,2.74,9.37,3.88.85.31,1.97-.13,2.97-.23-.41-.84-.6-2.09-1.27-2.45-3.3-1.76-6.73-3.29-9.92-4.8ZM278.67,99.17s-1.34.61-2.72,1.24c1.16,1.19,2.21,2.52,3.52,3.53.77.59,1.93.94,2.91.93,3.43-.02,1.32-.99.84-2.64-.56-1.95.14-3.95-4.55-3.06ZM275.51,74.07c-.2-.14-.41-.4-.6-.39-3.12.07-6.25.17-9.37.31-.06,0-.22.64-.1.82.36.55.91,1.49,1.26,1.44,2.69-.38,5.35-.95,8.01-1.51.3-.06.53-.44.8-.67ZM268.59,81.42c-.79,1.73-1.77,3.52-2.39,5.42-.16.49.8,1.34,1.24,2.02,1.4-2.13,2.8-4.26,4.2-6.39-.63-.22-1.26-.44-3.06-1.06h.01ZM302.13,94.23c1.55-.07,2.59-.05,3.6-.22.23-.04.33-.78.49-1.19-2.29-.47-4.58-.95-6.89-1.36-.2-.03-.73.56-.69.66.27.57.55,1.32,1.04,1.54.9.4,1.95.47,2.45.58h0ZM289.79,124.82c1.65-.59,2.93-1.05,4.21-1.51-1.05-.42-2.09-1.15-3.15-1.19-1.31-.04-2.65.49-3.97.77.98.65,1.97,1.3,2.91,1.93ZM332,110.62c-.39-.51-.85-1.12-1.31-1.73-.23.58-.73,1.23-.62,1.73.15.7.77,1.3,1.19,1.94.22-.57.44-1.15.75-1.94h-.01ZM258.16,84.99c.61-.58,1.22-.89,1.23-1.21.01-.9-.23-1.81-.37-2.71-.35.31-.95.58-.99.92-.1.89.05,1.8.12,3.01h0ZM294.81,161.32c-.24-.18-.5-.52-.72-.5-.58.05-1.14.27-1.71.42.24.19.5.55.73.53.58-.06,1.14-.28,1.71-.44h-.01ZM293.68,168.16c.22-.07.49-.17.77-.26-.22-.17-.43-.42-.68-.49-.26-.07-.56.03-.85.06.25.23.49.45.76.7h0Z"/>
  <path class="cls-1" d="M198.95,35.13c-1.19,6.95-1.95,15.08-4.06,22.83-3.56,13.02-14.71,18.01-27.4,13-1.31-.52-2.81-.92-3.78-1.85-6.46-6.18-12.24-6.7-19.34-.14-4.26,3.93-10.69,2.73-16.2.75-1.98-.71-3.78-1.95-5.76-2.64-5.43-1.89-6.36-1.32-9.52,3.93-1.62,2.69-3.29,5.84-5.79,7.42-4.98,3.15-7.11,5.95-5.1,12.49,2.05,6.67,1,14.16-1.93,20.73-1.67,3.75-4.26,7.34-7.2,10.23-3.85,3.78-9.51,4.81-13.64,1.7-5.21-3.93-9.74-9.11-13.47-14.5-2.71-3.93-4.3-9.04-2.52-14.14.99-2.84,0-4.61-2.06-6.43-7.16-6.4-6.4-14.26-4.03-22.45,1.26-4.36,2.05-8.86,3.45-13.17,1.41-4.3,2.64-8.91,5.17-12.53,4.08-5.83,9.99-9.23,17.38-6.41,3.95,1.5,5.81.7,7.16-3.19.66-1.91,2.17-3.62,3.57-5.18,6.85-7.67,13.87-8.22,22-1.49,2.21,1.83,3.07,2.19,4.33-.76.95-2.23,2.55-4.25,4.13-6.14,6.88-8.25,15.61-10.37,25.49-5.67,2.35,1.12,3.6,1.14,5.44-.37,1.62-1.33,3.46-2.49,5.35-3.39,7.31-3.51,12.63-2.45,17.41,4.28,1.83,2.57,3.23,4.16,6.52,4,1.64-.08,3.31,1.09,5.02,1.43,6.26,1.22,8.8,5.28,8.93,11.32.04,1.76.24,3.52.44,6.35h0ZM161.87,60.58l-1.23-1.09c.49.29.98.58,1.48.87,2.17.65,4.33,1.31,6.5,1.96,5.35,5.46,11.06,3.77,16.71.67,1.13-.62,1.84-2.02,2.74-3.06-1.43.21-2.85.44-4.28.63-5.11.67-10.23,1.32-15.34,1.98-2.19-.65-4.38-1.31-6.56-1.96h-.02ZM191.83,35.02c-1.08,1.71-2.48,3.31-3.15,5.18-.51,1.42-.11,3.17-.11,4.77.97-1.36,2.39-2.6,2.79-4.11.51-1.92.19-4.05.23-6.09.28-.08.59-.1.83-.24.15-.08.2-.34.29-.52-.3.34-.59.68-.89,1.01h.01ZM96.73,97.69c-.58-5.62-.84-8.76-1.29-11.88-.06-.41-1.03-1-1.54-.96-.53.04-1.5.8-1.46,1.13.99,6.62-3.43,11.94-4.24,18.06-.45,3.41.74,7.15-2.92,9.57-.33.22-.55,1.32-.41,1.42.55.38,1.48.9,1.88.67,1.73-.98,4.16-1.84,4.81-3.39,2.29-5.41,3.96-11.09,5.16-14.63h.01ZM61.88,74.08l-1.08.43c1.36,3.41,2.72,6.81,4.08,10.22,2.21-2.99,4.58-5.88,6.53-9.03.57-.92-.15-2.6-.19-3.93-.13-4.18-.2-8.37-.34-12.55-.03-.8-.26-1.6-.4-2.4-.86.55-1.97.91-2.53,1.68-2.62,3.57-1.84,7.21-.15,10.94.5,1.11.17,2.6.22,3.91-.94-.78-1.93-1.5-2.79-2.36-.7-.71-1.22-1.6-1.83-2.41-.43.78-1.02,1.52-1.23,2.35-.26,1.01-.21,2.1-.29,3.15ZM85.95,43.22c-1.19-1.25-1.94-2.52-3.05-3.1-4.02-2.12-9.37-1.23-12.38,2.67-1.72,2.22-2.21,5.38-3.25,8.12,2.31-.33,4.7-.42,6.92-1.05,3.01-.86,5.98-1.99,8.81-3.33,1.11-.53,1.79-1.95,2.95-3.3h0ZM91.49,37.15c.94.59,2.05,1.85,2.95,1.72,1.54-.23,3.86-1.01,4.27-2.13,1.86-5.12,5.03-7.23,10.43-6.13.9.18,1.98-.49,2.97-.77-.59-1.22-.92-2.71-1.83-3.62-2.89-2.89-6.54-2.83-9.66-.89-4.16,2.58-7.84,5.89-9.14,11.84v-.02ZM138.17,15.85c-5.87.89-10.99,4.6-14.08,11-.33.69.34,1.87.55,2.82.58-.29,1.33-.45,1.72-.91.66-.78,1.04-1.78,1.62-2.63,4.87-7.05,5.13-7.07,11.81-2.07,1.01.76,2.61,1.75,3.46,1.42.91-.36,1.61-2.1,1.79-3.33.7-4.7-.96-6.46-6.86-6.29h-.01ZM175.97,35.93c3.49-2.22,6.63-3.75,9.11-6.01,1.14-1.03,1.85-4.59,1.24-5.08-1.6-1.27-4.98-2.66-5.98-1.87-2.88,2.26-5.21,5.41-7.11,8.6-.42.7,1.83,2.99,2.74,4.37h0ZM138.13,65.2c1.96-.65,4.99-1.44,7.79-2.71,1.12-.51,1.75-2.09,2.6-3.19-1.3-.46-2.66-.79-3.88-1.4-4.89-2.43-8.27,3.38-13.01,2.32-1.27-.28-2.86.84-4.3,1.32,1.46.92,2.82,2.11,4.41,2.68,1.62.58,3.46.56,6.39.97h0ZM155.56,24.62c1.74-1.38,3.35-2.13,4.15-3.39,1.71-2.7,3.84-3.78,6.98-3.29,1.03.16,2.14-.23,3.21-.36-1.13-1.11-2.85-3.39-3.3-3.16-4.21,2.12-8.21,4.66-12.19,7.2-.14.09.56,1.49,1.15,3h0ZM85.55,58.56c-.9,1.14-1.63,1.79-1.53,1.97,1.5,2.62,3.07,5.2,4.75,7.71.18.27,1.18.07,1.78-.04.22-.04.59-.6.52-.7-1.75-2.89-3.54-5.76-5.52-8.93h0ZM76.61,106.78c-1.69.73-2.32.99-2.94,1.26,2.03,1.71,4.06,3.42,6.09,5.14.28-.54.94-1.36.78-1.57-1.3-1.76-2.75-3.4-3.94-4.83h.01ZM130.11,53.12c-.34-.54-.75-1.19-1.17-1.84-.19.65-.61,1.34-.51,1.94.12.7.69,1.33,1.06,1.99.19-.63.37-1.26.62-2.09ZM71.95,102.35c-.16.07-.41.1-.45.21-.1.28-.1.6-.15.9.27-.07.71-.09.76-.23.08-.25-.09-.58-.16-.87h0ZM178.35,52.99c-.21-.22-.45-.64-.61-.61-.55.1-1.08.36-1.61.55.22.2.47.59.66.56.53-.07,1.04-.32,1.56-.5ZM169.07,53.17c.62.23,1.16.51,1.73.6.2.03.48-.38.72-.58-.46-.33-.89-.82-1.4-.93-.27-.05-.68.57-1.05.91ZM120.79,39.89c-.21.22-.6.45-.58.65.04.58.24,1.15.38,1.72.2-.23.56-.47.55-.69-.03-.56-.22-1.12-.35-1.68ZM80.5,118.6c.08.17.12.44.24.48.27.09.58.07.87.1-.09-.26-.11-.67-.28-.74-.23-.09-.55.09-.84.16h0Z"/>
  <path class="cls-1" d="M289.52,406.81c1.33-.62,2.55-1.47,3.6-2.48,2.55-2.47,3.23-5.38,4.68-8.45s3.51-6.09,5.12-9.18c5.47-10.51,11.2-20.9,17.85-30.72,8.58-12.68,15.16-26.27,21.36-40.1,3.25-7.26,2.81-14.97,1.39-22.86-3.58-19.91-11.99-36.75-28.22-49.41-3.86-3.01-6.86-7.12-10.19-10.78-10.01-10.97-20.19-21.79-29.88-33.04-3.86-4.48-6.84-9.79-9.69-15.01-1.06-1.94-.72-4.72-.66-7.11.01-.5,1.52-1.18,2.42-1.37.44-.09,1.53.74,1.55,1.19.41,10.1,8.42,14.73,14.65,20.68,16.36,15.64,32.68,31.34,48.96,47.06,7.8,7.54,13.37,16.58,15.97,27.07,2.28,9.2,3.94,18.6,5.16,28.01,1.21,9.39-1.43,18.28-5.95,26.47-3.75,6.8-7.85,13.4-11.99,19.97-3.2,5.08-6.36,10.26-10.17,14.86-4.3,5.2-3.44,9.94-.92,15.5,6.74,14.91,15.37,28.66,25.09,41.72,9.71,13.05,19.74,25.86,29.62,38.79,24.65,32.24,40.09,68.8,50.49,107.72,4.73,17.71,10.1,35.29,14.03,53.18,3.54,16.09-1.17,30.77-11.5,43.54-.95,1.17-2.67,1.72-4.03,2.56-.03-1.7-.32-3.43-.05-5.08,1-6.23,2.52-12.4,3.23-18.66,1.37-12.13-.73-23.94-4.06-35.58-5.14-17.98-10.22-35.99-15.35-53.98-10.91-38.33-30.22-72.12-54.9-103.17-16.07-20.21-31.35-41.04-41.55-65.05-.38-.89-1.13-1.62-1.71-2.42-.54.9-1.19,1.76-1.6,2.72-2.12,4.9-3.62,10-6.71,14.37-2.69,3.8-3.92,8.31-7.15,11.85-3.16,3.46-7.61,5.93-12.29,5.94-3.54.01-6.85-1.66-9.84-3.5-3.39-2.08-6.43-4.99-7.81-8.71-1.65-4.46-.19-9.4,3.14-12.63,1.6-1.55,5.5-3.54,3.45-6.09-.96-1.18-2.77-.79-3.81-1.82-1.79-1.76-.62-4.24.46-6,.85-1.38,1.75-2.76,3.05-3.73.75-.56,1.6-.95,2.44-1.34,3.67-1.7,7.65-3.16,11.16-5.18,1.97-1.14,5.48-4.94,8.04-4.13,7.2,2.29-12.47,11.94-14.49,12.57-2.15.66-4.21.75-5.98,2.33-.17,3.28,6.87,1.22,8.55,2.98,1.93,2.02-4.3,6.67-5.76,8.39-.87,1.02-1.74,2.05-2.38,3.23-1.27,2.34-1.54,5.08-1.52,7.74,0,1.09.07,2.19.42,3.22,1.32,3.87,4.61,4.71,8.37,5.05,2.03.18,4.08-.24,5.94-1.11l-.03-.02Z"/>
  <path class="cls-1" d="M304.18,316.33c-.5-12.64-.93-25.28-2.07-38.01-.91-10.38-5.48-18.55-15.28-23.33-3.68-1.79-5.96-1.72-8.91,1.91-9.75,12.03-15.79,12.89-29.26,5.35-2.77-1.55-5.5-3.2-8.33-4.64-5.46-2.79-10.69-2.32-16.14.6-3.55,1.9-5.14,4.16-5.27,8.18-.33,9.99,1.12,19.72,3.73,29.3,1.58,5.78,3.14,11.59,5.27,17.18,11.44,30.08,8.68,59.85-3.1,88.85-7.02,17.3-15.98,33.84-24.39,50.56-7.95,15.81-15.9,31.58-17.95,49.47-.68,5.95-.81,11.96-1.29,17.93-.07.88-.67,1.72-1.03,2.58-.67-.78-1.69-1.45-1.94-2.34-3.66-12.71-4.79-25.72-3.01-38.78,2.21-16.28,8.5-31.16,16.26-45.61,8.51-15.85,16.67-31.93,24.02-48.34,7.03-15.7,9.51-32.59,7.93-49.73-.83-9.07-3.57-17.95-5.06-26.98-1.94-11.81-4.54-23.64-4.96-35.53-.68-19.22,15.29-29.09,33.13-21.43,2.59,1.11,5.12,2.38,7.65,3.65,7.5,3.75,14.22,2.14,20.61-2.73,7.87-6,13.23-6.3,20.66.03,3.92,3.34,6.69,8.05,9.9,12.2,4.29,5.54,7.56,12.36,12.93,16.47,12.19,9.32,10.91,21.48,8.24,33.55-1.62,7.35-6.04,14.1-9.26,21.09-2.33,5.06-4.71,10.1-7.21,15.08-.42.83-1.59,1.28-2.41,1.91-.42-.84-1.13-1.66-1.22-2.53-1.25-12.03-1.79-23.97-2.26-35.9h.02ZM311.03,296.61c.67,11.34,1.24,21.23,1.86,31.12.07,1.03.48,2.04.73,3.06.56-.76,1.27-1.46,1.66-2.3,2.09-4.48,4.15-8.96,6.11-13.5,3.19-7.37,1.99-14.78-1.31-21.53-1.72-3.53-5.61-5.99-8.52-8.94-.18,3.45-.37,6.91-.54,10.36-.05,1.06,0,2.12,0,1.73h.01Z"/>
  <path class="cls-1" d="M55.15,426.04c14.49-.09,28.94-.06,43.13,3.69,10.42,2.75,19.69,7.68,28.36,13.87,1.19.85,1.77,2.56,2.63,3.88-1.63-.23-3.32-.27-4.89-.72-9.13-2.62-18.06-6.49-27.36-7.77-16.75-2.31-33.71-3.04-50.58-4.54-4.9-.44-9.85-.87-14.63-1.96-10.4-2.39-15.71-10-13.85-20.21,3.55-19.49,4.8-39.18,6.17-58.9,1.22-17.57,3.73-35.06,5.72-52.57,1.43-12.6,3.1-25.18,4.39-37.79,1.75-17.06,6.97-33.13,14.1-48.53,6.08-13.12,12.84-25.96,19.83-38.62,4.81-8.7,10.32-16.92,9.62-27.53-.09-1.31,1.53-2.74,2.36-4.12.3,1.24.76,2.47.88,3.73.86,9.43-1.6,17.94-5.78,26.47-8.54,17.43-16.55,35.13-24.2,52.97-6.02,14.03-8.47,29.03-10.07,44.16-2.67,25.25-5.5,50.49-8.1,75.75-.79,7.72-.51,15.58-1.67,23.24-1.78,11.83-4.38,23.53-6.62,35.29-.26,1.39-.51,2.78-.66,4.19-1.32,12.81,1.19,15.69,14.23,16.02,5.66.14,11.33.02,16.99.02v-.02Z"/>
  <path class="cls-1" d="M47.4,648.87c-5.14,14.95-1.44,20.84,7.81,27.32,12.18,8.53,26.14,10.07,40.58,8.39,1.71-.2,3.39-1,5.01-1.67,11.95-4.94,14.8-13.89,8.11-25.21-.51-.86-1.2-2.55-.96-2.73,1.02-.76,2.41-1.63,3.57-1.51,9.89,1.01,15.45,10.7,11.58,20.58-3.59,9.16-10.38,15.79-20.03,17.22-16.01,2.37-31.76.83-46.05-7.95-9.97-6.13-16.26-14.43-16.25-26.7,0-2.77-.56-5.6-1.31-8.28-3.61-12.94-3.02-25.84.17-38.72,4.91-19.83,10.47-39.52,14.65-59.5,3.39-16.18,5.79-32.63,7.44-49.08,1.56-15.56-1.81-30.93-4.43-46.25-.3-1.73-1.07-3.42-1.11-5.15-.06-2.43.36-4.88.58-7.32,1.01,2.08,2.44,4.07,2.97,6.27,2.54,10.61,5.13,21.22,7.17,31.93,3.07,16.11,1.79,32.25.44,48.52-2.63,31.85-12.7,62.09-18.65,93.2-.93,4.84-2.48,9.63-2.8,14.51-.27,4.06.83,8.21,1.32,12.33l.2-.19h-.01Z"/>
  <path class="cls-1" d="M441.29,300.74c-.09,6.2-3.1,10.41-7.5,13.81-2.75,2.12-3.63,3.66-.39,6.41,9.35,7.95,13.06,18.5,11.4,30.42-2.56,18.29,3.22,34.08,12.93,49,1.92,2.95,3.81,6,5.14,9.24,2.64,6.41,1.28,10.66-4.53,14.6-2.91,1.97-6.09,3.58-9.24,5.16-6.21,3.11-11.97,6.45-11.24,14.85.05.61-1.04,1.45-1.77,1.92-.2.13-1.2-.62-1.53-1.15-4.53-7.31-3.46-15.52,3.18-20.95,3.25-2.65,7.14-4.52,10.78-6.68,5.06-3.01,5.15-3.03,2.43-8.05-3.03-5.59-6.29-11.05-9.31-16.64-6.76-12.52-9.41-25.61-6.52-39.86,1.86-9.2-.79-17.5-8.05-23.94-.26-.23-.52-.48-.77-.73-10.64-10.33-10.63-12.19,1.31-20.76,3.3-2.37,4.96-5.08,4.27-8.88-.87-4.82-1.46-9.89-3.46-14.27-4.98-10.9-10.2-21.75-16.2-32.12-11.67-20.18-23.38-40.33-32.26-61.93-2.92-7.11-4.83-14.65-7.04-22.04-.21-.7.75-1.76,1.17-2.65.61.67,1.65,1.28,1.77,2.03,2.65,16.09,11.67,29.42,19.16,43.31,8.04,14.9,17.48,29.04,25.85,43.77,5.74,10.11,10.97,20.54,15.89,31.08,2.19,4.7,3.05,10.01,4.51,15.05h.02Z"/>
  <path class="cls-1" d="M262.29,710.73c-17.99.79-34.28-2.16-50.26-6.77-7.43-2.15-14.83-4.93-20.34-10.8-2.97-3.16-2.4-6.12,1.39-7.33,4.26-1.36,3.64.24,1.42,2.73-.21.23,1.09,2.55,2.11,3.02,4.77,2.21,9.52,4.83,14.58,6.02,31.83,7.53,63.4,8.13,94.72-3.31,15.53-5.68,30.92-12.08,47.51-14.43,15.13-2.14,30.22-2.26,45.38-.07,6.62.96,13.36,1.1,20.04,1.7.58.05,1.61.96,1.55,1.11-.32.79-.81,1.96-1.45,2.11-12.74,2.97-25.59,5.34-38.74,5.02-18.58-.44-36.51,2.89-54.09,8.59-5.37,1.74-10.7,3.6-16.1,5.22-15.96,4.77-32.07,8.61-47.71,7.19h-.01Z"/>
  <path class="cls-1" d="M187.07,103.36c.96,15.35-1.03,30.29-6.79,44.6-6.23,15.48-16.99,24.98-34.36,25.22-3.86.05-5.06,1.65-4.45,5.18,1.02,5.9,2.32,11.77,2.96,17.71.27,2.53,0,6.22-1.56,7.55-1.68,1.42-5.57,1.61-7.81.68-3.1-1.29-6.33-3.63-8.13-6.41-2.99-4.63-5.31-3.25-8.18-.4-2,1.99-3.91,4.1-6.06,5.91-1.99,1.67-4.51,1.25-5.28-1-2.72-7.98-5.91-15.97-7.14-24.22-1.25-8.4,3.68-11.94,11.63-9.43,4.17,1.32,7.98,5.04,12.01,5.14,3.78.09,7.54-3.44,11.5-4.87,3.28-1.19,6.97-1.27,10.24-2.49,13.16-4.88,23.12-12.9,28.14-26.77,4.89-13.52,5.68-27.56,7.24-41.55.38-3.41-.24-5.63-4.56-3.83-.84.35-2.33-.9-3.53-1.4.62-1.18.99-2.61,1.9-3.47,1.91-1.81,4.68-3.05,6.35-5.06s1.28-4.81,1.9-7.31c.12-.48.38-1.06.87-1.06s.76.61.87,1.11c.68,2.95,1.88,6.2,2.09,9.21.41,5.63.13,11.31.13,16.98l.02-.02ZM106.79,178.18c.05.69-.12,1.49.18,2.06,1.95,3.72,4,7.39,6.01,11.08,5.45-2.22,3.93-7.63,5.08-11.69.88-3.11-2.95-6.01-7.61-6.31-3.61-.23-3.65,2.33-3.67,4.86h0ZM134.35,185.14h-.02c0-1.38.15-2.79-.03-4.15-.28-2.08,1.08-5.61-3.05-4.93-2.85.47-5.13,2.35-4.64,5.79.34,2.37.67,4.87,1.72,6.96.83,1.66,2.74,2.77,4.17,4.13.62-1.56,1.37-3.09,1.81-4.7.26-.97.05-2.06.05-3.1h0ZM122.8,182.84c-.25.54-.56,1.07-.7,1.64-.04.17.4.47.61.7.24-.22.7-.48.67-.65-.1-.58-.37-1.13-.58-1.7h0Z"/>
  <path class="cls-1" d="M143.38,363.1c-.14-.91-.23-1.84-.21-2.78.06-4.05,1.57-7.26,2.41-11.08.78-3.53.02-7.33.04-10.94.03-4.34.11-8.68.18-13.02.05-2.98,1.64-10.8.22-13.32-.39-.7-1.02-1.8-1.64-2.91-.6,1.14-1.64,2.25-1.74,3.44-2.03,23.47-4.15,46.94-5.83,70.44-1.15,16.12-1.7,32.28-2.38,48.43-.04.97,1.11,1.98,1.7,2.97.52-.86,1.38-1.67,1.49-2.58,1.32-10.59,2.6-21.19,3.89-31.78,1.18-9.75,1.23-19.48,2.63-29.01.39-2.67-.37-5.22-.76-7.87h0Z"/>
  <path class="cls-1" d="M161.58,424.13c-1.19-.82-2.19-2.66-2.33-4.13-.84-9.13-1.59-18.27-2.01-27.43-.35-7.77-.02-15.57-.35-23.34-.43-10.23-1.19-20.45-1.89-30.67-.05-.8-.79-1.55-1.21-2.32-.76.68-2,1.24-2.19,2.05-1.12,4.77-2.99,9.64-2.77,14.4.66,14.43,2,28.83,3.4,43.22.68,7.03,1.55,14.05,2.64,21.04.92,5.94,1.79,9.97-2.96,14.56-1.15,1.11-2.55,1.93-3.86,2.85-4.68,3.34-8.31,10.85.33,6.36,5.51-2.87,10.13-7.27,13.82-12.22,1.14-1.53,1.47-2.91-.62-4.36h0Z"/>
  <path class="cls-1" d="M136.2,593.04c.06-26.89,3-49.97,6.12-73.07,2.18-16.07,3.36-32.27,5.08-48.4.64-5.96,1.52-11.9,2.39-17.84.08-.53.82-.97,1.25-1.46.64.67,1.82,1.34,1.82,2.01.09,8.84.39,17.71-.1,26.53-.87,15.86-2.3,31.69-3.37,47.54-1.19,17.62-2.68,35.24-3.25,52.89-.78,24.39.22,48.73,5.55,72.7.3,1.37,1.13,2.65,1.29,4.02.16,1.33-.23,2.73-.38,4.1-.93-.84-1.96-1.61-2.77-2.56-.42-.5-.39-1.35-.69-1.99-10.18-21.56-13.69-44.37-12.96-64.47h.02Z"/>
  <path class="cls-1" d="M118.25,323.47c-4.66-2.05-10.48-3.87-15.51-6.96-17.05-10.49-32.25-22.94-40.53-41.97-.37-.85-.24-1.91-.34-2.88,1.17.32,2.4.51,3.49,1,.57.26.89,1.07,1.34,1.61.68.81,1.47,1.55,2.05,2.43,9.21,14.14,22.99,22.66,37.36,30.44,1.85,1,3.82,1.83,5.8,2.56,7.91,2.89,9.66,2.56,13.3-5.23,7.93-16.93,20.08-30.64,32.54-44.16.74-.81,2.2-.96,3.32-1.41-.07,1.28.27,2.78-.26,3.81-8.93,17.22-17.85,34.45-27.07,51.52-2.97,5.5-7.68,9.14-15.49,9.24h0Z"/>
  <path class="cls-1" d="M115.55,506.67c-2.39,19.93-4.42,39.9-7.26,59.77-2.99,20.89-8.32,41.45-8.2,62.75,0,1.06.17,2.22-.2,3.15-.44,1.13-1.38,2.06-2.1,3.08-.51-.85-1.37-1.66-1.47-2.56-1.19-10.1-3.06-20.2-3.19-30.32-.24-20.23,5.61-39.65,9.55-59.28,4.03-20.13,6.39-40.35,6.45-60.88,0-2.62-1.88-6.19,2.01-8.01.62,2.63,1.58,5.24,1.81,7.9.7,8.09,1.13,16.2,1.66,24.31l.93.09h0Z"/>
  <path class="cls-1" d="M463.01,547.1c-2.09,7.38-3.79,14.18-6,20.8-.9,2.71-1.08,4.67,1.33,6.45,15.47,11.42,14.73,27.82,13.44,44.3-.38,4.91-1.35,9.77-2.24,14.63-.14.76-1.24,1.35-1.9,2.02-.46-.83-1.26-1.62-1.34-2.49-.93-10.19-1.82-20.38-2.6-30.59-.63-8.19-4.07-14.71-10.3-20.16-8.22-7.19-8.2-8.17-3.92-18.16,1.25-2.91,2.4-5.87,3.6-8.8,3.3-8.02,3.11-16.04-1.18-23.49-7.39-12.85-15.27-25.41-22.88-38.13-3.8-6.36-7.53-12.76-11.1-19.25-.59-1.08-.2-2.7-.26-4.08.69.88,1.44,1.73,2.07,2.66,5.76,8.45,11.56,16.86,17.22,25.38,6.83,10.29,13.99,20.42,20.09,31.13,3.03,5.31,4.01,11.78,5.94,17.77h.03Z"/>
  <path class="cls-1" d="M410.66,343.06c0,12.02.14,24.04-.04,36.05-.2,13.57,2.31,26.61,6.99,39.29.45,1.21.38,2.6.55,3.91-.95-.79-2.21-1.39-2.81-2.4-6.83-11.4-9.89-23.83-11.37-37.01-2.34-20.87,1.01-41.6.48-62.4-.21-8.12.04-16.26.02-24.38-.05-18.7-3.9-36.35-14.37-52.2-1.14-1.73-1.77-3.81-2.45-5.79-.19-.54.28-1.3.45-1.96.38.47.78.93,1.14,1.42,10.03,13.54,17.47,28.38,19,45.26,1.8,20,2.36,40.1,3.46,60.16l-1.05.06h0Z"/>
  <path class="cls-1" d="M154.9,232.05c-.56-1.64-1.1-2.96-1.43-4.34-.15-.63.09-1.36.16-2.05.26-2.39.52-4.77.77-7.16-.85.14-2.03-.02-2.49.48-2.24,2.46-6.43,4.42-4.45,8.47.78,1.59,2.57,2.28.03,3.25-.97.37-3.06-.27-3.58-1.1-.82-1.32-1.59-3.79-.92-4.74,3.4-4.83,7.02-9.56,11.09-13.84,1.6-1.68,4.9-2.3,6.45.55,2.03,3.76,3.72,2.48,6.59.9,6.13-3.38,6.15-2.51,9.29,4.07,4.59,9.62,3.11,19.05,1.54,28.83-.75,4.7-2.89,7.8-6.79,10.04-1.48.85-2.96,1.69-4.44,2.53.55-1.44,1.14-2.86,1.65-4.31,1.36-3.85,3.03-7.65,3.8-11.62.2-1.05-3.7-3.65-3.55-3.84,4.34-5.49-4.99-11.4.52-16.73.13-.12-.47-1.02-.79-1.52-.02-.04-.67.21-.9.45-2.2,2.3-4.31,4.68-6.57,6.91-1.2,1.18-2.63,2.12-5.99,4.77h.01Z"/>
  <path class="cls-1" d="M358.65,349.97c1.21,1.45,2.16,2.14,2.5,3.06,3.05,8.23,6.81,16.31,8.79,24.79,3.92,16.76,6.91,33.74,10.16,50.65,2.71,14.11,7.38,27.2,18.33,37.26.63.58.7,1.78,1.03,2.7-.87-.17-1.87-.11-2.59-.53-15.81-9.21-21.57-24.54-24.44-41.29-2.49-14.55-3.78-29.3-6.38-43.83-1.78-9.98-4.91-19.72-7.38-29.57-.2-.78-.03-1.66-.03-3.24h.01Z"/>
  <path class="cls-1" d="M154.23,684.82c-5.68-1.91-13.32-4.42-20.9-7.1-.81-.29-1.3-1.51-1.93-2.3,1-.13,2.14-.63,2.99-.34,9.88,3.42,19.76,4.93,30.05,1.55,5.52-1.82,10.3-4.46,14.09-8.92,2.73-3.2,2.97-6.29,0-9.39-3.17-3.32-6.41-6.56-9.54-9.91-.36-.39-.44-1.43-.18-1.91.26-.48,1.28-1.06,1.67-.9,5.78,2.4,12.13,4.06,17.1,7.63,5.69,4.08,5.83,11.13,1.68,17.05-1.6,2.28-3.6,4.4-5.8,6.09-7.91,6.11-17.37,7.36-29.23,8.45h0Z"/>
  <path class="cls-1" d="M234.19,209.8c-.37.94-.6,2.43-1.43,3.45-3.54,4.36-7.14,8.69-10.93,12.83-4.76,5.18-9.86,10.06-14.59,15.27-6.32,6.96-9.67,15.28-11.38,24.53-1.07,5.79-2.97,11.55-5.39,16.93-1.72,3.82-4.99,6.8-9.76,7.21-5.97.51-11.09-3.41-11.99-9.42-.09-.6.24-1.49.69-1.85.28-.22,1.25.16,1.74.51,1.15.81,2.09,1.94,3.3,2.63,4.13,2.34,7.41,1.96,10.05-2,2.1-3.16,4.19-6.86,4.59-10.51,2.2-19.77,14.54-33.03,28.14-45.68,4.86-4.52,9.28-9.53,13.97-14.24.57-.58,1.59-.72,2.4-1.06.13.31.27.63.6,1.41h-.01Z"/>
  <path class="cls-1" d="M83.34,234.58c11.79,9.43,23.05,19.35,32.97,30.87,4.51,5.23,8.48,4.43,13.52-.87,3.89-4.08,7.33-8.58,11.1-12.78.97-1.08,2.41-1.74,3.64-2.6-.07,1.34.27,2.89-.29,3.98-2.9,5.63-5.56,11.46-9.19,16.61-6.76,9.58-14.5,10.14-23.08,2.08-2.55-2.4-4.49-5.44-6.85-8.05-6.6-7.3-13.28-14.52-19.91-21.8-1.63-1.8-3.16-3.7-4.73-5.55,1-.57,1.99-1.14,2.99-1.71l-.18-.18h0Z"/>
  <path class="cls-1" d="M205.82,296.4c-.04.34,0,.73-.13,1.02-4.03,8.23-8.07,16.49-15.43,22.38-6.32,5.05-11.77,5.94-17.04.43-6.47-6.76-11.38-15.02-16.88-22.69-.26-.36.09-1.71.39-1.79.82-.24,2.21-.42,2.59.03,2.71,3.23,5.16,6.66,7.8,9.94,1.76,2.19,3.54,4.4,5.56,6.33,6.37,6.09,8.94,6.33,15.09.36,5.29-5.13,9.96-10.89,15.01-16.28.5-.54,1.69-.46,2.56-.58.12-.01.31.54.46.83l.02.02Z"/>
  <path class="cls-1" d="M171.62,119.47c0,.71-.06,1.42-.14,2.14-.18,1.63-.46,3.35-1.54,4.58-.83.95-3.93,2.39-5.17,1.57-1.91-1.25-.41-4.76.09-6.36,2.61-8.32-1.83-17.16-1.74-25.89.04-2.53,4.01.85,4.51,1.91.79,1.66.48,3.75.93,5.51,1.38,5.49,3.18,10.87,3.07,16.53h0Z"/>
  <path class="cls-1" d="M233.72,112.37c-1.1,2-2.32,4.13-3.45,6.31-2.42,4.69-4.98,9.33-7.07,14.16-.72,1.66-.55,3.92-.14,5.77.29,1.3,3.41,2.11.83,3.8-.59.39-2.52-.83-3.58-1.65-2.91-2.26-3.67-5.32-1.82-8.46,4.11-6.97,8.47-13.78,12.79-20.63.35-.56,1.09-.88,1.64-1.32.23.58.46,1.16.79,2.01h.01Z"/>
  <path class="cls-1" d="M248.72,124.17c-5.14-.02-8.17-2.3-9.67-6.19-.51-1.31,0-3.86.99-4.74,2.36-2.06,2.18,1.32,3.32,2,2.59,1.57,5.45,2.71,8.22,3.98,1.05.48,2.15.84,3.22,1.26-.9,1-1.63,2.29-2.74,2.91-1.16.64-2.69.64-3.35.77h0Z"/>
  <path class="cls-1" d="M148.22,103.08c-3.29-.24-4.87.03-6.06-.54-1.75-.84-4.63-2.39-4.55-3.44.3-3.77,2.89-.92,4.59-1.04,4.15-.3,8.28-.97,12.42-1.39.6-.06,1.57.3,1.81.76.21.39-.2,1.54-.65,1.78-2.95,1.61-5.98,3.06-7.57,3.86h.01Z"/>
  <path class="cls-1" d="M47.2,649.06c.57.29,1.33.45,1.67.91.47.65.62,1.52.91,2.3-.69-.48-1.53-.84-2.03-1.47-.36-.45-.25-1.27-.35-1.93l-.2.19Z"/>
  <path class="cls-1" d="M83.53,234.76c.25-.33.51-.67.76-1-.06.18-.06.44-.18.53-.22.15-.51.2-.77.29l.18.18h0Z"/>
</svg>