<?xml version="1.0" encoding="UTF-8"?>
<svg id="Layer_1" data-name="Layer 1" xmlns="http://www.w3.org/2000/svg" version="1.1" viewBox="0 0 489.99 729.5">
  <defs>
    <style>
      .cls-1 {
        fill: #000;
        stroke-width: 0px;
      }
    </style>
  </defs>
  <path class="cls-1" d="M284.18,218.54c.07,4.46-6.82,5.87-4.94,11.24.14.39-1.21,1.57-2.06,1.99-5.97,2.94-5.87,2.87-4.19,7.82.75,2.21,4.53,4.54.75,6.68-.71.4-3.84-3.03-5.55-4.97-1.1-1.24-2.2-2.92-2.36-4.49-1.15-11.3-9.61-17.68-16.52-25.14-13.23-14.28-18.02-31.91-18.89-50.68-.49-10.58,5.58-18.39,15.99-21.1,6.88-1.79,12.77-4.53,17.66-9.62.55-.57,1.71-.56,2.59-.81.06.93.54,2.27.1,2.73-3.72,3.91-7.11,8.44-11.57,11.24-5.4,3.41-12.53,4.52-14.63,11.75-2.38,8.2-4.4,16.44-2.65,25.19,3.11,15.48,12.89,26.12,25.03,35.04.96.71,3.99.55,4.3-.08,3.13-6.33,9.99-6.26,15.01-9.28,4.49-2.7,7-.55,9.37,2.8.79,1.11,1.72,2.29,2,3.56.77,3.52,2.16,3.92,5.75,2.95,4.86-1.31,6.71.22,6.33,4.77-.23,2.76-.36,4.18,2.4,5.55,1.62.8,2.23,3.49,3.81,4.57,4.16,2.84,3.92,6.29,1.46,9.69-2.65,3.65-1.57,6.17,1.46,8.6.27.21.49.48.73.72,9.26,9.07,11.7,8.45,17.27-3.45,6.37-13.62,13.09-27.08,19.73-40.57.4-.82,1.51-1.29,2.28-1.93.24.91.88,1.93.65,2.71-4.82,16.77-10.21,33.37-18.94,48.56-5.36,9.32-10.49,9.82-19.11,2.97-5.04-4-5.11-4.09-10.44.64-4.3,3.82-8.44,7.83-12.54,11.86-1.98,1.95-1.98,4.22-.14,6.33,9.88,11.32,18.15,24.14,30.41,33.25,7.01,5.21,11.98,5.18,18.23-1.13,4.51-4.56,8.72-9.85,11.54-15.56,7.1-14.38,13.37-29.17,19.89-43.83,1.1-2.48,1.74-5.17,2.71-7.72.19-.51.93-.81,1.41-1.21.4.76,1.2,1.57,1.12,2.27-.19,1.67-.89,3.28-1.21,4.95-2.99,15.85-7.49,31.27-15.03,45.53-3.64,6.88-8.5,13.18-13.34,19.33-3.43,4.36-8.12,7.44-14,7.7-3.87.17-5.52,1.94-5.23,5.82.2,2.73-.02,5.48.09,8.22.51,12.07-1.03,23.93-4.43,35.46-4.42,14.99,1.78,21.91,14.29,25.44,7.56,2.13,15.27,3.72,23.24,1.29,2.55-.78,5.43-.5,8.17-.62,3.31-.15,6.62-.23,9.93-.34-1.57,4.48-6.09,4.98-9.53,6.22-6.04,2.17-12.43,3.54-18.78,4.6-6.12,1.02-6.93,1.52-5.52,7.74,2.04,8.98,4.44,17.88,6.5,26.86,4.44,19.29,9.32,38.49,12.93,57.94,2.55,13.73,3.43,27.78,4.84,41.7,1.93,19.02,3.77,38.05,5.37,57.1.25,2.93,2.36,6.63-1.59,8.98-.61-2.87-1.34-5.72-1.82-8.62-8.59-51.49-16.73-103.06-28.13-154.05-2.37-10.62-3.63-21.54-4.61-32.39-.4-4.38-1.33-6.6-5.71-8.12-8.37-2.92-15.31-8-17.62-17.18-.88-3.51-1.03-7.39-.6-10.99.44-3.68,1.82-7.28,3.09-10.81,2.8-7.78,4.5-15.69,4.52-24.04.01-4.75,1.06-9.5,1.6-14.25.36-3.14.48-6.19-2.75-8.17-13.02-8-19.92-21.43-29.11-32.83-1.07-1.33-1.93-2.83-2.97-4.19-1.02-1.33-2.14-2.58-3.22-3.87-.97,1.34-2.11,2.6-2.88,4.04-2.59,4.81-4.68,9.92-7.66,14.47-2.79,4.25-6.24,8.14-9.78,11.81-6.99,7.25-15.63,8.26-24.59,4.77-11.14-4.35-19.98-11.73-25.72-22.43-8.25-15.38-16.37-30.83-19.75-48.21-2.83-14.55-3.42-29.04.16-43.64,3.25-13.28,5.97-26.72,4.89-40.53-.37-4.74-1.18-9.46-1.93-14.17-.81-5.12-2.91-8.63-8.94-9.4-3.07-.39-6.18-2.84-8.6-5.08-2.02-1.86-3.08-4.77-4.56-7.22-2.23,1.57-4.28,3.6-6.75,4.58-2.73,1.09-6.25,2.36-8.71,1.51-5.01-1.73-7,1.13-9.18,4.23-6.15,8.78-10.35,18.49-12.82,28.88-5.22,21.98-8.57,44.1-8.6,66.88-.02,21.85-2.41,43.69-3.29,65.56-.52,13.01-1.28,25.94-4.46,38.61-4.27,17.05-11.44,32.9-20.38,47.96-4.08,6.87-9.27,12.81-16.69,16.25-3.47,1.61-3.36,3.65-1.72,6.45,1.56,2.65,2.84,5.48,4.47,8.08,7.16,11.46,18.04,13.09,28.69,4.47,5.49-4.44,8.87-10.32,11.83-16.54.35-.74,1.32-1.19,2.01-1.78.03.93.13,1.86.09,2.78-.05,1.02-.51,2.1-.29,3.03.27,1.16.83,2.46,1.7,3.2.4.35,2.19-.17,2.69-.81,3.34-4.25,7.84-8.19,9.45-13.07,3.08-9.32,6-19.15,6.27-28.85.55-19.11-.53-38.29-1.35-57.43-1.34-31.48-3.64-62.97-1.86-94.46,1-17.67,2.54-35.49,8.12-52.49,2.21-6.72,5.77-13,8.95-19.36.43-.87,2.24-1.04,3.42-1.54-.2,1.08-.07,2.4-.65,3.21-6.32,8.94-8.02,19.46-9.99,29.79-4,20.92-4.9,42.12-4.02,63.35.92,22.2,2.66,44.37,3.74,66.57,1,20.5,2.19,41.01,2.16,61.52-.02,11.2-2.05,22.52-7.66,32.63-4.39,7.91-9.42,15.13-19.95,15.56-1.88.08-3.91,2.19-5.43,3.79-2.34,2.46-3.98,5.63-6.47,7.9-10.91,9.97-26.05,8.74-35.29-2.82-2.12-2.65-3.78-5.69-5.45-8.67-2.49-4.4-4.18-9.06-9.36-11.7-3.7-1.89-2.38-5.83,2.09-7.21,2.92-.9,6.01-1.36,8.78-2.58,6.17-2.72,10.45-7.6,13.87-13.29,14.17-23.53,22.51-48.66,24.17-76.38,1.53-25.6,3.58-51.15,4.36-76.82.62-20.48,4.25-40.73,10.08-60.47,3.71-12.56,8.6-24.58,17.86-34.22,2.5-2.61,2.47-4.83,1.54-8.22-3.85-14.14-.12-27.01,7.84-38.86,2.81-4.19,6.89-7.33,11.89-6.9,3.67.32,4.52-1.36,6.18-3.67,10.25-14.31,24.72-22.87,41.85-22.04,13.35.65,27.97,3.29,35.27,18.07,2.71,5.5,5.96,10.73,8.97,16.08.31.54.71,1.04,1.06,1.55.45-.51,1.15-.95,1.3-1.53.67-2.62.84-5.43,1.9-7.86.65-1.49,2.59-2.43,3.95-3.61.8,1.31,2.32,2.64,2.28,3.92-.2,6.84.28,13.96-1.49,20.43-2.73,9.92-.78,19.6-.39,29.31.34,8.38,5.97,13.87,13.84,16.01,10.68,2.9,21.67,3.59,32.39.14,4.75-1.53,8.65-.67,12.56,1.74.51.31.96,1.1.97,1.68,0,.32-1.02,1-1.49.92-9.47-1.5-18.15,2.8-27.21,3.61-19.94,1.79-35.95-7.77-39.84-30.83-.45-2.69-.78-5.51-.51-8.19,2.23-21.74-11.01-35.54-25.03-48.87-3.1-2.95-3.92-2.27-5.51,1.47-2.78,6.55-5.5,13.2-9.04,19.35-5.36,9.34-6.83,13.28-6.91,24.5,0,1.01.21,2.02.32,3.03.32,2.89,5.72,3.86,3.23,7.25-.59.8-4.77-1.16-7.34-1.56-.5-.08-1.84,1.36-1.71,1.75,2.46,7.65-2.47,12.06-6.9,16.9-1.05,1.15-1.58,3.81-1.01,5.25,7.19,18.22,7.37,37.06,2.77,55.5-5.97,23.91-2.05,46.72,4.07,69.66,2.2,8.26,5.05,16.13,9.42,23.63,6.16,10.59,15.71,15.9,26.69,19.28,5.51,1.7,10.13-1.26,13.73-5.12,5.37-5.75,10.36-11.86,15.48-17.84,5.1-5.96,9.78-12.16,13.21-19.32,2.09-4.37,5.35-7.75,10.61-8.9,2.44-.53,4.23-2.38,1.24-5.18-1.24-1.16-2.23-3.32-2.2-5,.09-5.17-.87-8.65-7.25-8.48-2.45.06-2.92-2.65-1.85-4.75,1.23-2.43,2.88-4.65,4.24-7.02.21-.36-.17-1.05-.28-1.59-.58.16-1.28.17-1.72.52-.51.4-.81,1.07-1.16,1.64-1.08,1.78-2.31,3.91-4.57,2.04-.7-.58-.2-3.01.26-4.44.4-1.24,2.23-2.32,2.14-3.35-.17-1.84-1.32-3.58-2.06-5.36-.68,1.11-1.15,2.52-2.12,3.26-.96.73-2.43.79-3.68,1.15-.14-.24-.26-.51-.44-.71-.09-.1-.31-.09-.48-.14l1.14.61-.04.06ZM170.72,84.87c.99-.04,2.14.22,2.94-.2,1.53-.8,2.87-1.99,4.29-3.02-1.84.28-3.76.36-5.5.95-.7.24-1.03,1.6-1.52,2.45-.21.47-.43.94-.64,1.41.15-.53.29-1.06.44-1.59h0ZM207.93,122.12c-2.59.69-5.23,1.23-7.72,2.18-.54.21-.99,2.16-.63,2.87.74,1.47,2.07,2.65,3.15,3.95,1.11-1.18,2.52-2.2,3.25-3.58.9-1.7,1.24-3.69,1.81-5.56.31-.44.62-.88.94-1.32-.27.48-.53.97-.8,1.45h0ZM212.05,105.68c-1.92,1.15-3.79,2.4-5.79,3.39-.75.37-1.8.14-2.71.18.19-.79.29-1.62.59-2.37.46-1.16,1.06-2.27,1.6-3.4.29-.09.62-.13.86-.29.14-.09.14-.38.21-.59-.3.35-.59.7-.89,1.06-3.37-.16-6.74-.35-10.1-.48-2.01-.08-4.66-3.42-5.78.32-.43,1.43,1.77,3.85,3.11,5.56,1.02,1.29,2.45,2.35,3.89,3.2,6.88,4.07,11.92,1.74,14.85-6.77.29-.41.59-.83.88-1.24-.24.47-.47.95-.71,1.42h-.01ZM216.16,54.32c-12.19,3.14-22.14,9.89-30.59,19.04-1.77,1.92-2.05,3.76-.78,6.4,2.86,5.95,2.72,6.51,9.48,5.19,5.57-1.08,11.03-3.07,16.28-5.28,4.66-1.96,7.46-5.76,7.47-11.13.19-.17.39-.35.58-.52-.13.24-.25.48-.38.72-2.54,1.65-5.06,3.32-7.62,4.94-5.96,3.79-12.54,5.28-19.53,5.01-.83-.03-1.63-.74-2.44-1.13.64-.72,1.18-1.94,1.94-2.09,8.5-1.7,16.41-4.59,23.12-10.32,5.03-4.29,5.11-4.2,2.26-11.04.23-.23.46-.45.69-.68-.16.29-.33.59-.49.88h.01ZM194.87,90.55c-1.51-.46-2.15-.79-2.82-.84-.95-.07-1.9.07-2.86.13.18,1.25-.1,3.03.62,3.65,1.71,1.47,3.77,2.97,5.9,3.42,10.48,2.21,21.28-4.93,23.94-15.6.22-.9-.17-1.94-.27-2.92-.66.67-1.4,1.28-1.97,2.03-5.92,7.76-13.91,10.57-22.54,10.13h0ZM169.83,108.07c.79,2.74,1.39,4.83,1.99,6.91,1.68-1.56,3.98-2.82,4.9-4.74,1.84-3.86,3.14-8.02,4.15-12.18.29-1.18-1.31-4.03-1.88-3.98-1.72.14-4.25.88-4.87,2.16-1.86,3.82-2.97,8.01-4.29,11.84h0ZM187.94,111.77c-.67.47-1.71,1-1.65,1.18,1.03,3.22,2.08,6.45,3.47,9.52.2.44,2.38.44,3.34,0,1.81-.84,3.4-2.16,5.08-3.28-1.11-.56-2.33-.98-3.3-1.72-2.39-1.83-4.66-3.8-6.94-5.69h0ZM231.26,59.95c-.81-1.44-1.42-3.81-2.37-3.96-3.37-.53-1.9,2.52-2.28,4.08-.72,2.92-1.29,5.89-1.61,8.88-.08.75,1,1.63,1.54,2.45.62-.48,1.6-.85,1.81-1.47,1.05-3.19,1.91-6.44,2.92-9.97h0ZM167.23,116.1c-1.12-5.02-2.23-9.95-3.34-14.89-.17.07-.48.14-.48.2.04,5.04.02,10.08.26,15.11.03.7,1.36,1.34,2.09,2.01.47-.79.95-1.58,1.46-2.43h0ZM165.84,94.28c-.14.27-.37.54-.41.82-.04.31.1.64.16.95.15-.28.38-.54.42-.84.04-.3-.11-.63-.17-.94h0ZM270.67,227.64l-.35.61.48.08-.13-.69Z"/>
  <path class="cls-1" d="M349.94,93.17c.91,7.24-2.48,12.52-7.77,16.89-.72.6-1.77.81-2.66,1.2-.12-1.17-.37-2.35-.32-3.51.04-1.01.24-2.1.69-2.99,1.94-3.82,1.32-5.31-3.41-5.44-4.21-.11-2.92-2.88-.91-4.67,2.18-1.94,3.44-2.43-.74-3.65-10.36-3.04-15.75-10.72-15.92-21.35-.09-5.34-1.93-6.86-7.01-7.34-7.27-.69-16.84-.34-24.55,1.99-2.92.88-5.96,1.38-8.97,1.96-8.94,1.74-15.31-2.09-18.15-10.9-1.45-4.51-2.83-9.05-4.25-13.57-3.01-9.55,2.1-20.64,11.96-24.3,8.89-3.3,18.04-6.01,27.25-8.31,3.48-.87,7.57-.45,11.1.46,2.79.72,5.04,1.27,7.77-.09,1.4-.7,3.9-1.08,4.92-.31,6.43,4.84,12.28,2.19,18.81,0,6.56-2.21,11.42,1.03,14.41,7.96,2.68,6.21,6.05,11.42,13.2,13.17,3.56.87,5.39,3.69,7.02,6.93,7.13,14.21,7.47,28.72,3.51,43.89-1.56,5.96-3.91,12.1-1.7,18.69,1.1,3.28,2.3,5.54,6.09,5.74.92.05,1.79,1.1,2.68,1.69-.79.62-1.52,1.69-2.37,1.8-6.41.79-13.26,2.88-17.24-5.01-.33-.66-1.67-.82-2.54-1.22-.24.91-.8,1.87-.67,2.73,1.66,10.77,7.06,19.55,14.07,27.75,14.04,16.41,22.97,35.5,27.86,56.47,1.39,5.97,2.5,12.06,3.05,18.16,1.74,19.4,3.23,38.82,4.66,58.24,1.48,20.11,2.32,40.28,4.32,60.34,1.59,15.95,4.53,31.76,6.82,47.64,1.86,12.93-3.68,21.87-15.54,25.14-.88.24-1.94-.14-2.92-.24.23-.84.18-2.02.73-2.48,7.86-6.52,8.67-14.41,6.54-24.06-3.38-15.31-5.48-30.91-8.07-46.4-.34-2.02-.49-4.08-.61-6.12-1.51-27.3-2.86-54.62-4.54-81.91-.95-15.33-1.87-30.71-3.83-45.93-2.58-20.02-10.72-38.05-22.4-54.45-3.1-4.34-3.96-4.3-8.02-.72-4.09,3.61-8.17,7.23-12.24,10.87-1.23,1.1-1.03,1.66.31,2.97,6.2,6.11,6.13,8.52-.48,13.46-3.26,2.44-6.93,4.4-10.62,6.15-3.08,1.46-3.64,3.1-2.74,6.41,1.34,4.91,1.89,10.05,2.67,15.1.96,6.26.69,12.59-2.96,17.84-7.83,11.25-9.51,23.8-9.18,36.97.03,1.15-.59,2.31-.91,3.47-.8-1.07-2.27-2.12-2.3-3.2-.19-7.48-.44-14.99.07-22.44.3-4.36,1.6-8.76,3.09-12.91,4.19-11.66,2.97-23.56,1.96-35.44-.62-7.31-2.44-8.87-9.51-8.04-3.74.44-7.06.31-8.67-3.4-1.48-3.4-.32-6.64,2.06-9.51,4.57-5.51,10.43-7.87,17.33-6.33,3.35.75,5.59-.21,8.45-1.62,8.39-4.14,15.83-9.37,22.44-15.98,1.81-1.8,2.41-3.08,1.03-5.12-3.83-5.69-4.56-11.98-3.98-18.66.16-1.83-.51-4.04-1.54-5.6-2.01-3.06-4.53-5.78-6.84-8.64-.21-.18-.41-.36-.62-.54.28.11.55.22.83.33h0ZM271.65,23.45c-.74.6-1.48,1.2-2.22,1.81-5.43,1.6-6.46,5.62-5.84,10.56-.29.06-.61.07-.85.21-.15.09-.17.39-.25.59.29-.35.59-.69.88-1.04,2.12-3.35,4.23-6.69,6.35-10.04.58-.77,1.15-1.53,1.73-2.3.24-.19.49-.38.73-.57-.18.26-.35.52-.53.78h0ZM340.01,14.43c-2.47,1.77-5.81,2.94-6.3,4.85-.53,2.09,1.02,5.36,2.68,7.19,2.21,2.44,3.07-1.27,4.67-1.99,1.22-.55,2.44-1.22,3.74-1.47,3.09-.59,1.82-2.49.89-3.6-1.44-1.71-3.37-3.01-5.67-4.98h-.01ZM333.11,78.27c-.7-3.28-1.34-6.54-2.13-9.76-.26-1.05-.9-2.01-1.36-3-1.38,1.24-4.12,2.9-3.9,3.64,1.15,3.72,3.05,7.22,4.8,10.73.13.26,1.31.31,1.71.04.46-.31.61-1.1.88-1.64h0ZM270.85,53.19c-1.52.42-2.56.48-2.63.77-.23.9-.47,2.46-.03,2.76,2.44,1.68,4.97,3.37,7.71,4.42,1.3.49,3.15-.45,4.75-.74-.82-1.15-1.4-2.68-2.51-3.39-2.5-1.6-5.26-2.79-7.29-3.83h0ZM343.95,158.19c-.94-1.61-1.31-2.62-1.55-2.59-1.81.23-3.94.19-5.28,1.17-1.45,1.06-2.16,3.13-3.13,4.79-.05.08.5.7.6.66,3.09-1.29,6.15-2.63,9.36-4.02h0ZM340.23,60.89c-.21,2.91-.45,5-.45,7.08,0,.38.94.76,1.45,1.14.54-1.79,1.27-3.55,1.49-5.38.07-.62-1.17-1.39-2.49-2.85h0ZM328.27,156.92c-.57-.98-1-1.85-1.08-1.82-1.75.68-3.47,1.47-5.19,2.23.21.41.52,1.2.63,1.18,1.82-.45,3.62-.99,5.64-1.58h0ZM319.45,17.88c-.56-.69-1.27-1.71-2.15-2.53-.16-.15-1.58.66-1.55.76.65,2.12,1.43,4.2,2.18,6.29.41-1.23.83-2.47,1.52-4.52ZM360.82,84.97c.7-1.89,1.24-2.61,1.14-3.23-.23-1.48-.76-2.91-1.16-4.37-.81.39-2.36.97-2.32,1.13.49,1.79,1.21,3.51,2.34,6.47ZM318.94,58.72c1.27-1.87,2.24-2.97,2.73-4.26.13-.34-1.21-1.25-1.87-1.9-.76,1.04-1.72,2-2.2,3.16-.2.49.58,1.4,1.34,3ZM353.63,43.18c-.55-1.08-.83-1.63-1.11-2.18-.78,1.22-1.72,2.38-2.25,3.7-.2.48.57,1.36.9,2.06.88-1.27,1.75-2.53,2.47-3.57h-.01ZM270.48,46.45c-.58-1.57-1.17-3.14-1.76-4.72-.36.72-1.08,1.48-1,2.15.14,1.2.77,2.33,1.19,3.5.5-.3,1-.59,1.57-.93ZM310.48,53.94c-.84-.47-1.62-.9-2.41-1.34-.14.5-.53,1.15-.35,1.47.31.54.95.97,1.54,1.23.14.06.65-.72,1.21-1.36h.01ZM291.54,22.03c-.67.61-1.49,1.03-1.47,1.4.06.96.48,1.89.76,2.83.35-.45.94-.88.98-1.35.08-.91-.16-1.85-.28-2.87h0ZM338.82,83.82c-.59-.23-1.17-.53-1.78-.66-.21-.04-.5.33-.76.52.39.34.77.94,1.16.95.46,0,.92-.51,1.39-.81h-.01ZM371.98,62.47c-.21-.56-.43-1.11-.64-1.67-.21.24-.57.48-.58.73-.03.57.11,1.15.18,1.72.35-.26.69-.52,1.04-.79h0ZM342.57,85.72l-.37.41.64.08-.27-.48h0Z"/>
  <path class="cls-1" d="M52.28,698.76c22.65-.24,43.92-7.24,65.58-11.92,14-3.02,27.91-6.65,42.05-8.74,11.69-1.73,23.18.94,33.58,6.8,5.05,2.85,9.67,6.45,14.51,9.67,5.12,3.41,10.08,7.11,15.44,10.1,12.07,6.72,24.94,7.67,37.6,2.44,9.11-3.76,17.58-9.09,26.39-13.6,8.21-4.2,16.31-8.7,24.8-12.23,12.67-5.26,26.16-5.59,39.41-3.38,11.83,1.97,23.54,4.26,35.61,3.78,1.41-.06,2.86.93,4.3,1.43-1.16,1.12-2.14,2.6-3.52,3.3-10.42,5.28-21.75,6.95-32.96,4.85-21.44-4.02-40.6.82-58.89,11.86-8.47,5.11-17.26,9.85-26.31,13.84-20.78,9.17-40.67,6.82-59.29-6.16-3.65-2.54-7.42-4.97-10.76-7.89-15.73-13.75-33.83-16.82-53.69-12.3-17.65,4.02-35.21,8.48-52.96,12-12.37,2.45-24.94,4.55-37.5,5.08-9.04.38-18.24-1.9-27.3-3.4-2.58-.42-5.2-1.87-7.32-3.5-4.75-3.65-4.98-9.14-.58-13.21,1.97-1.82,4.45-3.21,6.91-4.34,4.96-2.28,9.99-4.48,15.13-6.3,19.33-6.88,35.77-18.52,51.65-31.1,1.86-1.47,3.66-3.18,5.01-5.12,14.89-21.26,30.64-41.94,41.32-65.88,9.89-22.17,20.64-43.96,30.52-66.13,8.37-18.78,14.3-38.43,17.44-58.76,1.61-10.45,2.42-21.1,2.61-31.68.57-31.74,7.83-62.18,17.23-92.22,1.5-4.8,4.45-9.17,6.92-13.64.35-.64,1.76-.71,2.67-1.04.1.8.54,1.75.25,2.37-9.62,21.06-13.66,43.57-16.32,66.25-2.07,17.63-3.47,35.44-3.53,53.17-.09,24.68-5.69,48.11-13.39,71.17-10.87,32.56-26.35,63.1-42.26,93.38-4.08,7.77-9.98,14.73-15.76,21.45-8.45,9.84-17.15,19.53-26.45,28.56-14.29,13.88-29.79,26.24-48.46,34.02-7.25,3.02-14.44,6.22-21.59,9.48-1.05.48-1.74,1.78-2.59,2.7,1.08.67,2.1,1.77,3.25,1.95,7.06,1.07,14.14,1.93,21.22,2.86l.03.03Z"/>
  <path class="cls-1" d="M272.71,324.35c.79,1.12,2.16,2.32,2.59,3.79,1.9,6.54,4.03,13.08,5.17,19.77,2.84,16.79,5.4,33.63,7.7,50.5,3.54,26.01,3.6,52.5,10.23,78.09,2.05,7.91,4.57,15.74,7.44,23.4,5.79,15.45,8.93,31.46,11.29,47.72,1.42,9.78,3.52,19.46,5.51,29.15,3.28,15.96,12.81,28.53,22.56,40.96,11.2,14.27,22.41,28.53,33.62,42.8.42.54,1,1.02,1.23,1.63.44,1.19.69,2.45,1.02,3.68-1.15-.31-2.52-.32-3.4-.99-6.52-4.99-13.44-9.61-19.28-15.31-9.53-9.31-18.85-18.93-27.32-29.19-13.66-16.53-20.42-36.04-22.86-57.29-2.61-22.73-6.08-45.3-14.06-66.99-5.21-14.15-7.42-29.06-8.37-44.12-1.31-20.81-2.17-41.66-4.19-62.39-2.02-20.68-4.72-41.33-10.55-61.41-.31-1.08.06-2.37.19-3.55,0-.08.62-.1,1.5-.23l-.02-.02Z"/>
  <path class="cls-1" d="M442.31,656.24c0,4.17.14,6.57-.02,8.96-.81,11.65-5.07,21.29-16.34,26.39-6.19,2.8-12.39,5.88-18.91,7.53-4.38,1.11-9.4.32-14.02-.37-2.47-.37-4.71-2.33-7.05-3.57,2.35-.48,4.69-1.04,7.05-1.41,11.93-1.88,23.15-5.74,33.29-12.31,6.1-3.95,7.64-10.58,7.35-17.15-.52-11.57-1.63-23.14-2.96-34.65-2.23-19.3-5.41-38.51-7.12-57.86-2.01-22.78-2.66-45.68-4.29-68.5-1.58-22.12-3.54-44.21-5.54-66.29-.98-10.85-2.47-21.66-3.57-32.5-.11-1.13.87-2.37,1.34-3.55.94.69,2.46,1.22,2.71,2.1,1.74,6.22,3.79,12.43,4.65,18.79,2.67,19.59,5.39,39.19,7.12,58.88,2.57,29.24,4.13,58.57,6.5,87.83.82,10.18,2.76,20.27,4.17,30.4,1.12,8.1,2.48,16.18,3.24,24.31,1.08,11.56,1.7,23.16,2.39,32.98h0Z"/>
  <path class="cls-1" d="M152.12,428.39c-.79-.06-1.89.07-2.81-.29-.78-.3-1.43-1.1-1.94-1.82-.1-.14.7-.98,1.16-1.41.23-.21.63-.24.96-.35,16.47-5.8,23.68-18.93,26.67-34.85,1.57-8.36,2.53-16.99,2.43-25.48-.32-27.72-.25-55.51-2.22-83.14-2.2-30.76-4.22-61.47-3.15-92.28.36-10.52,2.4-20.98,3.89-31.44.33-2.3,1.42-4.53,2.44-6.65.3-.61,1.57-.75,2.4-1.11.22.6.75,1.29.61,1.79-6.8,24.26-3.42,49.03-2.98,73.52.36,20.09,3.54,40.13,5.27,60.21,1.05,12.26,1.81,24.55,2.52,36.84.63,10.93,1.73,21.9,1.35,32.81-.51,14.99-1.1,30.13-3.7,44.85-3.26,18.51-16,27.27-32.9,28.8h0Z"/>
  <path class="cls-1" d="M236.56,245.63c6.84,4.24,8.93,11.71,12.16,18.3,1.93,3.94,3.05,8.31,4.28,12.56.8,2.78,2.01,3.47,4.11,1.38,5.33-5.29,10.7-10.56,15.79-16.09,1.52-1.65,2.32-4.05,3.13-6.23,1.41-3.82,2.37-7.81,3.89-11.58,1.08-2.68,2.76-5.11,4.18-7.66,3.27,2.81-.19,5.56-.12,8.36.25,10.09-3.9,18.18-11.07,25.23-4.59,4.52-7.99,10.24-12.5,14.86-4.77,4.88-10.42,4.52-12.32-1.43-4.01-12.55-10.26-24.48-11.29-37.92l-.25.23h0Z"/>
  <path class="cls-1" d="M296.91,85.31c-1.89-.43-3.08-.38-3.81-.94-1.39-1.07-3.52-2.47-3.54-3.76-.03-2.3,1.84-2.91,4.37-2.42,2.19.42,4.62-.11,6.9-.49,1.85-.31,4.3-2.03,4.92.8.29,1.31-1.62,3.63-3.11,4.66-1.83,1.26-4.26,1.64-5.73,2.16h0Z"/>
  <path class="cls-1" d="M250.35,93.47c-2.48-.32-3.57-.24-4.46-.63-.77-.34-1.4-1.16-1.89-1.9-.1-.15.66-1.06,1.17-1.36,2.62-1.51,5.18-3.23,7.99-4.25,1.18-.43,2.92.69,4.41,1.1-.41,1.48-.37,3.6-1.34,4.3-2.07,1.47-4.67,2.2-5.9,2.74h.02Z"/>
  <path class="cls-1" d="M236.8,245.4c-4.33-4.15-8.73-8.23-12.9-12.53-.56-.57.03-2.25.08-3.41,1.21.22,3.09.02,3.54.73,3.18,5.05,6.06,10.28,9.04,15.45l.25-.23h0Z"/>
</svg>