<?xml version="1.0" encoding="UTF-8"?>
<svg id="Layer_1" data-name="Layer 1" xmlns="http://www.w3.org/2000/svg" version="1.1" viewBox="0 0 595.28 577.17">
  <defs>
    <style>
      .cls-1 {
        fill: #000;
        stroke-width: 0px;
      }
    </style>
  </defs>
  <path class="cls-1" d="M311.16,213.38c-12.28,11.84-25.45,22.67-36.9,35.51-10.54,11.81-23.34,21.58-34.96,32.45-14.68,13.73-29.93,26.96-43.56,41.67-21.64,23.36-47.5,39.49-77.42,49.47-28.92,9.65-57.93,19.01-86.91,28.46-2.77.91-5.58,1.79-8.43,2.32-.79.15-1.9-.96-2.69-1.69-.12-.11.55-1.6,1.12-1.87,5.66-2.69,11.26-5.55,17.09-7.81,24.54-9.5,49.21-18.67,73.73-28.21,26.02-10.13,49.78-23.65,68.64-44.97,12.2-13.79,25.16-26.93,38.15-40,5.58-5.62,11.44-11.54,18.31-15.19,18.55-9.87,31.77-25.65,46.63-39.66,10.89-10.27,20.63-22.13,36.42-25.61,1.96-.43,3.69-3.18,4.97-5.2,3.79-6.02,7.23-12.26,10.93-18.33,11.51-18.84,27.68-30.92,49.77-34.71,24.59-4.21,43.87-16.4,59.43-36.35,20.84-26.72,43.31-52.18,65.21-78.08,9.4-11.12,20.92-16.24,35.74-12.07,5.99,1.69,12.45,1.73,18.39,3.54,8.88,2.71,11.7,8.35,9.45,17.51-3.15,12.79-9.68,24.01-17,34.76-19.8,29.07-39.56,58.12-53.49,90.67-3.26,7.61-10.16,14.67-10.54,22.22-.35,7.05,5.65,14.46,9.03,21.63,6.65,14.1,6.35,28.01.7,42.53-5.84,15.01-14.06,28.45-23.54,41.28-1.98,2.68-3.61,5.67-5.85,8.1-2.4,2.6-2.5,4.34-.33,7.41,3.88,5.49,1.36,10.71-3.15,14.38-6.14,5-12.76,9.42-19.39,13.77-2.59,1.7-2.76,3.2-.25,4.3,4.93,2.17,9.41,5.22,9.13,10.76-.26,5.19-1.66,10.81-4.2,15.3-6.67,11.77-17.29,19.04-29.99,23.44-1.54.53-2.88,1.63-4.31,2.47,1.11.89,2.18,1.86,3.35,2.67,12.11,8.35,12.51,17.67.21,25.52-6.22,3.97-13.53,6.49-20.63,8.75-4.07,1.3-6.18,2.74-7.29,7.14-1.09,4.31-3.86,8.25-6.16,12.2-10.72,18.45-21.38,36.93-32.37,55.22-5.81,9.66-11.51,19.54-18.57,28.26-11.93,14.75-27.05,21.96-46.63,16.24-8.41-2.46-17.22-3.5-25.7-5.73-11.12-2.91-21.12-8.2-29.09-16.63-8.46-8.95-17.92-16.21-29.55-20.66-8.61-3.29-15.15-9.34-17.82-18.26-1.81-6.04-4.21-4.59-7.83-2.16-44.23,29.77-92.21,52.6-140.15,75.47-2.87,1.37-5.46,5.66-9.63,2.38,2.53-1.99,4.91-4.21,7.6-5.94,43.59-28.14,87.44-55.89,130.74-84.47,14.63-9.66,27.99-21.27,41.8-32.15,15.6-12.31,32.96-16.62,52.8-14.46,27.01,2.94,54.12,2.98,81.16-.97,16.1-2.35,32.4-3.38,48.44-6.02,8.12-1.34,16.1-4.41,23.72-7.67,5.4-2.31,5.51-6.49.2-9.12-6.63-3.29-13.95-5.2-20.95-7.76-2.11-.77-4.16-1.72-6.23-2.59,1.99-1.25,3.92-2.64,5.99-3.74,10.34-5.48,21-10.42,30.96-16.52,5.2-3.18,9.45-8.1,13.63-12.69,2.28-2.5.83-4.74-2.52-4.91-12.18-.6-24.25.03-36.04,3.58-4.79,1.44-9.56,3.12-14.46,3.98-5.82,1.02-10.08-1.54-10.84-5.96-.85-4.91,1.59-8.02,6.13-9.53,2.76-.92,5.58-1.63,8.39-2.4,21.13-5.77,40.83-14.82,59.62-25.96.98-.58,1.55-1.84,2.31-2.78-1.08-.37-2.14-.98-3.25-1.07-20.16-1.72-40.11-.16-59.92,3.77-4.91.97-9.81,2.04-14.69,3.15-3.62.82-6.94.38-8.48-3.33-1.63-3.92,1.37-5.95,4.03-8.17,25.65-21.45,51.26-42.95,76.79-64.55,2.45-2.07,4.25-4.9,6.35-7.37-3.5.56-7.34.38-10.45,1.8-16.74,7.62-33.24,15.75-49.92,23.49-18.56,8.62-36.95,17.73-55.95,25.25-10.71,4.24-22.35,6.92-34.33,4.15-12.91-2.99-17.23-8.84-15.86-22.03.09-.82.85-1.87.55-2.38-6.55-11.26,1.85-18.94,6.65-27.34,4.3-7.54,9.13-14.79,13.72-22.16.88-.85,1.77-1.7,2.65-2.55.24-.28.47-.56.71-.84-.14.38-.28.76-.42,1.14-.89.84-1.78,1.68-2.67,2.52ZM463.04,213.16c15.31-.47,20.58,7.71,14.62,18.66-2.17,3.98-4.99,7.9-8.38,10.85-8.81,7.68-17.93,15.05-27.29,22.06-4.13,3.09-3.65,4.4.49,6.53,6.69,3.43,13.33,7.02,19.75,10.93,4.02,2.45,5.67,1.39,7.36-2.7,3.67-8.87,7.43-17.75,11.91-26.23,17.16-32.53,15.02-31.99,6.09-60.31-1.25-3.96-3.29-8.22-2.81-12.07,1.33-10.65,3.47-21.24,5.92-31.7,1.61-6.89,2.12-6.83-5-9.29-10.29-3.56-20.72-6.98-29.11-14.23-3.84-3.32-6.24-2.61-9.28.84-15.05,17.06-34.52,26.19-56.49,30.17-17.65,3.2-30.4,13.14-40.42,27.31-5.56,7.86-10.62,16.08-16.47,23.72-11.45,14.95-23.03,29.81-35.1,44.26-5.04,6.03-3.33,11.27-.85,17.22,2.6,6.25,7.85,7.62,13.41,6.7,9.4-1.56,19.24-2.71,27.84-6.45,18.38-7.98,36-17.68,54.08-26.34,18.45-8.84,37-17.45,55.69-25.77,5.26-2.34,11.14-3.31,14.06-4.14ZM275.4,434.7c0-.07,0-.14,0-.21-6.69,0-13.38.15-20.06-.04-10.13-.28-18.85,3.63-26.71,9.36-6.4,4.66-12.02,10.4-18.36,15.17-4.88,3.67-5.22,8.13-4.05,13.35,1.43,6.38,5.7,10.17,11.6,12.01,12.73,3.96,23.13,11.39,32.29,20.84,7.84,8.08,17.64,12.46,28.52,14.67,6.13,1.24,12.5,1.76,18.39,3.71,10.57,3.51,18.82.09,26.14-7.16,14.13-14,22.7-31.93,33.71-48.14,1.33-1.95.46-2.94-1.7-3.14-13.75-1.28-24.1-8.72-33.14-18.44-7.88-8.47-17.48-12.5-29.08-12.03-5.84.23-11.71.04-17.56.04ZM528.01,85.48c-1.81-.99-3.49-2.05-5.28-2.86-9.11-4.15-18.76-7.51-23.56-17.54-1.33-2.78-3.15-1.91-4.68.11-11.61,15.37-23.2,30.77-34.88,46.09-1.57,2.06-1.73,3.51.61,4.87,10.87,6.28,21.68,12.65,32.67,18.72,1.11.61,4.09-.03,4.75-1.04,9.64-14.69,19.05-29.54,28.47-44.37.66-1.03,1.06-2.22,1.89-3.98ZM536.7,22.64c-7.08.67-13.17,4.93-16.72,12.93-1.68,3.8-3.53,7.53-5.56,11.16-6.59,11.79-5.74,14.3,6.97,19.19,1.94.75,4.08,1.03,5.95,1.9,4.06,1.88,7.39.57,10.27-2.21,6.6-6.38,13.43-12.59,19.45-19.48,2.91-3.33,4.09-8.13,6.26-12.14,2.58-4.75.31-7.38-4-8.2-6.95-1.33-14.04-1.99-22.64-3.14ZM352.66,430.7c-.02-.31-.04-.63-.06-.94-7.92,0-15.83-.03-23.75.03-1.2,0-2.39.39-3.59.6.84.86,1.6,1.84,2.55,2.56,6.64,5.02,13.27,10.06,20.02,14.94,3.71,2.68,7.64,5.04,11.46,7.56,2.79,1.84,5.05,2.09,7.47-.98,6.43-8.17,13.16-16.11,19.74-24.16.42-.51.56-1.26.82-1.9-.79-.11-1.6-.37-2.38-.31-10.76.85-21.52,1.74-32.28,2.62ZM441.72,294.36c.08.61.16,1.22.24,1.83,5.83,0,11.65.1,17.47-.08,1.19-.04,2.34-1.13,3.51-1.73-.91-.78-1.7-2.02-2.73-2.28-11.45-2.95-22.1-7.23-30.18-16.44-.65-.74-3.13-.68-4.24-.06-12.33,6.9-24.61,13.9-36.72,21.17-1.29.78-1.43,3.47-2.1,5.28,1.5.11,3.05.51,4.5.29,16.76-2.6,33.5-5.29,50.25-7.96Z"/>
</svg>