<?xml version="1.0" encoding="UTF-8"?>
<svg id="Layer_1" data-name="Layer 1" xmlns="http://www.w3.org/2000/svg" version="1.1" viewBox="0 0 502.04 427.87">
  <defs>
    <style>
      .cls-1 {
        fill: #000;
        stroke-width: 0px;
      }
    </style>
  </defs>
  <path class="cls-1" d="M84.34,30.47c4.72,11.48,12.81,20.27,22.69,27.36,16.52,11.83,30.31,26.13,40.87,43.5,1.69,2.78,3.49,5.54,4.8,8.5.66,1.5.32,3.43.43,5.17-1.34-1.02-3.02-1.79-3.96-3.1-24.33-33.7-58.82-53.68-95.44-70.77-1.18-.55-2.52-.73-3.79-1.08.73,1.3,1.17,2.92,2.22,3.86,21.1,19.06,41.89,38.49,63.6,56.82,9.94,8.39,14.79,19.95,22.48,29.66.36.45-.08,1.53-.14,2.32-.78-.2-1.77-.16-2.3-.63-6.2-5.63-11.96-11.82-18.55-16.94-24.02-18.66-49.77-34.41-78.45-44.97-3.47-1.28-7.11-2.24-10.75-2.84-1.47-.24-3.16.87-4.75,1.37.65,1.2,1.02,2.7,1.98,3.56,6.6,5.91,12.98,12.14,20.05,17.42,18.26,13.64,36.96,26.71,55.25,40.32,6.67,4.97,12.71,10.8,18.95,16.33.55.49.45,1.72.65,2.61-1.16.23-2.66,1.06-3.43.61-11.31-6.5-22.56-13.1-33.75-19.8-14.68-8.79-30.88-12.59-47.6-14.68-1.49-.19-3.13.81-4.71,1.25.84,1.07,1.47,2.45,2.55,3.15,4.68,3.04,9.41,6.04,14.28,8.78,22.31,12.57,44.76,24.9,67,37.6,19.31,11.02,35.69,25.2,46.48,45.08,1.33,2.45,2.95,4.81,3.88,7.41,1.04,2.91,1.44,6.05,2.12,9.08-2.28-1.94-5.08-3.52-6.77-5.89-19.85-27.85-47.6-45.12-77.67-59.85-17.88-8.76-34.94-19.24-52.1-29.41-4.27-2.53-8.18-6.33-11.04-10.4-4.89-6.97-1.75-14.15,6.58-15.71,4.92-.92,10.04-.79,15.06-1.13-4.52-3.87-9.06-7.72-13.57-11.6-5.65-4.86-11.55-9.45-16.81-14.71-2.89-2.89-5.29-6.63-6.8-10.43-3.18-8,1.27-15.37,10.12-15.71,6.82-.26,13.74,1.45,20.57,2.58,4.54.75,8.99,2.04,13.47,3.08.13.38.19.8.4,1.13.12.19.47.24.72.35l-1.44-1.17c-5.69-5.28-11.46-10.47-17.04-15.86-2.64-2.55-5.28-5.24-7.25-8.3-2.22-3.45-4.16-7.28-.9-11.45,2.99-3.82,7.08-4.67,11.17-3.35,6.98,2.25,13.68,5.34,20.57,7.88,3.38,1.25,6.92,2.05,10.38,3.05.75.38,1.51.75,2.26,1.13-.73-.4-1.45-.8-2.18-1.21-2.14-3.54-4.25-7.1-6.44-10.61-2.17-3.48-3.15-7.43.23-10.14,2.62-2.1,6.57-3.82,9.79-3.6,3.99.26,7.95,2.45,11.73,4.23,37.14,17.44,70.2,40.06,96.31,72.45,16.12,19.98,30.32,41.23,45.41,61.86,17.22,23.53,34.9,47.28,57.27,66.64,12.69,10.98,25.55,21.76,38.42,32.54,3.14,2.63,4.65,4.1,9.33-.64,12.86-13.01,24.79-27.98,44.62-31.8,12.08-2.33,23.94-3.35,35.8.41,14.94,4.75,22.97,15.29,24.51,30.69,1.46,14.5.35,28.83-3.47,42.95-2.3,8.5-2.31,9.02,5.92,11.94,15.75,5.61,31.71,10.63,47.59,15.85,3.53,1.16,7.17,2,10.65,3.28.98.36,1.58,1.77,2.35,2.7-1.13.6-2.3,1.78-3.38,1.7-15.3-1.15-30.59-2.5-45.24-7.58-3.51-1.22-7.09-2.24-10.59-3.5-14.58-5.24-13.94-4.88-21.43,7.79-8.74,14.77-18.54,28.94-28.28,43.09-4.39,6.38-4.62,5.9.89,12.32,10,11.65,19.75,23.52,29.55,35.34,1.48,1.78,2.96,3.68,3.87,5.78.6,1.39.19,3.21.24,4.84-1.21-.48-2.72-.65-3.6-1.49-5.42-5.12-10.57-10.55-16.07-15.58-7.92-7.23-16.16-14.1-24.08-21.33-3.85-3.52-6.84-3.24-10.85.06-9.71,7.98-19.55,15.84-29.84,23.03-8.56,5.99-18.36,9.07-29.05,7.94-9.56-1.01-16.61-5.7-20.45-14.65-.45-1.04-.23-2.95.47-3.72.58-.64,2.65-.7,3.54-.16,13.13,7.97,25.4,3.57,36.83-3.32,37.88-22.86,64.37-55.32,81.78-96.02,6.55-15.3,11.38-30.36,10.95-46.93-.4-15.78-5.93-22.81-21.05-27.1-11.11-3.15-22.1-1.92-32.97,1.33-.86.26-1.64.75-2.46,1.13,1.09.39,2.16.82,3.26,1.14.43.13.93,0,1.39.02,22.82,1.17,30.88,9.54,30.18,32.17-.39,12.63-2.66,24.94-9.18,36.08-10.57,18.07-20.12,36.87-32.13,53.93-8.99,12.77-20.76,23.73-32.14,34.61-4.09,3.91-10.45,6.36-16.16,7.46-8.65,1.67-17.07-4.36-20.18-13.81-1.7-5.18-2.58-10.96-2.26-16.38.24-4,3.01-7.84,4.66-11.76,1.26,3.32,2.5,6.64,3.78,9.96.84,2.17,1.59,4.39,2.58,6.49,4.05,8.56,7.4,9.78,14.99,4.29,5.63-4.07,10.61-9.06,15.75-13.77,3.6-3.3,3.35-6.18-1.16-8.66-11.82-6.52-23.36-13.58-35.37-19.73-37.59-19.23-77.76-30.61-119-38.87-33.71-6.75-67.66-12.9-99.94-25.19-11.19-4.26-22.06-9.98-32.08-16.55-9.54-6.25-12.43-14.88-9.02-21.31,4.64-8.76,13.18-7.95,20.98-6.86,6.37.89,12.74,2.84,18.72,5.29,24.85,10.17,49.44,11.35,74-.83.84-.42,2.45.15,3.4.74.43.27.54,2.06.11,2.56-2.37,2.74-4.54,6.78-7.55,7.65-11.49,3.3-22.92,7.65-35.4,5.18-14.99-2.97-30.05-5.69-45.14-8.13-4.48-.72-9.18-.13-13.77-.14,3.78,3.17,7.07,7.75,11.43,9.26,17.95,6.25,35.95,12.82,54.44,16.97,38.98,8.76,78.61,14.77,117.37,24.34,38.24,9.44,73.49,26.67,105.36,50.1,7.95,5.85,8.88,5.41,14.08-2.3,7.81-11.58,15.04-23.54,22.63-35.27,2.39-3.69,1.2-5.82-2.49-7.24-10.41-4.03-21.1-7.46-31.15-12.24-12.12-5.77-24.4-11.68-35.37-19.31-35.93-24.98-65.78-56.48-92.2-91.05-15.24-19.94-28.99-41.11-42.31-62.41-19.86-31.76-49.5-51.26-81.64-67.99-.73-.38-1.82-.07-2.74-.09-.66-.36-1.32-.73-1.98-1.09.68.35,1.36.69,2.03,1.04ZM367.49,234.59c-1.4.06-2.9-.19-4.18.24-8.75,2.95-17.88,5.18-26.03,9.34-7.22,3.68-6.48,9.01.95,12.51,8.83,4.17,17.79,8.06,26.79,11.86,16.13,6.81,17.32,6.04,18.86-11.57.16-1.86.3-3.72.29-5.59-.09-12.99-3.81-16.72-16.68-16.8Z"/>
</svg>