<?xml version="1.0" encoding="UTF-8"?>
<svg id="Layer_1" data-name="Layer 1" xmlns="http://www.w3.org/2000/svg" version="1.1" viewBox="0 0 595.28 577.17">
  <defs>
    <style>
      .cls-1 {
        fill: #000;
        stroke-width: 0px;
      }
    </style>
  </defs>
  <path class="cls-1" d="M205.67,372.87c-2.65-14.3-5.56-28.55-7.85-42.91-1.37-8.58-3.51-17.58-2.15-25.89,1.27-7.76-1.45-11.82-6.2-16.47-14.99-14.68-33.17-23.87-52.6-30.83-12.36-4.43-23.46-10.54-32.09-20.62-1.52-1.78-3.13-3.51-4.47-5.42-8.24-11.82-5.37-23.52,8.55-27.75,8.55-2.6,18.39-2.23,27.5-1.44,11.55,1.01,22.95,3.81,34.41,5.84l-.45-.43c8.94,5.21,18.02,10.2,26.74,15.74,4.09,2.6,7.51,6.27,11.23,9.45-4.41-.78-8.92-1.23-13.22-2.4-16.37-4.46-32.52-9.82-49.06-13.51-9.58-2.14-19.73-2.29-29.62-2.23-5.86.04-7.89,5.68-3.61,9.84,4.56,4.43,9.88,8.39,15.51,11.29,6.19,3.19,13.05,5.13,19.73,7.28,30.09,9.71,54.48,27.7,72.73,53.09,15.42,21.45,34.35,34.57,61.38,35.36,8.69.25,17.53,2.09,25.92,4.53,24.86,7.22,40.53,24.82,51.18,47.5.75,1.61-.41,4.12-.68,6.2-1.58-.41-3.63-.33-4.67-1.32-4.25-4.03-8.62-8.06-12.17-12.68-12.83-16.7-28.69-27.42-50.54-27.52-4.07-.02-8.13-1.68-12.19-1.66-30.67.21-54.28-12.5-71.07-38.12-.84-1.28-2.5-2.02-3.77-3.02-.01,1.65-.41,3.41.02,4.94,13.35,48.42,21.87,98.43,47.19,142.9,2.6,4.57,5.23,9.14,7.64,13.82,1.35,2.61,2.29,5.44,3.41,8.17-2.75-.7-6.18-.59-8.11-2.24-6.16-5.24-12.32-10.67-17.39-16.91-4-4.92-6.36-11.15-9.52-16.77-.71-1.27-1.67-2.4-2.52-3.6-.1,1.71-.38,3.44-.26,5.13.84,11.65,2.6,23.31,2.3,34.93-.15,5.98-3.62,12-6.28,17.68-.65,1.4-4.2,2.39-6.04,1.97-1.29-.3-2.75-3.32-2.78-5.14-.44-33.65-7.31-66.12-18.28-97.75-4.8-13.82-10.41-27.38-16.38-40.74-2.57-5.76-6.86-10.79-10.59-16-7.16-10.01-16.56-13.17-29.03-11.9-16.81,1.71-33.59,2.5-50.31-3.98-28.28-10.95-42.71-32-47.13-60.59-3.22-20.82-4.61-41.92-7.12-62.86-4.4-36.59-7-73.51-16.61-109.24-3.98-14.79,1.92-24.75,16.06-30.35,5.39-2.14,11.25-3.12,16.92-4.54,4.55-1.14,9.6-1.26,13.61-3.39,25.78-13.66,54.96-15.84,82.09-24.86,12.21-4.06,24.48-7.97,36.91-11.28,24.56-6.53,34.27-2.01,44.78,20.94,5.11,11.16,9.36,22.72,13.85,34.16,1.35,3.44,2.56,7.17,7.18,5.12,14.89-6.62,27.07.68,37.04,9.4,24.27,21.23,48.3,42.92,70.54,66.23,26.65,27.92,44.24,61.35,55.55,98.62,10.36,34.16,30.69,63.33,55.14,88.97,27.67,29.01,52.26,60.05,72.73,94.56,9.86,16.61,21.68,32.05,32.39,48.17,1.74,2.62,2.37,5.98,3.52,9-3.58-.91-8.14-.75-10.56-2.94-9.11-8.22-18.37-16.53-26.04-26.04-19.5-24.14-37.53-49.47-57.4-73.29-13.5-16.19-29.78-30.03-43.62-45.97-25.54-29.41-46.28-61.78-57.57-99.61-11.2-37.54-34.74-67.66-60.74-95.65-19.14-20.6-40.51-39.12-61.01-58.43-2.5-2.36-5.65-4.17-8.8-5.57-.76-.34-4.05,2.5-3.87,2.95,1.68,4.21,3.35,8.59,6,12.21,18.89,25.8,34.51,53.27,40.36,85.04,2.41,13.09,2.7,26.74,2.37,40.1-.27,10.8-7,18.46-17.24,22.33-11.34,4.28-22.95,5.18-34.33.39-2.87-1.21-4.97-4.26-7.42-6.47,2.78-1.42,5.44-3.67,8.36-4.09,5.78-.83,11.79-.12,17.56-.98,10.98-1.63,15.12-6.29,15.45-17.6.95-32.75-10.81-61.85-26.12-89.98-4.98-9.15-9.06-18.81-13.39-28.31-7.98-17.54-15.88-35.11-23.73-52.7-1.65-3.71-2.45-2.3-4.02.13-6.77,10.44-17.75,15.07-28.49,19.77-31.21,13.64-63.26,25.1-96.94,30.52-14.92,2.4-30.42,1.41-45.66,1.47-5.95.02-8.27.49-6.62,7.72,9.26,40.52,17,81.31,20.31,122.87,1.02,12.77,3.93,25.47,6.85,38,6.3,27.1,27.58,39.86,53.85,42.47,2.91.29,5.93.42,8.8-.03,34.96-5.43,53.66,16.82,70.57,41.68,5.44,8,9.69,16.81,14.48,25.25.1,1.62.13,3.25.34,4.85.14,1.06.54,2.08.82,3.12.4-1.3,1.34-2.73,1.07-3.87-.33-1.39-1.68-2.54-2.59-3.79ZM51.56,79.83c.02.21.05.42.07.63,6.97-.84,13.97-1.46,20.89-2.56,42.66-6.77,82.43-22.26,121.14-40.76,4.29-2.05,11.83-3.2,9.58-9.65-.85-2.45-9.15-3.37-13.93-3.08-5.1.31-10.09,2.8-15.07,4.51-5.52,1.9-10.85,4.46-16.48,5.95-36,9.57-70.74,23.99-108.14,28.2-1.68.19-3.41,1.02-4.86,1.96-4.74,3.05-9.36,6.28-14.02,9.45,3.58,6.42,9.94,4.81,15.54,5.32,1.75.16,3.52.02,5.28.02Z"/>
  <path class="cls-1" d="M207.78,568.78c-6.81-1.29-16.99-1.83-26.1-5.22-20.39-7.59-28.86-24.28-25.11-48.39,1.8-11.59,5.75-22.78,14.17-31.59,2.87-3.01,6.31-5.61,10.69-2.01,3.78,3.1,1.24,5.8.06,9.14-3.27,9.29-7.45,18.7-8.27,28.32-1.53,17.81,4.31,23.99,18.1,27.35,7.26,1.77,15.19,2.8,22.53,1.86,37.73-4.81,70.64-20.23,98.02-46.91,12.57-12.25,20.11-27.35,23.65-44.32,3.26-15.66.45-20.14-14.92-24.07-8.45-2.16-17.26-2.95-25.87-4.52-.9-.16-2.09-1.29-2.27-2.16-.16-.78.79-2.56,1.39-2.62,14.34-1.59,28.27-7.4,43.22-2.32,14.24,4.84,20.75,11.69,20.68,26.58-.12,24.54-9.21,46.36-25.75,63.73-32.75,34.38-73.16,53.82-124.2,57.13Z"/>
</svg>