<?xml version="1.0" encoding="UTF-8"?>
<svg id="Layer_1" data-name="Layer 1" xmlns="http://www.w3.org/2000/svg" version="1.1" viewBox="0 0 442.71 577.17">
  <defs>
    <style>
      .cls-1 {
        fill: #000;
        stroke-width: 0px;
      }
    </style>
  </defs>
  <path class="cls-1" d="M370.73,165.15c-5.89,1.81-12.15,2.89-17.61,5.58-17.47,8.62-34.45,18.26-52,26.71-19.16,9.22-38.86,16.92-60.79,16.38-33.24-.83-53.58-28.26-44.29-60.06,3.2-10.96,6.73-21.83,9.59-32.88,1.26-4.88,1.21-10.1,1.75-15.17.6-.71,1.19-1.41,1.79-2.12-.47.85-.94,1.69-1.41,2.54-17.09,21.38-27.61,46.29-38.1,71.2-3.57,8.48-7.16,17-10.08,25.72-12.08,36.08-34.94,63.6-67.59,82.36-19.38,11.13-40.1,19.95-60.38,29.47-6.02,2.83-12.6,4.95-18.71-.4,4.67-2.96,9.18-6.2,14.03-8.83,17.19-9.34,34.81-17.93,51.7-27.79,32.66-19.08,55.06-46.53,66.52-82.97,4.65-14.77,10.76-29.12,16.87-43.39,9.63-22.49,22.7-43.13,40.68-59.61,16.24-14.88,24.33-33.35,28.55-53.82,2.14-10.35,6.85-16.82,16.54-19.83,8.76-2.72,17.52-6.34,26.51-7.29,36.74-3.89,73.5-5.97,109.14,7.48,5.25,1.98,11.54,2.41,12.2,9.93-5.05.46-10.2,1.78-15.14,1.21-13.68-1.58-27.32-5.85-40.9-5.56-22.37.49-44.69,3.58-67,5.93-4.48.47-8.83,2.42-13.18,3.88-.94.32-2.39,1.79-2.24,2.19.54,1.39,1.49,3.37,2.64,3.64,10.58,2.51,21.15,6.08,31.88,6.7,21.86,1.26,43.82,1.1,65.74,1.05,7.28-.02,15.19,1.14,21.11-5.33.62-.68,3.48-.47,4.14.31.94,1.12,1.67,3.87,1,4.66-3.99,4.66-7.64,10.8-12.85,12.98-9.41,3.94-19.74,7.01-29.87,7.67-30.02,1.97-59.89.24-88.7-9.61-5.7-1.95-9.1-2.45-10.74,5.11-1.44,6.63-4.5,13.13-7.94,19.05-13.53,23.22-17.28,49.61-24.24,74.85-5.8,21.01,10.31,39.83,32.28,38.13,11.82-.92,23.83-4.33,34.89-8.76,14.38-5.75,27.92-13.6,41.78-20.63,14.38-7.3,28.58-14.96,43.11-21.93,6.17-2.96,12.83-5.52,19.53-6.6,15.47-2.51,24.96,8.35,19.78,22.94-2.43,6.83-6.46,13.87-11.68,18.76-10.05,9.4-20.94,18.12-32.43,25.68-16.84,11.08-34.89,20.32-51.69,31.45-12.43,8.23-23.89,17.97-35.4,27.51-9.52,7.89-16.06,18.21-19.65,29.96-8.78,28.73-27.42,48.22-53.57,62.43-30.85,16.76-60.9,35.01-90.94,53.21-11.8,7.15-22.57,15.98-33.95,23.85-.93.64-2.91-.24-4.4-.42.19-1.05.07-2.33.64-3.11,1.35-1.85,2.95-3.53,4.59-5.15,36.16-35.85,73.73-69.83,120.81-91.23,26.57-12.08,42.05-33.78,49.53-60.92,5.78-20.95,18.78-35.56,35.99-46.81,19.28-12.6,39.65-23.55,59.01-36.03,11.45-7.38,21.89-16.34,32.79-24.59.39-.7.77-1.4,1.16-2.1-.27.81-.54,1.62-.81,2.43Z"/>
  <path class="cls-1" d="M280.7,567.17c-32.05,1.8-63.29-2.93-93.08-14.63-12.14-4.77-24.17-11.32-34.27-19.5-24.46-19.83-24.62-50.85-1.23-72,17.09-15.46,37.39-22.26,60.49-19.56,3.31.39,7.08,1.12,9.57,3.06,2.39,1.86,3.41,5.49,5.04,8.34-2.96.56-5.96,1.74-8.88,1.57-23.52-1.44-42.93,6.6-57.16,25.42-8.59,11.36-7.26,24.46,4.01,33.91,7.35,6.17,16.18,11.01,25.05,14.83,20.22,8.73,41.81,11.61,63.6,14.45,26.19,3.41,51.74,1.95,76.93-4.68,9.16-2.41,18.44-6.96,25.87-12.81,10.69-8.42,10.78-19.67,2.32-30.4-6.97-8.85-16.43-14.21-26.63-18.54-7.72-3.28-15.29-6.89-22.93-10.36,8.97-8.52,18.45-1.06,27.12.22,11.08,1.63,22.4,5.64,32.18,11.17,16.01,9.05,22.64,23.84,19.82,42.48-2.07,13.67-10.65,22.8-21.28,30.14-15.57,10.75-33.5,15.19-52.01,16.71-11.44.94-23.02.18-34.54.18Z"/>
  <path class="cls-1" d="M269.81,297.54c-.46-3.38-.83-7.96-1.76-12.42-1.02-4.84.81-8.81,5.21-9.02,3.2-.15,8.26,2.34,9.5,5.03,2.58,5.6,3.57,12.06,4.49,18.28,1.1,7.46,1.45,15.04,2.12,22.56,3.84-7,7.44-14.14,11.57-20.97,5.34-8.83,10.96-17.5,16.85-25.96.9-1.3,3.91-1.12,5.94-1.63.25,2.12,1.36,4.63.62,6.31-8.82,19.96-19.37,39.28-26.65,59.76-15.44,43.43-27.17,87.82-24.39,134.66.34,5.71,1.4,11.38,1.85,17.08.11,1.42-.87,2.92-1.35,4.38-1.04-1.1-2.76-2.07-3.03-3.33-2.79-13.44-5.37-26.93-7.96-40.42-.43-2.25-.65-4.53-.96-6.8-.95,1.93-1.96,3.84-2.84,5.8-6.59,14.66-13.16,29.34-19.73,44.01-.7,1.57-1.16,3.35-2.22,4.64-1.34,1.64-3.18,2.87-4.8,4.28-.25-1.91-.99-3.92-.65-5.72,1.38-7.32,3.13-14.56,4.68-21.85,9.77-45.98,19.81-91.91,29.08-137.99,2.6-12.91,2.94-26.28,4.44-40.68Z"/>
  <path class="cls-1" d="M427.08,186.55c.18,26.26-5.2,51.48-14.3,75.91-11.44,30.71-27.69,41.75-60.11,41.5-6.34-.05-12.7-.34-19-.98-1.99-.2-3.83-1.89-5.74-2.9,1.46-1.24,2.73-2.99,4.42-3.63,8.57-3.27,17.38-5.93,25.87-9.4,18.19-7.43,29.43-21.08,36.09-39.51,12.47-34.52,13.3-69.78,9.17-105.71-4.04-35.07-3.33-70.17,1.77-105.11.34-2.36,2.78-4.42,4.24-6.61,1.99,2.25,4.99,4.21,5.73,6.81,1.06,3.77.55,8,.58,12.04.27,36.92,2.42,73.64,9.49,110.01,1.74,8.97,1.25,18.38,1.79,27.59Z"/>
</svg>