<?xml version="1.0" encoding="UTF-8"?>
<svg id="Layer_1" data-name="Layer 1" xmlns="http://www.w3.org/2000/svg" version="1.1" viewBox="0 0 595.28 697.13">
  <defs>
    <style>
      .cls-1 {
        fill: #000;
        stroke-width: 0px;
      }
    </style>
  </defs>
  <path class="cls-1" d="M358.42,204.16c-6.84-19.89-24.19-28.91-40.85-37.84-14.97-8.03-29.65-16.08-41.95-27.95-17.01-16.42-26.44-37.18-33.06-59.3-1.64-5.49-.77-11.83-.52-17.75.2-4.88,1.61-9.72,1.75-14.6.45-15.37,4.28-21.52,18.63-26.64,12.49-4.46,25.52-6.27,38.65-3.53,12.49,2.61,24.69,1.73,37.22,0,45.99-6.34,92.28-8.48,138.48-3.67,25.41,2.64,50.7,7.59,74.39,18.11,4.47,1.98,9.25,3.68,13.08,6.57,3.82,2.88,9.05,6.84,9.46,10.76,1.92,18.7,7.76,37.79-1.79,56.1-2.99,5.74-5.85,11.93-10.23,16.51-23.36,24.44-51.03,42.71-82.73,54.46-8.05,2.98-16.89,4.02-25.47,5.28-6.05.89-2.41,2.24-.62,3.89,1.2,1.11,2.71,2.2,3.25,3.62.89,2.34,1.1,4.93,1.6,7.42-2.52-.04-5.42.73-7.49-.26-14.28-6.79-25.22.48-36.03,8.19-4.04,2.88-3.55,6.53-.1,9.62,2.83,2.53,6.11,4.57,9.03,7.01,8.75,7.3,17.66,14.44,26,22.18,3.68,3.41,4.95,2.82,6.65-1.31,4.05-9.86,10.01-19.11,5.98-30.78-1.79-5.19,1.91-7.55,7.08-8.49,5.71-1.04,11.65-2.23,16.79-4.79,18.07-8.99,36.23-17.93,53.59-28.19,11.18-6.6,21.3-15.14,31.28-23.54,2.98-2.51,5.26-7.47,5.27-11.31.01-2.48-4.71-4.95-7.26-7.47-.67-.66-1.18-1.49-1.77-2.24,1.2-.93,2.35-2.58,3.6-2.66,11.14-.79,18.98,9.2,14,19.5-3.92,8.11-10.1,15.42-16.41,21.99-6.29,6.54-14,11.72-21.09,17.5l.43-.3c-2.49.86-4.98,1.72-7.46,2.58l.43-.28c-1.36,1.05-2.73,2.09-4.09,3.14,0,0,.46-.27.46-.27-18.28,6.88-36.62,13.58-54.75,20.84-2.22.89-4.83,4.92-4.57,7.18,1.52,13.1-3.12,24.73-7.94,36.23-3.73,8.91-3.09,16.76,2.39,24.65,3.09,4.44,5.82,9.22,8.04,14.15,4.06,9.03,3.41,18.19-1.62,26.6-2.49,4.17-3.34,6.82-.08,11.43,13.08,18.48,12.25,31.9-3.19,48.11-18.22,19.12-39.87,29.9-67.29,25.35-9.62-1.6-11.11-.55-10.09,8.81,1.27,11.64-3.04,24.17,4.95,34.9.41.56.08,2.52-.36,2.71-1.4.58-3.22,1.2-4.52.76-8.72-2.96-14.07-10.84-13.53-21.92.81-16.87,2.35-33.71,3.9-50.53.65-7.05,3.05-14.04,2.99-21.03-.17-17.68,9.89-28.5,23.35-37.28,4.83-3.16,3.04-3.8-1.01-5.5-12.18-5.1-23.25-11.88-31.21-22.87-.92-1.28-2.35-2.19-3.54-3.27-.88,1.75-1.8,3.49-2.63,5.26-.22.48-.09,1.12-.32,1.59-.75,1.53-1.6,3.02-2.4,4.53-.67-1.46-1.79-2.88-1.94-4.39-1.69-17.29-3.16-34.6-4.82-51.89-1.19-12.37-1.24-25.03-8.23-36.09l.25.4ZM563.15,86.6c.36-2.63.64-4.25.8-5.88.96-9.86,1.02-9.59-9.33-7.13-11.65,2.77-23.33,5.63-35.17,7.31-59.94,8.51-119.79,3.23-179.55-2.4-27.75-2.61-55.37-6.82-81.18-18.16-6.39-2.81-6.41.75-6.44,4.75-.02,2.68.48,5.51,1.43,8.02,7.98,20.94,16.66,41.41,33.45,57.33,12.11,11.48,26.83,18.49,41.41,25.83,26.84,13.52,46.17,32.66,49.18,64.43.6,6.29,2.16,12.49,3.27,18.73,5.36-3.64,10.58-7.53,16.14-10.85,3.99-2.38,3.47-4.61,1.19-7.78-10.56-14.65.58-29.26,13.24-34.22,16.17-6.34,31.09-16.11,48.86-18.32,4.26-.53,8.53-2.04,12.48-3.81,27.63-12.36,53.07-28.14,75.26-48.91,8.7-8.14,14.38-17.77,14.94-28.92ZM475.66,33.98c-23.62-1.92-43.71-3.63-63.82-5.17-20.64-1.58-41.29-3.13-61.96-4.38-7.58-.46-16.86-2.75-22.44.62-8.85,5.36-16.67,2.34-24.86,1.87-12.92-.74-24.88,2.19-36.27,7.84-1.72.85-3.83,3.09-3.8,4.66.03,1.61,2.17,4.06,3.88,4.62,9.29,3.03,18.57,6.85,28.15,8.08,30.81,3.97,61.68,7.93,92.66,10,30.93,2.07,62.05,3.06,93.02,2.22,21.06-.57,42.02-5.07,63-8.01,1.98-.28,3.77-1.98,5.64-3.03-1.69-1.07-3.27-2.4-5.09-3.16-3.5-1.47-7.04-3.02-10.73-3.84-20.2-4.47-40.46-8.72-57.37-12.34ZM417.45,241.42c-11.07-2.03-17.85.88-23.58,10.14-5.07,8.19-4.93,15.73,2.03,24.04,4.47,5.34,10.05,9.95,15.76,14.01,9.29,6.62,19.13,12.47,28.67,18.73,8.46,5.55,19.2,1.62,20.23-8.09.42-3.97-1.03-8.77-3.16-12.25-5.53-9.01-10.06-17.92-8.93-29.04.26-2.56-2.02-6.93-4.25-7.9-8.68-3.77-17.81-6.51-26.77-9.63ZM399.69,359.37c-.2,0-.4,0-.6,0-.09,9.75-.07,19.5-.33,29.25-.12,4.56,1.79,5.61,5.87,4.48,11.97-3.34,23.99-6.49,35.92-9.96,1.72-.5,3.05-2.37,4.56-3.61-1.34-.89-2.61-1.92-4.04-2.64-13.59-6.82-27.45-13.26-35.75-27.09-.51-.86-1.57-1.39-2.37-2.07-.71,1.19-1.77,2.29-2.07,3.58-.61,2.63-.82,5.36-1.19,8.06ZM434.73,330.65c-1.64-.23-2.8-.7-3.78-.46-2.99.71-7.14.85-8.49,2.82-1.09,1.6.44,6.18,2.18,8.29,8.31,10.06,16.97,19.85,25.87,29.39.99,1.06,5.68.73,6.36-.38,2.53-4.08,4.65-8.62,5.94-13.25,3.15-11.3,2.48-14.09-8.02-20.03-6.14-3.47-13.69-4.44-20.07-6.38ZM444.32,320.33c-.25-.32-.46-.84-.77-.92-.32-.07-.74.29-1.11.46.25.33.45.86.76.93.31.08.73-.29,1.12-.48Z"/>
  <path class="cls-1" d="M335.43,515.18c44.28,3.66,86.99-2.94,127.86-20.42,5.92-2.53,11.64-6.22,16.47-10.49,6.67-5.9,6.67-11.76.73-18.5-7.81-8.86-18.17-13.65-29.26-17.05-7.29-2.23-14.59-4.42-21.82-6.83-1.18-.39-2-1.87-2.98-2.85,1.31-.71,2.63-2.06,3.92-2.02,16.48.52,32.7,2.93,47.83,9.7,17.72,7.93,25,21.04,21.03,36.06-2.4,9.07-8.77,14.91-16.24,19.75-17.23,11.14-36.69,16.8-56.25,21.84-26.55,6.84-53.7,9.26-81.05,8.56-17.09-.44-33.42-4.46-48.83-12.19-9.1-4.57-16.12-11.22-21.52-19.6-9.31-14.46-7.59-29.82,5.05-41.49,13.51-12.47,29.17-21.81,47.57-23.9,10.4-1.18,16.73-7.11,23.61-13.21.72-.64,1-1.78,1.48-2.69-.96-.47-1.95-1.39-2.88-1.34-4.87.26-9.76.52-14.58,1.23-28.29,4.18-52.81,15.15-73.6,35.82-36.8,36.59-74.74,72.05-112.43,107.74-25.1,23.77-46.79,50.37-67.28,78.09-12.32,16.67-25.31,32.85-38.05,49.21-1.65,2.12-3.43,4.15-5.38,5.98-.59.55-2.51.73-2.83.31-.85-1.11-1.83-2.8-1.54-3.94.52-2.05,1.9-3.89,2.99-5.78,32.6-57.08,69.39-110.96,116.66-157.24,25.36-24.83,49.4-51.01,74.3-76.32,14.82-15.06,32.44-25.64,52.97-31.38,6.76-1.89,13.28-4.83,19.69-7.78,14.74-6.79,29.79-9.99,46.11-6.99,12.93,2.38,14.38,1.5,16.87-10.72,5.75-28.29,12.66-56.49,10.72-85.76-.07-1.07-.12-2.24.24-3.2.35-.94,1.58-2.47,1.83-2.37,1.17.5,2.93,1.38,3.04,2.3,1.43,11.85,3.6,23.73,3.66,35.61.12,23.96-.1,47.95-7.69,71.24-4.89,15.01-13.5,24.26-29.92,25.75-21.63,1.96-39.34,12.36-54.18,27.69-10.05,10.38-9.83,19.42.62,29.71,9.19,9.05,20.64,14.02,33.33,16.1,3.24.53,6.5.91,9.74,1.36Z"/>
  <path class="cls-1" d="M240.74,188.49c6.26-17.16-1.2-33.66-5.05-50.55-1.57-6.88-3.58-13.77-4.03-20.75-.26-3.97,1.24-8.95,3.77-11.91,1.71-2.01,7.12-2.61,9.95-1.5,4.22,1.66,4.51,5.24.77,8.97-4.11,4.1-3.27,8.64.01,13.25,8.6,12.09,9.55,26.53,11.09,40.49,3.56,32.34-5.85,62.43-17.9,91.81-10.62,25.89-27.93,46.87-50.13,63.51-17.89,13.41-36.9,25.32-55.07,38.38-19.04,13.68-37.67,27.93-56.45,41.97-2.18,1.63-3.99,3.85-6.34,5.15-1.69.94-3.98.79-6,1.13.06-1.86-.56-4.16.31-5.5,3.83-5.92,7.3-12.41,12.36-17.12,12.76-11.87,25.99-23.29,39.64-34.14,12.82-10.18,26.21-19.68,39.7-28.97,32.92-22.66,56.27-52.58,70.56-89.92,5.45-14.25,12.65-27.86,12.8-44.32Z"/>
  <path class="cls-1" d="M358.17,203.76c-10.84,12.1-23.93,18.42-40.43,15.04-17.11-3.51-27.62-23.34-20.53-39.25,1.23-2.76,5.31-4.26,8.07-6.34,1.98,2.86,4.35,5.54,5.8,8.65.83,1.78-.1,4.3.2,6.43.94,6.78,4.73,10.36,11.76,11.14,11.83,1.31,23.6,3.13,35.4,4.74l-.25-.4Z"/>
  <path class="cls-1" d="M385,473.37c-3.49-.72-7.45-.91-10.87-2.38-5-2.15-11.22-2.88-13.52-9.15,4.73-.1,9.56-.87,14.16-.15,11.69,1.82,22.59-.34,33.27-4.89,3.47-1.48,7.05-2.92,10.72-3.57,1.66-.3,4.49.89,5.3,2.28.83,1.41.58,4.5-.48,5.81-6.91,8.47-16.32,12.29-26.99,12.96-3.75.23-7.56-.56-11.59-.9Z"/>
  <path class="cls-1" d="M458.25,125.55c-5.06-1.52-11.79-3.73-18.62-5.55-17.9-4.76-35.5-3.23-53.25,1.68-32.87,9.11-64.72,5.49-95.34-9.43-.98-.48-2.28-.48-3.04-1.15-2.95-2.6-9.9-3.03-7.56-8.64,2.58-6.18,7.78-1.76,11.14-.07,25.83,13.02,53.26,13.13,79.76,5.87,28.8-7.89,56.49-10.58,84.94-.35,19.66,7.06,39.48,6.65,59.25-.15,1.7-.58,3.98.53,5.99.85-1.35,1.54-2.49,3.34-4.08,4.57-17.12,13.22-36.92,14.21-59.18,12.36Z"/>
</svg>