<?xml version="1.0" encoding="UTF-8"?>
<svg id="Layer_1" data-name="Layer 1" xmlns="http://www.w3.org/2000/svg" version="1.1" viewBox="0 0 595.28 473.78">
  <defs>
    <style>
      .cls-1 {
        fill: #000;
        stroke-width: 0px;
      }
    </style>
  </defs>
  <path class="cls-1" d="M215.96,65.97c-45.56-1.5-91.12-2.72-136.66-4.67-12.08-.52-24.08-3.2-36.1-4.99-3.82-.57-6.19-.39-4.47,4.59,1.37,3.96,2.3,8.1,3.06,12.23,1.1,5.93,2.23,8.51,8.84,3.76,13.65-9.81,29.65-7.35,44.58-4.66,17.6,3.18,34.87,8.44,52.09,13.47,31.63,9.24,63.08,10.36,95.63,3.62,16.74-3.46,34.68-1.19,52.08-1.3,1.12,0,2.26,1.79,3.39,2.74-1.09.65-2.26,1.98-3.26,1.86-15.53-1.86-28.7,4.59-42.33,10.72-27.73,12.48-56.65,11.94-85.5,4.45-18.39-4.78-36.41-10.94-54.67-16.22-14.22-4.11-28.41-8.62-43.54-7.64-3.16.2-6.43.09-9.46.88-9.92,2.6-11.53,6.45-7.28,15.93,6.67,14.87,16.87,26.93,29.81,36.59,9.75,7.28,19.39,15.04,30.06,20.73,29.79,15.89,41.32,42.21,45.17,73.8,3.61,29.69.69,59.1-2.46,88.57-1.63,15.26-1.99,30.69-4.2,45.85-1.59,10.87-5.05,21.51-8.22,32.09-1.02,3.41-3.42,6.64-5.88,9.32-2.4,2.62-5.68,4.45-8.58,6.62.76-3.21,1.75-6.39,2.24-9.65,2.57-17.2,5.75-34.35,7.32-51.64,2.43-26.89,4.03-53.87,5.34-80.84.43-8.91-1.28-17.9-1.64-26.87-.22-5.51-1.86-7.74-8.02-9.11-13.32-2.97-26.29-7.62-39.23-12.07-6.04-2.08-12.23-4.69-9.38-13.65.44-1.4-2.07-4.26-3.82-5.73-4.85-4.08-10.39-7.39-14.97-11.73-4.6-4.37-9.08-9.61-7.76-16.61,1.29-6.85-1.72-10.85-6.7-14.62-6.86-5.2-12.21-11.47-14.89-20.07-1.16-3.71-4.82-6.58-7.09-10.01-4.93-7.44-10.89-14.5-14.24-22.62-4.54-11.02.07-19.82,11.6-23.43,4.76-1.49,5.7-1.93,3.96-6.9-4.1-11.73-2.73-24.83-10.21-36.01-3.79-5.66-.43-13.3,7.53-16.95,10.93-5.02,22.47-9.8,34.23-11.7,33.62-5.45,67.54-5.27,101.38-1.47,29.95,3.37,59.98,6.24,89.76,10.81,18.68,2.87,37.04,8.13,55.36,13.01,6,1.6,11.65,4.99,17.02,8.28,4.19,2.57,6.93,6.43,5.06,12.11-.98,2.96-1.14,6.21-1.57,9.34-.65,4.7.62,5.56,5.96,5.49,26.87-.35,51.15,7.4,70.98,26.29,6.13,5.84,12.3,11.88,17.17,18.74,25.78,36.27,61.89,51.45,105.11,52.57,11.33.29,22.08,2.59,31.65,8.85,1.48.97,2.08,3.27,3.08,4.96-1.77.81-3.6,2.44-5.31,2.32-23.15-1.67-46.51-2.12-69.35-5.79-30.8-4.94-56.39-20.44-76.33-44.81-4.36-5.33-9.36-10.13-13.8-15.4-12.61-14.98-29.46-22.05-48.06-25.46-6.63-1.21-13.6-2.26-19.85,2.55-7.22,5.55-7.04,12.1,1.31,15.88,3.72,1.68,8.16,1.96,12.33,2.44,14.15,1.63,32.06,16.73,34.6,30.3.69,3.71-.8,8.14-2.28,11.84-1.2,2.98-3.85,3.11-6.05.16-2.52-3.39-5.42-6.51-7.76-10.02-5.7-8.57-13.06-13.15-23.83-12.66-9.3.42-17.56-3.38-24.61-9.49-1.81-1.57-2.98-2.38-4.56.44-12.99,23.11-35.76,33.55-58.16,44.3-6.16,2.96-12.84,4.88-19.33,7.13-27.58,9.57-41.66,30.14-45.42,57.92-5.81,42.97-12.21,85.96-15.22,129.15-1.4,20.05,3.12,40.97,14.24,59.19.92,1.5.97,3.54,1.43,5.32-1.81-.8-3.8-1.35-5.41-2.44-9.48-6.4-12.93-16.27-15.34-26.79-5.95-25.95-7.7-52.28-7.23-78.79.58-32.9,4.61-65.49,10.72-97.74,6.03-31.83,24.97-53.39,56.22-62.83,21.95-6.63,42.88-15.15,61.62-28.43,4.63-3.28,9.18-7.37,12.14-12.1,2.23-3.57,3.47-9.23,2.33-13.14-2.58-8.8,1.01-14.21,7.21-19.17,2.48-1.99,4.76-4.24,7.34-6.1,4.2-3.04,5.83-6.84,5.95-12.15q.36-15.68-14.87-21.22c-22.58-8.17-46.28-10.75-69.8-13.84-48.92-6.43-98.11-9.72-147.42-6.69-15.13.93-30.06,5.19-45.06,8.05-1.46.28-2.74,1.5-4.1,2.28,1.56.82,3.05,2.15,4.68,2.36,14.67,1.9,29.33,4.42,44.07,5.21,31.75,1.7,63.59,1.74,95.31,3.85,28.47,1.89,56.82,5.64,85.22,8.57,9.98,1.03,19.98,1.99,29.94,3.22,1.31.16,2.44,1.73,3.66,2.65-1.38.4-2.76,1.15-4.14,1.15-28.1.07-56.19.05-84.29.05-.01.53-.02,1.07-.03,1.6ZM42.58,115.52c.22.47.37,1.01.69,1.4.16.19.64.11.97.15-.66-.4-1.32-.8-1.98-1.19-.39-2.5-.32-5.2-1.28-7.47-1.98-4.67-4.52-9.12-6.83-13.65-.32.36-.98.81-.91,1.06,1.52,5.28,2.88,10.62,4.86,15.73.64,1.66,2.94,2.67,4.48,3.97ZM123.41,201.16c1.72-.45,4.08-1.06,6.43-1.67-.77-1.93-1.3-4-2.38-5.74-1.37-2.21-3.08-4.24-4.83-6.19-5.08-5.64-9.47-12.24-18.72-5.07-2.43,1.88-8.05-.14-12.16-.69-4.11-.55-8.15-1.59-12.24-2.25-.95-.15-2,.4-3.01.63.47,1.26.59,2.9,1.47,3.71,12.64,11.54,28.58,14.51,45.43,17.27ZM78.99,162.67c2.14-.3,4.18-.58,6.23-.87-1.1-1.65-1.89-3.65-3.34-4.89-5.12-4.39-10.36-8.65-15.8-12.63-1.16-.85-4.52-.89-4.84-.27-.97,1.89-2.06,5.3-1.13,6.32,5.17,5.67,10.22,11.94,18.88,12.33ZM138.69,223.38c-1.16-2.26-1.78-4.67-2.52-4.71-7.11-.38-14.24-.36-21.37-.41-.05,0-.21.87-.13.91,5.1,2.33,10.19,4.7,15.37,6.86,1.37.57,3.2,1.01,4.5.57,1.54-.52,2.73-2.06,4.16-3.22Z"/>
  <path class="cls-1" d="M359.12,263.28c-18.46.73-36.91,1.82-55.37,2.02-7.28.08-14.57-1.82-21.86-2.81-16.18-2.2-32.57-3.4-48.46-6.9-14.32-3.15-28.09-8.8-42.06-13.45-.75-.25-1.82-1.91-1.62-2.22.72-1.15,1.78-2.65,2.94-2.89,14.53-2.95,28.94-4.23,43.99-2.45,25.79,3.04,51.21,6.79,75.64,16.07,10.63,4.04,20.69-1.61,30.87-3.65,10.83-2.16,21.39-5.96,32.29-7.36,24.91-3.21,46.61,6.39,67.32,18.87,13.85,8.34,25.4,18.7,31.96,34.05,3.1,7.26,7.54,13.95,11.19,20.98.59,1.15.26,2.77.36,4.17-.89-.31-1.88-.47-2.66-.96-9.34-5.82-18.39-12.17-28.03-17.45-16.67-9.13-33.52-18-50.65-26.23-14.37-6.9-29.63-11.08-45.83-9.81Z"/>
  <path class="cls-1" d="M48.79,411.78c14.39-5,28.61-10.65,43.27-14.7,6.28-1.74,13.52-.55,20.23.13,1.96.2,3.64,3.22,5.45,4.95-2.05,1.09-4.04,2.99-6.16,3.15-18.25,1.44-34.95,7.65-50.92,16.1-4.17,2.21-8.2,4.9-11.77,7.99-5.01,4.34-4.49,8.32,2.05,10.42,8.98,2.88,18.31,4.99,27.65,6.4,32.17,4.87,64.46,2.44,96.53-.56,19.79-1.85,39.97-3.62,58.53-12.14,1.78-.82,3.13-2.58,4.68-3.91-1.47-1.35-2.72-3.22-4.45-3.96-8.72-3.7-17.53-7.19-26.38-10.56-3.42-1.3-7.16-1.81-10.54-3.19-1.58-.64-2.66-2.49-3.97-3.79,1.82-.61,3.72-1.9,5.46-1.72,12.04,1.27,24.16,2.22,36.02,4.5,11.15,2.14,21.93,6.34,24.18,19.48,1.5,8.75-7.61,17.97-23.6,22.05-17.31,4.42-35,7.99-52.74,9.95-34.21,3.77-68.59,5.18-102.86.17-9.88-1.44-19.87-3.24-29.32-6.36-23.15-7.63-26.18-19.52-10.53-38.36l-.41.32c1.17-1.19,2.35-2.37,3.52-3.56l-.38.32c2.28-1.16,4.55-2.32,6.83-3.47l-.38.34Z"/>
</svg>