<?xml version="1.0" encoding="UTF-8"?>
<svg id="Layer_1" data-name="Layer 1" xmlns="http://www.w3.org/2000/svg" version="1.1" viewBox="0 0 439.7 473.78">
  <defs>
    <style>
      .cls-1 {
        fill: #000;
        stroke-width: 0px;
      }
    </style>
  </defs>
  <path class="cls-1" d="M199.09,164.16c-1.29-8.33-1.75-16.89-3.99-24.95-11.73-42.21-28.39-82.15-55.74-116.96-2.22-2.83-4-6.04-5.73-9.22-.4-.74-.08-2.48.54-3,.77-.64,2.46-.99,3.29-.56,2.11,1.09,4.29,2.38,5.86,4.12,4.31,4.77,8.67,9.56,12.39,14.78,24.52,34.5,41.8,72.44,52.88,113.23,4.65,17.13,4.51,34.33-1.17,51.18-5.92,17.57-17.5,29.6-35.89,34.38-7.24,1.88-9.7,6.2-7.12,12.99.98,2.56,2.53,5.32,4.63,6.96,7.92,6.17,15.75,12.66,24.43,17.6,7.79,4.44,17.46,4.2,25.85,7.63,1,.41,2.69.37,3.48-.23,1.45-1.11,3.29-2.73,3.4-4.24.09-1.32-1.73-3.58-3.16-4.04-3.79-1.23-7.89-1.49-11.76-2.53-10.4-2.78-19.25-8.18-26.14-16.52-1.77-2.15-3.38-4.56-4.48-7.11-3.15-7.3-.81-12.26,6.84-12.94,5.52-.49,9.95-2.35,14.45-5.3,3.29-2.15,7.2-3.68,11.04-4.6,21.46-5.13,42.74-5.44,64.28.74,24.92,7.16,48.48,17.28,71.34,29.28,13.22,6.94,26.58,13.74,41.85,14.5,6.76.34,13.59-.68,20.39-.95,1.11-.04,2.25.58,3.37.89-.73,1.3-1.16,3.36-2.23,3.77-5.18,1.99-10.42,4.36-15.84,5.09-13.09,1.74-25.6-1.23-37.56-6.6-15.43-6.93-30.55-14.67-46.36-20.57-18.4-6.86-37.05-14.07-56.24-17.47-18.03-3.19-37.01-2.19-53.63,8.49-.34.22-.7.41-1.07.56-2.55,1-5.1,1.98-7.66,2.97,2.55,2.45,4.81,5.33,7.7,7.27,8.3,5.57,18.28,5.71,27.63,7.92,11.31,2.66,22.64,5.27,33.87,8.26,2.42.64,4.42,2.83,6.62,4.31-2.5.49-5,1.42-7.49,1.38-7.24-.12-14.47-.74-21.71-.9-1.76-.04-3.55.98-5.33,1.51.73,2.25,1.09,6.22,2.25,6.47,10.33,2.22,17.04,9.24,24.24,16.14,4.2,4.03,9.99,6.47,15.25,9.29,1.39.75,3.57.77,5.15.31,11.85-3.51,20.54-1.15,26.57,7.47,5.46,7.8,5.04,18.05-1.69,26.93-3.62,4.77-7.57,9.48-12.16,13.26-4.12,3.39-3.01,5.51-.19,8.62,6.5,7.17,12.83,14.49,19.16,21.81.66.76.83,1.93,1.23,2.91-1.12-.02-2.38.29-3.33-.12-9.54-4.1-17.04-10.62-22.54-19.43-1.06-1.7-1.81-3.6-2.83-5.34-2.61-4.5-5.61-.28-8.42-.32.49,1.5.61,3.3,1.54,4.44,6.43,7.9,11.72,16.41,14.13,26.4.74,3.07.78,6.32.98,9.49.04.7-.42,1.76-.98,2.08-.44.26-1.77-.13-2.05-.61-7.02-12.15-14.43-24.11-20.61-36.68-1.76-3.58-2.95-5.05-6.6-4.98-9.54.18-19.98-1.04-25.83-8.03-7.14-8.52-16.28-10.67-25.4-14.39-9.6-3.91-17.26-10.1-20.38-20.83-.79-2.72-3.3-5.23-5.59-7.15-3.38-2.83-7.54-4.73-10.9-7.58-8.55-7.27-13.8-16.05-9.14-27.58,1.47-3.64-.42-4.91-2.21-7.06-3.58-4.31-7.46-8.57-10.03-13.47-1.73-3.3-2.69-8-1.76-11.48,1.28-4.77.93-6.19-4.18-7-26.57-4.2-47.85-18.48-66.8-36.56-24.59-23.45-46.12-49.57-65.1-77.74-3.81-5.66-6.8-11.88-10.2-17.81-3.99-6.96-3.84-14.1.34-20.65,3.66-5.72,7.56-11.71,12.68-15.99C39.59,43.35,59.98,26.78,83.49,14.8c7.48-3.81,15.45-6.81,23.46-9.37,3.61-1.15,7.92-.79,11.78-.21,1.98.3,3.66,2.6,5.48,4-1.95.81-3.87,1.69-5.85,2.42-7.89,2.89-16.1,5.1-23.64,8.71-19.06,9.15-35.11,22.8-51.46,35.93-5.03,4.04-10.14,8.01-14.86,12.39-2.92,2.71-5.63,5.86-7.61,9.29-1.65,2.85-2.09,6.4-3.07,9.64,3.13.36,6.31,1.22,9.38.94,3.13-.28,6.37-1.26,9.2-2.67,8.28-4.13,16.8-8,24.48-13.11,23.5-15.63,47.23-31,67.51-50.93.74-.73,1.93-1,2.91-1.48-.02,1.09.29,2.34-.13,3.25-1.19,2.55-2.58,5.02-4.07,7.42-8.38,13.53-19.27,24.9-31.39,34.99-13.99,11.65-29.37,21.28-45.76,29.26-9.17,4.46-18.79,7.12-29.01,7.44-1.13.04-2.26-.03-3.39-.04.37,1.4.35,3.1,1.17,4.15,8.97,11.4,17.66,23.05,27.22,33.93,15.71,17.87,31.26,36,50.2,50.65,14.75,11.41,30.44,21.16,49.31,24.39,30.95,5.29,49.3-12.84,52.29-39.41.45-4,.5-8.05.74-12.08.24-.04.48-.08.72-.13ZM251.52,299.75c-4.42.87-9.7-1.81-14.37,2.65-6.45,6.14-14.78,7.72-23.53,7.67-2.51-.01-5.03.9-7.54,1.39,1.99,1.85,3.79,4,6.04,5.46,2.33,1.51,5,2.67,7.68,3.43,15.26,4.29,30.26,1.79,45.17-2.07,1.14-.3,2.21-.99,3.21-1.65,5.57-3.68,5.69-8.15.86-12.78-4.97-4.77-10.94-4.45-17.52-4.1ZM226.52,297.44c4.13-.81,11.43-2.12,18.64-3.8,1.23-.29,2.78-2.12,2.91-3.37.12-1.18-1.19-3.36-2.28-3.68-6.49-1.88-13.04-4.34-19.68-4.69-7.09-.37-13.27-1.94-19.1-5.83-1.79-1.2-4.54-2.73-6.14-2.15-6.71,2.46-12.62-.62-18.82-1.73-1.44-.26-2.95-.15-4.43-.21.13,1.46-.22,3.24.49,4.33,1.72,2.64,3.51,5.56,6.02,7.31,11.73,8.16,24.44,13.88,42.39,13.81ZM259.77,338.22c13.03.27,22.88-1.29,31.59-6.74,3.62-2.26,7.01-5.41,9.45-8.89,3.11-4.43,1.58-10.4-3.04-12.29-3.96-1.62-8.45-2.14-12.76-2.5-.8-.07-1.84,2.98-2.8,4.57-5.16,8.53-9.92,17.38-20.4,20.82-3.07,1.01-5.85,2.93-8.76,4.43,3.18.28,6.37.57,6.71.6Z"/>
  <path class="cls-1" d="M144.68,209.42c-6.6-2.33-14.86-3.77-21.39-7.92-9.09-5.77-17.42-13.03-25.13-20.61-12.93-12.69-25.03-26.22-37.72-39.16-2.07-2.11-5.49-2.84-8.1-4.49-1.59-1.01-2.84-2.56-4.24-3.86,1.33-1.23,2.49-3.21,4.03-3.57,10.47-2.45,20.94-5.6,31.58-6.48,9.9-.81,19.03-2.54,27.36-7.99,10.16-6.63,20.49-7.65,31.99-2.74,5.27,2.25,11.79,2.62,17.64,2.23,13.11-.86,19.2,1.91,25.4,13.16,5.2,9.43,8.28,19.11,5.02,30.01-1.14,3.82-1.8,7.85-2.14,11.84-1.61,19.07-14.55,28.75-30.03,36.1-3.86,1.83-8.45,2.12-14.24,3.48ZM70.71,137.71c-1.23.46-1.95.73-2.67,1,2.49,1.67,4.98,3.34,7.47,5.02.19-.71.75-1.87.51-2.07-1.76-1.48-3.69-2.77-5.31-3.95ZM157.64,130.73c-.36-1.11-.56-1.73-.76-2.35-.82.85-1.82,1.59-2.39,2.59-.27.47.29,1.42.47,2.15.94-.84,1.89-1.68,2.67-2.38ZM147.87,158.65c.73-.22,1.47-.44,2.2-.66-.72-.31-1.42-.83-2.15-.88-.71-.04-1.45.41-2.17.64.71.3,1.41.6,2.12.9ZM150.47,194.55l.38-.52-.56-.1.18.62Z"/>
  <path class="cls-1" d="M235.79,432.77c1.09-19.69,9.27-36.42,22.06-51.02,2.27-2.59,5.81-4.3,9.08-5.64,1.31-.54,3.48,1.01,5.26,1.61-.68,1.53-1.01,3.39-2.09,4.55-12.77,13.71-20.7,29.66-21.71,48.5-.73,13.69,5.25,19.33,18.36,15.74,10.71-2.94,21.23-7.65,30.85-13.27,21.5-12.57,39.47-29.28,52.72-50.57,3.37-5.42,6.06-11.37,8.27-17.37,2.08-5.66.76-8.18-5.15-9.96-4.11-1.24-8.69-1.78-12.95-1.41-6.36.55-12.62,2.28-18.96,3.23-1.27.19-2.72-.86-4.08-1.33,1.11-.92,2.07-2.25,3.35-2.7,10.55-3.8,20.86-8.48,32.5-8.04,13.29.51,19.66,7.24,19.45,20.69-.14,8.83-3.72,16.48-8.21,23.67-16.2,25.94-38.61,45.22-65.29,59.7-10.27,5.57-20.94,9.93-32.87,11.3-21.96,2.51-31.88-11.81-30.58-27.67Z"/>
  <path class="cls-1" d="M358.14,319.14c25.49,1.77,47.55,7.42,68.71,16.62,1.1.48,1.77,1.94,2.64,2.94-1.12-.04-2.28.07-3.37-.16-9.42-1.95-18.84-3.91-28.24-5.96-21.02-4.59-42.1-6.03-63.39-1.76-3.5.7-7.23.59-10.83.38-1.25-.08-3.19-1.47-3.39-2.53-.19-1.04,1.26-3.32,2.28-3.51,12.62-2.3,25.28-4.33,35.6-6.03Z"/>
</svg>