<?xml version="1.0" encoding="UTF-8"?>
<svg id="Layer_1" data-name="Layer 1" xmlns="http://www.w3.org/2000/svg" version="1.1" viewBox="0 0 439.7 473.78">
  <defs>
    <style>
      .cls-1 {
        fill: #000;
        stroke-width: 0px;
      }
    </style>
  </defs>
  <path class="cls-1" d="M317.14,68.58c13.62-12.87,26.99-26.11,43.83-34.86,5.1-2.65,10.66-4.58,16.2-6.18,4.31-1.25,8.11.37,10.8,4.26,2.66,3.84,1,7.52-1.04,10.47-3.04,4.42-6.62,8.59-10.56,12.23-11.63,10.75-23.64,21.08-35.3,31.81-3.24,2.98-5.77,6.74-8.62,10.14-.31.23-.62.45-.93.68.23-.31.46-.62.68-.93,14.61-3.26,29.19-6.93,44.31-3.12,3.81.96,5.9-.32,7.26-4.45,4.07-12.36,6.64-13.67,19.02-11.19,6.52,1.3,13.07,2.51,19.53,4.07,13.58,3.29,16.09,9.92,7.78,21.48-3.62,5.04-8.15,9.45-12.46,13.95-2.31,2.41-2.75,4.25-1.12,7.58,10.63,21.7,4.65,40.33-17,50.42-7.55,3.52-12.99,7.67-16.97,15-4.7,8.66-12.83,14.31-21.59,18.36-13.2,6.1-26.47,12.26-40.23,16.85-20.6,6.88-41.15,13.5-58.54,27.16-.86.68-2.2.74-3.32,1.09.14-1.42-.25-3.25.49-4.2,12.41-15.77,27.62-27.19,47.32-32.94,16.72-4.88,33.18-10.94,49.24-17.69,7.86-3.3,14.7-9.17,21.69-14.3,2.61-1.92,1.86-3.81-1.55-5.1-5.77-2.2-10.63-1.79-16.46.89-13.93,6.43-28.19,12.29-42.71,17.2-6.47,2.19-13.95,2.31-20.9,1.98-10.32-.49-15.53-8.36-12.45-18.14,1.6-5.09,3.97-10.05,6.72-14.64,7.79-12.99,18.06-23.95,29.47-33.79,11.06-9.53,24.19-12.44,38.49-11.01,3.06.31,4.46,1.83,4.23,4.87-15.02-1.96-28.6,2-38.78,12.9-9.59,10.27-17.79,21.91-25.89,33.45-2.83,4.04-8.1,10.04-3.56,14.26,2.98,2.77,10.46,2.29,15.4,1.1,16.93-4.08,33.61-9.21,50.44-13.73,3.4-.91,3.72-1.88,2.02-4.91-5.37-9.55-6.21-19.61-2.85-30.12,1.37-4.29,1.99-8.82,2.95-13.25,3.13-3.31,5.92-7.06,9.49-9.79,2.83-2.16,6.52-3.37,10.01-4.39,1.08-.31,2.75,1.38,4.14,2.16-1.09.72-2.32,1.28-3.23,2.17-3.47,3.43-7.59,6.5-10.08,10.56-5.43,8.86-6.12,18.97-4.75,29.04,1.32,9.7,6.65,13.56,16.48,13.03,13.45-.72,25.46-11.46,28.37-25.35l-.29.36c5.85-13.79,1.66-24.38-11.42-27.55-5.99-1.45-10.92-3.44-13.82-9.35-.72-1.46-3.14-2.6-4.95-2.91-6.15-1.06-12.36-1.82-18.57-2.45-19.68-2.01-37.07,3.43-52.18,16.23-.88.74-2.46.64-3.72.94.16-1.19.17-2.44.53-3.57.24-.75.85-1.5,1.49-1.97,12.65-9.15,19.01-23.8,30.21-34.33,11.23-10.56,21.44-22.21,32.09-33.38.29-.3.62-.57.86-.91,1.71-2.5,3.4-5.01,5.1-7.52-2.72.79-5.68,1.13-8.13,2.43-21.87,11.66-41.97,25.7-58.11,44.75-3.33,3.94-6.79,7.01-11.78,8.33-1.27.34-2.41,1.2-3.61,1.83.32-1.13.46-2.34.98-3.37,6.63-12.98,13.37-25.91,19.97-38.91,5.08-10.02,10.09-20.08,14.93-30.21,1-2.09,1.1-4.6,1.61-6.91-2.39,1.17-5.43,1.77-7.04,3.62-5.44,6.25-10.97,12.56-15.38,19.54-11.57,18.3-22.56,36.97-33.79,55.48-1.51,2.49-2.91,5.09-4.73,7.33-.82,1-2.56,1.25-3.88,1.85-.02-1.09-.31-2.26-.02-3.26,4.82-16.19,9.72-32.34,14.56-48.52.47-1.58.92-3.25.89-4.88-.02-1.36-.75-2.71-1.17-4.07-.92.81-2.07,1.46-2.72,2.44-10.41,15.77-18.31,32.83-22.66,51.12-6.48,27.24-18.18,51.64-35.21,73.77-5.01,6.51-8.53,14.16-12.73,21.29,3.3,6.72,6.57,13.45,9.9,20.15,4.07,8.21,7.99,16.51,12.35,24.57,3.55,6.57,7.26,13.12,11.59,19.19,6.02,8.46,6.22,10.44-1.24,18.05-3.8,3.87-7.71,7.66-11.81,11.2-3.33,2.88-4.07,5.7-2.12,9.85,2.82,6.01,5.07,12.3,7.32,18.56.21.57-1.63,2.65-1.97,2.53-4.89-1.8-6.86,2.28-9.27,4.75-25.98,26.56-51.94,53.15-77.7,79.92-22,22.85-43.74,45.96-65.65,68.89-.92.97-2.47,1.34-3.72,1.99.58-1.39.89-3.01,1.79-4.14,33.81-42.43,67.93-84.61,107.02-122.39,11.97-11.57,24.87-22.21,37.51-33.07,2.74-2.35,2.72-3.86,1.35-7.22-5.87-14.43-16.98-25.41-24.64-38.71-12.97-22.51-23.15-46.1-31.92-70.43-3.57-9.89-3.71-9.9-12.55-4.31-30.8,19.45-58.86,42.5-85.73,66.94-20.98,19.09-41.14,39.08-61.74,58.59-.88.83-2.55.83-3.86,1.22.31-1.53.12-3.48,1.01-4.52,5.94-7,11.97-13.93,18.23-20.65,38.49-41.3,78.99-80.37,125.8-112.36,3.44-2.35,6.96-4.65,10.69-6.46,7.9-3.83,12.53-2.07,16.1,5.72,1.84,4.01,3.62,8.04,5.43,12.06,3.85-2.36,7.67-4.79,11.58-7.05,2.49-1.44,6.11-4.4,7.55-3.61,8.5,4.63,9.64-2.63,12.76-6.99,19.19-26.84,30.82-56.83,38.09-88.86,4.09-18.04,13.36-34,23.37-49.4,2.64-4.06,5.55-9.48,11.47-7.94,7.01,1.83,5.23,8.43,5.61,13.67.27,3.77.79,7.53,1.2,11.29,1.87-3.2,3.99-6.28,5.57-9.61,5.58-11.77,11.91-23.06,22.25-31.34,3.82-3.06,8.25-5.91,12.87-7.27,6.44-1.9,10.8,1.77,10.45,8.5-.23,4.43-1.34,9.18-3.39,13.08-5.62,10.66-12.03,20.91-17.97,31.41-2.23,3.93-4.03,8.1-6.03,12.16-.34.12-.7.19-1,.38-.17.11-.24.39-.35.6.36-.42.71-.84,1.07-1.26ZM236.29,263.33c-.55-.92-1.2-1.92-1.76-2.97-4.72-8.79-9.59-17.5-14.09-26.4-6.57-13-12.82-26.17-19.32-39.21-.85-1.71-3.01-4.59-3.44-4.4-4.16,1.84-8.55,3.7-11.83,6.69-1.33,1.21-.7,5.45.1,7.97,8.17,25.65,24.23,47.38,35.79,71.35.96,1.98,2,2.46,3.53.72,3.3-3.76,6.57-7.55,9.79-11.37.52-.61.76-1.46,1.23-2.41ZM401.75,91.85c-5.23-.69-6.28.14-6.67,4.89-.93,11.38.61,13.11,11.79,15.02,3.05.52,4.58,1.27,6.06-2.68,6.03-16.08,6.24-12.38-8.03-16.4-1.19-.33-2.38-.63-3.15-.83Z"/>
</svg>