<?xml version="1.0" encoding="UTF-8"?>
<svg id="Layer_1" data-name="Layer 1" xmlns="http://www.w3.org/2000/svg" version="1.1" viewBox="0 0 595.28 434.75">
  <defs>
    <style>
      .cls-1 {
        fill: #000;
        stroke-width: 0px;
      }
    </style>
  </defs>
  <path class="cls-1" d="M381.88,64.5c3.86,2.21,7.78,4.32,11.58,6.64,16.23,9.9,32.68,19.44,48.55,29.89,21.8,14.35,42.09,30.67,60.18,49.59,18.43,19.28,34.46,40.33,46.62,64.15,7.09,13.89,12.34,28.5,14.06,44.06,3.09,27.91-3.47,53.28-21.17,75.43-14.05,17.58-32.35,29.15-53.05,37.2-15.3,5.95-31.21,9.3-47.51,11.28-15.31,1.85-30.63,2.21-45.97,1.59-9.64-.39-19.25-1.64-28.85-2.65-19.58-2.05-38.77-6.14-57.76-11.21-24.99-6.66-49.28-15.28-72.89-25.86-24.57-11.01-48.07-23.9-70.27-39.16-20.59-14.15-39.57-30.18-56.2-48.84-18.16-20.38-32.35-43.15-40.6-69.4-5.28-16.8-7.11-34-5.47-51.4,2.16-22.99,11.01-43.45,25.61-61.37,14.3-17.53,32.24-30.27,52.5-40.01,17.95-8.63,36.8-14.37,56.36-17.99,11.48-2.12,22.99-3.77,34.67-4.08,5.83-.15,11.67-.77,17.49-.6,30.98.91,60.77,7.03,88.71,20.89,7.95,3.94,15.52,8.5,21.61,15.11,1.33,1.44,2.43,3.09,3.08,5.3-.4-.26-.93-.42-1.19-.78-4.16-5.64-9.88-9.42-15.81-12.81-17.06-9.77-35.5-15.81-54.64-19.94-20.4-4.4-41.09-5.16-61.72-3.72-33.87,2.37-66.37,10.44-96.26,27.15-20.58,11.5-37.94,26.59-50.23,46.99-7.39,12.26-12.22,25.43-14.42,39.64-4,25.89.7,50.39,11.42,73.93,11.94,26.24,29.69,48.14,50.85,67.5,32.76,29.97,70.38,52.16,110.88,69.8,25.1,10.93,50.96,19.59,77.57,25.97,13.59,3.26,27.3,5.92,41.18,7.74,12.08,1.59,24.19,2.44,36.34,3.22,10.89.7,21.72.11,32.49-.63,21.03-1.44,41.62-5.51,61.11-13.92,19.19-8.28,35.81-20.01,48.03-37.26,9.23-13.03,14.7-27.46,16.45-43.44,2.25-20.58-2.43-39.77-10.81-58.27-7.9-17.45-18.8-33.04-30.74-47.93-10.88-13.57-22.61-26.36-35.27-38.3-12.16-11.47-25.08-22.03-38.38-32.14-17.54-13.34-36.04-25.27-54.48-37.3-1.51-.98-2.94-2.09-4.41-3.14.27-.31.53-.62.8-.93Z"/>
  <path class="cls-1" d="M212.23,112.82c-.93-4.05-2-8.08-2.75-12.16-.81-4.42-.4-8.68,2.96-12.14.31-.32.84-.44,1.16-.59,2.03,6.54,4.05,13,6.03,19.47,1.36,4.44,3.91,8.15,7.24,11.24,5.26,4.88,10.7,9.56,16.09,14.29,8.4,7.38,16.54,15.1,25.3,22.02,15.64,12.36,32.47,22.85,51.44,29.46,9.34,3.25,19.01,5.02,28.88,5.39,7.17.27,14.36.04,21.54.14,20.55.28,39.86,5.58,58.08,14.83,10.83,5.5,20.05,13.14,27.84,22.52,2.87,3.46,6.09,6.65,9.34,9.76,1.66,1.59,3.71,2.81,5.66,4.08,1.79,1.16,3.53.92,4.92-.73,1.6-1.9,3.1-3.87,4.96-6.21-7.43-5.71-14.65-11.25-22.04-16.92.93-1.76,2.2-1.28,3.26-.49,4.14,3.08,8.26,6.2,12.3,9.42,2.34,1.86,4.5,3.94,7.01,6.16,5.96-8.92,11.83-17.61,20.59-24.77-11.01-1-20.94-3.34-30.82-5.98-12.87-3.44-24.33-9.96-35.77-16.5-26.15-14.95-50.35-32.66-73.79-51.51-14.43-11.6-28.87-23.27-44.78-32.81-14.05-8.43-28.88-15.18-44.84-19.27-8.26-2.12-16.53-2.02-24.74-.28-9.73,2.07-19.37,4.57-29.05,6.87-.44.1-.9.12-2.37.31,1.24-1.17,1.72-1.95,2.4-2.22,8.8-3.52,17.78-6.53,27.09-8.41,4.55-.92,9.18-1.61,13.81-1.96,6.54-.49,12.97.73,19.23,2.5,21.85,6.19,42.17,15.61,60.46,29.17,15.95,11.82,31.66,23.97,47.7,35.66,21.59,15.73,43.87,30.4,67.61,42.76,11.19,5.83,23.12,9.41,35.37,11.97,6.18,1.29,12.45,2.16,18.69,3.09,1.92.29,3.71.64,4.52,2.57.93,2.22-.3,3.83-1.88,5.24-.87.78-1.66,1.66-2.59,2.36-9.22,6.99-15.81,16.17-21.81,25.88-1.49,2.4-3.13,4.75-4.98,6.88-4.12,4.77-8.77,5.56-14.3,2.52-6.24-3.42-11.24-8.38-15.85-13.67-10.56-12.11-23.45-20.64-38.59-25.92-9.78-3.41-19.73-6.2-30-7.45-5.61-.68-11.33-.45-17.01-.62-8.67-.25-17.37-.1-26-.82-12.05-1.01-23.52-4.53-34.5-9.59-19.86-9.16-37.62-21.48-53.87-36.05-7.83-7.02-15.83-13.84-23.61-20.92-4.18-3.81-8.06-7.96-12.49-12.37,2.47,7.23,1.8,14.48,2.48,21.62.42,4.45.35,8.99,2.43,13.14.72,1.44,1.19,3.03,2.03,4.39,1.12,1.81,1.69,3.53.52,5.56-2.47-2.33-4.77-4.66-7.26-6.76-1.16-.98-2.24-2.61-4.32-1.71-.34.15-1.14-.47-1.57-.89-5.88-5.69-11.88-11.27-17.5-17.2-2.12-2.23-3.79-5.13-4.89-8.02-2.99-7.84-.6-14.19,6.88-19.33-.48-1.69-1.06-3.42-1.44-5.19-.28-1.29-.44-2.65-.36-3.95.04-.66.72-1.29,1.12-1.93.57.66,1.29,1.24,1.67,1.99.28.54.01,1.34.18,1.97.63,2.35,1.34,4.68,2.02,7.02,1.91,5.48,3.46,11.12,5.85,16.38,2.39,5.26,5.64,10.14,8.51,15.18-4.76-3.81-8.33-8.43-11.01-14.09-.34,1.28-.59,2.22-1.01,3.77-1.7-3.5-2.23-6.63-1.91-9.93.3-3.07-.47-5.78-2.45-8.41-3.15,1.54-4.69,3.84-5.11,7.04-.7,5.26.44,9.97,4.22,13.8,4.21,4.27,8.66,8.31,12.84,12.6,2.61,2.68,5.64,4.52,9.11,5.75.34.34.69.68,1.03,1.01.06.13.1.26.18.37.05.06.16.07.24.11-.18-.12-.36-.24-.55-.36-.33-.35-.66-.7-.99-1.04-2.85-5.26-3.33-10.92-3.19-16.79.09-3.62-.45-7.26-.78-10.89-.46-5.01-2.8-9.08-6.25-12.64-2.59-2.66-5.4-3.71-8.85-1.73.08-1.95,1.07-2.93,3.04-3.12,3.11-.31,5.77.56,8.09,2.65,1.29,1.17,2.69,2.22,4.04,3.32.04.33.06.66.11.99.03.16.11.31.17.47.1-.23.34-.51.27-.67-.12-.27-.43-.47-.66-.7Z"/>
  <path class="cls-1" d="M184.75,150.59c-1.06-.63-2.13-1.25-3.18-1.89-4.26-2.61-8.54-5.21-12.77-7.86-1.72-1.08-3.03-.96-4.24.8-2.17,3.16-4.84,6.04-6.63,9.39-6.85,12.78-14.08,25.38-19.15,39.04-.74,2-1.25,4.08-2.02,6.62,4.78,0,9.07.11,13.35-.03,3.83-.13,7.64-.57,11.46-.84,2.99-.21,5.99-.45,8.98-.53,15.1-.41,29.14,2.3,40.79,13.02,10.32,9.5,21.24,18.34,31.4,27.99,16.94,16.07,35.95,29.32,55.85,41.27,19.6,11.78,40.21,21.68,61.53,29.97,10.4,4.05,21.29,6.64,32.34,8.4,2.46.39,4.99.34,7.59.49,1.31-2.64.64-5.34.62-7.92-.04-5.1,1.06-9.92,2.97-14.58,1.36-3.32,3.4-6.14,6.68-7.83.85-.44,1.88-.82,2.79-.76.59.04,1.45.86,1.57,1.47.12.55-.53,1.81-.93,1.85-3.02.29-4.22,2.76-5.38,4.8-4.03,7.08-5.32,14.91-5.85,23.3,5.78.78,11.3.9,16.7.21,7.8-.99,15.2-3.64,22.25-7.13,5.03-2.49,5.3-3.48,1.45-7.51-3.8-3.97-7.79-7.8-12-11.33-10.23-8.57-20.62-16.96-30.99-25.38-11.9-9.66-25.29-16.7-39.47-22.35-19.22-7.65-39.08-13.32-58.89-19.14-17.12-5.03-34.17-10.22-50.1-18.44-16.65-8.59-32.34-18.74-46.97-30.41-4.77-3.8-8.7-8.72-12.72-13.38-2.75-3.19-4.09-7.15-4.89-11.34-.47-2.47.43-4.31,1.95-6.29,0,1.71-.14,3.43.03,5.13.52,5.21,3.2,9.42,6.52,13.23,4.63,5.31,9.87,9.93,15.72,13.89,13.55,9.17,27.33,17.93,42.12,24.99,15.4,7.35,31.72,12.02,48.11,16.56,21.33,5.91,42.72,11.63,63.37,19.8,15.33,6.06,29.54,13.97,42.33,24.36,10.88,8.84,21.74,17.71,32.4,26.81,3.78,3.23,7.23,6.96,10.33,10.86,4.66,5.84,3.36,10.24-2.47,13.69-7.52,4.45-15.71,7.24-24.28,8.87-9.11,1.73-18.23.94-27.4.25-15.13-1.14-29.55-5.18-43.53-10.58-11.49-4.43-22.46-10.2-33.69-15.3-20.48-9.31-39.03-21.75-56.98-35.13-6.54-4.88-12.64-10.35-18.74-15.79-11.46-10.23-22.9-20.49-34.1-30.99-9.39-8.8-20.37-13.1-33.14-12.79-11.51.27-23,.79-34.51,1.16-2,.06-4.02.07-6.01-.12-3.46-.33-5.27-2.15-4.89-5.62.36-3.27,1.15-6.58,2.29-9.68,5.32-14.44,12.47-28.03,20.12-41.33,2.23-3.87,5.2-7.36,8.16-10.74,2.45-2.81,6.03-3.41,9.06-1.54,6.44,3.97,10.92,9.91,15.67,15.56-.21.27-.41.54-.62.81Z"/>
  <path class="cls-1" d="M196.55,302.49c-17.52-.15-29.49-4.82-40.4-13.49-10.54-8.38-18.13-18.51-22.53-31.11-1.82-5.19-3.55-10.45-1.73-16.07.1-.31.13-.67.09-.99-1.57-13.2,17.05-29.37,31.01-29.02,4.93.12,9.48,1.49,14.21,2.3,12.12,2.07,23.14,6.82,32.08,15.16,9.37,8.74,15.99,19.25,15.14,32.9-.14,2.3-.64,4.6-1.11,6.87-.89,4.22-2.03,8.39-2.81,12.63-.72,3.93-2.44,7.29-5.25,10.01-2.87,2.78-5.85,5.47-9.03,7.88-3.74,2.82-5.45,3.01-9.67,2.94ZM214.31,282.29c-.33.66-.67,1.32-1,1.97-.85.77-1.73,1.51-2.54,2.32-3.38,3.39-7.42,5.66-12.03,6.83-10.58,2.68-20.65.91-29.88-4.51-15.19-8.91-23.89-22.55-26.67-39.77-2.01-12.45,4.19-22.53,15.31-25.96,6.97-2.15,14.02-2.47,21.16-.55,12.74,3.43,22.74,10.89,31.06,20.84,3.5,4.19,5.35,9.18,6.22,14.52.22,1.35.61,2.95-1.33,3.92-1-6.13-3.64-11.26-7.74-15.6-5.68-6.01-12.37-10.66-19.8-14.24-1.43-.69-2.94-1.21-4.65-1.9-1.04,7.49-1.06,14.69-3.26,21.56-1.04-3.77-1.06-7.55-.52-11.3.43-2.98.46-5.86.24-8.88-.14-1.92-.43-2.71-2.06-2.96-6.7-1.02-13.3-1.03-19.54,2.17-4.47,2.3-7.35,5.96-7.94,10.88-1.18,9.96,2.58,18.5,7.68,26.1,4.31-1.8,8.11-3.42,11.95-4.95.9-.36,1.99-.66,2.89-.47.82.17,1.49,1.04,2.22,1.59-.55.51-1.01,1.26-1.65,1.5-2.8,1.03-5.68,1.87-8.5,2.84-1.68.58-3.63.71-4.93,2.89,2.25,2.33,4.4,4.89,6.88,7.06,6.32,5.52,13.75,8.71,22.08,9.75,2.48.31,3-.28,2.34-2.74-1.08-4.01-2.41-7.95-3.42-11.97-.72-2.88-1.18-5.84-1.57-8.79-.08-.6.63-1.3.98-1.96.44.58,1.13,1.11,1.29,1.76.38,1.58.34,3.27.78,4.84,1.74,6.21,3.6,12.38,5.49,18.8,1.34-.35,2.77-.65,4.16-1.08,6.75-2.12,11.34-6.53,12.69-13.49.68-3.51.17-7.26.09-10.9-.03-1.54-.32-3.07-.49-4.6,3.83,4.39,5.14,9.59,6.44,15.02.8-3.15,1.74-6.02,2.24-8.95,1.84-10.82-3.44-19.35-9.22-27.67-.25-.35-.97-.81-1.17-.69-1.96,1.16-2.64-.7-3.72-1.52-2.39-1.81-4.61-3.87-7.12-5.49-3.07-1.97-6.23-3.98-9.62-5.26-3.22-1.21-6.75-1.69-10.19-2.16-3.93-.54-7.93-1.13-11.87-.99-7.89.27-15.05,2.66-20.47,8.85-2.74,3.13-5.44,6.3-8.27,9.35-3,3.24-3.84,7.07-2.81,11.15,3.38,13.37,9.17,25.33,20.4,34.05,7.02,5.45,14.17,10.44,23.12,12.37,5.11,1.11,10.23,1.19,15.37,1.6,5.01.4,9.2-1.08,12.72-4.58,2.01-2,4.04-3.99,5.93-6.1.6-.68.77-1.74,1.14-2.62l1-1.99c.12-.06.26-.11.36-.2.06-.05.08-.16.12-.24-.12.18-.25.36-.37.55Z"/>
  <path class="cls-1" d="M450.69,323.18c2.68-3.98,6.19-5.27,9.58-6.41,7.29-2.45,14.16-5.77,21-9.21,12.71-6.39,24.46-14.19,35.29-23.42,1.37-1.17,2.9-2.37,4.57-2.93,6-2.02,11.69,1.58,12.83,7.92.18.98.29,2,.22,2.99-.42,6.81-.26,13.73-1.49,20.4-2.13,11.53-9.86,18.22-21.06,20.75-5,1.13-10.18,1.72-15.31,2.01-6.63.38-13.31.59-19.93.18-7.61-.47-14.34-3-17.71-10.81-.27-.63-1.51-.98-2.36-1.2-.78-.2-1.66,0-2.49-.03-.81-.03-1.61-.12-3.13-.24ZM487.93,310.35c-1.78.34-3.63.56-4.11,2.81-.96,4.45-4.24,7-7.99,10.21.48-4.01,2.95-6.1,5.13-9.34-6.44,2.9-11.97,5.38-17.83,8.01,5.91,1.41,11.54,2.76,17.17,4.08.64.15,1.33.1,1.99.17,1.88.19,2.55-.57,2.73-2.52.23-2.44,1.05-4.82,1.57-7.23.45-2.09.83-4.19,1.25-6.28.1-.11.21-.22.31-.33-.07.14-.14.28-.22.43ZM485.88,325.84c9.8,2.24,24.76-4,31.01-14.78-3.86-1.66-7.78-3.34-11.68-5.02-2.77.93-5.73,1.91-8.94,2.98,1.68,4.15,3.44,8.47,5.33,13.12-4.74-2.7-5.24-3.46-8.47-12.66-2.42,5.46-4.75,10.72-7.24,16.35ZM525.9,281.97c.28,1.32.32,1.79.48,2.22,3.03,8.27,2.42,16.27-1.79,24-5.08,9.33-12.38,16.31-22.55,20.98,5.28.53,9.72-.77,14.01-2.53,6.39-2.64,10.79-7.43,12.26-14.13,1.52-6.94,2.93-13.95,2.8-21.16-.07-3.79-1.44-6.73-5.2-9.38ZM518.27,309.33c3.98-4.38,5.45-7.85,5.11-12.16-6.23-.08-12.23,1.2-19,2.7,4.18,4.88,9.84,6.01,13.9,9.46ZM522.8,283.26c-4.82,4.38-9.2,8.38-13.55,12.34,3.7-.14,7.3-.36,10.92-.38,4.91-.03,5.42-.52,4.46-5.43-.4-2.07-1.13-4.08-1.82-6.53ZM496.4,304.53c2.05.68,3.49.14,3.98-2.19-1.33.73-2.65,1.46-3.98,2.19ZM473.3,329.94c-.04-.09-.07-.23-.13-.25-.15-.05-.32-.05-.47-.07.05.14.06.37.15.4.12.05.3-.05.46-.08Z"/>
  <path class="cls-1" d="M72.89,338.85c-2.92-1.91-5.51-3.72-8.21-5.35-3.61-2.19-4.42-1.91-6.39,1.13-1.53,2.36-3.27,4.6-5.02,6.81-.77.97-1.91,1.44-3.1.64-1.34-.9-.73-2.21-.21-3.13,1.15-2.01,2.43-3.96,3.89-5.75,1.14-1.39,2.62-2.51,3.65-3.48-2.46-2.77-4.85-5.47-7.57-8.52-2.93,1.86-5.86,3.7-8.76,5.59-.84.54-1.51,1.39-2.4,1.78-.62.27-1.75.26-2.15-.13-.41-.41-.56-1.75-.22-2.13,2.33-2.57,4.77-5.03,7.29-7.42.68-.65,1.73-.92,2.95-1.53-1.05-1.75-1.46-3.72-4.08-3.61-.52.02-1.2-.54-1.59-1.01-3.44-4.07-6.87-8.14-10.17-12.31-.48-.61-.68-2.14-.27-2.58.5-.54,1.94-.78,2.65-.46,1.48.68,2.98,1.62,4.06,2.82,3.54,3.95,6.9,8.07,10.29,12.07.7-1.54,1.52-3.58,2.54-5.51.61-1.16,1.36-2.41,2.39-3.14.98-.7,2.62-1.34,3.57-.97.91.36,1.68,1.98,1.85,3.15.5,3.32-.94,6.19-2.8,8.83-.95,1.35-2.04,2.61-3.34,4.26,2.7,2.15,5.26,4.19,8.07,6.43,1.69-2.08,3.11-4.11,4.85-5.82.81-.8,2.52-1.61,3.31-1.26.92.4,1.9,2.17,1.75,3.18-.41,2.73-1.41,5.37-2.34,8.62,1.77,1.06,3.98,2.37,6.48,3.86,1.14-2.39,1.99-4.5,3.11-6.45,1.56-2.71,3.35-3.59,5.17-2.87,2.01.8,3.44,4,2.46,6.41-.92,2.28-2.34,4.37-3.81,7.03,2.26,1.38,4.61,2.82,7.27,4.45.59-1.14,1.02-2.13,1.59-3.04.7-1.13,1.4-2.3,2.31-3.25,1.85-1.92,4.27-2.38,5.86-1.32,1.63,1.09,1.97,4.07.5,6.37-.97,1.52-2.24,2.85-3.8,4.78,4.13,1.87,7.95,3.61,12.43,5.64-.47-2.12-.76-3.51-1.09-4.89-.15-.65-.4-1.28-.52-1.93-.57-3.09.19-5.21,1.93-5.5,1.66-.28,3.14,1.44,3.72,4.57.37,1.96.54,3.96.78,5.94.42,3.35.49,3.49,3.77,4.25,1.13.26,2.31.28,3.47.41q3.56.42,3.05-3.2c-.07-.49-.15-1.03-.01-1.47.13-.42.5-.93.87-1.06.39-.13,1.2.02,1.33.28.9,1.84,1.67,3.73,2.73,6.17,3.07,1.5,7.02-1.72,11.71.17-3.33,1.31-5.93,1.92-8.69,2.1-3.51.23-7,.61-8.88,4.29-.22.42-.64.86-1.07,1.02-.72.27-1.52.32-2.28.46-.11-.75-.46-1.57-.27-2.23.26-.91.94-1.69,1.68-2.94-2.62-.54-4.95-1.16-7.32-1.42-.78-.09-1.89.57-2.46,1.22-1.65,1.87-2.96,4.06-4.7,5.83-.78.79-2.34,1.29-3.41,1.1-.61-.11-1.18-1.81-1.34-2.86-.45-2.87.75-5.19,3.51-7.47-4.15-1.79-7.83-3.46-11.6-4.91-.34-.13-1.43,1.01-1.8,1.75-1.4,2.82-2.41,5.85-4.01,8.54-1.85,3.1-4.36,4.27-5.45,3-1.84-2.14-.26-4.15.77-5.94,1.49-2.59,3.31-4.99,4.98-7.47.91-1.34.88-2.39-.73-3.25-2.93-1.55-5.79-3.22-8.92-4.97-1.32,3.32-2.38,6.42-3.79,9.36-.85,1.77-2.16,3.34-3.43,4.86-.91,1.09-2.39,1.71-3.54.74-.7-.59-1.06-2.09-.91-3.08.6-4.03,2.47-7.57,4.92-10.79.8-1.06,1.7-2.04,2.91-3.47ZM94.06,340.43c-.32.67-.65,1.33-.97,2-.16.03-.33.03-.46.11-.08.05-.08.22-.12.33.16-.19.31-.38.47-.56.33-.66.66-1.32.99-1.98.13-.24.25-.48.38-.72-.09.27-.19.54-.28.82ZM71.99,343.43c-2.38,2.35-3.56,5.22-4.12,9.55,2.62-3.48,4.16-6.22,4.01-9.66.15-.04.32-.04.44-.12.07-.05.07-.21.1-.33-.14.19-.29.37-.43.56ZM77.64,336.53q3.42-4.33,2.69-7.99c-2.01,2.27-2.62,4.76-2.69,7.99ZM102.91,361.16c1.24-1.72,2.49-3.43,4.17-5.76-3.43.83-4.16,2.9-4.17,5.76ZM65.78,323.91c-.33-.17-.65-.34-.98-.51-.46,1.22-.92,2.45-1.35,3.68,0,.02.29.23.39.2,1.63-.6,1.87-1.94,1.95-3.36Z"/>
  <path class="cls-1" d="M537.95,417.61c.38-1.79.89-3.04,3.31-2.45,4.13,1.01,7.85,2.74,11.18,5.33.78.61,1.54,1.34,2.08,2.15,1.57,2.37.38,4.76-2.46,4.95-.99.07-2.06.06-2.97-.24-5.24-1.76-10.28-3.92-14.44-7.74-.84-.77-1.68-1.78-2.71-2.1-5.05-1.54-10.17-2.89-15.56-4.39,0,3.65-.01,6.77,0,9.88,0,.98.35,2.02.13,2.94-.66,2.75-3.58,3.57-5.29,1.34-1.16-1.51-1.93-3.49-2.28-5.38-.33-1.75.04-3.65.28-5.46.19-1.41,1.36-3.32.82-4.05-.85-1.13-2.73-1.65-4.27-2.06-4.11-1.08-8.27-1.96-12.79-3.01.81,3.22,1.61,5.72,2.03,8.28.35,2.11.73,4.61-1.87,5.66-2.46.99-4.04-.82-5.54-2.43-3.19-3.43-3.39-7.42-2.11-12.13-4.02-1.77-8.31-1.34-12.54-.94-1.18.11-1.99.9-1.69,2.51.26,1.4.31,3.01-.16,4.31-.3.84-1.67,1.65-2.65,1.77-.71.08-1.89-.82-2.27-1.59-.66-1.31-.95-2.83-1.22-4.29-.56-3.03-.52-3.22-3.67-2.94-2.62.23-5.2.97-7.8,1.47-.73.14-1.48.19-3.01.38,2-2.65,4.12-3.38,6.37-3.86,2.11-.44,4.57-.3,6.25-1.37,1.67-1.07,2.5-3.41,3.84-5.07,1.36-1.69,2.81-3.33,4.4-4.79.78-.72,2.06-1.49,2.97-1.34,1.55.26,2.46,1.64,2.56,3.31.07,1.16.1,2.35-.04,3.5-.13,1.13-.49,2.24-.83,3.69,2.49,1.38,5.18.9,7.74.88.58,0,1.19-.97,1.73-1.54,3.23-3.38,6.39-6.82,9.69-10.13,1.04-1.04,2.32-1.94,3.66-2.52.72-.31,2.15-.13,2.63.41.65.73,1.18,2.13.93,3-.86,2.97-2.98,5.17-5.31,7.12-1.65,1.38-3.33,2.71-5.4,4.39,5.35,1.14,10.12,2.31,14.96,3.1,1.3.21,2.85-.56,4.16-1.16,6.72-3.06,13.63-5.35,21.09-5.53,1-.02,2.13-.21,2.97.17,1.11.5,2.43,1.32,2.85,2.33.28.68-.61,2.18-1.37,2.89-.94.86-2.23,1.46-3.47,1.86-3.64,1.16-7.32,2.17-10.87,3.19,5.23,2.49,10.61,5.05,16,7.61,3.5,2.28,7.76,4.03,10.53,4.31-4.78-3.38-6.61-4.11-10.61-4.22ZM517.95,405.48c4.42-.69,8.84-1.38,13.27-2.07-.06-.32-.12-.64-.18-.96-4.36.89-9.02.36-12.99,3.14l-2.64.19c.05.2.11.4.16.61.79-.3,1.59-.61,2.38-.91ZM466.22,401.27c6.25.43,7.98-1.65,6.64-7.21-2.18,2.37-4.14,4.5-6.64,7.21Z"/>
  <path class="cls-1" d="M89.1,161.48c2.88-2.36,5.53-4.57,8.23-6.71.9-.72,1.88-1.44,2.94-1.85,2.39-.91,4.02.17,3.98,2.7-.03,1.65-.32,3.31-.7,4.92-.75,3.23-1.77,6.41-2.43,9.66-.54,2.65-1.82,4.2-4.95,4.12,3.15,4.64,6.13,9.03,9.09,13.39,2.34-3.19,4.55-6.24,6.82-9.24.6-.79,1.38-1.44,2.12-2.12,1.3-1.19,2.81-2.07,4.48-.92,1.63,1.13,1.39,2.75.82,4.49-1.89,5.84-3.12,11.97-5.67,17.49-1.58,3.42-.03,5.44.81,8.6,1.15-1.48,1.81-2.66,2.78-3.47.66-.55,1.89-.99,2.63-.75,1.32.43,2.26,1.71,1.81,3.16-.58,1.88-1.15,4-2.41,5.39-3.41,3.74-2.78,7.81-1.67,12.02.54,2.04,1.33,4.02,2.19,6.59-4.24-2.56-5.93-6.23-6.81-10.21-.44-2-1.34-2.79-3.14-3.19-1.61-.36-3.22-.81-4.75-1.43-1.78-.72-3.22-1.92-3.08-4.08.11-1.76,1.96-3.03,4.45-3.2,1.15-.08,2.32-.01,3.48-.01-.78-5.82-.85-5.68-5.99-8.1-3.45-1.63-6.72-3.67-9.98-5.67-1.1-.67-2.17-1.66-2.81-2.76-1.51-2.6-.1-5.14,2.91-5.3,1.62-.08,3.26.29,4.81.45-3.26-7.29-4.5-8.62-10.93-12.87-3.04-2.01-5.92-4.31-8.73-6.63-.99-.81-1.83-2.01-2.3-3.2-1.02-2.57.31-4.23,3.13-4.03,1.44.1,2.85.5,4.65.83-2.45-3.58-4.77-6.8-6.89-10.15-1.41-2.24-2.76-4.6-3.66-7.07-.43-1.19-.23-3.28.56-4.07,1.25-1.24,3.14-.67,4.54.48,4.11,3.39,7.12,7.42,7.56,12.99.2,2.49.57,4.96.99,7.42.13.75.68,1.44,1.12,2.31ZM84.93,166.01c-.03-.15-.03-.33-.11-.45-.05-.08-.21-.09-.32-.13.18.16.36.32.54.47,1.66,1.67,3.32,3.34,4.97,5.01l.61.35c-.24-.08-.47-.16-.71-.24-.05-3.28-2.22-4.43-4.99-5.01ZM77.93,141.92c-.21-.15-.42-.29-.62-.44.23.12.47.24.7.37,1.08,3.85,2.55,6.47,5.68,10.09.26-4.97-1.44-7.93-5.76-10.02ZM111.42,192.28c1.3-4.74,3.63-8.53,4.07-13.06-1.52,1.16-2.76,2.49-3.94,3.88-.64.76-1.22,1.57-1.76,2.41q-1.89,2.98,1.63,6.77ZM96.77,167.74c.98-3.3,1.88-6.37,3.12-10.56-3.41,2.47-5.9,4.27-8.48,6.14,1.8,1.49,3.44,2.84,5.36,4.42ZM95.77,189.48c3.32,3.06,6.51,6.28,10.87,8.68-1.52-6.07-5.37-8.43-10.87-8.68ZM115.95,209.24c2.1-1.46,2.82-2.93,3.16-5.36-2.17,1.28-3.05,2.57-3.16,5.36ZM107.41,210.99c1.41.94,1.87,1.33,2.39,1.56.53.23,1.13.31,1.69.46-.21-.92-.62-1.41-1.15-1.63-.56-.23-1.22-.19-2.94-.4Z"/>
  <path class="cls-1" d="M527.51,251.86c1.82,2.58,3.4,4.66,4.79,6.86,1.09,1.72.21,3.23-1.01,4.48-1.28,1.31-2.78.94-4.12.08-1.26-.8-2.46-1.7-3.59-2.67-1.52-1.3-3.11-2.57-4.37-4.1-2.92-3.53-6.21-5.44-10.87-3.46-.87.37-1.94.24-3.59.41.98,1.03,1.6,1.62,2.15,2.27.96,1.13,2.12,2.18,2.76,3.48.88,1.78-.52,3.51-2.47,3.04-1.4-.33-2.73-1.15-3.97-1.95-8.23-5.28-5.26-5.09-15.51-2.18-1.43.41-2.85.88-4.9,1.52,1.63.66,2.74,1.12,3.87,1.56,1.55.6,3.13,1.12,4.65,1.79,1.37.6,3.07,1.35,2.32,3.21-.73,1.8-2.65,1.24-3.98.87-1.57-.43-3.12-1.22-4.44-2.18-4.13-3.01-8.46-3.01-12.92-1.1-2.59,1.11-5.05,2.53-7.6,3.75-.94.45-1.97.72-3.44.37.46-.54.83-1.26,1.41-1.6,3.01-1.76,6.06-3.49,9.15-5.11,1.43-.75,3.14-1.13,2.15-3.4-.13-.3.28-1.22.53-1.26,2.91-.45,2.98-3.32,4.39-5.02.53-.64,1.06-1.3,1.68-1.84,2.55-2.22,4.21-1.97,6.1.9.27.41.35.93.59,1.37.23.43.55.82.67.98.57,0,.75.05.89,0,1.94-.84,4.38-1.25,5.68-2.68,1.33-1.47,1.37-4.05,2.31-5.97,1.09-2.22,2.42-4.36,3.9-6.34,1.16-1.54,2.87-2.35,4.87-1.49,1.62.7,2.74,2.95,2.12,5.15-.8,2.83-2.04,5.53-3.17,8.48,5.21-.38,10.24-.76,14.26-5.31,2.59-2.92,6.23-4.92,9.46-7.25.79-.57,1.79-1.07,2.73-1.13.87-.06,2.15.24,2.58.86.44.62.44,2.15-.04,2.69-1.64,1.87-3.52,3.54-5.42,5.16-1.12.95-2.46,1.65-3.71,2.47,3.65.77,7.14,1.53,10.65,2.2.54.1,1.23-.12,1.75-.38,3.17-1.61,8.67-1,11.5,1.32,1.79,1.47,1.52,3.59-.81,4.07-2.22.45-4.64.35-6.9.04-1.95-.27-3.77-1.32-5.71-1.76-2.37-.53-4.81-.77-7.37-1.16ZM524.94,244.05c.33-.34.66-.67.98-1.01.17-.2.35-.39.52-.59-.13.23-.27.47-.4.7-.33.34-.66.67-.99,1.01-.14.05-.29.09-.41.17-.07.05-.11.16-.16.24.15-.17.31-.35.46-.52ZM519.91,253.22c-.21-.15-.43-.29-.64-.44.25.11.5.22.76.32.62.38,1.24.75,1.86,1.13,1.73,2.48,4.05,4.2,6.79,5.37-1.27-3.01-3.41-4.94-6.61-5.57l-2.15-.82ZM504.46,239.42c-3.98,3.2-5.57,6.41-6.09,12.16,3.05-1.33,3.12-1.29,4.64-4.37,1.19-2.41,2.76-4.81,1.45-7.79ZM483.13,252.39c-1.44,1.14-2.62,2.31-2.05,4.4q4.17-.9,2.05-4.4ZM541.56,250.45c-.67-.07-1.14-.14-1.62-.15-.14,0-.29.16-.43.24.43.14.85.32,1.28.38.18.02.39-.23.77-.47Z"/>
  <path class="cls-1" d="M245.72,29.56c1.51-2.08-.37-5.01,2.4-6.67,2.59,3.66-1.24,7.72.89,11.58,1.21-1.49,2.25-2.98,3.5-4.27,1.02-1.07,2.19-2.08,3.47-2.79.71-.39,2.38-.43,2.59-.06.48.86.71,2.23.34,3.1-.62,1.46-1.78,2.7-2.79,4.13,2.53,1.04,4.83,1.83,6.97,2.92,1.46.74,1.77,2.29.33,3.21-1.62,1.03-1.41,1.99-1.13,3.62.92,5.31-.16,10.28-3.5,14.62-4.28,5.56-10.22,7.38-16.86,6.67-6.42-.68-12.12-3.32-17-7.7-9.01-8.09-8.27-21.13,4.16-27.54,5.37-2.77,11.02-3.33,16.63-.82ZM245.41,35.36c-.7-3.05-2.62-3.71-4.94-3.65-5.81.14-10.8,2.23-14.33,6.91-2.65,3.51-3.6,7.08-.44,12.01,3.16,4.93,8.08,7.33,13.46,8.88,1.88.54,3.96.92,5.87.69,7.91-.94,12.35-6.29,12.21-14.36-.07-4.08-.95-4.82-5.48-4.62,1,1.75,2.13,3.43,2.92,5.25.32.72.22,2.04-.26,2.61-.88,1.04-2.21.89-2.96-.3-1.62-2.57-5.72-2.81-6.09-6.64-.05-.54-1.58-1.07-2.51-1.37-1.42-.46-2.91-.66-4.36-1.05-2.51-.67-3.46-1.6-3.07-3.1.56-2.13,2.31-2.17,4.01-2,1.15.12,2.26.55,3.4.72.76.11,1.55.02,2.57.02Z"/>
  <path class="cls-1" d="M407.49,350.75c-5.51-1.6-10.05-3.89-13.3-8.23-1.91-2.55-1.97-3.03-.78-6.64,2.89,2.48,5.79,5.02,8.76,7.48.89.73,1.94,1.3,2.98,1.81,3.39,1.68,3.18,1.52,5.12-1.89,1.1-1.93,2.83-3.77,4.72-4.93,6.11-3.78,12.61-3.76,19.08-.88,3.04,1.35,5.85,3.21,8.91,4.49,4.89,2.04,9.86,3.92,14.88,5.59,2,.67,4.24.61,6.37.88.98.12,2.11-.05,2.9.4.72.41,1.38,1.44,1.49,2.27.07.55-.8,1.31-1.39,1.83-.33.3-.92.38-1.4.42-10.55.78-19.3,5.65-27.43,11.98-1.57,1.22-3.29,2.26-4.95,3.36-2.97,1.97-6.28,2.28-9.61,1.5-4.58-1.06-8.84-2.97-12.51-5.99-4.26-3.51-6.22-7.75-3.86-13.46ZM423.32,349.65q8.63,4.94,10.55,8.74c-.54-.13-1.06-.13-1.46-.36-3.61-2.02-7.32-3.92-10.77-6.2-2.31-1.53-4.66-1.56-7.16-1.33-3.48.32-4.68,2.1-3.44,5.39.46,1.21,1.26,2.36,2.12,3.35,6.36,7.22,15.01,8.18,22.61,2.43,4.67-3.53,9.48-6.79,14.88-9.11.97-.42,1.91-.92,3.25-1.57-1.33-.48-2.14-.69-2.88-1.05-5.38-2.62-10.83-5.13-16.1-7.96-4.6-2.47-9.41-3.41-14.47-2.53-2.05.36-4.1,1.37-5.88,2.51-1.7,1.09-3.39,2.55-3.14,5.17.71-.13,1.23-.39,1.66-.27,3.47.91,6.42-.42,9.45-1.85,1.28-.6,2.91-.47,4.39-.6.41-.03.85.21,1.71.45-1.35.81-2.36,1.41-4.08,2.44,5.71-.03,10.31.79,13.95,4.43-4.8-.92-9.42-2.83-15.19-2.07Z"/>
  <path class="cls-1" d="M204.22,37.56c1.94-.34,3.88-.81,5.83-.97,1.63-.13,2.96.6,3.3,2.38.34,1.75-.55,2.86-2.12,3.49-1.34.54-2.7,1.05-3.73,1.45,1.45,3.89,3.18,7.34,4.01,10.99,1.94,8.65-4.75,16.72-13.61,16.99-8.12.25-13.88-4.02-18.75-9.81-5.07-6.04-7.05-13.1-6.08-20.95,1.17-9.46,11.95-15.37,20.34-11.14,3.06,1.54,4.57,3.46,6.39,8.28,2.73-3.16,2.94-7.87,7.27-10.47-.16,1.31-.14,2.16-.38,2.92-.74,2.33-1.57,4.63-2.37,6.94-.13.04-.28.05-.39.12-.07.04-.09.17-.13.25.14-.16.28-.32.42-.47ZM195.18,36.7c-.33-.35-.66-.69-1-1.04-.34-.53-.54-1.28-1.03-1.56-5.12-3.04-11.83-.9-14.38,4.55-1.63,3.48-1.71,6.98-.56,10.68,2.53,8.19,7.47,14.07,15.73,16.77,4.28,1.4,7.84-.06,10.5-3.64,3.39-4.55,2.95-9.32,1.12-14.22-.46-1.23-.25-3.11-2.41-3.06.23,1.21.42,2.43.68,3.63.76,3.44,2.26,6.84.43,11.17-1.75-4.15-2.21-8.19-4.84-11.29-1.74,1.03-3.26,2.05-4.88,2.84-.44.22-1.56-.04-1.75-.4-.32-.61-.46-1.74-.1-2.18,1.02-1.27,2.32-2.3,3.61-3.51-1.52-2.57-2.81-5.1-6.34-4.91-.62.03-1.29-.29-1.88-.58-1.5-.75-2.34-1.94-1.83-3.66.46-1.54,1.76-1.99,3.18-1.78,1.62.24,3.21.7,4.82,1.06l1.04,1.01c.09.1.18.19.28.29-.13-.06-.27-.11-.4-.17Z"/>
  <path class="cls-1" d="M404.47,117.36c-2.8-.52-5.25-.93-7.69-1.44-.96-.2-2.11-.39-2.74-1.01-.72-.71-1.44-2-1.27-2.88.16-.87,1.38-2.12,2.21-2.18,3.15-.24,6.4-.48,9.48.04,4.71.8,9.55,1.53,13.69,4.68,3.48-3.39,7.18-6.29,12.78-6.36-1.25,3.58-5.07,3.59-6.89,6.26,1.71.1,3.15.17,4.59.26,8.5.54,15.55,9.36,12.18,17.79-1.1,2.76-2.41,5.55-4.2,7.9-4.84,6.36-11.65,8.26-19.16,5.5-6.72-2.47-11.75-6.94-14.56-13.61-1.84-4.37-1.8-8.76.79-12.93.18-.28.4-.55.52-.85.12-.29.15-.62.26-1.17ZM413.43,117.85c-2.41.51-4.7-.89-6.31,1.5-1.93,2.87-2.93,5.85-1.97,9.4,1.83,6.75,8.72,12.69,16.18,13.92,3.23.53,6.5-.17,8.73-2.69,2.06-2.33,4.01-4.95,5.22-7.78,1.9-4.44.19-9.32-3.79-11.83-1.88-1.18-4.11-1.82-6.19-2.7-.31.42-.62.84-.93,1.25.59.23,1.3.32,1.74.72,1.1.97,2.48,1.91,3.02,3.17.91,2.11-2.16,1.56-2.51,3.02-.08.32-.18.67-.37.92-1.52,2.03-2.3,2.14-3.88.42-.78-.85-1.39-1.86-2.09-2.81-.96,1.13-1.78,2.37-2.87,3.31-1.47,1.28-3.45,1.18-5.06-.03-1.51-1.14-1.96-2.65-1.25-4.42.66-1.65,1.4-3.27,2.32-5.41Z"/>
  <path class="cls-1" d="M160.55,329.66c-8.96-.1-17.07-.08-25.17-.29-11.78-.31-23.81-9.48-26.45-20.78-.65-2.76-1.89-5.21-3.44-7.65-4.19-6.61-6.82-13.7-4.69-21.75.16-.6.14-1.41-.15-1.92-.86-1.49,0-2.33,1.12-2.71,1.33-.46,2.77-1.5,4.24-.38,1.68,1.28,1.1,3,.64,4.57-.65,2.23-1.3,4.49-2.27,6.58-1.22,2.62-1.1,5.08.09,7.6.5,1.05.74,2.63,1.56,3.05,2.69,1.37,2.83,4.89,5.26,6.1,2.31,1.14,4.95,1.72,7.52,2.19,6.03,1.12,12.2,1.62,18.11,3.16,4.1,1.07,8.06,3.11,11.72,5.32,3.78,2.29,6.67,5.72,6.92,10.43.13,2.39.8,4.01,3.04,4.94.55.23.97.76,1.96,1.56ZM114.04,311.3c-.25-.14-.5-.29-.75-.43.26.14.52.27.77.41.15.62.13,1.36.47,1.86,6.28,9.11,15.22,12.45,25.94,11.82,3.75-.22,7.5-.45,11.19-.66-2.36-7.29-7.1-10.07-13.32-12.65-7.55-3.13-15.66-3.9-24.3-5.39,8.02,7.29,16.77,11.4,26.58,13.44,2.38.49,2.38.53,4.75-.93,1.15,4.04.79,4.69-2.73,4.65-1.15-.01-2.33-.17-3.46-.44-7.83-1.92-15.15-4.99-21.73-9.72-1.06-.76-2.27-1.3-3.41-1.94ZM103.31,278.77c.13,0,.26,0,.39,0v-2.17c-.13,0-.26,0-.39,0v2.17Z"/>
  <path class="cls-1" d="M238.29,307.29c-2.74-1.71-5.49-3.42-8.24-5.12-.57-.35-1.32-.52-1.71-.99-.47-.57-1.09-1.6-.87-2.03.39-.75,1.41-1.7,2.1-1.66,1.25.09,2.6.64,3.65,1.37,2.31,1.61,4.46,3.44,6.83,5.3,2.51-3.73,5.63-6.78,10.21-8.12,2.48-.73,4.89-1.15,7.31-.14,4.12,1.71,8.3,3.35,12.27,5.38,6.22,3.17,12.23,6.73,18.43,9.95,2.96,1.54,6.1,2.49,9.62,1.59,1.33-.34,2.98.09,4.35.56.7.24,1.63,1.44,1.51,2.01-.15.74-1.18,1.72-1.95,1.84-1.79.28-3.72.42-5.47.06-6.25-1.29-12.15.24-18.03,1.93-3.02.87-5.93,2.14-8.92,3.14-3.77,1.25-7.52,2.68-11.38,3.53-5.76,1.27-11.35.19-16.22-3.09-5.9-3.97-6.06-7.65-5.03-13.92.1-.64,1.09-1.13,1.67-1.68-.1,1.49-.23,2.99-.3,4.48-.18,3.52,1.51,6.12,4.29,7.98,4.75,3.19,10.01,4.5,15.67,3.29,2.74-.59,5.41-1.56,8.08-2.45,5.82-1.93,11.62-3.9,17.42-5.87.49-.17.92-.47,1.35-.69-6.26-3.7-12.22-7.36-18.31-10.76-2.88-1.61-5.98-2.84-9.06-4.04-5.64-2.2-10.05.11-13.81,4.18-.72.78-1.62,2.45-1.3,2.9.67.94,2.03,1.58,3.23,1.88.84.21,1.96-.19,2.81-.61,1.33-.67,2.53-1.6,3.81-2.38.18-.11.51.01.79.03-.2.94-.38,1.83-.58,2.77,14.37.17,14.53.21,17.79,4.26-4.68-.77-8.86-2.75-13.9-1.25,2.85,1.76,4.83,3.81,5.26,7.01-1.77-.93-3.13-2.29-4.65-3.42-2.11-1.57-4.17-3.3-7.17-2.86-4.61.68-8.5-.77-11.55-4.34Z"/>
  <path class="cls-1" d="M178.25,109.77c.56,2.18,2.52,1.68,4,2.22.74.27,1.2,1.34,1.78,2.05-.79.38-1.65,1.16-2.37,1.06-2.41-.33-4.44.26-6.7,1.17-3.11,1.25-6.49.97-9.73-.33-5.8-2.32-10.14-6.39-13.5-11.46-4.43-6.67-8.07-13.71-9.84-21.66-.51-2.31-2.22-4.36-3.7-7.11,1.46.3,2.57.31,3.47.74,7.35,3.55,14.91,6.46,22.92,8.22,5.7,1.25,10.44,4.25,14.04,8.92,1.97,2.56,3.3,5.37,3.62,8.61.35,3.47-.51,6.29-4.09,7.66-.34-.34-.68-.68-1.03-1.03,2.91-2.79,2.55-5.95.9-9.15-2.69-5.23-7.16-8.27-12.72-9.75-6.73-1.79-13.49-3.44-20.23-5.15-.04-.13-.06-.28-.13-.4-.05-.07-.18-.08-.27-.11.17.14.34.28.51.41,2.57,7.98,6.72,15.03,12.35,21.26,3.6,3.99,8.08,6.23,13.18,7.47.79.19,1.66.35,2.44.21.5-.09,1.08-.69,1.3-1.2.19-.45.13-1.33-.19-1.62-4-3.71-8.06-7.35-12.1-11.01-.08-.13-.14-.27-.24-.37-.06-.06-.17-.05-.27-.07.21.11.41.22.62.32-.65.22-1.57.82-1.9.58-1.59-1.14-3.11-2.42-4.47-3.83-.44-.45-.63-1.61-.36-2.14.3-.58,1.41-1.27,1.93-1.12,1.88.54,3.94,1.06,5.41,2.24,3.33,2.66,6.37,5.68,9.49,8.59,1.65,1.54,3.24,3.16,4.86,4.74.35.34.69.68,1.04,1.02Z"/>
  <path class="cls-1" d="M352.68,81.3c1.85.45,3.2.61,4.4,1.12.84.35,1.87,1.08,2.06,1.83.13.51-.97,1.44-1.65,2.03-.44.39-1.11.52-1.64.75,3.82,3.25,7.53,6.32,11.12,9.53,1.09.98,2.02,2.24,2.71,3.54,1.22,2.29.1,4.61-2.44,4.65-2.08.03-4.33-.42-6.21-1.27-4.05-1.84-6.86-5.27-9.55-8.67-2.58-3.26-4.88-6.75-7.18-10.21-.51-.77-.74-1.86-.75-2.8,0-2.14-.79-3.86-2.31-5.51-.71,1.02-1.37,1.98-2.2,3.18-.44-3.36-.42-6.41-1.31-9.18-.85-2.64-2.71-4.95-3.99-7.48-.59-1.17-1.1-2.48-1.18-3.75-.04-.76.68-2.01,1.33-2.23.71-.24,2.12.2,2.55.82,1.22,1.76,2.13,3.74,3.1,5.66,2.08,4.13,4.13,8.29,6.36,12.78,4.41-3.55,8.88-5.72,13.77-6.88,1.91-.45,3.96-.65,5.9-.5,1.95.15,2.71,2.21,1.46,3.75-.81,1-1.95,1.8-3.08,2.47-3.58,2.1-7.23,4.1-11.28,6.37ZM365.66,100.7c.04.12.06.25.12.36.04.07.15.09.22.13-.15-.13-.3-.26-.45-.39-3.57-5.15-10.1-10.32-15.13-11.57,3.95,3.56,7.29,6.75,10.85,9.68,1.17.96,2.91,1.21,4.39,1.79Z"/>
  <path class="cls-1" d="M101.18,129.44c1.95-2.05,3.84-4.15,5.86-6.11,1.31-1.27,2.76-2.42,4.28-3.44,2.18-1.47,3.75-1.44,4.94-.16,1.18,1.25,1.08,2.63-.64,4.94-1.69,2.27-3.58,4.4-5.31,6.65-1.1,1.43-2.06,2.97-3.04,4.41,3.01,3.39,6.72,3.97,10.78,4.31,2.9.24,5.73,1.57,8.54,2.56,1.46.52,2.69,1.51,2.42,3.34-.27,1.86-1.9,2.23-3.33,2.54-1.28.28-2.67.41-3.97.25-5.41-.67-10.81-1.47-16.24-2.62,2.09-1.64,4.55-.94,6.83-1.07,2.31-.14,4.63-.03,7-.78-5.04-.66-10.08-1.38-15.13-1.94-.69-.08-1.48.59-2.21.93-3.68,1.7-5.22.67-5.13-3.45.02-.83-.04-1.74.26-2.47,1.52-3.67-.62-6.37-2.33-9.18-.77-1.27-1.57-.63-2.29.13-1.41-2.19-3.1-4.27-4.1-6.63-.42-.99,1.19-2.08,2.44-1.69,1.39.43,2.86,1.11,3.87,2.11,2.22,2.21,4.18,4.7,6.51,7.38Z"/>
  <path class="cls-1" d="M279.36,120.21c4.18,4.87,8.13,9.39,11.96,14,1.7,2.05,3.14,4.31,4.7,6.47,1.45,2,2.37,4.25,1.02,6.5-1.45,2.41-4.12,2.13-6.36,1.66-4.87-1.03-9.7-2.32-14.5-3.65-3.81-1.05-7.55-2.32-11.32-3.49.06-.34.13-.68.19-1.02,8.62.99,17.24,1.97,26.95,3.08-3.75-4.77-6.85-8.84-10.08-12.8-2.21-2.72-4.6-5.29-6.88-7.95-.65-.76-1.21-1.6-1.76-2.43-.87-1.32-1.34-2.74-.48-4.22,1.02-1.77,2.75-1.76,4.43-1.44,3.22.61,6.42,1.36,10.42,2.23-2.13-5.03-5.03-8.61-7.34-12.5-.25-.41-.69-.71-1.04-1.06-.8-.82-1.17-1.9-.11-2.5.47-.26,1.82.39,2.35.99,1.42,1.63,2.66,3.43,3.9,5.2,2,2.87,4.05,5.72,5.86,8.72.61,1.01,1.15,2.92.65,3.54-.78.96-2.49,1.62-3.8,1.6-2.77-.03-5.54-.57-8.74-.95Z"/>
  <path class="cls-1" d="M532.06,372.39c-.26-.71-.91-1.56-.71-2.09,1.54-4.09,4.23-7.36,8.5-8.52,3.98-1.08,8.09-1.62,12.34-.89,7.84,1.35,15.74,2.38,23.62,3.56,2.66.4,5.25.18,7.88-.28,1.4-.25,2.97-.09,4.34.32.75.22,1.72,1.34,1.7,2.03-.02.65-1.13,1.6-1.92,1.8-1.26.32-2.65.24-3.97.13-2.59-.22-4.89.5-7.17,1.68-4.28,2.21-8.63,4.31-12.98,6.38-5.62,2.67-10.66,6.04-14.89,10.7-6.15,6.78-16.45.99-17.58-4.82-.15-.78-.02-1.61-.02-3.59,2.76,4.93,6.3,7.16,10.8,7.38,2.69.13,4.66-1.53,6.08-3.77l-.1.11c4.19-3.85,9.06-6.63,14.17-9.06,3.77-1.79,7.51-3.63,11.94-5.77-9.32-2.37-17.87-4-26.7-4.38-7.36-.32-12.48,2.48-15.48,9.18l.14-.11Z"/>
  <path class="cls-1" d="M359.98,345.19c4.11-3.99,9.11-5.37,14.11-6.62,1.56-.39,3.34-.27,4.93.05.66.13,1.37,1.35,1.53,2.18.09.44-.84,1.41-1.47,1.61-1.58.49-3.28.56-4.88,1-1.84.5-3.63,1.2-5.46,1.82,4.49,2.69,8.59,5.07,12.6,7.59,1.25.79,2.39,1.83,3.38,2.94,1.18,1.32.62,3.05-1.06,3.47-.79.2-1.69.27-2.47.1-5.67-1.19-11.36-2.38-16.72-5.78,3.26-2.61,6.47.39,10.09-.5-2-1.41-3.54-2.5-5.7-2.7-1.92-.18-3.82-.62-6.02-1-.13.34-.28,1.36-.82,2.07-1.16,1.51-2.63,1.39-3.51-.36-3.13-6.24-6.15-12.54-9.19-18.83-.28-.59-.63-1.27-.57-1.86.06-.55.54-1.28,1.03-1.49.44-.19,1.36.05,1.66.42.71.9,1.21,1.98,1.75,3.01,2.18,4.12,4.34,8.24,6.78,12.89Z"/>
  <path class="cls-1" d="M369.12,291.93c-1.15-2.23-2.26-4.28-3.27-6.38-.5-1.05-.97-2.15-1.19-3.28-1.25-6.6.82-10.45,8.11-10.28,7.44.17,14.44,2.2,21.33,4.68,1.28.46,3.21,1.2,2.36,3.14-.85,1.93-2.43,1.03-3.84.36-6.28-3.02-12.99-4-19.86-3.91-3.98.05-4.66,1.16-3.12,5.05.98,2.46,2.45,4.71,3.59,7.11,1.1,2.31,3.46,4.56,1.38,7.31-2.07,2.73-5.21,2.83-8.23,2.22-6.83-1.39-13.63-2.95-20.43-4.48-1.37-.31-2.72-.75-4.01-1.63,9.05-1.12,18.04,1.47,27.16.09Z"/>
  <path class="cls-1" d="M308.03,152.03c1.75,2.64,3.14,4.5,4.26,6.5,1.38,2.47,2.9,5.12.92,7.91-2,2.81-4.89,3.74-9.03,3.18,1.77-1.41,3.08-2.38,4.29-3.45,2.09-1.84,2.27-2.42.95-5.2-1.13-2.4-2.62-4.63-3.81-7.01-.77-1.54-1.85-2.22-3.55-2.21-.74,0-1.49-.29-2.26-.86,2.75-.98,5.46-1.71,8.34-2.05,3.27-.39,6.55-1.06,9.72-1.96,3.66-1.04,3.69-1.36,2.57-4.83-.46-1.42-.98-2.83-1.39-4.27-1.18-4.15-.33-6.28,3.26-8.36.43-.25.9-.43,1.34-.67,4.48-2.37,4.76-3.31,1.35-6.88-1.69-1.77-3.89-3.06-5.78-4.66-.52-.44-.74-1.23-1.09-1.86.61-.19,1.35-.71,1.8-.52,4.56,1.96,8.34,4.92,10.38,9.55.84,1.91.39,3.97-1.31,5.48-.74.66-1.54,1.28-2.37,1.83-3.78,2.51-3.83,2.62-2.37,6.74.55,1.57,1.13,3.13,1.58,4.73,1,3.6-.19,6.37-3.54,7.64-1.83.69-3.86,1.03-5.82,1.18-2.47.2-4.97.05-8.44.05Z"/>
  <path class="cls-1" d="M26.12,163.11c-1-3.74-1.67-6.77-2.62-9.71-1.53-4.74-3.25-9.41-4.88-14.11-.27-.77-.74-1.62-.6-2.33.13-.68.82-1.44,1.47-1.78.38-.2,1.39.17,1.7.6.77,1.06,1.47,2.23,1.9,3.46,1.99,5.62,3.88,11.29,5.82,16.93.37,1.08.78,2.16,1.15,3.16,1.74-2.14,3.23-4.33,5.09-6.15,1.13-1.1,2.75-1.91,4.29-2.28.83-.2,2.21.57,2.82,1.33.35.43-.13,1.89-.65,2.56-.8,1.03-1.82,2.06-2.98,2.61-3.41,1.61-4.65,4.58-5.4,7.92-.22.97-.17,2.02-.5,2.94-.73,2.04-3.43,2.49-4.21.51-1.84-4.65-5.97-4.06-9.54-4.76-2.44-.47-4.92-.68-7.39-1.02-.49-.07-1.11-.05-1.43-.34-.8-.71-1.45-1.58-2.17-2.39.86-.69,1.62-1.67,2.6-1.99,1.04-.34,2.37-.3,3.43.03,2.99.93,5.92,2.08,8.85,3.19.86.33,1.66.82,3.24,1.62Z"/>
  <path class="cls-1" d="M578.01,309.3c2.39,0,4.06-.14,5.69.04,1.46.16,2.98.45,4.29,1.06,2.52,1.19,3.55,3.57,2.76,5.69-1.07,2.85-3.33,4.14-6.21,3.49-1.27-.29-2.52-.66-4.2-1.11,1.08,3.96,1.04,7.66-.4,11.26-1.15,2.88-2.34,3.82-4.66,3.66-2.29-.16-4.03-1.82-4.13-4.8-.09-2.94.38-5.92.77-8.86.23-1.73.76-3.42,1.28-5.65-1.47.55-2.32.87-3.17,1.19-.12-.29-.38-.66-.3-.78,4.12-5.63,8.21-11.27,12.45-16.81.82-1.06,2-2.98,3.55-1.9,2.01,1.4.13,2.93-.74,4.17-2.11,2.97-4.35,5.85-6.98,9.36ZM574.41,317.44c-.39,2.16-.97,3.94-.95,5.71.02,2.11.43,4.24.92,6.3.24,1.02,1.82,1.05,2.41.18,2.41-3.56,1.54-8.74-2.38-12.19ZM575.79,313.57c2.8.83,4.7,1.39,6.6,1.94,1.11.32,2.24.88,3.33.83.8-.04,2.04-.77,2.21-1.42.16-.62-.65-2.06-1.29-2.24-3.35-.95-6.74-1.16-10.85.88Z"/>
  <path class="cls-1" d="M349.67,164.98c-1.4-1.92-2.6-3.51-3.74-5.14-3.46-4.99-2.26-7.89,3.65-9.08,2.26-.45,4.5-1.04,6.71-1.7.73-.21,1.34-.82,2.05-1.27-1.44-3.32-4.85-3.57-7.34-5.52,3.24-1.1,5.69.29,7.93,1.86,3.58,2.51,3.42,5.62-.34,7.86-1.41.84-3.01,1.37-4.56,1.95-1.39.52-2.82.9-4.7,1.49,1.51,2.03,2.91,3.8,4.2,5.65,2.81,4.02,2.68,6.01-.45,9.8-2.31,2.8-5.22,4.49-8.79,5.25-3.76.8-7.48,1.23-12.25.16,6.01-4.32,13.33-5.24,17.64-11.32Z"/>
  <path class="cls-1" d="M195.77,355.45c3.43,1.96,6.07,3.39,8.61,4.95,1.13.69,2.2,1.55,3.09,2.52,1.68,1.85.89,3.86-1.61,4.36-5.02,1-12.31-2.44-15.81-8.08,4.66,2.77,8.76,4.62,14.16,4.73-1.67-1.08-2.73-2.03-3.97-2.52-3.83-1.52-6.98-4.42-11.21-5.2-1.01-.19-2.31-1.71-2.5-2.79-.37-2.08-.2-4.31.11-6.43.1-.66,1.36-1.16,2.08-1.73.49.77,1.31,1.51,1.41,2.33.22,1.77.07,3.59.07,6.27,3.09-1.87,5.4-3.41,7.84-4.71,2.78-1.47,5.62-2.89,8.56-3.99,1.07-.4,2.69-.18,3.74.37,2.12,1.11,2.24,3.57.27,4.89-1.35.9-2.99,1.42-4.55,1.93-3.12,1.02-6.29,1.91-10.27,3.1Z"/>
  <path class="cls-1" d="M548.09,382.42c-1.98.13-2.07-1.9-3.16-2.78-1.64-1.33-3.17-3.46-4.99-3.75-2.51-.4-5.32-.47-7.89,1.12-3.08,1.91-6.35,3.75-9.79,4.79-2.74.82-5.87.57-8.8.42-1.51-.08-3.09-1.35-2.83-2.95.26-1.63,1.43-3.13,2.32-4.62.14-.23.98-.25,1.38-.09,2.26.94,4.48,1.97,6.71,2.96h-7.69c3.31,2.74,5.39.41,7.6-.11,4.23-.51,7.81-2.45,11.11-5.02l-.14.11c4.48-.85,8.78-2.77,13.59-1.55,1.81.46,3.93-.41,5.89-.35,1.39.04,2.76.63,4.14.98-2.24.73-4.38.82-6.49,1.07-.98.12,1.37,1.94-.71,1.73-1.14-.11-2.27-.4-3.41-.56-.76-.11-1.54-.12-3.06-.22,3.78,2.41,5.39,5.4,6.13,8.93l.1-.11Z"/>
  <path class="cls-1" d="M325.85,284.24c-.31-11.89,3.88-16.79,15.65-18.7,0-1.55-.02-3.16,0-4.77.04-2.68,1.58-4.59,3.89-5.29,2.31-.7,4.89-.87,7.31-.72,2.96.19,5.89.92,8.82,1.5.36.07.61.66.91,1.01-.45.36-.9,1.03-1.35,1.03-3.67.01-7.34-.23-11-.13-4.24.11-4.97,1.21-3.97,5.28.2.8.49,1.6.56,2.41.22,2.33-.47,3.51-2.65,4.16-1.74.53-3.55.99-5.35,1.12-4.07.3-6.78,2.46-8.73,5.84-1.24,2.15-2.45,4.33-4.1,7.25Z"/>
  <path class="cls-1" d="M460.17,283.3c-10.27-.37-18.71-4.36-25.09-12.6-.4-.52-.7-1.14-.93-1.75-.68-1.78-1.02-3.62.62-5.05,1.49-1.29,3.16-.77,4.63.13,1.83,1.12,3.76,2.18,5.32,3.62,2.93,2.7,5.63,5.65,8.42,8.5,2.28,2.33,4.57,4.65,7.03,7.15ZM438.74,268.24c-.03-.16-.03-.34-.11-.46-.05-.08-.22-.07-.34-.11.18.16.36.32.54.48,2.13,4.18,5.73,6.52,10.02,8,.23.15.45.3.68.45-.26-.12-.52-.24-.77-.36-2.58-3.61-5.61-6.68-10.02-8Z"/>
  <path class="cls-1" d="M257.93,339.45c1.62-.49,2.62-.56,3.34-1.04,7.65-5.09,16.38-6.81,25.22-8.14,1.36-.21,3.3-.79,3.85,1.16.61,2.17-1.38,2.74-2.87,3.35-3.83,1.57-7.7,3.03-11.53,4.59-1.68.68-3.51,1.25-4.91,2.33-3.3,2.53-6.42,2.17-9.65.07-.95-.62-1.89-1.27-3.44-2.32ZM268.47,338.44c-1.7-.27-3.19,0-3.91,2.1,1.27-.74,2.53-1.47,3.8-2.21.16-.21.31-.43.47-.64-.12.25-.23.5-.35.75Z"/>
  <path class="cls-1" d="M302.46,272.99c-4.48-6.46-3.75-10.94,2.75-14.67,1.84-1.05,2.04-2.35,2.19-4.04.39-4.25,1.98-7.8,6.3-9.36,4.64-1.67,9.2-1.26,13.39,1.34.74.46.89,1.88,1.31,2.85-.87.34-1.82,1.08-2.61.94-2.03-.37.47-1.13.04-1.41-2.84-1.82-6.02-1.93-9.13-1.15-3.02.76-4.74,3-5.12,6.12-.14,1.15-.05,2.33-.1,3.5-.09,2.36-1.03,4.26-3.31,5.14-4.69,1.81-6.21,5.21-5.32,9.97.04.23-.26.52-.41.78Z"/>
  <path class="cls-1" d="M234.53,120.83c2.71-1.89,5.46-3.71,8.12-5.67,4.01-2.97,8.05-5.91,11.9-9.08,4.94-4.07,8.96-8.92,11.6-14.83.2-.46.29-1.06.63-1.33.44-.35,1.3-.77,1.59-.57.42.29.81,1.17.68,1.66-1.16,4.21-2.9,8.12-5.79,11.48-3.96,4.6-8.62,8.37-13.77,11.47-4.65,2.8-9.5,5.29-14.26,7.91-.23-.34-.46-.69-.69-1.03Z"/>
  <path class="cls-1" d="M467.88,293.3c-.37.33-.69.75-1.11.97-.35.18-.85.2-1.24.11-.16-.04-.32-.55-.29-.83.03-.31.25-.62.44-.89,4.19-6.03,8.53-11.93,13.98-16.91,1.09-1,2.31-2.35,3.9-1.21,1.81,1.3.44,2.81-.36,3.9-3.84,5.24-7.76,10.42-11.77,15.53-1.33,1.7-1.64,1.53-3.66-.78.16-.21.31-.43.47-.64-.12.25-.24.5-.36.76Z"/>
  <path class="cls-1" d="M242.55,100.87c-2.75.04-4.45-1.08-5.45-3.4-.97-2.24.16-3.88,1.52-5.34,2.01-2.15,4.72-3.14,7.56-3.23,3.86-.13,5.63,3.22,4.02,6.74-1.54,3.38-3.97,5.14-7.65,5.23Z"/>
  <path class="cls-1" d="M269.85,248.71c-1.12-3.45-.15-6.07,2.55-8.28.8-.66,1.64-1.64,1.85-2.6,1.25-5.82,3.88-8.5,9.65-8.53,2.89-.02,5.82.92,8.66,1.71,1.04.29,2.04,1.37.92,2.71-.9,1.08-1.37.7-2.6-.12-3.31-2.19-7.02-1.28-10.44.21-1.7.74-2.22,2.41-1.96,4.21.48,3.3-.72,5.17-4.02,6.35-1.77.63-3.02,2.76-4.62,4.34Z"/>
  <path class="cls-1" d="M370.5,182.41c1.71-.86,3.43-1.69,5.12-2.58,1.15-.6,2.95-1.05,3.27-1.98,1.2-3.52,3.96-5.59,6.68-7.71-3.12-3.32-4.13-3.81-9.19-4.58.07-.26.08-.71.23-.76,3.45-1.19,9.95.81,11.54,3.6,1.02,1.79.81,3.63-.72,5.01-2.15,1.94-3.63,4.18-4.56,6.96-.35,1.06-1.68,2.31-2.74,2.5-3.04.56-6.16.63-9.25.89-.12-.45-.24-.91-.37-1.36Z"/>
  <path class="cls-1" d="M196.11,185.09c-2.44-1.92-4.93-3.78-7.32-5.76-5.9-4.87-11.76-9.8-17.64-14.7-.26-.21-.62-.4-.72-.68-.23-.69-.7-1.72-.41-2.08.4-.49,1.64-.91,2.12-.64,2.01,1.14,3.98,2.42,5.75,3.9,2.68,2.24,5.3,4.58,7.73,7.08,3.82,3.95,7.45,8.07,11.16,12.12-.22.25-.44.5-.67.75Z"/>
  <path class="cls-1" d="M189.56,192.97c-4.05-1.29-8.06-2.69-12.14-3.85-6.36-1.81-12.78-3.43-19.14-5.25-.73-.21-1.24-1.21-1.84-1.85.66-.39,1.29-1.08,1.97-1.12,1.65-.11,3.38-.2,4.96.18,9.39,2.25,18.05,6.31,26.52,10.8l-.32,1.09Z"/>
  <path class="cls-1" d="M51.69,220.01c-1.42-.39-2.23-.56-3-.82-2.39-.8-3.86-2.92-3.31-4.71.78-2.51,3.98-4,6.42-2.93.59.26,1.32.57,1.62,1.08.95,1.58,4.37,1.99,3.06,4.35-.87,1.55-3.37,2.2-4.79,3.04ZM49.92,216c.42.13.85.25,1.27.38-.46-.09-.92-.17-1.38-.26.03-.66.07-1.33.1-1.99-.52.23-1.05.47-1.57.7.53.39,1.05.78,1.58,1.16Z"/>
  <path class="cls-1" d="M107.46,78.78c.18.04,1.4-.06,2.04.5,1.03.91,2.09,2.17,2.37,3.45.36,1.67-1.04,2.56-2.6,3.1-1.78.61-3.45.83-5.3.11-1.77-.68-2.79-1.78-2.86-3.62-.06-1.66,1.57-3.23,3.56-3.52.65-.1,1.32-.02,2.79-.02ZM109.05,82.6c-1.54-1.85-2.66-2.16-3.95-1.2-.29.21-.4.65-.73,1.2h4.67Z"/>
  <path class="cls-1" d="M293.91,53.94c.9.85,2.2,1.69,2.97,2.87,1.05,1.61,1.06,3.52-.16,5.13-.95,1.25-2.4,2.17-3.91,1.52-1.45-.62-2.9-1.66-3.87-2.89-1.2-1.52-.45-3.57,1.3-4.65.93-.58,1.88-1.14,2.82-1.69.13-.08.3-.1.86-.28ZM292.56,60.43c.89-1.08,1.42-1.56,1.7-2.15.11-.24-.32-.73-.5-1.11-.67.55-1.39,1.06-1.97,1.7-.11.12.36.77.77,1.56Z"/>
  <path class="cls-1" d="M460.12,209.72c8.71.3,20.07,3.56,24.05,6.88-1.42.16-2.52.58-3.45.35-6.76-1.69-13.42-3.71-20.6-7.23Z"/>
  <path class="cls-1" d="M421.68,304.52c-2.96-.09-4.2-1.37-3.85-3.55.21-1.28.79-2.52,1.33-3.72.17-.38.75-.74,1.18-.81,1.95-.32,6.31,2.25,6.87,4.17.18.61-.2,1.86-.67,2.09-1.76.85-3.67,1.39-4.87,1.82Z"/>
  <path class="cls-1" d="M253.18,272.65c1.76,2.29,3.45,4.3,3.36,7.2-.08,2.72-1.48,3.94-4.12,3.48-2.13-.37-3.67-2.07-4.04-4.43-.36-2.34.21-3.45,2.45-4.77.69-.41,1.36-.85,2.35-1.47ZM252.91,280.83c.23-1.6.57-2.42.4-3.11-.19-.81-.83-1.51-1.28-2.25-.39.85-1.13,1.72-1.07,2.53.06.77.96,1.47,1.95,2.84Z"/>
  <path class="cls-1" d="M522.77,208.59c-1.11,1.42-2.17,2.56-2.94,3.86-.31.53-.26,1.7.13,2.12.81.89,1.82.53,2.49-.4.45-.62.75-1.34,1.29-2.33,1.53,1.43,2.58,2.53,1.44,4.42-1.11,1.85-2.82,2.14-4.74,1.85-1.99-.31-3.3-1.68-3.54-3.58-.4-3.15,1.42-5.1,5.87-5.94Z"/>
  <path class="cls-1" d="M56.39,238.66c3.1-.17,6.17,2.15,6.45,4.5.09.72-.19,1.75-.7,2.19-.47.41-1.58.49-2.2.22-1.51-.65-2.99-1.46-4.31-2.44-.94-.7-3.08-1.01-2.29-2.59.53-1.06,2.35-1.49,3.05-1.88Z"/>
  <path class="cls-1" d="M75.11,260.09c.1,1.79-1.2,3.22-3.35,3.7-1.88.42-4.34-.9-4.65-2.73-.18-1.08-.04-2.34.35-3.37.67-1.78,1.81-1.83,3.89-.89,1.63.74,3.63.89,3.75,3.28ZM72.17,259.98c-1.07-.53-1.86-.93-2.66-1.26-.04-.02-.42.48-.43.75-.05,1.22.68,1.7,1.79,1.55.35-.05.65-.49,1.31-1.03Z"/>
  <path class="cls-1" d="M473.21,148.77c1.94.02,2.83.83,2.87,2.6.04,2.28-2.08,4.3-4.55,4.34-2.02.03-4.54-2.21-4.41-3.94.13-1.83,2.56-3.02,6.1-3ZM470.35,152.6c.74.05.95.13,1.06.06.64-.41,1.27-.85,1.86-1.33.04-.03-.3-.52-.47-.8-.67.5-1.34.99-2,1.5-.13.1-.2.25-.46.58Z"/>
  <path class="cls-1" d="M20.78,214.03c-.09,6.07,1.17,7.16,6.24,4.86-1.47-.51-2.57-.89-4.3-1.49,1.61-.18,2.58-.34,3.55-.39,1.39-.07,3.05.15,3.11,1.68.04,1.01-1.06,2.35-2.01,3.05-2.26,1.66-4.67,1.37-6.78-.46-1.86-1.61-2.35-4.23-1.13-6.72.15-.3.83-.35,1.31-.53Z"/>
  <path class="cls-1" d="M48.81,252.2c-1.89.29-3.93-1.1-5.82,1.09,1,.55,2.11.87,2.74,1.61.53.62.94,1.95.62,2.55-.37.7-1.62,1.36-2.45,1.3-2.86-.19-4.71-4.21-2.89-6.42.85-1.03,2.38-1.74,3.72-2.04,1.6-.36,3.35-.16,4.07,1.91Z"/>
  <path class="cls-1" d="M239.16,275.3c-1.45,1.93-2.42,4.32-5.47,4.16-2.04-.11-3.38-1.13-3.49-2.78-.12-1.87,1.18-2.67,2.63-3.11,2.33-.7,4.52-.45,6.33,1.73Z"/>
  <path class="cls-1" d="M246.19,265.52c.08,1.32-1.23,2.46-3.01,2.64-2.07.21-4.28-1.06-4.31-2.47-.02-.93,2.53-4.48,3.25-4.54,1.25-.1,3.98,2.83,4.07,4.37Z"/>
  <path class="cls-1" d="M280.45,58.21c-.34-.9-.76-1.49-.74-2.07.02-.73.39-2.07.6-2.07.88,0,2.04.15,2.59.73,1.04,1.1.82,4.43-.08,5.67-1.13,1.57-3.93,1.75-5.26.25-.9-1.01-1.73-2.37-.52-3.47.4-.36,1.9.5,3.4.95Z"/>
  <path class="cls-1" d="M419.34,244.2c-2.57-.25-3.87-1.65-3.53-3.8.32-1.97,2.21-3.36,4.38-3.22,1.71.12,3.55,2.66,3.44,4.77-.08,1.64-1.71,2.5-4.3,2.25ZM422.61,240.08c-1.25-.54-1.98-1.15-2.5-1.01-.81.23-1.46.98-2.18,1.51.74.49,1.47,1.34,2.22,1.36.62.02,1.28-.92,2.46-1.87Z"/>
  <path class="cls-1" d="M460.25,151.17c-.04.81-.19,1.57-.09,2.3.47,3.6-.73,4.97-4.09,4.54-1.95-.25-2.92-1.83-1.96-3.6,1.26-2.32,3.11-3.86,6.14-3.24ZM457.03,154.06c-.3.36-.58.71-.87,1.05.3.21.6.41.9.62.22-.37.48-.72.63-1.12.03-.08-.37-.32-.66-.55Z"/>
  <path class="cls-1" d="M120.44,75.66c-1,1.59-1.77,2.45-2.1,3.45-.34,1.04-.92,3.02,1.42,1.12.18-.15,1.61.69,1.84,1.3.19.51-.35,1.75-.87,1.99-.92.41-2.2.66-3.11.35-1.91-.66-2.87-2.63-2.21-4.36.46-1.19,1.26-2.32,2.14-3.24.42-.44,1.4-.33,2.87-.6Z"/>
  <path class="cls-1" d="M247.91,223.78c-1.87-2.2-3.24-4.34-1.47-6.87,1.1-1.57,2.6-2.2,4.31-1.66.68.21,1.19,1.33,1.51,2.14.16.4,0,1.44-1,.59-2.06-1.73-2.61.02-2.95,1.47-.33,1.4-.29,2.88-.4,4.33Z"/>
  <path class="cls-1" d="M409.83,186.05c.66-1.09,1.36-2.16,1.96-3.28,1.5-2.8,1.34-3.3-1.55-4.98-.7-.41-1.43-.75-2.44-1.28,3.97-.34,6.29.46,6.85,2.49,1.07,3.87-1.84,5.59-4.82,7.05Z"/>
  <path class="cls-1" d="M282.94,39.16c1.81,1.47,3.6,2.93,5.63,4.59-2.23.35-3.9.69-5.58.83-.57.05-1.4-.23-1.71-.65-.27-.36-.1-1.2.12-1.73.42-1.05,1.01-2.02,1.54-3.04Z"/>
  <path class="cls-1" d="M108.66,92.35c.33.74.65,1.45,1.17,2.64.7-1.13,1.22-1.98,1.74-2.82,1.41,2.47,1.52,4.09-.05,4.91-.75.39-2.23.13-2.98-.4-1.68-1.17-1.56-1.97.12-4.34Z"/>
  <path class="cls-1" d="M23.77,241.52c-.39-.81-.82-1.39-.7-1.53.54-.67,1.22-1.23,1.85-1.82.26.36.81.91.72,1.06-.45.73-1.07,1.35-1.86,2.29Z"/>
  <path class="cls-1" d="M209.02,262.45c-6.55-1.63-12.48-3-18.34-4.61-1.86-.51-2.9-.53-4.13,1.3-.92,1.36-2.73,2.47-4.35,2.89-1.25.33-2.95-.32-4.21-.99-1.87-.98-2.95-3.59-2.49-5.06.55-1.73,2.34-2.81,4.79-2.89,8.25-.27,16.12,1.52,23.73,4.52,1.93.76,4.23,1.33,5,4.84ZM181.75,254.46c-1.27.89-2.64,1.43-3.31,2.44-.54.8,1.26,2.28,2.59,2.18,1.72-.12,2.62-1.3,2.87-2.79.07-.4-1.16-1.02-2.15-1.84Z"/>
  <path class="cls-1" d="M168.2,246.16c-1.71-2.19-3.51-4.32-5.12-6.59-1.56-2.21-1.51-3.85.23-5.25.79-.63,2.25-1.21,3.05-.89,2.6,1.02,5.09,2.36,7.5,3.78,1.21.72,1.77,2.03.93,3.44-.69,1.15-1.73,1.39-3,.9-1.21-.47-2.47-.81-4.27-1.39.75,1.83,1.41,3.23,1.91,4.68.43,1.26-.5,1.27-1.36,1.23l.13.1Z"/>
  <path class="cls-1" d="M156.07,249.59c4.28-.97,7.69.03,10.98,1.56.87.41,1.74,1.03,2.31,1.78.43.57.58,1.53.45,2.25-.06.36-1,.73-1.58.8-3.89.48-7.78.88-12.13,1.35,1.44-2.92,4.62-2.91,6.91-4.72-2.26-.98-4.36-1.9-6.95-3.02Z"/>
  <path class="cls-1" d="M191,242.78c.44.03,1.15-.07,1.74.15,1.63.61,2.28,2.08,1.15,2.99-1.91,1.53-4.03,2.99-6.31,3.82-1.82.66-4.33-3.2-3.18-4.86,1.11-1.62,2.6-3.03,4.1-4.32.8-.69,1.97-.93,2.98-1.37-.16,1.17-.32,2.35-.49,3.59Z"/>
  <path class="cls-1" d="M168.07,246.07c2.21,1.4,4.42,2.8,6.62,4.2-.05.19-.1.37-.16.56-.81-.11-1.67-.08-2.43-.35-4.84-1.69-9.64-3.47-14.48-5.14-1.22-.42-2.55-.53-3.79-.89-.68-.2-.77,2.07-1.51.37-.22-.51.39-2,.79-2.07,1.57-.27,3.3-.51,4.79-.1,3.49.97,6.88,2.31,10.3,3.5l-.13-.1Z"/>
  <path class="cls-1" d="M207.8,272.66c-4.41-1.86-8.81-3.73-13.22-5.59,5.64-1.23,9.67,1.53,13.22,5.59Z"/>
  <path class="cls-1" d="M203.46,278.96c-4.39-1.71-8-4.43-10.66-8.42,4.58,1.46,7.79,4.71,10.66,8.42Z"/>
  <path class="cls-1" d="M178.3,270.38c-2.39,2.17-4.78,4.35-7.24,6.58.2-3.86,1.88-5.64,7.24-6.58Z"/>
  <path class="cls-1" d="M182.08,282.37c-3.51-4.98-3.74-7.49-1.32-10.67.41,3.3.81,6.55,1.32,10.67Z"/>
</svg>