<?xml version="1.0" encoding="UTF-8"?>
<svg id="Layer_1" data-name="Layer 1" xmlns="http://www.w3.org/2000/svg" version="1.1" viewBox="0 0 344.05 565.54">
  <defs>
    <style>
      .cls-1 {
        fill: #000;
        stroke-width: 0px;
      }
    </style>
  </defs>
  <path class="cls-1" d="M304.61,237.55c4.99,4.42,9.89,8.31,14.24,12.74,5.15,5.26,7.64,11.6,5.12,19.04-1.62,4.78-3.1,9.68-5.33,14.18-2.36,4.74-5.5,9.1-8.38,13.57-5.39,8.39-12.31,14.4-23.44,14.05,2.18,11.13.96,21.44-3.39,31.43-8.95,20.56-33.9,30.89-54.57,22.51-8.35-3.39-13.91-9.75-18.49-17.16-1.09-1.76-1.93-3.67-3.27-6.25-3.52,2.77-6.29,6.07-9.29,9.05-3.11,3.09-5.95,6.45-9.15,9.96,1.18.83,2.78,2,4.41,3.11,1.91,1.31,3.83,2.59,5.77,3.85,10.28,6.68,13.15,16.36,10.68,27.78-2.78,12.86-8.57,24.42-16.87,34.6-5.55,6.81-12.62,11.46-21.36,13.35-10.79,2.34-20.56-.65-29.96-5.58-1.53-.8-2.94-1.85-4.57-2.89,1.5,6.22,3.92,11.92,4.05,17.67.27,11.51-.24,23.1-1.31,34.57-1.17,12.63-10.85,17.63-20.14,18.42-7.34.63-14.71,2.04-22.1.32-.6-.14-1.3.18-1.92.28-.62,4.88-.98,9.66-1.87,14.35-1.15,6.09-4.43,11.13-8.86,15.39-6.94,6.66-14.81,11.96-24.1,14.57-3.9,1.09-8.26,1.37-12.29.94-6.54-.7-10.76-5.11-13.31-10.93-3.72-8.52-5.97-17.46-7.24-26.67-1.26-9.1-.36-17.95,2.79-26.97-1.48-.6-2.92-1.14-4.33-1.76-5.86-2.57-9.69-7.15-11.91-12.94-6.53-17.02-5.33-33.69,3.77-49.39,5.44-9.39,13.41-15.91,25.72-16.18-7.95-10.44-10.35-22.56-13.23-34.51-3.17-13.16-.52-25.2,7.05-36.28.39-.57.75-1.16,1.09-1.76.1-.18.07-.44.15-1.12-2.46-.65-5.07-1.16-7.54-2.04-8.88-3.16-12.65-9.7-9.43-18.51,7.53-20.62,17.01-40.1,36.68-53.27-8.29-4.86-12.69-12.2-15.35-20.73-2.62-8.38-2.26-16.91-.83-25.41,1.87-11.1,5.86-21.38,12.54-30.52,5.82-7.96,13.06-12.97,23.54-11.72,2.19.26,4.51-.42,6.74-.78,5.99-.97,11.36,1.09,16.71,3.3,2.87,1.18,5.75,2.35,9.06,3.71.55-5.01.87-9.12,1.48-13.19,2.01-13.43,7.73-25.18,16.85-35.14,16.01-17.48,37.11-19.36,58.15-8.19,2.44,1.3,4.76,2.87,6.99,4.51,8.15,6.01,14,13.43,14.11,24.51,3.76-.65,7.3-1.13,10.75-1.94,1.21-.28,2.74-1.12,3.25-2.14,7.68-15.23,17.37-29.47,22.38-46.02,5.5-18.17,5.92-36.34.56-54.59-.98-3.33-2.01-6.64-2.87-9.99-.52-2-.94-4.07-1.08-6.13-.87-12.99,8.22-20.92,21.12-18.5,15.35,2.89,22.89,13.63,20.38,29.21-1.14,7.05-2.68,14.03-3.67,21.09-.73,5.24-1.29,10.57-1.16,15.84.19,7.97-.75,15.74-3.23,23.22-6.52,19.68-14.71,38.49-29.83,53.39-.8.79-1.44,1.73-1.88,2.26,2.99,3.29,6.02,6.12,8.42,9.42,2.25,3.1,3.83,6.7,6.07,10.75,3.5-2.63,7.23-4.88,10.29-7.83,9.26-8.92,20.4-13.73,32.98-14.41,13.61-.74,23.56,5.95,29.57,17.97,6.12,12.24,7.55,25.25,3.88,38.48-3.01,10.86-10.26,18.46-20.16,23.57-3.06,1.58-6.24,2.93-9.62,4.49ZM176.1,310.24c-5.43-1.8-9.77.66-13.95,3.56-6.9,4.79-13.09,10.42-17.52,17.57-2.65,4.27-5.03,8.93-6.37,13.74-2.87,10.32,1.97,17.14,12.56,18.81.46.07.91.17,1.37.23,4.12.52,7.62-.22,10.5-3.74,1.68-2.06,4.23-3.44,6.46-5.03,2.61-1.84,5.56-3.28,7.89-5.41,5.11-4.68,9.96-9.65,14.83-14.6,1.61-1.64,3.31-3.37,4.3-5.39.84-1.72,1.61-4.39.85-5.8-3.35-6.24-6.42-12.8-13.74-15.8-9.13-3.74-14.97-10.86-17.92-20.02-1.67-5.2-2.24-10.8-2.91-16.27-.41-3.4-.08-6.88-.08-11.24-10.07,7.66-20.39,13-32.64,14.71,6.99,13.78,13.21,27.54,13.3,43.99,2.15-1.75,3.3-2.91,4.65-3.74,4.5-2.8,8.97-5.69,13.65-8.17,3.51-1.86,7.45-2.51,11.46-1.84,2.18.37,4.04,1.18,3.32,4.44ZM198.84,162.74c6.71-12.94,5.02-20.05-6.94-27.05-5.3-3.1-11.17-5.71-17.12-7.12-10.92-2.59-21.2-.56-29.36,7.83-8.86,9.1-13.73,20.17-14.59,32.82-.69,10.11,4.12,18.05,12.65,21.88,9.16,4.11,20.22,2.32,27.01-4.5,3.53-3.54,5.28-7.97,6.26-12.86.95-4.71,1.89-9.55,3.77-13.93,2.33-5.44,8.26-8.02,13.75-6.97,1.49.28,2.68.93,2.14,2.75-.8,2.72.09,4.87,2.44,7.14ZM199.28,298.68c2.26-.78,6.79-1.83,10.82-3.86,9.97-5.02,16.28-13.46,20.15-23.72,1.95-5.17,3.45-10.5,5.02-15.8,1.1-3.72.92-4.23-2.72-5.81-3.16-1.38-6.45-2.54-9.78-3.41-10.89-2.87-21.84-5.53-32.74-8.36-3.97-1.03-7.21-.13-10.06,2.8-3.52,3.61-5.56,7.88-6.16,12.85-.33,2.75-.85,5.51-.86,8.26-.02,7.87.3,15.76,3.62,23.07,3.95,8.66,10.44,13.9,22.71,14ZM295.76,164.91c-7.05.1-14.08,2.06-20.66,5.72-6.41,3.57-10.6,8.93-12.13,16.03-1.01,4.7-1.64,9.57-1.66,14.37-.05,12.68,11.45,22.7,23.94,20.88,7.79-1.13,15.22-3.69,22.19-7.42,5.38-2.88,8.84-7.35,10.36-13.23,1.77-6.85,1.63-13.78-.36-20.53-3.21-10.88-9.41-16.36-21.68-15.81ZM104.57,494.63c2.73-.38,7.56-.91,12.34-1.76,6.29-1.11,8.17-3.21,8.96-9.62.23-1.83.25-3.7.16-5.55-.37-7.39-.46-14.81-1.32-22.15-1.21-10.32-7.05-17.84-15.64-23.41-2.17-1.41-4.31-1.66-6.47-.2-3.43,2.33-7.23,4.32-10.11,7.21-7.17,7.21-14,14.76-20.77,22.34-4.42,4.94-4.4,5.26-.43,10.55,3.97,5.29,8.34,10.21,12.94,15.03,5.4,5.66,10.92,8.06,20.35,7.55ZM82.58,177.83c-7.94-.68-14.18,3.23-17.73,10.83-2.91,6.24-5.61,12.73-7.24,19.39-2.33,9.54-2.44,19.22,2.23,28.41,3.72,7.31,7.66,9.36,15.73,8.05,4.12-.66,7.43-2.63,9.84-5.92,1.9-2.6,3.41-5.49,5.15-8.22,5.6-8.75,11.22-17.49,16.84-26.23,2-3.11,4.25-6.08,5.98-9.33,1.46-2.74.74-4.36-2.12-5.47-2.13-.83-4.43-1.24-6.68-1.75-5.48-1.25-10.84-2.86-14.47-7.51-1.88-2.41-4.22-2.52-7.53-2.26ZM137.1,216.79c-2.17-4.53-9.3-8.8-13.92-8.67-3.54.1-5.28,2.4-7.06,4.89-6.23,8.7-10.64,18.38-15.15,28.01-2.63,5.6-2.34,9.53,1.86,13.79,6.18,6.26,13.89,9.21,22.61,8.44,8.69-.77,16.48-4.19,23.45-9.54,5.39-4.14,8.64-9.7,10.36-16.03,1.57-5.77,1.65-11.76-3.91-15.76-4.29-3.09-8.9-5.79-13.57-8.27-3.12-1.65-3.28-1.34-4.65,3.14ZM144.37,395.71c3.03-3.45,6.02-6.93,9.1-10.34,1.7-1.88,3.42-3.77,5.38-5.35.59-.48,2.01.06,3.05.14-.17.83-.13,1.8-.56,2.47-3.34,5.25-7.02,10.3-10.1,15.69-3.42,5.99-6.65,12.14-9.33,18.49-1.99,4.72-.67,8.01,3.74,10.55,10.85,6.27,25.86,8.05,36.3-4.8,7.53-9.27,12.51-19.86,14.54-31.75.74-4.33-.53-7.8-3.98-10.36-3.33-2.47-6.92-4.6-10.25-7.07-3.75-2.79-6.92-3.16-11.17-.2-6.91,4.82-14.83,6.11-23.14,3.63-1.39-.41-2.85-.56-4.94-.96,3.24,6.93,2.4,13.2,1.35,19.84ZM273.45,322.7c.14-4.14-1.67-7.57-4.01-11.23-4.36-6.84-9.78-11.86-17.47-14.5-1.48-.51-2.82-1.59-4.06-2.61-1.51-1.26-2.81-.99-4.41-.16-6.69,3.46-12.79,7.67-15.94,14.77-2.7,6.08-4.88,12.4-7.14,18.66-1.43,3.96-.67,7.89,1.57,11.27,2.15,3.25,4.53,6.49,7.41,9.07,5.04,4.52,11.37,6.26,18,5.39,14.6-1.92,26.19-15.69,26.05-30.66ZM114.73,363.71v.28c-1.84,0-3.72-.22-5.53.04-5.03.72-10.16,1.45-14.03,5.17-3.65,3.51-7.24,7.13-10.51,10.99-1.59,1.88-3.09,4.32-3.43,6.68-1.54,10.73-.16,21.17,4.72,30.95,1.58,3.15,3.04,3.52,6.2,2.13,2.74-1.2,5.25-3.12,8.08-3.87,9.04-2.4,16.03-8.07,22.7-14.07,3.18-2.86,5.58-6.71,7.93-10.37,2.59-4.04,2.29-8.14-.41-12.29-2.38-3.66-4.61-7.51-6.17-11.56-1.35-3.49-3.36-4.62-6.79-4.12-.9.13-1.84.02-2.76.02ZM279.85,242.29c-3.24.84-6.34.84-8.35,2.32-8.99,6.64-15.81,14.77-16.22,26.75-.21,6.14.78,8.18,6.57,10.71,8.22,3.59,16.53,6.97,24.79,10.46,3.14,1.33,6.02,1.01,8.02-1.84,4.91-6.95,10.03-13.8,14.32-21.13,3.12-5.32,2.62-6.81-2.11-10.69-5.51-4.53-11.27-8.8-17.24-12.67-2.94-1.91-6.62-2.68-9.79-3.91ZM72.18,489.3c-3.69.34-5.54-2.01-7.72-3.33-6.42-3.89-12.92-4.5-19.79-1.32-2.7,1.25-4.81,3.11-5.3,5.99-.7,4.07-1.44,8.28-1.16,12.36.66,9.79,3.85,18.99,7.99,27.84,2.69,5.76,5.09,6.78,11.03,4.16,4.2-1.85,8.07-4.45,12.06-6.77,11.4-6.62,11.82-17.9,12.12-29.12.04-1.36-1.41-2.78-2.23-4.13-2.88-4.72-5.91-9.35-8.67-14.14-2.14-3.72-3.95-7.63-6.2-12.03-3.16,2.53-5.73,4.59-8.85,7.08,7.46,2.69,12.56,6.97,16.71,13.42ZM196.74,211.92c.14.03.27.06.41.08,0,.69-.02,1.39,0,2.08.36,9.79,6.71,14.71,16.18,12.5,9.54-2.23,15.53-8.74,19.91-16.96,4.16-7.82,6.1-16.41,7.92-24.99,1.01-4.74-.52-8.89-4.74-11.37-3.74-2.2-7.73-4.15-11.84-5.53-6.01-2.01-7.33-1.39-11.18,3.7-6.61,8.76-11.06,18.63-14.34,29.02-1.17,3.7-1.57,7.63-2.32,11.46ZM235.53,152.13c3.16-6.2,5.64-12.21,9.09-17.61,6.25-9.79,11.29-20.14,15.7-30.82,3.98-9.66,6.66-19.63,6.12-30.26-.43-8.4,1.85-16.42,3.56-24.54,1.09-5.16,2.06-10.43,2.27-15.68.34-8.34-6.55-14.29-14.84-13.42-5.02.53-7.6,3.21-7.2,8.24.29,3.66,1.05,7.31,1.96,10.87,5.72,22.18,4.76,44.05-4.41,65.03-4.59,10.51-10.88,20.29-16.53,30.33-2.46,4.37-5.26,8.55-8.18,13.24,4.46,1.65,8.29,3.07,12.45,4.61ZM103.34,278.12c-3.29,9.82-9.55,17.28-15.33,25.07-2.32,3.13-4.54,6.44-6.17,9.96-2.17,4.68-1.3,7.69,2.5,11.15,1.36,1.23,2.87,2.38,4.5,3.21,7.27,3.73,15.08,5.85,23.14,6.78,6.71.77,13.19-3.36,15.18-9.71,1-3.21,1.21-6.8,1.09-10.19-.27-7.57-3.85-14.18-6.63-21.03-3.29-8.13-9.03-13.22-18.27-15.24ZM51.77,395.73c1.29-.85,1.98-1.12,2.42-1.62,11.1-12.64,18.86-27.29,25.09-42.77,1.82-4.52-.08-9.2-4.66-11.79-4.38-2.48-9.1-4.51-13.89-6.08-4.4-1.45-8.68-.55-12.07,3.05-6.34,6.74-9.55,14.89-8.94,23.95.73,10.91,4.64,21.13,9.06,31.08.62,1.4,1.81,2.56,2.99,4.17ZM76.69,262.45c-5.96.08-10.62,1.61-14.15,5.11-4.9,4.86-10.29,9.63-13.71,15.47-5.46,9.32-9.67,19.4-14.04,29.32-2.09,4.76-.25,7.08,4.88,6.66,5.35-.43,10.35-2.19,15.01-4.95,13.99-8.26,23.44-20.69,31.66-34.26.53-.88.96-2.29.63-3.15-1.3-3.38-3.17-6.54-4.34-9.95-1.2-3.51-3.39-4.72-5.95-4.25ZM72.28,419.4c-8.02-1.03-14.82-2.1-21.66-2.72-7.41-.66-13.08,2.75-16.74,8.98-6.86,11.68-7.39,24.04-2.92,36.66,1.2,3.38,2.65,3.99,5.78,1.78,6.21-4.37,12.25-9.01,18.02-13.94,2.93-2.51,5.71-5.58,7.5-8.95,3.56-6.7,6.39-13.78,10.02-21.82ZM169.26,211.73c1.95,4.18,4.04,7.58,5.1,11.27,1.01,3.54.94,7.38,1.3,10.69,5.94-1.93,11.51-3.74,17.32-5.62-3.88-6.21-3.7-13.23-2.44-20.03.99-5.36,3.45-10.45,5.17-15.69.73-2.23,1.22-4.53,1.82-6.8-.42-.21-.84-.43-1.25-.64-4.91,12.96-14.07,21.59-27.02,26.82ZM265.06,238.67c-9.84-5.01-16.5-12.14-20.78-20.97-5.25,5.16-10.3,10.11-15.15,14.88,4.01,1.88,8.3,3.61,12.32,5.84,4.3,2.39,7.31,6.11,8.4,11.27,5.11-3.7,9.57-6.93,15.21-11.02ZM95.99,343.66c-1.13,6.21-2.11,11.66-3.2,17.69,11.14-5.61,22.55-1,33.82-2.03v-14.78c-10.62,5.16-20.81,1.76-30.61-.88ZM70.73,415c-.66-5.48-1.26-10.4-1.89-15.64-3.95,3.31-7.69,6.44-11.76,9.84,4.64,1.97,8.83,3.75,13.65,5.8ZM132.41,411.73c-3.34,2.8-6.65,5.57-10.23,8.56,3.24,2.94,6.16,5.59,8.72,7.9.5-5.44.99-10.78,1.51-16.47ZM69.2,321.5c-2.54,1.95-5.48,2.38-6.71,5.61,4.25,1.2,6.82,5.72,11.85,4.55-1.72-3.39-3.25-6.42-5.14-10.16ZM206.85,310.38c1.35,1.87,2.48,3.43,4.13,5.7,1.76-3.15,3.14-5.61,4.93-8.81-1.72.21-2.39.16-2.94.39-1.9.78-3.76,1.66-6.12,2.71ZM234.36,289.94q7.28-2.18,4.69-7.36c-1.42,2.23-2.75,4.31-4.69,7.36Z"/>
</svg>