<?xml version="1.0" encoding="UTF-8"?>
<svg id="Layer_1" data-name="Layer 1" xmlns="http://www.w3.org/2000/svg" version="1.1" viewBox="0 0 500.7 475.66">
  <defs>
    <style>
      .cls-1 {
        fill: #000;
        stroke-width: 0px;
      }
    </style>
  </defs>
  <path class="cls-1" d="M83.75,359.77c-9.37-4.25-12.61-11.69-12.85-20.94-.34-13.31-.57-26.61,2.69-40.31-1.98-1.09-3.96-2.24-6-3.28-11.67-5.99-22.77-12.87-32.74-21.44-10.23-8.79-18.7-18.96-23.71-31.65-6.85-17.35-4.89-34.02,4.29-49.99,7.76-13.5,18.98-23.67,31.72-32.28,20.5-13.85,43.12-23.02,66.76-29.82,26.79-7.7,54.1-12.58,81.92-14.51,5.45-.38,10.9-.77,16.34-1.19,1.41-.11,2.85-.22,4.22-.55,5.02-1.19,10.01-2.46,15.7-3.87.08-.93.35-2.52.33-4.1-.11-7.72,2.99-13.9,9.11-18.42,3.62-2.67,7.37-5.3,11.42-7.21,13.39-6.32,23.75-3.18,31.84,9.45,2.42-1.41,4.81-2.91,7.28-4.24,10.25-5.51,20.96-8.71,32.8-7.01,5.38.77,9.89,3.15,14.13,6.29,1.69,1.25,3.31,2.59,5.52,4.33,0-2.99-.17-5.28.03-7.54,1.23-14.48,14.73-28.29,29.21-29.94,8.86-1.01,16.39,2.21,22.92,7.83,3.22,2.78,5.92,6.16,8.83,9.29,4.48,4.8,8.94,9.61,13.99,15.04,1.43-2.83,2.41-4.65,3.27-6.52.28-.6.6-1.77.37-1.93-5.13-3.67-.48-6.95.92-9.55,4.09-7.65,5.53-15.58,4.4-24.02-.82-6.1-1.96-12.17-3.14-18.22-2.4-12.27,1.46-16.79,14.12-16.45,6.54.18,12.67,1.91,18.36,5.02,6.66,3.64,8.74,9.13,5.73,16.22-1.75,4.11-4.15,8.06-6.85,11.63-8.88,11.77-18.02,23.33-27.06,34.98-.97,1.24-1.86,2.54-3.31,4.54,5.78-2.05,10.58-3.84,15.44-5.46,8.75-2.92,16.1-.52,21.44,6.77,3.62,4.95,6.73,10.35,9.45,15.86,3.31,6.69,2.54,13.47-1.7,19.6-6.87,9.93-12.94,20.57-24.48,27.46,3.63.62,6.37.84,8.97,1.57,13.04,3.66,22.16,15.15,22.76,28.72.64,14.42-3.46,27.78-10.36,40.17-5.91,10.61-22.2,16.74-34.99,13.97-2.99-.65-5.93-1.55-9.32-2.45-.83,2.08-1.62,3.97-2.35,5.88-4.66,12.21-13.65,19.24-26.35,21.35-12.21,2.03-24.53,2.39-36.67.81-3.31,5.31-6.25,10.75-9.87,15.69-7.18,9.77-16.79,16.19-28.85,18.09-8.41,1.32-16.95,2.09-25.46,2.52-7.22.36-14.11-1.54-20.7-5.75-3.72,9.94-5.82,20.4-14.87,28.13,1.92.19,3.12.36,4.33.41,25.79,1.18,51.21-2.38,76.54-6.41,23.49-3.73,46.51-9.56,68.79-18.02,17.17-6.52,33.61-14.47,48.43-25.47,8.66-6.43,16.39-13.81,22.09-23.04,6.45-10.46,9.73-21.63,6.5-33.97-.54-2.05-1.45-3.99-2.13-6.01-.92-2.71-.02-5.13,2.14-5.92,2.01-.74,4.74.62,5.47,3.29,1.31,4.79,2.66,9.63,3.25,14.54,1.72,14.41-2.84,27.19-10.99,38.86-9.16,13.11-21.32,22.94-34.66,31.41-22.47,14.27-47.06,23.65-72.55,30.81-25.89,7.27-52.23,12.19-79.04,14.57-4.89.44-9.76,1.19-15.51,1.9,1.71,2.6,2.93,4.52,4.23,6.4,1.63,2.34,3.26,4.69,4.99,6.95,5.68,7.4,9.02,15.22,4.24,24.39-5.15,9.88-12.58,16.62-24.31,17.27-1.18.07-2.37.12-3.55.22-.19.02-.36.28-.54.42-.91,5.81-1.16,11.82-2.87,17.39-2.78,9.05-5.93,18.09-9.98,26.62-4.98,10.5-11.05,20.48-16.69,30.67-.51.91-1.36,1.64-2.88,3.43v-6.55c-.49.03-1.03-.09-1.19.11-3.76,4.54-8.62,7.32-14.13,9.26-4.03,1.42-7.97,3.12-11.87,4.87-8.79,3.96-17.85,4.75-27.15,2.45-6.45-1.59-12.89-3.26-19.25-5.17-2.46-.74-4.83-2.04-6.98-3.48-6.22-4.16-7.58-9.41-4.17-15.98,1.85-3.56,4.02-6.94,6.39-10.99-14.59-.83-27.06-4.18-30.5-20.79-7.22,1.39-12.52-2.06-17.76-5.94-6.12-4.53-12.24-8.96-17.01-15.07-7.86-10.07-10.68-21.01-6.85-33.41.2-.65.27-1.34.52-2.6ZM207.87,121.94c-1.36-.09-2.3-.32-3.19-.18-27.23,4.22-54.21,9.58-80.39,18.41-22.14,7.47-43.53,16.54-62.83,29.93-11.62,8.06-22.11,17.34-29.19,29.82-7.77,13.69-8.08,27.63-.1,41.34,8.35,14.35,21.17,23.83,35.9,32.56-.99-3.39-1.89-5.81-2.4-8.31-1.78-8.75,1.55-14.89,9.86-18.13,2.19-.85,4.54-1.36,6.86-1.79,2.8-.52,5.63-1,8.46-1.11,2.75-.11,5.51.26,8.2.42,1.45-3.71,2.78-7.1,4.19-10.72-2.97-.54-5.35-.77-7.62-1.42-5.49-1.58-10.41-4.25-11.48-10.39-.59-3.4-.46-7.24.51-10.54,3.91-13.38,16.04-20.48,29.9-17.97,3.2.58,6.4,1.2,9.76,1.83,3.35-11.54,9.7-21,17.57-29.32,4.02-4.25,8.81-8.07,13.91-10.92,11.29-6.3,21.67-3.37,29.08,7.33,2.22,3.21,4.5,6.37,7.56,10.68.59-19.38,5.44-36.07,15.42-51.53ZM300.28,144.36c3.12-.65,6.91-1.12,10.47-2.27,5.62-1.82,11.12-4.02,16.61-6.23,5.27-2.12,10.5-4.36,15.67-6.72,4.14-1.9,5.92-4.86,4.08-9.77-1.54-4.11-1.74-8.74-2.34-13.17-.44-3.28-.43-6.63-.9-9.9-.18-1.27-.85-2.81-1.82-3.56-6.72-5.21-13.93-8.59-22.92-7.42-9.49,1.24-17.71,5.06-25.27,10.6-10.41,7.63-18.01,17.45-22.1,29.75-3.26,9.81-1.14,13.72,8.86,15.83,6.24,1.31,12.64,1.87,19.65,2.87ZM331.84,145.19c-6.17,2.4-11.52,5.32-17.23,6.53-10.96,2.34-19.01,9.51-27.75,15.46-5.38,3.66-6.95,9.37-4.93,15.83,1.94,6.23,4.94,11.89,9.45,16.58,14.71,15.33,33.64,13.01,46.9,2.35,3.83-3.08,6.34-7.07,6.91-12.06.97-8.49,1.83-17,2.85-25.49.32-2.66-.32-4.68-2.74-5.99-5.72-3.11-10.61-7.13-13.45-13.23ZM291.51,280.1c7.04-1.19,14.55-2.31,21.99-3.75,12.45-2.41,20.45-10.35,26.13-21.23,1.84-3.51,2.1-6.6-.29-9.95-2.62-3.67-5-7.52-7.37-11.36-.7-1.14-1.78-2.98-1.35-3.71,2.14-3.67-.38-4.32-2.83-4.44-3.04-.15-6.33-.29-9.13.68-14.85,5.13-28.97,11.79-41.5,21.45-.9.69-1.8,1.7-2.15,2.74-1.41,4.24-3.24,8.49-3.72,12.87-.79,7.09,3.76,13.11,10.57,14.96,2.95.8,6.05,1.11,9.66,1.74ZM469.47,173.88c-.23-12.67-5.78-20.84-15.9-26.04-1.17-.6-2.71-.89-4.01-.74-11.99,1.43-24.65,14.88-25.95,26.89-.81,7.5-2.31,14.93-3.51,22.39-.3,1.87-.64,3.74-.9,5.61-.52,3.77,1.03,6.63,4.44,8.05,4.35,1.81,8.77,4.05,13.34,4.56,8,.88,15.99-.55,20.76-7.95,6.61-10.25,10.46-21.64,11.72-32.77ZM207.94,165.15c-.15,1.53-.33,3.18-.46,4.84-.63,7.75.89,10.35,8.43,11.09,6.56.64,13.31.52,19.85-.26,6.59-.78,11.54-4.62,15.63-10.15,6.64-8.98,7.29-19.32,8.23-29.71.1-1.13-.06-2.64-.74-3.42-5.2-6-9.59-12.64-18.18-15.03-11.79-3.27-18.71-.99-24.16,9.8-5.19,10.27-8.64,21.05-8.61,32.84ZM207.25,273.11c-.75,10.12,2.66,15.41,7.84,19.64,6.85,5.59,14.51,9.9,22.81,12.96,5.74,2.12,8.99,1.61,12.41-3.47,3.26-4.84,5.6-10.36,7.88-15.78,2.56-6.08,1.83-12.28-1.6-17.79-3.63-5.82-7.69-11.4-11.95-16.79-1.7-2.16-4.23-3.87-6.71-5.17-5.15-2.71-8.24-1.99-12.61,1.96-1.75,1.58-3.64,3.11-5.71,4.2-9.41,4.99-10.67,14.29-12.37,20.24ZM264.31,147.63c2.34,7.37,3.58,14.52,2.28,21.91-1.35,7.71-6.49,13.34-11.76,19.47,6.69,1.7,13.34,1.14,18.49,6.19-9.99-1.69-24.58-1.43-30.84.46-7.31,2.2-11.68,8.84-10.48,16.38.48,3.02,1.63,5.93,2.45,8.9,1.72,6.28,5.91,9.91,11.95,12.1,7.35,2.67,14.89,2.56,22.5,2.57,4.71.01,7.64-2.12,9.1-6.45,1.36-4.04,3.06-8.04,3.82-12.2.78-4.31,1.26-8.52-1.44-12.98-3.23-5.34-6.38-10.92-7.95-17.19-3.11-12.37.72-21.88,11.73-28.41,1.74-1.03,3.46-2.11,6.16-3.75-9.52-1.78-18.23-2.21-26.01-7.01ZM366.15,240.88c6.3-.44,12.01-.65,17.66-1.31,3.98-.47,8.02-1.18,11.81-2.45,10.21-3.44,14.5-13.41,10.35-23.26-.46-1.08-.94-2.22-1.06-3.37-.5-4.82-3.38-8.16-6.54-11.5-2.23-2.36-4.09-3.1-7.35-1.63-5.42,2.43-11.15,3.79-17.23,1.83-1.68-.54-3.74-.14-5.6.08-10.54,1.28-17.58,8-23.42,15.96-4.92,6.69-3.27,14.37,3.4,19.47,5.48,4.19,11.83,5.87,17.98,6.2ZM395.58,118.48c-6.43-.31-12.61,2.08-18.25,5.76-11.44,7.45-14.88,15.5-11.71,27.02,2.39,8.68,4.97,17.3,7.5,25.94,2.08,7.1,6.85,9.43,13.56,6.41,2.13-.96,4.33-2.25,5.87-3.96,5.24-5.81,10.38-11.72,15.19-17.88,2.88-3.69,3.56-8.33,2.77-12.91-1.33-7.71-2.72-15.43-4.58-23.02-1.74-7.09-2.56-7.42-10.34-7.36ZM151.1,426.02c10.8-.34,20.28-5.84,25.9-15.51,4.64-7.98,6.68-16.75,7.24-25.86.48-7.64-.79-9.26-8.28-11.92-1.79-.64-3.62-1.17-5.39-1.86-2.6-1.01-5.13-1.08-7.51.49-3.67,2.43-9.27,2.37-10.47,8.03-5.1.7-5.63,5.22-7.23,8.77-2.05,4.55-3.98,9.15-5.87,13.77-1.25,3.08-2.57,6.16-3.43,9.36-1.68,6.25.19,10.22,6.11,12.6,2.81,1.13,5.94,1.44,8.92,2.13ZM213.09,422.86c-7.68.91-14.98,1.67-22.25,2.66-13.47,1.84-24.67,6.99-29.63,20.94-.32.89-.86,1.7-1.27,2.56-2.57,5.45-2.48,6.11,3.56,7.97,5.88,1.81,12,2.84,17.93,4.51,6.78,1.92,13.15.85,19.44-1.85,5.02-2.15,10.09-4.19,15.11-6.33,1.52-.65,3.08-1.32,4.39-2.3,3.85-2.88,4.52-5.64,2.35-9.89-3.02-5.92-6.2-11.75-9.65-18.26ZM171.69,327.9c.21-6.01-2.21-10.31-6.87-13.58-2.9-2.03-5.69-4.26-8.75-6.03-6.56-3.8-7.94-3.41-13.52,1.97-7.14,6.88-10.32,15.79-12.77,24.97-4.03,15.08.65,22.3,16.02,25.38,9.92,1.99,17.49-1.8,20.76-11.43,2.33-6.89,3.47-14.18,5.14-21.29ZM420.22,93.07c4.09,2.53,3.8,5.2,2.58,8.38-2.03,5.28-3.82,10.67-5.35,16.11-.53,1.9-.26,4.16.14,6.15.6,3,1.7,5.9,2.44,8.88.7,2.81,2.12,4.47,5.19,4.95,9.05,1.39,17.24-.47,23.15-7.58,5.12-6.16,9.3-13.11,13.78-19.79,1.68-2.5,2.13-5.44.51-8.09-3.06-5.02-6.19-10.03-9.76-14.68-1.07-1.4-3.87-2.57-5.55-2.22-8.75,1.81-17.68,3.17-27.12,7.88ZM117.04,305.69c.2-6.73-1.05-12.81-6.17-17.6-5.15-4.82-9.37-5.13-15.35-1.39-7.67,4.79-11.55,12.29-12.26,20.67-.83,9.85.09,19.85.36,29.78.05,1.87.42,3.79,1,5.58,1.2,3.68,3.46,5.33,7.07,4.04,10.32-3.7,19.53-9.16,22.39-20.74,1.63-6.61,2.02-13.54,2.96-20.32ZM193.95,269.36q.31-9.96-9.95-10.71c-.71-.05-1.41-.21-2.12-.25-15.29-.93-27.97,3.59-36.67,17.02-3.82,5.9-3.54,10.04,2.26,13.98,8.13,5.53,17.36,8.72,26.71,11.48,4.01,1.18,7.9,0,9.9-3.75,4.67-8.73,10.29-17.2,9.87-27.76ZM197.19,249.98c7.22.33,12.88-2.21,16.82-8.51,1.49-2.38,3.65-4.33,5.47-6.5,3.14-3.76,3.91-8.11,2.49-12.67-2.29-7.32-17.41-16-24.93-14.53-.23.05-.45.15-.68.2-7.48,1.45-13.87,5.39-18.88,10.68-7.45,7.86-8.91,19.61,3.46,26.94,4.97,2.95,10.5,4.22,16.26,4.4ZM188,179.93c-.55-5.91-.84-6.56-5.59-11.8-7.66-8.46-15.55-9.1-24.19-1.61-8.59,7.44-14.65,16.74-18.7,27.31-2.08,5.43-1.09,7.84,4.27,10.08,10.69,4.47,21.53,4.56,31.41-1.62,7.96-4.99,11.75-13.11,12.81-22.35ZM146.83,237.72c-.19-4.74.1-9.51-2.72-13.75-3-4.51-5.07-5.29-10.13-3.14-6.34,2.69-12.03,6.36-17.36,10.8-10.59,8.82-10.44,27.1-4.16,35.78,3.86,5.35,9.57,7.22,15.66,4.61,2.76-1.18,5.7-2.86,7.52-5.14,6.78-8.48,11.46-17.93,11.19-29.17ZM285.27,355.23c-.14-.54-.26-1.76-.76-2.81-5.19-10.91-10.12-22.01-17.83-31.46-3.33-4.07-8.49-3.45-13.12-3.59-.82-.02-2,1.3-2.47,2.27-3.09,6.39-6.03,12.84-9,19.28-1.13,2.45-.37,4.55,1.15,6.61,3.22,4.38,6.25,8.91,9.54,13.24,4.05,5.32,8.29,10.37,15.54,11.55,7.36,1.2,17.21-7.04,16.94-15.09ZM224.08,331.44c-.14-.02-.27-.03-.41-.05,0-1.42-.11-2.86.02-4.27.55-5.74-1.89-10.04-6.13-13.66-2.34-1.99-4.44-4.27-6.6-6.45-3.41-3.44-3.98-3.6-7.74-.88-11.12,8.05-16.35,19.35-17.67,32.68-.58,5.86,2.22,10.01,7.23,12.77,5.31,2.92,11.02,4.26,17.07,4.11,6.93-.18,11.19-3.42,12.55-10.2.93-4.61,1.14-9.37,1.68-14.06ZM199,393.98c-1.4,11.76,10.69,18.59,20.4,13.9,7.67-3.71,14.19-8.76,19.29-15.45,5.54-7.26,4.81-15.73-1.43-22.61-1.59-1.76-3.34-3.38-5.02-5.06-1.74-1.74-3.29-1.76-5.63-.51-4.14,2.21-8.52,4.2-13.03,5.39-5.59,1.48-9.43,4.61-11.16,9.9-1.53,4.69-2.31,9.62-3.42,14.45ZM110.69,351.8c-1.08,5.48-3.81,7.13-8.2,6.08-.84-.2-1.85.3-2.78.51-6.46,1.43-8.32,3.64-8.36,10.3-.05,6.69,2.37,12.46,6.61,17.6,5.7,6.9,13.27,11.41,20.51,16.37,1.94,1.32,3.75.99,5.04-.65s2.71-3.54,3.03-5.5c1.23-7.46,2.32-14.98,2.85-22.52.16-2.3-1.04-5.3-2.65-7-4.7-4.98-9.93-9.47-16.05-15.18ZM384.44,98.64c7.2-1.62,13.71-3.71,19.14-8.26,2.15-1.8,2.23-4.23.97-6.47-3.71-6.62-7.82-12.75-15.35-15.93-10.45-4.41-21.59-.2-25.94,10.3-1.26,3.03-1.53,6.05.72,8.72,5.47,6.49,13.17,8.97,20.47,11.64ZM275.5,97.63c-15-10.23-33.87-2.79-37.08,14.23,3.86,2.18,8.05,3.99,11.55,6.7,3.38,2.61,6.04,6.13,9.08,9.32,2.87-11.52,8.85-21.34,16.45-30.25ZM132.32,215.3c-2.28-3.04-5.61-5.9-6.8-9.47-1.61-4.83-4.15-6.37-8.8-5.87-2.35.25-4.77-.07-7.11.23-7.84,1.02-14.14,7.15-15.33,14.77-.43,2.75-.32,5.32,2.93,6.38,4.28,1.39,8.56,2.79,12.89,4.03.79.23,1.89-.07,2.69-.46,6.59-3.19,13.14-6.45,19.54-9.61ZM107.6,278.78c-7.08-7.3-8.1-15.46-10.36-23.68-6.29.77-12.24,1.08-17.97,2.34-4.28.94-5.57,3.06-4.99,7.36.57,4.18,1.67,8.39,3.21,12.32,1.54,3.92,7.89,6.79,11.3,5.1,5.45-2.7,11.09-3.98,18.81-3.44ZM249.45,402.39c-9.16,8.87-18.82,16.02-31.35,19.5,7.04,7.92,16.32,12.62,19.65,24.39,4.21-15.79,7.96-29.84,11.7-43.88ZM434.59,51.98c5.43-7.98,10.86-15.95,16.28-23.94.53-.78.95-1.63,1.47-2.42,1.49-2.27.95-3.98-1.4-5.2-4.7-2.44-9.68-3.62-14.99-3.47-2.9.08-3.39,1.57-3.04,4.21,1.33,10.25,3.47,20.48,1.69,30.81ZM343.94,139.62c1.61,3.6,4.56,4.71,8.02,6.09,1.5-12.67,8.12-21.28,18.73-27.2,3.98-2.22,3.79-4.47-.6-6.31-7.38-3.09-14.02-7.22-19.85-13,2.13,6.63,4.35,12.8,6.07,19.11,2.04,7.5-.64,13.48-6.89,17.9-1.7,1.2-3.53,2.21-5.48,3.42ZM119.4,284.45c7.1,8.12,7.63,9.56,7.65,20.73,0,3.6,0,7.19,0,9.89,2.69-2.21,5.38-4.54,8.2-6.69,2.9-2.21,5.93-4.25,9.4-6.72-6.63-4.69-11.14-10-12.6-17.21h-12.65ZM174.84,252.41c-10.22-9.72-12.45-20.14-4.08-32.25-5.19.76-9.43,1.37-14.05,2.05,6.62,11.17,4.6,22.11.74,33.34,6.02-1.08,11.31-2.04,17.39-3.13ZM202.5,368.59c-4.2-1.75-9.07-3.16-13.25-5.7-4.26-2.59-7.84-6.29-11.9-9.65-.97,2.23-1.89,4.34-3.11,7.15,9.49,2.77,19.03,5.03,21.22,15.17,2.38-2.36,4.71-4.67,7.03-6.97ZM195.35,196.86c5.82-1.31,10.44-.55,14.84,1.4,4.3,1.9,8.49,4.05,13.05,6.24,1.11-2.47,2.1-4.68,3.26-7.28-10.7-.82-20.62-1.9-29.25-8.46-.61,2.6-1.14,4.85-1.9,8.1ZM190.76,410.46c-1.41,2.63-3.36,6.28-5.6,10.48,5.94-.47,11.22-.88,14.75-1.16-2.57-2.62-5.83-5.94-9.15-9.32ZM307.66,222.28c-4.82-2.09-9.07-3.93-13.8-5.98-.38,4.19-.72,8.01-1.12,12.41,5.23-2.25,9.73-4.19,14.91-6.43ZM138.57,386.24c3.91-4.6,7.56-8.89,11.05-13-3.37-.3-7.07-.64-11.05-.99v13.99ZM266.93,259.26c1.02-4.62,3.6-7.12,3.37-11.05h-10.56c2.26,3.47,4.18,6.43,7.19,11.05ZM409.34,183.4c-3.8,3.7-7.12,6.93-10.69,10.4,2.37.82,4.5,1.55,6.99,2.41,1.25-4.33,2.34-8.09,3.7-12.81ZM415.03,105.39l-.91-.99c-3.02,1.97-6.05,3.94-9.68,6.31,2.65,1.59,4.57,2.75,6.84,4.11,1.39-3.5,2.57-6.46,3.74-9.43ZM202.56,292.01c-2.48,4.27-4.43,7.68-5.44,11.73,4.73-.59,6.33-3.91,7.66-7.14.36-.87-1.17-2.52-2.23-4.59ZM178.7,314.89c.84,2.7,1.51,4.86,2.49,8.01,2.14-3.65,3.75-6.4,5.82-9.92-3.26.75-5.47,1.26-8.3,1.92ZM358.31,196.18c2.92-1.04,4.68-1.67,6.58-2.34-1.79-2.67-3.2-4.78-4.84-7.21-.54,2.97-1.02,5.58-1.75,9.56ZM236.48,315.73c.68,2.36,1.04,3.6,1.58,5.49,1.98-1.38,3.45-2.4,5.42-3.77-2.45-.6-4.18-1.02-7-1.71ZM203.86,260c-1.12.8-1.82,1.29-2.51,1.78.88,1.17,1.75,2.34,2.63,3.51.76-.75,2.23-1.62,2.13-2.22-.18-1.04-1.33-1.91-2.25-3.07ZM427,146.94c-1.34-.4-2.12-.83-2.86-.78-.42.03-.79.85-1.18,1.31.69.39,1.35.99,2.08,1.08.42.05.94-.73,1.97-1.61ZM118.15,349.06c-.37-.51-.74-1.01-1.11-1.52-.45-.23-1.07-.78-1.31-.64-.51.29-1.07.91-1.12,1.43-.03.4.67,1.21,1.08,1.24.8.05,1.63-.32,2.45-.51Z"/>
  <path class="cls-1" d="M343.79,459.75c-17.97-13.67-28.4-31.12-28.74-53.91-.33-21.76,2.13-43.1,8.71-63.89.78-2.48,1.82-4.88,2.85-7.27.79-1.83,2.06-3.54,4.28-2.85,2.16.67,2.34,2.65,2.01,4.71-.92,5.86-1.86,11.72-2.62,17.6-3.39,26.1-3.41,52.09,3.82,77.63,2.25,7.96,5.52,15.63,8.29,23.44.53,1.49.94,3.03,1.4,4.54Z"/>
</svg>