<?xml version="1.0" encoding="UTF-8"?>
<svg id="Layer_1" data-name="Layer 1" xmlns="http://www.w3.org/2000/svg" version="1.1" viewBox="0 0 500.7 475.66">
  <defs>
    <style>
      .cls-1 {
        fill: #000;
        stroke-width: 0px;
      }
    </style>
  </defs>
  <path class="cls-1" d="M163.5,162.1c4.27,1.86,8.55,3.72,12.82,5.58.65.8,1.3,1.6,1.95,2.41,1.4.83,2.8,1.65,4.21,2.48.62.82,1.24,1.65,1.86,2.47.99,1.39,1.8,2.96,2.99,4.15,9.06,9.06,18.03,18.23,27.38,26.98,5.6,5.24,9.88,12.13,17.57,14.94.69.77,1.38,1.54,2.07,2.32.07.31.09.65.23.93.08.18.34.27.52.4-.35-.35-.71-.71-1.06-1.07-.63-.82-1.27-1.63-1.9-2.45-.39-7.36-5.04-12.52-9.75-17.29-6.3-6.38-13-12.42-19.95-18.09-5.48-4.47-11.01-9.19-18.33-10.63-.64-.81-1.29-1.62-1.93-2.43-1.39-.83-2.78-1.66-4.17-2.49-.64-.81-1.27-1.63-1.91-2.44-2.85-3.08-5.39-6.53-8.61-9.16-7.5-6.15-15.37-11.84-22.99-17.85-1.95-1.53-3.63-3.45-5.18-5.4-.47-.59-.06-1.88-.06-2.85.86.22,2.2.16,2.5.7,3.28,5.78,9.47,7.72,14.72,10.29,14.17,6.92,26.13,16.31,36.26,28.28,3.7,4.38,7.59,8.72,12.01,12.33,3.77,3.09,6.97,8.69,13.66,5.28,1.17-.6,3.45.61,5.07,1.32,9.71,4.24,19.96,5.83,30.42,6.51,10.82.7,21.55,1.6,30.54,8.76.58.46,2.24.35,2.81-.15.57-.51.63-1.88.49-2.81-.15-1.04-.78-2-1.2-3,.84-1.4,1.68-2.79,2.52-4.19.81-.63,1.62-1.27,2.43-1.9,5.86-3.5,12.17-6.46,16.68-14.05-9.45,1.86-14.02,6.87-16.55,14.22-.79.66-1.58,1.31-2.37,1.97-2.7.2-2.54,2.21-2.59,4.09-1.29.25-2.57.51-5.18,1.02,4.8-11.06,10.61-20.13,20.69-25.9,3.32-1.9,6.84-2.58,9.77.9,2.39,2.83,2.62,5.86.33,8.83-1.93,2.5-3.79,5.15-6.13,7.21-2.36,2.08-5.28,3.53-9.4,6.19,8.22,1.19,14.53,3.37,21.37,1.1,3.07-1.02,4.73,1.29,5.1,4.05,1.04,7.81-4.52,14.12-12.52,13.9-3.52-.1-7.02-1.18-10.5-1.96-2.09-.47-4.07-1.41-6.17-1.8-3.49-.66-6.35-.29-7.15,4.21-.81,4.57-2.24,9.03-3.29,13.56-.41,1.75-.03,3.86-.89,5.28-.99,1.63-2.78,3.27-4.54,3.74-1.05.28-3.17-1.37-4-2.67-4.47-7.02-6.45-14.36-1.84-22.21.87-1.48,1.6-3.05,2.39-4.57-.96-.54-1.64-1.27-2.15-1.17-12.51,2.41-24.18-.57-35.63-5.31-1.6-.66-3.49-.63-5.25-.92-.63-.68-1.27-1.35-1.9-2.03-.32.34-.64.68-.96,1.01,1,.29,2.01.58,3.01.87,1.73,2.61,3.44,5.25,5.21,7.83,4.28,6.23,8.94,12.23,12.77,18.72,3.03,5.15,5.05,10.9,6.46,17.52-3.54-2.54-7.09-5.09-10.63-7.63-.46-.39-.92-.77-1.38-1.16.55.31,1.09.63,1.64.94.48,2.01.44,4.38,1.53,5.97,6.56,9.61,21.2,17.46,33.95,18.55-13.49-6.8-24.55-18.61-19.94-41.99,2.11,5.87,3.92,11.16,5.9,16.39,3.69,9.72,10.87,14.92,21.11,16.21,7.23.91,14.31.98,21.38-1.38,4.75-1.58,9.71-2.82,14.67-3.47,14.41-1.87,21.09-12.04,24.76-24.16,2.34-7.72,3.81-16.04,2.75-24.44-.88-6.93-2.32-13.75-7.26-18.84-5.77-5.94-11.92-11.61-18.51-16.6-2.6-1.97-6.81-1.83-10.31-2.56-3.71-.77-7.29,3.49-11.42.11-.62-.51-4.66,2.62-6.72,4.51-8.54,7.84-18.52,12.89-29.96,13.94-14.23,1.31-28.15.23-39.9-9.62-6.14-5.15-9.45-11.66-10.61-19.42-.09-.59.44-1.31.79-1.91.13-.22.58-.26,1.41-.61,3.19,4.79,5.62,10.11,10.89,13.77,13.12,9.11,42.64,10.04,57.37-2.09,4.44-3.65,9.42-6.66,14.24-9.83,7.45-4.89,11.39-11.99,12.72-20.53,1.86-11.86-.98-22.75-6.77-33.23-6.14-11.1-14.97-19.53-25.21-26.41-7.72-5.18-16.27-4.75-24.62-.46-7.98,4.1-16.08,7.98-25.95,12.86,1.22-3.02,1.45-4.63,2.35-5.63,3.65-4,7.25-8.1,11.33-11.63,14.08-12.19,30.65-12.5,45.47-1.05,12.48,9.65,22.9,21.02,28.96,35.85,6.99,17.11,6.49,33.68-4,49.41-.35.53-.38,1.28-.7,2.43,8.13-2.3,13.76,2.14,19.17,6.87,3.26,2.85,6.19,6.06,9.36,9.01,15.73,14.61,19,32.38,13.41,52.44-.66,2.38-1.17,4.81-2.07,8.58,12.36-6.47,23.88-11.74,36.5-14.06,14.65-2.7,28.94-.95,42.36,4.89,16.69,7.26,26.38,21.25,31.19,38.22,2.24,7.93-.27,16.33-2.75,26.38-1.87-3.64-3.02-5.56-3.87-7.6-3.74-8.95-7.04-18.11-11.17-26.87-6.72-14.24-19.05-21.07-33.88-24.17-17.1-3.58-33.05.54-48.1,8.22-4.59,2.34-8.12,7-11.73,10.96-2.34,2.56-3.96,5.77-7.38,8.31l1.05-11.04c-10.61,13.49-25.37,14.94-40.83,21.09,13.41.52,22.77,5.61,32.54,9.48,13.34,5.28,25.95,3.16,38.87-3.4-5.91-6.54-9.67-13.16-5.65-21.83.68-1.46-.73-3.89-1.17-5.87-.38-1.71-1.03-3.41-1.04-5.12,0-.83,1-2,1.84-2.4.72-.34,2.51-.07,2.71.4,3.96,9.29,14.61,15.64,12.31,27.69-.7.77-1.4,1.53-2.09,2.3-1.53-.14-3.06-.29-4.58-.43,1.3-4.51,1.81-8.86-2.38-12.39q-2.89,7.13,2.62,12.16c1.11,2.94,2.52,2.55,4.1.38.9-.53,1.79-1.06,2.69-1.58,7.41-3.7,8.04-11.24,10.04-17.95.87-2.92-.61-7.85,3.66-7.92,4.55-.08,4.47,5.17,4.87,8.35,1.16,9.08,1.61,18.26-8.77,23.83,2.41,1.95,4.62,3.27,6.13,5.16.87,1.09,1.32,3.62.64,4.55-.76,1.06-3.04,1.54-4.58,1.4-2.43-.23-4.79-1.19-7.18-1.84-.5-.4-.99-.8-1.49-1.2.53.38,1.05.75,1.58,1.13-.31,3.2-.61,6.39-.9,9.41,4.11,3.41,7.81,1.15,11.5.21,6.25-1.58,12.46-3.34,18.75-4.71,8.43-1.84,15.98.94,21.71,6.73,6.54,6.6,12.78,13.79,17.77,21.6,7.55,11.84,6.23,25.13,2.12,37.68-7.14,21.84-22.37,37.45-41.17,49.93-12.48,8.29-25.96,7.62-39.6,4.37-6.92-1.65-6.3-1.78-9.08,3.68-4.87,9.58-10.09,19.03-15.83,28.12-5.85,9.26-15.45,14.24-25.21,17.91-12.82,4.83-26.17,7.65-40.18,5.77-10.75-1.45-19.02-6.54-24.64-15.6-4.17-6.72-7.63-13.88-11.42-20.84-1.9-3.48-3.23-7.49-5.84-10.31-7.28-7.86-8.34-16.26-3.8-25.68.79-.67,1.59-1.34,2.38-2.01.52,1.18,1.82,2.93,1.45,3.45-4.9,6.68-2.29,11.86,2.35,17.43,5.06,6.09,9.31,12.85,13.88,19.34,2.91,4.13,5.72,8.34,8.67,12.45,5.23,7.3,12.47,10.72,21.37,10.75,12.91.05,24.82-4.03,36.31-9.36,7.33-3.39,13.39-8.55,17.88-15.36,2.98-4.52,6.12-8.97,8.73-13.7,4.03-7.31,7.32-14.86,5.42-23.67-.67-3.09-1.51-6.83-.4-9.49,2.46-5.92.64-10.62-2.47-15.24-3.09-4.59-3.94-11.12-10.87-12.53-2.83-.58-2.97-3.25-2.01-5.2,1.24-2.51,3.18-4.69,4.95-6.91,1.41-1.78,3.02-3.41,6.3-7.06-25.71,4-46.21-5.9-69.16-14.47,3.85,10.63,1.45,19.28-.99,27.96-.58,2.05-.34,4.32-.58,6.48-.64,5.75-1.34,11.5-2.01,17.25l.35-.23c-5.24-.53-7.48-3.96-7.95-8.69-.9-8.91-2.53-17.84,2.08-26.43,1.67-3.11,2.44-6.74,3.34-10.2,1.22-4.67,1.64-9.04-2.69-12.9-2.3-2.05-3.57-5.36-5.05-8.23-4.76-9.23-8.5-19.09-18.97-23.99-2.29-1.07-3.69-4.31-5.21-6.74-2.26-3.62-4.26-7.4-6.87-11.98-3.21,11.49-5.29,22.26-11.76,31.52.12-11.28.9-22.4,2.3-33.44,1.88-14.76-2.3-27-13.64-36.78-7.89-6.81-15.62-13.81-23.74-21-1.31,10.69-14.27,15.75-13.62,27.5,7.08,1.81,13.72,3.27,20.18,5.3,1.73.54,3.57,2.56,4.19,4.32.87,2.45-1.54,3.23-3.38,4.55-5.28,3.78-10.76,5.67-17.25,4.36-1.69-.34-3.48-.15-5.47-.21.32,1.96.65,3.32.73,4.68.59,9.96-3.49,18.29-9.48,25.79-.95,1.19-3.44,2.17-4.76,1.76-1.21-.38-2.4-2.71-2.52-4.27-.24-2.85.78-5.82.45-8.64-.82-7.09-1.93-14.17-3.38-21.16-.25-1.21-2.72-2.61-4.23-2.68-1.06-.05-2.65,1.82-3.23,3.17-1.12,2.62-1.66,5.48-2.5,8.22-3.05,9.9-9.18,18.01-15.83,25.59-3.06,3.49-2.72,6.27-.81,9.54,4.1,7,9.53,12.63,16.94,16.26,7.11,3.47,6.93,3.44,12.34-2.25,6.77-7.11,13.97-13.74,23.71-16.59,2.35-.69,5.03-1.38,7.3-.89,1.65.36,3.48,2.46,4.09,4.18.39,1.11-.94,3.34-2.12,4.37-1.59,1.39-3.82,2.01-5.67,3.14-6.69,4.1-13.34,8.28-21.96,13.65,17.84,2.37,33.59,2.48,49.47,8.93-10.55,3.94-20.19-.81-29.52,1.4,4.28.95,8.59,1.26,12.88,1.8,4.06.52,9.19-.5,9.5,6.16.03.61,2.26,1.56,3.49,1.6,3.99.11,6.72,2.21,9.31,4.9,1.75,1.82,3.76,3.38,5.6,5.11,1.59,1.49,3.12,3.06,4.68,4.59-.45-4.02-2.27-6.61-3.97-9.27-3.48-5.44-9.13-8.95-9.26-17.2-.1-6.18-5.98-12.07-8.17-18.48-1.7-4.99-1.83-10.56-2.36-15.9-.23-2.39-.53-5.48,2.85-6.08,3.79-.68,4.85,2.36,5.7,5.17.73,2.41,1.16,4.9,1.81,7.33,1.68,6.23,3.41,12.45,5.24,19.13,8.05-3.43,15.78-4.36,23.06.35,1.86,1.2,4.19,3.78,4,5.48-.19,1.75-2.93,4.05-4.98,4.63-6.15,1.74-12.5,2.75-19.24,4.14,3.03,3.82,5.97,7.45,8.84,11.14,3.8,4.89,4.74,10.46,3.55,16.4-.7,3.5-3.42,4.64-6.32,2.62-2.04-1.43-3.81-3.27-5.63-5-4.05-3.85-8.06-7.74-12.69-12.2-1.74,7.5-2.91,13.87-4.74,20.04-2,6.74-10.41,10.52-16.7,7.96-5.64-2.3-8.42-9.11-5.7-15.53,1.67-3.94,4.31-7.49,6.66-11.12,1.72-2.66,3.69-5.17,6.38-8.92-14.53-1.96-29.12-1.54-38.03-14.8-2.4,2.17-4.46,3.71-6.11,5.59-6.75,7.69-7.76,17.92,2.48,23.84,11.93,6.89,19.85,17.83,27.37,28.91,2.79,4.1,6.05,7.18,10.38,9.13,16.3,7.37,38.62-.65,45.08-13.19,4.62-8.97,9.88-17.61,14.78-26.44,6.54-11.78,6.51-23.35-1.27-34.65-3.95-5.73-7.76-11.56-11.63-17.34,4.4.56,7.87,2.23,11.01,4.39,14.19,9.8,20.51,27.7,14.3,43.81-6.72,17.43-14.82,34.3-26.6,49.07-.8.66-1.61,1.32-2.41,1.98-3.3,1.2-6.69,2.2-9.89,3.65-13.26,5.99-26.61,6.24-39.82.25-3.82-1.73-7.43-4.48-10.33-7.54-3.71-3.91-6.53-8.65-9.85-12.94-5.5-7.13-10.68-14.57-16.73-21.2-9.58-10.5-10.97-18.06-4.26-30.13,1.54-2.77,3.09-5.54,5.21-9.36-18.66,1.63-23.86-11.26-28.96-25.09-2.42,1.19-4.47,2.25-6.56,3.22-7.66,3.56-15.63,5.45-24.14,4.55-9.67-1.03-19.31-1.57-28.75-4.79-20.61-7.03-30.65-21.76-32.8-42.63-1.54-14.95-1.34-14.97,4.48-25.84-2.32-2.52-5.08-4.87-6.99-7.77-2.33-3.53-.41-7.16,3.83-7.9,2.83-.5,5.72-.79,8.59-.92,4.79-.23,4.44-.45,8.8-5.5,6.81-7.87,15.64-12.95,25.84-14.87,2.52-.47,5.57,1.94,8.53,3.09,1.21-1.38,2.78-3.37,4.57-5.12.7-.68,2.43-1.44,2.83-1.11,3.89,3.2,7.97,3.83,13.13,3.84,4.55,0,9.1,3.62,13.64,5.67.65.29,1.2.79,2.15,1.42,2.9-1.81,6.03-3.57,8.96-5.62,3.7-2.6,6.07-6.18,6.5-10.78.33-3.58.54-7.07,2.82-10.22.48-.66-.66-3.3-1.74-4.14-7.37-5.73-15.37-10.72-22.33-16.9-13.32-11.84-29.6-19.19-43.68-29.9-7.81-5.95-17.65-8.2-27.65-7.84-5,.18-9.98,1.13-14.97,1.69-1.78.2-3.58.39-5.37.36-10.64-.16-13.71-3.25-12.65-13.95,1.27-12.73,3.02-73.66,26.83-43.42,9.03,11.47,19.25,21.48,32.23,28.5,6.24,3.37,12.22,7.25,19.24,11.45-12.34-22.77-3.15-50.08,13.17-61.81,13.89-9.98,29.03-16.04,45.78-18.05,25.67-3.07,43.78,9.26,56.54,30.11,4.81,7.85,7.72,17.02,10.51,25.9,2.26,7.18.26,14.47-3.56,21.56-.19-2.21-.73-4.45-.51-6.62.6-5.95-.8-11.39-3.28-16.72-5.38-11.54-11.51-22.42-21.44-30.89-11.56-9.87-24.3-13.5-39.18-9.75-13.5,3.4-26.03,8.6-36.66,17.83-6.85,5.96-10.82,13.26-11.62,22.45-.88,10.24-.09,20.15,3.96,29.69.55,1.3.89,2.69,1.25,4.06.06.23-.28.57-.6,1.15-2.53-.65-5.14-1.32-7.75-2-.65-.77-1.31-1.54-1.96-2.31-.09-.33-.13-.69-.29-.98-.1-.18-.4-.25-.61-.37.4.37.8.73,1.2,1.1l1.86,2.41c1.69,4.34,3.19,8.76,5.1,13,3.22,7.15,4.5,7.84,12.3,5.79,4.72-1.24,9.13-3.43,12.91-9.2-4.16,1.34-6.71,2.54-9.39,2.94-4.53.69-7.63-3.72-5.4-7.74,1.17-2.09,3.13-3.86,5.03-5.4,1.65-1.34,3.68-2.27,5.63-3.17,1.95-.9,4.01-1.53,6.66-2.52-3.32-6.04-6.61-11.86-9.74-17.76-4.03-7.57-2.13-18.04,4.18-23.75,3.39-3.07,7.61-1.86,9.11,3.08,2.09,6.87,3.57,13.91,5.48,20.84,1.67,6.06,5.89,10.26,11.92,10.73,5.18.4,10.56-1.12,15.79-2.1,3.52-.66,6.88-2.34,10.4-2.67,2.21-.21,5,.66,6.76,2.04,2.82,2.21.3,4.71-.98,6.62-6.02,8.99-14.09,14.25-25.39,13.15-2.16-.21-4.32-.35-6.47-.64-9.15-1.25-8.91-1.13-13.71,6.74-2.59,4.26-6.12,7.94-9.58,12.31,6.34,4.63,13.74,4.54,21.17,3.33,6.7-1.09,13.6-1.99,19.9-4.34,8-2.98,15.51-7.28,23.17-11.13,1.26-.63,2.17-1.91,3.34-2.74,2.22-1.58,4.14-4.71,7.4-2.74,3.41,2.05,1.85,4.75.5,7.49-.48.98-.12,3.4.59,3.78,6.42,3.38,2.08,6.48-.04,9.66-.33.05-.71.01-.98.17-.17.1-.18.48-.26.74.38-.35.76-.69,1.13-1.04,3.27,2.35,6.06,5,5.87,9.49-.38.46-.76.92-1.15,1.38.3-.56.61-1.11.91-1.67,6.73-11.15,13.46-22.3,20.78-34.41-8.62,2.76-11.66,10.58-17.72,14.94,2.13-8.55,7.09-15.04,14-20.12,2.29-1.68,4.75-1.04,6.92.64,2.51,1.94,3.89,4.48,2.61,7.54-1.39,3.3-3.18,6.44-4.96,9.56-2.48,4.33-5.12,8.57-8.27,13.82,3.58.68,6.22,1.23,8.88,1.67,6.87,1.14,13.15,3.71,18.39,8.31,3.14,2.76,2.67,5.77-.94,7.88-6.19,3.61-12.49,2.75-18.65-.04-4.77-2.16-9.31-7.94-14.26-5.6-3.86,1.83-5.62,7.93-8.54,11.97-1.99,2.75-2.91,7.11-7.58,6.57-2.8-.32-3.72-4.59-2.44-10.5.3-1.39.76-2.78,1.38-4.05,2.23-4.61,3.24-8.81-2.44-11.91-.95-.52-1.43-2.41-1.62-3.73-.45-3.2-2.74-3.09-4.79-2.61-5.93,1.38-11.72,3.53-17.71,4.48-9.53,1.5-19.21,3.32-28.76,3.03-8.42-.26-16.75-3.25-25.13-4.99-1.26-.26-2.58-.27-5.06-.5,7.53,8.7,13.4,17.6,21.32,23.92,5.56,4.43,11.44,10.01,19.48,10.93.89.1,1.56,2.21,2.32,3.39-2.99.62-5.98,1.24-7.97,1.65-.46,4.84-.47,8.74-1.26,12.48-2.76,13.15-12.23,19.76-24.02,23.89-4.54,1.59-9.18,2.89-14.29,4.49,3.42,4.46,7.8,3.2,11.47,4,6.23,1.36,8.8,3.4,9.03,7.57.3,5.53-2.31,8.79-8.99,10.06-4.19.8-8.55,1.01-12.82.9-4.97-.13-9.72.2-14.93,2.75,2.92,6.25,5.65,12.07,8.34,17.91,1.04,2.26,2.42,4.49,2.88,6.89.89,4.6-1.21,6.48-5.83,6.68-10.48.45-23.68-10.58-24.8-24.32-.32-3.98.94-7.33,5.04-10.89.79,6.23.57,11.36,2.23,15.78,1.9,5.03,6.44,8.11,12.19,9.94-2.45-7.65-4.31-14.54-6.88-21.16-1.78-4.59.38-7.02,3.78-8.72,2.51-1.26,5.45-1.88,8.27-2.26,5.64-.76,11.34-1.16,19.21-1.92-6.23-1.89-10.77-2.39-14.32-4.53-6.12-3.7-9.96-.97-13.96,3.15-4.73,4.86-7.53,5.36-11.99,1.16-1.79-1.69-3.35-3.32-5.17-1.74-1.26,1.09-1.19,3.7-1.71,5.64-2-1.8-3.75-4.69-6.04-5.2-5.44-1.2-11.14-1.28-18.15-1.95,6.25,6.64,12.37,9.81,19.59,10.94,3.11.48,4.82-.66,4.41-4.06,2.41,6,1.49,8.06-4.11,8.23-8.32.25-16.35-1.15-24.12-6.48-.13,3.73.14,6.49-.38,9.09-3.59,18.19,4.4,34.58,20.71,43.13,12.29,6.44,25.61,7.36,38.94,7.47,4.76.04,10.29-1.72,14.19-4.47,14.85-10.47,25.89-24.12,29.67-42.35,1.9-9.16,3.32-18.66-3.43-27-.58-.72.15-2.51.29-3.97,5.12,1.44,8.45,4.53,9.51,8.77,1.51,6.03,4.21,10.83,11.42,13.98-2.71.89-3.82,1.67-4.4,1.38-2.41-1.21-3.99-1.38-4.33,1.94-.3,2.88.05,5.18,3.69,4.99,5.18-.26,6.57,3.04,7.52,7.29,1.3,5.82,3.02,11.55,4.55,17.32,1.25-4.29,3.86-8.66.97-12.56-2.74-3.7-2.34-7.3-1.74-11.29.56-3.71.76-7.47,1.23-12.39-2.05,1.79-2.83,2.47-5.11,4.46,1.86-6.98,3.1-12.43,4.86-17.71.46-1.39,2.39-2.56,3.91-3.3,9.12-4.41,11.29-10.23,6.29-18.31-2.26-3.65-4.99-7.06-7.82-10.29-5.18-5.9-10.59-11.6-15.91-17.38ZM139.46,96.77c-3.85-1.05-7.43-1.34-9.08,3.44-.42.46-.84.92-1.26,1.39.36-.53.72-1.07,1.09-1.6,3.59.35,6.8-.28,9.03-3.48.38-.39.75-.78,1.13-1.16-.3.47-.6.95-.91,1.42ZM366.19,325.54c6.16-3.13,7.03-9.58,9.52-15-4.99,3.92-8.69,8.63-9.34,15.19-3.47.91-3.1,3.03-1.23,6.5.44-2.85.75-4.77,1.05-6.69ZM179.38,89.63c-5.43.76-10.91,1.31-16.28,2.39-2.01.41-3.78,2.05-7.21,4.02,10.27,1.46,18.18,2.04,23.28-6.66.4-.39.8-.77,1.2-1.16-.33.47-.66.94-.99,1.41ZM256.54,262.88l-1.42-.97c.55.25,1.1.51,1.65.76-.89,5.6,3.93,8.12,6.62,11.57,7.01,8.98,14.6,17.49,21.82,26.3,2.36,2.89,4.65,5.53,8.84,5.05,4.75,5.62,12.11,5.42,18.24,7.68,8.77,3.24,17.84,6.26,27.65,7.09-2.83-5.02-5.78-9.21-7.63-13.84-1.87-4.7-4.23-10.11,2.07-14.06,6.65,14.14,6.83,14.38,17.36,22.32,5.92-11.22,14.3-19.77,26.61-23.79-.84-3.78-1.57-7.07-2.49-11.26-10.22,6.47-20.55,4.69-30.12,1.99-7.42-2.1-14.77-2.83-22.25-3.57-15.06-1.49-30.12-2.89-47.38-4.54,7.98,8.81,14.64,16.21,21.35,23.56,4.61,5.04,4,6.56-3.54,8.55-7.35-9.57-15.31-18.74-21.83-28.85-4.09-6.35-8.89-10.96-15.56-13.98ZM91.82,205.56c-1.23-1.01-3.53-2.06-3.5-3.04.1-3.05,1.08-6.08,1.79-9.44-9.7,3.58-19.06,7.03-30.19,11.14,8.82,1.52,15.87,2.17,22.57,4.09,4.24,1.22,7.34,2.11,9.36-2.72,2.73-.55,5.46-1.11,8.66-1.76-1.24-3.44-2.23-6.19-3.4-9.46-3.65,3.72-5.96,6.8-5.28,11.18ZM112.53,126.67c.43.33.86.65,1.3.97-.52-.25-1.04-.5-1.56-.74.08-.7.47-1.58.18-2.07-5.44-9.36-10.78-18.79-20.65-24.45-3.71-2.13-6.99-6.32-10.79-6.76-14.47-1.66-23.93-10.14-30.35-21.87-4.07-7.43-8.64-13.72-15.71-18.54-1.32,13.86-2.62,27.42-3.95,41.33,4.46.43,8.33,1.02,12.2,1.09,3.2.06,6.42-.8,9.62-.76,16.47.23,29.45,8.13,41.47,18.57,5.65,4.9,12.14,8.85,18.24,13.22ZM360.39,328.48c.98-3.53,1.48-5.49,2.08-7.42,1.18-3.76,1.98-7.72,3.73-11.19,2.73-5.41,8.23-7.91,13.46-6.93,4.5.84,5.91,3.26,4.17,7.68-1.51,3.82-3.35,7.51-5.43,12.11,2.74-.33,4.47-.52,6.19-.74,8.05-1.02,15.91-.26,23.1,3.58,1.87,1,3.99,3.83,3.84,5.64-.14,1.77-2.81,3.71-4.78,4.86-1.78,1.03-4.1,1.29-6.22,1.52-5.69.61-11.41,1.02-16.61,1.46,1.77,3.96,4.12,8,5.36,12.37,1.1,3.85-2.61,10.17-5.45,10.67-4.47.79-6.54-2.23-8.33-5.5-1.04-1.89-1.74-3.98-2.86-5.82-2.17-3.56-4.52-7.01-7.35-11.36-3.1,3.6-5.29,6.14-7.73,8.97,1.73,1.27,2.77,2.28,4.01,2.91,8.6,4.33,12.32,11.77,13.46,20.87.45,3.56,1.03,7.15.94,10.71-.1,3.79,1.6,5.83,4.63,7.79,11.55,7.45,23.56,7.59,34.56.22,17.11-11.46,30.1-26.42,37.04-46.56,3.67-10.67,2.31-20.01-2.83-28.98-3.37-5.88-8.2-11-12.86-16.02-3.89-4.2-9.09-5.73-14.86-4.59-3.17.63-6.45.96-9.45,2.07-8.7,3.24-17.57,4.1-26.59,2.14-12.41-2.69-20.9,3.02-27.73,12.44-5.24,7.21-5.16,7.27,2.49,17.12ZM215.48,332.35c-.46-.15-.92-.3-1.39-.45-1.8,1.97-3.87,3.76-5.35,5.94-2.99,4.39-5.91,8.87-8.35,13.58-1.09,2.1-1.38,5.41,1.84,6.2,2.1.51,4.71-.25,6.84-1.09.99-.39,1.68-2.25,1.98-3.57,1.57-6.85,2.97-13.73,4.43-20.6ZM134.57,57.99c-1.39,4-3.61,7.01-2.9,8.97,2.52,7.07,5.72,13.96,9.36,20.53,1.15,2.08,4.48,2.96,6.81,4.4l1.89-1.54c-10.03-7.99-10.74-19.9-15.15-32.36ZM119.03,195.64c-3.89-.57-6.32-.98-8.76-1.28-6.46-.79-6.48-.74-5.72,7.45,4.47-1.9,8.86-3.77,14.49-6.17ZM378.79,330c7.67,3.66,14.46.48,22.48.35-8.05-3.81-14.84-1.09-22.48-.35ZM199.25,237.4c-5.4-2.72-9.33-4.11-13.73-1.69-.17.09-.23.78-.08,1,2.7,3.99,6.95,1.89,10.49,2.57.49.09,1.12-.6,3.31-1.89ZM283.01,207.36c-3.02,1.48-5.72,2-5.95,3.06-.83,3.83-.83,7.84-1.14,11.78.38,0,.76.02,1.13.03,1.76-4.4,3.52-8.8,5.95-14.86ZM236.25,131.75c5.54,5.91,5.58,5.79,12.42,4.32-4.62-1.61-8.52-2.97-12.42-4.32ZM302.6,207.25c-.24-.22-.46-.61-.71-.62-.64-.03-1.28.11-1.93.19.24.23.48.64.73.65.63.03,1.27-.13,1.9-.22ZM308.86,209.95c-.25-.23-.5-.64-.75-.64-.63,0-1.27.17-1.91.27.25.21.49.59.75.6.63.02,1.27-.14,1.91-.23ZM303.41,266.16c-.26-.18-.53-.52-.79-.51-.62,0-1.24.17-1.86.27.26.18.51.5.77.5.63,0,1.25-.16,1.88-.26ZM238.37,315.3c.65-.18,1.29-.35,1.94-.53-.24-.25-.47-.68-.74-.72-.63-.08-1.29.04-1.93.07.24.39.49.78.73,1.17ZM384.29,283.9l-.15,1.58c.25-.2.66-.37.71-.61.04-.23-.29-.53-.56-.97ZM392.71,272.64c-.19-.26-.35-.69-.58-.73-.23-.04-.53.31-.79.49.19.25.35.68.58.72.23.04.52-.3.79-.48Z"/>
  <path class="cls-1" d="M287.87,368.49c5.19.96,5.56-3.47,7.13-6.46,2.66-5.07,5.06-10.27,7.84-15.26,1.02-1.84,2.57-3.66,4.34-4.72,1.67-1,4.33-1.85,5.84-1.18,1.5.67,2.95,3.32,2.94,5.1,0,3.15-.68,6.49-1.91,9.39-1.96,4.62-4.45,9.04-7.02,13.37-1.83,3.09-3.1,5.84-3.11,9.83-.02,6.46,0,11.08,7.06,14.76,7.22,3.76,5.87,19.01-1.05,23.56-4.19,2.76-9.53,1.37-11.9-3.11-3.51-6.65-2.34-14.09-3.51-21.14-.29-1.73.02-3.56.07-6.23-3.67,2.12-6.59,4.04-9.7,5.56-3.88,1.89-7.77,4.06-11.91,5.04-6.51,1.54-10.54-3.2-8.52-9.66.61-1.97,1.84-4.08,3.42-5.34,4.49-3.58,9.26-6.8,14-10.05,2.01-1.38,4.23-2.48,6.35-3.7,0,0-.35.23-.35.23ZM295.05,371.42c-7.48,5.04-16.68,7.88-22.61,17.95,11.65-2.77,16.91-10.65,22.61-17.95ZM309.41,346.97c-6.09,4.62-9.38,10.42-12.17,16.53-.35.78-.06,2.2.49,2.9.3.39,2.24.24,2.59-.26,3.96-5.71,8.92-11.01,9.1-19.17ZM305.3,411.54c3.78-5.44,4.59-8.96,2.74-12.72-.52-1.05-2.22-1.51-3.38-2.25-.6,1.07-1.8,2.21-1.69,3.21.35,3.14,1.18,6.22,2.33,11.75Z"/>
  <path class="cls-1" d="M222.04,274.43c-.73-10.35.11-20.94-2.61-30.53-2.66-9.4-8.93-17.78-13.41-26.23,9,.15,19.24,9.78,24.83,23.46,4.38,10.7,5.27,21.2-8.81,33.3Z"/>
</svg>