<?xml version="1.0" encoding="UTF-8"?>
<svg id="Layer_1" data-name="Layer 1" xmlns="http://www.w3.org/2000/svg" version="1.1" viewBox="0 0 500.7 475.66">
  <defs>
    <style>
      .cls-1 {
        fill: #000;
        stroke-width: 0px;
      }
    </style>
  </defs>
  <path class="cls-1" d="M418.21,232.37c-4.95,14.62-14.61,27.27-26.1,38.41-21.18,20.53-45.57,23.19-69.3,12.14-29.53-13.75-42.84-36.32-39.32-64.03,1.94-15.27,8.25-28.71,20.12-38.93,8.71-7.5,18.28-8.14,24.87-2.06.94.87,1.72,2.62,1.53,3.8-.17,1.06-1.74,2.65-2.76,2.7-19.74.96-23.17,16.92-26.99,30.97-3.25,11.96-.07,23.78,7.7,34.15,18.56,24.77,51.41,27.43,73.14,5.5,10.3-10.4,18.15-22.43,23-36.38,5.4-15.55,3.91-30.35-4.13-44.6-7.19-12.74-17.83-18.55-32.51-16.02-4.27.74-8.47,1.91-12.74,2.63-3.84.65-4.31,2.7-3.67,6.15.69,3.75.7,7.64.83,11.48.06,1.87-.3,3.76-.48,5.63,1.03-1.5,2.16-2.95,3.08-4.51,1.22-2.07,1.82-4.73,3.5-6.24,2.4-2.15,5.53-2.19,7.05,1.3,1.41,3.25-1.01,8.67,4.18,9.6,3.49.63,7.33-.89,11.04-1.22,1.06-.1,2.2.58,3.3.91-.52.75-.92,1.61-1.56,2.23-9.23,8.97-18.49,17.91-27.72,26.87-.68.66-1.07,1.69-1.83,2.19-5.14,3.4-33.37-1.69-36.67-7.11-.99-1.63.4-5.02,1.34-7.34.36-.88,2.51-1.14,3.89-1.49,21.5-5.47,20.6-5.61,17.08-27.5-1.51-9.37-8.92-17.84-13.9-26.58-2.09-3.68-5.07-2.04-7.18.02-9.3,9.09-19.71,17.4-27.33,27.75-12.8,17.4-23.8,36.13-35.47,54.35-.67,1.05-.64,2.56-.93,3.85,1.33-.54,2.67-1.04,3.97-1.64.87-.4,1.64-1.12,2.54-1.36,1.33-.35,2.74-.39,4.11-.57-.3,1.34-.21,2.96-.94,3.99-7.5,10.56-15.29,20.93-22.7,31.56-10.61,15.21-18.24,31.63-19.35,50.51-.17,2.88-.47,5.81-.12,8.64.21,1.66,1.59,3.17,2.44,4.75.9-1.1,1.98-2.1,2.67-3.32,6.42-11.27,15.48-19.49,27.49-24.56,36.79-15.55,73.46,6.88,75.68,46.8,1.73,31.32-18.38,70.56-56.78,84.33-26.15,9.38-51.28,7.5-75.21-6.47-11.06-6.46-20.24-14.94-22.23-28.71-.2-1.41-.5-2.81-.75-4.21-.69,1.21-1.52,2.36-2.05,3.64-2.38,5.74-4.54,11.58-7.03,17.27-9.29,21.27-26.41,33.2-48.4,37.25-32.04,5.89-60.38-2.67-82.79-26.82-18.46-19.9-21.53-47.1-8.99-71.24,3.75-7.22,7.6-14.63,12.72-20.87,21.09-25.75,48.56-33.38,80.47-26.43,9.93,2.16,17.18,8.66,22.18,17.32,2.41,4.18,4.65,3.73,7.99,1.47,24.81-16.8,49.38-33.89,65.89-59.76,5.94-9.3,11.93-18.7,16.57-28.67,10.37-22.32,21.5-44.16,35.55-64.43.74-1.06.86-2.55,1.27-3.84-1.41.33-2.81.71-4.23.97-9.46,1.75-18.86,4.18-28.4,5.05-13.06,1.19-24.87-3.9-35.24-11.15-14.63-10.23-19.33-26.04-12.59-43.71,5.97-15.65,12.3-31.46,20.9-45.74,12.19-20.24,32.09-30.07,55.22-32.73,12.32-1.42,22.85,3.96,30.93,12.83,10.53,11.56,19.27,24.42,17.98,41.19-.4,5.21,2.15,3.7,4.96,3.41,33.37-3.37,63.24-16.45,91.75-33.17,16.22-9.52,32.3-19.29,48.31-29.17,7.8-4.81,15.39-9.91,19.34-18.89,1.66-3.77,5.03-5.91,9.47-4.88,4.82,1.12,8.07,4.47,7.5,9.23-.66,5.54-1.77,11.6-4.67,16.17-4.07,6.39-10.06,11.54-15.09,17.34-8.23,9.5-8.34,9.17-15.57,12.28-40.84,17.55-81.26,35.92-117.67,61.9-2.35,1.68-4.57,3.55-6.95,5.2-2.83,1.97-3.83,3.51-.76,6.61,4.39,4.44,8.42,9.34,11.91,14.52,3,4.45,5.62,3.73,9.56,1.47,5.42-3.11,11.08-6.01,16.97-8.04,16.65-5.75,31.94-.8,41.79,13.81,15.27,22.63,17.12,46.56,5.29,72.25ZM463.93,44.58l.99-.27-.86.59c-.31,0-.63.01-.94.02.27-.11.54-.22.82-.33ZM298.87,117.63c-7.73-4.79-16.65-3.48-24.97-5.15-6.72-1.35-11.18-1.44-13.32,6.09-1.02,3.58-3,3.06-4.4.07-1.06-2.27-1.84-4.63-4.94-2.36-1.55,1.13-2.95,2.51-4.62,3.43-1.17.64-2.66.7-4,1.02.02-1.28-.48-2.97.15-3.78,3.48-4.47,7.27-8.71,10.89-13.08.96-1.16,2.5-3.56,2.39-3.65-11.35-9.04-3.46-11.31,4.63-13.82.98-.3,1.33-2.46,2.11-3.66,2.32-3.54,4.11-5.25,6.51.34,4.39,10.23,11.19,15.42,20.67,16.95,7.87,1.27,11.01-1.62,9.51-9.65-1.94-10.37-8.7-18.1-15.44-25.69-6.39-7.19-14.84-9.54-23.67-7.09-18.27,5.06-33.67,14.22-41.32,32.97-4.01,9.82-8.45,19.46-12.69,29.19-7.18,16.45-.44,29.5,17.19,33.31,28.7,6.2,59.47-8.5,75.19-35.92q6.64,9.33,15.15,2.65c1.88-1.47,3.85-2.84,5.63-4.43,3.33-2.96,6.55-6.04,9.81-9.07-4.65.3-9.31.53-13.95.91-7.29.6-14.7,1.09-16.5,10.42ZM243.7,348.67c-.05.37-.18.76-.12,1.11.04.21.38.35.59.53-.26-.51-.52-1.01-.78-1.52-.65-4.19-1.24-8.38-1.99-12.55-.43-2.36-1.42-4.65-1.58-7.01-.08-1.17.87-2.91,1.88-3.5.72-.42,2.85.27,3.4,1.1,1.56,2.36,2.56,5.08,3.93,7.58.48.88,1.4,1.51,2.12,2.25,4.38-5.53,6.23.28,9.55,1.51,3.69,1.36,8.48-.27,12.79-.6.48-.04,1.04-.18,1.43,0,1.64.78,3.23,1.68,4.84,2.53-1.1,1.23-1.98,2.92-3.35,3.61-3,1.52-6.28,2.45-9.39,3.77-9.19,3.89-9.14,3.91-6.4,13.19.67,2.28,1.02,4.66,1.52,6.99-2.34-1.14-4.6-2.57-7.06-3.33-1.44-.44-3.92-.43-4.71.46-3.15,3.58-6.02,7.44-8.6,11.46-2.79,4.36-5.13,9.01-7.67,13.53-4.55-5.13-1.03-10.78-.97-16.19.05-3.84-1.31-5.19-5.16-4.23-3.33.83-6.76,1.25-10.14,1.86,2.42-2.81,4.77-5.69,7.29-8.41,1.3-1.4,2.89-2.53,4.4-3.72,2.9-2.29,5.28-4.2-.06-6.78-3.39-1.64-6.19-4.49-9.3-6.73-11.17-8.06-15.82-19.02-14.51-32.61.46-4.78,1.12-9.54,1.68-14.31.11-.94.17-1.89.25-2.83-.91.7-2.16,1.2-2.68,2.12-6.83,11.92-18.61,17.76-29.71,24.48-8.24,4.99-16.4,10.11-24.57,15.21-2.21,1.38-2.31,3.1.21,3.97,17,5.91,23.32,18.9,24,35.73.06,1.42.18,2.84.27,4.27.98-1.01,2.18-1.88,2.91-3.05,8.57-13.67,21.09-22.19,35.97-27.6,1.14-.41,2.62.14,3.95.25-.44,1.17-.6,2.59-1.38,3.47-5.08,5.74-10.83,10.98-15.35,17.12-9.66,13.13-7.45,24.19,6.31,32.92,4.43,2.81,9.37,5.31,14.42,6.54,29.24,7.13,54.37.13,74.09-23.19,11.76-13.9,16.84-30.08,14.48-48.31-3.01-23.27-21.99-33.06-39.46-32.09-11.38.63-21.65,4.79-30.7,11.54-16.71,12.48-15.79,19.83,3.32,29.43ZM151.29,397.82c4.54-11.2,6.46-26.31,4.48-35.41-3.17-14.62-14.95-19.04-26.37-9.87-1.5,1.21-3.16,2.3-4.38,3.76-3.23,3.86-4.49,7.49,1.58,10.14,1.5.65,2.51,2.42,3.75,3.67-1.37,1.23-2.56,3.04-4.16,3.55-2.69.85-5.71,1.43-8.46,1.1-3.96-.47-4.94,1.68-5.9,4.66-.47,1.47-1.64,2.71-2.5,4.05-.74-1.65-1.76-3.24-2.12-4.96-.27-1.32.39-2.81.48-4.24.42-6.45-.26-7.1-5.49-5.24-1.35.48-2.55,1.51-3.92,1.81-2.01.45-4.11.47-6.18.68.08-1.86-.58-4.32.36-5.47,4.53-5.55,1.12-7.28-3.67-8.5-1.38-.35-2.92-.13-4.27-.54-.77-.24-1.92-1.34-1.83-1.86.22-1.23.85-3.07,1.73-3.36,3.13-1,6.84-2.74,9.59-1.86,6.56,2.09,8.44-1.36,10.55-6.26,1.75-4.06,1.37-11.28,7.56-10.52,5.42.67,2.95,7.18,3.93,11.12.23.92.4,1.86.6,2.79.95-.62,1.99-1.14,2.83-1.88,2.17-1.91,4.2-3.96,6.37-5.87,10.63-9.37,10.5-11.51-1.77-19.07-2.37-1.46-5.14-2.48-7.86-3.16-31.08-7.84-62.15,7.9-75.76,38.28-11.31,25.25-5.13,47.09,16.95,63.66,13.98,10.49,29.71,13.17,46.32,12.59,23.07-.81,38.97-12.27,47.53-33.76Z"/>
  <path class="cls-1" d="M102.89,275.6c-14.73-4.56-26.3-15.37-35.09-28.99-12.22-18.93-14.47-37.92-.41-57.79,15.79-22.32,36.1-37.19,62.86-42.61,18.9-3.83,35.25,1.93,48.38,15.88,3.52,3.75,5.71,8.8,8.23,13.4.51.93-.27,2.57-.45,3.88-1.32-.29-2.95-.19-3.92-.94-5.33-4.06-10.64-8.18-15.7-12.57-8.36-7.26-18.45-8.53-28.5-6.9-26.48,4.3-45.47,19.78-58.94,42.39-5.32,8.93-5.28,18.57-.47,27.69,10.91,20.67,27.81,33.08,51.47,34.61,23.18,1.5,41.06-8.07,53.46-27.76,2.3-3.65,5.16-7.12,6.58-11.09,1.59-4.44,1.85-9.37,2.69-14.08-4.06-.62-8.19-.94-12.15-1.95-4.64-1.18-9.12-3-13.7-4.44-1.8-.57-3.68-.86-5.52-1.28-.2,2.29-.77,4.63-.5,6.86.22,1.81,1.46,3.5,2.24,5.25,1.65,3.67-.89,3.92-3.38,4-.92.03-2.07-.19-2.74-.75-6.34-5.23-9.13-.78-11.99,4.15-1.31,2.26-3.13,4.23-4.72,6.33-.18-3.14-.51-6.29-.46-9.42.03-1.38.83-2.75,1.32-4.11q3.3-9.15-5.44-13.8c-.76-.41-2.04-1.35-1.94-1.62.45-1.23,1.21-2.39,2.05-3.44,3.06-3.83,11.03,1.35,11.55-5.13.28-3.53-3.95-7.35-5.89-11.17-.58-1.15-.32-2.73-.44-4.11,1.36.28,2.81.33,4.06.87,3.29,1.44,6.85,4.87,9.67,4.31,7.03-1.41,8.77.54,8.18,7.29-.17,1.96,2.19,5.04,4.19,6.15,12.23,6.78,25.33,5.78,37.91,1.89,15.15-4.68,29.86-10.79,44.8-16.19,1.47-.53,3.18-.41,4.78-.6-.76,1.09-1.34,2.37-2.31,3.24-11.61,10.44-24.59,18.48-39.77,22.76-8.98,2.53-9.29,2.77-7.4,12.54,2.87,14.83-4.19,26.15-12.58,36.86-18.64,23.81-55.35,36.53-90.02,20.39Z"/>
</svg>