<?xml version="1.0" encoding="UTF-8"?>
<svg id="Layer_1" data-name="Layer 1" xmlns="http://www.w3.org/2000/svg" version="1.1" viewBox="0 0 190.39 204.09">
  <defs>
    <style>
      .cls-1 {
        fill: #000;
        stroke-width: 0px;
      }
    </style>
  </defs>
  <path class="cls-1" d="M129.48,60.44c5.32,1.53,9.1,2.82,12.97,3.69,22.12,4.97,29.3,12.5,33.58,35.2,1.03,5.45,2.66,10.8,3.47,16.27,2.98,20.14-5.84,36.08-20.01,48.72-26.87,23.98-58.27,32.47-93.38,22.38-8.06-2.32-16.11-6.7-22.61-12.03-23.15-18.98-38.14-57.63-26.49-91.26,1.81-5.23,3.94-10.79,7.44-14.9,5.65-6.63,9.62-12.38,8.19-22.3-1.42-9.82,7.62-17.48,18.27-18.75,8.91-1.07,17.44.67,24.7,5.77,8.69,6.1,16.77,13.08,25.85,20.26,7.49-13.71,18.05-25.58,32-34.03,3.85-2.33,8.29-3.66,12.38-5.6,5.49-2.6,10.53-.97,13.58,3.33,3.09,4.36,2.36,9.79-1.23,14.15-2.91,3.53-6.02,6.92-9.25,10.15-6.06,6.06-12.28,11.97-19.47,18.96ZM139.51,30.85c-16.12,6.4-27.61,17.8-35.9,33.59-1.7-1.02-3.31-2.1-5.02-3-10.74-5.65-21.31-11.68-32.36-16.64-3.84-1.72-8.87-.99-13.36-.91-1.18.02-3.23,1.7-3.3,2.73-.12,1.68.54,4.19,1.77,5.06,9.49,6.62,18.62,13.6,31.69,11.75,10.13-1.43,14.24,2.77,14.08,12.71-.09,5.52-1.47,11.02-2.32,16.53-1.44,9.34-6.52,18.25-2.85,31.16,5.46-12.33,9.74-22.45,14.44-32.37,1.8-3.8,2.25-9.43,8.68-8.93.01,4.08.43,8.21-.04,12.23-1.94,16.65-8.64,31.36-20.06,43.5-8.35,8.87-16.73,6.55-20.13-5.38-1.47-5.16-1.87-10.99-1.22-16.32,1.47-11.96,3.9-23.8,5.82-35.02-11.57-3.14-23.07-6.27-35-9.51-14.61,22.27-10.87,44.72.94,66.26,11.04,20.14,28.86,28.62,52.2,27.31,34.29-1.93,59.4-23.76,64.15-58.12-18.63,2.14-32.36-6.31-43.37-20.36-1.15-1.47-2.46-2.8-3.69-4.2,1.14-1.38-.95-6.25,3.59-3.83,4.01,2.13,7.4,5.38,11.36,7.63,7.96,4.53,16.24,8.43,25.74,7.93,1.81-.09,4.94-1.09,5.08-2.03.33-2.23.03-5.76-1.43-6.82-4.81-3.5-9.92-7.37-15.51-8.81-8.23-2.12-17.04-1.92-25.46-3.47-3.07-.57-6.47-2.73-8.42-5.19-2.78-3.51.34-6.59,2.71-9.22,2.37-2.65,4.98-5.09,7.41-7.69,6.5-6.95,12.97-13.92,19.44-20.89.51-.66,1.02-1.31,1.52-1.97-.39.77-.78,1.54-1.17,2.32Z"/>
</svg>