<?xml version="1.0" encoding="UTF-8"?>
<svg id="Layer_1" data-name="Layer 1" xmlns="http://www.w3.org/2000/svg" version="1.1" viewBox="0 0 190.39 204.09">
  <defs>
    <style>
      .cls-1 {
        fill: #000;
        stroke-width: 0px;
      }
    </style>
  </defs>
  <path class="cls-1" d="M33.49,65.43c-4.3,7.43-7.91,13.68-13.68,23.64,9.74-4.26,15.71-6.55,21.3-9.56,1.37-.74,2.38-4.11,1.94-5.85-1.27-4.97-3.38-9.72-5.15-14.56-1.57-4.31-3.52-8.52-4.6-12.95-1.12-4.57-1.37-10.24,3.53-12.19,3.71-1.48,9.81-1.61,12.75.53,7.77,5.65,14.59,12.69,21.39,19.57,2.33,2.35,3.5,5.85,5.49,9.32,8.09-2.7,12.46-9.54,20.43-16.09-7.44-.83-12.25-1.37-17.36-1.94.78-1.11,1.13-2.24,1.82-2.52,22.03-8.8,44.63-11.01,67.22-3.16,29.17,10.15,45.56,42.09,38.77,72.37-5.1,22.78-17.01,41.44-33.67,57.04-31.41,29.42-68.87,30.4-105.23,10.82-21.76-11.72-39.43-28.43-45.09-54.02-4.6-20.78-.79-39.99,13.89-56.16,3.91-4.3,8.46-8.03,16.24-4.29ZM102.27,63.55c-1.17,1.14-2.34,2.28-3.51,3.41-3.04,1.23-6.16,2.31-9.1,3.73-11.01,5.31-14.67,4.19-22.7-5.33-3.85-4.56-8.91-8.1-13.43-12.1-.2-.48-.33-1.01-.63-1.43-.18-.25-.62-.32-.94-.47.66.49,1.31.98,1.97,1.48,1.43,5.48,2.88,10.95,4.28,16.43.85,3.31,2.1,6.6,2.32,9.96.5,7.63-1.79,11.36-9.33,11.47-16.17.24-20.44,11.29-25.39,24.61,11.22.88,19.24-3.11,26.79-8.28,6.95-4.75,7.27-5.1,10.98,2.96,1.48,3.21,1.9,3.97,5.63,3.23,2.88-.57,7.11.73,9.36,2.74,10.62,9.49,20.35,6.57,31.64-1.05-8.3-6.8-15.61-12.99-23.14-18.9-7.98-6.27-8.06-10.7-.28-17.58,4.13-3.66,7.92-7.71,11.86-11.59,1.14-1.17,2.27-2.34,3.41-3.52.85-.34,1.7-.68,2.55-1.02-.44-.48-.88-.95-1.33-1.43-.34.89-.68,1.78-1.01,2.67ZM67.33,136.44c0-.54.2-1.2-.03-1.61-.68-1.2-1.53-2.3-2.32-3.44.92,1.56,1.84,3.12,2.76,4.68.22,3.05.44,6.11.77,10.67,2.95-5.11,3.96-8.39-1.17-10.3ZM25.91,133.88c8.92,11.62,18.47,20.67,30.35,27.05,21.35,11.46,43.72,15.61,65.99,4.21,17.81-9.11,31.06-23.75,39.09-42.39,2.69-6.24,5.41-12.87,6.07-19.53,2.68-27.09-20.01-50.54-49.38-52,4.47,20.92-14.45,27.03-26.2,39.15,8.21,5.73,15.57,10.69,22.75,15.91,6.38,4.64,7.65,13.03,1.8,15.64-10.98,4.9-20.76,14.83-35.76,8.13,1.66,6.56,3.25,10.88,3.76,15.33.77,6.8-3.6,13.55-9.32,14.8-6.29,1.37-11.88-.52-14.46-6.59-2.87-6.76-4.96-13.91-6.79-21.05-1.07-4.17-.95-8.64-1.49-14.29-9.18,5.43-16.99,10.06-26.41,15.63Z"/>
</svg>