<?xml version="1.0" encoding="UTF-8"?>
<svg id="Layer_1" data-name="Layer 1" xmlns="http://www.w3.org/2000/svg" version="1.1" viewBox="0 0 527.68 411.88">
  <defs>
    <style>
      .cls-1 {
        fill: #000;
        stroke-width: 0px;
      }
    </style>
  </defs>
  <path class="cls-1" d="M40.35,276.81c-.84,3.78-3.63,3.72-5.8,2.05-9.72-7.46-18.64-15.82-22.5-27.89-4.91-15.39-6.66-31-4.25-47.29,3.12-21.11,8.42-41.48,17.14-60.89,3.89-8.66,8.03-17.38,13.36-25.18,14.63-21.44,29.86-42.48,45.1-63.5,2.49-3.44,6.18-6.01,9.35-8.94.63-.58,1.65-.82,2.11-1.48,5.65-7.99,13.11-12.55,22.9-14.42,8.84-1.69,17.25-5.48,26.04-7.54,43.3-10.12,87.26-12.09,131.51-10.19,5.48.23,11.24,1.77,15.66-3.64.65-.79,4.26-.29,5.51.78,2.24,1.89,3.85,4.59,5.51,7.1,6.67,10.12,12.85,20.6,20.03,30.34,4.82,6.53,10.8,12.28,16.67,17.96,7.77,7.52,6.71,17.21-2.84,22.39q-9.32,5.06-6.3,14.12c4.25,12.77,13.1,21.1,25.3,26.2,1.59.66,3.19,1.63,4.84,1.75,13.94,1.06,20.42,10.95,26.39,21.72,11.54,20.81,23.05,41.65,35.01,62.22,5.21,8.96,11.07,17.61,17.34,25.86,15.15,19.96,28.86,41.05,46.09,59.41,2.35,2.5,4.42,5.4,6.06,8.41,6.6,12.17,14.19,23.34,24.5,32.98,8.84,8.27,5.17,18.43-6.86,20.83-8.87,1.77-17.97,2.42-26.99,3.35-7.3.75-14.63,1.18-21.95,1.71-1.73.13-3.6.57-5.18.12-15.37-4.43-29.72,2.43-44.47,4.17-20.54,2.43-40.89,6.43-61.34,9.67-16.6,2.63-33.22,5.1-49.82,7.72-2.38.37-5.47,2.68-6.25-1.2-.26-1.32,2.68-4,4.67-4.9,7.45-3.38,14.87-7.44,22.75-9.16,31.14-6.82,62.48-12.78,93.71-19.21,22.61-4.66,45.46-5.28,68.43-5.13,6.31.04,12.62-1.57,21.78-2.8-6.77-5.94-11.67-9.91-16.16-14.3-2.71-2.65-5.28-5.68-7.07-9-10.62-19.64-24.81-36.38-40.34-52.27-7.5-7.68-14.48-16.21-20.08-25.35-20.59-33.61-36.83-69.45-53.03-106.59-1.97.17-4.87.29-7.72.7-18.63,2.69-34.25-2.87-45.75-17.83-12.54-16.31-12.58-31.07-.92-48.68,1.69-2.56,1.66-4.55.21-7.1-7.47-13.16-15.06-26.27-22.08-39.67-2.26-4.31-5.09-5.45-9.34-4.93-16.26,1.99-32.53,3.92-48.79,6-10.26,1.32-20.48,2.94-30.74,4.28-20.96,2.76-41.95,5.35-62.9,8.19-3.8.52-7.48,1.9-10.95,2.81,10.08,17.31,20,34.36,29.93,51.41.55.42,1.11.84,1.66,1.26-.66-.3-1.33-.6-1.99-.9,1.12-6.9-1.53-14.79,6.18-21.18,1.76,6.04,3.04,11.64,5.03,16.99,5.3,14.27,22.4,21.43,36.21,13.12,7.27-4.37,12.08-10.68,11.81-18.74-.26-7.85-6.28-12.91-13.47-16-.39-.17-.82-.25-1.23-.36-3.14-.9-7.68-.76-6.91-5.44.2-1.23,5.03-2.28,7.77-2.36,4.69-.14,9.7-.37,14.04,1.06,13.5,4.43,19.8,18.88,15.05,32.63-8.73,25.33-40.59,34.31-60.55,18.18-2-1.62-3.99-3.27-5.98-4.9-.5-.37-1.01-.75-1.52-1.12.61.25,1.23.51,1.84.76,1.29,3.59,2.17,7.4,3.94,10.74,27.54,51.96,55.2,103.86,82.84,155.77,5.69,10.68,11.5,21.29,17.1,32,1.31,2.5,2.01,5.31,1.38,8.98-1.38-1.71-2.89-3.33-4.13-5.13-30.19-43.8-59.97-87.9-86.24-134.18-15.79-27.81-29.94-56.55-44.83-84.87-6.44-12.24-12.64-24.62-19.41-36.68-2.84-5.07-4.95-5.33-9.12-1.44-5.04,4.7-10.25,9.58-13.95,15.31-13.59,21.08-26.97,42.32-39.7,63.93-12.87,21.85-19.79,45.9-23.57,70.86-1.81,11.93-3.84,23.9-4.54,35.92-.9,15.6,4.07,29.54,15.11,40.99l-.28-.36Z"/>
  <path class="cls-1" d="M40.63,277.17c-4.97-14.23-1.13-26.36,9.31-36.51,12.08-11.74,26.44-18.14,43.58-15.62,14.85,2.18,26.33,15.65,27.64,31.96,1.27,15.75-1.55,30.27-14.96,41.98,40.06,9.91,75.78,28.82,113.19,43.38,23.52,9.16,44.78,22.58,64.08,38.94.99.84,1.94,1.76,2.73,2.78.48.62.6,1.51,1.18,3.09-4.19,2.74-8.84,2.1-13.24,1.03-11.77-2.87-22.89-7.13-33.6-13.16-17.3-9.75-35.22-18.45-53.12-27.07-20.25-9.76-40.68-19.13-61.2-28.31-11.39-5.09-23.12-9.39-34.66-14.15-5-2.06-5.78-3.7-2.45-7.32,8.07-8.78,9.69-20.21,12.69-30.85,1.38-4.92-.18-11.2-1.95-16.34-2.59-7.51-11.16-11.28-19.25-9.23-15.37,3.9-31.34,14.02-32.27,35.55-.06,1.39-1.48,2.71-2.27,4.07-1.24-.98-2.49-1.96-3.73-2.95-.67-.53-1.32-1.09-1.98-1.64l.28.36Z"/>
  <path class="cls-1" d="M242.81,204.16c1.3,2.05,2.37,3.33,3,4.8,3.8,8.88,6.25,10.07,14.36,6.26,12.77-6.01,21.52-15.6,26.15-29.09,2.63-7.69-.24-13.56-5.12-18.88-5.06-5.51-11.46-6.3-17.77-2.81-6.75,3.74-13.11,8.23-19.47,12.64-2.1,1.45-3.59,3.76-5.53,5.49-4.43,3.97-9.46,4.97-12.86,2.43-4.22-3.15-4.02-7.88-2.45-11.86,3.73-9.49,9.52-17.57,19.59-21.28,6.88-2.53,13.83-4.98,20.94-6.71,17.65-4.29,36.85,8.45,39.93,26.42,5.17,30.19-17.46,53.66-38.48,60.46-3.52,1.14-7.91,1.02-11.53.07-5.47-1.43-9.99-4.51-12.82-10.09-3.21-6.32-.64-11.41,2.06-17.84Z"/>
  <path class="cls-1" d="M423.35,300.26c6.95,8.28,8.09,16.04,8.37,24.55.29,8.69-7.59,19.35-18.71,22.21-14.43,3.72-35.29-6.84-41.51-20.39-4.43-9.66-2.84-18.74,2.57-27.14,7.46-11.58,18.48-17.97,32.16-19.43,7.54-.8,14.47,3.56,17.56,10.69.62,1.42,1.15,4.1.5,4.6-1.44,1.1-4,2.1-5.51,1.54-11.53-4.26-20.27.17-27.72,8.52-6.39,7.17-5.3,14.29,2.67,19.6,10.75,7.16,18.33,5.36,23.94-6.46,2.48-5.23,3.52-11.14,5.67-18.28Z"/>
  <path class="cls-1" d="M219.57,290.1c-1.17,23.93-19.58,35.06-37.82,24.45-12.74-7.41-20.45-18.12-19.26-34.02,1.25-16.61,15.16-28.97,31.56-27.01,2.47.3,5.27,1.04,7.11,2.56,2.15,1.78,4.84,4.69,4.74,7-.17,3.77-4.19,3.47-7.24,3.4-.87-.02-1.73-.11-2.6-.08-11.12.46-17.07,5.51-17.51,14.84-.42,8.89,6.79,17.75,15.77,19.3,6.22,1.08,12.09.33,17.2-3.72,2.33-1.85,4.57-3.81,8.06-6.73Z"/>
  <path class="cls-1" d="M120.01,197.88c4.56-.73,7.26-1.21,9.97-1.58,10.82-1.46,16.64-8.02,16.88-19.11.2-9.17-4.17-18.04-9.71-19.68-5.78-1.71-14.1,3.01-18.98,10.92-1.11,1.81-1.51,4.08-2.73,5.78-.83,1.16-2.84,2.62-3.76,2.3-1.32-.45-2.69-2.26-3.05-3.73-2.37-9.83,3.01-20.74,13.23-27.34,8.63-5.58,20.16-5.66,28,.08,2.41,1.77,4.61,3.96,6.51,6.28,9.49,11.6,9.13,25.24,5.04,38.07-2.97,9.3-10.89,15.22-22.08,14.59-6.44-.36-12.32-1.58-19.31-6.59Z"/>
  <path class="cls-1" d="M385.38,220.21c-1.05,15.5-10.56,28.17-24.08,32.1-8.3,2.41-15.83-.11-20.29-7.21-1.27-2.03-2.85-5.45-2-6.91,2.08-3.56,4.07.22,6.13,1.17,8.96,4.11,13.71-2.56,18.61-7.81,4.78-5.12,8.78-10.98,5.26-18.56-3.69-7.94-14.61-9.28-20.39-2.53-1.38,1.61-2.02,3.96-3.59,5.26-.84.7-3.67.49-4.34-.33-2.86-3.54-3.75-7.3-1.48-11.96,6.32-12.95,24.73-16.24,36.84-6.28,6.67,5.49,9.96,13.63,9.33,23.07Z"/>
  <path class="cls-1" d="M305.93,295.74c-.23,4.3-.62,7.66-.52,11,.1,3.36.08,6.93,1.21,10.01,1.95,5.35,8.53,8.31,13.88,7.02,3.78-.91,6.32-5.82,5.91-11.66-.23-3.33-.65-6.64-.91-9.97-.02-.25.58-.54.89-.82,12.12,6.31,16.05,14.71,11.45,24.42-4.96,10.45-15.94,13.84-27.51,8.57-8.03-3.66-13.48-9.45-14.5-18.42-.93-8.18,1.18-15.23,10.11-20.15Z"/>
</svg>