<?xml version="1.0" encoding="UTF-8"?>
<svg id="Layer_1" data-name="Layer 1" xmlns="http://www.w3.org/2000/svg" version="1.1" viewBox="0 0 527.68 345.19">
  <defs>
    <style>
      .cls-1 {
        fill: #000;
        stroke-width: 0px;
      }
    </style>
  </defs>
  <path class="cls-1" d="M258.82,318.59c4.55-5.9,9.13-10.95,12.65-16.66,3.26-5.29,6.63-11.42,2.27-17.61-4.65-6.6-12.31-7.49-19.5-7.42-4.67.04-9.41,2.02-13.97,3.57-4.79,1.63-8.53,4.27-8.76,10.25-.11,2.79-1.46,5.57-2.4,8.3-3.41,9.9-10.51,15.18-20.84,14.71-8.91-.41-17.09,1.57-25.52,3.95-5.85,1.65-12.43,1.83-18.53,1.21-5.66-.57-11.59-2.18-16.57-4.87-13.71-7.41-26.76-5.45-40.23.49-4.27,1.88-9.34,2.67-14.05,2.71-15.53.13-31.06-.29-46.59-.53-1.94-.03-3.9-.06-5.81-.36-22.19-3.5-25.84-14.17-19.12-37.1,1.4-4.77,4.62-6.69,10.02-5.9,6.1.89,13.88-3.95,15.95-8.84,2.15-5.11.09-9.92-6.35-12.35-8.65-3.26-17.22-6.49-23.96-13.11-1.61-1.58-3.55-3.37-4.1-5.39-1.25-4.61-2.41-9.43-2.35-14.15.08-6.78,4.4-11.69,9.66-15.45,15.74-11.27,31.09-23.21,47.56-33.29,20.61-12.61,42.21-23.62,63.36-35.35,6.89-3.82,14.15-4.81,22.04-5.67,12.8-1.39,25.67-4.7,37.73-9.25,5.7-2.15,9.94-8.77,14.18-13.91,2.03-2.46,3.33-6.12,3.6-9.35,1.36-16.16,13.08-23.49,25.17-30.74,15.31-9.18,32.55-11.65,49.65-14.64,9.41-1.64,10.82-3.25,11.85-12.9.66-6.22,1.51-12.42,2.42-18.61,1.92-13.01,13.91-17.77,25.29-14.52,11.87,3.39,22.58,9.21,31,18.16,13.61,14.46,26.6,29.51,39.81,44.34,3.22,3.61,6.31,7.34,9.38,11.08,6.84,8.33,7.17,11.91,1.87,20.88-.98,1.66-3,2.97-3.34,4.68-.63,3.14-1.28,6.77-.28,9.62,1.57,4.5,5.53,1.97,8.7,1.58,3.36-.42,6.79-.35,10.16-.75,15.73-1.87,28.49,2.77,38.03,16.02,5.45,7.56,13.07,12.75,21.57,16.83,10.23,4.91,18.32,12.48,24.96,21.74,7.49,10.46,8.54,22.74,8.36,34.57-.42,27.23,4.84,53.97,5.57,81.03.31,11.56-.87,23.2-2.02,34.74-.62,6.3-5.64,10.28-13.54,10.88-7.23.55-14.64.68-21.8-.29-14.79-2-29.41-6.3-44.21-6.93-14.75-.63-24.02-6.86-30.54-19.26-2.65-5.04-7.6-6.05-12.62-4.49-4.11,1.28-8.12,3.25-11.78,5.53-4.29,2.67-3.28,7.13-3.58,11.54-.58,8.33-4.81,11.78-13.69,11.43-12.06-.47-24.07-2.31-36.13-2.71-18.43-.61-36.88-.63-55.32-.61-6.15,0-11.63-.65-15.32-6.84ZM391.68,91.02c-12.75-15.41-25.05-31.02-38.19-45.88-9.33-10.55-20.16-19.6-34.06-23.88-4.72-1.46-7.47.04-8.29,4.8-.65,3.8-.33,7.77-.85,11.6-2.53,18.55-8.39,26.16-25.76,27.72-17.64,1.58-33.77,7.78-50.5,12.27-7.22,1.93-12.33,4.14-11.64,13.18.35,4.63-1.4,9.53-2.7,14.16-4.16,14.78-12.8,25.61-27.25,31.93-15.54,6.8-30.69,8.13-45.75-.79-38.15,28.71-81.64,48.76-118.79,81.52,14.28,2.03,27.04,4.47,39.92,5.54,30.13,2.52,59.8-2.72,89.52-6.48,19.13-2.42,38.19-5.4,57.35-7.45,7.12-.76,14.74-.67,21.59,1.12,5.33,1.39,8.05.25,11.07-3.48,6.62-8.16,15.58-12.86,25.16-16.66,5.77-2.29,11.37-2.46,16.75.69,4.57,2.67,9.05,5.54,13.36,8.62,12.61,9.01,25.17,14.33,41.85,10.02,16.2-4.19,33.38-4.95,50.2-6.16,7.36-.53,12.48-1.79,16.61-8.77,5.66-9.56,14.46-14.73,26.28-15.73,13.91-1.18,26.68,1.45,39.33,6.67,5.97,2.47,11.7,6.67,18.71,5.09.25-1.72.64-2.68.49-3.54-2.2-12.4-11.38-18.97-21.49-23.99-12.31-6.11-23.79-12.95-32.14-24.18-3.5-4.72-8.43-6.17-14.11-5.93-6.79.28-13.77-.54-20.34.78-17.73,3.54-31.39-20.61-20.99-35.16,1.68-2.35,3.03-4.95,4.65-7.63ZM493.94,208.3c-10.32-3.43-19.3-6.87-28.54-9.35-7.39-1.98-15.05-3.45-22.66-3.91-7.16-.44-13.26,2.69-16.41,9.78-5.73,12.91-16.04,17.1-29.51,16.32-18.45-1.07-36.63,1.13-54.76,4.75-11.75,2.34-23.23-.11-33.63-6.07-5.43-3.11-10.41-7.04-15.43-10.82-12.97-9.77-17.58-10.44-30.77-1.44-5.24,3.58-12.77,5.55-13.89,13.73-.09.69-2.49,1.81-3.42,1.51-18.39-5.91-36.5,1.04-54.73,1.31-10.01.15-19.96,3.1-29.98,4.51-16.24,2.29-32.46,5.57-48.77,6.21-22.68.88-45.53,2.69-68.15-2.02-4.57-.95-9.5-.14-14.27-.14,2.95,2.83,6.25,4.29,9.65,5.44,3.19,1.08,6.55,1.65,9.73,2.77,10.8,3.8,15.99,12.32,14.59,23.63-1.3,10.5-8.27,16.73-19.72,17.49-2.78.18-5.58.03-9.06.03v20.26c25.94-2.13,51.7,4.47,76.21-7.69,10.78-5.35,22.57-6.01,33.54.28,18.1,10.37,37.72,11.14,57.77,10.06,11.63-.63,13.97-2.58,15.8-14.09,1.07-6.7,2.18-13.37,7.69-18.28,12.96-11.53,37.89-14.2,53.28-5.6,12.81,7.16,17.21,19.75,11.53,33.37-1.38,3.3-3.13,6.44-5,10.25,23.36,0,45.64-.08,67.93.06,4.88.03,7.85-1.28,10.03-6.21,6.55-14.79,19.89-19.04,34.47-19.82,16.02-.85,21.85,4.48,24.02,20.18,1.14,8.23,1.87,9.04,9.87,9.08,17.96.08,35.92.08,53.89-.04,3.74-.02,7.47-.71,11.29-1.09,4.14-35.75-5.99-70.14-2.57-104.43Z"/>
  <path class="cls-1" d="M356.88,87.54c1.07,7.97,2.94,15.93,2.97,23.9.03,8.11-4.08,15.01-11.48,18.95-14.82,7.88-29.58,7.33-44.11-1.11-9.01-5.23-12.25-13.23-11.7-23.23.83-15.06,16.31-29.5,31.31-28.16,4.93.44,9.89,3.3,14.26,5.99,1.93,1.19,3.61,4.84,3.33,7.12-.45,3.65-4.27,2.25-6.93,2.88-6.36,1.49-13.68.81-18.18,7.41-3.6,5.27-2.88,8.83,2.99,11.29,12.62,5.28,24.06.65,29.45-12.16,1.78-4.22,2.96-8.69,4.42-13.05,1.23.06,2.46.12,3.68.17Z"/>
  <path class="cls-1" d="M249.02,163.02c-6.85-3.95-13.25-7.64-22.06-12.72,11.95-3.26,21.05-3.71,30.39-1.06,10.23,2.91,15.64,17.1,6.35,26.94-12.96,13.73-40.53,12.68-51.61-2.45-5.58-7.61-4.48-17.12,2.52-21.78,3.28-2.19,7.2-1.09,8.12,2.53,1.12,4.43-1.14,10.47,4.98,12.48,7.13,2.34,14.21,2.04,21.32-3.94Z"/>
  <path class="cls-1" d="M138.77,170.15c-3.53,2.36-6.09,3.64-8.12,5.52-4.19,3.88-5.51,9.93-2.38,12.82,1.79,1.65,5.56,2.85,7.69,2.11,4.61-1.6,8.53-4.69,8.11-10.65-.22-3.1-1.33-8.27-.07-8.97,4.77-2.64,9.11.87,12.74,3.69,6.4,4.97,7.22,14.3,2.41,20.9-7.37,10.12-24.03,14.38-35.44,9.05-8.64-4.04-13.27-13.52-11.2-22.94,1.74-7.93,10.55-15.11,19.1-15.03,1.99.02,3.95,1.86,7.16,3.49Z"/>
  <path class="cls-1" d="M476.95,252.76c-2.6-1.58-4.84-3.32-7.37-4.4-7.39-3.17-12.78-1.76-18.03,4.35-4.19,4.88-5.2,9.91-2.63,13.09,3.8,4.69,11.75,5.66,17.05,1.78,2.63-1.93,4.85-4.42,7.33-6.72,5.69,2.78,7.31,7.52,5.66,12.21-1.5,4.26-4.32,8.9-7.92,11.39-8.97,6.2-24.74,3.3-33.45-5.1-8.48-8.18-10.28-19.74-4.23-30.54,7.24-12.9,18.66-20.99,34.7-16.68,9.43,2.53,12.21,8.71,8.89,20.62Z"/>
  <path class="cls-1" d="M154.24,262.52c2.82,2.08,5.57,4.81,8.86,6.39,8.77,4.21,18.85-1.64,19.22-10.8.21-5.05-3.16-8.74-8.05-7.71-4.64.98-9.18,2.88-13.44,5.02-2.97,1.49-5.98,5.02-8.62,1.37-.99-1.37,1.49-5.84,3.13-8.42,5.92-9.32,14.53-13.99,25.65-13.29,10.81.67,17.87,7.62,19.09,18.34,2.03,17.82-4.72,27.94-16.63,33.93-12.22,6.14-25.99.33-30.22-12.95-1.1-3.47-5.35-8.02,1-11.87Z"/>
  <path class="cls-1" d="M364.36,251.97c7.95,6.56,9.4,14.42,6.09,22.46-3.22,7.82-10.04,11-18.83,10.8-13.23-.29-21.53-5.68-23.85-16.59-3.09-14.51,2.41-26.66,14.05-31.7,3.86-1.67,7.51-2.28,10.94.32,1.77,1.34,3.96,3.34,4.12,5.2.12,1.37-2.49,3.74-4.33,4.37-6.07,2.07-10.15,5.38-10.41,12.26-.18,4.71.67,8.91,5.76,10.45,4.41,1.34,7.5-1.24,9.68-4.68,1.26-1.98,1.67-4.48,2.75-6.6,1.03-2.02,2.44-3.85,4.02-6.3Z"/>
</svg>