<?xml version="1.0" encoding="UTF-8"?>
<svg id="Layer_1" data-name="Layer 1" xmlns="http://www.w3.org/2000/svg" version="1.1" viewBox="0 0 365.31 291.07">
  <defs>
    <style>
      .cls-1 {
        fill: #000;
        stroke-width: 0px;
      }
    </style>
  </defs>
  <path class="cls-1" d="M349.11,116.65c1.07.82,2.88,1.48,3.1,2.48,8.13,37.34,5.96,73.18-16.26,105.83-14.65,21.52-36.49,32.85-60.35,40.44-29.12,9.26-58.47,10.49-89.13,5.74-28.73-4.45-38.34-22.24-43.18-46.57-1.91-9.61-1.86-9.65-9.42-4.91-2.32,1.45-4.72,2.89-6.71,4.73-20.05,18.51-44.24,16.29-67.63,11.4-19.59-4.09-31.53-18.42-35.85-38.3-5.83-26.8-3.4-53.68,5.2-78.97,11.08-32.61,27.13-62.65,57.84-82.45,25.5-16.45,53.28-25.83,83.02-26.51,27.96-.64,56.25.78,83.94,4.58,34.78,4.77,62.36,23.91,83.45,51.77,11.36,15,11.59,33.22,12.39,51.05-1.35,5.56-2.7,11.13-4.05,16.69-2.33,3.07-5.17,5.87-6.92,9.24-16.11,31.01-40.8,50.86-75.11,58.4-11.34,2.49-22.79,4.56-34.02,7.47-20.67,5.35-40.41,4.77-59.56-5.98-8.09-4.54-9.39-3.47-9.95,5.12-.58,8.88-.85,17.79-.89,26.69-.07,13.57,1.3,15.93,14.45,17.2,38.04,3.68,75.35,1.05,109.55-18.04,9.39-5.24,18.84-11.9,25.54-20.13,15.09-18.56,28.44-38.57,34.48-62.27,1.48-5.81,1.4-12.02,2.03-18.05,1.35-5.55,2.71-11.1,4.06-16.66ZM110.39,215.6c5.75-1.82,11.57-3.45,17.24-5.5,8.44-3.06,15.08-6.76,18.39-17.04,2.47-7.68,10.25-14.21,16.85-19.88,9.33-8.02,19.77-14.74,29.68-22.1,1.05-.78,1.66-2.13,2.47-3.22-1.76-.48-3.67-1.66-5.26-1.32-14.69,3.17-29.25,7.01-44.01,9.8-7.3,1.38-14.93,1.04-22.41,1.26-.88.03-2.49-1.35-2.54-2.15-.06-1.13.7-2.86,1.65-3.42,31.87-18.71,67.24-26.5,103.19-31.55,10.64-1.5,15.31,7.95,8.09,16.35-10.65,12.38-23.23,23.09-34.95,34.55-3.56,3.48-6.98,7.1-10.47,10.66,5.17,1.28,10.28,2.83,15.51,3.73,2.62.45,5.54.08,8.15-.58,17.22-4.39,34.62-8.27,51.54-13.63,24.26-7.69,40.91-24.18,50.92-47.55,8.54-19.92,5.28-37.74-10.05-52.76-12.82-12.57-27.35-23.46-44.83-28.25-44.84-12.29-90.15-17.09-135.71-3.56-18.64,5.53-35.39,14.86-49.32,28.61-14.28,14.09-17.94,38.91-6.43,54.66,5.33,7.29,14.67,11.65,22.15,17.38,1.58,1.21,3,2.65,4.49,3.98-1.78.59-3.55,1.63-5.34,1.68-11.45.35-21.49-3.47-30.21-10.83-4.42-3.73-8.79-7.5-13.18-11.25-.54,6.12-1.38,12.24-1.56,18.38-.28,9.58.14,19.17-.18,28.75-.93,28.04,16.34,42.01,39.48,51.39,7.84,3.18,9.34,1.85,10.17-6.69,1.38-14.27,2.66-28.55,4.6-42.75.73-5.34,2.71-10.66,5.07-15.54.8-1.66,4.49-2.55,6.86-2.57,1.27-.01,3.56,2.51,3.66,4,.33,4.75-.03,9.57-.36,14.34-.98,14.29-2.07,28.57-3.12,42.85-.62.12-1.35.09-1.83.41-.28.2-.17.96-.24,1.47.61-.7,1.22-1.41,1.83-2.11Z"/>
</svg>