<?xml version="1.0" encoding="UTF-8"?>
<svg id="Layer_1" data-name="Layer 1" xmlns="http://www.w3.org/2000/svg" version="1.1" viewBox="0 0 492.11 595.66">
  <defs>
    <style>
      .cls-1 {
        fill: #000;
        stroke-width: 0px;
      }
    </style>
  </defs>
  <path class="cls-1" d="M319.35,430.36c-1.19-.76-2.28-1.8-3.57-2.24-17.24-5.9-34.52-11.68-51.76-17.59-4.59-1.57-9.23-3.16-13.54-5.34-17.57-8.91-34.35-19.14-49.44-31.85-13.28-11.18-24.46-24.28-32.48-39.79-4.34-8.4-8.13-17.08-12.19-25.62-3.43-7.22-6.82-14.47-10.37-21.64-6.23-12.6-13.11-24.93-15.71-38.99-.53-2.86-1.17-5.71-1.52-8.59-1.77-14.48-4.6-28.74-8.53-42.79-3.23-11.54-4.55-23.31-4.53-35.27.01-10.43-.13-20.85-.18-31.28-.05-10.01,1.12-19.85,4.18-29.41,4.16-13.03,15.62-19.75,28.97-16.9,30.86,6.61,58.98,19.26,84.26,38.23,8.53,6.4,17.25,12.57,26.07,18.57,18.59,12.63,33.66,28.46,44.31,48.32,6.7,12.49,10.99,25.86,13.74,39.72,1.98,9.99,4.01,19.99,5.33,30.07,2.32,17.7,8.35,34.38,13.61,51.24,5.12,16.41,10.85,32.64,16.87,48.75,4.07,10.88,9.11,21.39,13.71,32.07.67,1.55,1.44,3.09,1.91,4.7,4.49,15.55,14.46,26.88,28.14,34.7,18,10.28,33.78,23.59,50.5,35.61,11.48,8.25,20.85,18.87,28.87,30.5,3.15,4.56,5.53,9.71,7.86,14.77,2.05,4.47-.65,7.86-5.57,7.08-2.59-.41-5.13-1.46-7.58-2.5-7.42-3.17-15.07-5.3-23.07-6.51-13.91-2.11-26.91-6.52-37.35-16.57-.52-.5-1.14-.91-1.75-1.29-.4-.25-.88-.38-1.32-.57-.1.58-.42,1.23-.26,1.72,1.83,5.51,3.61,11.05,5.67,16.47,2.33,6.12,2.32,12.17,1.2,18.58-1.03,5.91-1.45,12.04-1.19,18.03.33,7.74,1.62,15.44,2.46,23.15.26,2.41.71,4.84.6,7.23-.2,4.41-3.36,6.61-7.5,5.08-1.95-.72-3.77-2.17-5.29-3.66-11.37-11.08-21.49-23.07-27.33-38.15-1.66-4.29-3.86-8.36-5.7-12.58-1.02-2.33-2.25-3.33-5.03-2.5-5.97,1.8-12.03,3.31-18.09,4.8-25.68,6.34-51.51,6.23-77.38,1.49-42.42-7.77-80.13-26.15-114.52-51.7-25.27-18.77-47.39-40.77-66.75-65.61-11.07-14.2-21.52-28.81-30.35-44.51-23.95-42.55-40.16-87.72-45.19-136.53-3.37-32.71-1.47-65.12,7.77-96.78,8.76-30.02,23.23-56.96,45.61-79.24,26.66-26.55,59.05-41.19,96.14-45.48,29.65-3.43,58.56.55,86.96,9.67,50.48,16.22,92.29,45.57,128.61,83.5,22.31,23.3,41,49.31,56.27,77.59,25.96,48.08,41.33,99.27,41.85,154.32.31,32.71-5.29,64.32-18.96,94.25-1.1,2.42-2.46,4.73-3.85,7-.27.44-1.47.83-1.81.6-.7-.46-1.44-1.31-1.55-2.09-.13-.87.32-1.89.7-2.76,21.35-49.68,22.05-100.9,11.31-152.93-4.67-22.63-12.16-44.41-21.35-65.55-9.33-21.44-20.85-41.77-34.3-60.85-27.68-39.27-61.26-72.55-102.64-97.45-32.71-19.68-67.68-32.77-106.1-35.41-17.79-1.22-35.42-.15-52.76,4.26-2.3.59-4.48,1.67-6.72,2.53-.22-.07-.45-.14-.67-.22.24,0,.48,0,.73,0,3.88,1.37,7.74,2.79,11.64,4.1,9.56,3.21,19.29,4.67,29.42,3.34,4.8-.63,9.69-.65,14.54-.71,14.18-.15,26.94,4.22,37.46,13.66,9.43,8.45,19.94,13.04,32.64,14.23,11.35,1.06,22.19,5.18,32.67,9.73,10.24,4.45,17.54,11.74,21.07,22.72,1.46,4.55,3.74,9.02,6.49,12.92,4.33,6.15,10.78,9.6,17.96,11.7,3.96,1.16,7.88,2.46,11.79,3.79,14.37,4.89,23.49,15.22,28.79,28.94,2.6,6.74,4.22,13.9,5.81,20.98,3.28,14.62,8.55,28.32,17.62,40.37,2.77,3.68,5.52,7.42,8.68,10.75,8.63,9.05,13.71,19.84,16.72,31.83,1.23,4.92,3.02,9.7,4.69,14.5,1.85,5.33,4.66,10.09,8.49,14.31,1.94,2.14,3.24,4.84,4.96,7.2,7.31,10.03,7.99,21.07,2.84,31.76-5.85,12.16-6.88,23.84-2.03,36.48,3.41,8.87,2.03,17.7-3.09,25.81-2.31,3.67-3.17,7.71-2.2,11.88,2.21,9.6-.88,17.57-6.72,25.03-4.18,5.34-7.86,11.08-11.82,16.59-.27.38-1.07.39-1.62.57-.04-.46-.26-.99-.1-1.37,2.63-6.52,4.92-13.22,8.08-19.47,3.41-6.75,5.27-13.38,3.67-21-1.18-5.61-.05-11.2,3.11-16.09,4.01-6.2,4.48-12.64,2.16-19.49-.78-2.29-1.21-4.7-2.02-6.97-3.46-9.67-2.5-19.1,1.3-28.42.92-2.25,1.69-4.56,2.72-6.76,3.64-7.77,2.83-15.08-2.05-22.03-1.4-1.99-2.73-4.02-4.16-5.99-7.64-10.5-13.69-21.74-16.41-34.6-2.6-12.29-9.63-22.13-17.83-31.24-13.03-14.46-20.74-31.44-24.42-50.43-1.15-5.94-2.64-11.83-4.29-17.66-4.32-15.27-14.39-24.9-29.46-29.52-2.78-.85-5.48-1.97-8.24-2.93-12.37-4.29-20.01-13.17-24.47-25.15-.76-2.04-1.65-4.06-2.14-6.17-2.07-8.84-8.36-14.12-15.84-17.96-3.27-1.68-7.28-1.48-10.77-3.61-3.64-2.23-8.01-3.48-12.23-4.5-3.98-.97-8.15-1.31-12.26-1.57-10.28-.64-19.37-4.2-27.39-10.6-1.71-1.36-3.39-2.74-5.09-4.12-9.63-7.82-20.64-11.66-33.04-11.25-5.09.17-10.19.5-15.25,1.01-11.07,1.12-21.82.07-32.21-4.08-1.8-.72-3.69-1.21-5.57-1.71-7.21-1.91-8.95-1.3-13.61,4.82-2.06,2.7-3.96,5.52-6.03,8.21-5.04,6.55-11.58,10.9-19.46,13.39-3.69,1.17-7.25,2.73-10.89,4.07-4.6,1.69-6.82,5.29-7.7,9.8-.56,2.85-.9,5.78-.98,8.69-.24,8.64-3.67,15.84-8.91,22.59-6.68,8.61-12.89,17.58-19.19,26.48-4.69,6.63-5.37,13.88-2.82,21.52.69,2.07,1.23,4.18,1.94,6.25,3.16,9.26,2.87,18.09-2.88,26.41-3.59,5.19-4.12,10.76-1.49,16.59.79,1.76,1.35,3.62,2.04,5.43,1.62,4.3,3.39,8.55,4.84,12.91,2.15,6.46,2.02,12.86-.89,19.15-3.52,7.59-3.91,15.36-1.48,23.42,2.8,9.28,5.45,18.6,7.83,27.99,2.58,10.2,7.96,18.61,15.29,25.98,3.41,3.43,6.4,7.28,9.86,10.66,4.82,4.72,6.58,10.6,7.27,17,.21,1.93.32,3.87.34,5.81.13,9.71,4.04,18,10.13,25.17,7.68,9.04,16,17.54,23.73,26.54,5.48,6.38,11.88,12.36,13.03,21.42.3,2.38,2,3.3,3.94,3.7,3.56.74,7.17,1.26,10.77,1.81,1.92.29,3.86.49,5.79.69,8.67.92,15.08,4.89,18.47,13.26,1,2.46,2.66,4.64,3.85,7.03,4.22,8.49,11.43,12.87,20.31,15.14,9.41,2.41,18.84,4.77,28.11,7.62,4.36,1.34,8.38,3.76,12.56,5.69,6.6,3.05,13.11,6.36,19.85,9.07,6.37,2.56,13.14,3.56,20.03,2.93,7.91-.72,14.87,1.43,21.04,6.37.75.6,1.6,1.1,2.41,1.62,8.22,5.24,12.37,4.9,19.51-1.54,3.23-2.92,6.47-5.83,9.8-8.63.58-.49,1.62-.45,2.44-.66-.13.69-.04,1.54-.42,2.05-3.58,4.87-7.2,9.71-10.89,14.5-4.56,5.93-10.73,6.38-17.07,4.1-3.81-1.37-7.46-3.61-10.71-6.07-4.3-3.26-8.84-4.99-14.2-4.49-14.13,1.31-27.11-2.88-39.05-9.63-12.46-7.05-25.58-11.63-39.5-14.36-1.43-.28-2.83-.72-4.25-1.05-12.53-2.88-21.79-9.62-27.88-21.33-7.13-13.74-7.55-13.46-22.75-15.17-3.85-.43-7.67-1.3-11.43-2.26-3.72-.95-6.94-3.03-7.45-7.11-1.09-8.63-7.14-14.19-12.22-20.23-7.64-9.07-15.84-17.67-23.64-26.61-6.91-7.92-10.91-17.13-11.42-27.73-.11-2.18-.23-4.36-.35-6.55-.29-5.56-2.31-10.29-6.2-14.36-5.02-5.25-9.63-10.9-14.75-16.04-5.53-5.56-8.36-12.5-10.56-19.67-3.35-10.88-6.2-21.91-9.22-32.89-2.27-8.25-1.95-16.35,1.69-24.18,3.06-6.6,2.76-13.13-.01-19.74-2.15-5.13-4.28-10.29-6.16-15.53-2.5-6.99-2.09-13.84,1.82-20.32.75-1.25,1.44-2.54,2.2-3.78,2.69-4.4,3.28-9.02,1.72-13.98-1.24-3.93-2.3-7.91-3.4-11.88-2.38-8.63-1.67-16.94,3.34-24.48,5.36-8.07,10.53-16.36,16.73-23.76,6.81-8.13,11.3-16.69,11.64-27.49.21-6.59,1.52-13.34,7.35-17.55,3.45-2.49,7.47-4.81,11.56-5.68,14.18-3.02,22.22-13.01,29.32-24.33.25-.4.45-.83.67-1.25-.4.07-.83.06-1.19.21-2.69,1.1-5.47,2.05-8.05,3.37-27.25,13.9-49.09,33.56-64.78,60.04-18.45,31.16-26.13,65.14-26.84,100.91-.78,39.82,7.16,78.05,21.24,115.24,11.1,29.31,26.13,56.48,44.4,81.71,34.51,47.66,77.66,85.3,132.09,108.92,28.89,12.53,59.09,19.05,90.74,18.02,17.36-.57,34.23-3.53,50.47-9.87,1.22-.48,2.28-.53,1.97-2.16-1.88-9.95-1.85-20.18-6.31-29.75-3.78-8.11-9.22-14.89-14.88-21.43-6.15-7.11-13.34-13.32-20.13-19.86-1.68-1.62-4.36-2.59-3.11-5.75.68.15,1.36.29,2.04.44,1.58.77,3.16,1.54,4.74,2.32,1.55,1.09,3,2.38,4.67,3.22,10.76,5.41,20.03,12.37,27.36,22.23,7.6,10.21,12.74,21.12,13.96,33.79.77,8,1.9,15.9,4.79,23.45,2.16,5.65,3.98,11.46,6.56,16.91,5.1,10.77,10.88,21.18,19.41,29.75.5.5,1.03.96,1.55,1.44.12-.7.38-1.42.34-2.11-.18-2.66-.52-5.32-.68-7.98-.55-9.21-1.5-18.53,1.35-27.46,2.13-6.69,1.42-12.8-.89-19.16-2.98-8.19-5.65-16.49-8.4-24.76-.54-1.61-1.26-3.3-1.17-4.92.08-1.51.77-3.32,1.82-4.37,1.66-1.66,3.62-.61,5.29.52.59.4,1.17.91,1.56,1.51,1.81,2.76,4.18,4.5,7.45,5.41,1.76.49,3.38,1.92,4.75,3.25,8.85,8.61,19.78,12.85,31.55,15.63,7.55,1.78,14.96,4.13,22.44,6.21.68.19,1.38.29,2.08.43-.19-.65-.27-1.36-.59-1.95-7.1-12.99-17.07-23.6-28.59-32.57-16.62-12.95-32.54-26.83-50.29-38.31-6.96-4.5-13.04-10.07-17.1-17.53-.68-1.24-1.85-2.2-2.68-3.38-1.51-2.14-3.19-4.22-4.34-6.56-5.04-10.21-9.95-20.49-14.85-30.77-4.27-8.97-8.94-17.79-12.58-27.01-5.87-14.86-11.26-29.92-16.43-45.04-5.57-16.28-10.39-32.71-12.63-49.95-1.65-12.69-5.1-25.17-8.27-37.61-1.49-5.83-3.82-11.53-6.47-16.95-9.67-19.79-23.63-35.97-41.79-48.52-10.37-7.17-20.68-14.42-30.89-21.83-23.32-16.92-49.04-28.43-77.05-35.1-5.58-1.33-10.23-.3-14.14,3.32-2.2,2.04-3.94,4.91-5.02,7.74-3.62,9.48-3.55,19.48-3.43,29.45.09,7.52-.12,15.06.33,22.56.6,10.14.41,20.59,2.87,30.32,4.82,19.06,8.83,38.23,11.8,57.64.11.72.27,1.43.42,2.14,2.53,12.3,8.74,23.06,14.27,34.1,3.8,7.59,7.53,15.21,11.22,22.85,4.33,8.95,8.33,18.07,12.93,26.88,6.58,12.62,16.07,23.01,26.3,32.76,12.04,11.48,26.39,19.75,40.37,28.41,7.75,4.81,16.56,8.02,25.09,11.42,8.11,3.24,16.49,5.81,24.76,8.64,13.26,4.54,24.75,12.21,36,20.32.5.36.73,1.1,1.09,1.66-.63.11-1.28.34-1.9.3-1.4-.09-2.79-.32-4.19-.49-1.6-.69-3.2-1.38-4.79-2.07-.68-.16-1.35-.33-2.03-.49Z"/>
  <path class="cls-1" d="M367.45,191.3c17.22,26.44,30.82,56.63,39.26,89.04,6.78,26.07,9.53,52.55,5.59,79.35-1.19,8.09-3.83,16.01-6.27,23.87-.82,2.65-2.99,4.93-4.77,7.21-1.74,2.23-4.23,2.18-6.62,1.25-.79-.31-1.31-1.3-1.96-1.97.81-.52,1.67-1.54,2.44-1.48,2.59.19,3.59-1.75,4.19-3.38,2.03-5.43,4.33-10.88,5.38-16.53,4.85-25.94,2.94-51.7-2.89-77.3-4.43-19.45-11.19-38.05-19.51-56.17-7.83-17.05-16.77-33.46-27.39-48.87-8.52-12.37-17.89-24.16-27-36.12-10.9-14.3-23.07-27.48-36.65-39.24-30.79-26.66-66.04-43.18-107.14-45.62-26.6-1.58-50.51,6.17-71.05,22.99-18.1,14.82-28.85,34.37-33.62,57.24-4.26,20.49-3.79,41.05-.85,61.61,4.01,28.02,12.36,54.75,23.71,80.67,9.77,22.33,21.23,43.71,34.92,63.8,26.4,38.73,58.6,71.59,98.89,96.18,18.99,11.59,39.67,17.97,61.35,21.82,2.22.39,5.98,1.29,6.15,2.39.57,3.75-3.54,3.31-5.69,4.11-10.61,3.92-21.09,1.74-31.37-1.63-30.8-10.08-56.78-28.16-80.81-49.3-19.56-17.21-37.03-36.37-51.71-57.95-7.24-10.64-14.78-21.13-21.16-32.28-21.93-38.39-38.65-78.79-45.15-122.88-3.13-21.25-4.01-42.56-.06-63.83,4.84-26.08,16.13-48.8,36.36-66.33,19.77-17.14,43.06-25.75,69.22-26.67,21.99-.77,42.95,3.95,63.32,11.75,34.57,13.26,62.48,35.51,86.36,63.47,15.96,18.69,30.75,38.15,44.52,60.79Z"/>
  <path class="cls-1" d="M269.77,233.1c-3.71,2.65-7.83,2.27-11.94,1.61-2.33-.37-3.81-.53-4.56,2.64-2.39,10.04-7.71,14.67-18.21,15.76-3.77.39-5.91,1.45-7.69,5.06-3.04,6.17-9.16,8.29-15.55,9.43-1.66.3-3.38.43-5.07.41-2.2-.03-3.6.43-3.99,3.03-2.29,15.11-20.15,17.34-30.17,12.54-3.92-1.87-6.68-4.91-7.33-9.31-.19-1.26.68-2.67,1.06-4.01,1.05.48,2.09,1,3.17,1.42,4.02,1.56,7.97,3.37,12.1,4.5,1.95.53,4.36.07,6.4-.52,5.07-1.49,6.65-6.21,3.87-10.84-2.85-4.76-2.12-8.39,2.04-9.04,1.49-.24,3.27.45,4.73,1.13,5.55,2.59,10.97,1.51,16.19-.67,4.19-1.75,4.9-3.62,3.26-8-.95-2.55-1.27-4.68.91-6.58,2.13-1.86,4.58-1.71,6.78-.36,2.88,1.77,5.81,2.12,9.06,1.49,6.86-1.32,9.98-5.99,8.29-12.65-.47-1.87-1.33-3.69-1.49-5.58-.36-4.1,2.71-6.41,6.55-4.97,1.54.58,2.78,1.93,4.28,2.69,2.57,1.3,5.13,2.83,7.89,3.52,5.09,1.28,8.06-1.34,7.74-6.51-.12-1.91-.65-3.82-1.21-5.66-.69-2.27-2.41-4.75.29-6.57,2.94-1.98,4.7.63,6.82,2.24,2.68,2.04,5.6,3.88,8.65,5.29,6.5,3,8.91,1.5,9.38-5.55.13-1.89-.53-4.62,1.91-4.75,2.5-.13,1.67,2.8,2.04,4.45.31,1.4.37,2.9.28,4.34-.35,5.34-3.6,8.41-8.98,8.4-1.67,0-3.38-.38-5.02-.79-1.86-.46-3.66-1.16-5.48-1.75-.24,1.9-.34,3.84-.74,5.71-.8,3.74-2.76,6.7-6.25,8.46Z"/>
  <path class="cls-1" d="M302.43,237.81c.76,2.95,1.7,5.23,1.88,7.58.48,6.54-4.02,10.41-10.6,9.29-1.42-.24-2.78-.86-4.19-1.21-1.04-.26-1.77-.22-1.48,1.32.49,2.61,1.12,5.28,1.03,7.9-.34,9.8-5.56,16.7-17.48,15.12-3.56-.47-7.03-1.81-10.47-2.97-1.34-.45-1.31-.12-1.69,1.04-3.42,10.37-7.57,13.04-18.37,11.55-2.64-.36-3.72-.38-4.24,2.76-1.64,9.91-8.06,15.87-18.17,16.65-3.11.24-3.74,1.26-4.53,3.93-1.56,5.29-6.08,8.23-11.59,8.04-9.16-.33-15.85-5.22-21.34-12.09-.49-.62-.35-1.74-.51-2.63.87.11,1.8.06,2.62.35,5.48,1.92,10.83,4.3,16.43,5.77,5.94,1.57,7.13.18,6.09-5.67-.21-1.19-.64-2.37-.68-3.56-.08-2.86,1.84-4.51,4.7-3.99,1.41.26,2.7,1.11,4.11,1.42,4.53,1.02,8.78.36,12.1-3.09,3.19-3.3,3.36-7.38,2.13-11.57-.41-1.39-1.49-2.7-1.49-4.05,0-1.8.21-4.26,1.35-5.22,1.09-.92,3.5-.39,5.32-.29.65.04,1.27.66,1.89,1.04.82.51,1.6,1.11,2.45,1.56,3.49,1.85,7.32,3.87,10.92,1.22,3.41-2.51,2.34-6.51,1.56-10.11-.3-1.42-.93-2.95-.64-4.26.33-1.51,1.19-3.46,2.39-4.05,1.21-.6,3.34-.17,4.67.55,1.64.89,2.82,2.6,4.28,3.87,3.57,3.12,7.72,5.06,12.43,5.55,4.98.52,8.09-2,8.11-6.98.01-3.09-.84-6.21-1.48-9.27-.34-1.65-.97-3.25-1.6-4.83-.83-2.08-1.83-4.21.39-5.94,2.19-1.72,3.99-.35,5.83,1.01,2.14,1.57,4.34,3.16,6.73,4.26,2.3,1.05,4.85,2.86,7.43.8,1.55-1.24,1.23-6.54.26-9.1-.55-1.43-4.81-1.38-1.86-3.77.74-.6,3.52,1.32,5.31,2.07Z"/>
  <path class="cls-1" d="M304.98,300.18c-1.44.16-4.09.93-6.62.63-2.83-.33-5.6-1.49-8.29-2.55-3.96-1.56-3.92-1.66-5.06,2.22-1.95,6.64-6.28,9.34-13.15,8.2-.48-.08-.95-.19-1.43-.29q-4.93-.98-5.57,3.69c-1.35,9.81-8.2,15.55-18.03,15.09-1.21-.06-2.46-.06-3.61-.38-2.96-.8-3.51.48-3.92,3.23-1.32,8.91-6.52,12.09-14.97,9.17-2.71-.94-4.52-1.83-6.73,1.13-2.2,2.95-5.79,3.15-9.35,2.3-7.46-1.77-12.8-6.6-17.64-12.14-1.03-1.18-1.73-2.64-2.58-3.97,1.52.38,3.1.62,4.55,1.18,4.74,1.83,9.4,3.86,14.15,5.63,2.38.89,3.95-.08,5.26-2.43,3.67-6.57,5.36-6.84,11.96-3.01,1.59.92,3.46,1.35,5.2,2.01.03-2.08.24-4.17.03-6.23-.17-1.66-1.05-3.25-1.23-4.91-.47-4.41,2.66-6.82,6.92-5.37,1.35.46,2.53,1.42,3.85,2.02,1.76.8,3.52,1.69,5.38,2.15,8.43,2.09,13.37-2.49,11.84-11.12-.46-2.58-1.65-5.04-2.66-7.49-1.05-2.53-1-4.98,1.32-6.49,2.01-1.32,4.05-.25,5.99,1.09,3.57,2.46,7.13,5.08,11.05,6.83,4.36,1.95,6.31.28,6.3-4.6,0-1.68-.69-3.43-.43-5.04.29-1.78.89-4.26,2.15-4.93,1.26-.67,3.67.2,5.27,1.01,1.68.85,2.85,2.64,4.48,3.64,2.66,1.65,5.36,3.46,8.31,4.38,5.5,1.71,9.04-1.76,7.97-7.43-.22-1.16-.93-2.23-1.25-3.38-.17-.6.03-1.3.06-1.96.88.11,1.99-.09,2.61.37,5.01,3.66,4.35,13.68-2.13,17.74Z"/>
  <path class="cls-1" d="M317.69,313.34c.46,1.4,1.42,3.4,1.76,5.51,1.22,7.41-2.83,12.48-10.25,12.63-2.62.05-5.31-.52-7.87-1.19-2.72-.72-3.09.21-3.38,2.76-1.14,9.94-6.16,13.94-16.16,13.39-.97-.05-2.04.08-2.88-.3-4.8-2.13-8.27-1.33-11.58,3.24-2.43,3.35-6.84,4.63-11.16,4.22-2.38-.22-3.25.03-3.68,2.74-2.22,14.27-15.23,16.25-24.09,10.6-3.23-2.06-6.09-4.73-9.02-7.22-.43-.37-.37-1.31-.54-1.98.64-.12,1.35-.47,1.92-.32,3.04.82,6.01,1.88,9.07,2.61,2.11.5,4.33.93,6.47.8,5.43-.33,8.15-4.71,6.2-9.76-.52-1.34-1.84-2.46-2.05-3.81-.28-1.75-.36-3.92.46-5.36,1.25-2.19,3.68-2,5.85-1.06,1.33.58,2.52,1.53,3.88,1.98,1.81.6,3.72,1.22,5.59,1.24,4.63.05,6.13-1.93,5.16-6.36-.15-.7-.87-1.4-.76-2,.29-1.57.44-3.81,1.47-4.45,1.37-.85,3.63-.87,5.31-.45,1.53.38,2.69,2.1,4.21,2.72,3.78,1.51,7.6,3.29,11.56,3.91,4.5.71,6.87-2.03,6.38-6.55-.23-2.13-.99-4.24-1.72-6.28-.79-2.21-1.19-4.33.94-5.92,2.12-1.58,4.16-.47,6.09.63,1.05.6,1.99,1.42,3.08,1.92,2.64,1.2,5.27,2.48,8.03,3.33,2.54.79,5.58,1.28,7.24-1.38,1.6-2.56,1.59-5.74-.33-8.24-1.55-2.01-3.74-4.32-.89-5.94,2.71-1.54,3.82,1.95,5.71,4.34Z"/>
  <path class="cls-1" d="M238.66,200.42c.69,2.07,1.57,4.09,2.03,6.21,1.79,8.29-3.41,14.4-11.89,14.05-1.2-.05-2.42-.26-3.58-.58-1.85-.5-3.65-1.15-5.48-1.74-.38,1.88-.53,3.85-1.17,5.64-2.29,6.4-7.78,8.89-13.69,10.73-1.14.35-2.42.55-3.59.43-2.89-.3-4.12.7-4.58,3.74-1.63,10.66-6.99,15.14-17.62,15.2-1.45,0-2.97.19-4.34-.16-4.63-1.2-8.81-2.23-13.65.66-3.66,2.18-8.08.21-11.21-2.94-1.85-1.87-3.75-3.85-4.97-6.13-1.13-2.12-3.94-3.88-2.42-6.98,2.04,1.16,4.05,2.37,6.12,3.45,1.93,1.01,3.9,1.95,5.9,2.8,1.84.78,2.71.19,3.79-1.75,2.72-4.9,4.95-5.17,10.04-2.53,2.77,1.44,5.63,3.15,8.63,3.64,5.89.95,11.91-2.13,10.36-9.98-.24-1.19-.53-2.37-.68-3.57-.76-6.02,2.12-8.37,7.52-5.73,3.52,1.72,6.9,2.08,10.54,1.09,5.66-1.54,7.48-4.42,6.47-10.27-.33-1.89-1.31-3.75-1.27-5.61.03-1.48.83-3.31,1.92-4.24.57-.49,2.68.35,3.78,1.06,1.4.9,2.32,2.56,3.73,3.41,3.07,1.84,6.15,4.03,9.53,4.88,4.95,1.25,8.43-2.03,8.39-7.18-.02-1.91-.81-3.81-.76-5.71.02-.63,1.57-1.22,2.41-1.83l-.26-.08Z"/>
  <path class="cls-1" d="M227.4,160.93c-4.42,1.89-8.68,2.52-13.1,1.51-1.89-.43-3.74-1.07-5.62-1.56-1.43-.38-2.23.02-2.26,1.7-.03,1.94-.25,3.87-.45,5.8-1.28,12.6-7.91,17.81-20.1,15.73-2.48-.42-4.92-1.02-7.38-1.53-.35,2.4-.52,4.84-1.09,7.18-1.76,7.17-6.87,12.68-16.7,11.44-7.05-.89-12.67-4.63-18.56-7.94-.47-.26-.55-1.21-.82-1.85.67-.12,1.37-.41,2.02-.32,4.8.71,9.56,1.8,14.38,2.2,7.87.65,10.87-2.48,11.51-10.53.17-2.17-.18-4.38-.01-6.55.44-5.87,3.6-7.71,8.85-5.19,2.4,1.15,4.62,2.73,7.08,3.71,7.4,2.96,11.78.46,12.88-7.33.47-3.35.37-6.79.85-10.14.7-4.94,3.64-6.65,8.31-4.94,2.73,1,5.26,2.57,8.02,3.45,7.79,2.46,12.28-.22,13.41-8.35.45-3.25-.39-6.68-.58-10.03-.04-.68.26-1.38.41-2.07.88.23,1.84.32,2.6.75.57.33,1.07,1.06,1.28,1.71,2.33,7.3,2.26,14.32-2.68,20.67-.74.95-1.62,1.79-2.25,2.47Z"/>
  <path class="cls-1" d="M285.08,367.43c-.6-.57-1.27-.99-1.63-1.6-1.32-2.25-1.73-4.58.21-6.71,1.52-1.67,4.36-1.63,6.64.13.94.72,1.59,1.81,2.42,2.69,2.8,2.96,6.42,3.38,10.09,2.69,4.15-.78,5.56-3.56,3.96-7.54-1.09-2.71-3.19-5.63.07-7.76,2.78-1.82,4.71,1.32,6.96,2.52,2.97,1.58,5.98,3.35,9.2,4.14,5.2,1.26,7.84-1.18,7.44-6.67-.19-2.57-1.42-5.06-2.09-7.61-.16-.62.05-1.33.09-2,.65.05,1.43-.12,1.94.18,3.86,2.23,5.91,9.56,4.29,15.05-1.29,4.39-5.7,7.32-10.65,7.09-.24-.01-.5,0-.72-.09-4.85-1.77-7.86-1.35-9.92,4.62-2.08,6.02-8.44,6.63-14.19,6.63-1.7,0-2.78-.06-2.58,2.13.11,1.18-.18,2.42-.46,3.59-1.66,6.74-5.78,10.23-12.82,10.88-6.12.56-11.45-1.56-16.37-4.97-1.88-1.3-3.17-2.15-5.3.36-3.01,3.55-7.37,3.21-11.47,1.63-1.8-.69-3.6-1.57-5.14-2.71-1.69-1.26-3.08-2.92-4.6-4.41,1.9.32,3.81.6,5.7.97,2.38.46,4.73,1.25,7.13,1.44,3.91.31,4.77-.93,4.33-5.09-.11-1.03.33-2.11.51-3.17.9.18,1.84.25,2.7.56,5.69,2.01,11.32,4.17,17.04,6.06,3.08,1.02,6.3,1.14,8.64-1.7,2.04-2.48,1.7-6.81-.57-10.25-.26-.4-.62-.75-.86-1.04Z"/>
  <path class="cls-1" d="M194.49,200.7c-1.44-1.52-2.88-3.05-4.32-4.57,2.25-.22,4.51-.64,6.76-.64,8.42-.01,10.27-1.58,11.17-9.82,1.17-10.72,4.5-12.47,14.3-7.53,7.92,3.99,11,2.03,10.91-7.07-.02-2.41-.47-4.82-.58-7.23-.26-5.67,2.68-7.47,7.76-4.7,2.54,1.39,4.84,3.25,7.44,4.51,2.72,1.32,5.76,3.95,8.71,1.42,2.97-2.54,1.39-5.71-.32-8.55-.33-.54-.21-1.35-.29-2.03.89.03,1.95-.24,2.64.14,3.58,2.01,5.07,6.35,3.86,10.72-1.17,4.21-4.12,6.73-8.57,6.18-3.53-.44-6.96-1.88-10.37-3.06-1.55-.54-2.16-.23-2.28,1.35-.22,2.89-.12,5.85-.75,8.64-2.03,9.04-7.61,12.44-16.64,10.38-1.41-.32-2.72-1.11-4.13-1.31-.58-.08-1.69.68-1.88,1.28-.59,1.83-.69,3.82-1.26,5.66-2,6.44-5.85,9.02-12.59,8.2-3.29-.4-6.52-1.35-9.77-2.06l.23.11Z"/>
  <path class="cls-1" d="M344.36,370.59c2.46,4.29,3.63,8.34,1.07,12.17-2.47,3.71-6.32,5.11-10.83,4.13-.95-.21-1.91-.38-2.84-.64-1.79-.5-2.61.18-3,1.98-.97,4.47-3.13,8.43-7.56,10-3.29,1.16-7.52.26-10.36,1.92-2.6,1.53-3.33,5.67-6.68,7.26-3.55,1.68-7.06,1.68-10.53.18-4.28-1.86-7.94-4.63-10.58-8.54-.42-.62-.29-1.73-.12-2.56.04-.19,1.33-.34,1.94-.16,2.09.61,4.1,1.51,6.2,2.03,2.1.52,4.27.8,6.42,1.02,2.51.26,3.54-1.19,3.47-3.51-.04-1.44-.64-2.95-.38-4.31.39-2.01.82-4.43,2.16-5.74,1.73-1.7,4.09-.58,5.95.77.98.71,1.82,1.62,2.84,2.25,2.1,1.31,4.4,2.53,6.68.59,2.26-1.92,2.66-4.58,1.78-7.3-.52-1.59-1.95-3-2.08-4.57-.15-1.7.27-3.93,1.35-5.08.68-.72,3.25-.31,4.56.38,1.86.99,3.29,2.76,5.01,4.07,1.15.87,2.41,1.64,3.72,2.24,2.41,1.1,5.1,2.63,7.45.41,2.33-2.19,1.19-4.86-.05-7.3-.33-.64-.86-1.25-.96-1.92-.09-.6.11-1.51.53-1.85.46-.37,1.51-.56,1.97-.28,1.19.74,2.19,1.77,2.85,2.34Z"/>
  <path class="cls-1" d="M194.26,200.59c-.14,3.83.44,7.87-.58,11.46-2.05,7.22-7.46,9.77-14.74,7.81-1.17-.31-2.36-.68-3.41-1.26-1.93-1.08-2.73-.74-3.28,1.53-1.87,7.77-8.68,10.4-15.78,9.52-7.87-.98-14.33-4.38-18.36-11.52-.39-.7-.24-1.7-.35-2.56.89.14,1.9.07,2.66.46,5.01,2.6,10.17,4.57,15.92,4.65,6.88.1,8.17-1.27,7.39-8.06-.08-.72-.54-1.5-.37-2.12.5-1.77.79-4.25,2.03-4.97,1.2-.7,3.72,0,5.21.87,2.49,1.44,4.49,3.71,6.94,5.24,6.44,4,10.57,2.15,12-5.2.18-.95.22-1.93.27-2.9.17-3.24,2.38-3.1,4.67-2.86l-.23-.11Z"/>
  <path class="cls-1" d="M238.92,200.5c-.74-2.43-5.68-2.7-3.72-5.98.64-1.07,4.36-.24,6.66-.4,3.81-.26,7.87.11,11.38-1.09,5.29-1.82,6.39-5.47,3.87-10.4-1.23-2.42-3.15-4.62-.47-7.1,1.8-1.68,3.44-.89,7.17,2.7,1.72,1.65,3.53,3.45,5.65,4.39,5.24,2.33,7.78.42,7.68-5.21-.02-1.27.39-2.55.6-3.83.98.95,2.33,1.73,2.88,2.89,3.12,6.54-.47,12.26-7.76,12.48-1.44.04-2.92-.45-4.33-.27-.89.12-2.06.84-2.45,1.61-6.2,12.26-12.82,14.88-26,10.17-.42-.15-.93-.03-1.4-.03l.26.08Z"/>
  <path class="cls-1" d="M351.43,396.98c-.38-.79-.77-1.59-1.15-2.38,1.1-.17,2.31-.71,3.28-.43,3.07.9,5.55,4.51,5.62,7.71.07,3.17-2.32,6.76-5.38,7.96-.9.35-1.93.83-2.8.68-3.86-.63-5.44,1.35-6.64,4.7-1.05,2.93-3.84,4.25-6.86,4.74-7.45,1.22-18.56-5.26-21.25-12.44-.21-.56.16-1.34.26-2.02.66.13,1.39.13,1.98.42,2.39,1.17,4.67,2.59,7.12,3.6,2,.83,4.16,1.53,6.29,1.69,1.73.13,3.76-.27,5.15-1.19.49-.33-.43-2.92-.84-4.44-.18-.67-1.01-1.26-1-1.88.02-1.36-.06-3.4.71-3.91,1.19-.77,3.09-.7,4.64-.54.77.08,1.4,1.23,2.17,1.8,1.16.85,2.29,1.85,3.6,2.37,2.31.93,4.82,1.39,6.7-.84,2-2.37-.42-3.92-1.6-5.61Z"/>
  <path class="cls-1" d="M372.85,456.94c4.11,11.52,8.24,22.36,11.82,33.38,2.01,6.18,3.61,12.58,4.48,19,.64,4.7-.2,9.6-.45,14.4-.02.35-.52.83-.88.94-.21.06-.65-.46-.91-.78-.13-.16-.1-.46-.12-.71-1.24-17.21-9.21-32.43-14.31-48.5-1.61-5.07-3.31-10.11-4.69-15.24-.37-1.38.32-3.05.53-4.58,1.53.71,3.05,1.41,4.51,2.09Z"/>
  <path class="cls-1" d="M371.38,419.44c.71,1.31,1.4,2.33,1.84,3.45,2.22,5.64-.94,10.61-6.9,10.22-3.67-.24-6.31-.36-9.45,2.73-4.72,4.64-15.86,1.98-19.2-3.8-.8-1.38-1.21-3.19-1.17-4.78.03-1.3,1.01-2.58,1.57-3.86.81.77,1.77,1.42,2.39,2.32,1.98,2.89,5.04,3.66,8.14,4.18,2.3.39,3.91.08,4.18-3.19.4-4.81,1.88-5.33,5.99-3.09.64.35,1.18.92,1.84,1.14,2.47.8,5.94,2.86,7.24,1.93,2.45-1.75-.29-4.77-.74-7.27-.12-.69-.68-1.31-.82-2-.13-.63.02-1.31.05-1.97.84.26,1.89.3,2.47.84,1.05.97,1.83,2.24,2.55,3.16Z"/>
  <path class="cls-1" d="M156.76,130.46c-.34-2.79-1.21-5.86-.97-8.83.31-3.68,2.76-5.71,6.56-6.76,4.63-1.28,8.24-.42,11.21,3.18.71.86,1.22,2.08,1.35,3.19.29,2.38.3,4.8.36,7.2.2,6.77-5.95,10.79-11.87,7.55-2.26-1.24-4.05-3.33-6.64-5.53ZM163.24,125.66c.87,1.09,1.21,1.88,1.79,2.16,1,.49,2.15.83,3.24.82.26,0,.61-1.59.74-2.48.1-.7.16-1.58-.17-2.12-.71-1.14-1.52-2.5-2.63-2.99-.72-.32-2.64.45-2.97,1.2-.49,1.09-.03,2.6,0,3.41Z"/>
  <path class="cls-1" d="M445.16,488.01c-1.15-.08-1.94.08-2.51-.21-1.29-.65-2.51-1.46-3.69-2.3-16.74-12.01-33.46-24.04-50.19-36.06-.79-.57-1.58-1.14-2.29-1.8-.29-.26-.36-.75-.54-1.14.41-.08.91-.36,1.22-.22,1.54.71,3.03,1.53,4.55,2.3,17.37,8.81,33.63,19.33,48.72,31.64,1.68,1.37,3.43,2.74,4.78,4.41.52.64,0,2.11-.04,3.38Z"/>
  <path class="cls-1" d="M379.42,462.98c-2.35-4.71-5.03-10.06-10.15-13.67-.54-.38-.82-2.28-.56-2.45.87-.56,2.12-1.03,3.06-.81,1.08.25,2.22,1.08,2.93,1.97,4.22,5.31,7.64,11.07,9.07,17.82.08.39-.24,1.25-.35,1.25-.58-.02-1.36-.07-1.68-.45-.76-.91-1.31-2.01-2.33-3.66Z"/>
</svg>