<?xml version="1.0" encoding="UTF-8"?>
<svg id="Layer_1" data-name="Layer 1" xmlns="http://www.w3.org/2000/svg" version="1.1" viewBox="0 0 342.12 236.95">
  <defs>
    <style>
      .cls-1 {
        fill: #000;
        stroke-width: 0px;
      }
    </style>
  </defs>
  <path class="cls-1" d="M218.81,26.42c-5.15,2.82-7.39,7.91-9.19,12.94-2.54,7.07-4.31,14.41-6.39,21.64-1.58,5.49-2.89,11.07-4.77,16.45-1.01,2.89-2.67,5.67-4.54,8.12-5.52,7.22-13.26,6.41-17.33-1.79-3.23-6.5-3.97-13.46-2.77-20.57,1.08-6.41,2.47-12.76,3.58-19.16.67-3.89,1.43-8.75-2.49-10.59-3.45-1.62-7.1,1.7-9,4.69-3.6,5.65-6.91,11.58-9.52,17.74-2.62,6.19-4.22,12.82-6.31,19.24-3.24,9.98-7.43,19.85-14.76,27.18-13.67,13.68-29.28,25.02-47.35,32.51-5.4,2.24-10.89,3.72-16.63,1.19-1.64-.73-3.33-1.43-4.82-2.42-4.89-3.22-5.32-4.24-3.15-9.59,1.65-4.08,3.37-8.25,5.79-11.9,8.32-12.59,16.96-24.96,25.45-37.43.51-.76.8-1.67,1.18-2.51-.99-.03-2.23-.46-2.92-.02-5.03,3.2-10.14,6.32-14.83,9.98-3.47,2.71-6.49,6.05-9.43,9.35-7.58,8.49-17.16,14.32-26.62,20.3-7.85,4.96-16.19,5.08-24.69,1.82-.54-.21-.82-1.1-1.22-1.67.41-.26.82-.75,1.24-.75,17.91-.14,29.33-12.14,41.21-22.94,7.4-6.72,15.32-12.5,24.12-17.14,4.63-2.44,9.42-4.55,14.85-3.98,2.63.28,4.43-.84,6.06-2.76,4.39-5.16,8.91-10.22,13.32-15.36.39-.45.41-1.21.6-1.83-.75-.07-1.65-.45-2.24-.18-5.41,2.48-10.85,4.91-16.11,7.67-3.44,1.81-6.52,4.3-9.91,6.22-10.18,5.78-20.47,11.37-30.64,17.16-8.42,4.8-17.16,8.77-26.78,10.33-10.92,1.78-20.52-1.75-29.35-7.9-.31-.21-.55-1.01-.4-1.27.19-.32.85-.52,1.3-.5.48.03.95.37,1.43.57,12.82,5.21,25.63,4.23,37.91-1.27,9.94-4.45,19.48-9.84,28.99-15.18,8.16-4.59,15.96-9.83,24.06-14.54,7.29-4.25,15.01-7.52,23.71-5.86,3.12.59,4.27-1.37,5.73-3.02,11.11-12.55,24.91-21.17,40.06-27.94,15.68-7,31.88-8.83,48.79-5.93,4.57.78,9.35.29,14.04.39,13.38.27,26.34,2.57,38.83,7.51,7.87,3.12,14.86,7.54,20.66,13.65,4.9,5.16,10.22,9.53,16.79,12.47,6.13,2.74,10.64,7.42,13.77,13.37,4.61,8.75,9.58,17.34,13.65,26.34,5.66,12.49,8.48,25.83,7.23,39.51-1.06,11.61-6.67,21.77-13.1,31.37-.24.36-1.18.72-1.27.61-.44-.48-.99-1.15-.96-1.73.11-2.58.22-5.19.67-7.72.41-2.29,1.13-4.55,1.97-6.72,8.09-20.79,3.74-40.27-6.04-59.23-2.51-4.86-5.03-9.71-7.28-14.69-3.13-6.94-8-11.85-14.78-15.46-4.97-2.64-9.95-5.95-13.71-10.06-12.6-13.77-28.87-19-46.55-21.12-5.89-.71-11.9-.31-17.83-.69-1.7-.11-3.56-.87-4.98-1.85-7.51-5.18-15.82-4.87-24.05-3.21-24.31,4.89-44.67,16.88-60.73,35.75-11.14,13.09-22.16,26.33-32.48,40.07-7.96,10.59-14.83,22-22.01,33.17-.98,1.52-1.85,4.17-1.17,5.47,1.46,2.8,4.29,2.2,6.86,1.01,9.91-4.56,19.77-9.23,29.77-13.57,9.71-4.22,17.02-11.16,22.25-20.05,3.92-6.67,6.94-13.9,9.92-21.07,2.38-5.74,3.73-11.92,6.2-17.62,2.46-5.69,5.24-11.39,8.84-16.38,2.48-3.44,6.26-6.38,10.07-8.35,7.37-3.81,13.84-.24,16.03,7.82,1.65,6.07-.13,11.84-.92,17.73-.89,6.68-1.95,13.37-2.23,20.08-.12,2.92,1.27,6.02,2.44,8.83.68,1.64,2.63,1.97,3.8.35,1.65-2.28,3.46-4.68,4.26-7.31,2.34-7.69,4.24-15.51,6.27-23.29,2.58-9.88,5.82-19.49,12.61-27.39,2.34-2.72,5.06-5.31,8.1-7.17,1.66-1.02,4.92-1.25,6.4-.25,1.49,1,2.31,3.98,2.25,6.06-.09,2.78-1.33,5.52-2.05,8.29-3.01,11.56-6.28,23.05-8.89,34.7-1.01,4.48-.78,9.31-.61,13.96.1,2.88,2.08,3.58,4.09,1.57,2.75-2.75,5.54-5.59,7.67-8.81,3.87-5.85,7.04-12.17,10.94-17.99,3.31-4.93,6.86-9.82,11.01-14.04,3.71-3.77,8.66-5.73,14.26-4.54,5.88,1.25,8.97,4.54,8.17,10.39-.65,4.79-2.55,9.46-4.32,14.02-2.72,7.01-6.15,13.76-8.61,20.85-1.24,3.57-1.28,7.65-1.35,11.5-.05,2.86,1.66,3.86,4.1,2.39,3.78-2.26,7.35-4.9,10.86-7.58,3.52-2.69,6.78-5.7,10.29-8.4,2.26-1.74,4.63-3.45,7.18-4.69,2.98-1.45,6.13-3.2,9.43-.34,3.15,2.73,2.69,6.36,1.6,9.4-1.56,4.34-3.78,8.56-6.36,12.4-3.04,4.52-6.98,8.43-10.11,12.91-2.01,2.87-3.25,6.29-4.83,9.46,4.2,2.08,7.32-1.15,10.82-2.29,3.2-1.04,6.19-2.76,9.4-3.75,7.22-2.21,11.22.73,11.07,8.29-.06,3.06-.76,6.19-1.69,9.13-1.8,5.69-1.89,11.22.23,16.81.55,1.45,1.01,2.95,1.35,4.46,2.52,11.04-3.9,20.16-15.26,20.23-7.98.05-15.96-1.71-23.96-2.52-8.48-.86-16.86-3.28-25.53-.72-11.23,3.31-16.83,10.47-17.86,21.91-.08.86.65,1.79,1,2.69.71-.6,1.61-1.07,2.11-1.81,3.04-4.43,6.87-7.84,12.08-9.43,1.45-.44,3.03-.53,4.56-.64.44-.03,1.33.46,1.31.63-.08.69-.24,1.62-.73,1.97-1.67,1.24-3.62,2.11-5.22,3.41-3.02,2.44-6.19,4.82-8.75,7.71-4,4.52-3.85,5.43-.49,10.19.9,1.28,1.86,2.51,2.84,3.73,1.17,1.45,1.28.57,1.66-.63,1.33-4.17,2.33-8.55,4.36-12.38,4.33-8.2,11.98-11.95,20.71-13.83.41-.09.91.21,1.36.33-.15.44-.16,1.1-.46,1.29-2.19,1.39-4.51,2.59-6.66,4.04-10.99,7.36-15.24,17.94-14.48,30.82.05.9.79,1.75,1.21,2.62.71-.61,1.61-1.09,2.09-1.84,4.31-6.81,8.25-13.87,12.89-20.44,5.61-7.94,13.07-13.4,23.17-14.26.68-.06,1.42.45,2.12.69-.31.62-.46,1.53-.96,1.81-15.6,8.65-24.32,23.07-32.17,38.23-1.19,2.3-2.26,4.75-3.86,6.75-3.09,3.89-7.87,3.33-8.93-1.37-1.98-8.78-7.46-15.32-12.49-22.27-8.63-11.92-8.43-23.99-.43-35.52,5.57-8.03,13.67-12.28,23.24-12.32,8.79-.04,17.6,1.22,26.37,2.15,4.12.44,8.17,1.58,12.28,2.17,3.91.56,7.81.49,11.4-1.57,4-2.29,5.21-5.15,4.01-9.8-.39-1.51-.82-3.02-1.41-4.46-2.68-6.56-2.65-13.18-.54-19.86.39-1.24,1.01-2.45,1.13-3.72.14-1.48-.15-3.01-.26-4.51-1.44.38-2.94.61-4.32,1.16-2.9,1.16-5.68,2.6-8.6,3.71-2.17.83-4.43,1.61-6.72,1.93-8.98,1.25-13.71-4.07-10.81-12.64,1.3-3.85,3.84-7.36,6.21-10.74,4.03-5.74,8.4-11.24,12.58-16.88.42-.57.49-1.4.73-2.1-.81.24-1.8.26-2.42.75-5.29,4.23-10.38,8.72-15.81,12.76-3.09,2.3-6.52,4.36-10.11,5.7-6.51,2.45-12.19-.31-13.97-7.02-.96-3.63-.95-7.76-.34-11.5,1.57-9.6,6.08-18.17,10.35-26.81,1.83-3.7,3.54-7.54,4.65-11.5.91-3.27-1.35-5.33-4.42-4.04-3.03,1.27-6.23,3.03-8.32,5.46-3.52,4.12-6.28,8.89-9.23,13.47-3.53,5.46-6.64,11.22-10.48,16.44-2.58,3.51-5.78,6.8-9.32,9.34-4.91,3.53-9.56,1.86-11.88-3.84-.85-2.1-1.12-4.52-1.27-6.82-.77-11.92,2.66-23.14,5.78-34.42,1.44-5.22,2.49-10.55,3.72-15.83.2-.33.39-.66.59-1-.16.37-.31.75-.47,1.12Z"/>
  <path class="cls-1" d="M127.64,146.73c-.39-8.2,2.39-15.99,5.96-23.58,5.04-10.71,11.67-20.3,20.57-28.14,3.08-2.72,6.73-4.83,10.29-6.93.86-.51,2.38.12,3.6.22-.7.84-1.27,1.88-2.13,2.49-13.95,9.83-22.37,23.68-28.29,39.23-2.02,5.3-3.41,10.92-4.4,16.52-1.21,6.81-.59,13.5,4.14,19.18.44.52.5,1.36.74,2.05-.87-.19-1.92-.13-2.59-.6-7.06-4.92-8.13-12.25-7.88-20.43Z"/>
  <path class="cls-1" d="M175.65,92.96c-.46,2.16-.51,2.98-.8,3.7-2.35,5.74-4.95,11.39-7.08,17.21-3.17,8.66-4.78,17.49-1.66,26.61.27.8-.12,1.82-.21,2.74-.77-.59-1.73-1.03-2.27-1.79-2.92-4.12-4.69-8.65-4.38-13.81.7-11.77,5.48-21.97,12.3-31.33.71-.98,1.93-1.59,4.11-3.32Z"/>
  <path class="cls-1" d="M182.37,120.1c1.41-11.94,6.9-20.27,16.31-25.99,1.5-.91,3.27-1.4,4.95-1.95.39-.13,1.36.27,1.36.41-.01.64-.07,1.61-.48,1.87-9.6,6.09-14.95,15.49-19.89,25.24-.35.7-1.38,1.06-2.09,1.58-.1-.69-.21-1.38-.17-1.16Z"/>
  <path class="cls-1" d="M263.9,115.22c-.54.77-.82,1.53-1.36,1.9-6.34,4.4-12.71,8.75-19.12,13.05-.51.34-1.38.29-2.04.17-.23-.04-.53-.88-.45-1.27,1.42-6.45,14.25-15.65,20.87-14.94.65.07,1.25.63,2.11,1.08Z"/>
  <path class="cls-1" d="M232.86,91.9c.94.41,1.55.68,2.17.95-.59.49-1.12,1.08-1.77,1.47-4.01,2.4-8.42,4.3-11.99,7.23-4.98,4.09-9.34,8.94-13.99,13.43-.51.49-1.2.8-1.81,1.19-.04-.72-.34-1.55-.08-2.13,5.48-12.05,15.45-18.42,27.47-22.13Z"/>
  <path class="cls-1" d="M249.83,104.96c-.7.91-.98,1.55-1.21,1.53-7.03-.54-11.15,4.62-16.11,8.15-2.23,1.59-4.54,3.06-6.81,4.59,1.41-2.58,2.46-5.46,4.29-7.69,3.77-4.6,9.15-6.77,14.8-7.98,1.43-.31,3.18.85,5.04,1.4Z"/>
  <path class="cls-1" d="M286.81,137.47c-.07,0,1.3-.12,2.48.31.85.3,1.45,1.32,2.16,2.02-.75.64-1.42,1.68-2.27,1.85-5.33,1.09-10.69,2.03-16.06,2.92-.66.11-1.4-.31-2.11-.48.42-.82.63-1.99,1.31-2.41,4.01-2.47,8.21-4.51,14.49-4.21Z"/>
  <path class="cls-1" d="M102.93,88.97c.48-.86.9-2.39,1.46-2.45,2.73-.28,5.7,2.26,6.04,4.79.31,2.34-1.95,5.61-4.5,6.53-2.59.93-4.96-.12-6.26-2.93-1.62-3.51,0-5.31,3.4-6.06.17.93.34,1.86.51,2.79.18-.17.54-.42.51-.49-.35-.74-.77-1.46-1.16-2.18Z"/>
  <path class="cls-1" d="M257.56,136.81c-.22-.27-1.04-1.18-1-1.22,2.11-2.09,4.06-4.47,6.53-6.01,2.16-1.34,4.87-1.64,7.15.49,1.31,1.23,1.24,3.23-.39,3.69-3.94,1.1-7.93,1.99-12.29,3.05Z"/>
</svg>