<?xml version="1.0" encoding="UTF-8"?>
<svg id="Layer_1" data-name="Layer 1" xmlns="http://www.w3.org/2000/svg" version="1.1" viewBox="0 0 342.12 150.76">
  <defs>
    <style>
      .cls-1 {
        fill: #000;
        stroke-width: 0px;
      }
    </style>
  </defs>
  <path class="cls-1" d="M22.72,18.84c6.35-1.27,12.65-2.88,19.05-3.75,11.98-1.63,24.02-2.34,36.11-.96,7.47.85,14.62,2.84,21.44,5.92,5.82,2.62,10.76,6.52,14.29,11.9,1.36,2.07,2.44,2.81,5.01,1.97,16.39-5.38,32.16-2.79,47.34,4.46,4.54,2.17,8.47,3.08,13.8,1.89,9.64-2.15,19.37-.07,28.85,2.71,11.07,3.25,21.02,8.79,30.8,14.65,2.95,1.77,5.54,2.33,9.08,1.9,8.19-.99,16.22.92,23.93,3.65,9.46,3.34,18.47,7.64,26.75,13.42,4,2.79,8.21,5.27,12.41,7.74,14.3,8.42,22.84,20.78,25.62,37.13,1.87,10.98-3.06,18.22-13.8,21.47-9.65,2.92-19.37,2.46-29.02,1.21-56.8-7.34-112.96-17.88-167.99-34.08-25.24-7.43-50.54-14.52-74.4-25.87-10.72-5.1-21.37-10.32-30.94-17.46-6.3-4.7-11.16-10.48-13.73-18.02-4.35-12.77.36-23.07,12.92-28.2.86-.35,1.73-.69,2.6-1.03-.04-.22-.09-.43-.13-.65ZM26.56,27.27c-1.3.52-2.62.98-3.89,1.55-7.44,3.36-9.75,8.5-7.49,16.43,1.24,4.35,3.24,8.32,6.66,11.25,3.69,3.16,7.52,6.27,11.69,8.74,18.09,10.72,37.25,19.19,57.29,25.46,39.31,12.31,79.14,22.76,119.54,30.76,23.7,4.69,47.66,8.09,71.53,11.83,8.25,1.29,16.59,2.15,24.92,2.65,5.29.32,10.62-.18,15.74-2.25,3.84-1.55,5.4-4.27,5.4-8.05,0-2.07-.36-4.19-.92-6.19-4.89-17.43-16.74-28.72-31.41-38.24-12.07-7.84-25.09-13.18-39.54-14.53-.77-.07-1.59.34-2.39.52.41.52.76,1.1,1.25,1.53,3.83,3.46,7.24,7.22,9.06,12.16,1.25,3.4,2.05,7.06-.77,9.85-2.84,2.8-6.52,3.16-10.4,1.69-5.79-2.2-10.71-5.49-14.62-10.33-3.39-4.19-5.5-8.75-3.72-14.15.77-2.34-.04-3.38-1.86-4.44-11.1-6.51-22.58-12.15-35.44-14.15-4.33-.67-8.78-.54-13.18-.66-.27,0-.95,1.39-.78,1.6,1.15,1.45,2.7,2.61,3.72,4.13,3.1,4.6,6.17,9.22,8.93,14.02,1.51,2.63,1.18,5.56-1.23,7.64-2.19,1.9-4.77,1.47-7.22.27-6.79-3.3-12.98-7.58-17.34-13.71-2.33-3.26-3.94-7.49-4.43-11.46-.39-3.18-1.66-4.45-4.12-5.57-11.1-5.04-22.68-6.66-34.73-5-1.14.16-2.27.5-3.37.87-3.18,1.08-3.21,1.38-1.74,4.27,1.69,3.31,3.28,6.67,4.77,10.07,1.13,2.59.82,5.17-1.48,6.96-2.42,1.88-4.92.89-7.07-.7-7.92-5.87-7.9-12.75-9.15-21.6-1.1-7.77-11.79-12.98-18.99-14.89-6.03-1.6-12.27-2.87-18.48-3.23-15.14-.88-30.14.42-44.74,4.89ZM241.86,70.28c.2,1.45-.02,3,.62,4.02,2.75,4.38,6.7,7.48,11.4,9.58.46.21,1.12-.03,1.69-.06-.07-.45-.04-.95-.24-1.33-2.8-5.21-7.24-8.78-12.05-11.97-.28-.18-.71-.13-1.42-.24Z"/>
</svg>