<?xml version="1.0" encoding="UTF-8"?>
<svg id="Layer_1" data-name="Layer 1" xmlns="http://www.w3.org/2000/svg" version="1.1" viewBox="0 0 275.44 150.76">
  <defs>
    <style>
      .cls-1 {
        fill: #000;
        stroke-width: 0px;
      }
    </style>
  </defs>
  <path class="cls-1" d="M93.27,73.16c-15.98,4.77-32.02,9.38-47.07,16.71-8.33,4.05-15.95,9.22-22.12,16.16-2.86,3.22-5.27,6.93-7.35,10.72-1.89,3.44-1.05,6.18,2.36,7.93,2.74,1.41,5.87,2.58,8.89,2.79,5.28.35,10.69.42,15.9-.35,19.5-2.89,38.25-8.32,55.79-17.54,9.4-4.94,19.04-9.45,28.25-14.72,12.29-7.03,25.64-11.2,38.92-15.62,19.72-6.55,39.63-12.58,59.22-19.51,16.11-5.7,29.59-15.34,38.73-30.18,1.47-2.39,2.14-5.28,3.19-7.94.25-.62.58-1.21.87-1.82.67.52,1.49.92,1.99,1.57,2.64,3.41,2.62,7.39,1.18,11.03-1.49,3.76-3.52,7.45-5.97,10.66-9.41,12.33-22.3,20-36.54,25.17-18.17,6.6-36.63,12.38-54.98,18.48-17.2,5.71-34.09,11.98-49.97,21.05-12.34,7.04-25.31,13.14-38.45,18.57-16.86,6.96-34.53,11.11-52.96,11.03-6.36-.03-12.52-.97-18.19-4.14-8.33-4.66-10.55-10.59-7.19-19.39,2.29-6,6.03-11.01,10.55-15.49,8.89-8.82,19.3-15.39,30.92-19.8,11.74-4.45,23.67-8.42,35.63-12.25,13.62-4.37,26.65-10.15,39.17-16.93,19.13-10.35,38.47-20.27,58.67-28.28,19.37-7.68,39.26-13.95,60.25-15.3,4.96-.32,10.12.49,15.01,1.59,3.52.79,6.79,2.9,6.96,7.34.02.65-.41,1.31-.63,1.97-.61-.22-1.56-.26-1.78-.68-2.14-4.02-6.06-4.89-9.89-4.88-6.25.02-12.63.08-18.72,1.3-22.39,4.46-43.82,11.96-64.23,22.17-14.89,7.45-29.47,15.51-44.35,22.96-10.12,5.07-20.55,9.54-30.81,14.33-.58.27-.96.98-1.44,1.49,0,0,.16-.21.16-.21Z"/>
  <path class="cls-1" d="M65.96,111.38c-5.99.6-11.98,1.41-17.99,1.73-2.84.15-5.84-.24-8.56-1.06-5.01-1.53-6.31-6.24-2.9-10.24,1.54-1.8,3.51-3.4,5.59-4.54,16.09-8.81,33.13-11.47,51.07-7.32,2.3.53,4.54,1.68,6.53,2.97.95.61,1.24,2.23,1.82,3.4-1.12.06-2.33.44-3.33.13-7.75-2.41-15.71-2.7-23.67-2.04-9.75.82-18.93,3.73-27.43,8.65-.4.23-.75.55-1.12.82.63.32,1.28.93,1.9.9,2.64-.14,5.27-.56,7.91-.7,9.66-.52,19.31-.98,28.72-3.5.6-.16,1.32.09,1.98.14-.25.66-.31,1.64-.78,1.92-3.49,2.07-6.94,4.32-10.66,5.89-2.86,1.2-6.1,1.47-9.17,2.15.03.24.06.47.09.71Z"/>
  <path class="cls-1" d="M237.04,39.58c-14.09,1.79-28.1,4.69-42.41,3.68-3.79-.27-7.75-.9-11.23-2.34-5.03-2.08-5.35-7.49-.45-9.9,4.67-2.3,9.9-4.06,15.05-4.71,14.62-1.83,29.32-2.17,43.9.57,2.75.52,5.39,1.88,7.89,3.21.63.34.5,2.08.73,3.17-.83.11-1.74.48-2.48.28-13.24-3.74-26.7-3.25-40.17-2.1-5.51.47-10.98,1.5-16.44,2.42-.72.12-1.3,1.05-1.95,1.61.8.36,1.58.99,2.4,1.03,7.21.38,14.42.9,21.63.89,8.65-.01,17.3-.51,25.95-.78.71-.02,1.45.06,2.15.23.68.16,1.31.48,1.97.74-.53.3-1.03.72-1.59.88-1.63.43-3.3.76-4.95,1.13Z"/>
  <path class="cls-1" d="M195.68,63.52c-14.77,2.28-29.49,5.36-44.56,4.28-3.31-.24-6.78-.87-9.79-2.2-4.48-1.97-4.8-6.78-.45-8.86,4.49-2.16,9.49-3.93,14.4-4.41,10.78-1.06,21.65-1.41,32.49-1.58,3.25-.05,7.43-1.32,9.54,3-2.6,2.65-5.86,1.31-8.87,1.47-12.77.67-25.56,1.22-38.1,4.05-.7.16-1.36.48-2.04.73.76.26,1.5.61,2.28.77.94.2,1.91.35,2.86.35,7.23-.05,14.46-.04,21.69-.26,9.15-.29,18.29-.8,27.43-1.15.54-.02,1.1.58,1.64.89-.48.45-.89,1.14-1.45,1.29-2.33.63-4.71,1.09-7.07,1.62Z"/>
  <path class="cls-1" d="M93.1,73.36c10.97-3.11,22.11-5.06,33.54-4.58,3.82.16,7.68.69,11.4,1.56,1.99.47,3.82,1.89,5.52,3.16.53.4.7,1.83.43,2.55-.16.42-1.64.7-2.36.48-12.55-3.85-24.82-1.21-37.09,1.49-.62.14-1.15.7-1.72,1.07.67.2,1.32.52,2,.58,7.91.71,15.82,1.37,23.74,2.07,1.91.17,3.83.38,5.73.67.33.05.79.58.81.91.02.37-.3.98-.62,1.11-1.33.54-2.7,1.04-4.09,1.36-9.24,2.14-18.59,2.54-28.01,1.63-1.67-.16-3.33-.55-4.96-1-8.51-2.35-9.74-6.32-4.15-13.28l-.16.21Z"/>
</svg>