<?xml version="1.0" encoding="UTF-8"?>
<svg id="Layer_1" data-name="Layer 1" xmlns="http://www.w3.org/2000/svg" version="1.1" viewBox="0 0 233.4 150.76">
  <defs>
    <style>
      .cls-1 {
        fill: #000;
        stroke-width: 0px;
      }
    </style>
  </defs>
  <path class="cls-1" d="M87.16,71.64c-11.05,4.33-20.81.73-30.13-5.04-6.95-4.3-12.41-10.16-16.46-17.22-1.25-2.17-2.07-4.82-2.23-7.31-.11-1.78,1.21-3.65,1.89-5.48-.22-.06-.45-.19-.67-.17-3.78.24-4.15-3.88-6.89-5.34-6.87-3.64-13.28-8.14-19.87-12.3q-4.21-2.66-6.72-7.22c2.81-.91,4.94.46,7.02,1.75,7.03,4.37,14.05,8.75,21.03,13.2,2.41,1.54,4.64,2.11,7.77,2.09,5.08-.03,9.7-1.42,14.51-2.32,1.16-.22,2.38-.66,3.5-.48,12.48,1.97,23.82,6.26,30.91,17.5,2.32,3.68,3.32,8.18,4.88,12.2,3.79-1.02,7.75-2.28,11.81-3.08,2.01-.4,4.31-.38,6.28.18,11.87,3.34,20.63,10.04,23.96,22.59.7,2.66,2.15,5.15,3.43,7.63,2,3.89,1.48,6.58-2.2,8.85-1.78,1.1-3.81,1.79-5.73,2.66l.24.11c-2.37-2.23-5-1.71-7.77-.89-12.36,3.69-22.9-.11-32.54-7.89-4.51-3.64-6.96-7.97-5.81-13.89,1.59,0,3.73-1.84,4.1,1.68.34,3.23,2.48,5.57,5.22,7.07,3.91,2.14,7.83,4.51,12.04,5.78,3.49,1.05,7.48,1.22,11.14.78,8.9-1.06,11.63-7.48,7.08-15.3-2.61-4.49-6.27-7.76-11-9.52-6.3-2.35-12.98-3.19-20.34-4.42,1.93,5.09-.04,7.74-3.95,9.72-1.74.88-3.01,2.68-4.5,4.06ZM42.04,40.74c2.61,6.14,7.05,10.4,11.82,14.13,6.33,4.96,13.12,9.27,21.62,9.57,6.15.22,9.72-3.38,9.22-9.49-.39-4.76-2.73-8.57-6.24-11.52-7.63-6.41-17.02-8.92-26.42-11.23-.74-.18-2.51.86-2.61,1.51-.64,4.17-4.15,5.35-7.38,7.02ZM133.68,90.35c3.14-2.19,5.08-3.51,3.97-7.74-1.42,2.76-2.35,4.58-3.97,7.74ZM43.81,33.07c-.06.38-.16.77-.15,1.15,0,.13.29.25.44.38.16-.26.5-.58.43-.75-.11-.31-.47-.52-.73-.78Z"/>
  <path class="cls-1" d="M133.24,94.33c.5.76,1.54,1.62,1.42,2.26-.89,4.77,2.14,7.71,5.13,10.22,7.93,6.66,17.25,9.5,27.59,8.49,3.92-.38,7.36-2.01,9.17-5.77,1.5-3.12,1.58-6.16-.42-9.38-6.39-10.3-15.85-15.76-27.41-18.15-.67-.14-1.35-.22-2.78-.45,2.6-3.09,5.24-4.62,8.91-4.86,7.58-.49,13.85,2.58,19.36,7.22,5.61,4.73,10.98,9.91,12.06,17.7.51,3.65.2,7.4.29,12.23,1.87,1.08,4.65,2.75,7.48,4.31,8.68,4.78,17.42,9.45,26.05,14.32,2.01,1.14,3.72,2.84,5.45,4.41.34.31.35,1.36.09,1.82-.19.34-1.22.54-1.66.34-3.84-1.81-7.7-3.59-11.41-5.64-9.71-5.36-19.34-10.84-29.61-16.62-5.61,6.6-13.53,7.85-21.99,6.78-10.13-1.28-19.13-5.14-26.09-12.83-5.04-5.56-5.34-10.81-1.38-16.3l-.24-.11Z"/>
</svg>