<?xml version="1.0" encoding="UTF-8"?>
<svg id="Layer_1" data-name="Layer 1" xmlns="http://www.w3.org/2000/svg" version="1.1" viewBox="0 0 185.56 150.76">
  <defs>
    <style>
      .cls-1 {
        fill: #000;
        stroke-width: 0px;
      }
    </style>
  </defs>
  <path class="cls-1" d="M76.8,144.05c-10.62,0-21.25-.36-31.85.1-11.28.49-20.67-4.04-29.56-9.99-5.5-3.68-9.48-9.28-9.82-15.75-.5-9.65-.12-19.45,1.05-29.05,1.34-10.9,3.95-21.65,6.03-32.46,1.4-7.27,4.48-13.73,9.87-18.88C42.64,18.79,66.51,8.07,94.44,7.74c19.92-.24,37,7.98,52.26,20.21,5.61,4.5,10.78,9.54,16.23,14.26,18.08,15.65,24.95,40.57,16.7,60.81-.64,1.56-1.05,3.36-2.11,4.59-9.57,11.12-17.93,23.47-32.97,28.55-13.37,4.52-26.75,7.97-40.99,7.55-8.91-.26-17.84-.05-26.76-.05,0,.13,0,.26,0,.39ZM99.68,72.11c-.1-.39-.12-.84-.33-1.16-.11-.17-.56-.12-.85-.17.46.37.93.75,1.39,1.12,2.34,3.94,5.18,1.99,7.87.56.45-.24.5-1.23.74-1.87-2.14.39-4.27.8-6.41,1.18-.79.14-1.6.23-2.4.35ZM142.83,63.4c4.37,1.12,7.32,1.53,9.94,2.7,1.18.53,1.69,2.56,2.5,3.91-1.1.05-2.27.36-3.29.11-8.86-2.23-16.52,2.06-24.47,4.58-.53.17-1.03,3.11-.48,3.63,8.62,8.13,17.26,16.25,26.22,23.98,4.66,4.02,7.05,3.47,10.25-1.31,1.16-1.73,1.98-3.72,2.7-5.68,4.78-13.04-4.11-37.77-16.62-44.8-2.4-1.35-6.82-1.25-9.29.08-7.39,3.98-14.86,8.23-18.87,16.27-.67,1.34-1.35,2.69-2.03,4.03,1.47-.15,3.05-.03,4.4-.51,6.69-2.35,13.33-4.87,19.04-6.98ZM94.68,132.74c0,.18,0,.36,0,.54,8.06,0,16.11.12,24.16-.08,2.23-.05,4.44-1.02,6.65-1.57-2.03-.38-4.05-.88-6.1-1.13-13.02-1.6-26.18-2.47-39.05-4.86-16.34-3.04-32.21-7.98-44.16-20.55-3.88-4.08-6.8-9.06-10.15-13.63-3.05,4.94-5.86,10.06-9.21,14.79-5.06,7.12-5.21,10.41,1.68,16.12,8.01,6.63,17.43,10.32,28,10.36,16.06.06,32.12.02,48.19.02ZM91.8,65.72c-.89-2.2-1-3.16-1.53-3.7-8.95-8.98-17.87-17.99-26.99-26.79-2.58-2.48-5.82-1.78-7.73.98-4.06,5.84-7.85,11.88-11.33,18.08-.48.85,1.24,4.28,2.24,4.42,13.39,1.89,26.44,4.8,38.99,10.04,1.47.61,4.28-1.98,6.36-3.03ZM106.9,44.49c-.07,0-.14,0-.22,0,0-4.23.31-8.49-.14-12.68-.19-1.8-1.6-4.5-3.05-4.97-10.27-3.35-20.46-8.21-31.52-1.95-4.97,2.82-5.14,2.69-1.19,6.48,6.98,6.7,13.73,13.65,20.52,20.55,1.78,1.8,3.02,4.53,5.12,5.51,2.45,1.15,5.81,1.62,8.31.86,1.34-.41,2.1-3.97,2.41-6.21.34-2.47-.13-5.06-.24-7.6ZM46.23,67.05c-4.33-.55-6.21,1.13-6.55,6.38-.73,11.24,6.16,22.62,16.51,27.83,3.76,1.89,5.94,1.35,8.16-2.42,3.83-6.5,8.22-12.68,12.48-18.93,1.4-2.05,2.12-3.91-.91-4.77-9.7-2.75-19.44-5.32-29.69-8.11ZM123.25,114.7l.14.95c8.66-1.64,17.32-3.23,25.95-4.97,1.01-.2,1.86-1.21,2.79-1.84-.65-.51-1.31-1.01-1.94-1.54-8.67-7.32-17.33-14.65-25.99-21.97-1.93-1.63-3.69-3.56-5.84-4.8-3.11-1.8-7.55.55-7.42,3.99.33,8.82.88,17.65,1.81,26.43.15,1.38,2.54,3.05,4.22,3.6,1.91.62,4.17.14,6.28.14ZM97.68,113.51c7.99-.39,8.05-.39,7.1-8.69-.52-4.59-1.24-9.17-1.96-13.74-1.33-8.48-8.57-12.18-15.05-6.99-6.87,5.51-12.96,12.02-19.17,18.31-2.66,2.69-1.14,4.3,2.09,5.01,9.01,1.99,17.99,4.06,26.99,6.1ZM112.17,56.73c.44,1.29.96,2.79,1.47,4.29,1.07-.56,2.54-.84,3.16-1.72,5.07-7.21,12.19-11.47,20.18-14.63,1.7-.67,2.87-1.96.33-3.22-6.02-3-12.08-5.94-18.12-8.91-1.5,5.52-2.95,11.05-4.51,16.56-.68,2.42-1.57,4.78-2.52,7.62Z"/>
</svg>