<?xml version="1.0" encoding="UTF-8"?>
<svg id="Layer_1" data-name="Layer 1" xmlns="http://www.w3.org/2000/svg" version="1.1" viewBox="0 0 169.13 150.76">
  <defs>
    <style>
      .cls-1 {
        fill: #000;
        stroke-width: 0px;
      }
    </style>
  </defs>
  <path class="cls-1" d="M74.41,146.08c-15.07-2.82-32.27-5.96-49.42-9.32-2.55-.5-5-1.86-7.32-3.14-14.99-8.31-16.75-20.07-4.14-31.9,15.15-14.22,30.79-27.91,46.26-41.78,16.27-14.59,32.54-29.18,48.93-43.63,3.16-2.78,6.67-5.32,10.37-7.31,10.21-5.5,15.04-5.26,22.4,3.64,22.34,27,34.93,67.93,11.99,101.78-9.35,13.81-21.74,21.97-37.08,25.58-12.86,3.03-26.23,3.9-41.99,6.09ZM143.4,99.21c-2.36.88-5.17,1.22-7.01,2.74-13.82,11.43-29.84,18.81-47.09,21.97-16.58,3.04-33.68,3.23-50.55,4.68-1.57.14-3.14.32-4.72.49,1.61.57,3.2,1.23,4.85,1.71,27.85,8.18,54.65,3.33,80.62-7.45,10.97-4.55,19.45-12.67,23.64-24.38.36-.82.71-1.65,1.07-2.47-.27.9-.54,1.8-.81,2.71ZM101.06,107.46c5.57-2.21,10.17-3.55,14.27-5.8,4.05-2.23,7.6-5.37,11.37-8.12-3.54-2.65-6.96-5.47-10.64-7.9-5.26-3.48-10.4-7.54-16.21-9.63-3.13-1.12-8.09.47-11.26,2.4-4.24,2.59.13,5.08,1.42,7.58,2.88,5.57,5.56,11.25,8.37,16.86.78,1.56,1.76,3.03,2.68,4.61ZM64.05,115.35c7.78-1.3,15.56-2.6,23.35-3.88,4.19-.69,5.31-2.8,3.06-6.51-3.82-6.29-7.54-12.64-11.56-18.8-1-1.53-3.45-3.7-4.39-3.35-2.01.75-4.09,2.67-5.04,4.64-3.43,7.07-6.05,14.55-9.65,21.52-2.87,5.54-.32,6.13,4.24,6.37ZM139.17,28c-2.01-4.34-3.54-8.35-5.75-11.92-.58-.94-4.08-1.41-4.93-.64-8.99,8.14-17.77,16.51-26.4,25.03-.66.65,0,2.96.53,4.31.2.52,1.93.99,2.62.69,10.71-4.57,21.39-9.2,31.97-14.04,1.04-.48,1.41-2.42,1.95-3.43ZM117.05,64.17c-2.32,0-4.98-.19-7.6.08-1.39.15-2.69,1.1-4.02,1.7.64,1.29.94,3.08,1.98,3.78,7.01,4.69,14.55,8.66,21.18,13.82,5.22,4.07,8.47,2.72,11.82-1.74,1.58-2.11,3.35-4.13,4.62-6.42,2.87-5.2,1.68-8.02-3.98-8.77-7.85-1.04-15.76-1.62-23.98-2.44ZM42.13,115.2c1.31-.61,6.24-1.3,8.05-4.05,4.9-7.45,8.52-15.76,12.51-23.79.35-.7-.03-2.55-.46-2.69-1.27-.43-3.28-.9-4.06-.24-9.24,7.87-18.36,15.89-27.37,24.01-.97.88-1.79,2.93-1.42,4.01.34.99,2.32,1.69,3.69,1.98,2.05.43,4.2.39,9.06.76ZM149.19,56.3c-.83-12.36-3.29-13.81-14.32-10.45-3.98,1.21-8.16,1.78-12.27,2.59-5.13,1.01-10.29,1.89-15.39,3.04-.62.14-1.38,1.62-1.29,2.38.08.68,1.42,1.85,1.94,1.72,12.82-3.2,25.02-.75,37.16,3.49,1.09.38,3.17-2.07,4.16-2.76ZM94.11,54.23c-.95-.78-2.75-2.45-2.89-2.33-6.58,6.1-13.02,12.36-19.45,18.62-.29.28-.37.78-.54,1.18.97.15,2.16.74,2.86.38,8-4.09,16.52-7.65,20.02-17.85Z"/>
</svg>