<?xml version="1.0" encoding="UTF-8"?>
<svg id="Layer_1" data-name="Layer 1" xmlns="http://www.w3.org/2000/svg" version="1.1" viewBox="0 0 212.62 150.76">
  <defs>
    <style>
      .cls-1 {
        fill: #000;
        stroke-width: 0px;
      }
    </style>
  </defs>
  <path class="cls-1" d="M83.09,68.08c6.11,3.12,8.25,9,9.58,14.98,2.22,10.02.61,19.71-5.03,28.35-3.49,5.34-7.51,10.39-11.69,15.23-7.29,8.45-16.9,12.59-27.88,13.06-6.14.26-11.61,1.53-16.76,4.99-4.75,3.19-10.11,4.17-15.79,2.51-7.66-2.24-11.24-8.09-9.42-15.78.47-1.99,1.14-4.01,2.15-5.77,4.27-7.45,6.22-15.67,8.76-23.77,5.13-16.37,13.52-30.64,30.27-37.96,3.8-1.66,7.66-2.97,11.97-2.51,5.57.6,9.25-3.24,13.53-5.89,3.17-1.97,4.3-3.78,3.54-7.7-2.1-10.85,1.08-20.3,8.69-28.37,4.24-4.49,8.17-9.27,12.23-13.94,1.43-1.65,2.3-.72,3.01.64,1.2,2.29.81,4.48-.73,6.45-2.67,3.42-5.41,6.8-8.14,10.17-2.16,2.67-4.53,5.18-6.49,7.98-2.38,3.41-2.15,4.52.99,6.82,5.25,3.85,11.56,4.07,17.67,4.74,1.13.12,2.47-1.05,3.61-1.79,4.62-3.01,9.26-5.99,13.77-9.15,9.27-6.49,19.62-8.67,30.7-7.8,6.58.51,12.67,2.98,17.66,7.07,8.42,6.89,18.31,11.21,27.41,16.88,3.09,1.92,6.28,3.72,9.15,5.93,1.07.82,2.2,3,1.81,3.93-.6,1.4-2.89,3.44-3.79,3.14-6.46-2.12-11.06,1.79-16.46,3.86-3.8,1.46-8.65,1.05-12.85.36-5.46-.9-10.37-.54-15.36,1.92-4.62,2.28-9.61,2.74-14.77,1.88-6.78-1.13-13.65-1.73-20.38-3.05-5.75-1.12-10.64-4.2-14.52-8.64-1.19-1.36-2.31-2.93-2.91-4.6-.48-1.35-.67-3.96-.03-4.33,2.46-1.41,2.05,1.53,2.73,2.55,4.55,6.84,11.38,9.88,19.01,11.11,5.86.95,11.86,1.23,17.8,1.35,3.14.06,6.83.03,9.35-1.48,7.53-4.54,15.45-3.88,23.37-2.67,5.4.82,9.37-1.16,13.11-4.46,1.08-.95,1.16-1.89-.25-2.64-.61-.33-1.18-.73-1.82-.96-9.2-3.31-16.63-9.48-24.58-14.87-11.53-7.83-23.92-8.87-36.54-2.87-6.62,3.14-12.75,7.32-19.37,10.48-8.31,3.96-16.69,4.03-24.67-1.28-2.68-1.78-3.44-1.52-3.38,1.63.05,3.38-.36,7.57,1.39,9.97,3.74,5.14,3.57,9.59.43,14.53-2.18.41-2.76-.41-2.35-2.58.48-2.55,2.32-6-1-7.28-1.52-.59-4.52,1.52-6.32,3.03-4,3.36-8.29,5.8-13.61,5.7-10.02-.19-17.74,4.76-23.72,11.91-6.46,7.72-11.46,16.48-13.16,26.77-1.27,7.73-3.96,15.02-7.87,21.85-.79,1.37-1.41,2.89-1.84,4.41-1.43,5.11.27,7.78,5.49,8.91,3.55.77,6.88.04,9.92-1.75,5.43-3.2,11.02-4.81,17.52-4.86,10.23-.08,19.2-4.02,25.75-12.34,3.54-4.49,7.34-8.83,10.36-13.66,6.28-10.03,7.19-20.62,1.43-31.23-1.68-3.09-2.37-5.89-.73-9.07ZM197.28,51.65l-.34.32.41.14-.07-.47Z"/>
  <path class="cls-1" d="M61.58,86.23c2.41-1.11,4.26-2.7,5.86-2.48,1.56.21,2.87,2.27,4.28,3.52-.66.51-1.86,1.5-1.9,1.46-1.78-1.99-3.77-2.02-6.05-.97-.25.12-.89-.59-2.2-1.52Z"/>
  <path class="cls-1" d="M34.71,105.47c-2.11,1.65-3.65,2.89-5.26,4.04-.07.05-1.04-.7-1.02-1.05.09-2.22.88-4.11,3.4-4.38.68-.07,1.44.66,2.89,1.39Z"/>
  <path class="cls-1" d="M70.65,102.61c1.27-.75,2.3-1.42,3.41-1.92.11-.05,1.1,1.41,1.03,1.47-.93.85-1.95,1.61-3.02,2.28-.05.03-.73-.95-1.42-1.83Z"/>
  <path class="cls-1" d="M39.19,82.73c1.02,2.85,1.7,4.05,1.47,4.25-.64.58-1.64.75-2.5,1.09-.23-.74-.71-1.51-.61-2.2.11-.79.74-1.5,1.64-3.14Z"/>
  <path class="cls-1" d="M59.71,104.01c.48,1.42,1.2,2.47.92,2.92-.5.81-1.58,1.26-2.43,1.86-.39-.74-1.26-1.67-1.06-2.18.34-.86,1.36-1.45,2.56-2.6Z"/>
  <path class="cls-1" d="M62.86,119.57c.53,1.03.88,1.73,1.24,2.43-.97.29-1.96.84-2.89.76-.51-.04-.92-1.16-1.38-1.79.9-.42,1.81-.84,3.04-1.4Z"/>
  <path class="cls-1" d="M60.19,79.26c-1.45.11-2.42.48-2.92.14-.53-.35-.61-1.37-.89-2.1.73-.27,1.64-.92,2.15-.7.61.28.87,1.31,1.66,2.65Z"/>
  <path class="cls-1" d="M49.19,119.27c-.66-1.35-1.36-2.1-1.25-2.71.11-.63,1.01-1.12,1.56-1.67.51.65,1.36,1.27,1.43,1.97.06.56-.83,1.21-1.75,2.4Z"/>
  <path class="cls-1" d="M46.91,103.01c-2.15.78-3.1,1.3-3.22,1.15-.49-.61-.81-1.4-.97-2.18-.03-.13,1.1-.81,1.52-.67.79.24,1.46.89,2.67,1.7Z"/>
  <path class="cls-1" d="M73.02,70.52c.19.54.44,1.04.5,1.57.01.12-.9.52-.97.44-.35-.42-.56-.95-.82-1.44.35-.16.7-.31,1.28-.57Z"/>
</svg>