<?xml version="1.0" encoding="UTF-8"?>
<svg id="Layer_1" data-name="Layer 1" xmlns="http://www.w3.org/2000/svg" version="1.1" viewBox="0 0 98.58 150.76">
  <defs>
    <style>
      .cls-1 {
        fill: #000;
        stroke-width: 0px;
      }
    </style>
  </defs>
  <path class="cls-1" d="M41.96,149.46c-11.3-.11-18.54-4.55-22.11-15.39-4.53-13.75-8.04-27.84-12.05-41.76-4.96-17.23,4.3-39.22,25.21-44.72,5.57-1.46,4.2-3.01,1.19-5.82-3.84-3.6-7.64-7.28-11.1-11.24-3.18-3.64-6.3-7.47-8.67-11.65-1.87-3.31-4.49-7.11-1.1-11.2,2.67-3.23,8-4.03,13.32-.7,4.74,2.97,8.94,6.9,13.05,10.75,5.83,5.45,5.66,5.56,10.06-.58,1.64-2.29,3.15-4.91,5.36-6.46,1.66-1.17,4.83-1.81,6.46-.98,1.66.85,3.46,4.02,3.11,5.76-1.16,5.88-2.99,11.68-5.08,17.32-1.32,3.54-.22,3.87,2.95,3.91,20.44.25,28.87,7.8,31.56,28.7,2.98,23.12-3.75,44.21-15.53,63.59-8.12,13.36-22.75,20.6-36.62,20.47ZM82.61,76.46c-1.05-5.92-2.05-11.86-3.17-17.77-1.07-5.6-5.21-8.44-10.24-8.91-4.71-.43-9.59.54-14.33,1.27-1.05.16-2.84,2.38-2.61,2.85,4.82,10.09-2.42,4.7-5.25,3.97-15.34-3.97-27.61,4.77-28.3,20.59-.19,4.42-.38,9.16.94,13.26,3.96,12.3,8.71,24.35,13.08,36.53,1.78,4.96,5.32,6.54,10.35,6.59,11.41.1,19.71-5.93,25.03-14.81,7.91-13.21,14.04-27.41,14.52-43.58ZM22.22,13.29c0,1.24-.39,2.48.06,3.13,5.05,7.22,10.19,14.38,15.44,21.45.53.71,2.26,1.28,2.93.93.83-.43,1.66-1.92,1.57-2.88-.2-2.29-.21-5.23-1.59-6.68-4.93-5.18-10.39-9.86-15.7-14.68-.56-.51-1.43-.69-2.71-1.27ZM44.88,45.55h-1.42c.19.26.39.51.58.77.24-.22.47-.43.84-.77Z"/>
  <path class="cls-1" d="M47.6,80.9c-1.51,2.82-2.56,6.06-4.65,8.36-2.79,3.06-6.57,6.54-7.59-1.58-.1-.77-1.72-1.43-2.73-1.99-3.17-1.77-5.12-4.12-3.39-7.86,1.92-4.15,5.29-6.18,9.81-4.95,2.26.61,4.26,2.2,6.37,3.35,0,0-.21-.23-.21-.23.9,1.74,1.79,3.47,2.69,5.21,0,0-.3-.3-.3-.3Z"/>
  <path class="cls-1" d="M54.03,114.88c-.05,2.67-.68,6.34-5.13,7.25-2.19.45-5.27.64-4.9-3.19.46-4.69-.81-8.49-4.34-11.74-.88-.82-1.38-3.53-.77-4.18,1.2-1.29,3.33-2.49,5-2.41,5.65.28,9.8,5.96,10.14,14.26Z"/>
  <path class="cls-1" d="M45.43,76.23c.97-3.39,1.46-7.04,3.06-10.11,1.54-2.96,7.78-2.88,7.86-.31.12,3.79-1.61,7.73,3.41,9.63-.93,1.61-1.56,4.25-2.85,4.63-2.93.87-6.19.63-9.31.83,0,0,.3.3.3.3-.9-1.74-1.79-3.47-2.69-5.21l.21.23Z"/>
  <path class="cls-1" d="M65.86,101.16c.37-.31-.56,1.09-1.72,1.31-4.04.74-7.21-1.26-8.55-4.84-1.42-3.81-1.43-7.88,2.58-10.66,2.57-1.78,5.79-.56,6.33,2.59.56,3.28.79,6.62,1.36,11.61Z"/>
  <path class="cls-1" d="M74.81,68.25c-1.57,2.64-2.48,4.91-4.06,6.51-.86.88-2.87.63-4.36.88-.73-4.86-1.46-9.71-2.19-14.57,1.77-.16,4.29-1.14,5.16-.34,2.19,2.03,3.63,4.87,5.45,7.51Z"/>
</svg>