<?xml version="1.0" encoding="UTF-8"?>
<svg id="Layer_1" data-name="Layer 1" xmlns="http://www.w3.org/2000/svg" version="1.1" viewBox="0 0 98.58 150.76">
  <defs>
    <style>
      .cls-1 {
        fill: #000;
        stroke-width: 0px;
      }
    </style>
  </defs>
  <path class="cls-1" d="M9.18,100.98c-.59-9.4,1.46-19.37,3.31-28.43,2.36-11.55,7.53-21.1,21.25-22.57,4.16-.45,5.24-3.15,2.01-6.52-4.83-5.04-9.58-9.99-9.76-17.72-.17-7.66,2.67-13.35,8.53-15.69,6.36-2.54,13.48-.01,18.1,6.45.62.87,1.25,1.75,1.7,2.71,1.83,3.82,3.59,7.66,5.38,11.5,3.57-1.98,7.13-3.97,10.72-5.92.94-.51,2.03-1.36,2.91-1.21,1.94.34,4.02.89,5.55,2.02.57.42.26,3.04-.48,4.08-3.4,4.78-7.14,9.31-10.64,14.02-2.4,3.24-4.49,5.66,2,7.67,14.35,4.45,17.44,9.4,18.11,24.24.94,20.77-6.04,38.68-19.32,54.38-7.54,8.91-16.88,14.19-28.6,16.02-16.22,2.52-27.6-4.78-29.61-20.91-.85-6.87.13-13.82-.82-20.61-.16-1.15-.27-2.31-.35-3.48ZM26.51,97.42c-.02,5.83.34,11.71.9,17.71,1.24,13.39,7.17,16.54,19.32,10.47,2.81-1.4,5.55-3.26,7.77-5.46,10.13-9.99,16.17-22.49,19.48-36.02,2.39-9.77.61-19.24-9.02-25.1-1.17-.71-4.23-.17-5.08.87-1.59,1.97-1.88,4.95-3.31,7.11-2.13,3.23-4.09,3.66-7.2.07-7.57-8.74-16.23-7.24-19.36,3.75-2.54,8.93-3.48,17.71-3.51,26.6ZM53.29,41.9c-2.51-5.85-4.91-12.25-8.09-18.24-.78-1.46-4.11-1.57-6.26-2.31-.4,1.92-1.74,4.3-1.05,5.67,3.08,6.14,6.68,12.01,10.23,17.9.48.79,1.71,1.13,2.59,1.68.68-1.24,1.37-2.49,2.58-4.7Z"/>
  <path class="cls-1" d="M54.52,83.65c.08-.43.28-.9.63-1.4,1.51-2.22,5.05-2.54,7.48-3.04.51.83,2.22,3.59,1.48,4.54-1.23,1.56-3.59,3.14-5.43,3.09-2.3-.07-4.53-1.18-4.15-3.18Z"/>
  <path class="cls-1" d="M60.07,102.02c-.54,2.16-4.55,2.18-6.29.22-1.45-1.63-3.41-5.94-2.57-8.05,2.27.67,4.6,2.68,6.64,3.97.67.42,1.37.87,1.75,1.57.5.93.62,1.69.47,2.29Z"/>
  <path class="cls-1" d="M46.86,115.37c-2.98,1.83-4.79,3.47-6.85,3.91-.63.14-3.11-3.35-2.73-4.52.67-2.07,2.88-3.64,4.45-5.42,1.46,1.71,2.91,3.42,5.13,6.04Z"/>
  <path class="cls-1" d="M42.7,67.67c1.2,1.81,2.43,2.89,2.51,4.05.06.89-1.33,1.89-2.08,2.84-.96-1.02-2.44-1.92-2.71-3.11-.2-.86,1.19-2.08,2.28-3.78Z"/>
  <path class="cls-1" d="M37.89,82.01c.2.41.59.84.55,1.22-.04.39-.51.74-.79,1.11-.2-.43-.57-.87-.54-1.28.03-.37.5-.7.78-1.05Z"/>
  <path class="cls-1" d="M45.33,100.63c-.4.3-.8.6-1.19.9-.32-.82-.75-1.63-.9-2.48-.05-.26.68-.65,1.05-.98.35.85.7,1.71,1.04,2.56Z"/>
</svg>