<?xml version="1.0" encoding="UTF-8"?>
<svg id="Layer_1" data-name="Layer 1" xmlns="http://www.w3.org/2000/svg" version="1.1" viewBox="0 0 492.11 520.28">
  <defs>
    <style>
      .cls-1 {
        fill: #000;
        stroke-width: 0px;
      }
    </style>
  </defs>
  <path class="cls-1" d="M482.1,276.16c1.98,70.18-23.41,130.4-69.11,182.48-26.07,29.71-59.48,45.11-99.2,45.21-25.71.06-50.91,3.71-76.2,7.72-47.53,7.54-91.84-.52-131.38-29.34-.37-.27-.85-.4-1.18-.7-43.48-39.15-80.42-82.43-93.24-141.92-6.11-28.34-10.23-56.78-7.75-85.67,3.01-35.12,10.78-69.27,25.15-101.67,11.18-25.22,24.88-48.76,43.61-69.34,19.55-21.47,43.27-36.33,69.92-47,25.48-10.21,51.83-17.91,78.99-21.17,15.18-1.83,30.67-5.19,46.34-1.53,5.68,1.33,11.88.81,17.82.57,11.26-.46,22.26,1.8,31.73,7.09,29.13,16.25,58.39,32.46,86.29,50.7,31.16,20.37,48.78,51.2,59.8,86.21,8.52,27.04,14.86,54.56,18.19,82.65,1.39,11.75.23,23.79.23,35.71ZM22.45,272.47c-.72,15.02,1.48,34.52,6.26,53.7,6.88,27.6,15.38,54.52,32.96,77.63,15.59,20.49,32.64,39.69,51.77,56.85,11.96,10.73,26.08,18.32,41.3,23.95,27.08,10.03,54.79,9.66,82.5,4.77,25.73-4.53,51.45-7.49,77.61-7.73,28.57-.26,53.42-10.22,74.11-30.57,22.23-21.85,38.63-47.45,51.93-75.43,19.3-40.61,22.71-83.62,18.88-127.39-2.27-25.88-8.42-51.23-15.86-76.23-11.1-37.29-30.37-68.48-64.45-88.94-31.4-18.85-62.94-37.46-94.39-56.22-5.27-3.14-10.84-4.75-17-4.25-11.84.96-23.8,1.17-35.52,2.95-27.56,4.19-54.32,11.66-80.31,21.81-35.61,13.9-64.44,36.32-85.05,68.69-29.43,46.22-44.81,96.67-44.74,156.42Z"/>
  <path class="cls-1" d="M105.45,176.43c1.12-11.3-1.17-22.64,2.33-34.03,6.13-19.94,17.37-35.35,36.36-44.03,11.25-5.14,19.74-12.54,26.72-22.6,14.04-20.23,34.56-30.96,57.86-36.4,16.34-3.81,36.73,6.91,44.31,23.21,3.99,8.58,6.58,18.03,8.33,27.36.99,5.29,3.28,6.55,7.69,7.51,36.77,7.97,65.85,28.43,90.14,56.33,5.38,6.18,10.35,12.89,14.43,19.98,13.66,23.74,26.9,47.56,32.42,75.06,4.03,20.11,4.38,39.48-.38,59.49-4.94,20.81-8.84,41.83-17.08,61.71-9.15,22.08-23.29,38.99-46.5,47.52-11.12,4.09-21.65,9.73-32.53,14.49-7.94,3.48-15.9,6-24.95,6.33-7.93.29-15.79,3.74-23.56,6.19-1.39.44-2.34,2.67-3.23,4.23-4.59,8.04-12.04,10.82-20.68,11.1-5.95.19-11.95.31-17.87-.24-14.98-1.37-29.96-2.8-44.86-4.82-16-2.17-29.56-9.83-40.34-21.57-12.29-13.38-26.26-24.09-42.91-31.33-1.66-.72-3.09-1.97-4.69-2.85-14.51-7.95-22.13-20.27-22.5-36.7-.13-5.9-2.35-10.01-5.77-14.69-12.35-16.87-20.23-35.99-21.79-56.84-1.39-18.65-1.97-37.4,1.81-56.11,2.93-14.5,9.48-26.65,19.7-36.82,7.13-7.09,15.03-13.42,22.74-19.9,1.29-1.08,3.36-1.24,5.07-1.82-7.06,12.19-13.68,24.67-21.34,36.48-5.05,7.79-9.5,15.71-11.32,24.73-4.4,21.78-3.8,43.67-.07,65.49,1.82,10.64,7.2,23.57,12.9,31.88.1-17.29,4.91-32.83,12.32-47.73,4.4-8.85,11.68-15.2,20.78-16.56,19.72-2.95,39.4-2.39,56.08,11.1,1.8,1.46,2.59,4.18,3.84,6.31-2.6.23-5.33,1.06-7.79.58-8.9-1.74-17.66-4.17-26.56-5.89-20.06-3.89-30.33,1.81-37.59,20.49-.49,1.26-.71,2.63-1.15,3.91-6.67,19.46-6.13,39.62-5.52,59.73.24,8,5.46,13.43,11.75,17.62,4.56,3.04,9.25,6.05,14.24,8.26,12.88,5.71,23.1,14.66,32.26,25.09,2.11,2.41,4.37,4.73,6.78,6.83,9.03,7.89,18.63,14.85,30.96,16.49,12.63,1.69,25.27,3.43,37.95,4.64,7.28.69,14.67.68,21.99.43,8.4-.28,12.97-5.56,11.01-13.43-1.28-5.15-3.92-10.2-6.91-14.64-3.81-5.67-8.7-10.62-12.94-16.02-13.18-16.79-23.34-34.6-23.94-57.01-.37-14-5.62-26.87-16.85-36.28-6.98-5.84-14.28-11.3-21.46-16.91-2.59-2.02-2.65-5.01.17-6.48,6.4-3.36,13.52-4.74,19.29.05,14.14,11.73,27.93,24.08,32.19,43.19,1.58,7.11,3.01,14.37,3.29,21.61.4,10.48,4.02,19.73,9.36,28.29,5.08,8.12,11.07,15.69,16.79,23.39,5.44,7.32,11.7,14.08,13.56,23.52.49,2.48,2.16,4.73,3.18,6.87,12.87-2.07,24.64-4.33,35.81-10.07,12.96-6.66,26.69-11.85,40.19-17.42,14.61-6.03,25.76-15.99,32.54-30.07,5.1-10.59,9.57-21.67,12.77-32.97,4.7-16.61,9.01-33.45,11.66-50.48,3.3-21.24-1.44-42.12-9.23-61.7-15.62-39.28-37.44-74.33-73.5-98.62-14.78-9.95-30.49-17.82-47.61-23.69-.49,2.01-1.09,3.31-1.07,4.6.3,24.15-8.3,45.4-20.66,65.62-20.47,33.49-51.42,55.37-83.62,75.77-8.18,5.18-16.95,10.91-27.74,6.16-1.12-.49-2.71.09-4.08.2-17.51,1.44-29.75-10.29-34.1-25.89-2.18-7.81-2.61-16.18-3.25-24.34-.88-11.16-1.07-22.39-5.61-32.91ZM268.25,119.17c-.06-17.41-3.03-33.04-9.99-47.69-4.72-9.93-13.4-16.21-24.07-15.14-18.82,1.88-35.37,10.78-47.38,25.12-11.11,13.27-23.13,23.98-38.92,31.47-19.43,9.21-29.3,25.89-28.63,47.56.43,14.11,2.51,28.17,3.8,42.26.67,7.28,1.13,14.57,1.88,21.84,1.07,10.34,8.72,21.77,16.92,22.93,15.16,2.14,30.17,1.89,42.92-8.85,9.1-7.67,18.59-14.87,27.61-22.63,15.35-13.2,29.41-27.65,39.76-45.22,9.58-16.27,17.26-33.25,16.11-51.64Z"/>
  <path class="cls-1" d="M400.28,314.03c1.88,25.61-5.96,46.99-21.88,65.44-12.5,14.49-27.38,25.28-46.56,29.63-11.43,2.59-21.9,1.44-31.15-5.67-11.62-8.93-23.76-16.9-36.39-24.39-13.37-7.93-16.43-22.44-18.3-36.72-2.42-18.52-3.52-37.11-7.52-55.53-4.4-20.25,4.46-37.62,17.61-52.64,5.11-5.84,10.82-11.29,16.95-16.03,5.7-4.41,9.64-9.5,11.81-16.31,1.38-4.32,3.73-8.33,5.21-12.62,3.23-9.37,11.47-13.96,18.56-19.49,4.54-3.54,9.8-1.93,14.06,1.23,12.82,9.52,25.89,18.8,38.02,29.15,7.84,6.69,12.14,16.17,11.91,26.78-.24,11.08,3.34,20.69,9.88,29.27,13.33,17.47,19.73,36.95,17.77,57.92ZM312.77,185.64c-7.96,15.02-20.78,26.66-33.29,38.59-3.65,3.48-7.1,7.16-10.82,10.56-7.27,6.64-12.04,14.97-15.76,23.85-3.18,7.59-5.92,15.62-3.21,23.92,6.28,19.25,7.42,39.32,10.19,59.14,1.63,11.68,5.66,22.52,16.84,28.34,11.44,5.96,21.92,13.11,31.68,21.47,5.16,4.42,11.48,6.34,17.94,4.34,7.34-2.27,14.81-4.89,21.37-8.78,45.55-26.99,48.81-88.64,23.94-119.78-8.79-11.01-14.38-23.49-15.04-37.51-.54-11.44-6.63-18.59-15.24-24.55-9.37-6.48-18.79-12.88-28.62-19.62Z"/>
  <path class="cls-1" d="M133.04,356.17c-7.22-6.82-9.44-14.31-8.33-23.11.51-4.04-.27-8.23-.14-12.33.42-13.07,12.63-22.93,25.39-20.04,10.14,2.3,20.15,5.25,30.09,8.33,6.75,2.1,11.49,6.49,15.07,12.98,5.69,10.31,12.27,20.18,19.07,29.81,2.81,3.98,4.14,7.72,4.26,12.54.13,5.33,1.49,10.63,2.21,15.95.24,1.79.95,4.17.12,5.36-4.37,6.27-3.03,11.79-.36,18.58,3.42,8.7-3.75,17.27-13.36,17.53-9.69.26-18.99-.91-27.26-7.03-3.04-2.25-7.29-3.23-11.14-3.95-8-1.5-11.17-4.89-10.61-12.74.13-1.77,1.22-3.45,1.43-5.23.66-5.72-1.97-8.88-7.85-10.16-5.31-1.16-10.78-2.03-15.8-3.99-10.59-4.12-11.96-9.05-5.87-18.47.74-1.14,1.65-2.18,3.08-4.03ZM171.49,314.2c-.11-.43-.14-.91-.36-1.27-.14-.23-.57-.28-.87-.41l1.55,1.37c3.13,6.6,7.59,11.05,17.04,10.5-5.3-6.31-9.26-11.76-17.36-10.19ZM146.77,349.33c.91,2.16.97,2.75,1.28,2.98,13.14,9.35,24.66,19.78,29.33,36.25,1.52,5.36,6.61,8.49,12.89,8.38,3.68-.06,6.06-1.06,6.41-5.24.6-7.21,1.85-14.39,2.08-21.61.12-3.93-.9-8.04-2.15-11.83-1.27-3.85-4.17-7.24-5.06-11.13-1.5-6.57-5.54-10.33-11.38-12.49-7.95-2.94-14.02-8.2-19.62-14.37-2.71-2.99-5.99-5.75-9.54-7.61-5.45-2.86-12.59.37-14.68,5.95-2.89,7.69,1.08,14.86,9.81,17.92,1.11.39,3,1.45,2.91,1.88-1.24,6.45,6.06,8.22,8.1,13.83-2.3-.45-3.57-.63-4.8-.96-1.24-.34-2.44-.83-5.58-1.93ZM132.93,368.4c8.75,7.18,18.04,6.02,27.5,6.1-6.84-5.45-13.68-10.89-20.91-16.65-2.45,3.92-4.33,6.93-6.59,10.54ZM189.7,410.89c5.96,1.06,9.76,2.17,13.6,2.34,9.98.45,12.11-3.29,7.04-12.18-.83-1.46-2.56-2.4-2.73-2.55-5.64,3.9-10.64,7.36-17.91,12.39ZM207.84,390.42c1.7-1.36,2.92-1.99,3.62-2.99.74-1.06,1.53-2.55,1.36-3.71-1.23-8.32-2.69-16.61-4.09-24.92l-.9-.02v31.64ZM138.64,351.46q-2.84-9.07-9.91-10.7c3.41,3.68,5.8,6.26,9.91,10.7Z"/>
  <path class="cls-1" d="M210.77,102.08c1.05-.38,4.37-1.39,7.53-2.77,8.65-3.79,21.43-.02,26.29,8.03,2.99,4.95,2.33,10.32-1.44,13.95-6.12,5.9-6.34,12.69-5.38,20.13,1.29,9.97-2.5,17.86-10.13,24.06-8,6.5-13.17,14.5-16.46,24.48-5.01,15.19-17.01,24.37-30.9,31.28-3.94,1.96-7.56,2.24-11.66-.02-5.12-2.83-10.6-5.02-15.95-7.41-9.58-4.27-14.18-10.32-9.3-21.8,2.13-5,4.72-9.55-1-14.6-4.98-4.39-3.26-10.15.69-14.63,4.04-4.58,7.08-9.03,7.1-15.66.02-5.6,4.81-8.57,9.7-10.35,5.54-2.02,11.31-3.45,16.85-5.48,2.91-1.07,6.12-2.34,5.67-6.61-.72-6.82,1.29-12.48,6.76-17,5.6-4.62,11.75-6.88,21.64-5.61ZM237.46,113.83c-6.77-4.37-12.02-9.55-18.96-2.61-2.08,2.08-3.55,1.59-5.35-.79-1.13-1.5-3.49-2.85-5.33-2.89-9.14-.21-17.37,6.68-16.94,15.79.48,10.1-5.2,13.9-12.97,16.64-4.28,1.51-8.84,2.24-13.06,3.86-3.31,1.28-7.01,2.77-6.65,7.54.42,5.56-2.53,9.53-6.17,13.2-3.5,3.52-3.49,7.11-.29,10.91,1.64,1.95,2.94,4.17,4.44,6.34,4.23-3.69,7.88-6.87,11.42-9.96-5.54-10.09-5.25-11.5,2.73-17.04,3.72-2.58,6.93-6.63,11-7.81,10.09-2.92,16.13-9.16,19.92-18.62,1.78-4.45,5.62-6.75,11.24-6.41-3.73,7.38-6.83,14.21-10.59,20.65-1.5,2.58-4.19,4.71-6.78,6.36-7.55,4.83-15.31,9.33-23.23,14.1,4.32,4.9,7.34,8.97,2.37,13.96-2.82,2.84-7.38,5.42-7.91,8.66-.56,3.36,2.74,7.4,4.44,11.09.54,1.18,1.38,2.22,2.1,3.36,13.74-5.53,24.08-13.04,24.04-29.83-.01-4.39,3.65-9.1,6.42-13.1,2.3-3.32,5.67-5.96,8.76-8.67,6.22-5.47,7.92-11.87,5.02-19.71-.8-2.15-.53-4.7-.92-8.93,4.59,2.97,7.47,4.83,10.68,6.91,1.59-2.12,2.85-3.92,4.24-5.62,1.73-2.12,3.56-4.15,6.35-7.38ZM155.25,185.07c-2.05,3.57-2.61,4.31-2.93,5.13-4.78,12.28-4.49,12.97,7.7,17.94,1.69.69,3.77.91,5.04,2.04,8.58,7.62,16.04,3.57,23.03-2.27,7.75-6.48,14.55-13.49,17.16-24.08,2.18-8.86,6.69-16.78,14.66-22.43,8.67-6.14,11.85-14.63,8.02-26.26-2.37,5.42-3.15,11.4-6.55,14.19-11.89,9.78-17.55,22.03-20.84,36.87-2.41,10.88-19.61,20.98-29.92,20.72-4.03-.1-6.38-1.28-7.52-6-1.19-4.92-4.5-9.33-7.85-15.85Z"/>
  <path class="cls-1" d="M309.12,280.83c5.8-4.47,6.02-10.87,5.55-17.26-.6-8.31,2.96-14.61,7.94-20.44,1.09.54,1.81.79,1.79.9-2.54,13.24.44,27.05-4.22,40.06-.61,1.71-.56,3.85-1.6,5.17-4.17,5.29-9.8,9.77-12.69,15.63-3.07,6.25-5.36,12.49-11.82,15.41,1.44,3.32,4.03,6.37,3.68,9.02-1.07,8,3.02,11.78,9.47,14.48,2.48,1.04,4.86,2.31,7.89,3.77,6.72-13.48,15.27-24.75,30.56-28.67,1.07-.27,1.65-2.12,2.69-2.92,5.5-4.2,4.43.9,5.03,3.62-.68.29-1.36.58-2.04.87.39.34.77.68,1.16,1.02l.64-2.13c3.35-9.07,2.84-10.97-4.42-16.42-13.67-10.26-22.65-38-17.9-53.82,1.57-5.23,4.25-.37,6.11-1.39-1.14,11.33-.33,22.21,7.69,32.95.29-12.58.82-23.74-8.01-32.68-1.87-4.84-3.74-9.69-6.19-16.04,12.72,3.85,18.95,11.61,22.57,21.87,1.06,2.99,2.09,6.21,2.08,9.33-.06,14.49,4.57,27.76,9.92,40.9,4.52,11.1,1.91,21.6-3.47,31.53-4.13,7.62-9.12,14.77-13.5,22.26-7.9,13.53-20.35,17-34.27,13.69-14.99-3.57-27.73-11.79-36.44-24.99-10.52-15.94-8.59-32.87,1.62-47.43,4.18-5.96,9.25-11.33,14.21-16.71,4.83-5.24,8.15-10.13,5.71-18.2-2.67-8.83,1.38-17.06,6.52-24.32,5.59-7.9,10.51-10.26,25.05-12.09-4.27,3.86-7.17,6.44-10.03,9.07-7.72,7.09-13.13,15-11.43,26.39.87,5.84.32,11.88.42,17.83-7.71,8.72-16.21,16.89-22.94,26.31-8.02,11.23-6.81,23.45,1.27,34.39,7.92,10.72,19.26,16.36,32.19,18.8,5.31,1,10.45-.65,13.73-4.58,6.83-8.18,12.44-17.24,17.07-28.11-19.75-.45-25.33,13.37-30.93,26.67-6.97-2.29-13.43-4.13-19.68-6.53-6.32-2.43-11.16-6.2-10.42-14.16.19-2.1-.52-4.44-1.37-6.44-3.52-8.23-3.35-8.71,2.35-15.02,7.18-7.94,10.22-18.78,18.17-26.29.93-.88.21-3.51.25-5.33Z"/>
</svg>