<?xml version="1.0" encoding="UTF-8"?>
<svg id="Layer_1" data-name="Layer 1" xmlns="http://www.w3.org/2000/svg" version="1.1" viewBox="0 0 71.92 150.76">
  <defs>
    <style>
      .cls-1 {
        fill: #000;
        stroke-width: 0px;
      }
    </style>
  </defs>
  <path class="cls-1" d="M43.93,89.02c3.56-.05,7.15-.42,10.67-.07,6.52.65,10.8,4.54,12.99,10.57,3.23,8.89,2.5,17.74-2.66,25.52-8.86,13.36-21.99,19.92-37.73,21.45-6.46.63-11.71-2.07-15.27-7.29-7.82-11.48-10.01-24.22-5.8-37.4,2.61-8.16,8.4-13.97,17.36-15.99,3.97-.89,7.54.33,11.21,1.07,3.83.77,3.73.86,5.52-2.52,3.92-7.43,5.43-15.46,6.12-23.71.39-4.63.79-9.26,1.03-13.9.72-14.22-3.52-26.55-13.94-36.57-.87-.84-1.66-2.68-1.32-3.66.66-1.91,2.85-2,4.34-1.22,2,1.04,4.12,2.38,5.42,4.16,8.99,12.35,14.12,25.85,11.7,41.5-.77,4.99-1.09,10.06-1.56,15.1-.69,7.51-3.4,14.31-7.14,20.77-.41.7-.54,1.56-.8,2.34-.11.14-.23.28-.34.42.07-.18.14-.36.21-.55ZM29.53,89.1c-10.92-1.1-18.79,9.66-19.76,17.99-1.03,8.8.41,17.3,4.31,25.25,3.67,7.51,9.7,10.35,17.78,8.33,7.85-1.96,15.1-5.28,21.51-10.36,8.41-6.66,11.6-15.22,9.65-25.74-1.5-8.09-13.42-14.62-20.96-11.24-1.29.58-1.99,2.49-2.97,3.78,1.22.61,2.39,1.33,3.67,1.79.51.18,1.23-.31,1.84-.29.55.02,1.09.34,1.63.53-.23.54-.32,1.26-.72,1.59-4.17,3.47-11.43,2.98-15.75-1.01-1.06-.98-.74-2.52.67-2.93.59-.17,1.26-.06,1.87-.18,2.34-.43,4.61-2.7,4.41-5.06-.21-2.41-2.49-2.29-4.29-2.46-1.05-.1-2.11-.02-2.89-.02Z"/>
</svg>