<?xml version="1.0" encoding="UTF-8"?>
<svg id="Layer_1" data-name="Layer 1" xmlns="http://www.w3.org/2000/svg" version="1.1" viewBox="0 0 71.92 150.76">
  <defs>
    <style>
      .cls-1 {
        fill: #000;
        stroke-width: 0px;
      }
    </style>
  </defs>
  <path class="cls-1" d="M63.23,107.72c0-.24,0-.48,0-.73.31-14.19-10.06-17.08-18.93-15.69-4,.63-7.84,2.25-11.76,3.35-.61.17-1.53.28-1.91-.05-.35-.3-.44-1.34-.2-1.85,2.24-4.93,5.92-8.31,11.32-9.22,6.34-1.06,12.52-.33,18.28,2.79,4.93,2.67,8.27,6.48,9.4,12.15,3.29,16.46-.95,30.71-13.02,42.25-14.52,13.87-41.98,9.53-51.1-8.67-5.23-10.44-.98-26.43,6.63-32.54,1.1-.88,2.45-1.53,3.78-2.02.46-.17,1.45.35,1.77.83.24.37.01,1.45-.37,1.76-4.42,3.51-6.44,8.28-7.42,13.66-2.71,14.86,6.22,25.22,19.99,27.48,11.36,1.86,20.53-2.13,26.97-11.64,4.41-6.53,6.36-13.99,6.59-21.87Z"/>
  <path class="cls-1" d="M41.56,102.46c-.12,5.75-5,10.86-10.2,11.16-.56.03-1.41-.54-1.65-1.06-.22-.48.27-1.25.32-1.9.07-.92,3.75-1.08.64-2.61-9.69-4.79-12.12-13.87-11.88-23.15.47-18.29,1.5-36.69,8.3-54.03,2.56-6.52,3.02-13.02,2.46-19.84-.54-6.45,1.7-8.48,7.84-7.64,6.23.85,6.26,1.2,3.13,6.97-6.15,11.32-10.32,23.45-11.76,36.19-1.37,12.21-1.53,24.56-2.09,36.85-.33,7.19,2.05,13.78,5.31,20.02,1.67,3.2,2.84,3.12,4.9.28.42-.59.71-1.29,1.19-1.81.61-.66,1.37-1.18,2.06-1.76.57.93,1.14,1.86,1.42,2.33Z"/>
</svg>