<?xml version="1.0" encoding="UTF-8"?>
<svg id="Layer_1" data-name="Layer 1" xmlns="http://www.w3.org/2000/svg" version="1.1" viewBox="0 0 492.11 460.84">
  <defs>
    <style>
      .cls-1 {
        fill: #000;
        stroke-width: 0px;
      }
    </style>
  </defs>
  <path class="cls-1" d="M330.06,52.92c4.63-1.28,9.27-2.57,14.72-4.08-1.16-1.44-1.74-2.16-2.32-2.87-9.54-11.83-3.58-28.89,11.32-32.07,10.92-2.32,20.68.6,29.52,7.17,2.81,2.09,5.74,4,8.57,6.06,1.74,1.28,4.15,2.36,4.92,4.12,2.18,4.95,5.97,4.77,10.09,4.01,12.99-2.38,26.29-3.43,38.66-8.58,2.72-1.13,5.39-2.42,7.91-3.94,1.53-.92,2.78-1.68,4.3-.26,2.01,1.87.57,3.33-.54,4.91-6.47,9.15-15.87,13.68-26.28,16.47-4.43,1.19-8.99,1.87-13.5,2.71-10.07,1.86-15.46,11.52-11.77,21.21,1.21,3.19,2.46,6.37,5.22,9.34.12-2.16.18-4.33.36-6.48.52-6.17,3.57-9.3,9.59-10.02,6.61-.79,12.95.15,18.97,2.99,8.68,4.1,16.32,9.63,22.43,17.09,5.49,6.71,7.64,14.16,4.79,22.71-2.7,8.13-8.8,11.97-17.61,13.74,9.18,1.78,16.77,5.15,23.52,10.35,4.18,3.21,7.66,7.04,8.93,12.25,2.13,8.72-2.61,16.25-11.89,19.44-12.26,4.22-23.34,1.53-34.17-5.83-1.03,1.53-2.16,3.28-3.37,4.97-1.26,1.76-2.49,3.56-3.92,5.17-6.52,7.34-14.07,10.9-23,6.09-4.52,5.31-8.82,10.15-12.88,15.18-5.14,6.36-11.6,10.47-19.57,12.21-1.55.34-3.1.68-5.2,1.15.48,3.03,1.46,5.89,1.28,8.68-.91,13.8-11.84,28.5-22.55,29.71-3.36.38-4.08,3.13-5.72,5.19-6.25,7.84-13.64,13.85-24.19,14.73-4.98.41-9.76.3-13.37-3.9-10.73,17.29-22.14,21.25-37.85,13.42-9.52,17.44-21.09,13.37-31.43,3.08-2.3,2.09-4.55,4.3-6.97,6.31-8.62,7.14-14.89,6.69-22.56-1.55-1.1-1.18-2.02-2.53-3.29-4.14-3.18,6.44-7.78,11.49-15.17,11.56-7.13.07-13.08-3.18-16.93-10.23-1.18,1.21-2.06,2.07-2.89,2.98-4.02,4.39-8.66,4.97-13.99,2.58-6.88-3.09-12.41-7.67-16.31-14.13-13.1,8.6-22.75,7.02-31.37-8.56-2.43.54-4.95,1.3-7.54,1.63-12.38,1.58-18.68-3.98-22.21-12.21-.53-1.24-1.21-2.44-1.58-3.73-2.09-7.25-4.64-14.43-5.98-21.83-1.11-6.18-5.16-8.51-10.09-10.3-2-.73-4.22-.96-6.37-1.18-16.89-1.72-26.28-12.74-32.72-26.94-2-4.42-1.96-9.6-.01-14.31,2.46-5.95,1.36-10.72-3.17-15.43-6.22-6.48-6.98-13.24-1.19-20.6,8.16-10.38,15.74-21.43,26.13-29.91.84-.68,1.69-1.38,2.64-1.89,16.83-9.14,33.01-19.73,51.79-24.7,6.71-1.78,13.41-4.34,20.63-2.93,2.77.54,3.77-1.78,4.9-3.52,3.05-4.66,7.59-6.99,12.8-7.75,2.86-.41,5.89.37,8.85.58,7.53.56,15.07,1.59,22.59,1.53,11.67-.08,23.33-.97,34.99-1.37,2.57-.09,3.94-.95,4.5-3.54,3.31-15.34,22.58-22.3,35.3-21.16,11.08.99,19.89,6.46,28.31,13,1.49,1.15,2.88,2.43,4.98,4.22,1.31-7.91,5.26-13.72,10.23-19.04,4.87-5.2,10.72-8.22,17.73-8.8,7.26-.59,14.43-1.29,21.83-.02,13.02,2.24,17.33,13.83,10.69,24.37-.98,1.56-1.61,3.34-2.4,5.02-.24.38-.47.77-.71,1.15.2-.42.39-.83.59-1.25ZM355.14,61.42c-4.75-.27-8.64,1.77-12.93,4.3,3.46,1.45,6.26,2.62,9.28,3.89,1.26-2.97,2.39-5.64,3.52-8.3.22-.35.45-.7.67-1.05-.18.39-.36.78-.54,1.17ZM342.85,133.83c5.2-1.82,8.36-5.74,10.78-10.42.19-.34.37-.68.56-1.02-.12.39-.25.78-.37,1.18-3.81.3-7.62.6-11.44.9.21,3.72.37,6.57.54,9.43-.24.41-.48.83-.72,1.24.22-.43.44-.87.65-1.3ZM159.16,118.3c-.35-.25-.69-.5-1.04-.75.41.18.81.36,1.22.53.34,5.27-2.49,9.32-7.07,14.26,3.33-.37,5.06-.06,6.05-.77,3.14-2.28,6-4.95,9.2-7.67-2.77-1.86-5.56-3.73-8.36-5.61ZM294.4,113.75c6.27-1.06,12.55-2.11,19.17-3.23-4.64-8.58-7.08-17.43-4.61-27.06.12-.49-.09-1.06-.15-1.6.23-.1.48-.16.67-.31.12-.09.13-.31.19-.48-.22.32-.44.65-.66.97-6.42,3.08-6.76,3.12-5.95,9.2,1.1,8.33-.97,15.22-7.56,20.61-.53.43-.72,1.28-1.07,1.93-4.63.62-9.27,1.23-14.44,1.92,1.17,2.16,2.34,4.32,3.62,6.67,3.91-3.13,7.34-5.88,10.78-8.63ZM232.87,208.73c-5.41-3.3-10.82-6.61-15.77-9.63-3.36,3.48-6.88,7.12-10.39,10.76,1.2-.07,2.62.12,3.86-.27,5.54-1.71,11.07-2.06,16.78-.87,1.79.37,3.75-.07,5.64-.14,5.86,2.35,11.6,5.06,17.6,6.96,5.18,1.64,10.44,1.27,15.92-.24,8.01-2.21,15.88-5.34,24.45-5.32,8.29.03,15.83-2.44,22.84-7.13,5.16-3.46,11.07-5.47,17.39-6.27,4.81-.61,9.54-1.84,14.31-2.8-10.69.19-20.05-3.82-29.22-8.19-6.44,16.29-18.33,19.28-31.43,8.55-2.01-1.65-4.29-2.97-6.41-4.41-9.02,9.88-18.84,17.28-31.95,18.73-4.49.5-9.07.2-13.61.26ZM177.8,187.39c3.03-.62,4.12,1.47,5.63,3.55,2.52,3.47,5.12,7.09,8.41,9.75,6.59,5.34,15.41,1.81,17.4-6.59.37-1.58.5-3.22.98-4.76,1.53-4.86,5.69-5.94,9.22-2.34,2.46,2.5,4.61,5.32,7.05,7.84,4.88,5.05,11.41,7,17.83,6.09,11.91-1.69,22.01-7.29,28.73-17.82,3.48-5.45,4.29-5.61,8.77-1.12,1.13,1.13,1.8,2.75,3.01,3.76,2.9,2.4,5.76,5.02,9.06,6.73,5.38,2.79,11.15.2,12.87-5.57.65-2.18.83-4.84.19-6.98-.93-3.12-.24-5.28,2.12-7.16,2.53-2.01,4.65.03,6.7,1,1.68.79,2.92,2.51,4.6,3.31,4.83,2.3,9.71,4.55,14.72,6.44,12.62,4.77,30.7-10.56,28.82-23.8-.26-1.87-.41-3.81-.19-5.67.28-2.42,2.56-3.73,4.75-2.73,1.69.77,3.28,1.88,4.74,3.05,3.23,2.6,6.31,2.35,9.69.2,7.04-4.48,10.4-13.28,8.55-22.03-.85-4.01-1.09-8.16-1.66-12.74-8.82,1.45-17.71.29-26.13-5.45-.34,3.1-.41,5.5-.88,7.83-2.42,11.91-9.65,20.25-19.68,26.59-10.19,6.44-21.52,9.97-32.98,13.15-24.52,6.8-49.63,10.84-74.83,13.62-24.2,2.67-48.55,4.15-72.99,1.5-23.37-2.53-45.78-7.96-66.39-19.5-11.41-6.39-22.02-13.87-29.13-25.33-5.28-8.52-6.46-19.79.53-27.19,3.81-4.03,8.74-7.42,13.78-9.78,8.28-3.87,16.96-6.96,25.65-9.86,9.94-3.31,20.39-5.09,29.66-10.4,4.43-2.53,9.6-2.6,14.27-1.47,4.73,1.15,9.15.32,13.69-.05,9.7-.79,19.38-1.94,29.09-2.6,3.65-.25,7.37.45,11.27.73-.78-3.61-1.39-6.44-1.94-8.96-20.19,2.57-39.84,6.76-60.03,4.55-2.68-.29-5.42-.04-8.13-.05-3.85-.02-7.09,1.37-8.54,5.04-2.09,5.27-6.07,6.22-11.1,6.1-9.88-.23-19.39,1.73-28.36,5.89-8.32,3.86-16.26,8.62-24.8,11.86-18.91,7.18-29.41,23.17-41.28,37.83-.17.21-.25.49-.41.7-2.27,2.83-1.48,5.56.34,8.2.77,1.11,1.63,2.17,2.57,3.14,5.35,5.52,7.37,11.53,4.23,19.15-2,4.85-1.68,10.13,1.37,14.74,2.99,4.51,6.21,8.79,10.83,11.95,3.92,2.68,7.83,4.44,12.72,4.51,5.72.09,11.28,1.54,16.06,4.9,6.11,4.29,12.82,5.48,20.07,4.62,2.15-.26,4.35-.21,6.48-.58,10.54-1.82,20.48-.14,29.76,5.08,8.91,5.01,18.19,4.78,27.51,1.9,9.27-2.87,18.41-3.94,27.77-.56,6.07,2.19,12.24,1.02,19.45.13-12.82-4.12-20.63-11.37-21.37-24.5l-.11.16ZM199.66,267.2c-.82-3.26-1.64-6.11-2.19-9.02-.15-.82.5-1.78.78-2.68.87.45,2.04.68,2.56,1.39,2.23,3.06,4.15,6.35,6.42,9.38,5.4,7.21,10.28,8.21,18.12,3.91,1.19-.65,2.3-1.43,3.49-2.07,2.29-1.23,4.18-2.48,2.59-5.62-.34-.67.25-2.58.8-2.78,1.1-.39,2.78-.41,3.7.19,3.17,2.06,6.14,4.43,9.14,6.74,2.59,1.99,5.19,1.74,7.36-.36,2.71-2.62,5.22-5.48,7.58-8.42,1.76-2.19,3.05-4.79,5.86-6.43.28,1.28.51,2.06.61,2.85.86,6.37.94,6.61,7.09,7.71,2,.36,4.16.04,6.23-.19,4.91-.55,8.24-3.84,11.6-7,4.23-3.99,8.4-8.04,12.53-11.99,2.38,2.23-1.28,5.56,1.88,6.81,2.45.97,5.22,1.19,7.88,1.49.99.11,2.07-.49,3.1-.81,10.6-3.38,17.12-10.93,21.33-20.85,1.21-2.85,2.5-5.66,3.76-8.48.47.04.93.08,1.4.11.74,2.86,1.48,5.71,2.35,9.06,11.11-7.46,12.93-18.33,14.43-30.49-2.54.62-4.06.92-5.54,1.37-5.41,1.64-10.71,4-16.23,4.84-8.43,1.28-16.32,3.4-23.51,8.15-4.52,2.99-9.51,5.43-15.08,5.49-9.59.11-18.83,2.12-27.81,5.15-10.87,3.66-21.48,2.87-31.61-1.74-11.56-5.26-23.1-4.28-34.97-1.95-9.32,1.82-18.77,3.38-28.16.63-7.07-2.07-13.85-1.3-20.78.54-7.84,2.08-15.81,4.19-23.93,1.88-4.91-1.4-9.77-3.18-14.39-5.36-5.34-2.52-10.73-3.44-16.56-2.84-9.28.94-18.58,2.45-29.1-.89,3.73,9.58,6.55,18.02,10.27,26.03,3.85,8.29,10.37,10.68,20.37,8.42-.7-2.57-1.41-5.12-2.07-7.68-.68-2.61-1.55-5.2-1.85-7.86-.15-1.38.31-3.52,1.27-4.17,1.75-1.19,2.81.65,3.61,2.08,1.18,2.12,2.36,4.25,3.43,6.42,2.28,4.6,4.44,9.25,6.75,13.83,1.53,3.03,3.77,5.01,7.34,5.78,8.37,1.8,14.23-2.05,15.64-10.54.19-1.16,1.01-2.23,1.53-3.33,1.12.94,2.79,1.66,3.26,2.85,1.08,2.72,1.64,5.66,2.29,8.54,2.06,9.15,9.14,14.14,18.46,12.94,3.91-.5,4.16-.85,3.49-5.15-.42-2.69-1.03-5.37,1.04-7.75,1.25-1.44,2.83-2.14,4.04-.48,1.72,2.35,3.31,4.93,4.34,7.64,2.09,5.48,6.22,7.91,11.64,8.79,4.67.76,8.38-1.48,12.42-4.07ZM276.89,65.26c-6.62-7.41-14.56-12.45-22.5-17.54-8.85-5.68-18.35-5.99-27.93-3.17-5.99,1.77-11.62,4.98-13.44,11.75-2.44,9.07,2.52,18.39,11.4,21.59,7.66,2.76,15.75,3.3,23.75,4.27,2.57.31,4.71-.22,6.38-2.53,5.45-7.56,13.12-11.85,22.34-14.37ZM342.62,116.6c3.57-1.08,7.35-1.74,10.61-3.41,1.9-.97,3.89-3.4,4.24-5.45.85-4.99,1.06-10.15.92-15.22-.07-2.56-1.09-5.3-2.37-7.57-5.24-9.24-14.55-12.3-23.92-15.16-.49-.15-1.25-.28-1.55-.03-4.18,3.6-10.09,5.06-12.35,11.09-7.6,20.35,8.52,36.39,24.42,35.74ZM118.7,88.74c-13.14,5.36-24.91,9.33-35.92,14.84-13.83,6.92-15.11,15.12-5.56,27.25,9.37,11.89,22.41,18.23,35.98,24,.52-3.49.99-6.62,1.5-9.97-.63-.28-1.3-.61-2-.88-13.5-5.06-17.34-17.86-8.75-29.19,3.48-4.59,7.97-7.88,13.83-9.95-3.41-5.04-1.99-9.65.91-16.11ZM299.41,69.47c8.05-6.98,15.09-12.84,21.82-19.04,2.52-2.32,4.84-5.16,6.37-8.21,2.95-5.85.98-10.15-5.55-11.41-5.22-1.01-10.7-.88-16.06-.94-10.8-.13-18.27,5.53-24,14.16-3.29,4.95-3.21,10.3-1.65,15.58.63,2.11,2.47,4.79,4.37,5.44,6.45,2.21,11.66,6.19,16.62,10.77,2.4-2.86,4.41-5.25,6.9-8.21-3.03.64-5.24,1.1-8.83,1.86ZM338.05,137.97c-1.38-8.59-6.22-14-14.25-16.03-5.16-1.31-10.62-2.3-15.9-2.11-9.57.34-16.51,5.97-22.24,13.25-5.75,7.3-5.58,11.21-.16,18.81,1.89,2.65,3.65,3.49,6.59,2.76,6.27-1.56,12.67-2.69,18.82-4.64,9.46-3,19.07-5.82,27.14-12.03ZM416.96,69.68c.43,1.85,1.5,3.81,1.15,5.47-1.08,5.16.34,9.73,2.73,14.02,4.56,8.18,10.17,15.38,19.6,18.48,7.04,2.31,13.66.59,17.48-4.65,3.36-4.6,3.07-10.65-1.86-16.31-3.87-4.44-8.41-8.45-13.16-11.95-7.76-5.71-16.5-7.86-25.95-5.08ZM402.53,137.22c1.71,6.76,2.97,13.68,5.26,20.23,2.17,6.18,5.85,6.99,11.32,3.28,4.61-3.12,8.05-7.33,9.28-12.83,1.46-6.55,2.66-13.17,3.65-19.81.54-3.65-.81-7.19-3.49-9.59-3.38-3.03-7.23-5.55-11.03-8.08-2.7-1.8-4.8-.82-6.8,1.69-5.85,7.35-8.37,15.57-8.19,25.1ZM250.58,149.05c10.47.2,16.86-5.85,21.21-14.65,4.08-8.25,2.14-13.59-6.19-17.87-1.67-.86-3.48-1.48-5.13-2.38-5.49-2.99-11.02-1.02-13.85,2.93-3.69,5.14-9.16,8.29-12.59,13.45-1.34,2.02-2.99,3.85-4.14,5.96-2.53,4.63-2.03,6.44,2.62,9.1,5.55,3.17,11.61,4.19,18.07,3.47ZM198.24,152.21c2.16-.24,4.41-.18,6.45-.8,3.06-.94,6.1-2.12,8.88-3.67,1.96-1.09,2.88-3.14,2.14-5.62-2.34-7.86-15.01-16.32-23.33-16.28-7.87.04-14.01,4.64-20.81,7.25-8.39,3.22-8.56,11.19-1.01,16.22,1.52,1.01,3.39,1.6,5.17,2.09,7.43,2.04,14.97,1.29,22.5.79ZM292.38,94.79c2.84-4.76,2.5-9.5-1.02-14.04-.65-.83-1.08-1.89-1.4-2.91-1.09-3.45-3.6-4.25-6.9-4.24-10.62.05-17.86,5.6-22.77,14.36-3.31,5.92-1.2,12.16,5.23,14.66,5.94,2.31,12.29,3.97,18.61,4.83,6.56.89,11.95-4.33,12.28-11.18.17-3.67-2.3.18-4.03-1.48ZM440.38,124.42c-1.17,7.52-2.47,15.21-3.47,22.93-.16,1.26.6,3.37,1.59,3.93,9.55,5.39,19.64,6,29.57,1.53,7.88-3.54,8.55-10.31,2.23-16.05-5.38-4.89-11.87-7.32-18.86-8.86-3.61-.79-7.07-2.21-11.07-3.49ZM180.57,85.55c-4.02.27-7.67,1.24-10.24,4.39-3.74,4.57-5.41,10.08-5,15.83.51,7.26,5.07,10.3,11.63,9.1,9.93-1.83,18.61-7.08,26.08-13.89,3.67-3.34,2.89-6.57-1.87-8.76-4.4-2.02-8.97-3.7-13.55-5.27-2.24-.77-4.69-.95-7.04-1.39ZM256.64,107.52c-4.81-4.27-6.95-8.78-7.27-14.14-.03-.54.06-1.41-.2-1.55-1.05-.54-2.59-1.5-3.28-1.12-2.88,1.61.57,1.32.86,2.05.8,2.07-.07,3.2-1.84,3.49-3.91.64-7.94.7-11.8,1.53-7.03,1.51-12.96,5.2-17.79,10.49-4.24,4.65-4.87,11.64-1.3,16.33,1.89,2.48,4.57,4.36,6.84,6.47,12.31-11.46,25.39-23.61,35.78-23.54ZM155.19,138.71c-1.75-.42-3.08-.6-4.29-1.07-4.3-1.65-8.02-.94-12.05,1.43-4.11,2.42-8.78,4.02-13.35,5.5-2.53.82-3.45,2.11-3.59,4.57-.32,5.53,3.24,8.89,7.38,10.66,11.69,5.01,23.58,7.35,35.02-1.8-7.46-4.35-9.58-11.26-9.12-19.3ZM383.24,112.05c10.87-2.03,19.41-7.44,24.82-17.36.38-.7.73-1.46.91-2.23,1.19-5.12-2.23-8.46-7.37-7.23-2.07.5-4.13,1.11-6.22,1.51-4.74.91-9.53,1.63-14.26,2.6-5.33,1.1-9.02,4.82-12.3,8.73-2.83,3.36-2.12,7.4,1.48,9.82,3.83,2.59,8,4.5,12.94,4.14ZM369.86,78.55c2.79-.46,4.7-.58,6.49-1.11,3.86-1.15,7.76-2.25,11.44-3.85,6.43-2.78,8.22-6.1,7.87-13.38-.23-4.79-2.76-7.56-7.53-7.53-11.91.07-23.07,7.93-28.56,17.22-1.93,3.27-.48,6.32,3.28,7.43,2.53.75,5.23.93,7.01,1.23ZM365.3,41.41c6.91-1.15,13.03-2.09,19.1-3.22,3.52-.66,4.37-2.6,2.56-5.9-2.81-5.15-6.87-10.02-12.52-10.69-7.31-.87-15.14-1.46-22.08,2.72-.45.27-.85.68-1.17,1.11-4.73,6.3-5.16,13.18,4.48,14.87,3.41.6,6.89.82,9.62,1.13ZM162.18,85.18c-5.77-3-7.03-3.27-14.73-2.16-8.37,1.21-14.97,5.6-20.38,11.92-1.7,1.98-2.54,4.38-1.06,6.69,1.46,2.26,3.45,4.19,6.62,3.64.53-.09,1.07-.09,1.61-.14,5.69-.52,11.19-.29,16.35,2.75,2.19,1.29,4.4.11,4.56-2.5.44-7.43,3.2-13.99,7.03-20.19ZM150.88,120.75c-3.08-8.11-9.02-10.45-15.53-11.9-.93-.21-2.49-.23-2.89.31-2.31,3.13-6.35,2.78-9.09,4.8-3.43,2.52-7.04,5-9.8,8.17-2.61,2.99-1.72,7.96,1.28,9.14,2.65,1.03,5.91,1.97,8.52,1.34,9.7-2.34,18.42-7.1,27.52-11.85ZM352.04,190.31c6.53-1.24,11.49-2.43,16.51-3.07,7.49-.95,13.05-4.74,17.54-10.59,2.31-3.01,4.67-6.09,7.49-8.57,5.61-4.93,6.34-10.5,3.3-16.97-.42.34-.91.62-1.23,1.03-.5.63-.8,1.43-1.33,2.03-5.26,6.05-10.76,11.57-19.93,9.44-2.12-.49-2.87,1.16-3.19,2.8-2.11,10.65-9,17.57-19.16,23.89ZM169.08,165.84c10.35,5.22,90.37-2.38,113.4-9.9-2.58-2.01-5.33-4.15-8.23-6.41-7.51,8.47-17.25,11.7-28.36,10.89-6.51-.48-12.79-2.34-18.49-5.53-2.78-1.56-4.65-1.27-7.29.42-3.82,2.43-8.01,4.44-12.29,5.94-9.41,3.31-19.18,3.1-28.87,1.53-4.02-.65-7.37-.49-9.87,3.07ZM229.19,90.14c-1.37-.64-2.28-1.21-3.26-1.51-6.77-2.06-13.25-4.5-17.71-10.55-.78-1.05-2.77-1.8-4.15-1.72-11.61.68-23.22,1.53-34.82,2.51-1.36.11-2.64,1.27-3.96,1.94,6.72.71,13.16.33,19.59-.01,8.77-.48,16.35,3.11,23.28,7.77,2.64,1.77,3.99,5.46,6.01,8.38,4.8-2.18,9.63-4.37,15.01-6.81ZM205.42,110.46c-4.56,3.04-8.54,5.69-12.95,8.62,5.56.9,10.42,1.69,15.52,2.52-.88-3.82-1.64-7.1-2.57-11.15ZM436,115.54c3.8,4.41,6.84,2.58,11.2,2.05-4.14-.76-6.88-1.26-11.2-2.05ZM418.42,101.07c.03-.2.16-.51.07-.6-1.02-1.03-2.07-2.03-3.12-3.03-.28.41-.87,1.05-.78,1.18.71.96,1.5,1.89,2.4,2.67.23.2.94-.13,1.42-.22ZM396.16,80.03c.65-.26,1.13-.45,1.61-.65-.58-.28-1.14-.72-1.74-.78-.45-.04-.94.41-1.42.64.55.28,1.11.56,1.55.79ZM399.24,49.86c.18.14.39.43.54.4.43-.07.84-.27,1.25-.42-.17-.13-.37-.4-.52-.38-.44.07-.85.25-1.28.39ZM400.98,75.78c-.48-.13-.89-.3-1.31-.33-.16-.01-.34.29-.52.45.34.2.68.53,1.04.54.25.01.51-.41.79-.67ZM348.48,191.56c.45.1.91.24,1.36.27.2,0,.41-.25.61-.38-.59-.09-1.18-.19-1.77-.25-.05,0-.14.24-.2.37Z"/>
  <path class="cls-1" d="M137.94,336.74c-2.01,4.81-6.07,7.13-9.97,9.33-9.45,5.32-14.39,13.44-16.6,23.78-.57,2.65-.36,4.76,1.08,6.79,7.81,10.98,14.81,22.41,26.47,30.35,15.2,10.35,29.65,21.82,44.25,33.03,6,4.61,11.84,5.15,18.91,2.41,19.36-7.48,39.1-14.01,58.36-21.73,15.27-6.12,30.16-13.24,45.02-20.32,4.31-2.05,8.42-5.03,11.79-8.41,8.44-8.47,9.8-22.37,2.63-32.01-6.61-8.88-14.19-17.06-21.62-25.3-1.93-2.14-5.03-3.18-7.32-5.07-2.02-1.67-3.96-3.62-5.29-5.84-.6-.99-.09-3.4.79-4.3.76-.78,3.06-.9,4.17-.33,4.55,2.32,9.72,4.23,13.19,7.74,8.36,8.45,16.31,17.39,23.64,26.74,8.76,11.18,8.77,29.92-.31,41.81-3.68,4.82-8.03,8.88-13.48,11.44-15.89,7.44-31.66,15.2-47.9,21.77-14.72,5.96-30.01,10.52-45.04,15.7-6.12,2.11-12.39,3.85-18.3,6.41-6.47,2.8-12.15,1.26-17.79-1.85-1.89-1.04-3.72-2.27-5.37-3.66-12.48-10.43-24.86-20.99-37.41-31.35-3.09-2.55-6.45-5.02-10.1-6.57-13.15-5.6-21.93-15.5-28.64-27.68-1.98-3.59-2.02-7.37-.76-11.01,1.59-4.58,3.24-9.25,5.68-13.41,6.64-11.35,18.24-15.04,29.92-18.49Z"/>
  <path class="cls-1" d="M279.85,369.05c-1.05-1.54-1.78-2.61-2.67-3.92-3.27,2.23-6.48,4.57-9.82,6.69-14.32,9.07-29.84,14.57-46.62,17.59-16.18,2.92-31.78,1.69-47.21-2.84-6.93-2.03-13.74-5.03-20.01-8.62-12.29-7.04-15.62-16.76-11.21-30.3,2.71-8.31,6.92-15.9,12.35-22.71,8.13-10.19,16.19-20.34,18.1-33.85.09-.63,1.14-1.68,1.52-1.59.9.22,2.25.9,2.36,1.57.31,1.79.28,3.71-.01,5.52-1.43,8.7-5.37,16.36-10.02,23.71-3.62,5.71-7.46,11.31-10.67,17.24-2.29,4.24-4.12,8.84-5.41,13.49-1.81,6.47-.48,12.3,5.21,16.68,5.68,4.37,12.24,6.81,18.94,8.94,18.86,6.01,37.84,5.15,56.63.04,15.09-4.1,29.84-9.31,43.91-16.32,2.96-1.47,3.54-3.09,3.8-6.12.85-10.06-2.03-19.06-6.32-27.95-3.39-7.02-6.35-14.29-8.9-21.66-1.2-3.48-1.34-7.45-1.32-11.19.02-2.16,1.33-4.31,3.5-6.27.3,1.13.89,2.27.87,3.39-.21,8.45,3.06,15.83,7.02,22.97,3.67,6.62,7.7,13.04,11.26,19.72,4.11,7.71,4.78,15.87,2.23,24.28-1.63,5.37-1.58,5.38-7.47,11.5Z"/>
  <path class="cls-1" d="M177.9,187.23c-3.26,2.83-6.28,6.01-9.85,8.38-3.76,2.5-7.88,4.72-12.14,6.18-12.04,4.14-20.37-.3-24.28-12.29-5.99,1.39-11.92,3-17.95,4.1-7.31,1.33-14.46.39-21.38-2.44-4.84-1.98-7.65-5.84-9.97-10.3-4.71,1.81-9.31,3.88-14.1,5.29-3.04.89-6.45,1.39-9.57,1.04-11.31-1.29-17.68-10.65-15.36-22.3.68-3.43,1.96-6.74,2.98-10.17-3.32-.72-6.79-1.16-10.06-2.24-8.87-2.94-11.98-10.67-7.08-18.64,4.14-6.73,9.62-12.41,16.66-16.33.71-.39,1.39-.91,2.16-1.09,1.83-.43,3.88-1.03,4.91,1.3.82,1.86-.47,2.81-1.81,3.94-3.09,2.63-6.02,5.45-8.9,8.32-1.33,1.32-2.4,2.9-3.52,4.42-1.64,2.21-3.73,5.02-1.71,7.28,1.5,1.69,4.74,2.25,7.28,2.5,3.2.32,6.5-.46,9.73-.29,5.92.32,7.98,3.97,5.46,9.4-1.25,2.69-2.97,5.18-4.04,7.93-1.71,4.4-2.69,9.52.57,13.1,3.24,3.57,8.19,1.93,12.16.25,4.7-1.99,9.16-4.55,13.67-6.96,1.18-.63,2.1-2.21,3.24-2.32,1.98-.19,4.23.02,6.02.82,1.94.86,1.78,2.89,1.34,4.93-.54,2.54-1.28,5.38-.65,7.76,1.07,4.06,4.72,5.61,8.66,6.29,11.02,1.92,21.44-.08,31.44-4.8,4.85-2.29,6.34-1.52,6.76,3.56.97,11.57,5.24,14.5,16.35,11.89,7.22-1.7,13.81-4.49,19.8-8.83,1.14-.83,2.34-1.54,3.05.49l.11-.16Z"/>
</svg>