<?xml version="1.0" encoding="UTF-8"?>
<svg id="Layer_1" data-name="Layer 1" xmlns="http://www.w3.org/2000/svg" version="1.1" viewBox="0 0 492.11 385.46">
  <defs>
    <style>
      .cls-1 {
        fill: #000;
        stroke-width: 0px;
      }
    </style>
  </defs>
  <path class="cls-1" d="M475.43,162.76c-.27,16.06-3.78,28.24-9.39,39.92-13.94,29.01-30.2,56.29-58.4,73.87-9.21,5.74-19.27,10.17-29.11,14.84-4.97,2.36-10.53,2.95-10.91,10.78-.11,2.31-6.1,5.25-9.85,6.33-33.68,9.72-67.65,18.51-100.1,32.05-5.66,2.36-11.03,5.46-16.41,8.46-10.46,5.84-16.81,4.19-21.56-6.81-5.26-12.18-10.02-24.59-14.58-37.05-14.35-39.18-27.96-78.64-42.88-117.6-14.8-38.65-34.25-75.17-54.11-111.42-1.14-2.08-2.55-4.02-3.61-6.13-3.34-6.69-2.67-9.35,3.66-12.55,26.26-13.28,52.37-26.87,78.99-39.38,9.15-4.3,19.53-6.28,29.57-8.16,2.63-.49,7.06,2.68,8.95,5.38,5.72,8.15,10.6,16.9,15.82,25.41,1.17,1.9,1.84,4.61,5.14,2.94,23.42-11.85,47.3-4.83,71.26-2.22,17.55,1.91,34.68,5.16,51.6,9.98,47.33,13.47,81.18,42.37,99.88,88.12,3.36,8.22,4.55,17.34,6.04,23.26ZM210.31,18.19c-1.02.46-2.01.62-2.54,1.2-10.07,10.91-24.1,15.06-36.92,20.97-17.63,8.13-35.79,15.15-53.92,22.14-7.29,2.81-7.5,2.19-3.17,8.97,25.61,40.12,48.32,81.8,64.86,126.5,12.5,33.78,23.55,68.09,35.49,102.08,4.4,12.52,9.45,24.81,14.3,37.16,1.34,3.42,2.93,5.43,7.28,2.68,19-12.02,40.1-19.24,61.38-25.93,18.97-5.97,38-11.74,57-17.6,4.77-1.47,5.94-3.33,2.2-7.8-4.23-5.06-7.91-10.74-10.97-16.6-32.94-63.14-65.58-126.43-98.62-189.52-10.79-20.6-22.49-40.72-33.81-61.03-.66-1.19-1.73-2.16-2.56-3.19ZM265.15,51.44c-4.96.61-10.37,1.28-15.78,1.95,2.38,5.15,4.92,10.23,7.09,15.46,1.64,3.95,3.88,4.73,7.75,2.99,12.28-5.53,25.54-5.31,37.84-2.35,27.12,6.53,54.05,14.13,80.57,22.77,15.89,5.18,30.48,13.91,39.56,28.88,7.13,11.75,13.43,24,19.94,36.11,1.79,3.33,3.31,6.87,4.47,10.47,1.41,4.38,2.3,8.92,3.41,13.39-3.33-3.54-7.24-6.69-9.86-10.69-6.51-9.9-13.02-19.88-18.46-30.39-10.14-19.61-26.9-30.16-47.06-36.55-20.33-6.44-40.56-13.25-61.08-19.01-13.61-3.82-27.22-8.76-41.84-7.07-8.65,1-9.99,3-6.4,10.66,25.96,55.49,51.95,110.97,78.12,166.37,4.66,9.87,10.21,19.31,15.38,28.94,2.65,4.93,5.73,6.27,11.54,3.66,43.77-19.67,69.36-54.81,84.96-98.62,5.02-14.11,4.06-27.93-2.1-41.56-14.04-31.08-35.66-54.81-66.95-69.08-38.28-17.46-79.51-21.28-121.12-26.34Z"/>
  <path class="cls-1" d="M224.43,377.23c-26.87-.36-48.43-4.19-69.45-13.1-31.25-13.24-59.75-30.95-87.66-49.87-1.51-1.02-2.62-2.62-3.92-3.94,2.07.41,4.36.37,6.17,1.29,19.03,9.67,37.7,20.08,57,29.16,42.26,19.89,86.36,22.82,132.04,14.35,52.07-9.65,100.28-28.92,145.01-56.59,34.54-21.38,59.8-51.02,71.12-91.01,1.41-4.99,2.03-10.19,3.18-15.26.16-.7,1.25-1.45,2.04-1.65.47-.11,1.67.76,1.73,1.29,1.31,11.35,2.2,22.59-1.99,33.73-13.33,35.46-36.37,63.52-67.23,84.59-46.77,31.94-98.06,53.85-154.1,63.6-12.59,2.19-25.48,2.6-33.93,3.42Z"/>
  <path class="cls-1" d="M167.39,328.22c-31.96-4.95-63.21-10.2-92.94-22.38-25.87-10.61-44.97-27.96-55.27-54.33-.69-1.77-1.45-3.51-2.25-5.24-12.7-27.44-9.93-53.58,3.33-80.57,14.46-29.42,34.08-53.58,61.19-71.65,6.25-4.17,13.4-7.04,20.32-10.11,1.3-.58,3.44.72,5.19,1.15-.94,1.27-1.59,3.08-2.85,3.72-19.92,10.17-35.61,25.35-49.07,42.72-15.28,19.72-25.3,42.24-31.26,66.46-1,4.07-1.52,8.69-.67,12.72,7.27,34.24,20.7,64.18,55.64,79.2,25.48,10.95,52.19,16.95,79.4,21.36,11.21,1.82,22.31,4.31,33.39,6.77,1.54.34,2.75,2.22,4.11,3.38-1.14.83-2.18,2.17-3.43,2.41-8.25,1.6-16.55,2.96-24.83,4.39Z"/>
  <path class="cls-1" d="M121.18,116.72c-4.52,3.03-6.72,4.12-8.44,5.73-14.62,13.63-29.18,27.32-43.71,41.05-10.1,9.54-18.82,20.11-24.72,32.87-.99,2.14-3.62,3.53-5.49,5.27.29-2.61.22-5.33.92-7.83,3.77-13.62,11.81-24.93,20.88-35.29,10.3-11.78,21.04-23.31,32.67-33.74,5.38-4.82,13.28-6.89,20.16-9.92,1.07-.47,2.82.61,7.74,1.86Z"/>
  <path class="cls-1" d="M171.16,105.64c1.01,3.16,3.14,8.99,2.87,9.1-6.4,2.67-8.05-3.36-10.01-6.89-3.89-7-6.86-14.54-9.65-22.07-.61-1.65.56-5.02,2.01-6.02,1.15-.79,4.46.24,5.93,1.5,2.47,2.12,4.47,4.92,6.24,7.7,3.01,4.75,4.78,4.89,6.86-.76,1.97-5.37,5.6-5.98,9.75-1.76,2.45,2.49,4.99,5.69,5.49-1.26.45-6.25,1.88-11.75,10.37-9.13.78.24,2.18.13,2.6-.39,7.55-9.13,12.27-.5,17.72,2.87.98.6,1.34,2.21,1.98,3.35-1.34.29-2.74.96-4.02.79-4.13-.54-7.78-1.97-9.58,4.37-.61,2.14-7.7,1.79-9.96,4.27-2.66,2.91-3.13,7.75-4.92,11.59-.49,1.05-2.91,2.41-3.38,2.08-7.18-4.97-13.71,1.85-20.58.96-.17-.36-.29-.76-.53-1.06-.13-.17-.46-.2-.7-.29.51.35,1.01.7,1.52,1.05Z"/>
  <path class="cls-1" d="M189.26,156.65c-2.09-.95-5.74-1.51-6.2-3.03-1.43-4.76-1.66-9.87-2.35-14.85,2.43.15,5.57-.61,7.13.63,3.13,2.49,5.51,8.23,6.21-1.28.37-5.02,4.05-7.47,9.03-6.84,4.62.58,6.77-1.21,8.33-5.51,1.62-4.5,5.27-6.91,10.18-4.47,4.35,2.17,8.05,2.32,11.41-1.66.05-.06,3.08,1.55,3.13,2.46.38,6.74-3.11,10.92-10.22,10.28-4.92-.44-8.31-.82-9.81,4.68-.23.84-.93,1.96-1.67,2.2-4.07,1.37-9.2,1.42-12.04,4.03-2.76,2.54-2.63,8-4.92,11.4-1.06,1.57-4.89,1.26-8.2,1.96Z"/>
  <path class="cls-1" d="M209.67,189.06c-.16-5.19,2.56-6.65,7.6-3.77,3.32,1.89,4.88,2.16,6.17-1.52.77-2.22,1.37-4.5,2.21-6.69,3.8-9.94,5.08-10.75,15.18-6.83,4.19,1.63,5.91.38,7.79-3.03,2.44-4.43,4.12-9.91,10.65-10.07.91-.02,2.37,0,2.63.5.46.88.61,2.36.16,3.21-2.83,5.4-5.49,10.96-8.94,15.96-2.78,4.03-6.94,7.12-12.06,3.73-6.15-4.07-7.46.25-9.57,4.5-1.62,3.26-3.69,8.4-6.15,8.76-9.66,1.42-9.09,6.54-6.55,13.35.47,1.27.39,2.83.22,4.22-.14,1.13-.78,2.21-1.2,3.3-.62-.68-1.59-1.27-1.82-2.06-2.27-8.15-4.41-16.32-6.34-23.56Z"/>
  <path class="cls-1" d="M276.74,204.34c-.69,7.67-3.07,10.43-10.88,12.84-2.62.81-6.14,1.08-7.58,2.91-5.52,7-11.42,12.01-21.11,12.57-5.29.3-4.88,5.94-4.37,10.4.08.69-1.6,1.87-2.67,2.29-.53.21-1.8-.63-2.29-1.31-4.45-6.22-2.51-15.45,4.94-17.67,8.23-2.46,13.55-7.04,19.01-13.48,5.24-6.18,13.23-10.1,20.23-14.66,2.87-1.87,5.16,1.17,4.71,6.12Z"/>
  <path class="cls-1" d="M264.15,253.19c12.54,4.18,16.88-4.65,23.1-10.01,1.12-.96,3.09-.93,4.67-1.35.03,1.28.54,2.82.02,3.81-2.61,4.95-4.89,10.26-8.44,14.46-3.39,4.01-8.25,5.19-14.08,4.04-10.62-2.1-12.08-.57-12.91,10.2-.25,3.28-.09,6.61-.56,9.85-.16,1.1-1.95,2.96-2.53,2.8-1.51-.42-3.68-1.54-3.98-2.78-2.25-9.14.21-17.96,4.45-25.73,1.7-3.11,7.51-3.98,10.27-5.3Z"/>
  <path class="cls-1" d="M313.15,272.69c-.22-.08,1.18.02,1.35.54.38,1.14.48,2.61.07,3.72-.47,1.26-1.48,3.06-2.5,3.25-9.78,1.78-15.47,9.64-22.93,14.87-1.77,1.24-4.55,2.01-6.6,1.62-2.56-.49-4.86-2.4-7.27-3.7,2.04-1.43,4.07-2.87,6.12-4.28,2.62-1.8,6.26-3,7.69-5.48,5.27-9.19,14.11-9.89,24.07-10.53Z"/>
</svg>