<?xml version="1.0" encoding="UTF-8"?>
<svg id="Layer_1" data-name="Layer 1" xmlns="http://www.w3.org/2000/svg" version="1.1" viewBox="0 0 492.11 385.46">
  <defs>
    <style>
      .cls-1 {
        fill: #000;
        stroke-width: 0px;
      }
    </style>
  </defs>
  <path class="cls-1" d="M84.38,316.12c2.66-12.95,5.86-29.13,9.34-45.24,5.57-25.8,10.99-51.63,17.2-77.28,2.08-8.59,6.24-16.7,9.72-24.91,1.5-3.55,4.02-7.37,8.36-5.99,2.59.83,5.03,3.99,6.34,6.68,7.62,15.7,14.86,31.59,22.32,47.37.57,1.21,1.77,2.14,2.67,3.19.38-1.13.92-2.23,1.11-3.39,3.25-19.52,6.58-39.02,9.6-58.57,1.08-6.97,1.32-14.07,2.04-21.09.33-3.26.32-6.73,1.47-9.71,2.88-7.46,10.41-9.14,15.73-3.25,3.41,3.78,5.94,8.5,8.23,13.11,10.75,21.7,16.69,45.04,22.76,68.32.36,1.36.35,2.83.71,4.19.21.79.81,1.49,1.24,2.22.91-.97,2.4-1.81,2.64-2.92,1.3-5.98,2.05-12.07,3.42-18.03,4.87-21.12,9.61-42.27,15.07-63.24,1.76-6.74,5.29-13.11,8.66-19.28,1.17-2.13,4.82-4.82,6.47-4.33,2.63.78,5.65,3.63,6.55,6.27,4.23,12.48,7.77,25.19,11.63,37.8.5,1.64,1.39,3.16,2.1,4.73,1.06-1.53,2.56-2.92,3.11-4.61,6.63-20.63,13.12-41.31,19.65-61.97,1.13-3.58,1.99-7.27,3.51-10.68,2.1-4.72,5.9-7.21,11.25-7.01,5.64.21,8.44,3.79,9.95,8.6,3.68,11.67,7.23,23.38,10.76,35.09.54,1.79.7,3.7,1.04,5.55.84-1.66,2.01-3.23,2.47-4.98,4.42-16.85,8.7-33.73,13.08-50.6.94-3.64,1.56-7.5,3.26-10.77,3.87-7.45,12.5-7.77,16.98-.53,2.45,3.95,4.24,8.5,5.41,13.01,4.97,19.15,9.62,38.39,14.33,57.61,1.23,5.03,2.01,10.19,3.49,15.14.89,2.98,2.01,6.72,4.28,8.28,6.02,4.12,5.32,9.37,1.61,13.14-17.89,18.15-36.04,36.08-54.74,53.39-5.73,5.3-10.56,3.28-14.93-3.77-1.23-1.99-2.21-4.13-3.31-6.21-2.1,1.69-4.41,3.18-6.27,5.11-9.2,9.52-18.14,19.29-27.46,28.68-3.62,3.65-7.71,7.11-12.19,9.52-2.44,1.31-7.52,1.55-9.05-.02-5.09-5.23-7.59-2.02-10.77,1.75-6.99,8.31-14.12,16.52-21.25,24.71-6.06,6.96-9.59,6.86-15.98-.27q-5.14-5.75-11.16-.07c-11.74,10.98-23.45,21.99-35.3,32.85-3.47,3.18-7.18,6.18-11.12,8.77-8.98,5.9-13.13,4.86-16.59-5.89-2.21-6.88-4.32-4.08-7.4-1.57-10.63,8.65-21.16,17.42-31.92,25.91-3.31,2.61-7.04,4.84-10.89,6.56-10.61,4.75-20.91-2.15-19.29-12.35.29-1.84.04-3.77.04-9.01ZM292.32,219.37c.87-.24,2.02-.2,2.57-.75,15.28-15.34,30.43-30.79,45.77-46.07,2.9-2.89,2.49-5.22,1.11-8.72-8.12-20.5-15.89-41.13-23.8-61.7-.44-1.15-1.11-2.21-1.67-3.31-.85,1.1-2.02,2.07-2.5,3.31-7.91,20.6-15.98,41.14-23.47,61.9-3.37,9.34-4.41,18.87-1.53,29.03,2.39,8.46,2.49,17.57,3.6,26.39-2.42.99-5.57,1.36-7.07,3.13-1.94,2.28-2.56,5.69-3.75,8.61,2.33-1.55,5.05-2.74,6.88-4.74,1.76-1.92,2.61-4.68,3.87-7.07ZM221.32,238.32c-.73-1.46-1.43-2.69-1.97-3.98-5.08-12.15-10.16-24.29-15.18-36.46-5.04-12.2-9.97-24.44-15.11-36.6-.46-1.08-2.06-1.67-3.13-2.49-.3.87-.69,1.71-.9,2.6-4.76,20.64-9.28,41.34-14.34,61.91-2.43,9.89-2.61,19.18,1.57,28.75,2.21,5.05,2.04,11.1,4.03,16.29,1.49,3.89.33,6.04-2.02,8.68-4.7,5.29-9.22,10.75-13.6,16.31-.43.55.45,2.41,1.09,3.41.26.4,1.75.48,2.31.12,1.18-.74,2.15-1.83,3.15-2.83,17.3-17.42,34.61-34.84,51.87-52.31.94-.95,1.51-2.28,2.23-3.41ZM104.99,304.82c.26.77.81,2.41,1.36,4.05,1.22-.67,2.6-1.15,3.63-2.04,7.5-6.49,14.9-13.09,22.39-19.59,9.73-8.45,20.15-15.45,33.38-17.38,5.34-.78,5.69-2.21,1.45-6.03-11.85-10.69-19.85-23.83-25.67-38.52-4.17-10.52-8.57-20.95-12.96-31.37-.62-1.47-1.8-2.7-2.72-4.04-.42,1.34-.98,2.66-1.23,4.03-3.57,18.97-7.22,37.92-10.58,56.93-3.12,17.62-5.93,35.29-9.04,53.96ZM282.68,209.74c-.54-1.1-.92-1.96-1.36-2.79-10.83-20.22-15.13-42.51-20.59-64.45-.3-1.19-1.02-2.28-1.54-3.42-.95.95-2.39,1.74-2.75,2.88-1.84,5.84-3.43,11.76-5.06,17.67-6,21.8-12.02,43.6-17.86,65.44-.36,1.35-2.17,5.96,2.31,3.57,4.52-2.41,5.57-1.73,5.83,3.05.49,8.77-4.67,15.05-8.84,21.89-.96,1.57-1.37,4.86-.42,5.94,2.72,3.09,3.7-.63,4.82-2.16,9.5-13.02,19.34-25.61,33.28-34.42,3.9-2.46,6.88-6.42,10.16-9.81.93-.96,1.41-2.34,2.02-3.4ZM343.78,141.03c1.36,6.46,2.37,12.48,3.94,18.36,1.65,6.15,2.36,6.27,8.78,3.06,2.53-1.26,4.96-2.72,7.53-3.87.66-.3,2.22-.05,2.45.41.54,1.08,1.18,2.94.65,3.61-4.64,5.88-9.51,11.59-14.35,17.31-3,3.55-6.2,6.94-8.97,10.66-.54.72.44,2.59.72,3.93.74-.28,1.69-.36,2.19-.88,13.1-13.56,26.23-27.1,39.1-40.88,1-1.07.95-4.45.01-5.78-7.62-10.78-9.97-23.16-11.88-35.82-1.47-9.74-3.47-19.41-5.44-29.06-.44-2.13-1.76-4.08-2.68-6.11-1.02,1.68-2.41,3.24-3,5.06-5.88,18.35-11.63,36.74-17.43,55.11-.56,1.78-1.18,3.54-1.63,4.9Z"/>
  <path class="cls-1" d="M133.76,353.82c39.48-2.13,76.53-13.02,112.45-28,54.04-22.53,101.25-55.02,139.69-99.47,27.58-31.9,48.31-67.53,56.82-109.46,1.5-7.37,3.71-14.61,5.83-21.84,1.74-5.94,5.87-7.29,10.56-3.08,9.57,8.6,10.29,20.41,7.9,31.46-3.17,14.68-7.53,29.36-13.46,43.14-17.06,39.65-42.52,73.63-74.17,102.78-54.38,50.07-117.79,83.28-189.97,99.39-30.62,6.83-61.54,10.42-92.79,4.08-31.26-6.34-66.6-26.25-72.57-74.49-2.81-22.71-.2-44.27,6.19-65.6,20.49-68.4,62.17-121.39,120.26-161.75,40.66-28.25,84.89-49.2,133.41-60.22,26.35-5.98,52.91-9.31,79.93-4.39,11.75,2.14,22.84,5.93,32.9,12.39,8.58,5.5,14.98,13.08,18.81,22.5,1.57,3.86,6.28,9.39.13,12.05-4.84,2.1-4.27-4.89-6.12-7.65-10.98-16.39-27.61-22.01-45.8-24.83-32.56-5.03-63.9,1.1-94.61,11.17-57.94,19-109.72,48.67-152.23,92.73-34.74,36-59.23,78.24-69.38,127.76-2.26,11.01-3.06,22.54-2.78,33.79.84,33.39,19.83,56.11,52.56,62.98,11.94,2.5,24.28,3.09,36.43,4.55Z"/>
</svg>