<?xml version="1.0" encoding="UTF-8"?>
<svg id="Layer_1" data-name="Layer 1" xmlns="http://www.w3.org/2000/svg" version="1.1" viewBox="0 0 492.11 289.78">
  <defs>
    <style>
      .cls-1 {
        fill: #000;
        stroke-width: 0px;
      }
    </style>
  </defs>
  <path class="cls-1" d="M45.81,191.31c-7.1-6.18-15.41-6.71-23.07-8.92-3.21-.93-6.55-1.41-9.78-2.28-3.75-1.01-6.96-2.86-7.56-7.15-.57-4.04.8-7.35,4.58-9.3,3.85-2,7.57-4.77,11.68-5.66,8.82-1.92,17.82-3.41,26.81-4.02,10.09-.68,20.25-.26,30.39-.2,3.02.02,6.15,0,9.04.75,10.69,2.77,20.59,1.04,30.2-4.15,14.05-7.59,26.77-16.74,37.19-29.04,18.54-21.88,42.31-36.17,68.66-46.74,23.49-9.42,48-15,72.63-20.21,10.83-2.29,21.84-3.83,32.53-6.59,10.25-2.65,19.97-1.16,29.79,1.48,19.06,5.11,38.13,10.19,57.16,15.4,2.56.7,5.05,1.88,7.37,3.21,5.55,3.19,11.01,6.54,16.46,9.92,12.79,7.92,16.8,20.17,10.79,33.82-1.61,3.65-3.72,7.26-6.32,10.27-13.46,15.56-26.77,31.26-40.87,46.22-11.59,12.31-25.31,22.18-39.93,30.77-16.01,9.4-32.82,17.09-49.99,24.05-13.53,5.48-27.76,7.9-42.13,9.47-4.24.46-8.66-1.02-13.01-1.17-8.1-.29-16.21-.49-24.31-.33-29.39.58-57.25-6.25-84.34-16.98-7.79-3.08-15.44-6.57-23.33-9.37-11.97-4.24-23.3-1.71-33.76,4.76-12.92,7.99-26.15,15.34-40.52,20.33-6.61,2.29-13.45,4.61-20.34,5.25-10.82.99-14.41-5-10.3-15.36,4.77-12.02,12.84-21.19,24.29-28.22ZM368.54,180.31c.98-.24,2.23-.17,2.89-.76,9.5-8.6,19.32-16.9,28.24-26.08,9.86-10.15,18.89-21.12,28.22-31.78,3.55-4.06,7.2-8.08,10.3-12.47,1.82-2.58,4.2-5.44,2.62-9.36-7.04-.02-13.72,5.03-21.82,1.78,4.41-8.64,12.14-8.91,20.47-9.22-1.6-1.74-2.35-2.94-3.43-3.66-9.55-6.34-19.11-12.66-28.79-18.8-1.61-1.02-3.77-1.23-5.71-1.66-14.7-3.3-29.45-6.34-44.08-9.91-11.03-2.69-21.89-2.89-32.96-.39-10.8,2.43-21.71,4.4-32.57,6.59-22.08,4.46-43.83,9.98-64.88,18.25-24.56,9.65-46.77,22.76-63.96,43.03-12.04,14.21-26.62,24.8-42.97,33.12-6.89,3.51-14.41,5.77-22.41,4.93-5.67-.59-11.33-1.61-17.01-1.81-9.11-.32-18.26-.4-27.37-.05-8.06.31-16.17.85-24.09,2.24-5.28.93-10.93,2.21-15.21,7.04,2.46.99,4.27,2.21,6.19,2.41,11.88,1.29,22.55,6.13,33.21,11,2.4,1.09,5.14,2.02,5.1,5.51-.04,3.14-1.91,4.75-4.44,6.16-3.83,2.12-7.72,4.23-11.19,6.86-7.67,5.8-12.54,13.46-15.14,24.28,4.39-.74,7.66-.96,10.73-1.87,16.23-4.78,31.53-11.6,45.47-21.29,17.27-12,35.38-13.32,54.46-4.56,6.4,2.94,13.02,5.45,19.65,7.84,24.88,8.94,50.37,14.18,77.01,13,10.45-.46,20.95.16,31.43.16,4.73,0,9.55.22,14.16-.58,18.63-3.24,36.11-9.87,52.2-18.31-2-9.21-8.7-12.17-16.65-13.45-.33-.05-.69-.03-1-.14-7.21-2.61-9.29-7.06-6.48-14.2.95-2.42,2.23-4.72,3.5-7.39-1.76-1.18-3.14-2.08-4.5-3.02-8.32-5.72-9.19-9.47-4.36-18.58q2.98-5.63-2.26-8.82c-6.52-3.96-7.4-7.48-3.54-14.04,1.16-1.97,2.3-3.94,3.42-5.84-2.26-1.69-4.26-2.97-6.01-4.54-6.59-5.91-6.73-8.81-.8-15.08,1.6-1.69,3.39-3.21,4.83-4.56-2.72-2.38-5.65-4.26-7.58-6.89-1.15-1.56-1.46-4.48-.9-6.44,1.52-5.36,6.54-7.53,10.88-9.97,3.66-2.05,7.72-3.96,12.91-.84-3.57,2.16-6.63,3.94-9.63,5.82-9.49,5.96-9.42,7.26.57,12.55,6.01,3.19,6.4,6.27,1.19,10.5-2.8,2.27-5.75,4.36-9.26,7,2.96,2.19,5.15,3.7,7.22,5.36,5.1,4.09,6.13,7.54,2.64,12.98-1.22,1.9-2.39,3.84-3.78,6.08,1.9,1.15,3.3,2.04,4.73,2.87,6.99,4.03,7.79,6.55,4.27,13.76-1.44,2.96-2.95,5.89-4.56,9.08,1.81,1.26,3.12,2.27,4.52,3.14,9.28,5.73,9.74,7.24,5.02,16.8-2.58,5.24-1.74,7.1,4.44,8,7.9,1.15,14.52,3.12,14.91,13.01.1,2.52,2.57,4.07,5.33,2.41,9.14-5.52,19.41-9.34,26.84-17.49l-.23.27Z"/>
  <path class="cls-1" d="M80.85,222.81c1.34,1.7,3.05,3.22,3.97,5.12,7.95,16.42,22.28,23.83,39.09,27.18,10.17,2.03,20.57,2.88,30.88,4.19,13.99,1.77,28.06,3,41.95,5.3,22.32,3.7,44.73,6.91,67.29,4.32,23.04-2.64,45.63-7.97,67.57-15.72,35.02-12.38,69.18-26.52,99.48-48.56,4.36-3.17,8.6-6.51,12.87-9.81,15.54-12,22.3-29.27,27.66-47.15,5.52-18.39,5.77-37.05,1.21-55.81-2.62-10.76-4.39-21.72-6.98-32.49-3.61-15.02-20.61-28.84-37.33-29.36-5-.16-9.95-1.48-14.94-2.1-6.49-.81-12.07-4.79-19.13-4.29-6.58.46-13.3-.99-19.95-1.73-9.02-1.01-18.01-2.25-27.03-3.16-4.02-.41-8.11-.6-12.13-.33-28.27,1.91-56.22,5.68-82.95,15.71-3.1,1.16-6.01,2.82-8.99,4.29-1.17.58-2.27,1.83-3.41,1.84-8.81.06-16.19,4.44-23.56,8.22-21.89,11.21-43.61,22.78-65.23,34.5-10.74,5.82-19.9,13.88-28.65,22.35-10.18,9.87-20.31,19.78-30.97,29.33,3.57-9.72,9.16-18.23,15.25-26.48,13.96-18.9,32.63-32.1,52.8-43.37,21.76-12.16,43.6-24.18,66.73-33.68,25.62-10.52,51.91-18.19,79.47-21.84,14.52-1.92,29.01-2.32,43.42-1.26,10.24.75,20.47,3.5,30.38,6.45,8,2.39,15.64,3.78,24.18,3.71,12.98-.1,26.37.99,38.89,4.26,14.92,3.9,26.37,13.95,31.36,29.11,3.55,10.8,5.74,22.08,7.97,33.26,1.78,8.88,3.29,17.9,3.89,26.92.99,14.91-2.02,29.42-6.39,43.63-1.18,3.85-2.62,7.62-3.96,11.42-6.68,18.98-19.96,32.45-36.03,43.8-24.11,17.02-50.4,29.7-77.68,40.7-25.63,10.34-51.83,18.62-79.03,23.52-7.92,1.43-15.99,2.09-24.01,2.93-10.71,1.13-21.41,1.94-32.18.13-7.28-1.22-14.74-1.36-22-2.61-17.91-3.09-35.91-4.94-54.07-6-17.77-1.04-35.32-3.61-51.76-11.57-10.81-5.23-16.44-13.43-18.16-24.88-.44-2.93-.88-5.87-1.31-8.8.51-.39,1.01-.78,1.52-1.17Z"/>
  <path class="cls-1" d="M230.76,179.53c-11.5-8.27-11.94-9.62-6.86-20.76-6.15-3.72-12.72-7.55-11.79-16.28-3.26,2.43-6.32,4.48-9.1,6.85-2,1.71-3.73,3.77-5.37,5.83-2.2,2.77-1.15,4.8,1.56,6.67,2.53,1.75,7.99,1.16,6.93,5.67-.6,2.56-4.53,4.34-6.97,6.46-.25.22-.55.4-.82.6-2.71,2.02-6.1,4.1-5.5,7.82.68,4.19,5.03,3.72,8.18,4.53,1.62.42,3.25.86,4.88,1.24,6.09,1.43,6.22,1.67,4.8,9.53,8.12,1.3,13.31,6.72,17.88,13.09-.64.61-1.24,1.47-1.49,1.38-7.43-2.75-14.89-5.47-22.19-8.54-1.24-.52-2.57-2.64-2.55-4,.08-3.92-1.86-4.6-5.27-5.61-12.95-3.88-14.95-12.48-5.7-22.56.87-.95,1.74-1.91,2.55-2.8-6.74-10.55-6.6-12.25,2.16-24.01-1.17-.9-2.38-1.79-3.55-2.72-4.98-3.98-5.63-5.47-3.11-11.04,1.33-2.94,1.72-4.75-.22-7.95-2.74-4.53-1.86-9.64,1.93-14.01,3.9-4.5,8.73-7.48,14.25-9.24,1.92-.61,4.27.1,8.94.34-3.53,2.46-5.05,3.47-6.52,4.55-2.97,2.19-6.23,4.11-8.81,6.7-5.11,5.15-4.39,7.74,2.43,10.76,1.23.55,2.66.91,3.62,1.78,1.79,1.6,1.82,3.69,0,5.24-1.24,1.06-3.02,1.48-4.49,2.29-1.42.79-2.75,1.72-4.34,2.73,4.5,6.4,12.46.44,16.3,6.41,3.56-4.37,6.51-7.99,9.58-11.76-1.25-.82-2.42-1.39-3.34-2.23-5-4.56-5.48-6.41-1.8-12.16,1.76-2.75,2.41-4.24.57-7.65-3.28-6.09-.26-13.36,6.25-17.26,2.54-1.52,5.58-2.24,8.45-3.13.66-.2,2.17.3,2.24.67.16.85-.02,2.15-.6,2.7-2.41,2.32-5.33,4.17-7.49,6.69-3.35,3.91-2.76,7.02,1.41,10.19,1.05.8,2.46,1.17,3.4,2.06,1.82,1.72,1.57,3.72-.26,5.22-1.26,1.03-2.97,1.5-4.38,2.38-1.32.82-2.52,1.84-4.71,3.48,4.11,1.64,7.2,2.65,10.07,4.08,3.05,1.52,3.49,4.08,1.2,6.58-1.58,1.73-3.52,3.15-5.29,4.71-1.76,1.56-3.76,2.93-5.22,4.72-3.8,4.65-2.67,8.9,3.01,11.12,2.14.84,4.76.5,6.85,1.41,1.63.71,3.29,2.33,3.95,3.94.35.87-1.31,2.63-2.19,3.89-.36.52-1.13.73-1.64,1.16-5.91,5.06-5.68,7.39,1.11,10.8.89.45,1.92.64,2.77,1.15,3.56,2.12,4.07,3.84,2.12,7.38-.64,1.17-1.65,2.13-2.37,3.27-.51.8-.82,1.74-1.46,3.17,2.24,1.06,4.26,2.06,6.32,2.97,4.33,1.9,5.18,3.65,3.15,7.52-1.35,2.57-5.19,5.02-2.86,7.84,2.13,2.57,6.04,3.73,9.25,5.33,1.91.94,3.99,1.52,5.68,3.65-3.68,0-7.47.56-11.01-.15-4.2-.83-8.37-2.26-10.88-6.49-2.42-4.08.52-6.99,1.74-10.93-6.93-3.64-10.48-8.95-5.43-17.31Z"/>
  <path class="cls-1" d="M248.36,124.6c-11.93-8.22-11.92-11.96-.08-24.64-4.12-2.65-8.03-5.92-7.11-11.21,1-5.75,5.1-9.29,10.91-10.62.97-.22,1.92-1.02,2.84-.96,1.9.13,3.77.65,5.66,1.02-1,1.49-1.75,3.27-3.05,4.42-2.46,2.17-5.24,3.97-7.95,5.97,2.35,4.57,6.65,3.72,9.63,5.38,1.61.9,3.41,2.39,3.97,4.01.83,2.41-.56,4.35-2.99,5.66-3.25,1.75-6.46,3.67-9.35,5.94-3.08,2.42-2.68,5.09.75,7.2,1.42.87,3.09,1.35,4.5,2.23,3.48,2.19,4.31,5.3,1.71,8.34-1.93,2.26-4.68,3.82-6.92,5.58,1.21,1.66,1.44,2.32,1.89,2.56q9.57,5.02,5.18,15.23c.73.55,1.43,1.23,2.26,1.7,9,5.01,9.12,5.76,2.02,13.69-.68.75-1.44,1.44-2.05,2.24-4.96,6.56-3.98,9.55,3.96,12.33.64.22,1.22.59,1.86.79,9.42,2.97,9.47,3.07,3.79,12.54,3.01.87,5.84,1.75,8.69,2.51,3.5.93,5.74,3.47,4.35,6.64-2.15,4.94,1.15,5.75,4.13,7.1,1.18.54,2.52.74,6.09,1.74-4.87.44-7.4.72-9.93.88-3.99.26-6.88-1.8-7.21-5.51-.35-3.93-2.52-4.55-5.54-5.69-7.27-2.76-7.52-3.72-6.03-12.47-4.81-3.57-12.49-4.12-13.62-12.01-.95-6.63,1.87-11.79,6.93-16.68-5.29-3.61-8.65-7.87-6.16-14.42.27-.71-.58-2.11-1.28-2.84-.91-.96-2.28-1.46-3.28-2.34-4.57-4.04-4.93-6.02-1.95-11.34.98-1.74,2.24-3.32,3.37-4.97Z"/>
  <path class="cls-1" d="M274.99,153.27c4.64,3.06,8.76,4.18,13.11,4.51,2.72.21,5.6.04,6.89,3.12,1.52,3.63-1.33,5.53-3.32,7.75-1.54,1.71-3.02,3.46-4.35,5,.58,1.13.72,1.97,1.18,2.21,9.04,4.75,8.93,4.72,8.05,15.09-.14,1.65.84,3.96,2.1,5.02,1.72,1.45,4.39,1.72,6.3,3.02,2.36,1.62,4.36,3.78,7.27,6.38-20.53.3-26.1-8.04-21.35-20.11-13.69-7.34-14.02-8.41-5.74-20.5-3.48-1.09-6.93-1.85-10.11-3.24-6-2.61-7.41-7.47-4.03-13.25,1.01-1.72,2.34-3.3,3.72-4.75,1.39-1.45,3.02-2.66,4.61-4.04-10.94-8.64-11.57-12.94-.25-27.52-2.13-1.05-4.27-1.9-6.2-3.1-6.51-4.02-7.19-7.83-2.64-14.02.4-.54.98-.94,1.38-1.48.36-.49.58-1.09.86-1.64-1.11-.75-2.33-1.39-3.31-2.28-5.3-4.86-5.4-10.04-.1-14.47,4.21-3.51,9.13-5.66,14.65-6.06,1.08-.08,2.22.65,4.03,1.23-5.99,3.87-11.16,7.22-17.96,11.62,4.94,2.15,8.15,3.46,11.29,4.93,4.19,1.95,4.63,4.52,1.19,7.63-2.21,2-4.72,3.67-7.2,5.58,1.66,4.17,5.54,4.15,8.19,5.88,4.41,2.9,4.99,5.7,1.93,10.16-2.09,3.05-4.5,5.87-6.68,8.85-1.78,2.43-.87,4.3,1.28,6.04q9.31,7.56.72,16.42c-1.63,1.69-3.18,3.47-5.52,6.02Z"/>
  <path class="cls-1" d="M394.73,155.39c-11.37,1.9-20.34-.63-29.08-7.03-12.99-9.52-19.57-22.14-23.45-37.44-3.43-13.52-.71-25.15,6.16-36.44,2.63-4.33,5.68-8.51,11.02-9.71,1.41-.32,3.7.17,4.49,1.16.64.8-.06,3.07-.73,4.41-.73,1.46-2.33,2.48-3.16,3.91-5.66,9.75-8.39,19.36-6.19,31.45,4.18,22.93,19,36.09,37.21,47.24,1.03.63,2.02,1.33,3.73,2.45Z"/>
  <path class="cls-1" d="M368.77,180.04c-2.7,0-5.4.07-8.1-.02-12.29-.42-15.95-5.26-13.04-17.72-2.78-.93-5.65-1.77-8.43-2.84-7.28-2.82-8.37-5.26-6.09-13.25.27-.94.61-1.86,1.2-3.66-3.13-1.2-6.19-2.25-9.14-3.53-9.12-3.93-12.09-10.71-5.09-18.99.22-.26.44-.52.64-.78,1.82-2.38,3.65-4.75,5.47-7.13-2.3-1.75-4.59-3.51-6.9-5.25-4.45-3.36-5.24-9.94-1.42-14.23,1.53-1.73,3.65-2.93,5.98-4.74-1.55-1.74-3.15-3.3-4.48-5.07-2.26-2.99-2.49-6.63-.59-9.52,4.78-7.26,11.48-11.73,22.32-12.6-2.1,2.38-2.94,3.51-3.96,4.44-2.49,2.27-5.19,4.32-7.57,6.7-5.09,5.08-4.87,6.04,1.5,9.05,1.51.71,3.11,1.33,4.44,2.3,3.15,2.29,3.08,5.21-.27,7.24-3.72,2.26-7.72,4.08-11.39,6.42-2.2,1.41-1.91,3.46.22,4.86,1.95,1.29,4.18,2.17,6.15,3.44,4.61,2.98,5.23,6.57,1.79,10.93-1.67,2.11-3.79,3.85-5.55,5.9-5.37,6.28-4.88,8.54,2.44,11.64,1.85.79,3.84,1.28,5.62,2.18,5.56,2.82,6.45,5.1,4.76,11.43q-1.44,5.39,4.12,7.36c1.58.55,3.24.86,4.79,1.47,5.08,2,6.05,4.08,4.81,10.06-1.14,5.54-.89,6.07,4.13,8.56,3.79,1.88,7.59,3.74,11.38,5.62l.23-.27Z"/>
  <path class="cls-1" d="M195.24,199.75c-6.92,4.56-13.78,2.41-20.32-.09-2.12-.81-4.63-3.72-4.81-5.85-.33-4-2.57-5.69-5.35-7.63-2.77-1.94-5.08-4.33-5.23-8.17-.21-5.49,1.58-10.79.42-16.53-.53-2.63,3.24-6.12,5.4-9.81-3.87-4.63-6.39-10.5-1.79-16.61,4.27-5.66,9.96-8.78,19.08-6.45-2.3,1.48-3.49,2.11-4.52,2.94-2.85,2.28-5.91,4.39-8.36,7.05-2.77,3-2.13,4.96,1.65,7.03,1.17.64,2.51.98,3.7,1.6,5.16,2.68,5.25,5,.39,8.55-2.42,1.76-4.84,3.52-7.22,5.32-.16.12-.02.63-.02.96.38.47.72,1.3,1.17,1.36,2.9.38,6.92-.48,7.27,3.46.13,1.42-3.61,3.23-5.65,4.77-1.05.79-2.4,1.21-3.38,2.06-1.86,1.6-1.93,3.61-.13,5.2,1.46,1.29,3.2,2.64,5.03,3.08,4.62,1.11,6.39,3.38,4.37,7.95-1.16,2.61.63,3.79,2.52,4.49,5,1.83,10.08,3.42,15.79,5.32Z"/>
  <path class="cls-1" d="M77.35,172.91c-14.32-2.12-28.99,1.02-44.29-4.17,2.1-1.16,3.29-2.42,4.44-2.38,18.11.61,36.22,1.38,55.78,2.18-2.89,1.21-4.36,1.83-7.17,3.01,5.33,1.34,9.48,2.38,14.25,3.58-1.51.82-2.7,1.97-3.97,2.07-12.71.99-25.43,1.83-38.15,2.64-.53.03-1.11-.61-2.39-1.36,6.48-5.77,14.54-3.53,21.51-5.56Z"/>
  <path class="cls-1" d="M157.5,146.4c-2.9,3.17-5.63,6.02-8.18,9-1.87,2.18-2.81,4.88-.92,7.34,1.35,1.76,4.31,2.74,3.08,5.54-.9,2.05-2.7,3.7-3.85,5.21,6.81,3.17,7.1,3.63,5.55,10.05-1.51,6.26-1.52,6.3,4.15,8.86,1.17.53,2.5.68,4.88,1.3-3.54,3.24-6.36,2.44-9.41,1.26-3.67-1.42-7.06-3.42-7-7.6.06-4.13-.87-6.96-4.73-8.81-1-.48-2.08-2.2-2.02-3.28.33-5.76.4-11.58,1-17.26.34-3.22,3.52-6.36,5.94-9.07,2.45-2.74,5.08-3.02,11.51-2.53Z"/>
  <path class="cls-1" d="M89.06,191.43c-.85,2.22-.99,4.68-2.16,5.35-15.9,9.12-31.03,19.71-48.45,25.99-.24.09-.61-.15-.91-.23,6.44-8.3,36.82-26.84,51.52-31.11Z"/>
  <path class="cls-1" d="M401.64,80.96c1.05.57,4.22,1.68,6.58,3.72,3.27,2.84,3.04,6.54.19,9.75-2.21,2.48-6.74,3.35-10.24,1.95-3.78-1.5-7.22-5.96-7.01-9.08.28-4.33,3.09-6.51,10.49-6.35Z"/>
  <path class="cls-1" d="M137.9,188.72c-1.99.66-3.07,1.43-3.72,1.16-2.72-1.11-6.25-1.87-7.76-3.98-3-4.18-5.14-9.06-7-13.9-.52-1.35.89-3.8,1.99-5.33,2.61-3.64,6.2-5.86,11.71-6.41-.57,5.32-6.18,6.53-7.07,11.29,1.27.8,3.08,1.61,4.43,2.9,1.1,1.04,2.67,3.29,2.29,3.92-3.37,5.43,1.43,7.49,5.13,10.36Z"/>
  <path class="cls-1" d="M101.2,180.85c-8.37,6.43-26.95,12.91-35.33,12.27,10.36-8.95,22.32-10.34,35.33-12.27Z"/>
  <path class="cls-1" d="M117.76,186.15c-6.39.76-9.27-2.86-10.45-7.67-1.15-4.66.75-8.39,6.25-10.59-.28,3.54-1.25,6.74-.57,9.54.72,2.98,2.99,5.59,4.78,8.72Z"/>
</svg>